<?xml version="1.0" encoding="utf-8"?>
<!-- Generator: Adobe Illustrator 19.0.0, SVG Export Plug-In . SVG Version: 6.00 Build 0)  -->
<svg version="1.1" xmlns="http://www.w3.org/2000/svg" xmlns:xlink="http://www.w3.org/1999/xlink" x="0px" y="0px"
	 viewBox="-435 460.4 287.1 393.8" style="enable-background:new -435 460.4 287.1 393.8;" xml:space="preserve">
<style type="text/css">
	.st0{fill:#C74242;}
	.st1{fill:#3E1919;}
	.st2{fill:#DFA6A6;}
	.st3{fill:#C5C7D4;}
	.st4{fill:#797E89;}
	.st5{fill:#888FA3;}
	.st6{fill:#696D77;}
	.st7{fill:#BDC2D5;}
	.st8{fill:#575C68;}
	.st9{fill:#888FA2;}
	.st10{fill:#CDD4E7;}
	.st11{fill:#2B1212;}
	.st12{fill:#898E9B;}
	.st13{fill:#5D616F;}
	.st14{fill:#CED6E9;}
	.st15{fill:#C64141;}
	.st16{fill:#5B606D;}
	.st17{fill:#B03939;}
	.st18{fill:#676D7B;}
	.st19{fill:#878EA1;}
	.st20{fill:#752727;}
	.st21{fill:#A33333;}
	.st22{fill:#3D1817;}
	.st23{fill:#B5BCCD;}
	.st24{fill:#801F1F;}
	.st25{fill:#2A1111;}
	.st26{fill:#C94242;}
	.st27{fill:#933131;}
	.st28{fill:#351616;}
	.st29{fill:#CFD7EA;}
	.st30{fill:#7A7E90;}
	.st31{fill:#3B1413;}
</style>
<g id="Layer_2">
	<polygon class="st0" points="-365,738.2 -275.6,839.2 -230.8,855.5 -214.5,845.5 -180,781.2 -217.7,666.8 	"/>
</g>
<g id="Layer_1">
	<g id="Layer_x0020_1">
		<g id="_494045764256">
			<path class="st1" d="M-274.7,497.3c-0.2-0.1-0.5-0.2-0.7-0.3c-0.4-0.1-0.7-0.3-1-0.5c-0.3-0.1-0.6-0.3-0.8-0.5
				c-0.3-0.1-0.6-0.3-1-0.5c-0.4-0.1-0.8-0.4-1.2-0.6c-0.2-0.1-0.5-0.2-0.7-0.4c-0.2-0.1-0.4-0.2-0.5-0.3c-0.4-0.2-0.7-0.5-0.9-0.8
				c-0.1-0.1-0.2-0.2-0.3-0.2c-0.4-0.3-0.7-0.6-1-1c-0.1-0.1-0.3-0.3-0.4-0.5c-0.1-0.1-0.3-0.2-0.4-0.3c-0.1-0.1-0.2-0.1-0.2-0.2
				l0,0c-0.3-0.1-0.7-0.3-0.9-0.5l-0.1-0.1c-0.3-0.1-0.6-0.3-0.9-0.5c-0.3-0.2-0.5-0.4-0.7-0.6l-0.2-0.2c-0.2-0.1-0.4-0.3-0.6-0.5
				c-0.1-0.1-0.2-0.2-0.4-0.4c-0.3-0.3-0.6-0.6-0.8-0.9l-0.2-0.2c-0.1-0.2-0.2-0.3-0.4-0.5c-0.1-0.1-0.2-0.3-0.3-0.4l-15.4,39.7
				c2.1,2.5,1.9,1.2-0.9,8.7c-0.9,2.3-2.4,7.1-3.5,9c-8.7,1.1-17.7,6.1-25.8,7.9c1.1-0.8,2.1-1.7,3.2-2.5c1.6-0.9,2.7-1.8,4.2-2.9
				c1.2-0.8,2.9-2.2,4.2-2.7c-0.7-1.6-2.4-4-2.7-5.2c-0.4-1.4,5.3-15.3,6-16.3l10.8,3l-5.3-2.9c0.1-1.4,0.5-3.6,1.2-4.7l3.2-0.2
				l12.1-29.5c-2.1,0.2,1.5,0.7-6.4,0.7h-14.9c-1.4-0.1-1.7-0.4-3.3-0.2l-2.1,0.8c1.3,0.3,3,0,4.5-0.1l-2.3,21.9
				c-3.6-0.3-6.4-3.3-11.4-0.2l-0.6,0.4c0-0.1-0.1-0.2-0.1-0.2l-0.5-0.8c-0.2-0.2-0.3-0.5-0.5-0.8c-1.4-2.5-5.6-9.4-6.1-11.1
				c-0.8-0.4-4-6.4-4.2-7.4c-1.9,0.1-2.4,0.1-4.1-0.6l1.1,0.9c0.4,2.5,4.2,7.5,4.7,10.4c1.4,1.5,4.9,9.9,4.7,12.5
				c-6.3,0.9-9.5,1.4-12.4,5.3l-11.4-13c-0.8-0.6-1.1-1.1-1.5-2.1c-1.5-0.8-4.3-4-6.5-4.2c0,0.1-0.1,0.1-0.1,0.2l-0.4,0.6
				c-0.9,0-1.8,0-2.7,0h-1.9c-0.1,0-0.2,0.1-0.2,0.1c-0.1,0-0.2,0.1-0.2,0.1c-0.1,0-0.2,0.1-0.2,0.1c0.8,0.6,0.8,0.6,1.6,1.3
				c2.5,2.3,7.4,5.8,9.8,8.4c0.6,0.2,0.9,0.6,1.4,1l8,6.6c0.9,0.6,0.5,0.2,1.3,1.2c-0.5,0.9-1.2,1.7-2.1,2.4l-6.4,6.9
				c-1-0.3-2.7-1.6-3.7-2.3c-1.3-0.8-2.3-1.5-3.7-2.4l-7.5-4.7c-2.2-0.5-4.6-2.4-7.3-3c0.2,1-0.7-0.4,0.2,0.6
				c0.1,0.1,0.1,0.2,0.2,0.3c0.1,0.1,0.2,0.1,0.3,0.2s0.2,0.1,0.3,0.2l-9.5-2.6c-1-0.1-2.2,1.8-3.3,3c3.7,0.4,5.7,1.2,8.9,2.6
				c1.2,0.5,6.6,3.2,7.1,3.7c3.5,1.2,12.4,7.1,14.7,7.7c-0.4,1.3-2.9,5.5-4,6.3c-6.2,4.7-8.7,4.7-14.9,2.7c-0.9-0.3-2.8-0.9-3.5-1.3
				c-1.5-0.8-1-1.6-2.2-2.7c-1.7-0.2-3.7-0.4-5.4-0.1c-1.3,0.4-3,0.2-4.4,0.2l1.2,0.4c0.1,0,0.2,0.1,0.3,0.1s0.2,0.1,0.3,0.1
				c-6.4,0-7.8,0.1-13.6-0.3c-0.3,0-2.9-0.4-2.5,0.9l0.3,0.3c0.9-0.2-0.2,0,0.6-0.3c0.7-0.3-0.2-0.2,1.1-0.2c0.6,0,1.7,0.1,2.3,0.2
				l3.8,0.3l2.6,0.4c1.5-0.3,10.2,0.5,12.1,0.8l-6.1,22.3l-7.1,2.4l-0.5,8.9l7.8-1.3c0.8,2.7,1,8,1.8,11.5c1.2,5.2,1.1,4.1,3.2,6.8
				c0.7,0.9,0.5,1.6,2,1.6l6.8-2.4c2.8,6.6,6.9,12,12,16.8c0.8,0.8,1.8,1.5,2.5,2.3c0.7,0.9,0.2,0.6,1.1,1.3
				c0.6,0.5,0.9,0.5,1.4,1.1c0.3,0.7-4.8,32.2-5.8,37.3c-0.7,3.9-1.1,8.9-2.1,12.5c0.3,0.4,0.3-0.1,0.6,1l5.9-4.7
				c1.5-1.6,0.5-2.2,1.4-5.2c3.5-1.4,7.1-1.4,9.8-3.6l6.3-5.3c0.5-0.7,0.1-0.9,0.8-0.4c0.9-0.6,0.8-1.1,1.8-1.3
				c0.7-0.1,1.7,0.3,2.4,0.5c2.6,0.8,2.4,0.8,5,0s7.4-2.6,9.9-3c-1,1.2-2.8,1.8-3.3,3c1.1,0,4.9-1.5,6.5-2c2-0.6,1.9-0.2,2.5-2.1
				c0.4-1.2,0.7-2.3,1.1-3.4c1.3-3.9,3-10.4,4.6-13.5c0.7-0.8,68.5-18.3,69.7-18.1c1,2.1,0,6.8-1,9c-1.6,1-12.1,4.7-14.8,5.6
				c-5,1.8-9.9,3.6-14.8,5.5c-4.2,1.6-28.2,10.1-29.9,11.3c0.5,1,0.8,1.4,1.4,2.2l59.5-20.3c-1.1,1.1-8.5,5.2-10.3,6.2
				c-3.6,2-7,4.1-10.5,6.2l-10.7,6.1c-1.8,1.1-3.5,1.9-5.2,3c-1.6,1-3.7,2.3-5.4,3c0.9,1.2,2.3,2.1,3.5,3l1.8,1.5
				c0.8,0.7,1,0.8,1.8,1.5l7.4,5.9l-18.2,57.8c-1.2,3.8-0.4,3-6.6,6.2c-1.4,0.7-7.6,3.9-8.1,4.7c1.1,0.6-0.2-0.4-1.8,1.8
				c-1,1.4-0.7,1.1-2.2,2c0.2,1.5,0.8,2.4,1.7,3.9c0.3,0.6,0.1,0.2,0.4,0.6l0.4,0.6c1.3-0.6,5.9-2.4,6.6-3.1c-1.2,0.7,0,0.9-2.1-4.5
				c2.1-1.3,4.6-2.8,7-4.1c1.5-0.8,5.9-3.6,7.4-3.9c0.1-2.1,12.7-40.1,14.4-45.8c1.5-4.8,4-11.1,4.9-15.7l-10.6-8.9
				c0.1,0,0.2-0.2,0.2-0.1l42.1-25.5c-1.2,5-2,10.9-3,16c-0.5,2.6-0.9,5.1-1.4,7.7c-0.2,1.3-0.5,2.6-0.7,3.9c-0.6,3.5,0,1.3-2.4,4.5
				l-4.2,4.9c-0.7,0.6-0.7,0.4-1.1,1.3l-3.5,20.3c0.7,0.5,2.9,1.9,3.8,2.2l-20,29.5l-21.9,11.2c-1.8,0.9-2.1,2.8-1.6,3.7l7.5-3.1
				c1-0.9,11.3-5.4,13.6-6.3c1.1-0.5,2.2-1,3.3-1.5c3.7-1.5,3.8-3.5,7.4-8.1l14.8-20.5c0.7-1,1.8-2.1,1.9-3.2
				c0.6-1.6,2.2-1.3,3.8-1.3c0.2,0.4,0.3,0.7,0.5,0.9l0.8,1.2l0.3-1.6l-3.3-2.4c-1.2-1-2-1.9-3.2-2.5l3.2-15.7l3.9-1.7
				c1.2-0.7,5.3-9.5,6.1-11c2.7-5,5.2-9.8,7.7-14.8s5.4-9.8,7.7-14.8l7.9-14.9c-0.9,3.5-3.4,9-4.8,12.8l-12.1,32.3
				c-0.8,2.1-2.2,4.7-1.9,6.8c0.6,0.7,13.8,34.2,16.1,39.1l12.6,28.7c1.5,3.3,3.1,6.7,4.3,10c-2.7-1.4-5.7-3.5-8.3-5.1l-16-10.1
				c-1.5-0.9-2.7-1.6-4.1-2.6c-0.8-0.5-1.4-0.8-2.1-1.3c-1-0.6-1.1-0.9-2.2-1.1c-0.7,1.2,0.4,0.1,0.2,1c-2.3,0-10-0.2-11.2,0.3
				c0.8,1,12.3,7.6,14.4,8.9l21.4,13.5c2.4,1.5,4.9,3,7.4,4.5c2.1,1.2,1.4,0.8,2.4,3.3c0.5,1.4,1.1,2.7,1.6,4.2
				c1.1,2.9,2.1,5.9,3.3,8.5l-0.2-1.6c2.2,0,5.3-0.2,7.4,0.3c1.4,0.3-0.7,0.8,0.7,0.1c-0.1-1.5-37.1-87-42.4-99.2
				c-1.7-3.9-1.4-2.5,1.4-10c3.1-8.2,17.6-47.5,20.4-50.7l-12.7,52c-0.3,1.5-0.7,2.9-1.1,4.4c-0.6,2.4-0.5,1.9,0.3,4.1
				c4.8,13.1,9.3,26.9,14.2,39.9l8.5,24c0.9,2.4,2.3,6,2.8,8.3l1-0.9c4,0,2.6,0.2,3.3,0.5c1.2,0.5-0.9,1.1,0.6,0.1
				c-0.2-3.3-5.7-15-6.8-19.4c0.5,1.1,1.3,2.1,1.9,3.7c0.1-0.1,0.2-0.3,0.3-0.2c0.1,0.1,0.2-0.1,0.3-0.2c1.3-0.6,4.6-0.4,6.2-0.4
				c1,0,1.3,0.1,2.2,0.7c2.3-10.3,4.6-15.6,2.1-26.6c-2-8.6-4-17.2-4.8-26c-0.9-10.2,1-17.1,5.3-25.6c1.8-3.4,3.4-7.2,5.2-10.3
				c1.9-3.3,3.7-6.6,5.6-9.9c3-5.4,8.8-14.9,11.2-19.8c1.2-2.4,4.6-8,4.9-10.7c0.5-5.2-3.2-8.3-5.2-10.4c-1.3-1.5-2.5-2.3-4.4-3.4
				c-1.6-1-3.1-1.9-4.9-2.7c-3.5-1.5-7.9-2.9-11.7-3.8c-8.2-1.8-19.9-3-28.4-2.2l0.5-4.5c-1.6,0.4-3.3-0.3-4.1-1.8
				c-0.2-0.3-0.4-0.5-0.5-0.8c-0.2-0.3-0.3-0.7-0.4-1c-0.2-0.2-0.3-0.5-0.4-0.8c-0.1-0.1-0.1-0.2-0.1-0.2c-0.2-0.3-0.4-0.5-0.5-0.8
				v-0.1c-0.2-0.3-0.4-0.5-0.5-0.8c-0.1-0.2-0.2-0.5-0.3-0.7c-0.2-0.3-0.4-0.7-0.5-1.1c-0.2-0.2-0.3-0.5-0.4-0.7
				c-0.3-0.3-0.6-0.7-0.7-1.1l-0.1-0.1c-0.3-0.3-0.5-0.6-0.7-0.9c-0.4-0.2-0.8-0.4-1.1-0.7c-0.1-0.1-0.2-0.2-0.3-0.3
				c-0.6-0.5-1-1.2-1.1-2l-0.1-0.3c-0.1-0.2-0.2-0.5-0.3-0.8c0-0.1-0.1-0.2-0.1-0.3c-0.1-0.2-0.1-0.3-0.2-0.5
				c-0.1-0.2-0.2-0.3-0.2-0.5c0-0.1-0.1-0.2-0.1-0.3c-0.4-0.4-0.7-0.9-0.9-1.4c-0.4-0.5-0.7-1-0.8-1.5c0,0,0-0.1-0.1-0.1
				c-0.2-0.2-0.3-0.3-0.4-0.5l-0.1-0.1c-0.2-0.2-0.5-0.5-0.6-0.8c-0.2-0.1-0.4-0.3-0.6-0.5c-0.2-0.2-0.3-0.3-0.5-0.5
				c-0.2-0.2-0.4-0.5-0.6-0.8c-0.1-0.2-0.3-0.5-0.4-0.7c0-0.1-0.1-0.2-0.1-0.3c-0.1-0.1-0.1-0.3-0.2-0.4c-0.1-0.2-0.2-0.3-0.3-0.5
				c-0.2-0.2-0.3-0.5-0.5-0.7s-0.3-0.4-0.4-0.7c0,0,0-0.1-0.1-0.1c-0.1-0.2-0.2-0.4-0.3-0.6c0-0.1-0.1-0.1-0.1-0.2s-0.1-0.1-0.1-0.2
				c-0.1-0.1-0.2-0.2-0.2-0.3c-0.1-0.2-0.2-0.3-0.3-0.5s-0.3-0.4-0.4-0.6c-0.2-0.3-0.4-0.7-0.5-1.1c0-0.1-0.1-0.2-0.1-0.3
				c-0.1-0.1-0.1-0.2-0.1-0.3c-0.1-0.2-0.3-0.5-0.4-0.7c-0.1-0.1-0.1-0.2-0.2-0.3c-0.1-0.1-0.2-0.2-0.2-0.3
				c-0.1-0.1-0.2-0.3-0.4-0.4c-0.1-0.1-0.2-0.2-0.2-0.3c-0.1-0.2-0.3-0.4-0.4-0.6c-0.1-0.2-0.3-0.4-0.4-0.6
				c-0.1-0.2-0.2-0.4-0.3-0.6s-0.2-0.4-0.3-0.6c-0.1-0.1-0.2-0.3-0.3-0.4l-0.1-0.1c-0.2-0.2-0.4-0.4-0.5-0.6V520
				c-0.1-0.1-0.3-0.3-0.4-0.4c-0.1-0.1-0.2-0.2-0.2-0.3l0.1,0.1c-0.2-0.2-0.3-0.3-0.5-0.5c-0.1-0.1-0.2-0.3-0.3-0.5
				c-0.1-0.2-0.3-0.3-0.4-0.5c-0.2-0.2-0.3-0.4-0.5-0.6c-0.6-0.6-0.9-1.4-1-2.3c-0.6-0.2-1-0.5-1.4-0.9c-0.5,0.3-1,0.6-1.6,0.7
				c-0.1,0-0.2,0.1-0.3,0.1c-0.3,0.2-0.6,0.4-0.9,0.6c-0.6,0.3-1.1,0.5-1.8,0.6c-0.1,0-0.2,0.1-0.3,0.1c-0.3,0.1-0.5,0.1-0.8,0.1
				c-0.4,0.1-0.7,0.2-1.1,0.2h-1.6c-2,0-3.6-1.6-3.6-3.6c0-0.5,0.1-1.1,0.3-1.5c-0.8-0.7-1.3-1.7-1.3-2.7c0-0.2,0-0.4,0-0.5
				c-1.2-0.6-2-1.7-2.1-3.1l-0.2,0.1c-0.4,0.2-0.8,0.2-1.3,0.2c-1.1,0-2.1-0.5-2.8-1.3c-0.5,0.3-1.1,0.4-1.7,0.4
				c-1.5,0-2.8-0.9-3.3-2.2c-0.1-0.1-0.2-0.1-0.3-0.2c-0.3-0.1-0.5-0.2-0.8-0.3c-0.3-0.1-0.5-0.2-0.7-0.3c-0.1,0-0.2-0.1-0.3-0.1
				s-0.2-0.1-0.4-0.1c-0.3-0.1-0.6-0.2-0.9-0.3c-0.2-0.1-0.3-0.1-0.5-0.2l0,0c-0.3-0.1-0.5-0.2-0.7-0.3c-0.3-0.1-0.6-0.2-0.9-0.4
				l0,0c-0.4-0.1-0.7-0.3-1.1-0.5c-0.1,0-0.2-0.1-0.3-0.1c-0.3-0.1-0.6-0.2-0.9-0.3c-0.2-0.1-0.4-0.1-0.6-0.2s-0.3-0.1-0.5-0.2
				c-0.3-0.1-0.7-0.3-0.9-0.5C-274.1,497.6-274.4,497.4-274.7,497.3z M-207.1,551L-207.1,551c0-0.1-0.1-0.2-0.2-0.3
				C-207.1,550.8-207.1,550.9-207.1,551z"/>
			<g>
				<path class="st2" d="M-409.1,628.7c2.7-0.4,5.3-2.1,7.8-3.2c2.7-1.1,6.4,1.1,9.3,1.5c0.3-1.9,0.8-1.8-1.8-3.7
					c-1.2-0.9-2.4-2-3.8-2.5L-409.1,628.7z"/>
				<path class="st2" d="M-411.6,636.1c-1.4,2.7-0.4,7.4,2.7,8.6l6.4,2.3c-1.8-1.5-3.8-2.8-5.8-4.1
					C-410.5,641.3-410.6,638.7-411.6,636.1z"/>
			</g>
			<g>
				<path class="st3" d="M-383,699.2c-2.8-5.8-7.4-19.8-1.3-24.7l4.4-3.8c1.4-1,1.1-0.7,1.6-1.7c-1.2,0.4-3.3,1.7-4.1,2.2l-4.9,4.3
					c-1.5,1.9-2.6,4-2.6,6.5C-389.8,687.6-386.1,696.1-383,699.2z"/>
				<path class="st3" d="M-366.6,672.2c1-0.7,0,0.2,0.7-0.6l13.5-19.4c0.8-1.1,1.5-2,1.8-3.6c0.3-1.6,0.7-3.1,0.9-4.6
					c-0.8,0.6-7.5,12.2-8.6,14C-359.6,660.3-366,670.6-366.6,672.2z"/>
			</g>
			<g>
				<path class="st4" d="M-410.7,536.5c2.3,0,12.4,0.1,13.8,0.7c1.7-0.3,3.6,0,5.4,0.1c1.2,1.1,0.6,1.9,2.2,2.7
					c0.7,0.4,2.7,1.1,3.5,1.3c6.2,2,8.8,2,14.9-2.7c1.1-0.8,3.5-4.9,4-6.3c-2.4-0.6-11.2-6.5-14.7-7.7c0.8,1.6,2.8,5.3,2,7
					c-1.6,3.4-11.4,2.5-15.3,2.7C-398,534.5-408.5,535.5-410.7,536.5z"/>
				<path class="st4" d="M-364.9,504.3c0.4,0.9,0.7,1.4,1.5,2.1l11.4,13c2.9-4,6.1-4.4,12.4-5.3c0.1-2.7-3.3-11-4.7-12.5
					c0,2.8,0.3,5.5-1.7,6.7c-2.1,1.2-4.5,1.3-6.9,1C-357.4,508.8-361.2,506.1-364.9,504.3z"/>
				<path class="st4" d="M-341.7,498.2c0.5,1.7,4.6,8.6,6.1,11.1c0.1,0.2,0.3,0.5,0.5,0.8l0.5,0.8c0,0,0.1,0.1,0.1,0.2l0.6-0.4
					c4.9-3.1,7.8-0.2,11.4,0.2l1.5-13.4c-3.3,2.4-0.2,6.7-9.3,4.8C-333.9,501.5-338.7,499.9-341.7,498.2z"/>
				<path class="st4" d="M-378.6,519.7l7.5,4.7c1.4,0.9,2.4,1.6,3.7,2.4c1,0.7,2.7,2,3.7,2.3l6.4-6.9c0.9-0.7,1.6-1.5,2.1-2.4
					c-0.7-1-0.3-0.6-1.3-1.2l-8-6.6c-0.5-0.4-0.8-0.8-1.4-1c0.7,2.3,3.1,8.6,1.1,10.2C-366.2,522.3-376.1,520.2-378.6,519.7z"/>
				<path class="st4" d="M-307.9,506.7c-1.3,0.9-1.8,1.4-2.4,2.9c-1-0.3-0.9-0.2-2-1.5c-0.6-0.7-0.7-0.7-0.9-1.8l-1.8-9.1
					c-0.5-2.8-0.3-2.5-0.2-5.1l-1.5,19.1l6.4,2.1L-307.9,506.7z"/>
			</g>
			<g>
				<path class="st5" d="M-185.4,755l0.8,0.7c0.3-3-3.2-11.1-4.4-14.4c-0.8-2.2-4.1-12.4-4.9-13.4c-0.5-2.4-1.9-5.9-2.8-8.3l-8.5-24
					c-4.8-13-9.3-26.8-14.2-39.9c-0.8-2.2-1-1.8-0.3-4.1c0.4-1.5,0.7-2.9,1.1-4.4l12.7-52c-2.7,3.2-17.3,42.5-20.4,50.7
					c-2.8,7.5-3.1,6-1.4,10C-222.5,668-185.5,753.5-185.4,755z"/>
				<path class="st5" d="M-182.2,724.5l0.2,1.3c1-1,2.9-8.7,3.1-9.8c0.8-3.5,1.4-7.1,1.8-10.6c3-24.2-5.1-30.5-5.5-43.4
					c-0.2-6.7,1.8-14.6,4.1-20.9c4.6-12.5,11-23,17-33.2c2.9-4.9,12.2-18.9,13.2-24.1c1-4.9-0.2-6.4-1.8-10.3
					c-0.3-0.1-0.1,0-0.6-0.6c-2.4-3.1-3-3.4-5.8-5.8l-4.6-3c-4.8-2.5-8.8-4.3-14.3-6.1c-11.6-3.9-21.9-5.4-33.7-7.5
					c0.4,1.3,1.1,1.7,1.8,2.6c2.2,3.2,4.5,3.2,9.2,3.7c12,1.2,30.1,4.8,38.8,11.8c8.8,7.1,6.6,15,2.1,24.3c-1.9,4-3.8,7.3-5.9,11.1
					c-4.2,7.7-15.6,26.7-18.2,32.5c-10.5,22.8,2.1,40.3,2.1,57.7c0,5.5-0.8,9.7-2.1,15c-0.7,3-1.3,3.9-1.3,7.2
					C-182.6,719.3-182.3,721.8-182.2,724.5z"/>
				<path class="st5" d="M-373.8,731.2c0.6,1.4,0.5,0.3,2.7,2.9c0.9,1,1.6,2,2.6,2.8c1.6-0.3,4-1.2,5.2-1.9c0.8-4-1.5-3.6-4.5-5.1
					c0.2,0.7,0.9,1.8,1.2,2.3L-373.8,731.2z"/>
			</g>
			<g>
				<path class="st6" d="M-329.7,774c0.6-1-0.5-0.3,1.2-1l3.6-1.6c1.6-0.8,3.2-1.6,4.7-2.3l0.7,0.6c0.1,0.1,0.5,0.6,0.5,0.7
					c0.3,0.4,0.7,0.9,1,1.4l16.5,22.1c0.6,0.9,1.3,1.8,2.1,2.8l12,16.4l0.8,0.8c0.4,0.4,0.2,0.3,0.5,0.7c0.7,0.9,0.2,0.3,1.4,1
					c-0.3-1.5-13.1-29.5-14.9-33.7c-1.7-3.8-3.2-7.5-4.8-11.3c-6.6-15-4-12.9-10.2-14.1c-2.1-0.4-4.5-0.8-6.7-1.2
					c-4.6-0.8-9.1-1.7-13.7-2.4c-9.1-1.4-4.8-1-8.2-3.9c-0.9-0.8-1.2-1.2-1.8-2.2l-10.9,2.2c0.9,1.9,3,2.3,4.9,4.7
					c1.2,1.6,3.2,2.3,4.9,4.5l6.6,6.1c3.1,2.5,1.9,2,3.2,3.2c1,0.9,2.6,1.9,3.5,2.9l3,3.1C-329.9,773.7-329.8,773.9-329.7,774z"/>
				<path class="st6" d="M-249.7,701.2c0.7,1.3,6.7,4.6,8.3,5.6c1.5,0.9,7.6,4.5,8.2,5.5c1.1,0.1,1.3,0.4,2.2,1.1
					c0.7,0.5,1.3,0.8,2.1,1.3c1.4,0.9,2.6,1.7,4.1,2.6l16,10.1c2.6,1.6,5.6,3.7,8.3,5.1c-1.2-3.3-2.9-6.7-4.3-10l-12.6-28.7
					c-2.3-4.9-15.5-38.4-16.1-39.1l1.7,51.4L-249.7,701.2z"/>
				<path class="st6" d="M-362.8,812.1c5.7-1.8,14.5-3.5,20.6-4.7c3.9-0.8,12.2-2.9,15.9-3.3c1.9-0.2,3.1,0.7,4.8,1.5
					c3,1.3,33.3,14.2,36.3,15c-0.6-0.8-0.6-0.7-1.2-1.5c-0.4-0.6-0.4-0.6-1-1.1c-0.8-0.7-1.4-1.2-2.3-2c-3.5-3-2.7-2.9-4.3-4.2
					c-1.2-1-3.7-2.9-4.5-4c-1.6-2.1-2-2.2-4.3-4.2c-1-0.8-1.5-1.2-2.3-2.3c-1.2-1.6-4.4-3.9-5.5-5.1c-0.5-0.6-0.4-0.7-0.9-1.2
					c-0.9-1.1-3.3-3-4.5-4c-1.9-1.6-1-1.2-2-2.2c-0.4-0.4-1.8-1.7-2.3-1.8c-0.7-0.1-21.5,8.9-24,10.1c-8.1,3.6-5.4,3-10.9,6.4
					l-9.8,7.3c0.7,0.5-0.4-0.2,0.4,0.3L-362.8,812.1z"/>
				<path class="st6" d="M-298.4,724c-1.8,0.9-5.5,2.9-7.3,3.2c-0.7,0.7-5.2,2.6-6.6,3.1l-19.2,8.8c-1.1,0.5-2,1-3.1,1.4l-3.2,1.6
					c0.2,0.9,0.4,1.8,0.6,2.6l0.6,1.9l31.1,2.7l1.7,0.1l8.8,18.9l3.9-4.3c0.5-0.5,0.2-0.2,0.5-0.5c-0.9-0.5-1.5-1.6-2-2.5
					s-0.9-1.5-1.5-2.4c-1-1.4-2.3-3.5-3.2-5c-4.6-7.8-5.3-5.8-3.4-10.1c1.9-4.4,8.6-19.1,9.8-22.6L-298.4,724z"/>
				<path class="st6" d="M-286.7,782.9l-2-10.5l-2.4,2.8l3.6,8.9c0,0,0,0.1,0,0.2C-287,783.1-287.6,783.9-286.7,782.9z"/>
			</g>
			<g>
				<path class="st7" d="M-391.9,592.3c-0.8,1.6-0.4-0.3-1.3,1.8c-1.1,2.7-5.4,13.4-5.4,14.7c0.5,0.9,0.3,0.5,0.7,0.9l0.6,0.6
					c0,0,0.1,0.1,0.1,0.2l6.5,7.8c0,0.1,0.1,0.1,0.1,0.2l0.6,0.9c0.8,1,2.4,2.5,2.8,3.6c0.6,1.6-0.4,11.6-0.4,14.2l0.2,3.5
					c1.5,0.5,7,2.6,8,3.4l-0.2,14.9c-0.8,0.6-1,0.5-1.8,1.1c-0.6,0.4-1,0.8-1.7,1.3c-3.9,3.1-6.7,4.8-8.5,9.8c0.7-0.6-0.1-0.3,1-0.1
					c0.4-0.7,0.7-1.4,1.1-1.9l1.1-1c0.2-0.2,0.2-0.3,0.4-0.5c0.8-0.8,2.2-1.6,3.4-2.4c3.6-2.4,7.1-2.1,8.6-3l0.1-1.1
					c1-3.6,1.4-8.6,2.1-12.5c0.9-5.1,6.1-36.6,5.8-37.3c-0.5-0.5-0.8-0.6-1.4-1.1c-0.9-0.7-0.4-0.4-1.1-1.3
					c-0.7-0.8-1.7-1.6-2.5-2.3c-5.2-4.8-9.2-10.2-12-16.8L-391.9,592.3z"/>
				<path class="st7" d="M-409.2,685.2l0.7,0.2c0.1,0,0.2,0,0.3,0l2.7,0.1c2.1-0.7-3.1-0.6,5.2-1.3c2.6-0.2,4.8-0.1,5.8-1.2v-0.9
					c-0.5-0.6-0.2,0.4-0.5-1.1c-0.1-0.3,0-0.7,0-1.1l-9.5,1.2c-0.4,0.8-1.4,3-1.3,4C-407.3,685.1-407.9,684.9-409.2,685.2z"/>
			</g>
			<g>
				<path class="st8" d="M-216.5,595.9c-6.1,1.1-9,3.1-10.9-4c-1.6-6.1-7.9-41.4-7.6-42.6l3.5-3.9c0.6-0.6,0.8-0.5,1.4-1l3.5-3.8
					c0.7-0.8,0.5-0.8,1.6-1.3c-1.2-1-2.7-3.7-3.6-5c-1.1-1.5-2.3-3.6-3.6-4.6l1.6,5.1l-14.6,5.4l7.6,49.4c-4.1,2.3-26.6,8.3-29,10
					c6.4,0.4,14-0.1,20.7,0c8.7,0.2,13.1-1.4,13.1,7.3c0,5.8-1.9,11.5-3.4,17c-1.4,5.3-3.9,10.3-5.3,15.3l1.1-1.4
					c0.3-0.4,0.5-0.9,0.8-1.3l4.6-8.1c2.1-3.6,4.1-7.2,6.3-10.7l9.3-16.2C-218.7,599.8-217.1,597.6-216.5,595.9z"/>
				<path class="st8" d="M-360.8,678.5c-0.9,0.4-3.4,2.7-4.2,3.4c-0.5,0.5-0.5,0.7-0.9,1.2c-1.2,1.4-5.2,4.2-6.7,6.3
					c-0.7,0.9-2.7,3-3.8,3.4c0.1-2.2,0.1-4.5,0.2-6.7c0-3.8-0.1-2.3,1.4-5.1c1.6-2.9,3.4-5.5,4.8-8.3c-8.7-1.4-16,8.3-12.5,16.7
					c0.5,1.3,1.3,2.6,2,3.2c2.8,2.8,5.9,5.1,11.2,4.3c3.6-0.6,4.8-1.8,6.8-3.5c1-0.9,1.3-1.2,2.2-2.9
					C-358.3,686.7-358.5,681.7-360.8,678.5z"/>
				<path class="st8" d="M-403.3,700.5c1.2-1,8.6-6.2,9.9-6.5l-1.6-4.2c-2.8-0.4-13.7-2.1-15.6-1.8l-4.5,10.3c0.6,0.1,7.9,3.9,8.3,5
					c1.1,2.9-0.6,2.6,1.9,4.7c1.2,1,2.7,1.5,4.9,1.6C-400.9,707.3-403.1,703-403.3,700.5z"/>
			</g>
			<g>
				<path class="st9" d="M-325.3,710.7c-0.1-0.1-1.8,0.6,0-1.2c0.3-0.3,0.7-0.3,1.2-0.7c0.8-0.6,0.2-0.1,0.8-1l7.9-7.6
					c1.4-1.2,0.9-3.6,0.9-6.1c0-9.2,0-18.5,0.1-27.7c-1.3,0.4-1.1,0.7-2,1.7l-29.7,21.3c-0.8-4-1.5-8.5-2.2-12.6
					c-0.5-3.4-1.5-3.6,0.7-5.3c0.9-0.7,1.1-0.8,1.8-1.8c0.7-1,0.9-1.1,1.8-1.8c0.8-0.7,1.4-1.1,2.2-1.8c1.1-0.9,0.9-1,1.7-1.9
					c1.1-1.2,2.8-2.2,4-3.3c0.7-0.7,0.3-0.5,0.9-1.2c1.3-1.6,1.8-0.7,1.7-3.3c0-2.4-0.2-4.9-0.2-7.4l-0.8-0.5c0.4,2.1,0.2,3.1,0,5.1
					c-0.3,4-1.2,2.6-3,5c-0.7,0.9-0.4,0.8-1.2,1.5l-13.3,12.8c-0.6,1.2,3.5,14,3.7,16.6c0.1,1.3-1,2.3-1.7,3.4c-0.7,1.1-1.3,2-2,3.1
					c-1.3,2.1-3,4.3-4,6.4l5.3,5c1.2-0.4,1-0.5,1.8-1.3l3.5-3.7c1.7-1.8,2.9-3.5,5.1-4.9c2.5-1.7,8-8.8,10-10c0.2,6.9,1.7,3.9-1.9,9
					c-0.6,0.9-0.9,1.5-1.5,2.4c-4.2,6.2-12.3,17.6-16,23.5l-1.6,2.3c-0.8,1.1-0.7,1.2-1.3,2.2c1.1-0.7,2-1.6,2.9-2.5
					c1-1,8.8-5.3,10.3-6.1L-325.3,710.7z"/>
				<path class="st9" d="M-309.9,636.5c-2.4,0.4-12.4,4-15.9,5.2c-1,0.3-1.9,0.6-2.7,0.9l-2.5,1.2c2.1,0.5,29.6,14.1,31.2,14.4
					c-0.4,5.6-1.4,11.4-2,17.1c-1.1,9.7-2.5,15.2-4.1,24.2c-0.9,4.8-0.5,5.5-2.5,6.8l-54.5,39.8c1.9-0.4,4.8-2.8,6.7-3.8
					c2.1-1.2,4.4-2.7,6.4-3.9l37.8-23.3c1.9-1.2,4.4-2.8,6.4-3.9c4.6-2.6,4.5-2.2,5.1-5.3c2.1-10.9,5.2-22.9,7.2-33.5
					c1-5.5,2.7-11.3,3.6-16.9l-23.5-11.5c1.9-1.5,6-3.3,8.4-4.6c2.4-1.4,6.4-2.8,8.3-4.5l-7.2-0.6L-309.9,636.5z"/>
				<path class="st9" d="M-216.5,595.9c2.1-3.6,2.3-10.3,2.5-14.8c0.5-16.8-0.8-22-7.8-36c-0.9-1.9-2.7-4.2-3.2-5.8
					c-1.1,0.5-0.9,0.5-1.6,1.3l-3.5,3.8c-0.6,0.5-0.8,0.4-1.4,1l-3.5,3.9c-0.3,1.2,6,36.6,7.6,42.6
					C-225.5,599-222.6,597-216.5,595.9z"/>
				<path class="st9" d="M-382.7,586.7c0.5-0.9,1-1,2-1.2c0.4,1.7,0,3.6,0.6,5.4c1.1,3.2,5.7,6.9,8.5,8.9c0-0.1,0.1-0.2,0.1-0.2
					c0-0.1,0.1-0.2,0.1-0.2l0.5-1.4c2.2-8.2,1.9-6.3-0.9-11.7c-6.5-12.4-11-21.2-7.4-35.5c1.4-5.5-0.5-3.2-2.3-5.5
					c-2.8-0.2-5.2-1.2-7.8-1.8c-1,2.9-3.1,6.7-4.4,10.1c-1.3,3.3-2.9,8.2-3,11.8c-0.1,4.7,2.9,20,4.9,24.2L-382.7,586.7z"/>
				<path class="st9" d="M-366.6,672.2c0.6-1.6,7-11.9,8.4-14.2c1.1-1.8,7.8-13.3,8.6-14c-0.2,1.5-0.6,3-0.9,4.6s-1.1,2.6-1.8,3.6
					l-13.7,19.4C-366.7,672.3-365.6,671.4-366.6,672.2z M-351.1,643c-0.1,1.1-0.5,1.3-1.4,2.8c-0.5,0.9-1,1.8-1.6,2.7l-19.5,32.7
					c-0.5,1.1-0.5,6.7-0.4,8.4c1.7-1.3,4.1-3.4,5.4-5.1c1.9-2.5,4.5-3.4,7-6.7c1.1-1.5,5.7-4.8,7.1-6.6c0.8-1.2,1.7-1.8,2.8-2.7
					l4.1-3.8c0.7-0.9,0.5-0.8,1.3-1.5c1.6-1.5,4.6-3.7,5.7-5.2c2.1-2.8,5.1-4,5.1-5.5l-1.2-7c-0.6-1.6-0.5,0-0.9-1.6
					c0.5-0.8,1.7-1.5,2.4-1.6c0.5-1.1,2.3-1.8,3.3-3c-2.4,0.4-7.3,2.2-9.9,3c-2.6,0.8-2.4,0.8-5,0c-0.7-0.2-1.7-0.6-2.4-0.5
					C-350.3,641.9-350.2,642.4-351.1,643z"/>
				<path class="st9" d="M-383,699.2c-3.1-3.1-6.8-11.6-6.8-17.2c0-2.6,1.1-4.6,2.6-6.5l4.9-4.3c0.8-0.5,2.8-1.8,4.1-2.2
					c-0.5,1-0.2,0.7-1.6,1.7l-4.4,3.8C-390.4,679.4-385.8,693.4-383,699.2z M-360.8,678.5c2.3,3.2,2.5,8.2,0.5,12.1
					c-0.9,1.7-1.2,2.1-2.2,2.9c-2,1.8-3.2,3-6.8,3.5c-5.3,0.9-8.4-1.5-11.2-4.3c-0.7-0.7-1.4-1.9-2-3.2c-3.5-8.4,3.8-18,12.5-16.7
					l4-6.7c-5.1-2.6-15.6,0.2-20.4,6.5c-4.1,5.4-5.7,11.7-3.3,18.6c3.1,9.2,11.9,14.2,21.1,13.2c3.8-0.4,9.4-3.2,11.7-5.7
					c2.9-3.1,4.9-7.7,5.4-12.3c0.4-4.2-1.4-10.9-4-13.3C-357.4,674.5-359.4,676.7-360.8,678.5z"/>
				<path class="st9" d="M-298,487.8l-11.9,29.6l-3.2,0.2c-0.7,1-1,3.3-1.2,4.7l5.3,2.9l-10.8-3c-0.6,1-6.3,15-6,16.3
					c0.3,1.2,2.1,3.6,2.7,5.2c-1.3,0.5-3,1.9-4.2,2.7c-1.6,1-2.6,1.9-4.2,2.9c0.4,0.2-0.4,0.8,2.1-0.4l15.6-5.8v-1l-4.7,0.4
					c-2-4.6-2.5-3.2-0.7-8c0.5-1.4,2.5-7.1,3.3-7.8l3,0.6c1.4-1,3.9-1,5.7-1.2l22.6-59.4c-0.6-1-0.8-0.7-1.6-2.2
					c-0.9,0.3-2.3,1-2.7,1.5C-289.6,466.5-297.5,486.5-298,487.8z"/>
				<path class="st9" d="M-358.4,707l2.7-0.2l2.8,7.1c-2.8,3.7-6.2,7.4-11.3,7.9c-2.9,0.3-6,0.2-9,0c-2.7-0.1-6.4-0.8-8.8-0.7
					c1.6,1.5,9.7,4.9,11.4,5.5c6.6,2.2,9.1,4.6,11.2,5.3c1.3-1.6,2.4-3.2,3.4-4.9c1-1.6,2.2-3.2,3.2-4.6c1.2-1.7,2.2-3.3,3.3-4.9
					l16.2-23.9c-0.7,0.5-0.5,0.5-1.1,1.1l-3,3.3c-1,1.3-1.4,1.2-4.1,4.4c-0.9,1.1-1.4,1.1-2.2,2.1c-1.9,2.2-0.6,1.2-3.1,3.3
					l-2.8,3.6l-4.7-4.9L-358.4,707z"/>
				<path class="st9" d="M-381.7,740.7c-1.6-0.9-1.6-1.3-2.8-2.6c-2.3-2.6-4-3.9-6.6-6.5c-0.4-0.5-0.9-0.7-1.3-1.1
					c-0.6,0.7,0.3,0.2-1,0.4l-13.6-1c1.8,1.9,3.4,2.6,5.9,4.1c6.5,4,4.8,2.9,9.5,7.5c0.5,0.5,0.7,0.8,1.1,1.3c1,1.2,4.5,4.4,6.3,3.5
					C-383,745-381.5,742.9-381.7,740.7z"/>
				<path class="st9" d="M-385.2,732.9c0.7,0.8,0.8,1.1,1.5,2c0.5,0.6,0.8,1,1.3,1.7c0.9,1.1,1.5,2.5,2.4,3.7c0.5,1,1.1,2.1,1.6,3.3
					c0.3,0.6,0.5,1.2,0.7,1.7c0.6,1.3,0.1,0.8,1.1,1.4c0.7-1.9,5-5.6,6.3-7.5l-5-6.1c-0.6-0.7-0.8-0.6-1.4-1.3
					c-0.9-1-2.8-3.5-3.9-4.1c-0.1,1.8-0.1,2.9-1.1,3.9C-382.4,732.3-383.8,733-385.2,732.9z"/>
			</g>
			<g>
				<path class="st10" d="M-362.8,812.1c4.3,2.9,8.8,5.7,13.3,8.5c4.6,2.8,1.9,1.7,7.6,3.3l76.6,21.8c5.7,1.6,11.4,3.3,17,4.8
					c4.4,1.2,13.4,4.7,17.5,3.4c-2-1.2-34.3-12-40.8-14.4c-1.8-0.7-1.8-1.4-2.7-2.8c-1.1-1.8-10.1-15.7-11-16.2
					c-2.9-0.8-33.3-13.7-36.3-15c-1.7-0.8-2.9-1.7-4.8-1.5c-3.7,0.4-12,2.5-15.9,3.3C-348.3,808.7-357.1,810.4-362.8,812.1z"/>
				<path class="st10" d="M-290.9,720.8c-1.2,3.5-7.8,18.2-9.8,22.6c-1.9,4.3-1.2,2.3,3.4,10.1c0.9,1.5,2.2,3.6,3.2,5
					c0.6,0.9,1,1.5,1.5,2.4c0.5,0.8,1.1,2,2,2.5c0.3-0.8,3.8-4.5,4.6-5.4l9.4-11.6c1.3-1.5,2.3-2.9,3.5-4.4l4.4-5.4
					c3.3-4.5,3.2-3.2,4.9-8.5c2.5-7.8,4.8-15.8,7.3-23.7c1.2-3.9,2.4-7.9,3.6-11.8l2.7-8.8c0.6-1.9,1-2.2,0.3-2.8
					c-0.2,1.1-1.3,2.2-1.9,3.2l-14.8,20.7c-3.5,4.7-3.7,6.6-7.4,8.1c-1.2,0.5-2.2,1-3.3,1.5C-279.6,715.5-289.9,719.9-290.9,720.8z"
					/>
				<path class="st10" d="M-413.1,614.2c1.3-0.3,5.1-2.2,7-2.9c2.2-0.8,5.3-2,7.5-2.5c0.1-1.3,4.3-12,5.4-14.7
					c0.9-2.1,0.5-0.3,1.3-1.8c-1.5,0-1.3-0.7-2-1.6c-2.1-2.7-2-1.6-3.2-6.8c-0.8-3.4-1.1-8.8-1.8-11.5l-7.8,1.3l0.5-8.9l7.1-2.4
					l6.1-22.3c-1.9-0.3-10.6-1.1-12.1-0.8c-1.1,0.2-0.9,0-2.1-0.1c0.2,1.3-8.1,32.1-9.1,36.5c-1.8,7.5-2.7,12.5-1.8,20.4
					C-417.6,600.2-415.2,611.3-413.1,614.2z"/>
				<path class="st10" d="M-334.4,648.6l0.8,0.5c-0.1,2.5,0.1,4.9,0.2,7.4c0,2.6-0.4,1.7-1.7,3.3c-0.6,0.7-0.2,0.5-0.9,1.2
					c-1.2,1.2-2.8,2.1-4,3.3c-0.8,0.9-0.6,1.1-1.7,1.9c-0.8,0.7-1.4,1.1-2.2,1.8c-0.9,0.7-1.1,0.8-1.8,1.8c-0.7,1-0.9,1.1-1.8,1.8
					c-2.1,1.7-1.2,1.9-0.7,5.3c0.6,4.1,1.3,8.6,2.2,12.6l29.7-21.3c1-1,0.8-1.3,2-1.7c-0.2,9.2-0.1,18.5-0.1,27.7
					c0,2.5,0.5,4.9-0.9,6.1l-7.9,7.6c-0.6,0.9,0,0.4-0.8,1c-0.5,0.4-0.9,0.3-1.2,0.7c-1.8,1.8-0.1,1.1,0,1.2l11.4-6.6
					c6.7-4,4.6-1.6,6.5-11.5c1.9-10.3,3.8-20.9,5.4-31.2c-1.3-0.3-27.1-12.4-29.1-13.7c-1.3-0.9-1.2-2.2-3.6-2.5L-334.4,648.6z"/>
				<path class="st10" d="M-244.8,682l-4.8,19.2l18,4.7l-1.7-51.4c-0.4-2.1,1.1-4.7,1.9-6.8l12.1-32.3c1.4-3.7,3.9-9.3,4.8-12.8
					l-7.9,14.9c-2.3,5-5.2,9.7-7.7,14.8c-2.5,4.9-5,9.8-7.7,14.8c-0.8,1.5-4.8,10.3-6.1,11l-3.9,1.7l-3.2,15.6
					c1.3,0.6,2,1.5,3.2,2.5l3.3,2.4L-244.8,682z"/>
				<path class="st10" d="M-422.6,637.7l-3.4-0.4l0.8,6.1c0.8,0.2,4.1,2.2,4.6,2.7c1.4,1.5,10.1,37.9,11.4,39.2
					c1.4-0.3,1.9-0.1,3.3,0c-0.1-1,0.9-3.1,1.3-4l9.5-1.2c0,0.4-0.1,0.8,0,1.1c0.3,1.5,0,0.5,0.5,1.1c0.2-2.8,2-10.3,3.9-11.1
					c-1.1-0.2-0.3-0.6-1,0.1c1.8-5,4.6-6.7,8.5-9.8c0.7-0.5,1.1-0.9,1.7-1.3c0.8-0.6,1-0.5,1.8-1.1l0.2-14.9c-1-0.8-6.5-2.9-8-3.4
					l-0.2-3.5c0,2.9,0.1,2.7-1.2,4.7c-1.5,2.2-6.1,8.6-8,10.2c-5.1,4.3-12,5.6-19,3.8C-418.4,647-421.8,642.4-422.6,637.7z"/>
				<path class="st10" d="M-245.1,518.1c1,0,2.5-0.6,3.6-1c0.9-0.3,3-0.9,3.6-1.6c-0.3-0.3-1.5-1.2-2-1.7c-0.7-0.6-1.5-1.1-2.2-1.7
					l-8.5-6.7c-6.8-5.7-17.2-9.1-25.5-12.4c-0.5,1.3-10.6,32.8-10.7,34.2L-245.1,518.1z"/>
				<path class="st10" d="M-288.6,772.4l2,10.5c1.3-0.7,2.3-2.7,3.5-3.8c2.2-2,1-0.6,3.5-3.5c2.4-2.8,2.7-2.5,3.6-3.7
					c3.4-4,3.9-4,6.8-7.5c0.7-0.8,1-1.3,1.8-1.9c2.4-1.9,2.7-3.5,5-5.3c1.4-1.1,2.2-2.3,3.3-3.7c1.4-1.6,1.5-1.1,3.6-3.7
					c1.6-1.9,6.3-6.5,6.6-7.4c0.3-1-0.9-33.1-1.1-33.8l-10,28.8c-0.8,2.6-1.2,2.3-2.4,4l-16.8,19.9c-0.6,0.7-0.2,0.2-0.7,0.8
					L-288.6,772.4z"/>
				<path class="st10" d="M-382,721.1c2.5-0.1,6.1,0.6,8.8,0.7c2.9,0.1,6.1,0.3,9,0c5.1-0.6,8.5-4.2,11.3-7.9l-2.8-7.1l-2.7,0.2
					c-1.4-0.1-2.9,0.7-4.3,1.2l1.6,8.6c-0.7-2.2-2.6-5.5-3.5-8.1c-11.3,0.5-11.6,0.4-20.9-5c-1.4,1.1-2.5,1.6-3.8,2.5l2.7-3.4
					l-5.9-7.3c-3.1,1.6-6.1,4-9.1,5.4c0.8,3,3.5,7.5,5.6,9.7c0.8,0.9,1.3,1.7,2.3,2.6C-391.2,715.6-384.4,720.7-382,721.1z"/>
				<path class="st10" d="M-410.7,536.5c2.2-1,12.7-2,15.7-2.2c3.9-0.2,13.7,0.7,15.3-2.7c0.8-1.7-1.2-5.4-2-7
					c-0.5-0.5-6-3.2-7.1-3.7c-3.2-1.4-5.1-2.2-8.9-2.6l-0.7-0.2c-0.4,1.2-6.6,9-8.1,11.1c-0.6,0.8-1,1.4-1.7,2.3
					c-1,1.3-2.3,3.1-3.1,4.7L-410.7,536.5z"/>
				<path class="st10" d="M-385.9,516.7c2.7,0.6,5.1,2.5,7.3,3c2.4,0.5,12.4,2.6,13.9,1.5c1.9-1.6-0.4-7.9-1.1-10.2
					c-2.4-2.6-7.3-6.1-9.8-8.4c-0.8-0.7-0.8-0.7-1.6-1.3c-1,0.1-3.5,2.4-4.5,3.2l-11,8.7c-0.7,0.5-1.7,1.2-2.2,1.9
					C-391.6,515.4-389.1,516.1-385.9,516.7z"/>
				<path class="st10" d="M-371.4,500.2c2.2,0.1,5,3.4,6.5,4.2c3.6,1.8,7.5,4.4,11.9,4.9c2.5,0.3,4.9,0.1,6.9-1s1.7-3.8,1.7-6.7
					c-0.5-3-4.3-7.9-4.7-10.4c-2.2,0.3-9,3.3-11.5,4.2c-1.8,0.7-3.7,1.4-5.5,2.1C-367.8,498.3-370.7,499-371.4,500.2z"/>
				<path class="st10" d="M-329.7,774c1.6,0.3,0.4,0.5,2.7,2.4l8.1,7.4c0.8,1.1,1.7,1.6,2.7,2.5c0.5,0.4,1,0.8,1.5,1.3
					c2.6,3,0.9,1.1,3.9,3.7c1.2,1.1,0.7,1.1,2.4,2.5c3.8,3.1,3.2,3.1,5.4,4.9c3.1,2.5,2.3,2.4,5.2,4.8c2.6,2.1,1.3,1.3,2.6,2.6
					c1.2,1.3,3.2,2.3,4.2,3.7c1,1.3,2.4,2.4,3.7,3.4l-12-16.4c-0.7-1-1.4-2-2.1-2.8l-16.6-22.2c-0.3-0.5-0.7-1-1-1.4
					c-0.1-0.1-0.5-0.6-0.5-0.7l-0.7-0.6c-1.5,0.7-3.1,1.5-4.7,2.3l-3.6,1.6C-330.2,773.7-329.2,772.9-329.7,774z"/>
				<path class="st10" d="M-408.1,718.3c1.7,0.2,10.4,5.5,12.2,6.6c2,1.2,4.1,2.6,5.6,3.8c0.7,0.6,0.8,0.6,1.4,1
					c2,1.5,2.8,2.9,3.7,3.2c1.4,0.1,2.8-0.6,3.6-1.4c1.1-1,1.1-2.2,1.1-3.9c-0.6-1.6-4.1-4.8-5.5-6c-0.6-0.5-1.1-0.8-1.7-1.3
					c-4.6-4-16.8-10.9-20.1-11.1l-2.9,7.4C-409.7,717.3-408.8,717.4-408.1,718.3z"/>
				<path class="st10" d="M-324.7,489c-1.1,0.5-20,2.2-21.1,1.8c0.2,1,3.4,6.9,4.2,7.4c3,1.7,7.8,3.3,11.3,4c9.1,1.9,6-2.4,9.3-4.8
					l0.8-8.5C-321.7,489-323.4,489.3-324.7,489z"/>
				<path class="st10" d="M-315.3,492.2c-0.1,2.6-0.4,2.3,0.2,5.1l1.8,9.1c0.3,1.1,0.4,1.1,0.9,1.8c1.1,1.3,1,1.2,2,1.5
					c0.5-1.5,1-2.1,2.4-2.9c1-3.2,5.6-12.5,5.9-15.4l-13-2.1L-315.3,492.2z"/>
				<path class="st10" d="M-359.5,740.4c1.1-0.4,0.7-0.4,2.4-1.8l8.5-7c1-0.8,1.2-0.9,2.2-1.8c0.5-0.5,1.5-1.3,2.2-1.8l18.6-15.2
					c0.6-0.6,0,0.2,0.5-0.7l-19.9,11.4c-6.7,3.8-5.4,2.6-8.4,7.1L-359.5,740.4z"/>
				<path class="st10" d="M-407,730l13.6,1c1.2-0.1,0.4,0.3,1-0.4l-7.5-5.6c-2.6-1.6-5.1-2.8-8.2-4.3l-1.7-0.4
					c-0.5,2.5-1.3,3.2-0.2,6.2C-409.5,728.2-408.4,729.4-407,730z"/>
			</g>
			<g>
				<path class="st0" d="M-350.6,597.7c0.8-6.3,1.5-25.8,1.9-27.7c0.8,0.6,8.2,21.3,9.2,24.1C-342.2,594.4-347.5,596.9-350.6,597.7z
					 M-291.8,562.1c0.6,3.7,1.6,7.1,2.4,10.7c0.5,2.2,2.5,8.6,2.6,10.3l-26.1-38l-14.2,5l6.7,50.4l-20.7-45.6
					c-2.3,0.6-16.7,5.5-17.9,6.3l-10.7,70.9l16.4-5.6l1.5-15.9l16.5-5.7l5.1,13.5l25.8-9.1l-3.1-23.1c-1-6.6-4.6-18.9-4.9-21.2
					c1.1,0.6,0.9,0.8,1.9,2.6l7.6,12.4l16.6,23.1l14.1-4.8l-8.6-64.4l-14.1,5L-291.8,562.1z"/>
				<path class="st0" d="M-280.6,534c-0.3,2.9,1.4,9.6,1.6,13.1c2.8-0.2,11.6-4.1,15.1-5l7.2,50.8l14.5-4.9c0.6-2-6.7-46-6.7-51.1
					l15-5.2l-1.8-13.1L-280.6,534z"/>
				<path class="st0" d="M-303.7,634.3l7.2,0.6c-1.9,1.7-5.8,3.1-8.3,4.5c-2.4,1.3-6.5,3.1-8.4,4.6l23.5,11.5
					c-0.9,5.6-2.6,11.4-3.6,16.9c-2,10.6-5.1,22.6-7.2,33.5c-0.6,3.1-0.5,2.7-5.1,5.3c-2,1.1-4.5,2.7-6.4,3.9l-37.8,23.3
					c-2,1.2-4.3,2.7-6.4,3.9c-1.9,1.1-4.8,3.4-6.7,3.8l-0.7,0.5c0,0.1-0.1,0.1-0.1,0.2l-0.2,0.4c-0.1,0.7-0.6,0,0.1,0.6l26.9-12.8
					c2.5-1.1,4.3-2.3,6.6-3.4c2-0.9,4.6-2.3,6.5-3.5c1.7-1,12.2-6.7,13.3-6.8c0.5-0.7,6.7-4,8.1-4.7c6.2-3.2,5.4-2.4,6.6-6.2
					l18-57.6l-7.4-5.9c-0.8-0.7-1-0.8-1.8-1.5l-1.8-1.5c-1.2-1-2.5-1.9-3.5-3c1.6-0.8,3.7-2,5.4-3c1.7-1.1,3.4-1.9,5.2-3l10.5-6.2
					c3.6-2,7-4.1,10.5-6.2c1.7-1,9.2-5.1,10.3-6.2L-303.7,634.3z"/>
				<path class="st0" d="M-415.3,538.9l-4.6,9.1c-5.2,10.2-8.5,19.7-8.9,31.5c-0.5,17-0.2,23,1,39.1c0.3,3.7,1.2,9,1.2,12.4
					c0.3-0.3,0.1,0,0.5-0.6l0.7-2.1c0.9-3.3,1.7-4.3,2.9-7.4c3.8-10.2-1.7-21.2-0.3-37.6c1-11.7,4.2-22.4,8.3-33.4
					c2.2-5.9,2.9-7,1.2-11.1l2.1-0.2c-0.6-0.1-1.7-0.2-2.3-0.2c-1.2,0-0.3-0.1-1.1,0.2C-415.5,538.9-414.4,538.7-415.3,538.9z"/>
				<path class="st0" d="M-212.8,646c-0.4,1.7-2.3,7.9-2.1,9.2l15.4,42c1.7-3.8-8.2-69-8.6-69.5L-212.8,646z"/>
				<path class="st0" d="M-211.9,561.3c1.1-12.7,2.6-14.6-3.3-26.2c-1.9-3.6-3.9-6.8-6-9.8c-0.4-0.6-1.2-1.6-1.7-2.3l-5.8-6.4
					c-0.7-0.9-1.3-1-2.1-1.9l-2.9-2.9c-0.5-0.5-0.5-0.7-0.9-1.2c-2-2.1-8.9-6.9-11.6-8.5c-5-2.9-23.8-7.9-29.9-9.1
					c0.1,0.1,11.2,7,16.9,11.2c1.7,1.3,9.3,7,10.6,8.8c0.6,0.8,11.2,1.3,11.9,2c0.4,0.4-9.5,0.5-9.1,0.9c2.5,1.9,1.3,1.6,2.9,3.2
					c4.8,4.8,9.1,13.3,11.9,19.4l16.8,16.6C-213.7,556.7-212.8,560.3-211.9,561.3z"/>
				<path class="st0" d="M-435,580l0.7,1.2l3.1-16.5c2.8-12.5,5.5-19.8,12.4-29.3c1.4-1.9,2.8-3.9,4.3-6c0.8-1.1,3.8-6.1,3.8-6.1
					c-2.1,0.1-8.2,5.5-9.9,7.7c-0.3,0.4-0.8,1.2-1.1,1.6C-430.5,546.3-435.1,563.5-435,580z"/>
				<path class="st0" d="M-318.2,541c1.3-0.6,1.3-0.9,3.2-2.4c1.4-1.1,3.2-6.6,3.3-7.1c0.1-0.9-0.9-2-1.9-3.3l-1.9-0.6
					c-1,1.1-2.1,4.9-2.7,6.5C-320.5,539.6-319.1,536.4-318.2,541z"/>
			</g>
			<path class="st11" d="M-193.4,756.3c-1.2-2.7-2.2-5.7-3.3-8.5c-0.5-1.4-1.1-2.8-1.6-4.2c-1-2.6-0.3-2.1-2.4-3.3
				c-2.5-1.5-5-3-7.4-4.5l-21.7-13.2c-2.1-1.3-13.6-8-14.4-8.9c-0.9-0.2-0.6,0-0.3,1.4l6.5,35.6c0,0,0,0.2,0,0.3l-17.6,14.6
				c-0.8,0.7-2.1,1.7-3,2.5l-26.2,21.7l12,33.4c0.7,2,3,10,4.4,10.7l21.8,8.6c3.7,1.5,19.5,7.9,21.8,8.6l41.2-68.2
				c0.2-1.1-4-11.3-4.7-13.3C-190,765.1-191.8,760.7-193.4,756.3z"/>
			<path class="st11" d="M-367.8,729.9c3,1.5,5.3,1.2,4.5,5.1c-1.2,0.7-3.6,1.6-5.2,1.9c-1-0.8-1.7-1.8-2.6-2.8
				c-2.3-2.6-2.2-1.5-2.7-2.9c-1-0.5-3.2-3.2-4-4.2L-367.8,729.9z M-359.5,740.4l6-9.6c3-4.5,1.7-3.3,8.4-7.1l19.9-11.4
				c-0.5,0.8,0,0.1-0.5,0.7l-18.6,15.2c-0.7,0.5-1.6,1.3-2.2,1.8c-1,0.8-1.2,0.9-2.2,1.8l-8.5,7C-358.8,740-358.4,740-359.5,740.4z
				 M-382,721.1c-2.4-0.4-9.2-5.5-11.7-7.8c-1-0.9-1.5-1.7-2.3-2.6c-2.2-2.3-4.8-6.7-5.6-9.7c3-1.5,6-3.9,9.1-5.4l5.9,7.3l-2.7,3.4
				c1.3-0.9,2.5-1.5,3.8-2.5c9.4,5.4,9.6,5.5,20.9,5c0.9,2.7,2.8,5.9,3.5,8.1l-1.6-8.6c1.4-0.5,2.9-1.3,4.3-1.2l4.2-0.6l4.7,4.9
				l2.8-3.6c2.5-2.1,1.1-1.1,3.1-3.3c0.8-0.9,1.3-1,2.2-2.1c2.6-3.2,3.1-3.2,4.1-4.4l3-3.3c0.6-0.5,0.4-0.6,1.1-1.1l-16.2,23.9
				c-1.2,1.6-2.1,3.2-3.3,4.9c-1,1.5-2.2,3-3.2,4.6c-1,1.7-2.1,3.3-3.4,4.9c-2.1-0.6-4.6-3-11.2-5.3
				C-372.3,726-380.4,722.6-382,721.1z M-403.3,700.5c0.2,2.5,2.4,6.8,3.3,9c-2.1-0.1-3.7-0.5-4.9-1.6c-2.5-2.2-0.9-1.8-1.9-4.7
				c-0.4-1.1-7.7-4.9-8.3-5l4.5-10.3c1.8-0.4,12.8,1.4,15.6,1.8l1.6,4.2C-394.7,694.3-402.1,699.5-403.3,700.5z M-370,672.8
				c-1.4,2.9-3.3,5.5-4.8,8.3s-1.4,1.2-1.4,5.1c0,2.2-0.1,4.5-0.2,6.7c1.1-0.4,3.2-2.5,3.8-3.4c1.5-2.1,5.5-4.9,6.7-6.3
				c0.4-0.5,0.4-0.7,0.9-1.2c0.7-0.8,3.3-3.1,4.2-3.4c1.3-1.8,3.4-4,5.3-5.3c2.6,2.4,4.4,9.1,4,13.3c-0.4,4.5-2.5,9.1-5.4,12.3
				c-2.3,2.5-7.9,5.3-11.7,5.7c-9.2,1-18-4-21.1-13.2c-2.3-6.9-0.7-13.2,3.3-18.6c4.7-6.3,15.3-9.1,20.4-6.5L-370,672.8z
				 M-325.3,710.7l-13.9,7.9c-1.5,0.8-9.3,5.2-10.3,6.1c-0.9,0.9-1.8,1.8-2.9,2.5c0.6-1,0.5-1.2,1.3-2.2l1.6-2.3
				c3.7-5.9,11.8-17.3,16-23.5c0.6-1,0.9-1.6,1.5-2.4c3.5-5.1,2-2.1,1.9-9c-2,1.2-7.5,8.3-10,10c-2.1,1.5-3.4,3.2-5.1,4.9l-3.5,3.7
				c-0.8,0.9-0.6,0.9-1.8,1.3l-5.3-5c1-2.1,2.7-4.3,4-6.4c0.8-1.2,1.3-2.1,2-3.1c0.7-1.1,1.8-2.1,1.7-3.4
				c-0.3-2.6-4.3-15.4-3.7-16.6l13.3-12.8c0.8-0.8,0.5-0.6,1.2-1.5c1.8-2.5,2.7-1.1,3-5c0.2-2,0.3-3,0-5.1l-0.2-3.4
				c2.4,0.3,2.3,1.7,3.6,2.5c2,1.3,27.8,13.4,28.9,13.6c-1.6,10.3-3.5,20.9-5.4,31.2c-1.8,9.9,0.3,7.5-6.5,11.5L-325.3,710.7z
				 M-335.3,642.1c-0.8,0.1-2,0.9-2.4,1.6c0.4,1.6,0.4,0,0.9,1.6l1.2,7c0,1.6-3,2.7-5.1,5.5c-1.1,1.6-4.1,3.8-5.7,5.2
				c-0.8,0.7-0.6,0.5-1.3,1.5l-4.1,3.8c-1.1,0.9-1.9,1.5-2.8,2.7c-1.3,1.8-5.9,5.1-7.1,6.6c-2.5,3.3-5.1,4.2-7,6.7
				c-1.3,1.7-3.7,3.9-5.4,5.1c-0.1-1.6-0.1-7.3,0.4-8.4l19.5-32.7c0.5-0.9,1.1-1.8,1.6-2.7c0.9-1.6,1.3-1.7,1.4-2.8
				c-0.7-0.5-0.3-0.3-0.8,0.4l-6.3,5.3c-2.7,2.2-6.3,2.2-9.8,3.6c-0.9,3,0.1,3.6-1.4,5.2l-5.9,4.7c-0.3-1.1-0.3-0.6-0.6-1l-0.1,1.1
				c-1.5,0.9-5,0.6-8.6,3c-1.2,0.8-2.6,1.6-3.4,2.4c-0.2,0.2-0.2,0.3-0.4,0.5l-1.1,1c-0.5,0.5-0.7,1.1-1.1,1.9
				c-1.9,0.8-3.7,8.3-3.9,11.1v0.9c0.5,1,0.3,3.1-0.1,4.4c-2.8,0-6.3-0.4-9.1-0.6c-7.4-0.7-6.6-1.3-10.1,2.9l-4.4,9.7l10.5,5.4
				l0.1,4.3c3.3,0.2,15.5,7.1,20.1,11.1c0.6,0.5,1.1,0.8,1.7,1.3c1.4,1.2,4.8,4.4,5.5,6c1.1,0.6,3,3.1,3.9,4.1
				c0.6,0.8,0.8,0.6,1.4,1.3l5,6.1c-1.3,1.9-5.6,5.6-6.3,7.5c1.2-0.2,0.5-0.2,2.6-1.7c1.5-1.1,6-4.8,7.2-5.2l-1.9,7.5
				c0.2-0.4,1.1-1.9,1.4-2.6c0.5-0.9,1-1.8,1.5-2.5c0.7-0.9,2.9-3.9,3.8-4.2c-0.3,2-2.1,7.1-1.7,8.7l0.7-0.5l54.5-39.8
				c2-1.4,1.7-2,2.5-6.8c1.6-9,3-14.5,4.1-24.2c0.6-5.6,1.6-11.4,2-17.1c-1.7-0.3-29.1-13.9-31.2-14.4l2.4-1.2
				c0.9-0.3,1.7-0.6,2.7-0.9c3.5-1.2,13.5-4.8,15.9-5.2c-0.6-0.8-0.9-1.3-1.4-2.2c1.7-1.2,25.7-9.7,29.9-11.3
				c5-1.9,9.8-3.7,14.8-5.5c2.6-1,13.2-4.6,14.8-5.6c1-2.1,1.9-6.9,1-9c-1.2-0.2-69,17.4-69.7,18.1c-1.6,3.2-3.3,9.7-4.6,13.5
				c-0.4,1.2-0.7,2.3-1.1,3.4c-0.6,1.9-0.6,1.4-2.5,2.1C-330.3,640.6-334.1,642.1-335.3,642.1z"/>
			<path class="st11" d="M-305.7,727.2c1.8-0.4,5.5-2.3,7.3-3.2c-0.5-1-0.2-2.8,1.6-3.7L-275,709l20-29.5c-0.9-0.3-3.1-1.7-3.8-2.2
				l3.5-20.3c0.4-1,0.4-0.7,1.1-1.3l4.2-4.9c2.4-3.2,1.8-1.1,2.4-4.5c0.2-1.3,0.5-2.6,0.7-3.9c0.5-2.6,0.9-5.1,1.4-7.7
				c1-5.1,1.7-11,3-16l-42.1,25.5c0-0.1-0.1,0.1-0.2,0.1l10.6,8.9c-0.9,4.6-3.5,11-4.9,15.7c-1.7,5.7-14.3,43.7-14.4,45.8
				c-1.5,0.2-5.9,3-7.4,3.9c-2.4,1.3-4.8,2.8-7,4.1C-305.7,728-306.9,727.8-305.7,727.2z"/>
			<path class="st11" d="M-371.1,573.3l9.5-22c0.7,0.8,1.3,4.3,1.7,5.7c2.2-0.3,6.9-1.8,9.2-2.5c3.1-0.9,6.4-1.8,9.5-2.6
				c4.4-1.1,5-2.3,8.5-5.1l5.9-4.6c-1.7-5-2.7,0.8,0.9-12.2c1.2-4.3,2.6-8.5,3.7-12.8c-9.6,1.3-23.3,5.3-30.6,11.9
				c-0.8,0.7-1.1,0.8-1.9,1.4c-1.6,1.2-2,2-3.2,3.5c-4.4,5.3-6.8,10.6-9,17.3C-368.4,556.1-371.4,568.9-371.1,573.3z"/>
			<path class="st11" d="M-363.9,747.9c0,0.1-0.1,0.2-0.2,0.2l-0.5,1.2l22.3-7l2.7,7.8l34.1,3.2l-0.1-3.9l-31.1-2.7l-0.6-1.9
				c-0.2-0.9-0.4-1.8-0.6-2.6l3.2-1.6c1.1-0.5,2-1,3.1-1.4l19.2-8.8l-0.4-0.6c-0.2-0.4,0,0-0.4-0.6c-0.9-1.5-1.5-2.4-1.7-3.9
				c1.6-0.9,1.2-0.6,2.2-2c1.6-2.2,3-1.3,1.8-1.8c-1.1,0.1-11.5,5.8-13.3,6.8c-2,1.2-4.6,2.5-6.5,3.5c-2.3,1.1-4.1,2.3-6.6,3.4
				L-363.9,747.9z"/>
			<path class="st1" d="M-371.1,573.3c-0.3-4.4,2.7-17.2,4.3-21.8c2.3-6.7,4.7-12,9-17.3c1.2-1.5,1.6-2.3,3.2-3.5
				c0.8-0.6,1.1-0.7,1.9-1.4c7.3-6.6,21-10.6,30.6-11.9c-1.1,4.2-2.5,8.5-3.7,12.8c-3.6,13-2.6,7.2-0.9,12.2l-5.9,4.6
				c-3.6,2.8-4.2,4-8.5,5.1c-3.1,0.8-6.4,1.7-9.5,2.6c-2.3,0.7-7.1,2.2-9.2,2.5c-0.4-1.4-1-4.9-1.7-5.7L-371.1,573.3z"/>
			<path class="st1" d="M-382.7,586.7l-9.1,2.8c-2-4.2-5-19.5-4.9-24.2c0.1-3.6,1.7-8.5,3-11.8c1.3-3.4,3.3-7.2,4.4-10.1
				c2.6,0.5,5,1.6,7.8,1.8c6.9-0.1,6-2.2,11.1-4.2c-2.2,6.8-4,14.7-4.5,21.9c-0.5,6.9,2.1,12.1,5.4,17.8l1.7,1.9
				c0.1-3.2,1.9-8.9,2.6-12.3c0.2-0.9,2.3-11.3,3-12.1l-6.6,49.4l-0.6-0.5c-0.1,0-0.1-0.1-0.2-0.2l-9.6-11.1
				C-383.8,590-381.2,588.6-382.7,586.7z"/>
			<path class="st1" d="M-331.1,636.9l-4.1,1.2c-0.1-0.4-3.3-9-3.4-9.3c-0.2,2.2-0.2,9.8-1.9,10.9l-6.3,2l-0.4-3.2
				c-0.7,0.1-3.4,0.9-4,1.2c-1.3,0.6-1.2,2.2-1.8,3.4s-6,2.8-7.5,2.9l1.9-10.2c-0.8,1.6-1.7,3.7-2.6,5.5c-1,2-1.4,4.3-3.7,4.8
				l-2-7.7l-1.3,10.1l-3.7,1.1l2.4-15.9l4.2-1.3l1.8,8.3c0.4-0.4,0.1,0.1,0.6-0.8l2.9-6.3c2.2-4.3,0.6-3.2,5.8-4.7l-1.5,9
				c-0.1,0.5-0.3,1.1-0.3,1.6l0.1,1.4c1.1-3,2.7-6,3.9-9c0.3-0.7,1.7-4,2.1-4.3c0.7-0.6,4-1.6,4.8-1.5l1.7,10.5
				c0.9-1.6,1.8-9.5,2.1-12l3.9-1.1c0.9,2.1,2.9,8,3.7,9.1c0.1-1.9,0.1-3.6,0.4-5.5c0.2-1.5,0.8-3.8,0.8-5.3l3.8-1.1L-331.1,636.9z"
				/>
			<path class="st1" d="M-350.6,597.7c3.1-0.8,8.4-3.3,11.1-3.6c-1-2.8-8.4-23.6-9.2-24.1C-349.1,571.9-349.8,591.3-350.6,597.7z"/>
			<path class="st12" d="M-245.1,518.1l-41.6,9.1c0.1-1.3,10.2-32.8,10.7-34.2l-11.3-3.3c-1.7,2.8-5.2,14.3-6.7,18.2l-13,36.4
				c0.1,0.8,0.6,1.2,1.2,1.7l4.6,4.8c1.1,1.1,2.1,1.9,3.2,2.9c1.3,1.2,1.1,2,3.1,3l-4.6-18.4c5-2.3,33.1-12.1,40.7-14.9
				c2.3-0.8,4.6-1.7,6.9-2.5C-250.6,520.4-246.1,519-245.1,518.1z"/>
			<path class="st13" d="M-185,711.8c-1.1,3.6-1.4,3.1,0,6.6c0.8,1.9,1.5,4.7,2.8,6.1c-0.1-2.7-0.4-5.2-0.4-7.9
				c0-3.3,0.6-4.2,1.3-7.2c1.3-5.3,2.1-9.4,2.1-15c0-17.4-12.6-34.9-2.1-57.7c2.7-5.8,14-24.8,18.2-32.5c2.1-3.8,4-7.1,5.9-11.1
				c4.5-9.3,6.7-17.3-2.1-24.3c-8.8-7-26.9-10.6-38.8-11.8c-4.6-0.5-6.9-0.5-9.2-3.7c-0.7-1-1.4-1.4-1.8-2.6l-1.1,9.8
				c8.5-0.8,20.2,0.4,28.4,2.2c3.8,0.8,8.3,2.3,11.7,3.8c1.8,0.8,3.3,1.7,4.9,2.7c2,1.2,3.1,1.9,4.4,3.4c1.9,2.2,5.7,5.2,5.2,10.4
				c-0.3,2.7-3.7,8.3-4.9,10.7c-2.5,4.9-8.2,14.3-11.2,19.8c-1.9,3.3-3.6,6.6-5.6,9.9c-1.8,3.1-3.4,6.9-5.2,10.3
				c-4.4,8.5-6.2,15.4-5.3,25.6c0.8,8.8,2.8,17.4,4.8,26C-180.4,696.2-182.7,701.5-185,711.8z"/>
			<path class="st14" d="M-347.9,630.1l0.4,5.7l-2.9,0.8L-347.9,630.1z M-328.7,621l-3.8,1.1c0,1.5-0.6,3.8-0.8,5.3
				c-0.3,1.9-0.2,3.6-0.4,5.5c-0.8-1.2-2.7-7-3.7-9.1l-3.9,1.1c-0.3,2.5-1.2,10.4-2.1,12l-1.7-10.5c-0.8-0.1-4.1,0.9-4.8,1.5
				c-0.4,0.3-1.7,3.6-2.1,4.3c-1.3,3-2.9,5.9-3.9,9l-0.1-1.4c0.1-0.4,0.2-1.1,0.3-1.6l1.5-9c-5.2,1.5-3.6,0.4-5.8,4.7l-2.9,6.3
				c-0.5,0.9-0.2,0.4-0.6,0.8l-1.8-8.3l-4.2,1.3l-2.4,15.9l3.7-1.1l1.3-10.1l2,7.7c2.2-0.6,2.7-2.8,3.7-4.8c0.9-1.8,1.9-3.9,2.6-5.5
				l-1.9,10.2c1.5-0.2,6.9-1.7,7.5-2.9s0.5-2.7,1.8-3.4c0.6-0.3,3.3-1.1,4-1.2l0.4,3.2l6.3-2c1.7-1,1.7-8.7,1.9-10.9
				c0.2,0.3,3.3,8.8,3.4,9.3l4.1-1.2L-328.7,621z"/>
			<path class="st15" d="M-411.6,636.1c1,2.7,1.1,5.3,3.3,6.8c1.9,1.3,3.9,2.6,5.8,4.1l-6.4-2.3C-412,643.4-413,638.8-411.6,636.1z
				 M-397.6,620.8c1.4,0.5,2.7,1.6,3.8,2.5c2.5,1.9,2,1.8,1.8,3.7c-2.9-0.4-6.6-2.6-9.3-1.5c-2.5,1-5.1,2.7-7.8,3.2L-397.6,620.8z
				 M-401.8,649.5c1-0.3,0.8-0.4,1.5-1l6.1-6.1c4.1-3.2,3.1-6.9,3.4-11.1c0.4-5,1-5.3-0.8-8c-2.3-0.7-3.7-2.7-5.8-3.2
				c-0.7,0.5-1.4,1.1-2.2,1.6l-6.7,4.3c-1.5,1-3,2.1-4.5,3.1c-2.2,1.4-1.8,2.1-2.4,4.9c-0.4,2-1.5,4.4-0.8,6.1
				c0.8,2,1.8,3.5,2.9,4.4C-409.3,645.8-404.8,648.9-401.8,649.5z"/>
			<path class="st16" d="M-381.5,545.2c1.9,2.3,3.7,0,2.3,5.5c-3.6,14.3,0.9,23.1,7.4,35.5c2.8,5.4,3.1,3.5,0.9,11.7l-0.5,1.4
				c0,0.1-0.1,0.2-0.1,0.2c0,0.1-0.1,0.1-0.1,0.2c-2.8-2-7.4-5.7-8.5-8.9c-0.6-1.7-0.2-3.7-0.6-5.4c-1.1,0.3-1.6,0.3-2,1.2
				c1.5,1.9-1.1,3.2,3.4,9.2l9.6,11.1c0.1,0.1,0.1,0.1,0.2,0.2l0.6,0.5l6.6-49.4c-0.7,0.8-2.8,11.1-3,12.1
				c-0.7,3.4-2.5,9.1-2.6,12.3l-1.7-1.9c-3.2-5.8-5.8-10.9-5.4-17.8c0.5-7.2,2.4-15.1,4.5-21.9C-375.5,543-374.7,545.1-381.5,545.2z
				"/>
			<path class="st17" d="M-426.7,630.9l0.7,6.3l3.4,0.4c-0.7-5.3,1.4-16,5.9-20.6c0.8-0.8,1.5-1.5,2.2-1.6v-0.3
				c-1.5-0.7-3.2-6.9-3.5-8.2c-4.2-17.1,0.1-34.1,4.8-50.6c0.8-3,4.5-15.8,5.7-17.6l-3.8-0.3l-2.1,0.2c1.7,4,1,5.1-1.2,11.1
				c-4.1,11-7.3,21.6-8.3,33.4c-1.4,16.4,4.1,27.4,0.3,37.6c-1.2,3.1-2,4.1-2.9,7.4l-0.7,2.1C-426.5,630.9-426.4,630.7-426.7,630.9z
				"/>
			<path class="st18" d="M-280.8,461c-0.7,0.9-4.4,2.7-5.5,3.4c0.8,1.5,1.1,1.2,1.6,2.2l-22.6,59.4c-1.8,0.2-4.3,0.2-5.7,1.2
				l6.1,1.7c-0.3,2.2-3.9,10.4-5,13l-2,0.2v1l-15.6,5.8c-2.5,1.1-1.7,0.6-2.1,0.4c-1.1,0.7-2.1,1.7-3.2,2.5
				c8.1-1.8,17.1-6.8,25.8-7.9c1.1-1.9,2.6-6.7,3.5-9c2.8-7.5,3-6.1,0.9-8.7l25.6-65.8L-280.8,461z"/>
			<path class="st19" d="M-413.1,614.2v0.3c0.8,0.3,1.2,0.8,2,1.3s0.1,0,0.9,0.6c0.7,0.6,0.2,0.1,0.6,0.7c1.3-0.1,1.1-0.5,2.5-1.3
				l7.6-4.3c2.6,2.8,6.4,8,9.1,11.2c0.6,0.7,1.1,1,1.3,1.9c0.3,1.3-0.5,9.4-0.5,11.5c-0.1,4.1,0.6,2.7-4.3,7.4
				c-1.8,1.8-6.8,7.5-9.2,8.1c-1.7,0.4-3.6,0.4-5.3-0.1c-1.6-0.5-2.6-1.3-3.7-2c-0.6-0.5-1.1-0.9-1.7-1.3l-4.4-4.4
				c-1.1-1.5-0.9-3.5-0.6-5.5l-3.7-0.5c0.8,4.7,4.3,9.4,6.7,18.2c7,1.8,13.9,0.6,19-3.8c1.9-1.6,6.6-8,8-10.2c1.3-2,1.2-1.8,1.2-4.7
				c0.1-2.7,1-12.7,0.4-14.2c-0.4-1.1-2-2.6-2.8-3.6l-0.6-0.9c0-0.1-0.1-0.1-0.1-0.2l-6.5-7.8c0,0-0.1-0.1-0.1-0.2l-0.6-0.6
				c-0.4-0.4-0.2,0-0.7-0.9c-2.1,0.5-5.3,1.7-7.5,2.5C-408,612-411.8,613.9-413.1,614.2z"/>
			<path class="st20" d="M-401.8,649.5c-3-0.6-7.5-3.6-9.4-5.1c-1.1-0.9-2.2-2.4-2.9-4.4c-0.6-1.7,0.4-4.1,0.8-6.1
				c0.6-2.8,0.2-3.5,2.4-4.9c1.5-0.9,3-2.1,4.5-3.1l6.7-4.3c0.9-0.6,1.6-1.2,2.2-1.6c2.1,0.5,3.5,2.5,5.8,3.2l-4.2-5.1
				c-1-1.3-3.4-3.8-3.9-5.2c-1.8,0.6-9.2,6.3-10.7,7.5l-4.9,3.9c-1.1,0.9-1.3,1-1.6,3c-0.7,3.8-0.8,8.5-1,12.3
				c-0.2,3.4,1.5,4.4,3.3,5.7c2.2,1.6,1.8,1.9,5.4,3.4C-407.3,649.5-403.8,650.5-401.8,649.5z"/>
			<path class="st21" d="M-409.7,523.2c0,0-3.1,5-3.8,6.1c-1.5,2.1-2.9,4.1-4.3,6c-7,9.5-9.7,16.8-12.4,29.3l-3.1,16.5l-0.7-1.2
				c0.1,8.8,3.5,18.3,5.4,26.6c0.3-0.9-2-12.7-2-14.8c-0.2-4.8,0.1-9.2,0.4-13.8c1.3-17.8,6.5-28,15.4-41.6
				c3.5-5.3,6.6-9.7,10.5-14.4l3.7-4.2C-402.5,518.3-408.6,521.8-409.7,523.2z"/>
			<path class="st22" d="M-401.8,649.5c-2,1.1-5.5,0-7.5-0.8c-3.6-1.6-3.1-1.8-5.4-3.4c-1.9-1.3-3.5-2.3-3.3-5.7
				c0.2-3.8,0.3-8.5,1-12.3c0.4-1.9,0.5-2.1,1.6-3l4.9-3.9c1.6-1.1,9-6.9,10.7-7.5c0.5,1.4,2.8,3.9,3.9,5.2l4.2,5.1
				c1.8,2.7,1.2,3,0.8,8c-0.3,4.2,0.7,7.9-3.4,11.1l-6.1,6.1C-401,649.1-400.8,649.1-401.8,649.5z M-409.6,617.1
				c-0.5,0.8-0.9,1.1-1.8,1.4c-0.6,0.6-1.2,1.1-2,1.7c-0.8,0.6-1.2,0.7-1.9,1.5c-0.2,0.2-0.2,0.2-0.4,0.5c-3.4,3.5-3.2,10-3.3,16
				c-0.3,2-0.4,4,0.6,5.5l4.4,4.4c0.6,0.5,1.1,0.9,1.7,1.3c1.1,0.8,2.1,1.5,3.7,2c1.7,0.6,3.6,0.6,5.3,0.1c2.4-0.6,7.4-6.3,9.2-8.1
				c4.8-4.8,4.2-3.3,4.3-7.4c0-2,0.8-10.2,0.5-11.5c-0.2-0.9-0.7-1.2-1.3-1.9c-2.7-3.2-6.5-8.5-9.1-11.2l-7.6,4.3
				C-408.5,616.6-408.3,617-409.6,617.1z"/>
			<path class="st23" d="M-414.6,615.2l1.5-0.6v-0.3c-2.1-2.9-4.5-14.1-4.9-18.2c-0.9-8,0-12.9,1.8-20.4c1-4.4,9.3-35.2,9.1-36.5
				c1.2,0.2,1.1,0.3,2.1,0.1l-2.6-0.4c-1.2,1.7-4.8,14.6-5.7,17.6c-4.7,16.4-9.1,33.5-4.8,50.6C-417.7,608.3-416,614.5-414.6,615.2z
				"/>
			<path class="st24" d="M-422.6,637.7l3.7,0.5c0.2-6.1-0.1-12.5,3.3-16c0.2-0.2,0.2-0.3,0.4-0.5c0.7-0.8,1.1-0.9,1.9-1.5
				s1.4-1.1,2-1.7l-3.2-3.1c-0.7,0.1-1.4,0.8-2.2,1.6C-421.2,621.6-423.3,632.3-422.6,637.7z"/>
			<path class="st25" d="M-408.2,720.6c3.2,1.5,5.6,2.7,8.2,4.3l7.5,5.6c0.5,0.3,0.9,0.6,1.3,1.1c2.6,2.6,4.3,3.9,6.6,6.5
				c1.2,1.3,1.1,1.7,2.8,2.6c0.2-0.3,0.2-0.3,0.4-0.7c0.9,0,0.5-0.1,1.3,0.2c-0.9-1.1-1.5-2.5-2.4-3.7c-0.5-0.7-0.9-1.1-1.3-1.7
				c-0.7-0.8-0.7-1.2-1.5-2c-0.9-0.3-1.7-1.7-3.7-3.2c-0.6-0.5-0.7-0.5-1.4-1c-1.5-1.2-3.6-2.6-5.6-3.8c-1.8-1.1-10.5-6.4-12.2-6.6
				c-0.6,0.9,0.1-0.3,0.1,1.1C-407.9,720.1-408,720-408.2,720.6z"/>
			<path class="st26" d="M-189.1,727.6c1.8,2,3.7,11.4,5.6,14.3c0.7-2,1.1-7.2,0.2-9c-1.1-2.4-2.4-4.7-3.6-7
				c-1.9-3.7-5.4-11.3-7-13.9c-0.6-1.6-1.4-2.6-1.9-3.7C-194.8,712.5-189.2,724.3-189.1,727.6z"/>
			<path class="st27" d="M-318.2,541c0,0,5.4,1.3,6.6-1.4l1.6-4.1c0.8-1.8,1.7-3.9,2.2-5.7l-5.9-1.5c1,1.3,2,2.3,1.9,3.3
				c-0.1,0.5-1.8,5.9-3.3,7.1C-316.9,540-316.9,540.4-318.2,541z"/>
			<path class="st28" d="M-318.2,541c-0.9-4.6-2.2-1.4-0.1-6.9c0.6-1.6,1.8-5.3,2.7-6.5l1.9,0.6l5.9,1.5c-0.4,1.8-1.4,3.8-2.2,5.7
				l-1.6,4.1C-312.8,542.3-318.2,541-318.2,541z M-313.8,542.1l2-0.2c1.1-2.6,4.7-10.9,5-13l-6.1-1.7l-3-0.6
				c-0.8,0.7-2.7,6.4-3.3,7.8c-1.8,4.8-1.3,3.4,0.7,8L-313.8,542.1z"/>
			<path class="st29" d="M-373.8,731.2l7.2,1c-0.3-0.5-1-1.7-1.2-2.3l-10.1-2.9C-377,728-374.8,730.6-373.8,731.2z"/>
			<path class="st30" d="M-414.6,615.2v0.3l3.2,3.1c0.9-0.3,1.3-0.5,1.8-1.4c-0.5-0.6,0.1-0.1-0.6-0.7c-0.8-0.6-0.1-0.1-0.9-0.6
				s-1.1-1-2-1.3L-414.6,615.2z"/>
			<polygon class="st31" points="-350.5,636.6 -347.5,635.8 -347.9,630.1 			"/>
			<path class="st1" d="M-274.7,497.3c-0.2-0.1-0.5-0.2-0.7-0.3c-0.4-0.1-0.7-0.3-1-0.5c-0.3-0.1-0.6-0.3-0.8-0.5
				c-0.3-0.1-0.6-0.3-1-0.5c-0.4-0.1-0.8-0.4-1.2-0.6c-0.2-0.1-0.5-0.2-0.7-0.4c-0.2-0.1-0.4-0.2-0.5-0.3c-0.4-0.2-0.7-0.5-0.9-0.8
				c-0.1-0.1-0.2-0.2-0.3-0.2c-0.4-0.3-0.7-0.6-1-1c-0.1-0.1-0.3-0.3-0.4-0.5c-0.1-0.1-0.3-0.2-0.4-0.3c-0.1-0.1-0.2-0.1-0.2-0.2
				l0,0c-0.3-0.1-0.7-0.3-0.9-0.5l-0.1-0.1c-0.3-0.1-0.6-0.3-0.9-0.5c-0.3-0.2-0.5-0.4-0.7-0.6l-0.2-0.2c-0.2-0.1-0.4-0.3-0.6-0.5
				c-0.1-0.1-0.2-0.2-0.4-0.4c-0.3-0.3-0.6-0.6-0.8-0.9l-0.2-0.2c-0.1-0.2-0.2-0.3-0.4-0.5c-0.1-0.1-0.2-0.3-0.3-0.4l-15.4,39.7
				c2.1,2.5,1.9,1.2-0.9,8.7c-0.9,2.3-2.4,7.1-3.5,9c-8.7,1.1-17.7,6.1-25.8,7.9c1.1-0.8,2.1-1.7,3.2-2.5c1.6-0.9,2.7-1.8,4.2-2.9
				c1.2-0.8,2.9-2.2,4.2-2.7c-0.7-1.6-2.4-4-2.7-5.2c-0.4-1.4,5.3-15.3,6-16.3l10.8,3l-5.3-2.9c0.1-1.4,0.5-3.6,1.2-4.7l3.2-0.2
				l12.1-29.5c-2.1,0.2,1.5,0.7-6.4,0.7h-14.9c-1.4-0.1-1.7-0.4-3.3-0.2l-2.1,0.8c1.3,0.3,3,0,4.5-0.1l-2.3,21.9
				c-3.6-0.3-6.4-3.3-11.4-0.2l-0.6,0.4c0-0.1-0.1-0.2-0.1-0.2l-0.5-0.8c-0.2-0.2-0.3-0.5-0.5-0.8c-1.4-2.5-5.6-9.4-6.1-11.1
				c-0.8-0.4-4-6.4-4.2-7.4c-1.9,0.1-2.4,0.1-4.1-0.6l1.1,0.9c0.4,2.5,4.2,7.5,4.7,10.4c1.4,1.5,4.9,9.9,4.7,12.5
				c-6.3,0.9-9.5,1.4-12.4,5.3l-11.4-13c-0.8-0.6-1.1-1.1-1.5-2.1c-1.5-0.8-4.3-4-6.5-4.2c0,0.1-0.1,0.1-0.1,0.2l-0.4,0.6
				c-0.9,0-1.8,0-2.7,0h-1.9c-0.1,0-0.2,0.1-0.2,0.1c-0.1,0-0.2,0.1-0.2,0.1c-0.1,0-0.2,0.1-0.2,0.1c0.8,0.6,0.8,0.6,1.6,1.3
				c2.5,2.3,7.4,5.8,9.8,8.4c0.6,0.2,0.9,0.6,1.4,1l8,6.6c0.9,0.6,0.5,0.2,1.3,1.2c-0.5,0.9-1.2,1.7-2.1,2.4l-6.4,6.9
				c-1-0.3-2.7-1.6-3.7-2.3c-1.3-0.8-2.3-1.5-3.7-2.4l-7.5-4.7c-2.2-0.5-4.6-2.4-7.3-3c0.2,1-0.7-0.4,0.2,0.6
				c0.1,0.1,0.1,0.2,0.2,0.3c0.1,0.1,0.2,0.1,0.3,0.2s0.2,0.1,0.3,0.2l-1-1.3c-1-0.1-8.2-2.6-9.3-1.4c3.7,0.4,3.2,4.3,6.4,5.7
				c1.2,0.5,6.6,3.2,7.1,3.7c3.5,1.2,12.4,7.1,14.7,7.7c-0.4,1.3-2.9,5.5-4,6.3c-6.2,4.7-8.7,4.7-14.9,2.7c-0.9-0.3-2.8-0.9-3.5-1.3
				c-1.5-0.8-1-1.6-2.2-2.7c-1.7-0.2-3.7-1.3-5.4-1c-1.3,0.4-9.4,0.3-10.8,0.3l7.6,1.2c0.1,0,1.8-0.5,1.9-0.5s-0.5-19.1-0.4-19.1
				c-6.4,0-11.1,17.7-16.9,17.3c-0.3,0-0.5,1.8-0.1,3.1l0.3,0.3c0.9-0.2-0.2,0,0.6-0.3c0.7-0.3,0,0.7,1.3,0.7c0.6,0,1.5-0.8,2.1-0.7
				l3.6,1.4l2.8-0.7c1.5-0.3,10.2,0.5,12.1,0.8l-6.1,22.3l-7.1,2.4l-0.5,8.9l7.8-1.3c0.8,2.7,1,8,1.8,11.5c1.2,5.2,1.1,4.1,3.2,6.8
				c0.7,0.9,0.5,1.6,2,1.6l6.8-2.4c2.8,6.6,6.9,12,12,16.8c0.8,0.8,1.8,1.5,2.5,2.3c0.7,0.9,0.2,0.6,1.1,1.3
				c0.6,0.5,0.9,0.5,1.4,1.1c0.3,0.7-4.8,32.2-5.8,37.3c-0.7,3.9-1.1,8.9-2.1,12.5c0.3,0.4,0.3-0.1,0.6,1l5.9-4.7
				c1.5-1.6,0.5-2.2,1.4-5.2c3.5-1.4,7.1-1.4,9.8-3.6l6.3-5.3c0.5-0.7,0.1-0.9,0.8-0.4c0.9-0.6,0.8-1.1,1.8-1.3
				c0.7-0.1,1.7,0.3,2.4,0.5c2.6,0.8,2.4,0.8,5,0s7.4-2.6,9.9-3c-1,1.2-2.8,1.8-3.3,3c1.1,0,4.9-1.5,6.5-2c2-0.6,1.9-0.2,2.5-2.1
				c0.4-1.2,0.7-2.3,1.1-3.4c1.3-3.9,3-10.4,4.6-13.5c0.7-0.8,68.5-18.3,69.7-18.1c1,2.1,0,6.8-1,9c-1.6,1-12.1,4.7-14.8,5.6
				c-5,1.8-9.9,3.6-14.8,5.5c-4.2,1.6-28.2,10.1-29.9,11.3c0.5,1,0.8,1.4,1.4,2.2l59.5-20.3c-1.1,1.1-8.5,5.2-10.3,6.2
				c-3.6,2-7,4.1-10.5,6.2l-10.7,6.1c-1.8,1.1-3.5,1.9-5.2,3c-1.6,1-3.7,2.3-5.4,3c0.9,1.2,2.3,2.1,3.5,3l1.8,1.5
				c0.8,0.7,1,0.8,1.8,1.5l7.4,5.9l-18.2,57.8c-1.2,3.8-0.4,3-6.6,6.2c-1.4,0.7-7.6,3.9-8.1,4.7c1.1,0.6-0.2-0.4-1.8,1.8
				c-1,1.4-0.7,1.1-2.2,2c0.2,1.5,0.8,2.4,1.7,3.9c0.3,0.6,0.1,0.2,0.4,0.6l0.4,0.6c1.3-0.6,5.9-2.4,6.6-3.1c-1.2,0.7,0,0.9-2.1-4.5
				c2.1-1.3,4.6-2.8,7-4.1c1.5-0.8,5.9-3.6,7.4-3.9c0.1-2.1,12.7-40.1,14.4-45.8c1.5-4.8,4-11.1,4.9-15.7l-10.6-8.9
				c0.1,0,0.2-0.2,0.2-0.1l42.1-25.5c-1.2,5-2,10.9-3,16c-0.5,2.6-0.9,5.1-1.4,7.7c-0.2,1.3-0.5,2.6-0.7,3.9c-0.6,3.5,0,1.3-2.4,4.5
				l-4.2,4.9c-0.7,0.6-0.7,0.4-1.1,1.3l-3.5,20.3c0.7,0.5,2.9,1.9,3.8,2.2l-20,29.5l-21.9,11.2c-1.8,0.9-2.1,2.8-1.6,3.7l7.5-3.1
				c1-0.9,11.3-5.4,13.6-6.3c1.1-0.5,2.2-1,3.3-1.5c3.7-1.5,3.8-3.5,7.4-8.1l14.8-20.5c0.7-1,1.8-2.1,1.9-3.2
				c0.6-1.6,2.2-1.3,3.8-1.3c0.2,0.4,0.3,0.7,0.5,0.9l0.8,1.2l0.3-1.6l-3.3-2.4c-1.2-1-2-1.9-3.2-2.5l3.2-15.7l3.9-1.7
				c1.2-0.7,5.3-9.5,6.1-11c2.7-5,5.2-9.8,7.7-14.8s5.4-9.8,7.7-14.8l7.9-14.9c-0.9,3.5-3.4,9-4.8,12.8l-12.1,32.3
				c-0.8,2.1-2.2,4.7-1.9,6.8c0.6,0.7,13.8,34.2,16.1,39.1l12.6,28.7c1.5,3.3,3.1,6.7,4.3,10c-2.7-1.4-5.7-3.5-8.3-5.1l-16-10.1
				c-1.5-0.9-2.7-1.6-4.1-2.6c-0.8-0.5-1.4-0.8-2.1-1.3c-1-0.6-1.1-0.9-2.2-1.1c-0.7,1.2,0.4,0.1,0.2,1c-2.3,0-10-0.2-11.2,0.3
				c0.8,1,12.3,7.6,14.4,8.9l21.4,13.5c2.4,1.5,4.9,3,7.4,4.5c2.1,1.2,1.4,0.8,2.4,3.3c0.5,1.4,1.1,2.7,1.6,4.2
				c1.1,2.9,2.1,5.9,3.3,8.5l-0.2-1.6c2.2,0,5.3-0.2,7.4,0.3c1.4,0.3-0.7,0.8,0.7,0.1c-0.1-1.5-37.1-87-42.4-99.2
				c-1.7-3.9-1.4-2.5,1.4-10c3.1-8.2,17.6-47.5,20.4-50.7l-12.7,52c-0.3,1.5-0.7,2.9-1.1,4.4c-0.6,2.4-0.5,1.9,0.3,4.1
				c4.8,13.1,9.3,26.9,14.2,39.9l8.5,24c0.9,2.4,2.3,6,2.8,8.3l1-0.9c4,0,2.6,0.2,3.3,0.5c1.2,0.5-0.9,1.1,0.6,0.1
				c-0.2-3.3-5.7-15-6.8-19.4c0.5,1.1,1.3,2.1,1.9,3.7c0.1-0.1,0.2-0.3,0.3-0.2c0.1,0.1,0.2-0.1,0.3-0.2c1.3-0.6,4.6-0.4,6.2-0.4
				c1,0,1.3,0.1,2.2,0.7c2.3-10.3,4.6-15.6,2.1-26.6c-2-8.6-4-17.2-4.8-26c-0.9-10.2,1-17.1,5.3-25.6c1.8-3.4,3.4-7.2,5.2-10.3
				c1.9-3.3,3.7-6.6,5.6-9.9c3-5.4,8.8-14.9,11.2-19.8c1.2-2.4,4.6-8,4.9-10.7c0.5-5.2-3.2-8.3-5.2-10.4c-1.3-1.5-2.5-2.3-4.4-3.4
				c-1.6-1-3.1-1.9-4.9-2.7c-3.5-1.5-7.9-2.9-11.7-3.8c-8.2-1.8-19.9-3-28.4-2.2l0.5-4.5c-1.6,0.4-3.3-0.3-4.1-1.8
				c-0.2-0.3-0.4-0.5-0.5-0.8c-0.2-0.3-0.3-0.7-0.4-1c-0.2-0.2-0.3-0.5-0.4-0.8c-0.1-0.1-0.1-0.2-0.1-0.2c-0.2-0.3-0.4-0.5-0.5-0.8
				v-0.1c-0.2-0.3-0.4-0.5-0.5-0.8c-0.1-0.2-0.2-0.5-0.3-0.7c-0.2-0.3-0.4-0.7-0.5-1.1c-0.2-0.2-0.3-0.5-0.4-0.7
				c-0.3-0.3-0.6-0.7-0.7-1.1l-0.1-0.1c-0.3-0.3-0.5-0.6-0.7-0.9c-0.4-0.2-0.8-0.4-1.1-0.7c-0.1-0.1-0.2-0.2-0.3-0.3
				c-0.6-0.5-1-1.2-1.1-2l-0.1-0.3c-0.1-0.2-0.2-0.5-0.3-0.8c0-0.1-0.1-0.2-0.1-0.3c-0.1-0.2-0.1-0.3-0.2-0.5
				c-0.1-0.2-0.2-0.3-0.2-0.5c0-0.1-0.1-0.2-0.1-0.3c-0.4-0.4-0.7-0.9-0.9-1.4c-0.4-0.5-0.7-1-0.8-1.5c0,0,0-0.1-0.1-0.1
				c-0.2-0.2-0.3-0.3-0.4-0.5l-0.1-0.1c-0.2-0.2-0.5-0.5-0.6-0.8c-0.2-0.1-0.4-0.3-0.6-0.5c-0.2-0.2-0.3-0.3-0.5-0.5
				c-0.2-0.2-0.4-0.5-0.6-0.8c-0.1-0.2-0.3-0.5-0.4-0.7c0-0.1-0.1-0.2-0.1-0.3c-0.1-0.1-0.1-0.3-0.2-0.4c-0.1-0.2-0.2-0.3-0.3-0.5
				c-0.2-0.2-0.3-0.5-0.5-0.7s-0.3-0.4-0.4-0.7c0,0,0-0.1-0.1-0.1c-0.1-0.2-0.2-0.4-0.3-0.6c0-0.1-0.1-0.1-0.1-0.2s-0.1-0.1-0.1-0.2
				c-0.1-0.1-0.2-0.2-0.2-0.3c-0.1-0.2-0.2-0.3-0.3-0.5s-0.3-0.4-0.4-0.6c-0.2-0.3-0.4-0.7-0.5-1.1c0-0.1-0.1-0.2-0.1-0.3
				c-0.1-0.1-0.1-0.2-0.1-0.3c-0.1-0.2-0.3-0.5-0.4-0.7c-0.1-0.1-0.1-0.2-0.2-0.3c-0.1-0.1-0.2-0.2-0.2-0.3
				c-0.1-0.1-0.2-0.3-0.4-0.4c-0.1-0.1-0.2-0.2-0.2-0.3c-0.1-0.2-0.3-0.4-0.4-0.6c-0.1-0.2-0.3-0.4-0.4-0.6
				c-0.1-0.2-0.2-0.4-0.3-0.6s-0.2-0.4-0.3-0.6c-0.1-0.1-0.2-0.3-0.3-0.4l-0.1-0.1c-0.2-0.2-0.4-0.4-0.5-0.6V520
				c-0.1-0.1-0.3-0.3-0.4-0.4c-0.1-0.1-0.2-0.2-0.2-0.3l0.1,0.1c-0.2-0.2-0.3-0.3-0.5-0.5c-0.1-0.1-0.2-0.3-0.3-0.5
				c-0.1-0.2-0.3-0.3-0.4-0.5c-0.2-0.2-0.3-0.4-0.5-0.6c-0.6-0.6-0.9-1.4-1-2.3c-0.6-0.2-1-0.5-1.4-0.9c-0.5,0.3-1,0.6-1.6,0.7
				c-0.1,0-0.2,0.1-0.3,0.1c-0.3,0.2-0.6,0.4-0.9,0.6c-0.6,0.3-1.1,0.5-1.8,0.6c-0.1,0-0.2,0.1-0.3,0.1c-0.3,0.1-0.5,0.1-0.8,0.1
				c-0.4,0.1-0.7,0.2-1.1,0.2h-1.6c-2,0-3.6-1.6-3.6-3.6c0-0.5,0.1-1.1,0.3-1.5c-0.8-0.7-1.3-1.7-1.3-2.7c0-0.2,0-0.4,0-0.5
				c-1.2-0.6-2-1.7-2.1-3.1l-0.2,0.1c-0.4,0.2-0.8,0.2-1.3,0.2c-1.1,0-2.1-0.5-2.8-1.3c-0.5,0.3-1.1,0.4-1.7,0.4
				c-1.5,0-2.8-0.9-3.3-2.2c-0.1-0.1-0.2-0.1-0.3-0.2c-0.3-0.1-0.5-0.2-0.8-0.3c-0.3-0.1-0.5-0.2-0.7-0.3c-0.1,0-0.2-0.1-0.3-0.1
				s-0.2-0.1-0.4-0.1c-0.3-0.1-0.6-0.2-0.9-0.3c-0.2-0.1-0.3-0.1-0.5-0.2l0,0c-0.3-0.1-0.5-0.2-0.7-0.3c-0.3-0.1-0.6-0.2-0.9-0.4
				l0,0c-0.4-0.1-0.7-0.3-1.1-0.5c-0.1,0-0.2-0.1-0.3-0.1c-0.3-0.1-0.6-0.2-0.9-0.3c-0.2-0.1-0.4-0.1-0.6-0.2s-0.3-0.1-0.5-0.2
				c-0.3-0.1-0.7-0.3-0.9-0.5C-274.1,497.6-274.4,497.4-274.7,497.3z M-207.1,551L-207.1,551c0-0.1-0.1-0.2-0.2-0.3
				C-207.1,550.8-207.1,550.9-207.1,551z"/>
			<g>
				<path class="st2" d="M-409.1,628.7c2.7-0.4,5.3-2.1,7.8-3.2c2.7-1.1,6.4,1.1,9.3,1.5c0.3-1.9,0.8-1.8-1.8-3.7
					c-1.2-0.9-2.4-2-3.8-2.5L-409.1,628.7z"/>
				<path class="st2" d="M-411.6,636.1c-1.4,2.7-0.4,7.4,2.7,8.6l6.4,2.3c-1.8-1.5-3.8-2.8-5.8-4.1
					C-410.5,641.3-410.6,638.7-411.6,636.1z"/>
			</g>
			<g>
				<path class="st3" d="M-383,699.2c-2.8-5.8-7.4-19.8-1.3-24.7l4.4-3.8c1.4-1,1.1-0.7,1.6-1.7c-1.2,0.4-3.3,1.7-4.1,2.2l-4.9,4.3
					c-1.5,1.9-2.6,4-2.6,6.5C-389.8,687.6-386.1,696.1-383,699.2z"/>
				<path class="st3" d="M-366.6,672.2c1-0.7,0,0.2,0.7-0.6l13.5-19.4c0.8-1.1,1.5-2,1.8-3.6c0.3-1.6,0.7-3.1,0.9-4.6
					c-0.8,0.6-7.5,12.2-8.6,14C-359.6,660.3-366,670.6-366.6,672.2z"/>
			</g>
			<g>
				<path class="st4" d="M-410.7,536.4c2.3,0,12.5,0.1,14,0.7c1.7-0.3,3.6,0,5.5,0.1c1.2,1.1,0.6,1.9,2.2,2.8
					c0.7,0.4,2.7,1.1,3.5,1.3c6.3,2,8.9,2,15.1-2.8c1.1-0.8,3.5-5,4-6.4c-2.4-0.6-11.3-6.6-14.9-7.9c0.8,1.6,2.8,5.4,2,7.2
					c-1.6,3.5-11.5,2.6-15.5,2.8C-397.9,534.3-408.5,535.3-410.7,536.4z"/>
				<path class="st4" d="M-364.9,504.3c0.4,0.9,0.7,1.4,1.5,2.1l11.4,13c2.9-4,6.1-4.4,12.4-5.3c0.1-2.7-3.3-11-4.7-12.5
					c0,2.8,0.3,5.5-1.7,6.7c-2.1,1.2-4.5,1.3-6.9,1C-357.4,508.8-361.2,506.1-364.9,504.3z"/>
				<path class="st4" d="M-341.7,498.2c0.5,1.7,4.6,8.6,6.1,11.1c0.1,0.2,0.3,0.5,0.5,0.8l0.5,0.8c0,0,0.1,0.1,0.1,0.2l0.6-0.4
					c4.9-3.1,7.8-0.2,11.4,0.2l1.5-13.4c-3.3,2.4-0.2,6.7-9.3,4.8C-333.9,501.5-338.7,499.9-341.7,498.2z"/>
				<path class="st4" d="M-378.6,519.4l7.7,4.8c1.4,0.9,2.5,1.6,3.8,2.5c1,0.7,2.8,2.1,3.8,2.4l6.5-7.1c0.9-0.7,1.6-1.5,2.1-2.5
					c-0.7-1-0.3-0.6-1.3-1.2l-8.2-6.8c-0.5-0.4-0.8-0.8-1.4-1c0.7,2.4,3.2,8.8,1.1,10.5C-365.9,522.1-376,520-378.6,519.4z"/>
				<path class="st4" d="M-307.9,506.7c-1.3,0.9-1.8,1.4-2.4,2.9c-1-0.3-0.9-0.2-2-1.5c-0.6-0.7-0.7-0.7-0.9-1.8l-1.8-9.1
					c-0.5-2.8-0.3-2.5-0.2-5.1l-1.5,19.1l6.4,2.1L-307.9,506.7z"/>
			</g>
			<g>
				<path class="st5" d="M-185.4,755l0.8,0.7c0.3-3-3.2-11.1-4.4-14.4c-0.8-2.2-4.1-12.4-4.9-13.4c-0.5-2.4-1.9-5.9-2.8-8.3l-8.5-24
					c-4.8-13-9.3-26.8-14.2-39.9c-0.8-2.2-1-1.8-0.3-4.1c0.4-1.5,0.7-2.9,1.1-4.4l12.7-52c-2.7,3.2-17.3,42.5-20.4,50.7
					c-2.8,7.5-3.1,6-1.4,10C-222.5,668-185.5,753.5-185.4,755z"/>
				<path class="st5" d="M-182.2,724.5l0.2,1.3c1-1,2.9-8.7,3.1-9.8c0.8-3.5,1.4-7.1,1.8-10.6c3-24.2-5.1-30.5-5.5-43.4
					c-0.2-6.7,1.8-14.6,4.1-20.9c4.6-12.5,11-23,17-33.2c2.9-4.9,12.2-18.9,13.2-24.1c1-4.9-0.2-6.4-1.8-10.3
					c-0.3-0.1-0.1,0-0.6-0.6c-2.4-3.1-3-3.4-5.8-5.8l-4.6-3c-4.8-2.5-8.8-4.3-14.3-6.1c-11.6-3.9-21.9-5.4-33.7-7.5
					c0.4,1.3,1.1,1.7,1.8,2.6c2.2,3.2,4.5,3.2,9.2,3.7c12,1.2,30.1,4.8,38.8,11.8c8.8,7.1,6.6,15,2.1,24.3c-1.9,4-3.8,7.3-5.9,11.1
					c-4.2,7.7-15.6,26.7-18.2,32.5c-10.5,22.8,2.1,40.3,2.1,57.7c0,5.5-0.8,9.7-2.1,15c-0.7,3-1.3,3.9-1.3,7.2
					C-182.6,719.3-182.3,721.8-182.2,724.5z"/>
				<path class="st5" d="M-373.8,731.2c0.6,1.4,0.5,0.3,2.7,2.9c0.9,1,1.6,2,2.6,2.8c1.6-0.3,4-1.2,5.2-1.9c0.8-4-1.5-3.6-4.5-5.1
					c0.2,0.7,0.9,1.8,1.2,2.3L-373.8,731.2z"/>
			</g>
			<g>
				<path class="st6" d="M-329.7,774c0.6-1-0.5-0.3,1.2-1l3.6-1.6c1.6-0.8,3.2-1.6,4.7-2.3l0.7,0.6c0.1,0.1,0.5,0.6,0.5,0.7
					c0.3,0.4,0.7,0.9,1,1.4l16.5,22.1c0.6,0.9,1.3,1.8,2.1,2.8l12,16.4l0.8,0.8c0.4,0.4,0.2,0.3,0.5,0.7c0.7,0.9,0.2,0.3,1.4,1
					c-0.3-1.5-13.1-29.5-14.9-33.7c-1.7-3.8-3.2-7.5-4.8-11.3c-6.6-15-4-12.9-10.2-14.1c-2.1-0.4-4.5-0.8-6.7-1.2
					c-4.6-0.8-9.1-1.7-13.7-2.4c-9.1-1.4-4.8-1-8.2-3.9c-0.9-0.8-1.2-1.2-1.8-2.2l-10.9,2.2c0.9,1.9,3,2.3,4.9,4.7
					c1.2,1.6,3.2,2.3,4.9,4.5l6.6,6.1c3.1,2.5,1.9,2,3.2,3.2c1,0.9,2.6,1.9,3.5,2.9l3,3.1C-329.9,773.7-329.8,773.9-329.7,774z"/>
				<path class="st6" d="M-249.7,701.2c0.7,1.3,6.7,4.6,8.3,5.6c1.5,0.9,7.6,4.5,8.2,5.5c1.1,0.1,1.3,0.4,2.2,1.1
					c0.7,0.5,1.3,0.8,2.1,1.3c1.4,0.9,2.6,1.7,4.1,2.6l16,10.1c2.6,1.6,5.6,3.7,8.3,5.1c-1.2-3.3-2.9-6.7-4.3-10l-12.6-28.7
					c-2.3-4.9-15.5-38.4-16.1-39.1l1.7,51.4L-249.7,701.2z"/>
				<path class="st6" d="M-362.8,812.1c5.7-1.8,14.5-3.5,20.6-4.7c3.9-0.8,12.2-2.9,15.9-3.3c1.9-0.2,3.1,0.7,4.8,1.5
					c3,1.3,33.3,14.2,36.3,15c-0.6-0.8-0.6-0.7-1.2-1.5c-0.4-0.6-0.4-0.6-1-1.1c-0.8-0.7-1.4-1.2-2.3-2c-3.5-3-2.7-2.9-4.3-4.2
					c-1.2-1-3.7-2.9-4.5-4c-1.6-2.1-2-2.2-4.3-4.2c-1-0.8-1.5-1.2-2.3-2.3c-1.2-1.6-4.4-3.9-5.5-5.1c-0.5-0.6-0.4-0.7-0.9-1.2
					c-0.9-1.1-3.3-3-4.5-4c-1.9-1.6-1-1.2-2-2.2c-0.4-0.4-1.8-1.7-2.3-1.8c-0.7-0.1-21.5,8.9-24,10.1c-8.1,3.6-5.4,3-10.9,6.4
					l-9.8,7.3c0.7,0.5-0.4-0.2,0.4,0.3L-362.8,812.1z"/>
				<path class="st6" d="M-298.4,724c-1.8,0.9-5.5,2.9-7.3,3.2c-0.7,0.7-5.2,2.6-6.6,3.1l-19.2,8.8c-1.1,0.5-2,1-3.1,1.4l-3.2,1.6
					c0.2,0.9,0.4,1.8,0.6,2.6l0.6,1.9l31.1,2.7l1.7,0.1l8.8,18.9l3.9-4.3c0.5-0.5,0.2-0.2,0.5-0.5c-0.9-0.5-1.5-1.6-2-2.5
					s-0.9-1.5-1.5-2.4c-1-1.4-2.3-3.5-3.2-5c-4.6-7.8-5.3-5.8-3.4-10.1c1.9-4.4,8.6-19.1,9.8-22.6L-298.4,724z"/>
				<path class="st6" d="M-286.7,782.9l-2-10.5l-2.4,2.8l3.6,8.9c0,0,0,0.1,0,0.2C-287,783.1-287.6,783.9-286.7,782.9z"/>
			</g>
			<g>
				<path class="st7" d="M-391.9,592.3c-0.8,1.6-0.4-0.3-1.3,1.8c-1.1,2.7-5.4,13.4-5.4,14.7c0.5,0.9,0.3,0.5,0.7,0.9l0.6,0.6
					c0,0,0.1,0.1,0.1,0.2l6.5,7.8c0,0.1,0.1,0.1,0.1,0.2l0.6,0.9c0.8,1,2.4,2.5,2.8,3.6c0.6,1.6-0.4,11.6-0.4,14.2l0.2,3.5
					c1.5,0.5,7,2.6,8,3.4l-0.2,14.9c-0.8,0.6-1,0.5-1.8,1.1c-0.6,0.4-1,0.8-1.7,1.3c-3.9,3.1-6.7,4.8-8.5,9.8c0.7-0.6-0.1-0.3,1-0.1
					c0.4-0.7,0.7-1.4,1.1-1.9l1.1-1c0.2-0.2,0.2-0.3,0.4-0.5c0.8-0.8,2.2-1.6,3.4-2.4c3.6-2.4,7.1-2.1,8.6-3l0.1-1.1
					c1-3.6,1.4-8.6,2.1-12.5c0.9-5.1,6.1-36.6,5.8-37.3c-0.5-0.5-0.8-0.6-1.4-1.1c-0.9-0.7-0.4-0.4-1.1-1.3
					c-0.7-0.8-1.7-1.6-2.5-2.3c-5.2-4.8-9.2-10.2-12-16.8L-391.9,592.3z"/>
				<path class="st7" d="M-409.2,685.2l0.7,0.2c0.1,0,0.2,0,0.3,0l2.7,0.1c2.1-0.7-3.1-0.6,5.2-1.3c2.6-0.2,4.8-0.1,5.8-1.2v-0.9
					c-0.5-0.6-0.2,0.4-0.5-1.1c-0.1-0.3,0-0.7,0-1.1l-9.5,1.2c-0.4,0.8-1.4,3-1.3,4C-407.3,685.1-407.9,684.9-409.2,685.2z"/>
			</g>
			<g>
				<path class="st8" d="M-216.5,595.9c-6.1,1.1-9,3.1-10.9-4c-1.6-6.1-7.9-41.4-7.6-42.6l3.5-3.9c0.6-0.6,0.8-0.5,1.4-1l3.5-3.8
					c0.7-0.8,0.5-0.8,1.6-1.3c-1.2-1-2.7-3.7-3.6-5c-1.1-1.5-2.3-3.6-3.6-4.6l1.6,5.1l-14.6,5.4l7.6,49.4c-4.1,2.3-26.6,8.3-29,10
					c6.4,0.4,14-0.1,20.7,0c8.7,0.2,13.1-1.4,13.1,7.3c0,5.8-1.9,11.5-3.4,17c-1.4,5.3-3.9,10.3-5.3,15.3l1.1-1.4
					c0.3-0.4,0.5-0.9,0.8-1.3l4.6-8.1c2.1-3.6,4.1-7.2,6.3-10.7l9.3-16.2C-218.7,599.8-217.1,597.6-216.5,595.9z"/>
				<path class="st8" d="M-360.8,678.5c-0.9,0.4-3.4,2.7-4.2,3.4c-0.5,0.5-0.5,0.7-0.9,1.2c-1.2,1.4-5.2,4.2-6.7,6.3
					c-0.7,0.9-2.7,3-3.8,3.4c0.1-2.2,0.1-4.5,0.2-6.7c0-3.8-0.1-2.3,1.4-5.1c1.6-2.9,3.4-5.5,4.8-8.3c-8.7-1.4-16,8.3-12.5,16.7
					c0.5,1.3,1.3,2.6,2,3.2c2.8,2.8,5.9,5.1,11.2,4.3c3.6-0.6,4.8-1.8,6.8-3.5c1-0.9,1.3-1.2,2.2-2.9
					C-358.3,686.7-358.5,681.7-360.8,678.5z"/>
				<path class="st8" d="M-403.3,700.5c1.2-1,8.6-6.2,9.9-6.5l-1.6-4.2c-2.8-0.4-13.7-2.1-15.6-1.8l-4.5,10.3c0.6,0.1,7.9,3.9,8.3,5
					c1.1,2.9-0.6,2.6,1.9,4.7c1.2,1,2.7,1.5,4.9,1.6C-400.9,707.3-403.1,703-403.3,700.5z"/>
			</g>
			<g>
				<path class="st9" d="M-325.3,710.7c-0.1-0.1-1.8,0.6,0-1.2c0.3-0.3,0.7-0.3,1.2-0.7c0.8-0.6,0.2-0.1,0.8-1l7.9-7.6
					c1.4-1.2,0.9-3.6,0.9-6.1c0-9.2,0-18.5,0.1-27.7c-1.3,0.4-1.1,0.7-2,1.7l-29.7,21.3c-0.8-4-1.5-8.5-2.2-12.6
					c-0.5-3.4-1.5-3.6,0.7-5.3c0.9-0.7,1.1-0.8,1.8-1.8c0.7-1,0.9-1.1,1.8-1.8c0.8-0.7,1.4-1.1,2.2-1.8c1.1-0.9,0.9-1,1.7-1.9
					c1.1-1.2,2.8-2.2,4-3.3c0.7-0.7,0.3-0.5,0.9-1.2c1.3-1.6,1.8-0.7,1.7-3.3c0-2.4-0.2-4.9-0.2-7.4l-0.8-0.5c0.4,2.1,0.2,3.1,0,5.1
					c-0.3,4-1.2,2.6-3,5c-0.7,0.9-0.4,0.8-1.2,1.5l-13.3,12.8c-0.6,1.2,3.5,14,3.7,16.6c0.1,1.3-1,2.3-1.7,3.4c-0.7,1.1-1.3,2-2,3.1
					c-1.3,2.1-3,4.3-4,6.4l5.3,5c1.2-0.4,1-0.5,1.8-1.3l3.5-3.7c1.7-1.8,2.9-3.5,5.1-4.9c2.5-1.7,8-8.8,10-10c0.2,6.9,1.7,3.9-1.9,9
					c-0.6,0.9-0.9,1.5-1.5,2.4c-4.2,6.2-12.3,17.6-16,23.5l-1.6,2.3c-0.8,1.1-0.7,1.2-1.3,2.2c1.1-0.7,2-1.6,2.9-2.5
					c1-1,8.8-5.3,10.3-6.1L-325.3,710.7z"/>
				<path class="st9" d="M-309.9,636.5c-2.4,0.4-12.4,4-15.9,5.2c-1,0.3-1.9,0.6-2.7,0.9l-2.5,1.2c2.1,0.5,29.6,14.1,31.2,14.4
					c-0.4,5.6-1.4,11.4-2,17.1c-1.1,9.7-2.5,15.2-4.1,24.2c-0.9,4.8-0.5,5.5-2.5,6.8l-54.5,39.8c1.9-0.4,4.8-2.8,6.7-3.8
					c2.1-1.2,4.4-2.7,6.4-3.9l37.8-23.3c1.9-1.2,4.4-2.8,6.4-3.9c4.6-2.6,4.5-2.2,5.1-5.3c2.1-10.9,5.2-22.9,7.2-33.5
					c1-5.5,2.7-11.3,3.6-16.9l-23.5-11.5c1.9-1.5,6-3.3,8.4-4.6c2.4-1.4,6.4-2.8,8.3-4.5l-7.2-0.6L-309.9,636.5z"/>
				<path class="st9" d="M-216.5,595.9c2.1-3.6,2.3-10.3,2.5-14.8c0.5-16.8-0.8-22-7.8-36c-0.9-1.9-2.7-4.2-3.2-5.8
					c-1.1,0.5-0.9,0.5-1.6,1.3l-3.5,3.8c-0.6,0.5-0.8,0.4-1.4,1l-3.5,3.9c-0.3,1.2,6,36.6,7.6,42.6
					C-225.5,599-222.6,597-216.5,595.9z"/>
				<path class="st9" d="M-382.7,586.7c0.5-0.9,1-1,2-1.2c0.4,1.7,0,3.6,0.6,5.4c1.1,3.2,5.7,6.9,8.5,8.9c0-0.1,0.1-0.2,0.1-0.2
					c0-0.1,0.1-0.2,0.1-0.2l0.5-1.4c2.2-8.2,1.9-6.3-0.9-11.7c-6.5-12.4-11-21.2-7.4-35.5c1.4-5.5-0.5-3.2-2.3-5.5
					c-2.8-0.2-5.2-1.2-7.8-1.8c-1,2.9-3.1,6.7-4.4,10.1c-1.3,3.3-2.9,8.2-3,11.8c-0.1,4.7,2.9,20,4.9,24.2L-382.7,586.7z"/>
				<path class="st9" d="M-366.6,672.2c0.6-1.6,7-11.9,8.4-14.2c1.1-1.8,7.8-13.3,8.6-14c-0.2,1.5-0.6,3-0.9,4.6s-1.1,2.6-1.8,3.6
					l-13.7,19.4C-366.7,672.3-365.6,671.4-366.6,672.2z M-351.1,643c-0.1,1.1-0.5,1.3-1.4,2.8c-0.5,0.9-1,1.8-1.6,2.7l-19.5,32.7
					c-0.5,1.1-0.5,6.7-0.4,8.4c1.7-1.3,4.1-3.4,5.4-5.1c1.9-2.5,4.5-3.4,7-6.7c1.1-1.5,5.7-4.8,7.1-6.6c0.8-1.2,1.7-1.8,2.8-2.7
					l4.1-3.8c0.7-0.9,0.5-0.8,1.3-1.5c1.6-1.5,4.6-3.7,5.7-5.2c2.1-2.8,5.1-4,5.1-5.5l-1.2-7c-0.6-1.6-0.5,0-0.9-1.6
					c0.5-0.8,1.7-1.5,2.4-1.6c0.5-1.1,2.3-1.8,3.3-3c-2.4,0.4-7.3,2.2-9.9,3c-2.6,0.8-2.4,0.8-5,0c-0.7-0.2-1.7-0.6-2.4-0.5
					C-350.3,641.9-350.2,642.4-351.1,643z"/>
				<path class="st9" d="M-383,699.2c-3.1-3.1-6.8-11.6-6.8-17.2c0-2.6,1.1-4.6,2.6-6.5l4.9-4.3c0.8-0.5,2.8-1.8,4.1-2.2
					c-0.5,1-0.2,0.7-1.6,1.7l-4.4,3.8C-390.4,679.4-385.8,693.4-383,699.2z M-360.8,678.5c2.3,3.2,2.5,8.2,0.5,12.1
					c-0.9,1.7-1.2,2.1-2.2,2.9c-2,1.8-3.2,3-6.8,3.5c-5.3,0.9-8.4-1.5-11.2-4.3c-0.7-0.7-1.4-1.9-2-3.2c-3.5-8.4,3.8-18,12.5-16.7
					l4-6.7c-5.1-2.6-15.6,0.2-20.4,6.5c-4.1,5.4-5.7,11.7-3.3,18.6c3.1,9.2,11.9,14.2,21.1,13.2c3.8-0.4,9.4-3.2,11.7-5.7
					c2.9-3.1,4.9-7.7,5.4-12.3c0.4-4.2-1.4-10.9-4-13.3C-357.4,674.5-359.4,676.7-360.8,678.5z"/>
				<path class="st9" d="M-298,487.8l-11.9,29.6l-3.2,0.2c-0.7,1-1,3.3-1.2,4.7l5.3,2.9l-10.8-3c-0.6,1-6.3,15-6,16.3
					c0.3,1.2,2.1,3.6,2.7,5.2c-1.3,0.5-3,1.9-4.2,2.7c-1.6,1-2.6,1.9-4.2,2.9c0.4,0.2-0.4,0.8,2.1-0.4l15.6-5.8v-1l-4.7,0.4
					c-2-4.6-2.5-3.2-0.7-8c0.5-1.4,2.5-7.1,3.3-7.8l3,0.6c1.4-1,3.9-1,5.7-1.2l22.6-59.4c-0.6-1-0.8-0.7-1.6-2.2
					c-0.9,0.3-2.3,1-2.7,1.5C-289.6,466.5-297.5,486.5-298,487.8z"/>
				<path class="st9" d="M-358.4,707l2.7-0.2l2.8,7.1c-2.8,3.7-6.2,7.4-11.3,7.9c-2.9,0.3-6,0.2-9,0c-2.7-0.1-6.4-0.8-8.8-0.7
					c1.6,1.5,9.7,4.9,11.4,5.5c6.6,2.2,9.1,4.6,11.2,5.3c1.3-1.6,2.4-3.2,3.4-4.9c1-1.6,2.2-3.2,3.2-4.6c1.2-1.7,2.2-3.3,3.3-4.9
					l16.2-23.9c-0.7,0.5-0.5,0.5-1.1,1.1l-3,3.3c-1,1.3-1.4,1.2-4.1,4.4c-0.9,1.1-1.4,1.1-2.2,2.1c-1.9,2.2-0.6,1.2-3.1,3.3
					l-2.8,3.6l-4.7-4.9L-358.4,707z"/>
				<path class="st9" d="M-381.7,740.7c-1.6-0.9-1.6-1.3-2.8-2.6c-2.3-2.6-4-3.9-6.6-6.5c-0.4-0.5-0.9-0.7-1.3-1.1
					c-0.6,0.7,0.3,0.2-1,0.4l-13.6-1c1.8,1.9,3.4,2.6,5.9,4.1c6.5,4,4.8,2.9,9.5,7.5c0.5,0.5,0.7,0.8,1.1,1.3c1,1.2,4.5,4.4,6.3,3.5
					C-383,745-381.5,742.9-381.7,740.7z"/>
				<path class="st9" d="M-385.2,732.9c0.7,0.8,0.8,1.1,1.5,2c0.5,0.6,0.8,1,1.3,1.7c0.9,1.1,1.5,2.5,2.4,3.7c0.5,1,1.1,2.1,1.6,3.3
					c0.3,0.6,0.5,1.2,0.7,1.7c0.6,1.3,0.1,0.8,1.1,1.4c0.7-1.9,5-5.6,6.3-7.5l-5-6.1c-0.6-0.7-0.8-0.6-1.4-1.3
					c-0.9-1-2.8-3.5-3.9-4.1c-0.1,1.8-0.1,2.9-1.1,3.9C-382.4,732.3-383.8,733-385.2,732.9z"/>
			</g>
			<g>
				<path class="st10" d="M-362.8,812.1c4.3,2.9,8.8,5.7,13.3,8.5c4.6,2.8,1.9,1.7,7.6,3.3l76.6,21.8c5.7,1.6,11.4,3.3,17,4.8
					c4.4,1.2,13.4,4.7,17.5,3.4c-2-1.2-34.3-12-40.8-14.4c-1.8-0.7-1.8-1.4-2.7-2.8c-1.1-1.8-10.1-15.7-11-16.2
					c-2.9-0.8-33.3-13.7-36.3-15c-1.7-0.8-2.9-1.7-4.8-1.5c-3.7,0.4-12,2.5-15.9,3.3C-348.3,808.7-357.1,810.4-362.8,812.1z"/>
				<path class="st10" d="M-290.9,720.8c-1.2,3.5-7.8,18.2-9.8,22.6c-1.9,4.3-1.2,2.3,3.4,10.1c0.9,1.5,2.2,3.6,3.2,5
					c0.6,0.9,1,1.5,1.5,2.4c0.5,0.8,1.1,2,2,2.5c0.3-0.8,3.8-4.5,4.6-5.4l9.4-11.6c1.3-1.5,2.3-2.9,3.5-4.4l4.4-5.4
					c3.3-4.5,3.2-3.2,4.9-8.5c2.5-7.8,4.8-15.8,7.3-23.7c1.2-3.9,2.4-7.9,3.6-11.8l2.7-8.8c0.6-1.9,1-2.2,0.3-2.8
					c-0.2,1.1-1.3,2.2-1.9,3.2l-14.8,20.7c-3.5,4.7-3.7,6.6-7.4,8.1c-1.2,0.5-2.2,1-3.3,1.5C-279.6,715.5-289.9,719.9-290.9,720.8z"
					/>
				<path class="st10" d="M-413.1,614.2c1.3-0.3,5.1-2.2,7-2.9c2.2-0.8,5.3-2,7.5-2.5c0.1-1.3,4.3-12,5.4-14.7
					c0.9-2.1,0.5-0.3,1.3-1.8c-1.5,0-1.3-0.7-2-1.6c-2.1-2.7-2-1.6-3.2-6.8c-0.8-3.4-1.1-8.8-1.8-11.5l-7.8,1.3l0.5-8.9l7.1-2.4
					l6.1-22.3c-1.9-0.3-10.6-1.1-12.1-0.8c-1.1,0.2-0.9,0-2.1-0.1c0.2,1.3-8.1,32.1-9.1,36.5c-1.8,7.5-2.7,12.5-1.8,20.4
					C-417.6,600.2-415.2,611.3-413.1,614.2z"/>
				<path class="st10" d="M-334.4,648.6l0.8,0.5c-0.1,2.5,0.1,4.9,0.2,7.4c0,2.6-0.4,1.7-1.7,3.3c-0.6,0.7-0.2,0.5-0.9,1.2
					c-1.2,1.2-2.8,2.1-4,3.3c-0.8,0.9-0.6,1.1-1.7,1.9c-0.8,0.7-1.4,1.1-2.2,1.8c-0.9,0.7-1.1,0.8-1.8,1.8c-0.7,1-0.9,1.1-1.8,1.8
					c-2.1,1.7-1.2,1.9-0.7,5.3c0.6,4.1,1.3,8.6,2.2,12.6l29.7-21.3c1-1,0.8-1.3,2-1.7c-0.2,9.2-0.1,18.5-0.1,27.7
					c0,2.5,0.5,4.9-0.9,6.1l-7.9,7.6c-0.6,0.9,0,0.4-0.8,1c-0.5,0.4-0.9,0.3-1.2,0.7c-1.8,1.8-0.1,1.1,0,1.2l11.4-6.6
					c6.7-4,4.6-1.6,6.5-11.5c1.9-10.3,3.8-20.9,5.4-31.2c-1.3-0.3-27.1-12.4-29.1-13.7c-1.3-0.9-1.2-2.2-3.6-2.5L-334.4,648.6z"/>
				<path class="st10" d="M-244.8,682l-4.8,19.2l18,4.7l-1.7-51.4c-0.4-2.1,1.1-4.7,1.9-6.8l12.1-32.3c1.4-3.7,3.9-9.3,4.8-12.8
					l-7.9,14.9c-2.3,5-5.2,9.7-7.7,14.8c-2.5,4.9-5,9.8-7.7,14.8c-0.8,1.5-4.8,10.3-6.1,11l-3.9,1.7l-3.2,15.6
					c1.3,0.6,2,1.5,3.2,2.5l3.3,2.4L-244.8,682z"/>
				<path class="st10" d="M-422.6,637.7l-3.4-0.4l0.8,6.1c0.8,0.2,4.1,2.2,4.6,2.7c1.4,1.5,10.1,37.9,11.4,39.2
					c1.4-0.3,1.9-0.1,3.3,0c-0.1-1,0.9-3.1,1.3-4l9.5-1.2c0,0.4-0.1,0.8,0,1.1c0.3,1.5,0,0.5,0.5,1.1c0.2-2.8,2-10.3,3.9-11.1
					c-1.1-0.2-0.3-0.6-1,0.1c1.8-5,4.6-6.7,8.5-9.8c0.7-0.5,1.1-0.9,1.7-1.3c0.8-0.6,1-0.5,1.8-1.1l0.2-14.9c-1-0.8-6.5-2.9-8-3.4
					l-0.2-3.5c0,2.9,0.1,2.7-1.2,4.7c-1.5,2.2-6.1,8.6-8,10.2c-5.1,4.3-12,5.6-19,3.8C-418.4,647-421.8,642.4-422.6,637.7z"/>
				<path class="st10" d="M-245.1,518.1c1,0,2.5-0.6,3.6-1c0.9-0.3,3-0.9,3.6-1.6c-0.3-0.3-1.5-1.2-2-1.7c-0.7-0.6-1.5-1.1-2.2-1.7
					l-8.5-6.7c-6.8-5.7-17.2-9.1-25.5-12.4c-0.5,1.3-10.6,32.8-10.7,34.2L-245.1,518.1z"/>
				<path class="st10" d="M-288.6,772.4l2,10.5c1.3-0.7,2.3-2.7,3.5-3.8c2.2-2,1-0.6,3.5-3.5c2.4-2.8,2.7-2.5,3.6-3.7
					c3.4-4,3.9-4,6.8-7.5c0.7-0.8,1-1.3,1.8-1.9c2.4-1.9,2.7-3.5,5-5.3c1.4-1.1,2.2-2.3,3.3-3.7c1.4-1.6,1.5-1.1,3.6-3.7
					c1.6-1.9,6.3-6.5,6.6-7.4c0.3-1-0.9-33.1-1.1-33.8l-10,28.8c-0.8,2.6-1.2,2.3-2.4,4l-16.8,19.9c-0.6,0.7-0.2,0.2-0.7,0.8
					L-288.6,772.4z"/>
				<path class="st10" d="M-382,721.1c2.5-0.1,6.1,0.6,8.8,0.7c2.9,0.1,6.1,0.3,9,0c5.1-0.6,8.5-4.2,11.3-7.9l-2.8-7.1l-2.7,0.2
					c-1.4-0.1-2.9,0.7-4.3,1.2l1.6,8.6c-0.7-2.2-2.6-5.5-3.5-8.1c-11.3,0.5-11.6,0.4-20.9-5c-1.4,1.1-2.5,1.6-3.8,2.5l2.7-3.4
					l-5.9-7.3c-3.1,1.6-6.1,4-9.1,5.4c0.8,3,3.5,7.5,5.6,9.7c0.8,0.9,1.3,1.7,2.3,2.6C-391.2,715.6-384.4,720.7-382,721.1z"/>
				<path class="st10" d="M-410.7,536.5c2.2-1,12.7-2,15.7-2.2c3.9-0.2,13.7,0.7,15.3-2.8c0.8-1.7-1.2-5.5-2-7.2
					c-0.5-0.5-6-3.3-7.1-3.8c-3.2-1.4-5.1-2.2-8.9-2.7l-0.7-0.2c-0.4,1.2-6.6,9.2-8.1,11.3c-0.6,0.8-1,1.4-1.7,2.3
					c-1,1.3-2.3,3.2-3.1,4.8L-410.7,536.5z"/>
				<path class="st10" d="M-385.8,516.7c2.7,0.6,5.2,2.5,7.4,3c2.4,0.5,12.6,2.6,14.1,1.5c1.9-1.6-0.4-7.9-1.1-10.2
					c-2.4-2.6-7.4-6.1-9.9-8.4c-0.8-0.7-0.8-0.7-1.6-1.3c-1,0.1-3.5,2.4-4.6,3.2l-11.1,8.7c-0.7,0.5-1.7,1.2-2.2,1.9
					C-391.6,515.4-389,516.1-385.8,516.7z"/>
				<path class="st10" d="M-371.4,500.2c2.2,0.1,5,3.4,6.5,4.2c3.6,1.8,7.5,4.4,11.9,4.9c2.5,0.3,4.9,0.1,6.9-1s1.7-3.8,1.7-6.7
					c-0.5-3-4.3-7.9-4.7-10.4c-2.2,0.3-9,3.3-11.5,4.2c-1.8,0.7-3.7,1.4-5.5,2.1C-367.8,498.3-370.7,499-371.4,500.2z"/>
				<path class="st10" d="M-329.7,774c1.6,0.3,0.4,0.5,2.7,2.4l8.1,7.4c0.8,1.1,1.7,1.6,2.7,2.5c0.5,0.4,1,0.8,1.5,1.3
					c2.6,3,0.9,1.1,3.9,3.7c1.2,1.1,0.7,1.1,2.4,2.5c3.8,3.1,3.2,3.1,5.4,4.9c3.1,2.5,2.3,2.4,5.2,4.8c2.6,2.1,1.3,1.3,2.6,2.6
					c1.2,1.3,3.2,2.3,4.2,3.7c1,1.3,2.4,2.4,3.7,3.4l-12-16.4c-0.7-1-1.4-2-2.1-2.8l-16.6-22.2c-0.3-0.5-0.7-1-1-1.4
					c-0.1-0.1-0.5-0.6-0.5-0.7l-0.7-0.6c-1.5,0.7-3.1,1.5-4.7,2.3l-3.6,1.6C-330.2,773.7-329.2,772.9-329.7,774z"/>
				<path class="st10" d="M-408.1,718.3c1.7,0.2,10.4,5.5,12.2,6.6c2,1.2,4.1,2.6,5.6,3.8c0.7,0.6,0.8,0.6,1.4,1
					c2,1.5,2.8,2.9,3.7,3.2c1.4,0.1,2.8-0.6,3.6-1.4c1.1-1,1.1-2.2,1.1-3.9c-0.6-1.6-4.1-4.8-5.5-6c-0.6-0.5-1.1-0.8-1.7-1.3
					c-4.6-4-16.8-10.9-20.1-11.1l-2.9,7.4C-409.7,717.3-408.8,717.4-408.1,718.3z"/>
				<path class="st10" d="M-324.7,489c-1.1,0.5-20,2.2-21.1,1.8c0.2,1,3.4,6.9,4.2,7.4c3,1.7,7.8,3.3,11.3,4c9.1,1.9,6-2.4,9.3-4.8
					l0.8-8.5C-321.7,489-323.4,489.3-324.7,489z"/>
				<path class="st10" d="M-315.3,492.2c-0.1,2.6-0.4,2.3,0.2,5.1l1.8,9.1c0.3,1.1,0.4,1.1,0.9,1.8c1.1,1.3,1,1.2,2,1.5
					c0.5-1.5,1-2.1,2.4-2.9c1-3.2,5.6-12.5,5.9-15.4l-13-2.1L-315.3,492.2z"/>
				<path class="st10" d="M-359.5,740.4c1.1-0.4,0.7-0.4,2.4-1.8l8.5-7c1-0.8,1.2-0.9,2.2-1.8c0.5-0.5,1.5-1.3,2.2-1.8l18.6-15.2
					c0.6-0.6,0,0.2,0.5-0.7l-19.9,11.4c-6.7,3.8-5.4,2.6-8.4,7.1L-359.5,740.4z"/>
				<path class="st10" d="M-407,730l13.6,1c1.2-0.1,0.4,0.3,1-0.4l-7.5-5.6c-2.6-1.6-5.1-2.8-8.2-4.3l-1.7-0.4
					c-0.5,2.5-1.3,3.2-0.2,6.2C-409.5,728.2-408.4,729.4-407,730z"/>
			</g>
			<g>
				<path class="st0" d="M-350.6,597.7c0.8-6.3,1.5-25.8,1.9-27.7c0.8,0.6,8.2,21.3,9.2,24.1C-342.2,594.4-347.5,596.9-350.6,597.7z
					 M-291.8,562.1c0.6,3.7,1.6,7.1,2.4,10.7c0.5,2.2,2.5,8.6,2.6,10.3l-26.1-38l-14.2,5l6.7,50.4l-20.7-45.6
					c-2.3,0.6-16.7,5.5-17.9,6.3l-10.7,70.9l16.4-5.6l1.5-15.9l16.5-5.7l5.1,13.5l25.8-9.1l-3.1-23.1c-1-6.6-4.6-18.9-4.9-21.2
					c1.1,0.6,0.9,0.8,1.9,2.6l7.6,12.4l16.6,23.1l14.1-4.8l-8.6-64.4l-14.1,5L-291.8,562.1z"/>
				<path class="st0" d="M-280.6,534c-0.3,2.9,1.4,9.6,1.6,13.1c2.8-0.2,11.6-4.1,15.1-5l7.2,50.8l14.5-4.9c0.6-2-6.7-46-6.7-51.1
					l15-5.2l-1.8-13.1L-280.6,534z"/>
				<path class="st0" d="M-303.7,634.3l7.2,0.6c-1.9,1.7-5.8,3.1-8.3,4.5c-2.4,1.3-6.5,3.1-8.4,4.6l23.5,11.5
					c-0.9,5.6-2.6,11.4-3.6,16.9c-2,10.6-5.1,22.6-7.2,33.5c-0.6,3.1-0.5,2.7-5.1,5.3c-2,1.1-4.5,2.7-6.4,3.9l-37.8,23.3
					c-2,1.2-4.3,2.7-6.4,3.9c-1.9,1.1-4.8,3.4-6.7,3.8l-0.7,0.5c0,0.1-0.1,0.1-0.1,0.2l-0.2,0.4c-0.1,0.7-0.6,0,0.1,0.6l26.9-12.8
					c2.5-1.1,4.3-2.3,6.6-3.4c2-0.9,4.6-2.3,6.5-3.5c1.7-1,12.2-6.7,13.3-6.8c0.5-0.7,6.7-4,8.1-4.7c6.2-3.2,5.4-2.4,6.6-6.2
					l18-57.6l-7.4-5.9c-0.8-0.7-1-0.8-1.8-1.5l-1.8-1.5c-1.2-1-2.5-1.9-3.5-3c1.6-0.8,3.7-2,5.4-3c1.7-1.1,3.4-1.9,5.2-3l10.5-6.2
					c3.6-2,7-4.1,10.5-6.2c1.7-1,9.2-5.1,10.3-6.2L-303.7,634.3z"/>
				<path class="st0" d="M-415.3,538.9l-4.6,9.1c-5.2,10.2-8.5,19.7-8.9,31.5c-0.5,17-0.2,23,1,39.1c0.3,3.7,1.2,9,1.2,12.4
					c0.3-0.3,0.1,0,0.5-0.6l0.7-2.1c0.9-3.3,1.7-4.3,2.9-7.4c3.8-10.2-1.7-21.2-0.3-37.6c1-11.7,4.2-22.4,8.3-33.4
					c2.2-5.9,2.9-7,1.2-11.1l2.1-0.2c-0.6-0.1-1.7-0.2-2.3-0.2c-1.2,0-0.3-0.1-1.1,0.2C-415.5,538.9-414.4,538.7-415.3,538.9z"/>
				<path class="st0" d="M-212.8,646c-0.4,1.7-2.3,7.9-2.1,9.2l15.4,42c1.7-3.8-8.2-69-8.6-69.5L-212.8,646z"/>
				<path class="st0" d="M-211.9,561.3c1.1-12.7,2.6-14.6-3.3-26.2c-1.9-3.6-3.9-6.8-6-9.8c-0.4-0.6-1.2-1.6-1.7-2.3l-5.8-6.4
					c-0.7-0.9-1.3-1-2.1-1.9l-2.9-2.9c-0.5-0.5-0.5-0.7-0.9-1.2c-2-2.1-8.9-6.9-11.6-8.5c-5-2.9-23.8-7.9-29.9-9.1
					c0.1,0.1,21.2,7,26.9,11.2c1.7,1.3,9.3,7,10.6,8.8c0.6,0.8,1.2,1.3,1.9,2c0.4,0.4,0.5,0.5,0.9,0.9c2.5,1.9,1.3,1.6,2.9,3.2
					c4.8,4.8,9.1,13.3,11.9,19.4l6.8,16.6C-213.7,556.7-212.8,560.3-211.9,561.3z"/>
				<path class="st0" d="M-434,580l0.7,1.2l3.1-16.5c2.8-12.5,5.5-19.8,12.4-29.3c1.4-1.9,2.8-3.9,4.3-6c0.8-1.1,3.8-6.1,3.8-6.1
					c-0.8,0-4.1,0.2-9.9,7.7c-0.3,0.4-0.8,1.2-1.1,1.6C-429.5,546.3-434.1,563.5-434,580z"/>
				<path class="st0" d="M-318.2,541c1.3-0.6,1.3-0.9,3.2-2.4c1.4-1.1,3.2-6.6,3.3-7.1c0.1-0.9-0.9-2-1.9-3.3l-1.9-0.6
					c-1,1.1-2.1,4.9-2.7,6.5C-320.5,539.6-319.1,536.4-318.2,541z"/>
			</g>
			<path class="st11" d="M-193.4,756.3c-1.2-2.7-2.2-5.7-3.3-8.5c-0.5-1.4-1.1-2.8-1.6-4.2c-1-2.6-0.3-2.1-2.4-3.3
				c-2.5-1.5-5-3-7.4-4.5l-21.7-13.2c-2.1-1.3-13.6-8-14.4-8.9c-0.9-0.2-0.6,0-0.3,1.4l6.5,35.6c0,0,0,0.2,0,0.3l-17.6,14.6
				c-0.8,0.7-2.1,1.7-3,2.5l-26.2,21.7l12,33.4c0.7,2,3,10,4.4,10.7l21.8,8.6c3.7,1.5,19.5,7.9,21.8,8.6l41.2-68.2
				c0.2-1.1-4-11.3-4.7-13.3C-190,765.1-191.8,760.7-193.4,756.3z"/>
			<path class="st11" d="M-367.8,729.9c3,1.5,5.3,1.2,4.5,5.1c-1.2,0.7-3.6,1.6-5.2,1.9c-1-0.8-1.7-1.8-2.6-2.8
				c-2.3-2.6-2.2-1.5-2.7-2.9c-1-0.5-3.2-3.2-4-4.2L-367.8,729.9z M-359.5,740.4l6-9.6c3-4.5,1.7-3.3,8.4-7.1l19.9-11.4
				c-0.5,0.8,0,0.1-0.5,0.7l-18.6,15.2c-0.7,0.5-1.6,1.3-2.2,1.8c-1,0.8-1.2,0.9-2.2,1.8l-8.5,7C-358.8,740-358.4,740-359.5,740.4z
				 M-382,721.1c-2.4-0.4-9.2-5.5-11.7-7.8c-1-0.9-1.5-1.7-2.3-2.6c-2.2-2.3-4.8-6.7-5.6-9.7c3-1.5,6-3.9,9.1-5.4l5.9,7.3l-2.7,3.4
				c1.3-0.9,2.5-1.5,3.8-2.5c9.4,5.4,9.6,5.5,20.9,5c0.9,2.7,2.8,5.9,3.5,8.1l-1.6-8.6c1.4-0.5,2.9-1.3,4.3-1.2l4.2-0.6l4.7,4.9
				l2.8-3.6c2.5-2.1,1.1-1.1,3.1-3.3c0.8-0.9,1.3-1,2.2-2.1c2.6-3.2,3.1-3.2,4.1-4.4l3-3.3c0.6-0.5,0.4-0.6,1.1-1.1l-16.2,23.9
				c-1.2,1.6-2.1,3.2-3.3,4.9c-1,1.5-2.2,3-3.2,4.6c-1,1.7-2.1,3.3-3.4,4.9c-2.1-0.6-4.6-3-11.2-5.3
				C-372.3,726-380.4,722.6-382,721.1z M-403.3,700.5c0.2,2.5,2.4,6.8,3.3,9c-2.1-0.1-3.7-0.5-4.9-1.6c-2.5-2.2-0.9-1.8-1.9-4.7
				c-0.4-1.1-7.7-4.9-8.3-5l4.5-10.3c1.8-0.4,12.8,1.4,15.6,1.8l1.6,4.2C-394.7,694.3-402.1,699.5-403.3,700.5z M-370,672.8
				c-1.4,2.9-3.3,5.5-4.8,8.3s-1.4,1.2-1.4,5.1c0,2.2-0.1,4.5-0.2,6.7c1.1-0.4,3.2-2.5,3.8-3.4c1.5-2.1,5.5-4.9,6.7-6.3
				c0.4-0.5,0.4-0.7,0.9-1.2c0.7-0.8,3.3-3.1,4.2-3.4c1.3-1.8,3.4-4,5.3-5.3c2.6,2.4,4.4,9.1,4,13.3c-0.4,4.5-2.5,9.1-5.4,12.3
				c-2.3,2.5-7.9,5.3-11.7,5.7c-9.2,1-18-4-21.1-13.2c-2.3-6.9-0.7-13.2,3.3-18.6c4.7-6.3,15.3-9.1,20.4-6.5L-370,672.8z
				 M-325.3,710.7l-13.9,7.9c-1.5,0.8-9.3,5.2-10.3,6.1c-0.9,0.9-1.8,1.8-2.9,2.5c0.6-1,0.5-1.2,1.3-2.2l1.6-2.3
				c3.7-5.9,11.8-17.3,16-23.5c0.6-1,0.9-1.6,1.5-2.4c3.5-5.1,2-2.1,1.9-9c-2,1.2-7.5,8.3-10,10c-2.1,1.5-3.4,3.2-5.1,4.9l-3.5,3.7
				c-0.8,0.9-0.6,0.9-1.8,1.3l-5.3-5c1-2.1,2.7-4.3,4-6.4c0.8-1.2,1.3-2.1,2-3.1c0.7-1.1,1.8-2.1,1.7-3.4
				c-0.3-2.6-4.3-15.4-3.7-16.6l13.3-12.8c0.8-0.8,0.5-0.6,1.2-1.5c1.8-2.5,2.7-1.1,3-5c0.2-2,0.3-3,0-5.1l-0.2-3.4
				c2.4,0.3,2.3,1.7,3.6,2.5c2,1.3,27.8,13.4,28.9,13.6c-1.6,10.3-3.5,20.9-5.4,31.2c-1.8,9.9,0.3,7.5-6.5,11.5L-325.3,710.7z
				 M-335.3,642.1c-0.8,0.1-2,0.9-2.4,1.6c0.4,1.6,0.4,0,0.9,1.6l1.2,7c0,1.6-3,2.7-5.1,5.5c-1.1,1.6-4.1,3.8-5.7,5.2
				c-0.8,0.7-0.6,0.5-1.3,1.5l-4.1,3.8c-1.1,0.9-1.9,1.5-2.8,2.7c-1.3,1.8-5.9,5.1-7.1,6.6c-2.5,3.3-5.1,4.2-7,6.7
				c-1.3,1.7-3.7,3.9-5.4,5.1c-0.1-1.6-0.1-7.3,0.4-8.4l19.5-32.7c0.5-0.9,1.1-1.8,1.6-2.7c0.9-1.6,1.3-1.7,1.4-2.8
				c-0.7-0.5-0.3-0.3-0.8,0.4l-6.3,5.3c-2.7,2.2-6.3,2.2-9.8,3.6c-0.9,3,0.1,3.6-1.4,5.2l-5.9,4.7c-0.3-1.1-0.3-0.6-0.6-1l-0.1,1.1
				c-1.5,0.9-5,0.6-8.6,3c-1.2,0.8-2.6,1.6-3.4,2.4c-0.2,0.2-0.2,0.3-0.4,0.5l-1.1,1c-0.5,0.5-0.7,1.1-1.1,1.9
				c-1.9,0.8-3.7,8.3-3.9,11.1v0.9c0.5,1,0.3,3.1-0.1,4.4c-2.8,0-6.3-0.4-9.1-0.6c-7.4-0.7-6.6-1.3-10.1,2.9l-4.4,9.7l10.5,5.4
				l0.1,4.3c3.3,0.2,15.5,7.1,20.1,11.1c0.6,0.5,1.1,0.8,1.7,1.3c1.4,1.2,4.8,4.4,5.5,6c1.1,0.6,3,3.1,3.9,4.1
				c0.6,0.8,0.8,0.6,1.4,1.3l5,6.1c-1.3,1.9-5.6,5.6-6.3,7.5c1.2-0.2,0.5-0.2,2.6-1.7c1.5-1.1,6-4.8,7.2-5.2l-1.9,7.5
				c0.2-0.4,1.1-1.9,1.4-2.6c0.5-0.9,1-1.8,1.5-2.5c0.7-0.9,2.9-3.9,3.8-4.2c-0.3,2-2.1,7.1-1.7,8.7l0.7-0.5l54.5-39.8
				c2-1.4,1.7-2,2.5-6.8c1.6-9,3-14.5,4.1-24.2c0.6-5.6,1.6-11.4,2-17.1c-1.7-0.3-29.1-13.9-31.2-14.4l2.4-1.2
				c0.9-0.3,1.7-0.6,2.7-0.9c3.5-1.2,13.5-4.8,15.9-5.2c-0.6-0.8-0.9-1.3-1.4-2.2c1.7-1.2,25.7-9.7,29.9-11.3
				c5-1.9,9.8-3.7,14.8-5.5c2.6-1,13.2-4.6,14.8-5.6c1-2.1,1.9-6.9,1-9c-1.2-0.2-69,17.4-69.7,18.1c-1.6,3.2-3.3,9.7-4.6,13.5
				c-0.4,1.2-0.7,2.3-1.1,3.4c-0.6,1.9-0.6,1.4-2.5,2.1C-330.3,640.6-334.1,642.1-335.3,642.1z"/>
			<path class="st11" d="M-305.7,727.2c1.8-0.4,5.5-2.3,7.3-3.2c-0.5-1-0.2-2.8,1.6-3.7L-275,709l20-29.5c-0.9-0.3-3.1-1.7-3.8-2.2
				l3.5-20.3c0.4-1,0.4-0.7,1.1-1.3l4.2-4.9c2.4-3.2,1.8-1.1,2.4-4.5c0.2-1.3,0.5-2.6,0.7-3.9c0.5-2.6,0.9-5.1,1.4-7.7
				c1-5.1,1.7-11,3-16l-42.1,25.5c0-0.1-0.1,0.1-0.2,0.1l10.6,8.9c-0.9,4.6-3.5,11-4.9,15.7c-1.7,5.7-14.3,43.7-14.4,45.8
				c-1.5,0.2-5.9,3-7.4,3.9c-2.4,1.3-4.8,2.8-7,4.1C-305.7,728-306.9,727.8-305.7,727.2z"/>
			<path class="st11" d="M-371.1,573.3l9.5-22c0.7,0.8,1.3,4.3,1.7,5.7c2.2-0.3,6.9-1.8,9.2-2.5c3.1-0.9,6.4-1.8,9.5-2.6
				c4.4-1.1,5-2.3,8.5-5.1l5.9-4.6c-1.7-5-2.7,0.8,0.9-12.2c1.2-4.3,2.6-8.5,3.7-12.8c-9.6,1.3-23.3,5.3-30.6,11.9
				c-0.8,0.7-1.1,0.8-1.9,1.4c-1.6,1.2-2,2-3.2,3.5c-4.4,5.3-6.8,10.6-9,17.3C-368.4,556.1-371.4,568.9-371.1,573.3z"/>
			<path class="st11" d="M-363.9,747.9c0,0.1-0.1,0.2-0.2,0.2l-0.5,1.2l22.3-7l2.7,7.8l34.1,3.2l-0.1-3.9l-31.1-2.7l-0.6-1.9
				c-0.2-0.9-0.4-1.8-0.6-2.6l3.2-1.6c1.1-0.5,2-1,3.1-1.4l19.2-8.8l-0.4-0.6c-0.2-0.4,0,0-0.4-0.6c-0.9-1.5-1.5-2.4-1.7-3.9
				c1.6-0.9,1.2-0.6,2.2-2c1.6-2.2,3-1.3,1.8-1.8c-1.1,0.1-11.5,5.8-13.3,6.8c-2,1.2-4.6,2.5-6.5,3.5c-2.3,1.1-4.1,2.3-6.6,3.4
				L-363.9,747.9z"/>
			<path class="st1" d="M-371.1,573.3c-0.3-4.4,2.7-17.2,4.3-21.8c2.3-6.7,4.7-12,9-17.3c1.2-1.5,1.6-2.3,3.2-3.5
				c0.8-0.6,1.1-0.7,1.9-1.4c7.3-6.6,21-10.6,30.6-11.9c-1.1,4.2-2.5,8.5-3.7,12.8c-3.6,13-2.6,7.2-0.9,12.2l-5.9,4.6
				c-3.6,2.8-4.2,4-8.5,5.1c-3.1,0.8-6.4,1.7-9.5,2.6c-2.3,0.7-7.1,2.2-9.2,2.5c-0.4-1.4-1-4.9-1.7-5.7L-371.1,573.3z"/>
			<path class="st1" d="M-382.7,586.7l-9.1,2.8c-2-4.2-5-19.5-4.9-24.2c0.1-3.6,1.7-8.5,3-11.8c1.3-3.4,3.3-7.2,4.4-10.1
				c2.6,0.5,5,1.6,7.8,1.8c6.9-0.1,6-2.2,11.1-4.2c-2.2,6.8-4,14.7-4.5,21.9c-0.5,6.9,2.1,12.1,5.4,17.8l1.7,1.9
				c0.1-3.2,1.9-8.9,2.6-12.3c0.2-0.9,2.3-11.3,3-12.1l-6.6,49.4l-0.6-0.5c-0.1,0-0.1-0.1-0.2-0.2l-9.6-11.1
				C-383.8,590-381.2,588.6-382.7,586.7z"/>
			<path class="st1" d="M-331.1,636.9l-4.1,1.2c-0.1-0.4-3.3-9-3.4-9.3c-0.2,2.2-0.2,9.8-1.9,10.9l-6.3,2l-0.4-3.2
				c-0.7,0.1-3.4,0.9-4,1.2c-1.3,0.6-1.2,2.2-1.8,3.4s-6,2.8-7.5,2.9l1.9-10.2c-0.8,1.6-1.7,3.7-2.6,5.5c-1,2-1.4,4.3-3.7,4.8
				l-2-7.7l-1.3,10.1l-3.7,1.1l2.4-15.9l4.2-1.3l1.8,8.3c0.4-0.4,0.1,0.1,0.6-0.8l2.9-6.3c2.2-4.3,0.6-3.2,5.8-4.7l-1.5,9
				c-0.1,0.5-0.3,1.1-0.3,1.6l0.1,1.4c1.1-3,2.7-6,3.9-9c0.3-0.7,1.7-4,2.1-4.3c0.7-0.6,4-1.6,4.8-1.5l1.7,10.5
				c0.9-1.6,1.8-9.5,2.1-12l3.9-1.1c0.9,2.1,2.9,8,3.7,9.1c0.1-1.9,0.1-3.6,0.4-5.5c0.2-1.5,0.8-3.8,0.8-5.3l3.8-1.1L-331.1,636.9z"
				/>
			<path class="st1" d="M-350.6,597.7c3.1-0.8,8.4-3.3,11.1-3.6c-1-2.8-8.4-23.6-9.2-24.1C-349.1,571.9-349.8,591.3-350.6,597.7z"/>
			<path class="st12" d="M-245.1,518.1l-41.6,9.1c0.1-1.3,10.2-32.8,10.7-34.2l-11.3-3.3c-1.7,2.8-5.2,14.3-6.7,18.2l-13,36.4
				c0.1,0.8,0.6,1.2,1.2,1.7l4.6,4.8c1.1,1.1,2.1,1.9,3.2,2.9c1.3,1.2,1.1,2,3.1,3l-4.6-18.4c5-2.3,33.1-12.1,40.7-14.9
				c2.3-0.8,4.6-1.7,6.9-2.5C-250.6,520.4-246.1,519-245.1,518.1z"/>
			<path class="st13" d="M-185,711.8c-1.1,3.6-1.4,3.1,0,6.6c0.8,1.9,1.5,4.7,2.8,6.1c-0.1-2.7-0.4-5.2-0.4-7.9
				c0-3.3,0.6-4.2,1.3-7.2c1.3-5.3,2.1-9.4,2.1-15c0-17.4-12.6-34.9-2.1-57.7c2.7-5.8,14-24.8,18.2-32.5c2.1-3.8,4-7.1,5.9-11.1
				c4.5-9.3,6.7-17.3-2.1-24.3c-8.8-7-26.9-10.6-38.8-11.8c-4.6-0.5-6.9-0.5-9.2-3.7c-0.7-1-1.4-1.4-1.8-2.6l-1.1,9.8
				c8.5-0.8,20.2,0.4,28.4,2.2c3.8,0.8,8.3,2.3,11.7,3.8c1.8,0.8,3.3,1.7,4.9,2.7c2,1.2,3.1,1.9,4.4,3.4c1.9,2.2,5.7,5.2,5.2,10.4
				c-0.3,2.7-3.7,8.3-4.9,10.7c-2.5,4.9-8.2,14.3-11.2,19.8c-1.9,3.3-3.6,6.6-5.6,9.9c-1.8,3.1-3.4,6.9-5.2,10.3
				c-4.4,8.5-6.2,15.4-5.3,25.6c0.8,8.8,2.8,17.4,4.8,26C-180.4,696.2-182.7,701.5-185,711.8z"/>
			<path class="st14" d="M-347.9,630.1l0.4,5.7l-2.9,0.8L-347.9,630.1z M-328.7,621l-3.8,1.1c0,1.5-0.6,3.8-0.8,5.3
				c-0.3,1.9-0.2,3.6-0.4,5.5c-0.8-1.2-2.7-7-3.7-9.1l-3.9,1.1c-0.3,2.5-1.2,10.4-2.1,12l-1.7-10.5c-0.8-0.1-4.1,0.9-4.8,1.5
				c-0.4,0.3-1.7,3.6-2.1,4.3c-1.3,3-2.9,5.9-3.9,9l-0.1-1.4c0.1-0.4,0.2-1.1,0.3-1.6l1.5-9c-5.2,1.5-3.6,0.4-5.8,4.7l-2.9,6.3
				c-0.5,0.9-0.2,0.4-0.6,0.8l-1.8-8.3l-4.2,1.3l-2.4,15.9l3.7-1.1l1.3-10.1l2,7.7c2.2-0.6,2.7-2.8,3.7-4.8c0.9-1.8,1.9-3.9,2.6-5.5
				l-1.9,10.2c1.5-0.2,6.9-1.7,7.5-2.9s0.5-2.7,1.8-3.4c0.6-0.3,3.3-1.1,4-1.2l0.4,3.2l6.3-2c1.7-1,1.7-8.7,1.9-10.9
				c0.2,0.3,3.3,8.8,3.4,9.3l4.1-1.2L-328.7,621z"/>
			<path class="st15" d="M-411.6,636.1c1,2.7,1.1,5.3,3.3,6.8c1.9,1.3,3.9,2.6,5.8,4.1l-6.4-2.3C-412,643.4-413,638.8-411.6,636.1z
				 M-397.6,620.8c1.4,0.5,2.7,1.6,3.8,2.5c2.5,1.9,2,1.8,1.8,3.7c-2.9-0.4-6.6-2.6-9.3-1.5c-2.5,1-5.1,2.7-7.8,3.2L-397.6,620.8z
				 M-401.8,649.5c1-0.3,0.8-0.4,1.5-1l6.1-6.1c4.1-3.2,3.1-6.9,3.4-11.1c0.4-5,1-5.3-0.8-8c-2.3-0.7-3.7-2.7-5.8-3.2
				c-0.7,0.5-1.4,1.1-2.2,1.6l-6.7,4.3c-1.5,1-3,2.1-4.5,3.1c-2.2,1.4-1.8,2.1-2.4,4.9c-0.4,2-1.5,4.4-0.8,6.1
				c0.8,2,1.8,3.5,2.9,4.4C-409.3,645.8-404.8,648.9-401.8,649.5z"/>
			<path class="st16" d="M-381.5,545.2c1.9,2.3,3.7,0,2.3,5.5c-3.6,14.3,0.9,23.1,7.4,35.5c2.8,5.4,3.1,3.5,0.9,11.7l-0.5,1.4
				c0,0.1-0.1,0.2-0.1,0.2c0,0.1-0.1,0.1-0.1,0.2c-2.8-2-7.4-5.7-8.5-8.9c-0.6-1.7-0.2-3.7-0.6-5.4c-1.1,0.3-1.6,0.3-2,1.2
				c1.5,1.9-1.1,3.2,3.4,9.2l9.6,11.1c0.1,0.1,0.1,0.1,0.2,0.2l0.6,0.5l6.6-49.4c-0.7,0.8-2.8,11.1-3,12.1
				c-0.7,3.4-2.5,9.1-2.6,12.3l-1.7-1.9c-3.2-5.8-5.8-10.9-5.4-17.8c0.5-7.2,2.4-15.1,4.5-21.9C-375.5,543-374.7,545.1-381.5,545.2z
				"/>
			<path class="st17" d="M-426.7,630.9l0.7,6.3l3.4,0.4c-0.7-5.3,1.4-16,5.9-20.6c0.8-0.8,1.5-1.5,2.2-1.6v-0.3
				c-1.5-0.7-3.2-6.9-3.5-8.2c-4.2-17.1,0.1-34.1,4.8-50.6c0.8-3,4.5-15.8,5.7-17.6l-3.8-0.3l-2.1,0.2c1.7,4,1,5.1-1.2,11.1
				c-4.1,11-7.3,21.6-8.3,33.4c-1.4,16.4,4.1,27.4,0.3,37.6c-1.2,3.1-2,4.1-2.9,7.4l-0.7,2.1C-426.5,630.9-426.4,630.7-426.7,630.9z
				"/>
			<path class="st18" d="M-280.8,461c-0.7,0.9-4.4,2.7-5.5,3.4c0.8,1.5,1.1,1.2,1.6,2.2l-22.6,59.4c-1.8,0.2-4.3,0.2-5.7,1.2
				l6.1,1.7c-0.3,2.2-3.9,10.4-5,13l-2,0.2v1l-15.6,5.8c-2.5,1.1-1.7,0.6-2.1,0.4c-1.1,0.7-2.1,1.7-3.2,2.5
				c8.1-1.8,17.1-6.8,25.8-7.9c1.1-1.9,2.6-6.7,3.5-9c2.8-7.5,3-6.1,0.9-8.7l25.6-65.8L-280.8,461z"/>
			<path class="st19" d="M-413.1,614.2v0.3c0.8,0.3,1.2,0.8,2,1.3s0.1,0,0.9,0.6c0.7,0.6,0.2,0.1,0.6,0.7c1.3-0.1,1.1-0.5,2.5-1.3
				l7.6-4.3c2.6,2.8,6.4,8,9.1,11.2c0.6,0.7,1.1,1,1.3,1.9c0.3,1.3-0.5,9.4-0.5,11.5c-0.1,4.1,0.6,2.7-4.3,7.4
				c-1.8,1.8-6.8,7.5-9.2,8.1c-1.7,0.4-3.6,0.4-5.3-0.1c-1.6-0.5-2.6-1.3-3.7-2c-0.6-0.5-1.1-0.9-1.7-1.3l-4.4-4.4
				c-1.1-1.5-0.9-3.5-0.6-5.5l-3.7-0.5c0.8,4.7,4.3,9.4,6.7,18.2c7,1.8,13.9,0.6,19-3.8c1.9-1.6,6.6-8,8-10.2c1.3-2,1.2-1.8,1.2-4.7
				c0.1-2.7,1-12.7,0.4-14.2c-0.4-1.1-2-2.6-2.8-3.6l-0.6-0.9c0-0.1-0.1-0.1-0.1-0.2l-6.5-7.8c0,0-0.1-0.1-0.1-0.2l-0.6-0.6
				c-0.4-0.4-0.2,0-0.7-0.9c-2.1,0.5-5.3,1.7-7.5,2.5C-408,612-411.8,613.9-413.1,614.2z"/>
			<path class="st20" d="M-401.8,649.5c-3-0.6-7.5-3.6-9.4-5.1c-1.1-0.9-2.2-2.4-2.9-4.4c-0.6-1.7,0.4-4.1,0.8-6.1
				c0.6-2.8,0.2-3.5,2.4-4.9c1.5-0.9,3-2.1,4.5-3.1l6.7-4.3c0.9-0.6,1.6-1.2,2.2-1.6c2.1,0.5,3.5,2.5,5.8,3.2l-4.2-5.1
				c-1-1.3-3.4-3.8-3.9-5.2c-1.8,0.6-9.2,6.3-10.7,7.5l-4.9,3.9c-1.1,0.9-1.3,1-1.6,3c-0.7,3.8-0.8,8.5-1,12.3
				c-0.2,3.4,1.5,4.4,3.3,5.7c2.2,1.6,1.8,1.9,5.4,3.4C-407.3,649.5-403.8,650.5-401.8,649.5z"/>
			<path class="st21" d="M-407.7,523.2c0,0-3.1,5-3.8,6.1c-1.5,2.1-2.9,4.1-4.3,6c-7,9.5-9.7,16.8-12.4,29.3l-3.1,16.5l-0.7-1.2
				c0.1,8.8,2.1,16.3,4,24.6c0.3-0.9-0.6-10.7-0.6-12.8c-0.2-4.8,0.1-9.2,0.4-13.8c1.3-17.8,6.5-28,15.4-41.6
				c3.5-5.3,6.6-9.7,10.5-14.4l3.7-4.2C-400.5,518.3-406.6,521.8-407.7,523.2z"/>
			<path class="st22" d="M-401.8,649.5c-2,1.1-5.5,0-7.5-0.8c-3.6-1.6-3.1-1.8-5.4-3.4c-1.9-1.3-3.5-2.3-3.3-5.7
				c0.2-3.8,0.3-8.5,1-12.3c0.4-1.9,0.5-2.1,1.6-3l4.9-3.9c1.6-1.1,9-6.9,10.7-7.5c0.5,1.4,2.8,3.9,3.9,5.2l4.2,5.1
				c1.8,2.7,1.2,3,0.8,8c-0.3,4.2,0.7,7.9-3.4,11.1l-6.1,6.1C-401,649.1-400.8,649.1-401.8,649.5z M-409.6,617.1
				c-0.5,0.8-0.9,1.1-1.8,1.4c-0.6,0.6-1.2,1.1-2,1.7c-0.8,0.6-1.2,0.7-1.9,1.5c-0.2,0.2-0.2,0.2-0.4,0.5c-3.4,3.5-3.2,10-3.3,16
				c-0.3,2-0.4,4,0.6,5.5l4.4,4.4c0.6,0.5,1.1,0.9,1.7,1.3c1.1,0.8,2.1,1.5,3.7,2c1.7,0.6,3.6,0.6,5.3,0.1c2.4-0.6,7.4-6.3,9.2-8.1
				c4.8-4.8,4.2-3.3,4.3-7.4c0-2,0.8-10.2,0.5-11.5c-0.2-0.9-0.7-1.2-1.3-1.9c-2.7-3.2-6.5-8.5-9.1-11.2l-7.6,4.3
				C-408.5,616.6-408.3,617-409.6,617.1z"/>
			<path class="st23" d="M-414.6,615.2l1.5-0.6v-0.3c-2.1-2.9-4.5-14.1-4.9-18.2c-0.9-8,0-12.9,1.8-20.4c1-4.4,9.3-35.2,9.1-36.5
				c1.2,0.2,1.1,0.3,2.1,0.1l-2.6-0.4c-1.2,1.7-4.8,14.6-5.7,17.6c-4.7,16.4-9.1,33.5-4.8,50.6C-417.7,608.3-416,614.5-414.6,615.2z
				"/>
			<path class="st24" d="M-422.6,637.7l3.7,0.5c0.2-6.1-0.1-12.5,3.3-16c0.2-0.2,0.2-0.3,0.4-0.5c0.7-0.8,1.1-0.9,1.9-1.5
				s1.4-1.1,2-1.7l-3.2-3.1c-0.7,0.1-1.4,0.8-2.2,1.6C-421.2,621.6-423.3,632.3-422.6,637.7z"/>
			<path class="st25" d="M-408.2,720.6c3.2,1.5,5.6,2.7,8.2,4.3l7.5,5.6c0.5,0.3,0.9,0.6,1.3,1.1c2.6,2.6,4.3,3.9,6.6,6.5
				c1.2,1.3,1.1,1.7,2.8,2.6c0.2-0.3,0.2-0.3,0.4-0.7c0.9,0,0.5-0.1,1.3,0.2c-0.9-1.1-1.5-2.5-2.4-3.7c-0.5-0.7-0.9-1.1-1.3-1.7
				c-0.7-0.8-0.7-1.2-1.5-2c-0.9-0.3-1.7-1.7-3.7-3.2c-0.6-0.5-0.7-0.5-1.4-1c-1.5-1.2-3.6-2.6-5.6-3.8c-1.8-1.1-10.5-6.4-12.2-6.6
				c-0.6,0.9,0.1-0.3,0.1,1.1C-407.9,720.1-408,720-408.2,720.6z"/>
			<path class="st26" d="M-189.1,727.6c1.8,2,3.7,11.4,5.6,14.3c0.7-2,1.1-7.2,0.2-9c-1.1-2.4-2.4-4.7-3.6-7
				c-1.9-3.7-5.4-11.3-7-13.9c-0.6-1.6-1.4-2.6-1.9-3.7C-194.8,712.5-189.2,724.3-189.1,727.6z"/>
			<path class="st27" d="M-318.2,541c0,0,5.4,1.3,6.6-1.4l1.6-4.1c0.8-1.8,1.7-3.9,2.2-5.7l-5.9-1.5c1,1.3,2,2.3,1.9,3.3
				c-0.1,0.5-1.8,5.9-3.3,7.1C-316.9,540-316.9,540.4-318.2,541z"/>
			<path class="st28" d="M-318.2,541c-0.9-4.6-2.2-1.4-0.1-6.9c0.6-1.6,1.8-5.3,2.7-6.5l1.9,0.6l5.9,1.5c-0.4,1.8-1.4,3.8-2.2,5.7
				l-1.6,4.1C-312.8,542.3-318.2,541-318.2,541z M-313.8,542.1l2-0.2c1.1-2.6,4.7-10.9,5-13l-6.1-1.7l-3-0.6
				c-0.8,0.7-2.7,6.4-3.3,7.8c-1.8,4.8-1.3,3.4,0.7,8L-313.8,542.1z"/>
			<path class="st29" d="M-373.8,731.2l7.2,1c-0.3-0.5-1-1.7-1.2-2.3l-10.1-2.9C-377,728-374.8,730.6-373.8,731.2z"/>
			<path class="st30" d="M-414.6,615.2v0.3l3.2,3.1c0.9-0.3,1.3-0.5,1.8-1.4c-0.5-0.6,0.1-0.1-0.6-0.7c-0.8-0.6-0.1-0.1-0.9-0.6
				s-1.1-1-2-1.3L-414.6,615.2z"/>
			<polygon class="st31" points="-350.5,636.6 -347.5,635.8 -347.9,630.1 			"/>
		</g>
	</g>
</g>
</svg>
