<?xml version="1.0" encoding="utf-8"?>
<!-- Generator: Adobe Illustrator 19.0.0, SVG Export Plug-In . SVG Version: 6.00 Build 0)  -->
<svg version="1.1" id="Layer_1" xmlns="http://www.w3.org/2000/svg" xmlns:xlink="http://www.w3.org/1999/xlink" x="0px" y="0px"
	 viewBox="-149.7 242.3 274.7 308.5" style="enable-background:new -149.7 242.3 274.7 308.5;" xml:space="preserve">
<style type="text/css">
	.st0{fill:#101010;}
	.st1{fill:#665A55;}
	.st2{fill:#979695;}
	.st3{fill:#1E2021;}
	.st4{fill:#CDB3A8;}
	.st5{fill:#0D0E0E;}
	.st6{fill:#B59E95;}
	.st7{fill:#B7A198;}
	.st8{fill:#DAC3B9;}
	.st9{fill:#883F31;}
	.st10{fill:#DCC4BA;}
	.st11{fill:#414141;}
	.st12{fill:#B39C93;}
	.st13{fill:#262626;}
	.st14{fill:#333333;}
	.st15{fill:#A64835;}
	.st16{fill:#884032;}
	.st17{fill:#53271F;}
	.st18{fill:#C9AFA5;}
	.st19{fill:#5F2D23;}
	.st20{fill:#BDA59B;}
	.st21{fill:#81716A;}
	.st22{fill:#A18C84;}
	.st23{fill:#98847D;}
	.st24{fill:#757575;}
	.st25{fill:#AA958C;}
	.st26{fill:#7D6D67;}
	.st27{fill:#D7D6D6;}
	.st28{fill:#95827B;}
	.st29{fill:#222222;}
	.st30{fill:#6A3126;}
	.st31{fill:#643026;}
	.st32{fill:#58883E;}
	.st33{fill:#D1B6AC;}
	.st34{fill:#393939;}
	.st35{fill:#A28C84;}
	.st36{fill:#242424;}
	.st37{fill:#385827;}
	.st38{fill:#121415;}
	.st39{fill:#71645E;}
	.st40{fill:#85746D;}
</style>
<g id="Layer_x0020_1">
	<g id="_494065316128">
		<g>
			<path class="st0" d="M103.6,363.2c-0.5,0-1,0-1.5,0.2c0.5-0.2,0.9-0.4,1.5-0.7V363.2z M-143.9,490.9l10.1,15.5l2.6-2.7h25.2v1.9
				h24.2v4.7v0h14.2l49.1,26.7v4.5L7,536.2v-2.3H-8.4v-25.2l39.3-57.6H32v-17.8l-1.4-0.9c-1.4-0.8-2.9-1.7-4.4-2.7
				c-1.4-0.9-3.2-1.7-4.3-2.7l-1-12.2c-0.1-2-0.3-2.1,0.6-3.6c4.5-7,9.1-15.1,13.5-22.2c1.2-1.9,2.3-3.6,3.4-5.5
				c1-1.6,2.5-3.9,3.3-5.5l8.6,3.1l6.3,1.7c1.2,0.5,0.9,0.1,1.2,1c2.4,0.7,1,1.4,4.8-2c0.7-0.6,1.6-1.4,2.2-2
				c4.2-5.1,4.3-2.2,5.2-7.7c0.3-1.7,0.5-6.2,1.3-7.4c-0.1-1.4,0.1-3.2,0.5-4.5c0.3-2.2,0.6-4.4,0.9-6.6c0.4-2.6-0.1-1.9,1.9-3.7
				c0.4-0.4,0.8-0.6,1.2-0.7l3.6-3.1l-1.2-0.5l2.2-0.1c0.4-0.8,5.4-4.6,6.5-5.5c1.3-1.1,6-4.7,6.7-5.6l-12.8-5
				c-1.2,0.4-3.2-0.7-4.7-1.3c-1.1-0.4-3.9-1.2-4.6-1.9l2.6-7.6c-0.3,0.3-0.7,0.5-1,0.9c-0.3,0.4-0.4,0.7-0.8,1.1
				c-3.6,4.2-2,2.5-6.6,1.2l-111.2-39c-0.4,1.6-4.6,8.8-5.7,11.3l-16.9,32v5.5l96.2,32.8L25,375.7l11.4,4.2c-2.3,2.9-3,2.2-6.5,7.4
				l-4.2,6.3c-0.3,0.4-0.4,0.6-0.7,1.1l-1,1c-0.1,0.7-7.3,11.4-8.7,13.5c-2,2.9-1.6,1.9-1,5.9c0.6,4.4,1.2,8.7,1.8,13.1
				c0.4,3,1.8,10.5,1.7,13l-22-9.9l-11,11.1c-9.3-1.6-19.5-2.4-28.6-3.8c-4.4-0.7-4.8,2-8,2.2c-0.6,0.7-44.9,21.7-49.3,23.6
				c-8.3,3.7-16.4,7.9-24.7,11.7c-3.2,1.5-16.3,8.7-21.6,11.4l-2.4,3.6l0,0 M100.3,288.6L100.3,288.6L100.3,288.6L100.3,288.6z
				 M-72.5,335.6l0.3,0l-0.3,0.7V335.6z"/>
			<g>
				<g>
					<polygon class="st1" points="91,356.1 90.8,355.8 90.5,355.8 90.3,356.1 					"/>
					<path class="st1" d="M61,380l-0.4-0.1l-0.1,0.4c0,0,0.1,0.1,0.1,0.1L61,380z"/>
				</g>
				<g>
					<path class="st2" d="M82.3,364.3l0.5-0.1l0.4-0.2l-4.7-3.2c-0.5,0-0.3-0.1-0.3,0.4c0.7,0.6,1.3,1.1,2,1.7
						C80.8,363.3,81.5,363.9,82.3,364.3z"/>
					<path class="st2" d="M86.4,359.7l0.1,0.6l0.4,0.1c-0.2-1.1,0.1-0.3,0.7-0.5c0,0,0.2,0,0.2,0c0,0,0.1,0,0.2,0
						c-0.6-0.7-0.4-0.6-1.5-0.8L86.4,359.7z"/>
				</g>
				<g>
					<path class="st3" d="M84.5,366.6c0.6,0.1,0.5,0.2,0.4-0.5c-0.8-0.6-1.8-1.2-2.6-1.8c-0.8-0.4-1.5-1-2.1-1.5
						c-0.7-0.6-1.3-1.1-2-1.7c0.1,0.8,0.3,1.5,0.7,2.1c0.5,0.8,0.8,0.7,1.6,1.2C82,365.4,83,365.9,84.5,366.6z"/>
					<path class="st3" d="M91,356.1c-0.5,1.2,0.1,0.2-0.7,1.2l-0.5,0.3l3.2-0.4c0.8-0.9,0.7,0,1-1.3c-1.1,0.7-1.7,0.4-3.1-0.1
						L91,356.1z"/>
				</g>
				<g>
					<path class="st4" d="M78.4,358c1.8-0.7,3.8-1.4,5.7-1.8c1.3-0.3,5.3-0.3,6.2,0.7l0,0.4c0.8-1,0.2,0,0.7-1.2l-0.7,0l-0.5-0.2
						l0-0.4C85.1,353.4,79.1,356,78.4,358z"/>
					<path class="st4" d="M75.7,349.2c2.7-0.1,1.8-2.7,8-0.8c0.9,0.3,1.8,0.8,2.5,0.4l-6.9-2.7L75.7,349.2z"/>
				</g>
				<g>
					<path class="st5" d="M45.1,375.9c0.8-1,2.5-4,3.1-5.3l-2.2-0.7l-3.1,5.3C43.4,375.6,44.2,375.9,45.1,375.9z"/>
					<path class="st5" d="M51.2,378.2c0.9-0.7,2.9-4.2,3.3-5.3c-0.9-0.4-1.2-0.6-2.4-0.6c-0.7,1.9-2.2,3.5-2.9,5.5L51.2,378.2z"/>
				</g>
				<g>
					<path class="st6" d="M45.1,375.9c-0.9,0.1-1.7-0.3-2.3-0.7l3.1-5.3l2.2,0.7C47.6,371.9,45.9,374.9,45.1,375.9z M40.5,376
						c0.7,0.6,3.8,1.7,4.9,1.5c1.1-0.2,1.1-0.6,1.6-1.6c3.4-6.4,5.2-6-2-8C44.7,369.4,41.3,374.2,40.5,376z"/>
					<path class="st6" d="M51.2,378.2l-2-0.5c0.7-2,2.2-3.5,2.9-5.5c1.1,0.1,1.5,0.3,2.4,0.6C54.1,374,52.1,377.5,51.2,378.2z
						 M47.4,378.1c0.8,0.8,3.4,1.9,4.6,1.6c1-0.2,1.9-2.3,2.6-3.5c0.5-0.9,2.2-3.1,1.8-4c-0.3-0.8-3.4-1.6-4.3-1.6
						C50.9,370.9,47.4,376.8,47.4,378.1z"/>
				</g>
				<g>
					<path class="st7" d="M61,380l-0.4,0.4c0,0-0.1-0.1-0.1-0.1l0.1-0.4l2.2-5.8c-2-1.2-2.3,0.7-3.3,1.7l-2.1,2.4
						c-0.5,0.6,0,0.2-0.7,0.7c0.5-1.6,2-4.8,2.1-6.3l-1.5-0.4l-2.9,8.7l1.7,0.5c0.8-0.7,3.2-4,4.2-4.7l-2.1,5.5l2,0.6
						c0.8-1.3,3.8-4.5,4.9-5.6c0.6-0.6,1.1-1.3,1.5-1.9l-1.3-0.5C64.3,375.7,61.7,378.9,61,380z"/>
					<path class="st7" d="M32.6,370.3l-0.4,0.4c-0.5-1.1,0-0.4,0-0.5l2.1-5.9l-1.7-0.5c-0.2,2.4-2.3,6.3-2.8,8.8l1.6,0.5
						c0.3-0.2,0.9-0.7,1.2-1.1l3.1-3.5l-2.1,5.5c1.7,0.3,1.7,0.9,2.8-0.5c0.7-0.9,0.9-1.3,1.8-2.1c1-0.8,1.1-1.4,1.9-2.3
						c0.9-1,1.3-0.7,1.9-2.1l-1.2-0.4c-1.2,0.7-1.7,1.8-2.6,2.7c-1.3,1.2-0.4,0.9-2.4,2.6l2.3-6.2l-1.6-0.5c-0.3,0.5-0.5,1-0.9,1.5
						C34.7,367.8,33.7,368.6,32.6,370.3z"/>
					<path class="st7" d="M44.1,367.6l-1.3-0.4c-0.7,0.6-4.6,7-5,8.1l1.5,0.4L44.1,367.6z"/>
				</g>
				<g>
					<path class="st8" d="M99.9,372.3c0-0.2-0.1-0.4-0.1-0.7c-0.6-0.6-1-1.4-1.2-2.2c-0.2,0.1-0.4,0.2,0,1.4c0.2,0.6,0.4,1.3,0.6,2
						l6.3,18.9c0.7,2.7-3.8,1.8-2.8,6.6l1.6,0.2c4.5-0.7,1.7-0.9,5,0.5c-0.1-4.1,0.7-3.8-1.2-7.6l-6.5-14.7c0-0.1-0.1-0.3-0.1-0.4
						C100.8,374.8,100.3,374.5,99.9,372.3L99.9,372.3z"/>
					<path class="st8" d="M86.9,360.3c0.7,0.5,0.4,0.8,0.3,1.7l-0.1,1.3c0.4-0.4,0.8-0.6,1.1-0.9l0.1-1.3c0-0.1,0-0.2,0-0.2
						c0-0.1-0.1-0.4-0.1-0.5l-0.2-0.6c-0.1,0-0.2,0-0.2,0c0,0-0.1,0-0.2,0C87,360,86.6,359.2,86.9,360.3z"/>
				</g>
				<g>
					<path class="st9" d="M52.1,381.7c-0.3,1.7-1.3,4.3-2,6c-1.1,3-0.7,4-1.2,7l-3.5,46.7l-0.7,9.9c0.5-0.8,0.4-1,0.6-2.3
						c0.1-0.8,0.2-1.5,0.3-2.3c0.2-1.4,0.2-3.3,0.8-4.5v-1c0.1-2.6,5.6-39,6.5-44.8c0.5-3.1,3.3-9.8,4.7-12.6c-0.3-0.9,0-0.5-1.2-1
						L52.1,381.7z"/>
					<path class="st9" d="M75.7,423c0.1,0,0.1,0.1,0.1,0.1l0.4,0.4c0.9,1,1.1,0.8,1.9,1.5c1.6,1.5,6.1,4.9,6.7,6.8
						c1.7-0.7,3.1-1.1,3.1-3c0-1.3,0.3-2.3-1.7-4.3c-0.6-0.6-2-1.1-2.9-1.6l-0.9-0.8l0.6-0.1c-0.2-0.2-1.5-0.2-2.3-0.5
						c2.1-0.2,4.3,0.1,6.4,0c1-0.1,3.7-1.4,5.1-1.7c0.9-0.7,1.2-1.9,1.6-3c0.5-1.4,0.3-2-0.5-3.2l-1.8,1.1c-8.2,3.9-4.4,4-15.8,4.9
						C75.3,420.9,74.8,422.1,75.7,423z"/>
					<path class="st9" d="M79.3,346.1l6.9,2.7c0.9,0.5,1.8,1.2,2.8,1.9c2.2,1.4,6.7,4.1,6.6,6.9c-0.1,1.2-0.8,2.3,0,2.8l1.9-1.3
						c0.8-0.5,1.3-0.8,2-1.3c0.1-2-1.1-4.7-2.2-5.7c-3.7-3.7-12.2-5.1-17.1-6.5l-2.2,0.1L79.3,346.1L79.3,346.1z"/>
				</g>
				<g>
					<path class="st10" d="M57.5,405.5c4.2,0.3,10.5,2.2,14.1,2.6c1.1,0.1,3.3-0.7,4.5-1.1c2.3-0.6,1.9-0.6,2.7-2.8
						c2.2-5.7,2.2-7.3,3.8-13.2c0.8-2.9,1.7-5.9,2.5-8.8c2-7.3,2-5,0.3-8.4c-2.1-4.2-1.8-3.7-5.1-6.2c-1.1-0.8-2.1-1.6-3.3-2.5
						l-3.5-2.5c0.1,4.4-0.2,9.7-0.4,14.1c-0.2,3.6,0.3,4.6-1.2,6.2c-1.2,1.3-2.1,2.7-3.6,3.8c-1.9,1.3-4.8,5.5-6.2,6.6
						C56,397.9,57.8,399.3,57.5,405.5z"/>
					<path class="st10" d="M95.4,335.3l-3.7,3.3c-1.4,1.2-6,4.8-6.6,5.8c3.6,0.2,9.5,3,12.4,5.7c0.7,0.7,2.2,2.5,2.5,3.5
						c0.9-0.7,1.6-2.4,1.6-3.2l-2.4-11.7c-0.8-3.4-2.3-13.3-3.4-15.6c-0.5,1.5-1.1,4.7-1.4,6.4C93.7,333.7,94.1,332,95.4,335.3z"/>
					<path class="st10" d="M73.9,417.9c3.4-0.3,6.6-1.2,9.9-1.7c0-0.1-0.1-0.2-0.1-0.2c0,0-0.1-0.2-0.1-0.2c-1.1-2-0.3-2.7-0.2-4.8
						c-1.2-0.1-2.5,0.1-3.6,0.2c-1.8,0.1-2.2-0.1-3,1.3C76.1,413.7,74.2,416.7,73.9,417.9z"/>
				</g>
				<g>
					<path class="st11" d="M-5.9,518.8c-0.5-0.5-0.8-1.1-1.3-1.6l-5.9-6.3c0-0.1-0.1-0.1-0.2-0.1l3.3,27.5c-3.3-1.4-12-7.6-14.9-8.6
						l5.4,13l65.1,8.1c-3.8-1.5-34.5-13.2-35.4-14l-11.7-13c-0.6-0.6-0.8-1.2-1.4-1.8l-2.2-2.5C-5.4,519.2-5.5,519.2-5.9,518.8
						L-5.9,518.8z"/>
					<path class="st11" d="M-5.9,496.5c0-1.3-0.4-0.3,0.6-1.3c0.2-0.2,0.8-0.7,1-0.9c2.6-2.1,2.8-2.7,5.5-5.6c2-2.2,3.3-3.1,3.7-3.6
						c1.2-1.3,2.2-2.4,3.4-3.7c0.6-0.7,1.1-1.2,1.8-1.9l1.9-1.7c1-0.7,2.5-2.7,3.4-3.7c1-1.1,2.4-2.9,3.5-3.8c1-0.9,2.4-1.6,3.5-3.7
						l-50.7,36c-1,0.8-2.4,1.9-3.6,2.2c-0.1,4.1-2.9,14.6-2.5,17.3c1.8,1.3,14.5,7.1,17.6,8.7c0.1-3.4-0.9-18.9-1.3-22.9
						c-0.2-3.1-0.6-2.6,1.5-4.1l10-6.7C-5.8,496.6-6.2,497.2-5.9,496.5z"/>
				</g>
				<g>
					<path class="st12" d="M57.8,383.9c-1.4,2.8-4.3,9.5-4.7,12.6c-0.9,5.8-6.3,42.2-6.5,44.8c1.1-0.4,5.2,2.1,6.2,2.6l9.4,4.5
						c1.8,0.8,1.5,1,3.2,0.2c2.1-1,4.4-2.3,6.4-2.9c0.2-3.8-0.5-8.5-0.4-12.4c0.1-3.1-0.4-2.7-1.7-4.5c-0.3-0.4-0.4-0.5-0.7-0.8
						c-3.3-2.8-1.8-2.9,0.4-6.6l5.3-8.1c0.6-0.9,2.4-3.4,2.6-4.1c-1.5,0.1-3.3,1.5-4.9,1.8c-1.3,0.2-4.4-0.9-5.9-1.2
						c-3-0.6-8.7-1.7-11.5-2.7c-0.2-1.5-0.7-9.1,0.1-10.1c2-2.8,3-2.8,3.8-3.8l3.5-4.1c1.1-1.1,0.8-0.2,2.1-1.8
						c0.9-1.1,3.4-4.2,4.4-4.8c0.9-0.6,2.4-1.9,2.8-3c0.2-0.6-0.3-14-0.4-14.6c-0.8,1.2-1,5.7-1.3,7.4c-0.8,5.5-1,2.6-5.2,7.7
						c-0.5,0.7-1.5,1.4-2.2,2C58.8,385.3,60.2,384.5,57.8,383.9z"/>
					<path class="st12" d="M39.4,437.9c0.2-0.5-0.2-0.8,1.4,0.1c0.7,0.4,0.9,0.5,1.5,0.9c0.8,0.5,2,1.2,2.9,1.3
						c0,0.3,0.1,0.3,0.1,0.6c-0.1,0.6-0.2,0.7-0.2,0.7l0.4,0l3.5-46.7l0-1.2c-0.8,0.6-0.8,1.1-1,2.3c-0.2,1-0.4,1.8-0.6,2.8
						c-1.4,6.2-7.4,37.6-8,38.4c-1.2-0.7-0.3-3.6,0-6.6c0.3-2.5,0.6-5.2,0.9-7.7c0.7-5.1,1.4-10.4,1.9-15.5
						c0.5-5.1,1.3-10.2,1.8-15.2c0.2-1.7,0.2-1.9,1.1-3.1l5-8l-8.6-3.1c-0.8,1.6-2.3,3.9-3.3,5.5c-1.1,1.9-2.2,3.6-3.4,5.5
						c-4.4,7.1-9,15.2-13.5,22.2c-0.9,1.5-0.8,1.6-0.6,3.6l1,12.2c1.1,1,2.9,1.9,4.3,2.7c1.5,0.9,3,1.8,4.4,2.7l6.6,4.1
						C38,437.1,38.6,437.4,39.4,437.9z"/>
				</g>
				<g>
					<path class="st13" d="M-98.4,510.1c-1.3-1.7-5.3-3.4-7.1-5c-0.3-0.6,0.5-3.2-0.6-4.6l-8-9.6c-0.4-0.4-0.4-0.6-0.8-1.1l-1.7-1.9
						c0.5-0.7,22.6-12.8,25.3-14.3c2.1-1.1,4.2-2.3,6.3-3.4l19.1-10.2c0.5-1,1.4-2.7,1.7-3.8l-82.6,36.4c0.2,2.1,2.3,11.3,3.2,13
						L-98.4,510.1z"/>
					<path class="st13" d="M84.8,359l1.6-0.1c1.1,0.3,0.9,0.1,1.5,0.8l0.2,0.6c0.8,0.2,0.3-0.3,0.5-1.2c0.2-1.2,0.2-0.6,0.6-1.5
						l-2.5-0.1c-2.5-0.2-4.7,0.3-6.7,1c1.4,0,1.2-0.1,2.4,0.4C83.6,359.5,83.5,359.4,84.8,359z"/>
				</g>
				<g>
					<path class="st14" d="M-98.4,510.1l31.9,3.1c-1.5-6-6.4-21.5-8.4-28.1c-1.3-4.2-1-2.9,0.6-6.6l8.5-18.5L-85,470.3
						c-2,1.2-4.2,2.3-6.3,3.4c-2.7,1.5-24.8,13.6-25.3,14.3l1.7,1.9c0.4,0.4,0.4,0.6,0.8,1.1l8,9.6c1.2,1.4,0.3,4,0.6,4.6
						C-103.7,506.7-99.7,508.4-98.4,510.1z"/>
					<path class="st14" d="M22.1,461c1.5-0.9,7-3.9,7.8-4.8c0.5-0.5,3.7-7.4,4-8.3c-1.2,0.3-1.5,1.1-2.4,1.5
						c-0.9,0.4-2.7,0.1-3.8,0.1c-3.7-0.1-22.5-1.6-23.3-1.2l-28.6,38.3c-0.7,0.9-1.2,1.7-1.9,2.7L22.1,461z"/>
					<path class="st14" d="M-6.1,442.1c0.2,0.4,0.8,1.3,1.1,1.7c0.5,0.7,0.8,1,1.2,1.7c-0.7,3-12.1,23.8-13.2,27
						c1.1-1.1,1.8-2.1,2.7-3.3c5.9-7.8,12-16.5,18.1-24c4.7,0.1,10.2,0.6,14.9,1c4.3,0.4,10.3,1.5,13.7-1l-29.8-1.7
						C-4.2,443.3-3.9,442.3-6.1,442.1z"/>
				</g>
				<g>
					<path class="st15" d="M-34.8,369.9c0.6,0.2,1.2,0.5,1.8,0.8l18.7,8.1c1.7,0.7,6.1,2.9,7.6,3.2l-7.5,52.9c0.7-0.3,1-0.5,1.5-1.1
						c0.6-0.7,0.3-0.5,1-1.1c2.3-2.1,0.8-0.3,3.3-3c0.7-0.8,2.3-1.7,3.3-2.9c3.1,1.3,17.5,9.8,19.4,10.5c0-1.6-2.1-13-2.5-15.7
						c-0.4-2.6-0.8-5.3-1.3-7.9c-0.9-5.4-1.2-4.3,0.6-6.8l7.6-10.8c0.5-0.7,0.5-0.8,0.9-1.4c0.7-0.9,2.4-3.1,2.8-4
						c0.4-1.2,1.1-6.5,1.2-7.9c-1.1-0.2-7.5-3.2-7.8-4c-1.1-2.4-1.5-6.7-2.7-9.1l-49.8-0.9L-34.8,369.9z"/>
					<path class="st15" d="M30.8,251.1c1,1.2,37.4,19.7,44.5,23.6c9.1,5.1,6.4,2.9,15,8.9c3.3,2.3,6.8,5.3,10,7.2l-1-1
						c-0.6-0.5-0.5-0.4-1-0.8l-14-11.9c-0.5-0.5-0.6-0.4-1.1-0.8c-0.6-0.4-0.4-0.5-0.9-0.9c-0.4-0.4-0.6-0.4-1-0.8L65.2,261
						c-3.7-2.9-9.3-7.9-13.1-11.1c-5.3-4.5-3.7-4-9.8-2.1C38.6,249,34.6,250.1,30.8,251.1L30.8,251.1z"/>
					<path class="st15" d="M84.6,299.2c-2.4,1.4-9.9,7-12.8,9l-8.4,5.8c-1,0.3-13.2-4-16.5-4.7l16,9c1.8,0.9,3.6,2.2,5.4,2.8
						c0.3-0.3,0.6-0.5,0.9-0.9c2.4-2.8,3.2-2.7,4.2-3.9c0.7-0.8,0.5-1.2,1.6-1.5l0,8.5c0.8,0.3,0.7,0.2,1.5,0.8L84.6,299.2z"/>
					<path class="st15" d="M95.1,298c0,0.1,0.1,0.1,0.1,0.2c0,0,0.1,0.1,0.1,0.2l8.1,5.7c0.8,0.5,1.3,1,2.1,1.5
						c0.7,0.4,1.2,0.8,2,1.4c4.6,3.5,5.6,2.6,7,7.2l4.7,16.2l2.8,0.7l-11.5-34.5c-0.6,0.8-0.8,3.7-1.6,4.6L95.1,298z"/>
					<path class="st15" d="M78.5,327.5c2.6-3.3,11.6-26.7,13.1-30.7c-1.2,0.6-2.4,1.3-3.6,2c-1.8,1.1-1.9,0.7-2.5,3L78.5,327.5z"/>
				</g>
				<g>
					<path class="st16" d="M-36.9,368.7l49.8,0.9c1.2,2.4,1.6,6.8,2.7,9.1c0.4,0.9,6.7,3.8,7.8,4c-0.1,1.4-0.7,6.7-1.2,7.9
						c-0.3,0.9-2.1,3.1-2.8,4c-0.5,0.7-0.5,0.8-0.9,1.4L11,406.9c-1.8,2.5-1.5,1.4-0.6,6.8c0.4,2.6,0.9,5.2,1.3,7.9
						c0.4,2.7,2.5,14.1,2.5,15.7c-1.9-0.7-16.3-9.2-19.4-10.5c-1,1.2-2.6,2.1-3.3,2.9c-2.4,2.7-0.9,0.9-3.3,3
						c-0.7,0.6-0.4,0.4-1,1.1c-0.5,0.6-0.8,0.8-1.5,1.1l7.5-52.9c-1.5-0.3-5.9-2.4-7.6-3.2l-18.7-8.1c-0.6-0.3-1.2-0.5-1.8-0.8
						L-36.9,368.7z M-51.7,440.6c3.2-0.2,3.6-2.9,8-2.2c9.1,1.5,19.4,2.2,28.6,3.8l11-11.1l22,9.9c0.1-2.5-1.3-10.1-1.7-13
						c-0.6-4.4-1.2-8.7-1.8-13.1c-0.6-4-1-2.9,1-5.9c1.4-2.1,8.6-12.8,8.7-13.5c0.6-2.7,1.7-5.6,2.4-8.4c0.3-1.1,1-3.3,0.6-4.3
						c-0.3-0.7-2.3-1.8-3.3-2.2c-5.8-2.6-5.4-2.2-5.8-4.9c-0.2-1.6-1-8.4-1.7-9.1c-0.8-0.7-45.7-2.5-53.1-3l-18.1-0.9l-48.1,89
						L-51.7,440.6z"/>
					<path class="st16" d="M76.5,324.2c-0.8-0.6-0.8-0.5-1.5-0.8l0-8.5c-1,0.3-0.9,0.7-1.6,1.5c-1,1.2-1.8,1.2-4.2,3.9
						c-0.3,0.3-0.6,0.6-0.9,0.9c-1.7-0.6-3.6-1.9-5.4-2.8l-16-9c3.3,0.6,15.4,4.9,16.5,4.7l8.4-5.8c2.9-2,10.4-7.6,12.8-9
						L76.5,324.2z M95.1,298l14.1,3.2c0.7-0.9,0.9-3.8,1.6-4.6l11.5,34.5l-2.8-0.7l-4.7-16.2c-1.4-4.5-2.3-3.7-7-7.2
						c-0.8-0.6-1.3-1-2-1.4c-0.8-0.5-1.4-1-2.1-1.5l-8.1-5.7c0,0-0.1-0.1-0.1-0.2C95.2,298.2,95.2,298.1,95.1,298L95.1,298z
						 M78.5,327.5l7-25.8c0.7-2.3,0.7-1.9,2.5-3c1.2-0.7,2.4-1.4,3.6-2C90.1,300.8,81,324.2,78.5,327.5z M30.8,251.1
						c3.8-1.1,7.8-2.1,11.6-3.3c6-1.9,4.4-2.4,9.8,2.1c3.8,3.2,9.4,8.2,13.1,11.1l16.1,13.6c0.4,0.4,0.6,0.4,1,0.8
						c0.5,0.4,0.4,0.4,0.9,0.9c0.5,0.4,0.6,0.3,1.1,0.8l14,11.9c0.5,0.4,0.4,0.3,1,0.8l1,1c-3.2-1.9-6.7-4.8-10-7.2
						c-8.6-6-5.9-3.8-15-8.9C68.2,270.8,31.8,252.3,30.8,251.1z M65.4,322c4.6,1.2,3,3,6.6-1.2c0.3-0.4,0.4-0.7,0.8-1.1
						c0.3-0.4,0.7-0.6,1-0.9l-2.6,7.6c0.7,0.7,3.6,1.5,4.6,1.9c1.5,0.5,3.5,1.7,4.7,1.3c-0.4-0.9,2.6-7,3-8c0.7-1.8,2.7-7,3.5-8.2
						c0.5-1.6,1.3-3.3,2-4.9c0.6-1.3,1.3-4,2.2-4.4c-0.2-0.7,0.3-1.5,0.6-2.2c0.4-0.8,0.7-1.6,1-2.4c0.3-0.8,0.1-0.4,0.6-0.7
						l17.5,13.9c0.4,0.3,0.6,0.3,0.9,0.7c1,1,5.1,13.7,6,16c0.9,2.5,0.9,1.7,0.1,4.2c-2.2,6.7-5.2,14-7.1,20.8l6.7,1.3
						c0.3-2.1,1.9-5.9,2.6-8c0.9-2.6,1.7-5.2,2.6-7.9c2.9-8.5,3-5.1-0.7-15.7c-1.3-3.7-10.2-30.2-10.9-31.2
						c-3.5,0.8-1.2,1.4-5.3-0.1c-4.5-1.6-2.4-1.4-4.6-3l-9-8.1c-0.4-0.4-0.6-0.5-1-0.8l-7-6.1c-0.7-0.5-0.3-0.3-0.9-0.9l-12.1-10.4
						c-0.6-0.6-0.4-0.4-1-0.8l-5.2-4.5c-0.7-0.5-0.4-0.3-1-0.9l-9.2-7.6c-2.8-2.3-8.4-7.3-11.7-7.2L5.9,257.7
						c-2.6,1.1-1.9,0.3-3.1,2.7c-3.5,7.1-9,17.2-11.7,23.5l18.5,9.5c6.2,3.2,12.3,6.2,18.6,9.5L65.4,322L65.4,322z"/>
					<path class="st16" d="M6.7,330.4c1.2-1.3,0.4-0.9,2.6-2.9c0.7-0.6,1.1-1.3,1.7-2c0.7-0.9,1.2-0.9,1.9-1.8l3.6-3.8l-5.9,18.5
						l-8.2-2.9c0-0.1-0.1-0.1-0.2-0.1L6.7,330.4z M-22.8,335.3c0.6-1.2,1.7-2.8,2.5-4.1c3-5.1,15.4-25.2,16.9-28.3l-7.3-2.4
						c-0.6,1.5-2,3.5-2.9,5l-18.6,31c-0.8,1.3-1.1,1.4-1.4,2.5c3.6,0.8,17.1,5.9,22.3,7.5c2.3,0.7,2.6,1.5,3.9-0.2l5.7-6.3l9.8,3.5
						l-2.7,8.6l8.2,2.8l12.6-42c-2.4-0.2-6.6-2.4-9.1-2.9c-0.5,0.1-4.3,4.6-5.3,5.6c-0.7,0.8-1.2,0.8-1.9,1.5
						c-1.2,1.3-2.3,2.5-3.5,3.9l-2.7,2.8c-2.2,1.7-4.1,4.1-6.2,6.4c-0.8,0.9-1,0.8-1.8,1.6c-1,0.9-6.2,6.6-6.8,7.6
						c-1.9-0.4-4.3-1.4-6.2-2C-18,337.2-22.1,335.8-22.8,335.3z"/>
					<path class="st16" d="M-52.7,325c0.7-1.6,2.5-4.2,3.4-5.8l3.5-5.9c2,0.4,8.8,2.7,10.3,3.8c0,1.9-1.6,3.8-2.5,5.4
						c-4,6.7-2.6,6.7-8.8,4.5C-48.5,326.5-51.5,325.7-52.7,325z M-42.7,308.4c0.7-1.7,1.9-3.3,2.9-5.1c0.9-1.4,2.3-3.6,2.8-5
						c1.7,0.4,3.7,1.2,5.4,1.8c6.3,2.1,6,1.3,2.7,7c-0.7,1.1-1.9,3.6-3,4.1C-33.6,312.3-40.5,308.8-42.7,308.4z M-31.8,315.1
						c2.3,0.3,4.6,0.3,6.4-1c2.4-1.7,5.3-6.7,6.6-9.2c4-7.8-4.2-8.7-10.1-10.8c-3.2-1.1-8.6-3.3-11.6-3.9c-2.2,3.1-8.9,14.8-11.5,19
						l-11.4,19.1c0.1,0,0.1,0.1,0.2,0.1l11.9,4.2c6.6,2.3,12.8,5.4,17.1-1.8c2.9-4.8,8.5-11.6,3.7-14.8c-0.2-0.1-0.4-0.2-0.7-0.4
						C-31.6,315.3-31.6,315.3-31.8,315.1z"/>
					<path class="st16" d="M60.9,343.5c0.9-2.2,7.2-12,9-15.2c-0.7-0.7-6.7-2.5-7.1-2.6l-20.2,33.5c-0.7,1.1-2.3,3.6-2.8,4.7
						l7.4,2.5c0.5-2,9.2-14.8,10-17.3c1.4,0.3,4.9,1.2,5.3,2.4c0.7,1.9-3.1,15.3-3.1,19.1l8.3,2.8c0.4-3.8,1.2-8.3,1.8-12.1
						c0.7-4.3,2.3-8.7-0.2-11.6c3.9-0.6,5.1-2.1,7.8-4.4l9.2-7.6c1.1-1,2.4-1.9,3.3-2.9l-8.2-2.7c-1.6,1.8-2.9,2.6-4.6,4.2l-7.1,6
						c-0.8,0.8-1.3,1.3-2.5,2C65.4,345.4,62.7,344.4,60.9,343.5z"/>
					<path class="st16" d="M56.8,331.4c0.8-2.1,3-4.5,3.7-6.5c-1.3-0.8-8.5-3-10.6-3.8c-10.7-3.7-12.4-3.8-18.1,5.6
						c-1.8,3-3.5,5.9-5.3,8.9L18.5,349c-4.4,7.4,3.6,9,8.6,10.5c3.3,1,7.3,2.8,10.6,3.6l3.9-6.6c-2.3,0-14.1-3.8-15.1-5
						c-0.5-1.1,4.5-8.5,5.3-9.9c1.9-3.2,3.8-6.3,5.7-9.5c4.1-6.8,3.1-6.7,8.3-4.9c1.9,0.7,3.8,1.4,5.7,1.9
						C55.5,330.4,55.7,331,56.8,331.4z"/>
				</g>
				<g>
					<path class="st17" d="M-51.7,440.6l-51.1,11.1l48.1-89l18.1,0.9c7.3,0.5,52.2,2.3,53.1,3c0.7,0.7,1.5,7.5,1.7,9.1
						c0.4,2.7,0,2.3,5.8,4.9c1,0.4,3,1.6,3.3,2.2c0.4,1-0.4,3.2-0.6,4.3c-0.7,2.8-1.8,5.7-2.4,8.4l1-1c0.4-0.5,0.4-0.7,0.7-1.1
						l4.2-6.3c3.5-5.2,4.2-4.5,6.5-7.4L25,375.7l2.8-11.1l-97.5-33.2c-0.3,0.5-0.6,0.9-1,1.3c-1.3,2.5-3.7,7.5-4.2,8.5l-24.9,49
						c-3.1,6.2-7,13.3-10,19.7c-2.9,6.4-7.2,13.3-9.9,19.7c-2.7,6.4-7.1,13.3-9.9,19.7c-1.9,4.2-7.4,14.5-10,19.7
						c-1.6,3.2-9.6,17.7-9.9,19.5c1.5-0.4,19.9-10.6,23.8-12.4c8.3-3.8,16.4-8,24.7-11.7C-96.6,462.3-52.3,441.3-51.7,440.6z"/>
					<path class="st17" d="M65.4,322l-37.3-19.2c-6.4-3.3-12.4-6.2-18.6-9.5L-9,283.9c2.7-6.3,8.3-16.5,11.7-23.5
						c1.2-2.4,0.5-1.6,3.1-2.7l37.4-15.4c-7.1-0.2-15.7,1.2-22.9,1.9c-7.3,0.8-14.8,1.6-21.9,2.7l-16.2,2.2
						c-1.6,0.3-16.8,10.9-18.9,12.3l-22.2,14.8c-2.1,1.4-1.6,1.1-2.1,3.9c-0.8,4.8-8.1,45.2-8.2,47.5l17.6-33.3
						c1.1-2.4,5.3-9.6,5.7-11.3L65.4,322z"/>
				</g>
				<path class="st0" d="M98.4,367.8c0,0.1,0,0.3,0,0.4C98.4,368.1,98.4,367.9,98.4,367.8z"/>
				<path class="st0" d="M100.8,363.9c-0.9,0.6-1.6,1.4-2.1,2.4c0.2-0.7,0.5-1.4,0.6-1.9c0.4-1.6,0.9-3.3,1.3-4.9
					c0.7-2.5,3.3-6.7,3.3-8.9c0.2-9.9-0.2-19.8-0.2-29.6c0-3.3,0.4-4.7-1.1-6.5c-0.7-0.8-0.9-1.3-1.6-2.1l-6.5-8.2
					c-0.9-1.2-1.1-1.3-1.4-2.3c-1,0.5-1.5,1.3-2,2.2c-0.2-0.7,0.3-1.5,0.6-2.2c0.4-0.8,0.7-1.6,1-2.4c0.9,0.5,4,5,4.6,5.9
					c0.7,1.1,1.4,2,2.2,3.1c0.7,1,1.4,2,2.1,2.9c3.4,4.5,3.1,3.6,3.2,7l0.8,30.2c0.2,4.7-0.2,4.3-1.9,8.3
					C102.8,359.1,101.7,361.6,100.8,363.9L100.8,363.9L100.8,363.9z"/>
				<path class="st0" d="M-52.7,325c1.2,0.7,4.3,1.5,5.7,2.1c6.2,2.2,4.9,2.2,8.8-4.5c0.9-1.5,2.6-3.5,2.5-5.4
					c-1.5-1.1-8.3-3.4-10.3-3.8l-3.5,5.9C-50.3,320.8-52,323.4-52.7,325z"/>
				<path class="st0" d="M-42.7,308.4c2.3,0.5,9.1,3.9,10.9,2.9c1.1-0.6,2.3-3,3-4.1c3.3-5.7,3.6-4.9-2.7-7
					c-1.7-0.6-3.7-1.4-5.4-1.8c-0.6,1.4-2,3.6-2.8,5C-40.8,305-42,306.6-42.7,308.4z"/>
				<path class="st0" d="M2,335.3c0.1,0,0.2,0,0.2,0.1l8.2,2.9l5.9-18.5l-3.6,3.8c-0.7,0.9-1.2,0.9-1.9,1.8c-0.6,0.7-1,1.4-1.7,2
					c-2.2,2-1.4,1.6-2.6,2.9L2,335.3z"/>
				<path class="st18" d="M73.9,417.9c0.3-1.2,2.2-4.2,2.8-5.4c0.8-1.4,1.2-1.2,3-1.3c1.2-0.1,2.5-0.3,3.6-0.2
					c-0.2,2.1-0.9,2.8,0.2,4.8c0,0.1,0.1,0.2,0.1,0.2c0,0,0.1,0.1,0.1,0.2C80.5,416.7,77.3,417.7,73.9,417.9z M98.8,366.3
					c-0.1,0.3-0.2,0.6-0.3,0.9c0,0.2-0.1,0.4-0.1,0.5c0,0.1,0,0.3,0,0.4c0,0.4,0.1,0.8,0.2,1.3c-0.2,0.1-0.4,0.2,0,1.4
					c0.2,0.6,0.4,1.3,0.6,2l6.3,18.9c0.7,2.7-3.8,1.8-2.8,6.6l1.6,0.2c4.5-0.7,1.7-0.9,5,0.5c-0.1-4.1,0.7-3.8-1.2-7.6l-6.5-14.7
					c0-0.1-0.1-0.3-0.1-0.4c-0.7-1.5-1.2-1.9-1.6-4.1c1.3,1.2,5.4,11.1,6.7,13.6c1.2,2.3,2.2,4.5,3.3,6.7c1.1,2.2,0.7,6.8-0.9,8.1
					c-0.5-0.3-0.5-0.3-1-0.7c-1-0.8-0.3-0.7-3.9-0.2c-2,0.3-10.2,1.3-11.4,1.7c-1.4,0.5-3.5,1.5-4.1,2.9l2,0.4l-0.9,0.7l4.8,0
					c0.3,0.3,0.2-0.3,0.2,0.6c-0.3,2.2-2.1,5.8-1.5,7.7l-1.8,1.1c-8.2,3.9-4.4,4-15.8,4.9c-0.2,1.2-0.8,2.3,0.1,3.3
					c0.8,3.6,3.8,5.5,2.6,8.1c-0.7,1.6-1.1,0.8-2.1,0.5c-0.1,4.1-0.2,10.3,1.1,13.9l0.1,0.9c-2.1,0.9-5.9,2.7-7.9,3.8
					c-1.3,0.7-2.7,1.3-4.1,2c-2.1,1-2,0.5-3.9-0.7l-14.9-9.1v-1c1.1-0.4,5.2,2.1,6.2,2.6l9.4,4.5c1.8,0.8,1.5,1,3.2,0.2
					c2.1-1,4.4-2.3,6.4-2.9c0.2-3.8-0.5-8.5-0.4-12.4c0.1-3.1-0.4-2.7-1.7-4.5c-0.3-0.4-0.4-0.5-0.7-0.8c-3.3-2.8-1.8-2.9,0.4-6.6
					l5.3-8.1c0.6-0.9,2.4-3.4,2.6-4.1c-1.5,0.1-3.3,1.5-4.9,1.8c-1.3,0.2-4.4-0.9-5.9-1.2c-3-0.6-8.7-1.7-11.5-2.7
					c-0.2-1.5-0.7-9.1,0.1-10.1c2-2.8,3-2.8,3.8-3.8l3.5-4.1c1.1-1.1,0.8-0.2,2.1-1.8c0.9-1.1,3.4-4.2,4.4-4.8
					c0.9-0.6,2.4-1.9,2.8-3c0.2-0.6-0.3-14-0.4-14.6c-0.1-1.4,0.1-3.2,0.5-4.5c0.4-0.7,0.1,0.5,0.5-0.7c0.4,0.7-0.1,0.1,0.5,0.7
					c0.7,0.7,2.2,1.5,3,2.3c1.7,1.9,1.5,1.3,2.1,2.1c1.4,1.8,0.3,1.1,3.7,3.1c-0.6-1.6-0.2-0.4-1.3-1.6l-2.2-2.8
					c-1.2-1.5-2.5-3-0.3-4.5l0.8,0.4l-0.4,1.1c0,0.1,0.1,0.1,0.1,0.3c0,0.1,0.2,0.2,0.3,0.2c-0.5,0-0.3-0.1-0.3,0.4
					c0.1,0.8,0.3,1.5,0.7,2.1c0.5,0.8,0.8,0.7,1.6,1.2c1.4,0.9,2.5,1.4,4,2.1l0.4,0.1l-0.1-0.6c-0.8-0.6-1.8-1.2-2.6-1.8l0.5-0.1
					l1.9,1.2l0.4-1.2c-1.1,0.1-1.1,0.2-1.8-0.4l1.8-0.1c1.1,0.1,0.5,0.3,1.4-0.3c-0.1-0.6,0.3,0-1.4-0.3c0.3-0.3,0.1-0.1,0.4-0.4
					l0.3-0.2c0,0,0.1-0.1,0.1-0.1l1.3-0.4l-0.1,1.3c0.4-0.4,0.8-0.6,1.1-0.9c-0.3,3.7-2.2,4.2-3.8,5.4c2.9,2.2,3.7,4.6,3.3,8.4
					c-0.5,3.9-3,15.7-4.2,19.5c-0.7,2.4-2.2,6.8-2.5,9c0.3-1.1,1.2-2.2,2-3l3.1,0.8c-0.2-2-0.8-4.4-0.9-6c0-1,0.4-1.8,0.9-2.8
					c3.3-0.1,5.2,1.2,8.1,1.5c-2.7-2.6,8.6,0.9,10.2-2.7c1.1-2.3-2.1-8.3-3.1-10.8c-1.9-5-4.5-10.5-6.1-15.6c-0.9-3-0.2-3.4,1.2-5.4
					c-0.3-0.5,0.2-0.1-0.6-0.3l1.9-1.3c0.8-0.5,1.3-0.8,2-1.3c0.1-2-1.1-4.7-2.2-5.7c-3.7-3.7-12.2-5.1-17.1-6.5
					c0.4-0.8,5.4-4.6,6.5-5.5c1.3-1.1,6-4.7,6.7-5.6l-12.8-5c-0.4-0.9,2.6-7,3-8c0.7-1.8,2.7-7,3.5-8.2l1.8-0.4c0.4,1,0.8,1,1.5,1.5
					l3.4,3.2c2.7,2.6,3.9,2,4.5,5.5l5.8,27.4c0,2.2-2.6,6.4-3.3,8.9c-0.5,1.6-0.9,3.3-1.3,4.9C99.3,365,99,365.7,98.8,366.3z
					 M57.5,405.5c0.4-6.2-1.5-7.6,4.5-12.2c1.4-1.1,4.3-5.3,6.2-6.6c1.5-1,2.4-2.4,3.6-3.8c1.5-1.6,1.1-2.6,1.2-6.2
					c0.2-4.4,0.5-9.7,0.4-14.1l3.5,2.5c1.2,0.9,2.2,1.6,3.3,2.5c3.3,2.5,3,2,5.1,6.2c1.7,3.3,1.6,1-0.3,8.4
					c-0.8,2.9-1.7,5.9-2.5,8.8c-1.6,5.9-1.6,7.5-3.8,13.2c-0.8,2.2-0.4,2.2-2.7,2.8c-1.2,0.3-3.4,1.2-4.5,1.1
					C68,407.7,61.6,405.8,57.5,405.5z M95.4,335.3c-1.3-3.3-1.8-1.7-1-5.8c0.3-1.8,0.9-4.9,1.4-6.4c1.1,2.3,2.6,12.2,3.4,15.6
					l2.4,11.7c0,0.8-0.7,2.5-1.6,3.2c-0.3-0.9-1.8-2.8-2.5-3.5c-2.9-2.6-8.8-5.5-12.4-5.7c0.6-1,5.2-4.6,6.6-5.8L95.4,335.3z"/>
				<path class="st19" d="M92.9,299.4c0.9,0.5,4,5,4.6,5.9c0.7,1.1,1.4,2,2.2,3.1c0.7,1,1.4,2,2.1,2.9c3.4,4.5,3.1,3.6,3.2,7
					l0.8,30.2c0.2,4.7-0.2,4.3-1.9,8.3c-1,2.4-2.1,4.9-3,7.2l0,0c0.4-0.2,0.8-0.4,1.3-0.6c4.7-2.1,13.4-7.3,15.5-7.9l-6.7-1.3
					c1.9-6.8,4.8-14.1,7.1-20.8c0.8-2.5,0.8-1.7-0.1-4.2c-0.9-2.4-5-15.1-6-16c-0.3-0.3-0.5-0.3-0.9-0.7l-17.5-13.9
					C93,299,93.2,298.6,92.9,299.4L92.9,299.4z"/>
				<path class="st20" d="M87.5,357.4l-0.8,0.3l2.5,0.1c-0.4,0.9-0.4,0.3-0.6,1.5c-0.2,0.9,0.3,1.3-0.5,1.2c0,0.1,0.1,0.4,0.1,0.5
					c0,0.1,0,0.2,0,0.2l-0.1,1.3c-0.3,3.7-2.2,4.2-3.8,5.4c2.9,2.2,3.7,4.6,3.3,8.4c-0.5,3.9-3,15.7-4.2,19.5
					c-0.7,2.4-2.2,6.8-2.5,9c0.3-1.1,1.2-2.2,2-3l3.1,0.8c-0.2-2-0.8-4.4-0.9-6l-1.1,1.6l0.6-5.3c1.2-0.6,2.8-1.5,4-2.2
					c1.7-1,2.1-1.8,3.7-0.7c-0.1,0-0.1,0.1-0.2,0.1l-0.4,0.1c-1.5,0.5,1.1-0.3-0.4,0.1c-1.5,0.5-1.2,0.6-2.5,1.4
					c-1,0.7-2.3,1.2-2.9,2.1c3.3-0.1,5.2,1.2,8.1,1.5c-2.7-2.6,8.6,0.9,10.2-2.7c1.1-2.3-2.1-8.3-3.1-10.8c-1.9-5-4.5-10.5-6.1-15.6
					c-0.9-3-0.2-3.4,1.2-5.4c-0.3-0.5,0.2-0.1-0.6-0.3c-0.9-0.5-0.2-1.6,0-2.8c-1.1,0.1-1.8-0.2-2.6-0.5l-3.2,0.4l0.5-0.3l0-0.4
					L87.5,357.4z"/>
				<path class="st21" d="M91.3,304c-0.9,0.5-1.6,3.1-2.2,4.4c-0.7,1.6-1.5,3.3-2,4.9l1.8-0.4c0.4,1,0.8,1,1.5,1.5l3.4,3.2
					c2.7,2.6,3.9,2,4.5,5.5l5.8,27.4c0.2-9.9-0.2-19.8-0.2-29.6c0-3.3,0.4-4.7-1.1-6.5c-0.7-0.8-0.9-1.3-1.6-2.1l-6.5-8.2
					c-0.9-1.2-1.1-1.3-1.4-2.3C92.3,302.4,91.8,303.1,91.3,304L91.3,304z"/>
				<path class="st22" d="M75.7,349.2c-0.4,0.2-0.8,0.4-1.2,0.7c-2,1.8-1.5,1.1-1.9,3.7c-0.3,2.2-0.6,4.4-0.9,6.6
					c0.4-0.7,0.1,0.5,0.5-0.7c0.4,0.7-0.1,0.1,0.5,0.7c0.7,0.7,2.2,1.5,3,2.3c1.7,1.9,1.5,1.3,2.1,2.1c1.4,1.8,0.3,1.1,3.7,3.1
					c-0.6-1.6-0.2-0.4-1.3-1.6l-2.2-2.8c-1.2-1.5-2.5-3-0.3-4.5l0.8,0.4c0.8,0.1,5.4,0.5,5.9,0.9l0.4-0.6l0.1-0.4
					c-1.3,0.4-1.2,0.4-2.4-0.1c-1.2-0.5-1-0.3-2.4-0.4c2-0.7,4.3-1.1,6.7-1l0.8-0.3c-2.5-1-6.7,0.9-9.6,1l0.5-0.3
					c0.6-2.1,6.6-4.6,11.3-2.6l0.8-0.3l-0.1,0.6l0.3,0c1.4,0.5,2,0.8,3.1,0.1c-0.3,1.3-0.1,0.4-1,1.3c0.8,0.3,1.5,0.5,2.6,0.5
					c0.1-2.8-4.5-5.4-6.6-6.9c-1-0.6-1.9-1.4-2.8-1.9c-0.7,0.4-1.6-0.1-2.5-0.4C77.5,346.5,78.4,349.1,75.7,349.2z"/>
				<path class="st23" d="M49,394.7c0.4-3,0-4,1.2-7c0.6-1.7,1.6-4.3,2-6l-1.8-0.5l-5,8c-0.9,1.2-1,1.4-1.1,3.1
					c-0.5,5-1.3,10.1-1.8,15.2c-0.5,5.1-1.2,10.4-1.9,15.5c-0.3,2.5-0.7,5.2-0.9,7.7c-0.3,3-1.2,5.9,0,6.6c0.6-0.8,6.6-32.2,8-38.4
					c0.2-1,0.4-1.9,0.6-2.8c0.2-1.2,0.2-1.7,1-2.3L49,394.7z"/>
				<path class="st24" d="M22.4,466.6c-1.1,2.1-2.5,2.8-3.5,3.7c-1.1,0.9-2.5,2.7-3.5,3.8c-0.9,1-2.5,2.9-3.4,3.7l-1.9,1.7
					c-0.6,0.7-1.1,1.2-1.8,1.9c-1.2,1.3-2.2,2.4-3.4,3.7c-0.5,0.5-1.7,1.4-3.7,3.6c-2.6,2.9-2.8,3.5-5.5,5.6c-0.2,0.2-0.8,0.7-1,0.9
					c-1,1-0.7,0.1-0.6,1.3L16,481.3c5.1-3.6,2.8-1.4,5.5-6.6c0.9-1.7,1.9-3.8,2.6-5.5c0.8-1.8,1.9-3.8,2.5-5.6L22.4,466.6z"/>
				<path class="st25" d="M77.3,445.5c0.9-1.3,1.4-6.8,1.8-8.8c0.3-1.9,1.2-2,2.4-2.9c0.8-0.6,2.2-1.8,3.3-1.8c-0.6-2-5-5.3-6.7-6.8
					c-0.8-0.7-1-0.6-1.9-1.5l-0.4-0.4c0-0.1-0.1-0.1-0.1-0.1c0.8,3.6,3.8,5.5,2.6,8.1c-0.7,1.6-1.1,0.8-2.1,0.5
					C76.2,435.7,76.1,441.9,77.3,445.5z"/>
				<path class="st26" d="M94.7,406c0.7-0.9,0.1-0.6,1.6-1c4-1,9.6-1.9,12.7-4.4c-0.5-0.3-0.5-0.3-1-0.7c-1-0.8-0.3-0.7-3.9-0.2
					c-2,0.3-10.2,1.3-11.4,1.7c-1.4,0.5-3.5,1.5-4.1,2.9l2,0.4l-0.9,0.7l4.8,0C94.8,405.8,94.7,405.2,94.7,406L94.7,406z"/>
				<path class="st27" d="M78.5,360.7l4.7,3.2l0.1-0.2l1.8-0.1c-0.8-1.2-1.3-1.6-0.8-3.7c-0.5-0.4-5.1-0.7-5.9-0.9l-0.4,1.1
					c0,0.1,0.1,0.1,0.1,0.3C78.2,360.6,78.4,360.7,78.5,360.7z"/>
				<path class="st28" d="M85.2,396.5c0-1,0.4-1.8,0.9-2.8c0.6-0.9,1.9-1.4,2.9-2.1c1.3-0.9,1-1,2.5-1.4c1.5-0.5-1.1,0.4,0.4-0.1
					l0.4-0.1c0,0,0.1,0,0.2-0.1c-1.6-1-2-0.3-3.7,0.7c-1.2,0.7-2.8,1.6-4,2.2l-0.6,5.3L85.2,396.5z"/>
				<path class="st29" d="M78.4,358l-0.5,0.3c2.9,0,7.1-2,9.6-1l2.8-0.5c-0.8-1-4.8-1-6.2-0.7C82.2,356.6,80.2,357.3,78.4,358z"/>
				<path class="st30" d="M83,422.2c1.1,0,3.9-0.1,4.6,0.4c1.1-0.2,1.7-0.5,2.7-1c1.1-0.5,1.5-0.6,1.9-1.6c-1.4,0.3-4.1,1.6-5.1,1.7
					c-2,0.2-4.3-0.2-6.4,0C81.5,422,82.8,422,83,422.2z"/>
				<path class="st31" d="M87.9,428.9c0.3-0.7,0.4-2.7,0.2-3.6c-0.2-1.1-1-1.2-1.5-2.3l-4.2-0.7l0.9,0.8c0.9,0.5,2.3,1,2.9,1.6
					C88.2,426.6,87.9,427.6,87.9,428.9z"/>
				<path class="st32" d="M84.3,360.1c-0.6,2.1,0,2.5,0.8,3.7c1.1,0.1,0.5,0.3,1.4-0.3c-0.1-0.6,0.3,0-1.4-0.3
					c0.3-0.3,0.1-0.1,0.4-0.4l0.3-0.2c0,0,0.1-0.1,0.1-0.1c-0.3-0.2-0.4-0.3-0.5-0.5c0.1-1,0.2-1.7,1.2-1.6l-0.1-0.6
					c-0.1,0-1,0-1.1,0c-0.9-0.1-0.2,0.3-0.6-0.3L84.3,360.1z"/>
				<path class="st33" d="M45.1,441.4c0,0,0.1-0.1,0.2-0.7c0-0.3,0-0.3-0.1-0.6c-0.9-0.1-2.1-0.7-2.9-1.3c-0.6-0.4-0.8-0.6-1.5-0.9
					c-1.6-0.8-1.2-0.6-1.4-0.1c1,0.7,1.8,1.1,2.9,1.8C43.3,440.2,44.2,440.8,45.1,441.4z"/>
				<path class="st34" d="M85.8,362.4l1.3-0.4c0.2-0.9,0.4-1.2-0.3-1.7l-0.4-0.1c-1-0.1-1.1,0.6-1.2,1.6
					C85.5,362.1,85.6,362.1,85.8,362.4z"/>
				<path class="st35" d="M86.6,423l0.9-0.3c-0.7-0.5-3.5-0.4-4.6-0.4l-0.6,0.1L86.6,423z"/>
				<path class="st36" d="M83.2,363.8l-0.1,0.2l-0.4,0.2l1.9,1.2l0.4-1.2C83.9,364.3,83.9,364.4,83.2,363.8z"/>
				<path class="st37" d="M84.8,359l-0.1,0.4c0.4,0.6-0.3,0.2,0.6,0.3c0.1,0,1,0,1.1,0l0-0.8L84.8,359z"/>
				<polygon class="st38" points="89.8,355.4 89.8,355.9 90.3,356.1 90.5,355.8 90.6,355.1 				"/>
				<path class="st39" d="M32.6,370.3l-0.3-0.1c0,0.1-0.6-0.6,0,0.5L32.6,370.3z"/>
				<path class="st40" d="M84.5,366.6l0.4,0.1l-0.1-0.6C85,366.8,85.1,366.7,84.5,366.6z"/>
			</g>
		</g>
		<g>
			<path class="st0" d="M103.6,363.2c-0.5,0-1,0-1.5,0.2c0.5-0.2,0.9-0.4,1.5-0.7V363.2z M-143.9,490.9l10.1,15.5l2.6-2.7h25.2v1.9
				h24.2v4.7v0h14.2l49.1,26.7v4.5L7,536.2v-2.3H-8.4v-25.2l39.3-57.6H32v-17.8l-1.4-0.9c-1.4-0.8-2.9-1.7-4.4-2.7
				c-1.4-0.9-3.2-1.7-4.3-2.7l-1-12.2c-0.1-2-0.3-2.1,0.6-3.6c4.5-7,9.1-15.1,13.5-22.2c1.2-1.9,2.3-3.6,3.4-5.5
				c1-1.6,2.5-3.9,3.3-5.5l8.6,3.1l6.3,1.7c1.2,0.5,0.9,0.1,1.2,1c2.4,0.7,1,1.4,4.8-2c0.7-0.6,1.6-1.4,2.2-2
				c4.2-5.1,4.3-2.2,5.2-7.7c0.3-1.7,0.5-6.2,1.3-7.4c-0.1-1.4,0.1-3.2,0.5-4.5c0.3-2.2,0.6-4.4,0.9-6.6c0.4-2.6-0.1-1.9,1.9-3.7
				c0.4-0.4,0.8-0.6,1.2-0.7l3.6-3.1l-1.2-0.5l2.2-0.1c0.4-0.8,5.4-4.6,6.5-5.5c1.3-1.1,6-4.7,6.7-5.6l-12.8-5
				c-1.2,0.4-3.2-0.7-4.7-1.3c-1.1-0.4-3.9-1.2-4.6-1.9l2.6-7.6c-0.3,0.3-0.7,0.5-1,0.9c-0.3,0.4-0.4,0.7-0.8,1.1
				c-3.6,4.2-2,2.5-6.6,1.2l-111.2-39c-0.4,1.6-4.6,8.8-5.7,11.3l-16.9,32v5.5l96.2,32.8L25,375.7l11.4,4.2c-2.3,2.9-3,2.2-6.5,7.4
				l-4.2,6.3c-0.3,0.4-0.4,0.6-0.7,1.1l-1,1c-0.1,0.7-7.3,11.4-8.7,13.5c-2,2.9-1.6,1.9-1,5.9c0.6,4.4,1.2,8.7,1.8,13.1
				c0.4,3,1.8,10.5,1.7,13l-22-9.9l-11,11.1c-9.3-1.6-19.5-2.4-28.6-3.8c-4.4-0.7-4.8,2-8,2.2c-0.6,0.7-44.9,21.7-49.3,23.6
				c-8.3,3.7-16.4,7.9-24.7,11.7c-3.2,1.5-16.3,8.7-21.6,11.4l-2.4,3.6 M100.3,288.6L100.3,288.6L100.3,288.6L100.3,288.6z
				 M-72.5,335.6l0.3,0l-0.3,0.7V335.6z"/>
			<g>
				<g>
					<polygon class="st1" points="91,356.1 90.8,355.8 90.5,355.8 90.3,356.1 					"/>
					<path class="st1" d="M61,380l-0.4-0.1l-0.1,0.4c0,0,0.1,0.1,0.1,0.1L61,380z"/>
				</g>
				<g>
					<path class="st2" d="M82.3,364.3l0.5-0.1l0.4-0.2l-4.7-3.2c-0.5,0-0.3-0.1-0.3,0.4c0.7,0.6,1.3,1.1,2,1.7
						C80.8,363.3,81.5,363.9,82.3,364.3z"/>
					<path class="st2" d="M86.4,359.7l0.1,0.6l0.4,0.1c-0.2-1.1,0.1-0.3,0.7-0.5c0,0,0.2,0,0.2,0c0,0,0.1,0,0.2,0
						c-0.6-0.7-0.4-0.6-1.5-0.8L86.4,359.7z"/>
				</g>
				<g>
					<path class="st3" d="M84.5,366.6c0.6,0.1,0.5,0.2,0.4-0.5c-0.8-0.6-1.8-1.2-2.6-1.8c-0.8-0.4-1.5-1-2.1-1.5
						c-0.7-0.6-1.3-1.1-2-1.7c0.1,0.8,0.3,1.5,0.7,2.1c0.5,0.8,0.8,0.7,1.6,1.2C82,365.4,83,365.9,84.5,366.6z"/>
					<path class="st3" d="M91,356.1c-0.5,1.2,0.1,0.2-0.7,1.2l-0.5,0.3l3.2-0.4c0.8-0.9,0.7,0,1-1.3c-1.1,0.7-1.7,0.4-3.1-0.1
						L91,356.1z"/>
				</g>
				<g>
					<path class="st4" d="M78.4,358c1.8-0.7,3.8-1.4,5.7-1.8c1.3-0.3,5.3-0.3,6.2,0.7l0,0.4c0.8-1,0.2,0,0.7-1.2l-0.7,0l-0.5-0.2
						l0-0.4C85.1,353.4,79.1,356,78.4,358z"/>
					<path class="st4" d="M75.7,349.2c2.7-0.1,1.8-2.7,8-0.8c0.9,0.3,1.8,0.8,2.5,0.4l-6.9-2.7L75.7,349.2z"/>
				</g>
				<g>
					<path class="st5" d="M45.1,375.9c0.8-1,2.5-4,3.1-5.3l-2.2-0.7l-3.1,5.3C43.4,375.6,44.2,375.9,45.1,375.9z"/>
					<path class="st5" d="M51.2,378.2c0.9-0.7,2.9-4.2,3.3-5.3c-0.9-0.4-1.2-0.6-2.4-0.6c-0.7,1.9-2.2,3.5-2.9,5.5L51.2,378.2z"/>
				</g>
				<g>
					<path class="st6" d="M45.1,375.9c-0.9,0.1-1.7-0.3-2.3-0.7l3.1-5.3l2.2,0.7C47.6,371.9,45.9,374.9,45.1,375.9z M40.5,376
						c0.7,0.6,3.8,1.7,4.9,1.5c1.1-0.2,1.1-0.6,1.6-1.6c3.4-6.4,5.2-6-2-8C44.7,369.4,41.3,374.2,40.5,376z"/>
					<path class="st6" d="M51.2,378.2l-2-0.5c0.7-2,2.2-3.5,2.9-5.5c1.1,0.1,1.5,0.3,2.4,0.6C54.1,374,52.1,377.5,51.2,378.2z
						 M47.4,378.1c0.8,0.8,3.4,1.9,4.6,1.6c1-0.2,1.9-2.3,2.6-3.5c0.5-0.9,2.2-3.1,1.8-4c-0.3-0.8-3.4-1.6-4.3-1.6
						C50.9,370.9,47.4,376.8,47.4,378.1z"/>
				</g>
				<g>
					<path class="st7" d="M61,380l-0.4,0.4c0,0-0.1-0.1-0.1-0.1l0.1-0.4l2.2-5.8c-2-1.2-2.3,0.7-3.3,1.7l-2.1,2.4
						c-0.5,0.6,0,0.2-0.7,0.7c0.5-1.6,2-4.8,2.1-6.3l-1.5-0.4l-2.9,8.7l1.7,0.5c0.8-0.7,3.2-4,4.2-4.7l-2.1,5.5l2,0.6
						c0.8-1.3,3.8-4.5,4.9-5.6c0.6-0.6,1.1-1.3,1.5-1.9l-1.3-0.5C64.3,375.7,61.7,378.9,61,380z"/>
					<path class="st7" d="M32.6,370.3l-0.4,0.4c-0.5-1.1,0-0.4,0-0.5l2.1-5.9l-1.7-0.5c-0.2,2.4-2.3,6.3-2.8,8.8l1.6,0.5
						c0.3-0.2,0.9-0.7,1.2-1.1l3.1-3.5l-2.1,5.5c1.7,0.3,1.7,0.9,2.8-0.5c0.7-0.9,0.9-1.3,1.8-2.1c1-0.8,1.1-1.4,1.9-2.3
						c0.9-1,1.3-0.7,1.9-2.1l-1.2-0.4c-1.2,0.7-1.7,1.8-2.6,2.7c-1.3,1.2-0.4,0.9-2.4,2.6l2.3-6.2l-1.6-0.5c-0.3,0.5-0.5,1-0.9,1.5
						C34.7,367.8,33.7,368.6,32.6,370.3z"/>
					<path class="st7" d="M44.1,367.6l-1.3-0.4c-0.7,0.6-4.6,7-5,8.1l1.5,0.4L44.1,367.6z"/>
				</g>
				<g>
					<path class="st8" d="M99.9,372.3c0-0.2-0.1-0.4-0.1-0.7c-0.6-0.6-1-1.4-1.2-2.2c-0.2,0.1-0.4,0.2,0,1.4c0.2,0.6,0.4,1.3,0.6,2
						l6.3,18.9c0.7,2.7-3.8,1.8-2.8,6.6l1.6,0.2c4.5-0.7,1.7-0.9,5,0.5c-0.1-4.1,0.7-3.8-1.2-7.6l-6.5-14.7c0-0.1-0.1-0.3-0.1-0.4
						C100.8,374.8,100.3,374.5,99.9,372.3L99.9,372.3z"/>
					<path class="st8" d="M86.9,360.3c0.7,0.5,0.4,0.8,0.3,1.7l-0.1,1.3c0.4-0.4,0.8-0.6,1.1-0.9l0.1-1.3c0-0.1,0-0.2,0-0.2
						c0-0.1-0.1-0.4-0.1-0.5l-0.2-0.6c-0.1,0-0.2,0-0.2,0c0,0-0.1,0-0.2,0C87,360,86.6,359.2,86.9,360.3z"/>
				</g>
				<g>
					<path class="st9" d="M52.1,381.7c-0.3,1.7-1.3,4.3-2,6c-1.1,3-0.7,4-1.2,7l-3.5,46.7l-0.7,9.9c0.5-0.8,0.4-1,0.6-2.3
						c0.1-0.8,0.2-1.5,0.3-2.3c0.2-1.4,0.2-3.3,0.8-4.5v-1c0.1-2.6,5.6-39,6.5-44.8c0.5-3.1,3.3-9.8,4.7-12.6c-0.3-0.9,0-0.5-1.2-1
						L52.1,381.7z"/>
					<path class="st9" d="M75.7,423c0.1,0,0.1,0.1,0.1,0.1l0.4,0.4c0.9,1,1.1,0.8,1.9,1.5c1.6,1.5,6.1,4.9,6.7,6.8
						c1.7-0.7,3.1-1.1,3.1-3c0-1.3,0.3-2.3-1.7-4.3c-0.6-0.6-2-1.1-2.9-1.6l-0.9-0.8l0.6-0.1c-0.2-0.2-1.5-0.2-2.3-0.5
						c2.1-0.2,4.3,0.1,6.4,0c1-0.1,3.7-1.4,5.1-1.7c0.9-0.7,1.2-1.9,1.6-3c0.5-1.4,0.3-2-0.5-3.2l-1.8,1.1c-8.2,3.9-4.4,4-15.8,4.9
						C75.3,420.9,74.8,422.1,75.7,423z"/>
					<path class="st9" d="M79.3,346.1l6.9,2.7c0.9,0.5,1.8,1.2,2.8,1.9c2.2,1.4,6.7,4.1,6.6,6.9c-0.1,1.2-0.8,2.3,0,2.8l1.9-1.3
						c0.8-0.5,1.3-0.8,2-1.3c0.1-2-1.1-4.7-2.2-5.7c-3.7-3.7-12.2-5.1-17.1-6.5l-2.2,0.1L79.3,346.1L79.3,346.1z"/>
				</g>
				<g>
					<path class="st10" d="M57.5,405.5c4.2,0.3,10.5,2.2,14.1,2.6c1.1,0.1,3.3-0.7,4.5-1.1c2.3-0.6,1.9-0.6,2.7-2.8
						c2.2-5.7,2.2-7.3,3.8-13.2c0.8-2.9,1.7-5.9,2.5-8.8c2-7.3,2-5,0.3-8.4c-2.1-4.2-1.8-3.7-5.1-6.2c-1.1-0.8-2.1-1.6-3.3-2.5
						l-3.5-2.5c0.1,4.4-0.2,9.7-0.4,14.1c-0.2,3.6,0.3,4.6-1.2,6.2c-1.2,1.3-2.1,2.7-3.6,3.8c-1.9,1.3-4.8,5.5-6.2,6.6
						C56,397.9,57.8,399.3,57.5,405.5z"/>
					<path class="st10" d="M95.4,335.3l-3.7,3.3c-1.4,1.2-6,4.8-6.6,5.8c3.6,0.2,9.5,3,12.4,5.7c0.7,0.7,2.2,2.5,2.5,3.5
						c0.9-0.7,1.6-2.4,1.6-3.2l-2.4-11.7c-0.8-3.4-2.3-13.3-3.4-15.6c-0.5,1.5-1.1,4.7-1.4,6.4C93.7,333.7,94.1,332,95.4,335.3z"/>
					<path class="st10" d="M73.9,417.9c3.4-0.3,6.6-1.2,9.9-1.7c0-0.1-0.1-0.2-0.1-0.2c0,0-0.1-0.2-0.1-0.2c-1.1-2-0.3-2.7-0.2-4.8
						c-1.2-0.1-2.5,0.1-3.6,0.2c-1.8,0.1-2.2-0.1-3,1.3C76.1,413.7,74.2,416.7,73.9,417.9z"/>
				</g>
				<g>
					<path class="st11" d="M-5.9,518.8c-0.5-0.5-0.8-1.1-1.3-1.6l-5.9-6.3c0-0.1-0.1-0.1-0.2-0.1l3.3,27.5c-3.3-1.4-12-7.6-14.9-8.6
						l5.4,13l65.1,8.1c-3.8-1.5-34.5-13.2-35.4-14l-11.7-13c-0.6-0.6-0.8-1.2-1.4-1.8l-2.2-2.5C-5.4,519.2-5.5,519.2-5.9,518.8
						L-5.9,518.8z"/>
					<path class="st11" d="M-5.9,496.5c0-1.3-0.4-0.3,0.6-1.3c0.2-0.2,0.8-0.7,1-0.9c2.6-2.1,2.8-2.7,5.5-5.6c2-2.2,3.3-3.1,3.7-3.6
						c1.2-1.3,2.2-2.4,3.4-3.7c0.6-0.7,1.1-1.2,1.8-1.9l1.9-1.7c1-0.7,2.5-2.7,3.4-3.7c1-1.1,2.4-2.9,3.5-3.8c1-0.9,2.4-1.6,3.5-3.7
						l-50.7,36c-1,0.8-2.4,1.9-3.6,2.2c-0.1,4.1-2.9,14.6-2.5,17.3c1.8,1.3,14.5,7.1,17.6,8.7c0.1-3.4-0.9-18.9-1.3-22.9
						c-0.2-3.1-0.6-2.6,1.5-4.1l10-6.7C-5.8,496.6-6.2,497.2-5.9,496.5z"/>
				</g>
				<g>
					<path class="st12" d="M57.8,383.9c-1.4,2.8-4.3,9.5-4.7,12.6c-0.9,5.8-6.3,42.2-6.5,44.8c1.1-0.4,5.2,2.1,6.2,2.6l9.4,4.5
						c1.8,0.8,1.5,1,3.2,0.2c2.1-1,4.4-2.3,6.4-2.9c0.2-3.8-0.5-8.5-0.4-12.4c0.1-3.1-0.4-2.7-1.7-4.5c-0.3-0.4-0.4-0.5-0.7-0.8
						c-3.3-2.8-1.8-2.9,0.4-6.6l5.3-8.1c0.6-0.9,2.4-3.4,2.6-4.1c-1.5,0.1-3.3,1.5-4.9,1.8c-1.3,0.2-4.4-0.9-5.9-1.2
						c-3-0.6-8.7-1.7-11.5-2.7c-0.2-1.5-0.7-9.1,0.1-10.1c2-2.8,3-2.8,3.8-3.8l3.5-4.1c1.1-1.1,0.8-0.2,2.1-1.8
						c0.9-1.1,3.4-4.2,4.4-4.8c0.9-0.6,2.4-1.9,2.8-3c0.2-0.6-0.3-14-0.4-14.6c-0.8,1.2-1,5.7-1.3,7.4c-0.8,5.5-1,2.6-5.2,7.7
						c-0.5,0.7-1.5,1.4-2.2,2C58.8,385.3,60.2,384.5,57.8,383.9z"/>
					<path class="st12" d="M39.4,437.9c0.2-0.5-0.2-0.8,1.4,0.1c0.7,0.4,0.9,0.5,1.5,0.9c0.8,0.5,2,1.2,2.9,1.3
						c0,0.3,0.1,0.3,0.1,0.6c-0.1,0.6-0.2,0.7-0.2,0.7l0.4,0l3.5-46.7l0-1.2c-0.8,0.6-0.8,1.1-1,2.3c-0.2,1-0.4,1.8-0.6,2.8
						c-1.4,6.2-7.4,37.6-8,38.4c-1.2-0.7-0.3-3.6,0-6.6c0.3-2.5,0.6-5.2,0.9-7.7c0.7-5.1,1.4-10.4,1.9-15.5
						c0.5-5.1,1.3-10.2,1.8-15.2c0.2-1.7,0.2-1.9,1.1-3.1l5-8l-8.6-3.1c-0.8,1.6-2.3,3.9-3.3,5.5c-1.1,1.9-2.2,3.6-3.4,5.5
						c-4.4,7.1-9,15.2-13.5,22.2c-0.9,1.5-0.8,1.6-0.6,3.6l1,12.2c1.1,1,2.9,1.9,4.3,2.7c1.5,0.9,3,1.8,4.4,2.7l6.6,4.1
						C38,437.1,38.6,437.4,39.4,437.9z"/>
				</g>
				<g>
					<path class="st13" d="M-98.4,510.1c-1.3-1.7-5.3-3.4-7.1-5c-0.3-0.6,0.5-3.2-0.6-4.6l-8-9.6c-0.4-0.4-0.4-0.6-0.8-1.1l-1.7-1.9
						c0.5-0.7,22.6-12.8,25.3-14.3c2.1-1.1,4.2-2.3,6.3-3.4l19.1-10.2c0.5-1,1.4-2.7,1.7-3.8l-82.6,36.4c0.2,2.1,2.3,11.3,3.2,13
						L-98.4,510.1z"/>
					<path class="st13" d="M84.8,359l1.6-0.1c1.1,0.3,0.9,0.1,1.5,0.8l0.2,0.6c0.8,0.2,0.3-0.3,0.5-1.2c0.2-1.2,0.2-0.6,0.6-1.5
						l-2.5-0.1c-2.5-0.2-4.7,0.3-6.7,1c1.4,0,1.2-0.1,2.4,0.4C83.6,359.5,83.5,359.4,84.8,359z"/>
				</g>
				<g>
					<path class="st14" d="M-98.4,510.1l31.9,3.1c-1.5-6-6.4-21.5-8.4-28.1c-1.3-4.2-1-2.9,0.6-6.6l8.5-18.5L-85,470.3
						c-2,1.2-4.2,2.3-6.3,3.4c-2.7,1.5-24.8,13.6-25.3,14.3l1.7,1.9c0.4,0.4,0.4,0.6,0.8,1.1l8,9.6c1.2,1.4,0.3,4,0.6,4.6
						C-103.7,506.7-99.7,508.4-98.4,510.1z"/>
					<path class="st14" d="M22.1,461c1.5-0.9,7-3.9,7.8-4.8c0.5-0.5,3.7-7.4,4-8.3c-1.2,0.3-1.5,1.1-2.4,1.5
						c-0.9,0.4-2.7,0.1-3.8,0.1c-3.7-0.1-22.5-1.6-23.3-1.2l-28.6,38.3c-0.7,0.9-1.2,1.7-1.9,2.7L22.1,461z"/>
					<path class="st14" d="M-6.1,442.1c0.2,0.4,0.8,1.3,1.1,1.7c0.5,0.7,0.8,1,1.2,1.7c-0.7,3-12.1,23.8-13.2,27
						c1.1-1.1,1.8-2.1,2.7-3.3c5.9-7.8,12-16.5,18.1-24c4.7,0.1,10.2,0.6,14.9,1c4.3,0.4,10.3,1.5,13.7-1l-29.8-1.7
						C-4.2,443.3-3.9,442.3-6.1,442.1z"/>
				</g>
				<g>
					<path class="st15" d="M-34.8,369.9c0.6,0.2,1.2,0.5,1.8,0.8l18.7,8.1c1.7,0.7,6.1,2.9,7.6,3.2l-7.5,52.9c0.7-0.3,1-0.5,1.5-1.1
						c0.6-0.7,0.3-0.5,1-1.1c2.3-2.1,0.8-0.3,3.3-3c0.7-0.8,2.3-1.7,3.3-2.9c3.1,1.3,17.5,9.8,19.4,10.5c0-1.6-2.1-13-2.5-15.7
						c-0.4-2.6-0.8-5.3-1.3-7.9c-0.9-5.4-1.2-4.3,0.6-6.8l7.6-10.8c0.5-0.7,0.5-0.8,0.9-1.4c0.7-0.9,2.4-3.1,2.8-4
						c0.4-1.2,1.1-6.5,1.2-7.9c-1.1-0.2-7.5-3.2-7.8-4c-1.1-2.4-1.5-6.7-2.7-9.1l-49.8-0.9L-34.8,369.9z"/>
					<path class="st15" d="M30.8,251.1c1,1.2,37.4,19.7,44.5,23.6c9.1,5.1,6.4,2.9,15,8.9c3.3,2.3,6.8,5.3,10,7.2l-1-1
						c-0.6-0.5-0.5-0.4-1-0.8l-14-11.9c-0.5-0.5-0.6-0.4-1.1-0.8c-0.6-0.4-0.4-0.5-0.9-0.9c-0.4-0.4-0.6-0.4-1-0.8L65.2,261
						c-3.7-2.9-9.3-7.9-13.1-11.1c-5.3-4.5-3.7-4-9.8-2.1C38.6,249,34.6,250.1,30.8,251.1L30.8,251.1z"/>
					<path class="st15" d="M84.6,299.2c-2.4,1.4-9.9,7-12.8,9l-8.4,5.8c-1,0.3-13.2-4-16.5-4.7l16,9c1.8,0.9,3.6,2.2,5.4,2.8
						c0.3-0.3,0.6-0.5,0.9-0.9c2.4-2.8,3.2-2.7,4.2-3.9c0.7-0.8,0.5-1.2,1.6-1.5l0,8.5c0.8,0.3,0.7,0.2,1.5,0.8L84.6,299.2z"/>
					<path class="st15" d="M95.1,298c0,0.1,0.1,0.1,0.1,0.2c0,0,0.1,0.1,0.1,0.2l8.1,5.7c0.8,0.5,1.3,1,2.1,1.5
						c0.7,0.4,1.2,0.8,2,1.4c4.6,3.5,5.6,2.6,7,7.2l4.7,16.2l2.8,0.7l-11.5-34.5c-0.6,0.8-0.8,3.7-1.6,4.6L95.1,298z"/>
					<path class="st15" d="M78.5,327.5c2.6-3.3,11.6-26.7,13.1-30.7c-1.2,0.6-2.4,1.3-3.6,2c-1.8,1.1-1.9,0.7-2.5,3L78.5,327.5z"/>
				</g>
				<g>
					<path class="st16" d="M-36.9,368.7l49.8,0.9c1.2,2.4,1.6,6.8,2.7,9.1c0.4,0.9,6.7,3.8,7.8,4c-0.1,1.4-0.7,6.7-1.2,7.9
						c-0.3,0.9-2.1,3.1-2.8,4c-0.5,0.7-0.5,0.8-0.9,1.4L11,406.9c-1.8,2.5-1.5,1.4-0.6,6.8c0.4,2.6,0.9,5.2,1.3,7.9
						c0.4,2.7,2.5,14.1,2.5,15.7c-1.9-0.7-16.3-9.2-19.4-10.5c-1,1.2-2.6,2.1-3.3,2.9c-2.4,2.7-0.9,0.9-3.3,3
						c-0.7,0.6-0.4,0.4-1,1.1c-0.5,0.6-0.8,0.8-1.5,1.1l7.5-52.9c-1.5-0.3-5.9-2.4-7.6-3.2l-18.7-8.1c-0.6-0.3-1.2-0.5-1.8-0.8
						L-36.9,368.7z M-51.7,440.6c3.2-0.2,3.6-2.9,8-2.2c9.1,1.5,19.4,2.2,28.6,3.8l11-11.1l22,9.9c0.1-2.5-1.3-10.1-1.7-13
						c-0.6-4.4-1.2-8.7-1.8-13.1c-0.6-4-1-2.9,1-5.9c1.4-2.1,8.6-12.8,8.7-13.5c0.6-2.7,1.7-5.6,2.4-8.4c0.3-1.1,1-3.3,0.6-4.3
						c-0.3-0.7-2.3-1.8-3.3-2.2c-5.8-2.6-5.4-2.2-5.8-4.9c-0.2-1.6-1-8.4-1.7-9.1c-0.8-0.7-45.7-2.5-53.1-3l-18.1-0.9l-48.1,89
						L-51.7,440.6z"/>
					<path class="st16" d="M76.5,324.2c-0.8-0.6-0.8-0.5-1.5-0.8l0-8.5c-1,0.3-0.9,0.7-1.6,1.5c-1,1.2-1.8,1.2-4.2,3.9
						c-0.3,0.3-0.6,0.6-0.9,0.9c-1.7-0.6-3.6-1.9-5.4-2.8l-16-9c3.3,0.6,15.4,4.9,16.5,4.7l8.4-5.8c2.9-2,10.4-7.6,12.8-9
						L76.5,324.2z M95.1,298l14.1,3.2c0.7-0.9,0.9-3.8,1.6-4.6l11.5,34.5l-2.8-0.7l-4.7-16.2c-1.4-4.5-2.3-3.7-7-7.2
						c-0.8-0.6-1.3-1-2-1.4c-0.8-0.5-1.4-1-2.1-1.5l-8.1-5.7c0,0-0.1-0.1-0.1-0.2C95.2,298.2,95.2,298.1,95.1,298L95.1,298z
						 M78.5,327.5l7-25.8c0.7-2.3,0.7-1.9,2.5-3c1.2-0.7,2.4-1.4,3.6-2C90.1,300.8,81,324.2,78.5,327.5z M30.8,251.1
						c3.8-1.1,7.8-2.1,11.6-3.3c6-1.9,4.4-2.4,9.8,2.1c3.8,3.2,9.4,8.2,13.1,11.1l16.1,13.6c0.4,0.4,0.6,0.4,1,0.8
						c0.5,0.4,0.4,0.4,0.9,0.9c0.5,0.4,0.6,0.3,1.1,0.8l14,11.9c0.5,0.4,0.4,0.3,1,0.8l1,1c-3.2-1.9-6.7-4.8-10-7.2
						c-8.6-6-5.9-3.8-15-8.9C68.2,270.8,31.8,252.3,30.8,251.1z M65.4,322c4.6,1.2,3,3,6.6-1.2c0.3-0.4,0.4-0.7,0.8-1.1
						c0.3-0.4,0.7-0.6,1-0.9l-2.6,7.6c0.7,0.7,3.6,1.5,4.6,1.9c1.5,0.5,3.5,1.7,4.7,1.3c-0.4-0.9,2.6-7,3-8c0.7-1.8,2.7-7,3.5-8.2
						c0.5-1.6,1.3-3.3,2-4.9c0.6-1.3,1.3-4,2.2-4.4c-0.2-0.7,0.3-1.5,0.6-2.2c0.4-0.8,0.7-1.6,1-2.4c0.3-0.8,0.1-0.4,0.6-0.7
						l17.5,13.9c0.4,0.3,0.6,0.3,0.9,0.7c1,1,5.1,13.7,6,16c0.9,2.5,0.9,1.7,0.1,4.2c-2.2,6.7-5.2,14-7.1,20.8l6.7,1.3
						c0.3-2.1,1.9-5.9,2.6-8c0.9-2.6,1.7-5.2,2.6-7.9c2.9-8.5,3-5.1-0.7-15.7c-1.3-3.7-10.2-30.2-10.9-31.2
						c-3.5,0.8-1.2,1.4-5.3-0.1c-4.5-1.6-2.4-1.4-4.6-3l-9-8.1c-0.4-0.4-0.6-0.5-1-0.8l-7-6.1c-0.7-0.5-0.3-0.3-0.9-0.9l-12.1-10.4
						c-0.6-0.6-0.4-0.4-1-0.8l-5.2-4.5c-0.7-0.5-0.4-0.3-1-0.9l-9.2-7.6c-2.8-2.3-8.4-7.3-11.7-7.2L5.9,257.7
						c-2.6,1.1-1.9,0.3-3.1,2.7c-3.5,7.1-9,17.2-11.7,23.5l18.5,9.5c6.2,3.2,12.3,6.2,18.6,9.5L65.4,322L65.4,322z"/>
					<path class="st16" d="M6.7,330.4c1.2-1.3,0.4-0.9,2.6-2.9c0.7-0.6,1.1-1.3,1.7-2c0.7-0.9,1.2-0.9,1.9-1.8l3.6-3.8l-5.9,18.5
						l-8.2-2.9c0-0.1-0.1-0.1-0.2-0.1L6.7,330.4z M-22.8,335.3c0.6-1.2,1.7-2.8,2.5-4.1c3-5.1,15.4-25.2,16.9-28.3l-7.3-2.4
						c-0.6,1.5-2,3.5-2.9,5l-18.6,31c-0.8,1.3-1.1,1.4-1.4,2.5c3.6,0.8,17.1,5.9,22.3,7.5c2.3,0.7,2.6,1.5,3.9-0.2l5.7-6.3l9.8,3.5
						l-2.7,8.6l8.2,2.8l12.6-42c-2.4-0.2-6.6-2.4-9.1-2.9c-0.5,0.1-4.3,4.6-5.3,5.6c-0.7,0.8-1.2,0.8-1.9,1.5
						c-1.2,1.3-2.3,2.5-3.5,3.9l-2.7,2.8c-2.2,1.7-4.1,4.1-6.2,6.4c-0.8,0.9-1,0.8-1.8,1.6c-1,0.9-6.2,6.6-6.8,7.6
						c-1.9-0.4-4.3-1.4-6.2-2C-18,337.2-22.1,335.8-22.8,335.3z"/>
					<path class="st16" d="M-52.7,325c0.7-1.6,2.5-4.2,3.4-5.8l3.5-5.9c2,0.4,8.8,2.7,10.3,3.8c0,1.9-1.6,3.8-2.5,5.4
						c-4,6.7-2.6,6.7-8.8,4.5C-48.5,326.5-51.5,325.7-52.7,325z M-42.7,308.4c0.7-1.7,1.9-3.3,2.9-5.1c0.9-1.4,2.3-3.6,2.8-5
						c1.7,0.4,3.7,1.2,5.4,1.8c6.3,2.1,6,1.3,2.7,7c-0.7,1.1-1.9,3.6-3,4.1C-33.6,312.3-40.5,308.8-42.7,308.4z M-31.8,315.1
						c2.3,0.3,4.6,0.3,6.4-1c2.4-1.7,5.3-6.7,6.6-9.2c4-7.8-4.2-8.7-10.1-10.8c-3.2-1.1-8.6-3.3-11.6-3.9c-2.2,3.1-8.9,14.8-11.5,19
						l-11.4,19.1c0.1,0,0.1,0.1,0.2,0.1l11.9,4.2c6.6,2.3,12.8,5.4,17.1-1.8c2.9-4.8,8.5-11.6,3.7-14.8c-0.2-0.1-0.4-0.2-0.7-0.4
						C-31.6,315.3-31.6,315.3-31.8,315.1z"/>
					<path class="st16" d="M60.9,343.5c0.9-2.2,7.2-12,9-15.2c-0.7-0.7-6.7-2.5-7.1-2.6l-20.2,33.5c-0.7,1.1-2.3,3.6-2.8,4.7
						l7.4,2.5c0.5-2,9.2-14.8,10-17.3c1.4,0.3,4.9,1.2,5.3,2.4c0.7,1.9-3.1,15.3-3.1,19.1l8.3,2.8c0.4-3.8,1.2-8.3,1.8-12.1
						c0.7-4.3,2.3-8.7-0.2-11.6c3.9-0.6,5.1-2.1,7.8-4.4l9.2-7.6c1.1-1,2.4-1.9,3.3-2.9l-8.2-2.7c-1.6,1.8-2.9,2.6-4.6,4.2l-7.1,6
						c-0.8,0.8-1.3,1.3-2.5,2C65.4,345.4,62.7,344.4,60.9,343.5z"/>
					<path class="st16" d="M56.8,331.4c0.8-2.1,3-4.5,3.7-6.5c-1.3-0.8-8.5-3-10.6-3.8c-10.7-3.7-12.4-3.8-18.1,5.6
						c-1.8,3-3.5,5.9-5.3,8.9L18.5,349c-4.4,7.4,3.6,9,8.6,10.5c3.3,1,7.3,2.8,10.6,3.6l3.9-6.6c-2.3,0-14.1-3.8-15.1-5
						c-0.5-1.1,4.5-8.5,5.3-9.9c1.9-3.2,3.8-6.3,5.7-9.5c4.1-6.8,3.1-6.7,8.3-4.9c1.9,0.7,3.8,1.4,5.7,1.9
						C55.5,330.4,55.7,331,56.8,331.4z"/>
				</g>
				<g>
					<path class="st17" d="M-51.7,440.6l-51.1,11.1l48.1-89l18.1,0.9c7.3,0.5,52.2,2.3,53.1,3c0.7,0.7,1.5,7.5,1.7,9.1
						c0.4,2.7,0,2.3,5.8,4.9c1,0.4,3,1.6,3.3,2.2c0.4,1-0.4,3.2-0.6,4.3c-0.7,2.8-1.8,5.7-2.4,8.4l1-1c0.4-0.5,0.4-0.7,0.7-1.1
						l4.2-6.3c3.5-5.2,4.2-4.5,6.5-7.4L25,375.7l2.8-11.1l-97.5-33.2c-0.3,0.5-0.6,0.9-1,1.3c-1.3,2.5-3.7,7.5-4.2,8.5l-24.9,49
						c-3.1,6.2-7,13.3-10,19.7c-2.9,6.4-7.2,13.3-9.9,19.7c-2.7,6.4-7.1,13.3-9.9,19.7c-1.9,4.2-7.4,14.5-10,19.7
						c-1.6,3.2-9.6,17.7-9.9,19.5c1.5-0.4,19.9-10.6,23.8-12.4c8.3-3.8,16.4-8,24.7-11.7C-96.6,462.3-52.3,441.3-51.7,440.6z"/>
					<path class="st17" d="M65.4,322l-37.3-19.2c-6.4-3.3-12.4-6.2-18.6-9.5L-9,283.9c2.7-6.3,8.3-16.5,11.7-23.5
						c1.2-2.4,0.5-1.6,3.1-2.7l37.4-15.4c-7.1-0.2-15.7,1.2-22.9,1.9c-7.3,0.8-14.8,1.6-21.9,2.7l-16.2,2.2
						c-1.6,0.3-16.8,10.9-18.9,12.3l-22.2,14.8c-2.1,1.4-1.6,1.1-2.1,3.9c-0.8,4.8-8.1,45.2-8.2,47.5l17.6-33.3
						c1.1-2.4,5.3-9.6,5.7-11.3L65.4,322z"/>
				</g>
				<path class="st0" d="M98.4,367.8c0,0.1,0,0.3,0,0.4C98.4,368.1,98.4,367.9,98.4,367.8z"/>
				<path class="st0" d="M100.8,363.9c-0.9,0.6-1.6,1.4-2.1,2.4c0.2-0.7,0.5-1.4,0.6-1.9c0.4-1.6,0.9-3.3,1.3-4.9
					c0.7-2.5,3.3-6.7,3.3-8.9c0.2-9.9-0.2-19.8-0.2-29.6c0-3.3,0.4-4.7-1.1-6.5c-0.7-0.8-0.9-1.3-1.6-2.1l-6.5-8.2
					c-0.9-1.2-1.1-1.3-1.4-2.3c-1,0.5-1.5,1.3-2,2.2c-0.2-0.7,0.3-1.5,0.6-2.2c0.4-0.8,0.7-1.6,1-2.4c0.9,0.5,4,5,4.6,5.9
					c0.7,1.1,1.4,2,2.2,3.1c0.7,1,1.4,2,2.1,2.9c3.4,4.5,3.1,3.6,3.2,7l0.8,30.2c0.2,4.7-0.2,4.3-1.9,8.3
					C102.8,359.1,101.7,361.6,100.8,363.9L100.8,363.9L100.8,363.9z"/>
				<path class="st0" d="M-52.7,325c1.2,0.7,4.3,1.5,5.7,2.1c6.2,2.2,4.9,2.2,8.8-4.5c0.9-1.5,2.6-3.5,2.5-5.4
					c-1.5-1.1-8.3-3.4-10.3-3.8l-3.5,5.9C-50.3,320.8-52,323.4-52.7,325z"/>
				<path class="st0" d="M-42.7,308.4c2.3,0.5,9.1,3.9,10.9,2.9c1.1-0.6,2.3-3,3-4.1c3.3-5.7,3.6-4.9-2.7-7
					c-1.7-0.6-3.7-1.4-5.4-1.8c-0.6,1.4-2,3.6-2.8,5C-40.8,305-42,306.6-42.7,308.4z"/>
				<path class="st0" d="M2,335.3c0.1,0,0.2,0,0.2,0.1l8.2,2.9l5.9-18.5l-3.6,3.8c-0.7,0.9-1.2,0.9-1.9,1.8c-0.6,0.7-1,1.4-1.7,2
					c-2.2,2-1.4,1.6-2.6,2.9L2,335.3z"/>
				<path class="st18" d="M73.9,417.9c0.3-1.2,2.2-4.2,2.8-5.4c0.8-1.4,1.2-1.2,3-1.3c1.2-0.1,2.5-0.3,3.6-0.2
					c-0.2,2.1-0.9,2.8,0.2,4.8c0,0.1,0.1,0.2,0.1,0.2c0,0,0.1,0.1,0.1,0.2C80.5,416.7,77.3,417.7,73.9,417.9z M98.8,366.3
					c-0.1,0.3-0.2,0.6-0.3,0.9c0,0.2-0.1,0.4-0.1,0.5c0,0.1,0,0.3,0,0.4c0,0.4,0.1,0.8,0.2,1.3c-0.2,0.1-0.4,0.2,0,1.4
					c0.2,0.6,0.4,1.3,0.6,2l6.3,18.9c0.7,2.7-3.8,1.8-2.8,6.6l1.6,0.2c4.5-0.7,1.7-0.9,5,0.5c-0.1-4.1,0.7-3.8-1.2-7.6l-6.5-14.7
					c0-0.1-0.1-0.3-0.1-0.4c-0.7-1.5-1.2-1.9-1.6-4.1c1.3,1.2,5.4,11.1,6.7,13.6c1.2,2.3,2.2,4.5,3.3,6.7c1.1,2.2,0.7,6.8-0.9,8.1
					c-0.5-0.3-0.5-0.3-1-0.7c-1-0.8-0.3-0.7-3.9-0.2c-2,0.3-10.2,1.3-11.4,1.7c-1.4,0.5-3.5,1.5-4.1,2.9l2,0.4l-0.9,0.7l4.8,0
					c0.3,0.3,0.2-0.3,0.2,0.6c-0.3,2.2-2.1,5.8-1.5,7.7l-1.8,1.1c-8.2,3.9-4.4,4-15.8,4.9c-0.2,1.2-0.8,2.3,0.1,3.3
					c0.8,3.6,3.8,5.5,2.6,8.1c-0.7,1.6-1.1,0.8-2.1,0.5c-0.1,4.1-0.2,10.3,1.1,13.9l0.1,0.9c-2.1,0.9-5.9,2.7-7.9,3.8
					c-1.3,0.7-2.7,1.3-4.1,2c-2.1,1-2,0.5-3.9-0.7l-14.9-9.1v-1c1.1-0.4,5.2,2.1,6.2,2.6l9.4,4.5c1.8,0.8,1.5,1,3.2,0.2
					c2.1-1,4.4-2.3,6.4-2.9c0.2-3.8-0.5-8.5-0.4-12.4c0.1-3.1-0.4-2.7-1.7-4.5c-0.3-0.4-0.4-0.5-0.7-0.8c-3.3-2.8-1.8-2.9,0.4-6.6
					l5.3-8.1c0.6-0.9,2.4-3.4,2.6-4.1c-1.5,0.1-3.3,1.5-4.9,1.8c-1.3,0.2-4.4-0.9-5.9-1.2c-3-0.6-8.7-1.7-11.5-2.7
					c-0.2-1.5-0.7-9.1,0.1-10.1c2-2.8,3-2.8,3.8-3.8l3.5-4.1c1.1-1.1,0.8-0.2,2.1-1.8c0.9-1.1,3.4-4.2,4.4-4.8
					c0.9-0.6,2.4-1.9,2.8-3c0.2-0.6-0.3-14-0.4-14.6c-0.1-1.4,0.1-3.2,0.5-4.5c0.4-0.7,0.1,0.5,0.5-0.7c0.4,0.7-0.1,0.1,0.5,0.7
					c0.7,0.7,2.2,1.5,3,2.3c1.7,1.9,1.5,1.3,2.1,2.1c1.4,1.8,0.3,1.1,3.7,3.1c-0.6-1.6-0.2-0.4-1.3-1.6l-2.2-2.8
					c-1.2-1.5-2.5-3-0.3-4.5l0.8,0.4l-0.4,1.1c0,0.1,0.1,0.1,0.1,0.3c0,0.1,0.2,0.2,0.3,0.2c-0.5,0-0.3-0.1-0.3,0.4
					c0.1,0.8,0.3,1.5,0.7,2.1c0.5,0.8,0.8,0.7,1.6,1.2c1.4,0.9,2.5,1.4,4,2.1l0.4,0.1l-0.1-0.6c-0.8-0.6-1.8-1.2-2.6-1.8l0.5-0.1
					l1.9,1.2l0.4-1.2c-1.1,0.1-1.1,0.2-1.8-0.4l1.8-0.1c1.1,0.1,0.5,0.3,1.4-0.3c-0.1-0.6,0.3,0-1.4-0.3c0.3-0.3,0.1-0.1,0.4-0.4
					l0.3-0.2c0,0,0.1-0.1,0.1-0.1l1.3-0.4l-0.1,1.3c0.4-0.4,0.8-0.6,1.1-0.9c-0.3,3.7-2.2,4.2-3.8,5.4c2.9,2.2,3.7,4.6,3.3,8.4
					c-0.5,3.9-3,15.7-4.2,19.5c-0.7,2.4-2.2,6.8-2.5,9c0.3-1.1,1.2-2.2,2-3l3.1,0.8c-0.2-2-0.8-4.4-0.9-6c0-1,0.4-1.8,0.9-2.8
					c3.3-0.1,5.2,1.2,8.1,1.5c-2.7-2.6,8.6,0.9,10.2-2.7c1.1-2.3-2.1-8.3-3.1-10.8c-1.9-5-4.5-10.5-6.1-15.6c-0.9-3-0.2-3.4,1.2-5.4
					c-0.3-0.5,0.2-0.1-0.6-0.3l1.9-1.3c0.8-0.5,1.3-0.8,2-1.3c0.1-2-1.1-4.7-2.2-5.7c-3.7-3.7-12.2-5.1-17.1-6.5
					c0.4-0.8,5.4-4.6,6.5-5.5c1.3-1.1,6-4.7,6.7-5.6l-12.8-5c-0.4-0.9,2.6-7,3-8c0.7-1.8,2.7-7,3.5-8.2l1.8-0.4c0.4,1,0.8,1,1.5,1.5
					l3.4,3.2c2.7,2.6,3.9,2,4.5,5.5l5.8,27.4c0,2.2-2.6,6.4-3.3,8.9c-0.5,1.6-0.9,3.3-1.3,4.9C99.3,365,99,365.7,98.8,366.3z
					 M57.5,405.5c0.4-6.2-1.5-7.6,4.5-12.2c1.4-1.1,4.3-5.3,6.2-6.6c1.5-1,2.4-2.4,3.6-3.8c1.5-1.6,1.1-2.6,1.2-6.2
					c0.2-4.4,0.5-9.7,0.4-14.1l3.5,2.5c1.2,0.9,2.2,1.6,3.3,2.5c3.3,2.5,3,2,5.1,6.2c1.7,3.3,1.6,1-0.3,8.4
					c-0.8,2.9-1.7,5.9-2.5,8.8c-1.6,5.9-1.6,7.5-3.8,13.2c-0.8,2.2-0.4,2.2-2.7,2.8c-1.2,0.3-3.4,1.2-4.5,1.1
					C68,407.7,61.6,405.8,57.5,405.5z M95.4,335.3c-1.3-3.3-1.8-1.7-1-5.8c0.3-1.8,0.9-4.9,1.4-6.4c1.1,2.3,2.6,12.2,3.4,15.6
					l2.4,11.7c0,0.8-0.7,2.5-1.6,3.2c-0.3-0.9-1.8-2.8-2.5-3.5c-2.9-2.6-8.8-5.5-12.4-5.7c0.6-1,5.2-4.6,6.6-5.8L95.4,335.3z"/>
				<path class="st19" d="M92.9,299.4c0.9,0.5,4,5,4.6,5.9c0.7,1.1,1.4,2,2.2,3.1c0.7,1,1.4,2,2.1,2.9c3.4,4.5,3.1,3.6,3.2,7
					l0.8,30.2c0.2,4.7-0.2,4.3-1.9,8.3c-1,2.4-2.1,4.9-3,7.2l0,0c0.4-0.2,0.8-0.4,1.3-0.6c4.7-2.1,13.4-7.3,15.5-7.9l-6.7-1.3
					c1.9-6.8,4.8-14.1,7.1-20.8c0.8-2.5,0.8-1.7-0.1-4.2c-0.9-2.4-5-15.1-6-16c-0.3-0.3-0.5-0.3-0.9-0.7l-17.5-13.9
					C93,299,93.2,298.6,92.9,299.4L92.9,299.4z"/>
				<path class="st20" d="M87.5,357.4l-0.8,0.3l2.5,0.1c-0.4,0.9-0.4,0.3-0.6,1.5c-0.2,0.9,0.3,1.3-0.5,1.2c0,0.1,0.1,0.4,0.1,0.5
					c0,0.1,0,0.2,0,0.2l-0.1,1.3c-0.3,3.7-2.2,4.2-3.8,5.4c2.9,2.2,3.7,4.6,3.3,8.4c-0.5,3.9-3,15.7-4.2,19.5
					c-0.7,2.4-2.2,6.8-2.5,9c0.3-1.1,1.2-2.2,2-3l3.1,0.8c-0.2-2-0.8-4.4-0.9-6l-1.1,1.6l0.6-5.3c1.2-0.6,2.8-1.5,4-2.2
					c1.7-1,2.1-1.8,3.7-0.7c-0.1,0-0.1,0.1-0.2,0.1l-0.4,0.1c-1.5,0.5,1.1-0.3-0.4,0.1c-1.5,0.5-1.2,0.6-2.5,1.4
					c-1,0.7-2.3,1.2-2.9,2.1c3.3-0.1,5.2,1.2,8.1,1.5c-2.7-2.6,8.6,0.9,10.2-2.7c1.1-2.3-2.1-8.3-3.1-10.8c-1.9-5-4.5-10.5-6.1-15.6
					c-0.9-3-0.2-3.4,1.2-5.4c-0.3-0.5,0.2-0.1-0.6-0.3c-0.9-0.5-0.2-1.6,0-2.8c-1.1,0.1-1.8-0.2-2.6-0.5l-3.2,0.4l0.5-0.3l0-0.4
					L87.5,357.4z"/>
				<path class="st21" d="M91.3,304c-0.9,0.5-1.6,3.1-2.2,4.4c-0.7,1.6-1.5,3.3-2,4.9l1.8-0.4c0.4,1,0.8,1,1.5,1.5l3.4,3.2
					c2.7,2.6,3.9,2,4.5,5.5l5.8,27.4c0.2-9.9-0.2-19.8-0.2-29.6c0-3.3,0.4-4.7-1.1-6.5c-0.7-0.8-0.9-1.3-1.6-2.1l-6.5-8.2
					c-0.9-1.2-1.1-1.3-1.4-2.3C92.3,302.4,91.8,303.1,91.3,304L91.3,304z"/>
				<path class="st22" d="M75.7,349.2c-0.4,0.2-0.8,0.4-1.2,0.7c-2,1.8-1.5,1.1-1.9,3.7c-0.3,2.2-0.6,4.4-0.9,6.6
					c0.4-0.7,0.1,0.5,0.5-0.7c0.4,0.7-0.1,0.1,0.5,0.7c0.7,0.7,2.2,1.5,3,2.3c1.7,1.9,1.5,1.3,2.1,2.1c1.4,1.8,0.3,1.1,3.7,3.1
					c-0.6-1.6-0.2-0.4-1.3-1.6l-2.2-2.8c-1.2-1.5-2.5-3-0.3-4.5l0.8,0.4c0.8,0.1,5.4,0.5,5.9,0.9l0.4-0.6l0.1-0.4
					c-1.3,0.4-1.2,0.4-2.4-0.1c-1.2-0.5-1-0.3-2.4-0.4c2-0.7,4.3-1.1,6.7-1l0.8-0.3c-2.5-1-6.7,0.9-9.6,1l0.5-0.3
					c0.6-2.1,6.6-4.6,11.3-2.6l0.8-0.3l-0.1,0.6l0.3,0c1.4,0.5,2,0.8,3.1,0.1c-0.3,1.3-0.1,0.4-1,1.3c0.8,0.3,1.5,0.5,2.6,0.5
					c0.1-2.8-4.5-5.4-6.6-6.9c-1-0.6-1.9-1.4-2.8-1.9c-0.7,0.4-1.6-0.1-2.5-0.4C77.5,346.5,78.4,349.1,75.7,349.2z"/>
				<path class="st23" d="M49,394.7c0.4-3,0-4,1.2-7c0.6-1.7,1.6-4.3,2-6l-1.8-0.5l-5,8c-0.9,1.2-1,1.4-1.1,3.1
					c-0.5,5-1.3,10.1-1.8,15.2c-0.5,5.1-1.2,10.4-1.9,15.5c-0.3,2.5-0.7,5.2-0.9,7.7c-0.3,3-1.2,5.9,0,6.6c0.6-0.8,6.6-32.2,8-38.4
					c0.2-1,0.4-1.9,0.6-2.8c0.2-1.2,0.2-1.7,1-2.3L49,394.7z"/>
				<path class="st24" d="M22.4,466.6c-1.1,2.1-2.5,2.8-3.5,3.7c-1.1,0.9-2.5,2.7-3.5,3.8c-0.9,1-2.5,2.9-3.4,3.7l-1.9,1.7
					c-0.6,0.7-1.1,1.2-1.8,1.9c-1.2,1.3-2.2,2.4-3.4,3.7c-0.5,0.5-1.7,1.4-3.7,3.6c-2.6,2.9-2.8,3.5-5.5,5.6c-0.2,0.2-0.8,0.7-1,0.9
					c-1,1-0.7,0.1-0.6,1.3L16,481.3c5.1-3.6,2.8-1.4,5.5-6.6c0.9-1.7,1.9-3.8,2.6-5.5c0.8-1.8,1.9-3.8,2.5-5.6L22.4,466.6z"/>
				<path class="st25" d="M77.3,445.5c0.9-1.3,1.4-6.8,1.8-8.8c0.3-1.9,1.2-2,2.4-2.9c0.8-0.6,2.2-1.8,3.3-1.8c-0.6-2-5-5.3-6.7-6.8
					c-0.8-0.7-1-0.6-1.9-1.5l-0.4-0.4c0-0.1-0.1-0.1-0.1-0.1c0.8,3.6,3.8,5.5,2.6,8.1c-0.7,1.6-1.1,0.8-2.1,0.5
					C76.2,435.7,76.1,441.9,77.3,445.5z"/>
				<path class="st26" d="M94.7,406c0.7-0.9,0.1-0.6,1.6-1c4-1,9.6-1.9,12.7-4.4c-0.5-0.3-0.5-0.3-1-0.7c-1-0.8-0.3-0.7-3.9-0.2
					c-2,0.3-10.2,1.3-11.4,1.7c-1.4,0.5-3.5,1.5-4.1,2.9l2,0.4l-0.9,0.7l4.8,0C94.8,405.8,94.7,405.2,94.7,406L94.7,406z"/>
				<path class="st27" d="M78.5,360.7l4.7,3.2l0.1-0.2l1.8-0.1c-0.8-1.2-1.3-1.6-0.8-3.7c-0.5-0.4-5.1-0.7-5.9-0.9l-0.4,1.1
					c0,0.1,0.1,0.1,0.1,0.3C78.2,360.6,78.4,360.7,78.5,360.7z"/>
				<path class="st28" d="M85.2,396.5c0-1,0.4-1.8,0.9-2.8c0.6-0.9,1.9-1.4,2.9-2.1c1.3-0.9,1-1,2.5-1.4c1.5-0.5-1.1,0.4,0.4-0.1
					l0.4-0.1c0,0,0.1,0,0.2-0.1c-1.6-1-2-0.3-3.7,0.7c-1.2,0.7-2.8,1.6-4,2.2l-0.6,5.3L85.2,396.5z"/>
				<path class="st29" d="M78.4,358l-0.5,0.3c2.9,0,7.1-2,9.6-1l2.8-0.5c-0.8-1-4.8-1-6.2-0.7C82.2,356.6,80.2,357.3,78.4,358z"/>
				<path class="st30" d="M83,422.2c1.1,0,3.9-0.1,4.6,0.4c1.1-0.2,1.7-0.5,2.7-1c1.1-0.5,1.5-0.6,1.9-1.6c-1.4,0.3-4.1,1.6-5.1,1.7
					c-2,0.2-4.3-0.2-6.4,0C81.5,422,82.8,422,83,422.2z"/>
				<path class="st31" d="M87.9,428.9c0.3-0.7,0.4-2.7,0.2-3.6c-0.2-1.1-1-1.2-1.5-2.3l-4.2-0.7l0.9,0.8c0.9,0.5,2.3,1,2.9,1.6
					C88.2,426.6,87.9,427.6,87.9,428.9z"/>
				<path class="st32" d="M84.3,360.1c-0.6,2.1,0,2.5,0.8,3.7c1.1,0.1,0.5,0.3,1.4-0.3c-0.1-0.6,0.3,0-1.4-0.3
					c0.3-0.3,0.1-0.1,0.4-0.4l0.3-0.2c0,0,0.1-0.1,0.1-0.1c-0.3-0.2-0.4-0.3-0.5-0.5c0.1-1,0.2-1.7,1.2-1.6l-0.1-0.6
					c-0.1,0-1,0-1.1,0c-0.9-0.1-0.2,0.3-0.6-0.3L84.3,360.1z"/>
				<path class="st33" d="M45.1,441.4c0,0,0.1-0.1,0.2-0.7c0-0.3,0-0.3-0.1-0.6c-0.9-0.1-2.1-0.7-2.9-1.3c-0.6-0.4-0.8-0.6-1.5-0.9
					c-1.6-0.8-1.2-0.6-1.4-0.1c1,0.7,1.8,1.1,2.9,1.8C43.3,440.2,44.2,440.8,45.1,441.4z"/>
				<path class="st34" d="M85.8,362.4l1.3-0.4c0.2-0.9,0.4-1.2-0.3-1.7l-0.4-0.1c-1-0.1-1.1,0.6-1.2,1.6
					C85.5,362.1,85.6,362.1,85.8,362.4z"/>
				<path class="st35" d="M86.6,423l0.9-0.3c-0.7-0.5-3.5-0.4-4.6-0.4l-0.6,0.1L86.6,423z"/>
				<path class="st36" d="M83.2,363.8l-0.1,0.2l-0.4,0.2l1.9,1.2l0.4-1.2C83.9,364.3,83.9,364.4,83.2,363.8z"/>
				<path class="st37" d="M84.8,359l-0.1,0.4c0.4,0.6-0.3,0.2,0.6,0.3c0.1,0,1,0,1.1,0l0-0.8L84.8,359z"/>
				<polygon class="st38" points="89.8,355.4 89.8,355.9 90.3,356.1 90.5,355.8 90.6,355.1 				"/>
				<path class="st39" d="M32.6,370.3l-0.3-0.1c0,0.1-0.6-0.6,0,0.5L32.6,370.3z"/>
				<path class="st40" d="M84.5,366.6l0.4,0.1l-0.1-0.6C85,366.8,85.1,366.7,84.5,366.6z"/>
			</g>
		</g>
	</g>
</g>
</svg>
