<?xml version="1.0" encoding="utf-8"?>
<!-- Generator: Adobe Illustrator 19.0.0, SVG Export Plug-In . SVG Version: 6.00 Build 0)  -->
<svg version="1.1" id="Layer_1" xmlns="http://www.w3.org/2000/svg" xmlns:xlink="http://www.w3.org/1999/xlink" x="0px" y="0px"
	 viewBox="428.9 -172 982.2 1303.9" style="enable-background:new 428.9 -172 982.2 1303.9;" xml:space="preserve">
<style type="text/css">
	.st0{fill:#888888;}
	.st1{fill:#343434;}
	.st2{fill:#222222;}
	.st3{fill:#0F0F0F;}
	.st4{fill:#212121;}
	.st5{fill:#333333;}
	.st6{fill:#898989;}
	.st7{fill:#B6B6B6;}
	.st8{fill:#414141;}
	.st9{fill:#EEEEEE;}
	.st10{fill:#B4B4B4;}
	.st11{fill:#313131;}
</style>
<g>
	<polygon class="st0" points="714.8,-33.1 651.6,218.9 666,351 607.8,606.3 577.7,729.1 776.6,357.6 874.2,-4.9 	"/>
	<g>
		<path class="st1" d="M710.5,41.3c-1.4-2.2,0.4-5.1-1.8-7.1c-1.1-2,0.2-3.5,1.1-5c5-8.1,9.8-16.3,15-24.2c3.3-5,5.2-5.7,10.9-4.1
			c6.9,1.9,13.6,4.5,20.5,6.3c18.5,4.9,37.1,9.4,55.6,14.4c40,10.8,80.1,21.6,120.2,32.1c0.5,0.1,0.9,0.4,1.5,0.2
			c-2.3-3.9-5.4-7.9-2.2-12.4c3.1-4.3,8.3-4.1,12.8-3.8c7.7,0.6,15,2.9,22.1,6c32.4,14.1,64.6,28.7,97.4,41.6
			c9.8,3.8,19.5,7.9,29.8,10.1c3.3,0.7,6.6,1,9.9,0c6.2-1.9,8.4-6.4,6-12.4c-2.3-5.8-6-10.8-10.3-15.3c-7.9-8.3-16.3-16.2-24.9-23.8
			c-30.6-26.8-61.4-53.3-92.4-79.5c-21.9-18.5-43.6-37.1-66-55.1c-4.3-3.4-9.1-6.2-13.2-9.9c-3-2.7-2.8-4,0.4-5.3
			c2.4,1.9,4.9,0.3,7.2,0c17.4-2.8,34.5,0.2,51.6,2.4c21.9,2.8,43.8,5.6,65.8,8.4c1.1,0.1,2.4,0.4,3.2-0.8c1.5-1.8,3.3-1.2,5.1-0.6
			c11.2,3.8,22.5,7.2,33.7,11.1c0.2,0.1,0.3,0.1,0.5,0.2c1.8,0.8,4.4,1.4,3.8,3.8c-0.6,2.4-3.2,1.9-5.2,1.6
			c-18.8-2.7-37.7-4.3-56.6-6.4c-22.6-2.5-45.1-5.2-66.7-8.1c14.8,8.6,30.1,18.1,45,28.2c21.8,14.8,43.1,30.3,63,47.6
			c17.6,15.4,34.6,31.3,48,50.7c11,15.8,19.3,33.1,26,51.1c1.3,3.6,2.1,7.4,2.5,11.2c0.7,8.7-3.5,13.7-12.1,14.4
			c-3.3,0.3-6.7,0.3-10-0.1c-14-1.9-28-4.1-41.6-8.5c-22.2-7.1-44.2-14.9-65.6-24.2c-8.8-3.8-17.7-7.7-24.4-10.3
			c14.2,6.3,31,12.9,47.5,20c31.9,13.6,63.3,28.2,95.1,42c23.7,10.3,47.2,20.9,70.1,33c21.6,11.3,41.9,24.6,61.9,38.5
			c11.9,8.3,17,30,12.8,42c-2.1,6.1-1.3,6.1,4.4,7.4c11.7,2.8,23.3,5.5,35,8.3c4.6,1.1,7.7,3.5,9.6,7.8c5.8,12.4,11.3,24.9,17,37.3
			c2.5,5.4,2.6,5.4,6.9,1.1c4.5-4.5,8.8-9.2,13.5-13.4c3.5-3.1,4-6.2,2.4-10.5c-7.8-20.5-15.4-41.2-23.1-61.8
			c-3.7-9.8-7.5-19.6-11-29.5c-1.7-4.7-4.4-7.9-8.8-10.2c-25.9-13.8-51.6-27.8-77.4-41.7c-2.3-1.3-4.6-2.9-7-3.8
			c-8.8-3.1-12.4-10.1-15.3-18.3c-16.9-46.9-34-93.6-51.2-140.4c-1.3-3.7-3.6-7.2-2.3-11.5c1.5-2.3,3.6-1.9,5.7-1
			c3.5,1.5,7,2.6,10.4,4.3c5.1,5.6,6.3,13.1,9,19.8c15.7,39.8,30.4,80,46.1,119.9c1.5,3.9,4.4,6.1,7.7,8.1
			c28.6,17.2,57.1,34.2,85.8,51.2c5.8,3.4,9.4,7.9,11.5,14.3c11.6,36.7,23.8,73.1,35.7,109.7c1.6,4.9,0.6,8.2-3.2,11.4
			c-10.9,9-21.5,18.4-32.6,27.3c-5.2,4.2-7.6,3.5-9.9-2.8c-5.2-14.4-10-29-14.5-43.6c-1.7-5.7-4.9-8.3-10.6-9.4
			c-15.4-2.9-30.7-6.1-46-9.4c-2.5-0.5-4.9-1-7.4-0.1c-7.6,2.5-15.5,4-23.4,5.3c-5.1,0.9-5.1,0.9-3.7,6.2
			c3.7,14.2,3.4,28.7,2.8,43.2c-0.3,7-3.1,13.4-8.8,17.3c-10.5,7.2-13.3,17.5-13.9,29.1c-0.1,2.2-0.6,4.3-1.1,6.4
			c-1.5,7-3.9,8.5-10.6,6.2c-10.2-3.6-20.5-7-30.7-10.6c-57.8-19.9-115.5-40-173.6-59c-0.6-0.2-1.3-0.4-2.4-0.4
			c1.5,1.8,3.1,3.1,4.6,4.5c9.2,8.2,18.1,16.8,23.8,28c1.2,2.3,3.1,3.2,5.5,3.9c23.8,6.5,47.4,13.6,71.3,19.4
			c17.4,4.2,34.2,10.3,51.6,14.4c17.5,4.1,34.7,9.5,52.1,14.1c5,1.3,10.1,2.3,15,4c3.5,1.2,6,0.4,8.3-2.4
			c6.6-7.9,13.5-15.6,20.1-23.6c3.6-4.4,7.9-5.7,13.2-5c24.4,3.5,48.8,6.8,73.2,9.8c5.7,0.7,10.4,2.8,14.4,7.1
			c6.3,6.7,13,13,19.3,19.5c2.4,2.4,4.5,2.8,7.5,1.2c4.9-2.5,9.5-5.6,14.5-7.8c2.1-0.9,4.1-2.4,6.6-1.2c0.4,4.1,0.5,8.3,2.3,12.2
			c0.2,2.6-2,3.2-3.6,4.2c-5.5,3.3-11.4,6.1-17.1,9.1c-3.1,1.1-6.2,2.9-9.5,0.8c-8.5-6.3-16.5-13.2-24.2-20.5
			c-5.4-5.1-11.5-7.3-18.5-7.5c-2.4-0.1-4.5-0.8-6.6-1.8c-1.7-1-3.5-1.1-5.4-0.5c-3,0.6-5.8,0.2-8.5-1.4c-1.7-1.1-3.6-1-5.5-0.9
			c-0.5,0-1-0.1-1.4-0.2c-1.8-0.8-3.6-1.1-5.5-0.4c-5.3,0-10.6-0.2-15.5-2.4c-1.7-1.1-3.6-1-5.5-0.9c-0.5,0-1-0.1-1.4-0.2
			c-1.8-0.8-3.6-1-5.5-0.5c-1.7,0.3-2.9,1.3-3.7,2.9c-4.9,8.8-10.5,17.3-15.4,26.1c-1.1,2-2,3.9-4.5,4.1c-8.6-1.6-16.9-4.3-25.4-6.3
			c-2.1-0.5-4.1-1.4-6.3-0.8c-1.4,0.1-2.7-0.3-4-0.8c-1.8-1.3-3.8-2-5.9-2.5c-12.7-3.1-25.3-6.7-38.1-9.8c-2.2-0.5-4.5-1.3-6.9-0.9
			c-2.7-0.1-5.3-0.9-7.8-1.7c-4.2-2.8-9.2-3.3-13.8-4.7c-2.8,0-1.5,1.1-0.7,2.2c4.4,5.6,8.8,11.2,13.2,16.9
			c10.1,13,20.2,25.9,30.3,38.8c2,2.6,4.2,4.7,7.7,4.9c2.8,0.1,5.7,0.3,8.3-1.1c1.9-0.5,3.9-0.4,5.9-0.3c3.7,1.2,8.1-0.8,11.3,2.6
			c4.2,4.7,7.3,10.3,10.8,15.5c6.5,9.6,12.4,19.7,19.1,29.1c4.8,6.7,7.7,13.8,8.7,21.9c0.8,6.6,2.6,13,2.9,19.6
			c0.5,5.6,3.2,10.5,4.3,15.9c0.1,3.9-2.6,6.4-4.9,9c-13.2,15.2-26.3,30.5-39.5,45.8c-24.1,28-48.4,55.9-72.3,84
			c-3.1,3.7-6.5,7.1-9.6,10.8c-2.5,3-1.8,4.4,1.4,5.9c11.2,5.4,22.5,10.7,33.8,16.1c3.5,1.6,7,3.2,10.3,5c1.9,1,3.9,2.1,3.7,4.8
			c-15.7,5.4-31.3,10.8-47,16.1c-15.9,5.3-31.8,10.5-47.7,15.8c-0.3,0.1-0.8,0.1-0.9,0.3c-0.5,0.7,0.2,0.7,0.6,0.9
			c-0.6,3.3-3.4,3.3-5.7,3.6c-14.8,1.9-29.2,5.7-43.9,8.3c-3.1,0.5-5.4,2.1-6.5,5.4c-2.8,8-6.2,15.7-9.2,23.6
			c-5.7,11.3-9.9,23.2-14.7,34.9c-11.2,27.8-22.4,55.5-33.5,83.4c-9.8,24.6-19.7,49.1-29.4,73.7c-0.7,1.7-1.9,3.3-0.4,5.1
			c0.3,0.4,0.7,0.7,1,1c8.3,4.1,17.2,6.3,25.8,9.4c36.7,13,73.4,26,110.1,38.9c41.1,14.5,82.1,29.2,123.2,43.6c2.9,1,5.1,3.1,8,3.9
			c0.7,0.5,1.2,1,1,2c-19.3-1.4-38.5-2.7-57.8-4.2c-19.4-1.5-38.8-3.1-58.2-4.6c-37.5-2.9-75-5.9-112.5-8.8
			c-27.6-2.1-55.1-4.2-82.7-6.3c-18.4-1.4-36.8-2.8-55.3-4.2c-2.5-0.2-4.3-1.4-6.2-2.9c-22.9-18.3-45.8-36.6-68.6-55
			c-2.7-2.2-4.8-2.5-8-1.3c-103,37.9-206,75.7-309,113.5c-1.3,0.5-2.6,1.5-4.6,0.9c3.1-9.2,6.1-18.3,9.2-27.4
			c25.5-74.9,51-149.7,76.4-224.6c1.1-3.2,3.9-6.1,2.2-10c-0.4-0.4-0.7-0.8-0.8-1.3c-0.2-1.6,0.4-2.9,1.1-4.3
			c19-34.7,35.8-70.6,53.5-105.9c4.3-8.5,4.9-18.2,7.1-27.4c1.4-5.7,2.7-11.3,3.9-17c0.4-1.7,0.4-3.8,2.9-4.1c2.4,0,2.1-2.2,2.8-3.5
			c19.5-39.5,39-79.1,58.5-118.7c0.5-1,1.2-2,1.8-2.9c4.2,1.4,2.4,4.5,1.6,6.8c-3.7,10.5-7.4,21.1-11.1,31.6
			c-13.2,37-26.4,74.1-39.5,111.1c-6.4,18-13.5,35.8-20.4,53.6c-0.8,2.2-1.6,4.4-2.3,6.6c3-8.7,6.4-17.2,9.9-25.7
			c26.1-64.4,54.5-127.8,81.7-191.7c20.4-48,41.1-95.9,61.8-143.7c1.5-3.4,1.2-6.3-0.1-9.6c-8.5-21.7-16.8-43.5-25.1-65.3
			c-8.3-21.6-16.7-43.2-24.8-64.9c-0.9-2.5-2.2-5-0.6-7.6c2.3-2.5,5-4.7,6.4-8c3.4,0.4,4.1,3.5,5.7,5.8c13.6,19.9,20.9,42.7,29.2,65
			c9.4,25.5,18.8,50.9,28.4,76.3c1.5,4,1.6,7.6,0,11.6c-17.5,43.8-35.2,87.5-52.8,131.2c-12.3,30.6-24.8,61.1-36.8,91.8
			c-2.2,5.6-4.9,10.9-8,16c17.3-27.6,36.6-53.9,54.8-80.9c7.8-11.6,15.9-23,23.7-34.6c4.3-6.3,9.5-11.5,15.5-16.1
			c23-17.9,45.9-36,69.1-53.6c9.8-7.5,14.2-17.6,15.9-29.5c2.3-16.7-1.1-32.8-4.6-48.9c-1.9-9.1-4.4-18.1-6.5-27.2
			c-2.6-11.4,0.7-18.5,11.2-23.8c8.6-4.3,18-5.9,27.4-7.1c2-0.2,4-0.5,5.9-0.7c10.8-1.1,20.9-0.5,30.5,6c13.2,9,27.5,16.3,41.3,24.4
			c1,0.6,2,1.2,3,1.8c5.1,3.5,5.3,5.7,0.5,9.6c-12.6,10.2-25,20.5-37.8,30.4c-3.6,2.8-4.6,5.4-3.2,9.8c7.4,23.5,14.8,47,22.3,70.5
			c12.3,38.6,24.6,77.1,36.6,115.8c1.3,4.3,3.5,7.2,7.5,9.3c38.8,20.7,77.6,41.5,116.2,62.4c11.9,6.5,11.9,6.5,19.8-4.5
			c34-47.2,68.4-94.1,102.4-141.2c1.2-1.6,2.1-3.4,3.5-4.9c3.1-3.4,2.9-6.3,0-10c-10.5-13.4-20.8-26.9-31.2-40.3
			c-24.8-31.8-49.7-63.5-73.9-95.7c-8-10.7-16.7-17.9-30.4-20.9c-29.4-6.5-58.7-13.9-87.6-22.2c-17.2-4.9-34.9-7-52.3-10.4
			c-19.7-3.9-37.8-11.8-55.3-21.2c-14.7-7.9-28.6-17.1-40.2-29.4c-0.5-0.5-0.9-0.9-1.4-1.4c-7.3-7.8-6.8-12.3,2.5-17.6
			c11.6-6.7,24.2-11.1,36.6-15.9c12.8-4.9,25.7-9.2,38.6-13.7c2.7-0.9,5.4-1.7,8.3-1.8c-9.5,0.8-19.1,1.2-28.7,1.6
			c-12,0.5-24,0.7-35.9,0.5c-17.9-0.3-36,0.7-53.8-2.6c-4.1-0.8-8.1-1.8-11.9-3.6c-7.4-3.5-13.4-8.2-14-17.8
			c-5,2.8-9.2,5.9-13.5,8.9c-7.8,5.5-16.2,7.8-25.8,7.9c-17,0.2-33.9-1.3-50.9-2.3c-1.9-0.1-4.1,0-4.7-2.7c8.2-0.5-0.9-4.7,2.5-7
			c5,0.6,11,1.4,17,2c13.6,1.4,27.2,2.5,40.8,3c9.3,0.4,16.3-3.6,21.9-10.8c6.9-8.9,10.2-19.4,12.5-30.2
			c2.9-14.2,6.3-28.3,10.5-42.1c0.9-3,1.6-6.2,1.8-9.3c1-11.1-2.4-17-12.4-22.1c-1.2-0.6-2.3-1.2-4-2c3.1,0,5.6,0.1,8.1,0
			c11.9-0.8,21-6.2,26.8-16.6c4.8-8.6,9.4-17.3,13.5-26.2c5.7-12.3,1.9-22.5-10.7-27.7c-9.5-3.9-19.5-6.7-29.3-9.9
			c-15.5-5.2-31-10.1-46.4-15.6c-4.3-1.5-6.1-0.4-8.1,3.2c-3.5,6.3-7.4,12.3-11.1,18.4C712.3,38,712,40.1,710.5,41.3z"/>
		<path class="st2" d="M680.7,230.2c5.6,1.9,11.5,0.8,17.3,1.5c15,1.9,30.2,1.5,45.4,1.2c5.1-0.1,9.7-2.2,13.9-5
			c5.8-3.9,11.9-7.3,17.2-12c1.9-1.7,3.5-1.6,3.2,1.5c-0.8,9.5,5.5,13.5,12.7,17c9.7,4.7,20.4,4.6,30.7,5.5
			c10.6,0.9,21.4,1.1,31.9,0.7c16.3-0.8,32.6,0.7,48.8-1.3c8.2-1,16.5,0.3,24.8-1.5c0,2.2-1.2,2-2.1,2.3
			c-28.3,9.4-56.6,18.5-83.6,31.4c-13.5,6.5-13.8,8.6-3.1,19.1c18,17.6,39.5,29.5,62.5,39.3c22.7,9.7,46.9,11.6,70.6,16.4
			c9.8,2,19.4,5.4,29.2,7.9c28.4,7.3,56.7,14.6,85.1,21.7c4.3,1.1,6.4,4,8.7,7c23.2,29.9,46.2,60,69.4,90c15.4,20,31,39.9,46.6,59.7
			c2.1,2.6,1.5,4.4-0.1,6.6c-15.3,21-30.5,41.9-45.8,62.9c-20.2,27.9-40.4,55.7-60.6,83.6c-2.6,3.6-5.3,7.3-7.9,10.9
			c-1.6,2.1-3.4,2.6-6.1,1.4c-17.5-7.9-33.8-17.9-50.8-26.7c-10.8-5.6-21.4-11.6-32.1-17.3c-15.4-8.3-30.8-16.5-46.3-24.6
			c-3-1.6-4.1-4.2-5-7.1c-16.1-51.3-32.3-102.6-48.5-153.8c-4-12.5-7.8-25.1-12-37.6c-1-3,0-4.8,2.1-6.4
			c12.7-10.2,25.3-20.5,38.1-30.5c7.2-5.6,7.3-5.5-0.5-10.1c-16.2-9.6-32.4-19.1-48.5-28.7c-6.2-3.7-13.1-2.3-19.6-1.9
			c-10.2,0.7-20.5,1.8-30.3,5.6c-2.6,1-5.3,2.1-7.7,3.5c-7.5,4.3-10.1,10.6-8,19c4,16.5,8.4,32.9,10.8,49.7
			c2.1,14.6,2.4,29.1-3.3,43.1c-3.1,7.5-8.5,12.9-14.8,17.7c-24.6,19-49.1,38-73.6,57.1c-5.1,4-7.9,9.8-11.5,15
			c-20.1,29-39.9,58.1-59.9,87.2c-6,8.7-12.1,17.4-18.5,25.9c1.4-6.9,4.7-13,7.2-19.3c12.1-30.6,24.4-61.2,36.6-91.8
			c17.9-44.6,35.9-89.2,53.9-133.8c0.8-1.9,1.1-3.5,0.3-5.7c-14.7-38.9-29.1-78-43.9-116.8c-4.6-12-12.4-22.3-18.6-33.6
			c-11.2-19-22.3-38.1-33.5-57.1C659.4,228,669.9,229.5,680.7,230.2z"/>
		<path class="st2" d="M1379.4,391c-7.5,4-15.1,7.8-22.5,12c-2.7,1.5-4,0.9-5.9-1c-7-7.2-14.3-14-21.1-21.3
			c-3.6-3.9-7.7-5.9-12.8-6.6c-24.8-3.2-49.6-6.7-74.5-10c-4.4-0.6-7.6,0.6-10.6,4.5c-7.1,9.2-15.1,17.7-22.5,26.6
			c-1.9,2.2-3.7,1-5.4,0.6c-15.3-4.1-30.5-8.3-45.7-12.5c-18.8-5.1-37.6-10.2-56.4-15.3c-2.8-0.7-5.5-1.4-7.5-3.6
			c-0.5-0.6-1.4-1.2-2.1-1.2c-14,0.7-26.4-5.9-39.6-8.9c-14.3-3.3-28.3-7.6-42.4-11.4c-2.8-0.7-4.4-2-5.7-4.8
			c-5.2-11-14.1-19.2-23.1-27.2c-3-2.6-6.1-5-8.3-9.7c3.9,1,6.9,1.7,9.8,2.7c34.6,11.6,69.2,23.1,103.7,34.9
			c33.2,11.4,66.4,22.9,99.6,34.6c4.7,1.7,6.4,0.3,7.1-4.1c1-7.4,2.3-14.8,3.1-22.2c0.4-3.3,1.6-5.7,4.1-7.7
			c1.4-1.1,2.8-2.3,4.3-3.4c10.2-7.6,13.4-17.8,12.8-30.1c-0.6-12.3-0.2-24.6-4.2-36.5c-1.3-3.7,0-4.4,3.6-4.7
			c8.3-0.7,16.5-2.4,24.3-5.1c2.8-1,5.3-1.4,8.2-0.8c16.7,3.6,33.5,7.2,50.3,10.5c4.8,0.9,7.3,3.1,8.8,7.9
			c4.7,15.3,9.9,30.4,15.1,45.5c2.1,6.2,2.6,6.1,7.6,1.8c11.2-9.6,22.5-19.1,33.9-28.5c1.9-1.6,2.2-2.8,1.4-5.1
			c-5.4-16.2-10.8-32.5-16.1-48.8c-7.4-22.6-14.8-45.2-22-67.8c-2-6.1-7.6-7.7-12.1-10.5c-28.1-16.9-56.2-33.6-84.4-50.4
			c-3.6-2.1-5.8-5-7.3-9c-10.3-27.2-20.8-54.4-31.2-81.5c-7.3-19.1-14.7-38.1-22.1-57.2c-1.3-1.1-1.5-2.5-1-4
			c-2.4-6.1-4.7-12.3-7.6-19.7c5.1,2.3,9,4,12.8,5.8c14.5,6.8,28.5,14.4,42.3,22.6c3.1,1.8,5.3,3.9,5.7,7.6
			c1.2,11.4,9.3,17.8,18.3,25.1c-2-7.2-3.7-13.3-5.6-20c1.1,0.5,1.7,0.6,2.1,1c12.2,9,24.6,17.8,36.6,27
			c11.4,8.8,20.6,19.5,28.5,31.8c9.2,14.3,20,27.4,29,41.9c21.4,34.7,38.2,71.3,45.5,111.8c3,16.7,3.7,33.8,5.4,50.6
			c2.6,26,5.1,52.1,9.6,77.8c2.8,16,7.6,31.7,10,47.9c0.6,3.8-0.5,5.3-3.6,6.9C1392.8,383.5,1386.1,387.3,1379.4,391z"/>
		<path class="st2" d="M902.9-105.9c-3.4,1.7-0.8,2.8,0.5,3.7c7.2,5.1,14.2,10.4,21,16c13.4,11.2,26.8,22.3,40.1,33.5
			c14.4,12.1,28.8,24.1,43,36.3c13,11.1,25.9,22.4,38.8,33.6c12.4,10.8,25,21.3,37.1,32.5c9.1,8.4,18.8,16.6,25.2,27.5
			c2.9,5,6.4,10.5,1.7,16.1c-4.5,5.4-10.7,5.5-17,4.1c-12.3-2.7-23.7-7.6-35.3-12.3c-31.5-12.6-62.4-26.7-93.6-40.1
			c-8.6-3.7-17.6-7-27.5-5.1c-5.1,1-6.8,3.9-4.4,8.6c1.4,2.7,3.4,5.2,5.8,8.7c-6.7-1.7-12.6-3.1-18.5-4.7
			c-29.2-7.8-58.5-15.6-87.7-23.5c-19.3-5.2-38.4-11.2-57.8-15.4c-14-3-27.4-7.9-41.1-11.7c-2.8-0.8-4.3-0.1-5.7,2.2
			c-4.9,8.1-10,16.1-15,24.2c-1.2,2-2.5,3.9-3.8,5.8c-5.2,9-11.9,17.4-13.7,28.1c-0.3,1.5-1.3,2.2-2.6,2.8
			c-7.7,3.6-15.3,7.2-23.8,10.2c2.4-4.6,4.6-9.3,7.2-13.9c3.9-6.8,8.5-13.2,11.8-20.3c3.2-7,0-15,1.9-22.5c1.2-5,1.8-10.2,2.5-15.3
			c2-15.7,11.8-26.5,22.9-36.4C736-51.9,760-66.3,784.7-79.6c3.8-2,4-3.5,2.1-7c-14.5-27.1-26.3-55.4-39.2-83.2
			c-0.2-0.4-0.3-0.9-0.6-2.2c8.1,1,15.7,1.8,23.3,2.8c15.4,2,30.7,4.3,45.8,7.9c6.7,1.6,12.6,4.5,18.1,8.9
			c19.4,15.5,40.1,29.2,60.3,43.7c2.2,1.6,4.2,1.4,6.5,0.7c6.5-1.8,12.8-4.4,19.8-4.6C914.8-110.2,908.8-108.1,902.9-105.9z"/>
		<path class="st2" d="M1156.7-38c6.1,19.2,13.6,37.9,20.5,56.8c12.4,34.3,25,68.5,37.5,102.7c0.8,2.3,2.1,4,4.3,5.2
			c26.6,14.2,53.1,28.5,79.6,42.8c0.7,0.4,1.4,1,2.2,1.2c15.7,4.7,20.1,17.9,24.9,31.4c9.5,26.8,19.6,53.4,29.7,80
			c1,2.7,0.7,4.2-1.3,6.1c-7.6,7.3-15,14.6-22.8,22.3c-3.4-7.2-6.8-14.6-10.2-21.9c-3.9-8.5-7.7-17-11.5-25.5c-1.1-2.4-3-3.5-5.4-4
			c-13.6-3.2-27.2-6.3-40.8-9.4c-2.8-0.7-5.5-0.9-3.4-5.4c7.1-15.4,1.3-34.9-12.8-45.1c-33.5-24.1-69.7-43.3-107.5-59.9
			c-27.7-12.1-55.3-24.6-83-36.9c-28.4-12.6-56.9-25.2-85.3-37.8c-1-0.4-2.3-0.5-2.7-2.4c12.6,5,24.8,10.1,37.2,14.7
			c26.7,9.9,53.1,20.7,81.1,26.5c9.6,2,19.2,3.9,29.1,3.6c9.3-0.3,13.1-5,11.5-14.3c-1.5-8.1-4.5-15.7-8-23.1
			c-7.9-16.3-16-32.6-27.9-46.6c-10.2-12.1-21.4-23.2-33.1-33.9c-12.6-11.4-25.8-22-39.4-32.1c-25.3-18.8-51.5-36.1-78.8-51.7
			c-0.7-0.4-1.6-0.6-1.7-2.4c44.6,6.3,89.3,10.2,134,15.1c-4.1-1.5-8.2-3.2-12.3-4.5c-9.4-2.9-18.8-5.6-27.9-9.3
			c-0.6-0.2-1.3-0.1-2-0.1c-10.9-3.1-21.7-6.1-32.6-9.2c9.4,0.1,18.5,1.7,27.6,3.6c40.2,8,79.1,20.8,117.3,35.5
			c2.7,1,4.1,2.7,5.3,5.4c2.5,5.9,3.2,12.6,7.5,17.7C1157-41.5,1157.1-39.8,1156.7-38z"/>
		<path class="st2" d="M1360.7,415c7-3.9,14-7.9,21-11.8c6.7-3.6,13.4-7.2,20.1-10.9c2.7-1.5,3.9-1.4,4.2,2.2
			c1.2,13.8,2.6,27.6,4.8,41.3c0.9,5.6-0.2,11.1-2.5,16.4c-5,11.2-12.6,20.7-20.7,29.8c-1.8,1-5.9-0.9-4.5,3.8
			c-8.7,6-16.1,13.4-22.1,22.1c-0.9,1.2-1.9,2.3-3.1,3.2c-7.7,5.5-12.3,13.2-16.4,21.5c-14.8,30-25.5,61.5-34.7,93.5
			c-3.4,11.8-6.4,23.7-7.6,36.1c-1.2,11.9-6.3,22.7-12.1,33c-5.5,9.9-11.7,19.4-18.4,28.4c-2.2,2.9-4.7,5.1-8.2,6.2
			c-17.3,5-34.5,10.2-51.8,15.1c-4.8,1.3-8.9,0.3-12.5-3.8c-4.9-5.7-5.3-5.5-11.2-0.7c-1.6,1.3-2.8,1.7-4.1,0
			c-0.7-0.9-1.5-1.8-2.6-2.3c-11.3-4.6-21.3-11.8-32.8-16c-10-3.7-19.3-9-28.7-14c-5.2-2.7-5.7-6.5-1.6-10.9
			c29.9-32.2,57.6-66.4,86.5-99.5c11.8-13.4,23.4-26.9,34.9-40.5c2.2-2.6,2.8-5.3,1.8-8.3c-4.5-13.5-6.5-27.4-8.8-41.3
			c-0.5-3-1.9-5.6-3.6-8.2c-10.3-16.1-21.2-31.9-31.4-48.1c-2.8-4.5-5.9-6.8-11.5-5c-5.8,1.9-11.9-0.2-17.9,0.6
			c-2.8,0.4-4.6-2.3-6.3-4.4c-11.4-14.1-22.4-28.6-33.5-43c-1.1-1.5-2.4-2.8-3.4-4.3c-0.9-1.4-1.7-3-0.7-4.7c1.1-1.8,3-1.2,4.6-0.9
			c7.2,1.3,14.1,3.6,21.2,5.3c24,5.8,47.9,12.3,71.9,18.2c6.4,1.6,6.7,1.3,10.3-4.5c2-3.3,3.6-6.8,6-9.8c0.8-1,1.8-2.3,3.3-1.9
			c1.4,0.5,1.7,2.1,1.5,3.4c-1.1,5.7-2.6,11.4-5.7,16.4c-1.8,2.8-5,3.1-8,3.1c-9.5,0.1-19,0-28.5,0.1c-2.1,0-4.6-0.6-5.4,2.3
			c-0.7,2.5,1.5,3.5,3,4.7c2.7,2.2,5.5,4.4,8.6,6c7,3.5,11.7,9.1,15.3,15.9c0.4,0.7,0.8,1.5,1.3,2.2c14.5,19.9,21.3,43.1,27.9,66.4
			c3.3,11.5,6.9,23,10.5,34.4c1.7,5.4,1.2,9.9-2.7,14.3c-11,12.3-22,24.6-33.1,36.8c-14.6,16-28.9,32.2-43.5,48.2
			c-6.7,7.4-13.7,14.5-20,22.2c-2.5,3-3.9,6.1-3.9,9.9c0,5.2,0.3,10.4-0.1,15.5c-0.3,4.5,1.6,7.5,5.2,9.4
			c13.7,7,27.4,13.8,42.5,17.3c6.7,1.6,13.6,0.9,20.3-0.6c16.8-3.6,32.4-10,46.1-20.7c7.8-6.1,13-13.6,16.1-22.9
			c6.8-20.8,10.6-42.3,14-63.9c1.3-8.4,2.7-16.8,3.6-25.2c0.2-1.6,1.4-3.7-1-4.8c-1.1-0.3-2.2-0.2-3.3,0c-3,0.6-2.8,3.4-3.8,5.4
			c-1.5,3.2-2.2,6.7-3.6,9.8c-0.7,1.6-1.5,4-3.7,3.2c-2.1-0.7-1.6-3.1-1.1-4.9c2.5-9.3,4.7-18.7,8.1-27.8
			c8.4-22.4,21.9-41.5,37.6-59.1c21.4-23.8,39.4-49.9,54.5-78c1.3-2.4,2.5-4.7,3.5-7.2c1.5-4-0.1-6.3-4.4-5.6s-8.4,2.1-12.6,3.2
			c-9,2.5-18,4.8-27,7.3c-4.8,1.4-8.3,0.2-11.5-3.6c-7.4-8.8-15.5-16.9-23.1-25.6c-2.7-3-6-4.7-9.9-5.3c-16.4-2.6-32.8-5.5-49.3-8.2
			c-2.3-0.4-4.5-0.8-6.9-0.4c-3.4,0.6-4.1-1.3-3.3-4.2c1.2-4.1,3.9-5.9,8.2-5.3c18.7,2.6,37.3,5.6,56.1,7.9
			c9.1,1.1,16.3,4.1,22.9,10.2c6.1,5.6,12.5,11,18.9,16.3c1.2,1,2.2,2.1,3.8,2C1355.8,418.7,1358.2,416.7,1360.7,415z"/>
		<path class="st2" d="M1301.7,586c5.6-2.3,4.1,2.3,3.8,4.5c-0.7,7.1-1.8,14.1-2.9,21.2c-3,19.4-7.1,38.5-11,57.7
			c-5.3,26-21.7,41.1-45,50.4c-11.5,4.6-23.2,8.1-35.8,8.2c-8.6,0.1-16.4-2.7-24-5.9c-8.6-3.6-17.1-7.5-25.5-11.4
			c-5.3-2.4-8.5-6.2-7.7-12.6c0.3-2.3,0.4-4.7,0-7c-2.5-13.4,5.7-21.5,13.9-29.9c7.3-7.5,14.1-15.5,21.1-23.2c8.1-9,16.2-18,24.4-27
			c10.1-11.2,20.5-22.3,30.3-33.7c3.8-4.4,8-8.4,11.7-12.9c2.9-3.6,3.7-6.6,2.4-10.9c-5.2-16.5-10.2-33.1-15.3-49.6
			c-2.3-7.5-4.3-15.1-6.9-22.4c-3.3-9.3-9.7-17-14.3-25.6c-1.3-2.3-2.8-4.6-3.9-7c-3.5-7.2-9.3-11.9-16.2-15.6
			c-2.8-1.5-5.3-3.5-7.7-5.5c-1.8-1.6-3.9-3.4-2.7-6.4c1.2-2.9,3.6-3.5,6.5-3.5c9.7,0.1,19.3-0.2,29,0.1c4.8,0.2,7.5-1.4,8.6-6.1
			c1-4.6,3.5-8.9,3.3-14c-2.5,4.1-4.8,8.2-7.4,12.3c-2.8,4.5-6.3,6.2-12.1,4.7c-30.4-8-60.9-15.6-91.4-23.3
			c-1.6-0.4-3.1-1.1-5.6-0.4c3,4,5.8,7.8,8.7,11.4c10.4,13.3,20.9,26.6,31.3,40c1.7,2.2,3.4,3,6.3,2.6c6.4-0.9,12.9,0,19.4-1.2
			c4.3-0.8,6.7,3,8.6,5.8c11.3,16.9,22.5,33.8,33.2,51c4.6,7.5,4,16.7,5.5,25.2c1.1,6.3,1.9,12.6,4.4,18.4
			c3.2,7.4,0.8,12.4-3.9,17.9c-14.2,16.2-28.1,32.7-42.3,49.1c-13.9,16.1-28,32-41.9,48.1c-9.3,10.8-18.5,21.7-27.8,32.6
			c-1.8,2.2-4,3.9-6.3,5.7c-4.1,3.2-3.7,6.3,0.8,8.6c14.8,7.7,29.9,14.5,45.2,21.2c3,1.3,7,1.8,7.8,6.2c0.3,1.5,1.7,0.7,2.5,0.8
			c4.1,0.4,7.9,1.3,9.8,7.1c0.9-3.5,2.7-4.5,4.4-5.8c3-2.5,5-2.1,7.6,0.7c2.5,2.8,4.1,6.8,9,7c4.5,0.2,8.4-1.9,12.5-3
			c14.8-4,29.4-8.4,44.1-12.6c2.5-0.7,4.4-2.2,6-4.2c6.9-9.2,13-18.8,18.7-28.8c5.9-10.3,11.1-21,12.3-32.7
			c2.4-23.9,10.4-46.4,17.6-69c5.7-17.7,12-35.4,20.3-52c3.9-7.9,7-16.5,13-23.4c1.1-1.3,2.4-2.1,3.7-3.1c3.7-2.9,7.2-5.7,9.6-10.4
			c3.7-7.3,10.7-12.1,16.6-17.7c1.2-1.1,3.4-0.1,4.6-1.5c-0.1-1,0.5-1.4,1.4-1.2c0.7,0.1,0.9,0.7,0.7,1.4
			c-7.8,7.9-15.2,16.3-23.5,23.7c-9.2,8.3-15.5,18.4-20.4,29.5c-10,22.6-18.8,45.6-25.8,69.2c-5.7,19.2-11.4,38.4-13.4,58.6
			c-0.7,7.3-4.2,14-7.5,20.5c-6.2,12.2-13.7,23.6-21.6,34.8c-1.6,2.3-3.6,4.4-4.2,7.3c-0.4,2-1.9,2.5-3.6,3
			c-19.4,5.6-38.7,11.2-58.1,16.8c-2.2,0.6-3.8,0.2-5.4-1.3c-2.9-2.5-5.9-4.8-8.9-7.3c-2.4-1.9-4.3,0-5.8,1.1
			c-1.9,1.5,1.7,1.8,1.3,3.7c-7.2-3.5-14.3-6.9-21.5-10.3c-1.8-0.9-3.5-1.9-5.7-1.6c-1.6-1.8-3.6-2.9-5.7-3.9
			c-15-7.2-30-14.5-45.1-21.4c-3.9-1.8-3.6-3.4-1.3-6.1c11.3-13,22.7-26,34-39.1c11.4-13.2,22.6-26.6,33.9-39.8
			c11.5-13.3,23.1-26.5,34.6-39.8c8.3-9.5,16.4-19.1,24.6-28.7c0.5-0.6,0.6-1.5,0.9-2.3c-1.1-5.5-2.2-11-5-16
			c-1-10.3-3.1-20.3-5.2-30.4c-0.3-1.7-1.6-3.2-2.6-4.8c-9.7-14.7-19.4-29.4-29.1-44.2c-1.2-1.8-2.1-3.8-3.2-5.7
			c-2.9-4.1-5.3-4.6-11-2c-2,0-4,0-6,0c-3,0.4-6.3-1.8-9,1c-3.5,0.6-5.6-1.7-7.4-4.1c-15.1-19.3-30.1-38.6-45.1-57.9
			c-1-1.3-1.9-2.7-2.9-4.1c2.1-1.3,3.7,0.6,5.4,0.2c4.2,2.9,9.7,2.3,14,5c2.7,0.3,5.3,0.7,8,1c16,5.3,32.5,8.7,48.8,13
			c0.8,0.2,1.6,0.4,2.2,1c1.3,0,2.7,0,4,0c9.4,3.7,19.5,5,29.1,8.3c0.9,0.3,2,0,2.9-0.4c3.1-5.4,6.4-10.7,9.4-16.1
			c2.9-5.3,6.9-10,9-15.7c0.7-2,2.8-2.1,4.7-2.1c1.8,1.8,3.9,1.1,6,1c0.3,0,0.7,0,1,0c1.8,1.4,4,0.9,6,1c4.9,1.6,9.9,2.4,15,2
			c1.8,1.4,4,0.9,6,1c0.3,0,0.7,0,1,0c1.8,1.4,4,0.9,6,1c2.5,1.3,5.2,1.9,8,1c1.8,1.4,4,0.9,6,1c4.6,1.5,9.3,2.7,14.2,2.1
			c1.7-0.2,3.2,0.1,4.6,1.3c9.5,8.2,19.1,16.4,28.6,24.7c0.6,0.5,1,1.3,1.5,2c0.9,0.8,1.3,1.8,1,3c-2.6,1.6-3.9-0.7-5.5-2
			c-7.8-6.7-15.7-13.3-23.3-20.2c-5.2-4.7-11.5-5.3-17.9-6.2c-17.7-2.4-35.5-4.7-53.1-7.7c-6-1-8.2,1.3-9.4,6.7
			c6-2.8,11.7,0.1,17.4,0.9c13.8,1.9,27.5,4.6,41.3,6.6c7,1,11,5.6,15.2,10.3c7,7.9,14.1,15.9,21.1,23.8c1.5,1.7,3.2,1.9,5.4,1.3
			c13.1-3.7,26.3-7.2,39.4-10.9c3.6-1,6.4-0.5,9,2.3c2.5,2.8,0.5,5-0.6,7.2c-13.6,25.6-28.2,50.4-47.6,72.2
			c-12.5,14-24.5,28.4-34.5,44.4c-11,17.5-17.1,36.9-20.8,57.2c2.1-5.8,4.3-11.7,6.4-17.5c1-2.8,2.4-3.4,4.7-1.4
			c0.9,5.7-1.4,11-3,16.2c-3.1,10.4-8.5,19.9-13.8,29.3c-4.6,8.3-9.4,16.5-14.6,24.4c-1.3,2-2.7,5.2-5.5,3.6
			c-2.3-1.3-0.7-4.3,0.1-6.4c7.8-18.8,15.6-37.7,20.1-57.5c7.3-31.8,22.8-58.9,44.5-82.7c22.5-24.7,40.7-52.2,56.6-81.5
			c0.5-0.9,1-1.7,1.2-3.2c-4.8,0.4-9,2.1-13.4,3.3c-8.5,2.3-17.1,4.4-25.5,7c-5.3,1.6-9.4,0.4-13-3.7c-7.3-8.5-15.1-16.5-22.3-24.9
			c-3-3.5-6.3-5.6-10.9-6.3c-16-2.4-31.8-5.4-47.8-8.1c-3.9-0.7-5.9,0.4-7,4.2c-1.8,5.9-3.4,11.8-5.6,17.6c-2,5.4-3.3,6.5-9.2,6.6
			c-10.3,0.1-20.6,0-31.1,0.1c0.3,0.5,0.4,0.7,0.5,0.7c13,6.7,20.9,17.8,28.3,30c8.6,14.3,15.1,29.1,19.5,45.1c5,18.1,11,36,16.6,54
			c1.5,5,0.7,8.8-2.8,12.7c-14.1,16-28.6,31.6-42.8,47.5c-14.1,15.8-28.4,31.3-42.5,47.1c-4.2,4.7-8.7,9.2-12.7,14.1
			c-1.1,1.3-2.6,2.4-2.7,4.1c-0.1,6.5-1.1,12.9-1.2,19.4c0,2.5,1.4,3.9,3.5,5c11.9,6.3,24.2,12.1,37.1,15.9
			c7.9,2.3,16.2,1.8,24.3-0.1c15.4-3.6,29.8-9.5,42.4-19.3c6.4-5,10.8-11.1,13.5-18.8c7.8-22.5,11.4-45.8,15.2-69.2
			c1.2-7,1.8-14.2,3.8-21.1C1300.1,589.6,1300.4,587.6,1301.7,586z"/>
		<path class="st2" d="M678.7,284.1c12.7,33.4,25.4,66.9,38.2,100.3c5,13.1,10,26.1,15.1,39.1c1.1,2.9,0.7,5.4-0.5,8.2
			c-14.3,33.1-28.6,66.3-42.9,99.5c-12.6,29.2-25.1,58.4-37.7,87.6c-9.5,22.2-18.9,44.4-28.4,66.6c-10.8,25.1-21.6,50.1-32.4,75.2
			c-4.1,9.6-8.2,19.3-12.3,29c-0.6,1.5-1.3,3-2.9,4.2c2.4-7,4.8-14.1,7.3-21.1c8.2-22.9,16.4-45.8,24.5-68.7
			c13.6-38.1,27.2-76.2,40.7-114.3c0.7-2,2.4-4.2,0.3-6.5c10.3-20.8,16.9-43.1,24.8-64.8c10.4-28.6,20.3-57.3,30.6-86
			c2-5.4-0.9-10.1-2-14.9c-14.3-59.4-28.9-118.7-43.4-178c-0.2-0.6-0.3-1.2,0.3-2.2c3.9,8.1,8,16.1,11.7,24.3
			C672.9,268.8,675.7,276.5,678.7,284.1z"/>
		<path class="st2" d="M1213.7,1075.2c13.5,11.6,27,23.1,40.4,34.7c2.6,2.3,5.2,4.7,7.7,7c0.6,1.7,1.8,3.5,0.1,5.1
			c-1.7,1.6-3.8,0.8-5.7,0.1c-15-5.1-29.8-10.6-44.7-15.9c-23.2-8.3-46.3-16.5-69.5-24.7c-31.5-11.1-62.9-22.4-94.4-33.4
			c-39.2-13.7-78.2-28-117.5-41.5c-6.9-2.4-7.6-3.8-4.9-10.6c11.1-27.5,21.7-55.1,32.9-82.5c13.8-33.7,27.6-67.3,40.7-101.2
			c2.9-7.6,6.1-15.1,8.6-22.9c2.5-7.6,7.3-11,15-12.5c27.8-5.4,55.7-10,83.3-15.9c2.4-0.5,4.8-1.3,7.4-1.4c1.7-0.1,3.4,0.2,4.3,1.9
			c0.9,1.8,0,3.2-1.2,4.5c-5,5.4-10.7,10-16.7,14.1c-1.7,1.2-3.7,1.6-5.7,0.5c-0.4-0.3-0.8-0.7-1-1.2c-0.4-3.7-3-2.9-5.2-2.5
			c-10,1.7-19.9,4.1-29.8,6.2c-8.9,1.9-17.9,3.8-26.9,5.7c-5.8,1.2-9.3,4.2-11.5,9.7c-17.6,43.9-35.8,87.5-53.7,131.3
			c-3.3,8.2-6.4,16.5-10.1,24.5c-2.6,5.8-2.2,11.2,0.4,16.8c5.7,12.7,15.3,22,26,30.4c17.7,13.8,38,22.5,58.8,30.2
			c51.7,19.1,104.4,35.3,157.6,49.7c1.9,0.5,4.1,2.1,5.9-0.3c0.3-0.6,0.8-1.2,1.2-1.8c0.4-0.6,0.9-1.1,1.5-1.5
			C1209,1076.3,1211.2,1075.3,1213.7,1075.2z"/>
		<path class="st2" d="M1207.7,1079c-0.4,0.4-0.7,0.7-1.1,1.1c-2.1,0.6-3.9-0.3-5.6-1.4c-26.8-17.4-53.3-35.3-79.5-53.7
			c-13.6-9.5-27.1-19.3-40.2-29.6c-4.7-3.7-8.3-8.1-10.4-13.7c-4.5-11.9-8.3-23.9-10.6-36.4c-0.5-2.8-0.8-5.6-0.4-8.5
			c0.7-3.7,0.3-7.4-0.4-11.1c0.3-6.5-0.1-13,0.3-19.4c1.1-4.1,2-8.2,0.7-12.4c0.3-5.5-0.1-11.1,0.3-16.6c1.1-4.1,1.9-8.2,0.7-12.4
			c0.3-5.5-0.1-11.1,0.3-16.6c1-3.8,1.9-7.5,0.7-11.4c0.2-5.4-0.1-10.9,0.3-16.3c0.8-3.5,2-7,1-10.8c-1.1-7.2,1.6-12.3,7.8-16.2
			c6.2-4,11.5-9.4,18.1-13c1.3-0.7,2.5-1.7,4-0.5c1.1-0.1,2.7,0.2,3.4-0.4c5.6-4.8,13-7.2,17.8-13.2c1.1-1.3,2.4-2.7,1.3-4.4
			c-1.1-1.6-2.7-0.6-4.1-0.3c-16.4,3.4-32.8,7.3-49.4,9.9c-15,2.3-29.7,5.9-44.6,8.4c-3.5,0.6-5.5,2.3-6.9,5.6
			c-13.1,32.9-26.3,65.9-39.5,98.7c-10.8,26.7-21.7,53.3-32.5,80c-4.6,11.4-8.8,23-13.5,34.4c-1.4,3.3-0.1,4.6,2.6,5.6
			c6.4,2.3,12.9,4.6,19.3,6.9c41.5,14.6,82.9,29.2,124.4,43.8c38.9,13.8,77.7,28,116.7,41.4c23.3,8,46.4,16.4,69.6,24.6
			c5.5,1.9,2.1-2.9,3.5-4c4.9,4.8,10.8,8.6,15.3,14.3c-2.4,1.3-3.9-0.1-5.4-0.6c-24.8-8.7-49.5-17.6-74.3-26.4
			c-1.9-0.7-3.9-0.9-5.8-1.3c-0.3-0.3-0.7-0.6-1-0.9c-1.8-1.8-4.1-2.6-6.5-3.5c-19.5-7.6-39.4-13.8-59-21.1
			c-16.6-6.2-33.4-11.7-50.1-17.6c-16.6-5.8-33-12-49.6-17.8c-13.9-4.9-27.8-9.9-41.8-14.6c-19.3-6.5-38.4-13.6-57.7-20.2
			c-1.4-0.5-2.9-0.9-4.3-1.1l0,0c-2.1-1.1-1.4-2.5-0.7-4.2c11.1-27.2,21.9-54.4,32.9-81.6c10.1-25,19.4-50.4,29.7-75.3
			c5.2-12.6,10.5-25.1,15.1-37.9c2.5-9.5,7.1-18.2,10.3-27.4c0.7-2,2.4-2.5,4.3-2.9c15.4-2.9,30.7-6.9,46.3-8.8
			c2.1-0.3,4.3-0.5,6.1-1.8c20.5-4.2,40.9-8.4,61.4-12.5c0.4,2.1-1.1,2.8-1.9,3.6c-15.4,16.3-30.9,32.5-46.4,48.7
			c-1.1,1.1-2.2,2-2,3.7c1,6.7-0.3,13.5,0.7,20.3c0.1,5.2,0.2,10.5,0.3,15.7c1,6.7-0.3,13.5,0.7,20.3c0.1,5.2,0.2,10.5,0.3,15.7
			c1,6.7-0.3,13.5,0.7,20.3c0.1,5.2,0.2,10.5,0.3,15.7c1,6.4-0.3,12.9,0.7,19.3c0.1,7.2,0.2,14.3,0.3,21.5c0.3,0.6,0.3,1.1,0,1.7
			c-3.7,1.9-5.1-0.5-6-3.4c-1.1-3.6-1.2-7.4-1.2-11.1c0.7-4.1,0.7-8.1,0-12.2c-0.2-1.4-0.1-2.8,0.2-4.2c1.2-3.5,1.7-7,0-10.6
			c-0.8-3.1-1.3-6.3-1.1-9.6c0.5-3.9,0.5-7.8-0.1-11.7c-0.1-1.4-0.1-2.8,0.2-4.1c1.1-3.2,1.6-6.5-0.1-9.7c-0.9-3.4-1.1-6.8-1-10.3
			c0.5-3.9,0.5-7.8,0-11.8c-0.1-1.1-0.1-2.2,0.1-3.3c1.2-3.5,1.6-6.9-0.2-10.4c-0.9-3.1-0.5-6.3-0.6-9.5c0-3.9,0-7.9,0-11.8
			c0-1.4,0-2.7,0.1-4.1c0.9-3.2,1.4-6.3,0.2-9.5c-1.4-3.4-0.8-6.3,2.1-8.8c2.2-1.9,2.7-5.3,5.5-6.7c5-3.2,10-6.2,12.9-9.4
			c-3,3-8.1,6-13,9.4c-2.9,2.4-5.5,5-7.4,8.3c-1.8,4.8,0.2,9.7-0.4,14.6c-0.2,2.1,0,4.3-0.1,6.4c0,0.6-0.1,1.2-0.2,1.8
			c-1.5,8.6-0.6,17.3-0.5,26c0.1,0.6,0.1,1.2,0,1.8c-2.3,9.1-0.8,18.4-1.2,27.7c0.1,0.6,0.1,1.2,0.1,1.8c-2,9.2-0.9,18.4-0.9,27.6
			c0.1,0.6,0.1,1.2,0,1.8c-1.8,7.8-1.8,15.7-0.3,23.5c1.6,13.8,5.6,27,10.7,40c1.4,3.6,3.6,6.6,6.7,9.1c17.8,14.9,37.1,27.7,56.1,41
			c20.1,14.1,40.4,27.7,60.8,41.3c1.9,1.3,3.8,2.7,5.4,4.4C1208.9,1076.1,1208.7,1077.5,1207.7,1079z"/>
		<path class="st2" d="M636.2,571.4c-0.1-32,4.3-62.8,8.7-93.6c6.1-42.2,11.9-84.4,17.8-126.6c0.3-1.8,0.6-3.6,1.8-5.6
			c0.5,1.8,1,3.5,1.4,5.3c6.7,26.1,13.4,52.2,20.2,78.3c0.7,2.7,0.7,5.1-0.3,7.8c-16.2,44.1-32.3,88.2-48.4,132.2
			C637.2,569.9,636.8,570.4,636.2,571.4z"/>
		<path class="st2" d="M584.5,708c-3.2,14.2-6.5,28.4-9.6,42.7c-0.5,2.3-1.2,4.5-2.3,6.5c-16.8,33.5-33.5,67-50.3,100.5
			c-1.6,3.2-3.7,6.2-5.6,9.2c-3.3,4.2-4.7,9.5-7.5,14c-1.2,1.9-2,5.7-5,4.1c-2.4-1.3-0.3-4.3,0.4-6.2c9.2-23.9,18.2-47.9,27.2-71.9
			c2-5.4,4.2-10.8,6.3-16.2c0.8-2.1,2-4.2,1.8-6.6c4.8-13,9.4-26.1,14.4-39c16.8-44.2,33.7-88.5,50.5-132.7c0.7-1.8,1-3.9,3.1-6
			C599.9,640.7,592.2,674.4,584.5,708z"/>
		<path class="st1" d="M734.9,183.8c-11.5-1.9-24-4-36.4-6c-2.5-0.4-2.8-1.8-2.4-3.9c3.3-21.1,8.3-41.8,15.7-61.8
			c0.9-2.4,2-2.8,4.5-2.2c11.9,3.1,23.9,6,35.8,9c5.8,1.5,7.5,4.4,5.6,9.9c-5.2,14.8-9.1,29.9-12.2,45.3
			C744.2,180.7,740.7,184,734.9,183.8z"/>
		<path class="st2" d="M1069.7,828c0-0.3,0-0.7,0-1c1.1-5.7,0.2-11.5,0.5-17.2c0.1-1.9-0.5-3.9,0.5-5.8c1.2-4,4.7-5.4,8-7
			c0.9-0.3,1.3,0.1,1,1c-3,2.6-2.6,7.7-7,9.5c-1.5,0.6-0.8,3,0,4.5c0.8,3.3,0.8,6.7,0,10c0,1.3,0,2.7,0,4c-0.8,4.3-0.8,8.7,0,13
			c0.5,2.6-0.4,5.5,1,8c0.8,3.7,0.8,7.3,0,11c0,1,0,2,0,3c-0.8,4.3-0.8,8.7,0,13c0.5,3-0.4,6.1,1,9c0.8,3.3,0.8,6.7,0,10
			c0,1.3,0,2.7,0,4c-0.8,4.3-0.8,8.7,0,13c0.2,2.7,0,5.4,1,8c0.8,3.7,0.8,7.3,0,11c0,1.3,0,2.7,0,4c-0.8,4.3-0.8,8.7,0,13
			c0.3,3.4,0.7,6.8,0.9,10.2c0.2,2.7,1.4,3.9,4.1,3.8c0.6,0.3,1.3,0.6,1.6,1.2c2.4,5.3,7.7,8.1,11.7,11.1c3.9,2.9,6,8.2,11.4,9.2
			c1.2,0.2,2,1.7,2.5,2.9c0.6,1.6,1.5,3,3.5,2.9c0.5,0,1.2,0,1.4,0.5c2.3,4.6,8.2,5.9,10.4,10.5c1.2,2.6,3.6,2.6,5.6,3.6h-0.1
			c2.4,5.2,9.1,6.2,11.4,11.7c0.5,1.2,2.4,0.9,3.6,1.3h-0.1c1.2,1.1,2.7,2,3.2,3.7c0.7,2.6,2.8,2.9,4.9,3.4c0.3,0.3,0.6,0.6,0.9,0.9
			c1.8,2.4,2.6,6.2,6.9,5.3c13.5,11.6,27,23.1,40.4,34.7c2.6,2.3,5.2,4.7,7.7,7c1.1,3.9,1.1,3.9-1.1,5.1
			c-17.9-10.9-34.9-23.1-52.3-34.9c-22.5-15.3-45-30.8-66.5-47.5c-5.4-4.2-9.9-9-12.1-15.9c-3.9-12-8.3-23.9-9.2-36.6
			c-0.8-8.3-0.8-16.7,0-25c0-0.3,0-0.7,0-1c1.1-6.9,0.2-13.8,0.5-20.7c0.1-2.8-0.5-5.6,0.5-8.3c1.1-6.9,0.2-13.8,0.5-20.7
			c0.1-2.8-0.5-5.6,0.5-8.3c0-0.3,0-0.7,0-1c1.1-6.5,0.2-13.1,0.5-19.7C1069.3,832.9,1068.7,830.4,1069.7,828z"/>
		<path class="st3" d="M889.8-158.8c18.2,0.9,35.9,2,53.7,2.4c7.2,0.2,12.9,2.2,18.6,6.6c18.5,14.2,37.3,27.9,55.8,42.3
			c-5.3-1.9-10.6-3.9-15.9-5.8c-22.4-8.1-45.5-11.7-69.2-8.1c-10.9,1.7-18.4-0.6-24.2-10.7c-5.1-8.9-12.1-16.7-18.2-25
			C890.1-157.3,890.1-157.7,889.8-158.8z"/>
		<path class="st1" d="M764.3,97.5c-2.1-0.5-4.2-0.8-6.3-1.4c-10.6-2.9-21.1-5.9-31.7-8.7c-2.3-0.6-3.6-1.3-2.1-4
			c6.1-11.4,12.2-22.9,18.2-34.4c1.3-2.4,2.7-2.7,5.2-1.9c11.2,3.6,22.5,7.1,33.8,10.6c5.8,1.8,6.9,4.3,4.2,9.7
			c-3.7,7.6-7.5,15.2-11.4,22.7C772.1,94.1,769.7,97.7,764.3,97.5z"/>
		<path class="st4" d="M539.8,784c2,5.6-2.1,9.8-3.7,14.4c-5.5,15.9-11.8,31.6-17.8,47.3c-4.2,11-8.4,21.9-12.7,32.8
			c-0.7,1.9-1.2,3.7-1.5,6.5c4.6-4.1,5.8-9.2,8.3-13.6c1.1-1.8,1.5-4.2,4.2-4.5c0,0.4,0,0.7,0.1,1.1c-11.6,23.4-23.2,46.7-34.8,70.1
			c-0.2-0.1-0.5-0.2-0.7-0.3c6.6-17.5,13.3-35,19.9-52.5c12.2-32.4,24.4-64.9,36.6-97.3C538.3,786.6,539.1,785.3,539.8,784z"/>
		<path class="st2" d="M1128.8,1001.9c-4,1.5-5.2-0.2-7.7-3.7c-2.3-3.2-5.8-7.1-9.4-9.1c-2.4-1.3-5.1-1-5.2-4.7
			c-0.1-1.5-1.2-2.3-2.9-1.9c-3.2,0.8-4.1-1.2-4.5-3.8c-0.2-1.5-0.9-3.6-2.4-3.2c-4.5,1.1-5-1.8-5.7-4.7c-0.2-0.6-0.8-1.6-1-1.6
			c-7.3,1.1-5.9-6.5-9.3-9.2c0-0.5,0.1-1,0.1-1.5c9.8,9.8,20.7,18.2,30.9,27.5C1117.5,991.2,1123.9,995.8,1128.8,1001.9z"/>
		<path class="st5" d="M1156.7-38c-1.3-1.4-1.7-3.1-1-4.9c5.2,0.9,9.7,4.4,15,4.9c1.2,1.1,1,2.6,1,4c-3.6-0.3-6.7-2.1-10-3.5
			C1160-38.3,1158.5-39.2,1156.7-38z"/>
		<path class="st2" d="M1143.8,1014.9c-3.3,1.7-5.8,1.7-6.2-2.9c-0.1-1-0.6-2.5-1.4-2.4c-6.7,1.3-5.8-4.4-7.5-7.8
			C1134.3,1005.5,1139.5,1009.7,1143.8,1014.9z"/>
		<path class="st2" d="M1206.7,1075c2-1.3-0.7-3.7,1.1-5.1c1.9,1.8,3.9,3.5,5.8,5.3c-1.4,2.1-3.9,2.6-6,3.8
			C1207.4,1077.7,1207,1076.3,1206.7,1075z"/>
		<path class="st2" d="M1159.7,1028.2c-5.2,2.9-6.8,1.6-6.9-5.3C1156.2,1023.2,1157.2,1026.6,1159.7,1028.2z"/>
		<path class="st2" d="M1151.8,1021.9c-3.4,1.6-5.8,1.5-6.2-3.1c-0.1-1.4-1.2-2.7-1.8-4C1147.5,1016,1149.5,1019.2,1151.8,1021.9z"
			/>
		<path class="st2" d="M1384.8,485.2c-0.6-0.9-1.3-1-2.1-0.2c-1-0.2-2.8,0.2-2.3-1.5c0.4-1.7,1.9-3.2,3.8-3.2c1.1,0,2.2,1.1,3.4,1.7
			C1387.1,483.4,1385.9,484.3,1384.8,485.2z"/>
		<path class="st1" d="M1077.5,830c-1.7-6.7-0.6-13.5-0.7-20.3C1077.9,816.4,1077.6,823.2,1077.5,830z"/>
		<path class="st1" d="M1078.5,866c-1.7-6.7-0.6-13.5-0.7-20.3C1078.9,852.4,1078.6,859.2,1078.5,866z"/>
		<path class="st1" d="M1079.5,902c-1.7-6.7-0.6-13.5-0.7-20.3C1080,888.4,1079.6,895.2,1079.5,902z"/>
		<path class="st1" d="M1080.5,937c-1.7-6.4-0.6-12.8-0.7-19.3C1081,924.1,1080.6,930.5,1080.5,937z"/>
		<path class="st2" d="M710.5,41.3c-0.1-2.5,0.8-4.1,3.6-4.2c-1,1.7-1.4,3.8-3.2,5c0,0-0.2-0.2-0.3-0.3
			C710.6,41.6,710.6,41.4,710.5,41.3z"/>
		<path class="st2" d="M749.8,984.1c-1.7,0.7-4.1,1.6-6.4,2.5c-30.2,11-60.4,21.9-90.6,32.9c-41.1,15-82.2,30.1-123.4,45.1
			c-6.7,2.5-13.5,4.7-20.2,7.2c-3.3,1.2-5.1,1.3-3.9-3.3c4-15.3,7-30.9,11.7-45.9c3.3-10.4,8.6-20.2,13.1-30.2
			c5.4-12,10.9-23.9,16.3-35.9c1.3-2.9,3.2-4.8,6-6.4c30.1-16.8,60.1-33.6,90.2-50.5c28.6-16.1,56.9-32.5,85.8-48
			c7.5-4,10.6-8.9,12.1-17c8.7-45.5,17.9-91,26.9-136.5c5.9-29.7,11.6-59.4,17.3-89.1c0.8-3.9,3-7,5.1-10.2
			c20.7-30.4,41.4-60.8,62.1-91.2c2.6-3.8,5.5-7.5,7.9-11.5c2.2-3.6,3.4-3.2,5.2,0.3c9.5,19.1,19,38.2,28.6,57.3
			c14.8,29.7,29.9,59.2,44.3,89.1c3.5,7.4,8.3,11.8,15.7,14.6c9,3.5,17.7,7.7,26.6,11.5c2.3,1,4,2.4,4.5,4.9
			c3.1,14.3,6.3,28.6,9.5,42.8c0.8,3.6,0,4.5-3.7,3.8c-31.6-6.4-63.2-12.7-94.8-19c-1.1-0.2-2.3-0.3-3.4-0.6c-2.7-0.8-4,0.2-3.4,2.9
			c1.2,4.8,0.6,9.6,0.9,14.4c0.3,4.5,2,8.3,5.2,11.9c13.3,15.1,26.1,30.6,39.1,45.8c1.8,2.1,1.7,4.1,1,6.5
			c-5,16.2-9.9,32.5-14.9,48.7c-16.9,54.5-33.9,109-50.8,163.6c-4.9,15.9-10,31.8-14.8,47.7c-1.2,3.9-2.3,4.6-6.1,2.2
			c-30.8-19.5-61.7-38.8-92.6-58.1C754.1,985.4,752.6,984.1,749.8,984.1z"/>
		<path class="st6" d="M1007.5,105.4c-3.3,42.6-5.8,85.5-12.8,127.9c-0.7,3.9-1.5,5.7-6.1,4.8c-8.7-1.7-17.4-2.7-26.2-3.7
			c-3.1-0.4-3.9-1.4-3.4-4.4c1.3-8.6,2.2-17.2,3.5-25.7c0.5-3.5-0.2-5-4-5.6c-11.9-1.7-23.7-3.6-35.5-5.7c-3.4-0.6-5.1,0.5-6.8,3.3
			c-5.7,9.6-11.4,19.2-15.7,29.5c-1.3,3.1-2.9,4.3-6.3,4.1c-32.6-1.7-65.3-0.6-97.9-0.7c-6,0-6-0.1-5.4-6.3
			c4-41.6,15.6-81,33.7-118.5c7.6-15.8,15.7-31.3,24-46.7c1.8-3.3,3.5-4.1,7-2.9c7.1,2.4,14.3,4.5,21.6,6.3c4.2,1.1,3.8,2.7,2.1,5.8
			c-10.7,19.6-20.7,39.6-29.6,60c-8.8,20.2-15.9,40.9-21.1,62.4c-0.9,3.7-0.1,4.5,3.5,4.7c13.6,1,27.2,2.2,40.8,3.7
			c4.6,0.5,7-0.9,9.4-5c12.6-22.1,28.7-41.7,45.7-60.4c12.6-13.8,25.5-27.3,38.1-41c2.2-2.4,4.3-2.9,7.5-1.9c10,3.3,20,6.4,30.1,9.2
			C1007,99.9,1008.7,101.4,1007.5,105.4z"/>
		<path class="st6" d="M1213.3,262.1c-2.6,0.8-5.7-2.7-7.3-0.1c-1.2,2,1.9,4.3,2.8,6.6c1.2,3,1.2,6.2,1.4,9.3
			c0.7,9.1,1.5,18.3,1.2,27.4c-0.1,3.4-0.6,5.3-4.9,3.3c-7.9-3.6-16-6.7-24-9.9c-2.8-1.1-3.7-2.4-2.9-5.6
			c2.5-10.8,2.8-21.8,2.9-32.8c0.1-5.1-2.1-9-6.4-11.6c-4-2.4-8-4.8-11.8-7.4c-2.4-1.6-3.6-1-5.1,1.3c-7.5,11.5-16.2,21.9-25.4,32
			c-2,2.2-3.7,2.5-6.5,1.4c-6.9-2.8-14-5.4-21.1-7.8c-2.9-1-3.9-1.8-1.5-4.6c23.4-28.2,40.6-60,54.6-93.7c1.2-2.8,2.1-4.1,5.2-1.9
			c6.9,4.9,14,9.6,21.2,14.2c2.7,1.7,2.9,3.2,1.6,6.1c-5.3,11.5-10.3,23.1-16.4,34.2c-1.9,3.5-1.3,5.3,2,6.9
			c1.2,0.6,2.4,1.3,3.3,2.2c9.6,9.6,19.7,9.1,30.6,2c6.7-4.3,14-7.7,20.9-11.7c2-1.2,3.3-1.4,5.1,0.4c7.5,7.4,14.4,15.2,21.3,23.2
			c1,1.2,2.3,2.3,0,3.4C1241,255.2,1227.4,259.6,1213.3,262.1z"/>
		<path class="st6" d="M1106.6,246.9c-3.8,5.1-7.6,10.2-11.3,15.3c-1.1,1.5-2.2,1.5-3.8,1c-22.3-7.4-45-13.3-67.8-19
			c-15.4-3.8-20.1-14.9-13-29.1c12.9-25.8,26.1-51.4,38.1-77.6c5-10.8,15.3-15,28.3-11.9c10.3,2.4,19.7,7.2,29.2,11.5
			c14.4,6.6,28.5,13.7,42.3,21.4c3.6,2,4.3,3.7,2.3,7.3c-2.1,3.8-3.7,7.8-5.4,11.8c-0.9,2.1-1.6,2.7-3.9,1.2
			c-17.2-11.3-36-19.5-54.8-27.5c-4.8-2-7.3-0.9-9.6,4c-9.8,21.3-20.5,42.2-32.2,62.6c-2.7,4.7-1.9,7.4,3,8.9
			C1067.5,232.7,1086.6,240.1,1106.6,246.9z"/>
		<path class="st7" d="M1064.9,285.2c-4.4,7.3-8.8,14.7-13.3,22c-0.9,1.5-1.4,3.1-4.1,2.3c-3.6-1.2-4.8-2.1-2.4-5.9
			c6.9-10.8,13.4-21.9,19.8-33c1.9-3.3,3.8-2.5,6.5-1.7c3,0.9,3.3,2.4,2.8,5.2c-1.4,8.2-2.5,16.4-2.8,25.1c2.5-4.2,5.1-8.5,7.6-12.7
			c1.9-3.1,3.9-6.2,5.6-9.4c1.2-2.4,2.6-2.7,5.1-1.9c3.3,1,3.6,2.1,1.8,5.1c-6.9,11-13.6,22.1-20,33.4c-1.8,3.2-3.6,2.7-6.4,1.9
			c-3.2-1-3.5-2.6-3-5.5c1.3-8.1,2.3-16.3,3.5-24.5C1065.4,285.4,1065.2,285.3,1064.9,285.2z"/>
		<path class="st7" d="M1208.5,320.3c-0.1,5.9-8.3,15.8-14.5,16.9c-2.3,0.4-2,1.8-2.3,3.2c-0.7,4.6-1.3,9.2-2.2,13.8
			c-0.3,1.4,0.5,4.6-2.6,3.1c-2.2-1-6.8,0.3-5.7-4.9c1.1-4.7,1.7-9.5,2.9-14.2c0.6-2.4-0.2-3.3-2.2-4s-3.5-1.2-4.9,1.3
			c-2.3,4.3-5.1,8.2-7.3,12.5c-2.4,4.7-5.5,1.8-7.9,0.7c-2.8-1.3,0.1-3.1,0.8-4.3c6.6-11.2,13.4-22.3,19.9-33.5
			c1.3-2.3,2.5-2.9,5.1-1.9c5.3,2.1,10.7,3.7,16,5.6C1206.4,315.6,1208.5,317.1,1208.5,320.3z"/>
		<path class="st7" d="M1126.9,336.9c-2-0.8-4.6-1.2-5.9-2.6c-1-1.1,1.1-2.8,1.9-4.2c2.1-3.8,4.3-7.5,6.7-11.1
			c1.2-1.9,1.2-3-1.2-3.5c-0.2,0-0.3-0.1-0.5-0.2c-8.1-3.2-8.1-3.2-12.5,4.2c-1.7,2.9-3.4,5.7-5.1,8.6c-0.9,1.6-1.8,2.5-3.9,1.9
			c-5.2-1.5-5.4-1.7-2.6-6.4c6.5-10.9,13-21.7,19.6-32.5c1.7-2.7,6.7-3.2,8.6-0.8c1,1.1-0.1,1.8-0.5,2.6c-2.2,3.7-4.3,7.5-6.7,11.1
			c-1.5,2.2-0.8,2.9,1.4,3.8c8.2,3.2,8.2,3.3,12.8-4.5c1.3-2.1,2.7-4.2,3.8-6.4c1.1-2,2.3-2.2,4.4-1.6c3.3,1.1,5.1,1.8,2.5,5.8
			c-6.9,10.8-13.3,21.9-19.9,32.9C1129.1,335.1,1128.7,336.7,1126.9,336.9z"/>
		<path class="st7" d="M1008.8,295.6c3.2-2.5,6.1-4.2,8.5-6.6c8.7-8.7,17.3-17.6,25.7-26.6c3.9-4.2,7.1-0.3,10.3,0.6
			c3,0.9,0.6,3.5,0.1,5c-3.4,11.8-7.1,23.6-10.5,35.4c-0.9,3.1-2.1,4-5.2,2.6c-2.6-1.2-5.5-1.4-3.6-5.6c0.7-1.6,3.6-4.5-0.1-5.7
			c-3.5-1.1-7-5.2-11.1-0.4C1018.2,300,1017.9,299.8,1008.8,295.6z"/>
		<path class="st7" d="M1016.4,279.2c-4.2-0.4-8-2.1-11.9-3.6c-2.5-1-3.9-0.6-5.2,1.8c-1.7,3.2-3.7,6.3-5.6,9.4
			c-1.9,3-6.1,3.6-8.6,1.2c-1-1-0.3-1.7,0.2-2.6c7.2-12,14.4-23.9,21.5-35.9c0.9-1.5,1.9-2,3.7-1.4c5.9,2.1,12,4.1,17.9,6.3
			c3.6,1.4,4.9,4.2,3,7.6c-2.6,4.8-5.5,9.5-8.6,14C1021.5,278.3,1019.1,279.3,1016.4,279.2z"/>
		<path class="st7" d="M1158.7,299c6.8,2.3,13.5,4.7,20.3,6.9c1.8,0.6,1.5,1.7,0.5,2.6c-1.3,1.3-1.1,4.7-4.4,3.5
			c-3.3-1.2-6.7-2-9.9-3.5c-3.1-1.5-4.9-0.6-6.2,2.3c-0.5,1.2-1.2,2.4-2,3.4c-2.1,2.5-1.1,3.7,1.6,4.3c1.6,0.4,3.3,0.8,4.7,1.6
			c1.2,0.7,4.6-0.1,2.9,3.1c-1.1,2-1.5,4.6-5.4,3.2c-9.5-3.3-9.5-3-14.7,5.7c-1.7,2.7-1,3.6,1.7,4.3c3.3,1,6.7,2.1,9.9,3.4
			c1,0.4,3.9,0,2.3,2.4c-1,1.7-1.1,5.1-4.6,4c-6.8-2.2-13.5-4.7-20.3-6.9c-1.9-0.6-1.6-1.6-0.8-2.9c7.2-12,14.4-23.9,21.6-35.9
			C1156.6,299.7,1157.2,298.5,1158.7,299z"/>
		<path class="st2" d="M921.7,1006c6.1-0.7,11.2,2.6,16.6,4.4c14.9,5,29.8,10.3,44.6,15.6c11.6,4.1,23.1,8.4,34.6,12.4
			c16.1,5.6,32.2,11.1,48.2,16.8c11.9,4.2,23.5,9.2,35.6,12.9c15.6,4.8,30.8,10.8,46.2,16.4c11.2,4,22.9,6.9,33.7,12.1
			c1.8,0.8,3.8,1.1,5.8,1.5c2.2,0.5,3.8,1.3,3.7,3.9c-5.1-0.7-9.5-3.7-14.3-5.3c-26.1-9-52.1-18.3-78.1-27.6
			c-51.4-18.2-102.8-36.5-154.2-54.7C936.6,1011.6,928.7,1009.9,921.7,1006z"/>
		<path class="st7" d="M1087.8,323.3c-1.5-0.6-3.9-0.9-5.1-2.2c-1.3-1.4,0.9-2.9,1.6-4.2c5.1-8.6,10.1-17.2,15.4-25.7
			c1.9-2.9,2.1-4.3-1.7-5.4c-1.5-0.4-5.2,0.3-4.2-3c1-3.1,2.7-5.7,7.3-3.7c5.9,2.6,12.2,4.3,18.3,6.5c1.1,0.4,3.9,0.3,2.2,2.6
			c-1.2,1.6-0.9,5.4-4.8,4.3c-7.6-1.9-7.6-1.8-11.7,4.9c-4.6,7.7-9.2,15.4-13.9,23.1C1090.5,321.7,1090.1,323.4,1087.8,323.3z"/>
		<path class="st2" d="M998.7,807c-0.3,7.2-4.4,13.2-6.9,19.6c-7.3,19-15.5,37.8-22.6,56.9c-14.8,40-31.5,79.3-47.4,118.8
			c-0.6,1.4-0.7,2.5-0.1,3.7c-4.3-0.1-2.2-2.9-1.6-4.5c4.7-12.1,9.6-24.1,14.4-36.1c15.1-37.6,30.1-75.3,45.2-112.9
			c5.7-14.3,11.5-28.7,17.3-43C997.4,808.6,998.1,807.8,998.7,807z"/>
		<path class="st2" d="M1188.7,404c-6.8-1.7-13.8-2.6-20.6-4.5c-7.9-2.2-16-3.7-23.7-6.5c-2.3-0.8-4.9-1-6.7-3
			c11.5,1.7,22.5,5.4,33.7,8.1c4.5,1.1,9,2.2,13.4,3.4C1186.3,402,1188.3,401.8,1188.7,404z"/>
		<path class="st2" d="M1224.7,412c-1.1,2.1-2.8,2.2-4.6,1.2c-7.4-3.9-16.2-3.2-23.7-7c-1.3-0.7-2.9-0.7-3.7-2.2
			C1203.6,405.7,1214.1,409,1224.7,412z"/>
		<path class="st2" d="M1180.7,449c1.6-3,4.2-3.4,7.1-2.7c2.4,0.6,4.1,1.9,3.9,4.8C1188.5,448,1184.4,449.3,1180.7,449z"/>
		<path class="st2" d="M1129.7,389c-4.7-1.5-10.3-0.6-14-5C1120.4,385.5,1125.8,385.1,1129.7,389z"/>
		<path class="st2" d="M1231.7,536c4.2,4.6,5,10.1,5,16C1234.5,546.8,1233,541.4,1231.7,536z"/>
		<path class="st2" d="M1165.7,450c2.5-5,5.8-2.5,9-1C1171.9,450.9,1168.7,449.6,1165.7,450z"/>
		<path class="st2" d="M1352.7,419c-1-0.8-1-1.9-1-3c3.2,1.8,6-0.2,9-1C1358.9,418.1,1356.1,419.1,1352.7,419z"/>
		<path class="st2" d="M1253.7,379c-2.5,2.4-4.5,2.6-6-1C1249.7,378.2,1251.9,377.4,1253.7,379z"/>
		<path class="st2" d="M1302.7,386c-2.3,1.6-4.3,1.4-6-1C1298.7,385.2,1300.9,384.4,1302.7,386z"/>
		<path class="st2" d="M1288.7,384c-2.3,1.6-4.3,1.4-6-1C1284.7,383.2,1286.9,382.4,1288.7,384z"/>
		<path class="st2" d="M1281.7,383c-2.3,1.6-4.3,1.4-6-1C1277.7,382.2,1279.9,381.4,1281.7,383z"/>
		<path class="st2" d="M1260.7,380c-2.3,1.6-4.3,1.4-6-1C1256.7,379.2,1258.9,378.4,1260.7,380z"/>
		<path class="st1" d="M1079.6,397.8c10.7,12.7,21.3,25.3,32,38c11.2,13.4,22.4,26.8,33.6,40.1c13.3,15.9,26.7,31.8,40,47.8
			c5.2,6.4,5.1,6.6,0,13.2c-27.2,35.3-54.4,70.6-81.5,105.9c-3.4,4.5-6.8,9-10.4,13.4c-3.2,4-5.6,4-8.5-0.2
			c-10.8-15.8-21.6-31.6-32.3-47.5c-2.4-3.6-5.4-6-9.5-7.6c-11-4.3-21.7-9.3-32.8-13.5c-4.5-1.7-6.1-4.5-6.5-8.8
			c-1.7-19.3-3.3-38.7-5.1-58c-1.5-15.5-3.2-31-4.8-46.5c-0.8-7-0.1-8.2,6.4-11.8c27.9-15.6,55.7-31.2,83.7-46.8
			c2.5-1.4,2.9-2.5,1.3-5c-2.4-3.9-4.2-8.1-6.3-12.2C1079.1,398.1,1079.4,398,1079.6,397.8z"/>
		<path class="st1" d="M841.1,258c-8.7,2.7-17.7,4.4-26.3,7.5c-5.5,2-10.9,4-15.7,7.6c-4,3-4.4,5-0.9,8.9c5.3,6,11.6,11,18.2,15.5
			c22.8,15.4,46.6,29,70.9,41.9c3.6,1.9,7.1,3.9,10.3,6.6c-3.9-1.1-8-1.9-11.8-3.4c-17.3-6.9-34.6-5-51.9,0.1
			c-11.8,3.4-23.4,7.6-33.8,14.6c-7.1,4.7-8.6,9.5-5.6,17.5c2.9,7.8,7.6,14.8,11.4,22.2c5,9.7,10.6,19.2,12.2,30.4
			c0.9,6.9-0.6,13.3-3.2,19.4c-7.1,16.4-18.3,29.6-31.9,41c-0.4,0.3-0.7,0.7-1.2,1c-1.9,1.2-3,4.8-5.3,3.6c-2.2-1-1.6-4.4-1.8-6.9
			c-2.1-17.5,1.1-34.7,2.7-52c1.1-11.5-2.4-22.8-6.4-33.6c-9.5-25.2-23.5-48.1-35.8-71.9c-7.3-14.1-13.9-28.4-13.5-44.9
			c0.2-7.6,2.8-14.3,6.7-20.6c1.5-2.4,3.5-4.3,6.8-4.3C770.4,258,805.8,258,841.1,258z"/>
		<path class="st1" d="M1074.7,661.4c-7.2-5.2-14.4-10.5-21.6-15.7c-19.5-14.2-38.9-28.5-58.4-42.6c-3.5-2.5-5.3-5.4-6.1-9.6
			c-3.9-20.7-8.5-41.3-12.2-62.1c-2.1-11.9-3.2-24-4.7-36c-1.8-15.3-3.2-30.7-5.4-45.9c-0.5-3.6,0.7-4.7,3.4-6
			c19.4-9.1,38.8-18.3,58.3-27.4c8.1-3.8,16.3-7.6,24.4-11.4c4.4-2.1,11.7,0.8,13.5,5.3c1,2.6-1.4,2.7-2.7,3.3
			c-10.9,5.4-21.8,10.7-32.8,15.9c-13.9,6.7-27.9,13.3-41.9,20c-3.8,1.8-7.5,3.5-11.4,5.2c-2.7,1.2-3.3,2.7-2.8,5.8
			c7.2,41,14.3,82.1,21.2,123.2c0.5,3.1,2.5,4.2,4.6,5.4c11.2,6.6,22.2,13.5,33.8,19.3c7.6,3.8,11,10.9,15.6,17.1
			c8.8,11.7,17.1,23.7,25.7,35.6C1075.1,660.8,1074.9,661.1,1074.7,661.4z"/>
		<path class="st8" d="M1370.9,388c-6.4,0.2-11.7-1.3-17.1-2.2c-2.8-0.5-4.6-2.5-6.1-4.8c-6.6-10.2-13.2-20.4-20.1-30.4
			c-2.2-3.2-1.3-5,1.2-7.1c11.2-9.4,22.2-19,32-29.9c2.9-3.3,5.5-6.7,7.5-10.6c1.2-2.4,2.4-3.9,4.2-0.4c9,16.6,18,33.1,23.5,51.2
			c3.1,10.2-2.5,17.7-8.5,24.8C1383.1,383.8,1378.4,389.5,1370.9,388z"/>
		<path class="st9" d="M1315.5,360.2c-21.4-4.3-43-7.4-63.2-16.2c-2.9-1.3-7.6-1.6-8-5c-0.4-3.3,3.9-5,6.5-6.9
			c4.8-3.6,4.7-3.4,0.1-7.5c-4.1-3.7-7.8-7.7-11.9-11.4c-6.1-5.5-6.3-11.6-2.6-18.3c3.2-2.6,6.9-2.1,10.5-1.5
			c12.9,2.4,25.7,5,38.5,7.7c3.5,0.7,6.1,2.5,7.7,5.7c8.4,16.4,16.6,32.9,23.7,49.9C1317.4,357.7,1320,360.6,1315.5,360.2z"/>
		<path class="st8" d="M1348,127.8c-11.2-4.3-22-9-33.1-12.7c-9-3-16.8-7.4-22.4-15c-9.1-12.4-16.7-25.6-21.1-40.5
			c-4.1-13.7-7.4-27.6-10.5-41.6c-0.1-0.6,0-1.3,0-3.2c7.3,7.7,14.8,13.7,20.8,21.2c22.2,28,42.8,57.2,63.3,86.5
			C1346,124,1348.2,124.9,1348,127.8z"/>
		<path class="st8" d="M1187.4-29.5c9.7,4,18.2,7.4,26.6,10.9c1.9,0.8,2.2,2.8,2.7,4.5c9.5,33.4,19,66.9,28.5,100.3
			c0.3,1.1,0.5,2.3,0.8,3.4c0.5,1.6,0.2,3.1-1.2,4c-1.5,0.9-3,0.2-4.2-0.7c-3.9-2.7-5.6-6.9-7.4-11c-5-11.6-9.8-23.3-14.6-35
			c-10-24.1-19.9-48.3-29.8-72.5C1188.5-26.4,1188.3-27.2,1187.4-29.5z"/>
		<path class="st10" d="M1315.5,360.2c1.1-0.3,1.6-0.6,0.9-2c-8.4-17-16.8-34-25-51.1c-1.1-2.3-2.8-3.5-5.3-4
			c-12.7-2.5-25.4-5.1-38.2-7.5c-3.7-0.7-7.6-0.6-11.4-0.8c2.5-13.7,2.7-13.8,16.2-12.5c13.4,1.2,26.8,2.4,40.2,3.6
			c2,0.2,3.8,0.1,4.7,2.7c7.3,22.4,16.1,44.3,20.7,67.6C1319,360.6,1318.9,360.6,1315.5,360.2z"/>
		<path class="st8" d="M898.8-17.1c-8.3-4.4-16.7-8.7-25-13.3c-8.6-4.8-16.9-9.9-24-16.8c-4.8-4.6-11.1-6.6-17.2-8.9
			c-3.1-1.1-6.4-2-9.4-3.3c-6.6-2.7-9.9-6.1-7.8-13.7c1.8-6.4-1.6-12.4-4.3-18.1c-10.4-21.4-23.9-40.8-37.9-59.8
			c-0.4-0.5-0.7-1-1.7-2.5c5.8,1.4,10.7,2.5,15.6,3.8c16.3,4.3,32.5,8.7,48.7,12.8c4.2,1.1,7.5,3.4,10.7,6.1
			c14,11.8,28,23.5,42,35.3c13.6,11.5,27.1,23,40.7,34.4c16.5,13.9,33,27.8,49.6,41.7c13.1,11,26.2,22.1,39.2,33.1
			c19,16.1,37.9,32.2,57.9,49.2c-12.3-4.9-23.5-9.3-34.7-13.9c-30-12.3-60-24.7-89.5-38.4c-8.2-3.8-16.5-3.4-24.8-0.9
			c-8.7,2.6-16.8,6.7-24.1,11.8c-5.9,4.1-11.7,4.6-18.4,3c-33-7.5-65.5-16.6-97-29.1c-7.4-2.9-14.7-6.5-19.3-13.6
			c-3.1-4.8-6.2-9.9-3.3-15.8c3.1-6.3,9.2-7.9,15.5-8.1c11.7-0.5,23.1,2.1,34.5,4.5C843-31.6,870.8-24.2,898.8-17.1z"/>
		<path class="st8" d="M1011-72.4c15.4,3.5,31.1,3,46.6,5.2c20.1,2.9,39.8,7.7,59.4,13.1c5.6,1.5,11.1,3.4,16.8,4.8
			c2.4,0.6,3.6,1.7,4.5,4c13.3,36.4,26.7,72.8,40,109.2c8.4,23,16.9,45.9,25.3,68.9c0.9,2.4,2.4,3.9,4.6,4.9
			c20.6,9.4,41.2,18.8,61.8,28.2c11.2,5.1,22.4,10.2,33.7,15.2c2.1,0.9,2.8,2.6,3.6,4.5c10.8,28.3,21.7,56.6,32.5,84.8
			c0.5,1.4,1.1,2.8,2.2,5.6c-21.5-16.1-42-31.5-65.7-41.9c0,0.1,0-0.3,0.1-0.4c8.8-3.4,9.3-4.4,3.9-12.6
			c-8.4-12.7-18.6-23.8-28.7-35.1c-5.1-5.7-9.8-11.8-16-16.4c-14.3-10.7-30.8-17-47.1-23.8c-7.1-2.9-14.2-5.7-21.3-8.5
			c-14.4-5.6-21.9-17.1-24-31.4c-3.8-25.5-13.9-48.5-24.5-71.5c-7-15.1-14.2-30.1-24.5-43.4c-16.9-21.9-37.9-39-61.9-52.6
			C1025.2-65.2,1018.2-69,1011-72.4z"/>
		<path class="st1" d="M1301.7,586c-4.2,27.7-7.6,55.6-15,82.8c-2.3,8.5-4.3,17.1-9.6,24.5c-6.4,8.8-15.3,14.3-24.7,18.9
			c-13.9,6.8-28.2,11.6-44.1,11c-9.5-0.3-17.6-4.6-26-8c-6.6-2.7-12.9-6.2-19.5-9.1c-3.7-1.6-5.4-4-5.1-8.1c0.5-6.1,1.4-12.2,1-18.4
			c-0.1-1.8,1-3.1,2.2-4.3c13.3-14.6,26.7-29.2,39.9-43.9c20.6-22.8,41.1-45.7,61.7-68.6c1.4-1.6,1.7-3,1.1-4.9
			c-8.4-27.2-16.2-54.6-25.3-81.5c-3-8.8-9.9-16.1-14.1-24.6c-5.6-11.2-14.1-19.1-24.7-25.1c-1.7-1-3.9-1.7-5.1-3.8
			c2-1.5,4.1-0.9,5.9-0.9c10.5-0.1,21-0.2,31.5,0c3.5,0.1,5.1-1.1,6-4.4c2-7,4.5-13.9,6.5-21c1-3.3,2.9-4.1,6-3.6
			c17.7,3,35.3,6,53,9c3.5,0.6,6,2.6,8.2,5.2c7.5,8.5,15.2,16.8,22.4,25.4c3.8,4.6,7.7,5.5,13.4,3.7c12.9-4,25.9-7.2,38.9-10.8
			c0.8-0.2,1.5-0.7,2.6,0c-1.1,5.2-4.5,9.4-7,13.9c-10,17.8-20.4,35.5-33.2,51.5c-9,11.3-18.5,22.2-27.8,33.2
			c-17.5,20.9-29.2,44.6-35.6,71.2c-4.8,20.1-12.5,39.3-20.5,58.4c-0.7,1.6-1.6,3.2-1.5,5.8c5.6-7.1,9.5-14.6,13.8-21.8
			c9.1-15.3,17.3-31.1,22-48.5c0.3-1.1,0.5-2.3,0.7-3.4C1300.4,585.8,1301,585.2,1301.7,586z"/>
		<path class="st8" d="M1061.7,938c1.2,17.2,6.6,33.3,13.8,48.6c3,6.4,10.2,9.9,15.9,14.1c29.3,21.9,59.5,42.5,90,62.6
			c8.4,5.6,16.9,11.1,25.3,16.7c-0.3,0.3-0.6,0.6-0.9,0.9c-3.5,2-6.9,0.1-10.1-0.8c-20-5.6-40.1-11.2-60-17.3
			c-38.2-11.7-76.4-23.7-113.3-39.1c-19.8-8.2-38.4-18.5-53.5-34.3c-6.1-6.3-10.6-13.6-13.6-21.9c-1.4-4-1.3-7.8,0.3-11.7
			C977,903.9,998.3,852,1019.4,800c2.5-6.2,6.4-9.6,13-10.8c17.2-3.1,34.2-7.2,51.3-10.7c3.2-0.7,6.8-2.6,9.9,0.6c0,0.3,0,0.6,0,0.9
			c-9.8,5.6-18,13.2-26.9,20c-2.6,2-0.7,6-1.1,9c-1.3,3.6,0.3,7.4-0.9,11c0,5.7-0.1,11.3-0.1,17c-1.2,3.6,0.3,7.4-0.9,11
			c0,5.7-0.1,11.3-0.1,17c-1.3,3.9,0.3,8.1-0.9,12c0,5.7,0,11.3-0.1,17c-1.3,3.9,0.3,8.1-0.9,12c0,6.7-0.1,13.3-0.1,20
			C1060.9,930,1060.9,934,1061.7,938z"/>
		<path class="st2" d="M1093.7,779c-9,0.4-17.6,3.3-26.4,5c-12.7,2.5-25.3,5.4-38,8c-3.1,0.7-5.1,2.1-6.4,5.3
			c-10.3,25.4-20.7,50.8-31.2,76.1c-11.4,27.7-22.8,55.3-34.2,83c-1.4,3.4-1.8,6.5-0.5,10.1c4.9,14.3,15,24.5,26.7,33.4
			c18.3,13.8,39.2,22.3,60.4,30.3c25.9,9.7,52.1,18.4,78.5,26.5c26.5,8.2,53.2,16,80,23.2c1.1,0.3,2.2,0.7,3.3,1.1
			c1.4,4.7-1.4,4.2-4.3,3.4c-13-3.6-25.9-7.3-38.9-11c-33.6-9.5-66.9-20.3-99.9-31.7c-17.9-6.2-35.9-12.5-52.9-20.9
			c-18.6-9.2-35.8-20.5-48.7-37.2c-3.8-4.9-6.6-10.4-8.5-16.3c-1.3-3.9-1.2-7.8,0.4-11.7c8-19.5,16-39.1,24-58.6
			c13.8-33.7,27.6-67.4,41.4-101.1c1.9-4.7,5.2-7.6,10.2-8.6c20.5-4.3,41-8.6,61.5-12.8C1094.5,773.5,1095,774.2,1093.7,779z"/>
		<path class="st2" d="M1079.7,798c-0.3-0.3-0.7-0.7-1-1c4.4-5.3,10.6-8.5,15.6-13c0.7-0.6,1.5-0.9,2.2-0.2c1,1.1,0,1.8-0.6,2.5
			C1091.2,791.1,1086.6,796.1,1079.7,798z"/>
		<path class="st2" d="M1068.7,856c0,7.9,0,15.9,0,23.8c0,1.8,0.4,3.7-1,5.2c0-7.9,0-15.9,0-23.8
			C1067.7,859.4,1067.3,857.5,1068.7,856z"/>
		<path class="st2" d="M1067.7,885c0,7.9,0,15.9,0,23.8c0,1.8,0.4,3.7-1,5.2c0-7.9,0-15.9,0-23.8
			C1066.7,888.4,1066.3,886.5,1067.7,885z"/>
		<path class="st2" d="M1069.7,828c0,7.3,0,14.5,0,21.8c0,1.8,0.4,3.7-1,5.2c0-7.3,0-14.5,0-21.8
			C1068.7,831.4,1068.3,829.5,1069.7,828z"/>
		<path class="st2" d="M1066.7,915c0,8.3,0,16.7,0,25C1065.1,931.7,1065.1,923.3,1066.7,915z"/>
		<path class="st2" d="M1070.7,804c0,5.9,0,11.9,0,17.8c0,1.8,0.4,3.7-1,5.2c0-5.9,0-11.9,0-17.8
			C1069.7,807.4,1069.3,805.5,1070.7,804z"/>
		<path class="st2" d="M1072.7,839c-1.6-4.3-1.6-8.7,0-13C1072.7,830.3,1072.7,834.7,1072.7,839z"/>
		<path class="st2" d="M1074.7,910c-1.6-4.3-1.6-8.7,0-13C1074.7,901.3,1074.7,905.7,1074.7,910z"/>
		<path class="st2" d="M1073.7,874c-1.6-4.3-1.6-8.7,0-13C1073.7,865.3,1073.7,869.7,1073.7,874z"/>
		<path class="st2" d="M1075.7,946c-1.6-4.3-1.6-8.7,0-13C1075.7,937.3,1075.7,941.7,1075.7,946z"/>
		<path class="st1" d="M1062.7,877c0.4-4-1-8.1,0.9-12C1063.3,869,1064.7,873.1,1062.7,877z"/>
		<path class="st1" d="M1061.7,906c0.4-4-1-8.1,0.9-12C1062.3,898,1063.7,902.1,1061.7,906z"/>
		<path class="st1" d="M1061.7,938c-1.5-4-1.5-8,0-12C1061.7,930,1061.7,934,1061.7,938z"/>
		<path class="st1" d="M1064.7,820c0.3-3.7-1-7.5,0.9-11C1065.3,812.7,1066.6,816.5,1064.7,820z"/>
		<path class="st1" d="M1063.7,848c0.3-3.7-0.9-7.5,0.9-11C1064.3,840.7,1065.6,844.5,1063.7,848z"/>
		<path class="st2" d="M1073.7,858c0-3.7,0-7.3,0-11C1075.3,850.7,1075.3,854.3,1073.7,858z"/>
		<path class="st2" d="M1075.7,929c0-3.7,0-7.3,0-11C1077.3,921.7,1077.3,925.3,1075.7,929z"/>
		<path class="st2" d="M1072.7,822c0-3.3,0-6.7,0-10C1074.2,815.3,1074.2,818.7,1072.7,822z"/>
		<path class="st2" d="M1074.7,893c0-3.3,0-6.7,0-10C1076.2,886.3,1076.2,889.7,1074.7,893z"/>
		<path class="st1" d="M974.7,121.5c-1.8,16-3.6,31.6-5.5,47.2c-0.5,4.2,0.7,10.1-2.5,12.1c-2.7,1.6-7.8-1.1-11.9-1.9
			c-7.2-1.4-14.4-2.7-21.5-4c-2.2-0.4-3.6-0.8-1.6-3.3c13.1-17,27.2-33.2,41.4-49.2C973.2,122.1,973.8,122,974.7,121.5z"/>
		<path class="st5" d="M1182.4,326.7c1.1-1.9,2.2-3.3,2.9-5c1.6-3.9,4.1-5.4,7.9-2.9c1.8,1.2,6.3-0.1,5.1,4.2
			c-1.6,5.9-4.7,7.6-9.5,5.9C1186.8,328.3,1184.8,327.6,1182.4,326.7z"/>
		<path class="st11" d="M1043.8,272.6c-1.6,5-3.3,10-4.9,15.1c-0.6,1.9-1.4,2.4-3.2,1.5c-1.8-0.8-3.7-1.3-6.3-2.3
			c4.7-5.2,9.1-10,13.5-14.8C1043.2,272.3,1043.5,272.4,1043.8,272.6z"/>
		<path class="st1" d="M1022.6,261.8c-2.2,3-2.9,7.8-6.7,9.2c-3.1,1.2-6.6-1.6-9.8-2.8c-0.1,0-0.3-0.3-0.3-0.4
			c0.7-3.7,3.5-6.3,5-9.5c0.7-1.4,1.7-1.8,3.3-1.2c2.2,0.8,4.4,1.5,6.6,2.3C1021.6,259.9,1022.6,260.2,1022.6,261.8z"/>
	</g>
</g>
</svg>
