<?xml version="1.0" encoding="utf-8"?>
<!-- Generator: Adobe Illustrator 19.0.0, SVG Export Plug-In . SVG Version: 6.00 Build 0)  -->
<svg version="1.1" id="Layer_1" xmlns="http://www.w3.org/2000/svg" xmlns:xlink="http://www.w3.org/1999/xlink" x="0px" y="0px"
	 viewBox="0 0 1200 1510" style="enable-background:new 0 0 1200 1510;" xml:space="preserve">
<style type="text/css">
	.st0{fill:#888888;}
	.st1{fill:#343434;}
	.st2{fill:#222222;}
	.st3{fill:#0F0F0F;}
	.st4{fill:#212121;}
	.st5{fill:#333333;}
	.st6{fill:#898989;}
	.st7{fill:#B6B6B6;}
	.st8{fill:#414141;}
	.st9{fill:#EEEEEE;}
	.st10{fill:#B4B4B4;}
	.st11{fill:#313131;}
</style>
<polygon class="st0" points="372.1,297.9 308.9,549.9 323.3,682 265.1,937.3 235,1060.1 433.9,688.6 531.5,326.1 "/>
<g>
	<path class="st1" d="M367.8,372.3c-1.4-2.2,0.4-5.1-1.8-7.1c-1.1-2,0.2-3.5,1.1-5c5-8.1,9.8-16.3,15-24.2c3.3-5,5.2-5.7,10.9-4.1
		c6.9,1.9,13.6,4.5,20.5,6.3c18.5,4.9,37.1,9.4,55.6,14.4c40,10.8,80.1,21.6,120.2,32.1c0.5,0.1,0.9,0.4,1.5,0.2
		c-2.3-3.9-5.4-7.9-2.2-12.4c3.1-4.3,8.3-4.1,12.8-3.8c7.7,0.6,15,2.9,22.1,6c32.4,14.1,64.6,28.7,97.4,41.6
		c9.8,3.8,19.5,7.9,29.8,10.1c3.3,0.7,6.6,1,9.9,0c6.2-1.9,8.4-6.4,6-12.4c-2.3-5.8-6-10.8-10.3-15.3c-7.9-8.3-16.3-16.2-24.9-23.8
		c-30.6-26.8-61.4-53.3-92.4-79.5c-21.9-18.5-43.6-37.1-66-55.1c-4.3-3.4-9.1-6.2-13.2-9.9c-3-2.7-2.8-4,0.4-5.3
		c2.4,1.9,4.9,0.3,7.2,0c17.4-2.8,34.5,0.2,51.6,2.4c21.9,2.8,43.8,5.6,65.8,8.4c1.1,0.1,2.4,0.4,3.2-0.8c1.5-1.8,3.3-1.2,5.1-0.6
		c11.2,3.8,22.5,7.2,33.7,11.1c0.2,0.1,0.3,0.1,0.5,0.2c1.8,0.8,4.4,1.4,3.8,3.8c-0.6,2.4-3.2,1.9-5.2,1.6
		c-18.8-2.7-37.7-4.3-56.6-6.4c-22.6-2.5-45.1-5.2-66.7-8.1c14.8,8.6,30.1,18.1,45,28.2c21.8,14.8,43.1,30.3,63,47.6
		c17.6,15.4,34.6,31.3,48,50.7c11,15.8,19.3,33.1,26,51.1c1.3,3.6,2.1,7.4,2.5,11.2c0.7,8.7-3.5,13.7-12.1,14.4
		c-3.3,0.3-6.7,0.3-10-0.1c-14-1.9-28-4.1-41.6-8.5c-22.2-7.1-44.2-14.9-65.6-24.2c-8.8-3.8-17.7-7.7-24.4-10.3
		c14.2,6.3,31,12.9,47.5,20c31.9,13.6,63.3,28.2,95.1,42c23.7,10.3,47.2,20.9,70.1,33c21.6,11.3,41.9,24.6,61.9,38.5
		c11.9,8.3,17,30,12.8,42c-2.1,6.1-1.3,6.1,4.4,7.4c11.7,2.8,23.3,5.5,35,8.3c4.6,1.1,7.7,3.5,9.6,7.8c5.8,12.4,11.3,24.9,17,37.3
		c2.5,5.4,2.6,5.4,6.9,1.1c4.5-4.5,8.8-9.2,13.5-13.4c3.5-3.1,4-6.2,2.4-10.5c-7.8-20.5-15.4-41.2-23.1-61.8
		c-3.7-9.8-7.5-19.6-11-29.5c-1.7-4.7-4.4-7.9-8.8-10.2c-25.9-13.8-51.6-27.8-77.4-41.7c-2.3-1.3-4.6-2.9-7-3.8
		c-8.8-3.1-12.4-10.1-15.3-18.3c-16.9-46.9-34-93.6-51.2-140.4c-1.3-3.7-3.6-7.2-2.3-11.5c1.5-2.3,3.6-1.9,5.7-1
		c3.5,1.5,7,2.6,10.4,4.3c5.1,5.6,6.3,13.1,9,19.8c15.7,39.8,30.4,80,46.1,119.9c1.5,3.9,4.4,6.1,7.7,8.1
		c28.6,17.2,57.1,34.2,85.8,51.2c5.8,3.4,9.4,7.9,11.5,14.3c11.6,36.7,23.8,73.1,35.7,109.7c1.6,4.9,0.6,8.2-3.2,11.4
		c-10.9,9-21.5,18.4-32.6,27.3c-5.2,4.2-7.6,3.5-9.9-2.8c-5.2-14.4-10-29-14.5-43.6c-1.7-5.7-4.9-8.3-10.6-9.4
		c-15.4-2.9-30.7-6.1-46-9.4c-2.5-0.5-4.9-1-7.4-0.1c-7.6,2.5-15.5,4-23.4,5.3c-5.1,0.9-5.1,0.9-3.7,6.2c3.7,14.2,3.4,28.7,2.8,43.2
		c-0.3,7-3.1,13.4-8.8,17.3c-10.5,7.2-13.3,17.5-13.9,29.1c-0.1,2.2-0.6,4.3-1.1,6.4c-1.5,7-3.9,8.5-10.6,6.2
		c-10.2-3.6-20.5-7-30.7-10.6c-57.8-19.9-115.5-40-173.6-59c-0.6-0.2-1.3-0.4-2.4-0.4c1.5,1.8,3.1,3.1,4.6,4.5
		c9.2,8.2,18.1,16.8,23.8,28c1.2,2.3,3.1,3.2,5.5,3.9c23.8,6.5,47.4,13.6,71.3,19.4c17.4,4.2,34.2,10.3,51.6,14.4
		c17.5,4.1,34.7,9.5,52.1,14.1c5,1.3,10.1,2.3,15,4c3.5,1.2,6,0.4,8.3-2.4c6.6-7.9,13.5-15.6,20.1-23.6c3.6-4.4,7.9-5.7,13.2-5
		c24.4,3.5,48.8,6.8,73.2,9.8c5.7,0.7,10.4,2.8,14.4,7.1c6.3,6.7,13,13,19.3,19.5c2.4,2.4,4.5,2.8,7.5,1.2c4.9-2.5,9.5-5.6,14.5-7.8
		c2.1-0.9,4.1-2.4,6.6-1.2c0.4,4.1,0.5,8.3,2.3,12.2c0.2,2.6-2,3.2-3.6,4.2c-5.5,3.3-11.4,6.1-17.1,9.1c-3.1,1.1-6.2,2.9-9.5,0.8
		c-8.5-6.3-16.5-13.2-24.2-20.5c-5.4-5.1-11.5-7.3-18.5-7.5c-2.4-0.1-4.5-0.8-6.6-1.8c-1.7-1-3.5-1.1-5.4-0.5
		c-3,0.6-5.8,0.2-8.5-1.4c-1.7-1.1-3.6-1-5.5-0.9c-0.5,0-1-0.1-1.4-0.2c-1.8-0.8-3.6-1.1-5.5-0.4c-5.3,0-10.6-0.2-15.5-2.4
		c-1.7-1.1-3.6-1-5.5-0.9c-0.5,0-1-0.1-1.4-0.2c-1.8-0.8-3.6-1-5.5-0.5c-1.7,0.3-2.9,1.3-3.7,2.9c-4.9,8.8-10.5,17.3-15.4,26.1
		c-1.1,2-2,3.9-4.5,4.1c-8.6-1.6-16.9-4.3-25.4-6.3c-2.1-0.5-4.1-1.4-6.3-0.8c-1.4,0.1-2.7-0.3-4-0.8c-1.8-1.3-3.8-2-5.9-2.5
		c-12.7-3.1-25.3-6.7-38.1-9.8c-2.2-0.5-4.5-1.3-6.9-0.9c-2.7-0.1-5.3-0.9-7.8-1.7c-4.2-2.8-9.2-3.3-13.8-4.7
		c-2.8,0-1.5,1.1-0.7,2.2c4.4,5.6,8.8,11.2,13.2,16.9c10.1,13,20.2,25.9,30.3,38.8c2,2.6,4.2,4.7,7.7,4.9c2.8,0.1,5.7,0.3,8.3-1.1
		c1.9-0.5,3.9-0.4,5.9-0.3c3.7,1.2,8.1-0.8,11.3,2.6c4.2,4.7,7.3,10.3,10.8,15.5c6.5,9.6,12.4,19.7,19.1,29.1
		c4.8,6.7,7.7,13.8,8.7,21.9c0.8,6.6,2.6,13,2.9,19.6c0.5,5.6,3.2,10.5,4.3,15.9c0.1,3.9-2.6,6.4-4.9,9
		c-13.2,15.2-26.3,30.5-39.5,45.8c-24.1,28-48.4,55.9-72.3,84c-3.1,3.7-6.5,7.1-9.6,10.8c-2.5,3-1.8,4.4,1.4,5.9
		c11.2,5.4,22.5,10.7,33.8,16.1c3.5,1.6,7,3.2,10.3,5c1.9,1,3.9,2.1,3.7,4.8c-15.7,5.4-31.3,10.8-47,16.1
		c-15.9,5.3-31.8,10.5-47.7,15.8c-0.3,0.1-0.8,0.1-0.9,0.3c-0.5,0.7,0.2,0.7,0.6,0.9c-0.6,3.3-3.4,3.3-5.7,3.6
		c-14.8,1.9-29.2,5.7-43.9,8.3c-3.1,0.5-5.4,2.1-6.5,5.4c-2.8,8-6.2,15.7-9.2,23.6c-5.7,11.3-9.9,23.2-14.7,34.9
		c-11.2,27.8-22.4,55.5-33.5,83.4c-9.8,24.6-19.7,49.1-29.4,73.7c-0.7,1.7-1.9,3.3-0.4,5.1c0.3,0.4,0.7,0.7,1,1
		c8.3,4.1,17.2,6.3,25.8,9.4c36.7,13,73.4,26,110.1,38.9c41.1,14.5,82.1,29.2,123.2,43.6c2.9,1,5.1,3.1,8,3.9c0.7,0.5,1.2,1,1,2
		c-19.3-1.4-38.5-2.7-57.8-4.2c-19.4-1.5-38.8-3.1-58.2-4.6c-37.5-2.9-75-5.9-112.5-8.8c-27.6-2.1-55.1-4.2-82.7-6.3
		c-18.4-1.4-36.8-2.8-55.3-4.2c-2.5-0.2-4.3-1.4-6.2-2.9c-22.9-18.3-45.8-36.6-68.6-55c-2.7-2.2-4.8-2.5-8-1.3
		c-103,37.9-206,75.7-309,113.5c-1.3,0.5-2.6,1.5-4.6,0.9c3.1-9.2,6.1-18.3,9.2-27.4c25.5-74.9,51-149.7,76.4-224.6
		c1.1-3.2,3.9-6.1,2.2-10c-0.4-0.4-0.7-0.8-0.8-1.3c-0.2-1.6,0.4-2.9,1.1-4.3c19-34.7,35.8-70.6,53.5-105.9
		c4.3-8.5,4.9-18.2,7.1-27.4c1.4-5.7,2.7-11.3,3.9-17c0.4-1.7,0.4-3.8,2.9-4.1c2.4,0,2.1-2.2,2.8-3.5c19.5-39.5,39-79.1,58.5-118.7
		c0.5-1,1.2-2,1.8-2.9c4.2,1.4,2.4,4.5,1.6,6.8c-3.7,10.5-7.4,21.1-11.1,31.6c-13.2,37-26.4,74.1-39.5,111.1
		c-6.4,18-13.5,35.8-20.4,53.6c-0.8,2.2-1.6,4.4-2.3,6.6c3-8.7,6.4-17.2,9.9-25.7c26.1-64.4,54.5-127.8,81.7-191.7
		c20.4-48,41.1-95.9,61.8-143.7c1.5-3.4,1.2-6.3-0.1-9.6c-8.5-21.7-16.8-43.5-25.1-65.3c-8.3-21.6-16.7-43.2-24.8-64.9
		c-0.9-2.5-2.2-5-0.6-7.6c2.3-2.5,5-4.7,6.4-8c3.4,0.4,4.1,3.5,5.7,5.8c13.6,19.9,20.9,42.7,29.2,65c9.4,25.5,18.8,50.9,28.4,76.3
		c1.5,4,1.6,7.6,0,11.6c-17.5,43.8-35.2,87.5-52.8,131.2c-12.3,30.6-24.8,61.1-36.8,91.8c-2.2,5.6-4.9,10.9-8,16
		c17.3-27.6,36.6-53.9,54.8-80.9c7.8-11.6,15.9-23,23.7-34.6c4.3-6.3,9.5-11.5,15.5-16.1c23-17.9,45.9-36,69.1-53.6
		c9.8-7.5,14.2-17.6,15.9-29.5c2.3-16.7-1.1-32.8-4.6-48.9c-1.9-9.1-4.4-18.1-6.5-27.2c-2.6-11.4,0.7-18.5,11.2-23.8
		c8.6-4.3,18-5.9,27.4-7.1c2-0.2,4-0.5,5.9-0.7c10.8-1.1,20.9-0.5,30.5,6c13.2,9,27.5,16.3,41.3,24.4c1,0.6,2,1.2,3,1.8
		c5.1,3.5,5.3,5.7,0.5,9.6c-12.6,10.2-25,20.5-37.8,30.4c-3.6,2.8-4.6,5.4-3.2,9.8c7.4,23.5,14.8,47,22.3,70.5
		c12.3,38.6,24.6,77.1,36.6,115.8c1.3,4.3,3.5,7.2,7.5,9.3c38.8,20.7,77.6,41.5,116.2,62.4c11.9,6.5,11.9,6.5,19.8-4.5
		c34-47.2,68.4-94.1,102.4-141.2c1.2-1.6,2.1-3.4,3.5-4.9c3.1-3.4,2.9-6.3,0-10c-10.5-13.4-20.8-26.9-31.2-40.3
		c-24.8-31.8-49.7-63.5-73.9-95.7c-8-10.7-16.7-17.9-30.4-20.9c-29.4-6.5-58.7-13.9-87.6-22.2c-17.2-4.9-34.9-7-52.3-10.4
		c-19.7-3.9-37.8-11.8-55.3-21.2c-14.7-7.9-28.6-17.1-40.2-29.4c-0.5-0.5-0.9-0.9-1.4-1.4c-7.3-7.8-6.8-12.3,2.5-17.6
		c11.6-6.7,24.2-11.1,36.6-15.9c12.8-4.9,25.7-9.2,38.6-13.7c2.7-0.9,5.4-1.7,8.3-1.8c-9.5,0.8-19.1,1.2-28.7,1.6
		c-12,0.5-24,0.7-35.9,0.5c-17.9-0.3-36,0.7-53.8-2.6c-4.1-0.8-8.1-1.8-11.9-3.6c-7.4-3.5-13.4-8.2-14-17.8c-5,2.8-9.2,5.9-13.5,8.9
		c-7.8,5.5-16.2,7.8-25.8,7.9c-17,0.2-33.9-1.3-50.9-2.3c-1.9-0.1-4.1,0-4.7-2.7c8.2-0.5-0.9-4.7,2.5-7c5,0.6,11,1.4,17,2
		c13.6,1.4,27.2,2.5,40.8,3c9.3,0.4,16.3-3.6,21.9-10.8c6.9-8.9,10.2-19.4,12.5-30.2c2.9-14.2,6.3-28.3,10.5-42.1
		c0.9-3,1.6-6.2,1.8-9.3c1-11.1-2.4-17-12.4-22.1c-1.2-0.6-2.3-1.2-4-2c3.1,0,5.6,0.1,8.1,0c11.9-0.8,21-6.2,26.8-16.6
		c4.8-8.6,9.4-17.3,13.5-26.2c5.7-12.3,1.9-22.5-10.7-27.7c-9.5-3.9-19.5-6.7-29.3-9.9c-15.5-5.2-31-10.1-46.4-15.6
		c-4.3-1.5-6.1-0.4-8.1,3.2c-3.5,6.3-7.4,12.3-11.1,18.4C369.6,369,369.3,371.1,367.8,372.3z"/>
	<path class="st2" d="M338,561.2c5.6,1.9,11.5,0.8,17.3,1.5c15,1.9,30.2,1.5,45.4,1.2c5.1-0.1,9.7-2.2,13.9-5
		c5.8-3.9,11.9-7.3,17.2-12c1.9-1.7,3.5-1.6,3.2,1.5c-0.8,9.5,5.5,13.5,12.7,17c9.7,4.7,20.4,4.6,30.7,5.5
		c10.6,0.9,21.4,1.1,31.9,0.7c16.3-0.8,32.6,0.7,48.8-1.3c8.2-1,16.5,0.3,24.8-1.5c0,2.2-1.2,2-2.1,2.3
		c-28.3,9.4-56.6,18.5-83.6,31.4c-13.5,6.5-13.8,8.6-3.1,19.1c18,17.6,39.5,29.5,62.5,39.3c22.7,9.7,46.9,11.6,70.6,16.4
		c9.8,2,19.4,5.4,29.2,7.9c28.4,7.3,56.7,14.6,85.1,21.7c4.3,1.1,6.4,4,8.7,7c23.2,29.9,46.2,60,69.4,90c15.4,20,31,39.9,46.6,59.7
		c2.1,2.6,1.5,4.4-0.1,6.6c-15.3,21-30.5,41.9-45.8,62.9c-20.2,27.9-40.4,55.7-60.6,83.6c-2.6,3.6-5.3,7.3-7.9,10.9
		c-1.6,2.1-3.4,2.6-6.1,1.4c-17.5-7.9-33.8-17.9-50.8-26.7c-10.8-5.6-21.4-11.6-32.1-17.3c-15.4-8.3-30.8-16.5-46.3-24.6
		c-3-1.6-4.1-4.2-5-7.1C596.4,902,580.2,850.7,564,799.5c-4-12.5-7.8-25.1-12-37.6c-1-3,0-4.8,2.1-6.4
		c12.7-10.2,25.3-20.5,38.1-30.5c7.2-5.6,7.3-5.5-0.5-10.1c-16.2-9.6-32.4-19.1-48.5-28.7c-6.2-3.7-13.1-2.3-19.6-1.9
		c-10.2,0.7-20.5,1.8-30.3,5.6c-2.6,1-5.3,2.1-7.7,3.5c-7.5,4.3-10.1,10.6-8,19c4,16.5,8.4,32.9,10.8,49.7
		c2.1,14.6,2.4,29.1-3.3,43.1c-3.1,7.5-8.5,12.9-14.8,17.7c-24.6,19-49.1,38-73.6,57.1c-5.1,4-7.9,9.8-11.5,15
		c-20.1,29-39.9,58.1-59.9,87.2c-6,8.7-12.1,17.4-18.5,25.9c1.4-6.9,4.7-13,7.2-19.3c12.1-30.6,24.4-61.2,36.6-91.8
		c17.9-44.6,35.9-89.2,53.9-133.8c0.8-1.9,1.1-3.5,0.3-5.7c-14.7-38.9-29.1-78-43.9-116.8c-4.6-12-12.4-22.3-18.6-33.6
		c-11.2-19-22.3-38.1-33.5-57.1C316.7,559,327.2,560.5,338,561.2z"/>
	<path class="st2" d="M1036.7,722c-7.5,4-15.1,7.8-22.5,12c-2.7,1.5-4,0.9-5.9-1c-7-7.2-14.3-14-21.1-21.3
		c-3.6-3.9-7.7-5.9-12.8-6.6c-24.8-3.2-49.6-6.7-74.5-10c-4.4-0.6-7.6,0.6-10.6,4.5c-7.1,9.2-15.1,17.7-22.5,26.6
		c-1.9,2.2-3.7,1-5.4,0.6c-15.3-4.1-30.5-8.3-45.7-12.5c-18.8-5.1-37.6-10.2-56.4-15.3c-2.8-0.7-5.5-1.4-7.5-3.6
		c-0.5-0.6-1.4-1.2-2.1-1.2c-14,0.7-26.4-5.9-39.6-8.9c-14.3-3.3-28.3-7.6-42.4-11.4c-2.8-0.7-4.4-2-5.7-4.8
		c-5.2-11-14.1-19.2-23.1-27.2c-3-2.6-6.1-5-8.3-9.7c3.9,1,6.9,1.7,9.8,2.7c34.6,11.6,69.2,23.1,103.7,34.9
		c33.2,11.4,66.4,22.9,99.6,34.6c4.7,1.7,6.4,0.3,7.1-4.1c1-7.4,2.3-14.8,3.1-22.2c0.4-3.3,1.6-5.7,4.1-7.7c1.4-1.1,2.8-2.3,4.3-3.4
		c10.2-7.6,13.4-17.8,12.8-30.1c-0.6-12.3-0.2-24.6-4.2-36.5c-1.3-3.7,0-4.4,3.6-4.7c8.3-0.7,16.5-2.4,24.3-5.1
		c2.8-1,5.3-1.4,8.2-0.8c16.7,3.6,33.5,7.2,50.3,10.5c4.8,0.9,7.3,3.1,8.8,7.9c4.7,15.3,9.9,30.4,15.1,45.5c2.1,6.2,2.6,6.1,7.6,1.8
		c11.2-9.6,22.5-19.1,33.9-28.5c1.9-1.6,2.2-2.8,1.4-5.1c-5.4-16.2-10.8-32.5-16.1-48.8c-7.4-22.6-14.8-45.2-22-67.8
		c-2-6.1-7.6-7.7-12.1-10.5c-28.1-16.9-56.2-33.6-84.4-50.4c-3.6-2.1-5.8-5-7.3-9c-10.3-27.2-20.8-54.4-31.2-81.5
		c-7.3-19.1-14.7-38.1-22.1-57.2c-1.3-1.1-1.5-2.5-1-4c-2.4-6.1-4.7-12.3-7.6-19.7c5.1,2.3,9,4,12.8,5.8
		c14.5,6.8,28.5,14.4,42.3,22.6c3.1,1.8,5.3,3.9,5.7,7.6c1.2,11.4,9.3,17.8,18.3,25.1c-2-7.2-3.7-13.3-5.6-20c1.1,0.5,1.7,0.6,2.1,1
		c12.2,9,24.6,17.8,36.6,27c11.4,8.8,20.6,19.5,28.5,31.8c9.2,14.3,20,27.4,29,41.9c21.4,34.7,38.2,71.3,45.5,111.8
		c3,16.7,3.7,33.8,5.4,50.6c2.6,26,5.1,52.1,9.6,77.8c2.8,16,7.6,31.7,10,47.9c0.6,3.8-0.5,5.3-3.6,6.9
		C1050.1,714.5,1043.4,718.3,1036.7,722z"/>
	<path class="st2" d="M560.2,225.1c-3.4,1.7-0.8,2.8,0.5,3.7c7.2,5.1,14.2,10.4,21,16c13.4,11.2,26.8,22.3,40.1,33.5
		c14.4,12.1,28.8,24.1,43,36.3c13,11.1,25.9,22.4,38.8,33.6c12.4,10.8,25,21.3,37.1,32.5c9.1,8.4,18.8,16.6,25.2,27.5
		c2.9,5,6.4,10.5,1.7,16.1c-4.5,5.4-10.7,5.5-17,4.1c-12.3-2.7-23.7-7.6-35.3-12.3c-31.5-12.6-62.4-26.7-93.6-40.1
		c-8.6-3.7-17.6-7-27.5-5.1c-5.1,1-6.8,3.9-4.4,8.6c1.4,2.7,3.4,5.2,5.8,8.7c-6.7-1.7-12.6-3.1-18.5-4.7
		c-29.2-7.8-58.5-15.6-87.7-23.5c-19.3-5.2-38.4-11.2-57.8-15.4c-14-3-27.4-7.9-41.1-11.7c-2.8-0.8-4.3-0.1-5.7,2.2
		c-4.9,8.1-10,16.1-15,24.2c-1.2,2-2.5,3.9-3.8,5.8c-5.2,9-11.9,17.4-13.7,28.1c-0.3,1.5-1.3,2.2-2.6,2.8
		c-7.7,3.6-15.3,7.2-23.8,10.2c2.4-4.6,4.6-9.3,7.2-13.9c3.9-6.8,8.5-13.2,11.8-20.3c3.2-7,0-15,1.9-22.5c1.2-5,1.8-10.2,2.5-15.3
		c2-15.7,11.8-26.5,22.9-36.4c21.1-18.7,45.1-33.1,69.8-46.4c3.8-2,4-3.5,2.1-7c-14.5-27.1-26.3-55.4-39.2-83.2
		c-0.2-0.4-0.3-0.9-0.6-2.2c8.1,1,15.7,1.8,23.3,2.8c15.4,2,30.7,4.3,45.8,7.9c6.7,1.6,12.6,4.5,18.1,8.9
		c19.4,15.5,40.1,29.2,60.3,43.7c2.2,1.6,4.2,1.4,6.5,0.7c6.5-1.8,12.8-4.4,19.8-4.6C572.1,220.8,566.1,222.9,560.2,225.1z"/>
	<path class="st2" d="M814,293c6.1,19.2,13.6,37.9,20.5,56.8c12.4,34.3,25,68.5,37.5,102.7c0.8,2.3,2.1,4,4.3,5.2
		c26.6,14.2,53.1,28.5,79.6,42.8c0.7,0.4,1.4,1,2.2,1.2c15.7,4.7,20.1,17.9,24.9,31.4c9.5,26.8,19.6,53.4,29.7,80
		c1,2.7,0.7,4.2-1.3,6.1c-7.6,7.3-15,14.6-22.8,22.3c-3.4-7.2-6.8-14.6-10.2-21.9c-3.9-8.5-7.7-17-11.5-25.5c-1.1-2.4-3-3.5-5.4-4
		c-13.6-3.2-27.2-6.3-40.8-9.4c-2.8-0.7-5.5-0.9-3.4-5.4c7.1-15.4,1.3-34.9-12.8-45.1c-33.5-24.1-69.7-43.3-107.5-59.9
		c-27.7-12.1-55.3-24.6-83-36.9c-28.4-12.6-56.9-25.2-85.3-37.8c-1-0.4-2.3-0.5-2.7-2.4c12.6,5,24.8,10.1,37.2,14.7
		c26.7,9.9,53.1,20.7,81.1,26.5c9.6,2,19.2,3.9,29.1,3.6c9.3-0.3,13.1-5,11.5-14.3c-1.5-8.1-4.5-15.7-8-23.1
		C769,384.3,760.9,368,749,354c-10.2-12.1-21.4-23.2-33.1-33.9c-12.6-11.4-25.8-22-39.4-32.1c-25.3-18.8-51.5-36.1-78.8-51.7
		c-0.7-0.4-1.6-0.6-1.7-2.4c44.6,6.3,89.3,10.2,134,15.1c-4.1-1.5-8.2-3.2-12.3-4.5c-9.4-2.9-18.8-5.6-27.9-9.3
		c-0.6-0.2-1.3-0.1-2-0.1c-10.9-3.1-21.7-6.1-32.6-9.2c9.4,0.1,18.5,1.7,27.6,3.6c40.2,8,79.1,20.8,117.3,35.5
		c2.7,1,4.1,2.7,5.3,5.4c2.5,5.9,3.2,12.6,7.5,17.7C814.3,289.5,814.4,291.2,814,293z"/>
	<path class="st2" d="M1018,746c7-3.9,14-7.9,21-11.8c6.7-3.6,13.4-7.2,20.1-10.9c2.7-1.5,3.9-1.4,4.2,2.2
		c1.2,13.8,2.6,27.6,4.8,41.3c0.9,5.6-0.2,11.1-2.5,16.4c-5,11.2-12.6,20.7-20.7,29.8c-1.8,1-5.9-0.9-4.5,3.8
		c-8.7,6-16.1,13.4-22.1,22.1c-0.9,1.2-1.9,2.3-3.1,3.2c-7.7,5.5-12.3,13.2-16.4,21.5c-14.8,30-25.5,61.5-34.7,93.5
		c-3.4,11.8-6.4,23.7-7.6,36.1c-1.2,11.9-6.3,22.7-12.1,33c-5.5,9.9-11.7,19.4-18.4,28.4c-2.2,2.9-4.7,5.1-8.2,6.2
		c-17.3,5-34.5,10.2-51.8,15.1c-4.8,1.3-8.9,0.3-12.5-3.8c-4.9-5.7-5.3-5.5-11.2-0.7c-1.6,1.3-2.8,1.7-4.1,0
		c-0.7-0.9-1.5-1.8-2.6-2.3c-11.3-4.6-21.3-11.8-32.8-16c-10-3.7-19.3-9-28.7-14c-5.2-2.7-5.7-6.5-1.6-10.9
		c29.9-32.2,57.6-66.4,86.5-99.5c11.8-13.4,23.4-26.9,34.9-40.5c2.2-2.6,2.8-5.3,1.8-8.3c-4.5-13.5-6.5-27.4-8.8-41.3
		c-0.5-3-1.9-5.6-3.6-8.2c-10.3-16.1-21.2-31.9-31.4-48.1c-2.8-4.5-5.9-6.8-11.5-5c-5.8,1.9-11.9-0.2-17.9,0.6
		c-2.8,0.4-4.6-2.3-6.3-4.4c-11.4-14.1-22.4-28.6-33.5-43c-1.1-1.5-2.4-2.8-3.4-4.3c-0.9-1.4-1.7-3-0.7-4.7c1.1-1.8,3-1.2,4.6-0.9
		c7.2,1.3,14.1,3.6,21.2,5.3c24,5.8,47.9,12.3,71.9,18.2c6.4,1.6,6.7,1.3,10.3-4.5c2-3.3,3.6-6.8,6-9.8c0.8-1,1.8-2.3,3.3-1.9
		c1.4,0.5,1.7,2.1,1.5,3.4c-1.1,5.7-2.6,11.4-5.7,16.4c-1.8,2.8-5,3.1-8,3.1c-9.5,0.1-19,0-28.5,0.1c-2.1,0-4.6-0.6-5.4,2.3
		c-0.7,2.5,1.5,3.5,3,4.7c2.7,2.2,5.5,4.4,8.6,6c7,3.5,11.7,9.1,15.3,15.9c0.4,0.7,0.8,1.5,1.3,2.2c14.5,19.9,21.3,43.1,27.9,66.4
		c3.3,11.5,6.9,23,10.5,34.4c1.7,5.4,1.2,9.9-2.7,14.3c-11,12.3-22,24.6-33.1,36.8c-14.6,16-28.9,32.2-43.5,48.2
		c-6.7,7.4-13.7,14.5-20,22.2c-2.5,3-3.9,6.1-3.9,9.9c0,5.2,0.3,10.4-0.1,15.5c-0.3,4.5,1.6,7.5,5.2,9.4c13.7,7,27.4,13.8,42.5,17.3
		c6.7,1.6,13.6,0.9,20.3-0.6c16.8-3.6,32.4-10,46.1-20.7c7.8-6.1,13-13.6,16.1-22.9c6.8-20.8,10.6-42.3,14-63.9
		c1.3-8.4,2.7-16.8,3.6-25.2c0.2-1.6,1.4-3.7-1-4.8c-1.1-0.3-2.2-0.2-3.3,0c-3,0.6-2.8,3.4-3.8,5.4c-1.5,3.2-2.2,6.7-3.6,9.8
		c-0.7,1.6-1.5,4-3.7,3.2c-2.1-0.7-1.6-3.1-1.1-4.9c2.5-9.3,4.7-18.7,8.1-27.8c8.4-22.4,21.9-41.5,37.6-59.1
		c21.4-23.8,39.4-49.9,54.5-78c1.3-2.4,2.5-4.7,3.5-7.2c1.5-4-0.1-6.3-4.4-5.6c-4.3,0.7-8.4,2.1-12.6,3.2c-9,2.5-18,4.8-27,7.3
		c-4.8,1.4-8.3,0.2-11.5-3.6c-7.4-8.8-15.5-16.9-23.1-25.6c-2.7-3-6-4.7-9.9-5.3c-16.4-2.6-32.8-5.5-49.3-8.2
		c-2.3-0.4-4.5-0.8-6.9-0.4c-3.4,0.6-4.1-1.3-3.3-4.2c1.2-4.1,3.9-5.9,8.2-5.3c18.7,2.6,37.3,5.6,56.1,7.9
		c9.1,1.1,16.3,4.1,22.9,10.2c6.1,5.6,12.5,11,18.9,16.3c1.2,1,2.2,2.1,3.8,2C1013.1,749.7,1015.5,747.7,1018,746z"/>
	<path class="st2" d="M959,917c5.6-2.3,4.1,2.3,3.8,4.5c-0.7,7.1-1.8,14.1-2.9,21.2c-3,19.4-7.1,38.5-11,57.7
		c-5.3,26-21.7,41.1-45,50.4c-11.5,4.6-23.2,8.1-35.8,8.2c-8.6,0.1-16.4-2.7-24-5.9c-8.6-3.6-17.1-7.5-25.5-11.4
		c-5.3-2.4-8.5-6.2-7.7-12.6c0.3-2.3,0.4-4.7,0-7c-2.5-13.4,5.7-21.5,13.9-29.9c7.3-7.5,14.1-15.5,21.1-23.2c8.1-9,16.2-18,24.4-27
		c10.1-11.2,20.5-22.3,30.3-33.7c3.8-4.4,8-8.4,11.7-12.9c2.9-3.6,3.7-6.6,2.4-10.9c-5.2-16.5-10.2-33.1-15.3-49.6
		c-2.3-7.5-4.3-15.1-6.9-22.4c-3.3-9.3-9.7-17-14.3-25.6c-1.3-2.3-2.8-4.6-3.9-7c-3.5-7.2-9.3-11.9-16.2-15.6
		c-2.8-1.5-5.3-3.5-7.7-5.5c-1.8-1.6-3.9-3.4-2.7-6.4c1.2-2.9,3.6-3.5,6.5-3.5c9.7,0.1,19.3-0.2,29,0.1c4.8,0.2,7.5-1.4,8.6-6.1
		c1-4.6,3.5-8.9,3.3-14c-2.5,4.1-4.8,8.2-7.4,12.3c-2.8,4.5-6.3,6.2-12.1,4.7c-30.4-8-60.9-15.6-91.4-23.3c-1.6-0.4-3.1-1.1-5.6-0.4
		c3,4,5.8,7.8,8.7,11.4c10.4,13.3,20.9,26.6,31.3,40c1.7,2.2,3.4,3,6.3,2.6c6.4-0.9,12.9,0,19.4-1.2c4.3-0.8,6.7,3,8.6,5.8
		c11.3,16.9,22.5,33.8,33.2,51c4.6,7.5,4,16.7,5.5,25.2c1.1,6.3,1.9,12.6,4.4,18.4c3.2,7.4,0.8,12.4-3.9,17.9
		c-14.2,16.2-28.1,32.7-42.3,49.1c-13.9,16.1-28,32-41.9,48.1c-9.3,10.8-18.5,21.7-27.8,32.6c-1.8,2.2-4,3.9-6.3,5.7
		c-4.1,3.2-3.7,6.3,0.8,8.6c14.8,7.7,29.9,14.5,45.2,21.2c3,1.3,7,1.8,7.8,6.2c0.3,1.5,1.7,0.7,2.5,0.8c4.1,0.4,7.9,1.3,9.8,7.1
		c0.9-3.5,2.7-4.5,4.4-5.8c3-2.5,5-2.1,7.6,0.7c2.5,2.8,4.1,6.8,9,7c4.5,0.2,8.4-1.9,12.5-3c14.8-4,29.4-8.4,44.1-12.6
		c2.5-0.7,4.4-2.2,6-4.2c6.9-9.2,13-18.8,18.7-28.8c5.9-10.3,11.1-21,12.3-32.7c2.4-23.9,10.4-46.4,17.6-69
		c5.7-17.7,12-35.4,20.3-52c3.9-7.9,7-16.5,13-23.4c1.1-1.3,2.4-2.1,3.7-3.1c3.7-2.9,7.2-5.7,9.6-10.4c3.7-7.3,10.7-12.1,16.6-17.7
		c1.2-1.1,3.4-0.1,4.6-1.5c-0.1-1,0.5-1.4,1.4-1.2c0.7,0.1,0.9,0.7,0.7,1.4c-7.8,7.9-15.2,16.3-23.5,23.7
		c-9.2,8.3-15.5,18.4-20.4,29.5c-10,22.6-18.8,45.6-25.8,69.2c-5.7,19.2-11.4,38.4-13.4,58.6c-0.7,7.3-4.2,14-7.5,20.5
		c-6.2,12.2-13.7,23.6-21.6,34.8c-1.6,2.3-3.6,4.4-4.2,7.3c-0.4,2-1.9,2.5-3.6,3c-19.4,5.6-38.7,11.2-58.1,16.8
		c-2.2,0.6-3.8,0.2-5.4-1.3c-2.9-2.5-5.9-4.8-8.9-7.3c-2.4-1.9-4.3,0-5.8,1.1c-1.9,1.5,1.7,1.8,1.3,3.7c-7.2-3.5-14.3-6.9-21.5-10.3
		c-1.8-0.9-3.5-1.9-5.7-1.6c-1.6-1.8-3.6-2.9-5.7-3.9c-15-7.2-30-14.5-45.1-21.4c-3.9-1.8-3.6-3.4-1.3-6.1c11.3-13,22.7-26,34-39.1
		c11.4-13.2,22.6-26.6,33.9-39.8c11.5-13.3,23.1-26.5,34.6-39.8c8.3-9.5,16.4-19.1,24.6-28.7c0.5-0.6,0.6-1.5,0.9-2.3
		c-1.1-5.5-2.2-11-5-16c-1-10.3-3.1-20.3-5.2-30.4c-0.3-1.7-1.6-3.2-2.6-4.8c-9.7-14.7-19.4-29.4-29.1-44.2
		c-1.2-1.8-2.1-3.8-3.2-5.7c-2.9-4.1-5.3-4.6-11-2c-2,0-4,0-6,0c-3,0.4-6.3-1.8-9,1c-3.5,0.6-5.6-1.7-7.4-4.1
		c-15.1-19.3-30.1-38.6-45.1-57.9c-1-1.3-1.9-2.7-2.9-4.1c2.1-1.3,3.7,0.6,5.4,0.2c4.2,2.9,9.7,2.3,14,5c2.7,0.3,5.3,0.7,8,1
		c16,5.3,32.5,8.7,48.8,13c0.8,0.2,1.6,0.4,2.2,1c1.3,0,2.7,0,4,0c9.4,3.7,19.5,5,29.1,8.3c0.9,0.3,2,0,2.9-0.4
		c3.1-5.4,6.4-10.7,9.4-16.1c2.9-5.3,6.9-10,9-15.7c0.7-2,2.8-2.1,4.7-2.1c1.8,1.8,3.9,1.1,6,1c0.3,0,0.7,0,1,0c1.8,1.4,4,0.9,6,1
		c4.9,1.6,9.9,2.4,15,2c1.8,1.4,4,0.9,6,1c0.3,0,0.7,0,1,0c1.8,1.4,4,0.9,6,1c2.5,1.3,5.2,1.9,8,1c1.8,1.4,4,0.9,6,1
		c4.6,1.5,9.3,2.7,14.2,2.1c1.7-0.2,3.2,0.1,4.6,1.3c9.5,8.2,19.1,16.4,28.6,24.7c0.6,0.5,1,1.3,1.5,2c0.9,0.8,1.3,1.8,1,3
		c-2.6,1.6-3.9-0.7-5.5-2c-7.8-6.7-15.7-13.3-23.3-20.2c-5.2-4.7-11.5-5.3-17.9-6.2c-17.7-2.4-35.5-4.7-53.1-7.7
		c-6-1-8.2,1.3-9.4,6.7c6-2.8,11.7,0.1,17.4,0.9c13.8,1.9,27.5,4.6,41.3,6.6c7,1,11,5.6,15.2,10.3c7,7.9,14.1,15.9,21.1,23.8
		c1.5,1.7,3.2,1.9,5.4,1.3c13.1-3.7,26.3-7.2,39.4-10.9c3.6-1,6.4-0.5,9,2.3c2.5,2.8,0.5,5-0.6,7.2c-13.6,25.6-28.2,50.4-47.6,72.2
		c-12.5,14-24.5,28.4-34.5,44.4c-11,17.5-17.1,36.9-20.8,57.2c2.1-5.8,4.3-11.7,6.4-17.5c1-2.8,2.4-3.4,4.7-1.4
		c0.9,5.7-1.4,11-3,16.2c-3.1,10.4-8.5,19.9-13.8,29.3c-4.6,8.3-9.4,16.5-14.6,24.4c-1.3,2-2.7,5.2-5.5,3.6
		c-2.3-1.3-0.7-4.3,0.1-6.4c7.8-18.8,15.6-37.7,20.1-57.5c7.3-31.8,22.8-58.9,44.5-82.7c22.5-24.7,40.7-52.2,56.6-81.5
		c0.5-0.9,1-1.7,1.2-3.2c-4.8,0.4-9,2.1-13.4,3.3c-8.5,2.3-17.1,4.4-25.5,7c-5.3,1.6-9.4,0.4-13-3.7c-7.3-8.5-15.1-16.5-22.3-24.9
		c-3-3.5-6.3-5.6-10.9-6.3c-16-2.4-31.8-5.4-47.8-8.1c-3.9-0.7-5.9,0.4-7,4.2c-1.8,5.9-3.4,11.8-5.6,17.6c-2,5.4-3.3,6.5-9.2,6.6
		c-10.3,0.1-20.6,0-31.1,0.1c0.3,0.5,0.4,0.7,0.5,0.7c13,6.7,20.9,17.8,28.3,30c8.6,14.3,15.1,29.1,19.5,45.1c5,18.1,11,36,16.6,54
		c1.5,5,0.7,8.8-2.8,12.7c-14.1,16-28.6,31.6-42.8,47.5c-14.1,15.8-28.4,31.3-42.5,47.1c-4.2,4.7-8.7,9.2-12.7,14.1
		c-1.1,1.3-2.6,2.4-2.7,4.1c-0.1,6.5-1.1,12.9-1.2,19.4c0,2.5,1.4,3.9,3.5,5c11.9,6.3,24.2,12.1,37.1,15.9
		c7.9,2.3,16.2,1.8,24.3-0.1c15.4-3.6,29.8-9.5,42.4-19.3c6.4-5,10.8-11.1,13.5-18.8c7.8-22.5,11.4-45.8,15.2-69.2
		c1.2-7,1.8-14.2,3.8-21.1C957.4,920.6,957.7,918.6,959,917z"/>
	<path class="st2" d="M336,615.1c12.7,33.4,25.4,66.9,38.2,100.3c5,13.1,10,26.1,15.1,39.1c1.1,2.9,0.7,5.4-0.5,8.2
		c-14.3,33.1-28.6,66.3-42.9,99.5c-12.6,29.2-25.1,58.4-37.7,87.6c-9.5,22.2-18.9,44.4-28.4,66.6c-10.8,25.1-21.6,50.1-32.4,75.2
		c-4.1,9.6-8.2,19.3-12.3,29c-0.6,1.5-1.3,3-2.9,4.2c2.4-7,4.8-14.1,7.3-21.1c8.2-22.9,16.4-45.8,24.5-68.7
		c13.6-38.1,27.2-76.2,40.7-114.3c0.7-2,2.4-4.2,0.3-6.5c10.3-20.8,16.9-43.1,24.8-64.8c10.4-28.6,20.3-57.3,30.6-86
		c2-5.4-0.9-10.1-2-14.9c-14.3-59.4-28.9-118.7-43.4-178c-0.2-0.6-0.3-1.2,0.3-2.2c3.9,8.1,8,16.1,11.7,24.3
		C330.2,599.8,333,607.5,336,615.1z"/>
	<path class="st2" d="M871,1406.2c13.5,11.6,27,23.1,40.4,34.7c2.6,2.3,5.2,4.7,7.7,7c0.6,1.7,1.8,3.5,0.1,5.1
		c-1.7,1.6-3.8,0.8-5.7,0.1c-15-5.1-29.8-10.6-44.7-15.9c-23.2-8.3-46.3-16.5-69.5-24.7c-31.5-11.1-62.9-22.4-94.4-33.4
		c-39.2-13.7-78.2-28-117.5-41.5c-6.9-2.4-7.6-3.8-4.9-10.6c11.1-27.5,21.7-55.1,32.9-82.5c13.8-33.7,27.6-67.3,40.7-101.2
		c2.9-7.6,6.1-15.1,8.6-22.9c2.5-7.6,7.3-11,15-12.5c27.8-5.4,55.7-10,83.3-15.9c2.4-0.5,4.8-1.3,7.4-1.4c1.7-0.1,3.4,0.2,4.3,1.9
		c0.9,1.8,0,3.2-1.2,4.5c-5,5.4-10.7,10-16.7,14.1c-1.7,1.2-3.7,1.6-5.7,0.5c-0.4-0.3-0.8-0.7-1-1.2c-0.4-3.7-3-2.9-5.2-2.5
		c-10,1.7-19.9,4.1-29.8,6.2c-8.9,1.9-17.9,3.8-26.9,5.7c-5.8,1.2-9.3,4.2-11.5,9.7c-17.6,43.9-35.8,87.5-53.7,131.3
		c-3.3,8.2-6.4,16.5-10.1,24.5c-2.6,5.8-2.2,11.2,0.4,16.8c5.7,12.7,15.3,22,26,30.4c17.7,13.8,38,22.5,58.8,30.2
		c51.7,19.1,104.4,35.3,157.6,49.7c1.9,0.5,4.1,2.1,5.9-0.3c0.3-0.6,0.8-1.2,1.2-1.8c0.4-0.6,0.9-1.1,1.5-1.5
		C866.3,1407.3,868.5,1406.3,871,1406.2z"/>
	<path class="st2" d="M865,1410c-0.4,0.4-0.7,0.7-1.1,1.1c-2.1,0.6-3.9-0.3-5.6-1.4c-26.8-17.4-53.3-35.3-79.5-53.7
		c-13.6-9.5-27.1-19.3-40.2-29.6c-4.7-3.7-8.3-8.1-10.4-13.7c-4.5-11.9-8.3-23.9-10.6-36.4c-0.5-2.8-0.8-5.6-0.4-8.5
		c0.7-3.7,0.3-7.4-0.4-11.1c0.3-6.5-0.1-13,0.3-19.4c1.1-4.1,2-8.2,0.7-12.4c0.3-5.5-0.1-11.1,0.3-16.6c1.1-4.1,1.9-8.2,0.7-12.4
		c0.3-5.5-0.1-11.1,0.3-16.6c1-3.8,1.9-7.5,0.7-11.4c0.2-5.4-0.1-10.9,0.3-16.3c0.8-3.5,2-7,1-10.8c-1.1-7.2,1.6-12.3,7.8-16.2
		c6.2-4,11.5-9.4,18.1-13c1.3-0.7,2.5-1.7,4-0.5c1.1-0.1,2.7,0.2,3.4-0.4c5.6-4.8,13-7.2,17.8-13.2c1.1-1.3,2.4-2.7,1.3-4.4
		c-1.1-1.6-2.7-0.6-4.1-0.3c-16.4,3.4-32.8,7.3-49.4,9.9c-15,2.3-29.7,5.9-44.6,8.4c-3.5,0.6-5.5,2.3-6.9,5.6
		c-13.1,32.9-26.3,65.9-39.5,98.7c-10.8,26.7-21.7,53.3-32.5,80c-4.6,11.4-8.8,23-13.5,34.4c-1.4,3.3-0.1,4.6,2.6,5.6
		c6.4,2.3,12.9,4.6,19.3,6.9c41.5,14.6,82.9,29.2,124.4,43.8c38.9,13.8,77.7,28,116.7,41.4c23.3,8,46.4,16.4,69.6,24.6
		c5.5,1.9,2.1-2.9,3.5-4c4.9,4.8,10.8,8.6,15.3,14.3c-2.4,1.3-3.9-0.1-5.4-0.6c-24.8-8.7-49.5-17.6-74.3-26.4
		c-1.9-0.7-3.9-0.9-5.8-1.3c-0.3-0.3-0.7-0.6-1-0.9c-1.8-1.8-4.1-2.6-6.5-3.5c-19.5-7.6-39.4-13.8-59-21.1
		c-16.6-6.2-33.4-11.7-50.1-17.6c-16.6-5.8-33-12-49.6-17.8c-13.9-4.9-27.8-9.9-41.8-14.6c-19.3-6.5-38.4-13.6-57.7-20.2
		c-1.4-0.5-2.9-0.9-4.3-1.1l0,0c-2.1-1.1-1.4-2.5-0.7-4.2c11.1-27.2,21.9-54.4,32.9-81.6c10.1-25,19.4-50.4,29.7-75.3
		c5.2-12.6,10.5-25.1,15.1-37.9c2.5-9.5,7.1-18.2,10.3-27.4c0.7-2,2.4-2.5,4.3-2.9c15.4-2.9,30.7-6.9,46.3-8.8
		c2.1-0.3,4.3-0.5,6.1-1.8c20.5-4.2,40.9-8.4,61.4-12.5c0.4,2.1-1.1,2.8-1.9,3.6c-15.4,16.3-30.9,32.5-46.4,48.7
		c-1.1,1.1-2.2,2-2,3.7c1,6.7-0.3,13.5,0.7,20.3c0.1,5.2,0.2,10.5,0.3,15.7c1,6.7-0.3,13.5,0.7,20.3c0.1,5.2,0.2,10.5,0.3,15.7
		c1,6.7-0.3,13.5,0.7,20.3c0.1,5.2,0.2,10.5,0.3,15.7c1,6.4-0.3,12.9,0.7,19.3c0.1,7.2,0.2,14.3,0.3,21.5c0.3,0.6,0.3,1.1,0,1.7
		c-3.7,1.9-5.1-0.5-6-3.4c-1.1-3.6-1.2-7.4-1.2-11.1c0.7-4.1,0.7-8.1,0-12.2c-0.2-1.4-0.1-2.8,0.2-4.2c1.2-3.5,1.7-7,0-10.6
		c-0.8-3.1-1.3-6.3-1.1-9.6c0.5-3.9,0.5-7.8-0.1-11.7c-0.1-1.4-0.1-2.8,0.2-4.1c1.1-3.2,1.6-6.5-0.1-9.7c-0.9-3.4-1.1-6.8-1-10.3
		c0.5-3.9,0.5-7.8,0-11.8c-0.1-1.1-0.1-2.2,0.1-3.3c1.2-3.5,1.6-6.9-0.2-10.4c-0.9-3.1-0.5-6.3-0.6-9.5c0-3.9,0-7.9,0-11.8
		c0-1.4,0-2.7,0.1-4.1c0.9-3.2,1.4-6.3,0.2-9.5c-1.4-3.4-0.8-6.3,2.1-8.8c2.2-1.9,2.7-5.3,5.5-6.7c5-3.2,10-6.2,12.9-9.4
		c-3,3-8.1,6-13,9.4c-2.9,2.4-5.5,5-7.4,8.3c-1.8,4.8,0.2,9.7-0.4,14.6c-0.2,2.1,0,4.3-0.1,6.4c0,0.6-0.1,1.2-0.2,1.8
		c-1.5,8.6-0.6,17.3-0.5,26c0.1,0.6,0.1,1.2,0,1.8c-2.3,9.1-0.8,18.4-1.2,27.7c0.1,0.6,0.1,1.2,0.1,1.8c-2,9.2-0.9,18.4-0.9,27.6
		c0.1,0.6,0.1,1.2,0,1.8c-1.8,7.8-1.8,15.7-0.3,23.5c1.6,13.8,5.6,27,10.7,40c1.4,3.6,3.6,6.6,6.7,9.1c17.8,14.9,37.1,27.7,56.1,41
		c20.1,14.1,40.4,27.7,60.8,41.3c1.9,1.3,3.8,2.7,5.4,4.4C866.2,1407.1,866,1408.5,865,1410z"/>
	<path class="st2" d="M293.5,902.4c-0.1-32,4.3-62.8,8.7-93.6c6.1-42.2,11.9-84.4,17.8-126.6c0.3-1.8,0.6-3.6,1.8-5.6
		c0.5,1.8,1,3.5,1.4,5.3c6.7,26.1,13.4,52.2,20.2,78.3c0.7,2.7,0.7,5.1-0.3,7.8c-16.2,44.1-32.3,88.2-48.4,132.2
		C294.5,900.9,294.1,901.4,293.5,902.4z"/>
	<path class="st2" d="M241.8,1039c-3.2,14.2-6.5,28.4-9.6,42.7c-0.5,2.3-1.2,4.5-2.3,6.5c-16.8,33.5-33.5,67-50.3,100.5
		c-1.6,3.2-3.7,6.2-5.6,9.2c-3.3,4.2-4.7,9.5-7.5,14c-1.2,1.9-2,5.7-5,4.1c-2.4-1.3-0.3-4.3,0.4-6.2c9.2-23.9,18.2-47.9,27.2-71.9
		c2-5.4,4.2-10.8,6.3-16.2c0.8-2.1,2-4.2,1.8-6.6c4.8-13,9.4-26.1,14.4-39c16.8-44.2,33.7-88.5,50.5-132.7c0.7-1.8,1-3.9,3.1-6
		C257.2,971.7,249.5,1005.4,241.8,1039z"/>
	<path class="st1" d="M392.2,514.8c-11.5-1.9-24-4-36.4-6c-2.5-0.4-2.8-1.8-2.4-3.9c3.3-21.1,8.3-41.8,15.7-61.8
		c0.9-2.4,2-2.8,4.5-2.2c11.9,3.1,23.9,6,35.8,9c5.8,1.5,7.5,4.4,5.6,9.9c-5.2,14.8-9.1,29.9-12.2,45.3
		C401.5,511.7,398,515,392.2,514.8z"/>
	<path class="st2" d="M727,1159c0-0.3,0-0.7,0-1c1.1-5.7,0.2-11.5,0.5-17.2c0.1-1.9-0.5-3.9,0.5-5.8c1.2-4,4.7-5.4,8-7
		c0.9-0.3,1.3,0.1,1,1c-3,2.6-2.6,7.7-7,9.5c-1.5,0.6-0.8,3,0,4.5c0.8,3.3,0.8,6.7,0,10c0,1.3,0,2.7,0,4c-0.8,4.3-0.8,8.7,0,13
		c0.5,2.6-0.4,5.5,1,8c0.8,3.7,0.8,7.3,0,11c0,1,0,2,0,3c-0.8,4.3-0.8,8.7,0,13c0.5,3-0.4,6.1,1,9c0.8,3.3,0.8,6.7,0,10
		c0,1.3,0,2.7,0,4c-0.8,4.3-0.8,8.7,0,13c0.2,2.7,0,5.4,1,8c0.8,3.7,0.8,7.3,0,11c0,1.3,0,2.7,0,4c-0.8,4.3-0.8,8.7,0,13
		c0.3,3.4,0.7,6.8,0.9,10.2c0.2,2.7,1.4,3.9,4.1,3.8c0.6,0.3,1.3,0.6,1.6,1.2c2.4,5.3,7.7,8.1,11.7,11.1c3.9,2.9,6,8.2,11.4,9.2
		c1.2,0.2,2,1.7,2.5,2.9c0.6,1.6,1.5,3,3.5,2.9c0.5,0,1.2,0,1.4,0.5c2.3,4.6,8.2,5.9,10.4,10.5c1.2,2.6,3.6,2.6,5.6,3.6l-0.1,0
		c2.4,5.2,9.1,6.2,11.4,11.7c0.5,1.2,2.4,0.9,3.6,1.3l-0.1,0c1.2,1.1,2.7,2,3.2,3.7c0.7,2.6,2.8,2.9,4.9,3.4
		c0.3,0.3,0.6,0.6,0.9,0.9c1.8,2.4,2.6,6.2,6.9,5.3c13.5,11.6,27,23.1,40.4,34.7c2.6,2.3,5.2,4.7,7.7,7c1.1,3.9,1.1,3.9-1.1,5.1
		c-17.9-10.9-34.9-23.1-52.3-34.9c-22.5-15.3-45-30.8-66.5-47.5c-5.4-4.2-9.9-9-12.1-15.9c-3.9-12-8.3-23.9-9.2-36.6
		c-0.8-8.3-0.8-16.7,0-25c0-0.3,0-0.7,0-1c1.1-6.9,0.2-13.8,0.5-20.7c0.1-2.8-0.5-5.6,0.5-8.3c1.1-6.9,0.2-13.8,0.5-20.7
		c0.1-2.8-0.5-5.6,0.5-8.3c0-0.3,0-0.7,0-1c1.1-6.5,0.2-13.1,0.5-19.7C726.6,1163.9,726,1161.4,727,1159z"/>
	<path class="st3" d="M547.1,172.2c18.2,0.9,35.9,2,53.7,2.4c7.2,0.2,12.9,2.2,18.6,6.6c18.5,14.2,37.3,27.9,55.8,42.3
		c-5.3-1.9-10.6-3.9-15.9-5.8c-22.4-8.1-45.5-11.7-69.2-8.1c-10.9,1.7-18.4-0.6-24.2-10.7c-5.1-8.9-12.1-16.7-18.2-25
		C547.4,173.7,547.4,173.3,547.1,172.2z"/>
	<path class="st1" d="M421.6,428.5c-2.1-0.5-4.2-0.8-6.3-1.4c-10.6-2.9-21.1-5.9-31.7-8.7c-2.3-0.6-3.6-1.3-2.1-4
		c6.1-11.4,12.2-22.9,18.2-34.4c1.3-2.4,2.7-2.7,5.2-1.9c11.2,3.6,22.5,7.1,33.8,10.6c5.8,1.8,6.9,4.3,4.2,9.7
		c-3.7,7.6-7.5,15.2-11.4,22.7C429.4,425.1,427,428.7,421.6,428.5z"/>
	<path class="st4" d="M197.1,1115c2,5.6-2.1,9.8-3.7,14.4c-5.5,15.9-11.8,31.6-17.8,47.3c-4.2,11-8.4,21.9-12.7,32.8
		c-0.7,1.9-1.2,3.7-1.5,6.5c4.6-4.1,5.8-9.2,8.3-13.6c1.1-1.8,1.5-4.2,4.2-4.5c0,0.4,0,0.7,0.1,1.1c-11.6,23.4-23.2,46.7-34.8,70.1
		c-0.2-0.1-0.5-0.2-0.7-0.3c6.6-17.5,13.3-35,19.9-52.5c12.2-32.4,24.4-64.9,36.6-97.3C195.6,1117.6,196.4,1116.3,197.1,1115z"/>
	<path class="st2" d="M786.1,1332.9c-4,1.5-5.2-0.2-7.7-3.7c-2.3-3.2-5.8-7.1-9.4-9.1c-2.4-1.3-5.1-1-5.2-4.7
		c-0.1-1.5-1.2-2.3-2.9-1.9c-3.2,0.8-4.1-1.2-4.5-3.8c-0.2-1.5-0.9-3.6-2.4-3.2c-4.5,1.1-5-1.8-5.7-4.7c-0.2-0.6-0.8-1.6-1-1.6
		c-7.3,1.1-5.9-6.5-9.3-9.2c0-0.5,0.1-1,0.1-1.5c9.8,9.8,20.7,18.2,30.9,27.5C774.8,1322.2,781.2,1326.8,786.1,1332.9z"/>
	<path class="st5" d="M814,293c-1.3-1.4-1.7-3.1-1-4.9c5.2,0.9,9.7,4.4,15,4.9c1.2,1.1,1,2.6,1,4c-3.6-0.3-6.7-2.1-10-3.5
		C817.3,292.7,815.8,291.8,814,293z"/>
	<path class="st2" d="M801.1,1345.9c-3.3,1.7-5.8,1.7-6.2-2.9c-0.1-1-0.6-2.5-1.4-2.4c-6.7,1.3-5.8-4.4-7.5-7.8
		C791.6,1336.5,796.8,1340.7,801.1,1345.9z"/>
	<path class="st2" d="M864,1406c2-1.3-0.7-3.7,1.1-5.1c1.9,1.8,3.9,3.5,5.8,5.3c-1.4,2.1-3.9,2.6-6,3.8
		C864.7,1408.7,864.3,1407.3,864,1406z"/>
	<path class="st2" d="M817,1359.2c-5.2,2.9-6.8,1.6-6.9-5.3C813.5,1354.2,814.5,1357.6,817,1359.2z"/>
	<path class="st2" d="M809.1,1352.9c-3.4,1.6-5.8,1.5-6.2-3.1c-0.1-1.4-1.2-2.7-1.8-4C804.8,1347,806.8,1350.2,809.1,1352.9z"/>
	<path class="st2" d="M1042.1,816.2c-0.6-0.9-1.3-1-2.1-0.2c-1-0.2-2.8,0.2-2.3-1.5c0.4-1.7,1.9-3.2,3.8-3.2c1.1,0,2.2,1.1,3.4,1.7
		C1044.4,814.4,1043.2,815.3,1042.1,816.2z"/>
	<path class="st1" d="M734.8,1161c-1.7-6.7-0.6-13.5-0.7-20.3C735.2,1147.4,734.9,1154.2,734.8,1161z"/>
	<path class="st1" d="M735.8,1197c-1.7-6.7-0.6-13.5-0.7-20.3C736.2,1183.4,735.9,1190.2,735.8,1197z"/>
	<path class="st1" d="M736.8,1233c-1.7-6.7-0.6-13.5-0.7-20.3C737.3,1219.4,736.9,1226.2,736.8,1233z"/>
	<path class="st1" d="M737.8,1268c-1.7-6.4-0.6-12.8-0.7-19.3C738.3,1255.1,737.9,1261.5,737.8,1268z"/>
	<path class="st2" d="M367.8,372.3c-0.1-2.5,0.8-4.1,3.6-4.2c-1,1.7-1.4,3.8-3.2,5c0,0-0.2-0.2-0.3-0.3
		C367.9,372.6,367.9,372.4,367.8,372.3z"/>
	<path class="st2" d="M407.1,1315.1c-1.7,0.7-4.1,1.6-6.4,2.5c-30.2,11-60.4,21.9-90.6,32.9c-41.1,15-82.2,30.1-123.4,45.1
		c-6.7,2.5-13.5,4.7-20.2,7.2c-3.3,1.2-5.1,1.3-3.9-3.3c4-15.3,7-30.9,11.7-45.9c3.3-10.4,8.6-20.2,13.1-30.2
		c5.4-12,10.9-23.9,16.3-35.9c1.3-2.9,3.2-4.8,6-6.4c30.1-16.8,60.1-33.6,90.2-50.5c28.6-16.1,56.9-32.5,85.8-48
		c7.5-4,10.6-8.9,12.1-17c8.7-45.5,17.9-91,26.9-136.5c5.9-29.7,11.6-59.4,17.3-89.1c0.8-3.9,3-7,5.1-10.2
		c20.7-30.4,41.4-60.8,62.1-91.2c2.6-3.8,5.5-7.5,7.9-11.5c2.2-3.6,3.4-3.2,5.2,0.3c9.5,19.1,19,38.2,28.6,57.3
		c14.8,29.7,29.9,59.2,44.3,89.1c3.5,7.4,8.3,11.8,15.7,14.6c9,3.5,17.7,7.7,26.6,11.5c2.3,1,4,2.4,4.5,4.9
		c3.1,14.3,6.3,28.6,9.5,42.8c0.8,3.6,0,4.5-3.7,3.8c-31.6-6.4-63.2-12.7-94.8-19c-1.1-0.2-2.3-0.3-3.4-0.6c-2.7-0.8-4,0.2-3.4,2.9
		c1.2,4.8,0.6,9.6,0.9,14.4c0.3,4.5,2,8.3,5.2,11.9c13.3,15.1,26.1,30.6,39.1,45.8c1.8,2.1,1.7,4.1,1,6.5
		c-5,16.2-9.9,32.5-14.9,48.7c-16.9,54.5-33.9,109-50.8,163.6c-4.9,15.9-10,31.8-14.8,47.7c-1.2,3.9-2.3,4.6-6.1,2.2
		c-30.8-19.5-61.7-38.8-92.6-58.1C411.4,1316.4,409.9,1315.1,407.1,1315.1z"/>
	<path class="st6" d="M664.8,436.4c-3.3,42.6-5.8,85.5-12.8,127.9c-0.7,3.9-1.5,5.7-6.1,4.8c-8.7-1.7-17.4-2.7-26.2-3.7
		c-3.1-0.4-3.9-1.4-3.4-4.4c1.3-8.6,2.2-17.2,3.5-25.7c0.5-3.5-0.2-5-4-5.6c-11.9-1.7-23.7-3.6-35.5-5.7c-3.4-0.6-5.1,0.5-6.8,3.3
		c-5.7,9.6-11.4,19.2-15.7,29.5c-1.3,3.1-2.9,4.3-6.3,4.1c-32.6-1.7-65.3-0.6-97.9-0.7c-6,0-6-0.1-5.4-6.3
		c4-41.6,15.6-81,33.7-118.5c7.6-15.8,15.7-31.3,24-46.7c1.8-3.3,3.5-4.1,7-2.9c7.1,2.4,14.3,4.5,21.6,6.3c4.2,1.1,3.8,2.7,2.1,5.8
		c-10.7,19.6-20.7,39.6-29.6,60c-8.8,20.2-15.9,40.9-21.1,62.4c-0.9,3.7-0.1,4.5,3.5,4.7c13.6,1,27.2,2.2,40.8,3.7
		c4.6,0.5,7-0.9,9.4-5c12.6-22.1,28.7-41.7,45.7-60.4c12.6-13.8,25.5-27.3,38.1-41c2.2-2.4,4.3-2.9,7.5-1.9c10,3.3,20,6.4,30.1,9.2
		C664.3,430.9,666,432.4,664.8,436.4z"/>
	<path class="st6" d="M870.6,593.1c-2.6,0.8-5.7-2.7-7.3-0.1c-1.2,2,1.9,4.3,2.8,6.6c1.2,3,1.2,6.2,1.4,9.3
		c0.7,9.1,1.5,18.3,1.2,27.4c-0.1,3.4-0.6,5.3-4.9,3.3c-7.9-3.6-16-6.7-24-9.9c-2.8-1.1-3.7-2.4-2.9-5.6c2.5-10.8,2.8-21.8,2.9-32.8
		c0.1-5.1-2.1-9-6.4-11.6c-4-2.4-8-4.8-11.8-7.4c-2.4-1.6-3.6-1-5.1,1.3c-7.5,11.5-16.2,21.9-25.4,32c-2,2.2-3.7,2.5-6.5,1.4
		c-6.9-2.8-14-5.4-21.1-7.8c-2.9-1-3.9-1.8-1.5-4.6c23.4-28.2,40.6-60,54.6-93.7c1.2-2.8,2.1-4.1,5.2-1.9c6.9,4.9,14,9.6,21.2,14.2
		c2.7,1.7,2.9,3.2,1.6,6.1c-5.3,11.5-10.3,23.1-16.4,34.2c-1.9,3.5-1.3,5.3,2,6.9c1.2,0.6,2.4,1.3,3.3,2.2c9.6,9.6,19.7,9.1,30.6,2
		c6.7-4.3,14-7.7,20.9-11.7c2-1.2,3.3-1.4,5.1,0.4c7.5,7.4,14.4,15.2,21.3,23.2c1,1.2,2.3,2.3,0,3.4
		C898.3,586.2,884.7,590.6,870.6,593.1z"/>
	<path class="st6" d="M763.9,577.9c-3.8,5.1-7.6,10.2-11.3,15.3c-1.1,1.5-2.2,1.5-3.8,1c-22.3-7.4-45-13.3-67.8-19
		c-15.4-3.8-20.1-14.9-13-29.1c12.9-25.8,26.1-51.4,38.1-77.6c5-10.8,15.3-15,28.3-11.9c10.3,2.4,19.7,7.2,29.2,11.5
		c14.4,6.6,28.5,13.7,42.3,21.4c3.6,2,4.3,3.7,2.3,7.3c-2.1,3.8-3.7,7.8-5.4,11.8c-0.9,2.1-1.6,2.7-3.9,1.2
		c-17.2-11.3-36-19.5-54.8-27.5c-4.8-2-7.3-0.9-9.6,4c-9.8,21.3-20.5,42.2-32.2,62.6c-2.7,4.7-1.9,7.4,3,8.9
		C724.8,563.7,743.9,571.1,763.9,577.9z"/>
	<path class="st7" d="M722.2,616.2c-4.4,7.3-8.8,14.7-13.3,22c-0.9,1.5-1.4,3.1-4.1,2.3c-3.6-1.2-4.8-2.1-2.4-5.9
		c6.9-10.8,13.4-21.9,19.8-33c1.9-3.3,3.8-2.5,6.5-1.7c3,0.9,3.3,2.4,2.8,5.2c-1.4,8.2-2.5,16.4-2.8,25.1c2.5-4.2,5.1-8.5,7.6-12.7
		c1.9-3.1,3.9-6.2,5.6-9.4c1.2-2.4,2.6-2.7,5.1-1.9c3.3,1,3.6,2.1,1.8,5.1c-6.9,11-13.6,22.1-20,33.4c-1.8,3.2-3.6,2.7-6.4,1.9
		c-3.2-1-3.5-2.6-3-5.5c1.3-8.1,2.3-16.3,3.5-24.5C722.7,616.4,722.5,616.3,722.2,616.2z"/>
	<path class="st7" d="M865.8,651.3c-0.1,5.9-8.3,15.8-14.5,16.9c-2.3,0.4-2,1.8-2.3,3.2c-0.7,4.6-1.3,9.2-2.2,13.8
		c-0.3,1.4,0.5,4.6-2.6,3.1c-2.2-1-6.8,0.3-5.7-4.9c1.1-4.7,1.7-9.5,2.9-14.2c0.6-2.4-0.2-3.3-2.2-4c-2-0.7-3.5-1.2-4.9,1.3
		c-2.3,4.3-5.1,8.2-7.3,12.5c-2.4,4.7-5.5,1.8-7.9,0.7c-2.8-1.3,0.1-3.1,0.8-4.3c6.6-11.2,13.4-22.3,19.9-33.5
		c1.3-2.3,2.5-2.9,5.1-1.9c5.3,2.1,10.7,3.7,16,5.6C863.7,646.6,865.8,648.1,865.8,651.3z"/>
	<path class="st7" d="M784.2,667.9c-2-0.8-4.6-1.2-5.9-2.6c-1-1.1,1.1-2.8,1.9-4.2c2.1-3.8,4.3-7.5,6.7-11.1c1.2-1.9,1.2-3-1.2-3.5
		c-0.2,0-0.3-0.1-0.5-0.2c-8.1-3.2-8.1-3.2-12.5,4.2c-1.7,2.9-3.4,5.7-5.1,8.6c-0.9,1.6-1.8,2.5-3.9,1.9c-5.2-1.5-5.4-1.7-2.6-6.4
		c6.5-10.9,13-21.7,19.6-32.5c1.7-2.7,6.7-3.2,8.6-0.8c1,1.1-0.1,1.8-0.5,2.6c-2.2,3.7-4.3,7.5-6.7,11.1c-1.5,2.2-0.8,2.9,1.4,3.8
		c8.2,3.2,8.2,3.3,12.8-4.5c1.3-2.1,2.7-4.2,3.8-6.4c1.1-2,2.3-2.2,4.4-1.6c3.3,1.1,5.1,1.8,2.5,5.8c-6.9,10.8-13.3,21.9-19.9,32.9
		C786.4,666.1,786,667.7,784.2,667.9z"/>
	<path class="st7" d="M666.1,626.6c3.2-2.5,6.1-4.2,8.5-6.6c8.7-8.7,17.3-17.6,25.7-26.6c3.9-4.2,7.1-0.3,10.3,0.6
		c3,0.9,0.6,3.5,0.1,5c-3.4,11.8-7.1,23.6-10.5,35.4c-0.9,3.1-2.1,4-5.2,2.6c-2.6-1.2-5.5-1.4-3.6-5.6c0.7-1.6,3.6-4.5-0.1-5.7
		c-3.5-1.1-7-5.2-11.1-0.4C675.5,631,675.2,630.8,666.1,626.6z"/>
	<path class="st7" d="M673.7,610.2c-4.2-0.4-8-2.1-11.9-3.6c-2.5-1-3.9-0.6-5.2,1.8c-1.7,3.2-3.7,6.3-5.6,9.4
		c-1.9,3-6.1,3.6-8.6,1.2c-1-1-0.3-1.7,0.2-2.6c7.2-12,14.4-23.9,21.5-35.9c0.9-1.5,1.9-2,3.7-1.4c5.9,2.1,12,4.1,17.9,6.3
		c3.6,1.4,4.9,4.2,3,7.6c-2.6,4.8-5.5,9.5-8.6,14C678.8,609.3,676.4,610.3,673.7,610.2z"/>
	<path class="st7" d="M816,630c6.8,2.3,13.5,4.7,20.3,6.9c1.8,0.6,1.5,1.7,0.5,2.6c-1.3,1.3-1.1,4.7-4.4,3.5c-3.3-1.2-6.7-2-9.9-3.5
		c-3.1-1.5-4.9-0.6-6.2,2.3c-0.5,1.2-1.2,2.4-2,3.4c-2.1,2.5-1.1,3.7,1.6,4.3c1.6,0.4,3.3,0.8,4.7,1.6c1.2,0.7,4.6-0.1,2.9,3.1
		c-1.1,2-1.5,4.6-5.4,3.2c-9.5-3.3-9.5-3-14.7,5.7c-1.7,2.7-1,3.6,1.7,4.3c3.3,1,6.7,2.1,9.9,3.4c1,0.4,3.9,0,2.3,2.4
		c-1,1.7-1.1,5.1-4.6,4c-6.8-2.2-13.5-4.7-20.3-6.9c-1.9-0.6-1.6-1.6-0.8-2.9c7.2-12,14.4-23.9,21.6-35.9
		C813.9,630.7,814.5,629.5,816,630z"/>
	<path class="st2" d="M579,1337c6.1-0.7,11.2,2.6,16.6,4.4c14.9,5,29.8,10.3,44.6,15.6c11.6,4.1,23.1,8.4,34.6,12.4
		c16.1,5.6,32.2,11.1,48.2,16.8c11.9,4.2,23.5,9.2,35.6,12.9c15.6,4.8,30.8,10.8,46.2,16.4c11.2,4,22.9,6.9,33.7,12.1
		c1.8,0.8,3.8,1.1,5.8,1.5c2.2,0.5,3.8,1.3,3.7,3.9c-5.1-0.7-9.5-3.7-14.3-5.3c-26.1-9-52.1-18.3-78.1-27.6
		c-51.4-18.2-102.8-36.5-154.2-54.7C593.9,1342.6,586,1340.9,579,1337z"/>
	<path class="st7" d="M745.1,654.3c-1.5-0.6-3.9-0.9-5.1-2.2c-1.3-1.4,0.9-2.9,1.6-4.2c5.1-8.6,10.1-17.2,15.4-25.7
		c1.9-2.9,2.1-4.3-1.7-5.4c-1.5-0.4-5.2,0.3-4.2-3c1-3.1,2.7-5.7,7.3-3.7c5.9,2.6,12.2,4.3,18.3,6.5c1.1,0.4,3.9,0.3,2.2,2.6
		c-1.2,1.6-0.9,5.4-4.8,4.3c-7.6-1.9-7.6-1.8-11.7,4.9c-4.6,7.7-9.2,15.4-13.9,23.1C747.8,652.7,747.4,654.4,745.1,654.3z"/>
	<path class="st2" d="M656,1138c-0.3,7.2-4.4,13.2-6.9,19.6c-7.3,19-15.5,37.8-22.6,56.9c-14.8,40-31.5,79.3-47.4,118.8
		c-0.6,1.4-0.7,2.5-0.1,3.7c-4.3-0.1-2.2-2.9-1.6-4.5c4.7-12.1,9.6-24.1,14.4-36.1c15.1-37.6,30.1-75.3,45.2-112.9
		c5.7-14.3,11.5-28.7,17.3-43C654.7,1139.6,655.4,1138.8,656,1138z"/>
	<path class="st2" d="M846,735c-6.8-1.7-13.8-2.6-20.6-4.5c-7.9-2.2-16-3.7-23.7-6.5c-2.3-0.8-4.9-1-6.7-3
		c11.5,1.7,22.5,5.4,33.7,8.1c4.5,1.1,9,2.2,13.4,3.4C843.6,733,845.6,732.8,846,735z"/>
	<path class="st2" d="M882,743c-1.1,2.1-2.8,2.2-4.6,1.2c-7.4-3.9-16.2-3.2-23.7-7c-1.3-0.7-2.9-0.7-3.7-2.2
		C860.9,736.7,871.4,740,882,743z"/>
	<path class="st2" d="M838,780c1.6-3,4.2-3.4,7.1-2.7c2.4,0.6,4.1,1.9,3.9,4.8C845.8,779,841.7,780.3,838,780z"/>
	<path class="st2" d="M787,720c-4.7-1.5-10.3-0.6-14-5C777.7,716.5,783.1,716.1,787,720z"/>
	<path class="st2" d="M889,867c4.2,4.6,5,10.1,5,16C891.8,877.8,890.3,872.4,889,867z"/>
	<path class="st2" d="M823,781c2.5-5,5.8-2.5,9-1C829.2,781.9,826,780.6,823,781z"/>
	<path class="st2" d="M1010,750c-1-0.8-1-1.9-1-3c3.2,1.8,6-0.2,9-1C1016.2,749.1,1013.4,750.1,1010,750z"/>
	<path class="st2" d="M911,710c-2.5,2.4-4.5,2.6-6-1C907,709.2,909.2,708.4,911,710z"/>
	<path class="st2" d="M960,717c-2.3,1.6-4.3,1.4-6-1C956,716.2,958.2,715.4,960,717z"/>
	<path class="st2" d="M946,715c-2.3,1.6-4.3,1.4-6-1C942,714.2,944.2,713.4,946,715z"/>
	<path class="st2" d="M939,714c-2.3,1.6-4.3,1.4-6-1C935,713.2,937.2,712.4,939,714z"/>
	<path class="st2" d="M918,711c-2.3,1.6-4.3,1.4-6-1C914,710.2,916.2,709.4,918,711z"/>
	<path class="st1" d="M736.9,728.8c10.7,12.7,21.3,25.3,32,38c11.2,13.4,22.4,26.8,33.6,40.1c13.3,15.9,26.7,31.8,40,47.8
		c5.2,6.4,5.1,6.6,0,13.2c-27.2,35.3-54.4,70.6-81.5,105.9c-3.4,4.5-6.8,9-10.4,13.4c-3.2,4-5.6,4-8.5-0.2
		c-10.8-15.8-21.6-31.6-32.3-47.5c-2.4-3.6-5.4-6-9.5-7.6c-11-4.3-21.7-9.3-32.8-13.5c-4.5-1.7-6.1-4.5-6.5-8.8
		c-1.7-19.3-3.3-38.7-5.1-58c-1.5-15.5-3.2-31-4.8-46.5c-0.8-7-0.1-8.2,6.4-11.8c27.9-15.6,55.7-31.2,83.7-46.8
		c2.5-1.4,2.9-2.5,1.3-5c-2.4-3.9-4.2-8.1-6.3-12.2C736.4,729.1,736.7,729,736.9,728.8z"/>
	<path class="st1" d="M498.4,589c-8.7,2.7-17.7,4.4-26.3,7.5c-5.5,2-10.9,4-15.7,7.6c-4,3-4.4,5-0.9,8.9c5.3,6,11.6,11,18.2,15.5
		c22.8,15.4,46.6,29,70.9,41.9c3.6,1.9,7.1,3.9,10.3,6.6c-3.9-1.1-8-1.9-11.8-3.4c-17.3-6.9-34.6-5-51.9,0.1
		c-11.8,3.4-23.4,7.6-33.8,14.6c-7.1,4.7-8.6,9.5-5.6,17.5c2.9,7.8,7.6,14.8,11.4,22.2c5,9.7,10.6,19.2,12.2,30.4
		c0.9,6.9-0.6,13.3-3.2,19.4c-7.1,16.4-18.3,29.6-31.9,41c-0.4,0.3-0.7,0.7-1.2,1c-1.9,1.2-3,4.8-5.3,3.6c-2.2-1-1.6-4.4-1.8-6.9
		c-2.1-17.5,1.1-34.7,2.7-52c1.1-11.5-2.4-22.8-6.4-33.6c-9.5-25.2-23.5-48.1-35.8-71.9c-7.3-14.1-13.9-28.4-13.5-44.9
		c0.2-7.6,2.8-14.3,6.7-20.6c1.5-2.4,3.5-4.3,6.8-4.3C427.7,589,463.1,589,498.4,589z"/>
	<path class="st1" d="M732,992.4c-7.2-5.2-14.4-10.5-21.6-15.7c-19.5-14.2-38.9-28.5-58.4-42.6c-3.5-2.5-5.3-5.4-6.1-9.6
		c-3.9-20.7-8.5-41.3-12.2-62.1c-2.1-11.9-3.2-24-4.7-36c-1.8-15.3-3.2-30.7-5.4-45.9c-0.5-3.6,0.7-4.7,3.4-6
		c19.4-9.1,38.8-18.3,58.3-27.4c8.1-3.8,16.3-7.6,24.4-11.4c4.4-2.1,11.7,0.8,13.5,5.3c1,2.6-1.4,2.7-2.7,3.3
		c-10.9,5.4-21.8,10.7-32.8,15.9c-13.9,6.7-27.9,13.3-41.9,20c-3.8,1.8-7.5,3.5-11.4,5.2c-2.7,1.2-3.3,2.7-2.8,5.8
		c7.2,41,14.3,82.1,21.2,123.2c0.5,3.1,2.5,4.2,4.6,5.4c11.2,6.6,22.2,13.5,33.8,19.3c7.6,3.8,11,10.9,15.6,17.1
		c8.8,11.7,17.1,23.7,25.7,35.6C732.4,991.8,732.2,992.1,732,992.4z"/>
	<path class="st8" d="M1028.2,719c-6.4,0.2-11.7-1.3-17.1-2.2c-2.8-0.5-4.6-2.5-6.1-4.8c-6.6-10.2-13.2-20.4-20.1-30.4
		c-2.2-3.2-1.3-5,1.2-7.1c11.2-9.4,22.2-19,32-29.9c2.9-3.3,5.5-6.7,7.5-10.6c1.2-2.4,2.4-3.9,4.2-0.4c9,16.6,18,33.1,23.5,51.2
		c3.1,10.2-2.5,17.7-8.5,24.8C1040.4,714.8,1035.7,720.5,1028.2,719z"/>
	<path class="st9" d="M972.8,691.2c-21.4-4.3-43-7.4-63.2-16.2c-2.9-1.3-7.6-1.6-8-5c-0.4-3.3,3.9-5,6.5-6.9
		c4.8-3.6,4.7-3.4,0.1-7.5c-4.1-3.7-7.8-7.7-11.9-11.4c-6.1-5.5-6.3-11.6-2.6-18.3c3.2-2.6,6.9-2.1,10.5-1.5
		c12.9,2.4,25.7,5,38.5,7.7c3.5,0.7,6.1,2.5,7.7,5.7c8.4,16.4,16.6,32.9,23.7,49.9C974.7,688.7,977.3,691.6,972.8,691.2z"/>
	<path class="st8" d="M1005.3,458.8c-11.2-4.3-22-9-33.1-12.7c-9-3-16.8-7.4-22.4-15c-9.1-12.4-16.7-25.6-21.1-40.5
		c-4.1-13.7-7.4-27.6-10.5-41.6c-0.1-0.6,0-1.3,0-3.2c7.3,7.7,14.8,13.7,20.8,21.2c22.2,28,42.8,57.2,63.3,86.5
		C1003.3,455,1005.5,455.9,1005.3,458.8z"/>
	<path class="st8" d="M844.7,301.5c9.7,4,18.2,7.4,26.6,10.9c1.9,0.8,2.2,2.8,2.7,4.5c9.5,33.4,19,66.9,28.5,100.3
		c0.3,1.1,0.5,2.3,0.8,3.4c0.5,1.6,0.2,3.1-1.2,4c-1.5,0.9-3,0.2-4.2-0.7c-3.9-2.7-5.6-6.9-7.4-11c-5-11.6-9.8-23.3-14.6-35
		c-10-24.1-19.9-48.3-29.8-72.5C845.8,304.6,845.6,303.8,844.7,301.5z"/>
	<path class="st10" d="M972.8,691.2c1.1-0.3,1.6-0.6,0.9-2c-8.4-17-16.8-34-25-51.1c-1.1-2.3-2.8-3.5-5.3-4
		c-12.7-2.5-25.4-5.1-38.2-7.5c-3.7-0.7-7.6-0.6-11.4-0.8c2.5-13.7,2.7-13.8,16.2-12.5c13.4,1.2,26.8,2.4,40.2,3.6
		c2,0.2,3.8,0.1,4.7,2.7c7.3,22.4,16.1,44.3,20.7,67.6C976.3,691.6,976.2,691.6,972.8,691.2z"/>
	<path class="st8" d="M556.1,313.9c-8.3-4.4-16.7-8.7-25-13.3c-8.6-4.8-16.9-9.9-24-16.8c-4.8-4.6-11.1-6.6-17.2-8.9
		c-3.1-1.1-6.4-2-9.4-3.3c-6.6-2.7-9.9-6.1-7.8-13.7c1.8-6.4-1.6-12.4-4.3-18.1C458,218.4,444.5,199,430.5,180
		c-0.4-0.5-0.7-1-1.7-2.5c5.8,1.4,10.7,2.5,15.6,3.8c16.3,4.3,32.5,8.7,48.7,12.8c4.2,1.1,7.5,3.4,10.7,6.1c14,11.8,28,23.5,42,35.3
		c13.6,11.5,27.1,23,40.7,34.4c16.5,13.9,33,27.8,49.6,41.7c13.1,11,26.2,22.1,39.2,33.1c19,16.1,37.9,32.2,57.9,49.2
		c-12.3-4.9-23.5-9.3-34.7-13.9c-30-12.3-60-24.7-89.5-38.4c-8.2-3.8-16.5-3.4-24.8-0.9c-8.7,2.6-16.8,6.7-24.1,11.8
		c-5.9,4.1-11.7,4.6-18.4,3c-33-7.5-65.5-16.6-97-29.1c-7.4-2.9-14.7-6.5-19.3-13.6c-3.1-4.8-6.2-9.9-3.3-15.8
		c3.1-6.3,9.2-7.9,15.5-8.1c11.7-0.5,23.1,2.1,34.5,4.5C500.3,299.4,528.1,306.8,556.1,313.9z"/>
	<path class="st8" d="M668.3,258.6c15.4,3.5,31.1,3,46.6,5.2c20.1,2.9,39.8,7.7,59.4,13.1c5.6,1.5,11.1,3.4,16.8,4.8
		c2.4,0.6,3.6,1.7,4.5,4c13.3,36.4,26.7,72.8,40,109.2c8.4,23,16.9,45.9,25.3,68.9c0.9,2.4,2.4,3.9,4.6,4.9
		c20.6,9.4,41.2,18.8,61.8,28.2c11.2,5.1,22.4,10.2,33.7,15.2c2.1,0.9,2.8,2.6,3.6,4.5c10.8,28.3,21.7,56.6,32.5,84.8
		c0.5,1.4,1.1,2.8,2.2,5.6c-21.5-16.1-42-31.5-65.7-41.9c0,0.1,0-0.3,0.1-0.4c8.8-3.4,9.3-4.4,3.9-12.6
		c-8.4-12.7-18.6-23.8-28.7-35.1c-5.1-5.7-9.8-11.8-16-16.4c-14.3-10.7-30.8-17-47.1-23.8c-7.1-2.9-14.2-5.7-21.3-8.5
		c-14.4-5.6-21.9-17.1-24-31.4c-3.8-25.5-13.9-48.5-24.5-71.5c-7-15.1-14.2-30.1-24.5-43.4c-16.9-21.9-37.9-39-61.9-52.6
		C682.5,265.8,675.5,262,668.3,258.6z"/>
	<path class="st1" d="M959,917c-4.2,27.7-7.6,55.6-15,82.8c-2.3,8.5-4.3,17.1-9.6,24.5c-6.4,8.8-15.3,14.3-24.7,18.9
		c-13.9,6.8-28.2,11.6-44.1,11c-9.5-0.3-17.6-4.6-26-8c-6.6-2.7-12.9-6.2-19.5-9.1c-3.7-1.6-5.4-4-5.1-8.1c0.5-6.1,1.4-12.2,1-18.4
		c-0.1-1.8,1-3.1,2.2-4.3c13.3-14.6,26.7-29.2,39.9-43.9c20.6-22.8,41.1-45.7,61.7-68.6c1.4-1.6,1.7-3,1.1-4.9
		c-8.4-27.2-16.2-54.6-25.3-81.5c-3-8.8-9.9-16.1-14.1-24.6c-5.6-11.2-14.1-19.1-24.7-25.1c-1.7-1-3.9-1.7-5.1-3.8
		c2-1.5,4.1-0.9,5.9-0.9c10.5-0.1,21-0.2,31.5,0c3.5,0.1,5.1-1.1,6-4.4c2-7,4.5-13.9,6.5-21c1-3.3,2.9-4.1,6-3.6c17.7,3,35.3,6,53,9
		c3.5,0.6,6,2.6,8.2,5.2c7.5,8.5,15.2,16.8,22.4,25.4c3.8,4.6,7.7,5.5,13.4,3.7c12.9-4,25.9-7.2,38.9-10.8c0.8-0.2,1.5-0.7,2.6,0
		c-1.1,5.2-4.5,9.4-7,13.9c-10,17.8-20.4,35.5-33.2,51.5c-9,11.3-18.5,22.2-27.8,33.2c-17.5,20.9-29.2,44.6-35.6,71.2
		c-4.8,20.1-12.5,39.3-20.5,58.4c-0.7,1.6-1.6,3.2-1.5,5.8c5.6-7.1,9.5-14.6,13.8-21.8c9.1-15.3,17.3-31.1,22-48.5
		c0.3-1.1,0.5-2.3,0.7-3.4C957.7,916.8,958.3,916.2,959,917z"/>
	<path class="st8" d="M719,1269c1.2,17.2,6.6,33.3,13.8,48.6c3,6.4,10.2,9.9,15.9,14.1c29.3,21.9,59.5,42.5,90,62.6
		c8.4,5.6,16.9,11.1,25.3,16.7c-0.3,0.3-0.6,0.6-0.9,0.9c-3.5,2-6.9,0.1-10.1-0.8c-20-5.6-40.1-11.2-60-17.3
		c-38.2-11.7-76.4-23.7-113.3-39.1c-19.8-8.2-38.4-18.5-53.5-34.3c-6.1-6.3-10.6-13.6-13.6-21.9c-1.4-4-1.3-7.8,0.3-11.7
		c21.4-51.9,42.7-103.8,63.8-155.8c2.5-6.2,6.4-9.6,13-10.8c17.2-3.1,34.2-7.2,51.3-10.7c3.2-0.7,6.8-2.6,9.9,0.6c0,0.3,0,0.6,0,0.9
		c-9.8,5.6-18,13.2-26.9,20c-2.6,2-0.7,6-1.1,9c-1.3,3.6,0.3,7.4-0.9,11c0,5.7-0.1,11.3-0.1,17c-1.2,3.6,0.3,7.4-0.9,11
		c0,5.7-0.1,11.3-0.1,17c-1.3,3.9,0.3,8.1-0.9,12c0,5.7,0,11.3-0.1,17c-1.3,3.9,0.3,8.1-0.9,12c0,6.7-0.1,13.3-0.1,20
		C718.2,1261,718.2,1265,719,1269z"/>
	<path class="st2" d="M751,1110c-9,0.4-17.6,3.3-26.4,5c-12.7,2.5-25.3,5.4-38,8c-3.1,0.7-5.1,2.1-6.4,5.3
		c-10.3,25.4-20.7,50.8-31.2,76.1c-11.4,27.7-22.8,55.3-34.2,83c-1.4,3.4-1.8,6.5-0.5,10.1c4.9,14.3,15,24.5,26.7,33.4
		c18.3,13.8,39.2,22.3,60.4,30.3c25.9,9.7,52.1,18.4,78.5,26.5c26.5,8.2,53.2,16,80,23.2c1.1,0.3,2.2,0.7,3.3,1.1
		c1.4,4.7-1.4,4.2-4.3,3.4c-13-3.6-25.9-7.3-38.9-11c-33.6-9.5-66.9-20.3-99.9-31.7c-17.9-6.2-35.9-12.5-52.9-20.9
		c-18.6-9.2-35.8-20.5-48.7-37.2c-3.8-4.9-6.6-10.4-8.5-16.3c-1.3-3.9-1.2-7.8,0.4-11.7c8-19.5,16-39.1,24-58.6
		c13.8-33.7,27.6-67.4,41.4-101.1c1.9-4.7,5.2-7.6,10.2-8.6c20.5-4.3,41-8.6,61.5-12.8C751.8,1104.5,752.3,1105.2,751,1110z"/>
	<path class="st2" d="M737,1129c-0.3-0.3-0.7-0.7-1-1c4.4-5.3,10.6-8.5,15.6-13c0.7-0.6,1.5-0.9,2.2-0.2c1,1.1,0,1.8-0.6,2.5
		C748.5,1122.1,743.9,1127.1,737,1129z"/>
	<path class="st2" d="M726,1187c0,7.9,0,15.9,0,23.8c0,1.8,0.4,3.7-1,5.2c0-7.9,0-15.9,0-23.8C725,1190.4,724.6,1188.5,726,1187z"/>
	<path class="st2" d="M725,1216c0,7.9,0,15.9,0,23.8c0,1.8,0.4,3.7-1,5.2c0-7.9,0-15.9,0-23.8C724,1219.4,723.6,1217.5,725,1216z"/>
	<path class="st2" d="M727,1159c0,7.3,0,14.5,0,21.8c0,1.8,0.4,3.7-1,5.2c0-7.3,0-14.5,0-21.8C726,1162.4,725.6,1160.5,727,1159z"/>
	<path class="st2" d="M724,1246c0,8.3,0,16.7,0,25C722.4,1262.7,722.4,1254.3,724,1246z"/>
	<path class="st2" d="M728,1135c0,5.9,0,11.9,0,17.8c0,1.8,0.4,3.7-1,5.2c0-5.9,0-11.9,0-17.8C727,1138.4,726.6,1136.5,728,1135z"/>
	<path class="st2" d="M730,1170c-1.6-4.3-1.6-8.7,0-13C730,1161.3,730,1165.7,730,1170z"/>
	<path class="st2" d="M732,1241c-1.6-4.3-1.6-8.7,0-13C732,1232.3,732,1236.7,732,1241z"/>
	<path class="st2" d="M731,1205c-1.6-4.3-1.6-8.7,0-13C731,1196.3,731,1200.7,731,1205z"/>
	<path class="st2" d="M733,1277c-1.6-4.3-1.6-8.7,0-13C733,1268.3,733,1272.7,733,1277z"/>
	<path class="st1" d="M720,1208c0.4-4-1-8.1,0.9-12C720.6,1200,722,1204.1,720,1208z"/>
	<path class="st1" d="M719,1237c0.4-4-1-8.1,0.9-12C719.6,1229,721,1233.1,719,1237z"/>
	<path class="st1" d="M719,1269c-1.5-4-1.5-8,0-12C719,1261,719,1265,719,1269z"/>
	<path class="st1" d="M722,1151c0.3-3.7-1-7.5,0.9-11C722.6,1143.7,723.9,1147.5,722,1151z"/>
	<path class="st1" d="M721,1179c0.3-3.7-0.9-7.5,0.9-11C721.6,1171.7,722.9,1175.5,721,1179z"/>
	<path class="st2" d="M731,1189c0-3.7,0-7.3,0-11C732.6,1181.7,732.6,1185.3,731,1189z"/>
	<path class="st2" d="M733,1260c0-3.7,0-7.3,0-11C734.6,1252.7,734.6,1256.3,733,1260z"/>
	<path class="st2" d="M730,1153c0-3.3,0-6.7,0-10C731.5,1146.3,731.5,1149.7,730,1153z"/>
	<path class="st2" d="M732,1224c0-3.3,0-6.7,0-10C733.5,1217.3,733.5,1220.7,732,1224z"/>
	<path class="st1" d="M632,452.5c-1.8,16-3.6,31.6-5.5,47.2c-0.5,4.2,0.7,10.1-2.5,12.1c-2.7,1.6-7.8-1.1-11.9-1.9
		c-7.2-1.4-14.4-2.7-21.5-4c-2.2-0.4-3.6-0.8-1.6-3.3c13.1-17,27.2-33.2,41.4-49.2C630.5,453.1,631.1,453,632,452.5z"/>
	<path class="st5" d="M839.7,657.7c1.1-1.9,2.2-3.3,2.9-5c1.6-3.9,4.1-5.4,7.9-2.9c1.8,1.2,6.3-0.1,5.1,4.2
		c-1.6,5.9-4.7,7.6-9.5,5.9C844.1,659.3,842.1,658.6,839.7,657.7z"/>
	<path class="st11" d="M701.1,603.6c-1.6,5-3.3,10-4.9,15.1c-0.6,1.9-1.4,2.4-3.2,1.5c-1.8-0.8-3.7-1.3-6.3-2.3
		c4.7-5.2,9.1-10,13.5-14.8C700.5,603.3,700.8,603.4,701.1,603.6z"/>
	<path class="st1" d="M679.9,592.8c-2.2,3-2.9,7.8-6.7,9.2c-3.1,1.2-6.6-1.6-9.8-2.8c-0.1,0-0.3-0.3-0.3-0.4c0.7-3.7,3.5-6.3,5-9.5
		c0.7-1.4,1.7-1.8,3.3-1.2c2.2,0.8,4.4,1.5,6.6,2.3C678.9,590.9,679.9,591.2,679.9,592.8z"/>
</g>
</svg>
