<?xml version="1.0" encoding="iso-8859-1"?>
<!-- Generator: Adobe Illustrator 19.0.0, SVG Export Plug-In . SVG Version: 6.00 Build 0)  -->
<svg version="1.1" id="Layer_1" xmlns="http://www.w3.org/2000/svg" xmlns:xlink="http://www.w3.org/1999/xlink" x="0px" y="0px"
	 viewBox="-658 432.1 287.1 364.9" enable-background="new -658 432.1 287.1 364.9" xml:space="preserve">
<g id="Layer_x0020_1">
	<g id="_495799915040">
		<path fill="#88363A" d="M-462.3,509.7h0.2c-0.3-0.5,0.4-0.3-0.5-0.4L-462.3,509.7z"/>
		<path fill="#88363A" d="M-531.1,524.4l0.6,0.3l-0.1-0.8C-530.7,524.6-530.5,524.5-531.1,524.4z"/>
	</g>
	<g id="_495799918528">
		<path fill="#36647B" d="M-580.5,589.9l0.7,0.6l-0.3-1.2C-580.2,590-580,589.9-580.5,589.9z"/>
		<polygon fill="#36647B" points="-578,584.9 -577.6,584.7 -578,584 		"/>
	</g>
	<g id="_495799917920">
		<path fill="#131C24" d="M-632.8,582.9c-0.7,0.2-1-1-0.3,0.8c0.4,1.3,1.8,1.9,3.4,2.8c0.8,0.5,3.2,1.9,4.2,2
			c3.3,0.5,5.2-4.8,5.5-6.5c-1.5,2.2-1.6,4-4,5.3c-1.8,0.2-3.4-0.9-5-1.6C-632,584.5-631.1,585.4-632.8,582.9z"/>
		<path fill="#131C24" d="M-583.9,589.3c-0.3-1.4-1-3.6-1.7-4.5l-0.3,5.3L-583.9,589.3z"/>
		<polygon fill="#131C24" points="-534.4,572.1 -532.3,571.5 -534,567.5 		"/>
	</g>
	<g id="_495799919072">
		<path fill="#FCE8BC" d="M-613.7,663c0.8-1.1,0.9-8.7,0.9-10l-5.4-3c1,1.9,0,1.3,2.1,2.5c1.4,0.8,1.7,0.6,1.8,2.4
			C-614.1,656.9-613.5,661.3-613.7,663z"/>
		<path fill="#FCE8BC" d="M-633.8,579.9c1,0.3,0.6,0.3,1.2,0.5c1.4,0.5,0.6,0.2,1-0.2c-0.3-1.3-0.2-1.6-1-2.7L-633.8,579.9z"/>
	</g>
	<g id="_495799919008">
		<path fill="#AF9B78" d="M-600.9,638c0.2-0.3,0.4-0.1-0.3-1.5l-2.4-4.2c-5.7-9.7-3.2-5.8-0.2-17.5c0.5-1.9-0.1-1.5-0.2-1.6
			c-0.1,1.4-2,5-2.7,6.6c-1.8,4.1-2.8,4.7-1.6,6.6C-606.9,628.4-601.1,636.6-600.9,638z"/>
		<path fill="#AF9B78" d="M-624.3,577.4c0.6,0.2,0.5-0.1,0.8,0.3c0,1-0.3,1.3-0.6,2.2l1.8-1.3c-0.8-0.1-0.3,1.2-0.7-0.1
			c0-0.1-0.1-0.1-0.3-0.1l0.4-2.7c-0.3,0.4-0.4,0.5-0.7,0.8l-0.6,0.7C-624.2,577.1-624.3,577.3-624.3,577.4z"/>
	</g>
	<g id="_495799920704">
		<path fill="#1A2126" d="M-559.8,585.8c-0.1-0.6-0.2-0.3,0.6-0.3l-1.6-11.9c-0.2-0.6,0.3-0.1-0.9-0.1l0.4,2.7l-4.4,1.6l0.3,2.1
			l3.8-1.1l0.4,2.6l-3.7,1.3l0.2,2.7l4.5-1.5L-559.8,585.8z"/>
		<path fill="#1A2126" d="M-556.9,578.3c3-0.6,4.1-3.5,1.8-3.9c-0.3-0.1-0.4,0-0.8,0c-0.5,0.1-0.9,0.2-1.6,0.3L-556.9,578.3z"/>
	</g>
	<g id="_495799922784">
		<path fill="#060608" d="M-626.7,559.3c2.4,0.2,10.8,2,12.5,3.1l-0.8,2.8c-1.6,0,1.3-1.1-6,0.4c-2.4,0.5-4.6,1-7,1.4
			c-1.5,0.3-2,0.2-2.7,1.4c-1.3,2.1-3.3,6.2-4.7,7.7c0.2,1.7,0.9,2,1.3,3.8h0.2l1.2-2.4l0.7-1.9c0.3-0.3,0.5-0.8,0.8-1.1
			c0.5-0.5,1.1-0.6,1.7-0.9c2.1-0.5,1.3-0.8,3.9-0.4c1.3,0.2,2.7,0.6,3.9,0.5l0.5-0.3l-5.3-1.5l-0.9-0.2c-0.3-1.3-0.1-0.1,0.3-0.6
			l9.5-4l0.6-0.4l1.7-0.7c-0.4,1.4-1,5-1.7,6.1l-1,3.2l-2,6.1c1.5-1.6,6.4-16,6.5-18.8c-1.4-1.9-5.2-2.2-7.6-2.7
			c-2.4-0.5-6.5-1.7-8.7-1.2L-626.7,559.3z"/>
		<path fill="#060608" d="M-626.5,580l-4.7,0.7c-0.6,0.8,2.1,0.8,2.8,0.6c1.1-0.3,2.1-0.7,3.2-1c0.6-0.2,0.6-0.3,1.1-0.5
			c0.3-0.9,0.6-1.2,0.6-2.2c-0.3-0.4-0.2,0-0.8-0.3C-624.5,577.9-626.1,579.5-626.5,580z"/>
	</g>
	<g id="_495799921376">
		<path fill="#9E8E74" d="M-618.8,648.4c0.9-0.8,8.5,0.2,8.6,0.2l0.4,3.5c1.4,0.4,3.1,1.4,4.5,1.1c1.3-0.4,2.9-1.8,4.2-1.6
			c2.9-1.8,1.2-1.4,3.5-3.6c0.6-0.5,0,0.1,0.5-0.5l-4.7-1.1h-0.8c-1.1-0.2-7.5-1.5-8.6-2.1c0.7-0.9,1.7-2.4,2.1-3.4
			c-3.8-1.3-4.6-0.4-8.2,0.6c-1.3,0.4-6.6,1.8-7.2,2.1l-0.6-3.6c0,3.4,0.4,4.4,1.2,7.4C-622.3,647.6-619.8,647.8-618.8,648.4z"/>
		<path fill="#9E8E74" d="M-628.4,634.8c1.8,1.8,3,0.1,3.3,3.5c2.4-0.5,7.5-2.2,9.4-2.1c2.1,0.1,8.6,1.5,9.9,0.9l-2.7-1.4
			c-1.7-0.5-2.9-1.2-4.5-1.9c-2.5-1.2-2.1-1-4.9-0.6C-621.2,633.7-625.5,634.5-628.4,634.8z"/>
	</g>
	<g id="_495799924896">
		<path fill="#74C1FE" d="M-586,590.1l0.3-5.3c0.8,0.9,1.4,3.1,1.7,4.5L-586,590.1z M-580.1,589.3l0.3,1.2l-0.7-0.6
			c-0.3-1.7-2.7-6.7-3.5-8.4l-3.7,1.3l-2.1,14.3c3.8-1.2,3.1-0.3,3.6-4.2l3.5-1.3c0.2,1.2,0.4,2,1,2.7l5.1-1.8l-1.4-7.6V584l0.5,0.8
			c0.4,1.5,0.9,2,1.6,3.2c1.1,2,2.2,4.1,2.9,0.8c0.1-0.7,0.3-1.4,0.4-2.1c0.3-1.4,0.4-3.2,0.9-4.3l0.7,8.1l2.9-0.9
			c-0.4-2.7-1-11-1.9-13c-5.6,1.6-2.4,3.9-4.4,9.4c-0.7-0.8-1.2-2.1-1.8-3.1l-2-3.5l-2.9,1L-580.1,589.3z"/>
		<path fill="#74C1FE" d="M-534,567.5l1.8,4.1l-2.1,0.6L-534,567.5z M-536.1,564.9l-1.7,11.4c-2.7-0.7-0.8,2-4.5,1
			c-1.7-0.9-2.4-6.1-0.3-7.5c1-0.7,1.8-0.1,2.7,0l1.3-2.1c-3.8-3.4-10.6,1.9-7.7,9.4c0.8,2.2,3.3,4.2,6.5,3l3.6-1.5
			c2-0.6,1.4-1.4,1.7-3.6l3.2-1.3l1.1,2.6l3.1-0.9l-5.3-11.9L-536.1,564.9z"/>
		<path fill="#74C1FE" d="M-557.5,574.7c0.7-0.1,1-0.3,1.6-0.3c0.3,0,0.4-0.1,0.8,0c2.3,0.4,1.2,3.3-1.8,3.9L-557.5,574.7z
			 M-560.7,573.6l1.6,11.9l0.2,0.8l2.8-0.9c0-3-1.2-4.1,0.1-4.7c0.9-0.5,2.4,2,3.4,3.3c1.8-0.1,4.2-1.2,5.9-1.8
			c0.4-1.5-1.1-9.6-1.3-11.8c-0.5-1.4-0.3-0.7-0.9-1.2l-2.3,1l1.7,12.5c-2.2-1.3-1.6-2.6-3.3-3.2c0.1-0.2,3.9-5.6,0-7.5
			c-1.3-0.7-2.9-0.3-4.2,0.2c-0.7,0.2-1.4,0.5-2.1,0.7C-560.1,573.1-560.5,573.1-560.7,573.6z"/>
		<polygon fill="#74C1FE" points="-559.8,585.8 -560.1,584 -564.6,585.5 -564.8,582.8 -561.1,581.5 -561.5,578.9 -565.3,580 
			-565.6,577.9 -561.2,576.3 -561.6,573.6 -568.9,576.2 -567.1,589.4 -559.8,586.7 		"/>
	</g>
	<g id="_495799923648">
		<path fill="#F9E2B9" d="M-653.8,617c0.1-0.8,1.9-7.4,2.1-8.1c0.6-1.3-0.2-0.4,1.3-1.2c1.7-1,3.8-2.4,5.1-2.6
			c1.4,1.8,2.6,2.4,4.1,3.7c0.5,0.5,0,0.1,0.6,0.6c1.2,1.1,2.9,1.2,2,3.7c-0.5,1.4-0.8,2.4-1.2,3.8L-653.8,617z M-651.9,606.6
			c-0.4,1.8-2.1,5.4-2.9,7.3c-1.2,2.8-2.3,4.4,0.1,6.7l17-1.1l1.4,5.4c0.3,1.7-0.1,3-0.1,4.6c0,1.5,0.6,2.4,0.8,3.9
			c2.6,0.3,3.6,1.3,7.1,1.4c2.9-0.3,7.2-1.1,10.4-1.6c2.8-0.5,2.4-0.6,4.9,0.6c1.6,0.8,2.8,1.4,4.5,1.9c-1.1-1-2.7-2-4.2-2.9
			c-2.1-1.4-2.3-1.5-5.3-1.2c-10.6,0.9-6.7,1.6-11.2-1.3s-3.9-2.3-6.1-8c-0.8-2.2-2.1-2.9-1-4.5c1.3-1.9,2.7-2.1,1.4-4.5
			c2,0.9,6.8,3.8,8.6,3.5c-0.1-0.1-0.4-0.6-0.5-0.7s-0.4-0.2-0.5-0.3c0-0.1-0.2-0.1-0.3-0.1c-0.6-0.9-7.2-4.8-8.7-6l-9-6
			L-651.9,606.6z"/>
		<path fill="#F9E2B9" d="M-624.2,642l-0.1-2.8c1.2-0.5,6.8-2.2,7.8-2.4c1.1-0.1,7.7,0.9,8.8,1.2c-2.5,0.8-5.8,1.1-8.4,1.7
			C-618.9,640.4-621.5,641.4-624.2,642z M-625.1,638.2l0.1,1.7l0.6,3.6c0.6-0.3,5.9-1.7,7.2-2.1c3.6-1,4.4-1.8,8.2-0.6
			c-0.4,1-1.3,2.5-2.1,3.4c1.1,0.6,7.4,1.9,8.6,2.1c0.6-1.1,0.7-0.8,1.1-1.9c-0.9-0.4-0.7-0.5-1.6-0.9c-0.3,0.4,0.2,0.6-1.9,0.4
			c-1.5-0.2-1.2-0.1-1.7-0.5c1.1-0.4,0.4-0.3,1.6-0.6c-0.4-1.1-0.2-1,0.6-1.9c0.8-1,0.6-0.5,1-1.7c-1.2,0.5-1.3,1-2.7,1.4
			c0.7-1.3,1.2-1.3,1.7-3c-0.6-0.2-0.7-0.3-1.3-0.4c-1.3,0.6-7.8-0.8-9.9-0.9C-617.7,636.1-622.8,637.8-625.1,638.2z"/>
		<path fill="#F9E2B9" d="M-627,571.1c0.1,0.1,0.1,0.2,0.2,0.2c0,0.1,0.1,0.2,0.2,0.2c0,0.1,0.2,0.3,0.3,0.3l5.3,1.5
			c0.9,0.2,1.9,0,0.4,0.6c-1.9,0.7-1,0.2-2.1,1.6l-0.4,2.7c0.1,0.1,0.2,0,0.3,0.1c0.4,1.3-0.1,0,0.7,0.1l-1.8,1.3
			c-0.4,0.2-0.5,0.3-1.1,0.5l-1.4,1.5c2.2-0.3,3.9-1.8,4.7-2.9c1.4-1.8,0.8-0.8,1.9-1.9c1.2-1.1,0.4-0.9,2.2-1.8l1-3.2
			c-0.3-1.5-0.1-0.5-0.3-1c-0.4-1.2-0.5-1.7,0-3.4c0-0.7,0.2-0.6-0.4-0.6L-627,571.1z"/>
	</g>
	<g id="_495799925088">
		<path fill="#BDBDBD" d="M-514.8,456.4c-1.9,2.2-3.4,5.1-5.1,7.6c-3.9,5.6-0.3,2.4-6.9,5.8c-5.4,2.8-11.6,5.4-17.3,8
			c-0.8,0.3-32.7,15.7-33.9,17.3c7.5-2.5,15-5.9,22.5-8.6c2.6-1,34.9-12.7,36.1-13.9c0.7-0.7,1.1-1.6,1.8-2.3c0.9-0.9,1-0.7,1.9-1.8
			c1.8-2.3,5.1-5.3,7.2-8.1c0.9-1.1,1.2-1.1,2.1-2c0.6-0.7,1-1.5,1.6-2.1c0.9-0.9,0.8-0.3,2-2c1.9-2.6,2.8-2.4,3.7-4.3L-514.8,456.4
			z"/>
		<path fill="#BDBDBD" d="M-532,480.3l-4.2,6.4c-1.9,3-2.3,4.5-4.9,5.7c-2.2,1.1-5.2,2.2-7.3,3.3c-1.6,0.9-0.2,0.4-1.5,1.3l-5.1,2.4
			c-3.6,1.7-27.2,13-28.3,14.2l1.5-0.1c2.5-0.5,6.8-2.4,9.5-3.4l33.4-12.5c3-1.2,7.6-8,9.9-9.8c1.5-1.2,1.8-2.4,3.1-3.5
			c2.5-2.1,1.8-2.3,3.1-3.4c2.6-2.3,1.6-2,3.1-3.5c1-1,1.8-1.2,3.1-3.5L-532,480.3z"/>
	</g>
	<g id="_495799926592">
		<path fill="#17517C" d="M-642,501.2h7.1l3,7.8c1-3.3,4.3-11.3,6.3-12.9c0.6-1.4,0.5-1.2,1.4-2.3c0.8-0.9,0.7-1.1,1.6-2.1l3.5-3.7
			c0.3-0.3,0.5-0.4,0.9-0.7l11.4-8.9c2-1.3,13-7.8,13.7-8.6c-4.5-1.2,0.3-2.2-7,0.9c-6.6,2.8-15.9,7.7-23.3,8.5l6.4-10.4
			c0.9-1.5,1.6-2.1,2.3-3.8l-14.5,17.3C-631.7,485.4-640.8,497.9-642,501.2z"/>
		<path fill="#17517C" d="M-650,540.8c0.5,6.5,0.5,17.4,2.2,23.4c1-0.7,1.8-3.2,2.8-3.8c0.3-1,2.5-4.5,3.2-5.4l6.8-0.3l0.1-6.6h-2.1
			c-0.4-1.1-1.2-2.6-1.7-3.8l-1.9-3.9L-650,540.8z"/>
		<path fill="#17517C" d="M-649.1,519.6c-0.8,2.2-1.2,10.9-0.9,13.6l7-0.6c0-1.1-1.7-6.6-2-7.9c-0.4-1.4-1.3-7.1-2.2-8.1
			C-647.7,517.3-648.8,520.2-649.1,519.6z"/>
	</g>
	<g id="_495799927840">
		<path fill="#468CC0" d="M-648.8,597.9c0.7,0.7,16.1,8.2,19.1,9.7c1.6,0.8,1.6,0.4,3-0.3c1.2-0.6,2.1-0.9,3.3-1.6
			c-0.9-0.6-3.1,0.2-4.5,0.2c-0.3-1.7,2-13.8,2.4-16.5c-2.1-0.2-6.7-2.5-7.9-3.4c-1.5-1.2-3-5.3-3.1-7.8c-1-1.2-2.3-6.7-2.9-8.6
			s-1.3-2.8-1.1-5c0.2-2.9,1.1-3.2-1.3-4.5c-1.1,3.2-4.4,5.3-3.7,9.3c0.3,1.9,1.8,10,1.6,11.4c-0.1,0.9-2.1,3.2-2.8,4l-5.7,7.4
			c-1.9,2.5-2.2,2.2-1.8,4.4c2.9,0.1,4.3-0.2,5.1,0.8C-649.1,597.5-648.9,597.8-648.8,597.9z"/>
		<path fill="#468CC0" d="M-615.1,546.6c-0.4,2.5-1.2,1.9-3.7,1.8c-1.7-0.1-3.7-0.2-5.3-0.1l8.3,0.3c-1,1.3-1.8,4-2.7,5.4
			c-1.1,1.7-4.4,1.4-5.8,2.5c3.3,1.4,12.7,4.3,16.1,4.1c-0.4-4.1,0.4-8,2.2-11l4.2-5.8c0.7-0.8,1.1-0.8,1.7-1.6
			c-0.5-1.1,0-0.4-0.9-1.2c-0.4-0.4-0.8-0.5-1.2-0.9c-0.7-0.6-0.3-0.4-0.8-1c-1.1-1.4-2.1-1.5-3.3-3c-0.7-0.8-1.2-1.4-2.2-1.8
			C-609.7,536.3-614,546.1-615.1,546.6z"/>
	</g>
	<g id="_495799927968">
		<path fill="#FAEFDD" d="M-626.3,616.7c-1.8,0.3-6.6-2.6-8.6-3.5c1.3,2.4,0,2.6-1.4,4.5c-1.1,1.6,0.2,2.3,1,4.5
			c2.2,5.7,1.5,5,6.1,8c4.5,2.9,0.6,2.2,11.2,1.3c3-0.2,3.2-0.1,5.3,1.2c1.4,0.9,3,1.9,4.2,2.9l2.7,1.4c0.6,0.2,0.7,0.2,1.3,0.4
			c-0.5,1.7-1,1.7-1.7,3c1.3-0.5,1.5-0.9,2.7-1.4c-0.4,1.1-0.2,0.7-1,1.7c-0.8,1-1,0.9-0.6,1.9c0.5,0.6,1.2,0.7,2,0.8
			c0.9,0.4,0.7,0.5,1.6,0.9c-0.4,1.1-0.5,0.9-1.1,1.9h0.8c1.5-0.6,3.6-2,4.8-2.2c-1-2.4-3-4.4-3.5-5.4c-0.4-0.7,0.1,0.5-0.3-0.7
			c-0.3-1.4-6.1-9.6-7.4-11.6c-1.2-1.9-0.2-2.5,1.6-6.6c0.7-1.6,2.5-5.2,2.7-6.6c0.3-1.5,0.6-1.8,1.3-3.2c0.5-1,0.9-2,1.3-3.1
			L-626.3,616.7z"/>
		<path fill="#FAEFDD" d="M-583.7,606.6c-5.3,1-10.6,1.8-16,2.2c-0.6,1-6.5,16.7-6.5,17.3c0,0.7,7.9,13.7,8.9,14.7
			c0-4.3,0.1-8.6,0.1-12.8c0-4.2,0.7-8,0.7-12L-583.7,606.6z"/>
		<path fill="#FAEFDD" d="M-624.2,642c2.7-0.6,5.3-1.6,8.1-2.2c2.6-0.6,5.9-0.9,8.4-1.7c-1.1-0.3-7.7-1.4-8.8-1.2
			c-1,0.1-6.6,1.8-7.8,2.4L-624.2,642z"/>
	</g>
	<g id="_495799930432">
		<path fill="#1B242B" d="M-545.8,660.2l-0.1,1.3c0.8,0,0.4-0.2,0.7,0.1l-0.9,0.4l-0.2,0.4c-0.7,0.9-4.6,3.7-5.4,4.1
			c-1.2,1.7-7.6,6.6-9.7,8.4c-0.5,0.4-0.6,0.4-1.1,0.8c-0.4,0.3-0.6,0.5-1,0.9l-22.4,18.4l0.7,1.1c-0.1,0.1-0.2,0.1-0.2,0.1
			l-0.5,0.6v0.2l0.2,0.5l1.5-0.8c0.8-1,1.6-1.6,2.8-2.4c0.9-0.7,1.8-1.2,2.7-2l5.6-4.1c1.8-1.3,3.6-2.7,5.6-4.1l33.4-24.3
			c0.9-0.7,1.9-1.3,2.9-2.1c1-0.7,1.8-1.4,2.7-2c1.7-1.1,1.2-0.9,1.7-3.3l2.4-12c1.5-7.5,4-26.4,4.5-33.9l-32-14.9l1.1-0.7
			c0.1,0,0.8-0.3,0.9-0.3l14.9-4.9c-1-1-1.7-0.5-1.8-0.5c0,0-0.8,0.3-1.3,0.1c-0.7-0.3-0.6-0.8-1-1.1c0,0,0.9,1.1-0.3,0.4
			c1.2-0.3,2.3-1.2,1.9-2.7l-1.3,1.1c-0.3,0.4-0.5,0.7-0.8,1.1c-0.9,0.9-7.3,2.9-8.8,3.4c-3.3,1.1-8.9,2.9-11.7,4.3
			c1.1,0.9,36.4,17.6,37.8,17.9c-1.8,10.6-3.9,21.2-5.5,31.8c-1.7,10.8-0.5,8.3-6.5,11.9C-538,655.8-541.8,657.8-545.8,660.2z"/>
		<path fill="#1B242B" d="M-561.4,703c5.3,0.5,22,3.8,29.2,5.1c2.4,0.4,1.9,0.8,2.8,2.8l15.7,36.2c1.7-1.1-0.5-0.1,1.6-4.2
			c0.2,0.3,1,0-0.3,0.3c-0.4-0.5,0-0.1-0.1-1c0-1.1-16.1-37.1-16.2-37.1c-0.6-0.5-22.8-3.7-27.1-4.4c-2.7-0.4-1.6-1-3.3-1.1
			c-0.8,1.1-0.4-0.3,0,0.6c0,0,0.3,0.2,0.4,0.3l-0.8,0.5c-0.6,0.2,0.4,0.1-0.9,0.2c0.8,0.6,0.2,0.4,0.6,1.1
			C-562.5,702.3-560.6,702.3-561.4,703z"/>
	</g>
	<g id="_495799930944">
		<path fill="#90816A" d="M-651.9,606.6l6.6-3.1l9,6c1.6,1.2,8.1,5.1,8.7,6c1.9-0.3,18.2-7.9,21.3-9.4c2.5-1.1,2.6-1.8,5.6-1.3
			c1.9,0.3,5,1,6.8,0.9c4.4-0.3,9.3-1.2,13.8-1.7c0.1,0.2,0.2,0.3,0.3,0.9c0.1,0.5,0.1,0.6,0.1,1.1c0.1,2.9,0.7,4.2-0.3,5.9
			c-1.9,3.4-1.7,2.4-2.3,6.7c-0.9,6.9-0.5,9.8-2.9,15l3.3-3.4c2.2-3,2.2-11.1,3.9-15.8c1.2,0.5,1.4,1.2,2.5,1.7l0.2-15.6l-16.1-0.1
			l1.7-15.2c-3-0.3-1.5-1.2-3.8,0.6c-0.7,0.6-0.9,0.7-1.5,1.3c-1.6,2-1.7,1.4-3.2,2.8c-0.8,0.7-0.7,1-1.5,1.7l-6.3,5.6
			c-1.3,1.6-1.8,1.6-3.2,2.8c-0.7,0.7-0.6,0.9-1.3,1.5c-0.5,0.4-1.3,0.7-2.1,1.1c-1.4,0.6-2.8,1.2-4.1,1.8c-2.8,1.2-5.6,2.4-8.3,3.6
			c-4.8,2.2-3.5,1.9-8.2-0.4c-5.2-2.7-10.8-5.6-15.8-7.8C-649.6,600.4-651.1,605.2-651.9,606.6z"/>
		<path fill="#90816A" d="M-654.7,620.6c0.7,1.7,0.7,2.7,2.8,2.8c1.7,0.1,3.4,0.4,5.2,0.5c3.4,0.2,7,0.7,10.4,1l-1.4-5.4
			L-654.7,620.6z"/>
	</g>
	<g id="_495799929344">
		<path fill="#FEFEFD" d="M-600.4,533.6c2.2,0.1,5.2,1.1,7,1.1c0.9,0,1.9-0.7,2.7-1.1c1.1-0.5,2.1-0.8,2.8-1.5c-1-2-2.3-4.1-3.3-6.1
			c2-1.1,6.2-2.2,8.5-3c2.9-0.9,5.7-1.9,8.6-3c1.4-0.5,2.8-1,4.2-1.4c3.4-1.1,2-1,5.6-6.2c0.4-0.6,2.1-2.9,1.9-3.3
			c-2.8,0.3-21.1,8.7-24.2,9c0.3-4.1,0.3-3.3,1.4-3.4c0.1-0.1,0.2-0.2,0.2-0.2c0,0.1,0.1-0.1,0.2-0.2c0.3-0.2,0.3-0.2,0.6-0.4
			c0.4-0.2,0.5-0.2,0.9-0.3c1.1-1.2,24.7-12.5,28.3-14.2l5.1-2.4c1.3-0.9-0.1-0.4,1.5-1.3c2-1.2,5.1-2.3,7.3-3.3
			c2.6-1.2,3-2.7,4.9-5.7l4.2-6.4l0.4-0.9c-3.8,1.3-8.4,3.9-12.3,5.6c-4.2,1.8-8,3.6-12.5,5.3c-4.3,1.7-8.6,3.3-12.9,4.9l-13.3,5
			l1-3.8l3.4-1.4c1.2-1.5,33.1-16.9,33.9-17.3c5.7-2.6,11.9-5.2,17.3-8c6.6-3.4,3-0.3,6.9-5.8c1.8-2.5,3.2-5.3,5.1-7.6l0.4-1
			c-6.2,2.5-15.3,7.3-21.1,9.6l-51.3,20.7c-10.1,4.1-8,1.3-9.7,10.9c-1,5.9-5.8,31.7-6.1,35.3C-601.6,532.5-601.4,533.1-600.4,533.6
			z"/>
		<path fill="#FEFEFD" d="M-649.1,519.6c0.3,0.7,1.4-2.3,1.8-3.1c0.9,1.1,1.8,6.7,2.2,8.1c0.4,1.4,2.1,6.9,2,7.9l-7,0.6v7.6l9.3-0.4
			l1.9,3.9c0.6,1.2,1.3,2.7,1.7,3.8h2.1c-0.7-4.2-0.1-16,0.1-20.7c0.3-5.3,1-13.7,2.9-18.4l-3-7.8h-7.1c-1.1,1.3-3.5,6.4-4.3,8.4
			C-647.6,512.7-648.7,515.8-649.1,519.6z"/>
		<path fill="#FEFEFD" d="M-629.4,573.5c0.6,1.2,1.2,1.4,1.8,2.7c1.1,2.4-0.2,2.8,1.1,3.8c0.4-0.5,1.9-2.1,2.2-2.6
			c0-0.1,0.1-0.3,0.2-0.2l0.6-0.7c0.3-0.4,0.4-0.5,0.7-0.8c1.2-1.3,0.3-0.8,2.1-1.6c-1.6,0.2-0.5,0-0.9-0.3
			c-1.3,0.1-2.6-0.3-3.9-0.5C-628.1,572.7-627.3,573-629.4,573.5z"/>
	</g>
	<g id="_495799931808">
		<path fill="#E84242" d="M-566.2,540.7l5.2,13.9l-6.3,2.1L-566.2,540.7z M-543.8,533.2c4-1.6,9.4-3.2,9.8,3.1
			c0.3,4.8-4.7,6.7-8.5,7.5L-543.8,533.2z M-530.7,523.9l0.1,0.8l-0.6-0.3c-6-3-16.5,2.9-22.5,4.3l3.9,29.1l-12-26l-10.6,3.5
			c-0.7,5.4-1.7,11.2-2.5,16.7l-2.2,14.7c-0.1,0.3-0.1,0.7-0.2,1.1c-0.4,1.7,0.3-0.9-0.2,0.5l-0.2,0.4c-0.7-0.5-1.5-1.2-2.2-1.6
			c-0.9,1-2.3,2.9-3.3,3.6c-4,2.9-9.7,1-11.4-7c-0.9-4.2-0.6-8.1,1.5-11.6c1.9-3.1,5.5-4.9,9.1-2c0.1-0.1,0.1-0.3,0.2-0.2l4.2-6.6
			c-3.8-1.9-7.7-5.4-15.5-0.4c-1.6,1.1-2.5,1.9-3.7,3.2c-10.6,11.2-5.1,34.2,9.5,34.5c2.1,0,3.9-0.4,5.8-1.1
			c2.7-0.9,3.1-1.8,4.4-2.4c1.1-0.5,7.2-2,10-3.4l0.9-9.1l9.7-3.4l2.9,7.9c5.6-1.4,10.1-3.9,15.8-5.3l-1.7-12.4
			c2.7-0.9,5.3-1.7,7.6-2.9c8.3-4.4,10.5-11,6.8-20.3c0.9-0.7,5-2,6.1-2.2l4.1,29.8l8.8-2.9l-4.1-30c2.7-1.1,6.9-1.9,9.1-3.4
			c-0.8-1.5-1-5.4-1.3-7.5l-26.6,9L-530.7,523.9z"/>
		<path fill="#E84242" d="M-496.3,532.2c0.1-2.7,0.4-5.3,0.6-7.9c0.1-1.4,0.1-2.7,0.2-4l0.5-4.1l5,13.7L-496.3,532.2z M-482.5,504.1
			c-0.4,1.5,3.4,26,3.7,29.2l-12-26.2l-10.5,3.5c-0.8,2.5-6.3,39.8-6.2,41.7l9.4-3.2l1-9.3l9.6-3.3l3,7.9c2.1-0.5,14.6-4.8,15.7-5.6
			l-5.1-37.6L-482.5,504.1z"/>
		<path fill="#E84242" d="M-462.3,509.7l-0.3-0.5c0.8,0.1,0.2-0.1,0.5,0.4c1,1.9,2.3,3.9,3.3,5.7l11.5,16.2l8.3-2.9l-5.1-37.6
			l-8.3,2.7c0.2,4.2,1.1,9.2,1.7,13.4c0.6,4.3,2.3,8.4,2.9,12.4l-7.5-11.3c-1.5-2.1-6.6-9.6-7.9-10.8l-8.2,2.8l5.1,37.8l8.3-2.8
			C-457.7,527.7-462.1,512.1-462.3,509.7z"/>
	</g>
	<g id="_495799933440">
		<path fill="#2374B3" d="M-622.7,496.9c-1.9,3.5-3,3.7-4.7,9.5c-1.3,4.3-1.3,8.3-2.1,12.6l0.6,1.1c1.5,3.6,2.1,8,5.4,14.2
			c0.6,1.2,6.9,11.9,8.4,12.4c1.1-0.5,5.4-10.3,6.6-12.2c1,0.4,1.5,0.9,2.2,1.8c1.2,1.5,2.2,1.6,3.3,3c0.5,0.6,0.2,0.4,0.8,1
			c0.4,0.4,0.8,0.6,1.2,0.9c0.9,0.8,0.4,0.1,0.9,1.2c-0.7,0.7-1.1,0.7-1.7,1.6l-4.2,5.8c-1.9,3-2.6,6.9-2.2,11
			c-3.4,0.2-12.8-2.7-16.1-4.1c1.5-1.1,4.7-0.8,5.8-2.5c0.8-1.3,1.6-4.1,2.7-5.4l-8.3-0.3l-7.7-0.1l-0.1-1l-0.6,8.3
			c1.7,0.9,7.7,2.3,10,2.9c2.5,0.7,8.4,2,9.9,2.8l-0.6,1.4c-0.1,2.8-4.9,17.2-6.5,18.8l-0.3,0.6c-0.3,1.7-2.2,7-5.5,6.5
			c-1-0.1-3.4-1.6-4.2-2c-1.5-0.9-2.9-1.5-3.4-2.8c-2-2.1-1.9-4.5-3.2-6c-0.1,0.8-0.1,1.1-0.1,0.5c0.1,2.5,1.7,6.6,3.1,7.8
			c1.1,0.9,5.8,3.2,7.9,3.4c-0.4,2.7-2.6,14.8-2.4,16.5c1.4,0,3.6-0.8,4.5-0.2c3.1-1.2,6-2.8,9.1-4.1c3.7-1.5,10.8-9.5,14-12.6
			c1.9-1.9,5.2-4.8,6.7-6.7c-0.6-0.7-5.8-3.4-7-4.9c-0.7-0.9,0.1-0.2-0.9-1c-0.9-0.7-0.3,0-1.1-1.1c-7.3-9.7-5.2-19.9,1.6-29.3
			c1.5-2.1,3.1-3.3,3.7-4.5c-2.1-1.3-5.5-4.7-7.9-6.4c-1.4-1-1.2-1.3-2.9-2.1c1.1-8.4,4.8-32.9,7.4-41.1c0.6-1.8,1.7-3.7,2.4-5.7
			c1.2-3.5,0.9-2.4,4.2-3.9c7.4-3.3,14.8-6.7,22.1-10.1c3.2-1.5,20.9-9.2,22.2-10.3l0.7-5.7c-15.2,2.3-30.6,7.7-41.8,15.2
			l-26.5,19.4L-622.7,496.9z"/>
		<path fill="#2374B3" d="M-523.6,581.6c1,0.6,6.1,0.6,7.3,0.8c-2,1.8-6.1,3.3-8.7,4.8c-2.5,1.4-6.4,3-8.5,4.7l24.1,11.7
			c-0.9,5.3-2.4,12-3.7,17.3l-7.5,34.5c-0.5,2.4,0,2.2-1.9,3.4l-9.7,5.9c-16.7,10.7-35.2,21.3-52,31.9l-1.5,0.8
			c-0.6,0.6-0.6,0.5-1.1,1.5c2.8-1.3,5.4-2.6,8.1-3.9c1.5-0.7,2.7-1.2,4.1-1.8c1.3-0.6,2.4-1.3,3.8-1.9c2.7-1.2,5.3-2.6,8.1-3.8
			c2.4-1.1,5.5-2.5,7.8-3.7c2.6-1.4,5.2-2.8,7.7-4.2c3.1-1.7,29.7-15.8,30.2-16.6c0.5-0.8,2.5-7.4,2.8-8.7
			c3.2-11.2,7.7-23.9,11.3-35.6l5.6-17.6c-0.5-1-3.4-3.1-4.6-4c-1.2-1-10.1-7.8-10.2-8.4c0-0.1-0.1-0.2-0.2-0.2
			c1.9-0.4,37.1-21.7,42.8-25.1L-523.6,581.6z"/>
		<path fill="#2374B3" d="M-513.7,747.1l-15.7-36.2c-0.9-2-0.4-2.4-2.8-2.8c-7.2-1.3-23.9-4.6-29.2-5.1l-5-5.3
			c-3.3,0.5-8.1,1.9-11.2,1.9l1.4,1.7c1.4,1.1,2.3,1.7,3.4,3.1l9.2,8.6c1.3,1.8,3.2,2.5,4.6,4.1c2.9,3.3,3.4,3,4.7,4.4
			c0.5,0.5,0.4,0.7,0.9,1.2c1.5,1.6,1.5,0.7,4.5,4.2c1.2,1.4,2.2,1.3,4.5,4.2l8.2,7.4c1.1,0.9,1.1,1.4,2.1,2.3l3.5,3
			c2.9,3.5,2.9,2.1,5.5,5.4c1.3,1.6,2.4,1.5,4.7,4.4c1.2,1.5,2.9,2.1,4.5,4.2c0.6,0.9,1.4,1.3,2.3,2.1c3.3,2.7,2,2,3.3,3.3
			c0.4,0.4,0.8,0.6,1.2,1c0.8,0.6,1.8,1.3,2.4,2c0.9,1,0.7,1.1,2.2,2L-513.7,747.1z"/>
		<path fill="#2374B3" d="M-420.4,679.8c-3.8-10.6-8.7-21.8-13-32.4l-16.3-40.6c-2.4-6-2.4-4.5-1.1-8.1l12.4-33.2
			c1.3-3.4,5.6-13.9,6.2-16.3c-1.5,2.2-7.1,13.6-9,17.2c-7.6,14.3-14.9,29-22.5,43.1c-2.7,5.1-3.1,3.5,3.2,12.2c0.6,0.8,1,1.3,1.4,2
			L-420.4,679.8z"/>
		<path fill="#2374B3" d="M-554.3,587.2c-1,1.7-2.1,1.9-4.4,2.9c-1.3,0.6-3.7,1.5-4.8,2.3c0.4,2.3,3.8,4.2,6.6,6.2l22,16
			c0.2,10-0.1,20.2-0.1,30.3c0,4.7-0.6,4.6-5.6,9.2l-7.6,7.3l2.4-1.2c4-2.4,7.8-4.4,11.7-6.8c6-3.6,4.8-1.1,6.5-11.9
			c1.6-10.6,3.7-21.3,5.5-31.8c-1.4-0.2-36.6-16.9-37.8-17.9c2.8-1.4,8.4-3.2,11.7-4.3c1.5-0.5,7.9-2.5,8.8-3.4
			c0.4-0.4,0.5-0.7,0.8-1.1l1.3-1.1c0.7-0.7,0.6-0.2,0.9-1.4L-554.3,587.2z"/>
		<path fill="#2374B3" d="M-425.6,574.9c-0.6,1.8-7.2,26.9-7,28.3l15.8,43.2C-415,642.4-425.2,575.4-425.6,574.9z"/>
		<path fill="#2374B3" d="M-512.1,767.3c-0.3-1.2-1.2-1.6-3.3-3.4c-0.4-0.4-0.7-0.4-1.1-0.8c-0.7-0.5-0.5-0.6-1.1-1.1
			c-0.4-0.4-0.7-0.4-1.1-0.8l-11-9.5l-24.2,12.9L-512.1,767.3z"/>
		<path fill="#2374B3" d="M-608.7,684.8c5.2-0.7,3.5-1.5,8.6,0.7l11.7,4.9c1.8,0.7,2.3-0.2,3.6-1.2c7-5,16.2-10.8,23-15.8l10.1-6.9
			c0.8-0.4,4.7-3.2,5.4-4.1l0.2-0.4c-1.3,0.2-14,8-15.7,8.9c-5.3,3-10.2,6.1-15.6,9.1c-2.7,1.5-5.1,3.1-7.9,4.6
			c-1.4,0.8-2.5,1.9-4.1,1.2l-12.6-5.5c-5.5-2.5-6.1-3.4-8.8-2.1L-608.7,684.8z"/>
		<path fill="#2374B3" d="M-412.9,657.9l24.2,65.7c0.1-3.6-0.2-7.7-0.3-11.3c-0.2-3.8,0.3-6.8-1.3-9.9c-2.6-4.9-4.9-9.8-7.5-15
			l-13.2-26.1C-411.5,660.2-412.7,658.2-412.9,657.9z"/>
		<path fill="#2374B3" d="M-577.8,636.4c1.5,5.6,10.3,3.6,8.9-2.4C-570.1,628.6-579.6,630.1-577.8,636.4z"/>
	</g>
	<g id="_495799935936">
		<path fill="#16496E" d="M-548.2,661.4l7.6-7.3c5-4.6,5.6-4.5,5.6-9.2c0-10,0.3-20.3,0.1-30.3l-22-16c-2.8-2-6.1-3.9-6.6-6.2
			c1.1-0.8,3.5-1.8,4.8-2.3c2.3-1,3.4-1.2,4.4-2.9l-30.1,11.3l11.8,0.2c0.4,2.5-0.9,25.6-1.2,29.6c5.6-0.3,8.6,4.9,7,9.2
			c-0.9,2.5-1.7,2.2-2.2,3.3c0.8,1.6,2.4,2.4,3.6,3.4c0.9,0.8,0.8,1.1,1.7,1.8c1.5,1.3,1.2,0.2,2,2c-2.5,0.4-39.9,24.4-43,25.4
			l-4.3-4.2c-0.7-0.6-0.8-0.5-1-1.4l-7,1.9l4.4,6.9c3.7-1.8,5.4-0.3,9.1,1.3l13.1,5.4c2.2,0.9,2.3,1.4,4.2,0.3L-548.2,661.4z"/>
		<path fill="#16496E" d="M-451.1,490.3c2.1-0.4,8.1-3,9.4-2.9c0.5,4.7,3.7,39.9,4.3,41.1c2.2,0.2,2.5-3.3,4-7.4
			c1-2.6,1.9-5.9,2.5-8.8c1.5-6.9,2.8-13.5,1.9-20.7c-1-7.5-5.7-13.9-8.9-19.2c-1.7-2.8-5.4-7.1-7.8-9.4c-1.1-1.1-1.5-2.1-2.7-3
			c-1.4-1.1-1.7-1.6-2.9-2.7c-1-0.9-1.7-2.1-2.8-2.8l-3.1-2.5c-9.6-8-26.6-14.7-39.3-17.5c-3-0.7-6.4-2-9.3-2.3l5,2
			c7.3,2.6,19.9,9.1,26.1,14.2c4.4,3.6,7.8,7.6,10.7,12.4c1.8,2.9,3.4,5.6,5,9c1.5,3.2,2.9,6.5,4.2,9.8
			C-453.4,483.1-452.5,486.8-451.1,490.3z"/>
		<path fill="#16496E" d="M-534.8,585.6l-14.9,4.9c-0.1,0-0.8,0.3-0.9,0.3l-1.1,0.7l32,14.9c-0.5,7.5-3.1,26.4-4.5,33.9l-2.4,12
			c-0.5,2.4,0,2.1-1.7,3.3c-0.9,0.6-1.7,1.3-2.7,2s-2.1,1.4-2.9,2.1l-33.6,24.3c-1.9,1.4-3.7,2.8-5.6,4.1l-5.6,4.1
			c-1,0.8-1.8,1.3-2.7,2c-1.2,0.9-2,1.4-2.8,2.4c16.8-10.6,35.3-21.2,52-31.9l9.7-5.9c1.9-1.1,1.4-1,1.9-3.4l7.5-34.5
			c1.3-5.3,2.8-12,3.7-17.3l-24.1-11.7c2.1-1.7,6.1-3.4,8.5-4.7c2.6-1.5,6.7-3,8.7-4.8c-1.2-0.1-6.3-0.1-7.3-0.8L-534.8,585.6z"/>
		<path fill="#16496E" d="M-397.3,716.1c-0.6-2.8-2.7-7.9-3.7-10.8l-11.3-31.8c-5.2-14.3-9.7-28-15-42.4c-2.6-6.9-5.2-14.2-7.5-21.2
			c-0.6-1.9-1.3-3.5-1.9-5.3c-1.1-3.3-1.2-2.7-0.6-5.4c1.5-6,13.7-54.9,14.1-57.8c-2.8,3.2-19,46.8-22.2,55.5c-1,2.6-1.9,3-0.7,5.5
			C-440.4,615.3-399.1,714.1-397.3,716.1z"/>
		<path fill="#16496E" d="M-558.9,699.6c1.7,0.1,0.6,0.7,3.3,1.1c4.3,0.7,26.5,3.9,27.1,4.4c0,0,16.2,36,16.2,37.1
			c0.3-0.4,0.2,0,0.2-0.8l-6.8-28.8c-1.2-4.8-1.7-5.1,0.4-6.6l7.2-6.5c0.5-0.5,0.9-0.6,1.4-1.1c1.2-0.9,3.9-4,6.1-5.1
			c-0.7-0.6-0.6-0.5-1.8,0l-11.6,4.4c-2.3,0.9-4.5,1.7-6.8,2.6c-3.9,1.5-3.1,1.3-7.4,0.7c-4.7-0.7-29.5-4.5-31.9-4.4
			C-561.9,697.7-559.7,698.6-558.9,699.6z"/>
		<path fill="#16496E" d="M-608.7,684.8l1.2,4l21.7,6.1l22.4-18.4c0.4-0.4,0.6-0.5,1-0.9c0.5-0.4,0.6-0.4,1.1-0.8
			c2.1-1.7,8.4-6.7,9.7-8.4l-10.1,6.9c-6.8,5-16,10.8-23,15.8c-1.4,1-1.8,2-3.6,1.2l-11.7-4.9C-605.2,683.3-603.4,684.1-608.7,684.8
			z"/>
	</g>
	<path fill="#1A232C" d="M-512.4,742.2c0,0.8-0.3,0.5,0.1,1c1.3-0.3,0.6,0,0.3-0.3c-2.1,4.1,0.1,3.1-1.6,4.2l8.3,18.6l75.7,28.1
		c2.3,0.9,4.5,1.9,6.6,3.2c0-0.1,0.1-0.1,0.1-0.2l52-91.3c-8.8-0.7-17.2-4.7-23.3-11.1c1.3,2.7,2.6,5.3,4,8c1.6,3.1,1.1,6.2,1.3,9.9
		c0.1,3.6,0.4,7.7,0.3,11.3l-24.2-65.7c0.2,0.3,1.4,2.4,1.9,3.4l4.8,9.6l-10.5-28.9c0.1,2.3,0.1,3.8-0.1,4.3l-15.8-43.2
		c-0.1-1,3.5-15.5,5.6-23.4l-0.7-16.4c-0.1-1.5,0-2.9,0.1-4.3c-3.8,15.6-9,36.4-10,40.2c-0.7,2.7-0.5,2.1,0.6,5.4
		c0.6,1.8,1.3,3.4,1.9,5.3c2.3,7,5,14.3,7.5,21.2c5.4,14.4,9.8,28.1,15,42.4l11.3,31.8c1.1,2.9,3.1,7.9,3.7,10.8
		c-1.8-2-43-100.8-49-113.5c-1.2-2.5-0.2-2.9,0.7-5.5c3.1-8.3,17.9-48.3,21.8-54.8c-1.3-2.5-2.4-5.2-3.1-8l-4.8-18.5
		c-0.5,1.9-1.1,3.8-1.7,5.4c-1.5,4-1.8,7.6-4,7.4c-0.6-1.2-3.8-36.4-4.3-41.1c-1.4-0.1-7.3,2.5-9.4,2.9c-1.4-3.5-2.3-7.2-3.7-10.7
		c-1.3-3.3-2.7-6.6-4.2-9.8c-1.6-3.4-3.3-6.1-5-9c-2.9-4.8-6.3-8.9-10.7-12.4c-6.2-5.1-18.9-11.6-26.1-14.2l-5-2
		c1.3,0.1,2.8,0.5,4.2,0.9c-0.7-0.3-1.3-0.7-2-1.1h-18.8l-3.5,1.1c-1.5,0.5-3,0.9-4.5,1.2c0.7-0.1,1.4-0.1,1.9-0.1
		c-1.1,0.7-10.4,3-12.7,3.8c-16.2,5.1-32.1,10.5-46.7,18.9c-0.7,0.4-0.6,0.4-1.3,0.9l-3.5,2.5c-0.8,0.6-1.4,1.1-2.3,1.8
		c-6.4,5.2-16.3,11.2-24.1,13c0.1-0.4,1-1.3,2-2.4l-4.3,2.8l-2.3,3.8c7.4-0.8,16.7-5.7,23.3-8.5c7.3-3.1,2.5-2.1,7-0.9
		c-0.7,0.8-11.7,7.3-13.7,8.6l-11.4,8.9c-0.3,0.3-0.5,0.4-0.9,0.7l-3.5,3.7c-0.9,1-0.8,1.2-1.6,2.1c-0.9,1.1-0.8,0.9-1.4,2.3
		c1.7,1.2-0.8-1.7,0.2,1.2l0.9,1.2c0.2-1,0.3-0.8,0.6-1.7c0.6-0.1,0.2-0.2,1.1,0.1l5.4-5.7l26.5-19.4c11.2-7.6,26.6-12.9,41.8-15.2
		l-0.7,5.7c-1.3,1.2-18.9,8.8-22.2,10.3c-7.3,3.4-14.7,6.8-22.1,10.1c-3.4,1.5-3,0.4-4.2,3.9c-0.7,2-1.8,3.9-2.4,5.7
		c-2.7,8.2-6.4,32.7-7.4,41.1c1.7,0.8,1.5,1.1,2.9,2.1c2.4,1.8,5.7,5.2,7.9,6.4c-0.6,1.2-2.2,2.4-3.7,4.5
		c-6.8,9.4-8.9,19.6-1.6,29.3c0.8,1.1,0.3,0.4,1.1,1.1c1,0.8,0.1,0.1,0.9,1c1.2,1.5,6.4,4.2,7,4.9c-1.5,1.9-4.8,4.8-6.7,6.7
		c-3.1,3.1-10.3,11.1-14,12.6c-3.1,1.3-6,2.9-9.1,4.1c-1.2,0.7-2.1,1-3.3,1.6c-1.5,0.7-1.5,1.1-3,0.3c-2.2-1.1-10.9-5.4-15.8-7.9
		c-0.2,0.4-0.3,0.8-0.5,1.2c4.2,2,8.7,4.3,13,6.5c4.7,2.4,3.4,2.7,8.2,0.4c2.7-1.2,5.5-2.4,8.3-3.6c1.4-0.6,2.8-1.2,4.1-1.8
		c0.8-0.4,1.6-0.7,2.1-1.1c0.7-0.6,0.6-0.8,1.3-1.5c1.3-1.2,1.9-1.2,3.2-2.8l6.3-5.6c0.8-0.7,0.7-1,1.5-1.7c1.5-1.4,1.5-0.8,3.2-2.8
		c0.5-0.7,0.8-0.8,1.5-1.3c2.3-1.8,0.8-0.9,3.8-0.6l-1.7,15.2l16.1,0.1l-0.2,15.6c-1.1-0.5-1.4-1.2-2.5-1.7
		c-1.7,4.8-1.7,12.9-3.9,15.8l-3.3,3.4c-1.4,2.3-4.8,5.4-6.1,6.9c-0.7,0.8-0.7,1.2-1.5,1.9c-1,0.9-0.8,0.6-1.5,1.6
		c-0.9,1.2-1.2,1.1-2.9,3.3c-0.5,0.6,0.1-0.1-0.5,0.5c-2.3,2.2-0.6,1.7-3.5,3.6c-0.9,2.2-1.3,1.4-2.8,3.6l-4.6,5.1
		c-0.6,0.7-0.7,1.1-1.3,1.7c0,0.4,0.1,0.8,0.1,1.2c0.5-0.5,1.2-1.2,2-2l3.6-4.2c1-1.3,0.7-0.3,2.5-2.8c1-1.4,0.8-0.6,2.5-2.8
		l3.9-4.2c0.6-0.6,0.6-0.7,1.1-1.4c0.7-0.9,0.7-0.6,1.4-1.4c0.5-0.5,0.6-0.9,1.1-1.4c0.8-1,0.7-0.6,1.4-1.4l8.6-9.9
		c0.7-0.9,1-0.8,1.4-1.4c0.6-0.9,2.5-11.5,2.9-13.2c2.1,1.3,1.9,3.3,1.8,4.9c-0.2,2.1-0.3,4.6-0.3,6.8c-3.2,2.1-5.9,4.7-3.9,9.4
		c2.5,6,8.1,3.3,9.7,4.3c0.4,0.2,3.9,3.7,4.5,5.2l-19.3,11.9c-6.1,3.9-12.3,7.6-18.5,11.4c0.5,0.3,1,0.6,1.4,0.9
		c9.5-5.4,38-23.5,40.2-23.9c-0.8-1.7-0.4-0.7-2-2c-0.9-0.7-0.7-1-1.7-1.8c-1.2-1-2.8-1.8-3.6-3.4c0.5-1.1,1.3-0.8,2.2-3.3
		c1.6-4.3-1.5-9.6-7-9.2c0.4-4,1.7-27,1.2-29.6l-11.8-0.2l48-18c-0.3,1.1-0.2,0.7-0.9,1.4c0.4,1.5-0.7,2.4-1.9,2.7
		c1.2,0.6,0.3-0.4,0.3-0.4c0.3,0.3,0.3,0.7,1,1.1c0.5,0.3,1.3-0.1,1.3-0.1c0.1,0,0.8-0.6,1.8,0.5l11.2-4l54.3-18.2
		c-5.7,3.3-40.9,24.6-42.8,25.1c0.1,0.1,0.1,0.1,0.2,0.2c0.1,0.6,9,7.4,10.2,8.4c1.1,0.9,4.1,3,4.6,4l-5.6,17.6
		c-3.5,11.6-8.1,24.3-11.3,35.6c-0.4,1.3-2.4,8-2.8,8.7c-0.5,0.8-27.1,14.9-30.2,16.6c-2.6,1.4-5.1,2.7-7.7,4.2
		c-2.3,1.2-5.4,2.6-7.8,3.7c-2.8,1.2-5.3,2.6-8.1,3.8c-1.3,0.6-2.4,1.2-3.8,1.9c-1.4,0.7-2.6,1.1-4.1,1.8c-1.9,0.9-3.9,1.9-5.8,2.8
		c0.1,0.1,0.2,0.3,0.3,0.4c2.6,0.1,5.3,0.5,7.8,1.1c3.1-0.3,7-1.4,9.9-1.8l5,5.3c0.8-0.7-1.2-0.7,1.7-0.7c-0.5-0.7,0.1-0.6-0.6-1.1
		c1.4,0,0.3,0.1,0.9-0.2l0.8-0.5c-0.1-0.1-0.4-0.2-0.4-0.3c-0.4-0.9-0.8,0.4,0-0.6c-0.7-1-3-1.9-4.2-2.9c2.4-0.1,27.2,3.8,31.9,4.4
		c4.3,0.6,3.5,0.8,7.4-0.7c2.3-0.9,4.5-1.7,6.8-2.6l11.6-4.4c1.2-0.5,1-0.5,1.8,0c-2.2,1-4.9,4.2-6.1,5.1c-0.6,0.4-1,0.6-1.4,1.1
		l-7.2,6.5c-2.1,1.4-1.6,1.8-0.4,6.6l6.8,28.8C-512.2,742.2-512.1,741.8-512.4,742.2z M-508.2,764.7c-0.4-0.3-0.7-0.6-1.1-0.9
		c0,0.2,0.1,0.3,0.1,0.5L-508.2,764.7z M-577.8,636.4c-1.7-6.3,7.7-7.8,8.9-2.4C-567.5,640-576.3,642-577.8,636.4z M-422.8,543.9
		c-0.3-0.4-0.5-0.8-0.7-1.3c-0.2,1.1-0.7,2.9-1.2,5.2C-424.2,546.5-423.5,545.2-422.8,543.9z M-446.3,459.6
		c-1.4-0.4-2.9-0.8-4.3-1.4c0.6,0.6,1.1,1.1,2.1,1.9c1.2,0.9,1.6,1.9,2.7,3c0.1,0.1,0.2,0.2,0.3,0.3
		C-445.8,462.1-446.1,460.8-446.3,459.6z M-536.2,434.9l-1.6,0.6c1.2-0.2,2.3-0.5,3.4-0.6C-535,434.9-535.6,434.9-536.2,434.9z
		 M-644.9,504.5c0.1,0.5,0.1,1,0.2,1.5c0.4-0.7,0.7-1.5,1.1-2.2C-644,504.1-644.4,504.3-644.9,504.5z M-606.1,669.3
		c-0.9-1.3-1.4-2-3.1-2c0.1,0.2,0.2,0.5,0.2,0.7C-607.9,668.4-607,668.9-606.1,669.3z M-585.6,696.4l0.2-0.2c0,0,0.1-0.1,0.2-0.1
		l-0.7-1.1l-1.1-0.3v0.2C-586.4,695.3-586,695.9-585.6,696.4z M-590,685.6l0.7,0.3c1.6,0.7,2.7-0.4,4.1-1.2c2.7-1.6,5.2-3.1,7.9-4.6
		c5.4-3,10.3-6.1,15.6-9.1c1.6-0.9,14.4-8.7,15.7-8.9c0-0.1,0.1-0.3,0.1-0.3l0.1-0.2c0,0,0-0.1,0.1-0.1l0.1-1.3l-2.4,1.2l-38.3,22.1
		c-1.9,1.1-2.1,0.6-4.2-0.3l-0.9-0.4C-591,683.7-590.5,684.7-590,685.6z M-577.6,584.7l-0.4,0.1l1.4,7.6l-5.1,1.8
		c-0.6-0.7-0.9-1.6-1-2.7l-3.5,1.3c-0.5,4,0.2,3-3.6,4.2l2.1-14.3l3.7-1.3c0.8,1.7,3.2,6.6,3.5,8.4c0.5,0,0.3,0.1,0.4-0.6l-1.1-8.8
		l2.9-1l2,3.5c0.6,1,1.1,2.4,1.8,3.1c1.9-5.5-1.2-7.8,4.4-9.4c0.9,2,1.6,10.3,1.9,13l-2.9,0.9l-0.7-8.1c-0.5,1.1-0.6,2.9-0.9,4.3
		c-0.1,0.7-0.3,1.4-0.4,2.1c-0.7,3.3-1.8,1.3-2.9-0.8C-576.7,586.7-577.1,586.2-577.6,584.7z M-548.9,569.1h0.7l0.1,1.2
		c0.2,2.2,1.7,10.4,1.3,11.8c-1.7,0.7-4.2,1.8-5.9,1.8c-1-1.3-2.5-3.8-3.4-3.3c-1.2,0.7-0.1,1.7-0.1,4.7l-2.8,0.9l-0.2-0.8
		c-0.8,0-0.7-0.2-0.6,0.3v0.9l-7.3,2.6l-1.7-13.1l7.3-2.6c1.2-0.1,0.7-0.5,0.9,0.1c0.2-0.6,0.6-0.6,1.6-0.9c0.7-0.2,1.4-0.4,2.1-0.7
		c1.3-0.4,2.9-0.8,4.2-0.2c3.9,1.9,0.1,7.3,0,7.5c1.7,0.6,1.1,1.8,3.3,3.2l-1.7-12.5L-548.9,569.1z M-532.5,563.7l5.3,11.9l-3.1,0.9
		l-1.1-2.6l-3.2,1.3c-0.3,2.2,0.3,3-1.7,3.6l-3.6,1.5c-3.2,1.3-5.7-0.8-6.5-3c-2.8-7.5,4-12.8,7.7-9.4l-1.3,2.1
		c-0.9-0.1-1.7-0.6-2.7,0c-2.1,1.4-1.4,6.6,0.3,7.5c3.7,1,1.7-1.7,4.5-1l1.7-11.4L-532.5,563.7z M-420.4,679.8l-38.6-56.1
		c-0.4-0.6-0.9-1.2-1.4-2c-6.3-8.7-5.9-7.1-3.2-12.2c7.6-14.1,14.9-28.8,22.5-43.1c1.9-3.6,7.5-15,9-17.2
		c-0.6,2.4-4.9,12.8-6.2,16.3l-12.4,33.2c-1.3,3.6-1.3,2.1,1.1,8.1l16.3,40.6C-429.1,658-424.2,669.2-420.4,679.8z M-531.1,524.4
		c0.6,0.1,0.4,0.2,0.5-0.5l-0.4-2.9l26.5-9.1c0.3,2,0.4,6,1.3,7.5c-2.2,1.5-6.4,2.4-9.1,3.4l4.1,30l-8.8,2.9l-4.1-29.8
		c-1,0.2-5.2,1.6-6.1,2.2c3.7,9.3,1.5,15.9-6.8,20.3c-2.3,1.2-4.9,2-7.6,2.9l1.7,12.4c-5.7,1.4-10.2,3.9-15.8,5.3l-2.9-7.9l-9.7,3.4
		l-0.9,9.1c-2.8,1.4-8.8,2.9-10,3.4c-1.3,0.6-1.7,1.5-4.4,2.4c-1.9,0.7-3.7,1.1-5.8,1.1c-14.6-0.3-20.2-23.3-9.5-34.5
		c1.2-1.3,2.1-2.1,3.7-3.2c7.8-5,11.7-1.5,15.5,0.4l-4.2,6.6c0-0.1-0.1,0.1-0.2,0.2c-3.6-2.9-7.1-1.2-9.1,2
		c-2.2,3.5-2.4,7.4-1.5,11.6c1.7,8,7.4,9.9,11.4,7c1-0.7,2.4-2.6,3.3-3.6c0.7,0.4,1.4,1.1,2.2,1.6l0.2-0.4c0.5-1.4-0.3,1.2,0.2-0.5
		c0.1-0.3,0.1-0.7,0.2-1.1l2.2-14.7c0.8-5.5,1.8-11.3,2.5-16.7l10.6-3.5l12,26l-3.9-29.1C-547.6,527.2-537.2,521.4-531.1,524.4z
		 M-473.9,501.3l5.1,37.6c-1.1,0.8-13.7,5-15.7,5.6l-3-7.9l-9.6,3.3l-1,9.3l-9.4,3.2c-0.2-1.9,5.4-39.2,6.2-41.7l10.5-3.5l12,26.2
		c-0.2-3.2-4.1-27.6-3.7-29.2L-473.9,501.3z M-462.1,509.7h-0.2c0.2,2.4,4.6,18,4.4,25.6l-8.3,2.8l-5.1-37.8l8.2-2.8
		c1.2,1.2,6.3,8.7,7.9,10.8l7.5,11.3c-0.6-3.9-2.3-8-2.9-12.4c-0.6-4.2-1.5-9.2-1.7-13.4l8.3-2.7l5.1,37.7l-8.3,2.9l-11.5-16.2
		C-459.8,513.6-461.1,511.6-462.1,509.7z M-578,495.1l-3.4,1.4l-1,3.8l13.3-5c4.3-1.7,8.6-3.3,12.9-4.9c4.4-1.8,8.3-3.6,12.5-5.3
		c3.9-1.7,8.5-4.3,12.3-5.6l-0.4,0.9l15.5-6.4c-1.3,2.3-2.1,2.5-3.1,3.5c-1.5,1.5-0.5,1.2-3.1,3.5c-1.3,1.1-0.7,1.3-3.1,3.4
		c-1.3,1.1-1.6,2.3-3.1,3.5c-2.3,1.8-6.9,8.6-9.9,9.8l-33.4,12.5c-2.7,1-7.1,3-9.5,3.4c-0.8,0.9-0.5,0.5-1.7,0.9
		c-0.8,0.2-0.8,0.3-1.7,0.3c-1.1,0.2-1.2-0.7-1.4,3.4c3.1-0.4,21.4-8.8,24.2-9c1-0.8,2.5-1.1,3.8-1.7l0.7-0.2l-0.4,0.4
		c-0.8,2.3-3.1,5.6-4.3,8c-1.1,2.1-1,2.2-3.3,2.9c-6.2,2.1-17,5.8-22.1,8.1c0.4,0.5,11.8,8.9,13.1,9.2c-0.7,1.4-3.1,3.4-4.2,4.5
		c-1-0.5-7.3-4.5-7.5-4.5c-0.5,0-6.9,3.6-7.4,4.1c-1.9-1-5.7-4.9-6.3-6.3c-1-0.5-1.2-1.1-2.3-1.7c0.2-3.7,5-29.5,6.1-35.3
		c1.7-9.6-0.4-6.9,9.7-10.9l51.5-20.6c5.8-2.3,14.9-7,21.1-9.6l-0.4,1l15.6-6.5c-0.9,1.9-1.8,1.7-3.7,4.3c-1.2,1.7-1.2,1.1-2,2
		c-0.6,0.7-1,1.4-1.6,2.1c-0.8,0.9-1.2,0.9-2.1,2c-2.1,2.8-5.4,5.8-7.2,8.1c-0.9,1.1-1,0.9-1.9,1.8c-0.7,0.7-1.1,1.6-1.8,2.3
		c-1.1,1.2-33.4,12.9-36.1,13.9C-563,489.2-570.6,492.6-578,495.1z"/>
	<path fill="#1A232C" d="M-543.8,533.2l1.4,10.6c3.8-0.8,8.8-2.7,8.5-7.5C-534.4,529.9-539.9,531.6-543.8,533.2z"/>
	<path fill="#1A232C" d="M-490.1,529.9l-5-13.7l-0.5,4.1c-0.1,1.4,0,2.6-0.2,4c-0.2,2.6-0.5,5.2-0.6,7.9L-490.1,529.9z"/>
	<polygon fill="#1A232C" points="-567.3,556.7 -561,554.6 -566.2,540.7 	"/>
	<path fill="#0D2E46" d="M-575.8,628.5c0-2.1,0.2-4.6,0.3-6.8c0.1-1.6,0.3-3.6-1.8-4.9c-0.5,1.8-2.3,12.3-2.9,13.2
		c-0.4,0.6-0.7,0.5-1.4,1.4l-8.6,9.9c-0.8,0.8-0.7,0.4-1.4,1.4c-0.4,0.6-0.6,0.9-1.1,1.4c-0.7,0.8-0.7,0.5-1.4,1.4
		c-0.5,0.7-0.5,0.8-1.1,1.4l-3.9,4.2c-1.7,2.2-1.5,1.4-2.5,2.8c-1.8,2.5-1.5,1.6-2.5,2.8l-3.6,4.2c-4,4-3.9,4-7.2,3.7l-0.5-2.3l-2,6
		c11.6-2.1,9.3-1.3,12.9,3.1c6.6-4,13.2-8,19.6-12.1l19.3-11.9c-0.6-1.5-4.2-5-4.5-5.2c-1.6-1.1-7.2,1.6-9.7-4.3
		C-581.7,633.2-579.1,630.6-575.8,628.5z"/>
	<path fill="#FAE1B8" d="M-596.4,615.9c0,4-0.6,7.8-0.7,12c0,4.3-0.2,8.6-0.1,12.8c-1-1.1-8.9-14.1-8.9-14.7
		c0-0.6,5.9-16.3,6.5-17.3c5.4-0.3,10.8-1.2,16-2.2L-596.4,615.9z M-627.6,615.5c0.1,0,0.2,0,0.3,0.1c0,0.1,0.4,0.2,0.5,0.3
		c0.1,0.1,0.4,0.6,0.5,0.7l24.9-9.8c-0.3,1.1-0.8,2.1-1.3,3.1c-0.6,1.4-1,1.7-1.3,3.2c0.2,0.1,0.7-0.3,0.2,1.6
		c-3,11.7-5.5,7.8,0.2,17.5l2.4,4.2c0.7,1.3,0.5,1.2,0.3,1.5c0.4,1.2-0.1,0,0.3,0.7c0.5,1,2.5,3,3.5,5.4c-1.2,0.2-3.3,1.6-4.8,2.2
		l4.7,1.1c1.6-2.2,2-2.1,2.9-3.3c0.7-1,0.5-0.8,1.5-1.6c0.8-0.7,0.9-1.1,1.5-1.9c1.2-1.5,4.7-4.6,6.1-6.9c2.4-5.2,2-8.2,2.9-15
		c0.6-4.3,0.4-3.3,2.3-6.7c1-1.7,0.4-3.1,0.3-5.9c0-0.5,0-0.6-0.1-1.1c-0.1-0.6-0.2-0.6-0.3-0.9c-4.4,0.6-9.4,1.4-13.8,1.7
		c-1.9,0.1-4.9-0.6-6.8-0.9c-3-0.5-3.1,0.2-5.6,1.3C-609.4,607.6-625.7,615.2-627.6,615.5z"/>
	<path fill="#1A2229" d="M-631.9,509.1c-1.9,4.6-2.6,13-2.9,18.4c-0.2,4.7-0.8,16.5-0.1,20.7l-0.1,6.6l-6.8,0.3
		c-0.7,0.9-2.9,4.4-3.2,5.4c0.8,0-0.1-0.1,0.9,0.1c0.7-0.2,0,0.2,0.7-0.5l2.7-2.3c0.8,0.5,3.9,3.6,4.4,4.4c-1,0.5-2.6,2.1-2.8,2.5
		c-0.9,1.8,2.8,10.4,2.7,13.1c1.3,1.5,1.2,3.9,3.2,6c-0.6-1.7-0.3-0.5,0.3-0.8c-0.6-0.9-1.2-1.9-1.1-3c-0.3-1.8-1.1-2.1-1.3-3.8
		c-0.5-2.2-2.9-9.7-2.5-11.3l2.4-2.1c-0.2-1.2-0.4-0.4-0.4-1.9c2.9-1.4,5.4-1.9,9.1-1.5l-3.1-0.5c2.2-0.5,6.4,0.7,8.7,1.2
		c2.4,0.5,6.3,0.8,7.6,2.7l0.6-1.4c-1.5-0.8-7.4-2.1-9.9-2.8c-2.3-0.6-8.2-2-10-2.9l0.6-8.3l2.5-28.3c0.8-4.3,0.8-8.2,2.1-12.6
		c1.7-5.7,2.8-6,4.7-9.5c-0.9-0.2-0.5-0.2-1.1-0.1c-0.3,1-0.4,0.8-0.6,1.7l-0.9-1.2c-1-2.9,1.4,0-0.2-1.2
		C-627.6,497.8-630.8,505.8-631.9,509.1z"/>
	<path fill="#2374B5" d="M-618.9,475.1c7.8-1.8,17.7-7.8,24.1-13c0.9-0.7,1.5-1.1,2.3-1.8l3.5-2.5c0.7-0.5,0.6-0.5,1.3-0.9
		c14.6-8.4,30.5-13.9,46.7-18.9c2.3-0.7,11.6-3.1,12.7-3.8c-6-0.1-19.6,3.6-26.5,5.6c-8.2,2.4-16.6,5.4-24.4,8.7
		c-7.9,3.4-19.7,9.4-26.4,14.5c-1.6,1.2-3.2,2.5-4.8,3.7C-612.1,467.8-618.5,474-618.9,475.1z"/>
	<path fill="#D2D2D2" d="M-632,547.2l0.1,1l7.7,0.1c1.6-0.1,3.7,0,5.3,0.1c2.5,0.1,3.4,0.7,3.7-1.8c-1.5-0.5-7.7-11.2-8.4-12.4
		c-3.4-6.2-3.9-10.7-5.4-14.2l-0.6-1.1L-632,547.2z"/>
	<path fill="#BEBEBE" d="M-562.4,509.1c0.2,0.4-1.5,2.7-1.9,3.3c-3.6,5.3-2.2,5.1-5.6,6.2c-1.4,0.5-2.8,0.9-4.2,1.4
		c-2.9,1-5.7,2-8.6,3c-2.3,0.8-6.5,2-8.5,3c1,2,2.4,4.1,3.3,6.1c-0.7,0.7-1.8,1-2.8,1.5c-0.8,0.4-1.9,1-2.7,1.1
		c-1.8,0-4.7-1.1-7-1.1c0.6,1.4,4.5,5.3,6.3,6.3c0.5-0.5,6.8-4.2,7.4-4.1c0.3,0,6.6,4,7.5,4.5c1.2-1.2,3.5-3.1,4.2-4.5
		c-1.4-0.3-12.8-8.7-13.1-9.2c5.2-2.3,15.9-6,22.1-8.1c2.3-0.8,2.2-0.9,3.3-2.9c1.2-2.4,3.6-5.7,4.3-8l-0.3-0.2
		C-559.9,508-561.4,508.3-562.4,509.1z"/>
	<path fill="#524B3B" d="M-635.2,576.1c1.3-1.5,3.3-5.6,4.7-7.7c0.7-1.2,1.3-1.1,2.7-1.4c2.4-0.4,4.6-0.9,7-1.4
		c7.3-1.5,4.3-0.4,6-0.4l0.8-2.8c-1.7-1.2-10.1-2.9-12.5-3.1c-3.6-0.4-6.1,0.1-9.1,1.5c0.1,1.5,0.2,0.7,0.4,1.9l-2.4,2.1
		C-638.2,566.4-635.8,573.9-635.2,576.1z"/>
	<path fill="#FAEEDD" d="M-653.8,617h14c0.4-1.5,0.7-2.5,1.2-3.8c0.9-2.6-0.7-2.7-2-3.7c-0.6-0.5-0.1-0.1-0.6-0.6
		c-1.4-1.4-2.7-2-4.1-3.7c-1.4,0.2-3.4,1.7-5.1,2.6c-1.5,0.8-0.7-0.1-1.3,1.2C-651.9,609.6-653.7,616.2-653.8,617z"/>
	<path fill="#2475B5" d="M-644.1,560.5c-2.7,6.1-2.1,7.4-1.4,15.9c0.5,5.9-0.4,3.4-3.9,8.2l-7.2,8.4c-0.5,0.5-0.9,1.2-1.4,1.9
		l2.9,4.1c2.2-0.3,4.1-1.5,6.2-1c-0.1-0.1-0.2-0.4-0.3-0.5c-0.8-1-2.2-0.7-5.1-0.8c-0.3-2.2-0.1-1.9,1.8-4.4l5.7-7.4
		c0.7-0.8,2.7-3.2,2.8-4c0.2-1.4-1.3-9.4-1.6-11.4c-0.7-4,2.6-6.1,3.7-9.3c2.4,1.3,1.4,1.6,1.3,4.5c-0.1,2.1,0.5,3.1,1.1,5
		c0.6,2,1.9,7.5,2.9,8.6c0,0.5,0.1,0.2,0.1-0.5c0.1-2.6-3.7-11.3-2.7-13.1c0.2-0.4,1.8-2,2.8-2.5c-0.5-0.8-3.6-3.9-4.4-4.4l-2.7,2.3
		C-644.1,560.7-643.4,560.4-644.1,560.5z"/>
	<path fill="#867A64" d="M-618.8,648.4l0.6,1.6l5.4,3c0,1.4-0.1,8.9-0.9,10c0.6,2.5,2.7-0.1,3.8-1.1c0.7-0.6,0.8-1,1.4-1.8l4.6-5.1
		c1.5-2.2,2-1.4,2.8-3.6c-1.3-0.1-2.9,1.3-4.2,1.6c-1.4,0.4-3.1-0.7-4.5-1.1l-0.4-3.5C-610.3,648.6-617.9,647.6-618.8,648.4z"/>
	<path fill="#C5B290" d="M-625.2,580.4c-1,0.3-2.1,0.7-3.2,1c-0.7,0.2-3.4,0.2-2.8-0.6l-0.1-0.7l-0.4,0.1c-0.4,0.4,0.4,0.7-1,0.2
		c-0.5-0.2-0.1-0.2-1.2-0.5h-0.2c0,1.1,0.6,2.1,1.1,3c1.7,2.5,0.8,1.6,3.7,2.9c1.5,0.7,3.1,1.8,5,1.6c2.4-1.4,2.5-3.2,4-5.3l0.3-0.6
		l2-6.1c-1.7,0.9-1,0.7-2.2,1.8c-1.1,1-0.5,0.1-1.9,1.9c-0.8,1.1-2.5,2.6-4.7,2.9L-625.2,580.4z"/>
	<path fill="#3999AC" d="M-632,575.5l1,0.4c0.5-0.9,0.2-0.5,0.9-1l0.3,1.7l-0.1,0.7c0.9,1.3-0.5,2.3-1.4,2.8l0.1,0.7l4.7-0.7
		c-1.3-1,0-1.5-1.1-3.8c-0.6-1.3-1.3-1.5-1.8-2.7c-0.7,0.3-1.3,0.5-1.7,0.9C-631.5,574.7-631.6,575.2-632,575.5z"/>
	<path fill="#2E6989" d="M-632.6,577.4c0.7,1.1,0.7,1.4,1,2.7l0.4-0.1c1-0.5,2.4-1.5,1.4-2.8c-0.3,0.7-0.2,0.5-1,0.8l-0.2-2.2
		l-1-0.4L-632.6,577.4z"/>
	<path fill="#4D483A" d="M-616.9,566.7l-0.2,1c-0.6,1.7-0.5,2.2,0,3.4c0.2,0.5,0-0.5,0.3,1c0.7-1.1,1.3-4.6,1.7-6.1L-616.9,566.7z"
		/>
	<path fill="#97866B" d="M-603.1,643.4c-0.8-0.1-1.5-0.2-2-0.8c-1.3,0.3-0.5,0.2-1.6,0.6c0.6,0.4,0.3,0.4,1.7,0.5
		C-602.9,644-603.4,643.8-603.1,643.4z"/>
	<path fill="#595F62" d="M-585.2,514.7c0.9,0,0.9-0.1,1.7-0.3c1.2-0.3,1,0,1.7-0.9l-1.5,0.1c-0.4,0.1-0.5,0.2-0.9,0.3
		c-0.3,0.2-0.3,0.1-0.6,0.4l-0.2,0.2C-585,514.5-585.1,514.6-585.2,514.7z"/>
	<path fill="#A8AAAD" d="M-629.8,577.3l0.1-0.7c-0.6-0.3-0.2-0.1-0.7-0.4c-0.5-0.3-0.1-0.1-0.5-0.3l0.2,2.2
		C-630,577.8-630.2,578-629.8,577.3z"/>
	<path fill="#A4D1DF" d="M-631,575.9c0.4,0.2,0,0,0.5,0.3c0.5,0.3,0,0,0.7,0.4l-0.3-1.7C-630.8,575.4-630.5,575-631,575.9z"/>
	<path fill="#776C5A" d="M-621.6,573.7c0.4,0.3-0.7,0.5,0.9,0.3c1.5-0.5,0.4-0.4-0.4-0.6L-621.6,573.7z"/>
	<path fill="#50514C" d="M-626.4,571.9c-0.1-0.1-0.2-0.3-0.3-0.3c0,0-0.1-0.2-0.2-0.2c0-0.1-0.1-0.2-0.2-0.2
		c-0.4,0.5-0.6-0.7-0.3,0.6L-626.4,571.9z"/>
	<path fill="#216599" d="M-546.1,662l0.9-0.4c-0.4-0.3,0.1-0.1-0.7-0.1l-0.1,0.1l-0.1,0.2C-546,661.7-546.1,662-546.1,662z"/>
	<path fill="#477193" d="M-548,570.3l-0.1-1.2h-0.7C-548.3,569.7-548.5,568.9-548,570.3z"/>
	<path fill="#9B8F76" d="M-617.1,567.7l0.2-1l-0.6,0.4C-616.9,567.1-617.1,567-617.1,567.7z"/>
	<polygon fill="#6D6F71" points="-558.3,507.5 -557.9,507.2 -558.6,507.4 	"/>
</g>
</svg>
