<?xml version="1.0" encoding="iso-8859-1"?>
<!-- Generator: Adobe Illustrator 19.0.0, SVG Export Plug-In . SVG Version: 6.00 Build 0)  -->
<svg version="1.1" id="Layer_1" xmlns="http://www.w3.org/2000/svg" xmlns:xlink="http://www.w3.org/1999/xlink" x="0px" y="0px"
	 viewBox="-658.1 359.2 287.2 438.1" enable-background="new -658.1 359.2 287.2 438.1" xml:space="preserve">
<g id="Layer_x0020_1">
	<g id="_495804301888">
		<g>
			<path fill="#E8B761" d="M-475.4,429.1c-1.9-1.8-3.6-2.9-5.5-4.4s-3.7-2.9-5.7-4.4c-1.8-1.3-3.9-2.9-5.9-4.2l-12.2-8.3
				c-4.7-2.9-15.1-9.8-19.4-11.3l29.3,21.6c2.5,1.9,9.2,7.7,11.7,8.5C-480.8,427.3-477.6,428.7-475.4,429.1z"/>
			<path fill="#E8B761" d="M-473.2,521.8l0.6-0.7C-472.9,522.9-472.5,521.3-473.2,521.8z M-473.2,521.8c-0.5,1.9-4.4,6.9-5.3,9.4
				l2.3,0.6c1.4-3.1,6-9.4,7.7-12.9l-1.7-0.9c-0.9-0.3-1.1-0.4-2-0.5l-6.2,6.6l2.6-8.1l-3.7-1.1l-7.9,13l2.4,0.9
				c0.4-1.3,4.9-8.8,5.7-9.8l-2.2,7.6l2.3,0.6l3-2.5c0.5-0.6,0.8-0.9,1.3-1.5c0.1-0.2,0.5-0.7,0.6-0.8c0.1-0.1,0.3-0.3,0.3-0.3
				C-473.2,521.7-473.9,522.1-473.2,521.8z"/>
			<path fill="#E8B761" d="M-465.1,535.7l2,0.7c1.8-2,3.5-6.5,5.4-8.3l-1.4,9.9l2.6,0.6l7.9-13.1l-2.3-0.6c-1.3,1.5-3.2,5.5-4.4,7.2
				c-0.2,0.3,0,0.1-0.3,0.4c-0.3,0.4-0.3,0.4-0.6,0.6l1.4-9.6l-2.8-1C-458.5,525.3-464,532.7-465.1,535.7z"/>
			<path fill="#E8B761" d="M-464.8,523.8l-2.1,6l-2.5-1.1L-464.8,523.8z M-475.7,531.9c2.5,1.9,3.4,0.6,4.6-1.4l3.6,1l-1,3.2
				l2.9,0.8l4.2-14.3l-3-1.1c-1.9,1.4-3.6,4.3-5.6,5.9C-472.3,527.8-473.7,529.6-475.7,531.9z"/>
		</g>
		<g>
			<path fill="#E6B661" d="M-501.1,364.4l22.8,7.5c14.5,5,29.2,11.2,41,20.6c2.7,2.2,5.8,4.4,9,6.3c1.5,0.9,3.1,2,4.7,2.9
				c0.9,0.5,4.6,2.3,5,2.7c2.6,0.7,4.6,1.9,7.7,2.4c-9.1-11.9-30.9-24-43.3-29.1c-8.9-3.6-17.4-6.5-26.6-9.6
				c-4.7-1.6-25.8-7.1-29.7-6.3L-501.1,364.4z"/>
			<path fill="#E6B661" d="M-437.4,656.3c-1.3-2.3-4.7-4.8-5.3-7.1l12.3-6c3.6-1.9,2.5-1.7,6.7-0.9c2.4,0.4,5.5,1.4,7.8,1.6
				c-2.5,7-1.2,6.6-8.3,8.6C-427.9,653.5-434,655.8-437.4,656.3z M-460.5,641.4c1.2,0.8,1.4,1.2,2.5,2l18.7,15.4
				c1.6,1.1,6.4-0.9,9.9-2c4.4-1.3,8.8-2.6,13.3-3.8l2.8-10.7c-4-0.7-8.1-1.5-12.2-2.2c-4.7-0.8-17,6.9-20,7.2c-1,0.1-7-4.4-8.4-5.3
				c-1.6-1.1-2.8-1.8-4.4-3c-3.8-2.8-27.2-19-29.1-19.7c0.5,0.5,0.8,0.7,1.5,1.3c5.6,4.9,13.6,10.9,19.3,15.8L-460.5,641.4z"/>
			<path fill="#E6B661" d="M-512,664.3c-0.8-0.7-0.5-0.6-1-1.4c-0.3-0.5-0.7-0.9-1.1-1.4c-1.1-1.3-1.2-1.5-2-3l-22.9-8.7
				c1.4,1.9,5.9,5.2,6.8,6.2c1.2,1.4,1.2,1.1,2.5,2.1l9,8.2l-9.1,38.8C-527.2,698.2-512.3,667.6-512,664.3z"/>
		</g>
		<g>
			<path fill="#13F5FF" d="M-402.5,523.1c6,2.4,11.5,0.8,17.8,0.7c-0.4-0.9-3.5-3.4-4.8-4.6c-0.4-0.4-0.6-0.4-1-0.8l-5.8-5
				c-1.7-1.6-2.5-2-3.7-3.7c-1.3-0.2-3.3-2.6-4.5-3.7c-3.1-2.6-3-2-5.7-1.2c-4.5,1.3-9,2.6-13.4,4l2.8,10.2L-402.5,523.1
				L-402.5,523.1z"/>
			<path fill="#13F5FF" d="M-427.1,762.1c0.7,0.8,1,1.5,1.9,2.3l6.5,7.1c1,1.2,0.8,1.2,2.1,2.4c0.9,0.9,1.2,1.7,2,2.5l31.2,13.3
				c-1.3-2.1-6.5-6.4-8.5-8.2c-1-0.9-1-1.3-1.9-2.3l-6.3-5.9c-4.1-3.8-5-5.2-8.4-8.3l-8.4-7.9L-427.1,762.1L-427.1,762.1z"/>
		</g>
		<g>
			<path fill="#93352B" d="M-630.7,632.2l9-17.3c9.9-19.9,20.4-41.4,30.6-61c1.2-2.4,1-2-0.3-4.4c-0.7-1.4-1.2-2.8-2-4.3
				c-1.5-2.8-2.7-6.1-4.1-9.1c-3.4-6.7-19.3-42.4-20.8-44.2l20.4,53c1.6,4.3,0.6,4.3-1.2,8.6l-17.5,43.5
				C-621.2,608.5-626.5,620.7-630.7,632.2z"/>
			<path fill="#93352B" d="M-488.5,668l-15.7,6.1c1.3,0.6,1,0.8,2.4,2.5c0.7,0.9,1.4,1.8,2.2,2.7l10.1,12.5c1.2,1.5,2.9,2.7,3.2,4.7
				l2.9-11.5l5.3-20.9L-488.5,668L-488.5,668z"/>
		</g>
		<g>
			<path fill="#9D7D42" d="M-623.2,492.5c-1.8-4.6-3.7-7.7-5.5-11.7l6.2,25.9c2.1,8.7,4.4,17.3,6.4,26c4,17.5,5.2,11.9,0.2,25.4
				c-8.6,23.4-17,47.8-25.4,71.4c-2.8,7.9-5.5,16-8.5,23.9l-8.3,23.6c3.6-7.2,7.1-16.4,10.5-24.2l41.9-97.4c3.9-9,3.9-7.3,1.8-12.6
				c-1.7-4.2-3.2-8.4-4.8-12.6L-623.2,492.5L-623.2,492.5z"/>
			<path fill="#9D7D42" d="M-483.5,655.5l-28.7,4.1c-1.4,0-2.5-0.7-3.9-1.1c0.9,1.5,0.9,1.7,2,3c0.4,0.4,0.7,0.9,1.1,1.4
				c0.5,0.8,0.2,0.7,1,1.4c1-0.9,0.3-0.8,1.9-1.2c3.3-0.8,19.5-3.2,20.9-3.1c2.2-1.3,6.7-0.9,9.4-1.8c1.6-0.5,5.8-3.2,7-4.3
				L-483.5,655.5L-483.5,655.5z"/>
		</g>
		<g>
			<path fill="#C19951" d="M-440.6,545.1c0.6,0.9,0.4,0.9,0.7,1.8c0.9,2.7,1.4,0.3,3.1,3.5l19.5,33.7c1.1,1.9,2.3,3.7,3.1,5.6
				c0.7-0.6,0.9-1.2,1.2-2.1c0.3-0.7,0.7-1.4,0.7-2.2c0.3-2.3-17.7-68.5-17.1-70.6l-1-3.7c-0.5-0.7-0.5-1.2-0.7-2.2
				c-0.1-0.3-0.3-1.2-0.4-1.4c-0.1-0.8-0.2-0.1-0.1-1.1c-2.2-0.4-0.8-0.7-2.6-1.5c-1.4,1.3-10.3,16.5-12.4,19.2l2.5,1.5
				c-1.1,2.3-7.5,10.2-9.2,13.1c1.5,1.2,5.1,1.5,7.3,2.1C-442.7,541.8-440.8,541.4-440.6,545.1z"/>
			<path fill="#C19951" d="M-431.4,506.5l30.3-8.7c-0.5-1.1-0.6-1.4-1.9-2.2c1.9,0.1,0,0.2,0.7-0.5c-1.7-0.4-3.7-4.1-4.7-5.5
				c-2.4-3.4-1.9-2.7-2.5-7.6l-1.5-12.9c-0.2-1.3-0.2-3.6-1.1-4.6c-0.6,2.2-9.7,17.4-11.6,20.9c-1.8,3.4-3.9,6.8-5.8,10.2
				c-0.8,1.5-2.1,3.5-2.9,5.1C-433.3,502.8-430.8,504.6-431.4,506.5z"/>
		</g>
		<g>
			<path fill="#62231C" d="M-626.4,698l9.7-25.3c-3.4,1.3-14.4,8.4-16.5,8.6l-1-39.4c-5,14.1-9.8,28.6-14.9,42.8
				c-2.5,6.8-3.1,6.8-1.9,11l9.5,33.3l2.3,0.6L-626.4,698L-626.4,698z"/>
			<path fill="#62231C" d="M-476.5,691.8l-2.2,8c0.9-0.2,2.1-0.2,3.1,0c1.6,0.4,3.8,4,5.5,6.1l18.1,23.7c0.9,1.1,0.8,1.1,2.6,1.3
				c-1.2-1.6-4.6-10.7-5.8-13.4c-4.7-11.6-11.1-29.4-17-40C-473.4,679-475.3,689-476.5,691.8L-476.5,691.8z"/>
		</g>
		<g>
			<path fill="#8F342A" d="M-627.6,640.3c-1.7-0.4-4.4-0.9-5.9-0.5l-0.7,2l1,39.4c2.1-0.2,13.1-7.2,16.5-8.6l34.4-86.3l-32.4,47.7
				c-1,1.5-4.2,5.7-4.7,7.1L-627.6,640.3L-627.6,640.3z"/>
			<path fill="#8F342A" d="M-484.8,746.9c0.4-3.4,6.2-22.6,7.9-28.7c0.7-2.4,1.8-7.5,2.7-9.4l16.9,24c0.6,0.9,0.5,1,1.2,1.6l18,14.1
				c1.7,1.5,8.7,6.2,9.4,7.6c-3.4,1.1-12.5,2.3-16.4,2.7c-2.8,0.3-5.6,1-8.4,1.2c-2.3,0.2-20.4-4.2-23.3-4.9
				c-5.5-1.3-8.8-1.3-13-5.7C-488.7,748.3-486.3,747.1-484.8,746.9L-484.8,746.9z M-496.6,743l-16.5,0.9c0.6,0.9,6.1,4.2,7.5,5
				c16.6,10.4,9.1,7.7,26.6,11.2c7,1.4,14.2,2.7,21.2,4c5.6,1,5.4,0.8,10.9-0.2c2.7-0.4,9.4-1.4,11-2.2c0.9,0,10.7-4.7,12.3-5.6
				c-0.3-1,0.1-0.2-0.7-1.1l-9.1-8.3c-1.3-1.4,0-0.6-2.9-3.3c-2.3-2.1-4.4-4-6.7-6.2c-1.3-1.2-1.9-1.6-3.1-3.2c-0.8-1.1-2-2.3-3.3-3
				c-1.8-0.2-1.7-0.1-2.6-1.3l-18.1-23.7c-1.7-2.1-3.9-5.7-5.5-6.1c-1-0.2-2.2-0.2-3.1,0l-12.5,43.6L-496.6,743L-496.6,743z"/>
		</g>
		<g>
			<path fill="#E5B560" d="M-440.6,545.1c-0.8,0.4-0.4,0-1,1c1.4,0,2.3,2.8,3.9,5.6c1.2,2,2.2,4,3.5,5.9c6.4,9.9,15.1,26.8,21.2,36
				c1.6,0.3,9.1,0,10.3-0.6c1.3-1.2,10.9-28.4,12.2-32.4c4.8-14.7,6.3-18,10.4-34c-2.1,0.4-7.8,3.4-10,4.4
				c-3.1,1.4-6.5,0.1-11.6-0.8c-3.6-0.6-22-3.4-23.8-4.3c-1.3-1.6-3.1-8.7-3.9-11.1c-0.6,2,17.4,68.2,17.2,70.6
				c-0.1,0.7-0.4,1.5-0.7,2.2c-0.4,0.9-0.5,1.5-1.2,2.1c-0.8-1.9-2-3.7-3.1-5.6l-19.5-33.7c-1.7-3.2-2.2-0.8-3.1-3.5
				C-440.2,546-440,545.9-440.6,545.1z"/>
			<path fill="#E5B560" d="M-500.2,599.1c0.1-6.6,0.7-14.6,1.2-21.2c0.3-3.3,0.6-7.4,0.6-10.7c0-3.1,0.4-1.9,2.1-3.4
				c0.8-0.7,0.5-0.7,1.4-1.4c0.9-0.7,0.7-0.4,1.5-1.3l13.5-11.6c1.1-0.8,0.6-0.5,1.4-1.3l3-2.6c1.7-1.3,2.2-2.2,3-2.4l12.2,3.9
				c1,0.8,9.2,21.6,9.9,23.5c2.8,8.1,2.1,11,0.8,19.2c-1,6-2.2,12.3-3.7,18.3c2.9,1.4,18.6,12.6,22.6,14.9c1.3,0.8,0.9,0.2,1.8,1.3
				c1.3,1.6,3.3,3.1,5,4.4l-1.4,1c-0.4,0.2-0.9,0.3-1.3,0.4l-8.5,3c-2.1,0.8-9.5,3.9-11.2,3.2l-38.9-21.7c-3.9-2-3.9-3.8-5.9-5.5
				l-8-9.1c-0.2-0.2-0.4-0.4-0.6-0.6c0,0-0.2-0.1-0.2-0.2C-500.1,599.1-500.2,599.1-500.2,599.1L-500.2,599.1z M-490.4,614.1
				c1.5,1.3,5.9,3.6,8.1,4.9c2.8,1.6,5.8,3.3,8.6,4.9c5.7,3.4,11.4,6.7,17.3,9.9l8.6,4.9c3.2,2,2.6,1.6,9.7-1.4l14.8-6.1
				c2.8-1.2,2.9,0,5.8,0.4c0.5-1.2,4.9,0.5,6.6-0.2c1-1.6,1.6-8,2.1-10.4c0.9-4.7-1.7-4.5-2.5-7.5c-0.2-0.8-0.2-0.4,0-0.8
				c-0.7-1-1-1.4-1.6-2.4c-2.7,1.4-3.4,3.3-6.8,6.2c-4.5,3.8-3.1,3.3-6.6,6.2c-1.9-0.6-23.9-13.3-24.6-14.2
				c0.6-4.1,1.9-8.4,2.5-12.7c1.4-9.3,2.8-18.7,1.2-28.1c-0.7-4.3-3.1-7.1-4.4-11c-0.2-1.7-4.7-8.9-5.7-11.1
				c5.9,2.6,4.3,1.3,7.5,6.8c1.7,2.9,3.3,6,4.9,9c1.7,3.3,8.7,16.2,8.8,19.2c2.4,2.8,2.2,9.7,1.4,13.4c-0.7,3.4-1.5,5.3-3,8.4
				c-0.5,1-1,1.4-1.3,2.3c0.9,0.7,9.7,5.2,11,5.7l3.6-3c2.6-2.9,1.4-2.1,5.8-5.6l-11.8-23.1c-0.6-0.4-15.4-28.8-17.2-32.2
				c-1.3-2.4-3.9-2.8-8.2-4.3l-27.5-10.3c2.4,3.3,6.9,3.6,10.9,6.1c-0.6,1.6-0.3,1.6-1.4,2.5l-26.4,19.2c-1.3,0.9-2.5,1.7-4,3
				c-0.5,0.8-0.1,29.3,0,32.7c0,4.2-0.7,4.6,1.6,6.8l11.4,10.8C-490.5,613.7-490.9,613.1-490.4,614.1L-490.4,614.1z"/>
			<path fill="#E5B560" d="M-382,503.3c-2.5-2.2-5-5-6.8-7.8c-2-3.2-5-9.5-6.1-13.8c-0.8-3.4-1.1-5.4,0.4-8.3
				c3-5.6,2.7-17.6,8.5-20.4l7.3,52.5L-382,503.3L-382,503.3z M-423.3,420.8c0.3-1.2,1.7-3.1,2.4-3.8c3.4-3.5,6.4,0.9,7.5,2.1
				c0.7,0.7,0.9,1,1.6,1.5l7,8c1.5,2,3.6,3.8,5.7,7.1l-8.9-6.3c-1.1-0.8-1.9-1.2-3-1.9c-2-1.3-3.6-2.5-6.1-3.7
				C-418.8,423-421.8,421.9-423.3,420.8z M-413.2,411.5l-15.9,6.5c1.1,2,0.8,1.7,2.5,2.9c1.1,0.8,1.6,1.3,2.8,2.1
				c5.3,3.4,18.8,11.9,23.3,16.4c1,1,1.3,1.6,2.1,2.7c9.6,12.8,6,19.2,0.3,32.7c-1.2,2.9-2.2,5-0.7,8c1.6,3.3,5.3,9.6,7.4,12.4
				c1.2,1.6,2.9,4.1,3.9,5.9c1.7,2.9,7.3,9.6,7.8,11.8c0.4,0.7,0.2,0.4,0.9,1c-0.3-0.2-0.7-0.4-1-0.6c-0.1-0.1-0.3-0.2-0.4-0.3
				c-0.5-0.4-0.2-0.2-0.6-0.7l-0.2-0.2c-1-1.1-1.3-1-2.2-1.8l-1.8-1.6c-1-0.7-0.9-0.9-1.8-1.6l-9.4-8.1c-1-0.5-0.6-0.4-1.5-1.2
				c-0.7-0.7-0.9-0.6-1.6-1.2c-0.9-0.8-1.7-2.3-2.8-1.6c-0.8,0.7,1.2,0.6-0.7,0.5c1.2,0.8,1.4,1.1,1.9,2.2l-30.3,8.7h-0.2
				c-0.2,1-0.1,0.3,0.1,1.1c0,0.2,0.3,1.1,0.4,1.4c0.2,0.9,0.2,1.5,0.7,2.2l1.4-3.6c3.4-1.5,8.1-2.4,11.8-3.6c2-0.6,3.9-1.2,5.9-1.8
				c3.4-1,3.1-1.4,5.1,0.5c1.5,0.3,5.9,2.9,7.7,3.9c2.2,1.3,5.4,3,7.7,4.1c10.7,4.9,8.2,6.7,16.2,6c-1-14.9-2.1-29-4.6-43.6
				c-1.5-9.1-3.5-20.1-6.9-28.9c-0.5-1.3-1.2-3-1.8-4.2l-1.5-3.1c-0.3-1.2-0.6-0.4,0.1-1c-3.3-6.9-10.6-17.4-15.9-23.8
				c-1.3-1.5-0.8-1.3-2.7-2.9L-413.2,411.5z"/>
			<path fill="#E5B560" d="M-448.3,654.4c-1.6-1.6-13-9.6-14.5-10.4c-0.2-0.5,0-0.3-0.8-0.9l-4.1-2.9c-1.8-1.3-3.6-2.6-5.5-3.9
				c-1.9-1.3-3.6-2.6-5.5-3.9l-24.2-17.6c-1-0.7-1.8-1.4-2.8-2.1c-8.2-5.7-7.1-4.5-8.3-10.1c-1-5.2-2.1-10.4-3.1-15.7l-4.3-33.5
				c3-0.5,32-15.3,35.8-16.5c-1-0.9-29.9-10.6-31.7-10.7l-8,0.5c0.8,0.9,2.7,1.6,4.7,2.7c1.7,1,3.2,1.6,4.8,2.5l9.7,5.3l-26.8,13.1
				c0.1,1.6,1.6,7.8,2,9.6c0.7,3.2,1.5,6.6,2.1,9.7c1.3,6.5,3,13,4.2,19.5c1.2,6.3,2.9,12.9,4.1,19.2c0.7,3.8,1.2,3,5.9,6
				c19.8,12.6,42.6,25.6,62.1,38.2C-450.7,653.4-450.1,654.3-448.3,654.4z"/>
			<path fill="#E5B560" d="M-604.9,422.1c-11.9-1.5-11.4,0.9-17.4,1.6c0.6-2.4,15.8-24.1,19.7-28.7l4.5-5.3l7.9-6.7
				c0.9-0.9,1.7-1.9,2.9-2.3l-3.1,4.5c-3.9,5.6-17.5,24.4-16.6,30.4c0.1,0.7,0.6,2.4,0.8,3.1l1,2.3c0.1,0.1,0.1,0.2,0.1,0.3
				c0,0.1,0.1,0.2,0.1,0.3C-605,421.9-605,422-604.9,422.1z M-617.7,426.1c1.6-1.8,8.6-1.3,11.1-1.3l0.4-0.4
				c2.5-3.1,8.3-12.7,10.7-16.2c4.1-6,10.4-18.6,16.5-24.6c1.3-1.3,2.4-1.9,3.8-3.1l7.7-6.2c2.5-1.8,11.2-7.1,13.4-7.3
				c2.7-3,13.8-5.5,17.3-7.8l-17.3,4.4c-10.2,2.9-21.5,7.7-30.3,13.2l-9.4,7l-13.2,14c-0.7,0.8-1.5,1.9-2.3,2.9l-7,9.7
				c-2.8,4.2-5.7,8.8-8,13.9c-3.4,7.3-3,10.5-1.7,18.3c0.1-0.1,0.1-0.3,0.1-0.3l0.5-2c0.1-0.9,0.3-1.8,0.5-2.7
				c0.4-1.6,0.9-3.3,1.5-4.7C-622.1,429.8-620.3,427-617.7,426.1z"/>
		</g>
		<g>
			<path fill="#D84F3F" d="M-494.3,508.1l11.9,4.2c2.1-2.9,22-36.8,26.2-43.8l1.2-1.6l-7.4,52.2l13.1,4.6c1.2-1.4,28.3-47,30.6-50.8
				c1.7-2.9,3.3-5.6,5.1-8.5c1.7-2.8,0.1-4.9-0.8-11.1l-6.1-2l-6.6,11.5c-2.3,3.9-4.5,7.5-6.8,11.3l-13.5,22.4
				c-0.1,0.1-0.1,0.2-0.2,0.2c0,0-0.1,0.1-0.2,0.2l7.6-52.2l-13.1-4.6L-494.3,508.1z"/>
			<path fill="#D84F3F" d="M-566.3,434.5c0.5-1.4,9.2-16,9.9-16.7c2.8,0.7,6.4,2.1,9.2,3.1c3.4,1.2,6.5,1.8,8.8,3.6
				c0.3,2.8-2.6,6.5-3.9,8.7c-1.1,1.9-3,6.2-5.3,6.8C-550.3,440.7-562.4,435.2-566.3,434.5z M-603.6,470.6l12.7,4.4l18.2-30.1
				c2,0.5,9.1,2.6,10.4,3.8l-6.8,34c3.8,0.4,9.9,3.7,14,4.5l5.5-35.6c2-0.1,3.5,0.9,6.1,0.3c8.5-1.8,12.4-11.3,17.4-19.6
				c4.6-7.7,7.1-14.5-3.5-18.5c-3.7-1.4-7.4-2.5-11.1-3.8l-21.9-7.5c-1.2,1-31.6,52.3-35.9,59.4C-599.6,463.7-603.1,469-603.6,470.6
				z"/>
			<path fill="#D84F3F" d="M-501,437.8c1.8-0.8,7.2,1.6,9.2,2.2c11.3,3.8,10.9,1.3,0,19.4c-3,5-6,10-9,15c-10.1,16.7-7.3,16-18.9,12
				c-3-1-7.9-2.2-8.3-3.8c-0.5-1.8,2.8-6.4,3.8-8l18-30C-504.3,441.4-503.3,438.8-501,437.8z M-504.5,424.8
				c-2.7,0.6-4.7,1.7-6.3,3.3c-2.5,2.5-2.4,2.1-4.4,5.4c-2.4,4.1-4.8,7.9-7.2,12c-2.1,3.5-19.9,32.2-21.3,36.5
				c-1.9,6,1.2,9.4,6.7,11.6c4.6,1.8,9.5,3.3,14.2,4.9c11.1,3.9,18.7,6.8,26.4-5.4c4.2-6.7,27.4-44.8,28.5-48.4
				c2.1-6.7-1.7-9.9-6.6-11.8c-4.3-1.7-9.8-3.5-14.2-4.9C-493.8,426.3-498.8,423.6-504.5,424.8z"/>
			<path fill="#D84F3F" d="M-618.4,491.9c1.6,1.8,17.5,37.5,20.8,44.2c1.5,2.9,2.7,6.2,4.1,9.1c0.8,1.4,1.3,2.9,2,4.3
				c1.3,2.4,1.5,2,0.3,4.4c-10.2,19.6-20.7,41.1-30.6,61l-9,17.3l-1.3,2.9c2.8-3.3,1.6-2.1,3.8-5.2l3.8-5.6c0.9-1.3,6.8-10.3,7.9-11
				c0.2-0.8-0.1-0.2,0.4-1l25.1-36.5c1-1.4,1.7-2.5,2.5-3.7l5.3-7.6c2.8-3.9,2.5-2.5-1.7-13.3c-6.9-17.9-13.5-37.8-20.4-55.9
				c-1.1-3-2.3-6.2-3.3-9.2c-1-2.9-2.7-6.7-3.4-9.4l106.3,37.3c-1-1.2-0.8-1.3-2.1-2.3c-3.9-3.1-3.3-3.3-5.1-4.6
				c-2.3-1.8-66.8-24.1-74.6-27.1c-4.8-1.8-25.8-8.9-28.2-10.2l-15-5.3L-618.4,491.9z"/>
			<path fill="#D84F3F" d="M-469,646l23.3,10.1c-0.8-0.6-1.7-1.4-2.6-1.7c-1.8-0.1-2.4-1-4-2.1c-19.4-12.6-42.3-25.6-62.1-38.2
				c-4.7-3-5.1-2.1-5.9-6c-1.2-6.3-3-12.8-4.1-19.2c-1.2-6.5-2.9-13-4.2-19.5c-0.6-3.1-1.3-6.5-2.1-9.7c-0.4-1.8-1.9-8-2-9.6
				l26.8-13.1l-9.7-5.3c-1.6-0.8-3.1-1.5-4.8-2.5c-2-1.1-3.9-1.8-4.7-2.7l8-0.5c-0.6-0.5-56.8-19.9-60.1-20.5l35.6,21
				c3.9,2.2,8.3,4.7,12,7c-1.7,1.8-11,9.1-14.3,11.7l-2.1,1.7c-0.3,0.6,19.4,63.4,21.5,68.9c0.6,1.6,0,0.8,1.3,1.5
				c1.1,0.6,2.5,1.4,3.6,2l21.7,11.7c4.6,2.7,9.6,4.9,14.3,7.7C-481.8,639.9-469.6,645.4-469,646z"/>
			<path fill="#D84F3F" d="M-616.3,447.4c-1.1,2.5-8.1,12.7-9.3,15.8c2.7,1.1,8.1,2.1,10,3.7l2.8,0.6c2.8-3.9,17.4-28.9,20.4-33.9
				c3.4-5.7,6.8-11.3,10.2-17l10.2-17c-1.2-1-11-4-12.6-4.6c-1.1,1.2-3.2,4.9-4.1,6.4L-616.3,447.4z"/>
			<path fill="#D84F3F" d="M-396.9,495.9c3.1,1.9,9.4,9.2,12,12c2.4,2.5,2.5,1.9,3.2,2.7c1.2,1.4,0.6,0.1,0.6,1.6l0.2,0.2
				c0.1,0,0.3,0,0.3,0.1c0.1,0.1,0.2,0.1,0.3,0.1c0.1,0,0.4,0.2,0.5,0.3c-0.5-2.2-6.1-8.9-7.8-11.8c-1-1.8-2.7-4.2-3.9-5.9
				c-2.1-2.8-5.8-9.2-7.4-12.4c-1.5-3-0.5-5.2,0.7-8c5.7-13.5,9.3-19.9-0.3-32.7c-0.9-1.1-1.1-1.7-2.1-2.7c-4.5-4.5-18-13-23.3-16.4
				c-1.2-0.8-1.7-1.3-2.8-2.1c-1.7-1.2-1.4-0.9-2.5-2.9l-2.9,1.3l2.9,4.1c0.4,0.5,1,1.4,1.4,2.1c8.6,12.2,9.5,10.8,15.3,29.9
				c2.1,7,3.7,15.9,4.7,23.1c1.1,7.4,0.1,5.6,4.1,9.9C-402,490.1-397.6,494.2-396.9,495.9L-396.9,495.9z"/>
			<path fill="#D84F3F" d="M-490.4,614.1c-0.4-0.9-0.1-0.4-0.8-1.2l-11.4-10.8c-2.4-2.2-1.6-2.6-1.6-6.8c0-3.5-0.4-31.9,0-32.7
				c1.5-1.2,2.7-2.1,4-3l26.4-19.2c1.1-0.9,0.9-0.9,1.4-2.5c-4-2.5-8.6-2.8-10.9-6.1l-19.3-7.1c1.4,1.6,2.4,4.1,4.7,4.8
				c2.4,0.8,4.8,1.7,7.2,2.5c3.1,1.1,12,3.9,14.2,5.2l-42,20.2l7.7,44.8C-510.1,603.6-491.2,613.7-490.4,614.1z"/>
			<path fill="#D84F3F" d="M-486.3,696.7c-0.3-2-2-3.2-3.2-4.7l-10.1-12.5c-0.7-0.9-1.4-1.8-2.2-2.7c-1.5-1.8-1.2-2-2.4-2.5l-3.9,46
				c2.3,1.6,4.4,2.7,6.7,4.2c1.7,1,5.5,3.6,7,4.1L-486.3,696.7L-486.3,696.7z"/>
			<path fill="#D84F3F" d="M-411.3,612.6c0.5,0.9,3.7,5.4,4.3,5.8l0.2-6.5c-1.5-0.8-3.3-2.3-4.8-3.4c-0.9-0.7-4.3-3.1-4.7-3.9
				l-9.5,9.7c-0.5,0.6-0.8,1.1-1.5,1.7c-0.6,0.5-1.4,1.1-1.8,1.3l-14.1-7.1c-0.3-0.1-0.6-0.3-0.9-0.5l-0.4-0.3
				c-0.5-0.3-0.4-0.2-0.6-0.5c3.9-7.6,10.2-16.4,5.5-26.3c-1.2-4.7-9.3-23.9-11.9-25.9c1.3,3.9,3.7,6.7,4.4,11
				c1.5,9.4,0.2,18.8-1.2,28.1c-0.7,4.3-1.9,8.6-2.5,12.7c0.7,0.9,22.7,13.6,24.6,14.2c3.5-2.9,2.1-2.4,6.6-6.2
				c3.4-2.9,4-4.8,6.8-6.2C-412.3,611.2-412,611.6-411.3,612.6z"/>
			<path fill="#D84F3F" d="M-430.4,511.2l1,3.7c0.8,2.5,2.6,9.5,3.9,11.1c1.8,0.9,20.2,3.7,23.8,4.3c5.1,0.9,8.5,2.2,11.6,0.8
				c2.3-1,8-4,10-4.4l0.1-0.3c-4.3,0.2-8.7,0.7-12.9,0.8c-2.2,0.1-9.7-1.4-11.5-2.3l-21.3-4.5l-3.3-12.9L-430.4,511.2L-430.4,511.2z
				"/>
		</g>
		<g>
			<path fill="#F8D393" d="M-500.2,599.1c0.1,0.1,0.2,0.1,0.2,0.2c0,0.1,0.2,0.2,0.2,0.2c0.2,0.2,0.4,0.4,0.6,0.6l8,9.1
				c2,1.7,2.1,3.5,5.9,5.5l38.9,21.7c1.7,0.8,9.1-2.4,11.2-3.2l8.5-3c0.4-0.1,0.9-0.2,1.3-0.4l1.4-1c-1.7-1.2-3.6-2.8-5-4.4
				c-0.9-1.1-0.5-0.5-1.8-1.3c-4-2.3-19.6-13.6-22.6-14.9c1.4-6,2.7-12.3,3.7-18.3c1.3-8.2,2.1-11.1-0.8-19.2
				c-0.7-2-8.8-22.8-9.9-23.5l-12.2-3.9c-0.8,0.1-1.3,1.1-3,2.4l-3,2.6c-0.9,0.8-0.3,0.5-1.4,1.3l-13.4,11.5
				c-0.9,0.9-0.6,0.6-1.5,1.3c-0.9,0.7-0.7,0.7-1.4,1.4c-1.7,1.5-2.1,0.3-2.1,3.4c0,3.3-0.4,7.4-0.6,10.7
				C-499.6,584.4-500.2,592.5-500.2,599.1z"/>
			<path fill="#F8D393" d="M-406.2,502.7l6.4,5.6c0.1,0.1,0.3,0.3,0.4,0.4c0.5,0.5,0.1,0,0.5,0.7c2.1,1.2,8.4,7.1,10.8,9.2l8.9,7.5
				l-0.7,0.4l-0.1,0.3c-4.1,16-5.6,19.2-10.4,34c-1.3,4-11,31.2-12.2,32.4c-1.2,0.6-8.7,0.8-10.3,0.6c-6.1-9.2-14.9-26.1-21.2-36
				c-1.2-1.9-2.3-4-3.5-5.9c-1.6-2.7-2.5-5.6-3.9-5.6c1.8,4.6,14.5,28.6,14.6,30.6c1.2,1.2,7.8,15.5,9.1,18.2
				c3.3,6.9,5.4,8.6,10.6,13.1c0.6,0.5,1.1,1.2,1.6,1.7l9.2-21.6c3.2-7.4,6.2-14.6,8.3-22.7c2.1-8.2,4.5-16.3,6.5-24.5
				c0.6-2.5,2.7-14,4.1-15.4l6.6-5.5c-2.5-15.2-4.6-29.9-5.7-45.4c-0.9-12.7-6.3-28.9-12.3-38.7c-0.7,0.6-0.4-0.2-0.1,1l1.5,3.1
				c0.6,1.2,1.3,2.9,1.8,4.2c3.3,8.8,5.3,19.8,6.9,28.9c2.4,14.6,3.5,28.7,4.6,43.6c-8.1,0.6-5.6-1.2-16.2-6
				c-2.3-1.1-5.5-2.8-7.7-4.1C-400.3,505.6-404.7,503-406.2,502.7L-406.2,502.7z"/>
			<path fill="#F8D393" d="M-378.7,505.5L-386,453c-5.8,2.8-5.6,14.8-8.5,20.4c-1.5,2.9-1.2,4.9-0.4,8.3c1,4.3,4,10.5,6.1,13.8
				c1.8,2.8,4.3,5.6,6.8,7.8L-378.7,505.5z"/>
			<polygon fill="#F8D393" points="-524.5,730.2 -493.8,734.3 -511.3,725.5 -507.8,674.7 			"/>
			<path fill="#F8D393" d="M-604.9,422.1c0-0.1-0.1-0.2-0.1-0.3s-0.1-0.2-0.1-0.3c0-0.1-0.1-0.2-0.1-0.3l-1-2.3
				c-0.2-0.7-0.6-2.4-0.8-3.1c-0.9-6,12.7-24.9,16.6-30.4l3.1-4.5c-1.2,0.4-2,1.4-2.9,2.3l-7.9,6.7l-4.5,5.3
				c-3.9,4.6-19.1,26.3-19.7,28.7C-616.3,423-616.9,420.6-604.9,422.1z"/>
			<path fill="#F8D393" d="M-437.4,656.3c3.4-0.4,9.5-2.7,13.1-3.8c7.1-2,5.8-1.6,8.3-8.6c-2.3-0.2-5.4-1.2-7.8-1.6
				c-4.1-0.8-3.1-0.9-6.7,0.9l-12.3,6C-442.1,651.4-438.7,653.9-437.4,656.3L-437.4,656.3z"/>
			<path fill="#F8D393" d="M-423.3,420.8c1.5,1,4.5,2.1,6.3,3c2.5,1.2,4.1,2.3,6.1,3.7c1.1,0.7,1.9,1.1,3,1.9l8.9,6.3
				c-2.1-3.3-4.2-5.1-5.7-7.1l-7-8c-0.7-0.5-0.9-0.8-1.6-1.5c-1.1-1.2-4.2-5.6-7.5-2.1C-421.6,417.8-423,419.6-423.3,420.8z"/>
		</g>
		<g>
			<path fill="#1F2227" d="M-507.8,674.7l-3.5,50.8l17.5,8.8l-30.7-4.1L-507.8,674.7z M-465.1,535.7c1.1-3.1,6.6-10.4,7.5-13.2
				l2.8,1l-1.4,9.6c0.3-0.3,0.3-0.2,0.6-0.6c0.3-0.3,0.1-0.1,0.3-0.4c1.2-1.7,3.1-5.7,4.4-7.2l2.3,0.6l-7.9,13.1l-2.6-0.6l1.4-9.9
				c-1.9,1.8-3.6,6.3-5.4,8.3L-465.1,535.7z M-475.7,531.9c2-2.3,3.4-4.1,5.7-5.8c2-1.5,3.6-4.4,5.6-5.9l3,1.1l-4.2,14.3l-2.9-0.8
				l1-3.2l-3.6-1C-472.3,532.5-473.2,533.8-475.7,531.9z M-473.2,521.8c-0.6,0.2,0-0.1-0.6,0.4c-0.1,0.1-0.3,0.3-0.3,0.3
				c-0.1,0.1-0.5,0.6-0.6,0.8c-0.5,0.6-0.8,0.9-1.3,1.5l-3,2.5l-2.3-0.6l2.2-7.6c-0.9,1-5.3,8.5-5.7,9.8l-2.4-0.9l7.9-13l3.7,1.1
				l-2.6,8.1l6.2-6.6c0.9,0.1,1.1,0.2,2,0.5l1.7,0.9c-1.7,3.5-6.3,9.8-7.7,12.9l-2.3-0.6C-477.6,528.8-473.8,523.7-473.2,521.8z
				 M-453.3,440.1l13.1,4.6l-7.6,52.2c0.1-0.1,0.2-0.2,0.2-0.2s0.1-0.1,0.2-0.2l13.5-22.4c2.3-3.8,4.5-7.4,6.8-11.3l6.7-11.3l6.1,2
				c0.9,6.2,2.5,8.3,0.8,11.1c-1.8,2.9-3.4,5.6-5.1,8.5c-2.3,3.8-29.4,49.4-30.6,50.8l-13.1-4.6l7.4-52.2l-1.2,1.6
				c-4.2,7-24.1,40.9-26.2,43.8l-11.9-4.2L-453.3,440.1z M-504.5,424.8c5.6-1.3,10.7,1.5,15.8,3.1c4.4,1.4,10,3.2,14.2,4.9
				c5,2,8.8,5.2,6.6,11.8c-1.1,3.6-24.3,41.7-28.5,48.4c-7.7,12.2-15.3,9.3-26.4,5.4c-4.7-1.7-9.6-3.1-14.2-4.9
				c-5.5-2.2-8.6-5.6-6.7-11.6c1.4-4.3,19.2-33,21.3-36.5c2.4-4.1,4.7-7.9,7.2-12c2-3.3,1.8-2.9,4.4-5.4
				C-509.2,426.6-507.2,425.4-504.5,424.8z M-603.6,470.6c0.5-1.5,4-6.8,5.1-8.7c4.2-7,34.7-58.4,35.9-59.4l21.9,7.5
				c3.7,1.3,7.4,2.4,11.1,3.8c10.5,4,8.1,10.8,3.5,18.5c-5,8.3-8.9,17.7-17.4,19.6c-2.6,0.6-4.1-0.3-6.1-0.3l-5.5,35.6
				c-4.1-0.8-10.2-4.1-14-4.5l6.8-34c-1.2-1.2-8.3-3.3-10.4-3.8l-18.2,30.1L-603.6,470.6z M-475.4,429.1c-2.2-0.4-5.4-1.8-7.8-2.5
				c-2.5-0.8-9.2-6.5-11.7-8.5l-29.3-21.6c4.3,1.5,14.7,8.4,19.4,11.3l12.2,8.3c1.9,1.4,4,2.9,5.9,4.2c2.1,1.5,3.8,2.9,5.7,4.4
				C-478.9,426.2-477.2,427.3-475.4,429.1z M-554,367c-2.2,0.2-10.9,5.5-13.4,7.3l-7.7,6.2c-1.4,1.2-2.5,1.8-3.8,3.1
				c-6.1,5.9-12.3,18.6-16.5,24.6c-2.4,3.5-8.2,13.1-10.7,16.2l-0.4,0.4c-2.5,0-9.6-0.5-11.1,1.3c-0.2,3.8,0.8,14,0.9,19.1
				c0,0.9-0.1,1.6,0.5,2.2l27.6-46c0.9-1.5,3-5.3,4.1-6.4c1.6,0.6,11.4,3.6,12.6,4.6l-10.2,17c-3.4,5.6-6.8,11.3-10.2,17
				c-3,5-17.6,30-20.4,33.9l-2.8-0.6c-0.7,1-0.2,0-0.1,1.3c0.1,0.9,0.1,0.9,0,1.7c2.4,1.3,23.3,8.3,28.2,10.2
				c7.8,3,72.2,25.3,74.6,27.1c1.8,1.4,1.2,1.6,5.1,4.6c1.3,1,1.1,1.1,2.1,2.3L-612,476.9c0.7,2.7,2.4,6.5,3.4,9.4
				c1,3,2.2,6.2,3.3,9.2c6.9,18.1,13.5,38,20.4,55.9c4.2,10.8,4.5,9.4,1.7,13.3l-5.3,7.6c-0.8,1.3-1.5,2.4-2.5,3.7l-25.1,36.5
				c-0.4,0.8-0.2,0.1-0.4,1c0.6,0-0.1-0.4,0.5,0.3l-11.7,26.6l8.3,1c0.5-1.4,3.7-5.6,4.7-7.1l32.4-47.7l-34.4,86.3l-9.7,25.3
				c1.5,5.5,12,45.3,13.2,46.8c8.9-2.5,25.1-8.4,35.1-11.7c5.1-1.6,32.7-11.3,35.3-11.5c2.3,2.6,16.4,12.9,20.4,16.8
				c4.1,1.1,23.9,3.4,25.6,4.7l5.5,0.5l12.6-44l2.2-8c-1.5-0.7-2.6-2-3.9-3.1c-1.6-1.4-1.7-1.7-3-3.6l-2.9,11.5l-8.1,31.8
				c-1.5-0.5-5.3-3.1-7-4.1c-2.3-1.4-4.4-2.6-6.7-4.2l3.9-46l15.7-6.1c-0.5-1.6,0.3-6.5,0.6-8.3l-1.4,0.3
				c-1.3-0.2-17.6,2.3-20.9,3.1c-1.6,0.4-0.8,0.3-1.9,1.2c-0.3,3.3-15.2,33.9-17.9,40.8l9.1-38.8l-9-8.2c-1.2-1-1.2-0.7-2.5-2.1
				c-0.9-1-5.3-4.3-6.8-6.2l22.9,8.7c1.4,0.4,2.5,1.1,3.9,1.1l28.7-4.1c-1.2-0.9-1.1,0.1-1.4-0.6c0-0.1-0.2-0.1-0.3-0.1l16.1-8.7
				c-0.6-0.7-12.8-6.2-14.7-7.3c-4.7-2.7-9.7-5-14.3-7.7l-21.7-11.7c-1.1-0.5-2.5-1.3-3.6-2c-1.3-0.7-0.7,0.1-1.3-1.5
				c-2.1-5.5-21.8-68.4-21.5-68.9l2.1-1.7c3.3-2.6,12.6-9.9,14.3-11.7c-3.7-2.4-8.1-4.8-12-7l-35.6-21c3.3,0.6,59.5,20,60.1,20.5
				c1.8,0.1,30.8,9.8,31.7,10.7c-3.8,1.2-32.8,16-35.8,16.5l4.3,33.5c1,5.2,2.1,10.4,3.1,15.7c1.1,5.7,0,4.4,8.3,10.1
				c1,0.7,1.8,1.4,2.8,2.1l24.2,17.6c1.9,1.3,3.6,2.6,5.5,3.9c1.9,1.3,3.6,2.6,5.5,3.9l4.1,2.9c0.8,0.6,0.6,0.5,0.8,0.9
				c0.4-1.3-0.2-0.4-0.1-1.3s1-0.8,2.3-1.3l-5.9-4.9c-5.7-5-13.7-10.9-19.3-15.8c-0.7-0.6-1-0.8-1.5-1.3l-4.7-3.7
				c-0.4-0.4-0.8-0.9-1.3-1.1l18.2,10.3c2.9,1.8,6,3.5,9,5.3c1.6,0.9,7.8,4.9,9.2,5c0,0,0.1-0.1,0.1-0.2l0.5-0.9
				c0-0.2,0.1-0.2,0.1-0.3c-5.9-3.2-11.6-6.6-17.3-9.9c-2.8-1.7-5.8-3.3-8.6-4.9c-2.2-1.2-6.6-3.5-8.1-4.9
				c-0.8-0.3-19.7-10.4-20.3-12l-7.7-44.8l42-20.2c-2.2-1.3-11.1-4.1-14.2-5.2c-2.4-0.8-4.8-1.7-7.2-2.5c-2.3-0.8-3.3-3.3-4.7-4.8
				l19.3,7.1l27.5,10.3c4.3,1.5,6.9,1.9,8.2,4.3c1.9,3.4,16.6,31.8,17.2,32.2c1.3-0.6-0.6-0.1,1.4-1c0.4-0.2,0.7-0.2,1-0.3
				c1.4-0.6-0.4,0.7,0.9-0.5c-0.1-2-12.7-26-14.6-30.6c0.6-1.1,0.2-0.6,1-1c-0.2-3.6-2.2-3.3-5.5-4.2c-2.2-0.6-5.7-0.9-7.3-2.1
				c1.7-2.9,8.2-10.8,9.2-13.1l-2.5-1.5c2.1-2.6,11-17.9,12.4-19.2c1.8,0.8,0.4,1.1,2.6,1.5h0.2c0.6-1.9-1.9-3.7-0.9-5.8
				c0.8-1.6,2-3.6,2.9-5.1c1.9-3.5,4-6.9,5.8-10.2c1.9-3.4,11-18.6,11.6-20.9c0.9,1,0.9,3.3,1.1,4.6l1.6,12.9c0.6,4.9,0,4.2,2.5,7.6
				c1,1.4,3,5.1,4.7,5.5c1.1-0.7,1.8,0.8,2.8,1.6c0.7,0.6,0.9,0.6,1.6,1.2c0.9,0.8,0.5,0.6,1.5,1.2c-1.1-1.4-0.9,0.2-1-1.7
				c0-0.8,0.1-0.9,0.4-1.6c-0.7-1.7-5.1-5.8-6.7-7.5c-4-4.3-3-2.5-4.1-9.9c-1-7.2-2.6-16.1-4.7-23.1c-5.8-19.1-6.7-17.7-15.3-29.9
				c-0.5-0.7-1.1-1.6-1.4-2.1l-2.9-4.1l2.9-1.3l15.9-6.5c-0.1-0.1-0.2-0.2-0.2-0.2c-3.2-2.7-3.9-4.6-5.5-6.1
				c0.3-0.2,0.4-0.6,0.5-0.7c-0.4-0.4-4.1-2.2-5-2.7c-1.7-0.9-3.3-2-4.7-2.9c-3.2-1.9-6.3-4.1-9-6.3c-11.8-9.4-26.5-15.6-41-20.6
				l-22.8-7.5c-1.1,1.5-4.7,1-6.5,1C-515.5,365.7-552.1,367.8-554,367L-554,367z"/>
			<path fill="#1F2227" d="M-501,437.8c-2.3,1-3.3,3.6-5.2,6.8l-18,30c-0.9,1.5-4.2,6.2-3.8,8c0.4,1.7,5.4,2.8,8.3,3.8
				c11.6,4.1,8.8,4.8,18.9-12c3-5,6-10,9-15c10.9-18,11.3-15.5,0-19.4C-493.8,439.4-499.1,437-501,437.8z"/>
			<path fill="#1F2227" d="M-566.3,434.5c3.9,0.7,16,6.2,18.7,5.5c2.3-0.6,4.2-4.9,5.3-6.8c1.3-2.2,4.3-5.9,3.9-8.7
				c-2.4-1.7-5.4-2.4-8.8-3.6c-2.9-1-6.5-2.4-9.2-3.1C-557.1,418.5-565.8,433.1-566.3,434.5z"/>
			<path fill="#1F2227" d="M-429,507.5l3.4,12.9l21.3,4.5l1.8-1.8l-18.4-4l-2.8-10.2c4.4-1.3,8.9-2.6,13.4-4
				c2.7-0.8,2.7-1.5,5.7,1.2c1.2,1,3.3,3.5,4.5,3.7c0.2-0.2-0.1-0.8,1.2-0.5c-0.4-0.7,0-0.2-0.5-0.7c-0.1-0.1-0.3-0.3-0.4-0.4
				l-6.4-5.6c-2.1-1.9-1.8-1.5-5.1-0.5c-2,0.6-3.9,1.2-5.9,1.8C-420.8,505.1-425.6,506.1-429,507.5z"/>
		</g>
		<path fill="#A13F33" d="M-484.8,746.9c-1.5,0.2-3.9,1.5-5,2.6c4.2,4.5,7.5,4.4,13,5.7c2.9,0.7,21.1,5,23.3,4.9
			c2.8-0.2,5.6-0.9,8.4-1.2c3.9-0.5,13-1.6,16.4-2.7c-0.7-1.3-7.7-6.1-9.4-7.6l-18-14.1c-0.6-0.6-0.6-0.7-1.2-1.6l-16.9-24
			c-0.9,1.9-2,7-2.7,9.4C-478.6,724.2-484.5,743.5-484.8,746.9z"/>
		<path fill="#792C24" d="M-436,761.7c-1.6,0.8-8.3,1.8-11,2.2c-5.5,0.9-5.3,1.2-10.9,0.2c-7-1.3-14.2-2.5-21.2-4
			c-17.4-3.5-10-0.7-26.6-11.2c-1.4-0.9-6.9-4.1-7.5-5l16.5-0.9c-1.8-1.3-21.6-3.6-25.6-4.7l-13-2.1c1,1,0.6,0.5,2.2,1.5l6.2,3.9
			c2.7,1.7,5.5,3.4,8.4,5.2l16.5,10.3c6.5,3.8,10.2,7.3,17.6,9.5c6.8,2.1,13.8,4.1,20.5,6.2c13.7,4.4,27.7,8.2,41.3,12.7
			c6.6,2.2,13.8,4.3,20.5,6.2c5.4,1.6,16,5.6,21,5.6c-0.9-1.9-4.6-2.9-7.3-4l-23.8-10c-1.5-0.6-7.1-2.8-8-3.5
			c-1.9-1.5-3.1-3.6-4-4.4c-2.1-2-1.5-1.9-2.9-3.1c-0.8-0.7-0.7-0.5-1.3-1.5c-0.6-0.8-0.6-0.9-1.3-1.5l-5.2-5.9
			c-0.4-0.4-1.1-0.9-1.2-1.5C-435.9,761.8-435.9,761.8-436,761.7L-436,761.7z"/>
		<path fill="#A99064" d="M-636,597.7c1.1-1.6,12.5-33.7,14.2-38.3c4.1-11.3,4.6-7.6,1-20.2c-1-3.6-4.5-18.8-5.4-20.8
			c-0.9,2.7-4.8,33.2-5.6,38.9C-633.7,570.3-636.1,584.5-636,597.7z"/>
		<path fill="#DA4E3F" d="M-487.2,619.3c1.9,0.7,25.2,17,29.1,19.7c1.6,1.2,2.8,1.8,4.4,3c1.3,0.9,7.3,5.4,8.4,5.3
			c3-0.3,15.3-8,20-7.2c4.1,0.7,8.1,1.4,12.2,2.2l1.4-5.3l-8.5-3.8c-1.8-0.7-1.5-0.8-3.2,0l-17.4,7.6c-3,1.3-3,2.1-5.6,0.6
			c-1.9-1.1-9.6-5.4-10.4-6.4c-1.4-0.2-7.7-4.1-9.2-5c-3-1.8-6.1-3.4-9-5.3l-18.2-10.2c0.4,0.1,0.8,0.7,1.3,1.1L-487.2,619.3
			L-487.2,619.3z"/>
		<path fill="#1D2229" d="M-451.5,556.6c2.6,2,10.7,21.2,11.9,25.9c0.1-0.1,0.2-0.3,0.2-0.3c0.1,0.2,0.1-0.9,2.4-1.4
			c1.5-0.3-0.5,0.9,0.9-0.3c-0.1-3.1-7.1-15.9-8.8-19.2c-1.6-3-3.2-6.1-4.9-9c-3.2-5.4-1.6-4.1-7.5-6.8
			C-456.1,547.7-451.6,554.9-451.5,556.6z"/>
		<path fill="#242934" d="M-400.1,509.8c1.3,1.7,2.1,2.1,3.7,3.7l5.8,5c0.4,0.3,0.6,0.4,1,0.8c1.3,1.1,4.4,3.6,4.8,4.6
			c-6.3,0.1-11.8,1.7-17.8-0.7l-1.8,1.8c1.8,0.9,9.2,2.3,11.5,2.3c4.2-0.1,8.7-0.6,12.9-0.8l0.7-0.4l-8.9-7.5
			c-2.3-2.1-8.7-7.9-10.8-9.2C-400.2,509-399.9,509.6-400.1,509.8L-400.1,509.8z"/>
		<path fill="#F9D595" d="M-417.5,631.6l9.8,3.1l0.8-16.4c-0.7-0.4-3.8-4.8-4.3-5.8c-0.2,0.4-0.2,0,0,0.8c0.8,3.1,3.4,2.9,2.5,7.5
			c-0.5,2.4-1.1,8.9-2.1,10.4C-412.6,632.2-417,630.4-417.5,631.6z"/>
		<path fill="#212732" d="M-396.3,499.1l9.4,8.1c0.9,0.7,0.8,0.9,1.8,1.6l1.8,1.6c0.9,0.8,1.2,0.7,2.2,1.8c0-1.5,0.6-0.2-0.6-1.6
			c-0.7-0.8-0.8-0.2-3.2-2.7c-2.6-2.8-9-10.2-12-12c-0.3,0.7-0.4,0.8-0.4,1.6C-397.2,499.3-397.4,497.8-396.3,499.1L-396.3,499.1z"
			/>
		<polygon fill="#181C27" points="-469.5,528.7 -466.9,529.8 -464.8,523.8 		"/>
		<path fill="#383736" d="M-379.7,513c-0.1-0.1-0.5-0.3-0.5-0.3c-0.1,0-0.2,0-0.3-0.1s-0.2-0.1-0.3-0.1c0.3,0.5,0.1,0.3,0.6,0.7
			c0.1,0.1,0.3,0.3,0.4,0.3c0.3,0.2,0.7,0.4,1,0.6C-379.5,513.3-379.2,513.7-379.7,513z"/>
		<path fill="#5D5139" d="M-473.2,521.8c0.7-0.5,0.3,1.1,0.6-0.7L-473.2,521.8z"/>
	</g>
</g>
</svg>
