<?xml version="1.0" encoding="utf-8"?>
<!-- Generator: Adobe Illustrator 19.0.0, SVG Export Plug-In . SVG Version: 6.00 Build 0)  -->
<svg version="1.1" id="Layer_1" xmlns="http://www.w3.org/2000/svg" xmlns:xlink="http://www.w3.org/1999/xlink" x="0px" y="0px"
	 viewBox="-111 37.9 287.2 438.1" style="enable-background:new -111 37.9 287.2 438.1;" xml:space="preserve">
<style type="text/css">
	.st0{fill:#1F2227;}
	.st1{fill:#E8B761;}
	.st2{fill:#E6B661;}
	.st3{fill:#13F5FF;}
	.st4{fill:#93352B;}
	.st5{fill:#9D7D42;}
	.st6{fill:#C19951;}
	.st7{fill:#62231C;}
	.st8{fill:#8F342A;}
	.st9{fill:#E5B560;}
	.st10{fill:#D84F3F;}
	.st11{fill:#F8D393;}
	.st12{fill:#A13F33;}
	.st13{fill:#792C24;}
	.st14{fill:#A99064;}
	.st15{fill:#DA4E3F;}
	.st16{fill:#1D2229;}
	.st17{fill:#242934;}
	.st18{fill:#F9D595;}
	.st19{fill:#212732;}
	.st20{fill:#181C27;}
	.st21{fill:#383736;}
	.st22{fill:#5D5139;}
</style>
<polygon class="st0" points="146.2,198.5 142.7,291.2 141.9,315.2 137.3,317.9 133.1,333.1 101.4,342.8 63,320.6 "/>
<g id="Layer_x0020_1">
	<g id="_495804301888">
		<g>
			<path class="st1" d="M71.7,107.8c-1.9-1.8-3.6-2.9-5.5-4.4s-3.7-2.9-5.7-4.4c-1.8-1.3-3.9-2.9-5.9-4.2l-12.2-8.3
				c-4.7-2.9-15.1-9.8-19.4-11.3l29.3,21.6c2.5,1.9,9.2,7.7,11.7,8.5C66.3,106,69.5,107.4,71.7,107.8z"/>
			<path class="st1" d="M73.9,200.5l0.6-0.7C74.2,201.6,74.6,200,73.9,200.5z M73.9,200.5c-0.5,1.9-4.4,6.9-5.3,9.4l2.3,0.6
				c1.4-3.1,6-9.4,7.7-12.9l-1.7-0.9c-0.9-0.3-1.1-0.4-2-0.5l-6.2,6.6l2.6-8.1l-3.7-1.1l-7.9,13l2.4,0.9c0.4-1.3,4.9-8.8,5.7-9.8
				l-2.2,7.6l2.3,0.6l3-2.5c0.5-0.6,0.8-0.9,1.3-1.5c0.1-0.2,0.5-0.7,0.6-0.8s0.3-0.3,0.3-0.3C73.9,200.4,73.2,200.8,73.9,200.5z"/>
			<path class="st1" d="M82,214.4l2,0.7c1.8-2,3.5-6.5,5.4-8.3l-1.4,9.9l2.6,0.6l7.9-13.1l-2.3-0.6c-1.3,1.5-3.2,5.5-4.4,7.2
				c-0.2,0.3,0,0.1-0.3,0.4c-0.3,0.4-0.3,0.4-0.6,0.6l1.4-9.6l-2.8-1C88.6,204,83.1,211.4,82,214.4z"/>
			<path class="st1" d="M82.3,202.5l-2.1,6l-2.5-1.1L82.3,202.5z M71.4,210.6c2.5,1.9,3.4,0.6,4.6-1.4l3.6,1l-1,3.2l2.9,0.8
				l4.2-14.3l-3-1.1c-1.9,1.4-3.6,4.3-5.6,5.9C74.8,206.5,73.4,208.3,71.4,210.6z"/>
		</g>
		<g>
			<path class="st2" d="M46,43.1l22.8,7.5c14.5,5,29.2,11.2,41,20.6c2.7,2.2,5.8,4.4,9,6.3c1.5,0.9,3.1,2,4.7,2.9
				c0.9,0.5,4.6,2.3,5,2.7c2.6,0.7,4.6,1.9,7.7,2.4c-9.1-11.9-30.9-24-43.3-29.1c-8.9-3.6-17.4-6.5-26.6-9.6
				c-4.7-1.6-25.8-7.1-29.7-6.3L46,43.1z"/>
			<path class="st2" d="M109.7,335c-1.3-2.3-4.7-4.8-5.3-7.1l12.3-6c3.6-1.9,2.5-1.7,6.7-0.9c2.4,0.4,5.5,1.4,7.8,1.6
				c-2.5,7-1.2,6.6-8.3,8.6C119.2,332.2,113.1,334.5,109.7,335z M86.6,320.1c1.2,0.8,1.4,1.2,2.5,2l18.7,15.4c1.6,1.1,6.4-0.9,9.9-2
				c4.4-1.3,8.8-2.6,13.3-3.8l2.8-10.7c-4-0.7-8.1-1.5-12.2-2.2c-4.7-0.8-17,6.9-20,7.2c-1,0.1-7-4.4-8.4-5.3
				c-1.6-1.1-2.8-1.8-4.4-3c-3.8-2.8-27.2-19-29.1-19.7c0.5,0.5,0.8,0.7,1.5,1.3c5.6,4.9,13.6,10.9,19.3,15.8L86.6,320.1z"/>
			<path class="st2" d="M35.1,343c-0.8-0.7-0.5-0.6-1-1.4c-0.3-0.5-0.7-0.9-1.1-1.4c-1.1-1.3-1.2-1.5-2-3l-22.9-8.7
				c1.4,1.9,5.9,5.2,6.8,6.2c1.2,1.4,1.2,1.1,2.5,2.1l9,8.2l-9.1,38.8C19.9,376.9,34.8,346.3,35.1,343z"/>
		</g>
		<g>
			<path class="st3" d="M144.6,201.8c6,2.4,11.5,0.8,17.8,0.7c-0.4-0.9-3.5-3.4-4.8-4.6c-0.4-0.4-0.6-0.4-1-0.8l-5.8-5
				c-1.7-1.6-2.5-2-3.7-3.7c-1.3-0.2-3.3-2.6-4.5-3.7c-3.1-2.6-3-2-5.7-1.2c-4.5,1.3-9,2.6-13.4,4l2.8,10.2L144.6,201.8L144.6,201.8
				z"/>
			<path class="st3" d="M120,440.8c0.7,0.8,1,1.5,1.9,2.3l6.5,7.1c1,1.2,0.8,1.2,2.1,2.4c0.9,0.9,1.2,1.7,2,2.5l31.2,13.3
				c-1.3-2.1-6.5-6.4-8.5-8.2c-1-0.9-1-1.3-1.9-2.3L147,452c-4.1-3.8-5-5.2-8.4-8.3l-8.4-7.9L120,440.8L120,440.8z"/>
		</g>
		<g>
			<path class="st4" d="M-83.6,310.9l9-17.3c9.9-19.9,20.4-41.4,30.6-61c1.2-2.4,1-2-0.3-4.4c-0.7-1.4-1.2-2.8-2-4.3
				c-1.5-2.8-2.7-6.1-4.1-9.1c-3.4-6.7-19.3-42.4-20.8-44.2l20.4,53c1.6,4.3,0.6,4.3-1.2,8.6l-17.5,43.5
				C-74.1,287.2-79.4,299.4-83.6,310.9z"/>
			<path class="st4" d="M58.6,346.7l-15.7,6.1c1.3,0.6,1,0.8,2.4,2.5c0.7,0.9,1.4,1.8,2.2,2.7l10.1,12.5c1.2,1.5,2.9,2.7,3.2,4.7
				l2.9-11.5l5.3-20.9L58.6,346.7L58.6,346.7z"/>
		</g>
		<g>
			<path class="st5" d="M-71,164.6c-2-5.3-4-8.8-6-13.4l6.7,29.6c2.3,9.9,4.8,19.7,6.9,29.7c4.3,20,5.6,13.6,0.2,29
				c-9.3,26.7-18.4,54.6-27.5,81.5c-3,9-6,18.3-9.2,27.3l-9,26.9c3.9-8.2,7.7-18.7,11.4-27.6L-52,236.4c4.2-10.3,4.2-8.3,2-14.4
				c-1.8-4.8-3.5-9.6-5.2-14.4L-71,164.6L-71,164.6z"/>
			<path class="st5" d="M80.5,350.7l-31.1,4.7c-1.5,0-2.7-0.8-4.2-1.3c1,1.7,1,1.9,2.2,3.4c0.4,0.5,0.8,1,1.2,1.6
				c0.5,0.9,0.2,0.8,1.1,1.6c1.1-1,0.3-0.9,2.1-1.4c3.6-0.9,21.1-3.7,22.7-3.5c2.4-1.5,7.3-1,10.2-2.1c1.7-0.6,6.3-3.7,7.6-4.9
				L80.5,350.7L80.5,350.7z"/>
		</g>
		<g>
			<path class="st6" d="M106.5,223.8c0.6,0.9,0.4,0.9,0.7,1.8c0.9,2.7,1.4,0.3,3.1,3.5l19.5,33.7c1.1,1.9,2.3,3.7,3.1,5.6
				c0.7-0.6,0.9-1.2,1.2-2.1c0.3-0.7,0.7-1.4,0.7-2.2c0.3-2.3-17.7-68.5-17.1-70.6l-1-3.7c-0.5-0.7-0.5-1.2-0.7-2.2
				c-0.1-0.3-0.3-1.2-0.4-1.4c-0.1-0.8-0.2-0.1-0.1-1.1c-2.2-0.4-0.8-0.7-2.6-1.5c-1.4,1.3-10.3,16.5-12.4,19.2l2.5,1.5
				c-1.1,2.3-7.5,10.2-9.2,13.1c1.5,1.2,5.1,1.5,7.3,2.1C104.4,220.5,106.3,220.1,106.5,223.8z"/>
			<path class="st6" d="M115.7,185.2l30.3-8.7c-0.5-1.1-0.6-1.4-1.9-2.2c1.9,0.1,0,0.2,0.7-0.5c-1.7-0.4-3.7-4.1-4.7-5.5
				c-2.4-3.4-1.9-2.7-2.5-7.6l-1.5-12.9c-0.2-1.3-0.2-3.6-1.1-4.6c-0.6,2.2-9.7,17.4-11.6,20.9c-1.8,3.4-3.9,6.8-5.8,10.2
				c-0.8,1.5-2.1,3.5-2.9,5.1C113.8,181.5,116.3,183.3,115.7,185.2z"/>
		</g>
		<g>
			<path class="st7" d="M-79.3,376.7l9.7-25.3c-3.4,1.3-14.4,8.4-16.5,8.6l-1-39.4c-5,14.1-9.8,28.6-14.9,42.8
				c-2.5,6.8-3.1,6.8-1.9,11l9.5,33.3l2.3,0.6L-79.3,376.7L-79.3,376.7z"/>
			<path class="st7" d="M70.6,370.5l-2.2,8c0.9-0.2,2.1-0.2,3.1,0c1.6,0.4,3.8,4,5.5,6.1l18.1,23.7c0.9,1.1,0.8,1.1,2.6,1.3
				c-1.2-1.6-4.6-10.7-5.8-13.4c-4.7-11.6-11.1-29.4-17-40C73.7,357.7,71.8,367.7,70.6,370.5L70.6,370.5z"/>
		</g>
		<g>
			<path class="st8" d="M-80.5,319c-1.7-0.4-4.4-0.9-5.9-0.5l-0.7,2l1,39.4c2.1-0.2,13.1-7.2,16.5-8.6l34.4-86.3l-32.4,47.7
				c-1,1.5-4.2,5.7-4.7,7.1L-80.5,319L-80.5,319z"/>
			<path class="st8" d="M62.3,425.6c0.4-3.4,6.2-22.6,7.9-28.7c0.7-2.4,1.8-7.5,2.7-9.4l16.9,24c0.6,0.9,0.5,1,1.2,1.6l18,14.1
				c1.7,1.5,8.7,6.2,9.4,7.6c-3.4,1.1-12.5,2.3-16.4,2.7c-2.8,0.3-5.6,1-8.4,1.2c-2.3,0.2-20.4-4.2-23.3-4.9
				c-5.5-1.3-8.8-1.3-13-5.7C58.4,427,60.8,425.8,62.3,425.6L62.3,425.6z M50.5,421.7L34,422.6c0.6,0.9,6.1,4.2,7.5,5
				c16.6,10.4,9.1,7.7,26.6,11.2c7,1.4,14.2,2.7,21.2,4c5.6,1,5.4,0.8,10.9-0.2c2.7-0.4,9.4-1.4,11-2.2c0.9,0,10.7-4.7,12.3-5.6
				c-0.3-1,0.1-0.2-0.7-1.1l-9.1-8.3c-1.3-1.4,0-0.6-2.9-3.3c-2.3-2.1-4.4-4-6.7-6.2c-1.3-1.2-1.9-1.6-3.1-3.2c-0.8-1.1-2-2.3-3.3-3
				c-1.8-0.2-1.7-0.1-2.6-1.3L77,384.7c-1.7-2.1-3.9-5.7-5.5-6.1c-1-0.2-2.2-0.2-3.1,0l-12.5,43.6L50.5,421.7L50.5,421.7z"/>
		</g>
		<g>
			<path class="st9" d="M106.5,223.8c-0.8,0.4-0.4,0-1,1c1.4,0,2.3,2.8,3.9,5.6c1.2,2,2.2,4,3.5,5.9c6.4,9.9,15.1,26.8,21.2,36
				c1.6,0.3,9.1,0,10.3-0.6c1.3-1.2,10.9-28.4,12.2-32.4c4.8-14.7,6.3-18,10.4-34c-2.1,0.4-7.8,3.4-10,4.4
				c-3.1,1.4-6.5,0.1-11.6-0.8c-3.6-0.6-22-3.4-23.8-4.3c-1.3-1.6-3.1-8.7-3.9-11.1c-0.6,2,17.4,68.2,17.2,70.6
				c-0.1,0.7-0.4,1.5-0.7,2.2c-0.4,0.9-0.5,1.5-1.2,2.1c-0.8-1.9-2-3.7-3.1-5.6l-19.5-33.7c-1.7-3.2-2.2-0.8-3.1-3.5
				C106.9,224.7,107.1,224.6,106.5,223.8z"/>
			<path class="st9" d="M46.9,277.8c0.1-6.6,0.7-14.6,1.2-21.2c0.3-3.3,0.6-7.4,0.6-10.7c0-3.1,0.4-1.9,2.1-3.4
				c0.8-0.7,0.5-0.7,1.4-1.4s0.7-0.4,1.5-1.3l13.5-11.6c1.1-0.8,0.6-0.5,1.4-1.3l3-2.6c1.7-1.3,2.2-2.2,3-2.4l12.2,3.9
				c1,0.8,9.2,21.6,9.9,23.5c2.8,8.1,2.1,11,0.8,19.2c-1,6-2.2,12.3-3.7,18.3c2.9,1.4,18.6,12.6,22.6,14.9c1.3,0.8,0.9,0.2,1.8,1.3
				c1.3,1.6,3.3,3.1,5,4.4l-1.4,1c-0.4,0.2-0.9,0.3-1.3,0.4l-8.5,3c-2.1,0.8-9.5,3.9-11.2,3.2l-38.9-21.7c-3.9-2-3.9-3.8-5.9-5.5
				l-8-9.1c-0.2-0.2-0.4-0.4-0.6-0.6c0,0-0.2-0.1-0.2-0.2C47,277.8,46.9,277.8,46.9,277.8L46.9,277.8z M56.7,292.8
				c1.5,1.3,5.9,3.6,8.1,4.9c2.8,1.6,5.8,3.3,8.6,4.9c5.7,3.4,11.4,6.7,17.3,9.9l8.6,4.9c3.2,2,2.6,1.6,9.7-1.4l14.8-6.1
				c2.8-1.2,2.9,0,5.8,0.4c0.5-1.2,4.9,0.5,6.6-0.2c1-1.6,1.6-8,2.1-10.4c0.9-4.7-1.7-4.5-2.5-7.5c-0.2-0.8-0.2-0.4,0-0.8
				c-0.7-1-1-1.4-1.6-2.4c-2.7,1.4-3.4,3.3-6.8,6.2c-4.5,3.8-3.1,3.3-6.6,6.2c-1.9-0.6-23.9-13.3-24.6-14.2
				c0.6-4.1,1.9-8.4,2.5-12.7c1.4-9.3,2.8-18.7,1.2-28.1c-0.7-4.3-3.1-7.1-4.4-11c-0.2-1.7-4.7-8.9-5.7-11.1
				c5.9,2.6,4.3,1.3,7.5,6.8c1.7,2.9,3.3,6,4.9,9c1.7,3.3,8.7,16.2,8.8,19.2c2.4,2.8,2.2,9.7,1.4,13.4c-0.7,3.4-1.5,5.3-3,8.4
				c-0.5,1-1,1.4-1.3,2.3c0.9,0.7,9.7,5.2,11,5.7l3.6-3c2.6-2.9,1.4-2.1,5.8-5.6l-11.8-23.1c-0.6-0.4-15.4-28.8-17.2-32.2
				c-1.3-2.4-3.9-2.8-8.2-4.3l-27.5-10.3c2.4,3.3,6.9,3.6,10.9,6.1c-0.6,1.6-0.3,1.6-1.4,2.5l-26.4,19.2c-1.3,0.9-2.5,1.7-4,3
				c-0.5,0.8-0.1,29.3,0,32.7c0,4.2-0.7,4.6,1.6,6.8l11.4,10.8C56.6,292.4,56.2,291.8,56.7,292.8L56.7,292.8z"/>
			<path class="st9" d="M165.1,182c-2.5-2.2-5-5-6.8-7.8c-2-3.2-5-9.5-6.1-13.8c-0.8-3.4-1.1-5.4,0.4-8.3c3-5.6,2.7-17.6,8.5-20.4
				l7.3,52.5L165.1,182L165.1,182z M123.8,99.5c0.3-1.2,1.7-3.1,2.4-3.8c3.4-3.5,6.4,0.9,7.5,2.1c0.7,0.7,0.9,1,1.6,1.5l7,8
				c1.5,2,3.6,3.8,5.7,7.1l-8.9-6.3c-1.1-0.8-1.9-1.2-3-1.9c-2-1.3-3.6-2.5-6.1-3.7C128.3,101.7,125.3,100.6,123.8,99.5z
				 M133.9,90.2L118,96.7c1.1,2,0.8,1.7,2.5,2.9c1.1,0.8,1.6,1.3,2.8,2.1c5.3,3.4,18.8,11.9,23.3,16.4c1,1,1.3,1.6,2.1,2.7
				c9.6,12.8,6,19.2,0.3,32.7c-1.2,2.9-2.2,5-0.7,8c1.6,3.3,5.3,9.6,7.4,12.4c1.2,1.6,2.9,4.1,3.9,5.9c1.7,2.9,7.3,9.6,7.8,11.8
				c0.4,0.7,0.2,0.4,0.9,1c-0.3-0.2-0.7-0.4-1-0.6c-0.1-0.1-0.3-0.2-0.4-0.3c-0.5-0.4-0.2-0.2-0.6-0.7l-0.2-0.2
				c-1-1.1-1.3-1-2.2-1.8l-1.8-1.6c-1-0.7-0.9-0.9-1.8-1.6l-9.4-8.1c-1-0.5-0.6-0.4-1.5-1.2c-0.7-0.7-0.9-0.6-1.6-1.2
				c-0.9-0.8-1.7-2.3-2.8-1.6c-0.8,0.7,1.2,0.6-0.7,0.5c1.2,0.8,1.4,1.1,1.9,2.2l-30.3,8.7h-0.2c-0.2,1-0.1,0.3,0.1,1.1
				c0,0.2,0.3,1.1,0.4,1.4c0.2,0.9,0.2,1.5,0.7,2.2l1.4-3.6c3.4-1.5,8.1-2.4,11.8-3.6c2-0.6,3.9-1.2,5.9-1.8c3.4-1,3.1-1.4,5.1,0.5
				c1.5,0.3,5.9,2.9,7.7,3.9c2.2,1.3,5.4,3,7.7,4.1c10.7,4.9,8.2,6.7,16.2,6c-1-14.9-2.1-29-4.6-43.6c-1.5-9.1-3.5-20.1-6.9-28.9
				c-0.5-1.3-1.2-3-1.8-4.2l-1.5-3.1c-0.3-1.2-0.6-0.4,0.1-1c-3.3-6.9-10.6-17.4-15.9-23.8c-1.3-1.5-0.8-1.3-2.7-2.9L133.9,90.2z"/>
			<path class="st9" d="M98.8,333.1c-1.6-1.6-13-9.6-14.5-10.4c-0.2-0.5,0-0.3-0.8-0.9l-4.1-2.9c-1.8-1.3-3.6-2.6-5.5-3.9
				c-1.9-1.3-3.6-2.6-5.5-3.9l-24.2-17.6c-1-0.7-1.8-1.4-2.8-2.1c-8.2-5.7-7.1-4.5-8.3-10.1c-1-5.2-2.1-10.4-3.1-15.7l-4.3-33.5
				c3-0.5,32-15.3,35.8-16.5c-1-0.9-29.9-10.6-31.7-10.7l-8,0.5c0.8,0.9,2.7,1.6,4.7,2.7c1.7,1,3.2,1.6,4.8,2.5l9.7,5.3L14.2,229
				c0.1,1.6,1.6,7.8,2,9.6c0.7,3.2,1.5,6.6,2.1,9.7c1.3,6.5,3,13,4.2,19.5c1.2,6.3,2.9,12.9,4.1,19.2c0.7,3.8,1.2,3,5.9,6
				c19.8,12.6,42.6,25.6,62.1,38.2C96.4,332.1,97,333,98.8,333.1z"/>
			<path class="st9" d="M-57.8,100.8c-11.9-1.5-11.4,0.9-17.4,1.6c0.6-2.4,15.8-24.1,19.7-28.7l4.5-5.3l7.9-6.7
				c0.9-0.9,1.7-1.9,2.9-2.3l-3.1,4.5c-3.9,5.6-17.5,24.4-16.6,30.4c0.1,0.7,0.6,2.4,0.8,3.1l1,2.3c0.1,0.1,0.1,0.2,0.1,0.3
				c0,0.1,0.1,0.2,0.1,0.3C-57.9,100.6-57.9,100.7-57.8,100.8z M-70.6,104.8c1.6-1.8,8.6-1.3,11.1-1.3l0.4-0.4
				c2.5-3.1,8.3-12.7,10.7-16.2c4.1-6,10.4-18.6,16.5-24.6c1.3-1.3,2.4-1.9,3.8-3.1l7.7-6.2c2.5-1.8,11.2-7.1,13.4-7.3
				c2.7-3,13.8-5.5,17.3-7.8L-7,42.3c-10.2,2.9-21.5,7.7-30.3,13.2l-9.4,7l-13.2,14c-0.7,0.8-1.5,1.9-2.3,2.9l-7,9.7
				c-2.8,4.2-5.7,8.8-8,13.9c-3.4,7.3-3,10.5-1.7,18.3c0.1-0.1,0.1-0.3,0.1-0.3l0.5-2c0.1-0.9,0.3-1.8,0.5-2.7
				c0.4-1.6,0.9-3.3,1.5-4.7C-75,108.5-73.2,105.7-70.6,104.8z"/>
		</g>
		<g>
			<path class="st10" d="M52.8,186.8l11.9,4.2c2.1-2.9,22-36.8,26.2-43.8l1.2-1.6l-7.4,52.2l13.1,4.6c1.2-1.4,28.3-47,30.6-50.8
				c1.7-2.9,3.3-5.6,5.1-8.5c1.7-2.8,0.1-4.9-0.8-11.1l-6.1-2l-6.6,11.5c-2.3,3.9-4.5,7.5-6.8,11.3l-13.5,22.4
				c-0.1,0.1-0.1,0.2-0.2,0.2c0,0-0.1,0.1-0.2,0.2l7.6-52.2l-13.1-4.6L52.8,186.8z"/>
			<path class="st10" d="M-19.2,113.2c0.5-1.4,9.2-16,9.9-16.7c2.8,0.7,6.4,2.1,9.2,3.1c3.4,1.2,6.5,1.8,8.8,3.6
				c0.3,2.8-2.6,6.5-3.9,8.7c-1.1,1.9-3,6.2-5.3,6.8C-3.2,119.4-15.3,113.9-19.2,113.2z M-56.5,149.3l12.7,4.4l18.2-30.1
				c2,0.5,9.1,2.6,10.4,3.8l-6.8,34c3.8,0.4,9.9,3.7,14,4.5l5.5-35.6c2-0.1,3.5,0.9,6.1,0.3C12.1,128.8,16,119.3,21,111
				c4.6-7.7,7.1-14.5-3.5-18.5c-3.7-1.4-7.4-2.5-11.1-3.8l-21.9-7.5c-1.2,1-31.6,52.3-35.9,59.4C-52.5,142.4-56,147.7-56.5,149.3z"
				/>
			<path class="st10" d="M46.1,116.5c1.8-0.8,7.2,1.6,9.2,2.2c11.3,3.8,10.9,1.3,0,19.4c-3,5-6,10-9,15c-10.1,16.7-7.3,16-18.9,12
				c-3-1-7.9-2.2-8.3-3.8c-0.5-1.8,2.8-6.4,3.8-8l18-30C42.8,120.1,43.8,117.5,46.1,116.5z M42.6,103.5c-2.7,0.6-4.7,1.7-6.3,3.3
				c-2.5,2.5-2.4,2.1-4.4,5.4c-2.4,4.1-4.8,7.9-7.2,12c-2.1,3.5-19.9,32.2-21.3,36.5c-1.9,6,1.2,9.4,6.7,11.6
				c4.6,1.8,9.5,3.3,14.2,4.9c11.1,3.9,18.7,6.8,26.4-5.4c4.2-6.7,27.4-44.8,28.5-48.4c2.1-6.7-1.7-9.9-6.6-11.8
				c-4.3-1.7-9.8-3.5-14.2-4.9C53.3,105,48.3,102.3,42.6,103.5z"/>
			<path class="st10" d="M-71.3,170.6c1.6,1.8,17.5,37.5,20.8,44.2c1.5,2.9,2.7,6.2,4.1,9.1c0.8,1.4,1.3,2.9,2,4.3
				c1.3,2.4,1.5,2,0.3,4.4c-10.2,19.6-20.7,41.1-30.6,61l-9,17.3l-1.3,7c2.8-3.3,11.6,3.8,13.8,0.7l3.8-5.6c0.9-1.3-3.2-20.3-2.1-21
				c0.2-0.8,9.9,9.8,10.4,9l15.1-46.5c1-1.4,1.7-2.5,2.5-3.7l5.3-7.6c2.8-3.9,2.5-2.5-1.7-13.3c-6.9-17.9-13.5-37.8-20.4-55.9
				c-1.1-3-2.3-6.2-3.3-9.2c-1-2.9-2.7-6.7-3.4-9.4l106.3,37.3c-1-1.2-0.8-1.3-2.1-2.3c-3.9-3.1-3.3-3.3-5.1-4.6
				c-2.3-1.8-66.8-24.1-74.6-27.1c-4.8-1.8-25.8-8.9-28.2-10.2l-15-5.3L-71.3,170.6z"/>
			<path class="st10" d="M78.1,324.7l23.3,10.1c-0.8-0.6-1.7-1.4-2.6-1.7c-1.8-0.1-2.4-1-4-2.1c-19.4-12.6-42.3-25.6-62.1-38.2
				c-4.7-3-5.1-2.1-5.9-6c-1.2-6.3-3-12.8-4.1-19.2c-1.2-6.5-2.9-13-4.2-19.5c-0.6-3.1-1.3-6.5-2.1-9.7c-0.4-1.8-1.9-8-2-9.6
				l26.8-13.1l-9.7-5.3c-1.6-0.8-3.1-1.5-4.8-2.5c-2-1.1-3.9-1.8-4.7-2.7l8-0.5c-0.6-0.5-56.8-19.9-60.1-20.5l35.6,21
				c3.9,2.2,8.3,4.7,12,7c-1.7,1.8-11,9.1-14.3,11.7l-2.1,1.7c-0.3,0.6,19.4,63.4,21.5,68.9c0.6,1.6,0,0.8,1.3,1.5
				c1.1,0.6,2.5,1.4,3.6,2l21.7,11.7c4.6,2.7,9.6,4.9,14.3,7.7C65.3,318.6,77.5,324.1,78.1,324.7z"/>
			<path class="st10" d="M-69.2,126.1c-1.1,2.5-8.1,12.7-9.3,15.8c2.7,1.1,8.1,2.1,10,3.7l2.8,0.6c2.8-3.9,17.4-28.9,20.4-33.9
				c3.4-5.7,6.8-11.3,10.2-17l10.2-17c-1.2-1-11-4-12.6-4.6c-1.1,1.2-3.2,4.9-4.1,6.4L-69.2,126.1z"/>
			<path class="st10" d="M150.2,174.6c3.1,1.9,9.4,9.2,12,12c2.4,2.5,2.5,1.9,3.2,2.7c1.2,1.4,0.6,0.1,0.6,1.6l0.2,0.2
				c0.1,0,0.3,0,0.3,0.1c0.1,0.1,0.2,0.1,0.3,0.1c0.1,0,0.4,0.2,0.5,0.3c-0.5-2.2-6.1-8.9-7.8-11.8c-1-1.8-2.7-4.2-3.9-5.9
				c-2.1-2.8-5.8-9.2-7.4-12.4c-1.5-3-0.5-5.2,0.7-8c5.7-13.5,9.3-19.9-0.3-32.7c-0.9-1.1-1.1-1.7-2.1-2.7c-4.5-4.5-18-13-23.3-16.4
				c-1.2-0.8-1.7-1.3-2.8-2.1c-1.7-1.2-1.4-0.9-2.5-2.9L115,98l2.9,4.1c0.4,0.5,1,1.4,1.4,2.1c8.6,12.2,9.5,10.8,15.3,29.9
				c2.1,7,3.7,15.9,4.7,23.1c1.1,7.4,0.1,5.6,4.1,9.9C145.1,168.8,149.5,172.9,150.2,174.6L150.2,174.6z"/>
			<path class="st10" d="M56.7,292.8c-0.4-0.9-0.1-0.4-0.8-1.2l-11.4-10.8c-2.4-2.2-1.6-2.6-1.6-6.8c0-3.5-0.4-31.9,0-32.7
				c1.5-1.2,2.7-2.1,4-3l26.4-19.2c1.1-0.9,0.9-0.9,1.4-2.5c-4-2.5-8.6-2.8-10.9-6.1l-19.3-7.1c1.4,1.6,2.4,4.1,4.7,4.8
				c2.4,0.8,4.8,1.7,7.2,2.5c3.1,1.1,12,3.9,14.2,5.2l-42,20.2l7.7,44.8C37,282.3,55.9,292.4,56.7,292.8z"/>
			<path class="st10" d="M60.8,375.4c-0.3-2-2-3.2-3.2-4.7l-10.1-12.5c-0.7-0.9-1.4-1.8-2.2-2.7c-1.5-1.8-1.2-2-2.4-2.5L39,399
				c2.3,1.6,4.4,2.7,6.7,4.2c1.7,1,5.5,3.6,7,4.1L60.8,375.4L60.8,375.4z"/>
			<path class="st10" d="M135.8,291.3c0.5,0.9,3.7,5.4,4.3,5.8l0.2-6.5c-1.5-0.8-3.3-2.3-4.8-3.4c-0.9-0.7-4.3-3.1-4.7-3.9l-9.5,9.7
				c-0.5,0.6-0.8,1.1-1.5,1.7c-0.6,0.5-1.4,1.1-1.8,1.3l-14.1-7.1c-0.3-0.1-0.6-0.3-0.9-0.5l-0.4-0.3c-0.5-0.3-0.4-0.2-0.6-0.5
				c3.9-7.6,10.2-16.4,5.5-26.3c-1.2-4.7-9.3-23.9-11.9-25.9c1.3,3.9,3.7,6.7,4.4,11c1.5,9.4,0.2,18.8-1.2,28.1
				c-0.7,4.3-1.9,8.6-2.5,12.7c0.7,0.9,22.7,13.6,24.6,14.2c3.5-2.9,2.1-2.4,6.6-6.2c3.4-2.9,4-4.8,6.8-6.2
				C134.8,289.9,135.1,290.3,135.8,291.3z"/>
			<path class="st10" d="M116.7,189.9l1,3.7c0.8,2.5,2.6,9.5,3.9,11.1c1.8,0.9,20.2,3.7,23.8,4.3c5.1,0.9,8.5,2.2,11.6,0.8
				c2.3-1,8-4,10-4.4l0.1-0.3c-4.3,0.2-8.7,0.7-12.9,0.8c-2.2,0.1-9.7-1.4-11.5-2.3l-21.3-4.5l-3.3-12.9L116.7,189.9L116.7,189.9z"
				/>
		</g>
		<g>
			<path class="st11" d="M46.9,277.8c0.1,0.1,0.2,0.1,0.2,0.2c0,0.1,0.2,0.2,0.2,0.2c0.2,0.2,0.4,0.4,0.6,0.6l8,9.1
				c2,1.7,2.1,3.5,5.9,5.5l38.9,21.7c1.7,0.8,9.1-2.4,11.2-3.2l8.5-3c0.4-0.1,0.9-0.2,1.3-0.4l1.4-1c-1.7-1.2-3.6-2.8-5-4.4
				c-0.9-1.1-0.5-0.5-1.8-1.3c-4-2.3-19.6-13.6-22.6-14.9c1.4-6,2.7-12.3,3.7-18.3c1.3-8.2,2.1-11.1-0.8-19.2
				c-0.7-2-8.8-22.8-9.9-23.5L74.5,222c-0.8,0.1-1.3,1.1-3,2.4l-3,2.6c-0.9,0.8-0.3,0.5-1.4,1.3l-13.4,11.5
				c-0.9,0.9-0.6,0.6-1.5,1.3s-0.7,0.7-1.4,1.4c-1.7,1.5-2.1,0.3-2.1,3.4c0,3.3-0.4,7.4-0.6,10.7C47.5,263.1,46.9,271.2,46.9,277.8z
				"/>
			<path class="st11" d="M140.9,181.4l6.4,5.6c0.1,0.1,0.3,0.3,0.4,0.4c0.5,0.5,0.1,0,0.5,0.7c2.1,1.2,8.4,7.1,10.8,9.2l8.9,7.5
				l-0.7,0.4l-0.1,0.3c-4.1,16-5.6,19.2-10.4,34c-1.3,4-11,31.2-12.2,32.4c-1.2,0.6-8.7,0.8-10.3,0.6c-6.1-9.2-14.9-26.1-21.2-36
				c-1.2-1.9-2.3-4-3.5-5.9c-1.6-2.7-2.5-5.6-3.9-5.6c1.8,4.6,14.5,28.6,14.6,30.6c1.2,1.2,7.8,15.5,9.1,18.2
				c3.3,6.9,5.4,8.6,10.6,13.1c0.6,0.5,1.1,1.2,1.6,1.7l9.2-21.6c3.2-7.4,6.2-14.6,8.3-22.7c2.1-8.2,4.5-16.3,6.5-24.5
				c0.6-2.5,2.7-14,4.1-15.4l6.6-5.5c-2.5-15.2-4.6-29.9-5.7-45.4c-0.9-12.7-6.3-28.9-12.3-38.7c-0.7,0.6-0.4-0.2-0.1,1l1.5,3.1
				c0.6,1.2,1.3,2.9,1.8,4.2c3.3,8.8,5.3,19.8,6.9,28.9c2.4,14.6,3.5,28.7,4.6,43.6c-8.1,0.6-5.6-1.2-16.2-6
				c-2.3-1.1-5.5-2.8-7.7-4.1C146.8,184.3,142.4,181.7,140.9,181.4L140.9,181.4z"/>
			<path class="st11" d="M168.4,184.2l-7.3-52.5c-5.8,2.8-5.6,14.8-8.5,20.4c-1.5,2.9-1.2,4.9-0.4,8.3c1,4.3,4,10.5,6.1,13.8
				c1.8,2.8,4.3,5.6,6.8,7.8L168.4,184.2z"/>
			<polygon class="st11" points="22.6,408.9 53.3,413 35.8,404.2 39.3,353.4 			"/>
			<path class="st11" d="M-57.8,100.8c0-0.1-0.1-0.2-0.1-0.3s-0.1-0.2-0.1-0.3c0-0.1-0.1-0.2-0.1-0.3l-1-2.3
				c-0.2-0.7-0.6-2.4-0.8-3.1c-0.9-6,12.7-24.9,16.6-30.4l3.1-4.5c-1.2,0.4-2,1.4-2.9,2.3l-7.9,6.7l-4.5,5.3
				c-3.9,4.6-19.1,26.3-19.7,28.7C-69.2,101.7-69.8,99.3-57.8,100.8z"/>
			<path class="st11" d="M109.7,335c3.4-0.4,9.5-2.7,13.1-3.8c7.1-2,5.8-1.6,8.3-8.6c-2.3-0.2-5.4-1.2-7.8-1.6
				c-4.1-0.8-3.1-0.9-6.7,0.9l-12.3,6C105,330.1,108.4,332.6,109.7,335L109.7,335z"/>
			<path class="st11" d="M123.8,99.5c1.5,1,4.5,2.1,6.3,3c2.5,1.2,4.1,2.3,6.1,3.7c1.1,0.7,1.9,1.1,3,1.9l8.9,6.3
				c-2.1-3.3-4.2-5.1-5.7-7.1l-7-8c-0.7-0.5-0.9-0.8-1.6-1.5c-1.1-1.2-4.2-5.6-7.5-2.1C125.5,96.5,124.1,98.3,123.8,99.5z"/>
		</g>
		<g>
			<path class="st0" d="M39.3,353.4l-3.5,50.8l17.5,8.8l-30.7-4.1L39.3,353.4z M82,214.4c1.1-3.1,6.6-10.4,7.5-13.2l2.8,1l-1.4,9.6
				c0.3-0.3,0.3-0.2,0.6-0.6c0.3-0.3,0.1-0.1,0.3-0.4c1.2-1.7,3.1-5.7,4.4-7.2l2.3,0.6l-7.9,13.1l-2.6-0.6l1.4-9.9
				c-1.9,1.8-3.6,6.3-5.4,8.3L82,214.4z M71.4,210.6c2-2.3,3.4-4.1,5.7-5.8c2-1.5,3.6-4.4,5.6-5.9l3,1.1l-4.2,14.3l-2.9-0.8l1-3.2
				l-3.6-1C74.8,211.2,73.9,212.5,71.4,210.6z M73.9,200.5c-0.6,0.2,0-0.1-0.6,0.4c-0.1,0.1-0.3,0.3-0.3,0.3
				c-0.1,0.1-0.5,0.6-0.6,0.8c-0.5,0.6-0.8,0.9-1.3,1.5l-3,2.5l-2.3-0.6l2.2-7.6c-0.9,1-5.3,8.5-5.7,9.8l-2.4-0.9l7.9-13l3.7,1.1
				l-2.6,8.1l6.2-6.6c0.9,0.1,1.1,0.2,2,0.5l1.7,0.9c-1.7,3.5-6.3,9.8-7.7,12.9l-2.3-0.6C69.5,207.5,73.3,202.4,73.9,200.5z
				 M93.8,118.8l13.1,4.6l-7.6,52.2c0.1-0.1,0.2-0.2,0.2-0.2s0.1-0.1,0.2-0.2l13.5-22.4c2.3-3.8,4.5-7.4,6.8-11.3l6.7-11.3l6.1,2
				c0.9,6.2,2.5,8.3,0.8,11.1c-1.8,2.9-3.4,5.6-5.1,8.5c-2.3,3.8-29.4,49.4-30.6,50.8L84.8,198l7.4-52.2l-1.2,1.6
				c-4.2,7-24.1,40.9-26.2,43.8L52.9,187L93.8,118.8z M42.6,103.5c5.6-1.3,10.7,1.5,15.8,3.1c4.4,1.4,10,3.2,14.2,4.9
				c5,2,8.8,5.2,6.6,11.8c-1.1,3.6-24.3,41.7-28.5,48.4c-7.7,12.2-15.3,9.3-26.4,5.4c-4.7-1.7-9.6-3.1-14.2-4.9
				c-5.5-2.2-8.6-5.6-6.7-11.6c1.4-4.3,19.2-33,21.3-36.5c2.4-4.1,4.7-7.9,7.2-12c2-3.3,1.8-2.9,4.4-5.4
				C37.9,105.3,39.9,104.1,42.6,103.5z M-56.5,149.3c0.5-1.5,4-6.8,5.1-8.7c4.2-7,34.7-58.4,35.9-59.4l21.9,7.5
				c3.7,1.3,7.4,2.4,11.1,3.8c10.5,4,8.1,10.8,3.5,18.5c-5,8.3-8.9,17.7-17.4,19.6c-2.6,0.6-4.1-0.3-6.1-0.3L-8,165.9
				c-4.1-0.8-10.2-4.1-14-4.5l6.8-34c-1.2-1.2-8.3-3.3-10.4-3.8l-18.2,30.1L-56.5,149.3z M71.7,107.8c-2.2-0.4-5.4-1.8-7.8-2.5
				c-2.5-0.8-9.2-6.5-11.7-8.5L22.9,75.2c4.3,1.5,14.7,8.4,19.4,11.3l12.2,8.3c1.9,1.4,4,2.9,5.9,4.2c2.1,1.5,3.8,2.9,5.7,4.4
				C68.2,104.9,69.9,106,71.7,107.8z M-6.9,45.7c-2.2,0.2-10.9,5.5-13.4,7.3l-7.7,6.2c-1.4,1.2-2.5,1.8-3.8,3.1
				c-6.1,5.9-12.3,18.6-16.5,24.6c-2.4,3.5-8.2,13.1-10.7,16.2l-0.4,0.4c-2.5,0-9.6-0.5-11.1,1.3c-0.2,3.8,0.8,14,0.9,19.1
				c0,0.9-0.1,1.6,0.5,2.2l27.6-46c0.9-1.5,3-5.3,4.1-6.4c1.6,0.6,11.4,3.6,12.6,4.6l-10.2,17c-3.4,5.6-6.8,11.3-10.2,17
				c-3,5-17.6,30-20.4,33.9l-2.8-0.6c-0.7,1-0.2,0-0.1,1.3c0.1,0.9,0.1,0.9,0,1.7c2.4,1.3,23.3,8.3,28.2,10.2
				c7.8,3,72.2,25.3,74.6,27.1c1.8,1.4,1.2,1.6,5.1,4.6c1.3,1,1.1,1.1,2.1,2.3l-106.4-37.2c0.7,2.7,2.4,6.5,3.4,9.4
				c1,3,2.2,6.2,3.3,9.2c6.9,18.1,13.5,38,20.4,55.9c4.2,10.8,4.5,9.4,1.7,13.3l-5.3,7.6c-0.8,1.3-1.5,2.4-2.5,3.7L-69,291.2
				c-0.4,0.8-0.2,0.1-0.4,1c0.6,0-0.1-0.4,0.5,0.3L-85,317.9l12.7,2.2c0.5-1.4,3.7-5.6,4.7-7.1l32.4-47.7l-34.4,86.3l-9.7,25.3
				c1.5,5.5,12,45.3,13.2,46.8c8.9-2.5,25.1-8.4,35.1-11.7c5.1-1.6,32.7-11.3,35.3-11.5c2.3,2.6,16.4,12.9,20.4,16.8
				c4.1,1.1,23.9,3.4,25.6,4.7l5.5,0.5l12.6-44l2.2-8c-1.5-0.7-2.6-2-3.9-3.1c-1.6-1.4-1.7-1.7-3-3.6l-2.9,11.5l-8.1,31.8
				c-1.5-0.5-5.3-3.1-7-4.1c-2.3-1.4-4.4-2.6-6.7-4.2l3.9-46l15.7-6.1c-0.5-1.6,2.8-11.4,3.1-13.2l-5.2,1.7
				c-1.3-0.2-20.7,1.8-24,2.6c-1.6,0.4,3.6,4.3,2.5,5.2c-0.3,3.3-15.2,33.9-17.9,40.8l9.1-38.8l-9-8.2c-1.2-1-1.2-0.7-2.5-2.1
				c-0.9-1-5.3-4.3-6.8-6.2l22.9,8.7c1.4,0.4,2.5,1.1,3.9,1.1l27.6-4c-1.2-0.9,0,0-0.3-0.7c0-0.1-0.2-0.1-0.3-0.1l16.1-8.7
				c-0.6-0.7-12.8-6.2-14.7-7.3c-4.7-2.7-9.7-5-14.3-7.7l-21.7-11.7c-1.1-0.5-2.5-1.3-3.6-2c-1.3-0.7-0.7,0.1-1.3-1.5
				c-2.1-5.5-21.8-68.4-21.5-68.9l2.1-1.7c3.3-2.6,12.6-9.9,14.3-11.7c-3.7-2.4-8.1-4.8-12-7l-35.6-21c3.3,0.6,59.5,20,60.1,20.5
				c1.8,0.1,30.8,9.8,31.7,10.7c-3.8,1.2-32.8,16-35.8,16.5l4.3,33.5c1,5.2,2.1,10.4,3.1,15.7c1.1,5.7,0,4.4,8.3,10.1
				c1,0.7,1.8,1.4,2.8,2.1L68.2,311c1.9,1.3,3.6,2.6,5.5,3.9c1.9,1.3,3.6,2.6,5.5,3.9l4.1,2.9c0.8,0.6,0.6,0.5,0.8,0.9
				c0.4-1.3-0.2-0.4-0.1-1.3s1-0.8,2.3-1.3l-5.9-4.9c-5.7-5-13.7-10.9-19.3-15.8c-0.7-0.6-1-0.8-1.5-1.3l-4.7-3.7
				c-0.4-0.4-0.8-0.9-1.3-1.1l18.2,10.3c2.9,1.8,6,3.5,9,5.3c1.6,0.9,7.8,4.9,9.2,5c0,0,0.1-0.1,0.1-0.2l0.5-0.9
				c0-0.2,0.1-0.2,0.1-0.3c-5.9-3.2-11.6-6.6-17.3-9.9c-2.8-1.7-5.8-3.3-8.6-4.9c-2.2-1.2-6.6-3.5-8.1-4.9
				c-0.8-0.3-19.7-10.4-20.3-12l-7.7-44.8l42-20.2c-2.2-1.3-11.1-4.1-14.2-5.2c-2.4-0.8-4.8-1.7-7.2-2.5c-2.3-0.8-3.3-3.3-4.7-4.8
				l19.3,7.1l27.5,10.3c4.3,1.5,6.9,1.9,8.2,4.3c1.9,3.4,16.6,31.8,17.2,32.2c1.3-0.6-0.6-0.1,1.4-1c0.4-0.2,0.7-0.2,1-0.3
				c1.4-0.6-0.4,0.7,0.9-0.5c-0.1-2-12.7-26-14.6-30.6c0.6-1.1,0.2-0.6,1-1c-0.2-3.6-2.2-3.3-5.5-4.2c-2.2-0.6-5.7-0.9-7.3-2.1
				c1.7-2.9,8.2-10.8,9.2-13.1l-2.5-1.5c2.1-2.6,11-17.9,12.4-19.2c1.8,0.8,0.4,1.1,2.6,1.5h0.2c0.6-1.9-1.9-3.7-0.9-5.8
				c0.8-1.6,2-3.6,2.9-5.1c1.9-3.5,4-6.9,5.8-10.2c1.9-3.4,11-18.6,11.6-20.9c0.9,1,0.9,3.3,1.1,4.6l1.6,12.9c0.6,4.9,0,4.2,2.5,7.6
				c1,1.4,3,5.1,4.7,5.5c1.1-0.7,1.8,0.8,2.8,1.6c0.7,0.6,0.9,0.6,1.6,1.2c0.9,0.8,0.5,0.6,1.5,1.2c-1.1-1.4-0.9,0.2-1-1.7
				c0-0.8,0.1-0.9,0.4-1.6c-0.7-1.7-5.1-5.8-6.7-7.5c-4-4.3-3-2.5-4.1-9.9c-1-7.2-2.6-16.1-4.7-23.1c-5.8-19.1-6.7-17.7-15.3-29.9
				c-0.5-0.7-1.1-1.6-1.4-2.1l-2.9-4.1l2.9-1.3l15.9-6.5c-0.1-0.1-0.2-0.2-0.2-0.2c-3.2-2.7-3.9-4.6-5.5-6.1
				c0.3-0.2,0.4-0.6,0.5-0.7c-0.4-0.4-4.1-2.2-5-2.7c-1.7-0.9-3.3-2-4.7-2.9c-3.2-1.9-6.3-4.1-9-6.3c-11.8-9.4-26.5-15.6-41-20.6
				L46.2,43c-1.1,1.5-4.7,1-6.5,1C31.6,44.4-5,46.5-6.9,45.7L-6.9,45.7z"/>
			<path class="st0" d="M46.1,116.5c-2.3,1-3.3,3.6-5.2,6.8l-18,30c-0.9,1.5-4.2,6.2-3.8,8c0.4,1.7,5.4,2.8,8.3,3.8
				c11.6,4.1,8.8,4.8,18.9-12c3-5,6-10,9-15c10.9-18,11.3-15.5,0-19.4C53.3,118.1,48,115.7,46.1,116.5z"/>
			<path class="st0" d="M-19.2,113.2c3.9,0.7,16,6.2,18.7,5.5c2.3-0.6,4.2-4.9,5.3-6.8c1.3-2.2,4.3-5.9,3.9-8.7
				c-2.4-1.7-5.4-2.4-8.8-3.6c-2.9-1-6.5-2.4-9.2-3.1C-10,97.2-18.7,111.8-19.2,113.2z"/>
			<path class="st0" d="M118.1,186.2l3.4,12.9l21.3,4.5l1.8-1.8l-18.4-4l-2.8-10.2c4.4-1.3,8.9-2.6,13.4-4c2.7-0.8,2.7-1.5,5.7,1.2
				c1.2,1,3.3,3.5,4.5,3.7c0.2-0.2-0.1-0.8,1.2-0.5c-0.4-0.7,0-0.2-0.5-0.7c-0.1-0.1-0.3-0.3-0.4-0.4l-6.4-5.6
				c-2.1-1.9-1.8-1.5-5.1-0.5c-2,0.6-3.9,1.2-5.9,1.8C126.3,183.8,121.5,184.8,118.1,186.2z"/>
		</g>
		<path class="st12" d="M62.3,425.6c-1.5,0.2-3.9,1.5-5,2.6c4.2,4.5,7.5,4.4,13,5.7c2.9,0.7,21.1,5,23.3,4.9
			c2.8-0.2,5.6-0.9,8.4-1.2c3.9-0.5,13-1.6,16.4-2.7c-0.7-1.3-7.7-6.1-9.4-7.6l-18-14.1c-0.6-0.6-0.6-0.7-1.2-1.6l-16.9-24
			c-0.9,1.9-2,7-2.7,9.4C68.5,402.9,62.6,422.2,62.3,425.6z"/>
		<path class="st13" d="M111.1,440.4c-1.6,0.8-8.3,1.8-11,2.2c-5.5,0.9-5.3,1.2-10.9,0.2c-7-1.3-14.2-2.5-21.2-4
			c-17.4-3.5-10-0.7-26.6-11.2c-1.4-0.9-6.9-4.1-7.5-5l16.5-0.9c-1.8-1.3-21.6-3.6-25.6-4.7l-13-2.1c1,1,0.6,0.5,2.2,1.5l6.2,3.9
			c2.7,1.7,5.5,3.4,8.4,5.2l16.5,10.3c6.5,3.8,10.2,7.3,17.6,9.5c6.8,2.1,13.8,4.1,20.5,6.2c13.7,4.4,27.7,8.2,41.3,12.7
			c6.6,2.2,13.8,4.3,20.5,6.2c5.4,1.6,16,5.6,21,5.6c-0.9-1.9-4.6-2.9-7.3-4l-23.8-10c-1.5-0.6-7.1-2.8-8-3.5
			c-1.9-1.5-3.1-3.6-4-4.4c-2.1-2-1.5-1.9-2.9-3.1c-0.8-0.7-0.7-0.5-1.3-1.5c-0.6-0.8-0.6-0.9-1.3-1.5l-5.2-5.9
			c-0.4-0.4-1.1-0.9-1.2-1.5C111.2,440.5,111.2,440.5,111.1,440.4L111.1,440.4z"/>
		<path class="st14" d="M-80.7,290.2c1.4-2,16-43.2,18.2-49c5.3-14.5,5.9-9.7,1.3-25.9c-1.3-4.6-5.8-24.1-6.9-26.6
			c-1.2,3.5-6.1,42.5-7.2,49.8C-77.7,255.1-80.8,273.3-80.7,290.2z"/>
		<path class="st15" d="M59.9,298c1.9,0.7,25.2,17,29.1,19.7c1.6,1.2,2.8,1.8,4.4,3c1.3,0.9,7.3,5.4,8.4,5.3c3-0.3,15.3-8,20-7.2
			c4.1,0.7,8.1,1.4,12.2,2.2l1.4-5.3l-8.5-3.8c-1.8-0.7-1.5-0.8-3.2,0l-17.4,7.6c-3,1.3-3,2.1-5.6,0.6c-1.9-1.1-9.6-5.4-10.4-6.4
			c-1.4-0.2-7.7-4.1-9.2-5c-3-1.8-6.1-3.4-9-5.3l-18.2-10.2c0.4,0.1,0.8,0.7,1.3,1.1L59.9,298L59.9,298z"/>
		<path class="st16" d="M95.6,235.3c2.6,2,10.7,21.2,11.9,25.9c0.1-0.1,0.2-0.3,0.2-0.3c0.1,0.2,0.1-0.9,2.4-1.4
			c1.5-0.3-0.5,0.9,0.9-0.3c-0.1-3.1-7.1-15.9-8.8-19.2c-1.6-3-3.2-6.1-4.9-9c-3.2-5.4-1.6-4.1-7.5-6.8
			C91,226.4,95.5,233.6,95.6,235.3z"/>
		<path class="st17" d="M147,188.5c1.3,1.7,2.1,2.1,3.7,3.7l5.8,5c0.4,0.3,0.6,0.4,1,0.8c1.3,1.1,4.4,3.6,4.8,4.6
			c-6.3,0.1-11.8,1.7-17.8-0.7l-1.8,1.8c1.8,0.9,9.2,2.3,11.5,2.3c4.2-0.1,8.7-0.6,12.9-0.8l0.7-0.4l-8.9-7.5
			c-2.3-2.1-8.7-7.9-10.8-9.2C146.9,187.7,147.2,188.3,147,188.5L147,188.5z"/>
		<path class="st18" d="M129.6,310.3l9.8,3.1l0.8-16.4c-0.7-0.4-3.8-4.8-4.3-5.8c-0.2,0.4-0.2,0,0,0.8c0.8,3.1,3.4,2.9,2.5,7.5
			c-0.5,2.4-1.1,8.9-2.1,10.4C134.5,310.9,130.1,309.1,129.6,310.3z"/>
		<path class="st19" d="M150.8,177.8l9.4,8.1c0.9,0.7,0.8,0.9,1.8,1.6l1.8,1.6c0.9,0.8,1.2,0.7,2.2,1.8c0-1.5,0.6-0.2-0.6-1.6
			c-0.7-0.8-0.8-0.2-3.2-2.7c-2.6-2.8-9-10.2-12-12c-0.3,0.7-0.4,0.8-0.4,1.6C149.9,178,149.7,176.5,150.8,177.8L150.8,177.8z"/>
		<polygon class="st20" points="77.6,207.4 80.2,208.5 82.3,202.5 		"/>
		<path class="st21" d="M167.4,191.7c-0.1-0.1-0.5-0.3-0.5-0.3c-0.1,0-0.2,0-0.3-0.1s-0.2-0.1-0.3-0.1c0.3,0.5,0.1,0.3,0.6,0.7
			c0.1,0.1,0.3,0.3,0.4,0.3c0.3,0.2,0.7,0.4,1,0.6C167.6,192,167.9,192.4,167.4,191.7z"/>
		<path class="st22" d="M73.9,200.5c0.7-0.5,0.3,1.1,0.6-0.7L73.9,200.5z"/>
	</g>
</g>
</svg>
