<?xml version="1.0" encoding="utf-8"?>
<!-- Generator: Adobe Illustrator 19.0.0, SVG Export Plug-In . SVG Version: 6.00 Build 0)  -->
<svg version="1.1" id="Layer_1" xmlns="http://www.w3.org/2000/svg" xmlns:xlink="http://www.w3.org/1999/xlink" x="0px" y="0px"
	 viewBox="-162 203.5 287 358.5" style="enable-background:new -162 203.5 287 358.5;" xml:space="preserve">
<style type="text/css">
	.st0{fill:#202121;}
	.st1{fill:#161316;}
	.st2{fill:#685044;}
	.st3{fill:#5B473B;}
	.st4{fill:#CDAE92;}
	.st5{fill:#B2977F;}
	.st6{fill:#4D1A1A;}
	.st7{fill:#531D1D;}
	.st8{fill:#DBC1AB;}
	.st9{fill:#722929;}
	.st10{fill:#513930;}
	.st11{fill:#795F50;}
	.st12{fill:#3A2D25;}
	.st13{fill:#43332B;}
	.st14{fill:#6A5345;}
	.st15{fill:#695245;}
	.st16{fill:#612222;}
	.st17{fill:#842E2E;}
	.st18{fill:#B2967F;}
	.st19{fill:#CEAE92;}
	.st20{fill:#654F42;}
	.st21{fill:#B1967E;}
	.st22{fill:#5E493D;}
	.st23{fill:#65574B;}
	.st24{fill:#746253;}
	.st25{fill:#C25A5A;}
	.st26{fill:#A68D77;}
	.st27{fill:#EB0303;}
	.st28{fill:#6B5A4C;}
	.st29{fill:#320E0E;}
	.st30{fill:#862E2E;}
	.st31{fill:#AC5050;}
	.st32{fill:#A38A74;}
	.st33{fill:#8A705E;}
</style>
<g id="Layer_x0020_1">
	<g id="_494061633984">
		<g>
			<path class="st0" d="M-11.6,501.5c1.3,0.9,3.2,2.6,4.1,3.9c1.9,2.7,3.9,2.7,6.7,7.3c2.7,4.4,5.2,9.5,7.9,14l8.8,15.6l6.4-1
				c-2.9-4.9-5.8-9.7-8.8-14.6c-7.1-11.8-14.1-23.5-21.2-35.4c-3.6-6.1-6.3-9.4-10-14.8l-17-24c-0.3-0.4-0.3-0.5-0.7-0.9l-11.2-13.3
				c-0.8-0.9-1-0.6-1.8-1.7l-6.6-7.4c-0.6-0.8-0.9-1.1-1.6-2l8.5-15c-1.8-0.4-21.9-9.1-25.7-10.6c-1.9-0.7-3.1-1-3.9-2.1
				c-0.9-1.2-1.3-2.5-2-3.7c-2.9-4.9-5.7-10.3-8.5-15.4l-8.4-15.6l2.9-0.6c2.9-1.3,7.7-1.7,11.1-3c5.3-2,29.9-10.2,31.3-11.3
				l-0.4-15.5l83.7-30c5-2.2,32.8-11.1,34.5-12.6l-4.9-27.3c2.8-1.3,5.7-2.6,8.6-3.9v-9.8l-4.4-8.6h-1.9c0.4,0.4,0.8,0.7,1.2,1
				c1.1,0.9,0.9,0.5,1.8,1.7c-4.5,1-9.3,1.7-13.8,2.6c-10.6,2.1-26,8.5-36.6,12.4l-131.8,48.6c-0.5,0.2-1.2,0.6-1.7,0.9l-0.9,15.5
				l-3-2.9c-0.9-1-2-2.6-3-3.2c1.2,3.5,8.4,18.6,8.9,20.1c4.1,6.3,7.5,14.3,11.4,20.9c4,6.7,7.3,14,11.2,20.9
				c3.9,6.9,7.3,14.3,11.2,21.3c1.7,3,1.3,2.4,4.6,3.6c3.4,1.3,15.5,5.9,17,6.8l-12.6,21.7c-0.7,1.2,0.4,0.3-1.2,1l-14,6.1H-72
				l-0.2-0.2c1.4-0.7,4-0.9,5.8-1.3c7.3-1.4,4.6-1.3,7.3,1.3c3.2,3,1.4,2.8,4.1,3.3l9.2,1.6c3.1,0.5,3,1.1,4.4,2.9l1.7,2.1
				c0.5,0.6,0.4,0.3,0.9,1l9.1,11c0.5,0.6,0.4,0.5,0.8,1.1c0.4,0.5,0.3,0.1,0.7,0.9c0.9,0.9,9.7,16.8,10.5,18.4
				c1.8,3.2,3.6,6.3,5.3,9.3c1.7,3,3.8,6.2,5.1,9.2c-1.5-0.8-2.8-2.3-3.8-3.5l-3.8-3.2c-0.7-0.7-0.5-0.7-1.1-1.4
				c-0.4-0.4-0.7-0.7-1.2-1c-3.8-3.1-1.8-1.5-3.7-3.6c-0.4-0.4-0.8-0.7-1.2-1c-3.9-3.2-3.1-3.1-4.8-4.5c-3.9-3.2-3-3-4.9-4.6
				c-0.8-0.7-1.9-1.5-2.6-2.2c-0.6-0.6-0.5-0.8-1.1-1.4l-3.8-3.2c-1.1-1-0.3-0.8-2.3-2.4c-2.5-2-3.9-3.9-4.9-4.4l-4.3-4l10,14.6
				c0.2-0.5,0.4-1,0.5-1.3c1.1,0.3,2.8,2.2,3.7,3c3,2.7,2.2,2.4,3.4,3.6c2.1,2.1,5.6,4.6,7.3,6.7c3.2,3.9,7.6,7,8.9,8.6
				C-13.9,499.9-14.1,498.8-11.6,501.5L-11.6,501.5z M115.3,500.7c-3.2-1.2-6.3-2.5-6.6-2.9c-1-1-2.7-6.6-3.7-9.2l-23-64.9l2.7-3.4
				c0.9-1.3,1.4-2.1,2.4-3.3c1-1.3,1.5-2.2,2.6-3.5l14.8-20.2c0.9-1.2,1.5-2,2.4-3.3l1.4-1.9l-4.7-5.7L22.9,491
				c-0.3,0.8-0.8,4.6-0.9,5.8c-0.4,2.7-1.6,9.6-1.5,12l8.5,31.6l81.2-12.3h4L115.3,500.7L115.3,500.7z M105.4,242h-1l0.2,1.6
				L105.4,242z M56.3,234.2H56l0.3,0.3V234.2z M-95.1,444.3l-1,0.5h1V444.3z M27.1,501c-1.3-4.9-1.5-2.7,2.3-8.3l23-32.3
				c0.8-1.2,1.6-2.4,2.5-3.6c2.2-3,7.7-11.4,9.8-13.4c0.5-0.4,0.1-0.2,0.7-0.6l6.8,9c2.4,3.5,1.8,2.7,9,2.7c1.4,2.6,7.5,22.2,8.3,26
				c1.1,4.7,6.4,25.5,6.7,28l-10.1-15.7c-1-1.7-2.1-3.3-3.2-5.1l-12.8-20.5l-28.4,22.3c-0.6,0.5-0.7,0.5-1.3,1L27.1,501L27.1,501z
				 M70,437.3c0.6-0.9,0.6-1.1,1.7-1.9c0.8,0.8,4.4,10.3,4.6,11.1l-4.8-6.8C70.8,438.9,70.6,438.3,70,437.3L70,437.3z M-46.8,442.2
				c-2.8-0.5-3.9-0.3-6.1-1.7c-1.3-0.8-3.5-1.8-4.5-2.9C-49,438.4-49.9,438.3-46.8,442.2z M80.9,440.2c-5-11.3-5.4-9.7-1.3-13.6
				l20.6,58.4L80.9,440.2L80.9,440.2z M-156.7,309.5c0.2-0.5,0.4-1,0.5-1.5l-0.5,0.3V309.5z M-66.6,341.4c-1.9-0.6-2.5-0.7-3.6,0.9
				c-1.9,2.9,0.4,9.9,4.7,5.1c0.8,0.4,0.8,0.8,1.8,1.2c0-2.5-1.7-9.7-1.3-11.7l2.7-0.9l0.8,4.9l3.6-1.1l-0.6-5.1l3-0.9l1.8,13.3
				l-3.1,0.8l-0.8-5.1l-3.6,1.1c0.1,1,0.2,1.9,0.4,2.9c0.1,0.6,0.4,2.1,0.1,2.7l-2.3,0.9l-0.9-1.1c-1.3,2.6-5.2,4-7.7,2
				c-2-1.7-2.7-4.8-2.3-8.2l-2.8,0.8l1.4,10.6l-3,1l-1.5-10.4l-3,1.1l1.4,10.6l-3.1,0.9l-1.7-11.8l-0.4,12.4
				c-0.3,0.6-3.3,1.4-3.9,1.5l-2.5-8l-0.4,8.8c-0.8,0.7-2.8,1.3-3.8,1.5l-3.7-12.5l3-1c1,1.7,1.7,7.2,2.5,9.4l0.6-10.6l2.7-0.8
				l3.1,9.2l-0.1-10.3l15.1-5.2c0.3,0.5,0.1,0.4,0.3,0.8l0.3,0.7c0,0,0.1,0.2,0.1,0.2c1.6-3.8,4.4-4.6,7.9-3.1
				C-65.8,340.6-66.2,339.7-66.6,341.4z M-63.5,322.2c0,0,0.1-0.1,0.2-0.2c0-0.1,0.1-0.1,0.2-0.2l2.2,1.7c0.5-1,5.2-31.3,5.3-34.1
				l10.6-3.6c1,1.4,2.4,5,3.2,6.7l8.3,18.4c0.2,0.4,0.3,0.5,0.5,0.9c0.3,0.4,0.3,0.4,0.5,0.7l-4-29.8c6.8-1.6,17.4-8.1,24-4
				c2.8,1.8,4.8,6,4.6,10.6c-0.1,5-2.9,8.1-5.1,10.2l3.8,4.5c0.6,0.9,0.4,0.6,1.2,1.4l3.7,4.3c0.9,1,0.1,0.7,1.2,1.3l-5-38l8.7-2.8
				l4.2,30.3l13-4.3l1.1,7.5c-0.6,0.6-29.1,10.6-31.1,10.9c-1.7-1.9-2.9-3.8-4.3-5.6c-0.8-1-1.3-1.7-2.1-2.7c-0.7-1-1.5-2-2.2-2.4
				l-3.5,1.2l1.8,13.3l-15.9,5.4l-3.1-8l-9.8,3.4l-0.8,9.6c-2.4,0.2-6.6,2.3-9.2,2.9c-2.4,0.6-0.8,0.4-4,2c-1.5,0.8-2.6,1.1-4.2,1.5
				c-10.7,2.3-14.7-6.8-15.6-7.6c0.7,4.5,1,6.1-1.3,10.1c-1.2,2-3.5,4.2-6.2,5.5c-7,3.5-16.3,1.2-17.9-1.5c0.2-0.6,3.8-6,4.4-6.9
				c2.4,1.1,5.3,2.8,8.7,1.8c3.3-1,5.5-4.7,1.8-6.2c-2.4-1-6.5-1.3-9.2-2.2c-6.9-2.5-8.7-9.6-6.7-14.5c1-2.4,3-5.2,5-6.5
				c7.9-5,11.7-2.4,17.3-0.6l-3.6,7.3c-2.8-0.6-4.9-2.5-8.2-0.6c-1.1,0.6-1.9,1.7-1.9,3c0,5.2,11.5,1.2,16.8,8.6
				c-1.3-5.2-2.2-7.5-1.4-13.2c0.9-5.9,4.1-11,8.5-14c6-3.9,13.6-3.7,16.2,0.5l-4.3,6.4c-1.4-0.7-3.1-1.9-5.3-1.2
				c-5.3,1.7-6.9,9.4-5.7,14.7c0.9,3.9,2.3,7.5,5.7,8.5c1.8,0.5,4.6,0.1,6-1L-63.5,322.2z M14.6,265c3.4-0.4,42.8-15.3,48.5-16.4
				l1.1,7.9l-9.1,3c0.8,5.2,1.4,10.3,2.2,15.6c0.4,2.6,0.7,5.2,1.1,7.8c0.2,1.3,0.4,2.6,0.6,3.9c0.1,0.6,0.2,1.3,0.3,1.9l-0.2,1.5
				l-8.5,2.9l-4.2-30.4L24.5,270l1,6.6c1.6,0.1,8.9-2.9,11.2-3.5l1.2,8c-1.3,0.1-4.4,1.3-5.8,1.8c-0.9,0.3-4.9,1.6-5.4,2.1l1.1,7.7
				l13.5-4.6l1.1,7.8l-22.5,7.7L14.6,265L14.6,265z"/>
			<path class="st0" d="M-26.8,287.2l1.4,10.4c3-1,9-2.5,8.7-7.5C-17.1,283.4-22.3,286.3-26.8,287.2z"/>
			<path class="st0" d="M-50.6,311.3l6.5-2.2c-0.4-1.6-4.8-13.6-5.4-14.2L-50.6,311.3z"/>
			<g>
				<path class="st1" d="M-140.8,336.3c0.4-0.4,0.5-1.1,2-1.3c4.2-0.5,10.3,4.1,13.6,6.5c1.3,0.9,1,1.4,1.8,1.1
					c-1.7-1.9-0.9-1.8-3.6-3.8c0.8-1,0.6-0.6,2.3-1.3l-0.2-0.5c-3.7,0.9-5,0.2-7.7-1.4c-1.5-0.9-5.2-3.1-7-3.4
					c-1.3,0.8-2.6,2.2-1,3.5c-2.8,0.8-2.2-2.4-3-4c-0.5,1.5-0.7,1.9-0.5,3.5C-143.2,335.9-142.2,336.5-140.8,336.3z"/>
				<path class="st1" d="M-139.1,351c3.3,1,5.5,0.8,8.8-0.8c1.2-0.6,0.6-0.3,1.5-1.1c0,0,0.1-0.1,0.2-0.2l3.2-4.8l0.1-0.8
					C-130.9,350-137.5,349.5-139.1,351z"/>
			</g>
			<g>
				<path class="st2" d="M-53.2,391.4l-18.3-15.2l-4.3-5.2c-0.1-0.1-0.3-0.3-0.3-0.4c-0.4-0.5-0.1-0.2-0.6-0.6l5.8,10.7
					c0.7,1.1,0.1,0.5,1.6,1.3C-65.6,384.1-56,390.3-53.2,391.4z"/>
				<path class="st2" d="M-123.1,301.5c-0.5-4.8-2.3-10.8-3.2-15.7c-1.5-7.4-2-5.5-6-10.5c-0.4-0.5-0.9-0.9-1-1.2L-123.1,301.5z"/>
			</g>
			<g>
				<path class="st3" d="M-123.4,314.8c-1.1-3.7-3.3-8.6-4.8-12.3l-10-25c-0.8-2.1-1.5-4.5-2.9-5.7l-4.9-3.9
					c1.6,3.8,3.8,7.7,5.5,11.6c1.7,3.8,3.7,8.3,5.6,11.9C-130.7,298.8-127.1,307.3-123.4,314.8z"/>
				<path class="st3" d="M-49.4,425.2c0.8-0.6,5.1-13.5,5.8-15.5c-0.3-0.4-0.1-0.1-0.4-0.4c-0.3-0.3-0.4-0.3-0.4-0.4
					c-1.2,0.2-1,1.1-1.9,3.7l-3,8.4C-50.2,423.5-50.6,423.2-49.4,425.2L-49.4,425.2z"/>
			</g>
			<g>
				<path class="st4" d="M-124.7,337.6c-1.7,0.7-1.4,0.3-2.3,1.3c2.7,2,1.8,1.9,3.6,3.8l0.7,0.8c-1.6-0.3-1.7,0.1-2.8,0.7l-3.2,4.8
					c0,0-0.1,0.1-0.2,0.2c-0.8,0.8-0.3,0.5-1.5,1.1c-3.2,1.6-5.5,1.7-8.8,0.8l-0.2-1.1l-0.8,1c0.9,1.7,1.9,2.1,1.1,3.9
					c-2.7,5.9-2.5,8.1-1,14.1c0.6,2.6,2.3,6.9,1.7,9.4l-1.9,6.6c-0.7,1.6-0.1,0.5-0.8,0.8l-0.7,0.3c0-0.1-0.2,0-0.2,0.1
					c1.6,0.2,4.2,1,5.5,1.9c-2.2,0.1-4.1,0-5.8-0.9c-0.8-0.1-0.6-0.3-0.6,0.5c1.5,0.4,6.1,1.5,7,2.9c0.1-0.1,0.2-0.1,0.2-0.2
					c0.1-0.1,0.1-0.1,0.2-0.2l0.9-1.5c0.1-0.6-0.1-2-0.1-2.6l-3.5-1.8c0.3-2.2,1-4.3,1.5-6.5c0.9-4-0.8-17.1-1.3-21.5
					c1.2-0.8,3.5-1.3,5-1.8c1.9-0.6,6.2-1.4,7.4-2.7c3.1-3.4,0.4-1,4.6-5l-2.5,36.2l16.7,9.6l3.6,45.1l-4.2,3.5
					c-1.2,1-3.5,2.4-4,3.7l-12.1-4.3l4.8-22.3l-1.8-0.3c-0.7-3.6,0.1-3.4-3.2-4.8c-4.9-2-12.1-5.3-16.6-6.9
					c-0.1-3.1-0.7-7.1-0.6-10.1c0-2.4,3.4-3.5,4.3-5.6l-8,3.3c0.6,0.7,1,0.8,1.3,2.1c0.3,1.1,0.3,2.2,0.3,3.3
					c0.1,2.6,0.2,4.3-0.5,6.8c0.3,1.3-0.1,0.3,0.8,1.1l3.1,2.6c1.2,0.8,3.8,1.4,5.4,1.9c3.4,1.1,7.6,2.6,11.2,3.6l-0.2,0.4l-1.8,8.8
					c1.2-0.7,2.4-1.3,3.4-2c-0.4,1.1-1.3,1.8-1.7,2.8l-5.3,9.9l0,6.8c0.6,0.3,1,0.6,1.6,0.8c1.9-0.5,13.1,4,16,4.2
					c1.3,0.1,7.9-4.5,9.8-5.6c1.4-0.9,2.3-0.7,2.8-2.2c0.2-2.7-1.2-10.2-1.6-13.3c-0.6-4.5-1.2-8.7-1.8-13.3
					c-1.1-8.6-2.6-17.8-3.5-26.4c-1.4,0-13-5.7-13.2-5.9l-0.4,1.8c0,0.1-0.1,0.3-0.1,0.3c0,0-0.1,0.2-0.1,0.3
					c-0.3-3-0.4-5.8-0.6-8.8c-0.7-12.5,0.5-14.2,1.1-25.1c-0.2-1.2-4.9-9.5-5.8-11.3L-124.7,337.6L-124.7,337.6z"/>
				<path class="st4" d="M-80.9,420c0.5,1.2,1.1,3.1,1.4,4.3l-14.9,6.2l-3.4-33.6c1,1.8,2,6.3,2.8,8.7c3.1,9.3-0.1,7.2,10.9,12
					C-81.4,418.8-81.5,418.6-80.9,420z M-100.3,390.7c-0.3,2.8,0.4,8.9,0.7,12c0.3,4,0.7,7.9,1,12c0.4,7.6,1,15.8,1.8,23.3
					c0.8,0.3,0.4,0.4,1.6-0.3c0.4-0.3,0.6-0.5,1.2-0.8c3.5-2.1,14.7-8.9,16.6-10.4c-0.1-2.5,0-5.2-0.1-7.7c-0.1-1.5-0.1-1.6-1.3-2.3
					l-7.5-4c-4-1.9-3.3-1.9-3.9-3.8c-1.2-4-2.2-7.9-3.4-11.8c-3.1-9.9-1.2-4.6-6.7-8.6C-100.2,389.6-100,389.6-100.3,390.7
					L-100.3,390.7z"/>
			</g>
			<g>
				<path class="st5" d="M-100.3,390.7c0.3-1.1,0.1-1.1-0.2-2.3c5.5,4,3.6-1.3,6.7,8.6c1.2,3.9,2.3,7.9,3.4,11.8
					c0.6,1.9-0.1,1.8,3.9,3.8l7.5,4c1.3,0.7,1.2,0.8,1.3,2.3c0.2,2.5,0,5.2,0.1,7.7c-1.9,1.5-13.1,8.4-16.6,10.4
					c-0.5,0.3-0.7,0.5-1.2,0.8c-1.2,0.7-0.8,0.5-1.6,0.3c0,1.2,0.1,2.3,0.2,3.5c0,0.5,0,1.3,0.1,1.8c0.2,2.4-0.1,0.7,0.5,1.5
					l22.5-9.7c1.6-0.7,0.5,0.2,1.2-1l12.6-21.7c-1.6-1-13.6-5.5-17-6.8c-3.3-1.3-2.9-0.6-4.6-3.6c-3.9-6.9-7.3-14.4-11.2-21.3
					c-3.9-6.9-7.2-14.3-11.2-20.9c-4-6.6-7.3-14.6-11.4-20.9c0.2,1.3,8.7,20,10.1,22.9c2.9,6.1,2.8,6.4,3.4,13.5
					C-101.4,377.3-100.9,389.7-100.3,390.7L-100.3,390.7z"/>
				<path class="st5" d="M-126.9,442.7c1.3,1.5,0.6,0.6,3.1,2.5l8.3,6c0.7,0.5,1,0.9,1.7,1.3l16.5-7.1l-1-6.3
					c-0.4,1.5-1.3,1.3-2.8,2.2c-1.9,1.2-8.5,5.7-9.8,5.6C-113.8,446.7-124.9,442.2-126.9,442.7L-126.9,442.7z"/>
			</g>
			<g>
				<path class="st6" d="M-62.6,540.5c-0.5-0.6-7.8-5.3-9.2-5.5c0.7-1.1,2.2-2.2,3.3-3l13.2-10.1c0.5-0.4,1-0.9,1.6-1.3
					c0.9-0.7,0.9-0.7,1.7-1.2l17.9-13.9c4.8-3.8,3.5-2.6,11.4-3.1c3.7-0.3,7.5-0.5,11.2-0.8c-2.5-2.7-2.3-1.7-5.2-5.3
					c-1.3-1.6-5.7-4.6-8.9-8.6c-1.7-2.1-5.2-4.6-7.3-6.7c-1.2-1.2-0.4-0.9-3.4-3.6c-0.9-0.8-2.7-2.7-3.7-3
					c-1.6,2.9-2.5,12.5-4.4,14.9c-0.9,1.1-1.9,2.4-3,3.7l-26,32.8c-0.5,0.6-0.9,1.1-1.4,1.7c-0.8,0.9-0.9,1.1-1.6,1.9l-5.8,7.5
					L-62.6,540.5L-62.6,540.5z"/>
				<path class="st6" d="M-46.5,465.1c0.2-0.5-0.3-0.8,1.7-1c0.6,0,1.9,0.1,2.6,0.1l14,0.4c-0.4-0.8-0.3-0.4-0.7-0.9
					c-0.5-0.6-0.4-0.4-0.8-1.1l-9.1-11c-0.5-0.7-0.4-0.4-0.9-1l-1.7-2.1c-1.4-1.8-1.3-2.4-4.4-2.9l-9.2-1.6
					c-2.7-0.5-0.9-0.2-4.1-3.3c-2.7-2.6,0-2.7-7.3-1.3c-1.8,0.3-4.4,0.6-5.8,1.3l1.6,1.4c1,0.8,0.8,0.6,1.6,1.6
					c1.3,1.7,3.6,2.8,4.8,4.4c0.8,1,0.6,0.9,1.5,1.6c3.7,3,3,3.1,6.5,5.9c1.4,1.1,1.8,2.1,3.2,3.2L-46.5,465.1L-46.5,465.1z"/>
			</g>
			<g>
				<path class="st7" d="M27.1,501l13.5-10.4c0.6-0.5,0.6-0.4,1.3-1l28.4-22.3l12.8,20.5c1.1,1.8,2.2,3.4,3.2,5.1l10.1,15.7
					c-0.3-2.5-5.6-23.3-6.7-28c-0.9-3.8-6.9-23.4-8.3-26c-7.2-0.1-6.6,0.7-9-2.7l-6.8-9c-0.6,0.4-0.2,0.2-0.7,0.6
					c-2.1,2-7.6,10.4-9.8,13.4c-0.9,1.2-1.7,2.3-2.5,3.6l-23,32.3C25.6,498.3,25.8,496,27.1,501L27.1,501z"/>
				<path class="st7" d="M100.2,485l-20.6-58.4c-4.1,3.8-3.7,2.3,1.3,13.6L100.2,485z"/>
			</g>
			<g>
				<path class="st8" d="M-136,390.6l-0.4-0.1c-0.9,2.1-4.3,3.2-4.3,5.6c0,3,0.5,7,0.6,10.1c4.5,1.6,11.7,4.8,16.6,6.9
					c3.3,1.4,2.5,1.2,3.2,4.8l1.8,0.3l-4.8,22.3l12.1,4.3c0.6-1.3,2.8-2.7,4-3.7l4.2-3.5l-3.6-45.1l-16.7-9.6l2.5-36.2
					c-4.2,3.9-1.5,1.5-4.6,5c-1.2,1.3-5.6,2.1-7.4,2.7c-1.5,0.5-3.8,1-5,1.8c0.5,4.4,2.3,17.5,1.3,21.5c-0.5,2.2-1.2,4.3-1.5,6.5
					l3.5,1.8c0.1,0.6,0.2,2,0.1,2.6l-0.9,1.5c-0.1,0.1-0.2,0.1-0.2,0.2C-135.8,390.4-135.9,390.5-136,390.6z"/>
				<path class="st8" d="M-156.5,319.4c5.3,0.3,12.4-0.4,16.7-3.3c-0.3-0.6-9-19.5-10.4-20.9c-0.4,3.9-2,9.8-3,13.8
					c-0.8,3.4-4.5,7-4.8,7.9C-158.3,317.8-157.2,319-156.5,319.4z"/>
				<path class="st8" d="M-94.4,430.6l14.9-6.2c-0.3-1.2-0.9-3.1-1.4-4.3c-0.6-1.5-0.5-1.2-3.3-2.5c-11-4.8-7.8-2.6-10.9-12
					c-0.8-2.3-1.8-6.9-2.8-8.7L-94.4,430.6z"/>
			</g>
			<g>
				<path class="st9" d="M-62.6,540.5l85.4,14.2l-15.8-28c-2.7-4.6-5.2-9.6-7.9-14c-2.8-4.6-4.8-4.6-6.7-7.3c-0.9-1.3-2.8-3-4.1-3.9
					c-3.7,0.3-7.5,0.6-11.2,0.8c-7.9,0.6-6.6-0.6-11.4,3.1l-17.9,13.9c-0.7,0.5-0.8,0.5-1.7,1.2c-0.5,0.4-1,0.8-1.6,1.3l-13.2,10.1
					c-1,0.8-2.6,1.9-3.3,3C-70.4,535.2-63,539.8-62.6,540.5z"/>
				<path class="st9" d="M-58.3,334.7l0.6,5.1l-3.6,1.1l-0.8-4.9l-2.7,0.9c-0.4,2.1,1.2,9.2,1.3,11.7c-1-0.4-1.1-0.8-1.8-1.2
					c-4.3,4.7-6.6-2.3-4.7-5.1c1.1-1.6,1.6-1.5,3.6-0.9c0.4-1.7,0.7-0.9,1.2-2.6c-3.5-1.5-6.3-0.7-7.9,3.1c-0.1-0.1-0.1-0.3-0.1-0.2
					l-0.2-0.5c0-0.1-0.1-0.2-0.1-0.2c-0.2-0.4,0-0.3-0.3-0.8l-15.1,5.2l0.1,10.3l-3.1-9.2l-2.7,0.8l-0.6,10.6
					c-0.9-2.2-1.5-7.7-2.5-9.4l-3,1l3.7,12.5c1.1-0.1,3-0.7,3.8-1.5l0.4-8.8l2.5,8c0.6-0.1,3.6-0.9,3.9-1.5l0.4-12.4l1.7,11.8
					l3.1-0.9l-1.4-10.6l3-1.1l1.5,10.4l3-1l-1.4-10.6l2.8-0.8c-0.4,3.4,0.3,6.5,2.3,8.2c2.5,2,6.4,0.6,7.7-2l0.9,1.1l2.3-0.9
					c0.3-0.7,0-2.1-0.1-2.7c-0.2-1-0.3-1.8-0.4-2.9l3.6-1.1l0.8,5.1l3.1-0.8l-1.8-13.3L-58.3,334.7z"/>
				<path class="st9" d="M-46.5,465.1c1,0.5,2.4,2.4,4.9,4.4c2,1.7,1.2,1.4,2.3,2.4l3.8,3.2c0.6,0.6,0.5,0.8,1.1,1.4
					c0.7,0.7,1.8,1.5,2.6,2.2c1.9,1.6,1,1.4,4.9,4.6c1.7,1.4,0.9,1.3,4.8,4.5c0.4,0.4,0.8,0.6,1.2,1c2,2-0.1,0.5,3.7,3.6
					c0.5,0.4,0.8,0.6,1.2,1c0.6,0.7,0.4,0.7,1.1,1.4l3.8,3.2c1,1.2,2.3,2.7,3.8,3.5c-1.4-3-3.5-6.2-5.1-9.2
					c-1.7-3.1-3.5-6.2-5.3-9.3c-0.9-1.5-9.7-17.5-10.5-18.4l-14-0.4c-0.7,0-2-0.2-2.6-0.1C-46.8,464.3-46.3,464.6-46.5,465.1
					L-46.5,465.1z"/>
			</g>
			<g>
				<path class="st10" d="M-49.5,294.9c0.6,0.6,5,12.6,5.4,14.2l-6.5,2.2L-49.5,294.9z M-26.8,287.2c4.5-0.9,9.7-3.8,10.1,2.9
					c0.3,5-5.7,6.5-8.7,7.5L-26.8,287.2z M-8.2,273l5,38c-1.1-0.5-0.3-0.2-1.2-1.3l-3.7-4.3c-0.8-0.8-0.5-0.5-1.2-1.4l-3.8-4.5
					c2.2-2,5-5.2,5.1-10.2c0.1-4.7-1.8-8.9-4.6-10.6c-6.6-4.2-17.2,2.4-24,4l4,29.8c-0.2-0.2-0.2-0.2-0.5-0.7
					c-0.2-0.4-0.3-0.5-0.5-0.9l-8.3-18.4c-0.7-1.7-2.2-5.3-3.2-6.7l-10.6,3.6c-0.1,2.7-4.8,33.1-5.3,34.1l-2.2-1.7
					c-0.1,0.1-0.1,0.1-0.2,0.2c0,0.1-0.1,0.1-0.2,0.2l-3,3.3c-1.5,1.1-4.2,1.5-6,1c-3.5-1-4.8-4.6-5.7-8.5c-1.2-5.3,0.3-13,5.7-14.7
					c2.2-0.7,3.9,0.5,5.3,1.2l4.3-6.4c-2.6-4.1-10.3-4.4-16.2-0.5c-4.5,2.9-7.7,8.1-8.5,14c-0.8,5.7,0.1,8,1.4,13.2
					c-5.3-7.4-16.8-3.4-16.8-8.6c0-1.4,0.8-2.4,1.9-3c3.3-1.9,5.5,0,8.2,0.6l3.6-7.3c-5.6-1.8-9.3-4.5-17.3,0.6c-2,1.2-4,4-5,6.5
					c-2,4.9-0.1,12.1,6.7,14.5c2.6,0.9,6.8,1.2,9.2,2.2c3.7,1.6,1.5,5.3-1.8,6.2c-3.4,1-6.3-0.6-8.7-1.8c-0.7,0.9-4.2,6.3-4.4,6.9
					c1.6,2.7,10.9,5,17.9,1.5c2.7-1.4,5-3.5,6.2-5.5c2.3-4,2-5.6,1.3-10.1c0.9,0.8,4.9,9.9,15.6,7.6c1.7-0.4,2.8-0.7,4.2-1.5
					c3.2-1.6,1.7-1.4,4-2c2.6-0.6,6.8-2.7,9.2-2.9l0.8-9.6l9.8-3.4l3.1,8l15.9-5.4l-1.8-13.3l3.5-1.2c0.7,0.5,1.5,1.5,2.2,2.4
					c0.7,1,1.2,1.7,2.1,2.7c1.4,1.7,2.7,3.7,4.3,5.6c2-0.3,30.5-10.3,31.1-10.9l-1.1-7.5l-13,4.3l-4.2-30.3L-8.2,273z"/>
				<path class="st10" d="M14.6,265l5.3,38.6l22.5-7.7l-1.1-7.8l-13.5,4.6l-1.1-7.7c0.5-0.5,4.5-1.8,5.4-2.1
					c1.4-0.5,4.5-1.7,5.8-1.8l-1.2-8c-2.3,0.6-9.6,3.6-11.2,3.5l-1-6.6l21.7-7.4l4.2,30.4l8.5-2.9l0.2-1.5c0-0.6-0.2-1.3-0.3-1.9
					c-0.2-1.3-0.4-2.6-0.6-3.9c-0.4-2.6-0.7-5.2-1.1-7.8c-0.7-5.2-1.4-10.4-2.2-15.6l9.1-3l-1.1-7.9C57.4,249.7,17.9,264.7,14.6,265
					L14.6,265z"/>
			</g>
			<g>
				<path class="st11" d="M-123.1,301.5l-10.2-27.5c0.1,0.2,0.7,0.7,1,1.2c3.9,5,4.5,3.2,6,10.5
					C-125.4,290.7-123.6,296.7-123.1,301.5z M-141.7,267.2l9.6,21.2c1.3,2.9,8.8,20.2,9.7,21l2.4-2c1.1-0.8,1.2-1.3,2.3-2.2
					c5.1-3.8,20.8-13.8,26.9-17.9l13.5-9.1l24.3-20.6c0.6-0.5,0.7-0.5,1.3-0.9l9.8-8.3c0.7-0.6,0.6-0.4,1.4-1.2
					c-0.4-0.7-1.6-1.4-2.7-2.1l-8.7-5.9c-3.8-2.7-7.9-5.3-11.7-8c-3.7-2.6-2.2-2.2-7.2-1.4l-45.6,8.5c-0.8,0.4-6,6.5-7.1,7.9
					c-0.6,0.8-0.4,0.4-1.1,1.1c-0.6,0.6-0.6,0.8-1.1,1.4L-141.7,267.2z"/>
				<path class="st11" d="M-53.2,391.4c-2.8-1.1-12.4-7.3-16.2-9.3c-1.4-0.8-0.9-0.2-1.6-1.3l-5.8-10.7c0.5,0.4,0.2,0.1,0.6,0.6
					c0.1,0.1,0.3,0.3,0.3,0.4l4.3,5.2L-53.2,391.4z M-44.8,407.8c-1.7-0.2-23.6-12.7-26.8-14.5c-4.1-2.4-2.8-0.7-5.3-4.9
					c-0.6-1-1.4-2.1-2-3.1l-10.3-16.1l5.5-2l10.4,19.2c0.4,0.4,5.3,3,6.4,3.5l25.9,13.5c-0.8,4.3-2.5,9.4-3.7,13.8
					c-1.7,6.4-1.4,4,2.4,12.4c3.6,7.9,7.6,16,11.5,23.3c3.1,4.7,6.8,9.5,9.7,14.3l7.3,10.8c0.9,1.3,1.8,2.4,2.5,3.5l-28.9-57.8
					c0.3,0.3,0.6,0.5,1,0.9l1,1.1c1-1.5,4.5-12.5,5.5-15.6c0.8-2.4-1-2.2-3.8-6c-1.2-1.6-1.2-0.9-3.3-3.7c-1.1-1.5-1.1-0.7-3.3-3.7
					c-1.3-1.7-1.2-0.8-3.3-3.7c-1-1.3-0.9-0.9-2-1.8l7-35.4L-92.1,368c0.2,1.1,7.3,10.6,8.8,13.1l9,13c1.8,1.6,20.5,9.9,25.5,12.7
					l2.7,1.5C-44.6,408.4-45.8,408.8-44.8,407.8z"/>
				<path class="st11" d="M-114.5,349.1c0-3.4-1.1-7.8-2.5-10.6c-3.4-7.3-29.9-63.4-30.8-64.3c-0.6,1-1.7,3.5-2.2,4.7
					c-1.4,3.2-1.3,2.2,0.4,5.1c1.6,2.8,3.5,6.3,5,9.3c1.5,3,3.4,6.3,5,9.3c1.7,3.1,3.3,6.3,5,9.3c1.7,2.9,3.5,6.3,5,9.3
					L-114.5,349.1z"/>
			</g>
			<g>
				<path class="st12" d="M31.9,304.3c1.8-0.1,14.3,4,17.2,4.8c5.2,1.4,4.2,0.6,5.4,5.8c2.7,11.4,6.3,23.6,9,35.2l1.7,6.6
					c0.6,2.2,0.3,1.8-0.3,2.4c-0.6-1.1-3.6-4.9-4.8-5.7c-0.8-0.6-0.4-0.1-1.1-0.8l-2.4-3c-0.8-0.9-1.1-0.8-1.9-1.6
					c-1.3-1.3-2-2.6-3.5-3.8c0.5,3.3,2.1,8.3,2.9,11.7L64.9,397c0,1.5-11.8,20.7-13.4,23.6L42,437c-0.5,0.9-1,1.5-1.4,2.4L29.7,458
					c-4.2,7.5-9.5,15.9-13.6,23.3c-0.5,0.9-2.5,4.3-2.6,4.9c-0.2,0.8,5.9,20.3,6.7,22.9l0.4-0.3c-0.2-2.4,1.1-9.3,1.5-12
					c0.2-1.1,0.6-5,0.9-5.8l80.9-108.9c0.1-2.6-6.6-26.2-7.8-30.7c-2.7-10.2-5.5-20.3-8-30.5c-0.3-1.1-10.5-41.1-11.2-41.9
					c-0.8-0.8-0.4,1.1-0.9-1l-2.4-19.1c-4.1,1.7-8.1,3.6-12,5.4l4.9,27.3C64.7,293.2,36.9,302.1,31.9,304.3L31.9,304.3z"/>
				<path class="st12" d="M16.4,259.7c10.7-4,26.1-10.3,36.6-12.4c4.6-0.9,9.4-1.7,13.8-2.6c-0.9-1.2-0.7-0.8-1.8-1.7
					c-3.7-2.9-9.9-10-13.1-12.7l-4.8-4.1c-13.6-12.1-38.2-20.9-56.9-22.1c0.7,0.7,28.5,12.3,32.8,14c2.1,0.8,1.6,0.5,2.6,2.6
					c1.6,3.5,9.8,19.5,10.2,21.6c-1,0.6-1.9,1.1-2.5,1.9c-1.6,2.1-1.4,1-2.5,2.2c-1.1,1.1,0,0.6-2.3,2.1c-1.6,1.1-1,1.4-2.4,2.3
					c-3.2,2.2-0.3,0.9-3.6,3.1c-1.9,1.3-0.8,1.2-2.4,2.4c-2.6,1.8-1,0.9-2.3,2.1C17.1,259,17,258.9,16.4,259.7L16.4,259.7z"/>
			</g>
			<g>
				<path class="st13" d="M-93.8,364.2c7.2,0.6,21.6-4.7,29-6.7c4.7-1.3,9.3-2.8,13.9-4.2c6.7-2,7.4-1.1,8.7-9.5
					c2,1.1,2.2,1.7,4,3.1c0.9,0.7,0.9,1,1.8,1.7l24,20.8L-21,419l-3.7-2c1.8,5.7,4.4,11.9,6.5,17.7c2.1,5.8,4.2,11.7,6.4,17.5
					l16,43.8c2.1,5.4,1.2,2.7,2.1,3.9c0.2,0.2,1.4,3.5,1.8,4.2c2.5,5.1,22.8,46.7,24,47.7l-11.6-43l-0.4,0.3
					c-0.8-2.5-6.8-22.1-6.7-22.9c0.1-0.6,2.1-4,2.6-4.9c4.2-7.4,9.5-15.8,13.6-23.3l10.9-18.7c0.5-0.8,0.9-1.5,1.4-2.4l9.4-16.3
					c1.6-2.9,13.4-22.1,13.4-23.6l-10.6-41.2c-0.8-3.4-2.4-8.4-2.9-11.7c1.5,1.3,2.2,2.5,3.5,3.8c0.8,0.8,1,0.7,1.9,1.6l2.4,3
					c0.7,0.7,0.3,0.2,1.1,0.8c1.2,0.9,4.2,4.7,4.8,5.7c0.5-0.6,0.9-0.2,0.3-2.4l-1.7-6.6c-2.7-11.6-6.3-23.9-9-35.2
					c-1.2-5.1-0.3-4.4-5.4-5.8c-2.9-0.8-15.4-4.9-17.2-4.8l-83.7,30l0.4,15.5c-1.5,1.1-26,9.3-31.3,11.3
					C-86.1,362.5-90.9,362.9-93.8,364.2L-93.8,364.2z"/>
				<path class="st13" d="M-104.9,224.9c19-3.8,33.7-7.6,51.7,1.5c8.7,4.4,21.9,14.2,20.5,25.5c-0.5,4-5.4,8.7-8.4,11l-15.7,11.3
					c-15.9,10.3-31.8,19.3-48.5,28.5c-2,1.1-9,4.3-10.1,5.6l131.8-48.6c0.7-0.8,0.7-0.7,1.3-1.3c1.3-1.3-0.3-0.4,2.3-2.1
					c1.6-1.1,0.5-1.1,2.4-2.4c3.3-2.2,0.5-0.9,3.6-3.1c1.4-1,0.8-1.3,2.4-2.3c2.4-1.6,1.2-1,2.3-2.1c1.2-1.2,0.9-0.1,2.5-2.2
					c0.7-0.8,1.6-1.3,2.5-1.9c-0.5-2.1-8.6-18.1-10.2-21.6c-1-2.1-0.4-1.8-2.6-2.6c-4.3-1.6-32.1-13.2-32.8-14
					c-13.6-0.5-14.6-1-28,0.2c-15.8,1.4-32.4,5.9-47.1,11.4c-3.6,1.3-6.9,2.8-10.4,4.3c-1.3,0.6-7.9,3.5-9.2,4.5
					C-104.8,224.7-104.7,224.7-104.9,224.9z"/>
			</g>
			<path class="st14" d="M-32.9,432.2c1.6,2.2,3.4,3.2,4.8,6.4l20.2,46.8l-15.5-29.3c-2.5-5-5.2-10.1-7.7-14.9
				c-1.5-2.8-7.4-12.9-7.5-15.2c1.2,0.8,1.1,0.7,1.7,1.6l2.6,3.1C-33.5,431.6-33.6,431.3-32.9,432.2L-32.9,432.2z M-30.9,452.9
				c-0.5,1.4,0.9,0-0.8,1c-0.7-1.8-8.3-13.2-9.8-15.7l-1.4-2.4c-0.6-1-0.6-0.8-1.2-1.7l-3-5.5c-1.3-2.3-0.8-2.2-2.3-3.4
				c-1.2-2-0.8-1.7,0.1-4.2l3-8.4c0.9-2.6,0.6-3.4,1.9-3.7c-0.1-1.6-0.1-0.8-0.4-1c-1,1,0.2,0.6-1.3,0.4l-2.7-1.5
				c-5-2.8-23.7-11-25.5-12.7l-9-13c-1.5-2.4-8.5-12-8.8-13.1l50.4-12.1l-7,35.4c1.1,0.9,1,0.5,2,1.8c2.2,2.9,2.1,2,3.3,3.7
				c2.3,3,2.2,2.2,3.3,3.7c2.1,2.7,2.2,2.1,3.3,3.7c2.8,3.7,4.6,3.6,3.8,6c-1,3.1-4.5,14.2-5.5,15.6l-1-1.1c-0.4-0.4-0.6-0.6-1-0.9
				l28.9,57.8c-0.7-1-1.7-2.2-2.5-3.5l-7.3-10.8C-24.1,462.4-27.8,457.6-30.9,452.9L-30.9,452.9z M-93.8,364.2l-2.9,0.6l8.4,15.6
				c2.7,5.1,5.5,10.5,8.5,15.4c0.7,1.3,1.2,2.5,2,3.7c0.8,1.1,2.1,1.4,3.9,2.1c3.8,1.5,23.9,10.2,25.7,10.6l-8.5,15
				c0.7,0.9,1,1.2,1.6,2l6.6,7.4c0.8,1,1,0.8,1.8,1.7l11.2,13.3c0.3,0.4,0.3,0.5,0.7,0.9l17,24c3.7,5.4,6.3,8.7,10,14.8
				c7.1,11.9,14.1,23.6,21.2,35.4c3.6,5.9,7,11.8,10.6,17.7c1.3,2.2,10,17,10.8,17.7l-2.8-10.3c-1.2-0.9-21.5-42.6-24-47.7
				c-0.4-0.8-1.6-4-1.8-4.2c-0.9-1.3-0.1,1.5-2.1-3.9l-16-43.8c-2.2-5.8-4.3-11.7-6.4-17.5c-2.1-5.7-4.7-12-6.5-17.7l3.7,2l8.6-49.7
				l-24-20.8c-1-0.7-0.9-1-1.8-1.7c-1.8-1.4-2-2.1-4-3.1c-1.2,8.4-2,7.6-8.7,9.5c-4.6,1.4-9.2,2.9-13.9,4.2
				C-72.3,359.5-86.6,364.8-93.8,364.2L-93.8,364.2z"/>
			<path class="st15" d="M-129.6,321.2c-1.5-3-3.3-6.4-5-9.3c-1.7-2.9-3.4-6.2-5-9.3c-1.6-3-3.5-6.3-5-9.3c-1.5-3-3.4-6.6-5-9.3
				c-1.7-2.9-1.7-1.9-0.4-5.1c0.5-1.2,1.6-3.8,2.2-4.7c0.9,0.9,27.4,57,30.8,64.3c1.3,2.9,2.5,7.2,2.5,10.6L-129.6,321.2z
				 M-123.4,314.8c-3.7-7.5-7.3-16-11.4-23.5c-1.9-3.5-3.9-8.1-5.6-11.9c-1.8-3.9-3.9-7.7-5.5-11.6l4.9,3.9c1.4,1.2,2.1,3.6,2.9,5.7
				l10,25C-126.7,306.2-124.4,311.1-123.4,314.8z M-125.7,248.5c0.5-0.6,0.5-0.9,1.1-1.4c0.7-0.7,0.5-0.3,1.1-1.1
				c1.1-1.4,6.3-7.5,7.1-7.9l45.6-8.5c5-0.8,3.5-1.2,7.2,1.4c3.8,2.7,7.9,5.3,11.7,8l8.7,5.9c1,0.7,2.3,1.4,2.7,2.1
				c-0.8,0.8-0.7,0.6-1.4,1.2l-9.8,8.3c-0.5,0.4-0.7,0.4-1.3,0.9l-24.3,20.6l-13.5,9.1c-6.2,4.1-21.9,14.1-26.9,17.9
				c-1.1,0.8-1.2,1.4-2.3,2.2l-2.4,2c-0.9-0.9-8.4-18.1-9.7-21l-9.6-21.2L-125.7,248.5z M-104.9,224.9c-3.5,1-15,8.8-18.7,12
				l-4.1,3.5c-0.7,0.8-0.7,0.8-1.5,1.4c-3.3,2.7-9.5,10.2-10,10.6c-1.2,0.9-12.4,6.8-13.6,7.1l-5,26.4c0.8,0.2,4.1,2.4,4.6,3.4
				c1.2,0,1,0.3,2.5,1.4c1.2,0.9,1,0.6,1.8,1.7l7.6,13.7c1.6,3.1,3.4,6.1,5.1,9.2c1.4,2.6,4,6.8,4.9,9.3l2,3.2
				c-0.3,0.2-0.5,0.7-0.5,0.7c1.6,0.5,1.1,0.2,2,1.8c0.9,1.6,3.5,5.7,3.1,6.6l0.2,0.5l0.4-0.2c1,1.8,5.7,10,5.8,11.3
				c0.5,0.4,10.7,17.3,11.1,20.8l2.2,16.7c0.8,8.5,2.3,17.7,3.5,26.4c0.6,4.5,1.2,8.8,1.8,13.3c0.4,3.1,1.7,10.7,1.6,13.3l1,6.3
				l1.8,13.7c0.1-2.5-0.2-4.8-0.3-7.2l-0.4-5.2c-0.1-1.5-0.2-1.4,0.2-1.9c-0.7-0.7-0.3,0.9-0.5-1.5c0-0.4,0-1.2-0.1-1.8
				c-0.1-1.2-0.2-2.3-0.2-3.5c-0.8-7.6-1.3-15.8-1.8-23.3c-0.2-4-0.6-7.9-1-12c-0.3-3.1-1-9.1-0.7-12c-0.6-1-1.2-13.4-1.4-15.7
				c-0.6-7.1-0.5-7.4-3.4-13.5c-1.4-2.9-9.9-21.6-10.1-22.9c-0.4-1.5-7.7-16.6-8.9-20.1c1.1,0.6,2.2,2.2,3,3.2l3,2.9l0.9-15.5
				c0.5-0.3,1.2-0.7,1.7-0.9c1.1-1.3,8.1-4.5,10.1-5.6c16.7-9.2,32.6-18.2,48.5-28.5l15.7-11.3c3-2.3,7.9-7,8.4-11
				c1.3-11.2-11.8-21-20.5-25.5C-71.2,217.3-86,221.2-104.9,224.9L-104.9,224.9z"/>
			<path class="st16" d="M108.7,497.8c0.1-4.5-0.7-11.6-1.2-16.2c-0.5-5.1-0.7-10.4-1.2-15.6c-0.2-3-3.2-38.2-2.9-39.4l10.5-15
				c0.7-0.9,1.1-1.6,1.8-2.6l4.4-6.1c2.7-3.8-1.3-8.5-1.9-14.3c0.2,0.2,0.7,0.7,1.1,1.1c0.5,0.6,0.5,0.6,1,1.2l2,2.4
				c4,5.1,1.7,2.2,2.4,6.8c0.5-1.8,0.1-4.3,0.2-6.3c0.1-5-0.2-3.6-4.1-9.1c-1-1.4-1.9-2.7-3-4l-8.5-11.5c-0.9-1.3-2-3.1-3-4
				c0.5,2.9,5.3,16.7,5.3,17.9c0,0.7-1.6,2.7-2.2,3.5l-2.6,3.5c-0.9,1.3-1.6,2.1-2.4,3.3l-14.8,20.2c-1,1.3-1.6,2.2-2.6,3.5
				c-1,1.2-1.5,2-2.4,3.3l-2.7,3.4l23,64.9C106,491.2,107.7,496.7,108.7,497.8L108.7,497.8z"/>
			<path class="st17" d="M108.7,497.8c0.6,0.8,12.6,5.3,14.3,5.6l1.7-103.3c-0.7-4.5,1.6-1.7-2.4-6.8l-2-2.4c-0.5-0.6-0.5-0.7-1-1.2
				c-0.3-0.4-0.9-0.9-1.1-1.1c0.6,5.8,4.6,10.5,1.9,14.3l-4.4,6.1c-0.7,1-1.2,1.7-1.8,2.6l-10.5,15c-0.3,1.2,2.7,36.4,2.9,39.4
				c0.4,5.2,0.7,10.5,1.2,15.6C108,486.2,108.8,493.3,108.7,497.8L108.7,497.8z"/>
			<path class="st18" d="M-149.4,384.4l-1.1-1.1c-0.1-0.1-0.2-0.2-0.2-0.3c1.6,0.4,2.9,0.7,4.6,1.4c1.5,0.6,2.4,1.6,4,1.8
				c0.1,0,0.2-0.2,0.2-0.1l0.7-0.3c0.7-0.4,0.1,0.7,0.8-0.8l1.9-6.6c0.7-2.5-1-6.8-1.7-9.4c-1.4-6-1.7-8.2,1-14.1
				c0.8-1.8-0.2-2.2-1.1-3.9c-2-3-0.5-6.8-1.4-9.2c-1-3-6.9-2.1-3.9-12.4c-2.1,0.5-3.3,1.3-5.3,0.6c-1.5-0.5-3-1.3-4.6-1.8
				c1.1,2.4,2.4,4.2,3.6,6.6c1,1.9,2.7,4.4,3.4,6.1c0.6,1.5-1.3,5.2-1.9,7c-3.1,8.8-7.7,20.4-10.3,28.5c-0.6,1.9,0.8,5.2,1.9,7
				C-153.5,383.3-156.3,381.7-149.4,384.4z"/>
			<path class="st19" d="M-156.5,319.4c-0.7-0.5-1.7-1.6-1.5-2.5c0.3-0.9,4-4.5,4.8-7.9c1-4.1,2.6-9.9,3-13.8
				c1.4,1.4,10.2,20.3,10.4,20.9C-144.1,319-151.2,319.8-156.5,319.4z M-160.6,385.9c1.6-0.2,3.3-0.8,4.7-1.1
				c2.7-0.6,1.9-1.1,4.7-0.1c1.6,0.6,7,2.2,8.1,3c0-0.8-0.2-0.6,0.6-0.5c-2.4-1.1-4.2-2.2-6.9-2.7c-6.9-2.7-4.1-1.1-9.2-1.1
				c-1-1.8-2.5-5.1-1.9-7c2.6-8.2,7.2-19.7,10.3-28.5c0.6-1.8,2.6-5.5,1.9-7c-0.7-1.7-2.5-4.3-3.4-6.1c-1.2-2.4-2.5-4.2-3.6-6.6
				c1.5,0.5,3.1,1.3,4.6,1.8c2,0.7,3.2-0.1,5.3-0.6c-3,10.3,2.8,9.3,3.9,12.4c0.8,2.4-0.6,6.2,1.4,9.2l0.8-1
				c0.8-1.8-0.5-3.3,1.2-4.2c-0.5-1.4-1.2-2.3-1.4-4c-0.2-1.5,0-3.2-0.2-4.7l-1-0.6c-1.4,0.2-2.4-0.4-3.2-1c-0.2-1.6,0-2,0.5-3.5
				c0.8,1.6,0.2,4.7,3,4c-1.6-1.3-0.3-2.8,1-3.5c1.7,0.3,5.4,2.5,7,3.4c2.7,1.6,4,2.3,7.7,1.4c0.4-0.9-2.3-5-3.1-6.6
				c-0.9-1.6-0.3-1.2-2-1.8l-10.3-4.3l-9.4,4.4c-2.2-1.2-4.8-2.8-7-4.3c1.9-1.3,15.6-3.9,18.7-4.3c1.3,0.8,2.2,1.6,3.5,2.4l3.1,2.2
				c-0.8-2.5-3.5-6.7-4.9-9.3c-1.6-3.1-3.5-6.2-5.1-9.2l-7.6-13.7c-0.8-1.2-0.6-0.8-1.8-1.7c-1.4-1.1-1.2-1.4-2.5-1.4
				c-0.1,4-1.3,9.9-1.9,14c-1.4,9.4-7,14.7-6.1,17.2l7.8,16.4c2.7,6,3.6,4.6,1.1,12.1c-1.1,3.2-9.7,28.6-9.6,30
				C-162,380.8-160.9,384-160.6,385.9z"/>
			<path class="st20" d="M-44.8,407.8c0.3,0.3,0.3-0.6,0.4,1c0,0.1,0.1,0.1,0.4,0.4c0.3,0.3,0.1,0,0.4,0.4c-0.7,2.1-5,14.9-5.8,15.5
				c1.6,1.2,1,1,2.3,3.4l3,5.5c0.6,0.9,0.6,0.7,1.2,1.7l1.4,2.4c1.5,2.5,9.1,13.9,9.8,15.7c1.7-1,0.3,0.5,0.8-1
				c-4-7.3-7.9-15.4-11.5-23.3c-3.9-8.4-4.1-6-2.4-12.4c1.1-4.3,2.9-9.5,3.7-13.8L-67.1,390c-1-0.6-6-3.1-6.4-3.5l-10.4-19.2l-5.5,2
				l10.3,16.1c0.6,1,1.4,2.1,2,3.1c2.5,4.2,1.2,2.5,5.3,4.9C-68.4,395.2-46.5,407.7-44.8,407.8L-44.8,407.8z"/>
			<path class="st21" d="M-105,386.1l-2.2-16.7c-0.4-3.5-10.6-20.4-11.1-20.8c-0.6,11-1.9,12.6-1.1,25.1c0.2,3,0.3,5.8,0.6,8.8
				c0-0.1,0.1-0.3,0.1-0.3c0,0,0.1-0.2,0.1-0.3l0.4-1.8C-118,380.3-106.5,386-105,386.1z"/>
			<path class="st22" d="M-7.9,485.3l-20.2-46.8c-1.4-3.2-3.1-4.2-4.8-6.4c-0.7-0.9-0.5-0.6-1.3-1.5l-2.6-3.1
				c-0.7-0.9-0.5-0.8-1.7-1.6c0.1,2.3,6,12.4,7.5,15.2c2.5,4.8,5.3,9.9,7.7,14.9L-7.9,485.3L-7.9,485.3z"/>
			<path class="st23" d="M-130,328.6c0,0,0.2-0.5,0.5-0.7l-2-3.2l-3.1-2.2c-1.3-0.8-2.2-1.5-3.5-2.4c-3.2,0.4-16.8,3-18.7,4.3
				c2.1,1.5,4.7,3.1,7,4.3l9.4-4.4L-130,328.6z"/>
			<path class="st24" d="M-160.6,385.9c0.7,1.3,0.8,1,3.6,2.1c1.4,0.6,2.8,1.3,4.2,1.8c2.9,1.2,5.7,2.8,8.3,3.9l8-3.3l0.4,0.1
				c-1-1.4-5.5-2.5-7-2.9c-1.1-0.8-6.5-2.4-8.1-3c-2.8-1-2-0.5-4.7,0.1C-157.3,385.1-159,385.7-160.6,385.9z"/>
			<path class="st25" d="M-138.9,413.1l8.6,2.3c-0.8,1.8-1.6,1.7-3.5,2.8l-1.1,0.7c0,0.9,0,1.9-0.1,2.9c0,0.4,0,1.2,0,1.6
				c0.1,1.3-0.1,0.5,0.3,1.4c2.1-1.6,0.8-1.6,5.5-4.8l4.4-3.2c0.9-0.7,0.9-0.5,1.7-1.2l0.2-0.4c-3.5-1-7.8-2.4-11.2-3.6
				c-1.6-0.5-4.2-1.1-5.4-1.9l-3.1-2.6c-0.9-0.8-0.5,0.2-0.8-1.1l-1.4,4.6C-142.9,411.3-140.7,412.9-138.9,413.1L-138.9,413.1z"/>
			<path class="st26" d="M-134.7,424.8l6.1,1.9l0.2,8.4l5.3-9.9c-1,0.7-2.9,1.5-4.5,1.1c0.6-0.6,0.7-0.5,1.5-1.1l1.2-1l1.8-8.8
				c-0.8,0.7-0.9,0.6-1.7,1.2l-4.4,3.2C-133.9,423.2-132.6,423.2-134.7,424.8L-134.7,424.8z"/>
			<path class="st27" d="M-138.1,345.7c0.6,0.7,1.1,1.5,2.1,2.1c2.3-0.6,6.4-3.4,7.6-4.6l-1.4-1.8l2.1,0c-3-1.3-8.5-4.5-12.1-4.4
				c0.3,1.5,0,3.2,0.2,4.7C-139.3,343.4-138.6,344.2-138.1,345.7z"/>
			<path class="st28" d="M-140.8,336.3l1,0.6c3.6,0,9.1,3.1,12.1,4.4l-2.1,0l1.4,1.8c-1.2,1.3-5.2,4-7.6,4.6c-1-0.6-1.5-1.4-2.1-2.1
				c-1.7,0.9-0.4,2.4-1.2,4.2l0.2,1.1c1.6-1.4,8.2-0.9,13.7-7.6l-0.1,0.8c1.1-0.6,1.2-0.9,2.8-0.7l-0.7-0.8
				c-0.8,0.3-0.5-0.2-1.8-1.1c-3.3-2.4-9.4-7-13.6-6.5C-140.3,335.2-140.4,335.9-140.8,336.3z"/>
			<path class="st29" d="M-46.8,442.2c-3-3.8-2.2-3.7-10.7-4.5c1,1.1,3.2,2,4.5,2.9C-50.8,441.8-49.6,441.6-46.8,442.2z"/>
			<path class="st30" d="M70,437.3c0.6,1,0.9,1.5,1.5,2.4l4.8,6.8c-0.3-0.8-3.8-10.3-4.6-11.1C70.6,436.3,70.6,436.4,70,437.3z"/>
			<path class="st31" d="M-134.9,418.9l1.1-0.7c1.9-1.1,2.7-1,3.5-2.8l-8.6-2.3c0.9,1,4.3,2.6,5.5,2.9c-0.4,0.7,0,0.1-0.5,0.6
				C-135.1,417.7-134.9,417.2-134.9,418.9z"/>
			<path class="st32" d="M-149.4,384.4c2.7,0.5,4.6,1.6,6.9,2.7c1.8,0.9,3.7,1,5.8,0.9c-1.2-0.9-3.8-1.7-5.5-1.9
				c-1.6-0.1-2.5-1.2-4-1.8c-1.7-0.7-3-1-4.6-1.4c0.1,0.1,0.2,0.2,0.2,0.3L-149.4,384.4z"/>
			<path class="st33" d="M-124.9,424.3l-1.2,1c-0.8,0.5-0.9,0.5-1.5,1.1c1.6,0.3,3.5-0.5,4.5-1.1c0.4-1.1,1.2-1.8,1.7-2.8
				C-122.5,423-123.7,423.7-124.9,424.3L-124.9,424.3z"/>
		</g>
		<g>
			<path class="st0" d="M-11.6,501.5c1.3,0.9,3.2,2.6,4.1,3.9c1.9,2.7,3.9,2.7,6.7,7.3c2.7,4.4,5.2,9.5,7.9,14l8.8,15.6l6.4-1
				c-2.9-4.9-5.8-9.7-8.8-14.6c-7.1-11.8-14.1-23.5-21.2-35.4c-3.6-6.1-6.3-9.4-10-14.8l-17-24c-0.3-0.4-0.3-0.5-0.7-0.9l-11.2-13.3
				c-0.8-0.9-1-0.6-1.8-1.7l-6.6-7.4c-0.6-0.8-0.9-1.1-1.6-2l8.5-15c-1.8-0.4-21.9-9.1-25.7-10.6c-1.9-0.7-3.1-1-3.9-2.1
				c-0.9-1.2-1.3-2.5-2-3.7c-2.9-4.9-5.7-10.3-8.5-15.4l-8.4-15.6l2.9-0.6c2.9-1.3,7.7-1.7,11.1-3c5.3-2,29.9-10.2,31.3-11.3
				l-0.4-15.5l83.7-30c5-2.2,32.8-11.1,34.5-12.6l-4.9-27.3c2.8-1.3,5.7-2.6,8.6-3.9v-9.8l-4.4-8.6h-1.9c0.4,0.4,0.8,0.7,1.2,1
				c1.1,0.9,0.9,0.5,1.8,1.7c-4.5,1-9.3,1.7-13.8,2.6c-10.6,2.1-26,8.5-36.6,12.4l-131.8,48.6c-0.5,0.2-1.2,0.6-1.7,0.9l-0.9,15.5
				l-3-2.9c-0.9-1-2-2.6-3-3.2c1.2,3.5,8.4,18.6,8.9,20.1c4.1,6.3,7.5,14.3,11.4,20.9c4,6.7,7.3,14,11.2,20.9
				c3.9,6.9,7.3,14.3,11.2,21.3c1.7,3,1.3,2.4,4.6,3.6c3.4,1.3,15.5,5.9,17,6.8l-12.6,21.7c-0.7,1.2,0.4,0.3-1.2,1l-14,6.1H-72
				l-0.2-0.2c1.4-0.7,4-0.9,5.8-1.3c7.3-1.4,4.6-1.3,7.3,1.3c3.2,3,1.4,2.8,4.1,3.3l9.2,1.6c3.1,0.5,3,1.1,4.4,2.9l1.7,2.1
				c0.5,0.6,0.4,0.3,0.9,1l9.1,11c0.5,0.6,0.4,0.5,0.8,1.1c0.4,0.5,0.3,0.1,0.7,0.9c0.9,0.9,9.7,16.8,10.5,18.4
				c1.8,3.2,3.6,6.3,5.3,9.3c1.7,3,3.8,6.2,5.1,9.2c-1.5-0.8-2.8-2.3-3.8-3.5l-3.8-3.2c-0.7-0.7-0.5-0.7-1.1-1.4
				c-0.4-0.4-0.7-0.7-1.2-1c-3.8-3.1-1.8-1.5-3.7-3.6c-0.4-0.4-0.8-0.7-1.2-1c-3.9-3.2-3.1-3.1-4.8-4.5c-3.9-3.2-3-3-4.9-4.6
				c-0.8-0.7-1.9-1.5-2.6-2.2c-0.6-0.6-0.5-0.8-1.1-1.4l-3.8-3.2c-1.1-1-0.3-0.8-2.3-2.4c-2.5-2-3.9-3.9-4.9-4.4l-4.3-4l10,14.6
				c0.2-0.5,0.4-1,0.5-1.3c1.1,0.3,2.8,2.2,3.7,3c3,2.7,2.2,2.4,3.4,3.6c2.1,2.1,5.6,4.6,7.3,6.7c3.2,3.9,7.6,7,8.9,8.6
				C-13.9,499.9-14.1,498.8-11.6,501.5L-11.6,501.5z M115.3,500.7c-3.2-1.2-6.3-2.5-6.6-2.9c-1-1-2.7-6.6-3.7-9.2l-23-64.9l2.7-3.4
				c0.9-1.3,1.4-2.1,2.4-3.3c1-1.3,1.5-2.2,2.6-3.5l14.8-20.2c0.9-1.2,1.5-2,2.4-3.3l1.4-1.9l-4.7-5.7L22.9,491
				c-0.3,0.8-0.8,4.6-0.9,5.8c-0.4,2.7-1.6,9.6-1.5,12l8.5,31.6l81.2-12.3h4L115.3,500.7L115.3,500.7z M105.4,242h-1l0.2,1.6
				L105.4,242z M56.3,234.2H56l0.3,0.3V234.2z M-95.1,444.3l-1,0.5h1V444.3z M27.1,501c-1.3-4.9-1.5-2.7,2.3-8.3l23-32.3
				c0.8-1.2,1.6-2.4,2.5-3.6c2.2-3,7.7-11.4,9.8-13.4c0.5-0.4,0.1-0.2,0.7-0.6l6.8,9c2.4,3.5,1.8,2.7,9,2.7c1.4,2.6,7.5,22.2,8.3,26
				c1.1,4.7,6.4,25.5,6.7,28l-10.1-15.7c-1-1.7-2.1-3.3-3.2-5.1l-12.8-20.5l-28.4,22.3c-0.6,0.5-0.7,0.5-1.3,1L27.1,501L27.1,501z
				 M70,437.3c0.6-0.9,0.6-1.1,1.7-1.9c0.8,0.8,4.4,10.3,4.6,11.1l-4.8-6.8C70.8,438.9,70.6,438.3,70,437.3L70,437.3z M-46.8,442.2
				c-2.8-0.5-3.9-0.3-6.1-1.7c-1.3-0.8-3.5-1.8-4.5-2.9C-49,438.4-49.9,438.3-46.8,442.2z M80.9,440.2c-5-11.3-5.4-9.7-1.3-13.6
				l20.6,58.4L80.9,440.2L80.9,440.2z M-156.7,309.5c0.2-0.5,0.4-1,0.5-1.5l-0.5,0.3V309.5z M-66.6,341.4c-1.9-0.6-2.5-0.7-3.6,0.9
				c-1.9,2.9,0.4,9.9,4.7,5.1c0.8,0.4,0.8,0.8,1.8,1.2c0-2.5-1.7-9.7-1.3-11.7l2.7-0.9l0.8,4.9l3.6-1.1l-0.6-5.1l3-0.9l1.8,13.3
				l-3.1,0.8l-0.8-5.1l-3.6,1.1c0.1,1,0.2,1.9,0.4,2.9c0.1,0.6,0.4,2.1,0.1,2.7l-2.3,0.9l-0.9-1.1c-1.3,2.6-5.2,4-7.7,2
				c-2-1.7-2.7-4.8-2.3-8.2l-2.8,0.8l1.4,10.6l-3,1l-1.5-10.4l-3,1.1l1.4,10.6l-3.1,0.9l-1.7-11.8l-0.4,12.4
				c-0.3,0.6-3.3,1.4-3.9,1.5l-2.5-8l-0.4,8.8c-0.8,0.7-2.8,1.3-3.8,1.5l-3.7-12.5l3-1c1,1.7,1.7,7.2,2.5,9.4l0.6-10.6l2.7-0.8
				l3.1,9.2l-0.1-10.3l15.1-5.2c0.3,0.5,0.1,0.4,0.3,0.8l0.3,0.7c0,0,0.1,0.2,0.1,0.2c1.6-3.8,4.4-4.6,7.9-3.1
				C-65.8,340.6-66.2,339.7-66.6,341.4z M-63.5,322.2c0,0,0.1-0.1,0.2-0.2c0-0.1,0.1-0.1,0.2-0.2l2.2,1.7c0.5-1,5.2-31.3,5.3-34.1
				l10.6-3.6c1,1.4,2.4,5,3.2,6.7l8.3,18.4c0.2,0.4,0.3,0.5,0.5,0.9c0.3,0.4,0.3,0.4,0.5,0.7l-4-29.8c6.8-1.6,17.4-8.1,24-4
				c2.8,1.8,4.8,6,4.6,10.6c-0.1,5-2.9,8.1-5.1,10.2l3.8,4.5c0.6,0.9,0.4,0.6,1.2,1.4l3.7,4.3c0.9,1,0.1,0.7,1.2,1.3l-5-38l8.7-2.8
				l4.2,30.3l13-4.3l1.1,7.5c-0.6,0.6-29.1,10.6-31.1,10.9c-1.7-1.9-2.9-3.8-4.3-5.6c-0.8-1-1.3-1.7-2.1-2.7c-0.7-1-1.5-2-2.2-2.4
				l-3.5,1.2l1.8,13.3l-15.9,5.4l-3.1-8l-9.8,3.4l-0.8,9.6c-2.4,0.2-6.6,2.3-9.2,2.9c-2.4,0.6-0.8,0.4-4,2c-1.5,0.8-2.6,1.1-4.2,1.5
				c-10.7,2.3-14.7-6.8-15.6-7.6c0.7,4.5,1,6.1-1.3,10.1c-1.2,2-3.5,4.2-6.2,5.5c-7,3.5-16.3,1.2-17.9-1.5c0.2-0.6,3.8-6,4.4-6.9
				c2.4,1.1,5.3,2.8,8.7,1.8c3.3-1,5.5-4.7,1.8-6.2c-2.4-1-6.5-1.3-9.2-2.2c-6.9-2.5-8.7-9.6-6.7-14.5c1-2.4,3-5.2,5-6.5
				c7.9-5,11.7-2.4,17.3-0.6l-3.6,7.3c-2.8-0.6-4.9-2.5-8.2-0.6c-1.1,0.6-1.9,1.7-1.9,3c0,5.2,11.5,1.2,16.8,8.6
				c-1.3-5.2-2.2-7.5-1.4-13.2c0.9-5.9,4.1-11,8.5-14c6-3.9,13.6-3.7,16.2,0.5l-4.3,6.4c-1.4-0.7-3.1-1.9-5.3-1.2
				c-5.3,1.7-6.9,9.4-5.7,14.7c0.9,3.9,2.3,7.5,5.7,8.5c1.8,0.5,4.6,0.1,6-1L-63.5,322.2z M14.6,265c3.4-0.4,42.8-15.3,48.5-16.4
				l1.1,7.9l-9.1,3c0.8,5.2,1.4,10.3,2.2,15.6c0.4,2.6,0.7,5.2,1.1,7.8c0.2,1.3,0.4,2.6,0.6,3.9c0.1,0.6,0.2,1.3,0.3,1.9l-0.2,1.5
				l-8.5,2.9l-4.2-30.4L24.5,270l1,6.6c1.6,0.1,8.9-2.9,11.2-3.5l1.2,8c-1.3,0.1-4.4,1.3-5.8,1.8c-0.9,0.3-4.9,1.6-5.4,2.1l1.1,7.7
				l13.5-4.6l1.1,7.8l-22.5,7.7L14.6,265L14.6,265z"/>
			<path class="st0" d="M-26.8,287.2l1.4,10.4c3-1,9-2.5,8.7-7.5C-17.1,283.4-22.3,286.3-26.8,287.2z"/>
			<path class="st0" d="M-50.6,311.3l6.5-2.2c-0.4-1.6-4.8-13.6-5.4-14.2L-50.6,311.3z"/>
			<g>
				<path class="st1" d="M-140.8,336.3c0.4-0.4,0.5-1.1,2-1.3c4.2-0.5,10.3,4.1,13.6,6.5c1.3,0.9,1,1.4,1.8,1.1
					c-1.7-1.9-0.9-1.8-3.6-3.8c0.8-1,0.6-0.6,2.3-1.3l-0.2-0.5c-3.7,0.9-5,0.2-7.7-1.4c-1.5-0.9-5.2-3.1-7-3.4
					c-1.3,0.8-2.6,2.2-1,3.5c-2.8,0.8-2.2-2.4-3-4c-0.5,1.5-0.7,1.9-0.5,3.5C-143.2,335.9-142.2,336.5-140.8,336.3z"/>
				<path class="st1" d="M-139.1,351c3.3,1,5.5,0.8,8.8-0.8c1.2-0.6,0.6-0.3,1.5-1.1c0,0,0.1-0.1,0.2-0.2l3.2-4.8l0.1-0.8
					C-130.9,350-137.5,349.5-139.1,351z"/>
			</g>
			<g>
				<path class="st2" d="M-53.2,391.4l-18.3-15.2l-4.3-5.2c-0.1-0.1-0.3-0.3-0.3-0.4c-0.4-0.5-0.1-0.2-0.6-0.6l5.8,10.7
					c0.7,1.1,0.1,0.5,1.6,1.3C-65.6,384.1-56,390.3-53.2,391.4z"/>
				<path class="st2" d="M-123.1,301.5c-0.5-4.8-2.3-10.8-3.2-15.7c-1.5-7.4-2-5.5-6-10.5c-0.4-0.5-0.9-0.9-1-1.2L-123.1,301.5z"/>
			</g>
			<g>
				<path class="st3" d="M-123.4,314.8c-1.1-3.7-3.3-8.6-4.8-12.3l-10-25c-0.8-2.1-1.5-4.5-2.9-5.7l-4.9-3.9
					c1.6,3.8,3.8,7.7,5.5,11.6c1.7,3.8,3.7,8.3,5.6,11.9C-130.7,298.8-127.1,307.3-123.4,314.8z"/>
				<path class="st3" d="M-49.4,425.2c0.8-0.6,5.1-13.5,5.8-15.5c-0.3-0.4-0.1-0.1-0.4-0.4c-0.3-0.3-0.4-0.3-0.4-0.4
					c-1.2,0.2-1,1.1-1.9,3.7l-3,8.4C-50.2,423.5-50.6,423.2-49.4,425.2L-49.4,425.2z"/>
			</g>
			<g>
				<path class="st4" d="M-124.7,337.6c-1.7,0.7-1.4,0.3-2.3,1.3c2.7,2,1.8,1.9,3.6,3.8l0.7,0.8c-1.6-0.3-1.7,0.1-2.8,0.7l-3.2,4.8
					c0,0-0.1,0.1-0.2,0.2c-0.8,0.8-0.3,0.5-1.5,1.1c-3.2,1.6-5.5,1.7-8.8,0.8l-0.2-1.1l-0.8,1c0.9,1.7,1.9,2.1,1.1,3.9
					c-2.7,5.9-2.5,8.1-1,14.1c0.6,2.6,2.3,6.9,1.7,9.4l-1.9,6.6c-0.7,1.6-0.1,0.5-0.8,0.8l-0.7,0.3c0-0.1-0.2,0-0.2,0.1
					c1.6,0.2,4.2,1,5.5,1.9c-2.2,0.1-4.1,0-5.8-0.9c-0.8-0.1-0.6-0.3-0.6,0.5c1.5,0.4,6.1,1.5,7,2.9c0.1-0.1,0.2-0.1,0.2-0.2
					c0.1-0.1,0.1-0.1,0.2-0.2l0.9-1.5c0.1-0.6-0.1-2-0.1-2.6l-3.5-1.8c0.3-2.2,1-4.3,1.5-6.5c0.9-4-0.8-17.1-1.3-21.5
					c1.2-0.8,3.5-1.3,5-1.8c1.9-0.6,6.2-1.4,7.4-2.7c3.1-3.4,0.4-1,4.6-5l-2.5,36.2l16.7,9.6l3.6,45.1l-4.2,3.5
					c-1.2,1-3.5,2.4-4,3.7l-12.1-4.3l4.8-22.3l-1.8-0.3c-0.7-3.6,0.1-3.4-3.2-4.8c-4.9-2-12.1-5.3-16.6-6.9
					c-0.1-3.1-0.7-7.1-0.6-10.1c0-2.4,3.4-3.5,4.3-5.6l-8,3.3c0.6,0.7,1,0.8,1.3,2.1c0.3,1.1,0.3,2.2,0.3,3.3
					c0.1,2.6,0.2,4.3-0.5,6.8c0.3,1.3-0.1,0.3,0.8,1.1l3.1,2.6c1.2,0.8,3.8,1.4,5.4,1.9c3.4,1.1,7.6,2.6,11.2,3.6l-0.2,0.4l-1.8,8.8
					c1.2-0.7,2.4-1.3,3.4-2c-0.4,1.1-1.3,1.8-1.7,2.8l-5.3,9.9l0,6.8c0.6,0.3,1,0.6,1.6,0.8c1.9-0.5,13.1,4,16,4.2
					c1.3,0.1,7.9-4.5,9.8-5.6c1.4-0.9,2.3-0.7,2.8-2.2c0.2-2.7-1.2-10.2-1.6-13.3c-0.6-4.5-1.2-8.7-1.8-13.3
					c-1.1-8.6-2.6-17.8-3.5-26.4c-1.4,0-13-5.7-13.2-5.9l-0.4,1.8c0,0.1-0.1,0.3-0.1,0.3c0,0-0.1,0.2-0.1,0.3
					c-0.3-3-0.4-5.8-0.6-8.8c-0.7-12.5,0.5-14.2,1.1-25.1c-0.2-1.2-4.9-9.5-5.8-11.3L-124.7,337.6L-124.7,337.6z"/>
				<path class="st4" d="M-80.9,420c0.5,1.2,1.1,3.1,1.4,4.3l-14.9,6.2l-3.4-33.6c1,1.8,2,6.3,2.8,8.7c3.1,9.3-0.1,7.2,10.9,12
					C-81.4,418.8-81.5,418.6-80.9,420z M-100.3,390.7c-0.3,2.8,0.4,8.9,0.7,12c0.3,4,0.7,7.9,1,12c0.4,7.6,1,15.8,1.8,23.3
					c0.8,0.3,0.4,0.4,1.6-0.3c0.4-0.3,0.6-0.5,1.2-0.8c3.5-2.1,14.7-8.9,16.6-10.4c-0.1-2.5,0-5.2-0.1-7.7c-0.1-1.5-0.1-1.6-1.3-2.3
					l-7.5-4c-4-1.9-3.3-1.9-3.9-3.8c-1.2-4-2.2-7.9-3.4-11.8c-3.1-9.9-1.2-4.6-6.7-8.6C-100.2,389.6-100,389.6-100.3,390.7
					L-100.3,390.7z"/>
			</g>
			<g>
				<path class="st5" d="M-100.3,390.7c0.3-1.1,0.1-1.1-0.2-2.3c5.5,4,3.6-1.3,6.7,8.6c1.2,3.9,2.3,7.9,3.4,11.8
					c0.6,1.9-0.1,1.8,3.9,3.8l7.5,4c1.3,0.7,1.2,0.8,1.3,2.3c0.2,2.5,0,5.2,0.1,7.7c-1.9,1.5-13.1,8.4-16.6,10.4
					c-0.5,0.3-0.7,0.5-1.2,0.8c-1.2,0.7-0.8,0.5-1.6,0.3c0,1.2,0.1,2.3,0.2,3.5c0,0.5,0,1.3,0.1,1.8c0.2,2.4-0.1,0.7,0.5,1.5
					l22.5-9.7c1.6-0.7,0.5,0.2,1.2-1l12.6-21.7c-1.6-1-13.6-5.5-17-6.8c-3.3-1.3-2.9-0.6-4.6-3.6c-3.9-6.9-7.3-14.4-11.2-21.3
					c-3.9-6.9-7.2-14.3-11.2-20.9c-4-6.6-7.3-14.6-11.4-20.9c0.2,1.3,8.7,20,10.1,22.9c2.9,6.1,2.8,6.4,3.4,13.5
					C-101.4,377.3-100.9,389.7-100.3,390.7L-100.3,390.7z"/>
				<path class="st5" d="M-126.9,442.7c1.3,1.5,0.6,0.6,3.1,2.5l8.3,6c0.7,0.5,1,0.9,1.7,1.3l16.5-7.1l-1-6.3
					c-0.4,1.5-1.3,1.3-2.8,2.2c-1.9,1.2-8.5,5.7-9.8,5.6C-113.8,446.7-124.9,442.2-126.9,442.7L-126.9,442.7z"/>
			</g>
			<g>
				<path class="st6" d="M-62.6,540.5c-0.5-0.6-7.8-5.3-9.2-5.5c0.7-1.1,2.2-2.2,3.3-3l13.2-10.1c0.5-0.4,1-0.9,1.6-1.3
					c0.9-0.7,0.9-0.7,1.7-1.2l17.9-13.9c4.8-3.8,3.5-2.6,11.4-3.1c3.7-0.3,7.5-0.5,11.2-0.8c-2.5-2.7-2.3-1.7-5.2-5.3
					c-1.3-1.6-5.7-4.6-8.9-8.6c-1.7-2.1-5.2-4.6-7.3-6.7c-1.2-1.2-0.4-0.9-3.4-3.6c-0.9-0.8-2.7-2.7-3.7-3
					c-1.6,2.9-2.5,12.5-4.4,14.9c-0.9,1.1-1.9,2.4-3,3.7l-26,32.8c-0.5,0.6-0.9,1.1-1.4,1.7c-0.8,0.9-0.9,1.1-1.6,1.9l-5.8,7.5
					L-62.6,540.5L-62.6,540.5z"/>
				<path class="st6" d="M-46.5,465.1c0.2-0.5-0.3-0.8,1.7-1c0.6,0,1.9,0.1,2.6,0.1l14,0.4c-0.4-0.8-0.3-0.4-0.7-0.9
					c-0.5-0.6-0.4-0.4-0.8-1.1l-9.1-11c-0.5-0.7-0.4-0.4-0.9-1l-1.7-2.1c-1.4-1.8-1.3-2.4-4.4-2.9l-9.2-1.6
					c-2.7-0.5-0.9-0.2-4.1-3.3c-2.7-2.6,0-2.7-7.3-1.3c-1.8,0.3-4.4,0.6-5.8,1.3l1.6,1.4c1,0.8,0.8,0.6,1.6,1.6
					c1.3,1.7,3.6,2.8,4.8,4.4c0.8,1,0.6,0.9,1.5,1.6c3.7,3,3,3.1,6.5,5.9c1.4,1.1,1.8,2.1,3.2,3.2L-46.5,465.1L-46.5,465.1z"/>
			</g>
			<g>
				<path class="st7" d="M27.1,501l13.5-10.4c0.6-0.5,0.6-0.4,1.3-1l28.4-22.3l12.8,20.5c1.1,1.8,2.2,3.4,3.2,5.1l10.1,15.7
					c-0.3-2.5-5.6-23.3-6.7-28c-0.9-3.8-6.9-23.4-8.3-26c-7.2-0.1-6.6,0.7-9-2.7l-6.8-9c-0.6,0.4-0.2,0.2-0.7,0.6
					c-2.1,2-7.6,10.4-9.8,13.4c-0.9,1.2-1.7,2.3-2.5,3.6l-23,32.3C25.6,498.3,25.8,496,27.1,501L27.1,501z"/>
				<path class="st7" d="M100.2,485l-20.6-58.4c-4.1,3.8-3.7,2.3,1.3,13.6L100.2,485z"/>
			</g>
			<g>
				<path class="st8" d="M-136,390.6l-0.4-0.1c-0.9,2.1-4.3,3.2-4.3,5.6c0,3,0.5,7,0.6,10.1c4.5,1.6,11.7,4.8,16.6,6.9
					c3.3,1.4,2.5,1.2,3.2,4.8l1.8,0.3l-4.8,22.3l12.1,4.3c0.6-1.3,2.8-2.7,4-3.7l4.2-3.5l-3.6-45.1l-16.7-9.6l2.5-36.2
					c-4.2,3.9-1.5,1.5-4.6,5c-1.2,1.3-5.6,2.1-7.4,2.7c-1.5,0.5-3.8,1-5,1.8c0.5,4.4,2.3,17.5,1.3,21.5c-0.5,2.2-1.2,4.3-1.5,6.5
					l3.5,1.8c0.1,0.6,0.2,2,0.1,2.6l-0.9,1.5c-0.1,0.1-0.2,0.1-0.2,0.2C-135.8,390.4-135.9,390.5-136,390.6z"/>
				<path class="st8" d="M-156.5,319.4c5.3,0.3,12.4-0.4,16.7-3.3c-0.3-0.6-9-19.5-10.4-20.9c-0.4,3.9-2,9.8-3,13.8
					c-0.8,3.4-4.5,7-4.8,7.9C-158.3,317.8-157.2,319-156.5,319.4z"/>
				<path class="st8" d="M-94.4,430.6l14.9-6.2c-0.3-1.2-0.9-3.1-1.4-4.3c-0.6-1.5-0.5-1.2-3.3-2.5c-11-4.8-7.8-2.6-10.9-12
					c-0.8-2.3-1.8-6.9-2.8-8.7L-94.4,430.6z"/>
			</g>
			<g>
				<path class="st9" d="M-62.6,540.5l85.4,14.2l-15.8-28c-2.7-4.6-5.2-9.6-7.9-14c-2.8-4.6-4.8-4.6-6.7-7.3c-0.9-1.3-2.8-3-4.1-3.9
					c-3.7,0.3-7.5,0.6-11.2,0.8c-7.9,0.6-6.6-0.6-11.4,3.1l-17.9,13.9c-0.7,0.5-0.8,0.5-1.7,1.2c-0.5,0.4-1,0.8-1.6,1.3l-13.2,10.1
					c-1,0.8-2.6,1.9-3.3,3C-70.4,535.2-63,539.8-62.6,540.5z"/>
				<path class="st9" d="M-58.3,334.7l0.6,5.1l-3.6,1.1l-0.8-4.9l-2.7,0.9c-0.4,2.1,1.2,9.2,1.3,11.7c-1-0.4-1.1-0.8-1.8-1.2
					c-4.3,4.7-6.6-2.3-4.7-5.1c1.1-1.6,1.6-1.5,3.6-0.9c0.4-1.7,0.7-0.9,1.2-2.6c-3.5-1.5-6.3-0.7-7.9,3.1c-0.1-0.1-0.1-0.3-0.1-0.2
					l-0.2-0.5c0-0.1-0.1-0.2-0.1-0.2c-0.2-0.4,0-0.3-0.3-0.8l-15.1,5.2l0.1,10.3l-3.1-9.2l-2.7,0.8l-0.6,10.6
					c-0.9-2.2-1.5-7.7-2.5-9.4l-3,1l3.7,12.5c1.1-0.1,3-0.7,3.8-1.5l0.4-8.8l2.5,8c0.6-0.1,3.6-0.9,3.9-1.5l0.4-12.4l1.7,11.8
					l3.1-0.9l-1.4-10.6l3-1.1l1.5,10.4l3-1l-1.4-10.6l2.8-0.8c-0.4,3.4,0.3,6.5,2.3,8.2c2.5,2,6.4,0.6,7.7-2l0.9,1.1l2.3-0.9
					c0.3-0.7,0-2.1-0.1-2.7c-0.2-1-0.3-1.8-0.4-2.9l3.6-1.1l0.8,5.1l3.1-0.8l-1.8-13.3L-58.3,334.7z"/>
				<path class="st9" d="M-46.5,465.1c1,0.5,2.4,2.4,4.9,4.4c2,1.7,1.2,1.4,2.3,2.4l3.8,3.2c0.6,0.6,0.5,0.8,1.1,1.4
					c0.7,0.7,1.8,1.5,2.6,2.2c1.9,1.6,1,1.4,4.9,4.6c1.7,1.4,0.9,1.3,4.8,4.5c0.4,0.4,0.8,0.6,1.2,1c2,2-0.1,0.5,3.7,3.6
					c0.5,0.4,0.8,0.6,1.2,1c0.6,0.7,0.4,0.7,1.1,1.4l3.8,3.2c1,1.2,2.3,2.7,3.8,3.5c-1.4-3-3.5-6.2-5.1-9.2
					c-1.7-3.1-3.5-6.2-5.3-9.3c-0.9-1.5-9.7-17.5-10.5-18.4l-14-0.4c-0.7,0-2-0.2-2.6-0.1C-46.8,464.3-46.3,464.6-46.5,465.1
					L-46.5,465.1z"/>
			</g>
			<g>
				<path class="st10" d="M-49.5,294.9c0.6,0.6,5,12.6,5.4,14.2l-6.5,2.2L-49.5,294.9z M-26.8,287.2c4.5-0.9,9.7-3.8,10.1,2.9
					c0.3,5-5.7,6.5-8.7,7.5L-26.8,287.2z M-8.2,273l5,38c-1.1-0.5-0.3-0.2-1.2-1.3l-3.7-4.3c-0.8-0.8-0.5-0.5-1.2-1.4l-3.8-4.5
					c2.2-2,5-5.2,5.1-10.2c0.1-4.7-1.8-8.9-4.6-10.6c-6.6-4.2-17.2,2.4-24,4l4,29.8c-0.2-0.2-0.2-0.2-0.5-0.7
					c-0.2-0.4-0.3-0.5-0.5-0.9l-8.3-18.4c-0.7-1.7-2.2-5.3-3.2-6.7l-10.6,3.6c-0.1,2.7-4.8,33.1-5.3,34.1l-2.2-1.7
					c-0.1,0.1-0.1,0.1-0.2,0.2c0,0.1-0.1,0.1-0.2,0.2l-3,3.3c-1.5,1.1-4.2,1.5-6,1c-3.5-1-4.8-4.6-5.7-8.5c-1.2-5.3,0.3-13,5.7-14.7
					c2.2-0.7,3.9,0.5,5.3,1.2l4.3-6.4c-2.6-4.1-10.3-4.4-16.2-0.5c-4.5,2.9-7.7,8.1-8.5,14c-0.8,5.7,0.1,8,1.4,13.2
					c-5.3-7.4-16.8-3.4-16.8-8.6c0-1.4,0.8-2.4,1.9-3c3.3-1.9,5.5,0,8.2,0.6l3.6-7.3c-5.6-1.8-9.3-4.5-17.3,0.6c-2,1.2-4,4-5,6.5
					c-2,4.9-0.1,12.1,6.7,14.5c2.6,0.9,6.8,1.2,9.2,2.2c3.7,1.6,1.5,5.3-1.8,6.2c-3.4,1-6.3-0.6-8.7-1.8c-0.7,0.9-4.2,6.3-4.4,6.9
					c1.6,2.7,10.9,5,17.9,1.5c2.7-1.4,5-3.5,6.2-5.5c2.3-4,2-5.6,1.3-10.1c0.9,0.8,4.9,9.9,15.6,7.6c1.7-0.4,2.8-0.7,4.2-1.5
					c3.2-1.6,1.7-1.4,4-2c2.6-0.6,6.8-2.7,9.2-2.9l0.8-9.6l9.8-3.4l3.1,8l15.9-5.4l-1.8-13.3l3.5-1.2c0.7,0.5,1.5,1.5,2.2,2.4
					c0.7,1,1.2,1.7,2.1,2.7c1.4,1.7,2.7,3.7,4.3,5.6c2-0.3,30.5-10.3,31.1-10.9l-1.1-7.5l-13,4.3l-4.2-30.3L-8.2,273z"/>
				<path class="st10" d="M14.6,265l5.3,38.6l22.5-7.7l-1.1-7.8l-13.5,4.6l-1.1-7.7c0.5-0.5,4.5-1.8,5.4-2.1
					c1.4-0.5,4.5-1.7,5.8-1.8l-1.2-8c-2.3,0.6-9.6,3.6-11.2,3.5l-1-6.6l21.7-7.4l4.2,30.4l8.5-2.9l0.2-1.5c0-0.6-0.2-1.3-0.3-1.9
					c-0.2-1.3-0.4-2.6-0.6-3.9c-0.4-2.6-0.7-5.2-1.1-7.8c-0.7-5.2-1.4-10.4-2.2-15.6l9.1-3l-1.1-7.9C57.4,249.7,17.9,264.7,14.6,265
					L14.6,265z"/>
			</g>
			<g>
				<path class="st11" d="M-123.1,301.5l-10.2-27.5c0.1,0.2,0.7,0.7,1,1.2c3.9,5,4.5,3.2,6,10.5
					C-125.4,290.7-123.6,296.7-123.1,301.5z M-141.7,267.2l9.6,21.2c1.3,2.9,8.8,20.2,9.7,21l2.4-2c1.1-0.8,1.2-1.3,2.3-2.2
					c5.1-3.8,20.8-13.8,26.9-17.9l13.5-9.1l24.3-20.6c0.6-0.5,0.7-0.5,1.3-0.9l9.8-8.3c0.7-0.6,0.6-0.4,1.4-1.2
					c-0.4-0.7-1.6-1.4-2.7-2.1l-8.7-5.9c-3.8-2.7-7.9-5.3-11.7-8c-3.7-2.6-2.2-2.2-7.2-1.4l-45.6,8.5c-0.8,0.4-6,6.5-7.1,7.9
					c-0.6,0.8-0.4,0.4-1.1,1.1c-0.6,0.6-0.6,0.8-1.1,1.4L-141.7,267.2z"/>
				<path class="st11" d="M-53.2,391.4c-2.8-1.1-12.4-7.3-16.2-9.3c-1.4-0.8-0.9-0.2-1.6-1.3l-5.8-10.7c0.5,0.4,0.2,0.1,0.6,0.6
					c0.1,0.1,0.3,0.3,0.3,0.4l4.3,5.2L-53.2,391.4z M-44.8,407.8c-1.7-0.2-23.6-12.7-26.8-14.5c-4.1-2.4-2.8-0.7-5.3-4.9
					c-0.6-1-1.4-2.1-2-3.1l-10.3-16.1l5.5-2l10.4,19.2c0.4,0.4,5.3,3,6.4,3.5l25.9,13.5c-0.8,4.3-2.5,9.4-3.7,13.8
					c-1.7,6.4-1.4,4,2.4,12.4c3.6,7.9,7.6,16,11.5,23.3c3.1,4.7,6.8,9.5,9.7,14.3l7.3,10.8c0.9,1.3,1.8,2.4,2.5,3.5l-28.9-57.8
					c0.3,0.3,0.6,0.5,1,0.9l1,1.1c1-1.5,4.5-12.5,5.5-15.6c0.8-2.4-1-2.2-3.8-6c-1.2-1.6-1.2-0.9-3.3-3.7c-1.1-1.5-1.1-0.7-3.3-3.7
					c-1.3-1.7-1.2-0.8-3.3-3.7c-1-1.3-0.9-0.9-2-1.8l7-35.4L-92.1,368c0.2,1.1,7.3,10.6,8.8,13.1l9,13c1.8,1.6,20.5,9.9,25.5,12.7
					l2.7,1.5C-44.6,408.4-45.8,408.8-44.8,407.8z"/>
				<path class="st11" d="M-114.5,349.1c0-3.4-1.1-7.8-2.5-10.6c-3.4-7.3-29.9-63.4-30.8-64.3c-0.6,1-1.7,3.5-2.2,4.7
					c-1.4,3.2-1.3,2.2,0.4,5.1c1.6,2.8,3.5,6.3,5,9.3c1.5,3,3.4,6.3,5,9.3c1.7,3.1,3.3,6.3,5,9.3c1.7,2.9,3.5,6.3,5,9.3
					L-114.5,349.1z"/>
			</g>
			<g>
				<path class="st12" d="M31.9,304.3c1.8-0.1,14.3,4,17.2,4.8c5.2,1.4,4.2,0.6,5.4,5.8c2.7,11.4,6.3,23.6,9,35.2l1.7,6.6
					c0.6,2.2,0.3,1.8-0.3,2.4c-0.6-1.1-3.6-4.9-4.8-5.7c-0.8-0.6-0.4-0.1-1.1-0.8l-2.4-3c-0.8-0.9-1.1-0.8-1.9-1.6
					c-1.3-1.3-2-2.6-3.5-3.8c0.5,3.3,2.1,8.3,2.9,11.7L64.9,397c0,1.5-11.8,20.7-13.4,23.6L42,437c-0.5,0.9-1,1.5-1.4,2.4L29.7,458
					c-4.2,7.5-9.5,15.9-13.6,23.3c-0.5,0.9-2.5,4.3-2.6,4.9c-0.2,0.8,5.9,20.3,6.7,22.9l0.4-0.3c-0.2-2.4,1.1-9.3,1.5-12
					c0.2-1.1,0.6-5,0.9-5.8l80.9-108.9c0.1-2.6-6.6-26.2-7.8-30.7c-2.7-10.2-5.5-20.3-8-30.5c-0.3-1.1-10.5-41.1-11.2-41.9
					c-0.8-0.8-0.4,1.1-0.9-1l-2.4-19.1c-4.1,1.7-8.1,3.6-12,5.4l4.9,27.3C64.7,293.2,36.9,302.1,31.9,304.3L31.9,304.3z"/>
				<path class="st12" d="M16.4,259.7c10.7-4,26.1-10.3,36.6-12.4c4.6-0.9,9.4-1.7,13.8-2.6c-0.9-1.2-0.7-0.8-1.8-1.7
					c-3.7-2.9-9.9-10-13.1-12.7l-4.8-4.1c-13.6-12.1-38.2-20.9-56.9-22.1c0.7,0.7,28.5,12.3,32.8,14c2.1,0.8,1.6,0.5,2.6,2.6
					c1.6,3.5,9.8,19.5,10.2,21.6c-1,0.6-1.9,1.1-2.5,1.9c-1.6,2.1-1.4,1-2.5,2.2c-1.1,1.1,0,0.6-2.3,2.1c-1.6,1.1-1,1.4-2.4,2.3
					c-3.2,2.2-0.3,0.9-3.6,3.1c-1.9,1.3-0.8,1.2-2.4,2.4c-2.6,1.8-1,0.9-2.3,2.1C17.1,259,17,258.9,16.4,259.7L16.4,259.7z"/>
			</g>
			<g>
				<path class="st13" d="M-93.8,364.2c7.2,0.6,21.6-4.7,29-6.7c4.7-1.3,9.3-2.8,13.9-4.2c6.7-2,7.4-1.1,8.7-9.5
					c2,1.1,2.2,1.7,4,3.1c0.9,0.7,0.9,1,1.8,1.7l24,20.8L-21,419l-3.7-2c1.8,5.7,4.4,11.9,6.5,17.7c2.1,5.8,4.2,11.7,6.4,17.5
					l16,43.8c2.1,5.4,1.2,2.7,2.1,3.9c0.2,0.2,1.4,3.5,1.8,4.2c2.5,5.1,22.8,46.7,24,47.7l-11.6-43l-0.4,0.3
					c-0.8-2.5-6.8-22.1-6.7-22.9c0.1-0.6,2.1-4,2.6-4.9c4.2-7.4,9.5-15.8,13.6-23.3l10.9-18.7c0.5-0.8,0.9-1.5,1.4-2.4l9.4-16.3
					c1.6-2.9,13.4-22.1,13.4-23.6l-10.6-41.2c-0.8-3.4-2.4-8.4-2.9-11.7c1.5,1.3,2.2,2.5,3.5,3.8c0.8,0.8,1,0.7,1.9,1.6l2.4,3
					c0.7,0.7,0.3,0.2,1.1,0.8c1.2,0.9,4.2,4.7,4.8,5.7c0.5-0.6,0.9-0.2,0.3-2.4l-1.7-6.6c-2.7-11.6-6.3-23.9-9-35.2
					c-1.2-5.1-0.3-4.4-5.4-5.8c-2.9-0.8-15.4-4.9-17.2-4.8l-83.7,30l0.4,15.5c-1.5,1.1-26,9.3-31.3,11.3
					C-86.1,362.5-90.9,362.9-93.8,364.2L-93.8,364.2z"/>
				<path class="st13" d="M-104.9,224.9c19-3.8,33.7-7.6,51.7,1.5c8.7,4.4,21.9,14.2,20.5,25.5c-0.5,4-5.4,8.7-8.4,11l-15.7,11.3
					c-15.9,10.3-31.8,19.3-48.5,28.5c-2,1.1-9,4.3-10.1,5.6l131.8-48.6c0.7-0.8,0.7-0.7,1.3-1.3c1.3-1.3-0.3-0.4,2.3-2.1
					c1.6-1.1,0.5-1.1,2.4-2.4c3.3-2.2,0.5-0.9,3.6-3.1c1.4-1,0.8-1.3,2.4-2.3c2.4-1.6,1.2-1,2.3-2.1c1.2-1.2,0.9-0.1,2.5-2.2
					c0.7-0.8,1.6-1.3,2.5-1.9c-0.5-2.1-8.6-18.1-10.2-21.6c-1-2.1-0.4-1.8-2.6-2.6c-4.3-1.6-32.1-13.2-32.8-14
					c-13.6-0.5-14.6-1-28,0.2c-15.8,1.4-32.4,5.9-47.1,11.4c-3.6,1.3-6.9,2.8-10.4,4.3c-1.3,0.6-7.9,3.5-9.2,4.5
					C-104.8,224.7-104.7,224.7-104.9,224.9z"/>
			</g>
			<path class="st14" d="M-32.9,432.2c1.6,2.2,3.4,3.2,4.8,6.4l20.2,46.8l-15.5-29.3c-2.5-5-5.2-10.1-7.7-14.9
				c-1.5-2.8-7.4-12.9-7.5-15.2c1.2,0.8,1.1,0.7,1.7,1.6l2.6,3.1C-33.5,431.6-33.6,431.3-32.9,432.2L-32.9,432.2z M-30.9,452.9
				c-0.5,1.4,0.9,0-0.8,1c-0.7-1.8-8.3-13.2-9.8-15.7l-1.4-2.4c-0.6-1-0.6-0.8-1.2-1.7l-3-5.5c-1.3-2.3-0.8-2.2-2.3-3.4
				c-1.2-2-0.8-1.7,0.1-4.2l3-8.4c0.9-2.6,0.6-3.4,1.9-3.7c-0.1-1.6-0.1-0.8-0.4-1c-1,1,0.2,0.6-1.3,0.4l-2.7-1.5
				c-5-2.8-23.7-11-25.5-12.7l-9-13c-1.5-2.4-8.5-12-8.8-13.1l50.4-12.1l-7,35.4c1.1,0.9,1,0.5,2,1.8c2.2,2.9,2.1,2,3.3,3.7
				c2.3,3,2.2,2.2,3.3,3.7c2.1,2.7,2.2,2.1,3.3,3.7c2.8,3.7,4.6,3.6,3.8,6c-1,3.1-4.5,14.2-5.5,15.6l-1-1.1c-0.4-0.4-0.6-0.6-1-0.9
				l28.9,57.8c-0.7-1-1.7-2.2-2.5-3.5l-7.3-10.8C-24.1,462.4-27.8,457.6-30.9,452.9L-30.9,452.9z M-93.8,364.2l-2.9,0.6l8.4,15.6
				c2.7,5.1,5.5,10.5,8.5,15.4c0.7,1.3,1.2,2.5,2,3.7c0.8,1.1,2.1,1.4,3.9,2.1c3.8,1.5,23.9,10.2,25.7,10.6l-8.5,15
				c0.7,0.9,1,1.2,1.6,2l6.6,7.4c0.8,1,1,0.8,1.8,1.7l11.2,13.3c0.3,0.4,0.3,0.5,0.7,0.9l17,24c3.7,5.4,6.3,8.7,10,14.8
				c7.1,11.9,14.1,23.6,21.2,35.4c3.6,5.9,7,11.8,10.6,17.7c1.3,2.2,10,17,10.8,17.7l-2.8-10.3c-1.2-0.9-21.5-42.6-24-47.7
				c-0.4-0.8-1.6-4-1.8-4.2c-0.9-1.3-0.1,1.5-2.1-3.9l-16-43.8c-2.2-5.8-4.3-11.7-6.4-17.5c-2.1-5.7-4.7-12-6.5-17.7l3.7,2l8.6-49.7
				l-24-20.8c-1-0.7-0.9-1-1.8-1.7c-1.8-1.4-2-2.1-4-3.1c-1.2,8.4-2,7.6-8.7,9.5c-4.6,1.4-9.2,2.9-13.9,4.2
				C-72.3,359.5-86.6,364.8-93.8,364.2L-93.8,364.2z"/>
			<path class="st15" d="M-129.6,321.2c-1.5-3-3.3-6.4-5-9.3c-1.7-2.9-3.4-6.2-5-9.3c-1.6-3-3.5-6.3-5-9.3c-1.5-3-3.4-6.6-5-9.3
				c-1.7-2.9-1.7-1.9-0.4-5.1c0.5-1.2,1.6-3.8,2.2-4.7c0.9,0.9,27.4,57,30.8,64.3c1.3,2.9,2.5,7.2,2.5,10.6L-129.6,321.2z
				 M-123.4,314.8c-3.7-7.5-7.3-16-11.4-23.5c-1.9-3.5-3.9-8.1-5.6-11.9c-1.8-3.9-3.9-7.7-5.5-11.6l4.9,3.9c1.4,1.2,2.1,3.6,2.9,5.7
				l10,25C-126.7,306.2-124.4,311.1-123.4,314.8z M-125.7,248.5c0.5-0.6,0.5-0.9,1.1-1.4c0.7-0.7,0.5-0.3,1.1-1.1
				c1.1-1.4,6.3-7.5,7.1-7.9l45.6-8.5c5-0.8,3.5-1.2,7.2,1.4c3.8,2.7,7.9,5.3,11.7,8l8.7,5.9c1,0.7,2.3,1.4,2.7,2.1
				c-0.8,0.8-0.7,0.6-1.4,1.2l-9.8,8.3c-0.5,0.4-0.7,0.4-1.3,0.9l-24.3,20.6l-13.5,9.1c-6.2,4.1-21.9,14.1-26.9,17.9
				c-1.1,0.8-1.2,1.4-2.3,2.2l-2.4,2c-0.9-0.9-8.4-18.1-9.7-21l-9.6-21.2L-125.7,248.5z M-104.9,224.9c-3.5,1-15,8.8-18.7,12
				l-4.1,3.5c-0.7,0.8-0.7,0.8-1.5,1.4c-3.3,2.7-9.5,10.2-10,10.6c-1.2,0.9-12.4,6.8-13.6,7.1l-5,26.4c0.8,0.2,4.1,2.4,4.6,3.4
				c1.2,0,1,0.3,2.5,1.4c1.2,0.9,1,0.6,1.8,1.7l7.6,13.7c1.6,3.1,3.4,6.1,5.1,9.2c1.4,2.6,4,6.8,4.9,9.3l2,3.2
				c-0.3,0.2-0.5,0.7-0.5,0.7c1.6,0.5,1.1,0.2,2,1.8c0.9,1.6,3.5,5.7,3.1,6.6l0.2,0.5l0.4-0.2c1,1.8,5.7,10,5.8,11.3
				c0.5,0.4,10.7,17.3,11.1,20.8l2.2,16.7c0.8,8.5,2.3,17.7,3.5,26.4c0.6,4.5,1.2,8.8,1.8,13.3c0.4,3.1,1.7,10.7,1.6,13.3l1,6.3
				l1.8,13.7c0.1-2.5-0.2-4.8-0.3-7.2l-0.4-5.2c-0.1-1.5-0.2-1.4,0.2-1.9c-0.7-0.7-0.3,0.9-0.5-1.5c0-0.4,0-1.2-0.1-1.8
				c-0.1-1.2-0.2-2.3-0.2-3.5c-0.8-7.6-1.3-15.8-1.8-23.3c-0.2-4-0.6-7.9-1-12c-0.3-3.1-1-9.1-0.7-12c-0.6-1-1.2-13.4-1.4-15.7
				c-0.6-7.1-0.5-7.4-3.4-13.5c-1.4-2.9-9.9-21.6-10.1-22.9c-0.4-1.5-7.7-16.6-8.9-20.1c1.1,0.6,2.2,2.2,3,3.2l3,2.9l0.9-15.5
				c0.5-0.3,1.2-0.7,1.7-0.9c1.1-1.3,8.1-4.5,10.1-5.6c16.7-9.2,32.6-18.2,48.5-28.5l15.7-11.3c3-2.3,7.9-7,8.4-11
				c1.3-11.2-11.8-21-20.5-25.5C-71.2,217.3-86,221.2-104.9,224.9L-104.9,224.9z"/>
			<path class="st16" d="M108.7,497.8c0.1-4.5-0.7-11.6-1.2-16.2c-0.5-5.1-0.7-10.4-1.2-15.6c-0.2-3-3.2-38.2-2.9-39.4l10.5-15
				c0.7-0.9,1.1-1.6,1.8-2.6l4.4-6.1c2.7-3.8-1.3-8.5-1.9-14.3c0.2,0.2,0.7,0.7,1.1,1.1c0.5,0.6,0.5,0.6,1,1.2l2,2.4
				c4,5.1,1.7,2.2,2.4,6.8c0.5-1.8,0.1-4.3,0.2-6.3c0.1-5-0.2-3.6-4.1-9.1c-1-1.4-1.9-2.7-3-4l-8.5-11.5c-0.9-1.3-2-3.1-3-4
				c0.5,2.9,5.3,16.7,5.3,17.9c0,0.7-1.6,2.7-2.2,3.5l-2.6,3.5c-0.9,1.3-1.6,2.1-2.4,3.3l-14.8,20.2c-1,1.3-1.6,2.2-2.6,3.5
				c-1,1.2-1.5,2-2.4,3.3l-2.7,3.4l23,64.9C106,491.2,107.7,496.7,108.7,497.8L108.7,497.8z"/>
			<path class="st17" d="M108.7,497.8c0.6,0.8,12.6,5.3,14.3,5.6l1.7-103.3c-0.7-4.5,1.6-1.7-2.4-6.8l-2-2.4c-0.5-0.6-0.5-0.7-1-1.2
				c-0.3-0.4-0.9-0.9-1.1-1.1c0.6,5.8,4.6,10.5,1.9,14.3l-4.4,6.1c-0.7,1-1.2,1.7-1.8,2.6l-10.5,15c-0.3,1.2,2.7,36.4,2.9,39.4
				c0.4,5.2,0.7,10.5,1.2,15.6C108,486.2,108.8,493.3,108.7,497.8L108.7,497.8z"/>
			<path class="st18" d="M-149.4,384.4l-1.1-1.1c-0.1-0.1-0.2-0.2-0.2-0.3c1.6,0.4,2.9,0.7,4.6,1.4c1.5,0.6,2.4,1.6,4,1.8
				c0.1,0,0.2-0.2,0.2-0.1l0.7-0.3c0.7-0.4,0.1,0.7,0.8-0.8l1.9-6.6c0.7-2.5-1-6.8-1.7-9.4c-1.4-6-1.7-8.2,1-14.1
				c0.8-1.8-0.2-2.2-1.1-3.9c-2-3-0.5-6.8-1.4-9.2c-1-3-6.9-2.1-3.9-12.4c-2.1,0.5-3.3,1.3-5.3,0.6c-1.5-0.5-3-1.3-4.6-1.8
				c1.1,2.4,2.4,4.2,3.6,6.6c1,1.9,2.7,4.4,3.4,6.1c0.6,1.5-1.3,5.2-1.9,7c-3.1,8.8-7.7,20.4-10.3,28.5c-0.6,1.9,0.8,5.2,1.9,7
				C-153.5,383.3-156.3,381.7-149.4,384.4z"/>
			<path class="st19" d="M-156.5,319.4c-0.7-0.5-1.7-1.6-1.5-2.5c0.3-0.9,4-4.5,4.8-7.9c1-4.1,2.6-9.9,3-13.8
				c1.4,1.4,10.2,20.3,10.4,20.9C-144.1,319-151.2,319.8-156.5,319.4z M-160.6,385.9c1.6-0.2,3.3-0.8,4.7-1.1
				c2.7-0.6,1.9-1.1,4.7-0.1c1.6,0.6,7,2.2,8.1,3c0-0.8-0.2-0.6,0.6-0.5c-2.4-1.1-4.2-2.2-6.9-2.7c-6.9-2.7-4.1-1.1-9.2-1.1
				c-1-1.8-2.5-5.1-1.9-7c2.6-8.2,7.2-19.7,10.3-28.5c0.6-1.8,2.6-5.5,1.9-7c-0.7-1.7-2.5-4.3-3.4-6.1c-1.2-2.4-2.5-4.2-3.6-6.6
				c1.5,0.5,3.1,1.3,4.6,1.8c2,0.7,3.2-0.1,5.3-0.6c-3,10.3,2.8,9.3,3.9,12.4c0.8,2.4-0.6,6.2,1.4,9.2l0.8-1
				c0.8-1.8-0.5-3.3,1.2-4.2c-0.5-1.4-1.2-2.3-1.4-4c-0.2-1.5,0-3.2-0.2-4.7l-1-0.6c-1.4,0.2-2.4-0.4-3.2-1c-0.2-1.6,0-2,0.5-3.5
				c0.8,1.6,0.2,4.7,3,4c-1.6-1.3-0.3-2.8,1-3.5c1.7,0.3,5.4,2.5,7,3.4c2.7,1.6,4,2.3,7.7,1.4c0.4-0.9-2.3-5-3.1-6.6
				c-0.9-1.6-0.3-1.2-2-1.8l-10.3-4.3l-9.4,4.4c-2.2-1.2-4.8-2.8-7-4.3c1.9-1.3,15.6-3.9,18.7-4.3c1.3,0.8,2.2,1.6,3.5,2.4l3.1,2.2
				c-0.8-2.5-3.5-6.7-4.9-9.3c-1.6-3.1-3.5-6.2-5.1-9.2l-7.6-13.7c-0.8-1.2-0.6-0.8-1.8-1.7c-1.4-1.1-1.2-1.4-2.5-1.4
				c-0.1,4-1.3,9.9-1.9,14c-1.4,9.4-7,14.7-6.1,17.2l7.8,16.4c2.7,6,3.6,4.6,1.1,12.1c-1.1,3.2-9.7,28.6-9.6,30
				C-162,380.8-160.9,384-160.6,385.9z"/>
			<path class="st20" d="M-44.8,407.8c0.3,0.3,0.3-0.6,0.4,1c0,0.1,0.1,0.1,0.4,0.4c0.3,0.3,0.1,0,0.4,0.4c-0.7,2.1-5,14.9-5.8,15.5
				c1.6,1.2,1,1,2.3,3.4l3,5.5c0.6,0.9,0.6,0.7,1.2,1.7l1.4,2.4c1.5,2.5,9.1,13.9,9.8,15.7c1.7-1,0.3,0.5,0.8-1
				c-4-7.3-7.9-15.4-11.5-23.3c-3.9-8.4-4.1-6-2.4-12.4c1.1-4.3,2.9-9.5,3.7-13.8L-67.1,390c-1-0.6-6-3.1-6.4-3.5l-10.4-19.2l-5.5,2
				l10.3,16.1c0.6,1,1.4,2.1,2,3.1c2.5,4.2,1.2,2.5,5.3,4.9C-68.4,395.2-46.5,407.7-44.8,407.8L-44.8,407.8z"/>
			<path class="st21" d="M-105,386.1l-2.2-16.7c-0.4-3.5-10.6-20.4-11.1-20.8c-0.6,11-1.9,12.6-1.1,25.1c0.2,3,0.3,5.8,0.6,8.8
				c0-0.1,0.1-0.3,0.1-0.3c0,0,0.1-0.2,0.1-0.3l0.4-1.8C-118,380.3-106.5,386-105,386.1z"/>
			<path class="st22" d="M-7.9,485.3l-20.2-46.8c-1.4-3.2-3.1-4.2-4.8-6.4c-0.7-0.9-0.5-0.6-1.3-1.5l-2.6-3.1
				c-0.7-0.9-0.5-0.8-1.7-1.6c0.1,2.3,6,12.4,7.5,15.2c2.5,4.8,5.3,9.9,7.7,14.9L-7.9,485.3L-7.9,485.3z"/>
			<path class="st23" d="M-130,328.6c0,0,0.2-0.5,0.5-0.7l-2-3.2l-3.1-2.2c-1.3-0.8-2.2-1.5-3.5-2.4c-3.2,0.4-16.8,3-18.7,4.3
				c2.1,1.5,4.7,3.1,7,4.3l9.4-4.4L-130,328.6z"/>
			<path class="st24" d="M-160.6,385.9c0.7,1.3,0.8,1,3.6,2.1c1.4,0.6,2.8,1.3,4.2,1.8c2.9,1.2,5.7,2.8,8.3,3.9l8-3.3l0.4,0.1
				c-1-1.4-5.5-2.5-7-2.9c-1.1-0.8-6.5-2.4-8.1-3c-2.8-1-2-0.5-4.7,0.1C-157.3,385.1-159,385.7-160.6,385.9z"/>
			<path class="st25" d="M-138.9,413.1l8.6,2.3c-0.8,1.8-1.6,1.7-3.5,2.8l-1.1,0.7c0,0.9,0,1.9-0.1,2.9c0,0.4,0,1.2,0,1.6
				c0.1,1.3-0.1,0.5,0.3,1.4c2.1-1.6,0.8-1.6,5.5-4.8l4.4-3.2c0.9-0.7,0.9-0.5,1.7-1.2l0.2-0.4c-3.5-1-7.8-2.4-11.2-3.6
				c-1.6-0.5-4.2-1.1-5.4-1.9l-3.1-2.6c-0.9-0.8-0.5,0.2-0.8-1.1l-1.4,4.6C-142.9,411.3-140.7,412.9-138.9,413.1L-138.9,413.1z"/>
			<path class="st26" d="M-134.7,424.8l6.1,1.9l0.2,8.4l5.3-9.9c-1,0.7-2.9,1.5-4.5,1.1c0.6-0.6,0.7-0.5,1.5-1.1l1.2-1l1.8-8.8
				c-0.8,0.7-0.9,0.6-1.7,1.2l-4.4,3.2C-133.9,423.2-132.6,423.2-134.7,424.8L-134.7,424.8z"/>
			<path class="st27" d="M-138.1,345.7c0.6,0.7,1.1,1.5,2.1,2.1c2.3-0.6,6.4-3.4,7.6-4.6l-1.4-1.8l2.1,0c-3-1.3-8.5-4.5-12.1-4.4
				c0.3,1.5,0,3.2,0.2,4.7C-139.3,343.4-138.6,344.2-138.1,345.7z"/>
			<path class="st28" d="M-140.8,336.3l1,0.6c3.6,0,9.1,3.1,12.1,4.4l-2.1,0l1.4,1.8c-1.2,1.3-5.2,4-7.6,4.6c-1-0.6-1.5-1.4-2.1-2.1
				c-1.7,0.9-0.4,2.4-1.2,4.2l0.2,1.1c1.6-1.4,8.2-0.9,13.7-7.6l-0.1,0.8c1.1-0.6,1.2-0.9,2.8-0.7l-0.7-0.8
				c-0.8,0.3-0.5-0.2-1.8-1.1c-3.3-2.4-9.4-7-13.6-6.5C-140.3,335.2-140.4,335.9-140.8,336.3z"/>
			<path class="st29" d="M-46.8,442.2c-3-3.8-2.2-3.7-10.7-4.5c1,1.1,3.2,2,4.5,2.9C-50.8,441.8-49.6,441.6-46.8,442.2z"/>
			<path class="st30" d="M70,437.3c0.6,1,0.9,1.5,1.5,2.4l4.8,6.8c-0.3-0.8-3.8-10.3-4.6-11.1C70.6,436.3,70.6,436.4,70,437.3z"/>
			<path class="st31" d="M-134.9,418.9l1.1-0.7c1.9-1.1,2.7-1,3.5-2.8l-8.6-2.3c0.9,1,4.3,2.6,5.5,2.9c-0.4,0.7,0,0.1-0.5,0.6
				C-135.1,417.7-134.9,417.2-134.9,418.9z"/>
			<path class="st32" d="M-149.4,384.4c2.7,0.5,4.6,1.6,6.9,2.7c1.8,0.9,3.7,1,5.8,0.9c-1.2-0.9-3.8-1.7-5.5-1.9
				c-1.6-0.1-2.5-1.2-4-1.8c-1.7-0.7-3-1-4.6-1.4c0.1,0.1,0.2,0.2,0.2,0.3L-149.4,384.4z"/>
			<path class="st33" d="M-124.9,424.3l-1.2,1c-0.8,0.5-0.9,0.5-1.5,1.1c1.6,0.3,3.5-0.5,4.5-1.1c0.4-1.1,1.2-1.8,1.7-2.8
				C-122.5,423-123.7,423.7-124.9,424.3L-124.9,424.3z"/>
		</g>
	</g>
</g>
</svg>
