<?xml version="1.0" encoding="utf-8"?>
<!-- Generator: Adobe Illustrator 19.0.0, SVG Export Plug-In . SVG Version: 6.00 Build 0)  -->
<svg version="1.1" id="Layer_1" xmlns="http://www.w3.org/2000/svg" xmlns:xlink="http://www.w3.org/1999/xlink" x="0px" y="0px"
	 viewBox="1559.2 -2299 3728.6 4845.3" style="enable-background:new 1559.2 -2299 3728.6 4845.3;" xml:space="preserve">
<style type="text/css">
	.st0{fill:#DEDEDE;}
	.st1{fill:#DA4F3F;}
	.st2{fill:#AE3F32;}
	.st3{fill:#712921;}
	.st4{fill:#AD3F32;}
	.st5{fill:#8D2F24;}
	.st6{fill:#D94F3F;}
	.st7{fill:#AF3C2F;}
	.st8{fill:#10141A;}
	.st9{fill:#1D2531;}
	.st10{fill:#1F2632;}
	.st11{fill:#363737;}
	.st12{fill:#883228;}
	.st13{fill:#202020;}
	.st14{fill:#DDDDDD;}
	.st15{fill:#8E2F24;}
	.st16{fill:#912F24;}
	.st17{fill:#B13E32;}
	.st18{fill:#1A202A;}
	.st19{fill:#09111E;}
	.st20{fill:#743838;}
	.st21{fill:#643435;}
	.st22{fill:#9D9FA3;}
	.st23{fill:#6D6E74;}
	.st24{fill:#787C82;}
	.st25{fill:#8C3E3A;}
	.st26{fill:#913F39;}
</style>
<g id="Layer_x0020_1">
	<g id="_494050969312">
		<g>
			<g>
				<path class="st0" d="M4108.7-349.3l7.5-9.3C4113.6-334.9,4118-355.8,4108.7-349.3z M4108.7-349.3c-3.5,13-23.1,41.9-30.8,54.8
					c-10.9,18.2-25.6,39-32.8,58l33.4,4.7c1.7-11.5,1.3-9.4,8.1-20.7c3.6-6,6.1-9.4,9.8-16l69.2-115.1c-0.9-0.7-2.1-1.6-2.8-2
					l-17.8-8.7c-10.7-3.8-13.1-4.5-23.9-6.3c-7,10.7-25.4,34.3-35.9,42.8c-30.2,24.5-23.4,28-37.8,36.4l30.1-95.9l-48.1-14.1
					c-8.5,29.7-72,117.8-89.4,156.2l29.5,9.9c5.4-16.4,56.2-101.3,69.2-116.4l-26.5,89.9l26.4,8.4l38.4-32.6
					C4085.3-325.4,4097.7-345.2,4108.7-349.3z"/>
				<path class="st0" d="M4290.1-269.7l6.6-7.8l-3.5,11.6l-14.9,108.5l31.2,7.6c7.6-11.7,88.2-139,92.1-155.3l-26.4-9.1l-57.5,97.8
					c-6.1,7.2,7.2,5-7.8,6.1l4.2-9.1c1.2-23.4,7.1-50.9,10.7-75.1c5.7-38.2,10.5-38.3-29.5-46.1c-9,31.5-76.3,122.6-89.2,157.7
					l24.2,7.7C4254.2-200.6,4266.3-241.5,4290.1-269.7L4290.1-269.7z"/>
				<path class="st0" d="M4154.2-267c4.4-6.5,7.2-11.3,13.2-17.4c7.2-7.4,9.2-6.3,16.1-12.8c11.8-11,11.7-20.5,26.1-28.5l-24.9,70.7
					c-4.2-1.1-12.2-2.9-15.9-4.2C4158.5-262.8,4160.2-262.5,4154.2-267L4154.2-267z M4107.9-261.6c-9.9,8.8-16.5,21.2-28.8,27.9
					c8.1,10.9,23,20,35.2,13.2c6.6-3.7,16.3-19.6,20.3-26.9l42.9,13.6l-11.3,38l32.8,10.1l51-172l-35.7-11.3
					c-15.4,10.5-37.7,39.1-51.9,54.9C4138.8-287.8,4141.3-299.8,4107.9-261.6L4107.9-261.6z"/>
			</g>
			<g>
				<path class="st1" d="M3433.8,1833.9l5.6,1.4c8.3-32.6,27-63.2,40.1-95.1c12.9-31.5,27.6-65.4,41.7-95.7
					c15.2-32.5,79.2-169.3,83.1-193.7c-17.6-6.9-58.3-15.3-77.1-13L3433.8,1833.9L3433.8,1833.9z"/>
				<path class="st1" d="M4776.7-880.3c-9.7,0.8-8-2.1-8,6.2c15.4,10.6,19.4,16.4,31.7,28.8c8.3,8.4,8.3,6.4,16,13
					c9.4,8,5.4,5.7,13,16.3l103.4,129.8c4.9,6.3,7.9,8.6,13.6,15.5l38.1,44.2c-4.7-24.8-127.5-263.1-140.9-276.3
					C4826.2-879,4810.9-878.4,4776.7-880.3z"/>
			</g>
			<g>
				<path class="st2" d="M3663-2264c172.8,38.4,551,174.5,694.7,248.9c53.5,27.7,104.1,57.4,144.3,89.1l137.8,99.7
					c27.4,18,2.8,0.9,23,35.3c10.9,18.5,79.1,65.3,93.2,81.9c36.6,43.5,87.5,92.1,151.9,81.3c8.8-15.1,12.6-25.3,10.9-48.9
					c-21.4-18.8-41.2-34.1-59.8-52.2c-38.8-37.7-29.8-34.7-74.6-71.2l-112.6-91.4c-81.7-60.2-205.8-124.5-296.2-166.4
					c-106.2-49.1-223.3-86.6-337.3-125C3979.3-2202.7,3705.8-2278.1,3663-2264L3663-2264z"/>
				<path class="st2" d="M4927.6,48.4l-23.3,63.2c16-4.3,23-11.2,35.5-19.1l22.9-18.3c14.4-5.4-4.6-10.5,10.3,1.3l8.1-31.9
					c-4-12.8,5.6-4.4-5.6-8.2L4927.6,48.4L4927.6,48.4z"/>
			</g>
			<g>
				<path class="st3" d="M3686.2,1505.9l188.8,54c2,28.3-34.1,150-40.2,192.2c24.9-13.7,19.3-27.5,51.9-54.6
					c11.2-9.3,15-17.4,24.7-29.7c11.1-14.1,16.5-13.2,27.5-26.5l61.6-71.9c7.7-7.9,8.5-6.1,15.9-13.1c9.4-8.9,14.9-20.5,23.9-30.5
					c11.3-12.7,15.6-11,27.4-26.6c27.3-36.3,22.2-20.6,50.5-57.9c11.7-15.4,16.1-13.9,27.4-26.6c25.3-28.6,0.7-6.4,37.6-41.5
					c5.6-5.3,8.2-9.7,13-16.3c12-16.5,41.1-48.5,47.1-63.8l-435.5,142.3C3702.6,1469.4,3698.9,1456,3686.2,1505.9z"/>
				<path class="st3" d="M3527.2,1437.7c18.8-2.3,59.5,6.1,77.1,13c24.4-27.8,26.4-80.5,52.4-105c13.5-9.6,306.2-49.3,364.2-60.3
					c14-2.7,56-26.8,71.3-36.5l22.7-16.7c-67.5,5.5-144.2,22-213.2,30.3c-70.4,8.5-144.1,20.1-215.5,31.1c-54,8.3-47.5,8.2-97-11.1
					c-29.2-11.4-58.7-21.7-87.8-33c-42.1-16.4-141.3-59.8-179.3-67.5c32.4,36.3,23.6,19.3,54,50.9
					c13.1,13.6,163.3,139.2,164.5,146.3L3527.2,1437.7z"/>
			</g>
			<g>
				<path class="st4" d="M2563.9-892.3l43.6,13.5l-227.2-116.5c-8.1-271.4,34.8-610.9,208.1-826.2l23.3-26.6
					c40.9-45.6,48.3-56.3,100.8-95.1c37.6-27.9,78.4-50.7,121.1-74.7c29.3-16.5,47.9-31.6,65.3-32.7l47.2-38.2
					c73-52.3,74.3-54.9,165.1-101.6c38.9-20,217.2-107.7,251.6-104.6c-19.5-11.4-111.1,23.3-131.9,28
					c-47.2,10.6-92.5,24.5-137.3,38.4c-105.5,32.5-267.9,102.4-350.8,165.6l-201.9,189.9l-79,95.9c-4.9,6.4-11.1,15.8-17.3,24.5
					l-29,33.6c-93.9,122.2-133,224.1-166.6,382.7c-21.1,99.7-27.7,215.4-15.8,318.3c10.3,88.6,56.3,174.5,90.9,258.8
					c10.3-43.6-11.1-135.5,4.5-188.7C2373.7-955.8,2510-900.5,2563.9-892.3L2563.9-892.3z"/>
				<path class="st4" d="M4491-119.4l59.7-60.6c15.8-21.2,29.6-45.4,41.7-76c1.3-93.5,5.9-170.7,30.3-259.5
					c10.6-38.7,21.3-75.5,33.4-113.3c11.5-35.6,27.8-72.8,37.1-107.2l-86.7,136.9c-43.3,71.7-122.5,218.2-143.3,298.4
					C4439.4-208.6,4479.6-165.9,4491-119.4L4491-119.4z"/>
				<path class="st4" d="M4524.2-65.4c11.4,8.2,25.2,34.9,39.5,48.5c20.1,19.1,22.8,28.5,47.3,48.5l27.1,25.4
					c0.4,0.4,1.5,1.5,1.8,1.8c0.3,0.3,1.3,1.1,1.8,1.8c7.2-4.1,12.8-7.2,19.9-13.1c10.7-8.9,8.3-10.4,17.9-19.4
					c15-13.9,22.1-12.2,37.4-32.1c-4.7-9.6-6.5-11.2-14-19.1c-34.9-36.6-71.7-114.8-79.1-121.9l-10.2-6.9
					c-2.1,13.8-33.7,37.9-52.2,53.3c-5.5,4.6-8.3,5.4-14.7,10.4C4533.3-77.5,4529.4-75.9,4524.2-65.4L4524.2-65.4z"/>
				<path class="st4" d="M4683.3,90c20,10.4,40.5,25.6,68.7,38c29.2,12.8,56.6,18.2,88.9,16l39.2-89.7c-25.9-1-48.4,0.3-73.4-6.1
					c-18.2-4.7-39.3-19-53.6-19.2l-51.6,45.7C4694,82.1,4690.1,83.3,4683.3,90z"/>
				<path class="st4" d="M4642.8-1519.5c33.4-13.9,44.8-15.7,63.7-38c13.9-16.4,29.7-41.1,34.6-67.7c-5.8-8.2-4.4-4.1-8.7-7
					c-11.2,9.3-106.8,39.2-130.6,57L4642.8-1519.5z"/>
			</g>
			<g>
				<path class="st5" d="M3595.9,236c12.8,73.9,24.7,149.2,38.3,222.6c6.9,37.1,12.5,72.7,19,110.1c11.2,64.2,3.3,44.5,54,75.1
					c78.4,47.3,46.4,46.4,178.2-10c69.9-29.8,117.6-55.4,170-92.5c19.8-14,66.7-43.9,71.4-58.8c8.7-27.7,5.1-179.3-27.9-222
					l-32.4-30.2c-43.7-26-95.5-41.5-146.5-49.6c-55.7-8.8-57.4-9.2-111.8,4.7C3740.3,202.6,3663.6,224.6,3595.9,236L3595.9,236z"/>
				<path class="st5" d="M3909.2,763.7c19.8,3.7,250.6,140.8,305.9,172.2c22.8,13,23.6,8.6,49.3-2.3
					c55.2-23.4,164.9-95.2,206.3-135.4l62.6-75c24.7-34.9,13.1-11.5,11.7-46.5l-82.3-118c-36.6-48.6-94.8-54.8-153.2-54.6
					c-150.9,0.5-117.1,2.2-211.5,63.1c-29.1,18.7-55.3,35.6-84.7,52.7c-58.5,34.1-114.1,62.2-182.7,92.1
					c6.9,10.6,27.2,17.9,38.1,24.2C3883,744.4,3900.5,751.8,3909.2,763.7L3909.2,763.7z"/>
				<path class="st5" d="M1559.2,2150c15.1-19.9,234.8-648.1,268.8-736.5c45.9-119.3,91.5-246.6,132.8-367.1
					c10.7-31.2,22.5-60.7,33.7-91.5c13.2-36.2-7.7-178.9-12-225.7c-3-32.5-3.7-85.6-10.7-115.4l-103.9,135.5
					c-69.6,92.9-51.6,52.8-73,172c-47.8,266.8-108.2,551-157.9,818.3c-12.7,68-25.9,135.7-38.7,202.5
					C1586.5,2003.3,1564.7,2089.8,1559.2,2150z"/>
				<path class="st5" d="M2287-679.2c22.6,99.2,48.8,196,72.9,295.9c23.5,97.4,45.2,198.4,71.2,294.4c7.9,29.3,16.8,46.9,6,73.8
					l-72.9,202.6c-33.1,88-65.3,181.8-95.9,270.6c-62.3,181.1-129.3,359.3-192,541.1c-31.5,91.3-65.7,179.8-96.4,270.3l-96.5,269.9
					c10.1-9.8,522.1-1210.6,595.2-1379.1c19.2-44.3,38.8-90.7,58.4-137.4c34.9-83.1,35.9-53,1.7-140.2
					c-37.4-95.3-72.4-191.7-108.7-286.5c-18.5-48.2-36.5-96.9-56.1-144.4c-17.7-43-35.3-105.8-55.3-143.5c-2.6,13.3,2.3,6.7-9.8,11
					C2303.9-679,2292.8-679.4,2287-679.2z"/>
				<path class="st5" d="M3783.2,782.6l-115.4-87c-32.6-23.4-29.6-12.3-39.8-60c-14.7-68.7-42.5-198.2-50.4-257.4
					c-8.1-60.8-12.9-122.1-21.9-183.2c-34.2-8.1-89.3-33.1-130.1-45.2c-39.2-11.7-99.7-26.9-139.2-32.2
					c20.1,77.1,51.5,172.2,77.9,248.1c37.6,108.1,82.4,258.1,118,373.4c21.5,69.8-0.2,39.3,82,84.8c18,10,34.2,20,51.4,28.1
					c21.1,9.9,35.5-4.5,57.1-14.3C3712.1,819.9,3747.4,800,3783.2,782.6L3783.2,782.6z"/>
				<path class="st5" d="M2868-538c23.1,9.4,53,28,72.9,39.7l351.2,207.1c43.3,26.2,100.8,54.4,140.7,82.9c-7.5,14-18,17-31.1,21.1
					c14.3,17.3,41.4,21.3,70.4,28.4c73.6,18,146.7,39.2,221.5,53.9c103.5,20.3,64,28.3,142.5-6.2c33.7-14.8,97.8-51.2,128-59.1
					l-22.1-14.3c-18.5,0-482.3-159.4-539.8-179.1L3000.7-500c-33-11.4-106.4-39.8-137.7-45.2C2868.2-540.4,2865.4-543.3,2868-538
					L2868-538z"/>
				<path class="st5" d="M3236.3-48.7c-1.7,29.6,27.9,91.7,36.7,127.4c59.6,14.4,201.4,14.1,270,16.5l-6.7-64.4l163.9-78.3
					c-5.7-3.5-67.5-16.7-83.8-22.2c-84.8-29-180.6-93.5-219.3-107.7l-97.7,79.3c-6.6,5.5-11.6,9.4-20.6,16.9L3236.3-48.7
					L3236.3-48.7z"/>
				<path class="st5" d="M3685.9,884.5c11.3,16.8,29.9,20,62.3,38.9c71.2,41.7,410.4,219,467.8,236.1c14.5-20.3,14.7-21.4,35.8-33.6
					l-324.2-240.3c-18-14.2-35.9-26.2-54.9-40.9c-8.7-6.7-17.2-12-27-18.9c-9.8-6.9-18.8-15.9-27.2-21.4
					C3789.8,819.4,3724,875.7,3685.9,884.5L3685.9,884.5z"/>
				<path class="st5" d="M3568,73.7l15,86.7c43.2,9.7,253.5-43.9,316.7-51c-5.8-29.9-23.3-83.9-40.8-100.7
					c-19.3-18.7-72.2-37.8-99-25.7L3568,73.7z"/>
			</g>
			<g>
				<path class="st6" d="M2607.5-878.8l18.5,6c-27.5-40.9-22.5-44.6-79.9-68c-30.4-12.4-77.4-31.4-104.1-47
					c7.8-11.7,12.2-19.4,20.3-30.9l64.5-89.4l178.9,75.2c41.1-19.5,22.2-36.5-10.5-107c-36.3-78.1-84.6-195.6-32.3-274
					c19.2-28.8,59.6-60,99.4-78.7c-15.9-142.4-29.3-336.2,58.5-455c8.1-10.9,8.2-12.9,17-24.7c18.2-24.4,27-41.3,48.7-63.6
					c9.3-9.6,5.3-3,12.4-14.9c-17.4,1.1-35.9,16.2-65.3,32.7c-42.7,24-83.4,46.9-121.1,74.7c-52.5,38.8-59.9,49.5-100.8,95.1
					l-23.3,26.6c-173.3,215.3-216.2,554.8-208.1,826.2L2607.5-878.8z"/>
				<path class="st6" d="M3834.8,1752.1c6.1-42.2,42.2-163.9,40.2-192.2l-188.8-54c-13.7,21.8-164.4,434.4-188.9,498
					c-35.1,91.1-25.3,96.7-78.8,150.2c-25.5,25.5-90.1,97.1-117.5,111.6c-96.9,51.4-372.8,190.8-445,236.8l840.3-253.7
					c-1.9-42.3-23.1-302.2-17.9-318.2c3.6-11,29.2-39.7,39.5-48.1l78.7-88c13.3-11.6,10.7-6.9,21-20.6
					C3823.9,1765.5,3826.4,1760.5,3834.8,1752.1L3834.8,1752.1z"/>
				<path class="st6" d="M2207.1,1011.6l77-108.5c13.4-18.7,22.7-34,37.3-54.4l229.5-332.9c13.9-19.5,23.9-36.3,38.9-57l37.1-54.6
					c26.5-36.6,186.7-266.9,191-281.6c-19.5-22.9-43.2-81-57.2-107.4c-19.6-36.9-38-74.8-57.3-109.3
					c-40.2-72.4-75.4-149-114.1-219.2c-40.4-73.4-74.9-146.3-114.2-219.2c-21.2-39.4-36.6-72-57-109.6c-10.3-19-19.4-37.7-27.7-55.5
					c-8.5-18.4-23-34.1-29-51.2c21.9,68.8,55.5,146.7,83.6,217.6C2500.4-391.6,2556-225,2610.2-84.5c7.3,18.9,19.4,37.6,14.3,56.8
					L2382.1,576c-27.4,73-58.4,144.1-87.6,216.6C2265.6,864.5,2230.4,943.4,2207.1,1011.6L2207.1,1011.6z"/>
				<path class="st6" d="M5151.3-253.4c-16.3,36.3-6.5,113.8-26.8,159.7c-16.8,37.9-60.6,82.5-87.8,98
					c-33.9,117.5-82.1,233.5-105.2,359.5c-12.8,69.7-21.4,132.9-30.4,202.6c-7.6,59.1-21.4,156.4-20.1,214.2l3.9,7.6
					c2.2-38.2,24.4-76.7,42.8-103.8c37.7-55.6,24.6-13.6,38.9-111c6.2-42.3,29.3-241,39.3-262.1c2.3,66.3-8.8,179.3,7.8,238
					c15.1-11.7,100.4-162.4,98.1-193.4c-4-53.7-36.6-179.6-44.5-257.5c14.6,20.7,51.2,134.2,79.8,189.8
					c11.1-9.8,88.6-181.2,94-192.8c-25.2-20.7-98.7-48.9-132.1-74.3l153.8,29c27.6-53.8,24.5-48.8,25.2-110
					c-46.2,9.9-79.1,26.6-131.6,28.6c8-10,84-61.7,116.4-97.4c19.5-21.4,10.9-59.6,9.6-96.7c-1.2-34.8-2.2-71.1-2.1-106.1
					c-21.5,19.8-107.4,150.3-119,174.1c-7-9.3-3.7,1.9-3.7-12.3l95.8-220.2c17.3-37.9,24.6-39.5,22.4-85.4
					c-5.4-113.1-3.2-337.9-13.4-424C5226.1-656.2,5232.2-504.3,5151.3-253.4L5151.3-253.4z"/>
				<path class="st6" d="M4334.7-703.4c4-11.3,62.3-108.9,70.7-118.3c32.3,7.2,106.2,32.9,128,46.9c2.2,22.9-17,45.5-27.5,62.6
					C4464.5-644.5,4485-653.5,4334.7-703.4z M4455.4-580.5c95.5,17.4,120.8-67.1,170-145.6c69-110.1-18-122.2-111.6-153.3
					c-47.9-15.9-108.2-41.8-154.5-52.6c-32,44.7-210.2,348.7-256.1,425.3c-11.7,19.4-28.5,42-36.2,62.2l92.3,30.7l128.9-214.5
					c24.3,5.1,48.4,20,75.1,22.5l-48.5,246.4l99.6,33.4L4455.4-580.5L4455.4-580.5z"/>
				<path class="st6" d="M3688.8-1068.2c33.1,9.1,106.8,31.2,128.6,46.6c1,26.1-45.1,91.3-59.5,115.4
					c-18,29.9-114.4,207.2-140.1,209.8c-13,1.3-112.6-35.3-127.3-42.5L3688.8-1068.2L3688.8-1068.2z M3351.4-692
					c29.3,15.2,107,39.4,141.5,50.1c42.3,13.2,110.8,46.5,154,37.7c55.7-11.3,71.8-49.9,98.2-94l143.7-239.6
					c87.1-145,45.8-140.4-100.3-191.5c-38.1-13.3-111.6-42.5-146.7-49.4c-63.3,114.9-180.9,300.7-253.9,423.3
					c-7.4,12.4-11.7,19.6-18.8,31.2L3351.4-692z"/>
				<path class="st6" d="M3082.1-1108.6c12.9-37.4,70.8-104.9,79.3-140.3c35.4,9.1,115,30.9,133,52.8c-1,18.5-22.9,48.3-32.8,64.5
					C3219.3-1062.1,3240.7-1044.3,3082.1-1108.6L3082.1-1108.6z M2827.9-871.1l89.9,32l116.9-190.7c59.3,14.3,160.1,70.5,218.1,51.6
					c38.7-12.6,50.3-36.3,69.5-67.8c85.7-140.3,144.3-198.3,4.1-241.8c-67.8-21-137-50.3-204.2-69.9
					c-15.1,11.9-64.6,101.2-75.6,119.4c-24.4,40.5-48.4,80.9-73.4,122.4c-24.8,41.1-48.6,81.3-73.4,122.4
					C2883.9-967.3,2835-892.9,2827.9-871.1L2827.9-871.1z"/>
				<path class="st6" d="M4597.8,751.1c3.5,60.8,13.7,115.8-15.2,167.2c-19.4,34.5-73,81.9-38.5,134.2
					c60.4,91.8,226.3,22.9,304.3,12.7c8.1-10.9,20.3-47.8,25.2-64.7c11.5-39.6-20-24.2-7.1-118.8c6.4-47-16.6-17-15.9-120.4
					c-7.2-6.4-28.3-19.4-33.7-29.3c-18.6-5.2-36-17.5-56.7-25c-41.4-14.9-86-14.3-127,3.4c-20.2,8.7-8.2,2.4-20.2,17.3
					C4602.2,741.2,4603.8,735.6,4597.8,751.1z"/>
				<path class="st6" d="M3934.7,153.8c21.3,7.6,76.3,8.3,112.4,20.6c37.6,12.8,60.6,30.2,78.3,55.4
					c29.8,42.5,23.8,191.3,16.1,247.2l294.1-234.6c24.5-16.8,28.3-23.8,26.3-63.5c-1.4-27.5-4.8-54.8-13.7-80.6
					c-9-25.9-16.9-42.5-35.9-51.3c-16.2-7.5-52-19.7-68.8-18.3l-269.2,85.9C4036.9,125.2,3965.2,140,3934.7,153.8L3934.7,153.8z"/>
				<path class="st6" d="M3739.6-557.2l290.8,100.2l47.5-76.3c-23.7-2.6-182-56-201.3-66.9c6.3-18,31.3-53.9,43.1-73.3
					c12.4-20.6,29.4-53.6,44.1-71l144.7,49.2c8.8-9.1,14.9-21.3,22.1-33.9c4.5-7.9,5.4-9.8,10.8-18.2c7.6-11.8,6.7-7.9,10.8-19.4
					L4007-816.8c4.2-13.7,63.2-109.1,73.4-123.2c50.2,14.7,143.7,45.1,187.5,66.9l45.4-72.7c-8.9-8.2-258.2-95.4-282.8-99.3
					C3994.6-979.8,3756.8-597,3739.6-557.2L3739.6-557.2z"/>
				<path class="st6" d="M3980.4-198.8l91,30.4l-32.7,18.6l16.1,4.8c7.4,1.3,13.2,0.7,21.8,2c62.9,9.8,114,78.8,155.8,119.8
					c10.5,10.4,8.6,13.9,23.1,27.2c37.6-5.5,168.7-73.8,208.9-103.8c13.1-9.8,11.1-12.4,26.7-19.6c-11.4-46.5-51.6-89.2-27.7-181.3
					c20.8-80.2,100-226.7,143.3-298.4l86.7-136.9c17.9-39.3,36.9-94,60.7-124l-276.8-175c2.3,53.8,1.3,61.7-38.9,79.1
					c14.8,15.2,78.2,32.4,100.7,43.6c18.3,9.1,4.7,4.1,7.7,8.8c7.6,12.3,63.2,13.3,106,55.8c12.7,12.6,41.6,38.9,32.7,68.6
					c-10.2,34.1-57.6,119.7-75.7,149.5c-35.3,58-49.2,87.7-137.4,74.9c-47.8,300.3,0.4,167.2-119.4,368.2
					c-8.5,14.2-21,36.3-30.7,48.5c-13.5,17-39.3,15.8-61.6,7.4c-152.1-57.4-322.1-114.7-479.7-160.6
					C3796.1-244.9,3938.3-229.3,3980.4-198.8L3980.4-198.8z"/>
				<path class="st6" d="M4570.2,675.1c2.4-16,122.3-204.4,135.6-246.2c6.3-19.7,10.6-61.3,12.1-83.3c3-44.8,0-53.3-27.1-68.9
					c-79.5-45.9-112.8-26.6-162.3-32.7c-20.4,10.6-24.5-4.2-46.4,19.9l-145.3,125.4c-8.8,7.7-10,8.6-18,15.3l-98.3,78.6
					c174.1-23.1,254.8-29.7,334,167.3C4559.7,663.4,4560.4,668.6,4570.2,675.1z"/>
				<path class="st6" d="M2524.9-1074.1c-6.5,26-37.6,62.4-44.8,82.2c21.2,13.3,220.2,79.7,246.3,80.6c24.5,0.8,44.4-8.9,61.7-18.9
					c19.9-11.6,24.5-23.4,38.5-44.8c16.9-25.9,52.2-76.9,48.7-116.4c-5.7-64.4-106.4-186.9-89-223.5c31.2-65.8,45.9-48.7,97.8-30.5
					c71.2,25,61.8,17.4,121.4,47.3c10.3-11.1,42.3-67,49-81.2c-27.5-18.4-216.3-79.8-249-75.7c-43.9,5.5-69.5,36.7-91,72.2
					c-66.1,109.8-46.1,108.9,43.8,284c17.2,33.5,12.1,30.4-5,58.9c-27.7,46.2-26.5,41.1-104.8,13.6l-92.8-32.2
					C2538.4-1065.2,2540.7-1068.5,2524.9-1074.1z"/>
				<path class="st6" d="M4993.3-626.4c25.2,51.1,10.8,27.1,44.4,72.9c37.7,51.4,64.3,94.8,84,157.9c7.2,23.1,14.6,81.9,25.5,94.5
					l41.3-274.4c9.7-94.5,12.9-200.7,25.8-293.1c-26.9,12.7-53,33.1-87.9,14.1c-14.2-7.7-49.1-44.1-56.3-56l26,227
					c8.3,73.6,18.9,172.6,17.7,246.1l-46.7-278.7c-15.8-87.8-42.5-182.9-55.9-270.1l-4.4,6.8c-4.2,8.3-1,0.3-4.5,10
					c-2.8,7.7-9.3,36.3-25.3,42.4c-45.5,5.2-74.7-15.2-112.5-24.6C4872.9-921,4965.8-724.1,4993.3-626.4L4993.3-626.4z"/>
				<path class="st6" d="M4529-1495.5l36.3,43.6c50.9,69.3,81.6,103.8,131.6,185.1c15.1,24.6,9.8,26.2,36.6,42.6
					c29.4,18,75.6,51.9,114,36.8c26.5-10.3,64.6-59.4,72.5-86.4c10.7-36.1-114.4-286.7-153.3-320.5c-13.4,34.7-10.7,82.4-74.7,105.3
					C4637.1-1469.3,4581.1-1489.4,4529-1495.5z"/>
				<path class="st6" d="M2160.4,558.5c11.3-15,150.8-406.2,170.2-458.9c58.2-158.6,50.3-81.2,12.3-241.6
					c-8.7-36.5-55.3-231.8-65.4-248.9c-10.4,39.7-56.4,394-66.5,466.5C2188.8,234.6,2160.9,395.3,2160.4,558.5z"/>
				<path class="st6" d="M5005.7-1245.3c4.5,35.2,35.6,157.8,46.3,223.6c6.6,41.3,10.4,69.7,31.4,101.6
					c17.6,26.6,40.3,65.7,77.6,54.7c11.9-3.5,32.5-19.9,40.7-26c18.9-14.1,16.6-17,18.4-48.7c8.1-138.4,28.1-115.2-11.5-234.4
					c-7.8-23.3-25.6-81-40.3-95.4c-10.6,15.2-36.8,36.9-68.5,42.5C5054-1219.4,5040.7-1236.9,5005.7-1245.3z"/>
				<path class="st6" d="M3194-744.9l91,31.3l218.5-363.8c12.7-21.2,23.5-39,36-59.9c12-20,30.3-44.9,36.9-63.1l-91.2-33.2
					l-72.1,119.9C3386.2-1068.9,3200-764.4,3194-744.9L3194-744.9z"/>
				<path class="st6" d="M3815.2-42c23.7,18.3,59.2,17.1,84.2,43.5c28.8,30.5,28.7,47.6,29.5,96.9c46.9,1.1,249.2-68.4,305.1-85
					c-5.8-18.3-51-53.1-62.5-63.2c-7.6-6.7-14.2-12.3-22.9-18.7c-16.4-12.1-30.6-23.4-49.6-33.7c-101.2-55.3-72.2-39.8-169.9,4.6
					C3906.7-87.5,3830.4-53.8,3815.2-42L3815.2-42z"/>
				<path class="st6" d="M4817.9,716.6c9.9,5.3,11,6,18,11c12.3,8.9-5.2,3.2,15.6,9.6c1.6-57.7,8.6-110.6,15.9-166.6
					c5.2-39.9,29.4-134.6,26.7-166.8c-17.6-26.4-18.2-46.4-81.5-5.3c-45.6,29.6-35.6,24.5-59.4,78.1c-13.9,31.1-29.2,63.6-43.8,93.7
					c-14.9,30.7-36.5,64.3-48.4,91.5c82.9-0.1,75.7-7,144.7,42.2L4817.9,716.6L4817.9,716.6z"/>
				<path class="st6" d="M4855.2-1601.4l28.7,43.4c11.6,17.4,17.8,28,27.9,47.1c21.3,40.3,50.5,114.7,64.1,161.2
					c10.4,35.6,2.2,28.3,30.9,43.8c24.6,13.3,69.4,50.1,103.7,31.9c9.5-5.1,28-26.1,32.6-38.7c6-16.5-8.4-34.7-16.9-50
					c-40.2-72.4-65.6-118.4-113.8-186.1c-14.7-20.6-46.1-68.4-64.3-84.5c-0.7-0.7-2-1.8-3.1-2.4
					C4937.3-1571.6,4904.4-1588.4,4855.2-1601.4z"/>
				<path class="st6" d="M4752.7-1172.3c24.9,54,60,108.4,85.7,168c9.3,21.6,4,16.1,23.2,26.9c57.1,32.3,115.1,60.3,131-10.4
					c9.7-43.2,7.1-44.8-4.9-86.3c-10.1-34.8-31.9-134.5-49.4-155.5c-15.9,43.8-18.8,70.4-62.5,79.8
					C4837.5-1141.4,4787.8-1160.3,4752.7-1172.3z"/>
				<path class="st6" d="M4619.8,230.5c34.9-1.6,78.9,17.6,100.5,33.4c26.7,19.6,24.7,57.6,20,96.3
					c10.4-32.1,79.8-152.3,100.6-216.2c-32.3,2.2-59.7-3.2-88.9-16c-28.2-12.3-48.7-27.6-68.7-38l-150.4,132
					C4557.9,222.9,4600.1,218.2,4619.8,230.5z"/>
				<path class="st6" d="M4641.7,60.6c-0.6-0.6-1.5-1.5-1.8-1.8c-0.3-0.3-1.4-1.4-1.8-1.8L4611,31.5c-24.5-20-27.2-29.4-47.3-48.5
					c-14.3-13.5-28-40.3-39.5-48.5c-5.2,1.5-75,49.4-125.5,70.6c-1.7,0.7-7.8,3.2-9,3.9c-13.4,7.7-4.8,1.6-11.4,8.9
					c126.1,24.6,89.7,134.6,97.4,188.3L4641.7,60.6L4641.7,60.6z"/>
				<path class="st6" d="M4595.5-1010.5c0.8,0.9,2.1,1,2.6,2.7l105.7,75.8c33.3,23.3,32.8,34.4,55.6,35.3
					c34.5,1.5,54.4-0.6,72.8-24.4c-7.5-28.9-128.3-216.9-146.1-235.9C4672.5-1087.1,4667.5-1020.3,4595.5-1010.5z"/>
				<path class="st6" d="M4904.3,111.6c-18.5,45.6-36.1,94-55.2,140.1c-13,31.5-51.9,113.2-57.4,138.5
					c22.3-16.8,108.7-100.3,105.8-7.9l7.3-3.7c12-99.3,54.4-206.2,68.3-303.1c-14.9-11.7,4-6.6-10.3-1.3l-22.9,18.3
					C4927.3,100.4,4920.2,107.3,4904.3,111.6L4904.3,111.6z"/>
			</g>
			<g>
				<path class="st7" d="M4642.8-1519.5l-41-55.7c23.8-17.9,119.4-47.7,130.6-57c-5.6-21.6-9.2-14.9-23.3-30
					c-29.4-31.5-27-40.6-78.9-83.7c-29.8-24.8-27.7-27.2-58.7-49.8c-19.7-14.4-60.8-19.1-86.2-26.1c-55.8-15.4-109.6-37-164.6-52.2
					c-171.2-47.5-560.6-112.8-742.1-133.9c-61.7-7.2-131.4-21.3-192.8-24.1c182.8,88.8,290.5,100.5,434.2,217
					c28.2,22.8,73.2,63.7,96.2,91.4c31.4,37.8,52.1,53.8,86.8,100.7l80.6,106.9c10.7,15.1,27.9,44.7,44.9,51.3
					c30.3,11.7,119.7,36.7,151.7,38.8c65.8,4.3,92.5-32.6,85.2-97.5c-3-26.2-44.6-54.6-65.4-71.5
					c-156.2-126.4-458.2-271.8-643.7-347.9l-102.7-38.8c-12.7-4-26.9-7.4-36.6-15.4c42.3,6.2,112.6,29.3,155.1,42.9
					c50.4,16.2,101.2,32,150.9,48.7c168.3,56.5,400.3,159.7,537.5,262.6c20.4,15.3,38.8,27.9,56.9,43.1c14.6,12.2,42.7,24.7,65,35.1
					C4536.9-1539.3,4574.7-1514.4,4642.8-1519.5L4642.8-1519.5z"/>
				<path class="st7" d="M4159.7-1405.4c7.4,18.1,56.1,92.3,72.6,128.1c10.1,21.9,24.8,44.6,32.3,67.7c9,27.6,6.1,25.1,56.8,47.5
					c23.3,10.3,42.6,24.2,64.9,35.1l128.5,71.5c47.6,26.8,97.9,79.5,137.4-105.5c9.2-43,3.8-41.4-16.2-69.9
					c-15.2-21.7-28.8-38.2-44.9-59.3c-7.3-9.6-12-16.9-22-28c-28.6-31.9-47.6-61.1-83-96.1l-33.6-41.5
					c-10.4-11.1-16.6-11.5-27.7-22.2c-10.2-9.8-15.8-18.1-27.9-28.2c4.3,57.6-17.1,117.6-69.6,127.1
					C4265.5-1367.9,4214.8-1393.8,4159.7-1405.4L4159.7-1405.4z"/>
				<path class="st7" d="M4033.4-1113.1L4386-972.3c10.6,4.7,17.4,9.9,28.3,5.7c31.9-12,34.4-62.8,35.6-88.2L4275.1-1170
					c-17.9-10.6-193-49.4-231.9-59.7c7.9,20.9,24.6,32.1,22.6,61.9c-1.5,22.3-11.4,29.3-21.1,40.2
					C4039.5-1121.8,4037.1-1118.5,4033.4-1113.1z"/>
				<path class="st7" d="M3988.8-1135.2c29.2-21.9,23.6-51,9.7-91.4c-9.1-26.4-26.3-23.2-85.6-39.5
					c-104-28.6-297.8-81.8-394.4-113.9l-194.7-56.2l161.7,76.8c55.2,24.9,110.5,52.6,165.7,75.8l250.5,112
					C3921-1162.8,3971.9-1138.8,3988.8-1135.2z"/>
			</g>
			<g>
				<path class="st8" d="M2739.2-528.5c-16.5-7.4-25-15.8-41.9-17.8c9.3-17.2,15.3-18.8,29.3-29.1c56.2-41.5,38.7-37.7,98.7-19.8
					c49.2,14.6,99.8,28.5,148.9,42.2c100.1,28.1,201,60.3,300.9,86.6c100.4,26.5,200.5,59.8,300.8,87.5
					c50.6,13.9,101.8,27.7,152.1,43.5c47.6,14.9,36.7-31.7,109.2-70.2l-24.6-14.3c-7.4-2.5-14.5-4.9-21.9-7.3l-132.2-42.4
					c-57.9-20.6-117.5-38.8-176-57.6c-118-38-234.3-77.8-352.6-113.7c-116.4-35.3-235.6-79-351.9-115.3
					c-90.7-28.3-273.9-92.9-349.2-112.9c4.5,16.1,80.9,79.9,97,94.6c12.5,11.4,9.7,10,21,24.7l51.3,48.8c5,4.6,8.5,7.1,13.2,11.5
					l13,16.8L2489.3-686c1.2,17,215.6,398.2,239.1,446c17.7,36,40.9,77.1,60,110.8c21.6,38,40.1,75,62.1,113l119.8,224.1
					l-468.9,616.7c-7.8,10.2-16.6,21.1-23.7,30.4l-70.1,92.3c-6.9,9.3-14.1,20.1-22.9,31.4l-166.3,215l-24.4-63.8l-166.1,479.8
					c31.3,14,112.1,49.1,141.7,41.9c151.8-36.6,94.6-63.8,209-4.3c63.1,32.8,129.5,61.7,189.9,98l-138.7,801.1l988-457.6l6.2-134.3
					l-76,7.4l56.5-567.4c-38.8-23.8-50.3-6.4-71.4-56c-31.6-74.2-102.9-208.1-125.4-269.8c136.1,37.1,328.3,109,474.7,157.9
					c47.7,15.9,47.8,25.4,97.1,9.3c60.6-19.9,135.3-42.4,197.6-57.9c-13.7-76.9,1.9-60.4-57.1-80.5c-17-5.8-33.3-11.1-50-16.3
					c-32.6-10.2-63.9-21.6-96.5-32.6l-336.7-113.3c-25.6-8.4-20.5-11-28.1-38.5l-174.9-604.8c-19.5-66.2-38-133.3-57.7-200.5
					c-19.4-66.1-43.1-140.5-58.1-206.3c13.2-6.6,94.9-106.9,112.6-122.9l-26.8-18.8c-8.8-5-23-12.5-32-17.9L2739.2-528.5
					L2739.2-528.5z"/>
				<path class="st8" d="M2821.4-1517.4c59.9,14.5,430.7,163.5,464.2,170.5c12.9,2.7,71-1.7,85.2-4.3l-113.9-50.4
					c-23.5-10.1-15.7-7.7-30.3-28.3L3154-1528c-4.3-5.9-8-10.7-12.3-16.6l-12.9-20.8l825,184.9c-9.3-35-27.1-84.9-40.2-119.6
					c-4.6-12.1-9.3-17.3-15.3-26.5l-50.9-74.1c-5.8-7.8-10.3-13.3-15.8-21.7l-50.7-74.3c-12.8-17.8-21.9-32.6-34.2-49.2
					c-16.8-22.6-13-26-40.5-42.5c-34.9-20.9-69.8-37.6-104.7-57.9l-269.6-147c-17.6-9.8-36.3-17.1-54.2-30.6l-5.6-62.7l1009.1,79
					c-10.9-7.7-671.8-208.5-750.2-230.2c-34.3-9.5-142.3,31.7-179.3,42.9c-94.6,28.4-62.6,4.8-131.8,55.1L2943.2-1925
					c-68.1,54.3-50.1,23.3-73.9,150.8L2821.4-1517.4z"/>
			</g>
			<g>
				<g>
					<path class="st9" d="M4314.2-219.4l3.6,3l57.5-97.8l26.4,9.1c-3.9,16.3-84.5,143.6-92.1,155.3l-31.2-7.6l14.9-108.5l-3.2-3.7
						c-23.8,28.2-35.9,69.1-59.7,94.5l-24.2-7.7c12.9-35.1,80.2-126.2,89.2-157.7c40.1,7.9,35.2,8,29.5,46.1
						C4321.3-270.4,4315.4-242.9,4314.2-219.4z M4944.5-1632.7c-8.4,60.5-41,44.1-89.4,31.3l28.7,43.4c11.6,17.4,17.8,28,27.9,47.1
						c21.3,40.3,50.5,114.7,64.1,161.2c10.4,35.6,2.2,28.3,30.9,43.8c24.6,13.3,69.4,50.1,103.7,31.9c9.5-5.1,28-26.1,32.6-38.7
						c0.3-0.9,0.6-1.8,0.8-2.8c3,6.7,7,13.2,11.9,19c0.6,1.2,1.2,2.3,1.9,3.5c0.5,1.9,1.2,3.7,1.8,5.5c0.3,8.1,1.8,15.8,4.3,23.1
						c-12.4,14.5-36.1,32-64.1,37c-45.8,8-59-9.5-94.1-17.9c4.5,35.2,35.6,157.8,46.3,223.6c6.6,41.3,10.4,69.7,31.4,101.6
						c17.6,26.6,40.3,65.7,77.6,54.7c11.9-3.5,32.5-19.9,40.7-26c18.9-14.1,16.6-17,18.4-48.7c1.3-22.9,3-41.3,4.7-56.7l33.3,127.2
						c-31.6,226.1-29.1,375.7-106.7,616.2c-9.4-7.5-9.2-14.5-5.9-37.7l43-284.4c9.7-94.5,12.9-200.7,25.8-293.1
						c-26.9,12.7-53,33.1-87.9,14.1c-14.2-7.7-49.1-44.1-56.3-56l26,227c8.3,73.6,18.9,172.6,17.7,246.1l-46.7-278.7
						c-15.8-87.8-42.5-182.9-55.9-270.1l-4.4,6.8c-4.2,8.3-1,0.3-4.5,10c-2.8,7.7-9.3,36.3-25.3,42.4
						c-45.5,5.2-74.7-15.2-112.5-24.6c8.4,30.5,101.3,227.4,128.8,325.1l-8.8,0c-4.7-24.8-127.5-263.1-140.9-276.3
						c-17.5,23.7-32.8,24.3-67,22.5l-10.8-2.7l2.7,8.9l-7.7,5.3c-0.5,0.4-1.4,1.5-1.8,1.9l-5.1,6.9l-276.8-175
						c2.3,53.8,1.3,61.7-38.9,79.1c14.8,15.2,78.2,32.4,100.7,43.6c18.3,9.1,4.7,4.1,7.7,8.8c7.6,12.3,63.2,13.3,106,55.8
						c12.7,12.6,41.6,38.9,32.7,68.6c-10.2,34.1-57.6,119.7-75.7,149.5c-35.3,58-49.2,87.7-137.4,74.9
						c-47.8,300.3,0.4,167.2-119.4,368.2c-8.5,14.2-21,36.3-30.7,48.5c-13.5,17-39.3,15.8-61.6,7.4
						c-152.1-57.4-322.1-114.7-479.7-160.6c15.4,46.2,157.6,61.8,199.8,92.3c-6.3,5.7-28.6,2.6-37.5,2.6c0,0.5,0.6,1.1,0.6,1.3
						l-1.4,10.3c-18.5,0-482.3-159.4-539.8-179.1L3000.7-500c-33-11.4-106.4-39.8-137.7-45.2c5.2,4.9,2.4,2,5.1,7.3
						c-4.5,14.2,6.9,2.1-28.9,0.2c-10.5-0.6-22.9,0-33.7,0c-33.9,0-66.9-7.3-66.4,9.3c-16.5-7.4-25-15.8-41.9-17.8
						c9.3-17.2,15.3-18.8,29.3-29.1c56.2-41.5,38.7-37.7,98.7-19.8c49.2,14.6,99.8,28.5,148.9,42.2c100.1,28.1,201,60.3,300.9,86.6
						c100.4,26.5,200.5,59.8,300.8,87.5c50.6,13.9,101.8,27.7,152.1,43.5c47.6,14.9,36.7-31.7,109.2-70.2l-24.6-14.3
						c-7.4-2.5-14.5-4.9-21.9-7.3l-132.2-42.4c-57.9-20.6-117.5-38.8-176-57.6c-118-38-234.3-77.8-352.6-113.7
						c-116.4-35.3-235.6-79-351.9-115.3c-90.7-28.3-273.9-92.9-349.2-112.9c5-16.2,122.5-6.2,143.6-6.2c-19.2-10.9-8.8-14.4-8.3-17
						l62.1,19.5c-27.5-40.9-22.5-44.6-79.9-68c-30.4-12.4-77.4-31.4-104.1-47c7.8-11.7,12.2-19.4,20.3-30.9l64.5-89.4l178.9,75.2
						c41.1-19.5,22.2-36.5-10.5-107c-36.3-78.1-84.6-195.6-32.3-274c19.2-28.8,59.6-60,99.4-78.7c-15.9-142.4-29.3-336.2,58.5-455
						c8.1-10.9,8.2-12.9,17-24.7c18.2-24.4,27-41.3,48.7-63.6c9.3-9.6,5.3-3,12.4-14.9l47.2-38.2c73-52.3,74.3-54.9,165.1-101.6
						c38.9-20,217.2-107.7,251.6-104.6c5.2-0.6,8.4-2.2,11.5-4l292.1,35.7c174.2,39.3,548.7,174.3,691.5,248.2
						c53.5,27.7,104.1,57.4,144.3,89.1l137.8,99.7c27.4,18,2.8,0.9,23,35.3c10.9,18.5,79.1,65.3,93.2,81.9
						c36.6,43.5,87.5,92.1,151.9,81.3c6.7-11.5,10.5-20.1,11.2-34.1L4944.5-1632.7L4944.5-1632.7z M4798.9-1788.5l0.8,1.2
						L4798.9-1788.5z M4697.2-1870.8l-5.8-4.7c2.1-0.1,4.2-0.2,6.3-0.4C4697.5-1874.2,4697.3-1872.5,4697.2-1870.8z M5282.6-338.2
						c-0.7,1.9-1.4,4.1-2.4,6.7c-21.5,19.8-107.4,150.3-119,174.1c-7-9.3-3.7,1.9-3.7-12.3l95.8-220.2c5.5-12.2,10.1-20.6,13.6-27.9
						l0.2,32.7C5267.1-367.6,5272.9-351.4,5282.6-338.2L5282.6-338.2z M4096.4-268.6c5.8,2.6,5.1,0.7,11.5,7
						c33.3-38.3,30.9-26.3,54.5-52.6c14.2-15.8,36.5-44.4,51.9-54.9l35.7,11.3l-51,172l-32.8-10.1l11.3-38l-42.9-13.6
						c-3.9,7.3-13.7,23.3-20.3,26.9c-12.2,6.8-27-2.3-35.2-13.2l-0.6,1.9l-33.4-4.7c7.2-18.9,22-39.8,32.8-58
						c7.7-13,27.3-41.9,30.8-54.8c-11.1,4.1-23.5,24-31.6,33.2l-38.4,32.6l-26.4-8.4l26.5-89.9c-13,15.1-63.8,99.9-69.2,116.4
						l-29.5-9.9c17.4-38.4,81-126.5,89.4-156.2l48.1,14.1l-30.1,95.9c14.4-8.4,7.6-11.8,37.8-36.4c10.5-8.5,28.9-32.1,35.9-42.8
						c10.7,1.8,13.1,2.5,23.9,6.3l17.8,8.7c0.7,0.4,1.9,1.2,2.8,2L4096.4-268.6L4096.4-268.6z M4455.4-580.5l-41,254.7l-99.6-33.4
						l48.5-246.4c-26.7-2.5-50.8-17.4-75.1-22.5l-128.9,214.5l-92.3-30.7c7.7-20.2,24.5-42.8,36.2-62.2
						c45.9-76.6,224.1-380.6,256.1-425.3c46.3,10.7,106.5,36.7,154.5,52.6c93.6,31,180.6,43.2,111.6,153.3
						C4576.2-647.6,4550.9-563.1,4455.4-580.5L4455.4-580.5z M3739.6-557.2c17.2-39.8,255-422.5,290.9-487.8
						c24.5,3.9,273.8,91.1,282.8,99.3l-45.4,72.7c-43.8-21.8-137.3-52.2-187.5-66.9c-10.2,14.1-69.2,109.5-73.4,123.2l145.2,49.8
						c-4.2,11.5-3.2,7.6-10.8,19.4c-5.4,8.4-6.4,10.4-10.8,18.2c-7.2,12.6-13.3,24.8-22.1,33.9l-144.7-49.2
						c-14.8,17.4-31.7,50.5-44.1,71c-11.7,19.4-36.7,55.3-43.1,73.3c19.3,10.9,177.6,64.3,201.3,66.9l-47.5,76.3L3739.6-557.2
						L3739.6-557.2z M4595.5-1010.5c72-9.8,77-76.6,90.5-146.6c17.8,19,138.6,207,146.1,235.9c-18.4,23.8-38.3,25.9-72.8,24.4
						c-22.8-1-22.2-12-55.6-35.3l-105.7-75.8C4597.6-1009.5,4596.3-1009.6,4595.5-1010.5z M3369.1-724.2c7-11.6,11.4-18.8,18.8-31.2
						c73-122.5,190.6-308.4,253.9-423.3c35.1,6.9,108.6,36.1,146.7,49.4c146.1,51.1,187.4,46.4,100.3,191.5l-143.7,239.6
						c-26.4,44.1-42.5,82.6-98.2,94c-43.2,8.8-111.7-24.5-154-37.7c-34.4-10.7-112.2-34.9-141.5-50.1L3369.1-724.2L3369.1-724.2z
						 M4752.7-1172.3c35.1,11.9,84.8,30.8,123.2,22.5c43.6-9.4,46.5-36,62.5-79.8c17.5,21,39.3,120.7,49.4,155.5
						c12,41.5,14.6,43.1,4.9,86.3c-15.9,70.7-73.9,42.6-131,10.4c-19.2-10.8-13.9-5.3-23.2-26.9
						C4812.7-1063.9,4777.6-1118.2,4752.7-1172.3L4752.7-1172.3z M3194-744.9c6-19.5,192.2-324.1,219.1-368.7l72.1-119.9l91.2,33.2
						c-6.6,18.2-24.9,43-36.9,63.1c-12.5,20.8-23.3,38.6-36,59.9l-218.5,363.8L3194-744.9z M2827.9-871.1
						c7.1-21.9,56-96.2,71.8-122.5c24.8-41.1,48.6-81.3,73.4-122.4c25.1-41.5,49.1-81.9,73.4-122.4c11-18.2,60.5-107.5,75.6-119.4
						c67.2,19.6,136.5,48.9,204.2,69.9c140.2,43.5,81.5,101.5-4.1,241.8c-19.2,31.5-30.8,55.2-69.5,67.8
						c-57.9,18.9-158.7-37.3-218.1-51.6l-116.9,190.7L2827.9-871.1L2827.9-871.1z M4033.4-1113.1c3.6-5.3,6.1-8.7,11.3-14.5
						c9.7-10.9,19.5-17.9,21.1-40.2c2-29.8-14.7-41-22.6-61.9c39,10.3,214,49.1,231.9,59.7l174.8,115.2
						c-1.2,25.4-3.7,76.2-35.6,88.2c-11,4.1-17.7-1.1-28.3-5.7L4033.4-1113.1L4033.4-1113.1z M2524.9-1074.1
						c15.8,5.6,13.5,8.9,30.7,15.4l92.8,32.2c78.3,27.5,77.1,32.6,104.8-13.6c17.1-28.6,22.2-25.4,5-58.9
						c-89.9-175.1-109.9-174.2-43.8-284c21.4-35.6,47.1-66.7,91-72.2c32.6-4.1,221.5,57.3,249,75.7c-6.7,14.2-38.6,70.1-49,81.2
						c-59.6-29.8-50.2-22.3-121.4-47.3c-51.9-18.2-66.6-35.3-97.8,30.5c-17.4,36.7,83.3,159.2,89,223.5
						c3.5,39.5-31.8,90.5-48.7,116.4c-14,21.5-18.6,33.3-38.5,44.8c-17.3,10-37.2,19.7-61.7,18.9c-26.1-0.9-225.1-67.3-246.3-80.6
						C2487.3-1011.7,2518.4-1048.1,2524.9-1074.1z M4159.7-1405.4c55.1,11.6,105.7,37.4,167.7,26.2c52.5-9.5,73.9-69.5,69.6-127.1
						c12.1,10.2,17.7,18.5,27.9,28.2c11.1,10.6,17.3,11.1,27.7,22.2l33.6,41.5c35.3,35,54.4,64.2,83,96.1c10,11.2,14.7,18.5,22,28
						c16.1,21,29.6,37.6,44.9,59.3c20,28.5,25.4,26.9,16.2,69.9c-39.5,185-89.8,132.3-137.4,105.5l-128.5-71.5
						c-22.3-10.9-41.6-24.9-64.9-35.1c-50.7-22.3-47.8-19.9-56.8-47.5c-7.5-23.1-22.2-45.8-32.3-67.7
						C4215.8-1313.1,4167.1-1387.3,4159.7-1405.4L4159.7-1405.4z M3988.8-1135.2c-16.8-3.6-67.7-27.6-86.9-36.4l-250.5-112
						c-55.3-23.2-110.6-50.9-165.7-75.8l-161.7-76.8l194.7,56.2c96.6,32.1,290.4,85.3,394.4,113.9c59.3,16.3,76.5,13.1,85.6,39.5
						C4012.3-1186.3,4018-1157.2,3988.8-1135.2z M4529-1495.5c52.1,6.1,108.1,26.2,163,6.6c64-22.9,61.3-70.6,74.7-105.3
						c38.9,33.8,164,284.3,153.3,320.5c-8,27-46,76-72.5,86.4c-38.5,15-84.7-18.8-114-36.8c-26.8-16.4-21.5-18.1-36.6-42.6
						c-50-81.3-80.7-115.8-131.6-185.1L4529-1495.5L4529-1495.5z M4732.4-1632.3c4.3,2.9,2.9-1.2,8.7,7
						c-4.9,26.7-20.7,51.3-34.6,67.7c-18.9,22.3-30.3,24.1-63.7,38c-68.1,5.1-106-19.8-160.4-45.2c-22.2-10.4-50.4-22.8-65-35.1
						c-18.1-15.2-36.5-27.8-56.9-43.1c-137.2-102.9-369.1-206-537.5-262.6c-49.7-16.7-100.5-32.5-150.9-48.7
						c-42.5-13.7-112.8-36.7-155.1-42.9c9.8,8.1,24,11.4,36.6,15.4l102.7,38.8c185.5,76.1,487.5,221.5,643.7,347.9
						c20.8,16.9,62.5,45.3,65.4,71.5c7.3,64.8-19.5,101.8-85.2,97.5c-32-2.1-121.4-27-151.7-38.8c-17-6.6-34.2-36.2-44.9-51.3
						l-80.6-106.9c-34.7-46.9-55.4-63-86.8-100.7c-23-27.6-68-68.5-96.2-91.4c-143.7-116.5-251.4-128.2-434.2-217
						c61.4,2.8,131,17,192.8,24.1c181.5,21.1,570.8,86.4,742.1,133.9c55,15.3,108.8,36.8,164.6,52.2c25.4,7,66.5,11.7,86.2,26.1
						c31,22.6,28.9,25.1,58.7,49.8c51.8,43.1,49.5,52.2,78.9,83.7C4723.2-1647.2,4726.8-1653.9,4732.4-1632.3L4732.4-1632.3z
						 M2869.2-1774.1c23.9-127.5,5.9-96.5,73.9-150.8l276.8-214.9c69.2-50.4,37.2-26.7,131.8-55.1c37.1-11.1,145-52.4,179.3-42.9
						c78.4,21.8,739.3,222.5,750.2,230.2l-1009.1-79l5.6,62.7c17.9,13.6,36.6,20.8,54.2,30.6l269.6,147
						c34.9,20.3,69.9,37,104.7,57.9c27.5,16.5,23.7,19.9,40.5,42.5c12.3,16.6,21.4,31.3,34.2,49.2l50.7,74.3
						c5.5,8.3,10,13.9,15.8,21.7l50.9,74.1c6,9.2,10.7,14.4,15.3,26.5c13.1,34.7,30.8,84.6,40.2,119.6l-825-184.9l12.9,20.8
						c4.3,5.9,8,10.6,12.3,16.6l72.7,98.1c14.6,20.6,6.8,18.2,30.3,28.3l113.9,50.4c-14.2,2.6-72.3,7-85.2,4.3
						c-33.5-7-404.3-156-464.2-170.5L2869.2-1774.1L2869.2-1774.1z"/>
				</g>
				<path class="st9" d="M4880,54.3l-39.2,89.7c-20.8,63.9-90.1,184.1-100.6,216.2c4.6-38.7,6.7-76.7-20-96.3
					c-21.5-15.8-65.5-35-100.5-33.4l-31,2.8c1.3,0.2,3.4-0.9,4.2,0.8c0.8,1.6,3,0.8,4.1,1.1c1,0.3,2.7,0.7,3.9,1l14.8,3.7
					c-20.1-10.1-37-7.5-60.6-7.1l-26.7,11.1c49.4,6.1,82.7-13.2,162.3,32.7c27.1,15.7,30.2,24.1,27.1,68.9
					c-1.5,22-5.8,63.6-12.1,83.3c-13.3,41.9-133.2,230.3-135.6,246.2l-13.1,3.8c-24.9,0.2,7.2-13.2-12-2.1c1.3,35,13,11.6-11.7,46.5
					l-62.6,75c-41.4,40.2-151.1,112.1-206.3,135.4c-25.7,10.9-26.5,15.2-49.3,2.3c-55.2-31.4-286.1-168.6-305.9-172.2l-9.1,10.7
					c63,39.7,128.8,77.3,192.6,112.9l191.5,110.6l-14.5,19.1c13.3,1.3,5.2,5,19-0.8c0,0-0.9-12-3.8,2.3l-0.8,7.9
					c-0.1,1.3-0.4,3.2-0.2,4.8c15.9-8.5,14-13.3,13-41.4c38.8-6.7,161.4-103.3,197.7-138.5c23.9-23.2,35.7-23.5,69.4-64l33.9-36.2
					c6-15.5,4.4-9.9,15.1-23.1c12.1-14.9,0.1-8.6,20.2-17.3c41-17.8,85.6-18.4,127-3.4c20.7,7.5,38.1,19.8,56.7,25
					c-4.2-14.3,4.9-5.3-9.4-11.8c4.4,2.9,7,1.9,10.4-3.8l-12.2-12.8c-69-49.1-61.8-42.3-144.7-42.2c12-27.2,33.5-60.8,48.4-91.5
					c14.6-30,29.9-62.5,43.8-93.7c23.8-53.5,13.8-48.5,59.4-78.1c63.3-41.1,63.9-21,81.5,5.3c0.9-0.8,2.3-2.1,2.4-2.8
					c0.2-3.3,0.9-1.4-0.8-9.7l1.9-9.1c2.9-92.4-83.5-8.9-105.8,7.9c5.5-25.3,44.4-107,57.4-138.5c19-46.1,36.7-94.5,55.2-140.1
					l23.3-63.2L4880,54.3L4880,54.3z"/>
				<path class="st9" d="M3490.4-738.9c14.7,7.2,114.3,43.8,127.3,42.5c25.7-2.6,122.2-179.9,140.1-209.8
					c14.5-24.1,60.6-89.3,59.5-115.4c-21.8-15.4-95.5-37.5-128.6-46.6L3490.4-738.9z"/>
				<path class="st9" d="M3082.1-1108.6c158.6,64.3,137.1,46.5,179.5-23c9.9-16.2,31.8-46,32.8-64.5c-18-22-97.7-43.7-133-52.8
					C3153-1213.5,3095-1146,3082.1-1108.6L3082.1-1108.6z"/>
				<path class="st9" d="M4334.7-703.4c150.3,49.9,129.8,59,171.2-8.8c10.4-17.1,29.6-39.7,27.5-62.6c-21.8-14-95.7-39.8-128-46.9
					C4397-812.4,4338.7-714.7,4334.7-703.4z"/>
			</g>
			<path class="st10" d="M5278.2-136.5c-1.5,2.8-3.3,5.4-5.5,7.7c-32.5,35.7-108.4,87.4-116.4,97.4c49.8-1.9,81.9-17,124.6-27
				L5278.2-136.5z M5259.5,49.5l-150.6-28.4c32.6,24.7,103,52.2,130,72.7L5259.5,49.5z M5150.7,283.2c-1.6,2.6-2.9,4.3-3.8,5.1
				c-28.6-55.6-65.2-169.1-79.8-189.8c7.9,77.9,40.5,203.7,44.5,257.5c0.3,4.2-1,10.7-3.6,18.8L5150.7,283.2L5150.7,283.2z
				 M5095.5,406.6c-2,4.5-4.2,9.2-6.4,13.9c1.1-0.9,2.3-1.8,3.4-2.7C5093.4,414.1,5094.4,410.4,5095.5,406.6L5095.5,406.6z
				 M5012.6,545.2c-15-59.8-4.5-169.2-6.8-233.9c-9.9,21.1-33.1,219.7-39.3,262.1c-14.3,97.4-1.2,55.4-38.9,111
				c-18.3,27-40.6,65.6-42.8,103.8l-4.5,10.5c-4.1-9.1-4.8-7,0.7-18.2c-1.3-57.7,12.5-155,20.1-214.2c9-69.7,17.6-132.9,30.4-202.6
				c23-125.9,71.3-242,105.2-359.5c-16.9,5.9-48.8,25.6-55.4,39.2l-8.1,31.9c-13.9,97-56.3,203.8-68.3,303.1l-2.1,11.1l-7.1,1.7
				c1.8,8.3,1.1,6.4,0.8,9.7c0,0.6-1.4,2-2.4,2.8c2.7,32.2-21.5,126.9-26.7,166.8c-7.3,56-14.3,108.9-15.9,166.6
				c-20.8-6.4-3.3-0.6-15.6-9.6c-7-5.1-8.2-5.8-18-11c-3.4,5.7-6,6.7-10.4,3.8c14.3,6.4,5.2-2.6,9.4,11.8
				c5.3,9.9,26.5,22.9,33.7,29.3c-0.7,103.3,22.3,73.3,15.9,120.4c-1,7.7-1.8,14.6-2.3,21L5012.6,545.2L5012.6,545.2z
				 M4849.4,1063.7c-0.4,0.6-0.7,1.1-1,1.5l-2.7,7.7c1.9-1.1,3.9-2.2,5.8-3.2C4850.8,1067.8,4850.1,1065.7,4849.4,1063.7z
				 M4505.6,1279.2l-104.2-84c-9.2-7.7-5.8-6.1-15.8-13.3l-102.9-84.6c-11.6-8.4-19.4-16.4-29.2-25.8c9.2-15.6,11.8-8.9,30.5-40.2
				c-0.1-1.6,0.1-3.6,0.2-4.8l0.8-7.9c2.9-14.3,3.8-2.3,3.8-2.3c-13.8,5.8-5.7,2.1-19,0.8l-42.7,34.7l-67.9-55.8
				c-5.7-4.2-6.2-3.7-12.2-8.7l-146-120.6c-5.5-4.7-6-4.6-11.5-9.4l-32-26.3c-8.6-7.5-13.3-9.4-23.4-18.3l-46.6-37
				c-6-5.7-10.2-12.8-17.1-16.8l29.7,15.5l9.1-10.7c-8.7-11.9-26.2-19.2-40.4-27.4c-10.9-6.3-31.2-13.5-38.1-24.2
				c68.6-29.9,124.2-58,182.7-92.1c29.4-17.2,55.7-34,84.7-52.7c94.4-60.9,60.6-62.5,211.5-63.1c58.4-0.2,116.5,6,153.2,54.6
				l82.3,118c19.2-11.1-12.9,2.3,12,2.1l13.1-3.8c-9.8-6.5-10.5-11.7-15.7-24.7c-79.2-196.9-159.9-190.3-334-167.3l98.3-78.6
				c8-6.7,9.2-7.6,18-15.3L4482,263.8c22-24.1,26.1-9.3,46.4-19.9l26.7-11.1c23.5-0.4,40.5-3,60.6,7.1l-18.7-4.7
				c-1.1-0.3-3.3,0.5-4.1-1.1c-0.8-1.7-2.9-0.6-4.2-0.8l31-2.8c-19.7-12.3-61.8-7.6-86.8-8.4l150.4-132c6.8-6.7,10.7-7.9,18.1-15.3
				L4753,29c-8.9-13.7-23.6-25.8-36-32.9c-15.4,19.9-22.4,18.2-37.4,32.1c-9.7,9-7.2,10.5-17.9,19.4c-7.2,5.9-12.7,8.9-19.9,13.1
				l-166,145.6c-7.7-53.7,28.7-163.7-97.4-188.3c6.7-7.3-2-1.2,11.4-8.9c1.2-0.7,7.2-3.1,9-3.9c50.4-21.2,120.3-69.1,125.5-70.6
				c5.2-10.5,9.2-12.1,22.6-22.6c6.4-5,9.2-5.9,14.7-10.4c18.6-15.5,50.2-39.5,52.2-53.3c5.6-7.6,2.1-11.6-1.8-21.2
				c-13.9-34-15.2-76.8-19.5-83c-12.2,30.6-25.9,54.8-41.7,76l-59.7,60.6c-15.6,7.2-13.5,9.8-26.7,19.6
				C4424.1-69.8,4293-1.5,4255.4,4c-14.5-13.3-12.6-16.8-23.1-27.2c-41.7-41-92.9-110-155.8-119.8c-8.6-1.3-14.3-0.7-21.8-2
				l-16.1-4.8l32.7-18.6l-91-30.4c-6.3,5.7-28.6,2.6-37.5,2.6c0,0.5,0.6,1.1,0.6,1.3l-1.4,10.3l22.1,14.3
				c-30.2,7.9-94.4,44.2-128,59.1c-78.5,34.6-39.1,26.6-142.5,6.2c-74.7-14.7-147.9-35.9-221.5-53.9c-29-7.1-56.1-11.1-70.4-28.4
				c13.1-4.2,23.6-7.1,31.1-21.1c-39.9-28.5-97.4-56.6-140.7-82.9L2941-498.3c-20-11.7-49.8-30.3-72.9-39.7
				c-4.5,14.2,6.9,2.1-28.9,0.2c-10.5-0.6-22.9,0-33.7,0c-33.9,0-66.9-7.3-66.4,9.3l432.3,253.8c9,5.4,23.2,12.9,32,17.9l26.8,18.8
				c-17.7,16.1-99.3,116.3-112.6,122.9c15,65.9,38.7,140.2,58.1,206.3c19.7,67.2,38.2,134.3,57.7,200.5l174.9,604.8
				c7.6,27.5,2.5,30.1,28.1,38.5l336.7,113.3c32.6,11,64,22.4,96.5,32.6c16.7,5.2,33,10.6,50,16.3c59,20.1,43.4,3.5,57.1,80.5
				c-62.3,15.4-137,38-197.6,57.9c-49.3,16.2-49.4,6.6-97.1-9.3c-146.4-48.8-338.6-120.7-474.7-157.9
				c22.5,61.7,93.8,195.5,125.4,269.8c21.1,49.6,32.6,32.2,71.4,56l-56.5,567.4l76-7.4l-6.2,134.3l-49.4,22.9h86.5
				c15.6-24.3,19.1-47,42.5-107.8c24.5-63.6,175.2-476.2,188.9-498c12.7-49.9,16.5-36.5,121.4-70.7l435.5-142.3
				c-6,15.4-35,47.4-47.1,63.8c-4.8,6.6-7.4,11-13,16.3c-7.6,7.2-12.6,12-16,15.4L4505.6,1279.2L4505.6,1279.2z M3858.2,1729.2
				c-4.2,6.2-7.8,11.5-13.9,16.5c3.9-0.8,7.8-1.5,11.7-2C3856.5,1738.9,3857.3,1734,3858.2,1729.2z M1773.4,1564
				c25.8-72.1,46-128.3,54.5-150.5c45.9-119.3,91.5-246.6,132.8-367.1c10.7-31.2,22.5-60.7,33.7-91.5c12.3-33.9-5.1-160.9-11-215.4
				l185.8-347.9c-5.3,55.4-8.7,111.1-8.9,167c11.3-15,150.8-406.2,170.2-458.9c58.2-158.6,50.3-81.2,12.3-241.6
				c-6.3-26.6-32.8-137.6-50.7-202.4l-7.1-343l2,8.1c22.6,99.2,48.8,196,72.9,295.9c23.5,97.4,45.2,198.4,71.2,294.4
				c7.9,29.3,16.8,46.9,6,73.8l-72.9,202.6c-33.1,88-65.3,181.8-95.9,270.6c-62.3,181.1-129.3,359.3-192,541.1
				c-31.5,91.3-65.7,179.8-96.4,270.3l-96.5,269.9c10.1-9.8,522.1-1210.6,595.2-1379.1c19.2-44.3,38.8-90.7,58.4-137.4
				c34.9-83.1,35.9-53,1.7-140.2c-37.4-95.3-72.4-191.7-108.7-286.5c-18.5-48.2-36.5-96.9-56.1-144.4
				c-17.7-43-35.3-105.8-55.3-143.5c-4.6-14.2-19.9-51.5-35.6-85.8l-1.7-80.8c14.1,33.2,29.2,66.1,42.6,98.7
				c10.3-43.6-11.1-135.5,4.5-188.7c45.2-7.5,181.4,47.8,235.3,55.9c-0.4,2.6-10.8,6.1,8.3,17c-21,0-138.6-10-143.6,6.2
				c4.5,16.1,80.9,79.9,97,94.6c12.5,11.4,9.7,10,21,24.7l51.3,48.8c5,4.6,8.5,7.1,13.2,11.5l13,16.8L2489.3-686
				c1.2,17,215.6,398.2,239.1,446c17.7,36,40.9,77.1,60,110.8c21.6,38,40.1,75,62.1,113l119.8,224.1l-468.9,616.7
				c-7.8,10.2-16.6,21.1-23.7,30.4l-70.1,92.3c-6.9,9.3-14.1,20.1-22.9,31.4l-166.3,215l-24.4-63.8l-138.8,400.9l-215.6,16.4
				C1816.1,1549.1,1793.8,1554.9,1773.4,1564L1773.4,1564z M2216.6-1083.9l11-16.5c0.2,9.7,0.6,19.4,1.1,28.9
				C2224.8-1075.8,2220.8-1080,2216.6-1083.9z M3604.4,1450.8c-3.9,24.4-67.9,161.1-83.1,193.7c-14.2,30.2-28.8,64.2-41.7,95.7
				c-13.1,31.9-31.8,62.5-40.1,95.1l-5.6-1.4l106.8-454.6c-1.2-7.1-151.4-132.7-164.5-146.3c-30.3-31.6-21.5-14.7-54-50.9
				c37.9,7.7,137.2,51.1,179.3,67.5c29,11.3,58.5,21.6,87.8,33c49.5,19.3,43,19.4,97,11.1c71.4-11,145.1-22.6,215.5-31.1
				c69-8.3,145.7-24.8,213.2-30.3l-22.7,16.7c-15.4,9.7-57.4,33.9-71.3,36.5c-58,11-350.7,50.7-364.2,60.3
				C3630.8,1370.3,3628.8,1422.9,3604.4,1450.8L3604.4,1450.8z M4241.8,1176.5c11-27.6,19.3-19.6,33.3-37
				c6.7,3.3,19.4,13.4,26.3,18.2l168.6,125.2L4241.8,1176.5z M3685.9,884.5c38.1-8.9,103.9-65.2,132.6-79.9
				c8.4,5.5,17.4,14.5,27.2,21.4c9.8,6.9,18.3,12.2,27,18.9c19,14.7,36.9,26.7,54.9,40.9l324.2,240.3c-21,12.1-21.3,13.3-35.8,33.6
				c-57.4-17.1-396.7-194.4-467.8-236.1C3715.8,904.5,3697.2,901.4,3685.9,884.5L3685.9,884.5z M3595.9,236
				c67.8-11.4,144.4-33.3,212.3-50.7c54.4-13.9,56-13.6,111.8-4.7c51,8.1,102.8,23.6,146.5,49.6l32.4,30.2
				c33,42.7,36.6,194.3,27.9,222c-4.7,14.9-51.6,44.8-71.4,58.8c-52.4,37.1-100.1,62.7-170,92.5c-131.9,56.3-99.9,57.2-178.2,10
				c-50.6-30.6-42.8-10.9-54-75.1c-6.5-37.3-12.1-73-19-110.1C3620.6,385.1,3608.7,309.9,3595.9,236L3595.9,236z M3934.7,153.8
				c30.6-13.8,102.2-28.6,139.5-39.2l269.2-85.9c16.8-1.4,52.6,10.8,68.8,18.3c19,8.8,26.8,25.4,35.9,51.3c9,25.7,12.3,53,13.7,80.6
				c2,39.6-1.8,46.7-26.3,63.5l-294.1,234.6c7.7-55.9,13.7-204.7-16.1-247.2c-17.6-25.2-40.6-42.6-78.3-55.4
				C4010.9,162.1,3955.9,161.3,3934.7,153.8z M3783.2,782.6c-35.8,17.5-71.2,37.4-110.3,55.1c-21.6,9.8-36,24.1-57.1,14.3
				c-17.2-8.1-33.5-18.1-51.4-28.1c-82.2-45.5-60.5-15-82-84.8c-35.5-115.3-80.4-265.3-118-373.4c-26.4-75.9-57.8-170.9-77.9-248.1
				c39.5,5.3,99.9,20.5,139.2,32.2c40.8,12.2,95.8,37.1,130.1,45.2c9,61.1,13.9,122.4,21.9,183.2c7.8,59.2,35.7,188.7,50.4,257.4
				c10.2,47.7,7.2,36.5,39.8,60L3783.2,782.6L3783.2,782.6z M3759.9-17.1c26.7-12.1,79.6,7,99,25.7c17.5,16.9,35,70.9,40.8,100.7
				c-63.1,7.2-273.4,60.8-316.7,51l-15-86.7L3759.9-17.1L3759.9-17.1z M3815.2-42c15.2-11.8,91.5-45.5,113.8-55.6
				c97.7-44.4,68.7-59.9,169.9-4.6c19,10.4,33.2,21.7,49.6,33.7c8.8,6.4,15.3,12,22.9,18.7c11.5,10.1,56.7,44.9,62.5,63.2
				c-55.8,16.5-258.2,86-305.1,85c-0.8-49.3-0.7-66.4-29.5-96.9C3874.5-24.9,3838.9-23.8,3815.2-42z M3278.8-81.3
				c9-7.5,14-11.4,20.6-16.9l97.7-79.3c38.7,14.1,134.5,78.7,219.3,107.7c16.3,5.6,78.1,18.7,83.8,22.2l-163.9,78.3l6.7,64.4
				c-68.6-2.4-210.4-2.1-270-16.5c-8.8-35.6-38.4-97.7-36.7-127.4L3278.8-81.3L3278.8-81.3z M2207.1,1011.6
				c23.3-68.2,58.4-147.1,87.4-218.9c29.2-72.5,60.2-143.6,87.6-216.6l242.5-603.8c5-19.2-7-38-14.3-56.8
				c-54.2-140.4-109.8-307-165.1-446.7c-28.1-70.9-61.7-148.8-83.6-217.6c6,17.1,20.4,32.8,29,51.2c8.2,17.8,17.4,36.5,27.7,55.5
				c20.4,37.7,35.8,70.2,57,109.6c39.2,72.9,73.8,145.9,114.2,219.2C2628-243,2663.2-166.4,2703.5-94
				c19.2,34.6,37.7,72.5,57.3,109.3c14,26.3,37.6,84.5,57.2,107.4c-4.3,14.7-164.5,244.9-191,281.6l-37.1,54.6
				c-15,20.7-25,37.4-38.9,57l-229.5,332.9c-14.6,20.4-23.9,35.6-37.3,54.4L2207.1,1011.6z"/>
			<path class="st11" d="M4784.5-734.2c12.5,7.5,7.9,4.3,18.1,15.9c15.2,17.2,78.5,71.7,123.7,122.1c6.3,7,9.4,11.1,15.5,17.8
				c9,9.9,7.2,6.4,17.8,15.4l94.8,117.7c43.5,71.6,55.2,131.4,52.7,223.8c-1.3,46.3-9.7,78.6-35.8,103.8
				c-28.2,27.2-37.1,39.9-81,60.4c-91.9,43-173.3,14.7-222.3-51.5c-5.5-7.5-9-10.6-14.9-18.3c-34.8-45.6-58.3-85.8-65.5-147.7
				c-8.9-76.6,6.7-174.4,23.5-248.7c11.9-52.6,36.6-136.1,58.8-187.4L4784.5-734.2L4784.5-734.2z M4753.9-860
				c-23.8,30-42.8,84.7-60.7,124c-9.3,34.4-25.6,71.6-37.1,107.2c-12.2,37.8-22.8,74.6-33.4,113.3c-24.4,88.8-29,166-30.2,259.5
				c4.2,6.2,5.6,49,19.5,83c3.9,9.5,7.4,13.6,1.8,21.2l10.2,6.9c7.4,7.1,44.1,85.3,79.1,121.9c7.6,7.9,9.3,9.5,14,19.1
				c12.3,7.1,27.1,19.2,36,32.9c14.3,0.2,35.4,14.5,53.6,19.2c25,6.4,47.5,5.1,73.4,6.1l47.6-5.8l48-13.1c11.2,3.7,1.6-4.7,5.6,8.2
				c6.7-13.6,38.5-33.3,55.4-39.2c27.2-15.5,71-60.1,87.8-98c20.3-45.8,10.6-123.4,26.8-159.7c-9.4-7.5-9.2-14.5-5.9-37.7l1.7-10
				c-10.9-12.6-18.2-71.4-25.5-94.5c-19.7-63-46.3-106.5-84-157.9c-33.6-45.8-19.3-21.8-44.4-72.9l-8.8,0l-38.1-44.2
				c-5.7-6.9-8.6-9.3-13.6-15.5l-103.4-129.8c-7.5-10.7-3.6-8.3-13-16.3c-7.7-6.6-7.7-4.7-16-13c-12.3-12.4-16.4-18.2-31.7-28.8
				l-7.7,5.3c-0.5,0.4-1.4,1.5-1.8,1.9L4753.9-860L4753.9-860z"/>
			<path class="st12" d="M4283.9,1031.2c-18.7,31.3-21.3,24.6-30.5,40.2c9.8,9.4,17.6,17.5,29.2,25.8l102.9,84.6
				c10,7.2,6.6,5.7,15.8,13.3l103.8,83.8c9.7,7.1,9.5,9.1,16.4,16.7c37,0.3,218.2-62.2,271.4-75.3l55.4-155.1
				c-78,10.1-243.9,79-304.3-12.7c-34.4-52.3,19.2-99.7,38.5-134.2c28.9-51.5,18.8-106.5,15.2-167.2l-33.9,36.2
				c-33.7,40.5-45.5,40.8-69.4,64c-36.3,35.2-158.8,131.8-197.7,138.5C4297.8,1017.8,4299.8,1022.7,4283.9,1031.2L4283.9,1031.2z"/>
			<path class="st13" d="M4849-581.4c12.2,18.6,69.8,75.9,86.6,92.6c10.6,10.6,14.4,9.3,24.6,21.1l56.3,72.9
				c33,58.8,58.7,158.5-0.7,217.4c-3,2.9-2.8,3.4-6.2,6.3l-39,23.7c-110.3,45.7-180.8-67.2-189.7-144.4
				c-8.1-70.1,15.3-162.7,35.7-230.3l18.5-48.2C4841.9-579.6,4837.8-576.6,4849-581.4L4849-581.4z M4769.8-711
				c-22.2,51.3-46.9,134.8-58.8,187.4c-16.8,74.3-32.4,172.1-23.5,248.7c7.2,61.9,30.7,102.1,65.5,147.7c5.9,7.7,9.3,10.8,14.9,18.3
				c49,66.1,130.4,94.5,222.3,51.5c43.8-20.5,52.8-33.2,81-60.4c26.1-25.2,34.5-57.5,35.8-103.8c2.6-92.4-9.2-152.2-52.7-223.8
				L4959.6-563c-10.6-8.9-8.8-5.5-17.8-15.4c-6.1-6.7-9.2-10.8-15.5-17.8c-45.1-50.4-108.5-104.9-123.7-122.1
				c-10.2-11.6-5.6-8.4-18.1-15.9L4769.8-711L4769.8-711z"/>
			<path class="st14" d="M4849-581.4c-11.1,4.7-7.1,1.8-13.9,10.9l-18.5,48.2c-20.4,67.6-43.7,160.2-35.7,230.3
				c8.9,77.2,79.4,190.1,189.7,144.4l39-23.7c3.3-2.9,3.2-3.4,6.2-6.3c59.4-58.8,33.7-158.5,0.7-217.4l-56.3-72.9
				c-10.1-11.8-13.9-10.5-24.6-21.1C4918.8-505.5,4861.2-562.8,4849-581.4L4849-581.4z"/>
			<path class="st15" d="M4269.7,1017l14.5-19.1l-191.5-110.6c-63.8-35.6-129.6-73.2-192.6-112.9l-29.7-15.5
				c6.8,4,11.1,11.1,17.1,16.8l46.6,37c10,8.9,14.8,10.8,23.4,18.3l32,26.3c5.5,4.7,6,4.6,11.5,9.4l146,120.6c6,5,6.5,4.5,12.2,8.7
				l67.9,55.8L4269.7,1017L4269.7,1017z"/>
			<path class="st16" d="M4241.8,1176.5l228.2,106.4l-168.6-125.2c-6.9-4.8-19.7-15-26.3-18.2
				C4261.1,1156.9,4252.9,1148.9,4241.8,1176.5L4241.8,1176.5z"/>
			<path class="st17" d="M2287-679.2c5.8-0.2,16.9,0.2,21.9-1.6c12.1-4.3,7.2,2.3,9.8-11c-9.1-27.7-59-144.4-72.9-153.5L2287-679.2z
				"/>
			<path class="st18" d="M4154.2-267c6.1,4.5,4.4,4.2,14.5,7.8c3.7,1.3,11.7,3,15.9,4.2l24.9-70.7c-14.4,8-14.3,17.5-26.1,28.5
				c-6.9,6.5-8.8,5.4-16.1,12.8C4161.4-278.4,4158.5-273.6,4154.2-267L4154.2-267z"/>
			<path class="st19" d="M4078.5-231.8l0.6-1.9c12.3-6.6,18.8-19.1,28.8-27.9c-6.4-6.3-5.7-4.4-11.5-7c-3.8,6.7-6.2,10-9.8,16
				C4079.8-241.2,4080.3-243.3,4078.5-231.8z"/>
			<path class="st20" d="M4884.9,788.1l-3.9-7.6c-5.4,11.2-4.8,9.1-0.7,18.2L4884.9,788.1z"/>
			<polygon class="st21" points="4897.5,382.3 4895.6,391.3 4902.6,389.6 4904.8,378.5 			"/>
			<path class="st22" d="M4317.8-216.5l-3.6-3l-4.2,9.1C4324.9-211.4,4311.6-209.3,4317.8-216.5L4317.8-216.5z"/>
			<path class="st23" d="M4108.7-349.3c9.3-6.5,4.9,14.4,7.5-9.3L4108.7-349.3z"/>
			<polygon class="st24" points="4293.3,-266 4296.8,-277.6 4290.1,-269.7 			"/>
			<path class="st25" d="M4768.7-874.1c0.1-8.3-1.7-5.4,8-6.2l-10.8-2.7L4768.7-874.1z"/>
			<path class="st26" d="M3439.4,1835.2l-5.6-1.4L3439.4,1835.2z"/>
		</g>
		<g id="_494050968896">
			<g>
				<path class="st0" d="M4108.7-349.3l7.5-9.3C4113.6-334.9,4118-355.8,4108.7-349.3z M4108.7-349.3c-3.5,13-23.1,41.9-30.8,54.8
					c-10.9,18.2-25.6,39-32.8,58l33.4,4.7c1.7-11.5,1.3-9.4,8.1-20.7c3.6-6,6.1-9.4,9.8-16l69.2-115.1c-0.9-0.7-2.1-1.6-2.8-2
					l-17.8-8.7c-10.7-3.8-13.1-4.5-23.9-6.3c-7,10.7-25.4,34.3-35.9,42.8c-30.2,24.5-23.4,28-37.8,36.4l30.1-95.9l-48.1-14.1
					c-8.5,29.7-72,117.8-89.4,156.2l29.5,9.9c5.4-16.4,56.2-101.3,69.2-116.4l-26.5,89.9l26.4,8.4l38.4-32.6
					C4085.3-325.4,4097.7-345.2,4108.7-349.3z"/>
				<path class="st0" d="M4290.1-269.7l6.6-7.8l-3.5,11.6l-14.9,108.5l31.2,7.6c7.6-11.7,88.2-139,92.1-155.3l-26.4-9.1l-57.5,97.8
					c-6.1,7.2,7.2,5-7.8,6.1l4.2-9.1c1.2-23.4,7.1-50.9,10.7-75.1c5.7-38.2,10.5-38.3-29.5-46.1c-9,31.5-76.3,122.6-89.2,157.7
					l24.2,7.7C4254.2-200.6,4266.3-241.5,4290.1-269.7L4290.1-269.7z"/>
				<path class="st0" d="M4154.2-267c4.4-6.5,7.2-11.3,13.2-17.4c7.2-7.4,9.2-6.3,16.1-12.8c11.8-11,11.7-20.5,26.1-28.5l-24.9,70.7
					c-4.2-1.1-12.2-2.9-15.9-4.2C4158.5-262.8,4160.2-262.5,4154.2-267L4154.2-267z M4107.9-261.6c-9.9,8.8-16.5,21.2-28.8,27.9
					c8.1,10.9,23,20,35.2,13.2c6.6-3.7,16.3-19.6,20.3-26.9l42.9,13.6l-11.3,38l32.8,10.1l51-172l-35.7-11.3
					c-15.4,10.5-37.7,39.1-51.9,54.9C4138.8-287.8,4141.3-299.8,4107.9-261.6L4107.9-261.6z"/>
			</g>
			<g>
				<path class="st1" d="M3433.8,1833.9l5.6,1.4c8.3-32.6,27-63.2,40.1-95.1c12.9-31.5,27.6-65.4,41.7-95.7
					c15.2-32.5,79.2-169.3,83.1-193.7c-17.6-6.9-58.3-15.3-77.1-13L3433.8,1833.9L3433.8,1833.9z"/>
				<path class="st1" d="M4776.7-880.3c-9.7,0.8-8-2.1-8,6.2c15.4,10.6,19.4,16.4,31.7,28.8c8.3,8.4,8.3,6.4,16,13
					c9.4,8,5.4,5.7,13,16.3l103.4,129.8c4.9,6.3,7.9,8.6,13.6,15.5l38.1,44.2c-4.7-24.8-127.5-263.1-140.9-276.3
					C4826.2-879,4810.9-878.4,4776.7-880.3z"/>
			</g>
			<g>
				<path class="st2" d="M3663-2264c172.8,38.4,551,174.5,694.7,248.9c53.5,27.7,104.1,57.4,144.3,89.1l137.8,99.7
					c27.4,18,2.8,0.9,23,35.3c10.9,18.5,79.1,65.3,93.2,81.9c36.6,43.5,87.5,92.1,151.9,81.3c8.8-15.1,12.6-25.3,10.9-48.9
					c-21.4-18.8-41.2-34.1-59.8-52.2c-38.8-37.7-29.8-34.7-74.6-71.2l-112.6-91.4c-81.7-60.2-205.8-124.5-296.2-166.4
					c-106.2-49.1-223.3-86.6-337.3-125C3979.3-2202.7,3705.8-2278.1,3663-2264L3663-2264z"/>
				<path class="st2" d="M4927.6,48.4l-23.3,63.2c16-4.3,23-11.2,35.5-19.1l22.9-18.3c14.4-5.4-4.6-10.5,10.3,1.3l8.1-31.9
					c-4-12.8,5.6-4.4-5.6-8.2L4927.6,48.4L4927.6,48.4z"/>
			</g>
			<g>
				<path class="st3" d="M3686.2,1505.9l188.8,54c2,28.3-34.1,150-40.2,192.2c24.9-13.7,19.3-27.5,51.9-54.6
					c11.2-9.3,15-17.4,24.7-29.7c11.1-14.1,16.5-13.2,27.5-26.5l61.6-71.9c7.7-7.9,8.5-6.1,15.9-13.1c9.4-8.9,14.9-20.5,23.9-30.5
					c11.3-12.7,15.6-11,27.4-26.6c27.3-36.3,22.2-20.6,50.5-57.9c11.7-15.4,16.1-13.9,27.4-26.6c25.3-28.6,0.7-6.4,37.6-41.5
					c5.6-5.3,8.2-9.7,13-16.3c12-16.5,41.1-48.5,47.1-63.8l-435.5,142.3C3702.6,1469.4,3698.9,1456,3686.2,1505.9z"/>
				<path class="st3" d="M3527.2,1437.7c18.8-2.3,59.5,6.1,77.1,13c24.4-27.8,26.4-80.5,52.4-105c13.5-9.6,306.2-49.3,364.2-60.3
					c14-2.7,56-26.8,71.3-36.5l22.7-16.7c-67.5,5.5-144.2,22-213.2,30.3c-70.4,8.5-144.1,20.1-215.5,31.1c-54,8.3-47.5,8.2-97-11.1
					c-29.2-11.4-58.7-21.7-87.8-33c-42.1-16.4-141.3-59.8-179.3-67.5c32.4,36.3,23.6,19.3,54,50.9
					c13.1,13.6,163.3,139.2,164.5,146.3L3527.2,1437.7z"/>
			</g>
			<g>
				<path class="st4" d="M2563.9-892.3l43.6,13.5l-227.2-116.5c-8.1-271.4,34.8-610.9,208.1-826.2l23.3-26.6
					c40.9-45.6,48.3-56.3,100.8-95.1c37.6-27.9,78.4-50.7,121.1-74.7c29.3-16.5,47.9-31.6,65.3-32.7l47.2-38.2
					c73-52.3,74.3-54.9,165.1-101.6c38.9-20,217.2-107.7,251.6-104.6c-19.5-11.4-111.1,23.3-131.9,28
					c-47.2,10.6-92.5,24.5-137.3,38.4c-105.5,32.5-267.9,102.4-350.8,165.6l-201.9,189.9l-79,95.9c-4.9,6.4-11.1,15.8-17.3,24.5
					l-29,33.6c-93.9,122.2-133,224.1-166.6,382.7c-21.1,99.7-27.7,215.4-15.8,318.3c10.3,88.6,56.3,174.5,90.9,258.8
					c10.3-43.6-11.1-135.5,4.5-188.7C2373.7-955.8,2510-900.5,2563.9-892.3L2563.9-892.3z"/>
				<path class="st4" d="M4491-119.4l59.7-60.6c15.8-21.2,29.6-45.4,41.7-76c1.3-93.5,5.9-170.7,30.3-259.5
					c10.6-38.7,21.3-75.5,33.4-113.3c11.5-35.6,27.8-72.8,37.1-107.2l-86.7,136.9c-43.3,71.7-122.5,218.2-143.3,298.4
					C4439.4-208.6,4479.6-165.9,4491-119.4L4491-119.4z"/>
				<path class="st4" d="M4524.2-65.4c11.4,8.2,25.2,34.9,39.5,48.5c20.1,19.1,22.8,28.5,47.3,48.5l27.1,25.4
					c0.4,0.4,1.5,1.5,1.8,1.8c0.3,0.3,1.3,1.1,1.8,1.8c7.2-4.1,12.8-7.2,19.9-13.1c10.7-8.9,8.3-10.4,17.9-19.4
					c15-13.9,22.1-12.2,37.4-32.1c-4.7-9.6-6.5-11.2-14-19.1c-34.9-36.6-71.7-114.8-79.1-121.9l-10.2-6.9
					c-2.1,13.8-33.7,37.9-52.2,53.3c-5.5,4.6-8.3,5.4-14.7,10.4C4533.3-77.5,4529.4-75.9,4524.2-65.4L4524.2-65.4z"/>
				<path class="st4" d="M4683.3,90c20,10.4,40.5,25.6,68.7,38c29.2,12.8,56.6,18.2,88.9,16l39.2-89.7c-25.9-1-48.4,0.3-73.4-6.1
					c-18.2-4.7-39.3-19-53.6-19.2l-51.6,45.7C4694,82.1,4690.1,83.3,4683.3,90z"/>
				<path class="st4" d="M4642.8-1519.5c33.4-13.9,44.8-15.7,63.7-38c13.9-16.4,29.7-41.1,34.6-67.7c-5.8-8.2-4.4-4.1-8.7-7
					c-11.2,9.3-106.8,39.2-130.6,57L4642.8-1519.5z"/>
			</g>
			<g>
				<path class="st5" d="M3595.9,236c12.8,73.9,24.7,149.2,38.3,222.6c6.9,37.1,12.5,72.7,19,110.1c11.2,64.2,3.3,44.5,54,75.1
					c78.4,47.3,46.4,46.4,178.2-10c69.9-29.8,117.6-55.4,170-92.5c19.8-14,66.7-43.9,71.4-58.8c8.7-27.7,5.1-179.3-27.9-222
					l-32.4-30.2c-43.7-26-95.5-41.5-146.5-49.6c-55.7-8.8-57.4-9.2-111.8,4.7C3740.3,202.6,3663.6,224.6,3595.9,236L3595.9,236z"/>
				<path class="st5" d="M3909.2,763.7c19.8,3.7,250.6,140.8,305.9,172.2c22.8,13,23.6,8.6,49.3-2.3
					c55.2-23.4,164.9-95.2,206.3-135.4l62.6-75c24.7-34.9,13.1-11.5,11.7-46.5l-82.3-118c-36.6-48.6-94.8-54.8-153.2-54.6
					c-150.9,0.5-117.1,2.2-211.5,63.1c-29.1,18.7-55.3,35.6-84.7,52.7c-58.5,34.1-114.1,62.2-182.7,92.1
					c6.9,10.6,27.2,17.9,38.1,24.2C3883,744.4,3900.5,751.8,3909.2,763.7L3909.2,763.7z"/>
				<path class="st5" d="M1559.2,2150c15.1-19.9,234.8-648.1,268.8-736.5c45.9-119.3,91.5-246.6,132.8-367.1
					c10.7-31.2,22.5-60.7,33.7-91.5c13.2-36.2-7.7-178.9-12-225.7c-3-32.5-3.7-85.6-10.7-115.4l-103.9,135.5
					c-69.6,92.9-51.6,52.8-73,172c-47.8,266.8-108.2,551-157.9,818.3c-12.7,68-25.9,135.7-38.7,202.5
					C1586.5,2003.3,1564.7,2089.8,1559.2,2150z"/>
				<path class="st5" d="M2287-679.2c22.6,99.2,48.8,196,72.9,295.9c23.5,97.4,45.2,198.4,71.2,294.4c7.9,29.3,16.8,46.9,6,73.8
					l-72.9,202.6c-33.1,88-65.3,181.8-95.9,270.6c-62.3,181.1-129.3,359.3-192,541.1c-31.5,91.3-65.7,179.8-96.4,270.3l-96.5,269.9
					c10.1-9.8,522.1-1210.6,595.2-1379.1c19.2-44.3,38.8-90.7,58.4-137.4c34.9-83.1,35.9-53,1.7-140.2
					c-37.4-95.3-72.4-191.7-108.7-286.5c-18.5-48.2-36.5-96.9-56.1-144.4c-17.7-43-35.3-105.8-55.3-143.5c-2.6,13.3,2.3,6.7-9.8,11
					C2303.9-679,2292.8-679.4,2287-679.2z"/>
				<path class="st5" d="M3783.2,782.6l-115.4-87c-32.6-23.4-29.6-12.3-39.8-60c-14.7-68.7-42.5-198.2-50.4-257.4
					c-8.1-60.8-12.9-122.1-21.9-183.2c-34.2-8.1-89.3-33.1-130.1-45.2c-39.2-11.7-99.7-26.9-139.2-32.2
					c20.1,77.1,51.5,172.2,77.9,248.1c37.6,108.1,82.4,258.1,118,373.4c21.5,69.8-0.2,39.3,82,84.8c18,10,34.2,20,51.4,28.1
					c21.1,9.9,35.5-4.5,57.1-14.3C3712.1,819.9,3747.4,800,3783.2,782.6L3783.2,782.6z"/>
				<path class="st5" d="M2868-538c23.1,9.4,53,28,72.9,39.7l351.2,207.1c43.3,26.2,100.8,54.4,140.7,82.9c-7.5,14-18,17-31.1,21.1
					c14.3,17.3,41.4,21.3,70.4,28.4c73.6,18,146.7,39.2,221.5,53.9c103.5,20.3,64,28.3,142.5-6.2c33.7-14.8,97.8-51.2,128-59.1
					l-22.1-14.3c-18.5,0-482.3-159.4-539.8-179.1L3000.7-500c-33-11.4-106.4-39.8-137.7-45.2C2868.2-540.4,2865.4-543.3,2868-538
					L2868-538z"/>
				<path class="st5" d="M3236.3-48.7c-1.7,29.6,27.9,91.7,36.7,127.4c59.6,14.4,201.4,14.1,270,16.5l-6.7-64.4l163.9-78.3
					c-5.7-3.5-67.5-16.7-83.8-22.2c-84.8-29-180.6-93.5-219.3-107.7l-97.7,79.3c-6.6,5.5-11.6,9.4-20.6,16.9L3236.3-48.7
					L3236.3-48.7z"/>
				<path class="st5" d="M3685.9,884.5c11.3,16.8,29.9,20,62.3,38.9c71.2,41.7,410.4,219,467.8,236.1c14.5-20.3,14.7-21.4,35.8-33.6
					l-324.2-240.3c-18-14.2-35.9-26.2-54.9-40.9c-8.7-6.7-17.2-12-27-18.9c-9.8-6.9-18.8-15.9-27.2-21.4
					C3789.8,819.4,3724,875.7,3685.9,884.5L3685.9,884.5z"/>
				<path class="st5" d="M3568,73.7l15,86.7c43.2,9.7,253.5-43.9,316.7-51c-5.8-29.9-23.3-83.9-40.8-100.7
					c-19.3-18.7-72.2-37.8-99-25.7L3568,73.7z"/>
			</g>
			<g>
				<path class="st6" d="M2607.5-878.8l18.5,6c-27.5-40.9-22.5-44.6-79.9-68c-30.4-12.4-77.4-31.4-104.1-47
					c7.8-11.7,12.2-19.4,20.3-30.9l64.5-89.4l178.9,75.2c41.1-19.5,22.2-36.5-10.5-107c-36.3-78.1-84.6-195.6-32.3-274
					c19.2-28.8,59.6-60,99.4-78.7c-15.9-142.4-29.3-336.2,58.5-455c8.1-10.9,8.2-12.9,17-24.7c18.2-24.4,27-41.3,48.7-63.6
					c9.3-9.6,5.3-3,12.4-14.9c-17.4,1.1-35.9,16.2-65.3,32.7c-42.7,24-83.4,46.9-121.1,74.7c-52.5,38.8-59.9,49.5-100.8,95.1
					l-23.3,26.6c-173.3,215.3-216.2,554.8-208.1,826.2L2607.5-878.8z"/>
				<path class="st6" d="M3834.8,1752.1c6.1-42.2,42.2-163.9,40.2-192.2l-188.8-54c-13.7,21.8-164.4,434.4-188.9,498
					c-35.1,91.1-25.3,96.7-78.8,150.2c-25.5,25.5-90.1,97.1-117.5,111.6c-96.9,51.4-372.8,190.8-445,236.8l840.3-253.7
					c-1.9-42.3-23.1-302.2-17.9-318.2c3.6-11,29.2-39.7,39.5-48.1l78.7-88c13.3-11.6,10.7-6.9,21-20.6
					C3823.9,1765.5,3826.4,1760.5,3834.8,1752.1L3834.8,1752.1z"/>
				<path class="st6" d="M2207.1,1011.6l77-108.5c13.4-18.7,22.7-34,37.3-54.4l229.5-332.9c13.9-19.5,23.9-36.3,38.9-57l37.1-54.6
					c26.5-36.6,186.7-266.9,191-281.6c-19.5-22.9-43.2-81-57.2-107.4c-19.6-36.9-38-74.8-57.3-109.3
					c-40.2-72.4-75.4-149-114.1-219.2c-40.4-73.4-74.9-146.3-114.2-219.2c-21.2-39.4-36.6-72-57-109.6c-10.3-19-19.4-37.7-27.7-55.5
					c-8.5-18.4-23-34.1-29-51.2c21.9,68.8,55.5,146.7,83.6,217.6C2500.4-391.6,2556-225,2610.2-84.5c7.3,18.9,19.4,37.6,14.3,56.8
					L2382.1,576c-27.4,73-58.4,144.1-87.6,216.6C2265.6,864.5,2230.4,943.4,2207.1,1011.6L2207.1,1011.6z"/>
				<path class="st6" d="M5151.3-253.4c-16.3,36.3-6.5,113.8-26.8,159.7c-16.8,37.9-60.6,82.5-87.8,98
					c-33.9,117.5-82.1,233.5-105.2,359.5c-12.8,69.7-21.4,132.9-30.4,202.6c-7.6,59.1-21.4,156.4-20.1,214.2l3.9,7.6
					c2.2-38.2,24.4-76.7,42.8-103.8c37.7-55.6,24.6-13.6,38.9-111c6.2-42.3,29.3-241,39.3-262.1c2.3,66.3-8.8,179.3,7.8,238
					c15.1-11.7,100.4-162.4,98.1-193.4c-4-53.7-36.6-179.6-44.5-257.5c14.6,20.7,51.2,134.2,79.8,189.8
					c11.1-9.8,88.6-181.2,94-192.8c-25.2-20.7-98.7-48.9-132.1-74.3l153.8,29c27.6-53.8,24.5-48.8,25.2-110
					c-46.2,9.9-79.1,26.6-131.6,28.6c8-10,84-61.7,116.4-97.4c19.5-21.4,10.9-59.6,9.6-96.7c-1.2-34.8-2.2-71.1-2.1-106.1
					c-21.5,19.8-107.4,150.3-119,174.1c-7-9.3-3.7,1.9-3.7-12.3l95.8-220.2c17.3-37.9,24.6-39.5,22.4-85.4
					c-5.4-113.1-3.2-337.9-13.4-424C5226.1-656.2,5232.2-504.3,5151.3-253.4L5151.3-253.4z"/>
				<path class="st6" d="M4334.7-703.4c4-11.3,62.3-108.9,70.7-118.3c32.3,7.2,106.2,32.9,128,46.9c2.2,22.9-17,45.5-27.5,62.6
					C4464.5-644.5,4485-653.5,4334.7-703.4z M4455.4-580.5c95.5,17.4,120.8-67.1,170-145.6c69-110.1-18-122.2-111.6-153.3
					c-47.9-15.9-108.2-41.8-154.5-52.6c-32,44.7-210.2,348.7-256.1,425.3c-11.7,19.4-28.5,42-36.2,62.2l92.3,30.7l128.9-214.5
					c24.3,5.1,48.4,20,75.1,22.5l-48.5,246.4l99.6,33.4L4455.4-580.5L4455.4-580.5z"/>
				<path class="st6" d="M3688.8-1068.2c33.1,9.1,106.8,31.2,128.6,46.6c1,26.1-45.1,91.3-59.5,115.4
					c-18,29.9-114.4,207.2-140.1,209.8c-13,1.3-112.6-35.3-127.3-42.5L3688.8-1068.2L3688.8-1068.2z M3351.4-692
					c29.3,15.2,107,39.4,141.5,50.1c42.3,13.2,110.8,46.5,154,37.7c55.7-11.3,71.8-49.9,98.2-94l143.7-239.6
					c87.1-145,45.8-140.4-100.3-191.5c-38.1-13.3-111.6-42.5-146.7-49.4c-63.3,114.9-180.9,300.7-253.9,423.3
					c-7.4,12.4-11.7,19.6-18.8,31.2L3351.4-692z"/>
				<path class="st6" d="M3082.1-1108.6c12.9-37.4,70.8-104.9,79.3-140.3c35.4,9.1,115,30.9,133,52.8c-1,18.5-22.9,48.3-32.8,64.5
					C3219.3-1062.1,3240.7-1044.3,3082.1-1108.6L3082.1-1108.6z M2827.9-871.1l89.9,32l116.9-190.7c59.3,14.3,160.1,70.5,218.1,51.6
					c38.7-12.6,50.3-36.3,69.5-67.8c85.7-140.3,144.3-198.3,4.1-241.8c-67.8-21-137-50.3-204.2-69.9
					c-15.1,11.9-64.6,101.2-75.6,119.4c-24.4,40.5-48.4,80.9-73.4,122.4c-24.8,41.1-48.6,81.3-73.4,122.4
					C2883.9-967.3,2835-892.9,2827.9-871.1L2827.9-871.1z"/>
				<path class="st6" d="M4597.8,751.1c3.5,60.8,13.7,115.8-15.2,167.2c-19.4,34.5-73,81.9-38.5,134.2
					c60.4,91.8,226.3,22.9,304.3,12.7c8.1-10.9,20.3-47.8,25.2-64.7c11.5-39.6-20-24.2-7.1-118.8c6.4-47-16.6-17-15.9-120.4
					c-7.2-6.4-28.3-19.4-33.7-29.3c-18.6-5.2-36-17.5-56.7-25c-41.4-14.9-86-14.3-127,3.4c-20.2,8.7-8.2,2.4-20.2,17.3
					C4602.2,741.2,4603.8,735.6,4597.8,751.1z"/>
				<path class="st6" d="M3934.7,153.8c21.3,7.6,76.3,8.3,112.4,20.6c37.6,12.8,60.6,30.2,78.3,55.4
					c29.8,42.5,23.8,191.3,16.1,247.2l294.1-234.6c24.5-16.8,28.3-23.8,26.3-63.5c-1.4-27.5-4.8-54.8-13.7-80.6
					c-9-25.9-16.9-42.5-35.9-51.3c-16.2-7.5-52-19.7-68.8-18.3l-269.2,85.9C4036.9,125.2,3965.2,140,3934.7,153.8L3934.7,153.8z"/>
				<path class="st6" d="M3739.6-557.2l290.8,100.2l47.5-76.3c-23.7-2.6-182-56-201.3-66.9c6.3-18,31.3-53.9,43.1-73.3
					c12.4-20.6,29.4-53.6,44.1-71l144.7,49.2c8.8-9.1,14.9-21.3,22.1-33.9c4.5-7.9,5.4-9.8,10.8-18.2c7.6-11.8,6.7-7.9,10.8-19.4
					L4007-816.8c4.2-13.7,63.2-109.1,73.4-123.2c50.2,14.7,143.7,45.1,187.5,66.9l45.4-72.7c-8.9-8.2-258.2-95.4-282.8-99.3
					C3994.6-979.8,3756.8-597,3739.6-557.2L3739.6-557.2z"/>
				<path class="st6" d="M3980.4-198.8l91,30.4l-32.7,18.6l16.1,4.8c7.4,1.3,13.2,0.7,21.8,2c62.9,9.8,114,78.8,155.8,119.8
					c10.5,10.4,8.6,13.9,23.1,27.2c37.6-5.5,168.7-73.8,208.9-103.8c13.1-9.8,11.1-12.4,26.7-19.6c-11.4-46.5-51.6-89.2-27.7-181.3
					c20.8-80.2,100-226.7,143.3-298.4l86.7-136.9c17.9-39.3,36.9-94,60.7-124l-276.8-175c2.3,53.8,1.3,61.7-38.9,79.1
					c14.8,15.2,78.2,32.4,100.7,43.6c18.3,9.1,4.7,4.1,7.7,8.8c7.6,12.3,63.2,13.3,106,55.8c12.7,12.6,41.6,38.9,32.7,68.6
					c-10.2,34.1-57.6,119.7-75.7,149.5c-35.3,58-49.2,87.7-137.4,74.9c-47.8,300.3,0.4,167.2-119.4,368.2
					c-8.5,14.2-21,36.3-30.7,48.5c-13.5,17-39.3,15.8-61.6,7.4c-152.1-57.4-322.1-114.7-479.7-160.6
					C3796.1-244.9,3938.3-229.3,3980.4-198.8L3980.4-198.8z"/>
				<path class="st6" d="M4570.2,675.1c2.4-16,122.3-204.4,135.6-246.2c6.3-19.7,10.6-61.3,12.1-83.3c3-44.8,0-53.3-27.1-68.9
					c-79.5-45.9-112.8-26.6-162.3-32.7c-20.4,10.6-24.5-4.2-46.4,19.9l-145.3,125.4c-8.8,7.7-10,8.6-18,15.3l-98.3,78.6
					c174.1-23.1,254.8-29.7,334,167.3C4559.7,663.4,4560.4,668.6,4570.2,675.1z"/>
				<path class="st6" d="M2524.9-1074.1c-6.5,26-37.6,62.4-44.8,82.2c21.2,13.3,220.2,79.7,246.3,80.6c24.5,0.8,44.4-8.9,61.7-18.9
					c19.9-11.6,24.5-23.4,38.5-44.8c16.9-25.9,52.2-76.9,48.7-116.4c-5.7-64.4-106.4-186.9-89-223.5c31.2-65.8,45.9-48.7,97.8-30.5
					c71.2,25,61.8,17.4,121.4,47.3c10.3-11.1,42.3-67,49-81.2c-27.5-18.4-216.3-79.8-249-75.7c-43.9,5.5-69.5,36.7-91,72.2
					c-66.1,109.8-46.1,108.9,43.8,284c17.2,33.5,12.1,30.4-5,58.9c-27.7,46.2-26.5,41.1-104.8,13.6l-92.8-32.2
					C2538.4-1065.2,2540.7-1068.5,2524.9-1074.1z"/>
				<path class="st6" d="M4993.3-626.4c25.2,51.1,10.8,27.1,44.4,72.9c37.7,51.4,64.3,94.8,84,157.9c7.2,23.1,14.6,81.9,25.5,94.5
					l41.3-274.4c9.7-94.5,12.9-200.7,25.8-293.1c-26.9,12.7-53,33.1-87.9,14.1c-14.2-7.7-49.1-44.1-56.3-56l26,227
					c8.3,73.6,18.9,172.6,17.7,246.1l-46.7-278.7c-15.8-87.8-42.5-182.9-55.9-270.1l-4.4,6.8c-4.2,8.3-1,0.3-4.5,10
					c-2.8,7.7-9.3,36.3-25.3,42.4c-45.5,5.2-74.7-15.2-112.5-24.6C4872.9-921,4965.8-724.1,4993.3-626.4L4993.3-626.4z"/>
				<path class="st6" d="M4529-1495.5l36.3,43.6c50.9,69.3,81.6,103.8,131.6,185.1c15.1,24.6,9.8,26.2,36.6,42.6
					c29.4,18,75.6,51.9,114,36.8c26.5-10.3,64.6-59.4,72.5-86.4c10.7-36.1-114.4-286.7-153.3-320.5c-13.4,34.7-10.7,82.4-74.7,105.3
					C4637.1-1469.3,4581.1-1489.4,4529-1495.5z"/>
				<path class="st6" d="M2160.4,558.5c11.3-15,150.8-406.2,170.2-458.9c58.2-158.6,50.3-81.2,12.3-241.6
					c-8.7-36.5-55.3-231.8-65.4-248.9c-10.4,39.7-56.4,394-66.5,466.5C2188.8,234.6,2160.9,395.3,2160.4,558.5z"/>
				<path class="st6" d="M5005.7-1245.3c4.5,35.2,35.6,157.8,46.3,223.6c6.6,41.3,10.4,69.7,31.4,101.6
					c17.6,26.6,40.3,65.7,77.6,54.7c11.9-3.5,32.5-19.9,40.7-26c18.9-14.1,16.6-17,18.4-48.7c8.1-138.4,28.1-115.2-11.5-234.4
					c-7.8-23.3-25.6-81-40.3-95.4c-10.6,15.2-36.8,36.9-68.5,42.5C5054-1219.4,5040.7-1236.9,5005.7-1245.3z"/>
				<path class="st6" d="M3194-744.9l91,31.3l218.5-363.8c12.7-21.2,23.5-39,36-59.9c12-20,30.3-44.9,36.9-63.1l-91.2-33.2
					l-72.1,119.9C3386.2-1068.9,3200-764.4,3194-744.9L3194-744.9z"/>
				<path class="st6" d="M3815.2-42c23.7,18.3,59.2,17.1,84.2,43.5c28.8,30.5,28.7,47.6,29.5,96.9c46.9,1.1,249.2-68.4,305.1-85
					c-5.8-18.3-51-53.1-62.5-63.2c-7.6-6.7-14.2-12.3-22.9-18.7c-16.4-12.1-30.6-23.4-49.6-33.7c-101.2-55.3-72.2-39.8-169.9,4.6
					C3906.7-87.5,3830.4-53.8,3815.2-42L3815.2-42z"/>
				<path class="st6" d="M4817.9,716.6c9.9,5.3,11,6,18,11c12.3,8.9-5.2,3.2,15.6,9.6c1.6-57.7,8.6-110.6,15.9-166.6
					c5.2-39.9,29.4-134.6,26.7-166.8c-17.6-26.4-18.2-46.4-81.5-5.3c-45.6,29.6-35.6,24.5-59.4,78.1c-13.9,31.1-29.2,63.6-43.8,93.7
					c-14.9,30.7-36.5,64.3-48.4,91.5c82.9-0.1,75.7-7,144.7,42.2L4817.9,716.6L4817.9,716.6z"/>
				<path class="st6" d="M4855.2-1601.4l28.7,43.4c11.6,17.4,17.8,28,27.9,47.1c21.3,40.3,50.5,114.7,64.1,161.2
					c10.4,35.6,2.2,28.3,30.9,43.8c24.6,13.3,69.4,50.1,103.7,31.9c9.5-5.1,28-26.1,32.6-38.7c6-16.5-8.4-34.7-16.9-50
					c-40.2-72.4-65.6-118.4-113.8-186.1c-14.7-20.6-46.1-68.4-64.3-84.5c-0.7-0.7-2-1.8-3.1-2.4
					C4937.3-1571.6,4904.4-1588.4,4855.2-1601.4z"/>
				<path class="st6" d="M4752.7-1172.3c24.9,54,60,108.4,85.7,168c9.3,21.6,4,16.1,23.2,26.9c57.1,32.3,115.1,60.3,131-10.4
					c9.7-43.2,7.1-44.8-4.9-86.3c-10.1-34.8-31.9-134.5-49.4-155.5c-15.9,43.8-18.8,70.4-62.5,79.8
					C4837.5-1141.4,4787.8-1160.3,4752.7-1172.3z"/>
				<path class="st6" d="M4619.8,230.5c34.9-1.6,78.9,17.6,100.5,33.4c26.7,19.6,24.7,57.6,20,96.3
					c10.4-32.1,79.8-152.3,100.6-216.2c-32.3,2.2-59.7-3.2-88.9-16c-28.2-12.3-48.7-27.6-68.7-38l-150.4,132
					C4557.9,222.9,4600.1,218.2,4619.8,230.5z"/>
				<path class="st6" d="M4641.7,60.6c-0.6-0.6-1.5-1.5-1.8-1.8c-0.3-0.3-1.4-1.4-1.8-1.8L4611,31.5c-24.5-20-27.2-29.4-47.3-48.5
					c-14.3-13.5-28-40.3-39.5-48.5c-5.2,1.5-75,49.4-125.5,70.6c-1.7,0.7-7.8,3.2-9,3.9c-13.4,7.7-4.8,1.6-11.4,8.9
					c126.1,24.6,89.7,134.6,97.4,188.3L4641.7,60.6L4641.7,60.6z"/>
				<path class="st6" d="M4595.5-1010.5c0.8,0.9,2.1,1,2.6,2.7l105.7,75.8c33.3,23.3,32.8,34.4,55.6,35.3
					c34.5,1.5,54.4-0.6,72.8-24.4c-7.5-28.9-128.3-216.9-146.1-235.9C4672.5-1087.1,4667.5-1020.3,4595.5-1010.5z"/>
				<path class="st6" d="M4904.3,111.6c-18.5,45.6-36.1,94-55.2,140.1c-13,31.5-51.9,113.2-57.4,138.5
					c22.3-16.8,108.7-100.3,105.8-7.9l7.3-3.7c12-99.3,54.4-206.2,68.3-303.1c-14.9-11.7,4-6.6-10.3-1.3l-22.9,18.3
					C4927.3,100.4,4920.2,107.3,4904.3,111.6L4904.3,111.6z"/>
			</g>
			<g>
				<path class="st7" d="M4642.8-1519.5l-41-55.7c23.8-17.9,119.4-47.7,130.6-57c-5.6-21.6-9.2-14.9-23.3-30
					c-29.4-31.5-27-40.6-78.9-83.7c-29.8-24.8-27.7-27.2-58.7-49.8c-19.7-14.4-60.8-19.1-86.2-26.1c-55.8-15.4-109.6-37-164.6-52.2
					c-171.2-47.5-560.6-112.8-742.1-133.9c-61.7-7.2-131.4-21.3-192.8-24.1c182.8,88.8,290.5,100.5,434.2,217
					c28.2,22.8,73.2,63.7,96.2,91.4c31.4,37.8,52.1,53.8,86.8,100.7l80.6,106.9c10.7,15.1,27.9,44.7,44.9,51.3
					c30.3,11.7,119.7,36.7,151.7,38.8c65.8,4.3,92.5-32.6,85.2-97.5c-3-26.2-44.6-54.6-65.4-71.5
					c-156.2-126.4-458.2-271.8-643.7-347.9l-102.7-38.8c-12.7-4-26.9-7.4-36.6-15.4c42.3,6.2,112.6,29.3,155.1,42.9
					c50.4,16.2,101.2,32,150.9,48.7c168.3,56.5,400.3,159.7,537.5,262.6c20.4,15.3,38.8,27.9,56.9,43.1c14.6,12.2,42.7,24.7,65,35.1
					C4536.9-1539.3,4574.7-1514.4,4642.8-1519.5L4642.8-1519.5z"/>
				<path class="st7" d="M4159.7-1405.4c7.4,18.1,56.1,92.3,72.6,128.1c10.1,21.9,24.8,44.6,32.3,67.7c9,27.6,6.1,25.1,56.8,47.5
					c23.3,10.3,42.6,24.2,64.9,35.1l128.5,71.5c47.6,26.8,97.9,79.5,137.4-105.5c9.2-43,3.8-41.4-16.2-69.9
					c-15.2-21.7-28.8-38.2-44.9-59.3c-7.3-9.6-12-16.9-22-28c-28.6-31.9-47.6-61.1-83-96.1l-33.6-41.5
					c-10.4-11.1-16.6-11.5-27.7-22.2c-10.2-9.8-15.8-18.1-27.9-28.2c4.3,57.6-17.1,117.6-69.6,127.1
					C4265.5-1367.9,4214.8-1393.8,4159.7-1405.4L4159.7-1405.4z"/>
				<path class="st7" d="M4033.4-1113.1L4386-972.3c10.6,4.7,17.4,9.9,28.3,5.7c31.9-12,34.4-62.8,35.6-88.2L4275.1-1170
					c-17.9-10.6-193-49.4-231.9-59.7c7.9,20.9,24.6,32.1,22.6,61.9c-1.5,22.3-11.4,29.3-21.1,40.2
					C4039.5-1121.8,4037.1-1118.5,4033.4-1113.1z"/>
				<path class="st7" d="M3988.8-1135.2c29.2-21.9,23.6-51,9.7-91.4c-9.1-26.4-26.3-23.2-85.6-39.5
					c-104-28.6-297.8-81.8-394.4-113.9l-194.7-56.2l161.7,76.8c55.2,24.9,110.5,52.6,165.7,75.8l250.5,112
					C3921-1162.8,3971.9-1138.8,3988.8-1135.2z"/>
			</g>
			<g>
				<path class="st8" d="M2739.2-528.5c-16.5-7.4-25-15.8-41.9-17.8c9.3-17.2,15.3-18.8,29.3-29.1c56.2-41.5,38.7-37.7,98.7-19.8
					c49.2,14.6,99.8,28.5,148.9,42.2c100.1,28.1,201,60.3,300.9,86.6c100.4,26.5,200.5,59.8,300.8,87.5
					c50.6,13.9,101.8,27.7,152.1,43.5c47.6,14.9,36.7-31.7,109.2-70.2l-24.6-14.3c-7.4-2.5-14.5-4.9-21.9-7.3l-132.2-42.4
					c-57.9-20.6-117.5-38.8-176-57.6c-118-38-234.3-77.8-352.6-113.7c-116.4-35.3-235.6-79-351.9-115.3
					c-90.7-28.3-273.9-92.9-349.2-112.9c4.5,16.1,80.9,79.9,97,94.6c12.5,11.4,9.7,10,21,24.7l51.3,48.8c5,4.6,8.5,7.1,13.2,11.5
					l13,16.8L2489.3-686c1.2,17,215.6,398.2,239.1,446c17.7,36,40.9,77.1,60,110.8c21.6,38,40.1,75,62.1,113l119.8,224.1
					l-468.9,616.7c-7.8,10.2-16.6,21.1-23.7,30.4l-70.1,92.3c-6.9,9.3-14.1,20.1-22.9,31.4l-166.3,215l-24.4-63.8l-166.1,479.8
					c31.3,14,112.1,49.1,141.7,41.9c151.8-36.6,94.6-63.8,209-4.3c63.1,32.8,129.5,61.7,189.9,98l-138.7,801.1l988-457.6l6.2-134.3
					l-76,7.4l56.5-567.4c-38.8-23.8-50.3-6.4-71.4-56c-31.6-74.2-102.9-208.1-125.4-269.8c136.1,37.1,328.3,109,474.7,157.9
					c47.7,15.9,47.8,25.4,97.1,9.3c60.6-19.9,135.3-42.4,197.6-57.9c-13.7-76.9,1.9-60.4-57.1-80.5c-17-5.8-33.3-11.1-50-16.3
					c-32.6-10.2-63.9-21.6-96.5-32.6l-336.7-113.3c-25.6-8.4-20.5-11-28.1-38.5l-174.9-604.8c-19.5-66.2-38-133.3-57.7-200.5
					c-19.4-66.1-43.1-140.5-58.1-206.3c13.2-6.6,94.9-106.9,112.6-122.9l-26.8-18.8c-8.8-5-23-12.5-32-17.9L2739.2-528.5
					L2739.2-528.5z"/>
				<path class="st8" d="M2821.4-1517.4c59.9,14.5,430.7,163.5,464.2,170.5c12.9,2.7,71-1.7,85.2-4.3l-113.9-50.4
					c-23.5-10.1-15.7-7.7-30.3-28.3L3154-1528c-4.3-5.9-8-10.7-12.3-16.6l-12.9-20.8l825,184.9c-9.3-35-27.1-84.9-40.2-119.6
					c-4.6-12.1-9.3-17.3-15.3-26.5l-50.9-74.1c-5.8-7.8-10.3-13.3-15.8-21.7l-50.7-74.3c-12.8-17.8-21.9-32.6-34.2-49.2
					c-16.8-22.6-13-26-40.5-42.5c-34.9-20.9-69.8-37.6-104.7-57.9l-269.6-147c-17.6-9.8-36.3-17.1-54.2-30.6l-5.6-62.7l1009.1,79
					c-10.9-7.7-671.8-208.5-750.2-230.2c-34.3-9.5-142.3,31.7-179.3,42.9c-94.6,28.4-62.6,4.8-131.8,55.1L2943.2-1925
					c-68.1,54.3-50.1,23.3-73.9,150.8L2821.4-1517.4z"/>
			</g>
			<g>
				<path class="st9" d="M4880,54.3l-39.2,89.7c-20.8,63.9-90.1,184.1-100.6,216.2c4.6-38.7,6.7-76.7-20-96.3
					c-21.5-15.8-65.5-35-100.5-33.4l-31,2.8c1.3,0.2,3.4-0.9,4.2,0.8c0.8,1.6,3,0.8,4.1,1.1c1,0.3,2.7,0.7,3.9,1l14.8,3.7
					c-20.1-10.1-37-7.5-60.6-7.1l-26.7,11.1c49.4,6.1,82.7-13.2,162.3,32.7c27.1,15.7,30.2,24.1,27.1,68.9
					c-1.5,22-5.8,63.6-12.1,83.3c-13.3,41.9-133.2,230.3-135.6,246.2l-13.1,3.8c-24.9,0.2,7.2-13.2-12-2.1c1.3,35,13,11.6-11.7,46.5
					l-62.6,75c-41.4,40.2-151.1,112.1-206.3,135.4c-25.7,10.9-26.5,15.2-49.3,2.3c-55.2-31.4-286.1-168.6-305.9-172.2l-9.1,10.7
					c63,39.7,128.8,77.3,192.6,112.9l191.5,110.6l-14.5,19.1c13.3,1.3,5.2,5,19-0.8c0,0-0.9-12-3.8,2.3l-0.8,7.9
					c-0.1,1.3-0.4,3.2-0.2,4.8c15.9-8.5,14-13.3,13-41.4c38.8-6.7,161.4-103.3,197.7-138.5c23.9-23.2,35.7-23.5,69.4-64l33.9-36.2
					c6-15.5,4.4-9.9,15.1-23.1c12.1-14.9,0.1-8.6,20.2-17.3c41-17.8,85.6-18.4,127-3.4c20.7,7.5,38.1,19.8,56.7,25
					c-4.2-14.3,4.9-5.3-9.4-11.8c4.4,2.9,7,1.9,10.4-3.8l-12.2-12.8c-69-49.1-61.8-42.3-144.7-42.2c12-27.2,33.5-60.8,48.4-91.5
					c14.6-30,29.9-62.5,43.8-93.7c23.8-53.5,13.8-48.5,59.4-78.1c63.3-41.1,63.9-21,81.5,5.3c0.9-0.8,2.3-2.1,2.4-2.8
					c0.2-3.3,0.9-1.4-0.8-9.7l1.9-9.1c2.9-92.4-83.5-8.9-105.8,7.9c5.5-25.3,44.4-107,57.4-138.5c19-46.1,36.7-94.5,55.2-140.1
					l23.3-63.2L4880,54.3L4880,54.3z"/>
				<path class="st9" d="M3490.4-738.9c14.7,7.2,114.3,43.8,127.3,42.5c25.7-2.6,122.2-179.9,140.1-209.8
					c14.5-24.1,60.6-89.3,59.5-115.4c-21.8-15.4-95.5-37.5-128.6-46.6L3490.4-738.9z"/>
				<path class="st9" d="M3082.1-1108.6c158.6,64.3,137.1,46.5,179.5-23c9.9-16.2,31.8-46,32.8-64.5c-18-22-97.7-43.7-133-52.8
					C3153-1213.5,3095-1146,3082.1-1108.6L3082.1-1108.6z"/>
				<path class="st9" d="M4334.7-703.4c150.3,49.9,129.8,59,171.2-8.8c10.4-17.1,29.6-39.7,27.5-62.6c-21.8-14-95.7-39.8-128-46.9
					C4397-812.4,4338.7-714.7,4334.7-703.4z"/>
			</g>
			<path class="st10" d="M5278.2-136.5c-1.5,2.8-3.3,5.4-5.5,7.7c-32.5,35.7-108.4,87.4-116.4,97.4c49.8-1.9,81.9-17,124.6-27
				L5278.2-136.5z M5259.5,49.5l-150.6-28.4c32.6,24.7,103,52.2,130,72.7L5259.5,49.5z M5150.7,283.2c-1.6,2.6-2.9,4.3-3.8,5.1
				c-28.6-55.6-65.2-169.1-79.8-189.8c7.9,77.9,40.5,203.7,44.5,257.5c0.3,4.2-1,10.7-3.6,18.8L5150.7,283.2L5150.7,283.2z
				 M5095.5,406.6c-2,4.5-4.2,9.2-6.4,13.9c1.1-0.9,2.3-1.8,3.4-2.7C5093.4,414.1,5094.4,410.4,5095.5,406.6L5095.5,406.6z
				 M5012.6,545.2c-15-59.8-4.5-169.2-6.8-233.9c-9.9,21.1-33.1,219.7-39.3,262.1c-14.3,97.4-1.2,55.4-38.9,111
				c-18.3,27-40.6,65.6-42.8,103.8l-4.5,10.5c-4.1-9.1-4.8-7,0.7-18.2c-1.3-57.7,12.5-155,20.1-214.2c9-69.7,17.6-132.9,30.4-202.6
				c23-125.9,71.3-242,105.2-359.5c-16.9,5.9-48.8,25.6-55.4,39.2l-8.1,31.9c-13.9,97-56.3,203.8-68.3,303.1l-2.1,11.1l-7.1,1.7
				c1.8,8.3,1.1,6.4,0.8,9.7c0,0.6-1.4,2-2.4,2.8c2.7,32.2-21.5,126.9-26.7,166.8c-7.3,56-14.3,108.9-15.9,166.6
				c-20.8-6.4-3.3-0.6-15.6-9.6c-7-5.1-8.2-5.8-18-11c-3.4,5.7-6,6.7-10.4,3.8c14.3,6.4,5.2-2.6,9.4,11.8
				c5.3,9.9,26.5,22.9,33.7,29.3c-0.7,103.3,22.3,73.3,15.9,120.4c-1,7.7-1.8,14.6-2.3,21L5012.6,545.2L5012.6,545.2z
				 M4849.4,1063.7c-0.4,0.6-0.7,1.1-1,1.5l-2.7,7.7c1.9-1.1,3.9-2.2,5.8-3.2C4850.8,1067.8,4850.1,1065.7,4849.4,1063.7z
				 M4505.6,1279.2l-104.2-84c-9.2-7.7-5.8-6.1-15.8-13.3l-102.9-84.6c-11.6-8.4-19.4-16.4-29.2-25.8c9.2-15.6,11.8-8.9,30.5-40.2
				c-0.1-1.6,0.1-3.6,0.2-4.8l0.8-7.9c2.9-14.3,3.8-2.3,3.8-2.3c-13.8,5.8-5.7,2.1-19,0.8l-42.7,34.7l-67.9-55.8
				c-5.7-4.2-6.2-3.7-12.2-8.7l-146-120.6c-5.5-4.7-6-4.6-11.5-9.4l-32-26.3c-8.6-7.5-13.3-9.4-23.4-18.3l-46.6-37
				c-6-5.7-10.2-12.8-17.1-16.8l29.7,15.5l9.1-10.7c-8.7-11.9-26.2-19.2-40.4-27.4c-10.9-6.3-31.2-13.5-38.1-24.2
				c68.6-29.9,124.2-58,182.7-92.1c29.4-17.2,55.7-34,84.7-52.7c94.4-60.9,60.6-62.5,211.5-63.1c58.4-0.2,116.5,6,153.2,54.6
				l82.3,118c19.2-11.1-12.9,2.3,12,2.1l13.1-3.8c-9.8-6.5-10.5-11.7-15.7-24.7c-79.2-196.9-159.9-190.3-334-167.3l98.3-78.6
				c8-6.7,9.2-7.6,18-15.3L4482,263.8c22-24.1,26.1-9.3,46.4-19.9l26.7-11.1c23.5-0.4,40.5-3,60.6,7.1l-18.7-4.7
				c-1.1-0.3-3.3,0.5-4.1-1.1c-0.8-1.7-2.9-0.6-4.2-0.8l31-2.8c-19.7-12.3-61.8-7.6-86.8-8.4l150.4-132c6.8-6.7,10.7-7.9,18.1-15.3
				L4753,29c-8.9-13.7-23.6-25.8-36-32.9c-15.4,19.9-22.4,18.2-37.4,32.1c-9.7,9-7.2,10.5-17.9,19.4c-7.2,5.9-12.7,8.9-19.9,13.1
				l-166,145.6c-7.7-53.7,28.7-163.7-97.4-188.3c6.7-7.3-2-1.2,11.4-8.9c1.2-0.7,7.2-3.1,9-3.9c50.4-21.2,120.3-69.1,125.5-70.6
				c5.2-10.5,9.2-12.1,22.6-22.6c6.4-5,9.2-5.9,14.7-10.4c18.6-15.5,50.2-39.5,52.2-53.3c5.6-7.6,2.1-11.6-1.8-21.2
				c-13.9-34-15.2-76.8-19.5-83c-12.2,30.6-25.9,54.8-41.7,76l-59.7,60.6c-15.6,7.2-13.5,9.8-26.7,19.6
				C4424.1-69.8,4293-1.5,4255.4,4c-14.5-13.3-12.6-16.8-23.1-27.2c-41.7-41-92.9-110-155.8-119.8c-8.6-1.3-14.3-0.7-21.8-2
				l-16.1-4.8l32.7-18.6l-91-30.4c-6.3,5.7-28.6,2.6-37.5,2.6c0,0.5,0.6,1.1,0.6,1.3l-1.4,10.3l22.1,14.3
				c-30.2,7.9-94.4,44.2-128,59.1c-78.5,34.6-39.1,26.6-142.5,6.2c-74.7-14.7-147.9-35.9-221.5-53.9c-29-7.1-56.1-11.1-70.4-28.4
				c13.1-4.2,23.6-7.1,31.1-21.1c-39.9-28.5-97.4-56.6-140.7-82.9L2941-498.3c-20-11.7-49.8-30.3-72.9-39.7
				c-4.5,14.2,6.9,2.1-28.9,0.2c-10.5-0.6-22.9,0-33.7,0c-33.9,0-66.9-7.3-66.4,9.3l432.3,253.8c9,5.4,23.2,12.9,32,17.9l26.8,18.8
				c-17.7,16.1-99.3,116.3-112.6,122.9c15,65.9,38.7,140.2,58.1,206.3c19.7,67.2,38.2,134.3,57.7,200.5l174.9,604.8
				c7.6,27.5,2.5,30.1,28.1,38.5l336.7,113.3c32.6,11,64,22.4,96.5,32.6c16.7,5.2,33,10.6,50,16.3c59,20.1,43.4,3.5,57.1,80.5
				c-62.3,15.4-137,38-197.6,57.9c-49.3,16.2-49.4,6.6-97.1-9.3c-146.4-48.8-338.6-120.7-474.7-157.9
				c22.5,61.7,93.8,195.5,125.4,269.8c21.1,49.6,32.6,32.2,71.4,56l-56.5,567.4l76-7.4l-6.2,134.3l-49.4,22.9h86.5
				c15.6-24.3,19.1-47,42.5-107.8c24.5-63.6,175.2-476.2,188.9-498c12.7-49.9,16.5-36.5,121.4-70.7l435.5-142.3
				c-6,15.4-35,47.4-47.1,63.8c-4.8,6.6-7.4,11-13,16.3c-7.6,7.2-12.6,12-16,15.4L4505.6,1279.2L4505.6,1279.2z M3858.2,1729.2
				c-4.2,6.2-7.8,11.5-13.9,16.5c3.9-0.8,7.8-1.5,11.7-2C3856.5,1738.9,3857.3,1734,3858.2,1729.2z M1773.4,1564
				c25.8-72.1,46-128.3,54.5-150.5c45.9-119.3,91.5-246.6,132.8-367.1c10.7-31.2,22.5-60.7,33.7-91.5c12.3-33.9-5.1-160.9-11-215.4
				l185.8-347.9c-5.3,55.4-8.7,111.1-8.9,167c11.3-15,150.8-406.2,170.2-458.9c58.2-158.6,50.3-81.2,12.3-241.6
				c-6.3-26.6-32.8-137.6-50.7-202.4l-7.1-343l2,8.1c22.6,99.2,48.8,196,72.9,295.9c23.5,97.4,45.2,198.4,71.2,294.4
				c7.9,29.3,16.8,46.9,6,73.8l-72.9,202.6c-33.1,88-65.3,181.8-95.9,270.6c-62.3,181.1-129.3,359.3-192,541.1
				c-31.5,91.3-65.7,179.8-96.4,270.3l-96.5,269.9c10.1-9.8,522.1-1210.6,595.2-1379.1c19.2-44.3,38.8-90.7,58.4-137.4
				c34.9-83.1,35.9-53,1.7-140.2c-37.4-95.3-72.4-191.7-108.7-286.5c-18.5-48.2-36.5-96.9-56.1-144.4
				c-17.7-43-35.3-105.8-55.3-143.5c-4.6-14.2-19.9-51.5-35.6-85.8l-1.7-80.8c14.1,33.2,29.2,66.1,42.6,98.7
				c10.3-43.6-11.1-135.5,4.5-188.7c45.2-7.5,181.4,47.8,235.3,55.9c-0.4,2.6-10.8,6.1,8.3,17c-21,0-138.6-10-143.6,6.2
				c4.5,16.1,80.9,79.9,97,94.6c12.5,11.4,9.7,10,21,24.7l51.3,48.8c5,4.6,8.5,7.1,13.2,11.5l13,16.8L2489.3-686
				c1.2,17,215.6,398.2,239.1,446c17.7,36,40.9,77.1,60,110.8c21.6,38,40.1,75,62.1,113l119.8,224.1l-468.9,616.7
				c-7.8,10.2-16.6,21.1-23.7,30.4l-70.1,92.3c-6.9,9.3-14.1,20.1-22.9,31.4l-166.3,215l-24.4-63.8l-138.8,400.9l-215.6,16.4
				C1816.1,1549.1,1793.8,1554.9,1773.4,1564L1773.4,1564z M2216.6-1083.9l11-16.5c0.2,9.7,0.6,19.4,1.1,28.9
				C2224.8-1075.8,2220.8-1080,2216.6-1083.9z M3604.4,1450.8c-3.9,24.4-67.9,161.1-83.1,193.7c-14.2,30.2-28.8,64.2-41.7,95.7
				c-13.1,31.9-31.8,62.5-40.1,95.1l-5.6-1.4l106.8-454.6c-1.2-7.1-151.4-132.7-164.5-146.3c-30.3-31.6-21.5-14.7-54-50.9
				c37.9,7.7,137.2,51.1,179.3,67.5c29,11.3,58.5,21.6,87.8,33c49.5,19.3,43,19.4,97,11.1c71.4-11,145.1-22.6,215.5-31.1
				c69-8.3,145.7-24.8,213.2-30.3l-22.7,16.7c-15.4,9.7-57.4,33.9-71.3,36.5c-58,11-350.7,50.7-364.2,60.3
				C3630.8,1370.3,3628.8,1422.9,3604.4,1450.8L3604.4,1450.8z M4241.8,1176.5c11-27.6,19.3-19.6,33.3-37
				c6.7,3.3,19.4,13.4,26.3,18.2l168.6,125.2L4241.8,1176.5z M3685.9,884.5c38.1-8.9,103.9-65.2,132.6-79.9
				c8.4,5.5,17.4,14.5,27.2,21.4c9.8,6.9,18.3,12.2,27,18.9c19,14.7,36.9,26.7,54.9,40.9l324.2,240.3c-21,12.1-21.3,13.3-35.8,33.6
				c-57.4-17.1-396.7-194.4-467.8-236.1C3715.8,904.5,3697.2,901.4,3685.9,884.5L3685.9,884.5z M3595.9,236
				c67.8-11.4,144.4-33.3,212.3-50.7c54.4-13.9,56-13.6,111.8-4.7c51,8.1,102.8,23.6,146.5,49.6l32.4,30.2
				c33,42.7,36.6,194.3,27.9,222c-4.7,14.9-51.6,44.8-71.4,58.8c-52.4,37.1-100.1,62.7-170,92.5c-131.9,56.3-99.9,57.2-178.2,10
				c-50.6-30.6-42.8-10.9-54-75.1c-6.5-37.3-12.1-73-19-110.1C3620.6,385.1,3608.7,309.9,3595.9,236L3595.9,236z M3934.7,153.8
				c30.6-13.8,102.2-28.6,139.5-39.2l269.2-85.9c16.8-1.4,52.6,10.8,68.8,18.3c19,8.8,26.8,25.4,35.9,51.3c9,25.7,12.3,53,13.7,80.6
				c2,39.6-1.8,46.7-26.3,63.5l-294.1,234.6c7.7-55.9,13.7-204.7-16.1-247.2c-17.6-25.2-40.6-42.6-78.3-55.4
				C4010.9,162.1,3955.9,161.3,3934.7,153.8z M3783.2,782.6c-35.8,17.5-71.2,37.4-110.3,55.1c-21.6,9.8-36,24.1-57.1,14.3
				c-17.2-8.1-33.5-18.1-51.4-28.1c-82.2-45.5-60.5-15-82-84.8c-35.5-115.3-80.4-265.3-118-373.4c-26.4-75.9-57.8-170.9-77.9-248.1
				c39.5,5.3,99.9,20.5,139.2,32.2c40.8,12.2,95.8,37.1,130.1,45.2c9,61.1,13.9,122.4,21.9,183.2c7.8,59.2,35.7,188.7,50.4,257.4
				c10.2,47.7,7.2,36.5,39.8,60L3783.2,782.6L3783.2,782.6z M3759.9-17.1c26.7-12.1,79.6,7,99,25.7c17.5,16.9,35,70.9,40.8,100.7
				c-63.1,7.2-273.4,60.8-316.7,51l-15-86.7L3759.9-17.1L3759.9-17.1z M3815.2-42c15.2-11.8,91.5-45.5,113.8-55.6
				c97.7-44.4,68.7-59.9,169.9-4.6c19,10.4,33.2,21.7,49.6,33.7c8.8,6.4,15.3,12,22.9,18.7c11.5,10.1,56.7,44.9,62.5,63.2
				c-55.8,16.5-258.2,86-305.1,85c-0.8-49.3-0.7-66.4-29.5-96.9C3874.5-24.9,3838.9-23.8,3815.2-42z M3278.8-81.3
				c9-7.5,14-11.4,20.6-16.9l97.7-79.3c38.7,14.1,134.5,78.7,219.3,107.7c16.3,5.6,78.1,18.7,83.8,22.2l-163.9,78.3l6.7,64.4
				c-68.6-2.4-210.4-2.1-270-16.5c-8.8-35.6-38.4-97.7-36.7-127.4L3278.8-81.3L3278.8-81.3z M2207.1,1011.6
				c23.3-68.2,58.4-147.1,87.4-218.9c29.2-72.5,60.2-143.6,87.6-216.6l242.5-603.8c5-19.2-7-38-14.3-56.8
				c-54.2-140.4-109.8-307-165.1-446.7c-28.1-70.9-61.7-148.8-83.6-217.6c6,17.1,20.4,32.8,29,51.2c8.2,17.8,17.4,36.5,27.7,55.5
				c20.4,37.7,35.8,70.2,57,109.6c39.2,72.9,73.8,145.9,114.2,219.2C2628-243,2663.2-166.4,2703.5-94
				c19.2,34.6,37.7,72.5,57.3,109.3c14,26.3,37.6,84.5,57.2,107.4c-4.3,14.7-164.5,244.9-191,281.6l-37.1,54.6
				c-15,20.7-25,37.4-38.9,57l-229.5,332.9c-14.6,20.4-23.9,35.6-37.3,54.4L2207.1,1011.6z"/>
			<path class="st11" d="M4784.5-734.2c12.5,7.5,7.9,4.3,18.1,15.9c15.2,17.2,78.5,71.7,123.7,122.1c6.3,7,9.4,11.1,15.5,17.8
				c9,9.9,7.2,6.4,17.8,15.4l94.8,117.7c43.5,71.6,55.2,131.4,52.7,223.8c-1.3,46.3-9.7,78.6-35.8,103.8
				c-28.2,27.2-37.1,39.9-81,60.4c-91.9,43-173.3,14.7-222.3-51.5c-5.5-7.5-9-10.6-14.9-18.3c-34.8-45.6-58.3-85.8-65.5-147.7
				c-8.9-76.6,6.7-174.4,23.5-248.7c11.9-52.6,36.6-136.1,58.8-187.4L4784.5-734.2L4784.5-734.2z M4753.9-860
				c-23.8,30-42.8,84.7-60.7,124c-9.3,34.4-25.6,71.6-37.1,107.2c-12.2,37.8-22.8,74.6-33.4,113.3c-24.4,88.8-29,166-30.2,259.5
				c4.2,6.2,5.6,49,19.5,83c3.9,9.5,7.4,13.6,1.8,21.2l10.2,6.9c7.4,7.1,44.1,85.3,79.1,121.9c7.6,7.9,9.3,9.5,14,19.1
				c12.3,7.1,27.1,19.2,36,32.9c14.3,0.2,35.4,14.5,53.6,19.2c25,6.4,47.5,5.1,73.4,6.1l47.6-5.8l48-13.1c11.2,3.7,1.6-4.7,5.6,8.2
				c6.7-13.6,38.5-33.3,55.4-39.2c27.2-15.5,71-60.1,87.8-98c20.3-45.8,10.6-123.4,26.8-159.7c-9.4-7.5-9.2-14.5-5.9-37.7l1.7-10
				c-10.9-12.6-18.2-71.4-25.5-94.5c-19.7-63-46.3-106.5-84-157.9c-33.6-45.8-19.3-21.8-44.4-72.9l-8.8,0l-38.1-44.2
				c-5.7-6.9-8.6-9.3-13.6-15.5l-103.4-129.8c-7.5-10.7-3.6-8.3-13-16.3c-7.7-6.6-7.7-4.7-16-13c-12.3-12.4-16.4-18.2-31.7-28.8
				l-7.7,5.3c-0.5,0.4-1.4,1.5-1.8,1.9L4753.9-860L4753.9-860z"/>
			<path class="st12" d="M4283.9,1031.2c-18.7,31.3-21.3,24.6-30.5,40.2c9.8,9.4,17.6,17.5,29.2,25.8l102.9,84.6
				c10,7.2,6.6,5.7,15.8,13.3l103.8,83.8c9.7,7.1,9.5,9.1,16.4,16.7c37,0.3,218.2-62.2,271.4-75.3l55.4-155.1
				c-78,10.1-243.9,79-304.3-12.7c-34.4-52.3,19.2-99.7,38.5-134.2c28.9-51.5,18.8-106.5,15.2-167.2l-33.9,36.2
				c-33.7,40.5-45.5,40.8-69.4,64c-36.3,35.2-158.8,131.8-197.7,138.5C4297.8,1017.8,4299.8,1022.7,4283.9,1031.2L4283.9,1031.2z"/>
			<path class="st13" d="M4849-581.4c12.2,18.6,69.8,75.9,86.6,92.6c10.6,10.6,14.4,9.3,24.6,21.1l56.3,72.9
				c33,58.8,58.7,158.5-0.7,217.4c-3,2.9-2.8,3.4-6.2,6.3l-39,23.7c-110.3,45.7-180.8-67.2-189.7-144.4
				c-8.1-70.1,15.3-162.7,35.7-230.3l18.5-48.2C4841.9-579.6,4837.8-576.6,4849-581.4L4849-581.4z M4769.8-711
				c-22.2,51.3-46.9,134.8-58.8,187.4c-16.8,74.3-32.4,172.1-23.5,248.7c7.2,61.9,30.7,102.1,65.5,147.7c5.9,7.7,9.3,10.8,14.9,18.3
				c49,66.1,130.4,94.5,222.3,51.5c43.8-20.5,52.8-33.2,81-60.4c26.1-25.2,34.5-57.5,35.8-103.8c2.6-92.4-9.2-152.2-52.7-223.8
				L4959.6-563c-10.6-8.9-8.8-5.5-17.8-15.4c-6.1-6.7-9.2-10.8-15.5-17.8c-45.1-50.4-108.5-104.9-123.7-122.1
				c-10.2-11.6-5.6-8.4-18.1-15.9L4769.8-711L4769.8-711z"/>
			<path class="st14" d="M4849-581.4c-11.1,4.7-7.1,1.8-13.9,10.9l-18.5,48.2c-20.4,67.6-43.7,160.2-35.7,230.3
				c8.9,77.2,79.4,190.1,189.7,144.4l39-23.7c3.3-2.9,3.2-3.4,6.2-6.3c59.4-58.8,33.7-158.5,0.7-217.4l-56.3-72.9
				c-10.1-11.8-13.9-10.5-24.6-21.1C4918.8-505.5,4861.2-562.8,4849-581.4L4849-581.4z"/>
			<path class="st15" d="M4269.7,1017l14.5-19.1l-191.5-110.6c-63.8-35.6-129.6-73.2-192.6-112.9l-29.7-15.5
				c6.8,4,11.1,11.1,17.1,16.8l46.6,37c10,8.9,14.8,10.8,23.4,18.3l32,26.3c5.5,4.7,6,4.6,11.5,9.4l146,120.6c6,5,6.5,4.5,12.2,8.7
				l67.9,55.8L4269.7,1017L4269.7,1017z"/>
			<path class="st16" d="M4241.8,1176.5l228.2,106.4l-168.6-125.2c-6.9-4.8-19.7-15-26.3-18.2
				C4261.1,1156.9,4252.9,1148.9,4241.8,1176.5L4241.8,1176.5z"/>
			<path class="st17" d="M2287-679.2c5.8-0.2,16.9,0.2,21.9-1.6c12.1-4.3,7.2,2.3,9.8-11c-9.1-27.7-59-144.4-72.9-153.5L2287-679.2z
				"/>
			<path class="st18" d="M4154.2-267c6.1,4.5,4.4,4.2,14.5,7.8c3.7,1.3,11.7,3,15.9,4.2l24.9-70.7c-14.4,8-14.3,17.5-26.1,28.5
				c-6.9,6.5-8.8,5.4-16.1,12.8C4161.4-278.4,4158.5-273.6,4154.2-267L4154.2-267z"/>
			<path class="st19" d="M4078.5-231.8l0.6-1.9c12.3-6.6,18.8-19.1,28.8-27.9c-6.4-6.3-5.7-4.4-11.5-7c-3.8,6.7-6.2,10-9.8,16
				C4079.8-241.2,4080.3-243.3,4078.5-231.8z"/>
			<path class="st20" d="M4884.9,788.1l-3.9-7.6c-5.4,11.2-4.8,9.1-0.7,18.2L4884.9,788.1z"/>
			<polygon class="st21" points="4897.5,382.3 4895.6,391.3 4902.6,389.6 4904.8,378.5 			"/>
			<path class="st22" d="M4317.8-216.5l-3.6-3l-4.2,9.1C4324.9-211.4,4311.6-209.3,4317.8-216.5L4317.8-216.5z"/>
			<path class="st23" d="M4108.7-349.3c9.3-6.5,4.9,14.4,7.5-9.3L4108.7-349.3z"/>
			<polygon class="st24" points="4293.3,-266 4296.8,-277.6 4290.1,-269.7 			"/>
			<path class="st25" d="M4768.7-874.1c0.1-8.3-1.7-5.4,8-6.2l-10.8-2.7L4768.7-874.1z"/>
			<path class="st26" d="M3439.4,1835.2l-5.6-1.4L3439.4,1835.2z"/>
		</g>
	</g>
</g>
</svg>
