<?xml version="1.0" encoding="iso-8859-1"?>
<!-- Generator: Adobe Illustrator 19.0.0, SVG Export Plug-In . SVG Version: 6.00 Build 0)  -->
<svg version="1.1" id="Layer_1" xmlns="http://www.w3.org/2000/svg" xmlns:xlink="http://www.w3.org/1999/xlink" x="0px" y="0px"
	 viewBox="-657.9 418.7 286.9 379.3" enable-background="new -657.9 418.7 286.9 379.3" xml:space="preserve">
<g id="Layer_x0020_1">
	<g id="_494055730960">
		<g>
			<path fill="#2E392D" d="M-509.8,748.9l3.3-3.9c2.1-2.1,1.1-1.5,2.8-3.1l14-15.8c0.4-0.5,0.5-0.8,0.9-1.2l1.8-2
				c0.6-0.8,0.4-0.4,1.1-1c0.8-0.8,0.9-1.4,1.7-2.2c2.2-2.1,4.7-5.5,6.4-7.3l4.8-5.4c1.2-1.1,0.9-1,1.8-2.1c0.8-1,0.5-0.2,2-2.2
				c0.8-1,1.1-0.9,1.9-2c1-1.4,0.6-1.2,2.2-2.1c0.5-1.1,0.9-1.5,1.4-2l2.8-10.1c-0.7,0.3-1.6,0.9-3,2.8c-1.3,1.8-3.9,3.7-5.7,5.3
				c-0.9,0.8-0.9,1.2-1.6,1.9l-5.8,5.2c-3.3,3.9-4.1,3.4-7.3,7.3c-0.9,1.1-4.6,3.8-5.8,5.2c-0.8,1-0.2,0.7-1.7,1.9
				c-0.7,0.6-1.2,1-1.9,1.7l-2.9,2.5c-0.5,0.5-0.5,0.7-0.9,1.2c-1,1.2-4.3,3.7-5.7,5.1c-0.8,0.8-0.9,1.3-1.8,2.1
				c-1.3,1.2-2.5,2.2-3.8,3.3c-2.2,1.9-2.2,2.9-3.6,3.6L-509.8,748.9z M-512.6,735.5c2.5-6.6,6.1-13.3,8.8-19.9
				c4.1-10,9.2-20.6,13.2-30.6c1.2-3,1-2.3,4.3-2.9c2.1-0.4,4.2-0.7,6.3-1.1c4.1-0.7,8.3-1.5,12.4-2.2c11.9-2.1,7.5-1.4,9.7-3.4
				l1.6-5.7c0.1-0.3,0.2-0.6,0.3-0.9c-5.6,0-11.1-0.1-16.8,0.5c-2.6,0.3-20.6,1.5-21.3,2c-1,0.6-1.6,3-3.1,3.2
				c0.4,0.3,3.3,1.5,4,1.6c1.9,0.5,32.2-4.3,34.9-4.7l-3.5,2.3c-3.7,2.2-8.6,2.3-14.1,3.2c-3.2,0.5-6.5,1-9.8,1.5
				c-5.8,0.9-4.9-0.4-7.2,4.5c-1.9,4.1-13.3,30.8-14.2,31.8l7.7-33l-12.5-11c-1.8-1.8-2.4-1.7-2.8-2.8l0.1-0.2
				c-0.6-0.9-1.2-1.2-2-1.8c-0.3-0.2-0.9-0.7-1-0.8c-0.7-0.6-0.6-0.1-0.5-0.8l-15.2,2.1c-1.5-2.2-4.4-10.6-5.6-13.6
				c-2-5-1.4-5.2-3.6-5.9c-2.3-0.7-4.6-1.6-6.9-2.3c-4.7-1.6-9.4-3.2-14.1-4.7c-1.8-0.6-1.8-1-2.7-2.1l-6.2-7.7
				c0.6-1.9,3.9-5.9,4.7-8.1c-0.3-0.2-0.7-0.5-1.2-0.8c-1-0.6-0.7-0.1-1.2-0.8c-0.9,0.5-5.5,7.4-6.3,8.7l-9.1,13.3
				c-1,1.6-2.1,2.8-3.1,4.4l-6.1,8.7c0.7-2.4,2.1-5.4,3.1-7.8l24.9-61.9c2.2-5.4,2.3-4.3,1.1-7.7l-11.8-31.7
				c-1.9-4.9-4.5-10.6-5.9-15.4c-0.1-0.2-0.2-0.2-0.4-0.6c-0.2-0.3-0.1-0.3-0.1-0.6c0.7,0.5,0.5,0.1,0.7,1.2l24.7,47.8
				c1.4-0.6,1.9-2.6,2.5-4c0.7-1.7-0.3-3.2-1-5c-2.5-7.4-9.2-23.9-10.5-28.6l13.2-3.4c1.5,4.1,4.5,17.9,5.9,19.2l6.6,6.2
				c1.2,1.6,3.2,2.6,4.4,4c2.8,3.1,1.3,1.3,4.3,4c0.9,0.8,1,1.3,2,2.2c1.8,1.5,3,2.3,4.3,4.3c1.2-0.7,2.1-2.5,2.5-3.6
				c0.5-1.2-0.5-2.5-1.1-3.8c-1.6-3.2-11.8-21.8-11.8-22.4c3.8,0.1,10.3,0.7,13.9,1.8l24.5,7.4c4,1.3,8.5,2.3,12.5,3.8l0.6-0.8
				c-1.5-0.6-2.7-1.6-4.1-2.4c-1.2-0.7-2.9-1.7-3.9-2.5l0.1-17.4l15.9,6.2l-0.7,6.4l9.4,7.9c0.7,0.6,0.7,0.6,1.3,1.1l8.1,6.8
				c0.7,0.7,2.2,1.2,2.2,2.5c1.4,2.1,1.6,7.6,2.6,10.3c-0.3,1.9-3.3,8.2-4.3,10.4l-8.8,19.9c-1.3,3-3.5,7.1-4.4,10.1
				c1.6,0.3,3.3,0.1,4.8-0.1l12.4-25.9l4.8,4.1c0.8,0.6,4.6,3.6,4.7,4.1c0.1,0.8-5.2,23.8-6.3,28.5c-0.6,2.5-1.1,3.3-0.3,5.7
				l2.6,7.8c1.1,3,0.9,2.1,0.3,2.4c1,0.6,10.7,10.7,11.3,11.6l-8.2-4.4c0,0.8,0,0.5,0.3,1.4c0.4,1.3,0.5,0.5,0.2,1.3
				c0.7,0.7,3.1,2.2,5,3.3c3.5,0.5,6.6,2.1,8.9,4.8c0.8-0.7,1.9-1.8,3.5-2.6c0.6-0.9,2.8-1.3,4-1.9c0.9-0.4,1.7-0.8,2.5-1.3
				c-0.1-0.2-0.2-0.4-0.2-0.6c-3.2,0.2-3.8,1.2-8.2,0.5l-0.3-1.4c-0.3,1-1.2,1.4-0.9,2.4c-0.8,0.6,0.3,0.2-1.2,0.5
				c-0.4,0.1-1.2,0.1-1.6,0.2c-0.2-2.7,0-1.9-2.8-4.9c-3.6-4-4-3.8-7.4-7.6c-1.3-1.4-2.3-2.4-3.6-4c1.1-4.3,8.7-46.8,8.5-48.2
				l-15-10.9c0.4-7.7,4.5-13,0.6-15.9l-6.1-5.5c-2.1-1.6-1-0.8-2.2-2c-0.7-0.7-1.5-1-2.2-1.7l-12.5-11.1l1.4-3.9l37.8,14.4
				c1.1-2.1,2.6-4.5,3.7-6.6c1.2-2.2,2.5-4.4,3.7-6.5c5.9-10.5,12.8-21.9,18.5-32.5c1.2-2.1,2.6-4.4,3.6-6.5
				c0.8,0.9,3.5,12.1,4.1,14.4c0.5,1.9,2.1,5.2,1.4,6.9c-1.3,3-3.2,2.1-4.3,4.8c0.1,0.4-0.7,0.1,0.6,0.6c5,0,11.1,0,16-2
				c1.2-0.5,2.8-1.8,3.8-1.8c1.4,5.4-0.6,9.2-6.2,10.7l0.4,3.2c8.8-3.1,9-6.3,10.2-16c-0.3-0.5-0.5-0.7-1.5-0.9
				c-2.3-0.6-4.2-0.5-6,0.5c-0.4-4.2,0-9.4-0.2-13.6c-0.6-13.7-2-24.1-10.2-35.5c-2.2-3.1-4.9-5.6-7.8-8.1
				c-3.4-2.9-9.4-7.1-13.3-9.4c-1.4-0.8-2.8-1.7-4.3-2.6c-0.5-0.3-4-2.1-4.2-2.6c0-0.1-0.1-0.1-0.2-0.2c4.1-0.9-0.7-2.5,9.6,2.3
				c11.8,5.4,9.5,4.2,21.5,6c3.3,0.5,2.4,0.5,4.8,2c0.9,0.6,3.4,2,4,2.7c-1,1.8-2.4,3.7-3.6,5.5c-0.9,1.3-3.3,4.5-3.7,5.5
				c0.5,0.4,0.7,0.4,1,0.7c0.5,0.5,0.2,0.2,0.7,0.8l6.6,5.9c0.9,0.8,0.6,0.6,1.4,1.5c0.9,1.1,2.4,1.8,3.4,2.9c2,2.1-0.2,0.4,3.3,2.9
				l3.6,2.6c1.5,1.3-0.4,3.3,1.7,10c0.1-0.7,0.2-1.5,0.4-2.2c0-0.5,0.1-1.1,0.2-1.6v-0.2c0.2-7.1,1.9-3.9-4.3-10.7l-5.8-5.8
				c-0.5-0.5-0.9-0.6-1.4-1c-0.7-0.5-0.6-0.6-1.2-1.1l-3.8-3c-0.8-0.6-1.9-1.2-2.6-1.9c1.2-3.1,6.2-10,6.6-11
				c-2.4-2.7-8.7-5.9-11.3-7.4l-5.8-1.1c-0.5-0.1-1-0.2-1.5-0.4c0.3,0.3,0.5,0.6,0.7,1c-8.5-1.8-18.3-8.7-25-13.9
				c-4.2-3.3-9.6-6.4-14.6-8.6c-7.1-3.2-14.5-6.3-22.2-8.8c-4-1.3-13.7-4.6-19.8-6.3l-26.5-3.1c-0.1,0-0.2,0-0.3,0l-3.2,1.3
				c-4.1,1.4-6.1,2.5-10,4.3c-4.6,2.2-8.7,4.3-12.3,6.8c-3.3,2.3-4,2.8-6.7,5.5c-1.7,1.7-2.1,1.8-3.6,3.6c-1.4,1.8-2.3,4-3.4,6.1
				c-1.2,2.1-2.1,4.2-3.2,6.4c-4.6,9.4-7.6,17.1-10.8,27.7c-1.6,5.5-8.9,26.5-9.3,29l13.4,5.1c0.9-0.6,0.8-1,1.7-1.7
				c0.6-0.5,1.3-0.9,1.9-1.4c0.8-0.8,0.6-0.9,1.6-1.7c0.7-0.5,1.3-0.9,1.9-1.4c2.3-2.4,4.6-4.2,7-6.4c-1.3,4.2-3.5,8.9-5.1,13.1
				c-0.7,1.7-0.4,1.8-1.9,2.6l-8.5,4.9c-1.4,0.4-20.5-6.3-26.1-7.8l-0.2,11.6c1.1,2.4,2.5,5.1,3.4,7.3l12.4,32.3
				c1.3,3.6,2.7,7.2,4.1,10.8c1.6,4,1.2,2.8-2.1,10.4l-36,83.7c-1.5,3.5-2.9,7-4.5,10.5c-1.1,2.4-4.1,8.9-4.5,10.5
				c0.4-2.1,34.2-96.9,36.3-102.5c3.8-10.2,3.9-7.9,0.1-21.4c-2.6-9.3-5.7-23.3-8.1-33.5l-1.2-4.7v1.2c0,0.5,0,1-0.1,1.5
				c0.7,1.8,1,3.9,0.8,5.9l-2.5,31.6c1.2-8.2,2.2-14.6,2.4-15c0.7,3.5,6.9,25.6,6.6,27l-9,24.9c-0.6,1.6-2.7,7.7-4.3,12
				c-0.1,0.4-0.3,0.7-0.4,1c-0.7,1.8-1.2,3.1-1.5,3.4c0-0.2,0-0.5,0-0.7c-0.2,0.3-0.4,0.5-0.6,0.8c-0.5,1.2-1.1,2.3-1.9,3.3
				l-19.7,25.3c-3.4,7.9-8.2,18.2-10.7,23.9c-1.2,2.7-1.7,2.5-1,5.5l2.7,12.5c0.1,1.3-1.8,2.6-3.3,4.2c-2.6,2.6-5,5-7.6,7.6
				c-1.1,1.1-4.6,4.7-8,8.2l1.7,6.8c3.1-1.9,7.1-4.7,8.5-5.6c1-0.7,1.9-1.2,2.9-1.8c3.9-2.4,26.6-17.1,27-17.8l9.2-30.4
				c0.6-1.9,0.6-2.5,1.6-3.4l6.4-5.8c1.9-2.4,4.3-4.2,6.6-6.3l4.9-4.9c1.8-1.6,3.5-3.2,5-5.1l26.6,14.1c1.7,1.1,8.5,12.2,10.5,14.9
				c1,1.3,2.1,1,3.9,1.1c3.2,0.3,6.4,0.6,9.6,0.9c3.8,0.3,3.4,0,5.1,2.4l12.2,15.7c0.1,0.5-0.8,3.2-1,4c-2.7,8.8-5.6,17.8-8.2,26.6
				L-512.6,735.5z M-649.6,709.3l0.6-1c-0.3,0.1-0.5,0.2-0.8,0.3L-649.6,709.3z M-646,723.7c0.4-0.3,0.8-0.5,1.3-0.8
				c0.5-0.4,0.9-0.7,1.4-1c-1,0.1-2,0.3-3,0.4L-646,723.7z M-657.9,668.9L-657.9,668.9L-657.9,668.9L-657.9,668.9z M-513.9,418.8
				h-0.1H-513.9L-513.9,418.8z M-390.2,461.4c0.2,0.1,0.3,0.1,0.5,0.2l-0.1-0.2C-389.9,461.4-390,461.4-390.2,461.4z M-382.8,467.2
				c-1.6,2.8-4.5,8-4.8,9.8c1.3,0.8,1.9,1.9,3.1,2.9c2.9,2.4,6.6,7.9,8.2,9.2c0,0,0.1,0,0.2-0.1l0.6-0.2c-0.7-1.6-2.9-4.4-4.1-6
				c-1.4-1.9-2.9-3.8-4.6-5.3c0.1-1.5,2.1-6.2,3.4-8.9L-382.8,467.2z M-376.1,471.9c0.2,0.3,0.4,0.6,0.6,0.9c0-0.2,0-0.4,0-0.6
				C-375.7,472.1-375.9,472-376.1,471.9z M-414.9,450.1c-0.1,0-0.3,0-0.4-0.1l0.5,0.4C-414.8,450.3-414.9,450.2-414.9,450.1z
				 M-472,424.3h-0.2l0.3,0.1L-472,424.3z M-371.7,491.7c0,0.2,0,0.4,0,0.6c0,0.4-0.1,0.6-0.2,1c-0.4,0.9,0.3,0-0.4,0.6
				c0.2,0.6-0.4,0.7,0.1,0.6c-0.1,0.1-0.1,0.3-0.2,0.4c0-0.1-0.1-0.3-0.1-0.4h0.3l0.2-0.4c0.1-0.4,0.2-0.7,0.3-1.1
				c0.1-0.4,0.1-0.8,0.2-1.2L-371.7,491.7z M-371.8,538.8c-0.1,0.6-0.2,1.1-0.3,1.8l0.5-0.5c0.2-0.3,0.4-0.6,0.6-1
				C-371.3,539-371.5,538.9-371.8,538.8z M-624.8,697.1c-0.3-3.1,0-7.1,0.1-10.2c0.1-3.2-0.4-7,1-9.8c2.6-4.8,4.8-9.7,7.2-14.3
				c3.2-6.3,11.6-23.5,14.4-28.2L-624.8,697.1z M-571.4,523.8c7.5-0.3,3.8,5.4,17.4-2.9c4.2-2.5,2.9-2,8.1-0.2l26,9.1
				c5.6,2.1,12,4.5,17.7,6.2c0.2-1,1.9-4.8,2.5-5.5l1.3,19.9c-4.5-1-15.6-7-18.1-6.1c-2.4,0.8-2.4,1.6-4.5,0.3
				c-3.4-2-10.5-4.8-14.6-3.3c-2.6,1-5.3,3.6-6.1,6.4c-1,3.6,1,6.8,2.6,9.2c1.3,2,9.7,13.5,10.6,13.8c-0.9-0.2-4-2.8-4.3-3.1l-5.6-6
				c-0.4-0.5-0.4-0.6-0.9-1.2c-5.8-7.3-11.9-22.4-7.8-30.6l40.5,14.7l0.5-4.4c-0.6-0.5-38.5-15.1-41.2-14.4
				c-2.8,0.7-9.3,7.3-13.6,8.7c-2.7,0.9-7.2,1.1-10.1,0.2L-571.4,523.8z M-442.8,522.1l-0.3-0.4L-459,548l-6.9-2.5l24.2-40.1
				l7.7,2.7l-4.5,30.7c1.3-1.3,3.1-4.9,4.2-6.7c1.4-2.3,2.6-4.4,4-6.7l8.2-13.3l6.9,2.3c-0.4,1.4-11,18.6-12,20.3
				c-1.6,2.7-11.2,19-12.2,20l-7.7-2.7L-442.8,522.1z M-472.2,496.4c3.8-0.9,14,3.2,17.9,4.6c3,1.1,5.3,2.9,4,7
				c-0.8,2.5-10.8,18.6-12.5,21.5c-1.5,2.5-2.8,4.6-4.3,7.1c-4.4,7.4-9.5,5.4-15.6,3.3c-6.7-2.3-14.1-3.2-12.4-9.6
				c0.6-2.4,10.8-18.7,12.5-21.5c1.4-2.4,2.9-4.7,4.2-7.1c1.5-2.6,1-1.6,2.5-3.2c0.6-0.7,0.7-0.8,1.7-1.3
				C-473.6,496.8-473,496.6-472.2,496.4z M-420.9,511.2c1.8-3.4,4.3-6.7,6-10.1l6,2c-0.3,0.9-0.3,0.7-0.9,1.6l-4-1.4l-1.5,2.6
				l3.1,0.8l-0.9,1.7l-3.4-1.1c-0.2,1.3-0.9,1.9-1.5,3.3c1.4,0.2,3.2,0.7,4.2,1.4l-1,1.3l-5.5-1.8
				C-420.8,511.4-420.7,511.4-420.9,511.2z M-486.8,489.9l7.6,2.5l-24.3,40.3l-7.4-2.7L-486.8,489.9z M-535.7,513.4
				c1.6,1.4,7,2.9,9.7,3.8c6.1,1.9,6.1,3.4,8.9-1.1c1.4-2.3,1.6-2.3,0.2-5c-1.5-2.9-5.8-11.4-6.5-13.5c-1.2-3.8,1.4-7.1,2.9-9.6
				c1.7-2.8,3.3-5.4,7.4-6c3.1-0.5,17.3,4.6,20.7,6.1c-0.4,1.1-3.2,5.8-4,6.8l-0.4-0.3c-2-1.3-6.7-2.6-9.3-3.5
				c-4.9-1.7-5.8-3-8.4,2.3c-0.9,1.9,0.3,3.2,1.2,4.9c1.6,3.1,6.1,11.4,6.2,13.8c0.2,3.2-4.2,10.2-5.5,11.5c-1.7,1.6-3,3.3-6.7,3.2
				c-2.1,0-18.8-5.6-20.4-6.6C-538.5,517.9-537,515.5-535.7,513.4z M-551.5,516.2c1.1-2.7,4.2-7.3,5.9-10.1c2-3.3,4-6.7,6-10.1
				c4-6.7,7.8-13.4,12-20c1.3,0.1,6.8,1.9,7.7,2.6l-24.2,40.1L-551.5,516.2z M-573.2,508.7c0.3-2.2,10.4-34.6,12.3-41.2
				c0.1-0.5,0.2-0.9,0.4-1.4l0.6-1.4l7.8,2.6c-0.2,1.8-8.2,25.9-9.6,30.1c-0.6,2-1.4,3.1-0.7,4.1c0.5-0.9,1.1-1.6,1.8-2.4
				c0.8-1,1.3-1,2.1-2c0.7-0.8,1.2-1.5,1.9-2.3c0.8-0.9,1.2-0.9,2-1.9c0.7-0.8,1.2-1.5,1.9-2.3c0.8-0.9,1.2-0.9,2-1.9
				c0.7-0.8,1.2-1.5,1.9-2.3c0.8-0.9,1.2-0.9,2-1.9c2.3-2.8,2.9-3,3.9-4.2c2.4-3,0.9-1.3,3-3.2l2.7-3.3c1-1.1,1.1-0.9,2.6-0.4
				l4.7,1.6c0.2,0.1,0.5,0.2,0.6,0.3c0.4,0.2,0.4,0.2,0.6,0.4c-1.6,1.6-2.8,3.1-4.3,4.7c-1,1.1-2,1.6-4.5,4.4
				c-1.3,1.4-2.9,3.5-4.3,4.7c-0.6,0.5-0.8,0.5-1.4,1c-0.4,0.3-0.7,0.7-1,1.1c-1.7,1.9-4.8,5.6-6.6,6.9c-1.3,0.9-4.9,5.2-6.5,7
				c-0.4,0.4-0.7,0.9-1.2,1.2c-3.6,2.9-3.5,3.9-5.4,5.3L-573.2,508.7z M-416.4,499.5c-0.2,0.9-0.1-0.8,0.1,0.3c0,0.2,0,0.3,0,0.5
				c-0.2,1.4-0.3,1.1-1.5,2.9l-4.5,7.7l-1.9-0.8c0.5-1.4,2-3.1,2.6-4.7l-2.9-0.9l-2.9,4.6l-1.8-0.7l4.9-7.9l-0.4-0.7
				c0.1-0.2,0.2-0.2,0.3-0.3l-2.6-0.8c-1,1.4-4.6,7.3-5,8.6l-2-0.7c0.6-2.3,4.1-6.3,5-8.8l-2.3-0.6l1.1-1.8l0.6,0.3l0.8-0.6
				c0.1,0,0.3,0,0.4,0c-1.3-1.1-4.1-1.4-5.9-2.3c0-2.6,1.3-6.2,0.2-8.3s-2.4-4.3-3.6-6.3c-2-3.2-0.9-3.6-5.1-4.7
				c-4.1-1.1-21.1-6.4-22.7-6.2l-20.7,8.5c-9.3,3.9-6.3,3.8-14.1,0.8c-5.1-2-16.7-5.2-22.2-6.8c-0.6-0.2-14.7-3.7-15.1-4.5l-1.9-12
				c5.5-2.4,14.7-7.2,20.5-9.9c5.1-2.4,3.8-2.5,7.8-1.9c11,1.8,23.5,2.9,33.9,6.4c16.3,5.5,26.9,11.6,41,19.6
				c4.2,2.4,8.7,5,12.6,7.6l-0.2,15.8c0.2,0.7,11.1,8.1,13.1,10.1L-416.4,499.5z M-392.8,530.8c-0.9-0.9-5.2-12.4-6.1-14.7
				c-2.1-5.2-4.2-9.3-6.5-14.1c-4.6-9.4-9.2-18.4-13.6-27.5c-4.4-8.9-1.8-5.2-10.3-10.2c-4.4-2.6-8.9-4.7-13.3-7.3l-26.6-14.7
				c9.4,1.1,23.6,6.2,31.2,10.5c2.2,1.3,4.7,2.5,6.6,3.8c1.2,0.8,2.2,1.4,3.2,2.2c4.4,3.3,14.5,10.2,17.9,13.2
				c0.8,0.7,0.8,0.6,1.5,1.2c0.7,0.5,0.6,0.6,1.2,1.2c0.5,0.5,1,0.7,1.6,1.1c0.9,0.7,0.5,0.7,1.2,1.5c1.1,1.4,0.8,0,2.5,2.5
				c3.6,5,4.9,6.1,6.5,14.2c1,5.6,1.7,12.7,2.2,18.5C-393.6,514.9-391.8,529.1-392.8,530.8z M-553.1,464.8c-1-5-1.4-3.1,1-7.6
				c1.3-2.4,2.3-4.6,3.5-6.9c4.9-9.3,3-8.1,9-11.9c4.2-2.7,8.3-5.5,12.6-8.3c2.6-1.7,13.2-2.8,17.2-3.4c3-0.5,6-0.9,9-1.4
				c4.2-0.6,4.3-0.1,8.1,1.2l31.2,10.5c2.6,0.8,5.2,1.8,7.8,2.7c2.5,0.8,5.4,1.5,7.6,2.7l-34.1-4.6c-0.4,0.8-0.7,1-1.1,1.8
				c-7.3-0.9-14.7-2.1-22-3.1c-3.4-0.5-7.6-1.4-11-1.6c-1.7-0.1-3,1-4.4,1.7l-20.7,10.7c-2.1,1.1-1.5,0.6-1.9,1.4
				c-0.6,1.3-1.3,6.5-1.3,7.8c0.1,2.5,0.3,9.8,1.1,11.5c0.6,0.6,43.1,12.2,47.9,13.6c6.9,2.1,4.6,1.3,15-2.8c2.5-1,4.9-2.1,7.4-3.1
				c2.3-0.9,4.7-2.6,7.2-2c5.4,1.3,11,2.9,16.3,4c2.2,0.5,1.9,0.5,2.9,2.1c1.4,2.1,5.7,7.7,5.3,9.1c-1.5,4.6-1.2,2.8,0.5,7.4
				c0.4,1,1.3,2.8,1.4,3.6c0.4,1.5-0.5,1.2-1.5,3c-4.5-1.4-9.8-3.6-14.3-5.4c-10.4-3.9-33.2-10.7-44.1-14.1c-10-3-19.8-6.2-29.7-9.4
				c-9.8-3.1-20-6-29.6-9.4L-553.1,464.8z"/>
			<g>
				<path fill="#6BE2F8" d="M-403.9,552.7c1.2-2-1.2-5.9-6.3-2.2c-0.8,0.6-1.1,1.3-1.2,2.8C-411.4,557.6-408.5,560.3-403.9,552.7z"
					/>
				<path fill="#6BE2F8" d="M-418.8,547.6l0.4,0.2c5.6,0.1,12.9-2.8,16.5,1.9l-0.2-1.1C-405.1,543.7-413.4,546.9-418.8,547.6z"/>
			</g>
			<g>
				<path fill="#CD445A" d="M-424.4,500.7l-4.9,7.9l1.8,0.7l2.9-4.6l2.9,0.9c-0.6,1.6-2.1,3.2-2.6,4.7l1.9,0.8l4.5-7.7
					c1.1-1.9,1.3-1.5,1.5-2.9l-1.8-0.3c-1,1.2-1.6,3-2.7,4l-2.7-0.9l2.3-4.2l-1.7-0.6C-423.6,499.1-423.9,499.5-424.4,500.7z"/>
				<path fill="#CD445A" d="M-420.9,511.2c0.2,0.2,0.1,0.2,0.6,0.4l5.5,1.8l1-1.3c-1-0.8-2.8-1.2-4.2-1.4c0.6-1.4,1.3-2,1.5-3.3
					l3.4,1.1l0.9-1.7l-3.1-0.8l1.5-2.6l4,1.4c0.6-0.9,0.6-0.7,0.9-1.6l-6-2C-416.7,504.5-419.1,507.8-420.9,511.2z"/>
				<path fill="#CD445A" d="M-424.5,499.7c0.1-1.5,0.4-0.7,0.5-1.8l-5.8-1.9l-0.6-0.3l-1.1,1.8l2.3,0.6c-0.9,2.5-4.3,6.5-5,8.8
					l2,0.7c0.4-1.4,4-7.2,5-8.6L-424.5,499.7z"/>
			</g>
			<g>
				<path fill="#732430" d="M-419.1,656.5c0,1.4-0.4,0.3,2.3-0.3c0.9-0.2,2.1-0.4,3-0.5c1.2-0.2,4.6-0.9,5.7-0.9c0-0.7,0-1.4,0-2.1
					c0-1.8,0.2-1.9,0.7-2.4l-0.9-11.6c2.3-0.7,3.2-0.2,4.5-0.9c-2.4-0.9-15.1-1.1-19.1-1.6l1.1,1.6c0.6,0.5,0.6,0.4,1.2,0.9
					c0.7,0.6,1.1,1.4,1.9,2.3c2.1,2.4,2.8,3.8,0.3,4.6c0.7,1.1,9.7,5,2.9,9.3C-416.5,655.3-418.4,655.9-419.1,656.5z"/>
				<path fill="#732430" d="M-399.9,557c-0.1,1.7-2.3,4.3-3.1,4.9c-0.9,0.7-3.8,3-5.2,2.8c-1.2,2.7-6.9,2-8,4.3
					c0.3,0.1,0.4,0.1,0.8,0.3c0.7,0.5,0.3,0.1,0.9,0.8c1,0.4,2.6,1.7,3.8,2.2l0.1,1.9l0.2-1.9c4.1-0.6,10.7-5.1,12.4-7.2
					c2.1-2.6,1.4-2.4,2.4-4c0.3-1.2,0.2-2,0.7-3l-3.3,0.9l-0.6-2.5C-399.4,557.1-399,556.8-399.9,557z"/>
				<path fill="#732430" d="M-423.6,626.6l10.8-0.4c2.7,0.4,5.9-0.8,8.5-0.1c-0.4-0.5-0.2,0-0.2-0.8l6.4-2.2c-1.4-1-1.1-0.4-1.1-0.4
					l-13.7-0.2c-2.4,0-4.9-0.4-6.7,0.7C-422.6,625.1-422.1,625.6-423.6,626.6z"/>
				<path fill="#732430" d="M-395.3,595.7c0.7,1.5,2,2.9,2.5,4.5c3.2,0,4.5,0.4,8-0.1c1.5-0.2,6.3-0.7,7.4-1.2
					c-1.7,0-6.8-1.5-8.9-1.9C-389.5,596.3-392.1,595.3-395.3,595.7z"/>
			</g>
			<g>
				<path fill="#D45D71" d="M-423.6,626.6c1.6-1,1-1.5,4.1-3.4c1.8-1.1,4.3-0.7,6.7-0.7l13.7,0.2c0,0-0.4-0.6,1.1,0.4l6.3-2
					l-3.6-9.8l-0.2-1c-5.1,2.2-10.5,4.4-16.1,6.3c-9.2,3.1-8.4,0.8-12.5,10.1L-423.6,626.6z"/>
				<path fill="#D45D71" d="M-400.8,637.6l2-4.4c-0.5-1.1-1.8-2.7-2.6-3.8c-2.3-3.3-0.7-1.4-3-3.4c-2.6-0.6-5.8,0.5-8.5,0.1
					c0.6,0.8,1.7,0.9,3.2,1.7c1.1,0.6,2.2,0.9,3.3,1.5c2.7,1.4,3.5,0.9,4.5,2.7c1,1.7,1.5,1.6-0.3,4.5c-0.5,0.8,0,0.3-0.6,0.7
					L-400.8,637.6z"/>
			</g>
			<g>
				<path fill="#2C392C" d="M-416.8,570.7l4.6,2.9l-0.1,12.5c-1.8,1.2-5.4,2.7-7.4,3.7l-11.1,5.3c-2.3,1.1-2,0.6-2.4,3.2
					c-1.4,8.6-3.8,19-5.5,28c-0.6,3.3-3.6,17-3.6,19c3.7,3,2.6,3.1,4.6,4.7c1.5,1.2,1.8,2.2,2.9,3.3c0.8,0.8,1,0.6,1.7,1.5
					c1,1.2,2.2,2.2,1.9,4.4c-0.2-1,0.6-1.4,0.9-2.4c-0.4-2.5-1-2.4-2.3-3.7c-3.4-3.2-3.4-3.7-5.6-5.8c-0.9-0.9-2.1-1.8-2.8-2.8
					c0.4-3.1,2.4-9.2,3.3-12.4c1.3-4.5,2.5-8.2,5.1-10.7l16.7-14.6c-3,1.4-7.2,4-10.1,5.8l-9.6,6.6l3-18c0.4-2.9-0.1-3.3,2.3-4.5
					c2.8-1.3,17.7-7.7,18.9-8.6l0.6-10.9v-2.9l-0.1-1.9c-1.2-0.5-2.7-1.9-3.8-2.2c-0.2,0-1,0-1.2,0.1
					C-417.3,570.5-416.2,570.2-416.8,570.7z"/>
				<path fill="#2C392C" d="M-429.8,496l5.8,1.9c-0.1,1.1-0.4,0.3-0.5,1.8c-0.1,0.1-0.2,0.1-0.3,0.3l0.4,0.7
					c0.5-1.2,0.7-1.5,1.4-2.4l1.7,0.6l-2.3,4.2l2.7,0.9c1.1-1,1.7-2.8,2.7-4l1.8,0.3V500v-0.1c-0.1-1.1-0.3,0.6-0.1-0.3
					c-1-0.6-11.3-4.1-12.2-4.1c-0.1,0-0.3,0-0.4,0L-429.8,496z"/>
			</g>
			<g>
				<path fill="#9D2B3D" d="M-497.2,674.4l-17.4-6.6l-0.1,0.2c0.4,1.1,1,1,2.8,2.8l12.5,11l-7.7,33c0.9-1,12.3-27.8,14.2-31.8
					c2.2-4.9,1.4-3.6,7.2-4.5c3.3-0.5,6.6-1,9.8-1.5c5.5-0.9,10.4-1,14.1-3.2l3.5-2.3c-2.7,0.4-33,5.2-34.9,4.7
					C-493.9,675.8-496.7,674.7-497.2,674.4z"/>
				<path fill="#9D2B3D" d="M-602.1,634.7c-2.8,4.7-11.2,21.9-14.4,28.2c-2.4,4.6-4.6,9.4-7.2,14.3c-1.5,2.7-0.9,6.5-1,9.8
					c-0.1,3.1-0.4,7.1-0.1,10.2L-602.1,634.7z"/>
			</g>
			<g>
				<path fill="#D96F82" d="M-465.6,552.4c1.7,1.8,2.9,2.5,4.5,4.1l10.6,8.8c1.1,0.8,2.5,2.4,3.6,3l-3.3,15.5l11.5,7.3
					c2.2,1.4,1.3,1.9,2.6,3.9c0.9-0.2,0.2,0,1.3-0.5l8.6-4.8c2.5-1.2,8.2-4.7,9.9-5.3c0.8-13.1,4.2-8.6-7.1-16.4l-9.4-6.3
					c-2.6,1.6-0.7,2.7-7.7-0.8l-23.9-11L-465.6,552.4z"/>
				<path fill="#D96F82" d="M-395.7,561.2c-1,1.7-0.4,1.4-2.4,4c-1.7,2.1-8.3,6.6-12.4,7.2l-0.2,1.9v2.9l-0.1,2l5.6-5
					c1.6-1.9,3.1-1.1,8.2-0.3l1.7,21.7c3.2-0.4,5.8,0.6,8.9,1.3c2.1,0.4,7.2,1.9,8.9,1.9c0.5-0.7,3.5-6.5,3.6-7.2
					c0.4-1.6-2.1-5.9-2.9-7.7c-2.1-5.1-4.2-10.1-6.4-15.1c-3.5-8.1-3.7-6.5-1.8-16.8c0.4-2,2.9-2.7,6.2-4.6c1-0.6,2.3-1.3,3.5-1.9
					c2.7-1.3,1.4-0.9,2.6-2.6l-0.3-0.5c-0.9-2.1,0.4,1.6-0.2-0.5c-0.1-0.3,0-0.6,0-0.8l-0.1,1.6l-1.5-3.3c-0.5,0.5-1.2,2.8-1.5,3.6
					c-0.7,1.8,0,0.9-2.8,2.6c-2.3,1.4-4.5,2.6-6.7,4c-5.5,3.3-4.7,2.2-5.7,5c-0.7,1.9-2.1,4.6-3.6,5.9c-0.1,0.1-0.3,0.2-0.3,0.3
					L-395.7,561.2z"/>
				<path fill="#D96F82" d="M-409,589.2l-2.4,1.2c-0.8,0.5-1.7,0.8-2.6,1.2c-3.5,1.6-12.8,6.5-15.3,7.1l-2.3,15l20.6-17.8
					c0.9-1.1,1.9-1.8,3-2.6l-0.2-11L-409,589.2z"/>
				<path fill="#D96F82" d="M-446.2,640.6c1.3-2,2.8-6.4,3.9-8.9c2.8-6.3,3.8-13.6,5.2-20.5c0.6-2.9,2-8.1,2.1-10.9l-2.9-2.3
					C-438.3,598.9-446,637.7-446.2,640.6z"/>
				<path fill="#D96F82" d="M-392.1,546.4c0.7,1.3,1.2,1.2,3.1,3.2l10.6-6.5l-0.7-0.9c-0.7-1-1-1.5-2.1-2.3L-392.1,546.4z"/>
			</g>
			<g>
				<path fill="#EDD4BB" d="M-485.6,559.8c0.8,1.2,13.8,8.4,16,10.5l2.2,1.1l-0.5,2.9l-1.5,0.9c-3.2,1.3-27.3,12.6-28.1,13.6
					c0.5,4.8,1.8,10.7,2.7,15.7c0.9,5.3,1.8,10.5,2.7,15.8c0.3,1.8,0.6,6.5,1.8,7.5l11.8,6.7c1.8,1.1,4,2.4,5.9,3.3
					c-0.4-0.6-1.2-1.6-1.8-2.1c-3-2.2-2-2.2-5.4-5.3c-6.4-5.9-5.3-4.4-5.3-8.8v-28.5l12.4-9.1c1.9-1.4,10.8-8.2,12.4-8.6l3.1-6.7
					c0-1.2-1.4-1.8-2.2-2.5l-8.1-6.8c-0.6-0.5-0.7-0.4-1.3-1.1l-9.4-7.9l0.7-6.4l-16-6.2l-0.1,17.2c1,0.7,2.7,1.8,3.9,2.5
					C-488.3,558.2-487.1,559.2-485.6,559.8z"/>
				<path fill="#EDD4BB" d="M-570.2,620.2c0.1-0.7,0-0.2,0.3-0.9c0,0,0.5-0.9,0.6-0.9l10.7-15.5c0.8-1.2,1.6-2.4,2.4-3.6l4.9-6.9
					c-0.3-1.5-6-12-7.2-14l-24.7-47.8h-0.2c1.4,4.8,4.1,10.5,5.9,15.4l11.8,31.7c1.3,3.4,1.1,2.3-1.1,7.7l-24.9,61.9
					c-1,2.4-2.4,5.5-3.1,7.8l6.1-8.7c1-1.6,2-2.8,3.1-4.4l9.1-13.3C-575.6,627.6-571.1,620.7-570.2,620.2z"/>
				<path fill="#EDD4BB" d="M-443.2,521.7l0.5-0.6l-0.2,0.9l-4.2,30l7.7,2.7c1-1,10.5-17.3,12.2-20c1-1.7,11.6-18.9,12-20.3
					l-6.9-2.3l-8.2,13.3c-1.4,2.3-2.7,4.4-4,6.7c-1.1,1.8-2.9,5.4-4.2,6.7l4.5-30.7l-7.7-2.7l-24.2,40.1l6.9,2.5L-443.2,521.7z"/>
				<path fill="#EDD4BB" d="M-469.8,503.9c1.8-0.2,3.8,0.9,5.5,1.5c1.2,0.4,4.5,1.1,4.8,2.3c0.3,1.2-8.9,15.8-10.2,17.9
					c-0.9,1.5-1.8,2.9-2.7,4.5c-3.4,5.6-2.1,4.7-11.1,1.7c-3.6-1.2-3.2-0.9,2.6-10.5C-479,518-472,505.6-469.8,503.9z M-472.2,496.4
					c-0.8,0.2-1.4,0.4-2.1,0.8c-1,0.6-1,0.6-1.7,1.3c-1.5,1.6-1,0.6-2.5,3.2c-1.4,2.4-2.8,4.7-4.2,7.1c-1.7,2.8-11.9,19.1-12.5,21.5
					c-1.6,6.4,5.8,7.2,12.4,9.6c6.1,2.1,11.2,4.1,15.6-3.3c1.5-2.5,2.8-4.6,4.3-7.1c1.7-2.9,11.8-19,12.5-21.5c1.3-4.1-1-5.8-4-7
					C-458.2,499.6-468.4,495.5-472.2,496.4z"/>
				<path fill="#EDD4BB" d="M-392.8,530.8c1-1.7-0.8-15.9-1-18.8c-0.5-5.8-1.1-12.9-2.2-18.5c-1.5-8.1-2.9-9.1-6.5-14.2
					c-1.8-2.5-1.4-1.2-2.5-2.5c-0.7-0.8-0.3-0.7-1.2-1.5c-0.5-0.5-1-0.7-1.6-1.1c-0.6-0.5-0.5-0.6-1.2-1.2c-0.7-0.5-0.7-0.4-1.5-1.2
					c-3.4-3-13.5-9.9-17.9-13.2c-1.1-0.8-2-1.3-3.2-2.2c-1.9-1.3-4.4-2.6-6.6-3.8c-7.6-4.3-21.7-9.4-31.2-10.5l26.6,14.7
					c4.4,2.6,8.9,4.7,13.3,7.3c8.6,5.1,6,1.3,10.3,10.2c4.5,9.2,9,18.1,13.6,27.5c2.3,4.8,4.4,8.9,6.5,14.1
					C-398,518.4-393.7,529.9-392.8,530.8z"/>
				<path fill="#EDD4BB" d="M-449.5,667.2c1.5,0.4,6.8,3,8.4,3.8c2.1,1.1,6.2,3.1,8.2,3.8c-1.7-1.4-3.9-2.8-6.2-4.2
					c-2.3-1.2-4.2-2.5-6.4-3.9c-9.8-6.1-21.1-12.7-30.7-18.8c-4.1-2.6-8-4.9-12.2-7.5c-2.1-1.3-4.1-2.6-6.3-3.8
					c-4.3-2.5-3.7-2-4.4-5.4c-3.1-15.9-7.3-32.6-10.5-48.8c1.5-0.5,13.9-6.4,14.6-7.2c-5.4,1.5-22.9,3.4-26.3,4.9
					c1.1,4.6,3.2,10.5,4.7,15.1l13.2,41.4c0.5,1.5,0.4,2.7,1.7,3.4c4.1,2.4,8.7,4.5,12.9,6.8l19.4,10.4c2.3,1.2,4.1,2.3,6.7,3.5
					C-461.1,661.5-449.9,666.8-449.5,667.2z"/>
				<path fill="#EDD4BB" d="M-573.2,508.7l9.4,3.3c1.8-1.5,1.8-2.4,5.4-5.3c0.4-0.4,0.8-0.8,1.2-1.2c1.6-1.7,5.2-6,6.5-7
					c1.8-1.3,4.8-4.9,6.6-6.9c0.3-0.4,0.6-0.8,1-1.1c0.6-0.5,0.8-0.5,1.4-1c1.4-1.2,3-3.3,4.3-4.7c2.5-2.8,3.5-3.4,4.5-4.4
					c1.5-1.6,2.8-3.1,4.3-4.7c-0.2-0.1-0.2-0.2-0.6-0.4c-0.2-0.1-0.5-0.2-0.6-0.3l-4.7-1.6c-1.5-0.5-1.6-0.7-2.6,0.4l-2.7,3.3
					c-2.1,1.9-0.7,0.3-3,3.2c-0.9,1.2-1.5,1.4-3.9,4.2c-0.8,0.9-1.2,1-2,1.9c-0.7,0.8-1.2,1.5-1.9,2.3c-0.8,0.9-1.2,1-2,1.9
					c-0.7,0.8-1.2,1.5-1.9,2.3c-0.8,0.9-1.2,1-2,1.9c-0.7,0.8-1.2,1.5-1.9,2.3c-0.8,1-1.3,1-2.1,2c-0.7,0.8-1.3,1.5-1.8,2.4
					c-0.6-1,0.1-2.1,0.7-4.1c1.4-4.1,9.4-28.3,9.6-30.1l-7.8-2.6l-0.6,1.4c-0.2,0.5-0.2,0.9-0.4,1.4
					C-562.8,474.1-572.9,506.5-573.2,508.7z"/>
				<path fill="#EDD4BB" d="M-535.7,513.4c-1.4,2.1-2.9,4.4-4.1,6.7c1.6,1.1,18.3,6.6,20.4,6.6c3.7,0.1,5-1.6,6.7-3.2
					c1.3-1.3,5.7-8.3,5.5-11.5c-0.1-2.4-4.7-10.7-6.2-13.8c-0.8-1.7-2-3-1.2-4.9c2.5-5.4,3.5-4,8.4-2.3c2.6,0.9,7.3,2.3,9.3,3.5
					l0.4,0.3c0.8-1,3.6-5.8,4-6.8c-3.5-1.5-17.6-6.6-20.7-6.1c-4.1,0.6-5.7,3.2-7.4,6c-1.5,2.5-4.1,5.8-2.9,9.6
					c0.7,2.1,5,10.6,6.5,13.5c1.4,2.7,1.2,2.7-0.2,5c-2.7,4.5-2.8,3-8.9,1.1C-528.7,516.4-534.1,514.8-535.7,513.4z"/>
				<path fill="#EDD4BB" d="M-598.3,623.3c0.8-1,5.3-14,6.2-16.4l9-24.9c0.2-1.4-6-23.5-6.6-27c-0.6,1-6.4,43.2-7.3,50.3
					C-597.7,610.3-598.5,618.4-598.3,623.3z"/>
				<path fill="#EDD4BB" d="M-551.5,516.2l7.4,2.5l24.2-40.1c-0.9-0.7-6.4-2.5-7.7-2.6c-4.2,6.6-8,13.3-12,20c-2,3.4-4,6.7-6,10.1
					C-547.2,508.9-550.4,513.5-551.5,516.2z"/>
				<polygon fill="#EDD4BB" points="-511,529.9 -503.5,532.7 -479.2,492.4 -486.8,489.9 				"/>
			</g>
			<g>
				<path fill="#F0C23D" d="M-465.1,698.7c-6.8,12.2-16.5,27.5-24,40l-4.8,8c-0.7,1.5,5.1,16.3,6,18.9c0.2,0.7,0.4,1.7,0.7,2.3
					c0.5,1.2,0.5,0.9,1.9,1.4c8.7,3.1,22.3,9.4,32,13c6.1,2.3,12.2,5,18.2,7.4l18.1,7.7l2.3,0.6l0.1-0.4c-2.4-1-4.8-2.7-7.3-4.1
					c-2.4-1.3-4.6-2.7-7-4l-42.2-24.7c-0.6-8.6-0.9-20.8-1.3-30.1c-0.2-3.7,4.3-10.6,5.9-15.2c0.7-1.9,1.4-6.4,1.8-8.6
					c0.5-2.8,1.2-5.9,1.8-8.6c0.3-1.2,1.9-7.3,1.2-8.3C-463.4,697-464.1,696.3-465.1,698.7z"/>
				<path fill="#F0C23D" d="M-617.3,644.3l-0.5-0.3l-22.3,26.5c-3.5,3.7-2.3,2.3-1.8,7.8c0.4,4.1,1.5,9.5,1.5,13.4
					c0,1.5-11,20.9-13,24.3c-0.7,1.3-2.2,3.6-2.6,4.9c1.6-0.7,13.4-13,15.6-15.2c2.6-2.6,5-5,7.6-7.6c1.5-1.5,3.4-2.9,3.3-4.2
					l-2.7-12.5c-0.7-3.1-0.2-2.9,1-5.5C-627.8,668-620,651.1-617.3,644.3z"/>
				<path fill="#F0C23D" d="M-372.5,494.5l-3.7-5.4c-1.6-1.2-5.3-6.8-8.2-9.2c-1.2-1-1.8-2.1-3.1-2.9c0.3-2.1,4.2-8.7,5.4-10.9
					c-3-3.7-11-6.2-16.9-6.5c1.7,1.2,9.4,4.8,12.1,7.9c-0.4,1-5.4,7.9-6.6,11c0.7,0.7,1.8,1.3,2.6,1.9l3.8,3
					c0.6,0.5,0.6,0.6,1.2,1.1c0.5,0.4,0.9,0.6,1.4,1l5.8,5.8c6.5,7.1,4.3,3.2,4.2,11.9C-373.5,501.6-371.8,496.4-372.5,494.5z"/>
			</g>
			<g>
				<path fill="#CC425A" d="M-408.3,582.3l0.2,11c-1.1,0.8-2.1,1.5-3,2.6l-20.7,17.8l2.3-15c2.5-0.6,11.8-5.5,15.3-7.1
					c0.9-0.4,1.8-0.8,2.6-1.2l2.4-1.2L-408.3,582.3z M-410.7,577.2l-0.6,10.9c-1.2,0.9-16.1,7.3-18.9,8.6c-2.4,1.1-1.9,1.6-2.3,4.5
					l-3,18l9.6-6.6c2.8-1.8,7.1-4.5,10.1-5.8l-16.7,14.7c-2.6,2.5-3.8,6.2-5.1,10.7c-0.9,3.2-3,9.3-3.3,12.4
					c0.7,0.9,1.9,1.9,2.8,2.8c2.2,2,2.1,2.5,5.6,5.8c1.3,1.3,2,1.2,2.3,3.7l0.3,1.4c4.6,0.7,5-0.4,8.7-0.6c0.6-0.8,1.2-0.9,2.3-1.1
					c0.7-0.6,2.6-1.1,3.6-1.7c6.8-4.3-2.2-8.1-2.9-9.3c2.5-0.8,1.8-2.2-0.3-4.6c-0.8-0.9-1.2-1.7-1.9-2.3c-0.6-0.5-0.6-0.4-1.2-0.9
					l-1.1-1.6c3.9,0.5,16.7,0.7,19.1,1.6h3l-1.9-0.4c0.5-0.3,0,0.2,0.6-0.7c1.8-2.9,1.3-2.7,0.3-4.5c-1-1.7-1.8-1.3-4.5-2.7
					c-1.1-0.6-2.2-0.9-3.3-1.5c-1.5-0.8-2.6-0.9-3.2-1.7l-10.8,0.4h-0.4c4.1-9.2,3.3-6.9,12.5-10.1c5.5-1.9,11-4.1,16.1-6.3l0.2,1
					c0-1.5,1.9-9.8,2.5-11.1c-0.5-1.6-1.9-3-2.5-4.5l-2-21.8c-5.1-0.8-6.6-1.6-8.2,0.3l-5.6,5L-410.7,577.2z"/>
				<path fill="#CC425A" d="M-446.2,640.6c0.2-3,7.9-41.8,8.3-42.6l2.9,2.3c-0.2,2.8-1.6,8-2.1,10.9c-1.4,6.9-2.4,14.2-5.2,20.5
					C-443.4,634.3-444.9,638.6-446.2,640.6z M-436.1,595.1c-1.3-2-0.5-2.6-2.6-3.9l-11.5-7.4l3.4-15.7c-1.1-0.5-2.5-2.1-3.6-3
					l-10.6-8.7c-1.7-1.6-2.8-2.2-4.5-4.1l1.2-2.4l23.9,11c7,3.5,5.1,2.4,7.7,0.8l9.4,6.3c11.3,7.8,7.9,3.4,7.1,16.4
					c-1.7,0.6-7.3,4-9.9,5.3l-8.6,4.8C-435.8,595.1-435.2,594.8-436.1,595.1z M-431.3,659.2c0.3-2.2-1-3.2-1.9-4.4
					c-0.8-0.9-0.9-0.8-1.7-1.5c-1.1-1.1-1.4-2.1-2.9-3.3c-2-1.6-0.9-1.7-4.6-4.7c0-2,3-15.7,3.6-19c1.6-8.9,4-19.4,5.5-28
					c0.4-2.6,0.1-2.1,2.4-3.2l11.1-5.3c2.1-1,5.6-2.5,7.4-3.7l0.1-12.5l-4.6-2.9c-1.8-1.5-4-2.9-5.7-4.1l-5.3-4.2
					c-5.8-5.9-3.9-7.5-0.7-12.2l4.8-4.7c1.4-1,1-1.3,1-1.5c0.1-2.2,8.8-4.6,10.3-5c1.1-0.3,2.6-0.8,3.8-1c2.2-0.3,2,0.3,3.1,0.3
					c1.1,0,0.4,0.1,0.9-0.2c-1.2-1.2-7.2-9.8-7.5-10.2c0.6,0.7,1.8,1.6,2.6,2.2c2.3,1.9,1.1,1.7,2.7,2.5c1.1-2.7,3.1-1.8,4.3-4.8
					c0.7-1.7-0.8-5-1.4-6.9c-0.6-2.3-3.4-13.5-4.1-14.4c-1,2.1-2.5,4.3-3.6,6.5c-5.7,10.6-12.6,22-18.5,32.5
					c-1.2,2.1-2.4,4.3-3.7,6.5c-1.1,2.1-2.7,4.5-3.7,6.6l-37.8-14.4l-1.4,3.9l12.5,11.1c0.7,0.7,1.5,1,2.2,1.7c1.2,1.2,0,0.5,2.2,2
					l6.1,5.5c3.9,2.9-0.1,8.2-0.6,15.9l15,10.9c0.3,1.4-7.4,43.9-8.5,48.2c1.3,1.6,2.4,2.6,3.6,4c3.4,3.7,3.7,3.5,7.4,7.6
					c2.7,3,2.6,2.2,2.8,4.9c0.4,0,1.3-0.1,1.6-0.2C-431,659.4-432,659.8-431.3,659.2z"/>
			</g>
			<g>
				<path fill="#9B2B3C" d="M-590.9,514.6c4,0.9,25.5,8.5,27,8.1l8.5-4.9c1.5-0.8,1.2-0.9,1.9-2.6c1.6-4.2,3.8-8.8,5.1-13.1
					c-2.4,2.1-4.7,4-7,6.4c-0.5,0.6-1.2,0.9-1.9,1.4c-1,0.8-0.8,0.9-1.6,1.7c-0.6,0.6-1.2,0.9-1.9,1.4c-0.9,0.8-0.8,1.1-1.7,1.7
					l-13.4-5.1c0.5-2.5,7.8-23.5,9.3-29c3.1-10.7,6.2-18.4,10.8-27.7c1.1-2.2,2-4.3,3.2-6.4s2-4.3,3.4-6.1c1.5-1.8,1.9-2,3.6-3.6
					c2.7-2.7,3.4-3.2,6.7-5.5c3.6-2.5,7.7-4.6,12.3-6.8c3.8-1.8,5.9-2.9,10-4.3l3.7-1.5c-2.8,0.3-5.7,1.5-8.6,2.1
					c-2.8,0.6-5.8,1.5-8.5,2.3c-7.8,2.4-21,7.9-27.5,13.1l-3.2,2.5c-2,2-4.9,4.1-6.9,6.5c-2.3,2.7-4.9,5.2-7.8,8.7
					c-3.8,4.6-9.8,14.6-11.6,20.9C-590.4,485.8-590.4,502.7-590.9,514.6z"/>
				<path fill="#9B2B3C" d="M-567.7,621.9c-0.8,2.2-4,6.2-4.7,8.1l6.2,7.7c0.8,1.1,0.9,1.6,2.7,2.1c4.7,1.5,9.4,3.1,14.1,4.7
					c2.3,0.8,4.6,1.6,6.9,2.3c2.2,0.7,1.6,1,3.6,5.9c1.2,3,4.1,11.4,5.6,13.6l15.2-2.1c1.2-0.6,2-10.2,2-10.2c0-0.3-12-21-13.9-23.6
					c-0.8-1.1-2.8-1.4-4.3-2l-13.8-5c-7-2.5-3.7-1.1-9.7-9.1c-1-1.3-1.6-2.7-2.6-3.7C-561.7,611.7-566.7,621.4-567.7,621.9z"/>
				<path fill="#9B2B3C" d="M-472.6,637.7c1.2,1,4.9,2.9,6.6,3.9c2.2,1.2,4.3,2.5,6.6,3.8c2,1.1,12.3,6.8,13.3,7.7l8.2,4.4
					c-0.6-0.9-10.3-11-11.3-11.6c-1.7-0.9-12.9-13.5-16.3-16.8c-0.7-0.7-1.1-0.7-1.9-1.4c-1.9-1.8-4.2-4.3-5.9-6.2l1-2.3
					c0.9-2.9,3.1-7.1,4.4-10.1l8.8-19.9c1-2.1,4.1-8.4,4.3-10.4c-1.1-0.1-2.1-1.1-3-1.7c-0.5-0.4-0.8-0.7-1.4-1
					c-0.9-0.7-0.1-0.3-1.3-0.8c-1.6,0.4-10.5,7.2-12.4,8.6l-12.4,9.1v28.5c0,4.4-1.1,2.9,5.3,8.8c3.4,3.1,2.5,3,5.4,5.3
					C-473.7,636.1-472.9,637.2-472.6,637.7z"/>
				<path fill="#9B2B3C" d="M-535.5,606.2c1.5,1.2,4.9,2.6,6.8,3.6c4,2.1,2.9,1.6,4.5,5.9c4.1,10.8,8.6,24.6,12.7,34.7
					c1.4,3.5-0.7,7.4-1.2,13.9c1.1,0.4,2.5,0.8,3.7,1.2c1.9,0.6,1.8,0.8,3.4-0.1l19.8-11.6c-0.1-0.1-0.2-0.2-0.2-0.1l-8.9-4
					c-1.8-0.8-8.4-3.1-9-4.4l-12.9-40.3c-2-6.8-4.7-13.7-6.4-20.5c-2,1.1-3.4,3-4.4,4c-0.6,0.6-1.6,1.3-2.3,1.9
					c-1.6,1.3-1.1,1.3-2.2,2.3c-1.5,1.3-3.8,2-3.7,5C-535.8,600.4-535.7,603.5-535.5,606.2z"/>
				<path fill="#9B2B3C" d="M-512.8,736c1.7-0.7,1.6-1.7,3.9-3.7c1.3-1.2,2.5-2.1,3.8-3.3c0.9-0.8,0.9-1.3,1.8-2.1
					c1.4-1.4,4.7-3.9,5.7-5.1c0.4-0.5,0.4-0.7,0.9-1.2l2.9-2.5c0.7-0.6,1.2-1,1.9-1.7c1.4-1.2,0.9-0.9,1.7-1.9
					c1.2-1.4,4.9-4.1,5.8-5.2c3.2-3.9,4-3.4,7.3-7.3l5.8-5.2c0.8-0.8,0.7-1.1,1.6-1.9c1.8-1.7,4.4-3.5,5.7-5.3
					c3.9-5.3,3.9-0.2,5.7-8.9c0.4-2,0.9-4,1.2-5.9c-4.1,2.9,2.5,1.8-10.6,4.1c-4.2,0.7-8.3,1.5-12.4,2.2c-2.1,0.4-4.2,0.7-6.3,1.1
					c-3.3,0.6-3.1-0.1-4.3,2.9c-4.1,10-9.1,20.7-13.2,30.6C-506.6,722.3-510.2,729.2-512.8,736z"/>
				<path fill="#9B2B3C" d="M-382,527c1.5-0.1,1.1,0.4,2.4,2.3c1.3,1.8,4.5,8.3,4.9,10.2l1.5,3.3l0.1-1.6
					c-0.4-11.2-1.3-19.6-2.4-30.3v-3.4c0.3-1.2,0.1-0.4,0.5-0.8c-2.3-7.1-0.3-9.2-1.9-10.5l-3.6-2.6c-3.5-2.5-1.3-0.8-3.3-2.9
					c-1-1-2.5-1.8-3.4-2.9c-0.8-1-0.5-0.8-1.4-1.5l-6.6-5.9c-0.5-0.6-0.2-0.3-0.7-0.8c-0.3-0.3-0.5-0.3-1-0.7
					c0.4-1.1,2.8-4.2,3.7-5.5c1.2-1.8,2.6-3.7,3.6-5.5c-0.6-0.8-3.1-2.2-4-2.7c-2.5-1.5-1.6-1.5-4.8-2c-12-1.8-9.7-0.6-21.5-6
					c-10.3-4.8-5.6-3.2-9.6-2.3c0.1,0.1,0.1,0.1,0.2,0.2c0.1,0.5,3.7,2.3,4.2,2.6c1.5,0.9,2.9,1.8,4.3,2.6c3.9,2.3,9.9,6.5,13.3,9.4
					c2.9,2.4,5.5,5,7.8,8.1c8.3,11.4,9.7,21.7,10.2,35.5c0.2,4.3-0.2,9.5,0.2,13.6c1.8-1,3.7-1.2,6-0.5
					C-382.6,526.4-382.4,526.5-382,527z"/>
				<path fill="#9B2B3C" d="M-586.9,533.7c-1.3-3.3-3.9-7.9-4.6-10.5c-0.5,0.7,0,2.1,0.2,2.8l2.1,8.4c2.5,10.2,5.5,24.2,8.1,33.5
					c3.8,13.4,3.7,11.1-0.1,21.4c-2.1,5.6-35.9,100.4-36.3,102.5c0.4-1.6,3.5-8.1,4.5-10.5c1.5-3.4,2.9-7,4.5-10.5l36-83.7
					c3.2-7.6,3.7-6.4,2.1-10.4c-1.4-3.6-2.8-7.2-4.1-10.8L-586.9,533.7z"/>
				<path fill="#9B2B3C" d="M-494.9,575.2c-0.7,0.7-13.1,6.7-14.6,7.2c3.2,16.2,7.4,32.9,10.5,48.8c0.7,3.4,0.1,3,4.4,5.4
					c2.2,1.3,4.2,2.5,6.3,3.8c4.2,2.6,8.1,4.9,12.2,7.5c9.5,6.1,20.9,12.7,30.7,18.8c2.2,1.4,4.2,2.7,6.4,3.9c-1.4-2-8.4-6-9.4-7.4
					c-1.4-0.6-9.8-7-12.1-8.6l-16.2-11.8c-3.8-3-10.1-7.1-14-10.2c-0.5-0.4-0.8-0.5-1.2-0.9c-1.3-0.9-0.7-0.2-1.5-4.5
					c-0.9-4.5-1.8-8.9-2.7-13.4l-3.7-28.8c2.2-0.4,12.1-5.6,15-6.9l14.8-6.9l-0.6-0.2L-494.9,575.2z"/>
				<path fill="#9B2B3C" d="M-558.9,608.5c0.3,0.4,0.8,0.8,1.2,1.4c0.5,0.6,0.8,0.9,1.2,1.5c0.5,0.6,0.8,0.9,1.2,1.5
					c1.2,1.7,4.5,6.3,6.5,7c5.4,1.9,10.8,3.7,16.2,5.6c5.3,1.9,3.7,0.2,6.1,4.6c1.9,3.5,10.8,20.2,11.8,21.1l-11.7-32.4
					c-1.4-3.8-0.7-3-3.9-5c-2.5-1.6-9-5.3-10.8-6.8l2.3-13.9c-1-0.4-0.9-0.4-1.7-1c-0.6-0.5-0.9-0.6-1.5-1.2l-9.2-7.3
					c0.4,1.8,6.7,8.9,5.9,10.1l-5.5,5.8c-0.4,0.6-0.7,1-1.2,1.5c-0.7,0.8-0.9,0.7-1.6,1.4c-0.9,0.9-1.6,2.2-2.6,3.1
					C-557.1,606.3-558.1,606.7-558.9,608.5z"/>
				<path fill="#9B2B3C" d="M-447.3,660.8l2,1.6c0.8,0.7,1.1,1,1.9,1.7l13.9,11.5c1,0.6,1.4,0.3,2.7-0.1c1.9-0.6,3.8-1.2,5.8-1.7
					c2-0.6,10.8-2.9,11.3-3.5l2-7.8c-0.3-1.2-1,0.3-1.5,0.7c-0.9,0.6-7.5,1.1-8.9,1.3c-4,0.4-8.3,0.7-12.2,1.4
					c0.3-0.9,0.7-1.6,1.1-2.4c0.3-0.5,0.5-0.7,0.8-1.1c0.3-0.5,0.1,0.2,0.3-0.5c0.1-0.3,0-0.4,0-0.5c-1.9,1.1-3.1,2.5-4,3l-6.7-4.1
					c-1.6-1-5.7-3.3-6.7-4.3c-2.8-1.5-5.5-3.4-8.2-5c-2.6-1.5-5.4-3.3-7.8-4.9c-0.7-0.2-0.8,0.1-1.2-0.9l-12.7-7.4
					c2.3,2.2,4.6,3.7,7,5.8l18.7,15.3c0.4,0.4,0.5,0.3,0.9,0.6C-448.1,660.1-448.1,660.3-447.3,660.8z"/>
			</g>
			<g>
				<path fill="#505342" d="M-428.6,495.5c0.9,0,11.2,3.4,12.2,4.1l5.6,1.8c-2-2-12.9-9.5-13.1-10.1l0.2-15.8
					c-3.9-2.6-8.4-5.2-12.6-7.6c-14.1-8-24.7-14-41-19.6c-10.4-3.5-22.9-4.6-33.9-6.4c-4-0.7-2.6-0.6-7.8,1.9
					c-5.8,2.8-15.1,7.6-20.5,9.9l1.9,12c0.4,0.8,14.5,4.3,15.1,4.5c5.5,1.6,17.1,4.8,22.2,6.8c7.8,3,4.8,3.2,14.1-0.8l20.7-8.5
					c1.5-0.2,18.6,5.1,22.7,6.2c4.2,1.1,3.2,1.5,5.1,4.7c1.2,2,2.5,4.2,3.6,6.3c1.1,2.1-0.2,5.7-0.2,8.3
					C-432.6,494-429.9,494.3-428.6,495.5z"/>
				<path fill="#505342" d="M-571.4,523.8l0.5,11.1c2.8,0.9,7.3,0.7,10.1-0.2c4.4-1.4,10.9-8.1,13.6-8.7
					c2.7-0.7,40.5,13.9,41.2,14.4l-0.5,4.4l-40.5-14.7c-4.1,8.2,2,23.3,7.8,30.6c0.4,0.6,0.5,0.7,0.9,1.2l5.6,6
					c0.3,0.3,3.4,2.9,4.3,3.1c-0.8-0.4-9.3-11.9-10.6-13.8c-1.6-2.5-3.7-5.6-2.6-9.2c0.8-2.8,3.5-5.5,6.1-6.4
					c4-1.5,11.1,1.3,14.6,3.3c2.2,1.3,2.2,0.5,4.5-0.3c2.5-0.9,13.6,5.1,18.1,6.1l-1.3-19.9c-0.6,0.7-2.3,4.4-2.5,5.5
					c-5.7-1.7-12.1-4.1-17.7-6.2l-26-9.1c-5.2-1.9-3.9-2.4-8.1,0.2C-567.6,529.2-563.9,523.6-571.4,523.8z"/>
			</g>
			<g>
				<path fill="#1D291A" d="M-517.4,723.4c3.1-10.2,6.4-20.6,9.6-31c0.2-0.8,1.2-3.4,1-4l-12.1-15.6c-1.8-2.4-1.3-2.1-5.1-2.4
					c-3.2-0.2-6.4-0.6-9.6-0.9c-1.8-0.2-3,0.2-3.9-1.1c-1.9-2.6-8.8-13.7-10.5-14.9l-26.6-14.1c-1.5,1.9-3.2,3.5-5,5.1l-4.9,4.9
					c-2.3,2-4.7,3.9-6.6,6.3l-6.4,5.8c-1.1,1-1,1.6-1.6,3.4l-9.2,30.4c-0.4,0.7-23.1,15.4-27,17.8c-1,0.6-1.9,1.2-2.9,1.8
					c-2.1,1.4-10.4,7-12.1,7.7l2.5-0.1c0.8-0.1,1.5-0.2,2.3-0.3l14.6-2.1c4.3-0.6,56.2-19.9,58.2-19.6l13.3,8.8
					c2.2,1.5,4.4,3,6.6,4.5c3.6,2.5,2.5,2.8,7.2,1.3l25.3-7.9L-517.4,723.4z"/>
				<path fill="#1D291A" d="M-535.5,606.2c-0.2-2.7-0.2-5.8-0.3-8.5c-0.1-3,2.2-3.8,3.7-5c1.1-0.9,0.6-1,2.2-2.3
					c0.8-0.6,1.7-1.2,2.3-1.9c1-1,2.4-2.9,4.4-4c1.7,6.8,4.5,13.7,6.4,20.5l12.9,40.3c0.7,1.2,7.2,3.6,9,4.4l8.9,4
					c0-0.1,0.1,0.1,0.2,0.1l-19.8,11.7c-1.6,0.9-1.6,0.6-3.4,0.1c-1.2-0.4-2.6-0.8-3.7-1.2c0.5-6.5,2.7-10.4,1.2-13.9
					c-4.1-10.2-8.6-24-12.7-34.7c-1.6-4.3-0.5-3.8-4.5-5.9C-530.6,608.8-534.1,607.4-535.5,606.2z M-558.9,608.5
					c0.8-1.8,1.9-2.2,2.7-3c0.9-0.9,1.6-2.2,2.6-3.1c0.7-0.7,0.9-0.6,1.6-1.4c0.5-0.5,0.8-1,1.2-1.5l5.5-5.8
					c0.9-1.2-5.5-8.3-5.9-10.1l9.2,7.3c0.6,0.5,0.9,0.6,1.5,1.2c0.8,0.6,0.7,0.6,1.7,1l-2.3,13.9c1.8,1.6,8.3,5.2,10.8,6.8
					c3.2,2,2.5,1.2,3.9,5l11.6,32.3c-1-0.9-9.9-17.7-11.8-21.1c-2.4-4.4-0.8-2.7-6.1-4.6c-5.4-1.9-10.8-3.7-16.2-5.6
					c-1.9-0.7-5.3-5.3-6.5-7c-0.4-0.6-0.7-0.9-1.2-1.5c-0.4-0.5-0.8-0.9-1.2-1.5C-558.2,609.3-558.6,608.9-558.9,608.5z
					 M-558.5,578.4c1.2,2,6.9,12.6,7.2,14l-4.9,6.9c-0.8,1.1-1.6,2.4-2.4,3.6l-10.7,15.5c0,0.1-0.5,0.9-0.6,0.9
					c-0.3,0.6-0.2,0.1-0.3,0.9c0.6,0.8,0.2,0.2,1.2,0.8c0.5,0.3,0.9,0.6,1.2,0.8c1-0.5,6-10.1,7.2-11.1c1,1,1.7,2.4,2.6,3.7
					c6,8,2.7,6.6,9.7,9.1l13.8,5c1.5,0.6,3.5,0.9,4.3,2c1.9,2.6,13.9,23.3,13.9,23.6c0,0-0.8,9.6-2,10.2c-0.1,0.7-0.2,0.2,0.5,0.8
					c0.1,0.1,0.8,0.6,1,0.8c0.9,0.6,1.5,0.9,2,1.8l17.4,6.6c1.5-0.2,2-2.5,3.1-3.2c0.7-0.5,18.8-1.8,21.3-2
					c7.6-0.8,14.7-0.4,22.4-0.5c0.3-0.4,0.7-1,0.9-1.5c-0.4-0.5-11.6-5.7-13.2-6.5c-2.6-1.2-4.3-2.3-6.7-3.5l-19.2-10.2
					c-4.1-2.3-8.7-4.4-12.9-6.8c-1.3-0.7-1.2-1.9-1.7-3.4l-13.2-41.4c-1.5-4.6-3.6-10.5-4.7-15.1c3.4-1.5,20.9-3.4,26.3-4.9
					l24.3-4.1l1.1-0.8c-2.3-2.1-15.3-9.3-16-10.5l-0.6,0.8c-3.9-1.4-8.4-2.5-12.5-3.8l-24.5-7.4c-3.6-1.2-10-1.8-13.9-1.8
					c0,0.7,10.1,19.2,11.8,22.4c0.7,1.3,1.7,2.5,1.1,3.8c-0.5,1.1-1.4,2.9-2.5,3.6c-1.3-2-2.5-2.8-4.3-4.3c-1-0.8-1.1-1.4-2-2.2
					c-3-2.7-1.6-0.9-4.3-4c-1.2-1.3-3.2-2.4-4.4-4l-6.6-6.2c-1.3-1.3-4.4-15.1-5.9-19.2l-13.2,3.4c1.4,4.7,8.1,21.2,10.5,28.6
					c0.6,1.8,1.7,3.3,1,5C-556.5,575.8-557.1,577.8-558.5,578.4z"/>
				<path fill="#1D291A" d="M-553.1,464.8l-3.8-0.1c9.6,3.3,19.8,6.3,29.6,9.4c10,3.1,19.8,6.3,29.7,9.4c11,3.3,33.8,10.2,44.2,14.2
					c4.5,1.8,9.8,4,14.3,5.4c1-1.8,1.9-1.5,1.5-3c-0.2-0.8-1.1-2.7-1.4-3.6c-1.8-4.6-2-2.8-0.5-7.4c0.4-1.4-3.9-7-5.3-9.1
					c-1-1.6-0.7-1.7-2.9-2.1c-5.4-1.1-11-2.7-16.3-4c-2.6-0.6-4.9,1.1-7.2,2c-2.5,1-4.9,2.1-7.4,3.1c-10.4,4.1-8.1,4.9-15,2.8
					c-4.8-1.4-47.3-13-47.9-13.6c-0.8-1.7-0.9-9.1-1.1-11.5c-0.1-1.3,0.7-6.5,1.3-7.8c0.4-0.8-0.2-0.3,1.9-1.4l20.7-10.7
					c1.4-0.7,2.7-1.9,4.4-1.7c3.3,0.2,7.6,1.1,11,1.6c7.3,1.1,14.7,2.2,22,3.1c0.4-0.9,0.7-1,1.1-1.8l34.1,4.6
					c-2.1-1.2-5.1-1.8-7.6-2.7c-2.6-0.9-5.2-1.8-7.8-2.7l-31.3-10.7c-3.8-1.3-4-1.8-8.1-1.2c-3,0.5-6,0.9-9,1.4
					c-4,0.6-14.6,1.7-17.2,3.4c-4.3,2.8-8.4,5.6-12.6,8.3c-6,3.8-4,2.6-9,11.9c-1.2,2.3-2.2,4.5-3.5,6.9
					C-554.5,461.6-554.1,459.7-553.1,464.8z"/>
				<path fill="#1D291A" d="M-472.3,619.2l-1,2.3c1.8,1.9,4,4.5,5.9,6.2c0.7,0.7,1.1,0.7,1.9,1.4c3.4,3.3,14.5,15.9,16.3,16.8
					c0.7-0.3,0.8,0.6-0.3-2.4l-2.6-7.8c-0.9-2.4-0.3-3.2,0.3-5.7c1-4.7,6.4-27.7,6.3-28.5c-0.1-0.6-3.9-3.5-4.7-4.1l-4.8-4.1
					l-12.4,25.8C-469,619.4-470.7,619.5-472.3,619.2z"/>
				<path fill="#1D291A" d="M-448.4,663.3l1.2-2.4c-0.8-0.6-0.9-0.8-1.6-1.4c-0.4-0.3-0.5-0.3-0.9-0.6l-18.7-15.3
					c-2.4-2.1-4.7-3.7-7-5.8l12.7,7.4c1,0.5,0.7,0.2,1.2,0.9c2.3,1.6,5.1,3.4,7.8,4.9c2.7,1.6,5.4,3.4,8.2,5
					c0.3-0.8,0.2-0.1-0.2-1.3c-0.3-0.8-0.3-0.5-0.3-1.4c-0.9-1-11.3-6.6-13.3-7.7c-2.3-1.3-4.4-2.6-6.6-3.8c-1.7-1-5.4-2.9-6.6-3.9
					c-1.9-0.9-4.1-2.2-5.9-3.3l-11.8-6.7c-1.1-1-1.5-5.7-1.8-7.5c-0.9-5.3-1.8-10.5-2.7-15.8c-0.9-4.9-2.2-10.8-2.7-15.7
					c0.8-1,24.9-12.3,28.1-13.6l-0.4-0.4c0,0-0.3-0.2-0.4-0.3v-3.1l-14.8,6.9c-2.9,1.3-12.8,6.5-15,6.9l3.7,28.8
					c0.8,4.5,1.8,8.9,2.7,13.4c0.8,4.3,0.2,3.6,1.5,4.5c0.4,0.3,0.7,0.5,1.2,0.9c3.9,3.1,10.2,7.2,14,10.2l16.2,11.8
					C-458.2,656.3-449.9,662.7-448.4,663.3z"/>
			</g>
			<path fill="#2E392D" d="M-469.8,503.9c-2.3,1.7-9.2,14.1-11.1,17.3c-5.8,9.7-6.2,9.3-2.6,10.5c9,3,7.8,3.9,11.1-1.7
				c0.9-1.6,1.8-2.9,2.7-4.5c1.2-2.1,10.5-16.7,10.2-17.9c-0.3-1.2-3.6-1.9-4.8-2.3C-466,504.8-468,503.8-469.8,503.9z"/>
			<path fill="#2E392D" d="M-470.7,571.1l0.6,0.2v3.1c0.1,0,0.3,0.2,0.4,0.3l0.4,0.4l1.5-0.9l0.5-2.9l-2.2-1.1L-470.7,571.1z"/>
			<path fill="#B98C2A" d="M-416.9,797.3l-18.1-7.6c-6.1-2.4-12.1-5.1-18.2-7.4c-9.7-3.7-23.3-9.9-32-13c-1.4-0.5-1.4-0.2-1.9-1.4
				c-0.3-0.6-0.5-1.6-0.7-2.3c-0.8-2.6-6.6-17.5-6-18.9l4.8-8c7.5-12.5,17.1-27.8,24-40c-1.6,0.9-1.2,0.7-2.2,2.1
				c-0.8,1.1-1.1,1-1.9,2c-1.5,2-1.2,1.2-2,2.2c-0.9,1.1-0.6,1-1.8,2.1l-4.8,5.4c-1.7,1.8-4.3,5.2-6.4,7.3c-0.8,0.7-0.9,1.4-1.7,2.2
				c-0.7,0.7-0.4,0.2-1.1,1l-1.8,2c-0.4,0.4-0.5,0.7-0.9,1.2l-14,15.8c-1.7,1.6-0.7,1.1-2.8,3.1l-5.5,6.4c-2.9,3.7-3.3,1.3-2.8,8.2
				c1.3,17.5-1.1,14.4,7.3,16.3C-477.4,782.9-446.9,790.8-416.9,797.3z"/>
			<path fill="#892B39" d="M-416.8,570.7c0.6-0.5-0.4-0.1,1-0.5c0.2,0,1-0.1,1.2-0.1c-0.5-0.7-0.2-0.3-0.9-0.8
				c-0.3-0.2-0.5-0.2-0.8-0.3c1.2-2.3,6.8-1.6,8-4.3c-0.4-1.2-0.4-2.6-1.1-3.3c-2.2-2.2-4.9-1.5-4.5-4.6c0.2-1.6,0.4-3,0.6-4.6
				c-0.2,0-9.5-2.6-9.4-4.3c0-0.8,1.8-1.5,3.4-2.6c2-1.4,1.7-1.5,4.7-1.6c2.9-0.1,9.6-0.6,12.2-0.2c0.3,1,1,4.2,0.4,5.1l0.2,1.1
				c1,0.9,0.7,2.1,1.1,3.5c0.3,1.3,0.7,2.5,1,3.8c0.9-0.2,0.5,0.1,0.9-0.4c-0.3-3.1-1.3-7.1-1.9-10.2c-0.3-1.4-0.5-3.5-1.2-4.8
				c-0.7-1.3-1.8-2.4-2.5-3.7c-0.5,0.3,0.2,0.3-0.9,0.2c-1.1,0-0.9-0.7-3.1-0.3c-1.2,0.2-2.6,0.7-3.8,1c-1.6,0.5-10.2,2.8-10.3,5
				c0,0.2,0.3,0.4-1,1.5l-4.8,4.7c-3.1,4.7-5.1,6.3,0.7,12.2l5.3,4.2C-420.8,567.8-418.6,569.2-416.8,570.7z"/>
			<path fill="#CC435A" d="M-381.2,539.9c1.1,0.7,1.4,1.3,2.1,2.3l0.7,0.9l-10.6,6.5c-2-2-2.5-1.9-3.1-3.2L-381.2,539.9z
				 M-406.3,533c0.7,0.8,1.4,1.1,2.2,2c0.6,0.7,0.2,0.5,0.9,1.1c3.5,3.4,2.9,0.7,4,6.4c0.7,3.9,1.5,10.5,2.6,14.1l3.5,0.1
				c-0.7,0.9-0.9,0.9-1.9,1.4c-0.5,1-0.5,1.9-0.7,3l0.4-0.3c0,0,0.3-0.2,0.3-0.3c1.6-1.4,2.9-4,3.6-5.9c1-2.8,0.2-1.8,5.7-5
				c2.3-1.4,4.4-2.6,6.7-4c2.8-1.7,2.1-0.8,2.8-2.6c0.3-0.9,1-3.1,1.5-3.6c-0.4-1.9-3.6-8.4-4.9-10.2s-1-2.3-2.4-2.3
				c-1.2,9.7-1.4,12.9-10.2,16l-0.4-3.2c5.6-1.5,7.6-5.3,6.2-10.7c-1,0-2.6,1.3-3.8,1.8C-395.1,533-401.3,533.1-406.3,533z"/>
			<path fill="#EFD5BC" d="M-490.6,420.7l-0.1,0.3c4.2,0.7,18.8,5.6,23.8,7.2c7.7,2.5,15.1,5.6,22.2,8.8c5,2.2,10.5,5.3,14.6,8.6
				c6.6,5.3,16.5,12.2,25,13.9c-0.6-1.3-2.1-2.2-3.8-4c-0.9-1-0.6-1.1-1.9-2l-6.5-5.1c-1.7-1.2-2.8-2-4.6-3.2
				c-5.8-3.9-13.1-7.7-20.3-10.7C-453.9,429.7-478.1,421.3-490.6,420.7z"/>
			<path fill="#67202B" d="M-403.9,552.7c-4.6,7.7-7.5,4.9-7.5,0.6c0-1.4,0.4-2.2,1.2-2.8C-405.1,546.8-402.6,550.6-403.9,552.7z
				 M-408.2,564.7c1.5,0.2,4.3-2.1,5.2-2.8c0.8-0.7,3-3.2,3.1-4.9c-0.2-1.3-0.7-2.5-1-3.8c-0.3-1.4-0.1-2.6-1.1-3.5
				c-3.6-4.7-10.9-1.8-16.5-1.9c-0.9,0.5-0.9,0.4-2,0.5c0.2-0.2,0.2-0.3,0.6-0.5c0.5-0.2,0.3-0.1,1-0.2c5.4-0.7,13.7-3.9,16.7,1
				c0.7-0.9-0.1-4.1-0.4-5.1c-2.5-0.4-9.3,0-12.2,0.2c-3,0.1-2.7,0.2-4.7,1.6c-1.6,1.1-3.3,1.8-3.4,2.6c-0.1,1.7,9.2,4.3,9.4,4.3
				c-0.2,1.6-0.4,3-0.6,4.6c-0.3,3.1,2.3,2.4,4.5,4.6C-408.6,562.1-408.6,563.5-408.2,564.7z"/>
			<path fill="#742430" d="M-419.1,656.5c-1,0.2-1.6,0.3-2.3,1.1l1-0.1c-1.3,0.7-2.5,1.3-3.9,2c-1.2,0.5-3.4,1-4,1.9
				c0,0.1,0.1,0.2,0,0.5c-0.2,0.7,0.1,0-0.3,0.5c-0.2,0.4-0.5,0.6-0.8,1.1c-0.4,0.8-0.8,1.5-1.1,2.4c3.9-0.6,8.2-0.9,12.2-1.4
				c1.4-0.2,8.1-0.7,8.9-1.3c0.6-0.4,1.2-1.8,1.5-0.7c0.2-0.5,0.2-0.7,0.5-1.2c0.6-0.9,0.2,0,0.9-1.2l-1-9.8
				c-0.6,0.5-0.7,0.6-0.7,2.4c0,0.7,0,1.4,0,2.1c-1.1,0-4.5,0.7-5.7,0.9c-0.9,0.2-2.2,0.3-3,0.5
				C-419.5,656.8-419.1,657.8-419.1,656.5z"/>
			<path fill="#FFD325" d="M-375.5,488.8c0.8,0.6,2.9,4,3.2,5c0.7-0.6,0.1,0.3,0.4-0.6c0.1-0.4,0.2-0.6,0.2-1
				c0.1-0.6,0.1-1.6,0.1-2.3c-0.7-1.2-1.3-7.6-1.6-9.4c-0.5-3.5-1.4-2.5-6.1-5.3c-0.2-0.9,0-2.3,0.1-3.2c0.1-1.1,0.2-2.7,0.5-3.3
				l-1.6-1.6c-1,1.9-3.9,8.4-4,10.3c1.7,1.5,3.2,3.4,4.6,5.3C-378.5,484.4-376.2,487.2-375.5,488.8z"/>
			<path fill="#26050A" d="M-404.6,537.9c0.7,1.4,1.9,2.4,2.5,3.7c0.7,1.3,0.9,3.4,1.2,4.8c0.6,3.1,1.6,7.1,1.9,10.2l0.6,2.5
				l3.3-0.9c1-0.5,1.2-0.5,1.9-1.4l-3.5-0.1c-1.1-3.5-1.9-10.1-2.6-14.1c-1.1-5.8-0.5-3.1-4-6.4c-0.7-0.7-0.3-0.4-0.9-1.1
				c-0.7-0.9-1.5-1.1-2.2-2c-1.3-0.4-0.5-0.1-0.6-0.6c-1.6-0.8-0.3-0.6-2.7-2.5c-0.8-0.6-1.9-1.6-2.6-2.2
				C-411.8,528.1-405.8,536.7-404.6,537.9z"/>
			<path fill="#FFDA26" d="M-373,541.1c0,0.3,0,0.6,0,0.8c0.6,2-0.7-1.6,0.2,0.5l0.3,0.5c0.7-4.2,1-4.3,0.8-8.8
				c-0.2-3.1-0.5-6.4-0.7-9.5c-0.6-6.3-1.5-11.8-2.4-18c-0.4,0.4-0.1-0.3-0.5,0.8v3.4C-374.4,521.5-373.4,529.9-373,541.1z"/>
			<path fill="#FFEA9B" d="M-371.6,490c0.1-4.2-0.4-8.4-1.7-12.3c-0.5-1.6-1.3-3.4-2.2-4.7c-0.5-0.9-0.8-1.3-1.4-2.1
				c-0.3-0.4-0.4-0.7-0.7-1c-0.3-0.4-0.6-0.6-1-0.9c-0.3,0.6-0.4,2.2-0.5,3.3c-0.1,0.9-0.3,2.2-0.1,3.2c4.7,2.7,5.6,1.7,6.1,5.3
				C-372.9,482.4-372.3,488.8-371.6,490z"/>
			<path fill="#822735" d="M-460.4,575.4c1.2,0.5,0.4,0.1,1.3,0.8c0.5,0.4,0.9,0.7,1.4,1c0.8,0.6,1.8,1.6,3,1.7
				c-1-2.7-1.2-8.2-2.6-10.3L-460.4,575.4z"/>
			<path fill="#1B2C2D" d="M-376.3,489.1l3.7,5.4l0.5-0.1c-0.9,0.2-0.1,0.1-0.3-0.6c-0.3-1-2.4-4.4-3.2-5l-0.6,0.2
				C-376.1,489-376.2,489.1-376.3,489.1C-376.2,489.1-376.2,489.1-376.3,489.1z"/>
			<path fill="#697388" d="M-418.4,547.8l-0.4-0.2c-0.7,0.1-0.5,0-1,0.2s-0.4,0.3-0.6,0.5C-419.3,548.2-419.3,548.3-418.4,547.8z"/>
			<path fill="#716D5A" d="M-583.4,530.7h0.2c-0.3-1.1,0-0.7-0.7-1.2c0,0.3,0,0.3,0.1,0.6C-583.6,530.5-583.5,530.5-583.4,530.7z"/>
			<path fill="#9B8535" d="M-617.9,644l0.5,0.3c0.1-0.1,0.3-0.4,0.4-0.9C-617.9,643.7-617.2,643.3-617.9,644z"/>
			<path fill="#68252D" d="M-461.5,646c-0.4-0.7-0.2-0.4-1.2-0.9C-462.3,646-462.3,645.8-461.5,646z"/>
			<polygon fill="#7A7564" points="-443.2,521.7 -442.8,522.1 -442.7,521.1 			"/>
			<path fill="#A79A85" d="M-490.7,421.1l0.1-0.3L-490.7,421.1z"/>
			<path fill="#8D7630" d="M-414.5,797.6l-0.1,0.4L-414.5,797.6z"/>
		</g>
		<g>
			<path fill="#2E392D" d="M-509.8,748.9l3.3-3.9c2.1-2.1,1.1-1.5,2.8-3.1l14-15.8c0.4-0.5,0.5-0.8,0.9-1.2l1.8-2
				c0.6-0.8,0.4-0.4,1.1-1c0.8-0.8,0.9-1.4,1.7-2.2c2.2-2.1,4.7-5.5,6.4-7.3l4.8-5.4c1.2-1.1,0.9-1,1.8-2.1c0.8-1,0.5-0.2,2-2.2
				c0.8-1,1.1-0.9,1.9-2c1-1.4,0.6-1.2,2.2-2.1c0.5-1.1,0.9-1.5,1.4-2l2.8-10.1c-0.7,0.3-1.6,0.9-3,2.8c-1.3,1.8-3.9,3.7-5.7,5.3
				c-0.9,0.8-0.9,1.2-1.6,1.9l-5.8,5.2c-3.3,3.9-4.1,3.4-7.3,7.3c-0.9,1.1-4.6,3.8-5.8,5.2c-0.8,1-0.2,0.7-1.7,1.9
				c-0.7,0.6-1.2,1-1.9,1.7l-2.9,2.5c-0.5,0.5-0.5,0.7-0.9,1.2c-1,1.2-4.3,3.7-5.7,5.1c-0.8,0.8-0.9,1.3-1.8,2.1
				c-1.3,1.2-2.5,2.2-3.8,3.3c-2.2,1.9-2.2,2.9-3.6,3.6L-509.8,748.9z M-512.6,735.5c2.5-6.6,6.1-13.3,8.8-19.9
				c4.1-10,9.2-20.6,13.2-30.6c1.2-3,1-2.3,4.3-2.9c2.1-0.4,4.2-0.7,6.3-1.1c4.1-0.7,8.3-1.5,12.4-2.2c11.9-2.1,7.5-1.4,9.7-3.4
				l1.6-5.7c0.1-0.3,0.2-0.6,0.3-0.9c-5.6,0-11.1-0.1-16.8,0.5c-2.6,0.3-20.6,1.5-21.3,2c-1,0.6-1.6,3-3.1,3.2
				c0.4,0.3,3.3,1.5,4,1.6c1.9,0.5,32.2-4.3,34.9-4.7l-3.5,2.3c-3.7,2.2-8.6,2.3-14.1,3.2c-3.2,0.5-6.5,1-9.8,1.5
				c-5.8,0.9-4.9-0.4-7.2,4.5c-1.9,4.1-13.3,30.8-14.2,31.8l7.7-33l-12.5-11c-1.8-1.8-2.4-1.7-2.8-2.8l0.1-0.2
				c-0.6-0.9-1.2-1.2-2-1.8c-0.3-0.2-0.9-0.7-1-0.8c-0.7-0.6-0.6-0.1-0.5-0.8l-15.2,2.1c-1.5-2.2-4.4-10.6-5.6-13.6
				c-2-5-1.4-5.2-3.6-5.9c-2.3-0.7-4.6-1.6-6.9-2.3c-4.7-1.6-9.4-3.2-14.1-4.7c-1.8-0.6-1.8-1-2.7-2.1l-6.2-7.7
				c0.6-1.9,3.9-5.9,4.7-8.1c-0.3-0.2-0.7-0.5-1.2-0.8c-1-0.6-0.7-0.1-1.2-0.8c-0.9,0.5-5.5,7.4-6.3,8.7l-9.1,13.3
				c-1,1.6-2.1,2.8-3.1,4.4l-6.1,8.7c0.7-2.4,2.1-5.4,3.1-7.8l24.9-61.9c2.2-5.4,2.3-4.3,1.1-7.7l-11.8-31.7
				c-1.9-4.9-4.5-10.6-5.9-15.4c-0.1-0.2-0.2-0.2-0.4-0.6c-0.2-0.3-0.1-0.3-0.1-0.6c0.7,0.5,0.5,0.1,0.7,1.2l24.7,47.8
				c1.4-0.6,1.9-2.6,2.5-4c0.7-1.7-0.3-3.2-1-5c-2.5-7.4-9.2-23.9-10.5-28.6l13.2-3.4c1.5,4.1,4.5,17.9,5.9,19.2l6.6,6.2
				c1.2,1.6,3.2,2.6,4.4,4c2.8,3.1,1.3,1.3,4.3,4c0.9,0.8,1,1.3,2,2.2c1.8,1.5,3,2.3,4.3,4.3c1.2-0.7,2.1-2.5,2.5-3.6
				c0.5-1.2-0.5-2.5-1.1-3.8c-1.6-3.2-11.8-21.8-11.8-22.4c3.8,0.1,10.3,0.7,13.9,1.8l24.5,7.4c4,1.3,8.5,2.3,12.5,3.8l0.6-0.8
				c-1.5-0.6-2.7-1.6-4.1-2.4c-1.2-0.7-2.9-1.7-3.9-2.5l0.1-17.4l15.9,6.2l-0.7,6.4l9.4,7.9c0.7,0.6,0.7,0.6,1.3,1.1l8.1,6.8
				c0.7,0.7,2.2,1.2,2.2,2.5c1.4,2.1,1.6,7.6,2.6,10.3c-0.3,1.9-3.3,8.2-4.3,10.4l-8.8,19.9c-1.3,3-3.5,7.1-4.4,10.1
				c1.6,0.3,3.3,0.1,4.8-0.1l12.4-25.9l4.8,4.1c0.8,0.6,4.6,3.6,4.7,4.1c0.1,0.8-5.2,23.8-6.3,28.5c-0.6,2.5-1.1,3.3-0.3,5.7
				l2.6,7.8c1.1,3,0.9,2.1,0.3,2.4c1,0.6,10.7,10.7,11.3,11.6l-8.2-4.4c0,0.8,0,0.5,0.3,1.4c0.4,1.3,0.5,0.5,0.2,1.3
				c0.7,0.7,3.1,2.2,5,3.3c3.5,0.5,6.6,2.1,8.9,4.8c0.8-0.7,1.9-1.8,3.5-2.6c0.6-0.9,2.8-1.3,4-1.9c0.9-0.4,1.7-0.8,2.5-1.3
				c-0.1-0.2-0.2-0.4-0.2-0.6c-3.2,0.2-3.8,1.2-8.2,0.5l-0.3-1.4c-0.3,1-1.2,1.4-0.9,2.4c-0.8,0.6,0.3,0.2-1.2,0.5
				c-0.4,0.1-1.2,0.1-1.6,0.2c-0.2-2.7,0-1.9-2.8-4.9c-3.6-4-4-3.8-7.4-7.6c-1.3-1.4-2.3-2.4-3.6-4c1.1-4.3,8.7-46.8,8.5-48.2
				l-15-10.9c0.4-7.7,4.5-13,0.6-15.9l-6.1-5.5c-2.1-1.6-1-0.8-2.2-2c-0.7-0.7-1.5-1-2.2-1.7l-12.5-11.1l1.4-3.9l37.8,14.4
				c1.1-2.1,2.6-4.5,3.7-6.6c1.2-2.2,2.5-4.4,3.7-6.5c5.9-10.5,12.8-21.9,18.5-32.5c1.2-2.1,2.6-4.4,3.6-6.5
				c0.8,0.9,3.5,12.1,4.1,14.4c0.5,1.9,2.1,5.2,1.4,6.9c-1.3,3-3.2,2.1-4.3,4.8c0.1,0.4-0.7,0.1,0.6,0.6c5,0,11.1,0,16-2
				c1.2-0.5,2.8-1.8,3.8-1.8c1.4,5.4-0.6,9.2-6.2,10.7l0.4,3.2c8.8-3.1,9-6.3,10.2-16c-0.3-0.5-0.5-0.7-1.5-0.9
				c-2.3-0.6-4.2-0.5-6,0.5c-0.4-4.2,0-9.4-0.2-13.6c-0.6-13.7-2-24.1-10.2-35.5c-2.2-3.1-4.9-5.6-7.8-8.1
				c-3.4-2.9-9.4-7.1-13.3-9.4c-1.4-0.8-2.8-1.7-4.3-2.6c-0.5-0.3-4-2.1-4.2-2.6c0-0.1-0.1-0.1-0.2-0.2c4.1-0.9-0.7-2.5,9.6,2.3
				c11.8,5.4,9.5,4.2,21.5,6c3.3,0.5,2.4,0.5,4.8,2c0.9,0.6,3.4,2,4,2.7c-1,1.8-2.4,3.7-3.6,5.5c-0.9,1.3-3.3,4.5-3.7,5.5
				c0.5,0.4,0.7,0.4,1,0.7c0.5,0.5,0.2,0.2,0.7,0.8l6.6,5.9c0.9,0.8,0.6,0.6,1.4,1.5c0.9,1.1,2.4,1.8,3.4,2.9c2,2.1-0.2,0.4,3.3,2.9
				l3.6,2.6c1.5,1.3-0.4,3.3,1.7,10c0.1-0.7,0.2-1.5,0.4-2.2c0-0.5,0.1-1.1,0.2-1.6v-0.2c0.2-7.1,1.9-3.9-4.3-10.7l-5.8-5.8
				c-0.5-0.5-0.9-0.6-1.4-1c-0.7-0.5-0.6-0.6-1.2-1.1l-3.8-3c-0.8-0.6-1.9-1.2-2.6-1.9c1.2-3.1,6.2-10,6.6-11
				c-2.4-2.7-8.7-5.9-11.3-7.4l-5.8-1.1c-0.5-0.1-1-0.2-1.5-0.4c0.3,0.3,0.5,0.6,0.7,1c-8.5-1.8-18.3-8.7-25-13.9
				c-4.2-3.3-9.6-6.4-14.6-8.6c-7.1-3.2-14.5-6.3-22.2-8.8c-4-1.3-13.7-4.6-19.8-6.3l-26.5-3.1c-0.1,0-0.2,0-0.3,0l-3.2,1.3
				c-4.1,1.4-6.1,2.5-10,4.3c-4.6,2.2-8.7,4.3-12.3,6.8c-3.3,2.3-4,2.8-6.7,5.5c-1.7,1.7-2.1,1.8-3.6,3.6c-1.4,1.8-2.3,4-3.4,6.1
				c-1.2,2.1-2.1,4.2-3.2,6.4c-4.6,9.4-7.6,17.1-10.8,27.7c-1.6,5.5-8.9,26.5-9.3,29l13.4,5.1c0.9-0.6,0.8-1,1.7-1.7
				c0.6-0.5,1.3-0.9,1.9-1.4c0.8-0.8,0.6-0.9,1.6-1.7c0.7-0.5,1.3-0.9,1.9-1.4c2.3-2.4,4.6-4.2,7-6.4c-1.3,4.2-3.5,8.9-5.1,13.1
				c-0.7,1.7-0.4,1.8-1.9,2.6l-8.5,4.9c-1.4,0.4-20.5-6.3-26.1-7.8l-0.2,11.6c1.1,2.4,2.5,5.1,3.4,7.3l12.4,32.3
				c1.3,3.6,2.7,7.2,4.1,10.8c1.6,4,1.2,2.8-2.1,10.4l-36,83.7c-1.5,3.5-2.9,7-4.5,10.5c-1.1,2.4-4.1,8.9-4.5,10.5
				c0.4-2.1,34.2-96.9,36.3-102.5c3.8-10.2,3.9-7.9,0.1-21.4c-2.6-9.3-5.7-23.3-8.1-33.5l-1.2-4.7v1.2c0,0.5,0,1-0.1,1.5
				c0.7,1.8,1,3.9,0.8,5.9l-2.5,31.6c1.2-8.2,2.2-14.6,2.4-15c0.7,3.5,6.9,25.6,6.6,27l-9,24.9c-0.6,1.6-2.7,7.7-4.3,12
				c-0.1,0.4-0.3,0.7-0.4,1c-0.7,1.8-1.2,3.1-1.5,3.4c0-0.2,0-0.5,0-0.7c-0.2,0.3-0.4,0.5-0.6,0.8c-0.5,1.2-1.1,2.3-1.9,3.3
				l-19.7,25.3c-3.4,7.9-8.2,18.2-10.7,23.9c-1.2,2.7-1.7,2.5-1,5.5l2.7,12.5c0.1,1.3-1.8,2.6-3.3,4.2c-2.6,2.6-5,5-7.6,7.6
				c-1.1,1.1-4.6,4.7-8,8.2l1.7,6.8c3.1-1.9,7.1-4.7,8.5-5.6c1-0.7,1.9-1.2,2.9-1.8c3.9-2.4,26.6-17.1,27-17.8l9.2-30.4
				c0.6-1.9,0.6-2.5,1.6-3.4l6.4-5.8c1.9-2.4,4.3-4.2,6.6-6.3l4.9-4.9c1.8-1.6,3.5-3.2,5-5.1l26.6,14.1c1.7,1.1,8.5,12.2,10.5,14.9
				c1,1.3,2.1,1,3.9,1.1c3.2,0.3,6.4,0.6,9.6,0.9c3.8,0.3,3.4,0,5.1,2.4l12.2,15.7c0.1,0.5-0.8,3.2-1,4c-2.7,8.8-5.6,17.8-8.2,26.6
				L-512.6,735.5z M-649.6,709.3l0.6-1c-0.3,0.1-0.5,0.2-0.8,0.3L-649.6,709.3z M-646,723.7c0.4-0.3,0.8-0.5,1.3-0.8
				c0.5-0.4,0.9-0.7,1.4-1c-1,0.1-2,0.3-3,0.4L-646,723.7z M-657.9,668.9L-657.9,668.9L-657.9,668.9L-657.9,668.9z M-513.9,418.8
				h-0.1H-513.9L-513.9,418.8z M-390.2,461.4c0.2,0.1,0.3,0.1,0.5,0.2l-0.1-0.2C-389.9,461.4-390,461.4-390.2,461.4z M-382.8,467.2
				c-1.6,2.8-4.5,8-4.8,9.8c1.3,0.8,1.9,1.9,3.1,2.9c2.9,2.4,6.6,7.9,8.2,9.2c0,0,0.1,0,0.2-0.1l0.6-0.2c-0.7-1.6-2.9-4.4-4.1-6
				c-1.4-1.9-2.9-3.8-4.6-5.3c0.1-1.5,2.1-6.2,3.4-8.9L-382.8,467.2z M-376.1,471.9c0.2,0.3,0.4,0.6,0.6,0.9c0-0.2,0-0.4,0-0.6
				C-375.7,472.1-375.9,472-376.1,471.9z M-414.9,450.1c-0.1,0-0.3,0-0.4-0.1l0.5,0.4C-414.8,450.3-414.9,450.2-414.9,450.1z
				 M-472,424.3h-0.2l0.3,0.1L-472,424.3z M-371.7,491.7c0,0.2,0,0.4,0,0.6c0,0.4-0.1,0.6-0.2,1c-0.4,0.9,0.3,0-0.4,0.6
				c0.2,0.6-0.4,0.7,0.1,0.6c-0.1,0.1-0.1,0.3-0.2,0.4c0-0.1-0.1-0.3-0.1-0.4h0.3l0.2-0.4c0.1-0.4,0.2-0.7,0.3-1.1
				c0.1-0.4,0.1-0.8,0.2-1.2L-371.7,491.7z M-371.8,538.8c-0.1,0.6-0.2,1.1-0.3,1.8l0.5-0.5c0.2-0.3,0.4-0.6,0.6-1
				C-371.3,539-371.5,538.9-371.8,538.8z M-624.8,697.1c-0.3-3.1,0-7.1,0.1-10.2c0.1-3.2-0.4-7,1-9.8c2.6-4.8,4.8-9.7,7.2-14.3
				c3.2-6.3,11.6-23.5,14.4-28.2L-624.8,697.1z M-571.4,523.8c7.5-0.3,3.8,5.4,17.4-2.9c4.2-2.5,2.9-2,8.1-0.2l26,9.1
				c5.6,2.1,12,4.5,17.7,6.2c0.2-1,1.9-4.8,2.5-5.5l1.3,19.9c-4.5-1-15.6-7-18.1-6.1c-2.4,0.8-2.4,1.6-4.5,0.3
				c-3.4-2-10.5-4.8-14.6-3.3c-2.6,1-5.3,3.6-6.1,6.4c-1,3.6,1,6.8,2.6,9.2c1.3,2,9.7,13.5,10.6,13.8c-0.9-0.2-4-2.8-4.3-3.1l-5.6-6
				c-0.4-0.5-0.4-0.6-0.9-1.2c-5.8-7.3-11.9-22.4-7.8-30.6l40.5,14.7l0.5-4.4c-0.6-0.5-38.5-15.1-41.2-14.4
				c-2.8,0.7-9.3,7.3-13.6,8.7c-2.7,0.9-7.2,1.1-10.1,0.2L-571.4,523.8z M-442.8,522.1l-0.3-0.4L-459,548l-6.9-2.5l24.2-40.1
				l7.7,2.7l-4.5,30.7c1.3-1.3,3.1-4.9,4.2-6.7c1.4-2.3,2.6-4.4,4-6.7l8.2-13.3l6.9,2.3c-0.4,1.4-11,18.6-12,20.3
				c-1.6,2.7-11.2,19-12.2,20l-7.7-2.7L-442.8,522.1z M-472.2,496.4c3.8-0.9,14,3.2,17.9,4.6c3,1.1,5.3,2.9,4,7
				c-0.8,2.5-10.8,18.6-12.5,21.5c-1.5,2.5-2.8,4.6-4.3,7.1c-4.4,7.4-9.5,5.4-15.6,3.3c-6.7-2.3-14.1-3.2-12.4-9.6
				c0.6-2.4,10.8-18.7,12.5-21.5c1.4-2.4,2.9-4.7,4.2-7.1c1.5-2.6,1-1.6,2.5-3.2c0.6-0.7,0.7-0.8,1.7-1.3
				C-473.6,496.8-473,496.6-472.2,496.4z M-420.9,511.2c1.8-3.4,4.3-6.7,6-10.1l6,2c-0.3,0.9-0.3,0.7-0.9,1.6l-4-1.4l-1.5,2.6
				l3.1,0.8l-0.9,1.7l-3.4-1.1c-0.2,1.3-0.9,1.9-1.5,3.3c1.4,0.2,3.2,0.7,4.2,1.4l-1,1.3l-5.5-1.8
				C-420.8,511.4-420.7,511.4-420.9,511.2z M-486.8,489.9l7.6,2.5l-24.3,40.3l-7.4-2.7L-486.8,489.9z M-535.7,513.4
				c1.6,1.4,7,2.9,9.7,3.8c6.1,1.9,6.1,3.4,8.9-1.1c1.4-2.3,1.6-2.3,0.2-5c-1.5-2.9-5.8-11.4-6.5-13.5c-1.2-3.8,1.4-7.1,2.9-9.6
				c1.7-2.8,3.3-5.4,7.4-6c3.1-0.5,17.3,4.6,20.7,6.1c-0.4,1.1-3.2,5.8-4,6.8l-0.4-0.3c-2-1.3-6.7-2.6-9.3-3.5
				c-4.9-1.7-5.8-3-8.4,2.3c-0.9,1.9,0.3,3.2,1.2,4.9c1.6,3.1,6.1,11.4,6.2,13.8c0.2,3.2-4.2,10.2-5.5,11.5c-1.7,1.6-3,3.3-6.7,3.2
				c-2.1,0-18.8-5.6-20.4-6.6C-538.5,517.9-537,515.5-535.7,513.4z M-551.5,516.2c1.1-2.7,4.2-7.3,5.9-10.1c2-3.3,4-6.7,6-10.1
				c4-6.7,7.8-13.4,12-20c1.3,0.1,6.8,1.9,7.7,2.6l-24.2,40.1L-551.5,516.2z M-573.2,508.7c0.3-2.2,10.4-34.6,12.3-41.2
				c0.1-0.5,0.2-0.9,0.4-1.4l0.6-1.4l7.8,2.6c-0.2,1.8-8.2,25.9-9.6,30.1c-0.6,2-1.4,3.1-0.7,4.1c0.5-0.9,1.1-1.6,1.8-2.4
				c0.8-1,1.3-1,2.1-2c0.7-0.8,1.2-1.5,1.9-2.3c0.8-0.9,1.2-0.9,2-1.9c0.7-0.8,1.2-1.5,1.9-2.3c0.8-0.9,1.2-0.9,2-1.9
				c0.7-0.8,1.2-1.5,1.9-2.3c0.8-0.9,1.2-0.9,2-1.9c2.3-2.8,2.9-3,3.9-4.2c2.4-3,0.9-1.3,3-3.2l2.7-3.3c1-1.1,1.1-0.9,2.6-0.4
				l4.7,1.6c0.2,0.1,0.5,0.2,0.6,0.3c0.4,0.2,0.4,0.2,0.6,0.4c-1.6,1.6-2.8,3.1-4.3,4.7c-1,1.1-2,1.6-4.5,4.4
				c-1.3,1.4-2.9,3.5-4.3,4.7c-0.6,0.5-0.8,0.5-1.4,1c-0.4,0.3-0.7,0.7-1,1.1c-1.7,1.9-4.8,5.6-6.6,6.9c-1.3,0.9-4.9,5.2-6.5,7
				c-0.4,0.4-0.7,0.9-1.2,1.2c-3.6,2.9-3.5,3.9-5.4,5.3L-573.2,508.7z M-416.4,499.5c-0.2,0.9-0.1-0.8,0.1,0.3c0,0.2,0,0.3,0,0.5
				c-0.2,1.4-0.3,1.1-1.5,2.9l-4.5,7.7l-1.9-0.8c0.5-1.4,2-3.1,2.6-4.7l-2.9-0.9l-2.9,4.6l-1.8-0.7l4.9-7.9l-0.4-0.7
				c0.1-0.2,0.2-0.2,0.3-0.3l-2.6-0.8c-1,1.4-4.6,7.3-5,8.6l-2-0.7c0.6-2.3,4.1-6.3,5-8.8l-2.3-0.6l1.1-1.8l0.6,0.3l0.8-0.6
				c0.1,0,0.3,0,0.4,0c-1.3-1.1-4.1-1.4-5.9-2.3c0-2.6,1.3-6.2,0.2-8.3s-2.4-4.3-3.6-6.3c-2-3.2-0.9-3.6-5.1-4.7
				c-4.1-1.1-21.1-6.4-22.7-6.2l-20.7,8.5c-9.3,3.9-6.3,3.8-14.1,0.8c-5.1-2-16.7-5.2-22.2-6.8c-0.6-0.2-14.7-3.7-15.1-4.5l-1.9-12
				c5.5-2.4,14.7-7.2,20.5-9.9c5.1-2.4,3.8-2.5,7.8-1.9c11,1.8,23.5,2.9,33.9,6.4c16.3,5.5,26.9,11.6,41,19.6
				c4.2,2.4,8.7,5,12.6,7.6l-0.2,15.8c0.2,0.7,11.1,8.1,13.1,10.1L-416.4,499.5z M-392.8,530.8c-0.9-0.9-5.2-12.4-6.1-14.7
				c-2.1-5.2-4.2-9.3-6.5-14.1c-4.6-9.4-9.2-18.4-13.6-27.5c-4.4-8.9-1.8-5.2-10.3-10.2c-4.4-2.6-8.9-4.7-13.3-7.3l-26.6-14.7
				c9.4,1.1,23.6,6.2,31.2,10.5c2.2,1.3,4.7,2.5,6.6,3.8c1.2,0.8,2.2,1.4,3.2,2.2c4.4,3.3,14.5,10.2,17.9,13.2
				c0.8,0.7,0.8,0.6,1.5,1.2c0.7,0.5,0.6,0.6,1.2,1.2c0.5,0.5,1,0.7,1.6,1.1c0.9,0.7,0.5,0.7,1.2,1.5c1.1,1.4,0.8,0,2.5,2.5
				c3.6,5,4.9,6.1,6.5,14.2c1,5.6,1.7,12.7,2.2,18.5C-393.6,514.9-391.8,529.1-392.8,530.8z M-553.1,464.8c-1-5-1.4-3.1,1-7.6
				c1.3-2.4,2.3-4.6,3.5-6.9c4.9-9.3,3-8.1,9-11.9c4.2-2.7,8.3-5.5,12.6-8.3c2.6-1.7,13.2-2.8,17.2-3.4c3-0.5,6-0.9,9-1.4
				c4.2-0.6,4.3-0.1,8.1,1.2l31.2,10.5c2.6,0.8,5.2,1.8,7.8,2.7c2.5,0.8,5.4,1.5,7.6,2.7l-34.1-4.6c-0.4,0.8-0.7,1-1.1,1.8
				c-7.3-0.9-14.7-2.1-22-3.1c-3.4-0.5-7.6-1.4-11-1.6c-1.7-0.1-3,1-4.4,1.7l-20.7,10.7c-2.1,1.1-1.5,0.6-1.9,1.4
				c-0.6,1.3-1.3,6.5-1.3,7.8c0.1,2.5,0.3,9.8,1.1,11.5c0.6,0.6,43.1,12.2,47.9,13.6c6.9,2.1,4.6,1.3,15-2.8c2.5-1,4.9-2.1,7.4-3.1
				c2.3-0.9,4.7-2.6,7.2-2c5.4,1.3,11,2.9,16.3,4c2.2,0.5,1.9,0.5,2.9,2.1c1.4,2.1,5.7,7.7,5.3,9.1c-1.5,4.6-1.2,2.8,0.5,7.4
				c0.4,1,1.3,2.8,1.4,3.6c0.4,1.5-0.5,1.2-1.5,3c-4.5-1.4-9.8-3.6-14.3-5.4c-10.4-3.9-33.2-10.7-44.1-14.1c-10-3-19.8-6.2-29.7-9.4
				c-9.8-3.1-20-6-29.6-9.4L-553.1,464.8z"/>
			<g>
				<path fill="#6BE2F8" d="M-403.9,552.7c1.2-2-1.2-5.9-6.3-2.2c-0.8,0.6-1.1,1.3-1.2,2.8C-411.4,557.6-408.5,560.3-403.9,552.7z"
					/>
				<path fill="#6BE2F8" d="M-418.8,547.6l0.4,0.2c5.6,0.1,12.9-2.8,16.5,1.9l-0.2-1.1C-405.1,543.7-413.4,546.9-418.8,547.6z"/>
			</g>
			<g>
				<path fill="#CD445A" d="M-424.4,500.7l-4.9,7.9l1.8,0.7l2.9-4.6l2.9,0.9c-0.6,1.6-2.1,3.2-2.6,4.7l1.9,0.8l4.5-7.7
					c1.1-1.9,1.3-1.5,1.5-2.9l-1.8-0.3c-1,1.2-1.6,3-2.7,4l-2.7-0.9l2.3-4.2l-1.7-0.6C-423.6,499.1-423.9,499.5-424.4,500.7z"/>
				<path fill="#CD445A" d="M-420.9,511.2c0.2,0.2,0.1,0.2,0.6,0.4l5.5,1.8l1-1.3c-1-0.8-2.8-1.2-4.2-1.4c0.6-1.4,1.3-2,1.5-3.3
					l3.4,1.1l0.9-1.7l-3.1-0.8l1.5-2.6l4,1.4c0.6-0.9,0.6-0.7,0.9-1.6l-6-2C-416.7,504.5-419.1,507.8-420.9,511.2z"/>
				<path fill="#CD445A" d="M-424.5,499.7c0.1-1.5,0.4-0.7,0.5-1.8l-5.8-1.9l-0.6-0.3l-1.1,1.8l2.3,0.6c-0.9,2.5-4.3,6.5-5,8.8
					l2,0.7c0.4-1.4,4-7.2,5-8.6L-424.5,499.7z"/>
			</g>
			<g>
				<path fill="#732430" d="M-419.1,656.5c0,1.4-0.4,0.3,2.3-0.3c0.9-0.2,2.1-0.4,3-0.5c1.2-0.2,4.6-0.9,5.7-0.9c0-0.7,0-1.4,0-2.1
					c0-1.8,0.2-1.9,0.7-2.4l-0.9-11.6c2.3-0.7,3.2-0.2,4.5-0.9c-2.4-0.9-15.1-1.1-19.1-1.6l1.1,1.6c0.6,0.5,0.6,0.4,1.2,0.9
					c0.7,0.6,1.1,1.4,1.9,2.3c2.1,2.4,2.8,3.8,0.3,4.6c0.7,1.1,9.7,5,2.9,9.3C-416.5,655.3-418.4,655.9-419.1,656.5z"/>
				<path fill="#732430" d="M-399.9,557c-0.1,1.7-2.3,4.3-3.1,4.9c-0.9,0.7-3.8,3-5.2,2.8c-1.2,2.7-6.9,2-8,4.3
					c0.3,0.1,0.4,0.1,0.8,0.3c0.7,0.5,0.3,0.1,0.9,0.8c1,0.4,2.6,1.7,3.8,2.2l0.1,1.9l0.2-1.9c4.1-0.6,10.7-5.1,12.4-7.2
					c2.1-2.6,1.4-2.4,2.4-4c0.3-1.2,0.2-2,0.7-3l-3.3,0.9l-0.6-2.5C-399.4,557.1-399,556.8-399.9,557z"/>
				<path fill="#732430" d="M-423.6,626.6l10.8-0.4c2.7,0.4,5.9-0.8,8.5-0.1c-0.4-0.5-0.2,0-0.2-0.8l6.4-2.2c-1.4-1-1.1-0.4-1.1-0.4
					l-13.7-0.2c-2.4,0-4.9-0.4-6.7,0.7C-422.6,625.1-422.1,625.6-423.6,626.6z"/>
				<path fill="#732430" d="M-395.3,595.7c0.7,1.5,2,2.9,2.5,4.5c3.2,0,4.5,0.4,8-0.1c1.5-0.2,6.3-0.7,7.4-1.2
					c-1.7,0-6.8-1.5-8.9-1.9C-389.5,596.3-392.1,595.3-395.3,595.7z"/>
			</g>
			<g>
				<path fill="#D45D71" d="M-423.6,626.6c1.6-1,1-1.5,4.1-3.4c1.8-1.1,4.3-0.7,6.7-0.7l13.7,0.2c0,0-0.4-0.6,1.1,0.4l6.3-2
					l-3.6-9.8l-0.2-1c-5.1,2.2-10.5,4.4-16.1,6.3c-9.2,3.1-8.4,0.8-12.5,10.1L-423.6,626.6z"/>
				<path fill="#D45D71" d="M-400.8,637.6l2-4.4c-0.5-1.1-1.8-2.7-2.6-3.8c-2.3-3.3-0.7-1.4-3-3.4c-2.6-0.6-5.8,0.5-8.5,0.1
					c0.6,0.8,1.7,0.9,3.2,1.7c1.1,0.6,2.2,0.9,3.3,1.5c2.7,1.4,3.5,0.9,4.5,2.7c1,1.7,1.5,1.6-0.3,4.5c-0.5,0.8,0,0.3-0.6,0.7
					L-400.8,637.6z"/>
			</g>
			<g>
				<path fill="#2C392C" d="M-416.8,570.7l4.6,2.9l-0.1,12.5c-1.8,1.2-5.4,2.7-7.4,3.7l-11.1,5.3c-2.3,1.1-2,0.6-2.4,3.2
					c-1.4,8.6-3.8,19-5.5,28c-0.6,3.3-3.6,17-3.6,19c3.7,3,2.6,3.1,4.6,4.7c1.5,1.2,1.8,2.2,2.9,3.3c0.8,0.8,1,0.6,1.7,1.5
					c1,1.2,2.2,2.2,1.9,4.4c-0.2-1,0.6-1.4,0.9-2.4c-0.4-2.5-1-2.4-2.3-3.7c-3.4-3.2-3.4-3.7-5.6-5.8c-0.9-0.9-2.1-1.8-2.8-2.8
					c0.4-3.1,2.4-9.2,3.3-12.4c1.3-4.5,2.5-8.2,5.1-10.7l16.7-14.6c-3,1.4-7.2,4-10.1,5.8l-9.6,6.6l3-18c0.4-2.9-0.1-3.3,2.3-4.5
					c2.8-1.3,17.7-7.7,18.9-8.6l0.6-10.9v-2.9l-0.1-1.9c-1.2-0.5-2.7-1.9-3.8-2.2c-0.2,0-1,0-1.2,0.1
					C-417.3,570.5-416.2,570.2-416.8,570.7z"/>
				<path fill="#2C392C" d="M-429.8,496l5.8,1.9c-0.1,1.1-0.4,0.3-0.5,1.8c-0.1,0.1-0.2,0.1-0.3,0.3l0.4,0.7
					c0.5-1.2,0.7-1.5,1.4-2.4l1.7,0.6l-2.3,4.2l2.7,0.9c1.1-1,1.7-2.8,2.7-4l1.8,0.3V500v-0.1c-0.1-1.1-0.3,0.6-0.1-0.3
					c-1-0.6-11.3-4.1-12.2-4.1c-0.1,0-0.3,0-0.4,0L-429.8,496z"/>
			</g>
			<g>
				<path fill="#9D2B3D" d="M-497.2,674.4l-17.4-6.6l-0.1,0.2c0.4,1.1,1,1,2.8,2.8l12.5,11l-7.7,33c0.9-1,12.3-27.8,14.2-31.8
					c2.2-4.9,1.4-3.6,7.2-4.5c3.3-0.5,6.6-1,9.8-1.5c5.5-0.9,10.4-1,14.1-3.2l3.5-2.3c-2.7,0.4-33,5.2-34.9,4.7
					C-493.9,675.8-496.7,674.7-497.2,674.4z"/>
				<path fill="#9D2B3D" d="M-602.1,634.7c-2.8,4.7-11.2,21.9-14.4,28.2c-2.4,4.6-4.6,9.4-7.2,14.3c-1.5,2.7-0.9,6.5-1,9.8
					c-0.1,3.1-0.4,7.1-0.1,10.2L-602.1,634.7z"/>
			</g>
			<g>
				<path fill="#D96F82" d="M-465.6,552.4c1.7,1.8,2.9,2.5,4.5,4.1l10.6,8.8c1.1,0.8,2.5,2.4,3.6,3l-3.3,15.5l11.5,7.3
					c2.2,1.4,1.3,1.9,2.6,3.9c0.9-0.2,0.2,0,1.3-0.5l8.6-4.8c2.5-1.2,8.2-4.7,9.9-5.3c0.8-13.1,4.2-8.6-7.1-16.4l-9.4-6.3
					c-2.6,1.6-0.7,2.7-7.7-0.8l-23.9-11L-465.6,552.4z"/>
				<path fill="#D96F82" d="M-395.7,561.2c-1,1.7-0.4,1.4-2.4,4c-1.7,2.1-8.3,6.6-12.4,7.2l-0.2,1.9v2.9l-0.1,2l5.6-5
					c1.6-1.9,3.1-1.1,8.2-0.3l1.7,21.7c3.2-0.4,5.8,0.6,8.9,1.3c2.1,0.4,7.2,1.9,8.9,1.9c0.5-0.7,3.5-6.5,3.6-7.2
					c0.4-1.6-2.1-5.9-2.9-7.7c-2.1-5.1-4.2-10.1-6.4-15.1c-3.5-8.1-3.7-6.5-1.8-16.8c0.4-2,2.9-2.7,6.2-4.6c1-0.6,2.3-1.3,3.5-1.9
					c2.7-1.3,1.4-0.9,2.6-2.6l-0.3-0.5c-0.9-2.1,0.4,1.6-0.2-0.5c-0.1-0.3,0-0.6,0-0.8l-0.1,1.6l-1.5-3.3c-0.5,0.5-1.2,2.8-1.5,3.6
					c-0.7,1.8,0,0.9-2.8,2.6c-2.3,1.4-4.5,2.6-6.7,4c-5.5,3.3-4.7,2.2-5.7,5c-0.7,1.9-2.1,4.6-3.6,5.9c-0.1,0.1-0.3,0.2-0.3,0.3
					L-395.7,561.2z"/>
				<path fill="#D96F82" d="M-409,589.2l-2.4,1.2c-0.8,0.5-1.7,0.8-2.6,1.2c-3.5,1.6-12.8,6.5-15.3,7.1l-2.3,15l20.6-17.8
					c0.9-1.1,1.9-1.8,3-2.6l-0.2-11L-409,589.2z"/>
				<path fill="#D96F82" d="M-446.2,640.6c1.3-2,2.8-6.4,3.9-8.9c2.8-6.3,3.8-13.6,5.2-20.5c0.6-2.9,2-8.1,2.1-10.9l-2.9-2.3
					C-438.3,598.9-446,637.7-446.2,640.6z"/>
				<path fill="#D96F82" d="M-392.1,546.4c0.7,1.3,1.2,1.2,3.1,3.2l10.6-6.5l-0.7-0.9c-0.7-1-1-1.5-2.1-2.3L-392.1,546.4z"/>
			</g>
			<g>
				<path fill="#EDD4BB" d="M-485.6,559.8c0.8,1.2,13.8,8.4,16,10.5l2.2,1.1l-0.5,2.9l-1.5,0.9c-3.2,1.3-27.3,12.6-28.1,13.6
					c0.5,4.8,1.8,10.7,2.7,15.7c0.9,5.3,1.8,10.5,2.7,15.8c0.3,1.8,0.6,6.5,1.8,7.5l11.8,6.7c1.8,1.1,4,2.4,5.9,3.3
					c-0.4-0.6-1.2-1.6-1.8-2.1c-3-2.2-2-2.2-5.4-5.3c-6.4-5.9-5.3-4.4-5.3-8.8v-28.5l12.4-9.1c1.9-1.4,10.8-8.2,12.4-8.6l3.1-6.7
					c0-1.2-1.4-1.8-2.2-2.5l-8.1-6.8c-0.6-0.5-0.7-0.4-1.3-1.1l-9.4-7.9l0.7-6.4l-16-6.2l-0.1,17.2c1,0.7,2.7,1.8,3.9,2.5
					C-488.3,558.2-487.1,559.2-485.6,559.8z"/>
				<path fill="#EDD4BB" d="M-570.2,620.2c0.1-0.7,0-0.2,0.3-0.9c0,0,0.5-0.9,0.6-0.9l10.7-15.5c0.8-1.2,1.6-2.4,2.4-3.6l4.9-6.9
					c-0.3-1.5-6-12-7.2-14l-24.7-47.8h-0.2c1.4,4.8,4.1,10.5,5.9,15.4l11.8,31.7c1.3,3.4,1.1,2.3-1.1,7.7l-24.9,61.9
					c-1,2.4-2.4,5.5-3.1,7.8l6.1-8.7c1-1.6,2-2.8,3.1-4.4l9.1-13.3C-575.6,627.6-571.1,620.7-570.2,620.2z"/>
				<path fill="#EDD4BB" d="M-443.2,521.7l0.5-0.6l-0.2,0.9l-4.2,30l7.7,2.7c1-1,10.5-17.3,12.2-20c1-1.7,11.6-18.9,12-20.3
					l-6.9-2.3l-8.2,13.3c-1.4,2.3-2.7,4.4-4,6.7c-1.1,1.8-2.9,5.4-4.2,6.7l4.5-30.7l-7.7-2.7l-24.2,40.1l6.9,2.5L-443.2,521.7z"/>
				<path fill="#EDD4BB" d="M-469.8,503.9c1.8-0.2,3.8,0.9,5.5,1.5c1.2,0.4,4.5,1.1,4.8,2.3c0.3,1.2-8.9,15.8-10.2,17.9
					c-0.9,1.5-1.8,2.9-2.7,4.5c-3.4,5.6-2.1,4.7-11.1,1.7c-3.6-1.2-3.2-0.9,2.6-10.5C-479,518-472,505.6-469.8,503.9z M-472.2,496.4
					c-0.8,0.2-1.4,0.4-2.1,0.8c-1,0.6-1,0.6-1.7,1.3c-1.5,1.6-1,0.6-2.5,3.2c-1.4,2.4-2.8,4.7-4.2,7.1c-1.7,2.8-11.9,19.1-12.5,21.5
					c-1.6,6.4,5.8,7.2,12.4,9.6c6.1,2.1,11.2,4.1,15.6-3.3c1.5-2.5,2.8-4.6,4.3-7.1c1.7-2.9,11.8-19,12.5-21.5c1.3-4.1-1-5.8-4-7
					C-458.2,499.6-468.4,495.5-472.2,496.4z"/>
				<path fill="#EDD4BB" d="M-392.8,530.8c1-1.7-0.8-15.9-1-18.8c-0.5-5.8-1.1-12.9-2.2-18.5c-1.5-8.1-2.9-9.1-6.5-14.2
					c-1.8-2.5-1.4-1.2-2.5-2.5c-0.7-0.8-0.3-0.7-1.2-1.5c-0.5-0.5-1-0.7-1.6-1.1c-0.6-0.5-0.5-0.6-1.2-1.2c-0.7-0.5-0.7-0.4-1.5-1.2
					c-3.4-3-13.5-9.9-17.9-13.2c-1.1-0.8-2-1.3-3.2-2.2c-1.9-1.3-4.4-2.6-6.6-3.8c-7.6-4.3-21.7-9.4-31.2-10.5l26.6,14.7
					c4.4,2.6,8.9,4.7,13.3,7.3c8.6,5.1,6,1.3,10.3,10.2c4.5,9.2,9,18.1,13.6,27.5c2.3,4.8,4.4,8.9,6.5,14.1
					C-398,518.4-393.7,529.9-392.8,530.8z"/>
				<path fill="#EDD4BB" d="M-449.5,667.2c1.5,0.4,6.8,3,8.4,3.8c2.1,1.1,6.2,3.1,8.2,3.8c-1.7-1.4-3.9-2.8-6.2-4.2
					c-2.3-1.2-4.2-2.5-6.4-3.9c-9.8-6.1-21.1-12.7-30.7-18.8c-4.1-2.6-8-4.9-12.2-7.5c-2.1-1.3-4.1-2.6-6.3-3.8
					c-4.3-2.5-3.7-2-4.4-5.4c-3.1-15.9-7.3-32.6-10.5-48.8c1.5-0.5,13.9-6.4,14.6-7.2c-5.4,1.5-22.9,3.4-26.3,4.9
					c1.1,4.6,3.2,10.5,4.7,15.1l13.2,41.4c0.5,1.5,0.4,2.7,1.7,3.4c4.1,2.4,8.7,4.5,12.9,6.8l19.4,10.4c2.3,1.2,4.1,2.3,6.7,3.5
					C-461.1,661.5-449.9,666.8-449.5,667.2z"/>
				<path fill="#EDD4BB" d="M-573.2,508.7l9.4,3.3c1.8-1.5,1.8-2.4,5.4-5.3c0.4-0.4,0.8-0.8,1.2-1.2c1.6-1.7,5.2-6,6.5-7
					c1.8-1.3,4.8-4.9,6.6-6.9c0.3-0.4,0.6-0.8,1-1.1c0.6-0.5,0.8-0.5,1.4-1c1.4-1.2,3-3.3,4.3-4.7c2.5-2.8,3.5-3.4,4.5-4.4
					c1.5-1.6,2.8-3.1,4.3-4.7c-0.2-0.1-0.2-0.2-0.6-0.4c-0.2-0.1-0.5-0.2-0.6-0.3l-4.7-1.6c-1.5-0.5-1.6-0.7-2.6,0.4l-2.7,3.3
					c-2.1,1.9-0.7,0.3-3,3.2c-0.9,1.2-1.5,1.4-3.9,4.2c-0.8,0.9-1.2,1-2,1.9c-0.7,0.8-1.2,1.5-1.9,2.3c-0.8,0.9-1.2,1-2,1.9
					c-0.7,0.8-1.2,1.5-1.9,2.3c-0.8,0.9-1.2,1-2,1.9c-0.7,0.8-1.2,1.5-1.9,2.3c-0.8,1-1.3,1-2.1,2c-0.7,0.8-1.3,1.5-1.8,2.4
					c-0.6-1,0.1-2.1,0.7-4.1c1.4-4.1,9.4-28.3,9.6-30.1l-7.8-2.6l-0.6,1.4c-0.2,0.5-0.2,0.9-0.4,1.4
					C-562.8,474.1-572.9,506.5-573.2,508.7z"/>
				<path fill="#EDD4BB" d="M-535.7,513.4c-1.4,2.1-2.9,4.4-4.1,6.7c1.6,1.1,18.3,6.6,20.4,6.6c3.7,0.1,5-1.6,6.7-3.2
					c1.3-1.3,5.7-8.3,5.5-11.5c-0.1-2.4-4.7-10.7-6.2-13.8c-0.8-1.7-2-3-1.2-4.9c2.5-5.4,3.5-4,8.4-2.3c2.6,0.9,7.3,2.3,9.3,3.5
					l0.4,0.3c0.8-1,3.6-5.8,4-6.8c-3.5-1.5-17.6-6.6-20.7-6.1c-4.1,0.6-5.7,3.2-7.4,6c-1.5,2.5-4.1,5.8-2.9,9.6
					c0.7,2.1,5,10.6,6.5,13.5c1.4,2.7,1.2,2.7-0.2,5c-2.7,4.5-2.8,3-8.9,1.1C-528.7,516.4-534.1,514.8-535.7,513.4z"/>
				<path fill="#EDD4BB" d="M-598.3,623.3c0.8-1,5.3-14,6.2-16.4l9-24.9c0.2-1.4-6-23.5-6.6-27c-0.6,1-6.4,43.2-7.3,50.3
					C-597.7,610.3-598.5,618.4-598.3,623.3z"/>
				<path fill="#EDD4BB" d="M-551.5,516.2l7.4,2.5l24.2-40.1c-0.9-0.7-6.4-2.5-7.7-2.6c-4.2,6.6-8,13.3-12,20c-2,3.4-4,6.7-6,10.1
					C-547.2,508.9-550.4,513.5-551.5,516.2z"/>
				<polygon fill="#EDD4BB" points="-511,529.9 -503.5,532.7 -479.2,492.4 -486.8,489.9 				"/>
			</g>
			<g>
				<path fill="#F0C23D" d="M-465.1,698.7c-6.8,12.2-16.5,27.5-24,40l-4.8,8c-0.7,1.5,5.1,16.3,6,18.9c0.2,0.7,0.4,1.7,0.7,2.3
					c0.5,1.2,0.5,0.9,1.9,1.4c8.7,3.1,22.3,9.4,32,13c6.1,2.3,12.2,5,18.2,7.4l18.1,7.7l2.3,0.6l0.1-0.4c-2.4-1-4.8-2.7-7.3-4.1
					c-2.4-1.3-4.6-2.7-7-4l-42.2-24.7c-0.6-8.6-0.9-20.8-1.3-30.1c-0.2-3.7,4.3-10.6,5.9-15.2c0.7-1.9,1.4-6.4,1.8-8.6
					c0.5-2.8,1.2-5.9,1.8-8.6c0.3-1.2,1.9-7.3,1.2-8.3C-463.4,697-464.1,696.3-465.1,698.7z"/>
				<path fill="#F0C23D" d="M-617.3,644.3l-0.5-0.3l-22.3,26.5c-3.5,3.7-2.3,2.3-1.8,7.8c0.4,4.1,1.5,9.5,1.5,13.4
					c0,1.5-11,20.9-13,24.3c-0.7,1.3-2.2,3.6-2.6,4.9c1.6-0.7,13.4-13,15.6-15.2c2.6-2.6,5-5,7.6-7.6c1.5-1.5,3.4-2.9,3.3-4.2
					l-2.7-12.5c-0.7-3.1-0.2-2.9,1-5.5C-627.8,668-620,651.1-617.3,644.3z"/>
				<path fill="#F0C23D" d="M-372.5,494.5l-3.7-5.4c-1.6-1.2-5.3-6.8-8.2-9.2c-1.2-1-1.8-2.1-3.1-2.9c0.3-2.1,4.2-8.7,5.4-10.9
					c-3-3.7-11-6.2-16.9-6.5c1.7,1.2,9.4,4.8,12.1,7.9c-0.4,1-5.4,7.9-6.6,11c0.7,0.7,1.8,1.3,2.6,1.9l3.8,3
					c0.6,0.5,0.6,0.6,1.2,1.1c0.5,0.4,0.9,0.6,1.4,1l5.8,5.8c6.5,7.1,4.3,3.2,4.2,11.9C-373.5,501.6-371.8,496.4-372.5,494.5z"/>
			</g>
			<g>
				<path fill="#CC425A" d="M-408.3,582.3l0.2,11c-1.1,0.8-2.1,1.5-3,2.6l-20.7,17.8l2.3-15c2.5-0.6,11.8-5.5,15.3-7.1
					c0.9-0.4,1.8-0.8,2.6-1.2l2.4-1.2L-408.3,582.3z M-410.7,577.2l-0.6,10.9c-1.2,0.9-16.1,7.3-18.9,8.6c-2.4,1.1-1.9,1.6-2.3,4.5
					l-3,18l9.6-6.6c2.8-1.8,7.1-4.5,10.1-5.8l-16.7,14.7c-2.6,2.5-3.8,6.2-5.1,10.7c-0.9,3.2-3,9.3-3.3,12.4
					c0.7,0.9,1.9,1.9,2.8,2.8c2.2,2,2.1,2.5,5.6,5.8c1.3,1.3,2,1.2,2.3,3.7l0.3,1.4c4.6,0.7,5-0.4,8.7-0.6c0.6-0.8,1.2-0.9,2.3-1.1
					c0.7-0.6,2.6-1.1,3.6-1.7c6.8-4.3-2.2-8.1-2.9-9.3c2.5-0.8,1.8-2.2-0.3-4.6c-0.8-0.9-1.2-1.7-1.9-2.3c-0.6-0.5-0.6-0.4-1.2-0.9
					l-1.1-1.6c3.9,0.5,16.7,0.7,19.1,1.6h3l-1.9-0.4c0.5-0.3,0,0.2,0.6-0.7c1.8-2.9,1.3-2.7,0.3-4.5c-1-1.7-1.8-1.3-4.5-2.7
					c-1.1-0.6-2.2-0.9-3.3-1.5c-1.5-0.8-2.6-0.9-3.2-1.7l-10.8,0.4h-0.4c4.1-9.2,3.3-6.9,12.5-10.1c5.5-1.9,11-4.1,16.1-6.3l0.2,1
					c0-1.5,1.9-9.8,2.5-11.1c-0.5-1.6-1.9-3-2.5-4.5l-2-21.8c-5.1-0.8-6.6-1.6-8.2,0.3l-5.6,5L-410.7,577.2z"/>
				<path fill="#CC425A" d="M-446.2,640.6c0.2-3,7.9-41.8,8.3-42.6l2.9,2.3c-0.2,2.8-1.6,8-2.1,10.9c-1.4,6.9-2.4,14.2-5.2,20.5
					C-443.4,634.3-444.9,638.6-446.2,640.6z M-436.1,595.1c-1.3-2-0.5-2.6-2.6-3.9l-11.5-7.4l3.4-15.7c-1.1-0.5-2.5-2.1-3.6-3
					l-10.6-8.7c-1.7-1.6-2.8-2.2-4.5-4.1l1.2-2.4l23.9,11c7,3.5,5.1,2.4,7.7,0.8l9.4,6.3c11.3,7.8,7.9,3.4,7.1,16.4
					c-1.7,0.6-7.3,4-9.9,5.3l-8.6,4.8C-435.8,595.1-435.2,594.8-436.1,595.1z M-431.3,659.2c0.3-2.2-1-3.2-1.9-4.4
					c-0.8-0.9-0.9-0.8-1.7-1.5c-1.1-1.1-1.4-2.1-2.9-3.3c-2-1.6-0.9-1.7-4.6-4.7c0-2,3-15.7,3.6-19c1.6-8.9,4-19.4,5.5-28
					c0.4-2.6,0.1-2.1,2.4-3.2l11.1-5.3c2.1-1,5.6-2.5,7.4-3.7l0.1-12.5l-4.6-2.9c-1.8-1.5-4-2.9-5.7-4.1l-5.3-4.2
					c-5.8-5.9-3.9-7.5-0.7-12.2l4.8-4.7c1.4-1,1-1.3,1-1.5c0.1-2.2,8.8-4.6,10.3-5c1.1-0.3,2.6-0.8,3.8-1c2.2-0.3,2,0.3,3.1,0.3
					c1.1,0,0.4,0.1,0.9-0.2c-1.2-1.2-7.2-9.8-7.5-10.2c0.6,0.7,1.8,1.6,2.6,2.2c2.3,1.9,1.1,1.7,2.7,2.5c1.1-2.7,3.1-1.8,4.3-4.8
					c0.7-1.7-0.8-5-1.4-6.9c-0.6-2.3-3.4-13.5-4.1-14.4c-1,2.1-2.5,4.3-3.6,6.5c-5.7,10.6-12.6,22-18.5,32.5
					c-1.2,2.1-2.4,4.3-3.7,6.5c-1.1,2.1-2.7,4.5-3.7,6.6l-37.8-14.4l-1.4,3.9l12.5,11.1c0.7,0.7,1.5,1,2.2,1.7c1.2,1.2,0,0.5,2.2,2
					l6.1,5.5c3.9,2.9-0.1,8.2-0.6,15.9l15,10.9c0.3,1.4-7.4,43.9-8.5,48.2c1.3,1.6,2.4,2.6,3.6,4c3.4,3.7,3.7,3.5,7.4,7.6
					c2.7,3,2.6,2.2,2.8,4.9c0.4,0,1.3-0.1,1.6-0.2C-431,659.4-432,659.8-431.3,659.2z"/>
			</g>
			<g>
				<path fill="#9B2B3C" d="M-590.9,514.6c4,0.9,25.5,8.5,27,8.1l8.5-4.9c1.5-0.8,1.2-0.9,1.9-2.6c1.6-4.2,3.8-8.8,5.1-13.1
					c-2.4,2.1-4.7,4-7,6.4c-0.5,0.6-1.2,0.9-1.9,1.4c-1,0.8-0.8,0.9-1.6,1.7c-0.6,0.6-1.2,0.9-1.9,1.4c-0.9,0.8-0.8,1.1-1.7,1.7
					l-13.4-5.1c0.5-2.5,7.8-23.5,9.3-29c3.1-10.7,6.2-18.4,10.8-27.7c1.1-2.2,2-4.3,3.2-6.4s2-4.3,3.4-6.1c1.5-1.8,1.9-2,3.6-3.6
					c2.7-2.7,3.4-3.2,6.7-5.5c3.6-2.5,7.7-4.6,12.3-6.8c3.8-1.8,5.9-2.9,10-4.3l3.7-1.5c-2.8,0.3-5.7,1.5-8.6,2.1
					c-2.8,0.6-5.8,1.5-8.5,2.3c-7.8,2.4-21,7.9-27.5,13.1l-3.2,2.5c-2,2-4.9,4.1-6.9,6.5c-2.3,2.7-4.9,5.2-7.8,8.7
					c-3.8,4.6-9.8,14.6-11.6,20.9C-590.4,485.8-590.4,502.7-590.9,514.6z"/>
				<path fill="#9B2B3C" d="M-567.7,621.9c-0.8,2.2-4,6.2-4.7,8.1l6.2,7.7c0.8,1.1,0.9,1.6,2.7,2.1c4.7,1.5,9.4,3.1,14.1,4.7
					c2.3,0.8,4.6,1.6,6.9,2.3c2.2,0.7,1.6,1,3.6,5.9c1.2,3,4.1,11.4,5.6,13.6l15.2-2.1c1.2-0.6,2-10.2,2-10.2c0-0.3-12-21-13.9-23.6
					c-0.8-1.1-2.8-1.4-4.3-2l-13.8-5c-7-2.5-3.7-1.1-9.7-9.1c-1-1.3-1.6-2.7-2.6-3.7C-561.7,611.7-566.7,621.4-567.7,621.9z"/>
				<path fill="#9B2B3C" d="M-472.6,637.7c1.2,1,4.9,2.9,6.6,3.9c2.2,1.2,4.3,2.5,6.6,3.8c2,1.1,12.3,6.8,13.3,7.7l8.2,4.4
					c-0.6-0.9-10.3-11-11.3-11.6c-1.7-0.9-12.9-13.5-16.3-16.8c-0.7-0.7-1.1-0.7-1.9-1.4c-1.9-1.8-4.2-4.3-5.9-6.2l1-2.3
					c0.9-2.9,3.1-7.1,4.4-10.1l8.8-19.9c1-2.1,4.1-8.4,4.3-10.4c-1.1-0.1-2.1-1.1-3-1.7c-0.5-0.4-0.8-0.7-1.4-1
					c-0.9-0.7-0.1-0.3-1.3-0.8c-1.6,0.4-10.5,7.2-12.4,8.6l-12.4,9.1v28.5c0,4.4-1.1,2.9,5.3,8.8c3.4,3.1,2.5,3,5.4,5.3
					C-473.7,636.1-472.9,637.2-472.6,637.7z"/>
				<path fill="#9B2B3C" d="M-535.5,606.2c1.5,1.2,4.9,2.6,6.8,3.6c4,2.1,2.9,1.6,4.5,5.9c4.1,10.8,8.6,24.6,12.7,34.7
					c1.4,3.5-0.7,7.4-1.2,13.9c1.1,0.4,2.5,0.8,3.7,1.2c1.9,0.6,1.8,0.8,3.4-0.1l19.8-11.6c-0.1-0.1-0.2-0.2-0.2-0.1l-8.9-4
					c-1.8-0.8-8.4-3.1-9-4.4l-12.9-40.3c-2-6.8-4.7-13.7-6.4-20.5c-2,1.1-3.4,3-4.4,4c-0.6,0.6-1.6,1.3-2.3,1.9
					c-1.6,1.3-1.1,1.3-2.2,2.3c-1.5,1.3-3.8,2-3.7,5C-535.8,600.4-535.7,603.5-535.5,606.2z"/>
				<path fill="#9B2B3C" d="M-512.8,736c1.7-0.7,1.6-1.7,3.9-3.7c1.3-1.2,2.5-2.1,3.8-3.3c0.9-0.8,0.9-1.3,1.8-2.1
					c1.4-1.4,4.7-3.9,5.7-5.1c0.4-0.5,0.4-0.7,0.9-1.2l2.9-2.5c0.7-0.6,1.2-1,1.9-1.7c1.4-1.2,0.9-0.9,1.7-1.9
					c1.2-1.4,4.9-4.1,5.8-5.2c3.2-3.9,4-3.4,7.3-7.3l5.8-5.2c0.8-0.8,0.7-1.1,1.6-1.9c1.8-1.7,4.4-3.5,5.7-5.3
					c3.9-5.3,3.9-0.2,5.7-8.9c0.4-2,0.9-4,1.2-5.9c-4.1,2.9,2.5,1.8-10.6,4.1c-4.2,0.7-8.3,1.5-12.4,2.2c-2.1,0.4-4.2,0.7-6.3,1.1
					c-3.3,0.6-3.1-0.1-4.3,2.9c-4.1,10-9.1,20.7-13.2,30.6C-506.6,722.3-510.2,729.2-512.8,736z"/>
				<path fill="#9B2B3C" d="M-382,527c1.5-0.1,1.1,0.4,2.4,2.3c1.3,1.8,4.5,8.3,4.9,10.2l1.5,3.3l0.1-1.6
					c-0.4-11.2-1.3-19.6-2.4-30.3v-3.4c0.3-1.2,0.1-0.4,0.5-0.8c-2.3-7.1-0.3-9.2-1.9-10.5l-3.6-2.6c-3.5-2.5-1.3-0.8-3.3-2.9
					c-1-1-2.5-1.8-3.4-2.9c-0.8-1-0.5-0.8-1.4-1.5l-6.6-5.9c-0.5-0.6-0.2-0.3-0.7-0.8c-0.3-0.3-0.5-0.3-1-0.7
					c0.4-1.1,2.8-4.2,3.7-5.5c1.2-1.8,2.6-3.7,3.6-5.5c-0.6-0.8-3.1-2.2-4-2.7c-2.5-1.5-1.6-1.5-4.8-2c-12-1.8-9.7-0.6-21.5-6
					c-10.3-4.8-5.6-3.2-9.6-2.3c0.1,0.1,0.1,0.1,0.2,0.2c0.1,0.5,3.7,2.3,4.2,2.6c1.5,0.9,2.9,1.8,4.3,2.6c3.9,2.3,9.9,6.5,13.3,9.4
					c2.9,2.4,5.5,5,7.8,8.1c8.3,11.4,9.7,21.7,10.2,35.5c0.2,4.3-0.2,9.5,0.2,13.6c1.8-1,3.7-1.2,6-0.5
					C-382.6,526.4-382.4,526.5-382,527z"/>
				<path fill="#9B2B3C" d="M-586.9,533.7c-1.3-3.3-3.9-7.9-4.6-10.5c-0.5,0.7,0,2.1,0.2,2.8l2.1,8.4c2.5,10.2,5.5,24.2,8.1,33.5
					c3.8,13.4,3.7,11.1-0.1,21.4c-2.1,5.6-35.9,100.4-36.3,102.5c0.4-1.6,3.5-8.1,4.5-10.5c1.5-3.4,2.9-7,4.5-10.5l36-83.7
					c3.2-7.6,3.7-6.4,2.1-10.4c-1.4-3.6-2.8-7.2-4.1-10.8L-586.9,533.7z"/>
				<path fill="#9B2B3C" d="M-494.9,575.2c-0.7,0.7-13.1,6.7-14.6,7.2c3.2,16.2,7.4,32.9,10.5,48.8c0.7,3.4,0.1,3,4.4,5.4
					c2.2,1.3,4.2,2.5,6.3,3.8c4.2,2.6,8.1,4.9,12.2,7.5c9.5,6.1,20.9,12.7,30.7,18.8c2.2,1.4,4.2,2.7,6.4,3.9c-1.4-2-8.4-6-9.4-7.4
					c-1.4-0.6-9.8-7-12.1-8.6l-16.2-11.8c-3.8-3-10.1-7.1-14-10.2c-0.5-0.4-0.8-0.5-1.2-0.9c-1.3-0.9-0.7-0.2-1.5-4.5
					c-0.9-4.5-1.8-8.9-2.7-13.4l-3.7-28.8c2.2-0.4,12.1-5.6,15-6.9l14.8-6.9l-0.6-0.2L-494.9,575.2z"/>
				<path fill="#9B2B3C" d="M-558.9,608.5c0.3,0.4,0.8,0.8,1.2,1.4c0.5,0.6,0.8,0.9,1.2,1.5c0.5,0.6,0.8,0.9,1.2,1.5
					c1.2,1.7,4.5,6.3,6.5,7c5.4,1.9,10.8,3.7,16.2,5.6c5.3,1.9,3.7,0.2,6.1,4.6c1.9,3.5,10.8,20.2,11.8,21.1l-11.7-32.4
					c-1.4-3.8-0.7-3-3.9-5c-2.5-1.6-9-5.3-10.8-6.8l2.3-13.9c-1-0.4-0.9-0.4-1.7-1c-0.6-0.5-0.9-0.6-1.5-1.2l-9.2-7.3
					c0.4,1.8,6.7,8.9,5.9,10.1l-5.5,5.8c-0.4,0.6-0.7,1-1.2,1.5c-0.7,0.8-0.9,0.7-1.6,1.4c-0.9,0.9-1.6,2.2-2.6,3.1
					C-557.1,606.3-558.1,606.7-558.9,608.5z"/>
				<path fill="#9B2B3C" d="M-447.3,660.8l2,1.6c0.8,0.7,1.1,1,1.9,1.7l13.9,11.5c1,0.6,1.4,0.3,2.7-0.1c1.9-0.6,3.8-1.2,5.8-1.7
					c2-0.6,10.8-2.9,11.3-3.5l2-7.8c-0.3-1.2-1,0.3-1.5,0.7c-0.9,0.6-7.5,1.1-8.9,1.3c-4,0.4-8.3,0.7-12.2,1.4
					c0.3-0.9,0.7-1.6,1.1-2.4c0.3-0.5,0.5-0.7,0.8-1.1c0.3-0.5,0.1,0.2,0.3-0.5c0.1-0.3,0-0.4,0-0.5c-1.9,1.1-3.1,2.5-4,3l-6.7-4.1
					c-1.6-1-5.7-3.3-6.7-4.3c-2.8-1.5-5.5-3.4-8.2-5c-2.6-1.5-5.4-3.3-7.8-4.9c-0.7-0.2-0.8,0.1-1.2-0.9l-12.7-7.4
					c2.3,2.2,4.6,3.7,7,5.8l18.7,15.3c0.4,0.4,0.5,0.3,0.9,0.6C-448.1,660.1-448.1,660.3-447.3,660.8z"/>
			</g>
			<g>
				<path fill="#505342" d="M-428.6,495.5c0.9,0,11.2,3.4,12.2,4.1l5.6,1.8c-2-2-12.9-9.5-13.1-10.1l0.2-15.8
					c-3.9-2.6-8.4-5.2-12.6-7.6c-14.1-8-24.7-14-41-19.6c-10.4-3.5-22.9-4.6-33.9-6.4c-4-0.7-2.6-0.6-7.8,1.9
					c-5.8,2.8-15.1,7.6-20.5,9.9l1.9,12c0.4,0.8,14.5,4.3,15.1,4.5c5.5,1.6,17.1,4.8,22.2,6.8c7.8,3,4.8,3.2,14.1-0.8l20.7-8.5
					c1.5-0.2,18.6,5.1,22.7,6.2c4.2,1.1,3.2,1.5,5.1,4.7c1.2,2,2.5,4.2,3.6,6.3c1.1,2.1-0.2,5.7-0.2,8.3
					C-432.6,494-429.9,494.3-428.6,495.5z"/>
				<path fill="#505342" d="M-571.4,523.8l0.5,11.1c2.8,0.9,7.3,0.7,10.1-0.2c4.4-1.4,10.9-8.1,13.6-8.7
					c2.7-0.7,40.5,13.9,41.2,14.4l-0.5,4.4l-40.5-14.7c-4.1,8.2,2,23.3,7.8,30.6c0.4,0.6,0.5,0.7,0.9,1.2l5.6,6
					c0.3,0.3,3.4,2.9,4.3,3.1c-0.8-0.4-9.3-11.9-10.6-13.8c-1.6-2.5-3.7-5.6-2.6-9.2c0.8-2.8,3.5-5.5,6.1-6.4
					c4-1.5,11.1,1.3,14.6,3.3c2.2,1.3,2.2,0.5,4.5-0.3c2.5-0.9,13.6,5.1,18.1,6.1l-1.3-19.9c-0.6,0.7-2.3,4.4-2.5,5.5
					c-5.7-1.7-12.1-4.1-17.7-6.2l-26-9.1c-5.2-1.9-3.9-2.4-8.1,0.2C-567.6,529.2-563.9,523.6-571.4,523.8z"/>
			</g>
			<g>
				<path fill="#1D291A" d="M-517.4,723.4c3.1-10.2,6.4-20.6,9.6-31c0.2-0.8,1.2-3.4,1-4l-12.1-15.6c-1.8-2.4-1.3-2.1-5.1-2.4
					c-3.2-0.2-6.4-0.6-9.6-0.9c-1.8-0.2-3,0.2-3.9-1.1c-1.9-2.6-8.8-13.7-10.5-14.9l-26.6-14.1c-1.5,1.9-3.2,3.5-5,5.1l-4.9,4.9
					c-2.3,2-4.7,3.9-6.6,6.3l-6.4,5.8c-1.1,1-1,1.6-1.6,3.4l-9.2,30.4c-0.4,0.7-23.1,15.4-27,17.8c-1,0.6-1.9,1.2-2.9,1.8
					c-2.1,1.4-10.4,7-12.1,7.7l2.5-0.1c0.8-0.1,1.5-0.2,2.3-0.3l14.6-2.1c4.3-0.6,56.2-19.9,58.2-19.6l13.3,8.8
					c2.2,1.5,4.4,3,6.6,4.5c3.6,2.5,2.5,2.8,7.2,1.3l25.3-7.9L-517.4,723.4z"/>
				<path fill="#1D291A" d="M-535.5,606.2c-0.2-2.7-0.2-5.8-0.3-8.5c-0.1-3,2.2-3.8,3.7-5c1.1-0.9,0.6-1,2.2-2.3
					c0.8-0.6,1.7-1.2,2.3-1.9c1-1,2.4-2.9,4.4-4c1.7,6.8,4.5,13.7,6.4,20.5l12.9,40.3c0.7,1.2,7.2,3.6,9,4.4l8.9,4
					c0-0.1,0.1,0.1,0.2,0.1l-19.8,11.7c-1.6,0.9-1.6,0.6-3.4,0.1c-1.2-0.4-2.6-0.8-3.7-1.2c0.5-6.5,2.7-10.4,1.2-13.9
					c-4.1-10.2-8.6-24-12.7-34.7c-1.6-4.3-0.5-3.8-4.5-5.9C-530.6,608.8-534.1,607.4-535.5,606.2z M-558.9,608.5
					c0.8-1.8,1.9-2.2,2.7-3c0.9-0.9,1.6-2.2,2.6-3.1c0.7-0.7,0.9-0.6,1.6-1.4c0.5-0.5,0.8-1,1.2-1.5l5.5-5.8
					c0.9-1.2-5.5-8.3-5.9-10.1l9.2,7.3c0.6,0.5,0.9,0.6,1.5,1.2c0.8,0.6,0.7,0.6,1.7,1l-2.3,13.9c1.8,1.6,8.3,5.2,10.8,6.8
					c3.2,2,2.5,1.2,3.9,5l11.6,32.3c-1-0.9-9.9-17.7-11.8-21.1c-2.4-4.4-0.8-2.7-6.1-4.6c-5.4-1.9-10.8-3.7-16.2-5.6
					c-1.9-0.7-5.3-5.3-6.5-7c-0.4-0.6-0.7-0.9-1.2-1.5c-0.4-0.5-0.8-0.9-1.2-1.5C-558.2,609.3-558.6,608.9-558.9,608.5z
					 M-558.5,578.4c1.2,2,6.9,12.6,7.2,14l-4.9,6.9c-0.8,1.1-1.6,2.4-2.4,3.6l-10.7,15.5c0,0.1-0.5,0.9-0.6,0.9
					c-0.3,0.6-0.2,0.1-0.3,0.9c0.6,0.8,0.2,0.2,1.2,0.8c0.5,0.3,0.9,0.6,1.2,0.8c1-0.5,6-10.1,7.2-11.1c1,1,1.7,2.4,2.6,3.7
					c6,8,2.7,6.6,9.7,9.1l13.8,5c1.5,0.6,3.5,0.9,4.3,2c1.9,2.6,13.9,23.3,13.9,23.6c0,0-0.8,9.6-2,10.2c-0.1,0.7-0.2,0.2,0.5,0.8
					c0.1,0.1,0.8,0.6,1,0.8c0.9,0.6,1.5,0.9,2,1.8l17.4,6.6c1.5-0.2,2-2.5,3.1-3.2c0.7-0.5,18.8-1.8,21.3-2
					c7.6-0.8,14.7-0.4,22.4-0.5c0.3-0.4,0.7-1,0.9-1.5c-0.4-0.5-11.6-5.7-13.2-6.5c-2.6-1.2-4.3-2.3-6.7-3.5l-19.2-10.2
					c-4.1-2.3-8.7-4.4-12.9-6.8c-1.3-0.7-1.2-1.9-1.7-3.4l-13.2-41.4c-1.5-4.6-3.6-10.5-4.7-15.1c3.4-1.5,20.9-3.4,26.3-4.9
					l24.3-4.1l1.1-0.8c-2.3-2.1-15.3-9.3-16-10.5l-0.6,0.8c-3.9-1.4-8.4-2.5-12.5-3.8l-24.5-7.4c-3.6-1.2-10-1.8-13.9-1.8
					c0,0.7,10.1,19.2,11.8,22.4c0.7,1.3,1.7,2.5,1.1,3.8c-0.5,1.1-1.4,2.9-2.5,3.6c-1.3-2-2.5-2.8-4.3-4.3c-1-0.8-1.1-1.4-2-2.2
					c-3-2.7-1.6-0.9-4.3-4c-1.2-1.3-3.2-2.4-4.4-4l-6.6-6.2c-1.3-1.3-4.4-15.1-5.9-19.2l-13.2,3.4c1.4,4.7,8.1,21.2,10.5,28.6
					c0.6,1.8,1.7,3.3,1,5C-556.5,575.8-557.1,577.8-558.5,578.4z"/>
				<path fill="#1D291A" d="M-553.1,464.8l-3.8-0.1c9.6,3.3,19.8,6.3,29.6,9.4c10,3.1,19.8,6.3,29.7,9.4c11,3.3,33.8,10.2,44.2,14.2
					c4.5,1.8,9.8,4,14.3,5.4c1-1.8,1.9-1.5,1.5-3c-0.2-0.8-1.1-2.7-1.4-3.6c-1.8-4.6-2-2.8-0.5-7.4c0.4-1.4-3.9-7-5.3-9.1
					c-1-1.6-0.7-1.7-2.9-2.1c-5.4-1.1-11-2.7-16.3-4c-2.6-0.6-4.9,1.1-7.2,2c-2.5,1-4.9,2.1-7.4,3.1c-10.4,4.1-8.1,4.9-15,2.8
					c-4.8-1.4-47.3-13-47.9-13.6c-0.8-1.7-0.9-9.1-1.1-11.5c-0.1-1.3,0.7-6.5,1.3-7.8c0.4-0.8-0.2-0.3,1.9-1.4l20.7-10.7
					c1.4-0.7,2.7-1.9,4.4-1.7c3.3,0.2,7.6,1.1,11,1.6c7.3,1.1,14.7,2.2,22,3.1c0.4-0.9,0.7-1,1.1-1.8l34.1,4.6
					c-2.1-1.2-5.1-1.8-7.6-2.7c-2.6-0.9-5.2-1.8-7.8-2.7l-31.3-10.7c-3.8-1.3-4-1.8-8.1-1.2c-3,0.5-6,0.9-9,1.4
					c-4,0.6-14.6,1.7-17.2,3.4c-4.3,2.8-8.4,5.6-12.6,8.3c-6,3.8-4,2.6-9,11.9c-1.2,2.3-2.2,4.5-3.5,6.9
					C-554.5,461.6-554.1,459.7-553.1,464.8z"/>
				<path fill="#1D291A" d="M-472.3,619.2l-1,2.3c1.8,1.9,4,4.5,5.9,6.2c0.7,0.7,1.1,0.7,1.9,1.4c3.4,3.3,14.5,15.9,16.3,16.8
					c0.7-0.3,0.8,0.6-0.3-2.4l-2.6-7.8c-0.9-2.4-0.3-3.2,0.3-5.7c1-4.7,6.4-27.7,6.3-28.5c-0.1-0.6-3.9-3.5-4.7-4.1l-4.8-4.1
					l-12.4,25.8C-469,619.4-470.7,619.5-472.3,619.2z"/>
				<path fill="#1D291A" d="M-448.4,663.3l1.2-2.4c-0.8-0.6-0.9-0.8-1.6-1.4c-0.4-0.3-0.5-0.3-0.9-0.6l-18.7-15.3
					c-2.4-2.1-4.7-3.7-7-5.8l12.7,7.4c1,0.5,0.7,0.2,1.2,0.9c2.3,1.6,5.1,3.4,7.8,4.9c2.7,1.6,5.4,3.4,8.2,5
					c0.3-0.8,0.2-0.1-0.2-1.3c-0.3-0.8-0.3-0.5-0.3-1.4c-0.9-1-11.3-6.6-13.3-7.7c-2.3-1.3-4.4-2.6-6.6-3.8c-1.7-1-5.4-2.9-6.6-3.9
					c-1.9-0.9-4.1-2.2-5.9-3.3l-11.8-6.7c-1.1-1-1.5-5.7-1.8-7.5c-0.9-5.3-1.8-10.5-2.7-15.8c-0.9-4.9-2.2-10.8-2.7-15.7
					c0.8-1,24.9-12.3,28.1-13.6l-0.4-0.4c0,0-0.3-0.2-0.4-0.3v-3.1l-14.8,6.9c-2.9,1.3-12.8,6.5-15,6.9l3.7,28.8
					c0.8,4.5,1.8,8.9,2.7,13.4c0.8,4.3,0.2,3.6,1.5,4.5c0.4,0.3,0.7,0.5,1.2,0.9c3.9,3.1,10.2,7.2,14,10.2l16.2,11.8
					C-458.2,656.3-449.9,662.7-448.4,663.3z"/>
			</g>
			<path fill="#2E392D" d="M-469.8,503.9c-2.3,1.7-9.2,14.1-11.1,17.3c-5.8,9.7-6.2,9.3-2.6,10.5c9,3,7.8,3.9,11.1-1.7
				c0.9-1.6,1.8-2.9,2.7-4.5c1.2-2.1,10.5-16.7,10.2-17.9c-0.3-1.2-3.6-1.9-4.8-2.3C-466,504.8-468,503.8-469.8,503.9z"/>
			<path fill="#2E392D" d="M-470.7,571.1l0.6,0.2v3.1c0.1,0,0.3,0.2,0.4,0.3l0.4,0.4l1.5-0.9l0.5-2.9l-2.2-1.1L-470.7,571.1z"/>
			<path fill="#B98C2A" d="M-416.9,797.3l-18.1-7.6c-6.1-2.4-12.1-5.1-18.2-7.4c-9.7-3.7-23.3-9.9-32-13c-1.4-0.5-1.4-0.2-1.9-1.4
				c-0.3-0.6-0.5-1.6-0.7-2.3c-0.8-2.6-6.6-17.5-6-18.9l4.8-8c7.5-12.5,17.1-27.8,24-40c-1.6,0.9-1.2,0.7-2.2,2.1
				c-0.8,1.1-1.1,1-1.9,2c-1.5,2-1.2,1.2-2,2.2c-0.9,1.1-0.6,1-1.8,2.1l-4.8,5.4c-1.7,1.8-4.3,5.2-6.4,7.3c-0.8,0.7-0.9,1.4-1.7,2.2
				c-0.7,0.7-0.4,0.2-1.1,1l-1.8,2c-0.4,0.4-0.5,0.7-0.9,1.2l-14,15.8c-1.7,1.6-0.7,1.1-2.8,3.1l-5.5,6.4c-2.9,3.7-3.3,1.3-2.8,8.2
				c1.3,17.5-1.1,14.4,7.3,16.3C-477.4,782.9-446.9,790.8-416.9,797.3z"/>
			<path fill="#892B39" d="M-416.8,570.7c0.6-0.5-0.4-0.1,1-0.5c0.2,0,1-0.1,1.2-0.1c-0.5-0.7-0.2-0.3-0.9-0.8
				c-0.3-0.2-0.5-0.2-0.8-0.3c1.2-2.3,6.8-1.6,8-4.3c-0.4-1.2-0.4-2.6-1.1-3.3c-2.2-2.2-4.9-1.5-4.5-4.6c0.2-1.6,0.4-3,0.6-4.6
				c-0.2,0-9.5-2.6-9.4-4.3c0-0.8,1.8-1.5,3.4-2.6c2-1.4,1.7-1.5,4.7-1.6c2.9-0.1,9.6-0.6,12.2-0.2c0.3,1,1,4.2,0.4,5.1l0.2,1.1
				c1,0.9,0.7,2.1,1.1,3.5c0.3,1.3,0.7,2.5,1,3.8c0.9-0.2,0.5,0.1,0.9-0.4c-0.3-3.1-1.3-7.1-1.9-10.2c-0.3-1.4-0.5-3.5-1.2-4.8
				c-0.7-1.3-1.8-2.4-2.5-3.7c-0.5,0.3,0.2,0.3-0.9,0.2c-1.1,0-0.9-0.7-3.1-0.3c-1.2,0.2-2.6,0.7-3.8,1c-1.6,0.5-10.2,2.8-10.3,5
				c0,0.2,0.3,0.4-1,1.5l-4.8,4.7c-3.1,4.7-5.1,6.3,0.7,12.2l5.3,4.2C-420.8,567.8-418.6,569.2-416.8,570.7z"/>
			<path fill="#CC435A" d="M-381.2,539.9c1.1,0.7,1.4,1.3,2.1,2.3l0.7,0.9l-10.6,6.5c-2-2-2.5-1.9-3.1-3.2L-381.2,539.9z
				 M-406.3,533c0.7,0.8,1.4,1.1,2.2,2c0.6,0.7,0.2,0.5,0.9,1.1c3.5,3.4,2.9,0.7,4,6.4c0.7,3.9,1.5,10.5,2.6,14.1l3.5,0.1
				c-0.7,0.9-0.9,0.9-1.9,1.4c-0.5,1-0.5,1.9-0.7,3l0.4-0.3c0,0,0.3-0.2,0.3-0.3c1.6-1.4,2.9-4,3.6-5.9c1-2.8,0.2-1.8,5.7-5
				c2.3-1.4,4.4-2.6,6.7-4c2.8-1.7,2.1-0.8,2.8-2.6c0.3-0.9,1-3.1,1.5-3.6c-0.4-1.9-3.6-8.4-4.9-10.2s-1-2.3-2.4-2.3
				c-1.2,9.7-1.4,12.9-10.2,16l-0.4-3.2c5.6-1.5,7.6-5.3,6.2-10.7c-1,0-2.6,1.3-3.8,1.8C-395.1,533-401.3,533.1-406.3,533z"/>
			<path fill="#EFD5BC" d="M-490.6,420.7l-0.1,0.3c4.2,0.7,18.8,5.6,23.8,7.2c7.7,2.5,15.1,5.6,22.2,8.8c5,2.2,10.5,5.3,14.6,8.6
				c6.6,5.3,16.5,12.2,25,13.9c-0.6-1.3-2.1-2.2-3.8-4c-0.9-1-0.6-1.1-1.9-2l-6.5-5.1c-1.7-1.2-2.8-2-4.6-3.2
				c-5.8-3.9-13.1-7.7-20.3-10.7C-453.9,429.7-478.1,421.3-490.6,420.7z"/>
			<path fill="#67202B" d="M-403.9,552.7c-4.6,7.7-7.5,4.9-7.5,0.6c0-1.4,0.4-2.2,1.2-2.8C-405.1,546.8-402.6,550.6-403.9,552.7z
				 M-408.2,564.7c1.5,0.2,4.3-2.1,5.2-2.8c0.8-0.7,3-3.2,3.1-4.9c-0.2-1.3-0.7-2.5-1-3.8c-0.3-1.4-0.1-2.6-1.1-3.5
				c-3.6-4.7-10.9-1.8-16.5-1.9c-0.9,0.5-0.9,0.4-2,0.5c0.2-0.2,0.2-0.3,0.6-0.5c0.5-0.2,0.3-0.1,1-0.2c5.4-0.7,13.7-3.9,16.7,1
				c0.7-0.9-0.1-4.1-0.4-5.1c-2.5-0.4-9.3,0-12.2,0.2c-3,0.1-2.7,0.2-4.7,1.6c-1.6,1.1-3.3,1.8-3.4,2.6c-0.1,1.7,9.2,4.3,9.4,4.3
				c-0.2,1.6-0.4,3-0.6,4.6c-0.3,3.1,2.3,2.4,4.5,4.6C-408.6,562.1-408.6,563.5-408.2,564.7z"/>
			<path fill="#742430" d="M-419.1,656.5c-1,0.2-1.6,0.3-2.3,1.1l1-0.1c-1.3,0.7-2.5,1.3-3.9,2c-1.2,0.5-3.4,1-4,1.9
				c0,0.1,0.1,0.2,0,0.5c-0.2,0.7,0.1,0-0.3,0.5c-0.2,0.4-0.5,0.6-0.8,1.1c-0.4,0.8-0.8,1.5-1.1,2.4c3.9-0.6,8.2-0.9,12.2-1.4
				c1.4-0.2,8.1-0.7,8.9-1.3c0.6-0.4,1.2-1.8,1.5-0.7c0.2-0.5,0.2-0.7,0.5-1.2c0.6-0.9,0.2,0,0.9-1.2l-1-9.8
				c-0.6,0.5-0.7,0.6-0.7,2.4c0,0.7,0,1.4,0,2.1c-1.1,0-4.5,0.7-5.7,0.9c-0.9,0.2-2.2,0.3-3,0.5
				C-419.5,656.8-419.1,657.8-419.1,656.5z"/>
			<path fill="#FFD325" d="M-375.5,488.8c0.8,0.6,2.9,4,3.2,5c0.7-0.6,0.1,0.3,0.4-0.6c0.1-0.4,0.2-0.6,0.2-1
				c0.1-0.6,0.1-1.6,0.1-2.3c-0.7-1.2-1.3-7.6-1.6-9.4c-0.5-3.5-1.4-2.5-6.1-5.3c-0.2-0.9,0-2.3,0.1-3.2c0.1-1.1,0.2-2.7,0.5-3.3
				l-1.6-1.6c-1,1.9-3.9,8.4-4,10.3c1.7,1.5,3.2,3.4,4.6,5.3C-378.5,484.4-376.2,487.2-375.5,488.8z"/>
			<path fill="#26050A" d="M-404.6,537.9c0.7,1.4,1.9,2.4,2.5,3.7c0.7,1.3,0.9,3.4,1.2,4.8c0.6,3.1,1.6,7.1,1.9,10.2l0.6,2.5
				l3.3-0.9c1-0.5,1.2-0.5,1.9-1.4l-3.5-0.1c-1.1-3.5-1.9-10.1-2.6-14.1c-1.1-5.8-0.5-3.1-4-6.4c-0.7-0.7-0.3-0.4-0.9-1.1
				c-0.7-0.9-1.5-1.1-2.2-2c-1.3-0.4-0.5-0.1-0.6-0.6c-1.6-0.8-0.3-0.6-2.7-2.5c-0.8-0.6-1.9-1.6-2.6-2.2
				C-411.8,528.1-405.8,536.7-404.6,537.9z"/>
			<path fill="#FFDA26" d="M-373,541.1c0,0.3,0,0.6,0,0.8c0.6,2-0.7-1.6,0.2,0.5l0.3,0.5c0.7-4.2,1-4.3,0.8-8.8
				c-0.2-3.1-0.5-6.4-0.7-9.5c-0.6-6.3-1.5-11.8-2.4-18c-0.4,0.4-0.1-0.3-0.5,0.8v3.4C-374.4,521.5-373.4,529.9-373,541.1z"/>
			<path fill="#FFEA9B" d="M-371.6,490c0.1-4.2-0.4-8.4-1.7-12.3c-0.5-1.6-1.3-3.4-2.2-4.7c-0.5-0.9-0.8-1.3-1.4-2.1
				c-0.3-0.4-0.4-0.7-0.7-1c-0.3-0.4-0.6-0.6-1-0.9c-0.3,0.6-0.4,2.2-0.5,3.3c-0.1,0.9-0.3,2.2-0.1,3.2c4.7,2.7,5.6,1.7,6.1,5.3
				C-372.9,482.4-372.3,488.8-371.6,490z"/>
			<path fill="#822735" d="M-460.4,575.4c1.2,0.5,0.4,0.1,1.3,0.8c0.5,0.4,0.9,0.7,1.4,1c0.8,0.6,1.8,1.6,3,1.7
				c-1-2.7-1.2-8.2-2.6-10.3L-460.4,575.4z"/>
			<path fill="#1B2C2D" d="M-376.3,489.1l3.7,5.4l0.5-0.1c-0.9,0.2-0.1,0.1-0.3-0.6c-0.3-1-2.4-4.4-3.2-5l-0.6,0.2
				C-376.1,489-376.2,489.1-376.3,489.1C-376.2,489.1-376.2,489.1-376.3,489.1z"/>
			<path fill="#697388" d="M-418.4,547.8l-0.4-0.2c-0.7,0.1-0.5,0-1,0.2s-0.4,0.3-0.6,0.5C-419.3,548.2-419.3,548.3-418.4,547.8z"/>
			<path fill="#716D5A" d="M-583.4,530.7h0.2c-0.3-1.1,0-0.7-0.7-1.2c0,0.3,0,0.3,0.1,0.6C-583.6,530.5-583.5,530.5-583.4,530.7z"/>
			<path fill="#9B8535" d="M-617.9,644l0.5,0.3c0.1-0.1,0.3-0.4,0.4-0.9C-617.9,643.7-617.2,643.3-617.9,644z"/>
			<path fill="#68252D" d="M-461.5,646c-0.4-0.7-0.2-0.4-1.2-0.9C-462.3,646-462.3,645.8-461.5,646z"/>
			<polygon fill="#7A7564" points="-443.2,521.7 -442.8,522.1 -442.7,521.1 			"/>
			<path fill="#A79A85" d="M-490.7,421.1l0.1-0.3L-490.7,421.1z"/>
			<path fill="#8D7630" d="M-414.5,797.6l-0.1,0.4L-414.5,797.6z"/>
		</g>
	</g>
</g>
</svg>
