<?xml version="1.0" encoding="utf-8"?>
<!-- Generator: Adobe Illustrator 19.0.0, SVG Export Plug-In . SVG Version: 6.00 Build 0)  -->
<svg version="1.1" id="Layer_1" xmlns="http://www.w3.org/2000/svg" xmlns:xlink="http://www.w3.org/1999/xlink" x="0px" y="0px"
	 viewBox="936 -1120.8 2051.8 2361.8" style="enable-background:new 936 -1120.8 2051.8 2361.8;" xml:space="preserve">
<style type="text/css">
	.st0{fill:#CB2D22;}
	.st1{fill:#E5B797;}
</style>
<g id="Layer_x0020_1">
	<g id="_532274735840">
		<path class="st0" d="M1809.7,1166c264.6,194.4,741.4-68.8,929.7-309.3c26.9-34.4,51.5-66,75.6-105.2
			c304.4-494.4,192.8-976.2-225-1375.4c-81.9-62.5-264-178-356.2-182.7l-1.5,54.9c14.6,10.8,191.6,55.3,355.9,198.1
			c262.8,228.3,398.3,611.9,310.2,965.2c-75,300.7-276.7,567.2-562.2,690.1c-98.3,42.3-274.9,105.1-380.1,48.7
			c-92.7-49.7-132.9-225.5-38.7-317.9c56-54.9,28.1-27,87.5-68.4c110.7-77.3,172.6-131.5,187.5-279.7c5.1-50.3,19-265.3-6.2-290.2
			c-11.8,11.2-18.2,48.7-28.8,68c-53.2,96.8-176.7,161-272.1,226.5c-70.4,48.3-163.2,115.9-192.2,206.6
			c-24.4,76.5-29.7,75.6-30.2,169.2C1662.2,972,1717.4,1105.6,1809.7,1166z"/>
		<path class="st0" d="M1721,1180.4c-271.5-151.7-333.4-530.2-196.3-790.6c103.4-196.4,259.4-271.3,454.4-374.4
			c162.1-85.7,230.9-170.1,225.8-348.1c-0.4-13.9-0.9-28.1-2.2-39.7l-10.3-37.8c-5.1,5.9-3.3,3.2-8.7,12.3
			c-2.8,4.6-6.2,11.8-8.9,16.9c-6,11.5-9.1,17.3-16.6,26.9c-140.1,178.4-552.1,156.6-752.4,581.1c-90.8,192.4-77.9,382.7-9.6,585.4
			c15.7,46.5,35,79.7,57.3,117.8C1578.9,1144.5,1749.1,1200.5,1721,1180.4z"/>
		<path class="st1" d="M1804.5,1177.6c-169.6-133.1-222.7-377-102.6-560.8c49.7-76.1,113.2-129.5,189.3-178.4
			c84.5-54.4,122.5-58.7,208.4-159.3C2206.5,154,2206-86.3,2186.2-115.8c-11.6,9.6-23.8,33.4-32.1,44.4
			c-151.2,200.9-474.6,237.8-602,513.7c-33.1,71.6-63.3,139.7-66.2,235c-2.6,86.5,13.7,189.3,46.6,254.7
			c46.6,92.9,115.5,191.5,209.3,240.1C1776,1187.9,1905.4,1256.7,1804.5,1177.6z"/>
		<path class="st1" d="M1600,1127.1c-281.2-247-381.4-779.9-153.7-1089.9c102.9-140.1,270.9-237.3,432.9-308.8
			c85.5-37.7,154.7-54.3,242.4-125.2c75.7-61.3,108-135.6,93.7-280.9c-30.9,23.9-17.5,56.5-84.5,109.4
			c-42.2,33.2-70,50.9-123.1,76.1c-148.7,70.5-222.4,38.2-480.4,211.6c-76.1,51.1-182.5,185-229.6,268.7
			c-103.7,184.3-120,440.6-53.8,658.5c8.3,47.1,78.4,188,158.9,303.5C1476.9,1056.4,1560.4,1140.6,1600,1127.1z"/>
		<path class="st0" d="M1549.9,1114c-339.5-227.6-514.7-886.1-305.2-1222.3C1363-304.9,1478-404,1720.9-498.3
			c137.5-53.4,355.9-102.1,434.4-220.1c19.1-28.7,60.4-132.3,30.9-173.6c-26.1,28.5,9,113.8-238.2,196.9
			c-244.2,82.2-401.1,80.7-611.1,273.7c-65.7,60.4-141.2,149.3-189.4,253.5c-55.9,120.8-80.7,201-91.1,352.4
			c-7.3,105.8-7,81.5,2.9,193.5c19.2,216.7,165.1,532.7,340.6,658.9C1429.1,1058,1535.6,1146.1,1549.9,1114z"/>
		<path class="st0" d="M1849.6-850.3c-256.7,44.3-406,105.1-591.1,269.7c-94.1,83.6-195.1,233.7-247.1,370
			c-195.5,512.4-2.7,1117.1,486,1352.3c62,29.8,109.6,50,182.4,67.2c35,8.3,64.5,16.4,101.8,23.9c27.3,5.4,92.7,15.7,114.6-0.6
			c-24.8-13.4-31.9-7.4-59.1-12.7c-283.9-47.8-450.1-137.4-625.4-371.5c-64.1-85.5-132.2-195.2-170.1-316.7
			C879.5,10.6,1097.1-535.8,1616-734c138.8-53,449.5-69.4,527.7-201.7c21.5-36.4,68.9-126.4,44.3-185.2
			c-16.6,36.6-12.8,66.9-38.4,110.3c-18.4,31.3-45,58.6-72.2,77.2C2014.3-890.3,1938-862.8,1849.6-850.3z"/>
		<path class="st1" d="M2233.1,1013.9c28.3-105.7-47.6-199.6-128.3-217.3c-103.5-22.6-188.6,44.7-209,126.4
			C1836.2,1160.7,2171.8,1243,2233.1,1013.9z"/>
	</g>
</g>
</svg>
