<?xml version="1.0" encoding="utf-8"?>
<!-- Generator: Adobe Illustrator 19.0.0, SVG Export Plug-In . SVG Version: 6.00 Build 0)  -->
<svg version="1.1" id="Layer_1" xmlns="http://www.w3.org/2000/svg" xmlns:xlink="http://www.w3.org/1999/xlink" x="0px" y="0px"
	 viewBox="746 -700.8 2051.8 2361.8" style="enable-background:new 746 -700.8 2051.8 2361.8;" xml:space="preserve">
<style type="text/css">
	.st0{fill:#3A3A44;}
	.st1{fill:#F5F5FE;}
</style>
<g id="Layer_x0020_1">
	<g id="_532274735840">
		<path class="st0" d="M1645,1401.6c220.5,162,617.7-57.3,774.6-257.7c22.4-28.7,42.9-55,63-87.7
			c253.6-411.9,160.6-813.4-187.5-1146c-68.2-52.1-220-148.3-296.8-152.2l-1.2,45.7c12.2,9,159.6,46.1,296.5,165.1
			c219,190.2,331.9,509.8,258.5,804.2c-62.5,250.5-230.5,472.6-468.4,575c-81.9,35.2-229,87.6-316.7,40.6
			c-77.2-41.4-110.7-187.9-32.2-264.9c46.7-45.7,23.4-22.5,72.9-57c92.2-64.4,143.8-109.6,156.2-233c4.2-41.9,15.8-221-5.2-241.8
			c-9.8,9.3-15.2,40.6-24,56.7c-44.3,80.7-147.2,134.1-226.7,188.7c-58.7,40.2-136,96.6-160.1,172.1c-20.3,63.7-24.7,63-25.2,141
			C1522.2,1239.9,1568.1,1351.2,1645,1401.6z"/>
		<path class="st0" d="M1571.1,1413.6c-226.2-126.4-277.8-441.8-163.6-658.7c86.2-163.6,216.1-226,378.6-311.9
			c135.1-71.4,192.4-141.7,188.1-290c-0.3-11.6-0.7-23.4-1.8-33.1l-8.6-31.5c-4.2,4.9-2.7,2.7-7.2,10.2c-2.3,3.8-5.2,9.8-7.4,14.1
			c-5,9.6-7.6,14.4-13.8,22.4c-116.7,148.6-460,130.5-626.9,484.2c-75.7,160.3-64.9,318.9-8,487.8c13.1,38.7,29.2,66.4,47.7,98.2
			C1452.7,1383.7,1594.6,1430.3,1571.1,1413.6z"/>
		<path class="st1" d="M1640.7,1411.2c-141.3-110.9-185.6-314.1-85.5-467.3c41.4-63.4,94.3-107.9,157.7-148.6
			c70.4-45.3,102.1-48.9,173.6-132.7c89.1-104.2,88.7-304.5,72.2-329c-9.7,8-19.8,27.8-26.7,37c-126,167.4-395.4,198.1-501.6,428
			c-27.6,59.7-52.7,116.4-55.2,195.8c-2.2,72.1,11.4,157.7,38.8,212.2c38.8,77.4,96.2,159.6,174.4,200.1
			C1617,1419.8,1724.8,1477.1,1640.7,1411.2z"/>
		<path class="st1" d="M1470.3,1369.2c-234.3-205.8-317.8-649.8-128.1-908.1C1428,344.3,1568,263.3,1703,203.8
			c71.2-31.4,128.9-45.2,202-104.3c63.1-51.1,90-113,78.1-234c-25.7,19.9-14.6,47.1-70.4,91.2C1877.4-15.8,1854.3-1,1810,20
			c-123.9,58.7-185.3,31.8-400.3,176.3c-63.4,42.6-152.1,154.1-191.3,223.9c-86.4,153.6-100,367.1-44.8,548.7
			c6.9,39.2,65.3,156.6,132.4,252.9C1367.8,1310.3,1437.3,1380.4,1470.3,1369.2z"/>
		<path class="st0" d="M1428.6,1358.2c-282.9-189.6-428.8-738.3-254.3-1018.4c98.6-163.8,194.4-246.4,396.8-324.9
			c114.6-44.5,296.5-85.1,361.9-183.4c15.9-23.9,50.3-110.2,25.7-144.6c-21.7,23.7,7.5,94.8-198.5,164.1
			c-203.5,68.5-334.2,67.2-509.2,228c-54.7,50.3-117.6,124.4-157.8,211.2c-46.6,100.7-67.2,167.5-75.9,293.6
			c-6.1,88.2-5.8,67.9,2.4,161.2c16,180.6,137.6,443.8,283.8,549C1327.9,1311.6,1416.7,1385,1428.6,1358.2z"/>
		<path class="st0" d="M1678.3-278.4c-213.9,36.9-338.3,87.6-492.5,224.7C1107.4,16,1023.2,141,979.9,254.6
			c-162.9,426.9-2.2,930.8,404.9,1126.7c51.7,24.8,91.3,41.7,152,56c29.2,6.9,53.7,13.7,84.8,19.9c22.7,4.5,77.2,13.1,95.5-0.5
			c-20.7-11.2-26.6-6.2-49.2-10.6c-236.5-39.8-375-114.5-521.1-309.5c-53.4-71.2-110.1-162.6-141.7-263.9
			C870,438.9,1051.3-16.4,1483.7-181.5c115.6-44.2,374.5-57.8,439.7-168.1c17.9-30.3,57.4-105.3,36.9-154.3
			c-13.8,30.5-10.7,55.7-32,91.9c-15.3,26.1-37.5,48.8-60.2,64.3C1815.5-311.7,1751.9-288.8,1678.3-278.4z"/>
		<path class="st1" d="M1997.8,1274.8c23.6-88.1-39.7-166.3-106.9-181.1c-86.2-18.8-157.1,37.2-174.1,105.3
			C1667.1,1397.2,1946.7,1465.7,1997.8,1274.8z"/>
	</g>
</g>
</svg>
