<?xml version="1.0" encoding="utf-8"?>
<!-- Generator: Adobe Illustrator 19.0.0, SVG Export Plug-In . SVG Version: 6.00 Build 0)  -->
<svg version="1.1" id="Layer_1" xmlns="http://www.w3.org/2000/svg" xmlns:xlink="http://www.w3.org/1999/xlink" x="0px" y="0px"
	 viewBox="0 0 440.7 326.9" style="enable-background:new 0 0 440.7 326.9;" xml:space="preserve">
<style type="text/css">
	.st0{fill:#A5653C;}
</style>
<path id="XMLID_74_" class="st0" d="M179.1,89.6c0,49.3-40.3,89.6-89.6,89.6S0,138.8,0,89.6S40.3,0,89.6,0S179.1,40.3,179.1,89.6z
	 M36.6,90.3l35.1-0.7V52.2l-35.1,7.5V90.3 M135.1,38.1L76.9,50.8v38.8l58.2-0.7V38.1 M36.6,96.3v33.6l35.1,6.7V97L36.6,96.3
	 M76.9,97v40.3l58.2,11.2V97.8L76.9,97z"/>
<g id="XMLID_41_">
	<path id="XMLID_44_" class="st0" d="M358.6,162.7c-45.1,0-82.1,36.9-82.1,82.1s36.9,82.1,82.1,82.1s82.1-36.9,82.1-82.1
		S403.8,162.7,358.6,162.7z M320.3,269.4c0,4.8-3.4,8.2-8.2,8.2c-4.8,0-8.2-3.4-8.2-8.2v-38.3c0-4.8,3.4-8.2,8.2-8.2
		c4.8,0,8.2,3.4,8.2,8.2V269.4z M391.5,277.6c0,2.7-2.7,5.5-5.5,5.5h-5.5v19.2c0,4.8-3.4,8.2-8.2,8.2s-8.2-3.4-8.2-8.2v-19.2h-10.9
		v19.2c0,4.8-3.4,8.2-8.2,8.2s-8.2-3.4-8.2-8.2v-19.2h-5.5c-2.7,0-5.5-2.7-5.5-5.5v-55.4h66.3L391.5,277.6L391.5,277.6z
		 M325.8,217.4c0-10.9,5.5-20.5,13.7-26.7l-7.5-7.5c-1.4-1.4-1.4-2.7,0-4.1c1.4-1.4,2.7-1.4,4.1,0l8.2,8.2c4.1-2.1,9.6-3.4,14.4-3.4
		c5.5,0,10.3,1.4,14.4,3.4l8.2-8.2c1.4-1.4,2.7-1.4,4.1,0c1.4,1.4,1.4,2.7,0,4.1l-7.5,7.5c8.2,6.2,13.7,15.7,13.7,26.7H325.8z
		 M414,269.4c0,4.8-3.4,8.2-8.2,8.2c-4.8,0-8.2-3.4-8.2-8.2v-38.3c0-4.8,3.4-8.2,8.2-8.2c4.8,0,8.2,3.4,8.2,8.2V269.4z"/>
	<rect id="XMLID_43_" x="369.6" y="201" class="st0" width="5.5" height="5.5"/>
	<rect id="XMLID_42_" x="342.2" y="201" class="st0" width="5.5" height="5.5"/>
</g>
<path id="XMLID_50_" class="st0" d="M168.2,244.8c0,33.6-27.5,61.2-61.2,61.2s-61.2-27.5-61.2-61.2s27.5-61.2,61.2-61.2
	S168.2,211.2,168.2,244.8z M122.9,268.2l7.1,7.1l30.6-30.6L130,214.2l-7.1,7.1l23.4,23.4L122.9,268.2 M91.3,268.2l-23.4-23.4
	l23.4-23.4l-7.1-7.1l-30.6,30.6l30.6,30.6L91.3,268.2"/>
<path id="XMLID_54_" class="st0" d="M228.2,147.8c-27.5,0-50,22.5-50,50s22.5,50,50,50s50-22.5,50-50S255.7,147.8,228.2,147.8z
	 M252.8,174.9c-6.7,0.4-10.8,2.5-15.8,7.1c5.4-1.7,8.3-1.7,12.9-1.7l-3.7,5.8c-7.5-0.4-11.2,1.7-17.5,6.3c5.4-1.2,9.2-1.2,14.2,0
	l-2.9,6.3c-7.9-1.2-13.3,0-20.8,5.4c7.1-0.8,12.1-1.2,17.9,0.8c-7.1,7.9-15,8.3-22.9,6.3c-4.6,4.6-6.7,7.9-10.8,15l-5.8,2.9
	c0,0,5-17.5,19.2-36.7c18.3-25,41.7-23.8,41.7-23.8C256.1,169,252.8,174.9,252.8,174.9z"/>
<g id="XMLID_67_">
	<rect id="XMLID_65_" x="266" y="114.7" class="st0" width="4.3" height="7.8"/>
	<rect id="XMLID_64_" x="250" y="83.1" class="st0" width="8" height="7.8"/>
	<rect id="XMLID_63_" x="250" y="114.7" class="st0" width="8" height="7.8"/>
	<rect id="XMLID_62_" x="266" y="83.1" class="st0" width="4.3" height="7.8"/>
	<rect id="XMLID_61_" x="266" y="52" class="st0" width="4.3" height="7.8"/>
	<path id="XMLID_69_" class="st0" d="M278.3,25.1c-35.3,0-64.1,28-64.1,62.1s28.8,62.1,64.1,62.1s64.1-28,64.1-62.1
		S313.6,25.1,278.3,25.1z M314.6,126.6c0,2.1-1.6,4.1-4.3,4.1h-65.2c-2.1,0-4.3-1.6-4.3-4.1V111c0-2.1,1.6-4.1,4.3-4.1h65.2
		c2.1,0,4.3,1.6,4.3,4.1V126.6z M314.6,95c0,2.1-1.6,4.1-4.3,4.1h-65.2c-2.1,0-4.3-1.6-4.3-4.1V79.4c0-2.1,1.6-4.1,4.3-4.1h65.2
		c2.1,0,4.3,1.6,4.3,4.1V95z M314.6,63.4c0,2.1-1.6,4.1-4.3,4.1h-65.2c-2.1,0-4.3-1.6-4.3-4.1V47.9c0-2.1,1.6-4.1,4.3-4.1h65.2
		c2.1,0,4.3,1.6,4.3,4.1V63.4z"/>
	<rect id="XMLID_40_" x="250" y="52" class="st0" width="8" height="7.8"/>
</g>
</svg>
