<?xml version="1.0" encoding="utf-8"?>
<!-- Generator: Adobe Illustrator 19.0.0, SVG Export Plug-In . SVG Version: 6.00 Build 0)  -->
<svg version="1.1" id="Layer_1" xmlns="http://www.w3.org/2000/svg" xmlns:xlink="http://www.w3.org/1999/xlink" x="0px" y="0px"
	 viewBox="-59 317.1 440.7 326.9" style="enable-background:new -59 317.1 440.7 326.9;" xml:space="preserve">
<style type="text/css">
	.st0{fill:#8B1A1A;}
</style>
<path id="XMLID_74_" class="st0" d="M120.1,406.7c0,49.3-40.3,89.6-89.6,89.6S-59,455.9-59,406.7s40.3-89.6,89.6-89.6
	S120.1,357.4,120.1,406.7z M-22.4,407.4l35.1-0.7v-37.4l-35.1,7.5V407.4 M76.1,355.2l-58.2,12.7v38.8l58.2-0.7V355.2 M-22.4,413.4
	V447l35.1,6.7v-39.6L-22.4,413.4 M17.9,414.1v40.3l58.2,11.2v-50.7L17.9,414.1z"/>
<g id="XMLID_41_">
	<path id="XMLID_44_" class="st0" d="M299.6,479.8c-45.1,0-82.1,36.9-82.1,82.1c0,45.2,36.9,82.1,82.1,82.1s82.1-36.9,82.1-82.1
		C381.7,516.7,344.8,479.8,299.6,479.8z M261.3,586.5c0,4.8-3.4,8.2-8.2,8.2c-4.8,0-8.2-3.4-8.2-8.2v-38.3c0-4.8,3.4-8.2,8.2-8.2
		c4.8,0,8.2,3.4,8.2,8.2V586.5z M332.5,594.7c0,2.7-2.7,5.5-5.5,5.5h-5.5v19.2c0,4.8-3.4,8.2-8.2,8.2s-8.2-3.4-8.2-8.2v-19.2h-10.9
		v19.2c0,4.8-3.4,8.2-8.2,8.2s-8.2-3.4-8.2-8.2v-19.2h-5.5c-2.7,0-5.5-2.7-5.5-5.5v-55.4h66.3L332.5,594.7L332.5,594.7z
		 M266.8,534.5c0-10.9,5.5-20.5,13.7-26.7l-7.5-7.5c-1.4-1.4-1.4-2.7,0-4.1c1.4-1.4,2.7-1.4,4.1,0l8.2,8.2c4.1-2.1,9.6-3.4,14.4-3.4
		c5.5,0,10.3,1.4,14.4,3.4l8.2-8.2c1.4-1.4,2.7-1.4,4.1,0c1.4,1.4,1.4,2.7,0,4.1l-7.5,7.5c8.2,6.2,13.7,15.7,13.7,26.7H266.8z
		 M355,586.5c0,4.8-3.4,8.2-8.2,8.2c-4.8,0-8.2-3.4-8.2-8.2v-38.3c0-4.8,3.4-8.2,8.2-8.2c4.8,0,8.2,3.4,8.2,8.2V586.5z"/>
	<rect id="XMLID_43_" x="310.6" y="518.1" class="st0" width="5.5" height="5.5"/>
	<rect id="XMLID_42_" x="283.2" y="518.1" class="st0" width="5.5" height="5.5"/>
</g>
<path id="XMLID_50_" class="st0" d="M109.2,561.9c0,33.6-27.5,61.2-61.2,61.2s-61.2-27.5-61.2-61.2c0-33.7,27.5-61.2,61.2-61.2
	S109.2,528.3,109.2,561.9z M63.9,585.3l7.1,7.1l30.6-30.6L71,531.3l-7.1,7.1l23.4,23.4L63.9,585.3 M32.3,585.3L8.9,561.9l23.4-23.4
	l-7.1-7.1L-5.4,562l30.6,30.6L32.3,585.3"/>
<path id="XMLID_54_" class="st0" d="M169.2,464.9c-27.5,0-50,22.5-50,50s22.5,50,50,50s50-22.5,50-50S196.7,464.9,169.2,464.9z
	 M193.8,492c-6.7,0.4-10.8,2.5-15.8,7.1c5.4-1.7,8.3-1.7,12.9-1.7l-3.7,5.8c-7.5-0.4-11.2,1.7-17.5,6.3c5.4-1.2,9.2-1.2,14.2,0
	l-2.9,6.3c-7.9-1.2-13.3,0-20.8,5.4c7.1-0.8,12.1-1.2,17.9,0.8c-7.1,7.9-15,8.3-22.9,6.3c-4.6,4.6-6.7,7.9-10.8,15l-5.8,2.9
	c0,0,5-17.5,19.2-36.7c18.3-25,41.7-23.8,41.7-23.8C197.1,486.1,193.8,492,193.8,492z"/>
<g id="XMLID_67_">
	<rect id="XMLID_65_" x="207" y="431.8" class="st0" width="4.3" height="7.8"/>
	<rect id="XMLID_64_" x="191" y="400.2" class="st0" width="8" height="7.8"/>
	<rect id="XMLID_63_" x="191" y="431.8" class="st0" width="8" height="7.8"/>
	<rect id="XMLID_62_" x="207" y="400.2" class="st0" width="4.3" height="7.8"/>
	<rect id="XMLID_61_" x="207" y="369.1" class="st0" width="4.3" height="7.8"/>
	<path id="XMLID_69_" class="st0" d="M219.3,342.2c-35.3,0-64.1,28-64.1,62.1s28.8,62.1,64.1,62.1s64.1-28,64.1-62.1
		S254.6,342.2,219.3,342.2z M255.6,443.7c0,2.1-1.6,4.1-4.3,4.1h-65.2c-2.1,0-4.3-1.6-4.3-4.1v-15.6c0-2.1,1.6-4.1,4.3-4.1h65.2
		c2.1,0,4.3,1.6,4.3,4.1V443.7z M255.6,412.1c0,2.1-1.6,4.1-4.3,4.1h-65.2c-2.1,0-4.3-1.6-4.3-4.1v-15.6c0-2.1,1.6-4.1,4.3-4.1h65.2
		c2.1,0,4.3,1.6,4.3,4.1V412.1z M255.6,380.5c0,2.1-1.6,4.1-4.3,4.1h-65.2c-2.1,0-4.3-1.6-4.3-4.1V365c0-2.1,1.6-4.1,4.3-4.1h65.2
		c2.1,0,4.3,1.6,4.3,4.1V380.5z"/>
	<rect id="XMLID_40_" x="191" y="369.1" class="st0" width="8" height="7.8"/>
</g>
</svg>
