<?xml version="1.0" encoding="utf-8"?>
<!-- Generator: Adobe Illustrator 19.0.0, SVG Export Plug-In . SVG Version: 6.00 Build 0)  -->
<svg version="1.1" id="Layer_1" xmlns="http://www.w3.org/2000/svg" xmlns:xlink="http://www.w3.org/1999/xlink" x="0px" y="0px"
	 viewBox="2726 -124 368 368" style="enable-background:new 2726 -124 368 368;" xml:space="preserve">
<style type="text/css">
	.st0{fill:#BDC3D5;}
	.st1{fill:#C74242;}
	.st2{fill:#5B606D;}
</style>
<g id="Layer_x0020_1">
	<g id="_84944787904">
		<g id="_575957256800">
			<ellipse class="st0" cx="2910" cy="60" rx="184" ry="184"/>
			<path class="st1" d="M2910-107.4c-92.3,0-167.4,75.1-167.4,167.4c0,86.9,66.5,158.5,151.3,166.6c0-10.9,0-95.2,0-106.9L2855.1,82
				V30.3c6.7-1.9,11.6-8.1,11.6-15.4c0-21.2-32-21.2-32,0c0,7.3,4.9,13.4,11.6,15.4v26.2L2829.8,44V-0.7
				c17.6-5.3,13.7-31.3-4.6-31.3c-18.5,0-22.2,26.5-4.3,31.4v49.1l25.3,19.1v18.2l8.1,7.9h-23.9L2805,69c7-10.6-0.6-24.8-13.4-24.8
				c-25.7,0-17.5,41.5,6.6,30.6l28.6,27.8h36.6l21.5,20.9c0,11,0,83.5,0,93.1c-75.3-12-133.5-77.5-133.5-156.5
				c0-87.4,71.1-158.5,158.5-158.5S3068.5-27.4,3068.5,60c0,81.1-61.3,148.2-140,157.4v-9.9c73.1-9.1,130.2-71.7,130.2-147.5
				c0-82-66.7-148.6-148.7-148.6c-82,0-148.7,66.7-148.7,148.6c0,70.3,49.1,129.4,114.7,144.7v-8.1
				c-61.3-15.2-106.9-70.7-106.9-136.6c0-77.6,63.1-140.8,140.8-140.8c77.6,0,140.8,63.1,140.8,140.8c0,71.4-53.4,130.5-122.3,139.6
				c0-31.5,0-57.3,0-72.5l2.4-1.8h26.5l41.6-22.1c10,10.2,27.4,3.1,27.4-11.2c0-23.5-36.7-19.5-31.7,3.4l-39.6,21h-12.5l72.1-54.4
				V10.6c17.7-5.1,14-31.4-4.4-31.4c-18.5,0-22.1,26.3-4.4,31.4v46.9l-54.7,41.3V68.1l28.1-20.2V25.8c17.7-5.1,14-31.4-4.4-31.4
				c-18.5,0-22.1,26.3-4.4,31.4v17.6l-28.1,20.2v41.9l-22.7,17.1c0,11.9,0,92.8,0,104.5c87.9-5,157.8-78.1,157.8-167.1
				C3077.4-32.3,3002.3-107.4,2910-107.4L2910-107.4L2910-107.4z M2821.2-22L2821.2-22c2.9-1.8,6.6-1.5,9.1,0.9
				c3.6,3.5,2.5,11.3-4.3,12.1C2817.1-9,2815.8-18.5,2821.2-22z M2786.6,65.3L2786.6,65.3c-4.3-4.4-1.6-12.2,5.1-12.2
				c4.1,0,7.1,3,7.1,7.1C2798.8,66.9,2791,69.6,2786.6,65.3L2786.6,65.3z M2843.5,14.9L2843.5,14.9c0-9.4,14.3-9.4,14.3,0
				C2857.8,24.3,2843.5,24.3,2843.5,14.9z M3010.3,84.8L3010.3,84.8c4.1,0,7.1,3,7.1,7.1s-3.1,7.1-7.1,7.1c-4.1,0-7.1-3-7.1-7.1
				S3006.2,84.8,3010.3,84.8z M3010.3-11.8L3010.3-11.8c9.5,0,9.5,14.1,0,14.1C3000.8,2.3,3000.8-11.8,3010.3-11.8z M2974.8,3.3
				L2974.8,3.3c9.4,0,9.4,14.3,0,14.3C2965.4,17.6,2965.4,3.3,2974.8,3.3z"/>
			<path class="st2" d="M2910-124c-101.5,0-184,82.5-184,184c0,111.9,99.8,198.7,211.4,181.9C3025.9,228.7,3094,152.1,3094,60
				C3094-41.5,3011.5-124,2910-124L2910-124L2910-124z M2911,235.9L2911,235.9c0-20.1,0-136.3,0-153.4l22.4-21.4V-6.1l21.7-23.7
				c24,10.2,31.6-30.8,6.2-30.8c-12.9,0-20.5,14.6-13.1,25.2l-23.6,25.8v66.9l-22.4,21.4V85l-15.6-14.8V35.6l0.3,0.3l28.7-23.5
				v-50.4c16.2-6.6,11.4-30.8-6-30.8c-8.8,0-16,7.2-16,16c0,7.9,5.7,14.4,13.2,15.8V8.3l-20,16.4V-8c6.1-2.3,10.4-8.1,10.4-15
				c0-21.2-32-21.2-32,0c0,7.7,5.5,14.2,12.8,15.7v81.2l24.5,23.3c0,14.8,0,124.3,0,138.5C2808.8,231.6,2734,154.4,2734,60
				c0-97,78.9-175.9,176-175.9c97,0,176,78.9,176,175.9C3086,156.6,3007.6,235.4,2911,235.9L2911,235.9z M2961.3-51.6L2961.3-51.6
				c11.7,0,7.6,18.7-3.1,13.5l-3-2.7C2952.3-45.7,2955.9-51.6,2961.3-51.6L2961.3-51.6z M2883.5-16.4L2883.5-16.4h-5.3
				c-6.9-2.8-5.7-13.7,2.6-13.7C2889.2-30.1,2890.4-19.2,2883.5-16.4z M2909.4-45.6L2909.4-45.6c-3.9,0-7.1-3.2-7.1-7.1
				s3.2-7.1,7.1-7.1s7.1,3.2,7.1,7.1S2913.3-45.6,2909.4-45.6z"/>
		</g>
	</g>
</g>
</svg>
