<?xml version="1.0" encoding="utf-8"?>
<!-- Generator: Adobe Illustrator 19.0.0, SVG Export Plug-In . SVG Version: 6.00 Build 0)  -->
<svg version="1.1" id="Layer_1" xmlns="http://www.w3.org/2000/svg" xmlns:xlink="http://www.w3.org/1999/xlink" x="0px" y="0px"
	 viewBox="1999.1 -1221.7 1821.8 1821.9" style="enable-background:new 1999.1 -1221.7 1821.8 1821.9;" xml:space="preserve">
<style type="text/css">
	.st0{fill:#BDC3D5;}
	.st1{fill:#C74242;}
	.st2{fill:#5B606D;}
</style>
<g id="Layer_x0020_1">
	<g id="_84944787904">
		<g id="_575957256800">
			<ellipse class="st0" cx="2910" cy="-310.7" rx="910.9" ry="910.9"/>
			<path class="st1" d="M2910-1139.6c-457,0-828.8,371.8-828.8,828.8c0,430,329.1,784.6,748.8,824.9c0-54.1,0-471.3,0-529.4
				l-191.9-186.5V-458c33-9.6,57.3-40,57.3-76.1c0-104.8-158.6-104.8-158.6,0c0,36.1,24.2,66.5,57.3,76.1v129.6l-81.3-61.5v-221.4
				c86.9-26.2,68-155.2-22.8-155.2c-91.6,0-109.8,131-21.2,155.6V-368l125.3,94.7v90.1l40.3,39.2h-118.2l-125.8-122.1
				c34.7-52.5-3.2-122.8-66.2-122.8c-127.1,0-86.5,205.3,32.5,151.5L2498.4-100h181.3L2786.1,3.4c0,54.3,0,413.4,0,460.9
				c-373-59.3-660.9-383.5-660.9-775c0-432.7,352.1-784.8,784.8-784.8s784.8,352.1,784.8,784.8c0,401.7-303.4,733.9-693.3,779.4
				v-49.2c362-45.1,644.5-354.8,644.5-730.3c0-405.8-330.1-735.9-735.9-735.9s-735.9,330.1-735.9,735.9
				c0,348.1,242.9,640.4,568,716.6v-40.2c-303.4-75.4-529-350-529-676.4c0-384.3,312.6-696.9,696.9-696.9S3607-695.1,3607-310.8
				c0,353.6-264.6,646-605.4,690.9c0-155.9,0-283.8,0-358.8l11.7-8.9h131L3350-97.1c49.6,50.4,135.8,15.2,135.8-55.6
				c0-116.5-181.5-96.7-156.7,16.9L3133.2-31.6h-61.8l357-269.5v-254.1c87.6-25.3,69.4-155.4-22-155.4c-91.5,0-109.4,130.1-22,155.4
				v232l-270.8,204.5v-151.7l139.1-100V-480c87.6-25.3,69.4-155.4-22-155.4c-91.5,0-109.5,130.1-22,155.4v87l-139,100v207.4
				L2957.5-0.9c0,58.7,0,459.3,0,517.4c435.2-24.8,781.3-386.5,781.3-827.4C3738.8-767.8,3367-1139.6,2910-1139.6L2910-1139.6
				L2910-1139.6z M2470.5-716.8L2470.5-716.8c14.6-8.9,32.6-7.4,44.9,4.5c18,17.5,12.4,55.9-21.1,60
				C2450.3-652.3,2443.7-699.3,2470.5-716.8z M2299.1-284.5L2299.1-284.5c-21.1-21.8-7.8-60.5,25.2-60.5c20.2,0,35.3,15.1,35.3,35.3
				C2359.6-276.8,2321-263.3,2299.1-284.5L2299.1-284.5z M2580.8-534.1L2580.8-534.1c0-46.7,70.6-46.7,70.6,0
				C2651.4-487.5,2580.8-487.5,2580.8-534.1z M3406.5-188L3406.5-188c20.2,0,35.3,15.1,35.3,35.3s-15.1,35.3-35.3,35.3
				c-20.1,0-35.3-15.1-35.3-35.3S3386.3-188,3406.5-188z M3406.5-666.3L3406.5-666.3c47.2,0,47.2,70,0,70
				C3359.4-596.3,3359.4-666.3,3406.5-666.3z M3230.8-591.4L3230.8-591.4c46.7,0,46.7,70.6,0,70.6
				C3184.2-520.8,3184.2-591.4,3230.8-591.4z"/>
			<path class="st2" d="M2910-1221.7c-502.3,0-910.9,408.6-910.9,910.9c0,554,494,983.5,1046.3,900.8
				c438.3-65.6,775.4-444.6,775.4-900.8C3820.9-813.1,3412.3-1221.7,2910-1221.7L2910-1221.7L2910-1221.7z M2915,560.2L2915,560.2
				c0-99.5,0-675,0-759.5l110.8-105.8v-333l107.3-117.1c119,50.3,156.3-152.3,30.8-152.3c-63.9,0-101.6,72.2-65,124.6l-117,127.7
				v331.3L2871-218.1v31l-77.2-73.4v-170.9l1.3,1.6L2937-546v-249.4c80.3-32.9,56.6-152.6-29.9-152.6c-43.7,0-79.3,35.6-79.3,79.3
				c0,38.9,28.2,71.3,65.2,78v224l-99.2,81.3v-162.1c30-11.3,51.3-40.2,51.3-74.1c0-104.8-158.6-104.8-158.6,0
				c0,38.2,27.2,70.2,63.3,77.7v402.2L2871-126.5c0,73.4,0,615.4,0,685.9c-462-20.5-832.1-402.7-832.1-870.2
				c0-480.3,390.8-871.1,871.1-871.1s871.1,390.8,871.1,871.1C3781.1,167.7,3393.2,557.6,2915,560.2L2915,560.2z M3163.9-863.5
				L3163.9-863.5c58,0,37.4,92.8-15.4,66.9l-14.8-13.5C3119.2-834.1,3137.1-863.5,3163.9-863.5L3163.9-863.5z M2778.9-689
				L2778.9-689h-26.3c-34.3-13.8-28.1-67.7,13.1-67.7C2807.1-756.8,2813.2-702.8,2778.9-689z M2907.1-833.5L2907.1-833.5
				c-19.5,0-35.3-15.8-35.3-35.3s15.8-35.3,35.3-35.3s35.3,15.8,35.3,35.3C2942.4-849.3,2926.5-833.5,2907.1-833.5z"/>
		</g>
	</g>
</g>
</svg>
