<?xml version="1.0" encoding="utf-8"?>
<!-- Generator: Adobe Illustrator 19.0.0, SVG Export Plug-In . SVG Version: 6.00 Build 0)  -->
<svg version="1.1" id="Layer_1" xmlns="http://www.w3.org/2000/svg" xmlns:xlink="http://www.w3.org/1999/xlink" x="0px" y="0px"
	 viewBox="1410 -1440 3000 3000" style="enable-background:new 1410 -1440 3000 3000;" xml:space="preserve">
<style type="text/css">
	.st0{fill:#A871A9;}
	.st1{fill:#511E3F;}
</style>
<g id="Layer_x0020_1">
	<path class="st0" d="M4061-689.7c112.1-31.2,110.3-138,11-193.1l-318.1-191.5c-57.7-37.8-119.4-90.6-205.4-89.7
		c-56.2,17.5-76.3,59.8-124.2,126.7l-113,142.3c-22.8,36.4-116.3,11-217.1,19c-89.4,7.2-68.8,39.8-110.5,94.4l-481.9,2.2
		c55.7,159.9,47.5,216.7-2.2,375.7l490.8-0.1c59,146.4,67.2,79.4,260.1,94.2c58.6,4.6,76.1,42.6,102.4,79.3l125.3,152.5
		c109,126.3,139.9,25.1,382.8-100.9c69.3-35.9,67.6-50.2,109.1-70.1c283.8-136.6,150.3-254.7,66.6-244.3
		c-57.3,7.1-351.9,213.9-449.4,250.4l-125.8-151.6c-59.1-75.2-86.1-78.3-86.2-197.4c0-48-6.5-79.9,16.2-112.3l192.7-238.5
		c42.2,7.1,77,35.1,112.4,57.5C3777.5-833.8,3986.3-693.3,4061-689.7L4061-689.7L4061-689.7z"/>
	<ellipse class="st0" cx="2034.8" cy="-592.4" rx="360.6" ry="360.6"/>
	<ellipse class="st1" cx="2034.8" cy="-592.4" rx="216.7" ry="216.7"/>
	<path class="st1" d="M1765.9-175.5l595.2,1024.3l668.7-2.8L2393.2-227.8C2230.5-21.5,1954.4-22.4,1765.9-175.5L1765.9-175.5
		L1765.9-175.5z"/>
	<path class="st0" d="M1939.6,844H3468c31.4,0,56.8,25.4,56.8,56.8v326.5c0,31.4-25.4,56.8-56.8,56.8H1939.6
		c-31.4,0-56.8-25.4-56.8-56.8V900.9C1882.7,869.5,1908.1,844,1939.6,844L1939.6,844z"/>
</g>
</svg>
