<?xml version="1.0" encoding="utf-8"?>
<!-- Generator: Adobe Illustrator 19.0.0, SVG Export Plug-In . SVG Version: 6.00 Build 0)  -->
<svg version="1.1" id="Layer_1" xmlns="http://www.w3.org/2000/svg" xmlns:xlink="http://www.w3.org/1999/xlink" x="0px" y="0px"
	 viewBox="2726 -124 368 368" style="enable-background:new 2726 -124 368 368;" xml:space="preserve">
<style type="text/css">
	.st0{fill:#A871A9;}
	.st1{fill:#511E3F;}
</style>
<g id="Layer_x0020_1">
	<path class="st0" d="M3081.4-51.6c16.7-4.6,16.4-20.5,1.6-28.8l-47.4-28.5c-8.6-5.6-17.8-13.5-30.6-13.4
		c-8.4,2.6-11.4,8.9-18.5,18.9l-16.8,21.2c-3.4,5.4-17.3,1.6-32.3,2.8c-13.3,1.1-10.2,5.9-16.5,14.1l-71.8,0.3
		c8.3,23.8,7.1,32.3-0.3,55.9l73.1,0c8.8,21.8,10,11.8,38.7,14c8.7,0.7,11.3,6.3,15.2,11.8l18.7,22.7c16.2,18.8,20.8,3.7,57-15
		c10.3-5.3,10.1-7.5,16.2-10.4c42.3-20.3,22.4-37.9,9.9-36.4c-8.5,1.1-52.4,31.8-66.9,37.3l-18.7-22.6
		c-8.8-11.2-12.8-11.7-12.8-29.4c0-7.1-1-11.9,2.4-16.7l28.7-35.5c6.3,1.1,11.5,5.2,16.7,8.6C3039.2-73.1,3070.3-52.2,3081.4-51.6
		L3081.4-51.6L3081.4-51.6z"/>
	<ellipse class="st0" cx="2779.7" cy="-37.1" rx="53.7" ry="53.7"/>
	<ellipse class="st1" cx="2779.7" cy="-37.1" rx="32.3" ry="32.3"/>
	<path class="st1" d="M2739.7,24.9l88.6,152.5l99.6-0.4l-94.8-159.9C2808.8,47.9,2767.7,47.7,2739.7,24.9L2739.7,24.9L2739.7,24.9z"
		/>
	<path class="st0" d="M2765.5,176.7h227.6c4.7,0,8.5,3.8,8.5,8.5v48.6c0,4.7-3.8,8.5-8.5,8.5h-227.6c-4.7,0-8.5-3.8-8.5-8.5v-48.6
		C2757,180.5,2760.8,176.7,2765.5,176.7L2765.5,176.7z"/>
</g>
</svg>
