<?xml version="1.0" encoding="utf-8"?>
<!-- Generator: Adobe Illustrator 19.0.0, SVG Export Plug-In . SVG Version: 6.00 Build 0)  -->
<svg version="1.1" id="Capa_1" xmlns="http://www.w3.org/2000/svg" xmlns:xlink="http://www.w3.org/1999/xlink" x="0px" y="0px"
	 viewBox="-255 456 48 50" style="enable-background:new -255 456 48 50;" xml:space="preserve">
<style type="text/css">
	.st0{fill:#E5B797;}
	.st1{fill:#CB2D22;}
</style>
<g>
	<path class="st0" d="M-247,460.2h31.9c2.2,0,4,1.8,4,4v33.6c0,2.2-1.8,4-4,4H-247c-2.2,0-4-1.8-4-4v-33.6
		C-250.9,462-249.1,460.2-247,460.2z"/>
	<circle class="st1" cx="-240.9" cy="470.6" r="3.8"/>
	<path class="st1" d="M-211.8,493.4L-211.8,493.4c-0.1-0.1-0.1-0.1-0.2-0.2l-9.7-7.6c-1.1-0.8-2.6-0.7-3.5,0.1l-6.2,5.8
		c-1.2,1.1-1.2,3,0.1,4l3,2.6l3.1,2.7c0.5,0.5,1.2,0.7,1.8,0.7h9.8c1.5,0,2.7-1.2,2.7-2.7v-3.5C-211.1,494.6-211.4,494-211.8,493.4z
		"/>
	<path class="st1" d="M-223.2,498l-8.2-8.6c-0.7-0.8-2-0.8-2.7-0.1l-9.7,8.9c-1.3,1.2-0.5,3.4,1.3,3.4h18.1c1.8,0,2.6-2.1,1.4-3.3
		L-223.2,498z"/>
</g>
</svg>
