<?xml version="1.0" encoding="utf-8"?>
<!-- Generator: Adobe Illustrator 19.0.0, SVG Export Plug-In . SVG Version: 6.00 Build 0)  -->
<svg version="1.1" id="Layer_1" xmlns="http://www.w3.org/2000/svg" xmlns:xlink="http://www.w3.org/1999/xlink" x="0px" y="0px"
	 viewBox="144 -173.2 467.2 467.2" style="enable-background:new 144 -173.2 467.2 467.2;" xml:space="preserve">
<style type="text/css">
	.st0{fill:#661D22;}
	.st1{fill:#E5B560;}
</style>
<g>
	<rect x="231" y="-46.2" class="st0" width="293.2" height="183.7"/>
	<path class="st1" d="M519.6-47.4h-284c-5,0-9.1,4.1-9.1,9.1v167.9c0,5,4.1,9.1,9.1,9.1h284.1c5,0,9.1-4.1,9.1-9.1V-38.3
		C528.7-43.3,524.7-47.4,519.6-47.4L519.6-47.4z M520.9,129.6c0,0.7-0.5,1.2-1.2,1.2H235.6c-0.7,0-1.2-0.5-1.2-1.2V-38.3
		c0-0.7,0.5-1.2,1.2-1.2h284.1c0.7,0,1.2,0.5,1.2,1.2V129.6L520.9,129.6z"/>
	<path class="st0" d="M555.7,144.6h-9.3V-42.6c0-12.4-10.1-22.5-22.5-22.5H231.3c-12.4,0-22.5,10.1-22.5,22.5v187.3h-9.3
		c-3.3,0-5.9,2.6-5.9,5.9v16.2c0,10.5,8.6,19.1,19.1,19.1h329.8c10.5,0,19.1-8.6,19.1-19.1v-16.2C561.6,147.3,559,144.6,555.7,144.6
		z M220.6-42.6c0-5.9,4.8-10.7,10.7-10.7H524c5.9,0,10.7,4.8,10.7,10.7v187.3H220.6V-42.6L220.6-42.6z M360.3,156.5H395v3.1
		c0,1.4-1.1,2.5-2.5,2.5h-29.6c-1.4,0-2.5-1.1-2.5-2.5L360.3,156.5L360.3,156.5z"/>
</g>
<g>
	<path class="st1" d="M399.2,54.7v-5.5l0,0c-0.2-4-9.9-7.3-23-8.3c0,2.6-1,4.3-1.4,5.1c8.9,0.8,15.4,3.1,15.4,5.9
		c0,3.4-9.7,6.2-21.7,6.2s-21.7-2.8-21.7-6.2c0-3.2,8.8-5.9,20-6.1c0,0,0.1-3.5-2.1-5.1c-15.1,0.5-26.7,4.1-27,8.5l0,0v30.7
		c0,17,13.8,30.7,30.7,30.7c13,0,24.2-8.1,28.6-19.6c0.7,0.1,1.4,0.2,2.1,0.2c10.1,0,18.3-8.2,18.3-18.3
		C417.5,62.9,409.3,54.7,399.2,54.7z M399.2,81.1L399.2,81.1c0-0.4,0-0.8,0-1.2v-15c4.5,0,8.1,3.6,8.1,8.1
		C407.3,77.4,403.7,81.1,399.2,81.1z"/>
	<path class="st1" d="M356.3,24.1c0.6,10.4,13.4,11.2,13.4,17.8c0,4-1.8,6.2-2.3,6.9c-0.2,0.2-0.4,0.7,0,1.2c0.3,0.3,0.9,0.4,1.2,0
		c1.2-1.2,4.2-4.1,4.2-8.8c0-7.5-9.9-10.7-9.9-16.6c0-7.6,9.3-3.8,9.5-3.8c2.7,0.6,5.5-1.1,6.1-3.8c0.6-2.8-0.7-4.6-3.8-6.1
		C371.3,9,355.4,9.9,356.3,24.1z"/>
</g>
</svg>
