<?xml version="1.0" encoding="utf-8"?>
<!-- Generator: Adobe Illustrator 19.0.0, SVG Export Plug-In . SVG Version: 6.00 Build 0)  -->
<svg version="1.1" id="Capa_1" xmlns="http://www.w3.org/2000/svg" xmlns:xlink="http://www.w3.org/1999/xlink" x="0px" y="0px"
	 viewBox="-254.5 -123.5 368 368" style="enable-background:new -254.5 -123.5 368 368;" xml:space="preserve">
<style type="text/css">
	.st0{fill:#FFFFFF;}
	.st1{fill:#35AAF9;}
	.st2{fill:#C02028;}
</style>
<g>
	<path class="st0" d="M39.5-38.6v-15.2h-8.7c0-2.2-2.2-6.5-2.2-8.7l8.7-6.5l-8.7-13.1l-8.7,6.5c-2.2-2.2-6.5-2.2-8.7-6.5l2.2-8.7
		L-1.9-93l-2.2,8.7c-2.2,0-6.5,0-13.1,2.2l-6.5-8.7l-15.2,8.7l6.5,8.7c-2.2,2.2-6.5,6.5-6.5,8.7l-8.7-2.2l-6.5,15.2l8.7,2.2
		c0,2.2,0,6.5,0,13.1l-8.7,2.2l6.5,15.2l8.7-2.2c2.2,2.2,2.2,6.5,6.5,8.7l-6.5,8.7L-23.7,5l6.5-8.7c2.2,0,6.5,2.2,13.1,2.2v8.7
		L11.2,5v-8.7c2.2,0,2.2,0,6.5-2.2c2.2,0,2.2-2.2,6.5-2.2l8.7,6.5L46-14.6l-8.7-6.5c2.2-2.2,2.2-6.5,2.2-8.7V-38.6z M-1.9-27.7
		c-8.7,6.5-21.8,2.2-28.3-8.7c-6.5-8.7-2.2-21.8,8.7-28.3c8.7-6.5,21.8-2.2,28.3,8.7C11.2-47.3,9-34.2-1.9-27.7z"/>
	<path class="st1" d="M-84.7,18l8.7-28.3l-19.6-6.5c0-6.5,0-13.1,0-19.6l19.6-6.5l-8.7-28.3l-19.6,6.5c-2.2-6.5-8.7-8.7-13.1-15.2
		l8.7-15.2l-26.1-13.1l-8.7,15.2c-6.5-2.2-13.1-2.2-19.6-2.2l-2.2-19.6l-28.3,6.5l2.2,19.6c-6.5,2.2-13.1,6.5-15.2,8.7L-221.8-93
		l-19.6,21.8l15.2,13.1c-2.2,6.5-6.5,13.1-6.5,19.6h-21.8v28.3h19.6c2.2,6.5,2.2,13.1,6.5,19.6l-13.1,13.1l19.6,21.8l13.1-13.1
		c6.5,2.2,13.1,6.5,19.6,8.7l-2.2,19.6l28.3,2.2l2.2-19.6c2.2,0,6.5,0,8.7,0s6.5-2.2,8.7-2.2l8.7,15.2l26.1-15.2l-8.7-15.2
		c6.5-2.2,8.7-8.7,13.1-15.2L-84.7,18z M-160.9,11.5c-19.6,2.2-41.4-8.7-45.7-28.3c-2.2-19.6,8.7-41.4,28.3-45.7s41.4,8.7,45.7,28.3
		C-128.2-12.4-141.3,7.2-160.9,11.5z"/>
	<path class="st2" d="M78.7,172.6l8.7-32.7l-21.8-6.5c0-6.5,0-15.2,0-21.8l19.6-8.7L72.1,70.3L52.5,79c-2.2-6.5-8.7-13.1-15.2-19.6
		L46,39.8L13.3,24.6L4.6,44.2C-1.9,42-10.6,42-17.2,42l-2.2-21.8l-34.8,6.5l2.2,21.8c-6.5,2.2-13.1,6.5-19.6,13.1l-15.2-13.1
		l-21.8,28.3l15.2,13.1c-2.2,6.5-6.5,15.2-6.5,21.8h-21.8v34.8h21.8c2.2,6.5,6.5,15.2,8.7,21.8l-15.2,15.2l21.8,26.1l15.2-15.2
		c6.5,2.2,13.1,8.7,21.8,13.1l-2.2,21.8l34.8,6.5l2.2-21.8c2.2,0,6.5,0,13.1,0c2.2,0,6.5-2.2,13.1-2.2l13.1,19.6l28.3-19.6
		l-13.1-19.6c6.5-6.5,8.7-13.1,15.2-19.6L78.7,172.6z M-4.1,166.1c-26.1,6.5-47.9-8.7-52.3-34.8c-6.5-26.1,8.7-47.9,34.8-52.3
		c26.1-6.5,47.9,8.7,52.3,34.8S17.7,163.9-4.1,166.1z"/>
	<path class="st0" d="M-130.4,133.4v-15.2h-8.7c0-2.2-2.2-6.5-2.2-8.7l8.7-6.5l-8.7-13.1l-8.7,6.5c-2.2-2.2-6.5-2.2-8.7-6.5l2.2-8.7
		l-15.2-2.2l-2.2,8.7c-2.2,0-6.5,0-13.1,2.2l-6.5-8.7l-15.2,8.7l6.5,8.7c-2.2,2.2-6.5,6.5-6.5,8.7l-8.7-2.2l-6.5,15.2l8.7,2.2
		c0,2.2,0,6.5,0,13.1l-8.7,2.2l6.5,15.2l8.7-2.2c2.2,2.2,2.2,6.5,6.5,8.7l-6.5,8.7l15.2,8.7l6.5-8.7c2.2,0,6.5,2.2,13.1,2.2v8.7
		l15.2-2.2v-8.7c2.2,0,2.2,0,6.5-2.2c2.2,0,2.2-2.2,6.5-2.2l8.7,6.5l13.1-13.1l-8.7-6.5c2.2-2.2,2.2-6.5,2.2-8.7V133.4z
		 M-173.9,144.3c-8.7,6.5-21.8,2.2-28.3-8.7c-6.5-8.7-2.2-21.8,8.7-28.3c8.7-6.5,21.8-2.2,28.3,8.7
		C-156.5,124.7-160.9,137.8-173.9,144.3z"/>
	<path class="st1" d="M111.3,31.1l2.2-8.7l-6.5-2.2c0-2.2,0-6.5,0-6.5l6.5-2.2l-2.2-8.7L104.8,5c0-2.2-2.2-2.2-6.5-6.5l2.2-6.5
		l-8.7-6.5l-2.2,6.5c-2.2,0-6.5,0-6.5,0v-6.5l-8.7,2.2v6.5c-2.2,0-2.2,2.2-6.5,2.2l-6.5-2.2l-6.5,8.7L61.2,5c0,2.2-2.2,2.2-2.2,6.5
		h-8.7v8.7h6.5c0,2.2,0,6.5,2.2,6.5l-6.5,2.2l6.5,8.7l6.5-2.2c2.2,0,2.2,2.2,6.5,2.2v6.5l8.7,2.2v-6.5H83h2.2l2.2,6.5l8.7-6.5
		l-2.2-6.5c2.2-2.2,2.2-2.2,2.2-6.5L111.3,31.1z M85.2,26.7c-6.5,0-15.2-2.2-15.2-8.7c0-6.5,2.2-15.2,8.7-15.2
		c6.5,0,15.2,2.2,15.2,8.7C98.3,18,91.7,24.6,85.2,26.7z"/>
</g>
</svg>
