<?xml version="1.0" encoding="utf-8"?>
<!-- Generator: Adobe Illustrator 19.0.0, SVG Export Plug-In . SVG Version: 6.00 Build 0)  -->
<svg version="1.1" id="Capa_1" xmlns="http://www.w3.org/2000/svg" xmlns:xlink="http://www.w3.org/1999/xlink" x="0px" y="0px"
	 viewBox="-80 51 19 19" style="enable-background:new -80 51 19 19;" xml:space="preserve">
<style type="text/css">
	.st0{fill:#FFFFFF;}
	.st1{fill:#35AAF9;}
	.st2{fill:#C02028;}
</style>
<g>
	<path class="st0" d="M-65.5,56v-0.7h-0.4c0-0.1-0.1-0.3-0.1-0.4l0.4-0.3L-66,54l-0.4,0.3c-0.1-0.1-0.3-0.1-0.4-0.3l0.1-0.4
		l-0.7-0.1l-0.1,0.4c-0.1,0-0.3,0-0.6,0.1l-0.3-0.4l-0.7,0.4l0.3,0.4c-0.1,0.1-0.3,0.3-0.3,0.4l-0.4-0.1l-0.3,0.7l0.4,0.1
		c0,0.1,0,0.3,0,0.6l-0.4,0.1l0.3,0.7l0.4-0.1c0.1,0.1,0.1,0.3,0.3,0.4l-0.3,0.4l0.7,0.4l0.3-0.4c0.1,0,0.3,0.1,0.6,0.1v0.4l0.7-0.1
		v-0.4c0.1,0,0.1,0,0.3-0.1c0.1,0,0.1-0.1,0.3-0.1l0.4,0.3l0.6-0.6l-0.4-0.3c0.1-0.1,0.1-0.3,0.1-0.4L-65.5,56z M-67.4,56.5
		c-0.4,0.3-1,0.1-1.3-0.4c-0.3-0.4-0.1-1,0.4-1.3c0.4-0.3,1-0.1,1.3,0.4C-66.8,55.6-66.9,56.2-67.4,56.5z"/>
	<path class="st1" d="M-71.2,58.6l0.4-1.3l-0.9-0.3c0-0.3,0-0.6,0-0.9l0.9-0.3l-0.4-1.3l-0.9,0.3c-0.1-0.3-0.4-0.4-0.6-0.7l0.4-0.7
		l-1.2-0.6l-0.4,0.7c-0.3-0.1-0.6-0.1-0.9-0.1l-0.1-0.9l-1.3,0.3l0.1,0.9c-0.3,0.1-0.6,0.3-0.7,0.4l-0.7-0.6l-0.9,1l0.7,0.6
		c-0.1,0.3-0.3,0.6-0.3,0.9H-79v1.3h0.9c0.1,0.3,0.1,0.6,0.3,0.9l-0.6,0.6l0.9,1l0.6-0.6c0.3,0.1,0.6,0.3,0.9,0.4l-0.1,0.9l1.3,0.1
		l0.1-0.9c0.1,0,0.3,0,0.4,0c0.1,0,0.3-0.1,0.4-0.1l0.4,0.7l1.2-0.7l-0.4-0.7c0.3-0.1,0.4-0.4,0.6-0.7L-71.2,58.6z M-74.7,58.3
		c-0.9,0.1-1.9-0.4-2.1-1.3c-0.1-0.9,0.4-1.9,1.3-2.1s1.9,0.4,2.1,1.3C-73.2,57.2-73.8,58.1-74.7,58.3z"/>
	<path class="st2" d="M-63.7,65.7l0.4-1.5l-1-0.3c0-0.3,0-0.7,0-1l0.9-0.4l-0.6-1.5l-0.9,0.4c-0.1-0.3-0.4-0.6-0.7-0.9l0.4-0.9
		l-1.5-0.7l-0.4,0.9c-0.3-0.1-0.7-0.1-1-0.1l-0.1-1l-1.6,0.3l0.1,1c-0.3,0.1-0.6,0.3-0.9,0.6l-0.7-0.6l-1,1.3l0.7,0.6
		c-0.1,0.3-0.3,0.7-0.3,1h-1v1.6h1c0.1,0.3,0.3,0.7,0.4,1l-0.7,0.7l1,1.2l0.7-0.7c0.3,0.1,0.6,0.4,1,0.6l-0.1,1l1.6,0.3l0.1-1
		c0.1,0,0.3,0,0.6,0c0.1,0,0.3-0.1,0.6-0.1l0.6,0.9l1.3-0.9l-0.6-0.9c0.3-0.3,0.4-0.6,0.7-0.9L-63.7,65.7z M-67.5,65.4
		c-1.2,0.3-2.2-0.4-2.4-1.6c-0.3-1.2,0.4-2.2,1.6-2.4c1.2-0.3,2.2,0.4,2.4,1.6C-65.7,64.2-66.5,65.3-67.5,65.4z"/>
	<path class="st0" d="M-73.3,63.9v-0.7h-0.4c0-0.1-0.1-0.3-0.1-0.4l0.4-0.3l-0.4-0.6l-0.4,0.3c-0.1-0.1-0.3-0.1-0.4-0.3l0.1-0.4
		l-0.7-0.1l-0.1,0.4c-0.1,0-0.3,0-0.6,0.1l-0.3-0.4l-0.7,0.4l0.3,0.4c-0.1,0.1-0.3,0.3-0.3,0.4l-0.4-0.1l-0.3,0.7l0.4,0.1
		c0,0.1,0,0.3,0,0.6l-0.4,0.1l0.3,0.7l0.4-0.1c0.1,0.1,0.1,0.3,0.3,0.4l-0.3,0.4l0.7,0.4l0.3-0.4c0.1,0,0.3,0.1,0.6,0.1v0.4l0.7-0.1
		v-0.4c0.1,0,0.1,0,0.3-0.1c0.1,0,0.1-0.1,0.3-0.1l0.4,0.3l0.6-0.6l-0.4-0.3c0.1-0.1,0.1-0.3,0.1-0.4L-73.3,63.9z M-75.3,64.4
		c-0.4,0.3-1,0.1-1.3-0.4c-0.3-0.4-0.1-1,0.4-1.3c0.4-0.3,1-0.1,1.3,0.4C-74.5,63.5-74.7,64.1-75.3,64.4z"/>
	<path class="st1" d="M-62.2,59.2l0.1-0.4l-0.3-0.1c0-0.1,0-0.3,0-0.3l0.3-0.1l-0.1-0.4l-0.3,0.1c0-0.1-0.1-0.1-0.3-0.3l0.1-0.3
		l-0.4-0.3l-0.1,0.3c-0.1,0-0.3,0-0.3,0v-0.3l-0.4,0.1v0.3c-0.1,0-0.1,0.1-0.3,0.1l-0.3-0.1l-0.3,0.4l0.3,0.1c0,0.1-0.1,0.1-0.1,0.3
		H-65v0.4h0.3c0,0.1,0,0.3,0.1,0.3l-0.3,0.1l0.3,0.4l0.3-0.1c0.1,0,0.1,0.1,0.3,0.1v0.3l0.4,0.1v-0.3h0.1h0.1l0.1,0.3l0.4-0.3
		l-0.1-0.3c0.1-0.1,0.1-0.1,0.1-0.3L-62.2,59.2z M-63.4,59c-0.3,0-0.7-0.1-0.7-0.4c0-0.3,0.1-0.7,0.4-0.7c0.3,0,0.7,0.1,0.7,0.4
		C-62.8,58.6-63.1,58.9-63.4,59z"/>
</g>
</svg>
