<?xml version="1.0" encoding="utf-8"?>
<!-- Generator: Adobe Illustrator 19.0.0, SVG Export Plug-In . SVG Version: 6.00 Build 0)  -->
<svg version="1.1" id="Capa_1" xmlns="http://www.w3.org/2000/svg" xmlns:xlink="http://www.w3.org/1999/xlink" x="0px" y="0px"
	 viewBox="-222.4 362.6 283.2 236.3" style="enable-background:new -222.4 362.6 283.2 236.3;" xml:space="preserve">
<style type="text/css">
	.st0{fill:#D20E21;}
	.st1{fill:#F7ED3C;}
	.st2{fill:#3A3839;}
</style>
<g>
	<path class="st0" d="M52.4,594.1h-266.2c-1.5,0-2.8-1.2-2.8-2.8v-48.7c0-1.5,1.2-2.8,2.8-2.8h50.7l39.4-75.5
		c4.8-9.3,14.2-15.1,24.7-15.1h36.6c10.4,0,19.9,5.8,24.7,15.1l0,0l39.4,75.5h50.7c1.5,0,2.8,1.2,2.8,2.8v48.7
		C55.2,592.8,53.9,594.1,52.4,594.1z M-211.2,588.7H49.7v-43.2H-211v43.2C-211,588.7-211.2,588.7-211.2,588.7z M-25,539.8h20.5
		l-38.1-72.9c-3.8-7.5-11.4-12.1-19.9-12.1h-36.6c-8.4,0-16.1,4.6-19.9,12.1l-38.1,72.9h20.5l19.7-40.1c0.5-1.2,1.8-1.8,3.1-1.5
		c1.2,0.3,2.2,1.3,2.2,2.7v38.8h61.6V501c0-1.3,0.8-2.3,2.2-2.7c1.2-0.3,2.5,0.3,3.1,1.5L-25,539.8z M-44.4,539.8H-31l-13.4-27
		V539.8z M-130.4,539.8h13.4v-27L-130.4,539.8z M25.9,582.5c-8.6,0-15.6-7-15.6-15.6c0-8.6,7-15.6,15.6-15.6s15.6,7,15.6,15.6
		C41.4,575.6,34.3,582.5,25.9,582.5z M25.9,556.9c-5.6,0-10.1,4.5-10.1,10.1c0,5.6,4.5,10.1,10.1,10.1c5.6,0,10.1-4.5,10.1-10.1
		C36,561.3,31.3,556.9,25.9,556.9z M-16.9,582.5c-8.6,0-15.6-7-15.6-15.6c0-8.6,7-15.6,15.6-15.6s15.6,7,15.6,15.6
		C-1.3,575.6-8.3,582.5-16.9,582.5z M-16.9,556.9c-5.6,0-10.1,4.5-10.1,10.1c0,5.6,4.5,10.1,10.1,10.1c5.6,0,10.1-4.5,10.1-10.1
		C-6.8,561.3-11.3,556.9-16.9,556.9z M-59.5,582.5c-8.6,0-15.6-7-15.6-15.6c0-8.6,7-15.6,15.6-15.6c8.6,0,15.6,7,15.6,15.6
		C-43.9,575.6-50.8,582.5-59.5,582.5z M-59.5,556.9c-5.6,0-10.1,4.5-10.1,10.1c0,5.6,4.5,10.1,10.1,10.1c5.6,0,10.1-4.5,10.1-10.1
		C-49.4,561.3-53.8,556.9-59.5,556.9z M-102,582.5c-8.6,0-15.6-7-15.6-15.6c0-8.6,7-15.6,15.6-15.6c8.6,0,15.6,7,15.6,15.6
		C-86.5,575.6-93.4,582.5-102,582.5z M-102,556.9c-5.6,0-10.1,4.5-10.1,10.1c0,5.6,4.5,10.1,10.1,10.1c5.6,0,10.1-4.5,10.1-10.1
		C-91.9,561.3-96.6,556.9-102,556.9z M-144.6,582.5c-8.6,0-15.6-7-15.6-15.6c0-8.6,7-15.6,15.6-15.6c8.6,0,15.6,7,15.6,15.6
		C-129,575.6-136.2,582.5-144.6,582.5z M-144.6,556.9c-5.6,0-10.1,4.5-10.1,10.1c0,5.6,4.5,10.1,10.1,10.1c5.6,0,10.1-4.5,10.1-10.1
		C-134.5,561.3-139.1,556.9-144.6,556.9z M-187.4,582.5c-8.6,0-15.6-7-15.6-15.6c0-8.6,7-15.6,15.6-15.6s15.6,7,15.6,15.6
		C-171.8,575.6-178.7,582.5-187.4,582.5z M-187.4,556.9c-5.6,0-10.1,4.5-10.1,10.1c0,5.6,4.5,10.1,10.1,10.1s10.1-4.5,10.1-10.1
		C-177.2,561.3-181.7,556.9-187.4,556.9z M-80.8,446c-13.6,0-25.2-8.1-30.5-19.7c-1,0.8-2.3,1.2-3.6,1.2h-4.5
		c-3.5,0-6.1-2.8-6.1-6.1v-20.5c0-3.5,2.8-6.1,6.1-6.1h0.3c2.7-6.6,12.9-27.3,38.3-27.3c25.5,0,35.8,20.7,38.3,27.3h0.3
		c3.5,0,6.1,2.8,6.1,6.1v20.5c0,3.5-2.8,6.1-6.1,6.1h-4.5c-1.3,0-2.7-0.5-3.6-1.2C-55.5,437.9-67.2,446-80.8,446z M-80.8,384.6
		c-15.4,0-28,12.6-28,28s12.6,28,28,28s28-12.6,28-28S-65.3,384.6-80.8,384.6z M-47.2,412.6v8.8c0,0.3,0.3,0.7,0.7,0.7h4.5
		c0.3,0,0.7-0.3,0.7-0.7v-20.5c0-0.3-0.3-0.7-0.7-0.7h-2.2c0,0,0,0-0.2,0h-2.2c-0.3,0-0.7,0.3-0.7,0.7
		C-47.2,400.8-47.2,412.6-47.2,412.6z M-119.4,400.2c-0.3,0-0.7,0.3-0.7,0.7v20.5c0,0.3,0.3,0.7,0.7,0.7h4.5c0.3,0,0.7-0.3,0.7-0.7
		v-20.5c0-0.3-0.3-0.7-0.7-0.7h-2.2c0,0,0,0-0.2,0H-119.4z M-113.3,395c1.2,0.3,2.2,1,3,1.8c5.6-10.6,16.7-17.7,29.5-17.7
		s23.9,7.1,29.5,17.7c0.8-0.8,1.8-1.5,3-1.8c-3-7-12.1-22-32.5-22C-101,372.8-110.2,388.1-113.3,395z"/>
	<circle class="st1" cx="-187.4" cy="567" r="8.1"/>
	<circle class="st1" cx="-144.6" cy="567" r="8.1"/>
	<circle class="st1" cx="-102" cy="567" r="8.1"/>
	<circle class="st1" cx="-59.5" cy="567" r="8.1"/>
	<circle class="st1" cx="-16.9" cy="567" r="8.1"/>
	<circle class="st1" cx="25.9" cy="567" r="8.1"/>
	<circle class="st2" cx="-80.8" cy="412.6" r="28"/>
	<rect x="-119.4" y="400.2" class="st1" width="5.3" height="21.2"/>
	<rect x="-46.5" y="400.2" class="st1" width="5.3" height="21.2"/>
</g>
</svg>
