<?xml version="1.0" encoding="utf-8"?>
<!-- Generator: Adobe Illustrator 19.0.0, SVG Export Plug-In . SVG Version: 6.00 Build 0)  -->
<svg version="1.1" id="Layer_1" xmlns="http://www.w3.org/2000/svg" xmlns:xlink="http://www.w3.org/1999/xlink" x="0px" y="0px"
	 viewBox="1750.7 -779.5 1753.4 1995.6" style="enable-background:new 1750.7 -779.5 1753.4 1995.6;" xml:space="preserve">
<style type="text/css">
	.st0{fill:#D8BBBA;}
	.st1{fill:#D8BCBB;}
	.st2{fill:#CCA4A4;}
	.st3{fill:#8C3231;}
	.st4{fill:#B40000;}
	.st5{fill:#FFFFFF;}
</style>
<g id="Layer_x0020_1">
	<polygon class="st0" points="2503.6,1215.7 2505.4,1216.1 2505.3,1212.4 	"/>
	<polygon class="st1" points="2197.4,1215.7 2199.3,1216.1 2199.2,1212.4 	"/>
	<path class="st2" d="M3015.5,1144.1l-2-0.6l-1,1.3c3.2,0.2-1.8,0.5,1.7,0L3015.5,1144.1z"/>
	<g id="_12701922096">
		<path class="st3" d="M2676.8,827.7c-161-54.5-298.4-180.2-366.1-335.6c-67.6-155.8-66.2-341.3,3.4-496.8
			c60.3,27.5,120.1,54.6,181,82.2c-47.7,104.5-48.9,229.8-2.6,335.2c45.5,105.4,138.2,189.8,246.6,226.3
			C2718.4,701.9,2697.7,764.4,2676.8,827.7z"/>
		<path class="st4" d="M2892.9,944.9c-174.4,20.1-356.7-30.1-496.8-136.4c-138.8-106.3-235.4-268.5-262.9-441.7
			c-26.8-173.1,16.3-357.2,116.1-500.8c101.3-143.7,258.7-246.9,431.4-280.9c4.1,21.2,8.2,42.2,12.6,62.8
			c-156,30.7-299.7,124.6-391.1,254.9c-91.2,129.8-129.8,297.1-105.7,454c24.6,157.2,112.5,304.4,238.9,400.8
			c127.1,96.4,292.1,141.5,450.3,123.7C2887.6,902.5,2890.2,923.8,2892.9,944.9z"/>
		<path class="st4" d="M2674.1,241.9c-307.8-9.9-615.3-18.8-922.9-29c4.7-160.9,45.6-320.7,117.3-464.9
			c275.2,137.3,550.8,275.2,826.1,412.4C2682.3,185.7,2675.3,213.4,2674.1,241.9z"/>
		<path class="st4" d="M2562.2,519.7c-173.9,151.4-348.6,302.1-522.6,453.5c-36.6-42.9-70.4-88.2-100.6-135.4
			c194.8-123.4,389.7-246.9,583.9-370.2C2534.7,485.9,2548.2,503.6,2562.2,519.7z"/>
		<path class="st5" d="M2564.8-265.3c-71.3-153.3-142.9-306.5-214.9-458.9c3.7-1.7,7.4-3.4,11.1-5l2.2-1
			c43.1-19.1,87.3-35.8,132.3-49.4c47.9,162,96.2,323.8,144.1,485.7C2614-286.3,2589.1-277,2564.8-265.3z"/>
		<path class="st3" d="M1898.6,393.3c-47-253.5,18.9-528,175.8-733.1c157.1-204.3,405.1-339.2,662.3-359.9
			c3.3,43.9,7.2,88,10.7,131.6c-220.6,18-433.2,133.6-567.6,309c-134.9,175-191.1,410.7-151.4,628.1
			C1985.1,377.6,1941.6,385.3,1898.6,393.3z"/>
		<path class="st5" d="M2718.3,129.3C2396-85.5,2072.8-300,1750.7-515.3c12.2-18.7,25.5-36.7,39-55.2
			C2099.2-337,2408.5-103.4,2718.3,129.3L2718.3,129.3z"/>
		<path class="st5" d="M2317.7,975c-215-149.8-357.2-403.1-371.6-664.7c61.2-3.5,123-7,184.8-10.5
			c11.5,205.5,123.3,405.1,292.5,522.9C2387.7,873.4,2352.1,924,2317.7,975z"/>
		<path class="st5" d="M2993.8,881.6c247.7-57.6,451.9-281.9,486-533.9c34-251.6-103.4-522.5-327-643.5c3-5.6,6.3-11.1,9.2-16.8
			c230.3,124.8,371.8,403.6,336.9,662.7c-35,259.9-245.7,490.9-500.7,550.3C2996.8,893.9,2995.3,887.7,2993.8,881.6z"/>
		<path class="st4" d="M2595.1-39.1c-2.1,1.7-4.1,3.4-6.1,5.1l-1.8-1.6l-3.6-3.3l-3.6-3.3l-3.6-3.3l-3.6-3.3l-3.6-3.3l-3.6-3.3
			l-3.6-3.3l-3.6-3.3l-3.6-3.3l-3.6-3.3l-3.6-3.3l-3.6-3.3l-3.6-3.3l-3.6-3.3l-3.6-3.3l-3.6-3.3l-3.6-3.3l-3.6-3.3l-3.6-3.3
			l-3.6-3.3l-3.6-3.3l-3.6-3.3l-3.6-3.3l-3.6-3.3l-3.6-3.3l-3.6-3.3l-3.6-3.3l-3.6-3.3l-3.6-3.3l-3.6-3.3l-3.6-3.3l-3.6-3.3
			l-3.6-3.3l-3.6-3.3l-3.6-3.3l-3.6-3.3l-2.9-2.7l2-1.8c4-3.5,8.1-6.9,12.2-10.3c4.5-3.7,9.1-7.4,13.8-11.1
			c5.3-4.1,10.6-8.1,16.1-12.1c6.4-4.7,13-9.2,19.6-13.7c8.6-5.7,17.4-11.3,26.5-16.7c21.4-12.8,44-24.5,67.8-35.1
			c24-10.7,48-19.6,72-27.1c10.1-3.1,20.3-6,30.4-8.6c7.7-2,15.5-3.7,23.2-5.4c6.7-1.4,13.3-2.8,19.9-3.9c5.8-1,11.6-2,17.4-2.8
			c5.3-0.8,10.6-1.5,15.8-2.1c4.9-0.6,9.7-1.1,14.6-1.6c4.5-0.4,9.1-0.8,13.6-1.1c4.3-0.3,8.6-0.6,12.8-0.8c4-0.2,8.1-0.3,12.1-0.5
			c3.8-0.1,7.6-0.2,11.5-0.2c3.7,0,7.3,0,11,0c3.5,0,7.1,0.1,10.6,0.2c3.4,0.1,6.8,0.2,10.2,0.4c3.3,0.2,6.5,0.4,9.7,0.6
			c3.2,0.2,6.3,0.4,9.5,0.7c3.1,0.3,6.2,0.5,9.2,0.8c2.9,0.3,5.9,0.7,8.8,1c2.9,0.3,5.8,0.7,8.7,1.1c2.8,0.4,5.6,0.8,8.4,1.2
			c2.7,0.4,5.4,0.8,8.2,1.3c2.7,0.4,5.4,0.9,8.1,1.3c2.6,0.5,5.2,1,7.8,1.5c2.6,0.5,5.1,1,7.6,1.5c2.5,0.5,5,1.1,7.4,1.6
			c2.4,0.5,4.9,1.1,7.3,1.7c2.4,0.6,4.8,1.1,7.2,1.7c2.3,0.6,4.7,1.2,7,1.8c2.3,0.6,4.6,1.2,6.9,1.9c2.2,0.6,4.5,1.3,6.7,1.9
			c2.2,0.6,4.4,1.3,6.6,2c2.2,0.7,4.3,1.4,6.5,2c2.1,0.7,4.3,1.4,6.4,2.1c2.1,0.7,4.2,1.4,6.3,2.1c2.1,0.7,4.1,1.4,6.2,2.2
			c2,0.7,4,1.5,6.1,2.2c2,0.7,4,1.5,6,2.3c2,0.8,3.9,1.5,5.9,2.3c1.9,0.8,3.8,1.6,5.8,2.4c1.9,0.8,3.8,1.6,5.7,2.4
			c1.9,0.8,3.7,1.6,5.6,2.4c1.9,0.8,3.7,1.6,5.6,2.4c1.8,0.8,3.6,1.7,5.4,2.5c1.8,0.8,3.6,1.7,5.4,2.5c1.8,0.8,3.5,1.7,5.3,2.6
			c1.7,0.9,3.5,1.7,5.2,2.6c1.7,0.9,3.4,1.7,5.2,2.6c1.7,0.9,3.4,1.8,5.1,2.7c1.7,0.9,3.4,1.8,5.1,2.7c1.6,0.9,3.3,1.8,4.9,2.7
			c1.6,0.9,3.3,1.8,4.9,2.7c1.6,0.9,3.2,1.8,4.8,2.8c1.6,0.9,3.2,1.9,4.7,2.8c1.6,0.9,3.2,1.9,4.7,2.8c1.5,0.9,3.1,1.9,4.6,2.9
			c1.5,1,3.1,1.9,4.6,2.9c1.5,1,3,1.9,4.5,2.9c1.5,1,3,2,4.4,2.9c1.5,1,3,1.9,4.4,2.9c1.4,1,2.9,2,4.3,3c1.4,1,2.9,2,4.3,3
			c1.4,1,2.8,2,4.3,3c1.4,1,2.8,2,4.2,3.1c1.4,1,2.8,2,4.2,3.1c1.4,1,2.7,2.1,4.1,3.1c1.4,1,2.7,2.1,4,3.1c1.3,1,2.7,2.1,4,3.1
			c1.3,1,2.6,2.1,3.9,3.2c1.3,1.1,2.6,2.1,3.9,3.2c1.3,1.1,2.6,2.1,3.9,3.2c1.3,1.1,2.5,2.2,3.8,3.2c1.3,1.1,2.5,2.1,3.8,3.2
			c1.2,1.1,2.5,2.2,3.7,3.3c1.2,1.1,2.4,2.2,3.7,3.3c1.2,1.1,2.5,2.2,3.7,3.3c1.2,1.1,2.4,2.2,3.6,3.3c1.2,1.1,2.4,2.2,3.5,3.3
			c1.2,1.1,2.4,2.2,3.5,3.3c1.2,1.1,2.3,2.3,3.4,3.4c1.1,1.1,2.3,2.3,3.4,3.4c1.1,1.1,2.3,2.3,3.4,3.4c1.1,1.1,2.2,2.3,3.3,3.4
			c1.1,1.1,2.2,2.3,3.3,3.4c1.1,1.2,2.2,2.3,3.3,3.5c1.1,1.1,2.1,2.3,3.2,3.5c1.1,1.2,2.1,2.3,3.2,3.5c1.1,1.2,2.1,2.3,3.2,3.5
			c1,1.2,2.1,2.4,3.1,3.5c1,1.2,2.1,2.4,3.1,3.5c1,1.2,2,2.4,3.1,3.6c1,1.2,2,2.4,3,3.6c1,1.2,2,2.4,3,3.6c1,1.2,2,2.4,3,3.6
			c1,1.2,1.9,2.4,2.9,3.6c1,1.2,1.9,2.4,2.9,3.6c1,1.2,1.9,2.4,2.9,3.6c0.9,1.2,1.9,2.5,2.8,3.7c0.9,1.2,1.9,2.5,2.8,3.7
			c0.9,1.2,1.8,2.5,2.8,3.7c0.9,1.2,1.8,2.5,2.7,3.7c0.9,1.2,1.8,2.5,2.7,3.7c0.9,1.2,1.8,2.5,2.7,3.7c0.9,1.2,1.7,2.5,2.6,3.8
			c0.9,1.3,1.7,2.5,2.6,3.8c0.9,1.3,1.7,2.5,2.6,3.8c0.8,1.3,1.6,2.6,2.5,3.8c0.8,1.3,1.7,2.5,2.5,3.8c0.8,1.3,1.7,2.5,2.5,3.8
			c0.8,1.3,1.6,2.6,2.4,3.9c0.8,1.3,1.6,2.6,2.4,3.9c0.8,1.3,1.6,2.6,2.4,3.9c0.8,1.3,1.5,2.6,2.3,3.9c0.8,1.3,1.5,2.6,2.3,3.9
			c0.8,1.3,1.5,2.6,2.3,3.9c0.7,1.3,1.5,2.6,2.2,3.9c0.7,1.3,1.4,2.6,2.2,4c0.7,1.3,1.5,2.6,2.2,4c0.7,1.3,1.4,2.6,2.1,4
			c0.7,1.3,1.4,2.7,2.1,4c0.7,1.3,1.4,2.7,2.1,4c0.7,1.3,1.4,2.7,2.1,4c0.7,1.3,1.3,2.7,2,4c0.7,1.3,1.3,2.7,2,4
			c0.7,1.4,1.3,2.7,2,4c0.6,1.4,1.2,2.7,1.9,4.1c0.6,1.4,1.2,2.7,1.9,4.1c0.6,1.4,1.3,2.7,1.9,4.1c0.2,0.4,0.4,0.8,0.5,1.2l1.3,2.9
			l0,0c0.6,1.4,1.2,2.8,1.8,4.1c0.6,1.4,1.2,2.8,1.8,4.1c0.6,1.4,1.2,2.7,1.8,4.1c0.6,1.4,1.1,2.8,1.7,4.2c0.6,1.4,1.1,2.8,1.7,4.2
			c0.6,1.4,1.1,2.8,1.7,4.2c0.5,1.4,1.1,2.8,1.6,4.2c0.5,1.4,1.1,2.8,1.6,4.2c0.5,1.4,1.1,2.8,1.6,4.2c0.5,1.4,1,2.8,1.6,4.2
			c0.5,1.4,1,2.8,1.5,4.3c0.5,1.4,1,2.8,1.5,4.3c0.5,1.4,1,2.8,1.5,4.3c0.5,1.4,0.9,2.9,1.4,4.3c0.5,1.4,0.9,2.9,1.4,4.3
			c0.5,1.4,0.9,2.9,1.4,4.3c0.4,1.4,0.9,2.9,1.3,4.3c0.4,1.4,0.9,2.9,1.3,4.4c0.4,1.5,0.9,2.9,1.3,4.4c0.4,1.5,0.8,2.9,1.2,4.4
			c0.4,1.5,0.8,2.9,1.2,4.4c0.4,1.5,0.8,2.9,1.2,4.4c0.4,1.5,0.7,2.9,1.1,4.4c0.4,1.5,0.7,3,1.1,4.4c0.4,1.5,0.7,3,1.1,4.4
			c0.3,1.5,0.7,3,1,4.5c0.3,1.5,0.6,3,1,4.5c0.3,1.5,0.7,3,1,4.5c0.3,1.5,0.6,3,0.9,4.5c0.3,1.5,0.6,3,0.9,4.5
			c0.3,1.5,0.6,3,0.9,4.5c0.3,1.5,0.6,3,0.8,4.6c0.3,1.5,0.5,3.1,0.8,4.6c0.3,1.5,0.5,3.1,0.8,4.6c0.2,1.5,0.5,3.1,0.7,4.6
			c0.2,1.5,0.4,3.1,0.7,4.6c0.2,1.5,0.4,3.1,0.7,4.6c0.2,1.5,0.4,3.1,0.6,4.6c0.2,1.6,0.4,3.1,0.5,4.7c0.2,1.6,0.4,3.1,0.5,4.7
			c0.2,1.6,0.3,3.1,0.5,4.7c0.2,1.6,0.3,3.2,0.4,4.7c0.1,1.6,0.3,3.2,0.4,4.7c0.1,1.6,0.3,3.2,0.4,4.7c0.1,1.6,0.2,3.2,0.3,4.8
			c0.1,1.6,0.2,3.2,0.3,4.8c0.1,1.6,0.2,3.2,0.3,4.8c0.1,1.6,0.1,3.2,0.2,4.8c0.1,1.6,0.2,3.2,0.2,4.8c0.1,1.6,0.1,3.2,0.1,4.9
			c0,1.6,0.1,3.3,0.1,4.9c0,1.6,0.1,3.3,0.1,4.9c0,1.6,0,3.3,0,4.9c0,1.6,0,3.3,0,4.9c0,1.6,0,3.3,0,4.9c0,1.7-0.1,3.3-0.1,5
			c0,1.7-0.1,3.3-0.1,5c-0.1,1.7-0.1,3.3-0.2,5c-0.1,1.7-0.2,3.4-0.3,5c-0.1,1.7-0.2,3.4-0.3,5c-0.1,1.7-0.2,3.4-0.3,5.1
			c-0.1,1.7-0.3,3.4-0.4,5.1c-0.1,1.7-0.2,3.4-0.4,5.1c-0.2,1.7-0.3,3.4-0.5,5.1c-0.2,1.7-0.3,3.4-0.5,5.2c-0.2,1.7-0.3,3.4-0.5,5.2
			c-0.2,1.7-0.4,3.5-0.7,5.2c-0.2,1.7-0.4,3.5-0.7,5.2c-0.2,1.7-0.5,3.5-0.7,5.2c-0.3,1.8-0.5,3.5-0.8,5.3c-0.3,1.8-0.5,3.5-0.8,5.3
			c-0.3,1.8-0.6,3.6-0.9,5.3c-0.3,1.8-0.6,3.6-0.9,5.3c-0.3,1.8-0.7,3.6-1,5.4c-0.3,1.8-0.7,3.6-1.1,5.4s-0.7,3.6-1.1,5.4
			c-0.4,1.8-0.8,3.6-1.2,5.5c-0.4,1.8-0.8,3.7-1.2,5.5c-0.4,1.8-0.9,3.7-1.3,5.5c-0.5,1.9-0.9,3.7-1.4,5.5c-0.5,1.8-0.9,3.7-1.4,5.5
			c-0.5,1.9-1.1,3.7-1.6,5.6c-0.5,1.9-1,3.7-1.6,5.6c-0.5,1.9-1.1,3.8-1.7,5.7c-0.6,1.9-1.2,3.8-1.7,5.7c-0.6,1.9-1.2,3.8-1.8,5.7
			c-0.6,1.9-1.3,3.9-1.9,5.8c-0.7,1.9-1.3,3.9-1.9,5.8c-0.7,2-1.4,3.9-2.1,5.9c-0.7,2-1.4,3.9-2.1,5.9c-0.7,2-1.5,4-2.3,5.9
			c-0.8,2-1.5,4-2.3,6c-0.8,2-1.6,4-2.5,6c-0.8,2-1.7,4-2.5,6c-0.9,2-1.8,4.1-2.7,6.1c-0.9,2.1-1.8,4.1-2.8,6.1
			c-0.9,2.1-1.9,4.1-2.9,6.2c-1,2.1-2,4.2-3,6.2c-1,2.1-2.1,4.2-3.1,6.3c-1.1,2.1-2.1,4.2-3.2,6.4c-1.1,2.2-2.3,4.3-3.4,6.4
			c-1.2,2.2-2.3,4.3-3.5,6.5c-1.2,2.2-2.5,4.4-3.7,6.6c-1.3,2.2-2.5,4.4-3.8,6.6c-1.3,2.3-2.7,4.5-4.1,6.7c-1.4,2.3-2.7,4.5-4.1,6.8
			c-1.4,2.3-2.9,4.6-4.4,6.9c-1.5,2.3-3,4.6-4.6,6.9c-1.6,2.4-3.2,4.7-4.8,7c-1.7,2.4-3.4,4.8-5.1,7.2c-1.7,2.4-3.5,4.8-5.2,7.2
			c-1.8,2.5-3.7,4.9-5.6,7.4c-1.9,2.5-3.9,5-5.9,7.5c-2,2.6-4,5.1-6.1,7.6c-2.1,2.6-4.3,5.2-6.5,7.8c-2.3,2.7-4.6,5.4-7,8
			c-2.4,2.7-4.9,5.5-7.4,8.2c-2.6,2.8-5.2,5.6-7.8,8.4c-2.8,2.9-5.6,5.8-8.4,8.6c-3,3-6.1,6-9.2,9c-3.3,3.1-6.6,6.3-10,9.3
			c-3.6,3.3-7.2,6.6-10.9,9.8c-4,3.5-8,6.9-12.1,10.3c-4.5,3.7-9.2,7.4-13.8,11.1c-5.3,4.1-10.7,8.2-16.2,12.1
			c-6.4,4.6-12.9,9.2-19.5,13.6c-8.7,5.8-17.5,11.4-26.6,16.8c-21.5,12.8-44.1,24.5-67.9,35.1c-24,10.7-48,19.7-72,27.1
			c-10.1,3.1-20.2,6-30.3,8.6c-7.8,2-15.6,3.8-23.3,5.5c-6.6,1.4-13.2,2.7-19.8,3.9c-5.8,1-11.7,2-17.5,2.9
			c-5.3,0.8-10.6,1.5-15.8,2.1c-4.9,0.6-9.7,1.1-14.6,1.6c-4.5,0.4-9.1,0.8-13.6,1.1c-4.3,0.3-8.5,0.6-12.8,0.8
			c-4,0.2-8.1,0.4-12.1,0.5c-3.8,0.1-7.7,0.2-11.5,0.2c-3.7,0-7.3,0-11,0c-3.5,0-7-0.1-10.5-0.2c-3.4-0.1-6.8-0.2-10.2-0.4
			c-3.3-0.2-6.5-0.4-9.8-0.6c-3.2-0.2-6.3-0.4-9.5-0.7c-3.1-0.3-6.1-0.5-9.2-0.8c-3-0.3-5.9-0.6-8.9-1c-2.9-0.3-5.8-0.7-8.6-1.1
			c-2.8-0.4-5.6-0.8-8.4-1.2c-2.7-0.4-5.5-0.8-8.2-1.3c-2.7-0.4-5.3-0.9-8-1.4c-2.6-0.5-5.2-0.9-7.8-1.4c-2.5-0.5-5.1-1-7.6-1.5
			c-2.5-0.5-5-1.1-7.5-1.6c-2.4-0.5-4.9-1.1-7.3-1.7c-2.4-0.6-4.8-1.1-7.2-1.7c-2.3-0.6-4.7-1.2-7-1.8c-2.3-0.6-4.6-1.2-6.9-1.9
			c-1.4-0.4-2.7-0.8-4.1-1.2l0.8-2.3l1.9-5.8l1.9-5.8l1.9-5.8l1.9-5.8l1.9-5.8l1.9-5.8l1.9-5.8l1.9-5.8l1.9-5.8l1.9-5.8l1.9-5.8
			l1.9-5.8l1.9-5.8l1.9-5.8l1.9-5.8l1.9-5.8l1.9-5.8l1.9-5.8l1.9-5.8l1.9-5.8l1.9-5.8l1.9-5.8l1.9-5.8l1.9-5.8l1.9-5.8l1.9-5.8
			l1.9-5.8l1.9-5.8l1.9-5.8l1.9-5.8l1.9-5.8l1.1-3.3c1.2,0.4,2.4,0.8,3.6,1.2c2.1,0.7,4.3,1.4,6.5,2.1c2.2,0.7,4.4,1.3,6.6,2
			c2.3,0.6,4.5,1.3,6.8,1.9c2.3,0.6,4.7,1.2,7,1.8c2.4,0.6,4.8,1.2,7.2,1.7c2.5,0.6,5,1.1,7.5,1.6c2.6,0.5,5.1,1,7.7,1.5
			c2.7,0.5,5.3,0.9,8,1.4c2.8,0.4,5.6,0.8,8.3,1.2c2.9,0.4,5.8,0.7,8.7,1.1c3,0.3,6.1,0.6,9.1,0.9c3.2,0.3,6.4,0.5,9.6,0.7
			c3.4,0.2,6.7,0.3,10.1,0.4c3.6,0.1,7.2,0.1,10.7,0.1c3.8,0,7.7-0.1,11.5-0.2c4.1-0.1,8.3-0.3,12.5-0.6c4.6-0.3,9.2-0.7,13.8-1.2
			c5.2-0.5,10.3-1.2,15.5-2c6.1-0.9,12.2-2,18.3-3.2c7.8-1.6,15.6-3.4,23.4-5.5c15.3-4.1,30.7-9.3,45.9-15.5
			c3.8-1.6,7.7-3.2,11.5-4.9c3.7-1.7,7.4-3.4,11-5.1c15.1-7.3,29.5-15.3,43-24c6.8-4.4,13.4-9,19.8-13.7c5-3.7,9.9-7.5,14.7-11.4
			c4.1-3.3,8.1-6.8,12-10.2c3.4-3.1,6.8-6.2,10.1-9.4c3-2.9,6-5.9,8.9-8.9c2.7-2.8,5.3-5.6,7.8-8.4c2.4-2.7,4.7-5.3,7.1-8.1
			c2.2-2.6,4.3-5.2,6.4-7.8c2-2.5,4-5,5.9-7.5c1.8-2.4,3.6-4.9,5.4-7.3c1.7-2.4,3.4-4.7,5-7.2c1.6-2.3,3.1-4.6,4.7-7
			c1.5-2.3,2.9-4.6,4.3-6.9c1.4-2.2,2.7-4.5,4.1-6.7c1.3-2.2,2.5-4.4,3.8-6.6c1.2-2.1,2.4-4.3,3.5-6.5c1.1-2.1,2.2-4.3,3.3-6.4
			c1.1-2.1,2.1-4.2,3.1-6.3c1-2.1,2-4.1,3-6.2c0.9-2,1.8-4.1,2.7-6.1c0.9-2,1.7-4,2.6-6.1c0.8-2,1.6-4,2.4-6c0.8-2,1.5-3.9,2.3-5.9
			c0.7-1.9,1.4-3.9,2.1-5.9c0.7-1.9,1.4-3.9,2-5.8c0.6-1.9,1.3-3.8,1.9-5.8c0.6-1.9,1.2-3.8,1.7-5.7c0.6-1.9,1.1-3.8,1.7-5.7
			c0.5-1.9,1-3.7,1.5-5.6c0.5-1.8,1-3.7,1.4-5.5c0.5-1.8,0.9-3.7,1.3-5.5c0.4-1.8,0.8-3.6,1.2-5.5c0.4-1.8,0.8-3.6,1.1-5.4
			c0.4-1.8,0.7-3.6,1.1-5.4c0.3-1.8,0.6-3.6,0.9-5.3c0.3-1.8,0.6-3.5,0.9-5.3c0.3-1.8,0.5-3.5,0.8-5.3c0.2-1.7,0.5-3.5,0.7-5.2
			c0.2-1.7,0.4-3.5,0.6-5.2c0.2-1.7,0.4-3.4,0.5-5.2c0.2-1.7,0.4-3.4,0.5-5.1c0.2-1.7,0.3-3.4,0.4-5.1c0.1-1.7,0.3-3.4,0.4-5.1
			c0.1-1.7,0.2-3.4,0.3-5c0.1-1.7,0.2-3.3,0.2-5c0.1-1.7,0.1-3.3,0.1-5c0-1.7,0.1-3.3,0.1-5c0-1.6,0-3.3,0-4.9c0-1.6,0-3.3,0-4.9
			c0-1.6-0.1-3.3-0.1-4.9c0-1.6-0.1-3.2-0.2-4.9c-0.1-1.6-0.1-3.2-0.2-4.8c-0.1-1.6-0.2-3.2-0.3-4.8c-0.1-1.6-0.2-3.2-0.3-4.8
			c-0.1-1.6-0.3-3.2-0.4-4.7c-0.1-1.6-0.3-3.2-0.4-4.7c-0.2-1.6-0.3-3.1-0.5-4.7c-0.2-1.6-0.3-3.1-0.5-4.7c-0.2-1.5-0.4-3.1-0.6-4.7
			c-0.2-1.5-0.4-3.1-0.6-4.6c-0.2-1.5-0.5-3.1-0.7-4.6c-0.2-1.5-0.5-3.1-0.7-4.6c-0.3-1.5-0.5-3-0.8-4.6c-0.3-1.5-0.5-3-0.8-4.6
			c-0.3-1.5-0.6-3-0.9-4.5c-0.3-1.5-0.6-3-0.9-4.5c-0.3-1.5-0.6-3-1-4.5c-0.3-1.5-0.7-3-1-4.5c-0.3-1.5-0.7-3-1.1-4.5
			c-0.4-1.5-0.7-2.9-1.1-4.4c-0.4-1.5-0.7-2.9-1.1-4.4c-0.4-1.5-0.8-2.9-1.2-4.4c-0.4-1.5-0.8-2.9-1.2-4.4c-0.4-1.4-0.9-2.9-1.3-4.3
			c-0.4-1.4-0.9-2.9-1.3-4.3c-0.5-1.4-0.9-2.9-1.4-4.3c-0.5-1.4-0.9-2.9-1.4-4.3c-0.5-1.4-1-2.8-1.5-4.3c-0.5-1.4-1-2.8-1.5-4.3
			c-0.5-1.4-1-2.8-1.5-4.2c-0.5-1.4-1.1-2.8-1.6-4.2c-0.5-1.4-1.1-2.8-1.6-4.2c-0.5-1.4-1.1-2.8-1.7-4.2c-0.6-1.4-1.1-2.8-1.7-4.2
			c-0.6-1.4-1.2-2.8-1.8-4.1c-0.6-1.4-1.2-2.8-1.8-4.1c-0.2-0.4-0.3-0.8-0.5-1.2l-1.3-2.9l0,0c-0.6-1.4-1.2-2.7-1.9-4.1
			c-0.6-1.4-1.2-2.7-1.9-4.1c-0.6-1.4-1.3-2.7-1.9-4.1c-0.7-1.4-1.3-2.7-2-4c-0.7-1.3-1.3-2.7-2-4c-0.7-1.3-1.4-2.7-2.1-4
			c-0.7-1.3-1.4-2.7-2.1-4c-0.7-1.3-1.4-2.6-2.2-4c-0.7-1.3-1.4-2.6-2.2-4c-0.7-1.3-1.5-2.6-2.2-3.9c-0.8-1.3-1.5-2.6-2.3-3.9
			c-0.8-1.3-1.6-2.6-2.3-3.9c-0.8-1.3-1.6-2.6-2.3-3.9c-0.8-1.3-1.6-2.6-2.4-3.8c-0.8-1.3-1.6-2.6-2.4-3.8c-0.8-1.3-1.7-2.5-2.5-3.8
			c-0.8-1.3-1.7-2.5-2.5-3.8c-0.9-1.3-1.7-2.5-2.6-3.8c-0.9-1.3-1.8-2.5-2.6-3.7c-0.9-1.2-1.8-2.5-2.7-3.7c-0.9-1.2-1.8-2.5-2.7-3.7
			c-0.9-1.2-1.8-2.5-2.8-3.7c-0.9-1.2-1.9-2.4-2.8-3.7c-0.9-1.2-1.9-2.4-2.8-3.7c-1-1.2-2-2.4-2.9-3.6c-1-1.2-1.9-2.4-2.9-3.6
			c-1-1.2-2-2.4-3-3.6c-1-1.2-2-2.4-3-3.6c-1-1.2-2.1-2.3-3.1-3.5c-1-1.2-2.1-2.4-3.1-3.5c-1.1-1.2-2.2-2.3-3.2-3.5
			c-1.1-1.2-2.2-2.3-3.2-3.5c-1.1-1.2-2.2-2.3-3.3-3.4c-1.1-1.1-2.2-2.3-3.4-3.4c-1.1-1.1-2.3-2.3-3.5-3.4c-1.2-1.1-2.3-2.3-3.5-3.4
			c-1.2-1.1-2.4-2.2-3.6-3.3c-1.2-1.1-2.4-2.2-3.6-3.3c-1.2-1.1-2.5-2.2-3.7-3.3c-1.2-1.1-2.5-2.2-3.7-3.3c-1.3-1.1-2.5-2.2-3.8-3.2
			c-1.3-1.1-2.6-2.2-3.8-3.2c-1.3-1.1-2.6-2.1-3.9-3.2c-1.3-1.1-2.6-2.1-4-3.1c-1.3-1-2.7-2.1-4.1-3.1c-1.4-1-2.7-2.1-4.1-3.1
			c-1.4-1-2.8-2.1-4.2-3.1c-1.4-1-2.9-2-4.3-3c-1.4-1-2.9-2-4.3-3c-1.5-1-3-2-4.5-2.9c-1.5-1-3-2-4.5-2.9c-1.5-1-3.1-1.9-4.6-2.9
			c-1.5-1-3.1-1.9-4.7-2.8c-1.6-0.9-3.1-1.9-4.7-2.8c-1.6-0.9-3.2-1.8-4.9-2.8c-1.6-0.9-3.3-1.8-4.9-2.7c-1.7-0.9-3.4-1.8-5-2.7
			c-1.7-0.9-3.4-1.8-5.1-2.6c-1.7-0.9-3.5-1.8-5.2-2.6c-1.8-0.9-3.6-1.7-5.4-2.5c-1.8-0.8-3.6-1.7-5.5-2.5c-1.8-0.8-3.7-1.7-5.6-2.4
			c-1.9-0.8-3.8-1.6-5.7-2.4c-1.9-0.8-3.9-1.6-5.8-2.3c-2-0.8-4-1.5-5.9-2.3c-2-0.8-4.1-1.5-6.2-2.2c-2.1-0.7-4.2-1.4-6.3-2.1
			c-2.1-0.7-4.3-1.4-6.4-2.1c-2.2-0.7-4.4-1.3-6.6-2c-2.3-0.7-4.6-1.3-6.8-1.9c-2.3-0.6-4.7-1.2-7-1.8c-2.4-0.6-4.8-1.2-7.2-1.7
			c-2.5-0.6-5-1.1-7.5-1.6c-2.6-0.5-5.1-1-7.7-1.5c-2.7-0.5-5.4-0.9-8-1.3c-2.8-0.4-5.6-0.8-8.4-1.2c-2.9-0.4-5.8-0.7-8.7-1
			c-3-0.3-6.1-0.6-9.1-0.9c-3.2-0.3-6.4-0.5-9.6-0.7c-3.4-0.2-6.7-0.3-10.1-0.4c-3.6-0.1-7.1-0.2-10.7-0.2c-3.8,0-7.7,0.1-11.5,0.2
			c-4.2,0.1-8.3,0.4-12.5,0.7c-4.6,0.3-9.1,0.7-13.7,1.2c-5.2,0.6-10.4,1.2-15.6,2c-6.1,0.9-12.2,2-18.3,3.2
			c-7.8,1.6-15.6,3.4-23.4,5.5c-15.5,4.2-31,9.4-46.4,15.7c-3.7,1.5-7.4,3.1-11.1,4.7c-3.9,1.7-7.7,3.5-11.5,5.3
			c-14.9,7.2-28.9,15.1-42.3,23.7c-6.8,4.4-13.4,9-19.9,13.7C2604.8-46.8,2599.9-43,2595.1-39.1z"/>
	</g>
</g>
</svg>
