<?xml version="1.0" encoding="utf-8"?>
<!-- Generator: Adobe Illustrator 19.0.0, SVG Export Plug-In . SVG Version: 6.00 Build 0)  -->
<svg version="1.1" id="Layer_1" xmlns="http://www.w3.org/2000/svg" xmlns:xlink="http://www.w3.org/1999/xlink" x="0px" y="0px"
	 viewBox="597 -517.6 1753.4 1995.6" style="enable-background:new 597 -517.6 1753.4 1995.6;" xml:space="preserve">
<style type="text/css">
	.st0{fill:#D8BBBA;}
	.st1{fill:#D8BCBB;}
	.st2{fill:#CCA4A4;}
	.st3{fill:#8C3231;}
	.st4{fill:#B40000;}
	.st5{fill:#FFFFFF;}
</style>
<g id="Layer_x0020_1">
	<polygon class="st0" points="1376.8,1260.9 1378.2,1261.2 1378.1,1258.3 	"/>
	<polygon class="st1" points="1137.1,1260.9 1138.6,1261.2 1138.6,1258.3 	"/>
	<path class="st2" d="M1777.4,1204.8l-1.6-0.5l-0.8,1c2.5,0.2-1.4,0.4,1.3,0L1777.4,1204.8z"/>
	<g id="_12701922096">
		<path class="st3" d="M1512.3,957.2c-126-42.7-233.5-141-286.5-262.7c-52.9-121.9-51.8-267.1,2.7-388.8
			c47.2,21.5,94,42.7,141.7,64.3c-37.3,81.8-38.3,179.8-2,262.3c35.6,82.5,108.2,148.5,193,177.1
			C1544.9,858.8,1528.7,907.7,1512.3,957.2z"/>
		<path class="st4" d="M1681.5,1048.9c-136.5,15.7-279.2-23.6-388.8-106.8C1184,859,1108.4,732.1,1086.9,596.5
			c-21-135.5,12.8-279.6,90.9-391.9C1257,92.1,1380.2,11.3,1515.4-15.3c3.2,16.6,6.4,33,9.9,49.1c-122.1,24-234.6,97.5-306.1,199.5
			c-71.4,101.6-101.6,232.5-82.7,355.3c19.3,123,88,238.2,187,313.7c99.5,75.4,228.6,110.7,352.4,96.8
			C1677.3,1015.8,1679.3,1032.4,1681.5,1048.9z"/>
		<path class="st4" d="M1510.2,498.8c-240.9-7.7-481.6-14.7-722.3-22.7c3.7-125.9,35.7-251,91.8-363.8
			c215.4,107.5,431.1,215.4,646.5,322.8C1516.6,454.8,1511.2,476.5,1510.2,498.8z"/>
		<path class="st4" d="M1422.6,716.2c-136.1,118.5-272.8,236.4-409,354.9c-28.6-33.6-55.1-69-78.7-106
			c152.5-96.6,305-193.2,457-289.7C1401.1,689.7,1411.7,703.6,1422.6,716.2z"/>
		<path class="st5" d="M1424.7,101.8c-55.8-120-111.8-239.9-168.2-359.1c2.9-1.3,5.8-2.7,8.7-3.9l1.7-0.8
			c33.7-14.9,68.3-28,103.5-38.7c37.5,126.8,75.3,253.4,112.8,380.1C1463.2,85.4,1443.7,92.7,1424.7,101.8z"/>
		<path class="st3" d="M903.3,617.2C866.5,418.9,918.1,204,1040.9,43.5c123-159.9,317-265.5,518.3-281.7c2.6,34.4,5.6,68.9,8.4,103
			c-172.6,14.1-339,104.6-444.2,241.8c-105.6,137-149.6,321.4-118.5,491.6C971,605,936.9,611,903.3,617.2z"/>
		<path class="st5" d="M1544.8,410.6c-252.2-168.1-505.2-336-757.3-504.5c9.5-14.6,20-28.7,30.5-43.2
			C1060.3,45.7,1302.4,228.5,1544.8,410.6L1544.8,410.6z"/>
		<path class="st5" d="M1231.3,1072.5C1063,955.3,951.7,757,940.5,552.3c47.9-2.7,96.3-5.5,144.6-8.2c9,160.8,96.5,317,228.9,409.2
			C1286.1,993,1258.2,1032.6,1231.3,1072.5z"/>
		<path class="st5" d="M1760.4,999.4c193.9-45.1,353.7-220.6,380.4-417.8c26.6-196.9-80.9-408.9-255.9-503.6
			c2.3-4.4,4.9-8.7,7.2-13.1c180.2,97.7,291,315.9,263.7,518.6c-27.4,203.4-192.3,384.2-391.9,430.7
			C1762.8,1009,1761.6,1004.2,1760.4,999.4z"/>
		<path class="st4" d="M1448.4,278.8c-1.6,1.3-3.2,2.7-4.8,4l-1.4-1.3l-2.8-2.6l-2.8-2.6l-2.8-2.6l-2.8-2.6l-2.8-2.6l-2.8-2.6
			l-2.8-2.6l-2.8-2.6l-2.8-2.6l-2.8-2.6l-2.8-2.6l-2.8-2.6l-2.8-2.6l-2.8-2.6l-2.8-2.6l-2.8-2.6l-2.8-2.6l-2.8-2.6l-2.8-2.6
			l-2.8-2.6l-2.8-2.6l-2.8-2.6l-2.8-2.6l-2.8-2.6l-2.8-2.6l-2.8-2.6l-2.8-2.6l-2.8-2.6l-2.8-2.6l-2.8-2.6l-2.8-2.6l-2.8-2.6
			l-2.8-2.6l-2.8-2.6l-2.8-2.6l-2.8-2.6l-2.3-2.1l1.6-1.4c3.1-2.7,6.3-5.4,9.5-8.1c3.5-2.9,7.1-5.8,10.8-8.7
			c4.1-3.2,8.3-6.3,12.6-9.5c5-3.7,10.2-7.2,15.3-10.7c6.7-4.5,13.6-8.8,20.7-13.1c16.7-10,34.4-19.2,53.1-27.5
			c18.8-8.4,37.6-15.3,56.3-21.2c7.9-2.4,15.9-4.7,23.8-6.7c6-1.6,12.1-2.9,18.2-4.2c5.2-1.1,10.4-2.2,15.6-3.1
			c4.5-0.8,9.1-1.6,13.6-2.2c4.1-0.6,8.3-1.2,12.4-1.6c3.8-0.5,7.6-0.9,11.4-1.3c3.5-0.3,7.1-0.6,10.6-0.9c3.4-0.2,6.7-0.5,10-0.6
			c3.1-0.2,6.3-0.2,9.5-0.4c3-0.1,5.9-0.2,9-0.2c2.9,0,5.7,0,8.6,0c2.7,0,5.6,0.1,8.3,0.2c2.7,0.1,5.3,0.2,8,0.3
			c2.6,0.2,5.1,0.3,7.6,0.5c2.5,0.2,4.9,0.3,7.4,0.5c2.4,0.2,4.9,0.4,7.2,0.6c2.3,0.2,4.6,0.5,6.9,0.8c2.3,0.2,4.5,0.5,6.8,0.9
			c2.2,0.3,4.4,0.6,6.6,0.9c2.1,0.3,4.2,0.6,6.4,1c2.1,0.3,4.2,0.7,6.3,1c2,0.4,4.1,0.8,6.1,1.2c2,0.4,4,0.8,5.9,1.2
			c2,0.4,3.9,0.9,5.8,1.3c1.9,0.4,3.8,0.9,5.7,1.3c1.9,0.5,3.8,0.9,5.6,1.3c1.8,0.5,3.7,0.9,5.5,1.4c1.8,0.5,3.6,0.9,5.4,1.5
			c1.7,0.5,3.5,1,5.2,1.5c1.7,0.5,3.4,1,5.2,1.6c1.7,0.5,3.4,1.1,5.1,1.6c1.6,0.5,3.4,1.1,5,1.6c1.6,0.5,3.3,1.1,4.9,1.6
			c1.6,0.5,3.2,1.1,4.9,1.7c1.6,0.5,3.1,1.2,4.8,1.7c1.6,0.5,3.1,1.2,4.7,1.8s3.1,1.2,4.6,1.8c1.5,0.6,3,1.3,4.5,1.9
			c1.5,0.6,3,1.3,4.5,1.9c1.5,0.6,2.9,1.3,4.4,1.9c1.5,0.6,2.9,1.3,4.4,1.9c1.4,0.6,2.8,1.3,4.2,2c1.4,0.6,2.8,1.3,4.2,2
			c1.4,0.6,2.7,1.3,4.1,2c1.3,0.7,2.7,1.3,4.1,2c1.3,0.7,2.7,1.3,4.1,2c1.3,0.7,2.7,1.4,4,2.1c1.3,0.7,2.7,1.4,4,2.1
			c1.3,0.7,2.6,1.4,3.8,2.1c1.3,0.7,2.6,1.4,3.8,2.1c1.3,0.7,2.5,1.4,3.8,2.2c1.3,0.7,2.5,1.5,3.7,2.2c1.3,0.7,2.5,1.5,3.7,2.2
			c1.2,0.7,2.4,1.5,3.6,2.3c1.2,0.8,2.4,1.5,3.6,2.3c1.2,0.8,2.3,1.5,3.5,2.3c1.2,0.8,2.3,1.6,3.4,2.3c1.2,0.8,2.3,1.5,3.4,2.3
			c1.1,0.8,2.3,1.6,3.4,2.3c1.1,0.8,2.3,1.6,3.4,2.3c1.1,0.8,2.2,1.6,3.4,2.3c1.1,0.8,2.2,1.6,3.3,2.4c1.1,0.8,2.2,1.6,3.3,2.4
			c1.1,0.8,2.1,1.6,3.2,2.4c1.1,0.8,2.1,1.6,3.1,2.4c1,0.8,2.1,1.6,3.1,2.4c1,0.8,2,1.6,3.1,2.5c1,0.9,2,1.6,3.1,2.5
			c1,0.9,2,1.6,3.1,2.5c1,0.9,2,1.7,3,2.5c1,0.9,2,1.6,3,2.5c0.9,0.9,2,1.7,2.9,2.6s1.9,1.7,2.9,2.6c0.9,0.9,2,1.7,2.9,2.6
			s1.9,1.7,2.8,2.6c0.9,0.9,1.9,1.7,2.7,2.6c0.9,0.9,1.9,1.7,2.7,2.6c0.9,0.9,1.8,1.8,2.7,2.7c0.9,0.9,1.8,1.8,2.7,2.7
			c0.9,0.9,1.8,1.8,2.7,2.7c0.9,0.9,1.7,1.8,2.6,2.7c0.9,0.9,1.7,1.8,2.6,2.7c0.9,0.9,1.7,1.8,2.6,2.7c0.9,0.9,1.6,1.8,2.5,2.7
			c0.9,0.9,1.6,1.8,2.5,2.7c0.9,0.9,1.6,1.8,2.5,2.7c0.8,0.9,1.6,1.9,2.4,2.7c0.8,0.9,1.6,1.9,2.4,2.7c0.8,0.9,1.6,1.9,2.4,2.8
			c0.8,0.9,1.6,1.9,2.3,2.8c0.8,0.9,1.6,1.9,2.3,2.8c0.8,0.9,1.6,1.9,2.3,2.8c0.8,0.9,1.5,1.9,2.3,2.8s1.5,1.9,2.3,2.8
			c0.8,0.9,1.5,1.9,2.3,2.8c0.7,0.9,1.5,2,2.2,2.9c0.7,0.9,1.5,2,2.2,2.9c0.7,0.9,1.4,2,2.2,2.9c0.7,0.9,1.4,2,2.1,2.9
			c0.7,0.9,1.4,2,2.1,2.9c0.7,0.9,1.4,2,2.1,2.9c0.7,0.9,1.3,2,2,3c0.7,1,1.3,2,2,3c0.7,1,1.3,2,2,3c0.6,1,1.3,2,2,3
			c0.6,1,1.3,2,2,3s1.3,2,2,3c0.6,1,1.3,2,1.9,3.1c0.6,1,1.3,2,1.9,3.1c0.6,1,1.3,2,1.9,3.1c0.6,1,1.2,2,1.8,3.1s1.2,2,1.8,3.1
			c0.6,1,1.2,2,1.8,3.1c0.5,1,1.2,2,1.7,3.1c0.5,1,1.1,2,1.7,3.1c0.5,1,1.2,2,1.7,3.1c0.5,1,1.1,2,1.6,3.1c0.5,1,1.1,2.1,1.6,3.1
			c0.5,1,1.1,2.1,1.6,3.1s1.1,2.1,1.6,3.1s1,2.1,1.6,3.1c0.5,1,1,2.1,1.6,3.1c0.5,1.1,1,2.1,1.6,3.1c0.5,1.1,0.9,2.1,1.5,3.2
			c0.5,1.1,0.9,2.1,1.5,3.2c0.5,1.1,1,2.1,1.5,3.2c0.2,0.3,0.3,0.6,0.4,0.9l1,2.3l0,0c0.5,1.1,0.9,2.2,1.4,3.2
			c0.5,1.1,0.9,2.2,1.4,3.2c0.5,1.1,0.9,2.1,1.4,3.2c0.5,1.1,0.9,2.2,1.3,3.3c0.5,1.1,0.9,2.2,1.3,3.3s0.9,2.2,1.3,3.3
			c0.4,1.1,0.9,2.2,1.3,3.3c0.4,1.1,0.9,2.2,1.3,3.3c0.4,1.1,0.9,2.2,1.3,3.3c0.4,1.1,0.8,2.2,1.3,3.3c0.4,1.1,0.8,2.2,1.2,3.4
			c0.4,1.1,0.8,2.2,1.2,3.4c0.4,1.1,0.8,2.2,1.2,3.4c0.4,1.1,0.7,2.3,1.1,3.4c0.4,1.1,0.7,2.3,1.1,3.4c0.4,1.1,0.7,2.3,1.1,3.4
			c0.3,1.1,0.7,2.3,1,3.4c0.3,1.1,0.7,2.3,1,3.4c0.3,1.2,0.7,2.3,1,3.4s0.6,2.3,0.9,3.4s0.6,2.3,0.9,3.4s0.6,2.3,0.9,3.4
			s0.5,2.3,0.9,3.4c0.3,1.2,0.5,2.3,0.9,3.4c0.3,1.2,0.5,2.3,0.9,3.4c0.2,1.2,0.5,2.3,0.8,3.5c0.2,1.2,0.5,2.3,0.8,3.5
			c0.2,1.2,0.5,2.3,0.8,3.5s0.5,2.3,0.7,3.5c0.2,1.2,0.5,2.3,0.7,3.5c0.2,1.2,0.5,2.3,0.7,3.5c0.2,1.2,0.5,2.3,0.6,3.6
			c0.2,1.2,0.4,2.4,0.6,3.6c0.2,1.2,0.4,2.4,0.6,3.6c0.2,1.2,0.4,2.4,0.5,3.6s0.3,2.4,0.5,3.6c0.2,1.2,0.3,2.4,0.5,3.6
			c0.2,1.2,0.3,2.4,0.5,3.6c0.2,1.3,0.3,2.4,0.4,3.7c0.2,1.3,0.3,2.4,0.4,3.7c0.2,1.3,0.2,2.4,0.4,3.7c0.2,1.3,0.2,2.5,0.3,3.7
			c0.1,1.3,0.2,2.5,0.3,3.7c0.1,1.3,0.2,2.5,0.3,3.7c0.1,1.3,0.2,2.5,0.2,3.8c0.1,1.3,0.2,2.5,0.2,3.8c0.1,1.3,0.2,2.5,0.2,3.8
			c0.1,1.3,0.1,2.5,0.2,3.8c0.1,1.3,0.2,2.5,0.2,3.8c0.1,1.3,0.1,2.5,0.1,3.8c0,1.3,0.1,2.6,0.1,3.8s0.1,2.6,0.1,3.8
			c0,1.3,0,2.6,0,3.8c0,1.3,0,2.6,0,3.8s0,2.6,0,3.8c0,1.3-0.1,2.6-0.1,3.9c0,1.3-0.1,2.6-0.1,3.9c-0.1,1.3-0.1,2.6-0.2,3.9
			c-0.1,1.3-0.2,2.7-0.2,3.9c-0.1,1.3-0.2,2.7-0.2,3.9c-0.1,1.3-0.2,2.7-0.2,4s-0.2,2.7-0.3,4c-0.1,1.3-0.2,2.7-0.3,4
			c-0.2,1.3-0.2,2.7-0.4,4c-0.2,1.3-0.2,2.7-0.4,4.1c-0.2,1.3-0.2,2.7-0.4,4.1c-0.2,1.3-0.3,2.7-0.5,4.1c-0.2,1.3-0.3,2.7-0.5,4.1
			c-0.2,1.3-0.4,2.7-0.5,4.1c-0.2,1.4-0.4,2.7-0.6,4.1c-0.2,1.4-0.4,2.7-0.6,4.1c-0.2,1.4-0.5,2.8-0.7,4.1c-0.2,1.4-0.5,2.8-0.7,4.1
			c-0.2,1.4-0.5,2.8-0.8,4.2c-0.2,1.4-0.5,2.8-0.9,4.2c-0.3,1.4-0.5,2.8-0.9,4.2c-0.3,1.4-0.6,2.8-0.9,4.3c-0.3,1.4-0.6,2.9-0.9,4.3
			c-0.3,1.4-0.7,2.9-1,4.3c-0.4,1.5-0.7,2.9-1.1,4.3c-0.4,1.4-0.7,2.9-1.1,4.3c-0.4,1.5-0.9,2.9-1.3,4.4s-0.8,2.9-1.3,4.4
			c-0.4,1.5-0.9,3-1.3,4.5c-0.5,1.5-0.9,3-1.3,4.5c-0.5,1.5-0.9,3-1.4,4.5c-0.5,1.5-1,3.1-1.5,4.5c-0.5,1.5-1,3.1-1.5,4.5
			c-0.5,1.6-1.1,3.1-1.6,4.6c-0.5,1.6-1.1,3.1-1.6,4.6c-0.5,1.6-1.2,3.1-1.8,4.6c-0.6,1.6-1.2,3.1-1.8,4.7c-0.6,1.6-1.3,3.1-2,4.7
			c-0.6,1.6-1.3,3.1-2,4.7c-0.7,1.6-1.4,3.2-2.1,4.8c-0.7,1.6-1.4,3.2-2.2,4.8c-0.7,1.6-1.5,3.2-2.3,4.9c-0.8,1.6-1.6,3.3-2.3,4.9
			c-0.8,1.6-1.6,3.3-2.4,4.9c-0.9,1.6-1.6,3.3-2.5,5c-0.9,1.7-1.8,3.4-2.7,5c-0.9,1.7-1.8,3.4-2.7,5.1c-0.9,1.7-2,3.4-2.9,5.2
			c-1,1.7-2,3.4-3,5.2c-1,1.8-2.1,3.5-3.2,5.2c-1.1,1.8-2.1,3.5-3.2,5.3c-1.1,1.8-2.3,3.6-3.4,5.4c-1.2,1.8-2.3,3.6-3.6,5.4
			c-1.3,1.9-2.5,3.7-3.8,5.5c-1.3,1.9-2.7,3.8-4,5.6c-1.3,1.9-2.7,3.8-4.1,5.6c-1.4,2-2.9,3.8-4.4,5.8c-1.5,2-3.1,3.9-4.6,5.9
			c-1.6,2-3.1,4-4.8,5.9c-1.6,2-3.4,4.1-5.1,6.1c-1.8,2.1-3.6,4.2-5.5,6.3c-1.9,2.1-3.8,4.3-5.8,6.4c-2,2.2-4.1,4.4-6.1,6.6
			c-2.2,2.3-4.4,4.5-6.6,6.7c-2.3,2.3-4.8,4.7-7.2,7c-2.6,2.4-5.2,4.9-7.8,7.3c-2.8,2.6-5.6,5.2-8.5,7.7c-3.1,2.7-6.3,5.4-9.5,8.1
			c-3.5,2.9-7.2,5.8-10.8,8.7c-4.1,3.2-8.4,6.4-12.7,9.5c-5,3.6-10.1,7.2-15.3,10.6c-6.8,4.5-13.7,8.9-20.8,13.1
			c-16.8,10-34.5,19.2-53.1,27.5c-18.8,8.4-37.6,15.4-56.3,21.2c-7.9,2.4-15.8,4.7-23.7,6.7c-6.1,1.6-12.2,3-18.2,4.3
			c-5.2,1.1-10.3,2.1-15.5,3.1c-4.5,0.8-9.2,1.6-13.7,2.3c-4.1,0.6-8.3,1.2-12.4,1.6c-3.8,0.5-7.6,0.9-11.4,1.3
			c-3.5,0.3-7.1,0.6-10.6,0.9c-3.4,0.2-6.7,0.5-10,0.6c-3.1,0.2-6.3,0.3-9.5,0.4c-3,0.1-6,0.2-9,0.2c-2.9,0-5.7,0-8.6,0
			c-2.7,0-5.5-0.1-8.2-0.2c-2.7-0.1-5.3-0.2-8-0.3c-2.6-0.2-5.1-0.3-7.7-0.5c-2.5-0.2-4.9-0.3-7.4-0.5c-2.4-0.2-4.8-0.4-7.2-0.6
			c-2.3-0.2-4.6-0.5-7-0.8c-2.3-0.2-4.5-0.5-6.7-0.9c-2.2-0.3-4.4-0.6-6.6-0.9c-2.1-0.3-4.3-0.6-6.4-1c-2.1-0.3-4.1-0.7-6.3-1.1
			c-2-0.4-4.1-0.7-6.1-1.1c-2-0.4-4-0.8-5.9-1.2c-2-0.4-3.9-0.9-5.9-1.3c-1.9-0.4-3.8-0.9-5.7-1.3c-1.9-0.5-3.8-0.9-5.6-1.3
			c-1.8-0.5-3.7-0.9-5.5-1.4c-1.8-0.5-3.6-0.9-5.4-1.5c-1.1-0.3-2.1-0.6-3.2-0.9l0.6-1.8l1.5-4.5l1.5-4.5l1.5-4.5l1.5-4.5l1.5-4.5
			l1.5-4.5l1.5-4.5l1.5-4.5l1.5-4.5l1.5-4.5l1.5-4.5l1.5-4.5l1.5-4.5l1.5-4.5l1.5-4.5l1.5-4.5l1.5-4.5l1.5-4.5l1.5-4.5l1.5-4.5
			l1.5-4.5l1.5-4.5l1.5-4.5l1.5-4.5l1.5-4.5l1.5-4.5l1.5-4.5l1.5-4.5l1.5-4.5l1.5-4.5l1.5-4.5l0.9-2.6c0.9,0.3,1.9,0.6,2.8,0.9
			c1.6,0.5,3.4,1.1,5.1,1.6c1.7,0.5,3.4,1,5.2,1.6c1.8,0.5,3.5,1,5.3,1.5c1.8,0.5,3.7,0.9,5.5,1.4c1.9,0.5,3.8,0.9,5.6,1.3
			c2,0.5,3.9,0.9,5.9,1.3c2,0.4,4,0.8,6,1.2c2.1,0.4,4.1,0.7,6.3,1.1c2.2,0.3,4.4,0.6,6.5,0.9c2.3,0.3,4.5,0.5,6.8,0.9
			c2.3,0.2,4.8,0.5,7.1,0.7c2.5,0.2,5,0.4,7.5,0.5c2.7,0.2,5.2,0.2,7.9,0.3c2.8,0.1,5.6,0.1,8.4,0.1c3,0,6-0.1,9-0.2
			c3.2-0.1,6.5-0.2,9.8-0.5c3.6-0.2,7.2-0.5,10.8-0.9c4.1-0.4,8.1-0.9,12.1-1.6c4.8-0.7,9.5-1.6,14.3-2.5c6.1-1.3,12.2-2.7,18.3-4.3
			c12-3.2,24-7.3,35.9-12.1c3-1.3,6-2.5,9-3.8c2.9-1.3,5.8-2.7,8.6-4c11.8-5.7,23.1-12,33.7-18.8c5.3-3.4,10.5-7,15.5-10.7
			c3.9-2.9,7.7-5.9,11.5-8.9c3.2-2.6,6.3-5.3,9.4-8c2.7-2.4,5.3-4.9,7.9-7.4c2.3-2.3,4.7-4.6,7-7c2.1-2.2,4.1-4.4,6.1-6.6
			c1.9-2.1,3.7-4.1,5.6-6.3c1.7-2,3.4-4.1,5-6.1c1.6-2,3.1-3.9,4.6-5.9c1.4-1.9,2.8-3.8,4.2-5.7c1.3-1.9,2.7-3.7,3.9-5.6
			c1.3-1.8,2.4-3.6,3.7-5.5c1.2-1.8,2.3-3.6,3.4-5.4c1.1-1.7,2.1-3.5,3.2-5.2c1-1.7,2-3.4,3-5.2c0.9-1.6,1.9-3.4,2.7-5.1
			c0.9-1.6,1.7-3.4,2.6-5c0.9-1.6,1.6-3.3,2.4-4.9c0.8-1.6,1.6-3.2,2.3-4.9c0.7-1.6,1.4-3.2,2.1-4.8c0.7-1.6,1.3-3.1,2-4.8
			c0.6-1.6,1.3-3.1,1.9-4.7c0.6-1.6,1.2-3.1,1.8-4.6c0.5-1.5,1.1-3.1,1.6-4.6c0.5-1.5,1.1-3.1,1.6-4.5c0.5-1.5,1-3,1.5-4.5
			c0.5-1.5,0.9-3,1.3-4.5c0.5-1.5,0.9-3,1.3-4.5c0.4-1.5,0.8-2.9,1.2-4.4c0.4-1.4,0.8-2.9,1.1-4.3c0.4-1.4,0.7-2.9,1-4.3
			c0.3-1.4,0.6-2.8,0.9-4.3c0.3-1.4,0.6-2.8,0.9-4.2c0.3-1.4,0.5-2.8,0.9-4.2c0.2-1.4,0.5-2.8,0.7-4.1c0.2-1.4,0.5-2.7,0.7-4.1
			c0.2-1.4,0.4-2.7,0.6-4.1c0.2-1.3,0.4-2.7,0.5-4.1c0.2-1.3,0.3-2.7,0.5-4.1c0.2-1.3,0.3-2.7,0.4-4.1c0.2-1.3,0.3-2.7,0.4-4
			c0.2-1.3,0.2-2.7,0.3-4c0.1-1.3,0.2-2.7,0.3-4c0.1-1.3,0.2-2.7,0.2-3.9c0.1-1.3,0.2-2.6,0.2-3.9c0.1-1.3,0.1-2.6,0.1-3.9
			c0-1.3,0.1-2.6,0.1-3.9c0-1.3,0-2.6,0-3.8s0-2.6,0-3.8c0-1.3-0.1-2.6-0.1-3.8s-0.1-2.5-0.2-3.8c-0.1-1.3-0.1-2.5-0.2-3.8
			s-0.2-2.5-0.2-3.8c-0.1-1.3-0.2-2.5-0.2-3.8s-0.2-2.5-0.3-3.7c-0.1-1.3-0.2-2.5-0.3-3.7c-0.2-1.3-0.2-2.4-0.4-3.7
			c-0.2-1.3-0.2-2.4-0.4-3.7c-0.2-1.2-0.3-2.4-0.5-3.7c-0.2-1.2-0.3-2.4-0.5-3.6c-0.2-1.2-0.4-2.4-0.5-3.6s-0.4-2.4-0.5-3.6
			c-0.2-1.2-0.4-2.3-0.6-3.6c-0.2-1.2-0.4-2.3-0.6-3.6c-0.2-1.2-0.5-2.3-0.7-3.5c-0.2-1.2-0.5-2.3-0.7-3.5c-0.2-1.2-0.5-2.3-0.8-3.5
			c-0.2-1.2-0.5-2.3-0.8-3.5c-0.2-1.2-0.5-2.3-0.9-3.5c-0.3-1.2-0.5-2.3-0.9-3.4c-0.3-1.2-0.5-2.3-0.9-3.4c-0.3-1.2-0.6-2.3-0.9-3.4
			s-0.6-2.3-0.9-3.4c-0.3-1.1-0.7-2.3-1-3.4c-0.3-1.1-0.7-2.3-1-3.4c-0.4-1.1-0.7-2.3-1.1-3.4c-0.4-1.1-0.7-2.3-1.1-3.4
			c-0.4-1.1-0.8-2.2-1.2-3.4c-0.4-1.1-0.8-2.2-1.2-3.4c-0.4-1.1-0.8-2.2-1.2-3.3c-0.4-1.1-0.9-2.2-1.3-3.3c-0.4-1.1-0.9-2.2-1.3-3.3
			s-0.9-2.2-1.3-3.3c-0.5-1.1-0.9-2.2-1.3-3.3c-0.5-1.1-0.9-2.2-1.4-3.2c-0.5-1.1-0.9-2.2-1.4-3.2c-0.2-0.3-0.2-0.6-0.4-0.9l-1-2.3
			l0,0c-0.5-1.1-0.9-2.1-1.5-3.2c-0.5-1.1-0.9-2.1-1.5-3.2c-0.5-1.1-1-2.1-1.5-3.2c-0.5-1.1-1-2.1-1.6-3.1c-0.5-1-1-2.1-1.6-3.1
			c-0.5-1-1.1-2.1-1.6-3.1c-0.5-1-1.1-2.1-1.6-3.1c-0.5-1-1.1-2-1.7-3.1c-0.5-1-1.1-2-1.7-3.1c-0.5-1-1.2-2-1.7-3.1
			c-0.6-1-1.2-2-1.8-3.1c-0.6-1-1.3-2-1.8-3.1c-0.6-1-1.3-2-1.8-3.1c-0.6-1-1.3-2-1.9-3c-0.6-1-1.3-2-1.9-3c-0.6-1-1.3-2-2-3
			c-0.6-1-1.3-2-2-3c-0.7-1-1.3-2-2-3c-0.7-1-1.4-2-2-2.9c-0.7-0.9-1.4-2-2.1-2.9c-0.7-0.9-1.4-2-2.1-2.9c-0.7-0.9-1.4-2-2.2-2.9
			c-0.7-0.9-1.5-1.9-2.2-2.9c-0.7-0.9-1.5-1.9-2.2-2.9c-0.8-0.9-1.6-1.9-2.3-2.8c-0.8-0.9-1.5-1.9-2.3-2.8c-0.8-0.9-1.6-1.9-2.3-2.8
			c-0.8-0.9-1.6-1.9-2.3-2.8c-0.8-0.9-1.6-1.8-2.4-2.7c-0.8-0.9-1.6-1.9-2.4-2.7c-0.9-0.9-1.7-1.8-2.5-2.7c-0.9-0.9-1.7-1.8-2.5-2.7
			c-0.9-0.9-1.7-1.8-2.6-2.7s-1.7-1.8-2.7-2.7c-0.9-0.9-1.8-1.8-2.7-2.7c-0.9-0.9-1.8-1.8-2.7-2.7s-1.9-1.7-2.8-2.6
			s-1.9-1.7-2.8-2.6c-0.9-0.9-2-1.7-2.9-2.6c-0.9-0.9-2-1.7-2.9-2.6c-1-0.9-2-1.7-3-2.5c-1-0.9-2-1.7-3-2.5c-1-0.9-2-1.6-3.1-2.5
			c-1-0.9-2-1.6-3.1-2.4c-1-0.8-2.1-1.6-3.2-2.4c-1.1-0.8-2.1-1.6-3.2-2.4c-1.1-0.8-2.2-1.6-3.3-2.4s-2.3-1.6-3.4-2.3
			c-1.1-0.8-2.3-1.6-3.4-2.3c-1.2-0.8-2.3-1.6-3.5-2.3c-1.2-0.8-2.3-1.6-3.5-2.3c-1.2-0.8-2.4-1.5-3.6-2.3c-1.2-0.8-2.4-1.5-3.7-2.2
			c-1.3-0.7-2.4-1.5-3.7-2.2c-1.3-0.7-2.5-1.4-3.8-2.2c-1.3-0.7-2.6-1.4-3.8-2.1c-1.3-0.7-2.7-1.4-3.9-2.1c-1.3-0.7-2.7-1.4-4-2
			c-1.3-0.7-2.7-1.4-4.1-2c-1.4-0.7-2.8-1.3-4.2-2c-1.4-0.6-2.8-1.3-4.3-2c-1.4-0.6-2.9-1.3-4.4-1.9c-1.5-0.6-3-1.3-4.5-1.9
			c-1.5-0.6-3.1-1.3-4.5-1.8c-1.6-0.6-3.1-1.2-4.6-1.8c-1.6-0.6-3.2-1.2-4.9-1.7c-1.6-0.5-3.3-1.1-4.9-1.6s-3.4-1.1-5-1.6
			c-1.7-0.5-3.4-1-5.2-1.6c-1.8-0.5-3.6-1-5.3-1.5c-1.8-0.5-3.7-0.9-5.5-1.4c-1.9-0.5-3.8-0.9-5.6-1.3c-2-0.5-3.9-0.9-5.9-1.3
			c-2-0.4-4-0.8-6-1.2c-2.1-0.4-4.2-0.7-6.3-1c-2.2-0.3-4.4-0.6-6.6-0.9c-2.3-0.3-4.5-0.5-6.8-0.8c-2.3-0.2-4.8-0.5-7.1-0.7
			c-2.5-0.2-5-0.4-7.5-0.5c-2.7-0.2-5.2-0.2-7.9-0.3c-2.8-0.1-5.6-0.2-8.4-0.2c-3,0-6,0.1-9,0.2c-3.3,0.1-6.5,0.3-9.8,0.5
			c-3.6,0.2-7.1,0.5-10.7,0.9c-4.1,0.5-8.1,0.9-12.2,1.6c-4.8,0.7-9.5,1.6-14.3,2.5c-6.1,1.3-12.2,2.7-18.3,4.3
			c-12.1,3.3-24.3,7.4-36.3,12.3c-2.9,1.2-5.8,2.4-8.7,3.7c-3.1,1.3-6,2.7-9,4.1c-11.7,5.6-22.6,11.8-33.1,18.5
			c-5.3,3.4-10.5,7-15.6,10.7C1456,272.8,1452.2,275.8,1448.4,278.8z"/>
	</g>
</g>
</svg>
