<?xml version="1.0" encoding="utf-8"?>
<!-- Generator: Adobe Illustrator 19.0.0, SVG Export Plug-In . SVG Version: 6.00 Build 0)  -->
<svg version="1.1" id="Layer_1" xmlns="http://www.w3.org/2000/svg" xmlns:xlink="http://www.w3.org/1999/xlink" x="0px" y="0px"
	 viewBox="2726 -124 368 368" style="enable-background:new 2726 -124 368 368;" xml:space="preserve">
<style type="text/css">
	.st0{fill:#333132;}
	.st1{fill:#FFFFFF;}
	.st2{fill:#7B17B0;}
</style>
<g id="Layer_x0020_1">
	<g id="_84496241984">
		<g id="_575962308704">
			<polygon class="st0" points="2780.6,227.5 2780.6,17.2 2860.3,17.2 2860.3,227.5 			"/>
			<g>
				<polygon class="st1" points="2789,50.3 2799.1,50.3 2799.1,40.2 2789,40.2 				"/>
				<polygon class="st1" points="2806.7,50.3 2816.8,50.3 2816.8,40.2 2806.7,40.2 				"/>
				<polygon class="st1" points="2825.6,50.3 2834.5,50.3 2834.5,40.2 2825.6,40.2 				"/>
				<polygon class="st1" points="2789,65.4 2799.1,65.4 2799.1,55.3 2789,55.3 				"/>
				<polygon class="st1" points="2789,80.6 2799.1,80.6 2799.1,70.5 2789,70.5 				"/>
				<polygon class="st1" points="2825.6,80.6 2834.5,80.6 2834.5,70.5 2825.6,70.5 				"/>
				<polygon class="st1" points="2789,95.7 2799.1,95.7 2799.1,85.6 2789,85.6 				"/>
				<polygon class="st1" points="2806.7,95.7 2816.8,95.7 2816.8,85.6 2806.7,85.6 				"/>
				<polygon class="st1" points="2789,110.9 2799.1,110.9 2799.1,102 2789,102 				"/>
				<polygon class="st1" points="2825.6,110.9 2834.5,110.9 2834.5,102 2825.6,102 				"/>
				<polygon class="st1" points="2789,126 2799.1,126 2799.1,117.2 2789,117.2 				"/>
				<polygon class="st1" points="2806.7,126 2816.8,126 2816.8,117.2 2806.7,117.2 				"/>
				<polygon class="st1" points="2825.6,126 2834.5,126 2834.5,117.2 2825.6,117.2 				"/>
				<polygon class="st1" points="2789,156.3 2799.1,156.3 2799.1,147.5 2789,147.5 				"/>
				<polygon class="st1" points="2806.7,156.3 2816.8,156.3 2816.8,147.5 2806.7,147.5 				"/>
				<polygon class="st1" points="2825.6,156.3 2834.5,156.3 2834.5,147.5 2825.6,147.5 				"/>
				<polygon class="st1" points="2789,187.8 2799.1,187.8 2799.1,177.7 2789,177.7 				"/>
				<polygon class="st1" points="2825.6,187.8 2834.5,187.8 2834.5,177.7 2825.6,177.7 				"/>
				<polygon class="st1" points="2789,203 2799.1,203 2799.1,192.9 2789,192.9 				"/>
				<polygon class="st1" points="2806.7,203 2816.8,203 2816.8,192.9 2806.7,192.9 				"/>
			</g>
			<path class="st2" d="M2939.2,75.5V13.3v-51.3h-13.9v-30.3h-22.7v-39.1h-17.7v39.1h-22.7v30.3h-13.9v51.3v62.3H2837V227h114.8
				V75.5H2939.2L2939.2,75.5L2939.2,75.5z M2897.6-24.2L2897.6-24.2v41.6h-10.1v-41.6H2897.6z M2916.5,17.5L2916.5,17.5h-10.1v-41.6
				h10.1V17.5z M2916.5,32.6L2916.5,32.6v41.6h-10.1V32.6H2916.5L2916.5,32.6z M2887.5,32.6L2887.5,32.6h10.1v41.6h-10.1V32.6z
				 M2877.4,17.5L2877.4,17.5h-10.1v-41.6h10.1V17.5z M2867.3,32.6L2867.3,32.6h10.1v41.6h-10.1V32.6z M2848.4,153.8L2848.4,153.8
				v-39.5V102h10.1v51.7H2848.4z M2868.6,153.8L2868.6,153.8V102h8.8v51.7H2868.6z M2887.5,153.8L2887.5,153.8V102h10.1v51.7H2887.5
				z M2906.4,153.8L2906.4,153.8V102h10.1v51.7H2906.4z M2927.9,153.8L2927.9,153.8V102h10.1v51.7H2927.9z"/>
			<polygon class="st1" points="2858.4,102 2848.4,102 2848.4,114.2 2848.4,153.8 2858.4,153.8 			"/>
			<polygon class="st1" points="2897.6,102 2887.5,102 2887.5,153.8 2897.6,153.8 			"/>
			<polygon class="st1" points="2916.5,102 2906.4,102 2906.4,153.8 2916.5,153.8 			"/>
			<polygon class="st1" points="2877.4,32.6 2867.3,32.6 2867.3,74.3 2877.4,74.3 			"/>
			<polygon class="st1" points="2906.4,74.3 2916.5,74.3 2916.5,32.6 2906.4,32.6 			"/>
			<polygon class="st1" points="2887.5,17.5 2897.6,17.5 2897.6,-24.2 2887.5,-24.2 			"/>
			<polygon class="st1" points="2906.4,17.5 2916.5,17.5 2916.5,-24.2 2906.4,-24.2 			"/>
			<path class="st0" d="M3042.8,227.5c0,0,0-91.8,0-164.3s-98.5-120.4-98.5-120.4v284.7H3042.8z"/>
			<polygon class="st1" points="2969.5,161.3 2958.2,161.3 2958.2,121 2969.5,121 			"/>
			<polygon class="st1" points="2988.4,161.3 2977.1,161.3 2977.1,121 2988.4,121 			"/>
			<polygon class="st1" points="3025,161.3 3016.2,161.3 3016.2,121 3025,121 			"/>
			<polygon class="st1" points="2969.5,107.1 2958.2,107.1 2958.2,65.4 2969.5,65.4 			"/>
			<polygon class="st1" points="3006.1,107.1 2997.3,107.1 2997.3,65.4 3006.1,65.4 			"/>
			<polygon class="st1" points="3025,107.1 3016.2,107.1 3016.2,65.4 3025,65.4 			"/>
			<polygon class="st1" points="2969.5,51.6 2958.2,51.6 2958.2,9.9 2969.5,9.9 			"/>
			<polygon class="st1" points="2988.4,51.6 2977.1,51.6 2977.1,9.9 2988.4,9.9 			"/>
			<polygon class="st2" points="2806.5,227.5 2806.5,58 2726,58 2726,227.5 			"/>
			<g>
				<polygon class="st1" points="2784.3,85.6 2775.5,85.6 2775.5,76.8 2784.3,76.8 				"/>
			</g>
			<g>
				<polygon class="st1" points="2758.7,85.6 2748.7,85.6 2748.7,76.8 2758.7,76.8 				"/>
			</g>
			<g>
				<polygon class="st1" points="2784.3,117.2 2775.5,117.2 2775.5,107.1 2784.3,107.1 				"/>
			</g>
			<g>
				<polygon class="st1" points="2758.7,117.2 2748.7,117.2 2748.7,107.1 2758.7,107.1 				"/>
			</g>
			<g>
				<polygon class="st1" points="2784.3,147.5 2775.5,147.5 2775.5,137.4 2784.3,137.4 				"/>
			</g>
			<g>
				<polygon class="st1" points="2758.7,147.5 2748.7,147.5 2748.7,137.4 2758.7,137.4 				"/>
			</g>
			<g>
				<polygon class="st1" points="2784.3,177.7 2775.5,177.7 2775.5,167.7 2784.3,167.7 				"/>
			</g>
			<g>
				<polygon class="st1" points="2758.7,177.7 2748.7,177.7 2748.7,167.7 2758.7,167.7 				"/>
			</g>
			<g>
				<polygon class="st1" points="2784.3,208 2775.5,208 2775.5,197.9 2784.3,197.9 				"/>
			</g>
			<g>
				<polygon class="st1" points="2758.7,208 2748.7,208 2748.7,197.9 2758.7,197.9 				"/>
			</g>
			<g>
				<polygon class="st1" points="3025,161.3 3016.2,161.3 3016.2,121 3025,121 				"/>
				<polygon class="st1" points="3025,107.1 3016.2,107.1 3016.2,65.4 3025,65.4 				"/>
				<polygon class="st2" points="3094,227.5 3094,73.9 3017.2,73.9 3017.2,227.5 				"/>
				<polygon class="st1" points="3051.4,90.1 3025.8,90.1 3025.8,96.5 3051.4,96.5 				"/>
				<polygon class="st1" points="3061.5,90.1 3061.5,96.5 3085.5,96.5 3085.5,90.1 				"/>
				<polygon class="st1" points="3051.4,124.2 3025.8,124.2 3025.8,130.6 3051.4,130.6 				"/>
				<polygon class="st1" points="3061.5,124.2 3061.5,130.6 3085.5,130.6 3085.5,124.2 				"/>
				<polygon class="st1" points="3061.5,158.3 3061.5,164.8 3085.5,164.8 3085.5,158.3 				"/>
				<polygon class="st1" points="3051.4,158.3 3025.8,158.3 3025.8,164.8 3051.4,164.8 				"/>
				<polygon class="st1" points="3051.4,192.5 3025.8,192.5 3025.8,198.9 3051.4,198.9 				"/>
				<polygon class="st1" points="3061.5,192.5 3061.5,198.9 3085.5,198.9 3085.5,192.5 				"/>
			</g>
		</g>
	</g>
</g>
</svg>
