<?xml version="1.0" encoding="utf-8"?>
<!-- Generator: Adobe Illustrator 19.0.0, SVG Export Plug-In . SVG Version: 6.00 Build 0)  -->
<svg version="1.1" id="Layer_1" xmlns="http://www.w3.org/2000/svg" xmlns:xlink="http://www.w3.org/1999/xlink" x="0px" y="0px"
	 viewBox="1410 -1440 3000 3000" style="enable-background:new 1410 -1440 3000 3000;" xml:space="preserve">
<style type="text/css">
	.st0{fill:#333132;}
	.st1{fill:#FFFFFF;}
	.st2{fill:#7B17B0;}
</style>
<g id="Layer_x0020_1">
	<g id="_84496241984">
		<g id="_575962308704">
			<polygon class="st0" points="2035.9,1191.7 2035.9,-229.2 2573.9,-229.2 2573.9,1191.7 			"/>
			<g>
				<polygon class="st1" points="2092.6,-5.6 2160.8,-5.6 2160.8,-73.9 2092.6,-73.9 				"/>
				<polygon class="st1" points="2212,-5.6 2280.2,-5.6 2280.2,-73.9 2212,-73.9 				"/>
				<polygon class="st1" points="2339.9,-5.6 2399.6,-5.6 2399.6,-73.9 2339.9,-73.9 				"/>
				<polygon class="st1" points="2092.6,96.7 2160.8,96.7 2160.8,28.5 2092.6,28.5 				"/>
				<polygon class="st1" points="2092.6,199.1 2160.8,199.1 2160.8,130.8 2092.6,130.8 				"/>
				<polygon class="st1" points="2339.9,199.1 2399.6,199.1 2399.6,130.8 2339.9,130.8 				"/>
				<polygon class="st1" points="2092.6,301.3 2160.8,301.3 2160.8,233.2 2092.6,233.2 				"/>
				<polygon class="st1" points="2212,301.3 2280.2,301.3 2280.2,233.2 2212,233.2 				"/>
				<polygon class="st1" points="2092.6,403.7 2160.8,403.7 2160.8,344 2092.6,344 				"/>
				<polygon class="st1" points="2339.9,403.7 2399.6,403.7 2399.6,344 2339.9,344 				"/>
				<polygon class="st1" points="2092.6,506 2160.8,506 2160.8,446.3 2092.6,446.3 				"/>
				<polygon class="st1" points="2212,506 2280.2,506 2280.2,446.3 2212,446.3 				"/>
				<polygon class="st1" points="2339.9,506 2399.6,506 2399.6,446.3 2339.9,446.3 				"/>
				<polygon class="st1" points="2092.6,710.7 2160.8,710.7 2160.8,651 2092.6,651 				"/>
				<polygon class="st1" points="2212,710.7 2280.2,710.7 2280.2,651 2212,651 				"/>
				<polygon class="st1" points="2339.9,710.7 2399.6,710.7 2399.6,651 2339.9,651 				"/>
				<polygon class="st1" points="2092.6,923.9 2160.8,923.9 2160.8,855.7 2092.6,855.7 				"/>
				<polygon class="st1" points="2339.9,923.9 2399.6,923.9 2399.6,855.7 2339.9,855.7 				"/>
				<polygon class="st1" points="2092.6,1026.2 2160.8,1026.2 2160.8,958.1 2092.6,958.1 				"/>
				<polygon class="st1" points="2212,1026.2 2280.2,1026.2 2280.2,958.1 2212,958.1 				"/>
			</g>
			<path class="st2" d="M3107.4,164.9v-420.8v-346.7h-93.8v-204.7h-153.6v-264.4h-119.4v264.4h-153.5v204.7h-93.8v346.7v420.8h-76.7
				v1023.4h776V164.9H3107.4L3107.4,164.9L3107.4,164.9z M2826-508.8L2826-508.8v281.4h-68.3v-281.4H2826z M2954-227.3L2954-227.3
				h-68.3v-281.4h68.3V-227.3z M2954-125L2954-125v281.4h-68.3V-125L2954-125L2954-125z M2757.7-125L2757.7-125h68.3v281.4h-68.3
				V-125z M2689.6-227.3L2689.6-227.3h-68.3v-281.4h68.3V-227.3z M2621.3-125L2621.3-125h68.3v281.4h-68.3V-125z M2493.5,693.7
				L2493.5,693.7V426.6V344h68.3v349.7H2493.5z M2629.9,693.7L2629.9,693.7V344h59.7v349.7H2629.9z M2757.7,693.7L2757.7,693.7V344
				h68.3v349.7H2757.7z M2885.7,693.7L2885.7,693.7V344h68.3v349.7H2885.7z M3030.7,693.7L3030.7,693.7V344h68.3v349.7H3030.7z"/>
			<polygon class="st1" points="2561.6,344 2493.5,344 2493.5,426.6 2493.5,693.7 2561.6,693.7 			"/>
			<polygon class="st1" points="2826,344 2757.7,344 2757.7,693.7 2826,693.7 			"/>
			<polygon class="st1" points="2954,344 2885.7,344 2885.7,693.7 2954,693.7 			"/>
			<polygon class="st1" points="2689.6,-125 2621.3,-125 2621.3,156.4 2689.6,156.4 			"/>
			<polygon class="st1" points="2885.7,156.4 2954,156.4 2954,-125 2885.7,-125 			"/>
			<polygon class="st1" points="2757.7,-227.3 2826,-227.3 2826,-508.8 2757.7,-508.8 			"/>
			<polygon class="st1" points="2885.7,-227.3 2954,-227.3 2954,-508.8 2885.7,-508.8 			"/>
			<path class="st0" d="M3807.2,1191.7c0,0,0-620.3,0-1110.4s-665.3-813.7-665.3-813.7v1924.1H3807.2z"/>
			<polygon class="st1" points="3312.1,744.8 3235.4,744.8 3235.4,471.9 3312.1,471.9 			"/>
			<polygon class="st1" points="3440,744.8 3363.2,744.8 3363.2,471.9 3440,471.9 			"/>
			<polygon class="st1" points="3687.3,744.8 3627.6,744.8 3627.6,471.9 3687.3,471.9 			"/>
			<polygon class="st1" points="3312.1,378.2 3235.4,378.2 3235.4,96.7 3312.1,96.7 			"/>
			<polygon class="st1" points="3559.4,378.2 3499.7,378.2 3499.7,96.7 3559.4,96.7 			"/>
			<polygon class="st1" points="3687.3,378.2 3627.6,378.2 3627.6,96.7 3687.3,96.7 			"/>
			<polygon class="st1" points="3312.1,2.9 3235.4,2.9 3235.4,-278.6 3312.1,-278.6 			"/>
			<polygon class="st1" points="3440,2.9 3363.2,2.9 3363.2,-278.6 3440,-278.6 			"/>
			<polygon class="st2" points="2210.7,1191.7 2210.7,46.8 1666.6,46.8 1666.6,1191.7 			"/>
			<g>
				<polygon class="st1" points="2060.9,233.2 2001.2,233.2 2001.2,173.5 2060.9,173.5 				"/>
			</g>
			<g>
				<polygon class="st1" points="1887.9,233.2 1819.7,233.2 1819.7,173.5 1887.9,173.5 				"/>
			</g>
			<g>
				<polygon class="st1" points="2060.9,446.3 2001.2,446.3 2001.2,378.2 2060.9,378.2 				"/>
			</g>
			<g>
				<polygon class="st1" points="1887.9,446.3 1819.7,446.3 1819.7,378.2 1887.9,378.2 				"/>
			</g>
			<g>
				<polygon class="st1" points="2060.9,651 2001.2,651 2001.2,582.8 2060.9,582.8 				"/>
			</g>
			<g>
				<polygon class="st1" points="1887.9,651 1819.7,651 1819.7,582.8 1887.9,582.8 				"/>
			</g>
			<g>
				<polygon class="st1" points="2060.9,855.7 2001.2,855.7 2001.2,787.5 2060.9,787.5 				"/>
			</g>
			<g>
				<polygon class="st1" points="1887.9,855.7 1819.7,855.7 1819.7,787.5 1887.9,787.5 				"/>
			</g>
			<g>
				<polygon class="st1" points="2060.9,1060.3 2001.2,1060.3 2001.2,992.1 2060.9,992.1 				"/>
			</g>
			<g>
				<polygon class="st1" points="1887.9,1060.3 1819.7,1060.3 1819.7,992.1 1887.9,992.1 				"/>
			</g>
			<g>
				<polygon class="st1" points="3687.3,744.8 3627.6,744.8 3627.6,471.9 3687.3,471.9 				"/>
				<polygon class="st1" points="3687.3,378.2 3627.6,378.2 3627.6,96.7 3687.3,96.7 				"/>
				<polygon class="st2" points="4153.4,1191.7 4153.4,154.1 3634.6,154.1 3634.6,1191.7 				"/>
				<polygon class="st1" points="3865.2,263.4 3692.2,263.4 3692.2,306.7 3865.2,306.7 				"/>
				<polygon class="st1" points="3933.7,263.4 3933.7,306.7 4095.7,306.7 4095.7,263.4 				"/>
				<polygon class="st1" points="3865.2,494.1 3692.2,494.1 3692.2,537.2 3865.2,537.2 				"/>
				<polygon class="st1" points="3933.7,494.1 3933.7,537.2 4095.7,537.2 4095.7,494.1 				"/>
				<polygon class="st1" points="3933.7,724.6 3933.7,767.9 4095.7,767.9 4095.7,724.6 				"/>
				<polygon class="st1" points="3865.2,724.6 3692.2,724.6 3692.2,767.9 3865.2,767.9 				"/>
				<polygon class="st1" points="3865.2,955.2 3692.2,955.2 3692.2,998.5 3865.2,998.5 				"/>
				<polygon class="st1" points="3933.7,955.2 3933.7,998.5 4095.7,998.5 4095.7,955.2 				"/>
			</g>
		</g>
	</g>
</g>
</svg>
