<?xml version="1.0" encoding="utf-8"?>
<!-- Generator: Adobe Illustrator 19.0.0, SVG Export Plug-In . SVG Version: 6.00 Build 0)  -->
<svg version="1.1" id="Layer_1" xmlns="http://www.w3.org/2000/svg" xmlns:xlink="http://www.w3.org/1999/xlink" x="0px" y="0px"
	 viewBox="577.2 -607.5 825.6 1064.7" style="enable-background:new 577.2 -607.5 825.6 1064.7;" xml:space="preserve">
<style type="text/css">
	.st0{fill:#CB2D22;}
	.st1{fill:#E5B797;}
</style>
<path id="crown" class="st0" d="M767.6,335.1c1.9,22.5,13.6,42,19.6,63.2c2.8,9.7,4.4,18.5,0.4,27.8c-1.6,3.7-0.2,9.9-5.9,10.4
	c-4.4,0.4-5.8-4.7-8-7.8c-15.4-22.1-28.4-45.7-40.5-69.7c-22.3-44.2-43.2-89.1-62.5-134.6c-34.2-80.8-56.9-165.1-72.3-251.2
	c-8.4-47-13.2-94.5-16.3-142.2c-2.3-35.5-6.2-71-4.5-106.7c2.7-58.2,9.4-115.9,20.5-173.1c9.4-48.3,24.1-95.1,36.8-142.5
	c1.5-5.4,2.8-10.9,7.2-16.2c5.2,4.7,6.4,11.1,8.1,17C678.7-495,726.1-410,790.8-334.2c50.7,59.5,107.9,111.9,169.7,159.5
	c6.9,5.3,13.7,10.8,20.1,16.6c7.1,6.6,13,5.5,20.3-0.4c64.7-51.4,127.8-104.2,182-167.2c58.2-67.6,104.9-141.6,135.1-225.7
	c6-16.7,11.3-33.8,17-50.6c0.5-1.6,1.7-2.9,2.6-4.5c5.9,1.4,5.4,6.7,6.5,10.3c25.1,81.9,46.1,164.9,54.6,250.3
	c6.4,64.1,4.6,128.1-0.9,192.4c-4.9,57.7-11.7,114.9-23.8,171.5c-22.4,104.7-58.7,204.3-106.4,300.1c-16.8,33.8-33.8,67.5-53.3,99.8
	c-0.9,1.5-1.5,3.2-2.6,4.5c-4.1,5.3-7.2,15.8-13.4,13.6c-6.7-2.4-8-12.6-7.6-20.7c0.8-15.9,8.2-30.1,12.1-45.2
	c1.5-5.9,3.6-11.6,5.4-17.3c-4.8-4-2.7-8.5-1.1-13.1c22.9-64.3,34.9-130.6,40.1-198.5c3.7-47.3,2.8-94.7,1.5-141.9
	c-1.2-42.8-5.2-85.7-11.4-128.3c-1-6.5-0.5-13-1.4-19.5c-1.2-9.2-5-11-11.6-4.6c-16.2,15.7-32.7,31.2-47.5,48.3
	c-4.8,5.6-9.6,11.3-14.9,16.4c-39.1,37.7-75.1,78.4-113.5,116.8c-15,15-28.8,31.3-44.2,46c-11.3,10.8-15.4,11-26.2,0.5
	c-46.7-45.4-91.2-93-135.9-140.4c-12.2-13-24.8-25.6-37.6-37.9c-16-15.4-29.3-33.3-45.6-48.3c-2.8-2.6-5.4-6.8-9.8-5.1
	c-4.4,1.7-3.2,6.6-3.7,10.3c-5.1,38.3-8,76.8-12.4,115.2c-1.5,13.4-0.5,26.9-0.5,40.4c-0.1,19.1-2.2,38.3-1.9,57.2
	c0.4,35.1,1.8,70.2,5.7,105.2c5.8,52,16,102.9,32.4,152.6C769.8,327.9,770.9,331.7,767.6,335.1z"/>
<path id="face_2_" class="st1" d="M767,335.1c-14.7-26.7-19.2-56.6-25.6-85.8c-17.3-79.1-18.5-159.4-16.5-240
	c1.6-61.4,10.4-122,15.9-183.8c7.7,1.6,10.8,7.2,14.7,11.3c73.6,76.3,147.1,152.7,220.7,229c16.2,16.8,13.1,14.6,27.2-0.1
	c74.6-77.1,149-154.4,223.5-231.7c2.9-3,6.2-5.7,11.3-10.3c3,25.9,5.9,49.4,8.5,72.9c7.7,69.2,10.5,138.7,8.5,208.2
	c-2.3,78.6-14.7,155.6-39.7,230.3c-2.1,6.1-5.2,11.9-7.9,17.9c-17.3,20.6-34.5,41.2-56.2,57.6c-40.3,30.3-85.3,46-135.6,46.4
	c-23.5,0.2-47,0.5-70.4-0.5c-47.7-2.2-85.6-25.6-120.2-56.4C803.2,380.6,786.6,356.6,767,335.1z"/>
</svg>
