<?xml version="1.0" encoding="utf-8"?>
<!-- Generator: Adobe Illustrator 19.0.0, SVG Export Plug-In . SVG Version: 6.00 Build 0)  -->
<svg version="1.1" id="Layer_1" xmlns="http://www.w3.org/2000/svg" xmlns:xlink="http://www.w3.org/1999/xlink" x="0px" y="0px"
	 viewBox="0 0 681.2 1208.1" style="enable-background:new 0 0 681.2 1208.1;" xml:space="preserve">
<style type="text/css">
	.st0{fill:#BBBBBB;}
	.st1{fill:#3A3A44;}
	.st2{fill:#393943;}
	.st3{fill:#3D3D47;}
	.st4{fill:#1E1E28;}
	.st5{fill:#3E3E47;}
	.st6{fill:#40404A;}
	.st7{fill:#42424C;}
	.st8{fill:#3E3E48;}
	.st9{fill:#BBBBBB;}
	.st10{fill:#BBBBBB;}
	.st11{fill:#BBBBBB;}
	.st12{fill:#3A3A43;}
	.st13{fill:#8F8F98;}
	.st14{fill:#8E8E98;}
</style>
<g id="XMLID_247_">
	<path id="XMLID_124_" class="st0" d="M317.7,1001.7c6.4-9.3,9.7-19.9,13-30.5c2.7-8.7,5.2-17.4,8.2-27.4c2.2,7.2,3.9,13.2,5.8,19.2
		c4.2,13.2,7.4,26.9,15.2,38.7c1.8,1.1,2.9,2.7,3.9,4.4c4.1,7,8.4,13.9,12.8,20.8c1.4,2.2,2.4,4.4,1.7,7
		c-3.5,12.1-7.1,24.2-10.8,36.3c-0.4,1.2-0.6,2.6-2.1,3.2c-7.6,22.6-11.5,46-15.5,69.4c-3.6,21.6-7.1,43.3-11.3,65.2
		c-0.9-4.7-1.8-9.5-2.6-14.2c-4.8-28.4-9.4-56.8-14.4-85.1c-2.2-12.3-6.3-24.1-9.9-36c-2.7-3.5-3.7-7.8-4.7-11.9
		c-2.1-8-4.5-15.9-6.7-23.9c-0.8-3-1.2-5.9,0.4-8.7c4.8-8.3,10-16.4,14.8-24.7C316,1002.6,316.8,1002.1,317.7,1001.7z"/>
	<path id="XMLID_123_" class="st0" d="M210.8,945.8c5.8-2.3,10.3-6.5,14.8-10.6c6.3-5.6,12.4-11.4,19.2-17.7
		c-2.3,11.8-6,22.6-7.2,33.9c-1.3,9.8,1.3,19.5,0.8,29.3c-0.4,8.9-4.2,14.9-12.5,18c-22.7,19.8-41.9,42.7-60.8,65.9
		c-5.8,7.1-11.7,14-18.2,20.7c4.5-11.7,8.7-23.4,13.4-35c11.3-27.8,19.6-56.4,26.1-85.7c0.3-1.3,0.3-2.6,0.5-3.9
		c0.2-4.7,4.6-4.8,7.4-6.7c1.4-0.7,2.9-1.4,4.2-2.3C202.6,949.8,206.1,946.6,210.8,945.8z"/>
	<path id="XMLID_122_" class="st1" d="M444.6,960.7c0,6.7,0.6,13.5,0,20.2c-0.5,5.2,1,8.8,5,11.9c1.3,0.9,2.7,1.9,3.2,3.6
		c-5.4,7.9-13.4,13.3-20.3,19.6c-12.4,11.5-25.2,22.5-38.1,33.5c-9.6,8.1-18.4,17.1-29,24c3.7-12.6,7.2-25.1,11-37.6
		c0.9-3.1,0.8-5.5-1-8.2c-5.5-8.5-10.9-17-15.5-25.9c10.2-2.4,19.7-6.7,29.2-11C408.4,982.2,426.9,972.2,444.6,960.7z"/>
	<path id="XMLID_121_" class="st1" d="M225.9,998.8c10.1-6.7,12.5-16.1,11.1-27.7c-0.7-6.4-1.3-13.2,0.5-19.7c0.1,0.3,0.3,0.7,0.2,1
		c-2.6,9.5,3.7,13.3,10.6,17.2c22.2,12.7,45,23.9,69.3,32.1c-4.5,8.9-9.9,17.3-15.2,25.7c-1.8,2.8-2.2,5.2-1.2,8.4
		c3.6,12.3,6.9,24.6,10.3,37c-25.3-21.2-50.1-43-74.6-65C233.5,1004.6,230.6,1000.5,225.9,998.8z"/>
	<path id="XMLID_120_" class="st0" d="M125,869.9c10.7-1.6,19.8-7.4,29.4-11.8c1.6-0.7,3.2-1.5,5.4-2.5c-6,11.7-14.3,21.5-16.9,34.1
		c0.7,3.9-1.3,7.2-2.1,10.8c-0.6,1.3-0.8,2.8-1.2,4.2c-0.8,2-1.2,4.4-3.9,4.9c-14.5,6.7-28.9,13.4-42.5,21.8
		c-16.7,10.3-32.8,21.3-49.6,31.7c21.5-27.8,43.7-55.2,60-86.5c0.7-2.7,2.4-4.1,5.1-4.6C114.2,871,119.4,869.3,125,869.9z"/>
	<path id="XMLID_119_" class="st0" d="M75.5,836.5C49.8,840.2,25,847.8,0,855.1c2.8-2.1,5.6-4.2,8.4-6.2
		c17.5-12.2,34.3-25.2,49.3-40.4c1.2-1.2,2.2-2.5,4.2-2.2c13,1.8,25.8,1.2,38.7-1.9c-6,7.3-13.9,12.6-18.1,21
		C81.4,829.9,79.7,834,75.5,836.5z"/>
	<path id="XMLID_118_" class="st0" d="M597.8,823.7c-4.2-7.6-11.3-12.4-17.3-18.8c2.8-0.7,4.9,0.2,7.1,0.7
		c10.1,2.2,20.2,2.1,30.3,0.9c2-0.2,3.8-0.2,5.4,1.5c17.1,17.7,37.1,31.9,57,46.1c0.4,0.3,0.8,0.6,0.9,1.6
		c-4.6-1.4-9.2-2.6-13.8-4.1c-18.3-6.1-36.9-11.1-56.1-14.1c-2.3-0.4-5.1-0.2-6.6-2.7C600.7,832.1,599.2,827.9,597.8,823.7z"/>
	<path id="XMLID_117_" class="st1" d="M139.5,900.6c0.9-3.7,1.7-7.4,3.4-10.9c14.2,11.8,27.5,24.6,42.2,35.8
		c7.3,5.5,14.5,11.1,21.8,16.6c1.4,1.1,3.2,1.8,3.9,3.7c-3.7,2.9-7.8,5-12,6.9c-3.1,0-5.1-2.4-7.2-4.1c-16.6-13.3-32.3-27.6-48-41.9
		C141.6,905,139.8,903.3,139.5,900.6z"/>
	<path id="XMLID_116_" class="st2" d="M597.8,823.7c2.7,3.5,5,7.1,7,11c-4.4,4.6-6.6,10.6-10.4,15.6c-5,6.4-9.9,12.8-14.8,19.3
		c-1.2,1.5-2.8,2.9-2.8,5.1c-6.4-2.6-13.6-2.3-20-5c5.5-5.9,11-11.9,16.4-17.8c7.7-8.4,15.4-16.8,23.1-25.2
		C597.1,825.8,597.6,824.8,597.8,823.7z"/>
	<path id="XMLID_115_" class="st2" d="M75.5,836.5c2.4-3.7,4.7-7.4,7.1-11c1.3,4.4,5.1,6.9,7.9,10c9.9,11.1,20.3,21.8,30.4,32.7
		c1.1,1.2,2.6,1.3,4,1.6c-5.4,1.2-10.8,2.7-16.2,3.6c-2.4,0.4-3.9,1.3-5,3.2c-2.3-6.2-7.4-10.5-11.3-15.6
		C86.4,853.1,81.1,844.8,75.5,836.5z"/>
	<path id="XMLID_114_" class="st1" d="M541.9,900.4c1.8,2.8,0.9,6.9,4.2,9c-2.3,0.1-3.5,1.8-4.9,3.2c-14.4,14.4-28.7,28.7-43.1,43.1
		c-1.5,1.5-3.3,2.9-3.5,5.2c-2.4-5-8.3-4.9-11.8-8.3c8.7-7.7,17.9-14.7,26.5-22.6c9.3-8.5,18.8-16.8,27.6-25.8
		C538.4,902.8,539.6,900.9,541.9,900.4z"/>
	<path id="XMLID_113_" class="st3" d="M338,1097.7c-0.3-3.3-0.7-6.5-0.8-9.8c-0.6-27.1-1-54.3-1.5-81.4c0-1.2-0.1-2.4,0.2-3.4
		c0.4-1.1,1.7-0.9,2.6-0.8c2.4,0.3,1.6,2.2,1.6,3.5c-0.2,13.6-0.6,27.3-0.7,40.9c-0.1,17,0,33.9,0,50.9
		C338.9,1097.6,338.4,1097.6,338,1097.7z"/>
	<path id="XMLID_112_" class="st4" d="M541.9,900.4c-8.8,10.6-19.4,19.4-29.5,28.7c-7.7,7.2-16.1,13.6-24.1,20.5
		c-1.7,1.4-3.3,2.8-5.5,3c-1.1-0.6-2.1-1.2-3.2-1.7c20.7-16.2,40.1-34.1,59.2-52.1c0.7-0.7,1.3-1.5,1.9-2.2
		C541.8,897.8,541.9,899.1,541.9,900.4z"/>
	<path id="XMLID_107_" class="st4" d="M194.9,954.8c-8-4.9-14.7-11.4-21.7-17.4c-11-9.4-21.8-19-31.7-29.6c-1-1.1-1.9-2.3-2.9-3.4
		c0.3-1.3-0.3-2.8,1-3.8c11.7,11.7,24,22.8,36.7,33.4c7.5,6.2,15,12.5,22.5,18.7C197.7,953.8,196.4,954.4,194.9,954.8z"/>
	<path id="XMLID_106_" class="st3" d="M189.5,1012.5c8-14.9,15.9-29.8,23.9-44.8c3.2-6,6.5-12,9.7-18c0.6-1.1,1-2.7,2.9-1.5
		c1.4,0.9,0.9,1.9,0.2,2.9c-12.1,20.6-24.2,41.2-36.2,61.8C189.5,1013.1,189.4,1013,189.5,1012.5z"/>
	<path id="XMLID_104_" class="st5" d="M90,922.5c7.6-8.3,15.1-16.8,23-24.9c6.4-6.6,13.1-12.8,19.7-19.2c0.9-0.8,1.6-2.3,3.2-0.8
		c1.6,1.6,0,2.3-0.9,3.1c-15.2,13.8-30.3,27.5-45.5,41.2C89.6,922.1,89.8,922.3,90,922.5z"/>
	<path id="XMLID_103_" class="st6" d="M46.1,831c9.7-5.1,19.4-10.1,29.2-15.2c0.9-0.5,1.9-1.6,2.9,0.1c0.9,1.4,0.4,2.1-0.9,2.7
		c-10.3,4.5-20.6,9-30.8,13.5C46.3,831.7,46.2,831.3,46.1,831z"/>
	<path id="XMLID_102_" class="st7" d="M635,833c-9-4-18.1-8-27.1-11.9c-1.8-0.8-3.6-1.6-5.5-2.4c-1.2-0.5-2.1-1-1.3-2.6
		c0.8-1.5,1.7-1,2.8-0.4c10.5,5.5,21,11,31.5,16.4C635.2,832.4,635.1,832.7,635,833z"/>
	<path id="XMLID_251_" class="st0" d="M499.4,970.8c6.2,30.5,15,60.3,26.6,89.2c4.7,11.7,9,23.5,12.9,35.6c-1.9-2.2-3.7-4.4-5.6-6.7
		c-13.9-16.6-27.4-33.5-41.7-49.8c-10.4-11.8-22.2-22.5-34-33c-4.6-1.1-8.2-4.4-8.8-8.6c-1.3-9-2-18.2,0.6-27.1
		c-0.5-14.4-4.1-28.3-8.2-43.6c4.8,4.4,8.4,8,12.3,11.5c6.5,5.7,12.3,12.2,20.1,16.2c4.2,0.6,7.3,3.7,11.1,5.2
		c1.2,0.7,2.4,1.4,3.6,2.1c2.3,1.5,4.8,2.6,7.3,3.8C497.8,966.7,499.2,968.2,499.4,970.8z"/>
	<path id="XMLID_250_" class="st0" d="M542.6,896.4c-3-11.2-10.4-20.2-16.1-31.1c5.1,2.5,9.6,4.8,14.1,6.8
		c6.7,3.1,13.3,6.9,20.9,7.4c7,0.4,14.1,0.1,20,5c15.3,29,35,55,55.4,80.5c2,2.5,4,5.1,5.8,8c-29.8-19.5-59.2-39.4-91.8-53.8
		c-4.6-1.1-3.7-5.6-5.2-8.5c-0.4-1.4-0.6-2.9-1.2-4.3C543.5,903.2,542.2,900,542.6,896.4z"/>
	<path id="XMLID_249_" class="st8" d="M499.9,1029.5c-10.5-18.1-21-36.3-31.5-54.4c-2.4-4.2-4.8-8.3-7.3-12.5
		c-0.6-1.1-1.1-2.1,0.3-2.9c1.5-0.9,2.1,0.3,2.7,1.3c12.3,22.6,24.5,45.2,36.8,67.9C500.5,1029.1,500.2,1029.3,499.9,1029.5z"/>
	<path id="XMLID_248_" class="st3" d="M600.1,933.3c-2.4,1.2-2.9,0-3.7-0.7c-15-13.6-30.1-27.2-45-40.9c-1-0.9-4.1-1.7-1.6-4
		c2.1-1.9,2.8,0.8,3.8,1.7c14.6,14.1,29.1,28.2,43.7,42.3C598,932.4,599.1,932.7,600.1,933.3z"/>
</g>
<g id="XMLID_105_">
	<path id="XMLID_206_" class="st4" d="M252.8,431.1c8.8,14.3,17.8,28.4,26.3,42.8c7,11.8,16.2,22.4,22,35c2.3,5.1,4.6,10.2,7.5,15.1
		c0-8.5,0.6-17.1-0.2-25.6c-0.9-9.4-8.3-15.6-13.1-23.1c-1.4-2.2-4.8-4.3-3.7-6.4c1.2-2.3,4.5,0.1,6.9,0.3
		c14.8,1.6,29.6,4.2,44.5,3.8c14.9-0.4,29.7-2.1,44.4-4.6c1.1-0.2,2.3,0,5.4,0c-15.6,15.8-23.4,33.3-18.1,54.6
		c2.2-4.6,4.5-9.4,6.7-14.4c6.2-13.7,16.2-25,23.7-38c7.2-12.5,15.2-24.6,22.8-36.8c0.4-0.7,1.2-1.1,1.8-1.6c1.3-1,2.6-0.5,3.7,0.2
		c5.7,3.5,11.2,7.2,15.8,12.1c3.6,3.9,4.4,8.4,2.1,13.4c-1.6,3.5-3.7,6.7-6,9.8c-14,19.5-28.1,38.9-42.5,58.1
		c-4.2,5.6-5.2,11.2-4.6,17.7c1.4,14.6,1.8,29.2,2.8,43.8c1.2,18.1,1.8,36.2,2.7,54.3c0.9,17.3,0.3,34.6,0.2,51.9
		c0,2-0.7,3.9-1.4,5.8c-13.7,5.3-28.1,7.2-42.5,9c-10.1,1.2-20.1,1.6-30.1,0.8c-17.1-1.5-34.2-3.7-50.4-9.9
		c-2.7-6.5-2.2-13.6-2.2-20.2c0.1-16.3,0.3-32.6,1.5-48.9c0.6-8.1,0.6-16.3,1-24.4c1.1-22.6,2.4-45.2,4.1-67.7c0.3-4-1.2-7-3.5-10.1
		c-14.6-20.1-29.4-40-43.9-60.2c-2.2-3.1-4.5-6.2-6.1-9.7c-2.2-5.1-1.8-9.9,2.4-13.7C239.1,439,244.7,433.1,252.8,431.1z"/>
	<path id="XMLID_202_" class="st0" d="M268.7,361.2c-1.2-1.7-2.5-3.4-3.8-5.2c2.8-1.7,4.6-0.7,6.6,1.2c6.6,6.4,13.3,12.6,20.1,18.8
		c5.9,5.4,10.1,4.7,16-0.4c7.8-6.7,9.7-14.4,9.1-24.4c-1.7-26.1-2.2-52.3-3.1-78.4c-0.1-2.6-0.3-4.5-3.3-5.8
		c-50.3-21.8-79.6-61.2-93.4-113.1c-9.2-34.5-10.6-69.7-6.4-105.1c0.2-2,1.3-4.5-2.9-4.5c9.7-4.5,19.7-6.4,30-9.1
		c-2.2,10.4-4.5,20.3-6.3,30.4c-6.2,35.5-7.4,71,4.6,105.6c14.2,41.2,42,69.6,83.3,84.1c3.1,1.1,3.5,2.6,3.5,5.4
		c-0.1,31.3-0.1,62.7,0,94c0,1.6-0.5,3.3,0.5,5c5-4,10-7.8,14.8-11.7c2.3-1.9,4.3-1.9,6.7,0c4.8,3.9,9.6,7.6,14.7,11.6
		c1-1.6,0.5-3.4,0.5-5.1c0-31.2,0-62.3,0-93.5c0-2.6-0.1-4.4,3.2-5.5c48.3-17.1,77.4-51.4,88.7-100.8c7.7-34,4.6-67.9-2.5-101.6
		c-1.2-5.6-2.6-11.2-4-17.5c10.2,2.4,19.8,4.7,30.3,8.7c-5,0.9-3.6,3.6-3.4,6c4.5,41.6,2.1,82.5-12.2,122.2
		c-15.7,43.6-44.2,75.7-87.1,94.4c-2.5,1.1-3.5,2.3-3.6,5c-1.1,30.3-2.7,60.6-3.1,90.9c-0.1,7.7,8,12.2,13.9,16.2
		c4.6,3.1,8.7-0.7,12.2-4c6.3-6,12.7-11.8,18.9-17.8c1.9-1.9,3.7-2.6,6.3-1.4c-0.2,2.5-2.9,3.5-3.6,5.6c-1.5,5-5.6,8.1-8.6,11.9
		c-4.1,5.2-8.1,10.5-13.1,14.9c-4.5,4.1-9.6,5.8-15.5,3c-4.9-2.7-8.3-7.1-12.2-10.9c-4.9-4.8-10.1-9-15.8-12.8
		c-5-3.3-9.8-3.3-14.8,0c-5.8,3.9-11.2,8.2-16.2,13.2c-3.7,3.7-7,8-11.8,10.6c-5,2.4-9.9,1.7-13.9-1.8c-8.7-7.5-15-17.1-22.5-25.7
		C268.9,362.9,269.1,361.9,268.7,361.2z"/>
	<path id="XMLID_201_" class="st1" d="M402.8,699.2c-2.2-2.5,0.1-5,0.1-7.6c-0.3-15.8,0.2-31.6-0.2-47.4c-0.6-21.5-1.8-43.1-3-64.6
		c-0.8-14-1.9-28.1-3-42.1c-0.3-4.1,1.1-7.2,3.5-10.5c15.8-21.5,31.5-43.1,47-64.8c6.8-9.6,5.9-13.8-3.4-20.8
		c-4.5-3.4-8.6-7.2-13.9-9.4c3.4-7.6,9.2-13.7,13.6-20.8c1.2-1.9,3.1-1,4.4-0.1c10.3,7,20.5,14.1,30.8,21.2c2,1.4,2.1,2.9,1.1,5.1
		c-14.2,30.1-28.2,60.2-42.3,90.4c-4.1,8.9-7.9,17.9-12.3,27.9c4-1.5,6.3-3.7,8.7-5.7c5.9,11.1,10.6,22.8,15.7,34.4
		c6.4,14.6,12.7,29.3,17.5,44.5c1.4,4.3,2.8,8.6,1.8,13.2c-16.8,17.8-33.7,35.4-53.2,50.4C411.8,695.6,407.4,697.7,402.8,699.2z"/>
	<path id="XMLID_200_" class="st1" d="M252.8,431.1c-5.8,4.4-12.2,7.9-17.5,13c-5.6,5.4-6.2,9.8-1.6,16.3
		c10.3,14.6,20.9,29.1,31.4,43.5c6.4,8.9,12.9,17.7,19.4,26.5c2.1,2.9,1.2,6.1,1.1,9.2c-0.4,8.3-1.4,16.5-1.8,24.7
		c-1.1,21.9-2.7,43.7-3.3,65.6c-0.1,5.6-0.6,11.2-0.7,16.9c-0.1,7.5-0.2,14.9-0.8,22.4c-0.8,9.6,0.6,19.2,1.5,28.8
		c0,0.4-0.4,0.8-0.7,1.3c-10.7-3.2-18.4-11.1-26.5-18.1c-12.4-10.6-23.6-22.5-35.1-34.1c-1.4-1.4-2.9-2.7-4.4-4
		c-0.7-4.8,0.9-9.2,2.3-13.6c8.5-26.8,19.6-52.7,30.8-78.4c0.1-0.3,0.4-0.5,0.7-0.7c3.4,1.2,6,3.9,10.3,6.4
		c-3.3-7.7-6-14.2-8.9-20.7c-14.8-32.5-29.4-65.1-45.4-97c-1.8-3.7-1.3-5.3,2-7.5c8.4-5.6,16.6-11.6,24.8-17.5
		c7-4.9,7.5-4.8,12.3,2.3C246.1,421.2,249.5,426.1,252.8,431.1z"/>
	<path id="XMLID_199_" class="st1" d="M147,120.5c2.2-17.5,6.4-34.5,11.6-51.3c1.1-3.6,2.8-6,6.2-7.8c11.3-6.1,22.9-11.2,35.4-15.2
		c-0.8,9.1-2.1,17.8-2.2,26.5c-0.3,35.3,5.8,69.7,16.2,103.3c8.4,27.2,19.3,53.4,32.3,78.8c0.9,1.7,2.2,3.4,2.2,5.5
		c-2.5,1.2-4.2-0.6-5.8-1.8c-16.7-11.9-34.1-22.7-51.2-34.1c-4-2.7-8.1-5.3-12.4-7.5c-10.1-5.2-15.9-14-19.3-24.5
		c-7.4-22.9-12-46.4-12.7-70.5C147.2,121.4,147.2,120.9,147,120.5z"/>
	<path id="XMLID_198_" class="st1" d="M432.8,260.3c8.3-17.6,16.9-35,23.9-53.2c11.3-29.5,20-59.7,24.1-91.2
		c2-15.2,3.3-30.4,2.7-45.7c-0.3-7.9-1.3-15.8-2.1-24.2c13.5,4.7,26.3,9.9,38.3,17c2,1.2,2.2,3.2,2.8,5.1c5.1,16,9.2,32.2,11.2,48.9
		c0.2,1.5,0.5,2.9,0.8,4.3c-0.6,14.3-3,28.4-5.4,42.4c-1.7,10.5-5.1,20.7-8.5,30.7c-3.6,10.6-10.9,18-20.8,23.8
		c-19.9,11.8-39,24.8-58.1,37.8C439.2,258,437,261.4,432.8,260.3z"/>
	<path id="XMLID_197_" class="st0" d="M247.6,550.2c0.7,2.1-0.6,3.8-1.3,5.6c-10.4,24.4-21,48.7-28.9,74c-1.3,4.3-2.4,8.7-3.6,13.1
		c-9.5-11-19-21.9-27-34c-1.7-2.5-1.8-4.4-0.4-7.2c7.7-14.4,15.6-28.7,24.7-42.2c2.6-3.8,2.2-7,0.5-10.6
		c-3.9-8.3-9.5-15.6-14.2-23.4c-2.1-3.6-4.5-7-6.7-10.5c-4.9-4-7-10-10.4-15.1c-4.8-7.2-8.9-14.8-13.5-22.1c-1-1.6-1.3-3.4-1.9-5.1
		c-5.2-8.7-9.9-17.7-15.6-26c-11.9-17.3-18.6-36.9-25.5-56.5c-8.8-25.2-16.7-50.7-23.6-76.4c-0.4-1.6-0.4-3.2-0.5-4.9
		c0.3-2.1,1.3-0.9,1.8-0.3c1.5,2,2,4.6,2.7,6.9c8,26.3,17.5,52,29.9,76.5c7.9,15.6,17,30.4,29.3,43.1c6.8,7,14.1,10.2,23.6,7
		c1.8-0.6,3.8-1.3,5.8-0.2c4.1,2,5.7,6,7.2,9.8c5.1,13,9.8,26,14.8,39c6.6,17,14,33.7,24.5,48.8
		C241.8,543.4,244.3,547.1,247.6,550.2z"/>
	<path id="XMLID_196_" class="st0" d="M468.8,642.2c-5.5-25.7-17.3-48.9-27.4-72.8c-2.1-4.9-4.4-9.7-6.6-14.5
		c-0.7-1.5-1.7-2.9-0.9-4.7c13.2-14.5,21.7-31.8,29-49.7c6.1-14.9,11.4-30.1,17.2-45.2c1.8-4.8,3.7-9.6,7.8-13.2
		c2.5-1.7,4.9-0.4,7.2,0.4c9.2,2.9,16.3,0.2,22.8-6.7c13.1-13.8,22.8-29.8,31.1-46.7c12.2-24.8,21.9-50.7,29.5-77.2
		c0.5-1.6,0.6-3.5,2.2-4.3c1.7-0.9,2,0.2,1.3,1.6c-8.7,38.9-22.1,76.2-36.1,113.4c-3.7,9.8-10.3,18.2-15.5,27.3
		c-4.5,7.8-9.1,15.4-13.7,23.1c-0.3,1.8-0.9,3.5-1.9,5.1c-7,11.3-13.9,22.6-20.8,34c-0.8,1.3-1.8,2.4-3.1,3.2
		c-7.1,11-14.6,21.8-20.7,33.3c-2.2,4.1-2.2,7.6,0.6,11.9c9.1,13.5,16.9,27.8,24.6,42.1c1.4,2.7,1.4,4.6-0.3,7.1
		C487.1,621.2,478.4,632,468.8,642.2z"/>
	<path id="XMLID_195_" class="st1" d="M540.7,161.1c4.7,15.6,10.3,30.8,18.4,46.7c4.3-19.5,8.2-37.6,12.2-55.8
		c0.4,0,0.8-0.1,1.2-0.1c0.3,4.8,0.7,9.6,0.9,14.3c1,23.2-0.6,46.1-6.8,68.7c-2.1,7.5-6.5,12.3-13.6,15.4c-13.8,6-28.2,10.3-43,12.5
		c-11.4,1.7-20.1,7.2-28.6,14.1c-18.4,14.8-35.9,30.7-53,47c-2.2,2.1-4.3,2.7-7.2,1.7c-2.6-1-5.5-1.4-8.1-2.4
		c-2.4-0.9-2.3,0.8-2.7,2.2c-2.3-0.6-2.3-2.6-2.4-4.3c-0.2-4.2-0.5-8.5,0.3-12.7c0.7-2.5,2.9-3.5,5.1-4.4c5.4-2.2,10.8-4.5,16.3-6.5
		c4.1-1.5,7.2-3.8,9.3-7.8c1.3-2.5,3.1-4.8,4.1-7.4c3.7-9.1,11.1-14.7,18.8-20.1c14.8-10.3,29.8-20.1,44.8-30.1
		c7.5-5,14.2-11,19.6-18.3c2.2-3,3.6-6.1,4-10c1.1-13.3,4.4-26.3,7.4-39.2C538.2,163.1,538.4,161,540.7,161.1z"/>
	<path id="XMLID_194_" class="st4" d="M581.8,309.1c-0.1-0.1-0.1-0.3-0.2-0.5s-0.1-0.3-0.2-0.5c-0.6,1.5-1.3,2.9-1.7,4.4
		c-10.1,32.9-21.8,65.1-39.2,95c-7,12.1-15.2,23.3-25.8,32.7c-4.9,4.4-10,6.1-16.3,4.2c-3.5-1-7.1-1.7-10.7-2.5
		c-0.1-1.4,0.2-2.7,0.9-3.8c2.8-4.5,2.1-7.8-2.3-11.3c-10.5-8.3-20.5-17.3-30.7-26c-0.6-3.3,1.9-4.7,4.1-6.2
		c9.4-6.5,20.4-7.8,31.3-9.1c8.6-1,17.3-1.3,25.9-1.1c3,0.1,5.5-0.8,7.7-2.9c8.4-7.9,15.4-17,22.2-26.3c6.4-8.7,7.7-19,10.3-29
		c1.9-7.4,4.5-14.6,6.5-22c1.2-4.5,3.3-8.7,5.8-12.6c8.3-12.9,13.3-27.2,16.6-42.1c0.4-1.8-0.1-4.2,2.7-4.7
		c2.1,5.4,0.1,10.8,0.2,16.2c0.2,10.7-0.5,21.2-3.2,31.6C584.3,298.3,583.9,303.9,581.8,309.1z"/>
	<path id="XMLID_193_" class="st0" d="M487.2,375.4c-10-0.2-17.6,0.1-25.2,1.6c-10.7,2.2-18.7,7.7-23.9,17.7
		c-11.5,22-24.7,43-38.1,63.8c-3.2,4.9-7.2,7.4-12.8,8.3c-31,5-62,5.5-92.9-0.4c-5.2-1-8.7-3.3-11.5-7.7
		c-13.1-20.3-26.1-40.6-37-62.1c-6.6-13-16.9-19-30.8-20.6c-7.6-0.9-15.3-0.9-23-0.7c-16,0.4-27.3-7.5-35.5-20.2
		c-7.7-11.9-14.6-24.2-21.8-36.4c-0.4-0.7-0.8-1.5-1.3-2.1c-0.8-1.1-1.2-2.2,0-3.1c1.7-1.2,1.8,0.8,2.3,1.6c3.3,5,6.6,10,9.5,15.2
		c16.4,29.5,42.4,41.3,75,41.6c5.8,0,11.6,0.3,17.5,0.8c5.3,0.4,9.1,2.8,12.2,6.8c2.1,2.8,4.1,5.6,5.9,8.7
		c11.7,20,23.3,39.9,34.8,60c1.6,2.8,3.7,4.4,6.8,5.3c7.3,2.1,14.7,2.8,22.2,3.2c20.8,1,41.6,1.4,62.3-2.3c5.7-1,9.2-3.7,12.1-8.9
		c11.2-20.2,23.2-40,34.6-60.1c5.1-8.9,12.1-13.4,22.6-13.3c13,0.2,25.9-0.1,38.6-3.8c17.5-5,31.9-14,41.8-29.6
		c5-7.9,10.1-15.7,15.2-23.4c0.5-0.8,0.7-2.7,2.3-1.9c1.5,0.8,0.8,2.2,0.1,3.4c-8.3,13.8-15.8,28.3-25.1,41.4
		C514.8,371.3,501.4,377.6,487.2,375.4z"/>
	<path id="XMLID_192_" class="st4" d="M192.7,442.2c-0.3,0.1-0.6,0.3-0.9,0.4c-12.9,5.3-22.9,1.9-32-8.6
		c-15.1-17.5-25.8-37.4-35.1-58.2c-9.1-20.3-16.4-41.3-22.9-62.6c-0.4-1.4-0.9-2.8-1.4-4.2c0-0.1-0.3-0.2-0.4-0.2
		c-0.1,0-0.2,0.2-0.4,0.3c-1.3-7-2.4-14.1-3.9-21.1c-1.9-8.6-2.3-17.3-2-26c0.1-3.7-2-7.5,0.1-11.1c2.5,0.7,2.5,3,2.9,4.8
		c3.3,14.1,9.3,27,16.6,39.4c5.5,9.4,7.6,20.2,10.7,30.5c0.3,1.1,0.7,2.2,0.9,3.4c3,21.9,16.2,37.8,31,52.8c2.9,3,6.3,4,10.4,3.9
		c13-0.3,25.9,0.6,38.7,3.3c6.2,1.3,12.3,3.1,17.5,7c1.9,1.5,4.3,2.8,3.6,5.9c-8.4,7.2-16.8,14.4-25.2,21.5
		c-2.3,1.9-4.3,4.3-6.9,5.6c-4.9,2.5-4.5,5.8-2.4,9.8C192.1,439.9,192.4,441.1,192.7,442.2z"/>
	<path id="XMLID_191_" class="st1" d="M270.9,325.3c-2-2.4-4.2-0.3-5.9,0.2c-2.9,0.8-4.9,0.6-7.2-1.5c-10.1-9.4-20.3-18.7-30.6-27.9
		c-9.8-8.8-20.1-16.9-30.4-25.1c-7.2-5.7-15.6-7-24-8.8c-12-2.5-23.8-5.8-35.5-9.9c-11.5-4-17.1-11.9-19.7-23.4
		c-3.7-16.1-4.8-32.5-5.5-48.9c-0.2-3.9,0.6-7.9,1.4-11.9c2.8,12.7,5.5,25.5,8.6,39.7c8.3-16.1,14.1-31.6,18.7-47.6
		c2.6,0.1,2.4,2.5,2.8,4c3,13.6,6.4,27.2,7.6,41.2c0.2,2.6,1.3,4.8,2.7,6.9c5.4,7.8,12.1,14.1,20,19.3c16.6,11,33.2,22.2,49.6,33.6
		c6.2,4.3,11.4,9.1,14,16.3c3.5,9.7,9.8,16.3,20.2,18.8c3.5,0.8,6.8,2.6,10.2,4c2,0.8,4.1,1.6,5,3.9c1,4.2,0.6,8.5,0.4,12.8
		C273.2,322.7,273.2,324.7,270.9,325.3z"/>
	<path id="XMLID_190_" class="st1" d="M305.7,390.1c4.7-3.2,8.1-7.8,12.2-11.6c5-4.7,10.1-9.1,15.9-12.7c5.1-3.2,9.8-3.2,14.9,0
		c8.3,5.1,15.1,11.9,21.9,18.7c2,2,4.1,3.8,6.2,5.6c1,7.9-0.3,15.8-0.8,23.7c-0.6,10.6-1.5,21.1-2.6,31.6c-0.3,2.5-0.4,5-2.7,6.6
		c-19.6,1.7-39.3,1.7-58.9,0c-4-5.4-2.8-11.8-3.4-17.8C306.9,419.6,305.9,404.9,305.7,390.1z"/>
	<path id="XMLID_189_" class="st0" d="M226.1,402c-3.5-5.7-9.2-8-15.1-9.8c-14.8-4.7-30.2-5.1-45.5-4.9c-4.6,0.1-7.9-1.4-11-4.5
		c-8.5-8.7-16.2-18.1-22.6-28.5c-3.1-5-5.1-10.3-6.2-16.2c-2.6-13.1-7-25.7-11.1-38.3c-0.2-0.5-0.3-1-0.6-1.4
		c-10-14.4-15.8-30.6-20-47.5c-3.4-20.9-4-41.9-1.2-63c2.1-15.8,5.6-31.3,10.3-46.6c1.8-0.1,1.2,1,1,2c-3.6,21.1-5.5,42.3-3.2,63.6
		c3.4,32.5,13.9,61.9,37.1,85.7c2.1,2.1,4.4,4,6.7,6.2c-5.7,3.4-10.6,7.5-14.6,12.7c-1.6,2.1-2.1,3.6-0.6,6.1
		c8.3,13.6,15.9,27.7,24.7,41c8.8,13.1,21.2,21,37.7,20.7c10-0.2,20-0.6,29.8,1.8c6.3,1.6,11.8,4.5,16,9.6c1.4,1.8,2.1,3-0.5,4.6
		c-2.9,1.8-5.6,4.2-8.2,6.5C227.8,402.9,227.1,403.1,226.1,402z"/>
	<path id="XMLID_188_" class="st0" d="M588.7,245.1c-2.6,10.3-4.8,20.7-9.1,30.5c-1.7,3.8-3.2,7.7-5.5,11.2
		c-10.3,15.7-13.8,33.7-18.2,51.4c-1.1,4.6-2.5,9-4.8,13c-6.7,11.4-15,21.6-24.3,31c-2.9,2.9-6,4.2-10.2,4.1
		c-14.5-0.2-29,0.2-43.1,4c-6.9,1.9-13.8,4.1-17.9,10.8c-0.8,0.6-1.5,1.1-2.5,0.1c-1.5-1.5-3.2-2.9-4.9-4.3
		c-5.3-4.2-5.4-4.7-0.1-9.3c7.5-6.5,16.7-7.8,26.1-8.3c5.6-0.3,11.3-0.1,17-0.1c16.8,0.3,29-8,37.8-21.3c8.6-13,16-26.8,24.2-40.1
		c1.5-2.4,1.6-3.9-0.3-6.1c-4.5-5.4-9.3-10.3-15.5-13.7c37.6-34.9,46.8-79.3,43.9-127.9c-0.7-11.1-2.5-22.1-4.3-33.1
		c4.6,11.5,7.4,23.4,9.7,35.5C591.3,196.6,592.1,220.8,588.7,245.1z"/>
	<path id="XMLID_187_" class="st2" d="M183,602.6c-7.9-10.8-14.6-21.3-20.8-32c-6.6-11.4-12.6-23-18.9-34.6c-1-1.8-1.8-3.3,0.2-5.3
		c6.6-6.4,13.4-12.5,20.9-17.7c2-1.4,4-2.1,6.5-1.1c1.8,0.7,3.9,0.9,5.8,1.4c7.7,1.7,13.8,5.2,17.9,12.7c4.5,8.3,10,16.1,14.1,24.7
		c1,2.1,2,4.3,0.4,6.6C199.3,571.4,190.9,586.3,183,602.6z"/>
	<path id="XMLID_186_" class="st1" d="M472.7,555.2c1.3-4.7,3.7-8.8,6.1-13c3.5-6,7.6-11.7,11-17.8c5.5-9.8,15.8-9.2,24.6-11.9
		c0.9-0.3,2.5,0.8,3.5,1.5c7.6,5.1,14.4,11.2,20.9,17.7c1.4,1.3,1.7,2.4,0.7,4.3c-11.1,21.5-23.3,42.2-36.9,62.2
		c-3.3,4.8-3.5,4.8-6.1-0.4c-6.4-13-13.7-25.5-21.8-37.5C473.8,558.7,472.2,557.4,472.7,555.2z"/>
	<path id="XMLID_185_" class="st0" d="M270.9,325.3c1-6,1-12.1,0.9-18.2c-1.5-1.5-1.2-3.4-0.9-5.2c0.4-2.3,0.3-4.7,0.5-7
		c0.6-4.9-1.6-7.9-5.6-10.6c-28.2-19.3-56.8-37.8-86.1-55.4c-6.6-3.9-12.8-8.4-17.6-14.6c-4.5-5.8-7.3-12.2-8.8-19.3
		c-2.7-13-5.7-26-8.3-39.1c-1-5.3-1-10.5-0.3-15.8c0.8-6.6,1.5-13.1,2.3-19.7c1.9,12.5,4,24.9,5.7,37.4c1.6,11.9,5.3,23.3,8.9,34.7
		c3.6,11.5,11.4,19.1,21.9,25.4c17.6,10.4,34.4,22.2,51.5,33.4c4.6,3,9.2,6,13.8,9c10.6,7.8,21.1,15.6,31.9,23.2
		c4,2.9,5.7,6,5.6,11.2c-0.4,11.7-0.2,23.3,0,35c0.1,3.6-1,6.4-3.6,8.8c-3.9,3.6-7.8,7.3-11.6,11c-1.7,1.7-3,1.9-4.9,0
		c-3.6-3.7-7.6-7-11.4-10.6C259.7,333.7,267.2,331.8,270.9,325.3z"/>
	<path id="XMLID_184_" class="st9" d="M409.8,307.1c0,6.1-0.2,12.1,0.9,18.2c2.2,4.6,7,6.3,10.7,9.3c1.7,1.3,3.6,2.4,5.8,4
		c-4.4,4-8.6,7.9-12.8,11.8c-1.6,1.5-2.4,0.1-3.3-0.7c-4.9-4-9.5-8.4-13.7-13.1c-1.5-1.6-1.9-3.4-1.9-5.5c0.1-13.3,0.2-26.7,0-40
		c0-2.8,1.4-4.2,3.2-5.7c9.6-7.8,19.7-14.7,29.8-21.8c1.5-1,2.9-2.2,4.3-3.3c15.5-10.2,31-20.5,46.5-30.7
		c7.4-4.8,14.6-9.7,22.4-13.9c11.1-6.1,16.3-16.4,19.9-28.1c6.4-20.2,8.9-41.2,11.7-62.1c0.2-1.4-0.1-3,1.1-4.2
		c0.7,6.6,1.5,13.2,2.2,19.8c0.7,4.8,0.7,9.6-0.2,14.3c-2.8,14.4-6,28.7-9.2,42.9c-2.3,10.2-8.3,18.1-16.5,24.3
		c-13.1,9.8-27.7,17.2-41.4,26.1c-18.7,12.2-37.4,24.3-55.7,37c-2.6,1.8-3.4,4.1-3.7,7.1C409.6,297.7,411.8,302.4,409.8,307.1z"/>
	<path id="XMLID_183_" class="st4" d="M305.7,390.1c2.4,0.4,2,2.3,2,3.9c-0.5,17,2.2,33.8,3.1,50.6c0.1,2.5,0.7,4.9,1,7.4
		c-4.4-0.7-8.8-1.3-13.2-2.2c-2.3-0.5-3.9-2.1-5.2-4.3c-12.2-21.3-24.5-42.5-36.9-63.7c-1.5-2.6-1.1-3.8,0.7-5.8
		c4.1-4.7,8.6-9.2,11.6-14.9c6.7,7.8,13.3,15.6,20,23.4C293.2,390,298.6,392.9,305.7,390.1z"/>
	<path id="XMLID_182_" class="st4" d="M370.7,452.1c0.7-5.7,1.5-11.5,2-17.2c1.1-14.4,2.1-28.7,3.1-43.1c0-0.6,0.6-1.1,1-1.7
		c7.1,2.8,12.5-0.1,17.1-5.4c6.7-7.8,13.3-15.6,19.9-23.4c3.5,5.1,7.2,10,11.7,14.1c2.3,2.1,2.3,4,0.8,6.5
		c-12.3,20.9-24.6,41.8-36.7,62.8c-1.8,3.1-4,5.1-7.6,5.6C378.2,450.9,374.6,452.3,370.7,452.1z"/>
	<path id="XMLID_181_" class="st0" d="M257.8,351.6c-22,2.3-42.8,4.2-63.7,0.3c-4.3-0.8-8.3-2.3-12-4.7c-11.6-8-19.6-19.1-27.6-31.4
		c13.6,2.6,26.3,5.2,39.3,5.3c4.8,0.1,9.6,0.5,14.4,1.1c9.4,1.2,18,4.3,25.8,9.9C242,338,249.6,344.1,257.8,351.6z"/>
	<path id="XMLID_180_" class="st0" d="M527.4,315.4c-2.1,3.2-3.5,5-4.7,7c-13.6,22.8-33.4,33.7-60.3,31.9
		c-12.4-0.8-24.9-1.2-37.2-2.5c-0.7-1.8,0.8-2.2,1.6-2.8c5.2-4.4,10.5-8.7,15.8-13.1c10.3-8.5,22.1-13.5,35.5-14.1
		C494.3,321,510.4,319.9,527.4,315.4z"/>
	<path id="XMLID_179_" class="st4" d="M144.7,140.1c0,12.9,4.1,25.2,6.4,37.8c0.9,5.2,2.7,10.3,3.5,15.6
		c2.3,15.5,11.7,25.8,24.5,33.4c30.7,18.3,60.6,38,90.1,58.1c2.8,1.9,4.1,3.8,3.7,7.2c-0.6,4.9-0.7,9.9-1,14.9
		c-8.7-3.4-17.3-6.7-26-10.2c-3.6-1.5-4.9-5.2-6-8.3c-4.9-13.8-15.4-21.8-27.1-29.3c-15.5-10-30.6-20.6-45.7-31.1
		c-6.6-4.6-11.8-10.8-15.9-17.6c-2.6-4.2-1.4-9.4-2.3-14.1c-2.3-12.2-4.2-24.4-8-36.2C142.1,153.6,143.4,146.8,144.7,140.1z"/>
	<path id="XMLID_155_" class="st4" d="M409.8,307.1c-0.4-5.6-0.6-11.3-1.1-16.9c-0.2-2.5,1.3-3.5,3-4.6c29.1-20,58.4-39.5,88.8-57.3
		c14.5-8.5,24.5-19.9,27.3-37.2c2.2-13.8,5.5-27.4,8.4-41c0.6-3,0.7-5.9,0.7-8.9c1.3,6.7,2.6,13.3,3.9,20c-3.7,9.2-5,19.1-6.9,28.8
		c-1.1,5.7-1.6,11.4-2.3,17.2c-0.7,5.8-5.7,9.6-9.2,13.8c-4.1,4.8-9.2,8.6-14.4,12.1c-18,12.2-36.3,23.9-53.8,36.7
		c-5.4,4-7.8,9.6-10.3,15c-4,8.4-9.9,13.6-18.7,16.3C419.8,302.6,414.8,305.1,409.8,307.1z"/>
	<path id="XMLID_154_" class="st1" d="M101.8,404.9c4.7,8.3,9.4,16.6,14.3,24.9c10.1,17.2,20,34.5,30.4,51.5c2.6,4.3,2,6.5-2,9.2
		c-4.3,2.8-8.2,6.3-12.1,9.5c-2.3,1.9-3.7,2.1-5.1-1.1c-10.5-23.6-19-47.9-25-72.9c-1.6-6.7,0.1-13.9-1.5-20.8
		C101,405.2,101.4,405,101.8,404.9z"/>
	<path id="XMLID_153_" class="st1" d="M583.7,404.7c-0.7,12.9-1.6,25.1-5.7,37.1c-6.4,19-13.1,38-21.2,56.4
		c-1.4,3.2-2.4,4.1-5.4,1.2c-4.1-3.9-8.7-7.2-13.2-10.6c-1.9-1.5-2.9-2.7-1.4-5.3c15.2-25.9,30.3-52,45.4-78
		C582.3,405.3,582.7,405.2,583.7,404.7z"/>
	<path id="XMLID_152_" class="st0" d="M340.2,130.1c-3.2-7.7-3.5-15.7-4.2-23.5c-2.5-27-3.3-54.2-4.3-81.3c-0.1-4,1.1-5,4.9-5.1
		c12.7-0.5,12.8-0.6,12.4,12.2c-0.8,28.6-1.7,57.3-5.2,85.7C342.9,125,342.5,126.4,340.2,130.1z"/>
	<path id="XMLID_151_" class="st1" d="M490.8,515.2c8.1-14.4,16.8-28.4,25.8-42.2c1.9,3.8,2.2,8,2.8,12c2.2,15.3,12.2,23.9,25,29.8
		c4.2,1.9,4.3,3.4,2.3,6.7c-1.6,2.5-2.7,5.3-4.2,8.2c-6.7-5.4-13.2-10.5-19.6-15.9c-5.6-4.8-11.3-6.8-18.5-3.1
		C500.2,512.7,495.3,513.7,490.8,515.2z"/>
	<path id="XMLID_150_" class="st1" d="M164.9,472.9c8.9,13.9,17.6,27.9,25.8,42.2c-6.1-2-12.3-3.9-18.4-6.1c-3-1.1-5.4-0.7-7.9,1
		c-7.4,4.9-14.4,10.2-20.6,16.5c-2.2,2.3-3.7,3.2-5.2-0.6c-1.2-3.1-4.2-6.2-3.8-9c0.4-3.1,5.2-3.2,8-4.7c12.9-7.1,19.5-18,20.9-32.5
		C163.9,477.5,164.5,475.2,164.9,472.9z"/>
	<path id="XMLID_149_" class="st0" d="M586.8,73.1c-4.5-12-8.9-23.9-13.4-35.9c-0.6-1.7-1.6-3.2,0-5c8.4-9.1,14.9-19.4,20.3-32.1
		c1.9,17.9,4.9,34.3-0.3,50.7c-0.9,3-1.2,6.2-1.8,9.3c-0.9,3.8-0.4,7.8-1.5,11.6C589.7,73.1,589.3,75.7,586.8,73.1z"/>
	<path id="XMLID_148_" class="st0" d="M89.9,60.9c-1.2-6.2-2.4-12.4-3.8-18.5c-3.1-13.8,0.5-27.3,1.6-41c5.3,11.1,11.8,21.3,20,30.3
		c1.5,1.7,0.8,2.9,0.2,4.5c-4.8,12.5-9.6,25.1-14.3,37.6c-2.8-0.1-2.3-2.5-2.6-4C90.3,66.9,90.4,63.9,89.9,60.9z"/>
	<path id="XMLID_147_" class="st10" d="M130.7,254.2c4.9,5.4,9.9,10.8,14.7,16.3c2.1,2.5,4.5,3.3,7.7,3.5c18.5,1,34.9,7.4,49.3,19.2
		c8.5,6.9,17.6,13.1,26.2,19.9c-7.3-2.5-14.1-6.1-20.5-10.4c-9.2-6.1-18.5-11.9-28.6-16.3c-8.1-3.5-16.4-5.7-25.2-3.8
		c-3.5,0.7-5.7-1.1-7.8-3.4c-6.6-7.4-11.8-15.7-16.9-24C129.3,254.1,129.8,253.9,130.7,254.2z"/>
	<path id="XMLID_146_" class="st11" d="M456.3,313.7c11.4-8.4,22.6-17.1,34-25.4c12.5-9.1,26.9-13.7,42.4-14.3
		c3.7-0.1,6.2-1.4,8.5-4.1c5.3-6.1,10.8-11.9,16.5-17.6c-5.8,10-11.6,20-19.7,28.4c-1.6,1.7-3.6,2.4-5.9,1.9
		c-10-2.1-19.1,0.8-28,4.9c-9.1,4.2-17.5,9.5-25.9,15C471.4,307.1,464,310.8,456.3,313.7z"/>
	<path id="XMLID_145_" class="st12" d="M586.8,73.1c1.6,1.3,1.7,0.2,2-1.1c0.9-4,1.9-7.9,2.9-11.9c0.8,17.5,0.8,34.9-7.8,50.9
		c-1.2,2.3-2.7,4.5-4.9,6.3c2.6-12,5.1-24,7.8-36C587.4,78.4,587.7,75.8,586.8,73.1z"/>
	<path id="XMLID_144_" class="st12" d="M89.9,60.9c1.9,4.1,1.4,8.9,3.7,12.9c1.9,14.1,5.9,27.8,8.5,41.8c0.1,0.6,0.6,1.1-0.3,2
		C89.7,100.3,89,80.8,89.9,60.9z"/>
	<path id="XMLID_143_" class="st13" d="M130.7,254.2c-0.3,0.3-0.7,0.7-1,1c-1.8-1.8-3.1-3.9-4.3-7.4
		C128,250.3,129.7,252,130.7,254.2z"/>
	<path id="XMLID_142_" class="st14" d="M103.9,143.3c-0.3-0.7-0.6-1.3-1-2c0.4-2,0.8-4.1,2.6-6C105.4,138.3,105.3,140.9,103.9,143.3
		z"/>
</g>
</svg>
