<?xml version="1.0" encoding="utf-8"?>
<!-- Generator: Adobe Illustrator 19.0.0, SVG Export Plug-In . SVG Version: 6.00 Build 0)  -->
<svg version="1.1" id="Layer_1" xmlns="http://www.w3.org/2000/svg" xmlns:xlink="http://www.w3.org/1999/xlink" x="0px" y="0px"
	 viewBox="-546 8.3 825.6 1064.7" style="enable-background:new -546 8.3 825.6 1064.7;" xml:space="preserve">
<style type="text/css">
	.st0{fill:#CB2D22;}
	.st1{fill:#E5B797;}
</style>
<g>
	<path id="crown" class="st0" d="M-244.4,745.8c1,11.3,6.8,21,9.8,31.6c1.4,4.9,2.2,9.3,0.2,13.9c-0.8,1.8-0.1,5-3,5.2
		c-2.2,0.2-2.9-2.4-4-3.9c-7.7-11-14.2-22.8-20.3-34.8c-11.1-22.1-21.6-44.5-31.3-67.3c-17.1-40.4-28.5-82.5-36.2-125.6
		c-4.2-23.5-6.6-47.3-8.1-71.1c-1.1-17.8-3.1-35.5-2.3-53.4c1.4-29.1,4.7-57.9,10.3-86.5c4.7-24.1,12-47.5,18.4-71.3
		c0.8-2.7,1.4-5.5,3.6-8.1c2.6,2.4,3.2,5.5,4,8.5c14.3,47.8,38,90.3,70.3,128.1c25.4,29.7,54,55.9,84.9,79.7c3.5,2.6,6.9,5.4,10,8.3
		c3.5,3.3,6.5,2.8,10.1-0.2c32.4-25.7,63.9-52.1,91-83.6c29.1-33.8,52.5-70.8,67.6-112.8c3-8.4,5.7-16.9,8.5-25.3
		c0.3-0.8,0.8-1.5,1.3-2.3c3,0.7,2.7,3.4,3.3,5.1c12.5,41,23,82.4,27.3,125.1c3.2,32,2.3,64-0.5,96.2c-2.5,28.9-5.8,57.4-11.9,85.7
		c-11.2,52.3-29.3,102.1-53.2,150C-2.8,754.2-11.3,771-21,787.2c-0.5,0.8-0.8,1.6-1.3,2.3c-2,2.7-3.6,7.9-6.7,6.8
		c-3.3-1.2-4-6.3-3.8-10.3c0.4-8,4.1-15,6-22.6c0.8-3,1.8-5.8,2.7-8.7c-2.4-2-1.3-4.3-0.5-6.5c11.5-32.2,17.5-65.3,20-99.3
		c1.8-23.6,1.4-47.3,0.8-70.9c-0.6-21.4-2.6-42.8-5.7-64.1c-0.5-3.3-0.3-6.5-0.7-9.8c-0.6-4.6-2.5-5.5-5.8-2.3
		c-8.1,7.8-16.3,15.6-23.8,24.1c-2.4,2.8-4.8,5.6-7.5,8.2c-19.5,18.8-37.5,39.2-56.8,58.4c-7.5,7.5-14.4,15.7-22.1,23
		c-5.6,5.4-7.7,5.5-13.1,0.3c-23.4-22.7-45.6-46.5-68-70.2c-6.1-6.5-12.4-12.8-18.8-18.9c-8-7.7-14.6-16.7-22.8-24.2
		c-1.4-1.3-2.7-3.4-4.9-2.5c-2.2,0.9-1.6,3.3-1.9,5.1c-2.5,19.1-4,38.4-6.2,57.6c-0.8,6.7-0.3,13.4-0.3,20.2c0,9.6-1.1,19.2-1,28.6
		c0.2,17.5,0.9,35.1,2.9,52.6c2.9,26,8,51.4,16.2,76.3C-243.3,742.2-242.7,744.1-244.4,745.8z"/>
	<path id="face_2_" class="st1" d="M-244.7,745.8c-7.4-13.3-9.6-28.3-12.8-42.9c-8.6-39.5-9.3-79.7-8.3-120c0.8-30.7,5.2-61,8-91.9
		c3.9,0.8,5.4,3.6,7.4,5.6c36.8,38.1,73.6,76.4,110.4,114.5c8.1,8.4,6.5,7.3,13.6,0c37.3-38.5,74.5-77.2,111.8-115.8
		c1.5-1.5,3.1-2.9,5.7-5.1c1.5,12.9,3,24.7,4.3,36.4c3.8,34.6,5.3,69.3,4.3,104.1c-1.2,39.3-7.3,77.8-19.8,115.1c-1,3-2.6,6-4,9
		c-8.7,10.3-17.3,20.6-28.1,28.8c-20.2,15.1-42.7,23-67.8,23.2c-11.8,0.1-23.5,0.3-35.2-0.3c-23.9-1.1-42.8-12.8-60.1-28.2
		C-226.6,768.5-234.9,756.5-244.7,745.8z"/>
</g>
</svg>
