<?xml version="1.0" encoding="utf-8"?>
<!-- Generator: Adobe Illustrator 19.0.0, SVG Export Plug-In . SVG Version: 6.00 Build 0)  -->
<svg version="1.1" id="Layer_1" xmlns="http://www.w3.org/2000/svg" xmlns:xlink="http://www.w3.org/1999/xlink" x="0px" y="0px"
	 viewBox="0 0 364 585.6" style="enable-background:new 0 0 364 585.6;" xml:space="preserve">
<style type="text/css">
	.st0{fill:#7D4A2C;}
	.st1{fill:#060707;}
	.st2{fill:#050404;}
	.st3{fill:#A5653C;}
	.st4{fill:#9E6540;}
	.st5{fill:#9D6543;}
	.st6{fill:#7C4A2B;}
</style>
<g id="XMLID_53_">
	<path id="XMLID_86_" class="st0" d="M285.8,479c-0.8,0.1-1.6,0.2-2.4,0.2c-5-2.6-6-7.5-5.8-12.1c0.6-11.5-6.2-16.7-15.2-21.4
		c-19.3-10.1-39.3-18.7-59.7-26.3c-8.7-3.3-17.7-3.3-26.5-0.8c-22,6-43.1,13.9-63,25.3c-7.4,4.3-12.6,9.3-14.3,18.1
		c-1.1,5.8-2.8,12.3-10.3,13.9c-7.1-0.5-10.6-5.7-13.9-11c-17.3-28.5-30.6-58.6-36.8-91.6c-1.5-8-4.3-15.1-8.4-22.2
		C16.5,328,12.7,302.1,8,276.7c-0.9-4.6-1.6-9.3-1.9-14c-0.6-8.4,2.9-16.4,11.7-16.8c12.8-0.6,10.8-8.9,9.6-15.8
		c-3.1-18.2-5.6-36.6-5.7-54.9c-0.1-26.4,7-51.4,21-74.2c3-4.9,7.3-8.8,12.8-10.8c7.1-1.7,11.9,2.6,16.1,7
		c39.4,42.4,81.7,81.9,120.9,124.3c6.1,6.6,11.9,13.5,18.4,19.8c9,8.7,9.9,17.3,2.5,27.7c-18,25.2-11.6,44,11.8,64.5
		c14,12.3,33.3,15.3,52.5,9.1c7.3-2.3,14.6-4.5,20.9-8.8c10.5-7.1,20.6-9.8,30.3,1.3c3.3,3.7,4.2-2.3,6.8-1.8
		c9.3,6.1,7.9,14.4,1.6,20.2c-8.6,8-11.9,18-14,28.3c-4,20-11.2,38.9-19.7,57.2C297.4,452.3,290.7,465.2,285.8,479z"/>
	<path id="XMLID_85_" class="st1" d="M89.6,474c2.1-28.2,22.2-39.2,45.3-47.4c4-1.4,8.1-2.8,11.9-4.7c29.2-14.9,57.6-12,85.8,2.9
		c7.1,3.8,14.2,8,21.8,10.4c21.7,7,33.6,19.9,29.1,44c11.2,37.3-13.4,77.7-41.3,98.8c-2.9,2.2-6.8,3.5-10.4,4.2
		c-27.7,5.1-55.5,4.2-83.1-0.7c-4-0.7-8.3-2.8-11.5-5.4c-18.5-15.1-34.1-32.8-46.2-53.3c-5.2-8.7-5.4-19-4.8-29
		C84.6,486.7,81.9,479.5,89.6,474z"/>
	<path id="XMLID_84_" class="st2" d="M334.9,334.1c-0.2,3.8-0.4,7.5-0.6,11.1c-3.6,1.5-4.5-1.1-5.7-2.8
		c-7.8-11.2-14.4-12.9-27.7-4.2c-33.9,22.2-83.1,17.7-101.8-31.4c-6.5-17,1.6-31.6,12.3-44.4c4-4.8,5.4-8,0.4-13
		C160.5,196.9,109.2,144.2,57.9,91.5c-9.4-1.7-15.5-6.3-14.6-16.9c-3.4-6.7-1.6-10.7,6-11.8c11.6-1.6,15.5,8,21.6,14.6
		c49.7,49.5,97.8,100.6,146.8,150.8c9.3,9.5,18.1,13.3,31.3,9.4c18-5.3,36.7-3.8,55.2-2.9c19.7,1,30.9,13.4,31.6,33.3
		c0.3,9.5-0.7,19.3-3.8,27.9c-4.5,12.6-4.7,23.5,3.9,34C336,331.5,335.7,332.9,334.9,334.1z"/>
	<path id="XMLID_83_" class="st3" d="M66.6,80C60.8,74.3,55,68.6,49.2,62.9c16.2-23.2,41.5-33.6,65.3-46.1
		c58.1-30.4,111.4-16,164.1,15.6c58.7,35.2,74.7,88.3,68.3,152.2c-1.8,17.5-2.9,35-4.4,52.5c2.8,9.5,3.7,18-10.3,18
		c-8.4-12.4-3.1-25.6-2.3-38.5c2-31.2,5-62.4-9.6-91.9c-8.3-16.8-18.3-32-34.2-42.6c-24.6-16.5-50.7-30.2-79.6-36.7
		c-24.9-5.6-50-2.8-73.9,6.9c-16.7,6.8-32.8,14.8-48,24.5C79.3,80.2,73.6,83.8,66.6,80z"/>
	<path id="XMLID_82_" class="st4" d="M43.2,74.6c4.9,5.6,9.8,11.3,14.6,16.9C26.3,128.4,22.3,171.4,29.7,217
		c1.9,11.5,2.6,23.2,4,35.4c-2.3,0-3.8,0.3-4.9-0.1c-14.9-5.1-19.5-1.8-17.1,13.4c5.2,33.1,11.7,65.3,27.8,95.9
		c9,17.2,10.1,39,18.6,57.6c8.8,19.3,16.7,39.1,31.6,54.8c0,6.8,0.1,13.6-3.4,19.7c-27.4-36.6-45.5-77.5-53.1-122.5
		c-1.7-10.1-7.9-16.7-11.3-25.2C9.7,316,2.3,284.7,0.1,252.3c-0.7-11.2,2-18.3,15.4-12.7c7.2,3,8-1.2,7.3-7
		c-1.7-14.1-2.6-28.3-5-42.3c-6.3-36.3,0.1-70.7,14.6-103.9C34.5,81.5,36.2,75.4,43.2,74.6z"/>
	<path id="XMLID_81_" class="st5" d="M334.9,334.1c-0.5-0.9-0.9-1.9-1.4-2.8c1.2-4.5,0-9.3,1.7-13.7c0.1-6.4,3.2-12.1,3.8-18.3
		c1.1-4.9,1.7-9.8,2.5-14.8c3.5-14.7,4.2-29.6,4.4-44.6c5-1.7,7.9-10.2,14.4-5.9c5.5,3.7,3.4,10.5,2.5,15.9
		c-3.8,21.9-8.3,43.6-12.2,65.4c-1.6,9.2,0.6,20.6-4,27.6c-24.1,36.8-23.9,83.1-48,119.7c-3.8,5.7-5.5,13.2-12.7,16.3
		c-1.1-12,1.4-22.5,7.9-33.4c14-23.6,21.7-50,28.3-76.5c1.3-5.4,3.9-9.2,8.2-12.6C337.9,350.5,340,343,334.9,334.1z"/>
	<path id="XMLID_80_" class="st0" d="M345.9,239.9c9.9,15.3,5.2,30.5-0.2,45.6c-8.2,4.6-13.7,3.7-12.8-7.2c0.7-8.1-1-16.3,1.4-24.3
		c5.4-4.4,8-10.2,8.2-17.1C343.7,238,344.8,239,345.9,239.9z"/>
	<path id="XMLID_79_" class="st6" d="M223.3,486.2c-24.3,10.2-44.7,6.7-65.8,2.3c-0.4,8.3,4.6,13.8,7.6,19.8
		c3.7,7.5,2.5,13.3-3,19.3c-5.8,6.4-11.8,6.5-19.2,3.3c-19.5-8.4-34.2-34.8-31.6-56c0.8-6.6,4.5-10.2,9.8-12.8
		c38.6-19.3,78-25.3,119.1-7.8c20.1,8.6,26.9,21.5,20.7,42.9c-4.4,15.1-13,27.2-26.7,35.4c-7,4.2-13.4,3.6-19.4-2.1
		c-5.8-5.5-7.9-11.9-4.5-19.3C213.7,504,217.6,497.1,223.3,486.2z"/>
	<path id="XMLID_78_" class="st0" d="M334.3,254.1c0.3,6.3,2.3,12.4,0.5,19c-2.2,8.4,1.3,13.4,10.8,12.4c-0.1,4.9,1.2,10.1-2.6,14.4
		c-7.1,5.6-7.5,12.3-3.2,19.7c0.3,5.2-0.7,9.6-6.3,11.6c-12.3-6.9-15.4-15.8-8.5-29c5.2-10.1,5.2-22,5.9-33.2
		c1.1-18.5-8.5-28.2-27.1-29c-22.3-0.9-44.7-1.5-66.2,5.9c-6.6,2.3-10.6,0-14.9-4.5C170.8,187.6,118.7,133.8,66.6,80
		c17.1-7.1,32-18.1,48.6-26.4c46.2-23.2,90.9-21.3,136.2,1.6c26.5,13.4,53.1,26.4,67.9,53.9c9.9,18.3,18.2,37.3,18.2,59.1
		c0.1,26.6-1.2,53.1-5.1,79.4C332,250.2,332.5,252.3,334.3,254.1z"/>
	<path id="XMLID_76_" class="st0" d="M339.8,319.7c-9.6-4.5-6.2-12.4-4.5-19.2c1.1-4.3,4.9-3.1,7.7-0.6
		C342,306.6,340.9,313.1,339.8,319.7z"/>
</g>
</svg>
