<?xml version="1.0" encoding="utf-8"?>
<!-- Generator: Adobe Illustrator 19.0.0, SVG Export Plug-In . SVG Version: 6.00 Build 0)  -->
<svg version="1.1" id="Layer_1" xmlns="http://www.w3.org/2000/svg" xmlns:xlink="http://www.w3.org/1999/xlink" x="0px" y="0px"
	 viewBox="-97 188.4 364 585.6" style="enable-background:new -97 188.4 364 585.6;" xml:space="preserve">
<style type="text/css">
	.st0{fill:#030202;}
	.st1{fill:#8B1A1A;}
	.st2{fill:#FDFDFD;}
	.st3{fill:#FEFEFE;}
</style>
<g id="XMLID_92_">
	<path id="XMLID_91_" class="st0" d="M213.8,397.6c1.9,69-57,127.3-126.6,126.8C21,523.9-41.7,468.3-37.7,390.7
		c3.1-59.3,53.9-122.9,135.7-118.1C157.2,276.2,214.6,328,213.8,397.6z"/>
	<path id="XMLID_90_" class="st1" d="M208.7,374.9c2.4,10.7,2.2,21.5,1.7,32.3c-0.4,10.6-2.9,20.7-6.4,30.7
		c-4.3,12-10.1,23.1-17.9,33.3c-12,15.8-26.9,27.9-44.6,36.5c-17.4,8.4-35.9,12.3-55.1,11.9c-14.3-0.2-28.4-2.8-41.4-8.3
		c-30.7-13-54-34.4-67.3-65.6c-6-14.2-9.2-28.8-9.6-44.2c-0.3-10.9,0.4-21.7,2.8-32.2c2.8-11.9,7.5-23.4,14-33.9
		c9.8-15.8,22.3-29,37.8-39.2c10.8-7.1,22.5-12,35-15.6c16.7-4.8,33.6-5.1,50.4-2.7c15.3,2.2,29.8,7.3,43.3,15.5
		c19.1,11.6,34,27,44.8,46.5c5.2,9.4,8.8,19.3,11.1,29.8C208.1,371.4,207.6,373.4,208.7,374.9z"/>
	<path id="XMLID_89_" d="M77.2,445.9c-1.2,5.9-4.7,10.9-7.4,16.1c-6.8,13.5-14,26.8-20.9,40.3c-1.4,2.8-3,3.3-5.8,2
		c-22.1-10.5-40-25.6-52.6-46.8c-5.7-9.6-10.6-19.6-12.9-30.4c-3.3-15.3-4.5-30.8-1.5-46.4c0.3-1.3,0.3-2.7,0.4-4.1
		c0.9-1.6,0.4-3.6,1.4-5.1c1.1-8.4,4.7-15.9,8.4-23.4c9-18.4,22.1-33.2,39-44.7c2.6-1.7,3.6-0.9,4.8,1c14,22.7,28.1,45.3,41.9,68.1
		c3.8,6.3,5,13.7,6.4,20.8c2.2,11.1,2,22.3,1.9,33.6c0,4.7-1.8,9.2-1.8,13.8C77.7,442.4,78.2,444.3,77.2,445.9z"/>
	<path id="XMLID_88_" d="M101.6,389.6c0.4-8.8,6.2-15.2,10.4-22.2c12.5-20.8,25.7-41.1,38.3-61.9c2-3.3,3.5-2.3,5.3-0.9
		c12.5,9.3,23.4,20.2,31.6,33.6c13.9,22.8,19.2,47.8,16.5,74.2c-1.9,17.8-8.1,34.3-17.9,49.2C173,481,155.8,495,134.8,504.6
		c-2.8,1.3-3.9-0.1-5-2.3c-7.1-13.8-13.6-28-21.6-41.2c-10.7-17.7-10.3-36.8-9.5-56.2c0.1-3.4,1.5-6.7,1.5-10.1
		C101,393.1,100.6,391.2,101.6,389.6z"/>
	<path id="XMLID_87_" class="st2" d="M62.4,415.9c1.9,4.1,0.6,5.8-2.6,7c-5,1.8-9.8,2.6-15.2,0.9c-10.3-3.2-20.9-5.5-31.2-8.7
		c-15.5-4.8-24-16.6-30.4-31.1c2.3-0.4,3.4,0.6,4.7,1.2C10.9,396.1,34,407.1,57,418C59.4,419.2,61.6,420.6,62.4,415.9z"/>
	<path id="XMLID_86_" class="st3" d="M114.7,417.8c1.7,4.2,3.8,3.5,7,1.7c21.1-12.1,42.4-23.9,63.6-35.9c1.4-0.8,2.8-1.6,4.4-2.4
		c0.7,1.8-0.1,3.2-0.6,4.5c-3.8,10.8-11,19.1-19.9,26.1c-1.1,0.9-2.7,1.3-4.1,1.8c-12.4,4.2-24.9,8.1-37.3,12.5
		c-4.5,1.6-8.4,0.6-12.3-1.2C112.2,423.4,114.8,420.5,114.7,417.8z"/>
</g>
</svg>
