<?xml version="1.0" encoding="utf-8"?>
<!-- Generator: Adobe Illustrator 19.0.0, SVG Export Plug-In . SVG Version: 6.00 Build 0)  -->
<svg version="1.1" id="Layer_1" xmlns="http://www.w3.org/2000/svg" xmlns:xlink="http://www.w3.org/1999/xlink" x="0px" y="0px"
	 viewBox="0 0 1080 1920" style="enable-background:new 0 0 1080 1920;" xml:space="preserve">
<style type="text/css">
	.st0{fill:#C02028;}
	.st1{fill:#FEFEFE;}
	.st2{fill:#0957A1;}
</style>
<g id="XMLID_273_">
	<circle id="XMLID_276_" class="st0" cx="540" cy="774.3" r="464.9"/>
	<circle id="XMLID_278_" class="st1" cx="540" cy="774.3" r="425.4"/>
	<circle id="XMLID_285_" class="st0" cx="540" cy="774.3" r="384.4"/>
	<circle id="XMLID_286_" class="st1" cx="540" cy="774.3" r="321.5"/>
	<circle id="XMLID_287_" class="st2" cx="540" cy="774.3" r="269"/>
	<path id="XMLID_292_" class="st1" d="M635,686.2c33.3,3.6,66.6,7.3,99.9,10.9c11.6,1.3,23.1,2.5,34.7,3.6c1.5,0.1,2.3,0.4,1.7,2
		c-0.6,3.3-3.5,4.6-5.4,6.7c-6.5,7.2-14.2,13.1-19.9,21.1c-8.3,8.8-17.7,16.5-25,26.2c-7.1,7-14,14.2-21.2,21.1
		c-1,0.1-1.6,0.7-1.7,1.7c-3,5.6-8.4,9.1-12.5,13.7c-3.5,3.9-7.7,7.2-10.9,11.4c-2.8,4.4-6.9,7.6-10.5,11.2c-2.1,2-2.7,4-2,6.8
		c1.4,5.7,2.6,11.5,3.8,17.3c2,10,3.7,20,6.4,29.8c1.5,10.9,4.4,21.6,6.6,32.4c0.5,2.7,0.4,5.5,1.1,8.1c4.2,20.5,8.4,41,12.6,61.5
		c0.3,1.3,0.5,2.7,0.9,5.1c-10.2-4.8-19.7-9.2-29.1-13.8c-37.2-17.8-74.4-35.6-111.6-53.6c-3.8-1.9-6.6-1.8-10.3,0.3
		c-43.1,24.9-86.3,49.6-129.5,74.4c-1.7,1-3.4,1.9-5.7,3.2c1-9.6,2-18.5,2.9-27.4c-1.8-4.6,0.2-9,0.7-13.5
		c2.6-22.3,5.8-44.5,8.8-66.8c2.1-15.4,4-30.9,6.3-46.3c0.2-1.6,0.2-3.2-0.2-4.7c-1.4-3.7-4.5-6-7.2-8.5
		c-5.6-5.3-11.4-10.4-17.3-15.3c-4.5-3.5-7.8-8.3-12.6-11.5c-0.5-0.3-0.9-0.6-1.3-1c-3.6-3.2-6.5-7.1-10.6-9.8
		c-0.5-0.3-0.9-0.6-1.3-1c-4-3.6-7.3-7.9-11.8-11c-0.5-0.3-0.9-0.6-1.3-1c-14.8-14.5-30.8-27.7-45.8-42c-1.2-1.1-2.6-1.8-4-2.5
		c-2.3-1.6-5-3-4.1-6.6c7.4-4.1,15.9-3.8,23.9-5.5c9.4-2,18.8-3.8,28.3-5.3c16-3.2,32.1-5.6,48.1-9c15.9-2.9,32-5.3,47.7-9
		c0.6,0,1.3-0.1,1.9-0.1c7,0.2,9.9-3.7,12.5-9.8c7.2-17.1,14.9-33.9,22.6-50.8c0.4-0.9,1-1.7,1.7-2.4c12.8-28.2,25.5-56.4,38.6-85.3
		c13.2,24.5,26.1,48.2,38.9,72c11.9,22.1,23.9,44.2,35.7,66.3c1.6,2.9,3.3,4.4,6.7,4.6C622.1,684.8,628.5,685.6,635,686.2z"/>
</g>
</svg>
