<?xml version="1.0" encoding="utf-8"?>
<!-- Generator: Adobe Illustrator 19.0.0, SVG Export Plug-In . SVG Version: 6.00 Build 0)  -->
<svg version="1.1" id="Layer_1" xmlns="http://www.w3.org/2000/svg" xmlns:xlink="http://www.w3.org/1999/xlink" x="0px" y="0px"
	 viewBox="564.6 -746.4 851.1 1333.1" style="enable-background:new 564.6 -746.4 851.1 1333.1;" xml:space="preserve">
<style type="text/css">
	.st0{fill:none;stroke:#F7ED3C;stroke-width:15;stroke-miterlimit:10;}
	.st1{fill:#D20E21;}
</style>
<g id="gun">
	<circle id="XMLID_205_" class="st0" cx="990" cy="363.5" r="215.7"/>
	<g id="XMLID_210_">
		<polygon id="XMLID_204_" class="st1" points="900.2,232.3 1097,232.3 1039.5,363.5 960.4,363.5 		"/>
		<polygon id="XMLID_203_" class="st1" points="900.2,494.7 1097,494.7 1039.5,363.5 960.4,363.5 		"/>
	</g>
</g>
<path id="hair" class="st1" d="M1108.9-193.9c-1,20.5-2.9,43.6-3.8,64.1c45.9,40.7,92.1,81.6,143,115.9s107.3,58.2,167.6,69.9
	c-28.2-29.4-41-68.1-38.7-108.8c5,4.5,13.1,4.9,18.6,1c3.6-18.6-3.2-38.1-14.2-53.5s-27-30.9-41.9-42.7
	c11.8-27.6,20.6-59.1,10.3-87.3c-12.3-33.5-48.2-53.3-62.9-85.8c-9.9-21.9-9-46.9-9.8-70.9c-0.8-24-6.7-49.4-22.9-67.2
	c8.3-5.8,10.1-18,6.5-27.5s-11.3-16.8-19.1-23.2c-7.8-6.4-14-10.4-19.8-18.7c-1.5-35.1-20.4-66.8-39.4-96.3
	c-17.7-27.5-36.8-55.4-64.5-72.9c-27.6-17.5-67.6-21.8-93.7-2.1c-30.3-35.3-79.9-51.6-126-45.1c-46.1,6.5-87.9,34.1-115.5,71.6
	c-27.6,37.5-45.4,85.2-47.4,131.7c-27.6,21-44.6,53.5-53.3,87.1c-8.6,33.6-11.4,68.3-12.4,102.9c-53.9,70.3-77.1,159.9-65.6,247.8
	c-9.9,0.6-18.5,7.8-23.4,16.5c-4.9,8.7-6.8,18.7-8.6,28.5C566.3-28,560.6,4,568.3,34.4c1.6,6.3,3.8,12.6,8.1,17.4s10.9,8.1,17.2,6.8
	c22.5,7.9,48,2.3,65.5-13.9c41.8-6.4,82.5-13.4,121.7-29.2s75.7-42,95.8-79.2c27.4-50.7,20.1-118.2-18.8-160.7
	c16.9-57.7,8.5-121.4-24.9-171.5c21.3-14.1,42.9-31.2,55.6-53.3c19.8-34.5,13.4-80.6,37.2-112.5c14.1-19,36.8-29.8,59.7-35.9
	c23.4-6.3,48.3-8.6,71.9-3.1c23.6,5.5,45.8,19.3,58.5,39.9c15.5,25.2,15.3,56.9,12.1,86.4c-10.2,96.8,26.8,194.2-20.7,279.1"/>
</svg>
