<?xml version="1.0" encoding="utf-8"?>
<!-- Generator: Adobe Illustrator 19.0.0, SVG Export Plug-In . SVG Version: 6.00 Build 0)  -->
<svg version="1.1" id="Layer_1" xmlns="http://www.w3.org/2000/svg" xmlns:xlink="http://www.w3.org/1999/xlink" x="0px" y="0px"
	 viewBox="-533 -126.1 851.1 1333.1" style="enable-background:new -533 -126.1 851.1 1333.1;" xml:space="preserve">
<style type="text/css">
	.st0{fill:none;stroke:#F7ED3C;stroke-width:15;stroke-miterlimit:10;}
	.st1{fill:#D20E21;}
</style>
<g>
	<g id="gun">
		<ellipse id="XMLID_205_" class="st0" cx="-107.4" cy="764" rx="107.7" ry="107.9"/>
		<g id="XMLID_210_">
			<polygon id="XMLID_204_" class="st1" points="-152.3,698.4 -54,698.4 -82.7,764 -122.2,764 			"/>
			<polygon id="XMLID_203_" class="st1" points="-152.3,829.6 -54,829.6 -82.7,764 -122.2,764 			"/>
		</g>
	</g>
	<path id="hair" class="st1" d="M-48.1,485.3c-0.5,10.3-1.4,21.8-1.9,32.1c22.9,20.3,46,40.8,71.4,57.9c25.4,17.2,53.6,29.1,83.7,35
		c-14.1-14.7-20.5-34-19.3-54.4c2.5,2.3,6.5,2.4,9.3,0.5c1.8-9.3-1.6-19.1-7.1-26.8c-5.5-7.7-13.5-15.5-20.9-21.4
		c5.9-13.8,10.3-29.5,5.1-43.6C66,447.9,48.1,438,40.7,421.7c-4.9-11-4.5-23.5-4.9-35.5s-3.3-24.7-11.4-33.6c4.1-2.9,5-9,3.2-13.8
		c-1.8-4.8-5.6-8.4-9.5-11.6c-3.9-3.2-7-5.2-9.9-9.4C7.5,300.4-2,284.6-11.4,269.8c-8.8-13.8-18.4-27.7-32.2-36.5
		c-13.8-8.8-33.8-10.9-46.8-1c-15.1-17.6-39.9-25.8-62.9-22.5s-43.9,17-57.7,35.8s-22.7,42.6-23.7,65.9
		c-13.8,10.5-22.3,26.8-26.6,43.5c-4.3,16.8-5.7,34.2-6.2,51.5c-26.9,35.1-38.5,80-32.8,123.9c-4.9,0.3-9.2,3.9-11.7,8.3
		c-2.4,4.3-3.4,9.3-4.3,14.3c-2.8,15.4-5.7,31.4-1.8,46.6c0.8,3.1,1.9,6.3,4,8.7c2.1,2.4,5.4,4,8.6,3.4c11.2,4,24,1.2,32.7-6.9
		c20.9-3.2,41.2-6.7,60.8-14.6s37.8-21,47.8-39.6c13.7-25.4,10-59.1-9.4-80.4c8.4-28.9,4.2-60.7-12.4-85.8
		c10.6-7,21.4-15.6,27.8-26.6c9.9-17.3,6.7-40.3,18.6-56.2c7-9.5,18.4-14.9,29.8-18c11.7-3.1,24.1-4.3,35.9-1.5s22.9,9.6,29.2,20
		c7.7,12.6,7.6,28.4,6,43.2c-5.1,48.4,13.4,97.1-10.3,139.6"/>
</g>
</svg>
