<?xml version="1.0" encoding="utf-8"?>
<!-- Generator: Adobe Illustrator 19.0.0, SVG Export Plug-In . SVG Version: 6.00 Build 0)  -->
<svg version="1.1" id="Layer_1" xmlns="http://www.w3.org/2000/svg" xmlns:xlink="http://www.w3.org/1999/xlink" x="0px" y="0px"
	 viewBox="575.8 -609.7 829.3 1168.1" style="enable-background:new 575.8 -609.7 829.3 1168.1;" xml:space="preserve">
<style type="text/css">
	.st0{fill:#B40000;}
</style>
<g id="XMLID_309_">
	<path id="XMLID_307_" class="st0" d="M938.7,556.4c-8.2-10.2-15-21-21.1-32.1c-20.8-37.7-36-77.7-48.2-118.9
		c-10.9-36.8-19.2-74.2-25.7-112.1c-5-29.3-9-58.8-12.1-88.4c-3-28.9-5.2-57.8-6.9-86.8c-4.2-70.8-5.1-141.7-5.2-212.6
		c0-4.9,0-4.9,5-3.9c1.1,0.2,2.2,0.4,3.2,0.8c3.9,1.4,7,0.2,10-2.5c10.2-9,19.4-18.9,28.2-29.2c15.1-17.8,28.8-36.6,44.8-53.6
		c-0.3-0.2-0.6-0.5-0.7-0.5c-20,8-41,12.1-61.7,17.7c-8.7,2.3-16.5,6.4-22.8,12.6c-19.6,19.3-42.6,34.1-65,49.6
		c-23.2,16.1-46.9,31.7-68,50.7c-15.2,13.6-31.7,25.6-46.1,40c-6.3,6.3-12.2,12.9-17,20.5c-5.1,7.9-8,16.5-7.1,25.9
		c3.3,37.1,2.1,74.4,5.1,111.5c7.8,97.6,29.2,191.9,66.2,282.7c0.5,1.2,1.4,2.3,0.9,4.3c-1.5-2.7-2.7-5-4.1-7.2
		c-25.9-40.3-42.5-84.7-58.9-129.3c-17.7-47.7-30.5-96.8-39.7-146.8c-5.1-27.5-8.7-55.1-11.3-82.9c-3.2-33.2-4.3-66.4-4.7-99.8
		c0-0.3,0.1-0.7,0.2-1.4c1.6,1,3,1.9,4.3,2.8c10.9,7,21.9,6.8,32.6-0.2c11.2-7.4,21.4-16.1,32.7-23.3c29.8-19,59.4-38.3,87.6-59.7
		c18.8-14.3,36.6-29.6,53.7-45.8c9.3-8.9,19-17.5,28.6-26.1c5.5-4.9,11.6-7.1,19.4-5.3c12.8,2.9,25.5,0.4,37.8-3.5
		c13.5-4.3,26-10.9,39.9-17.2c-4.7-0.7-8.4-1.3-12.1-1.8s-7.5-1-11.3-1.3c-20.8-1.9-41.7-2.1-62.5-1.5
		c-56.3,1.7-110.5,12.2-161.2,38c-5.7,2.9-11.3,6.2-16.9,9.4c-1.3,0.8-2.2,1-3.4-0.3c-8.8-10.1-19.4-18.2-29.2-27.1
		c-5.7-5.2-11.5-10.3-16.5-16.1c-0.8-0.9-1.8-1.6-0.7-3.1c9-12.3,13.3-26.7,17.1-41.2c6-22.7,9.7-46,15.2-68.8
		c4.9-20.2,11.6-39.9,17.7-59.8c13.6-44.3,30.7-87.2,52.6-128.1c11.2-21,32.5-55,43.3-67.8c-0.6,1.3-1.2,2.5-1.8,3.8
		c-15.2,30.1-30,60.4-43,91.5c-18.3,43.8-32.6,88.9-41.2,135.6c-4.2,22.8-7,45.8-8.5,68.9c-1.2,19.6-1.5,39.2-1.3,58.9
		c0,3,0.6,3.4,3.5,2.6c20.7-6,41.9-8.8,63.2-11.8c26.7-3.7,53.5-6.3,80.4-8.5c16.8-1.4,33.5-3.2,50.4-3.1
		c16.3,0.1,32.2,3.4,48.3,5.4c7.4,0.9,14.8,1.7,22.7,1.8c-1.9-3.4-3.6-6.6-5.3-9.7c-4.3-7.9-7.6-16.3-13.7-23.2
		c-6.6-7.6-15.3-11.6-25-10.5c-22.2,2.6-44.3,1.5-66.5,1.3c-16-0.2-32-0.6-47.8,2.6c-5,1-9.9,2.6-13.6,6.5c-0.8,0.9-1.4,1.1-2.3,0.1
		c-6.2-6.8-14.5-10.6-21.9-15.7c-1.3-0.9-2.6-1.9-3.9-2.8c-8.1-5.6-10.6-12.6-8.1-22.7c5.9-24.3,13.5-48,22.3-71.4
		c4.7-12.4,7.7-25.4,11.7-38c18.5-59.1,40.6-116.7,66.1-173.1c2.5-5.5,6.4-10,10.1-14.9c-2.4,8.5-4.9,17-7.3,25.5
		c-12.1,42-22.4,84.5-29.7,127.6c-5,29.7-8.3,59.6-9.8,89.7c-0.8,14.7-1.2,29.5-1.5,44.3c0,3,0.6,3.8,3.7,3.8
		c38.2-0.1,76.4-0.1,114.6-0.1c2.8,0,4.8,0.8,6.9,2.5c12.4,10.3,22.1,23.1,33,34.7c3.7,4,7.5,7.9,12.5,11.2
		c-3.4-21.3,8.1-34.2,23.9-45.5c-0.3,2.6-1.6,4.4-2.5,6.4c-4.1,9.7-7.6,19.5-7.7,30.2c0,4,0.5,7.8,2.1,11.4c1.4,3.1,2.9,3.4,5.5,1.2
		c1.5-1.2,2.1-2.9,2.8-4.6c0.8-2,1.3-4.2,2.7-6c2.2-2.8,4.5-2.9,6.7-0.4c5.6,6.4,12.9,5.5,20,4.5c3.9-0.6,7.3-2.5,10.5-4.9
		c2.8-2.2,5.4-1.9,7.3,1.1c1,1.6,1.6,3.5,2.4,5.3c0.7,1.4,1.2,3,2.1,4.2c2.5,3.2,5.2,2.8,6.6-1c3.2-8.4,1.8-16.8-0.3-25.1
		c-1.5-6-3.8-11.8-6.4-17.5c-0.6-1.4-1.6-2.7-1.7-4.5c14.3,11.7,27,24,23.9,45c2.8-1.3,4.9-3.2,6.9-5.1c9.6-9,18.2-19,27.1-28.7
		c4.5-4.9,8.7-11.1,14.6-13.6c4.9-2.1,11.5-0.6,17.3-0.6c33.7,0,67.4,0,101,0.1c2.8,0,3.6-0.6,3.6-3.5
		c-0.3-59.6-6.8-118.5-19.4-176.7c-8-36.9-18-73.3-28.5-109.5c-0.1-0.4-0.2-0.9,0.1-1.6c3,4.7,6.6,9,8.9,14
		c23.6,51.2,45.3,103.2,62.6,156.9c5.3,16.6,9.7,33.4,14.3,50.2c3.5,12.5,8.9,24.4,12.8,36.9c4.4,14.2,8.4,28.5,11.7,43
		c1.7,7.3-0.7,12.1-6.2,15.9c-5.6,3.9-11.3,7.6-17,11.4c-4.1,2.7-7.8,5.9-10.9,9.7c-0.6,0.8-1.1,2.5-2.8,1
		c-6.8-6.1-15.3-7.2-23.8-8.2c-14-1.6-28-1.4-42-1.2c-16.9,0.2-33.9,1.4-50.8-0.3c-3-0.3-6.1-0.7-9.1-0.9
		c-13.3-1.2-23.5,3.9-30.8,15c-5.8,8.9-9.6,18.8-15.6,28.2c7.8,0.3,15-0.7,22.1-1.6c14.3-1.8,28.5-4.2,42.8-5.3
		c12.9-1,25.8,0.6,38.7,1.5c17.9,1.3,35.7,3,53.6,4.7c28.1,2.8,56.2,6.2,84,11.4c8.3,1.5,16.5,3.3,24.5,5.7c1.7,0.5,2.7,0.9,2.7-1.6
		c0.5-30-0.5-60-3.9-89.9c-8.2-73-30.9-141.7-61.6-208.1c-9-19.6-18.7-38.8-28.3-58.1c-0.6-1.3-1.2-2.5-1.6-4
		c6.7,8.5,12.7,17.4,18.5,26.4c34.4,52.9,58.9,110.2,77.7,170.2c4.6,14.6,8.6,29.4,13.2,44c6.7,20.8,9.3,42.5,14.6,63.7
		c4.3,17.3,8,34.6,16.2,50.6c1.3,2.6,2.7,5.2,4.6,7.5c1.6,1.9,1.2,3.2-0.1,5c-6.2,8.9-14.1,16.1-22.4,23
		c-7.7,6.4-15.8,12.3-22.9,19.3c-1.8,1.8-3,0.8-4.4-0.1c-20.3-12.1-41.7-21.5-64.2-28.7c-25.4-8.1-51.4-13.2-77.9-16
		c-21.6-2.2-43.3-3.1-65-2.2c-18.3,0.7-36.5,2.8-54.7,4.3c0,0.4-0.1,0.7,0,0.7c15,6.9,29.6,14.9,45.9,18.7c10,2.3,20.2,3.9,30.4,1.2
		c7.4-2,13.3,0.8,19,4.8c5.6,4,10.5,8.7,15.3,13.6c19.6,20.2,40.1,39.2,62.4,56.4c21.2,16.3,43.4,31,65.9,45.5
		c19.4,12.6,38.9,25.1,58.1,38.1c13.7,9.3,23.1,8.3,36.5-1.7c0.4-0.3,0.8-1,1.6-0.6c1.2,166.6-38.4,323-117.6,469.8
		c-0.9-1.5,0.1-2.3,0.5-3.2c22.4-52.6,38.7-107.1,49.9-163.1c5.7-28.7,10-57.6,13-86.7c3.9-37.4,5.5-74.9,5.8-112.5
		c0.1-7.8,0.4-15.7,1.6-23.3c2.9-18.2-3.9-32.6-16.1-45.3c-19.1-19.9-40.5-37-61.9-54.2c-28.3-22.7-58.4-42.8-87.5-64.3
		c-13.2-9.8-26.8-19.2-38.5-30.9c-8.4-8.5-19-11.9-30.1-14.6c-15.3-3.7-30.5-7.4-45.4-12.4c-2.7-0.9-5.4-2.1-8-3.1
		c-0.7,0.7-0.2,1,0.1,1.3c13.7,14.6,25.7,30.6,38.4,46.1c11,13.4,22.6,26.2,35.6,37.8c1.5,1.3,3,1.5,4.7,1.1
		c2.9-0.6,5.7-1.2,8.6-1.8c2.1-0.4,3.2-0.1,3.2,2.7c-0.3,26.6-0.2,53.2-0.6,79.8c-0.4,25.4-1,50.7-1.9,76.1
		c-1,29.9-2.6,59.7-4.8,89.5c-1.6,21.6-3.6,43.3-5.9,64.8c-3.1,28.1-7,56.1-11.8,84c-6.2,35.9-14,71.5-24.3,106.4
		c-9.6,32.6-20.1,64.9-34.4,95.8c-9.1,19.7-20.2,38.4-33.4,55.7c-0.7,0.9-1.4,1.7-2.1,2.6c-1-1,0-1.7,0.3-2.3
		c20.9-40,34.2-82.7,43.8-126.6c7.9-35.6,12.9-71.7,16.6-108c3.4-33,5.5-66.1,6.9-99.3c3.7-88.5,2.7-177.1,2.7-265.7
		c0-3,0.6-5.1,3.1-7.2c6.1-5.2,6.8-10.3,2.7-17.2c-4.8-8-11.4-14.6-17.6-21.5c-9.6-10.7-17.5-22.5-25.9-34
		c-7.9-10.8-15.7-21.8-26-30.6c-2.7-2.4-5.6-4.6-9.3-6c-0.1,4.9,1.7,9,3.5,13.1c3.1,7.2,7.4,13.9,12.7,19.5
		c8.7,9.2,9.9,20.2,9.1,31.9c-1.2,17.1-5.5,33.6-9.6,50.2c-4.5,18.1-7.8,36.4-12.1,54.6c-9.1,38.8-19.9,77.1-34.2,114.3
		c-2.3,6-4.9,11.9-7.4,17.9c-0.5,1.1-0.4,2.9-2.1,3c-1.9,0.1-3.2-1.2-4-2.8c-1.3-2.7-1.7-5.6-2-8.5c-0.3-2.8-0.5-5.6-1-8.3
		c-0.2-1.4-0.4-3.6-1.8-3.6c-1.8,0-1.8,2.4-2,3.8c-0.7,4.1-1.1,8.2-1.7,12.3c-0.3,1.9-0.8,3.8-2.1,5.4c-2.1,2.6-4,2.2-5.3-0.8
		c-9.9-23.1-17.7-46.9-24.6-71c-14-49.4-25.5-99.5-36.5-149.7c-2.5-11.5-3.9-23.3-1.3-35.2c1.1-5.1,4.1-9.1,6.9-13.2
		c4.6-7,10-13.6,13.7-21.1c2.2-4.4,3.9-8.9,3.7-14.3c-7.6,3.1-13.2,8.3-18.4,13.9c-6.6,7.1-12.5,14.7-17.8,22.7
		c-11.7,17.7-24.6,34.6-39.1,50.1c-0.9,1-1.7,2.1-2.4,3.2c-5.1,7.8-4.7,12.6,1.9,19.1c2.1,2,2.9,4.1,2.9,7
		c-0.2,65.5-0.5,131,0.6,196.6c0.7,43.4,2.3,86.8,5.6,130.1c3.1,40.6,7.5,81.1,14.9,121.2c8.1,43.8,19.3,86.7,37.2,127.6
		c3.5,7.9,7.2,15.7,11.2,23.4C938.1,553.8,939.1,554.7,938.7,556.4z"/>
</g>
</svg>
