<?xml version="1.0" encoding="utf-8"?>
<!-- Generator: Adobe Illustrator 19.0.0, SVG Export Plug-In . SVG Version: 6.00 Build 0)  -->
<svg version="1.1" id="Layer_1" xmlns="http://www.w3.org/2000/svg" xmlns:xlink="http://www.w3.org/1999/xlink" x="0px" y="0px"
	 viewBox="-419 -420 1080 1920" style="enable-background:new -419 -420 1080 1920;" xml:space="preserve">
<style type="text/css">
	.st0{fill:#FFD426;}
	.st1{fill:#FFDC51;}
	.st2{fill:#FFE26C;}
	.st3{fill:#FFEB9C;}
</style>
<g>
	<g id="XMLID_5_">
		<image style="overflow:visible;" width="1052" height="1387" xlink:href="C0BAB30B.png"  transform="matrix(1 0 0 1 -402 -286)">
		</image>
		<g>
			<g>
				<path id="XMLID_35_" class="st0" d="M121-144.2H-48.4c-33.7,0-64.1,19.2-77.3,48.9l-131.4,294.5c-8.8,19.7-9,42-0.6,61.9
					l231.6,647.7c12.9,30.4,43.7,50.3,77.9,50.3H121"/>
				<path id="XMLID_34_" class="st0" d="M121-144.2h169.4c33.7,0,64.1,19.2,77.3,48.9l131.4,294.5c8.8,19.7,9,42,0.6,61.9
					L268.2,908.7c-12.9,30.4-43.7,50.3-77.9,50.3h-71.4"/>
			</g>
		</g>
	</g>
	<path id="XMLID_8_" class="st1" d="M130.5,612.4c-3.3,0-6.4-0.2-9.8,0c-10.9,0.5-21.4-1.8-31.7-4.6c-10.5-2.8-20.8-6.5-30.6-11.5
		c-4.2-2.1-8.8-3.7-13.1-6.4c-5.7-3.7-11.2-7.6-15.8-12.5c-2.4-2.5-4.8-4.8-7.7-6.7c-1.1-0.9-2.2-1.8-3.1-2.6
		c-5-5.3-10.1-10.6-13.8-16.9c-4.4-7.2-8.8-14.3-14-21.2c-4.2-5.5-6.3-12.2-9.2-18.4c-6.4-12.9-10.9-26.3-16.2-39.5
		c-3.1-7.4-6.1-14.8-9.2-22.1c-3.9-9.2-6.6-18.7-10.1-28.1c-2.9-7.9-5.5-15.9-8.3-23.8c-2.6-7.1-5.2-13.9-7.7-20.8
		c-5.2-14.5-9-29.5-11.8-44.7c-1.7-8.8-2.8-17.7-3.3-26.7c-0.7-10.4-1.1-21,0.6-31.4c0.7-4.4,0.6-8.8,1.3-13.4
		c2-12.9,5.2-25.6,9.2-38c3.3-10.4,8.7-20.1,12.7-30.2c1.5-3.5,3.3-7.1,5-10.6c4.6-9.7,10.5-18.9,16-28.2c0.4-0.5,0.6-1.1,1.1-1.4
		c6.6-6.9,11.6-14.8,18.6-21.5c1.1-1.1,2-2.5,3.1-3.5c3.1-3.5,6.6-6.9,10.5-9.5c5.2-3.4,10.1-7.2,15.3-10.4
		c11.1-7.1,22.5-13.1,35-17.5C51.5,87.4,59.8,86,68,84c10.5-2.3,21.2-3.2,31.9-3.9c8.1-0.7,16.2-0.9,24.3-1.1c3.1,0,6.1,0.2,9,0.7
		c1.7,0.4,3.1,0.5,4.8,0.5C160,81,181,85.3,201.5,92.7c5.7,2.1,11.1,4.4,16.2,7.8c5.9,3.7,12.2,7.2,18.2,10.8
		c4.1,2.5,8.1,5.1,11.4,8.6c4.2,4.1,8.7,8.1,12.3,12.9c1.7,1.9,3.5,3.7,5.5,5.5c6.1,5.3,10.5,11.8,14.7,18.5
		c4.8,7.8,9.6,15.7,14.4,23.7c7.4,12,13.3,24.5,17.7,37.6c1.5,4.6,3.3,9.2,4.8,13.8c4.6,13.9,7.4,28.4,9,42.7
		c1.1,9.4,2.6,18.9,1.5,28.4c-0.9,8.8-1.5,17.8-2.8,26.7c-3.5,23.7-8.8,47.1-14.9,70.3c-1.3,4.9-2.6,9.7-3.9,14.7
		c-3.3,14.1-7.7,27.7-12.2,41.5c-3.9,12.5-7.6,25.1-11.2,37.6c-3.3,10.8-7.9,21.2-12.3,31.6c-0.4,0.7-0.7,1.4-1.1,2.1
		c-5.3,7.6-9.2,15.9-14.2,23.8c-5.3,8.5-11.2,16.6-19.9,22.6c-1.1,0.9-2.2,1.8-3.1,2.8c-8.1,9-18.2,15.4-29.5,20.1
		c-7.4,3.2-14.7,6.7-22.5,9c-9,2.8-18.4,4.9-27.8,6.4c-2.2,0.4-4.4,0.4-6.6,0.4C140.3,612.4,135.3,612.2,130.5,612.4
		C130.5,612.2,130.5,612.2,130.5,612.4z"/>
	<path id="XMLID_7_" class="st2" d="M-51.7,295.2c0-23.5,3.3-44,10.3-63.7c3.5-9.7,7.2-19.4,12-28.8c5.2-10.2,10.5-20.7,17.9-29.8
		c2.4-3,5-5.6,7.2-8.6c5.7-7.8,13.1-14.3,20.3-20.7c1.7-1.4,3.5-2.6,5.3-3.9c5.2-3.4,10.5-6.5,15.8-9.7c3.3-2.1,7-4.1,10.7-5.3
		c10.5-3.9,21.2-7.8,32.6-9.5c11.2-1.6,22.5-3.5,33.9-3.2c3.9,0.2,7.7,0,11.6,0c21.7,0.2,42.7,4.1,62.6,12.5
		c15.7,6.7,29.8,15.5,42.2,27.2c9.2,8.6,16.8,18.4,24.1,28.6c2.9,4.1,5.2,8.8,7.7,13.2c0.7,1.4,1.5,2.8,2.4,4.1
		c4.6,6.2,7.7,13.2,10.3,20.3c1.5,4.1,2.9,8.1,4.6,12c5,11.8,7.9,24.2,9.9,36.5c0.9,5.8,2,11.5,1.8,17.5c0,1.9,0.4,3.9,0.7,5.8
		c0.7,5.6,0.7,11.1,0,16.8c-0.4,2.1-0.7,4.2-0.7,6.4c0.2,7.1-0.9,13.9-2.2,20.8c-1.1,6.5-2,13.1-3.5,19.6
		c-2.6,11.7-5.3,23.1-8.5,34.6c-3.5,13.8-7,27.5-11.2,41.1c-4.8,15.2-8.8,30.7-13.8,45.9c-3.3,9.9-6.8,19.9-11.4,29.5
		c-0.6,1.2-1.1,2.5-1.8,3.7c-6.3,9.4-10.9,19.6-18.2,28.2c-6.3,7.4-12.9,14.3-20.8,20.3c-14.9,10.9-31.9,17.5-50.1,21.2
		c-2.6,0.5-5.2,0.5-7.9,0.9c-0.9,0.2-1.7-0.2-2.4,0.2c-6.8,1.2-13.6,0.5-20.6,0.2c-9.2-0.7-18.1-2.6-26.7-5.3
		c-4.4-1.4-8.8-3-13.1-4.9c-16.8-7.2-30.4-18.4-42.2-32c-12.2-14.1-21.4-29.7-28.9-46.4c-2-4.4-4.1-8.8-6.3-13.4
		c-1.5-3.2-2.9-6.4-4.1-9.7c-2.6-7.9-6.1-15.7-9.4-23.5c-1.8-4.2-3.3-8.6-4.8-13.2c-2.2-6.7-4.8-13.2-7.4-19.8
		c-4.8-12.4-9.2-24.9-13.1-37.6c-0.7-2.5-1.5-4.8-2.4-7.2c-5.7-15.5-9.2-31.8-11.4-48.2C-51.2,309.5-52.3,301-51.7,295.2z"/>
	<path id="XMLID_6_" class="st3" d="M199.2,540c-0.6,0.9-0.9,1.6-1.3,2.3c-0.4,0.4-0.7,0.9-1.3,1.2l0,0c-0.4,0.4-0.7,0.7-1.1,1.1
		c-0.9,0.9-1.7,1.6-2.6,2.5c-0.4,0.4-0.7,0.7-1.1,1.1l0,0c-0.4,0.4-0.9,0.7-1.3,1.2c-2.8,1.2-5.3,2.8-8.5,3.5
		c-0.7,0.7-1.8,0.4-2.4,1.1c-0.4,0-0.9,0.2-1.3,0.2c-4.1,2.1-8.7,2.6-13.3,2.6c-23.6,0.4-47,0.2-70.6,0c-6.1-0.2-12-1.4-17.3-4.1
		l0,0c-0.4-0.4-0.7-0.7-1.3-1.1c-0.6,0-0.9-0.2-1.3-0.2c-0.4-0.4-0.7-0.7-1.1-1.1c-0.4-0.2-0.9-0.2-1.3-0.2
		c-0.4-0.4-0.9-0.7-1.3-1.1c-0.9-0.5-1.7-0.9-2.4-1.2c-0.6-0.4-0.9-0.7-1.3-1.2l0,0c-0.6-0.4-0.9-0.9-1.3-1.2l0,0
		c-0.6-0.4-0.9-0.9-1.3-1.2l0,0c-0.6-0.4-0.9-0.9-1.3-1.2l0,0c-3.7-3-6.6-6.7-8.1-10.9c-5-13.9-11.6-27.2-18.8-40.4
		C23.8,468,14.4,443.3,5.2,418.4c-11.8-31.8-24-63.7-30.6-97.1c-1.5-7.1-3.1-14.1-5.5-20.8c-3.3-9.4-3.5-18.5,0.9-27.7
		c6.8-14.3,9.2-30.2,15.7-44.7c5.7-13.1,11.6-26.1,19.7-38c5.2-7.8,9-16.1,12.7-24.5c3.1-7.6,8.1-13.9,15.5-18.4
		c0.7-0.5,1.3-1.1,2-1.4c0.6-0.4,0.9-0.5,1.5-0.7c0.6-0.4,0.9-0.5,1.5-0.7c0.6-0.2,0.9-0.5,1.5-0.7c0.7-0.5,1.3-1.1,2-1.2
		c0.9-0.4,1.7-0.5,2.4-1.1c0.6-0.2,1.3-0.4,1.8-0.5c0.6-0.2,1.3-0.4,2-0.4c16-2.1,32.2-2.3,48.5-4.1c30.2-3.4,59.9,2.3,89.7,3.5
		c0.9,0,2,0,2.9,0.2c0.9,0.2,1.7,0.5,2.4,0.9c0.7,0.2,1.5,0.4,2.2,0.7c0.7,0.4,1.3,0.7,1.8,1.1c0.6,0.2,0.9,0.4,1.3,0.5
		c0.6,0.4,1.1,0.7,1.8,1.1c0.9,0.5,1.5,1.1,2.2,1.6c0.6,0.5,1.3,0.7,1.8,1.1c1.3,1.2,2.8,2.1,4.1,3.4c0.4,0.4,0.7,0.9,1.1,1.2
		c0.4,0.5,0.7,0.9,1.1,1.4c8.3,15.2,16.8,30.2,26.5,44.5c9.9,15,17,31.4,23.4,48c2.8,7.2,5.3,14.7,9,21.5c3.9,7.6,5.3,15.4,3.3,23.8
		c-5.3,19.9-6.1,40.8-10.9,60.9c-12.3,51.4-25.1,102.6-46.4,151.3c-4.4,10.1-7.2,20.8-10.7,31.2c-0.6,1.9-1.8,3.2-3.3,4.4l0,0
		C200,539.1,199.6,539.7,199.2,540z"/>
</g>
</svg>
