<?xml version="1.0" encoding="utf-8"?>
<!-- Generator: Adobe Illustrator 19.0.0, SVG Export Plug-In . SVG Version: 6.00 Build 0)  -->
<svg version="1.1" id="Layer_1" xmlns="http://www.w3.org/2000/svg" xmlns:xlink="http://www.w3.org/1999/xlink" x="0px" y="0px"
	 viewBox="287.5 -274.7 1025 1310.4" style="enable-background:new 287.5 -274.7 1025 1310.4;" xml:space="preserve">
<style type="text/css">
	.st0{fill:#FFD426;}
	.st1{fill:#FFDC51;}
	.st2{fill:#FFE26C;}
	.st3{fill:#FFEB9C;}
</style>
<g id="XMLID_34_">
	<g id="XMLID_30_">
		
			<image style="overflow:visible;enable-background:new    ;" width="650" height="831" id="XMLID_43_" xlink:href="../../../Android/desktop/E4E95862.png"  transform="matrix(1.5769 0 0 1.5769 287.5 -274.7388)">
		</image>
		<g id="XMLID_39_">
			<g id="XMLID_40_">
				<path id="XMLID_32_" class="st0" d="M795.3-51.6H668.2c-25.2,0-48.1,15.1-58,38.3l-98.7,230.7c-6.6,15.5-6.8,33-0.5,48.4
					l173.8,507.3c9.6,23.8,32.8,39.4,58.5,39.4h52"/>
				<path id="XMLID_31_" class="st0" d="M795.3-51.6h127.1c25.2,0,48.1,15.1,58,38.3l98.7,230.7c6.6,15.5,6.8,33,0.5,48.4
					L905.8,773.1c-9.6,23.8-32.8,39.4-58.5,39.4h-53.6"/>
			</g>
		</g>
	</g>
	<path id="XMLID_29_" class="st1" d="M802.4,541c-2.5,0-4.9-0.2-7.3,0c-8.2,0.5-16.1-1.4-23.8-3.6c-7.9-2.2-15.6-5-23-9
		c-3.2-1.7-6.6-2.8-9.8-5c-4.3-2.8-8.4-6-11.8-9.8c-1.7-1.9-3.6-3.8-5.8-5.2c-0.8-0.6-1.7-1.4-2.4-2c-3.8-4.1-7.6-8.4-10.4-13.2
		c-3.3-5.7-6.6-11.2-10.6-16.6c-3.2-4.3-4.7-9.5-6.9-14.3c-4.9-10.1-8.2-20.7-12.1-30.9c-2.4-5.8-4.6-11.7-6.9-17.3
		c-2.8-7.3-5-14.7-7.6-21.9c-2.2-6.2-4.1-12.5-6.2-18.6c-1.9-5.5-3.9-10.9-5.8-16.2c-3.9-11.4-6.8-23-8.8-35
		c-1.3-6.9-2-13.9-2.5-20.8c-0.6-8.2-0.8-16.4,0.5-24.6c0.6-3.5,0.5-6.9,0.9-10.6c1.6-10.1,3.9-20,6.9-29.8
		c2.5-8.2,6.5-15.8,9.5-23.7c1.1-2.8,2.5-5.5,3.8-8.4c3.5-7.6,7.9-14.8,12-22.1c0.3-0.5,0.5-0.8,0.8-1.1c5-5.4,8.7-11.7,14-16.9
		c0.8-0.8,1.6-1.9,2.4-2.8c2.4-2.8,5-5.4,7.9-7.4c3.9-2.7,7.6-5.7,11.5-8.2c8.4-5.5,16.9-10.3,26.3-13.7c6.2-2.2,12.3-3.3,18.5-4.9
		c7.9-1.7,15.9-2.5,24-3c6.2-0.6,12.1-0.6,18.3-0.8c2.4,0,4.6,0.2,6.8,0.6c1.3,0.3,2.4,0.5,3.6,0.5c16.4,0.6,32.2,3.9,47.6,9.6
		c4.3,1.7,8.4,3.5,12.1,6.1c4.4,2.8,9.1,5.7,13.7,8.4c3,1.9,6.2,3.9,8.5,6.8c3.2,3.2,6.5,6.3,9.3,10.1c1.3,1.6,2.7,2.8,4.1,4.3
		c4.6,4.1,7.9,9.3,11,14.5c3.6,6.1,7.3,12.3,10.7,18.5c5.5,9.5,9.9,19.2,13.2,29.5c1.1,3.6,2.5,7.3,3.6,10.7
		c3.5,10.9,5.5,22.2,6.8,33.4c0.8,7.3,1.9,14.8,1.1,22.2c-0.6,6.9-1.1,14-2,20.8c-2.7,18.5-6.6,36.9-11.2,55
		c-0.9,3.9-1.9,7.6-2.8,11.5c-2.5,11-5.8,21.8-9.1,32.5c-2.8,9.8-5.7,19.7-8.4,29.5c-2.5,8.4-6,16.6-9.3,24.8
		c-0.3,0.6-0.6,1.1-0.8,1.7c-3.9,6-6.9,12.5-10.7,18.6c-3.9,6.6-8.4,12.9-15,17.7c-0.8,0.6-1.7,1.4-2.4,2.2
		c-6.2,7.1-13.7,12-22.1,15.8c-5.5,2.5-11,5.2-16.9,7.1c-6.8,2.2-13.9,3.9-20.8,5c-1.7,0.3-3.3,0.3-5,0.3
		C809.8,541,806,540.8,802.4,541C802.4,540.8,802.4,540.8,802.4,541z"/>
	<path id="XMLID_28_" class="st2" d="M665.6,292.5c0-18.5,2.5-34.4,7.7-50c2.7-7.6,5.4-15.1,9-22.5c3.9-8,7.9-16.2,13.4-23.3
		c1.7-2.4,3.8-4.4,5.4-6.8c4.3-6.1,9.8-11.2,15.1-16.2c1.3-1.1,2.7-2,3.9-3c3.9-2.7,7.9-5,11.8-7.6c2.5-1.7,5.2-3.2,8-4.1
		c7.9-3,15.9-6.1,24.4-7.4c8.4-1.3,16.9-2.8,25.4-2.5c2.8,0.2,5.8,0,8.7,0c16.2,0.2,32,3.2,47,9.8c11.8,5.2,22.4,12.1,31.7,21.3
		c6.9,6.8,12.6,14.4,18.1,22.4c2.2,3.2,3.9,6.9,5.8,10.4c0.6,1.1,1.1,2.2,1.7,3.2c3.5,4.9,5.8,10.4,7.7,15.9
		c1.1,3.2,2.2,6.3,3.5,9.5c3.8,9.3,6,18.9,7.4,28.5c0.6,4.6,1.6,9,1.4,13.7c0,1.6,0.3,3,0.6,4.6c0.6,4.4,0.6,8.7,0,13.1
		c-0.3,1.7-0.6,3.3-0.6,5c0.2,5.5-0.6,10.9-1.7,16.2c-0.8,5-1.6,10.3-2.7,15.3c-1.9,9.1-3.9,18.1-6.3,27.1
		c-2.7,10.7-5.2,21.6-8.4,32.2c-3.6,11.8-6.6,24.1-10.4,36c-2.5,7.7-5,15.6-8.5,23c-0.5,0.9-0.8,1.9-1.4,2.8
		c-4.7,7.3-8.2,15.3-13.7,22.1c-4.7,5.8-9.6,11.2-15.6,15.9c-11.2,8.5-24,13.7-37.5,16.6c-1.9,0.5-3.9,0.5-6,0.6
		c-0.6,0.2-1.3-0.2-1.7,0.2c-5,0.9-10.3,0.5-15.5,0.2c-6.9-0.6-13.6-2-20-4.1c-3.3-1.1-6.6-2.4-9.8-3.9
		c-12.6-5.7-22.9-14.3-31.7-25.1c-9.1-11-16.1-23.2-21.8-36.4c-1.6-3.5-3-6.9-4.7-10.6c-1.1-2.5-2.2-5-3-7.6
		c-1.9-6.2-4.6-12.3-7.1-18.5c-1.4-3.3-2.5-6.8-3.6-10.4c-1.7-5.2-3.6-10.4-5.5-15.5c-3.6-9.6-6.9-19.6-9.8-29.5
		c-0.6-1.9-1.1-3.8-1.7-5.7c-4.3-12.1-6.9-24.9-8.5-37.7C666.1,303.7,665.2,297.1,665.6,292.5z"/>
	<path id="XMLID_27_" class="st3" d="M853.9,484.4c-0.5,0.6-0.6,1.3-0.9,1.7c-0.3,0.3-0.6,0.6-0.9,0.9l0,0c-0.3,0.3-0.6,0.6-0.8,0.8
		c-0.6,0.6-1.3,1.3-1.9,1.9c-0.3,0.3-0.6,0.6-0.8,0.8l0,0c-0.3,0.3-0.6,0.6-0.9,0.9c-2,0.9-3.9,2.2-6.3,2.8
		c-0.6,0.6-1.4,0.3-1.7,0.8c-0.3,0-0.6,0.2-0.9,0.2c-3,1.7-6.5,2-9.9,2c-17.7,0.3-35.3,0.2-53,0c-4.6-0.2-9-1.1-12.9-3.2l0,0
		c-0.3-0.3-0.6-0.6-0.9-0.8c-0.5,0-0.6-0.2-0.9-0.2c-0.3-0.3-0.6-0.6-0.8-0.8c-0.3-0.2-0.6-0.2-0.9-0.2c-0.3-0.3-0.6-0.6-0.9-0.8
		c-0.6-0.5-1.3-0.6-1.7-0.9c-0.5-0.3-0.6-0.6-0.9-0.9l0,0c-0.5-0.3-0.6-0.6-0.9-0.9l0,0c-0.5-0.3-0.6-0.6-0.9-0.9l0,0
		c-0.5-0.3-0.6-0.6-0.9-0.9l0,0c-2.8-2.4-5-5.2-6.2-8.5c-3.8-10.9-8.7-21.3-14-31.7c-9.5-18.5-16.6-37.8-23.5-57.4
		c-8.8-24.9-18-50-23-76c-1.1-5.5-2.4-11-4.1-16.2c-2.5-7.3-2.7-14.5,0.6-21.8c5-11.2,6.9-23.7,11.8-35c4.3-10.3,8.7-20.5,14.8-29.8
		c3.9-6.1,6.8-12.6,9.5-19.2c2.4-6,6.2-10.9,11.7-14.4c0.6-0.5,0.9-0.8,1.6-1.1c0.5-0.3,0.6-0.5,1.1-0.6c0.5-0.3,0.6-0.5,1.1-0.6
		c0.5-0.2,0.6-0.5,1.1-0.6c0.6-0.5,0.9-0.8,1.6-0.9c0.6-0.3,1.3-0.5,1.7-0.8c0.5-0.2,0.9-0.3,1.4-0.5c0.5-0.2,0.9-0.3,1.6-0.3
		c12-1.7,24.1-1.7,36.4-3.2c22.7-2.7,44.9,1.7,67.3,2.8c0.6,0,1.6,0,2.2,0.2s1.3,0.5,1.7,0.6c0.6,0.2,1.1,0.3,1.7,0.6
		c0.6,0.3,0.9,0.6,1.4,0.8c0.5,0.2,0.6,0.3,0.9,0.5c0.5,0.3,0.8,0.6,1.4,0.8c0.6,0.5,1.1,0.8,1.7,1.3c0.5,0.5,0.9,0.6,1.4,0.8
		c0.9,0.9,2,1.7,3,2.7c0.3,0.3,0.6,0.6,0.8,0.9c0.3,0.5,0.6,0.6,0.8,1.1c6.2,11.8,12.6,23.7,19.9,34.9c7.4,11.8,12.8,24.6,17.5,37.5
		c2,5.7,3.9,11.5,6.8,16.9c2.8,6,3.9,12,2.5,18.6c-3.9,15.6-4.6,32-8.2,47.6c-9.3,40.2-18.8,80.3-34.8,118.4
		c-3.3,7.9-5.4,16.2-8,24.4c-0.5,1.6-1.4,2.5-2.5,3.5l0,0C854.6,483.6,854.2,484.1,853.9,484.4z"/>
</g>
</svg>
