<?xml version="1.0" encoding="utf-8"?>
<!-- Generator: Adobe Illustrator 19.0.0, SVG Export Plug-In . SVG Version: 6.00 Build 0)  -->
<svg version="1.1" id="Layer_1" xmlns="http://www.w3.org/2000/svg" xmlns:xlink="http://www.w3.org/1999/xlink" x="0px" y="0px"
	 viewBox="0 0 827.1 718.4"	 style="enable-background:new 0 0 827.1 718.4;" xml:space="preserve">
<style type="text/css">
	.st0{fill:#333;}
</style>
<g id="XMLID_572_">
	<path id="XMLID_569_" class="st0" d="M506.5,141.2c61.8-45.5,122.8-90,183.3-135.1c8.7-6.5,13-5.9,19.8,2.3
		c15.2,18.5,30.4,36.9,45,55.9c6.1,8,5.3,12.7-1.4,19.9C647.6,198.8,542.5,313.7,437.3,428.5c-22.2,24.3-22.2,24.1-44.2,0.2
		C287.6,314.8,182.2,200.8,76.3,87.2c-9.3-10-10.7-16.8-2.3-28C88.1,40.5,103.3,22.7,118.6,5c6.2-7.2,10.3-5.9,17-0.7
		c57.7,43.5,115.8,86.4,173.4,129.9c9.2,7,12.5,5.9,17.5-4.4c17.1-35.4,35.6-70.2,52.9-105.5c4.1-8.4,8.9-11.1,18.1-10.9
		c27.2,0.7,54.5,0.1,81.7,0.3c13.8,0.1,23.5,8.3,25.9,21.1c1.3,6.8,0.8,11.1-8.5,11.5c-39.5,1.7-39.4,2-21.1,36.3
		C485.8,102,496,121.4,506.5,141.2z"/>
	<path id="XMLID_568_" class="st0" d="M410.8,718.4c-79.9-1.6-159.4-26.2-232.5-71.9c-7.4-4.6-9.6-7.6-3.1-15.7
		c57.7-72.2,115.1-144.6,172.2-217.2c5.4-6.8,7.9-6.6,13.4-0.3c15.4,17.6,32,34.3,47.2,52.1c5.7,6.7,8.7,5.7,13.8-0.1
		c15.3-17.2,31.2-33.7,46.4-51c5.8-6.6,8.8-6.6,14.4,0.6c56,72.3,112.3,144.4,168.9,216.3c5.7,7.2,4.2,10-2.9,14.7
		C578.5,692.6,501.9,718.1,410.8,718.4z"/>
	<path id="XMLID_567_" class="st0" d="M782.9,482.2c-1,2.3-2.2,5.3-3.7,8.2c-17.2,33.1-39.7,62.4-63.6,90.8c-6.8,8-9.8,2.8-13.9-1.7
		C648,521.7,594.4,463.8,540.9,405.9c-21.3-23.1-21.3-23.2-0.3-46.8c17.2-19.3,34.8-38.2,51.6-57.8c5.1-6,7.8-5.5,12.9-0.3
		c57.3,57.6,114.9,115,172.3,172.5C779.7,475.8,782.8,477.6,782.9,482.2z"/>
	<path id="XMLID_566_" class="st0" d="M116.3,588.1c-1.4-1.5-2.9-3.1-4.4-4.8c-24.8-28.2-47.2-58.2-64.7-91.5
		c-3.6-6.7-3.5-11,2.4-16.8c57.3-56.8,114.4-113.8,171.2-171.1c6.3-6.4,9.3-6,14.9,0.5c21.2,24.4,42.7,48.5,64.7,72.3
		c5.8,6.2,5.6,9.7-0.1,15.8c-58.8,63-117.4,126.3-176,189.5C122,584.1,120.8,587.6,116.3,588.1z"/>
	<path id="XMLID_565_" class="st0" d="M789.1,465.4c-45.6-47.5-90.4-94.3-135.4-140.8c-12.1-12.5-24.6-24.5-37.3-36.3
		c-5.1-4.7-4.7-7.7-0.3-12.4c18.6-19.8,37.2-39.7,55.4-59.9c4.4-4.9,6.9-3.5,10.9,0.2c45.7,41.8,91.5,83.4,137.3,125
		c2.9,2.6,4.5,5.1,4.5,9.5C824.3,374.6,805.3,441.2,789.1,465.4z"/>
	<path id="XMLID_564_" class="st0" d="M33.5,463.4C17.1,427.5,7.4,391.7,3,354.2c-0.7-6.1,2.1-9.5,6.1-13.1
		c44.7-40.6,89.4-81.3,133.9-122.2c6-5.6,9.2-4.9,14.4,0.9c17.2,19.2,34.9,37.9,52.4,56.8c4.1,4.4,6.9,7.3,0.7,13.3
		C153.7,345.2,97.4,400.9,41,456.5C39,458.4,36.9,460.3,33.5,463.4z"/>
	<path id="XMLID_563_" class="st0" d="M775.5,100.7c37.1,70.2,54.4,142.9,51.2,223.6c-10.9-9.8-19.8-17.7-28.6-25.8
		c-34.7-31.6-69.3-63.3-103.9-94.9c-4.1-3.8-9.1-6.2-2.6-13C719.4,161.4,746.6,131.7,775.5,100.7z"/>
	<path id="XMLID_562_" class="st0" d="M0.7,326C-3.2,257,9.9,194.1,36,133.5c3.3-7.7,7.8-14.9,10.9-22.7c3.4-8.4,6.6-6.5,11.5-1.2
		c25,27.2,50.3,54.2,75.4,81.4c3.8,4.1,7.6,6.8,0.7,12.9C90.4,243.6,46.7,283.8,0.7,326z"/>
</g>
</svg>
