<?xml version="1.0" encoding="utf-8"?>
<!-- Generator: Adobe Illustrator 19.0.0, SVG Export Plug-In . SVG Version: 6.00 Build 0)  -->
<svg version="1.1" id="Layer_1" xmlns="http://www.w3.org/2000/svg" xmlns:xlink="http://www.w3.org/1999/xlink" x="0px" y="0px"
	 viewBox="-23.9 -186.6 851.1 1333.1" style="enable-background:new -23.9 -186.6 851.1 1333.1;" xml:space="preserve">
<style type="text/css">
	.st0{fill:#F5F5FE;}
	.st1{fill:#3A3A44;}
	.st2{fill:#393943;}
	.st3{fill:#3D3D47;}
	.st4{fill:#1E1E28;}
	.st5{fill:#3E3E47;}
	.st6{fill:#40404A;}
	.st7{fill:#42424C;}
	.st8{fill:#3E3E48;}
	.st9{fill:#F6F6FE;}
	.st10{fill:#F6F6FC;}
	.st11{fill:#F6F6FD;}
	.st12{fill:#3A3A43;}
	.st13{fill:#8F8F98;}
	.st14{fill:#8E8E98;}
</style>
<g id="XMLID_247_">
	<path id="XMLID_124_" class="st0" d="M387.3,661.8c3.9-5.7,6-12.4,8.1-19c1.7-5.4,3.3-10.9,5.1-17.1c1.4,4.5,2.4,8.3,3.6,11.9
		c2.6,8.3,4.7,16.8,9.5,24.1c1.1,0.8,1.8,1.7,2.4,2.7c2.6,4.4,5.3,8.8,8,13c0.9,1.4,1.5,2.7,1.1,4.4c-2.1,7.5-4.4,15.1-6.8,22.6
		c-0.3,0.8-0.3,1.7-1.4,2c-4.7,14.2-7.2,28.7-9.7,43.3c-2.3,13.4-4.4,27-7.1,40.7c-0.6-2.9-1.1-5.9-1.7-8.9
		c-3-17.7-5.9-35.5-9.1-53.1c-1.4-7.7-3.9-15.1-6.2-22.5c-1.7-2.1-2.3-4.8-2.9-7.4c-1.4-5-2.9-10-4.2-14.9c-0.5-1.8-0.8-3.6,0.3-5.4
		c3-5.1,6.2-10.3,9.2-15.4C386.3,662.2,386.9,661.9,387.3,661.8z"/>
	<path id="XMLID_123_" class="st0" d="M320.6,626.8c3.6-1.5,6.5-4.1,9.2-6.6c3.9-3.5,7.7-7.1,11.9-11c-1.5,7.4-3.8,14.2-4.5,21.1
		c-0.8,6.2,0.8,12.2,0.5,18.3c-0.3,5.6-2.6,9.4-7.8,11.2c-14.2,12.4-26.1,26.7-38,41.2c-3.6,4.4-7.2,8.8-11.3,13
		c2.9-7.2,5.4-14.6,8.3-21.9c7.1-17.4,12.2-35.2,16.3-53.6c0.2-0.8,0.2-1.7,0.3-2.4c0.2-2.9,2.9-3,4.7-4.2c0.9-0.5,1.8-0.9,2.6-1.5
		C315.5,629.3,317.8,627.4,320.6,626.8z"/>
	<path id="XMLID_122_" class="st1" d="M466.6,636.1c0,4.2,0.3,8.5,0,12.7c-0.3,3.3,0.6,5.4,3.2,7.4c0.8,0.6,1.7,1.2,2,2.3
		c-3.3,5-8.3,8.3-12.7,12.2c-7.7,7.2-15.7,14-23.8,21c-6,5.1-11.5,10.7-18.1,14.9c2.3-7.8,4.5-15.7,6.9-23.5c0.6-2,0.5-3.5-0.6-5.1
		c-3.5-5.3-6.8-10.6-9.7-16.1c6.3-1.5,12.4-4.2,18.3-6.9C444.1,649.6,455.5,643.4,466.6,636.1z"/>
	<path id="XMLID_121_" class="st1" d="M330,660c6.3-4.2,7.8-10.1,6.9-17.4c-0.5-3.9-0.8-8.3,0.3-12.4c0,0.2,0.2,0.5,0.2,0.6
		c-1.7,5.9,2.3,8.3,6.6,10.7c13.9,8,28.1,14.9,43.3,20.1c-2.9,5.6-6.2,10.9-9.5,16c-1.1,1.8-1.4,3.3-0.8,5.3
		c2.3,7.7,4.4,15.4,6.5,23.1c-15.8-13.3-31.2-26.9-46.6-40.6C334.8,663.6,333,661,330,660z"/>
	<path id="XMLID_120_" class="st0" d="M267.1,579.4c6.6-1.1,12.4-4.7,18.4-7.4c1.1-0.5,2-0.9,3.3-1.5c-3.8,7.2-8.9,13.4-10.6,21.3
		c0.5,2.4-0.8,4.5-1.4,6.8c-0.3,0.8-0.5,1.8-0.8,2.6c-0.5,1.2-0.8,2.7-2.4,3c-9.1,4.2-18.1,8.3-26.6,13.6
		c-10.4,6.5-20.5,13.3-30.9,19.8c13.4-17.4,27.3-34.4,37.4-54c0.5-1.7,1.5-2.6,3.2-2.9C260.3,580.1,263.6,579.1,267.1,579.4z"/>
	<path id="XMLID_119_" class="st0" d="M236.1,558.6c-16,2.3-31.5,7.1-47.1,11.6c1.8-1.4,3.5-2.6,5.3-3.9
		c10.9-7.5,21.4-15.7,30.8-25.2c0.8-0.8,1.4-1.5,2.6-1.4c8.1,1.1,16.1,0.8,24.1-1.2c-3.8,4.5-8.8,7.8-11.3,13.1
		C239.9,554.5,238.9,557.1,236.1,558.6z"/>
	<path id="XMLID_118_" class="st0" d="M562.2,550.6c-2.6-4.7-7.1-7.7-10.9-11.8c1.8-0.5,3,0.2,4.4,0.5c6.3,1.4,12.7,1.4,18.9,0.6
		c1.2-0.2,2.4-0.2,3.3,0.9c10.7,11,23.1,19.9,35.6,28.8c0.3,0.2,0.5,0.3,0.6,1.1c-2.9-0.9-5.7-1.7-8.6-2.6
		c-11.5-3.8-23.1-6.9-35-8.8c-1.5-0.3-3.2-0.2-4.1-1.7C564,555.9,563.1,553.3,562.2,550.6z"/>
	<path id="XMLID_117_" class="st1" d="M276.1,598.6c0.6-2.3,1.1-4.7,2.1-6.8c8.9,7.4,17.2,15.4,26.4,22.3c4.5,3.5,9.1,6.9,13.6,10.4
		c0.9,0.8,2,1.1,2.4,2.3c-2.3,1.8-4.8,3.2-7.5,4.4c-2,0-3.2-1.5-4.5-2.6c-10.4-8.3-20.2-17.2-30-26.1
		C277.5,601.4,276.3,600.4,276.1,598.6z"/>
	<path id="XMLID_116_" class="st2" d="M562.2,550.6c1.7,2.1,3.2,4.4,4.4,6.9c-2.7,2.9-4.1,6.6-6.5,9.8c-3.2,3.9-6.2,8-9.2,12.1
		c-0.8,0.9-1.8,1.8-1.8,3.2c-3.9-1.7-8.5-1.5-12.5-3.2c3.5-3.6,6.9-7.4,10.3-11.2c4.8-5.3,9.7-10.6,14.5-15.7
		C561.8,551.9,562.1,551.3,562.2,550.6z"/>
	<path id="XMLID_115_" class="st2" d="M236.1,558.6c1.5-2.3,2.9-4.7,4.4-6.9c0.8,2.7,3.2,4.4,5,6.2c6.2,6.9,12.7,13.6,19,20.4
		c0.8,0.8,1.7,0.8,2.6,1.1c-3.3,0.8-6.8,1.7-10.1,2.3c-1.5,0.3-2.4,0.8-3.2,2c-1.5-3.9-4.7-6.5-7.1-9.8
		C242.9,569,239.6,563.8,236.1,558.6z"/>
	<path id="XMLID_114_" class="st1" d="M527.4,598.6c1.1,1.8,0.6,4.4,2.6,5.6c-1.5,0-2.1,1.1-3,2c-9.1,9.1-18,18-26.9,26.9
		c-0.9,0.9-2.1,1.8-2.1,3.3c-1.5-3.2-5.1-3-7.4-5.1c5.4-4.8,11.2-9.2,16.6-14.2c5.7-5.3,11.8-10.6,17.2-16.1
		C525.1,600.1,525.9,598.9,527.4,598.6z"/>
	<path id="XMLID_113_" class="st3" d="M400,721.7c-0.2-2.1-0.5-4.1-0.5-6.2c-0.3-16.9-0.6-34-0.9-50.9c0-0.8,0-1.5,0.2-2.1
		c0.3-0.8,1.1-0.6,1.7-0.5c1.5,0.2,1.1,1.4,1.1,2.1c-0.2,8.5-0.3,17.1-0.5,25.5c0,10.6,0,21.1,0,31.8
		C400.6,721.5,400.3,721.5,400,721.7z"/>
	<path id="XMLID_112_" class="st4" d="M527.4,598.6c-5.4,6.6-12.1,12.1-18.4,18c-4.8,4.5-10.1,8.5-15.1,12.8
		c-1.1,0.9-2.1,1.8-3.5,1.8c-0.8-0.3-1.4-0.8-2-1.1c13-10.1,25-21.3,37-32.6c0.5-0.5,0.8-0.9,1.2-1.4
		C527.2,596.9,527.4,597.7,527.4,598.6z"/>
	<path id="XMLID_107_" class="st4" d="M310.7,632.5c-5-3-9.2-7.1-13.6-10.9c-6.9-5.9-13.6-11.9-19.8-18.4c-0.6-0.8-1.2-1.5-1.8-2.1
		c0.2-0.8-0.2-1.8,0.6-2.4c7.2,7.2,14.9,14.2,22.9,20.8c4.7,3.9,9.4,7.8,14,11.6C312.5,631.9,311.6,632.2,310.7,632.5z"/>
	<path id="XMLID_106_" class="st3" d="M307.4,668.4c5-9.4,10-18.6,14.9-27.9c2-3.8,4.1-7.5,6-11.2c0.3-0.8,0.6-1.7,1.8-0.9
		c0.9,0.6,0.6,1.2,0.2,1.8c-7.5,12.8-15.1,25.7-22.6,38.6C307.4,668.9,307.2,668.7,307.4,668.4z"/>
	<path id="XMLID_104_" class="st5" d="M245.2,612.3c4.7-5.1,9.4-10.6,14.3-15.5c3.9-4.1,8.1-8,12.4-11.9c0.6-0.5,1.1-1.5,2-0.5
		c1.1,1.1,0,1.5-0.6,2c-9.5,8.6-18.9,17.2-28.4,25.7C245,612,245,612.1,245.2,612.3z"/>
	<path id="XMLID_103_" class="st6" d="M217.9,555.1c6-3.2,12.1-6.3,18.3-9.5c0.6-0.3,1.2-1.1,1.8,0c0.6,0.9,0.3,1.4-0.6,1.7
		c-6.5,2.9-12.8,5.6-19.2,8.5C217.9,555.6,217.9,555.4,217.9,555.1z"/>
	<path id="XMLID_102_" class="st7" d="M585.5,556.5c-5.6-2.6-11.3-5-16.9-7.4c-1.1-0.5-2.3-1.1-3.5-1.5c-0.8-0.3-1.4-0.6-0.8-1.7
		c0.5-0.9,1.1-0.6,1.8-0.3c6.5,3.5,13.1,6.9,19.6,10.3C585.6,556,585.5,556.2,585.5,556.5z"/>
	<path id="XMLID_251_" class="st0" d="M500.8,642.5c3.9,19,9.4,37.6,16.6,55.7c2.9,7.2,5.6,14.6,8,22.2c-1.2-1.4-2.3-2.7-3.5-4.2
		c-8.8-10.4-17.1-21-26.1-31.1c-6.5-7.4-13.9-14-21.3-20.7c-2.9-0.8-5.1-2.7-5.4-5.4c-0.8-5.6-1.2-11.3,0.3-16.9
		c-0.3-9.1-2.6-17.7-5.1-27.2c3,2.7,5.3,5,7.7,7.2c4.1,3.6,7.7,7.5,12.5,10.1c2.6,0.3,4.5,2.3,6.9,3.3c0.8,0.5,1.5,0.9,2.3,1.4
		c1.5,0.9,3,1.7,4.5,2.4C499.8,639.9,500.7,640.8,500.8,642.5z"/>
	<path id="XMLID_250_" class="st0" d="M527.8,596c-1.8-6.9-6.5-12.7-10.1-19.5c3.2,1.5,6,3,8.8,4.2c4.2,2,8.3,4.4,13,4.7
		c4.4,0.3,8.8,0,12.5,3.2c9.5,18.1,21.9,34.4,34.6,50.3c1.2,1.5,2.6,3.2,3.6,5c-18.6-12.2-37-24.6-57.3-33.7
		c-2.9-0.8-2.3-3.5-3.3-5.3c-0.3-0.9-0.3-1.8-0.8-2.7C528.3,600.2,527.5,598.3,527.8,596z"/>
	<path id="XMLID_249_" class="st8" d="M501.1,679.1c-6.5-11.3-13.1-22.6-19.6-34c-1.5-2.6-3-5.1-4.5-7.8c-0.3-0.8-0.8-1.4,0.2-1.8
		c0.9-0.6,1.4,0.2,1.7,0.8c7.7,14.2,15.2,28.2,22.9,42.4C501.6,678.8,501.3,679,501.1,679.1z"/>
	<path id="XMLID_248_" class="st3" d="M563.7,619.1c-1.5,0.8-1.8,0-2.3-0.5c-9.4-8.5-18.9-17.1-28.1-25.5c-0.6-0.6-2.6-1.1-1.1-2.6
		c1.4-1.2,1.8,0.5,2.4,1.1c9.1,8.8,18.1,17.7,27.3,26.4C562.4,618.5,563,618.6,563.7,619.1z"/>
</g>
<g id="XMLID_105_">
	<path id="XMLID_206_" class="st4" d="M346.9,305.5c5.4,8.9,11.2,17.7,16.4,26.7c4.4,7.4,10.1,14,13.7,21.9c1.5,3.2,2.9,6.3,4.7,9.4
		c0-5.3,0.3-10.7-0.2-16c-0.6-5.9-5.1-9.8-8.1-14.5c-0.9-1.4-3-2.7-2.3-3.9c0.8-1.5,2.9,0,4.4,0.2c9.2,1.1,18.4,2.6,27.8,2.4
		c9.4-0.3,18.6-1.4,27.8-2.9c0.8-0.2,1.5,0,3.3,0c-9.8,9.8-14.6,20.8-11.3,34.1c1.4-2.9,2.9-5.9,4.2-9.1
		c3.9-8.6,10.1-15.5,14.8-23.7c4.5-7.8,9.5-15.4,14.2-22.9c0.3-0.5,0.8-0.8,1.1-1.1c0.8-0.6,1.7-0.3,2.3,0.2
		c3.6,2.1,6.9,4.5,9.8,7.5c2.3,2.4,2.7,5.3,1.4,8.3c-1.1,2.1-2.3,4.2-3.8,6.2c-8.8,12.2-17.5,24.3-26.6,36.2
		c-2.6,3.5-3.3,6.9-2.9,11c0.9,9.1,1.1,18.3,1.8,27.3c0.8,11.3,1.1,22.6,1.7,34c0.6,10.9,0.2,21.6,0.2,32.4c0,1.2-0.5,2.4-0.9,3.6
		c-8.6,3.3-17.5,4.5-26.6,5.6c-6.3,0.8-12.5,1.1-18.9,0.5c-10.7-0.9-21.3-2.3-31.5-6.2c-1.7-4.1-1.4-8.5-1.4-12.7
		c0-10.1,0.2-20.4,0.9-30.5c0.3-5.1,0.3-10.1,0.6-15.2c0.8-14.2,1.5-28.2,2.6-42.3c0.2-2.6-0.8-4.4-2.1-6.3
		c-9.1-12.5-18.4-24.9-27.5-37.6c-1.4-2-2.9-3.9-3.8-6c-1.4-3.2-1.1-6.2,1.5-8.6C338.3,310.5,341.8,306.7,346.9,305.5z"/>
	<path id="XMLID_202_" class="st0" d="M356.9,261.9c-0.8-1.1-1.5-2.1-2.4-3.3c1.8-1.1,2.9-0.5,4.1,0.8c4.1,3.9,8.3,7.8,12.5,11.8
		c3.6,3.3,6.3,2.9,10-0.3c4.8-4.2,6-9.1,5.7-15.2c-1.1-16.3-1.4-32.6-2-48.9c0-1.7-0.2-2.9-2.1-3.6c-31.4-13.6-49.6-38.2-58.2-70.6
		c-5.7-21.6-6.6-43.5-3.9-65.6c0.2-1.2,0.8-2.9-1.8-2.9c6-2.9,12.4-3.9,18.7-5.7c-1.4,6.5-2.9,12.7-3.9,19
		c-3.9,22.2-4.7,44.4,2.9,65.9c8.9,25.7,26.3,43.5,52.1,52.5c2,0.8,2.1,1.7,2.1,3.3c0,19.5,0,39.1,0,58.7c0,1.1-0.3,2.1,0.3,3.2
		c3.2-2.6,6.2-4.8,9.2-7.2c1.5-1.2,2.7-1.2,4.2,0c3,2.4,6,4.7,9.2,7.2c0.6-1.1,0.3-2.1,0.3-3.2c0-19.5,0-38.9,0-58.4
		c0-1.7,0-2.7,2-3.5c30.2-10.7,48.3-32.1,55.4-62.9c4.8-21.3,2.9-42.4-1.5-63.4c-0.8-3.5-1.7-6.9-2.6-10.9
		c6.3,1.5,12.4,2.9,18.9,5.4c-3.2,0.6-2.3,2.3-2.1,3.8c2.9,26,1.4,51.5-7.5,76.4c-9.8,27.2-27.6,47.2-54.3,59
		c-1.5,0.8-2.1,1.5-2.3,3.2c-0.8,18.9-1.7,37.9-2,56.7c0,4.8,5,7.5,8.8,10.1c2.9,2,5.4-0.5,7.5-2.6c3.9-3.8,8-7.4,11.8-11.2
		c1.2-1.2,2.3-1.7,3.9-0.9c-0.2,1.5-1.8,2.1-2.3,3.5c-0.9,3.2-3.5,5.1-5.4,7.4c-2.6,3.3-5.1,6.5-8.1,9.4c-2.9,2.6-6,3.6-9.7,1.8
		c-3-1.7-5.1-4.4-7.5-6.8c-3-3-6.3-5.6-9.8-8c-3.2-2.1-6.2-2.1-9.2,0c-3.6,2.4-6.9,5.1-10.1,8.3c-2.3,2.3-4.4,5-7.4,6.6
		c-3.2,1.5-6.2,1.1-8.8-1.1c-5.4-4.7-9.4-10.7-14-16C356.9,263,357,262.3,356.9,261.9z"/>
	<path id="XMLID_201_" class="st1" d="M440.5,472.9c-1.4-1.5,0-3.2,0-4.7c-0.2-9.8,0.2-19.8-0.2-29.6c-0.3-13.4-1.1-26.9-1.8-40.3
		c-0.5-8.8-1.2-17.5-1.8-26.3c-0.2-2.6,0.8-4.5,2.1-6.5c9.8-13.4,19.6-26.9,29.3-40.4c4.2-6,3.6-8.6-2.1-13
		c-2.9-2.1-5.4-4.5-8.8-5.9c2.1-4.7,5.7-8.6,8.5-13c0.8-1.2,2-0.6,2.7,0c6.5,4.4,12.8,8.8,19.2,13.3c1.2,0.9,1.4,1.8,0.8,3.2
		c-8.9,18.9-17.7,37.6-26.4,56.4c-2.6,5.6-5,11.2-7.7,17.4c2.6-0.9,3.9-2.3,5.4-3.6c3.6,6.9,6.6,14.2,9.8,21.4
		c3.9,9.1,8,18.3,10.9,27.8c0.9,2.7,1.8,5.4,1.1,8.3c-10.6,11.2-21,22-33.2,31.5C446.2,470.6,443.3,472,440.5,472.9z"/>
	<path id="XMLID_200_" class="st1" d="M346.9,305.5c-3.6,2.7-7.5,5-10.9,8.1c-3.5,3.3-3.9,6.2-1.1,10.1c6.5,9.1,13,18.1,19.6,27.2
		c3.9,5.6,8,11,12.1,16.6c1.4,1.8,0.8,3.8,0.8,5.7c-0.3,5.1-0.9,10.3-1.1,15.4c-0.8,13.7-1.7,27.3-2.1,40.9c0,3.5-0.3,6.9-0.5,10.6
		c0,4.7-0.2,9.4-0.5,14c-0.5,6,0.3,11.9,0.9,18c0,0.3-0.3,0.5-0.5,0.8c-6.6-2-11.5-6.9-16.6-11.3c-7.7-6.6-14.8-14-21.9-21.3
		c-0.9-0.9-1.8-1.7-2.7-2.6c-0.5-3,0.6-5.7,1.5-8.5c5.3-16.8,12.2-32.9,19.2-48.9c0-0.2,0.3-0.3,0.5-0.5c2.1,0.8,3.8,2.4,6.5,3.9
		c-2.1-4.8-3.8-8.9-5.6-13c-9.2-20.2-18.4-40.6-28.4-60.5c-1.1-2.3-0.8-3.3,1.2-4.7c5.3-3.5,10.4-7.2,15.5-10.9c4.4-3,4.7-3,7.7,1.5
		C342.7,299.3,344.8,302.3,346.9,305.5z"/>
	<path id="XMLID_199_" class="st1" d="M280.8,111.6c1.4-10.9,3.9-21.6,7.2-32c0.8-2.3,1.8-3.8,3.9-4.8c7.1-3.8,14.3-6.9,22-9.5
		c-0.5,5.7-1.4,11.2-1.4,16.6c-0.2,22,3.6,43.5,10.1,64.4c5.3,17.1,12.1,33.3,20.2,49.2c0.6,1.1,1.4,2.1,1.4,3.5
		c-1.5,0.8-2.6-0.3-3.6-1.1c-10.4-7.4-21.3-14.2-32-21.3c-2.6-1.7-5.1-3.3-7.7-4.7c-6.3-3.3-10-8.8-12.1-15.2
		c-4.7-14.3-7.5-29-8-44.1C281,112.2,281,111.9,280.8,111.6z"/>
	<path id="XMLID_198_" class="st1" d="M459.2,198.8c5.1-11,10.6-21.9,14.9-33.2c7.1-18.4,12.5-37.3,15.1-56.9
		c1.2-9.5,2.1-19,1.7-28.5c-0.2-5-0.8-9.8-1.4-15.1c8.5,2.9,16.4,6.2,23.8,10.6c1.2,0.8,1.4,2,1.8,3.2c3.2,10,5.7,20.1,6.9,30.5
		c0.2,0.9,0.3,1.8,0.5,2.7c-0.3,8.9-1.8,17.7-3.3,26.4c-1.1,6.5-3.2,13-5.3,19.2c-2.3,6.6-6.8,11.2-13,14.8
		c-12.4,7.4-24.3,15.5-36.2,23.5C463.2,197.5,461.9,199.6,459.2,198.8z"/>
	<path id="XMLID_197_" class="st0" d="M343.6,379.9c0.5,1.4-0.3,2.4-0.8,3.5c-6.5,15.2-13.1,30.3-18.1,46.2
		c-0.8,2.7-1.5,5.4-2.3,8.1c-5.9-6.9-11.9-13.7-16.9-21.3c-1.1-1.5-1.1-2.7-0.3-4.5c4.8-9.1,9.8-18,15.4-26.4
		c1.7-2.4,1.4-4.4,0.3-6.6c-2.4-5.1-5.9-9.8-8.9-14.6c-1.4-2.3-2.9-4.4-4.2-6.5c-3-2.6-4.4-6.2-6.5-9.4c-3-4.5-5.6-9.2-8.5-13.7
		c-0.6-1.1-0.8-2.1-1.2-3.2c-3.3-5.4-6.2-11-9.8-16.3c-7.4-10.9-11.6-23.1-16-35.3c-5.4-15.7-10.4-31.7-14.8-47.7
		c-0.3-1.1-0.3-2-0.3-3c0.2-1.4,0.8-0.6,1.1-0.2c0.9,1.2,1.2,2.9,1.7,4.4c5,16.4,10.9,32.4,18.7,47.8c5,9.8,10.6,19,18.3,26.9
		c4.2,4.4,8.8,6.3,14.8,4.4c1.1-0.3,2.4-0.8,3.6-0.2c2.6,1.2,3.6,3.8,4.5,6.2c3.2,8.1,6.2,16.3,9.2,24.3c4.1,10.6,8.8,21,15.2,30.5
		C340,375.7,341.6,377.9,343.6,379.9z"/>
	<path id="XMLID_196_" class="st0" d="M481.7,437.2c-3.5-16-10.9-30.5-17.1-45.4c-1.4-3-2.7-6-4.1-9.1c-0.5-0.9-1.1-1.8-0.6-2.9
		c8.3-9.1,13.6-19.9,18.1-31.1c3.8-9.4,7.1-18.9,10.7-28.2c1.1-3,2.3-6,4.8-8.3c1.5-1.1,3-0.3,4.5,0.3c5.7,1.8,10.1,0.2,14.2-4.2
		c8.1-8.6,14.2-18.6,19.5-29.1c7.5-15.5,13.7-31.7,18.4-48.1c0.3-1.1,0.3-2.1,1.4-2.7c1.1-0.6,1.2,0.2,0.8,1.1
		c-5.4,24.3-13.7,47.5-22.5,70.8c-2.3,6.2-6.5,11.3-9.7,17.1c-2.9,4.8-5.7,9.7-8.6,14.5c-0.2,1.1-0.6,2.1-1.2,3.2
		c-4.4,7.1-8.8,14.2-13,21.3c-0.5,0.8-1.1,1.5-2,2c-4.4,6.9-9.1,13.6-13,20.8c-1.4,2.6-1.4,4.7,0.3,7.4c5.7,8.5,10.6,17.4,15.4,26.3
		c0.9,1.7,0.9,2.9-0.2,4.4C493.1,424.1,487.7,430.9,481.7,437.2z"/>
	<path id="XMLID_195_" class="st1" d="M526.6,136.9c2.9,9.8,6.5,19.2,11.5,29.1c2.7-12.2,5.1-23.5,7.5-34.9c0.3,0,0.5,0,0.8,0
		c0.2,3,0.5,6,0.6,8.9c0.6,14.5-0.3,28.8-4.2,42.9c-1.4,4.7-4.1,7.7-8.5,9.7c-8.6,3.8-17.7,6.5-26.9,7.8c-7.1,1.1-12.5,4.5-17.8,8.8
		c-11.5,9.2-22.5,19.2-33,29.3c-1.4,1.4-2.7,1.7-4.5,1.1c-1.7-0.6-3.5-0.9-5.1-1.5c-1.5-0.6-1.5,0.5-1.7,1.4
		c-1.5-0.3-1.5-1.7-1.5-2.7c-0.2-2.6-0.3-5.3,0.2-8c0.5-1.5,1.8-2.1,3.2-2.7c3.3-1.4,6.8-2.9,10.1-4.1c2.6-0.9,4.5-2.4,5.7-4.8
		c0.8-1.5,2-3,2.6-4.7c2.3-5.7,6.9-9.2,11.8-12.5c9.2-6.5,18.6-12.5,27.9-18.9c4.7-3.2,8.9-6.9,12.2-11.5c1.4-1.8,2.3-3.8,2.6-6.2
		c0.8-8.3,2.7-16.4,4.7-24.4C525.1,138.2,525.1,136.8,526.6,136.9z"/>
	<path id="XMLID_194_" class="st4" d="M552.3,229.3c0,0,0-0.2-0.2-0.3c0-0.2,0-0.2-0.2-0.3c-0.3,0.9-0.8,1.8-1.1,2.7
		c-6.3,20.5-13.6,40.6-24.4,59.3c-4.4,7.5-9.5,14.5-16.1,20.4c-3,2.7-6.2,3.8-10.1,2.6c-2.1-0.6-4.4-1.1-6.6-1.5
		c0-0.9,0.2-1.7,0.6-2.4c1.8-2.9,1.4-4.8-1.5-7.1c-6.5-5.1-12.8-10.9-19.2-16.3c-0.3-2.1,1.2-2.9,2.6-3.9c5.9-4.1,12.7-4.8,19.5-5.7
		c5.4-0.6,10.9-0.8,16.1-0.8c1.8,0,3.5-0.5,4.8-1.8c5.3-5,9.7-10.6,13.9-16.4c3.9-5.4,4.8-11.9,6.5-18.1c1.2-4.7,2.9-9.1,4.1-13.7
		c0.8-2.9,2.1-5.4,3.6-7.8c5.1-8,8.3-17.1,10.4-26.3c0.3-1.1,0-2.6,1.7-2.9c1.4,3.3,0,6.8,0.2,10.1c0.2,6.6-0.3,13.3-2,19.8
		C553.8,222.7,553.6,226.1,552.3,229.3z"/>
	<path id="XMLID_193_" class="st0" d="M493.3,270.8c-6.2-0.2-11,0-15.7,1.1c-6.6,1.4-11.6,4.8-14.9,11
		c-7.2,13.7-15.4,26.9-23.8,39.8c-2,3-4.5,4.7-8,5.1c-19.3,3.2-38.8,3.5-57.9-0.3c-3.3-0.6-5.4-2.1-7.2-4.8
		c-8.1-12.7-16.3-25.4-23.1-38.8c-4.1-8.1-10.6-11.9-19.2-12.8c-4.7-0.6-9.5-0.6-14.3-0.5c-10,0.3-17.1-4.7-22.2-12.7
		c-4.8-7.4-9.1-15.1-13.6-22.8c-0.3-0.5-0.5-0.9-0.8-1.4c-0.5-0.8-0.8-1.4,0-2c1.1-0.8,1.1,0.5,1.5,1.1c2.1,3.2,4.1,6.2,5.9,9.5
		c10.3,18.4,26.4,25.8,46.8,26c3.6,0,7.2,0.2,10.9,0.5c3.3,0.3,5.7,1.8,7.5,4.2c1.4,1.8,2.6,3.5,3.6,5.4
		c7.2,12.5,14.5,24.9,21.7,37.4c1.1,1.8,2.3,2.7,4.2,3.3c4.5,1.4,9.2,1.8,13.9,2c13,0.6,26,0.9,38.9-1.5c3.6-0.6,5.7-2.3,7.5-5.6
		c6.9-12.7,14.5-24.9,21.6-37.6c3.2-5.6,7.5-8.3,14.2-8.3c8.1,0.2,16.1,0,24.1-2.4c10.9-3.2,19.9-8.8,26.1-18.4
		c3.2-5,6.3-9.8,9.5-14.6c0.3-0.5,0.5-1.7,1.5-1.2c0.9,0.5,0.5,1.4,0,2.1c-5.1,8.6-9.8,17.7-15.7,25.8
		C510.5,268.2,502,272.2,493.3,270.8z"/>
	<path id="XMLID_192_" class="st4" d="M309.3,312.4c-0.2,0-0.3,0.2-0.6,0.3c-8,3.3-14.3,1.2-19.9-5.4c-9.4-10.9-16.1-23.4-21.9-36.4
		c-5.7-12.7-10.3-25.8-14.3-39.1c-0.3-0.9-0.6-1.8-0.9-2.6c0,0-0.2-0.2-0.3-0.2c0,0-0.2,0.2-0.3,0.2c-0.8-4.4-1.5-8.8-2.4-13.1
		c-1.2-5.4-1.5-10.9-1.2-16.3c0-2.3-1.2-4.7,0-6.9c1.5,0.5,1.5,1.8,1.8,3c2.1,8.8,5.7,16.9,10.4,24.6c3.5,5.9,4.7,12.7,6.6,19
		c0.2,0.8,0.5,1.4,0.6,2.1c1.8,13.7,10.1,23.5,19.3,32.9c1.8,1.8,3.9,2.6,6.5,2.4c8.1-0.2,16.1,0.3,24.1,2.1c3.9,0.8,7.7,2,10.9,4.4
		c1.2,0.9,2.7,1.8,2.3,3.6c-5.3,4.5-10.6,9.1-15.7,13.4c-1.5,1.2-2.7,2.7-4.4,3.5c-3,1.5-2.9,3.6-1.5,6.2
		C309,310.9,309.2,311.7,309.3,312.4z"/>
	<path id="XMLID_191_" class="st1" d="M358.2,239.4c-1.2-1.5-2.6-0.2-3.6,0.2c-1.8,0.5-3,0.3-4.5-0.9c-6.3-5.9-12.7-11.6-19.2-17.4
		c-6.2-5.4-12.5-10.6-19-15.7c-4.5-3.6-9.8-4.4-14.9-5.4c-7.5-1.5-14.8-3.6-22.2-6.2c-7.2-2.6-10.7-7.4-12.4-14.6
		c-2.3-10.1-3-20.2-3.5-30.5c-0.2-2.4,0.3-5,0.9-7.4c1.8,8,3.5,16,5.4,24.7c5.1-10.1,8.8-19.8,11.6-29.7c1.7,0,1.5,1.5,1.8,2.6
		c1.8,8.5,3.9,17.1,4.7,25.7c0.2,1.7,0.8,3,1.7,4.4c3.3,4.8,7.5,8.8,12.5,12.1c10.4,6.9,20.7,13.9,30.9,21c3.9,2.7,7.1,5.7,8.8,10.1
		c2.1,6,6.2,10.1,12.7,11.8c2.1,0.5,4.2,1.7,6.3,2.6c1.2,0.5,2.6,1.1,3.2,2.4c0.6,2.6,0.3,5.3,0.3,8
		C359.6,237.7,359.6,239.1,358.2,239.4z"/>
	<path id="XMLID_190_" class="st1" d="M379.9,279.9c2.9-2,5.1-4.8,7.5-7.2c3.2-2.9,6.3-5.7,10-8c3.2-2,6.2-2,9.4,0
		c5.1,3.2,9.4,7.4,13.7,11.6c1.2,1.2,2.6,2.4,3.9,3.5c0.6,5-0.2,9.8-0.5,14.8c-0.3,6.6-0.9,13.1-1.7,19.8c-0.2,1.5-0.3,3.2-1.7,4.1
		c-12.2,1.1-24.6,1.1-36.8,0c-2.6-3.3-1.8-7.4-2.1-11.2C380.7,298.3,379.9,289.2,379.9,279.9z"/>
	<path id="XMLID_189_" class="st0" d="M330.1,287.4c-2.1-3.6-5.7-5-9.4-6.2c-9.2-2.9-18.9-3.2-28.4-3c-2.9,0-5-0.9-6.9-2.9
		c-5.3-5.4-10.1-11.3-14.2-17.8c-2-3.2-3.2-6.5-3.9-10.1c-1.7-8.1-4.4-16-6.9-23.8c-0.2-0.3-0.2-0.6-0.3-0.9
		c-6.2-9.1-9.8-19.2-12.5-29.7c-2.1-13-2.6-26.1-0.8-39.4c1.4-9.8,3.5-19.5,6.5-29.1c1.1,0,0.8,0.6,0.6,1.2
		c-2.3,13.1-3.5,26.4-2,39.7c2.1,20.2,8.8,38.6,23.1,53.6c1.4,1.4,2.7,2.6,4.2,3.9c-3.6,2.1-6.6,4.7-9.1,8c-1.1,1.4-1.4,2.3-0.3,3.8
		c5.1,8.5,10,17.4,15.4,25.7c5.4,8.1,13.3,13.1,23.5,13c6.2-0.2,12.5-0.3,18.6,1.1c3.9,1.1,7.4,2.9,10,6c0.9,1.1,1.4,1.8-0.3,2.9
		c-1.8,1.1-3.5,2.6-5.1,4.1C331.2,287.8,330.8,288,330.1,287.4z"/>
	<path id="XMLID_188_" class="st0" d="M556.5,189.3c-1.7,6.5-3,13-5.7,19c-1.1,2.4-2,4.8-3.5,6.9c-6.5,9.8-8.6,21-11.3,32.1
		c-0.8,2.9-1.5,5.6-3,8.1c-4.2,7.1-9.4,13.4-15.2,19.3c-1.8,1.8-3.8,2.6-6.3,2.6c-9.1-0.2-18.1,0.2-26.9,2.6
		c-4.4,1.2-8.6,2.6-11.2,6.8c-0.5,0.3-0.9,0.8-1.5,0c-0.9-0.9-2-1.8-3-2.7c-3.3-2.6-3.3-2.9,0-5.7c4.7-4.1,10.4-4.8,16.3-5.1
		c3.5-0.2,7.1,0,10.6,0c10.6,0.2,18.1-5,23.5-13.3c5.4-8.1,10-16.8,15.1-25c0.9-1.5,1.1-2.4-0.2-3.8c-2.9-3.3-5.7-6.5-9.7-8.6
		c23.5-21.7,29.3-49.5,27.5-79.8c-0.5-6.9-1.5-13.7-2.7-20.7c2.9,7.2,4.7,14.6,6,22.2C558.2,159.1,558.8,174.2,556.5,189.3z"/>
	<path id="XMLID_187_" class="st2" d="M303.3,412.6c-5-6.8-9.1-13.3-13-19.9c-4.1-7.1-7.8-14.3-11.8-21.6c-0.6-1.1-1.1-2.1,0.2-3.3
		c4.1-3.9,8.3-7.8,13-11c1.2-0.9,2.6-1.4,4.1-0.8c1.1,0.5,2.4,0.6,3.6,0.9c4.8,1.1,8.6,3.3,11.2,8c2.9,5.1,6.2,10.1,8.8,15.4
		c0.6,1.4,1.2,2.7,0.3,4.1C313.4,393,308.3,402.4,303.3,412.6z"/>
	<path id="XMLID_186_" class="st1" d="M484.2,382.9c0.8-2.9,2.3-5.4,3.8-8.1c2.1-3.8,4.7-7.2,6.9-11.2c3.5-6.2,9.8-5.7,15.4-7.4
		c0.6-0.2,1.5,0.5,2.1,0.9c4.7,3.2,9.1,6.9,13,11c0.9,0.8,1.1,1.5,0.5,2.7c-6.9,13.4-14.5,26.4-23.1,38.8c-2.1,3-2.1,3-3.8-0.3
		c-3.9-8.1-8.6-16-13.6-23.4C484.8,385.2,483.8,384.3,484.2,382.9z"/>
	<path id="XMLID_185_" class="st0" d="M358.2,239.4c0.6-3.8,0.6-7.5,0.6-11.3c-0.9-0.9-0.8-2.1-0.6-3.3c0.3-1.5,0.2-2.9,0.3-4.4
		c0.3-3-1.1-5-3.5-6.6c-17.7-11.9-35.5-23.5-53.9-34.6c-4.1-2.4-8-5.3-11-9.1c-2.9-3.6-4.5-7.5-5.4-12.1c-1.7-8.1-3.6-16.3-5.1-24.4
		c-0.6-3.3-0.6-6.5-0.2-9.8c0.5-4.1,0.9-8.1,1.5-12.4c1.2,7.8,2.6,15.5,3.6,23.4c1.1,7.4,3.3,14.5,5.6,21.7
		c2.3,7.2,7.1,11.9,13.7,15.8c11,6.5,21.4,13.9,32.1,20.8c2.9,1.8,5.7,3.8,8.6,5.6c6.6,4.8,13.1,9.8,19.9,14.5
		c2.6,1.8,3.6,3.8,3.5,6.9c-0.3,7.2-0.2,14.5,0,21.9c0,2.3-0.6,3.9-2.3,5.4c-2.4,2.3-4.8,4.5-7.2,6.9c-1.1,1.1-1.8,1.2-3,0
		c-2.3-2.3-4.7-4.4-7.1-6.6C351.1,244.7,355.8,243.5,358.2,239.4z"/>
	<path id="XMLID_184_" class="st9" d="M444.8,228.1c0,3.8-0.2,7.5,0.6,11.3c1.4,2.9,4.4,3.9,6.6,5.7c1.1,0.8,2.3,1.5,3.6,2.6
		c-2.7,2.6-5.4,5-8,7.4c-1.1,0.9-1.5,0-2.1-0.5c-3-2.6-5.9-5.3-8.6-8.1c-0.9-1.1-1.2-2.1-1.2-3.5c0-8.3,0.2-16.6,0-24.9
		c0-1.8,0.9-2.6,2-3.6c6-4.8,12.4-9.2,18.6-13.6c0.9-0.6,1.8-1.4,2.7-2.1c9.7-6.3,19.3-12.8,29-19.2c4.7-3,9.1-6,14-8.8
		c6.9-3.8,10.1-10.3,12.4-17.5c3.9-12.7,5.6-25.7,7.2-38.8c0.2-0.9,0-1.8,0.8-2.6c0.5,4.1,0.9,8.3,1.4,12.4c0.5,3,0.5,6-0.2,8.9
		c-1.8,9.1-3.8,18-5.7,26.7c-1.5,6.3-5.1,11.3-10.3,15.2c-8.1,6.2-17.4,10.7-25.8,16.3c-11.6,7.5-23.4,15.2-34.7,23.1
		c-1.7,1.1-2.1,2.6-2.3,4.4C444.7,222.2,446.2,225.1,444.8,228.1z"/>
	<path id="XMLID_183_" class="st4" d="M379.9,279.9c1.5,0.3,1.2,1.5,1.2,2.4c-0.3,10.6,1.4,21.1,2,31.5c0,1.5,0.5,3,0.6,4.7
		c-2.7-0.5-5.4-0.8-8.3-1.4c-1.5-0.3-2.4-1.4-3.3-2.7c-7.5-13.3-15.2-26.6-23.1-39.8c-0.9-1.7-0.8-2.4,0.5-3.6
		c2.6-2.9,5.4-5.7,7.2-9.4c4.2,4.8,8.3,9.8,12.5,14.6C372.1,279.9,375.4,281.7,379.9,279.9z"/>
	<path id="XMLID_182_" class="st4" d="M420.5,318.6c0.5-3.6,0.9-7.2,1.2-10.7c0.8-9.1,1.4-18,2-26.9c0-0.3,0.3-0.8,0.6-1.1
		c4.4,1.8,7.8,0,10.7-3.3c4.2-4.8,8.3-9.8,12.4-14.6c2.1,3.2,4.5,6.2,7.2,8.8c1.5,1.4,1.5,2.6,0.5,4.1c-7.7,13-15.4,26.1-22.9,39.2
		c-1.1,2-2.6,3.2-4.7,3.5C425.2,317.9,423,318.8,420.5,318.6z"/>
	<path id="XMLID_181_" class="st0" d="M349.9,255.9c-13.7,1.5-26.7,2.6-39.8,0.2c-2.7-0.5-5.1-1.5-7.5-2.9
		c-7.2-5-12.2-11.9-17.2-19.6c8.5,1.7,16.4,3.3,24.6,3.3c3,0,6,0.3,9.1,0.8c5.9,0.8,11.2,2.7,16.1,6.2
		C340.1,247.4,344.9,251.2,349.9,255.9z"/>
	<path id="XMLID_180_" class="st0" d="M518.3,233.2c-1.4,2-2.1,3.2-2.9,4.4c-8.5,14.2-20.8,21-37.6,19.9c-7.7-0.5-15.5-0.8-23.2-1.5
		c-0.5-1.1,0.5-1.4,1.1-1.8c3.3-2.7,6.5-5.4,9.8-8.1c6.5-5.3,13.7-8.5,22.2-8.8C497.6,236.7,507.8,236.1,518.3,233.2z"/>
	<path id="XMLID_179_" class="st4" d="M279.4,123.8c0,8,2.6,15.7,3.9,23.5c0.6,3.3,1.7,6.5,2.1,9.8c1.5,9.7,7.2,16.1,15.2,20.8
		c19.2,11.5,37.9,23.7,56.3,36.2c1.8,1.2,2.6,2.4,2.3,4.5c-0.3,3-0.5,6.2-0.6,9.4c-5.4-2.1-10.9-4.2-16.3-6.3
		c-2.3-0.9-3-3.3-3.8-5.1c-3-8.6-9.7-13.6-16.9-18.3c-9.7-6.2-19.2-12.8-28.5-19.5c-4.1-2.9-7.4-6.8-10-11c-1.7-2.6-0.9-5.9-1.5-8.8
		c-1.5-7.5-2.6-15.2-5-22.6C277.8,132.3,278.5,128,279.4,123.8z"/>
	<path id="XMLID_155_" class="st4" d="M444.8,228.1c-0.3-3.5-0.3-7.1-0.8-10.6c-0.2-1.5,0.8-2.1,1.8-2.9
		c18.1-12.5,36.5-24.6,55.4-35.8c9.1-5.3,15.2-12.4,17.1-23.2c1.4-8.6,3.5-17.1,5.3-25.7c0.3-1.8,0.5-3.6,0.5-5.6
		c0.8,4.2,1.7,8.3,2.4,12.5c-2.3,5.7-3.2,11.9-4.4,18c-0.8,3.6-1.1,7.1-1.5,10.7c-0.5,3.6-3.6,6-5.7,8.6c-2.6,3-5.7,5.4-9.1,7.5
		c-11.2,7.5-22.6,14.9-33.7,22.9c-3.3,2.6-4.8,6-6.5,9.4c-2.6,5.3-6.2,8.5-11.6,10.1C451.2,225.2,448,226.9,444.8,228.1z"/>
	<path id="XMLID_154_" class="st1" d="M252.6,289.2c2.9,5.1,5.9,10.4,8.9,15.5c6.3,10.7,12.5,21.6,19,32.1c1.7,2.7,1.2,4.1-1.2,5.7
		c-2.7,1.8-5.1,3.9-7.5,5.9c-1.5,1.2-2.3,1.4-3.2-0.8c-6.5-14.8-11.9-29.9-15.5-45.6c-1.1-4.2,0-8.8-0.9-13
		C252.1,289.4,252.3,289.2,252.6,289.2z"/>
	<path id="XMLID_153_" class="st1" d="M553.5,289.1c-0.5,8-1.1,15.7-3.6,23.1c-3.9,11.9-8.1,23.7-13.3,35.2c-0.9,2-1.5,2.6-3.3,0.8
		c-2.6-2.4-5.4-4.5-8.3-6.6c-1.2-0.9-1.8-1.7-0.9-3.3c9.5-16.1,18.9-32.4,28.4-48.7C552.6,289.4,552.9,289.4,553.5,289.1z"/>
	<path id="XMLID_152_" class="st0" d="M401.4,117.6c-2-4.8-2.1-9.8-2.6-14.6c-1.5-16.9-2.1-33.8-2.7-50.7c0-2.6,0.8-3.2,3-3.2
		c8-0.3,8-0.3,7.7,7.5c-0.5,17.8-1.1,35.8-3.3,53.6C403.2,114.5,402.9,115.2,401.4,117.6z"/>
	<path id="XMLID_151_" class="st1" d="M495.4,358c5.1-9.1,10.6-17.7,16.1-26.4c1.2,2.4,1.4,5,1.8,7.5c1.4,9.5,7.5,14.9,15.5,18.6
		c2.6,1.2,2.7,2.1,1.5,4.2c-1.1,1.5-1.7,3.3-2.6,5.1c-4.2-3.3-8.3-6.5-12.2-10c-3.5-3-7.1-4.2-11.6-2
		C501.3,356.5,498.3,357.1,495.4,358z"/>
	<path id="XMLID_150_" class="st1" d="M292,331.6c5.6,8.8,11,17.4,16.1,26.4c-3.8-1.2-7.7-2.4-11.5-3.8c-1.8-0.8-3.3-0.5-5,0.6
		c-4.7,3-9.1,6.3-12.8,10.3c-1.4,1.5-2.3,2-3.3-0.3c-0.8-2-2.6-3.9-2.4-5.6c0.3-2,3.3-2,5-2.9c8-4.4,12.2-11.2,13-20.2
		C291.4,334.5,291.7,333,292,331.6z"/>
	<path id="XMLID_149_" class="st0" d="M555.4,82c-2.9-7.5-5.6-14.9-8.3-22.5c-0.3-1.1-1.1-2,0-3.2c5.3-5.7,9.4-12.1,12.7-20.1
		c1.2,11.2,3,21.4-0.2,31.7c-0.6,1.8-0.8,3.9-1.1,5.7c-0.6,2.4-0.3,4.8-0.9,7.2C557.3,82,557,83.7,555.4,82z"/>
	<path id="XMLID_148_" class="st0" d="M245.2,74.3c-0.8-3.9-1.5-7.7-2.4-11.6c-2-8.6,0.3-17.1,1.1-25.7c3.3,6.9,7.4,13.3,12.5,18.9
		c0.9,1.1,0.5,1.8,0.2,2.9c-3,7.8-6,15.7-8.9,23.5c-1.8,0-1.5-1.5-1.7-2.6C245.3,78.1,245.5,76.3,245.2,74.3z"/>
	<path id="XMLID_147_" class="st10" d="M270.7,195c3,3.3,6.2,6.8,9.2,10.1c1.4,1.5,2.9,2.1,4.8,2.1c11.6,0.6,21.7,4.7,30.8,11.9
		c5.3,4.4,11,8.1,16.3,12.4c-4.5-1.5-8.8-3.8-12.8-6.5c-5.7-3.8-11.6-7.4-17.8-10.1c-5.1-2.1-10.3-3.6-15.7-2.4
		c-2.1,0.5-3.6-0.8-4.8-2.1c-4.1-4.7-7.4-9.8-10.6-14.9C269.8,195,270.1,194.9,270.7,195z"/>
	<path id="XMLID_146_" class="st11" d="M474,232.2c7.1-5.3,14.2-10.7,21.3-15.8c7.8-5.7,16.8-8.6,26.4-8.9c2.3,0,3.9-0.9,5.3-2.6
		c3.3-3.8,6.8-7.4,10.3-11c-3.6,6.2-7.2,12.5-12.4,17.7c-1.1,1.1-2.3,1.5-3.6,1.2c-6.2-1.4-11.9,0.5-17.5,3
		c-5.7,2.6-10.9,5.9-16.1,9.4C483.3,228.1,478.8,230.4,474,232.2z"/>
	<path id="XMLID_145_" class="st12" d="M555.4,82c1.1,0.8,1.1,0.2,1.2-0.8c0.6-2.6,1.2-5,1.8-7.4c0.5,10.9,0.5,21.7-4.8,31.8
		c-0.8,1.5-1.7,2.9-3,3.9c1.7-7.5,3.2-14.9,4.8-22.5C555.7,85.3,555.9,83.7,555.4,82z"/>
	<path id="XMLID_144_" class="st12" d="M245.2,74.3c1.2,2.6,0.9,5.6,2.3,8c1.2,8.8,3.6,17.4,5.3,26.1c0,0.3,0.3,0.8-0.2,1.2
		C245,98.9,244.6,86.8,245.2,74.3z"/>
	<path id="XMLID_143_" class="st13" d="M270.7,195c-0.2,0.2-0.5,0.5-0.6,0.6c-1.1-1.1-2-2.4-2.7-4.7
		C268.9,192.6,269.9,193.7,270.7,195z"/>
	<path id="XMLID_142_" class="st14" d="M253.9,125.8c-0.2-0.5-0.3-0.8-0.6-1.2c0.3-1.2,0.5-2.6,1.7-3.8
		C254.8,122.8,254.7,124.3,253.9,125.8z"/>
</g>
</svg>
