<?xml version="1.0" encoding="utf-8"?>
<!-- Generator: Adobe Illustrator 19.0.0, SVG Export Plug-In . SVG Version: 6.00 Build 0)  -->
<svg version="1.1" id="Layer_1" xmlns="http://www.w3.org/2000/svg" xmlns:xlink="http://www.w3.org/1999/xlink" x="0px" y="0px"
	 viewBox="0 0 1080 1920" style="enable-background:new 0 0 1080 1920;" xml:space="preserve">
<style type="text/css">
	.st0{fill:#ECDF00;}
</style>
<g id="face">
	<path id="XMLID_56_" class="st0" d="M223,751.5c-10-10-19.1-19-27.9-28.3c-3.8-4-3.4-9-2-14c1.8-6.6,3.1-13.4,5.4-19.8
		c14.6-39.9,8.4-80.3,2.3-120.5c-7.9-52.4-8.8-105.2-7.9-158c0.4-22.8,0.8-45.6,0.7-68.4c-0.1-11.8,3.6-21,12.7-29
		c17-15.2,33.2-31.2,49.6-47c24.2-23.2,53.6-37.1,85.1-46.7c16-4.9,32.4-8.1,48.4-13c8.4-2.6,10.6,0.7,11.8,8
		c7.7,48.7,15.8,97.5,23.5,146.2c5.3,33.3,9.1,67,21.7,98.7c7.5,18.9,14,23.8,34,23.9c39.9,0.2,79.8,0.2,119.7,0.1
		c19.8-0.1,26.6-5.2,34.1-23.9c12-30,15.5-61.7,20.6-93.2c8.2-51,16.8-101.9,24.9-152.9c1.1-7,3.4-9.2,10.3-7.2
		c19.7,5.7,39.6,10.7,59.2,16.6c31.5,9.6,58.7,26.3,82,49.6c14.2,14.2,28.9,28.1,43.9,41.5c8.4,7.5,11.7,16.2,12,27.1
		c2.2,92.4,1.9,184.6-13.6,276.1c-2.9,16.9-0.7,33.3,3.4,49.6c2.5,9.9,3.9,20.3,7.7,29.7c6.6,16.7,1.7,28.4-11.4,39.8
		c-16.5,14.3-16.3,15.3-24.1-5.1c-3.4-8.9-7.8-9.9-16.1-8c-64.5,14.2-129.1,28-193.6,42.1c-9.3,2-18.6,3.1-28.2,3
		c-30.4-0.2-60.8-1.2-91.2,0.2c-44.8,2-88.4-4.1-131.9-14.5c-47.2-11.3-94.9-20.7-142.4-31.2c-7.3-1.6-11.2-0.3-13.6,7.1
		C230,737.1,226.5,743.4,223,751.5z"/>
	<path id="XMLID_55_" class="st0" d="M186.3,732.8c12.3,12.1,22.8,22.3,33.3,32.6c1.9,1.9,4.1,3.5,5.7,5.6
		c23.4,31.8,57.3,42,94.1,44.9c35.7,2.8,71.3,0.5,106.6-6c10.9-2,20.2-6.1,23.1-18.7c1.6-6.9,7.6-9.2,14.1-9.2
		c51.3-0.1,102.6-0.1,153.8,0c7.5,0,13.5,3,15.2,11c2.3,10.7,10.5,15,19.6,16.5c55.1,9.1,110.1,12.7,164.5-5.3
		c6.4-2.1,11.2-6.1,15.8-10.6c20-19.6,40-39.2,59.9-58.6c3.8,2.7,3.7,5.9,4.3,8.7c3.7,18.2,6.7,36.6,11.2,54.7
		c6.7,27.5,1.1,52.4-12.8,76.5c-30.8,52.9-66.2,102.8-99.6,153.9c-20.9,32-36.3,66.1-38.2,104.6c-1.2,25.7-12.7,43.6-33.6,57.1
		c-15.2,9.9-15,10.3-25.2-5.2c-1.9-2.8-3.5-5.9-4.7-9c-6.8-17.8-11.1-21.1-30.2-21.2c-81.7-0.1-163.3-0.2-245-0.1
		c-20.4,0-23.7,2.5-31.1,21.3c-9.1,23.1-15.2,24.9-34.7,10.8c-17.7-12.7-27.3-28.9-28.5-51.5c-1.9-36.7-15.1-70.3-34.9-101.1
		c-32.7-50.8-67.9-99.8-98.7-151.8c-5.2-8.8-10.1-17.9-13.9-27.4c-6.2-15.3-9-31-5.2-47.8C176.7,783.6,180.9,759.6,186.3,732.8z"/>
	<path id="XMLID_54_" class="st0" d="M315,1181.2c17,16.6,32.7,31.3,47.7,46.8c5.9,6.2,8.9,5.4,13.7-0.8
		c7.7-9.8,16.1-19.2,24.8-28.2c11.4-11.8,25.5-17.1,42-16.8c64.6,1.1,129.1,1.4,193.7,0c16.9-0.4,31,5.7,42.9,17.6
		c9.2,9.1,17.6,18.9,25.3,29.3c3.7,4.9,6.2,5.1,10.5,0.6c14-14.5,28.4-28.5,42.5-42.9c5.1-5.2,7.3-5,8.9,2.7
		c4.2,20,8.9,40,13.9,59.9c1.3,5.1,0.3,8.7-3.4,12.2c-17.8,16.5-35.6,33.1-53.1,49.9c-4.5,4.3-8.2,4.3-12.8,0.5
		c-10.3-8.4-21.3-16-31.1-24.9c-11.8-10.6-24.8-17.1-40.9-17.5c-9.5-0.3-18.9-1.8-28.4-2.2c-10.6-0.4-20.1-2.2-27.5-10.9
		c-3.7-4.4-9.4-6.9-14.9-7.9c-28-4.9-56-9.1-79.2,13.7c-3.3,3.2-7.2,4.3-11.4,4.1c-42-2.5-77,12.5-105.7,42.7
		c-7.5,7.9-13.3,6.2-20.6-1.1c-15.5-15.6-31.9-30.4-48-45.4c-3.6-3.3-6.2-6.6-4.9-11.8C304.2,1228,309.5,1205.1,315,1181.2z"/>
</g>
</svg>
