<?xml version="1.0" encoding="utf-8"?>
<!-- Generator: Adobe Illustrator 19.0.0, SVG Export Plug-In . SVG Version: 6.00 Build 0)  -->
<svg version="1.1" id="Layer_1" xmlns="http://www.w3.org/2000/svg" xmlns:xlink="http://www.w3.org/1999/xlink" x="0px" y="0px"
	 viewBox="-544 -44.1 829.3 1168.1" style="enable-background:new -544 -44.1 829.3 1168.1;" xml:space="preserve">
<style type="text/css">
	.st0{fill:#B40000;}
</style>
<g id="XMLID_309_">
	<path id="XMLID_307_" class="st0" d="M-155.2,831c-4.1-5.1-7.5-10.5-10.5-16c-10.4-18.9-18-38.9-24.1-59.5
		c-5.5-18.4-9.6-37.1-12.9-56c-2.5-14.7-4.5-29.4-6-44.2c-1.5-14.5-2.6-28.9-3.5-43.4c-2.1-35.4-2.5-70.8-2.6-106.3
		c0-2.4,0-2.4,2.5-1.9c0.5,0.1,1.1,0.2,1.6,0.4c2,0.7,3.5,0.1,5-1.3c5.1-4.5,9.7-9.5,14.1-14.6c7.5-8.9,14.4-18.3,22.4-26.8
		c-0.1-0.1-0.3-0.3-0.4-0.3c-10,4-20.5,6-30.9,8.8c-4.4,1.2-8.3,3.2-11.4,6.3c-9.8,9.6-21.3,17-32.5,24.8
		c-11.6,8.1-23.5,15.9-34,25.3c-7.6,6.8-15.9,12.8-23,20c-3.1,3.2-6.1,6.5-8.5,10.3c-2.5,4-4,8.3-3.5,13c1.6,18.5,1,37.2,2.5,55.8
		c3.9,48.8,14.6,96,33.1,141.4c0.3,0.6,0.7,1.1,0.5,2.1c-0.8-1.3-1.4-2.5-2-3.6c-13-20.2-21.3-42.4-29.5-64.7
		c-8.9-23.8-15.3-48.4-19.9-73.4c-2.5-13.8-4.4-27.6-5.6-41.5c-1.6-16.6-2.1-33.2-2.4-49.9c0-0.1,0-0.3,0.1-0.7
		c0.8,0.5,1.5,1,2.1,1.4c5.5,3.5,11,3.4,16.3-0.1c5.6-3.7,10.7-8.1,16.4-11.7c14.9-9.5,29.7-19.1,43.8-29.9
		c9.4-7.1,18.3-14.8,26.9-22.9c4.6-4.4,9.5-8.8,14.3-13c2.7-2.5,5.8-3.6,9.7-2.7c6.4,1.5,12.8,0.2,18.9-1.8c6.8-2.1,13-5.4,20-8.6
		c-2.4-0.4-4.2-0.7-6-0.9s-3.8-0.5-5.6-0.6c-10.4-0.9-20.9-1-31.3-0.8c-28.1,0.9-55.3,6.1-80.6,19c-2.9,1.5-5.6,3.1-8.5,4.7
		c-0.6,0.4-1.1,0.5-1.7-0.2c-4.4-5-9.7-9.1-14.6-13.5c-2.9-2.6-5.8-5.1-8.3-8.1c-0.4-0.4-0.9-0.8-0.4-1.5c4.5-6.1,6.6-13.4,8.5-20.6
		c3-11.4,4.9-23,7.6-34.4c2.5-10.1,5.8-20,8.9-29.9c6.8-22.1,15.4-43.6,26.3-64.1c5.6-10.5,16.3-27.5,21.7-33.9
		c-0.3,0.6-0.6,1.3-0.9,1.9c-7.6,15-15,30.2-21.5,45.8c-9.1,21.9-16.3,44.4-20.6,67.8c-2.1,11.4-3.5,22.9-4.3,34.5
		c-0.6,9.8-0.8,19.6-0.6,29.4c0,1.5,0.3,1.7,1.8,1.3c10.4-3,21-4.4,31.6-5.9c13.4-1.8,26.8-3.1,40.2-4.3c8.4-0.7,16.7-1.6,25.2-1.5
		c8.1,0,16.1,1.7,24.1,2.7c3.7,0.5,7.4,0.9,11.4,0.9c-1-1.7-1.8-3.3-2.6-4.9c-2.1-4-3.8-8.1-6.9-11.6c-3.3-3.8-7.6-5.8-12.5-5.3
		c-11.1,1.3-22.1,0.8-33.2,0.6c-8-0.1-16-0.3-23.9,1.3c-2.5,0.5-5,1.3-6.8,3.3c-0.4,0.4-0.7,0.5-1.1,0c-3.1-3.4-7.3-5.3-11-7.9
		c-0.6-0.4-1.3-0.9-2-1.4c-4-2.8-5.3-6.3-4-11.4c3-12.1,6.8-24,11.1-35.7c2.4-6.2,3.9-12.7,5.9-19c9.3-29.6,20.3-58.4,33-86.6
		c1.3-2.8,3.2-5,5-7.5c-1.2,4.3-2.4,8.5-3.6,12.8c-6,21-11.2,42.3-14.9,63.8c-2.5,14.9-4.1,29.8-4.9,44.9
		c-0.4,7.4-0.6,14.8-0.8,22.1c0,1.5,0.3,1.9,1.9,1.9c19.1-0.1,38.2-0.1,57.3-0.1c1.4,0,2.4,0.4,3.5,1.3c6.2,5.1,11,11.6,16.5,17.4
		c1.9,2,3.8,4,6.3,5.6c-1.7-10.6,4-17.1,12-22.8c-0.1,1.3-0.8,2.2-1.3,3.2c-2,4.9-3.8,9.8-3.9,15.1c0,2,0.3,3.9,1,5.7
		c0.7,1.6,1.5,1.7,2.8,0.6c0.8-0.6,1-1.4,1.4-2.3c0.4-1,0.6-2.1,1.4-3c1.1-1.4,2.3-1.5,3.4-0.2c2.8,3.2,6.5,2.8,10,2.3
		c2-0.3,3.6-1.3,5.3-2.4c1.4-1.1,2.7-1,3.6,0.5c0.5,0.8,0.8,1.8,1.2,2.6c0.4,0.7,0.6,1.5,1,2.1c1.3,1.6,2.6,1.4,3.3-0.5
		c1.6-4.2,0.9-8.4-0.2-12.5c-0.8-3-1.9-5.9-3.2-8.8c-0.3-0.7-0.8-1.4-0.9-2.3c7.1,5.9,13.5,12,11.9,22.5c1.4-0.6,2.5-1.6,3.5-2.6
		c4.8-4.5,9.1-9.5,13.5-14.4c2.3-2.4,4.3-5.5,7.3-6.8c2.5-1.1,5.8-0.3,8.7-0.3c16.8,0,33.7,0,50.5,0.1c1.4,0,1.8-0.3,1.8-1.8
		c-0.2-29.8-3.4-59.3-9.7-88.4c-4-18.5-9-36.6-14.3-54.8c0-0.2-0.1-0.5,0-0.8c1.5,2.4,3.3,4.5,4.5,7c11.8,25.6,22.7,51.6,31.3,78.4
		c2.7,8.3,4.8,16.7,7.2,25.1c1.7,6.3,4.5,12.2,6.4,18.5c2.2,7.1,4.2,14.3,5.8,21.5c0.8,3.6-0.3,6-3.1,7.9c-2.8,2-5.7,3.8-8.5,5.7
		c-2,1.4-3.9,2.9-5.5,4.9c-0.3,0.4-0.5,1.3-1.4,0.5c-3.4-3.1-7.7-3.6-11.9-4.1c-7-0.8-14-0.7-21-0.6c-8.5,0.1-17,0.7-25.4-0.1
		c-1.5-0.1-3-0.4-4.5-0.5c-6.7-0.6-11.8,2-15.4,7.5c-2.9,4.5-4.8,9.4-7.8,14.1c3.9,0.1,7.5-0.4,11-0.8c7.2-0.9,14.3-2.1,21.4-2.6
		c6.5-0.5,12.9,0.3,19.3,0.8c9,0.6,17.8,1.5,26.8,2.4c14,1.4,28.1,3.1,42,5.7c4.2,0.8,8.2,1.7,12.2,2.9c0.8,0.3,1.3,0.5,1.3-0.8
		c0.3-15-0.3-30-2-45c-4.1-36.5-15.5-70.8-30.8-104c-4.5-9.8-9.3-19.4-14.2-29c-0.3-0.6-0.6-1.3-0.8-2c3.3,4.3,6.3,8.7,9.3,13.2
		c17.2,26.4,29.5,55.1,38.8,85.1c2.3,7.3,4.3,14.7,6.6,22c3.3,10.4,4.7,21.3,7.3,31.9c2.2,8.6,4,17.3,8.1,25.3
		c0.7,1.3,1.3,2.6,2.3,3.8c0.8,1,0.6,1.6,0,2.5c-3.1,4.5-7,8.1-11.2,11.5c-3.8,3.2-7.9,6.1-11.5,9.6c-0.9,0.9-1.5,0.4-2.2,0
		c-10.2-6.1-20.8-10.8-32.1-14.4c-12.7-4-25.7-6.6-39-8c-10.8-1.1-21.7-1.5-32.5-1.1c-9.2,0.4-18.3,1.4-27.3,2.2c0,0.2,0,0.3,0,0.3
		c7.5,3.5,14.8,7.5,23,9.4c5,1.1,10.1,2,15.2,0.6c3.7-1,6.7,0.4,9.5,2.4c2.8,2,5.3,4.4,7.7,6.8c9.8,10.1,20,19.6,31.2,28.2
		c10.6,8.1,21.7,15.5,33,22.8c9.7,6.3,19.5,12.5,29,19c6.8,4.7,11.5,4.2,18.2-0.8c0.2-0.2,0.4-0.5,0.8-0.3
		c0.6,83.3-19.2,161.5-58.8,234.9c-0.5-0.8,0-1.1,0.3-1.6c11.2-26.3,19.3-53.6,25-81.6c2.8-14.3,5-28.8,6.5-43.3
		c2-18.7,2.8-37.5,2.9-56.3c0-3.9,0.2-7.8,0.8-11.6c1.5-9.1-2-16.3-8-22.7c-9.5-10-20.2-18.5-31-27.1
		c-14.2-11.4-29.2-21.4-43.8-32.2c-6.6-4.9-13.4-9.6-19.3-15.5c-4.2-4.3-9.5-5.9-15-7.3c-7.7-1.9-15.3-3.7-22.7-6.2
		c-1.3-0.4-2.7-1-4-1.5c-0.3,0.4-0.1,0.5,0,0.6c6.8,7.3,12.8,15.3,19.2,23.1c5.5,6.7,11.3,13.1,17.8,18.9c0.8,0.6,1.5,0.8,2.3,0.5
		c1.5-0.3,2.8-0.6,4.3-0.9c1-0.2,1.6,0,1.6,1.4c-0.2,13.3-0.1,26.6-0.3,39.9c-0.2,12.7-0.5,25.3-1,38c-0.5,15-1.3,29.8-2.4,44.8
		c-0.8,10.8-1.8,21.7-3,32.4c-1.5,14-3.5,28-5.9,42c-3.1,17.9-7,35.8-12.2,53.2c-4.8,16.3-10,32.5-17.2,47.9
		c-4.5,9.9-10.1,19.2-16.7,27.9c-0.3,0.5-0.7,0.8-1,1.3c-0.5-0.5,0-0.9,0.2-1.2c10.5-20,17.1-41.3,21.9-63.3c4-17.8,6.5-35.8,8.3-54
		c1.7-16.5,2.8-33,3.5-49.7c1.8-44.3,1.3-88.5,1.3-132.8c0-1.5,0.3-2.5,1.5-3.6c3-2.6,3.4-5.1,1.3-8.6c-2.4-4-5.7-7.3-8.8-10.8
		c-4.8-5.4-8.8-11.3-13-17c-4-5.4-7.8-10.9-13-15.3c-1.3-1.2-2.8-2.3-4.7-3c0,2.4,0.8,4.5,1.8,6.5c1.5,3.6,3.7,7,6.3,9.8
		c4.3,4.6,5,10.1,4.5,16c-0.6,8.5-2.8,16.8-4.8,25.1c-2.3,9.1-3.9,18.2-6,27.3c-4.5,19.4-10,38.5-17.1,57.1c-1.1,3-2.5,6-3.7,9
		c-0.3,0.5-0.2,1.5-1,1.5c-1,0-1.6-0.6-2-1.4c-0.6-1.3-0.9-2.8-1-4.3c-0.2-1.4-0.3-2.8-0.5-4.1c-0.1-0.7-0.2-1.8-0.9-1.8
		c-0.9,0-0.9,1.2-1,1.9c-0.4,2-0.5,4.1-0.9,6.2c-0.1,0.9-0.4,1.9-1,2.7c-1,1.3-2,1.1-2.6-0.4c-5-11.5-8.9-23.5-12.3-35.5
		c-7-24.7-12.8-49.8-18.3-74.9c-1.3-5.7-2-11.6-0.6-17.6c0.5-2.5,2-4.5,3.5-6.6c2.3-3.5,5-6.8,6.9-10.5c1.1-2.2,2-4.5,1.9-7.1
		c-3.8,1.5-6.6,4.1-9.2,6.9c-3.3,3.6-6.3,7.4-8.9,11.4c-5.9,8.9-12.3,17.3-19.5,25c-0.5,0.5-0.9,1-1.2,1.6c-2.5,3.9-2.4,6.3,1,9.6
		c1,1,1.5,2,1.5,3.5c-0.1,32.8-0.3,65.5,0.3,98.3c0.4,21.7,1.1,43.4,2.8,65c1.5,20.3,3.8,40.5,7.5,60.6c4,21.9,9.6,43.3,18.6,63.8
		c1.8,4,3.6,7.8,5.6,11.7C-155.5,829.7-155,830.1-155.2,831z"/>
</g>
</svg>
