<?xml version="1.0" encoding="utf-8"?>
<!-- Generator: Adobe Illustrator 19.0.0, SVG Export Plug-In . SVG Version: 6.00 Build 0)  -->
<svg version="1.1" id="Layer_1" xmlns="http://www.w3.org/2000/svg" xmlns:xlink="http://www.w3.org/1999/xlink" x="0px" y="0px"
	 viewBox="122 -185.8 851.1 1333.1" style="enable-background:new 122 -185.8 851.1 1333.1;" xml:space="preserve">
<style type="text/css">
	.st0{fill:#FEFEFE;}
</style>
<g id="XMLID_572_">
	<path id="XMLID_569_" class="st0" d="M604.5,221.2c37.8-27.9,75.2-55.1,112.2-82.6c5.3-4,7.9-3.6,12.1,1.4
		c9.3,11.4,18.6,22.6,27.5,34.3c3.7,4.9,3.2,7.8-0.8,12.2c-64.7,70.2-129,140.5-193.3,210.8c-13.5,14.9-13.5,14.7-27.1,0.1
		c-64.6-69.7-129.1-139.5-193.9-209c-5.7-6.1-6.6-10.3-1.4-17.1c8.6-11.5,18-22.4,27.3-33.2c3.8-4.4,6.3-3.6,10.4-0.5
		c35.3,26.6,70.9,52.9,106.1,79.5c5.6,4.3,7.7,3.6,10.7-2.6c10.4-21.7,21.8-43,32.3-64.6c2.5-5.2,5.4-6.8,11-6.7
		c16.6,0.5,33.4,0.1,50.1,0.2c8.5,0.1,14.4,5,15.8,12.9c0.8,4.2,0.5,6.8-5.2,7.1c-24.2,1.1-24.1,1.2-12.9,22.3
		C591.8,197.2,598,209.1,604.5,221.2z"/>
	<path id="XMLID_568_" class="st0" d="M545.8,574.5c-48.9-1-97.6-16.1-142.3-44c-4.6-2.9-5.9-4.7-1.9-9.6
		c35.3-44.2,70.4-88.5,105.4-133c3.4-4.2,4.8-4.1,8.1-0.2c9.5,10.8,19.6,21,28.9,31.9c3.5,4.1,5.3,3.5,8.5-0.1
		c9.3-10.5,19-20.6,28.4-31.3c3.6-4.1,5.4-4.1,8.9,0.4C624,432.8,658.5,477,693.1,521c3.5,4.4,2.5,6.1-1.8,9
		C648.4,558.7,601.6,574.3,545.8,574.5z"/>
	<path id="XMLID_567_" class="st0" d="M773.6,429.9c-0.6,1.4-1.3,3.2-2.3,5c-10.5,20.2-24.3,38.2-38.9,55.6c-4.2,4.9-6,1.7-8.5-1.1
		c-32.8-35.3-65.6-70.8-98.5-106.2c-13.1-14.1-13.1-14.3-0.2-28.6c10.5-11.9,21.3-23.4,31.6-35.3c3.1-3.7,4.8-3.4,7.9-0.2
		c35.1,35.2,70.3,70.4,105.5,105.6C771.7,426,773.6,427.1,773.6,429.9z"/>
	<path id="XMLID_566_" class="st0" d="M365.5,494.7c-0.8-1-1.8-1.9-2.6-3c-15.2-17.2-28.9-35.6-39.6-56.1c-2.2-4.1-2.2-6.7,1.4-10.3
		c35.1-34.7,70.1-69.7,104.8-104.7c3.8-4,5.7-3.7,9.1,0.4c12.9,15,26.1,29.7,39.6,44.2c3.6,3.8,3.5,6-0.1,9.7
		c-35.9,38.6-71.9,77.3-107.7,115.9C369.1,492.2,368.3,494.4,365.5,494.7z"/>
	<path id="XMLID_565_" class="st0" d="M777.4,419.6c-27.9-29.1-55.3-57.7-82.9-86.2c-7.4-7.7-15.1-15-22.9-22.3
		c-3.1-2.9-2.9-4.7-0.2-7.5c11.4-12.1,22.8-24.3,33.9-36.7c2.6-3,4.2-2.2,6.7,0.1c28,25.6,56.1,51,84.1,76.5
		c1.8,1.6,2.8,3.1,2.8,5.9C799,364.1,787.3,404.8,777.4,419.6z"/>
	<path id="XMLID_564_" class="st0" d="M314.9,418.3c-10.1-21.9-15.9-43.8-18.7-66.8c-0.5-3.7,1.3-5.9,3.7-8
		c27.3-24.8,54.7-49.7,81.9-74.7c3.7-3.5,5.6-3,8.9,0.6c10.5,11.7,21.3,23.2,32.1,34.7c2.5,2.6,4.2,4.4,0.5,8.1
		c-34.7,33.9-69.2,67.9-103.7,101.9C318.2,415.3,317,416.5,314.9,418.3z"/>
	<path id="XMLID_563_" class="st0" d="M769.1,196.4c22.8,43,33.3,87.4,31.4,136.9c-6.7-6-12.1-10.8-17.5-15.8
		c-21.2-19.3-42.4-38.7-63.6-58.1c-2.5-2.3-5.6-3.8-1.6-7.9C734.8,233.5,751.5,215.3,769.1,196.4z"/>
	<path id="XMLID_562_" class="st0" d="M294.9,334.2c-2.4-42.3,5.6-80.7,21.6-117.9c2-4.7,4.8-9.1,6.7-13.9c2-5.2,4.1-4,7.1-0.7
		c15.3,16.6,30.8,33.2,46.1,49.8c2.3,2.5,4.7,4.2,0.5,7.9C349.7,283.8,323,308.5,294.9,334.2z"/>
</g>
</svg>
