<?xml version="1.0" encoding="utf-8"?>
<!-- Generator: Adobe Illustrator 19.0.0, SVG Export Plug-In . SVG Version: 6.00 Build 0)  -->
<svg version="1.1" id="Layer_1" xmlns="http://www.w3.org/2000/svg" xmlns:xlink="http://www.w3.org/1999/xlink" x="0px" y="0px"
	 viewBox="-267 469 24 24" height="40px" width="40px" style="enable-background:new -267 469 24 24;" xml:space="preserve">
<style type="text/css">
	.st0{fill:#4caf50;}
</style>
<g>
	<path class="st0" d="M-255,469c-6.6,0-12,5.4-12,12s5.4,12,12,12s12-5.4,12-12S-248.4,469-255,469z M-260.6,484.6
		c0,0.7-0.5,1.2-1.2,1.2s-1.2-0.5-1.2-1.2V479c0-0.7,0.5-1.2,1.2-1.2s1.2,0.5,1.2,1.2V484.6z M-250.2,485.8c0,0.4-0.4,0.8-0.8,0.8
		h-0.8v2.8c0,0.7-0.5,1.2-1.2,1.2s-1.2-0.5-1.2-1.2v-2.8h-1.6v2.8c0,0.7-0.5,1.2-1.2,1.2s-1.2-0.5-1.2-1.2v-2.8h-0.8
		c-0.4,0-0.8-0.4-0.8-0.8v-8.1h9.7L-250.2,485.8L-250.2,485.8z M-259.8,477c0-1.6,0.8-3,2-3.9l-1.1-1.1c-0.2-0.2-0.2-0.4,0-0.6
		s0.4-0.2,0.6,0l1.2,1.2c0.6-0.3,1.4-0.5,2.1-0.5c0.8,0,1.5,0.2,2.1,0.5l1.2-1.2c0.2-0.2,0.4-0.2,0.6,0c0.2,0.2,0.2,0.4,0,0.6
		l-1.1,1.1c1.2,0.9,2,2.3,2,3.9H-259.8z M-246.9,484.6c0,0.7-0.5,1.2-1.2,1.2s-1.2-0.5-1.2-1.2V479c0-0.7,0.5-1.2,1.2-1.2
		s1.2,0.5,1.2,1.2V484.6z"/>
	<rect x="-253.4" y="474.6" class="st0" width="0.8" height="0.8"/>
	<rect x="-257.4" y="474.6" class="st0" width="0.8" height="0.8"/>
</g>
</svg>
