<?xml version="1.0" encoding="utf-8"?>
<!-- Generator: Adobe Illustrator 19.0.0, SVG Export Plug-In . SVG Version: 6.00 Build 0)  -->
<svg version="1.1" id="Capa_1" xmlns="http://www.w3.org/2000/svg" xmlns:xlink="http://www.w3.org/1999/xlink" x="0px" y="0px"
	 viewBox="115 461 40 40" style="enable-background:new 115 461 40 40;" height="40px" width="40px" xml:space="preserve">
<style type="text/css">
	.st0{fill:#7E57C2;}
</style>
<g>
	<path class="st0" d="M141.2,478.7c-0.9,0-1.8,0.4-2.5,1c-0.7,0.7-1,1.6-1,2.5s0.4,1.8,1,2.5c0.7,0.7,1.6,1,2.5,1
		c0.9,0,1.8-0.4,2.5-1c0.7-0.7,1-1.6,1-2.5c0-0.9-0.4-1.8-1-2.5C143,479,142.2,478.7,141.2,478.7z"/>
	<path class="st0" d="M135,461c-11,0-20,9-20,20s9,20,20,20s20-9,20-20S146.1,461,135,461z M138.3,491.1
		C138.3,491.1,138.3,491.1,138.3,491.1h-11.1c-0.1,0-0.3-0.1-0.3-0.2c-0.1-0.1,0-0.3,0.1-0.4l1.5-1.7v-1.2h-7.7
		c-0.2,0-0.4-0.2-0.4-0.4v-16c0-0.2,0.2-0.4,0.4-0.4h24.1c0.2,0,0.4,0.2,0.4,0.4v6.3c-0.6-0.5-1.3-0.9-2.1-1.1v-3.4h-20.7v12.6h13.7
		c0.2,0.3,0.5,0.7,0.8,1c0.4,0.4,0.9,0.8,1.5,1.1H137v1.2l1.5,1.7c0.1,0.1,0.1,0.2,0.1,0.3C138.6,490.9,138.5,491.1,138.3,491.1z
		 M134.4,480.4v1.9c0,0.3-0.3,0.6-0.6,0.6s-0.6-0.3-0.6-0.6v-1.9c0-0.3,0.3-0.6,0.6-0.6S134.4,480,134.4,480.4z M132.2,478v4.2
		c0,0.3-0.3,0.6-0.6,0.6s-0.6-0.3-0.6-0.6V478c0-0.3,0.3-0.6,0.6-0.6S132.2,477.7,132.2,478z M130.1,480.4v1.9
		c0,0.3-0.3,0.6-0.6,0.6c-0.3,0-0.6-0.3-0.6-0.6v-1.9c0-0.3,0.3-0.6,0.6-0.6C129.8,479.8,130.1,480,130.1,480.4z M128,478v4.2
		c0,0.3-0.3,0.6-0.6,0.6s-0.6-0.3-0.6-0.6V478c0-0.3,0.3-0.6,0.6-0.6C127.7,477.4,128,477.7,128,478z M125.8,476.5v5.7
		c0,0.3-0.3,0.6-0.6,0.6s-0.6-0.3-0.6-0.6v-5.7c0-0.3,0.3-0.6,0.6-0.6S125.8,476.2,125.8,476.5z M148.9,490.7
		c-0.2,0-0.4-0.1-0.6-0.3l-4.2-4.2c-0.8,0.6-1.8,0.9-2.9,0.9c-1.3,0-2.6-0.5-3.5-1.5c-0.9-0.9-1.5-2.2-1.5-3.5
		c0-1.3,0.5-2.6,1.5-3.5c0.9-0.9,2.2-1.5,3.5-1.5c1.3,0,2.6,0.5,3.5,1.5c0.9,0.9,1.5,2.2,1.5,3.5c0,1-0.3,2-0.9,2.9l4.2,4.2
		c0.3,0.3,0.3,0.9,0,1.2C149.3,490.6,149.1,490.7,148.9,490.7z"/>
</g>
</svg>
