<?xml version="1.0" encoding="utf-8"?>
<!-- Generator: Adobe Illustrator 19.0.0, SVG Export Plug-In . SVG Version: 6.00 Build 0)  -->
<svg version="1.1" id="Layer_1" xmlns="http://www.w3.org/2000/svg" xmlns:xlink="http://www.w3.org/1999/xlink" x="0px" y="0px"
	 viewBox="-267 469 24 24" height="40px" width="40px" fill="#ff7043" style="enable-background:new -267 469 24 24;" xml:space="preserve">
<path d="M-255,469c-6.6,0-12,5.4-12,12s5.4,12,12,12s12-5.4,12-12S-248.4,469-255,469z M-249.1,475.5c-1.6,0.1-2.6,0.6-3.8,1.7
	c1.3-0.4,2-0.4,3.1-0.4l-0.9,1.4c-1.8-0.1-2.7,0.4-4.2,1.5c1.3-0.3,2.2-0.3,3.4,0l-0.7,1.5c-1.9-0.3-3.2,0-5,1.3
	c1.7-0.2,2.9-0.3,4.3,0.2c-1.7,1.9-3.6,2-5.5,1.5c-1.1,1.1-1.6,1.9-2.6,3.6l-1.4,0.7c0,0,1.2-4.2,4.6-8.8c4.4-6,10-5.7,10-5.7
	C-248.3,474.1-249.1,475.5-249.1,475.5z"/>
</svg>
