<?xml version="1.0" encoding="utf-8"?>
<!-- Generator: Adobe Illustrator 19.0.0, SVG Export Plug-In . SVG Version: 6.00 Build 0)  -->
<svg version="1.1" id="Layer_1" xmlns="http://www.w3.org/2000/svg" xmlns:xlink="http://www.w3.org/1999/xlink" x="0px" y="0px"
	 viewBox="-162 200.1 287 393.9" style="enable-background:new -162 200.1 287 393.9;" xml:space="preserve">
<style type="text/css">
	.st0{fill:#3E1919;}
	.st1{fill:#DFA6A6;}
	.st2{fill:#C5C7D4;}
	.st3{fill:#797E89;}
	.st4{fill:#888FA3;}
	.st5{fill:#696D77;}
	.st6{fill:#BDC2D5;}
	.st7{fill:#575C68;}
	.st8{fill:#888FA2;}
	.st9{fill:#CDD4E7;}
	.st10{fill:#C74242;}
	.st11{fill:#2B1212;}
	.st12{fill:#898E9B;}
	.st13{fill:#5D616F;}
	.st14{fill:#CED6E9;}
	.st15{fill:#C64141;}
	.st16{fill:#5B606D;}
	.st17{fill:#B03939;}
	.st18{fill:#676D7B;}
	.st19{fill:#878EA1;}
	.st20{fill:#752727;}
	.st21{fill:#A33333;}
	.st22{fill:#3D1817;}
	.st23{fill:#B5BCCD;}
	.st24{fill:#801F1F;}
	.st25{fill:#2A1111;}
	.st26{fill:#C94242;}
	.st27{fill:#933131;}
	.st28{fill:#351616;}
	.st29{fill:#CFD7EA;}
	.st30{fill:#7A7E90;}
	.st31{fill:#3B1413;}
</style>
<g id="Layer_x0020_1">
	<g id="_494045764256">
		<path class="st0" d="M-1.7,237c-0.2-0.1-0.5-0.2-0.7-0.3c-0.4-0.1-0.7-0.3-1-0.5c-0.3-0.1-0.6-0.3-0.8-0.5c-0.3-0.1-0.6-0.3-1-0.5
			c-0.4-0.1-0.8-0.4-1.2-0.6c-0.2-0.1-0.5-0.2-0.7-0.4c-0.2-0.1-0.4-0.2-0.5-0.3c-0.4-0.2-0.7-0.5-0.9-0.8c-0.1-0.1-0.2-0.2-0.3-0.2
			c-0.4-0.3-0.7-0.6-1-1c-0.1-0.1-0.3-0.3-0.4-0.5c-0.1-0.1-0.3-0.2-0.4-0.3c-0.1-0.1-0.2-0.1-0.2-0.2l0,0c-0.3-0.1-0.7-0.3-0.9-0.5
			l-0.1-0.1c-0.3-0.1-0.6-0.3-0.9-0.5c-0.3-0.2-0.5-0.4-0.7-0.6l-0.2-0.2c-0.2-0.1-0.4-0.3-0.6-0.5c-0.1-0.1-0.2-0.2-0.4-0.4
			c-0.3-0.3-0.6-0.6-0.8-0.9l-0.2-0.2c-0.1-0.2-0.2-0.3-0.4-0.5c-0.1-0.1-0.2-0.3-0.3-0.4l-15.4,39.7c2.1,2.5,1.9,1.2-0.9,8.7
			c-0.9,2.3-2.4,7.1-3.5,9c-8.7,1.1-17.7,6.1-25.8,7.9c1.1-0.8,2.1-1.7,3.2-2.5c1.6-0.9,2.7-1.8,4.2-2.9c1.2-0.8,2.9-2.2,4.2-2.7
			c-0.7-1.6-2.4-4-2.7-5.2c-0.4-1.4,5.3-15.3,6-16.3l10.8,3l-5.3-2.9c0.1-1.4,0.5-3.6,1.2-4.7l3.2-0.2l12.1-29.5
			c-2.1,0.2,1.5,0.7-6.4,0.7h-14.9c-1.4-0.1-1.7-0.4-3.3-0.2l-2.1,0.8c1.3,0.3,3,0,4.5-0.1l-2.3,21.9c-3.6-0.3-6.4-3.3-11.4-0.2
			l-0.6,0.4c0-0.1-0.1-0.2-0.1-0.2l-0.5-0.8c-0.2-0.2-0.3-0.5-0.5-0.8c-1.4-2.5-5.6-9.4-6.1-11.1c-0.8-0.4-4-6.4-4.2-7.4
			c-1.9,0.1-2.4,0.1-4.1-0.6l1.1,0.9c0.4,2.5,4.2,7.5,4.7,10.4c1.4,1.5,4.9,9.9,4.7,12.5c-6.3,0.9-9.5,1.4-12.4,5.3l-11.4-13
			c-0.8-0.6-1.1-1.1-1.5-2.1c-1.5-0.8-4.3-4-6.5-4.2c0,0.1-0.1,0.1-0.1,0.2l-0.4,0.6c-0.9,0-1.8,0-2.7,0h-1.9
			c-0.1,0-0.2,0.1-0.2,0.1c-0.1,0-0.2,0.1-0.2,0.1c-0.1,0-0.2,0.1-0.2,0.1c0.8,0.6,0.8,0.6,1.6,1.3c2.5,2.3,7.4,5.8,9.8,8.4
			c0.6,0.2,0.9,0.6,1.4,1l8,6.6c0.9,0.6,0.5,0.2,1.3,1.2c-0.5,0.9-1.2,1.7-2.1,2.4l-6.4,6.9c-1-0.3-2.7-1.6-3.7-2.3
			c-1.3-0.8-2.3-1.5-3.7-2.4l-7.5-4.7c-2.2-0.5-4.6-2.4-7.3-3c0.2,1-0.7-0.4,0.2,0.6c0.1,0.1,0.1,0.2,0.2,0.3
			c0.1,0.1,0.2,0.1,0.3,0.2c0.1,0.1,0.2,0.1,0.3,0.2h-9.7c-1-0.1-2-0.8-3.1,0.4c3.7,0.4,5.7,1.2,8.9,2.6c1.2,0.5,6.6,3.2,7.1,3.7
			c3.5,1.2,12.4,7.1,14.7,7.7c-0.4,1.3-2.9,5.5-4,6.3c-6.2,4.7-8.7,4.7-14.9,2.7c-0.9-0.3-2.8-0.9-3.5-1.3c-1.5-0.8-1-1.6-2.2-2.7
			c-1.7-0.2-3.7-0.4-5.4-0.1c-1.3,0.4-3,0.2-4.4,0.2l1.2,0.4c0.1,0,0.2,0.1,0.3,0.1c0.1,0,0.2,0.1,0.3,0.1c-6.4,0-7.8,0.1-13.6-0.3
			c-0.3,0-2.9-0.4-2.5,0.9l0.3,0.3c0.9-0.2-0.2,0,0.6-0.3c0.7-0.3-0.2-0.2,1.1-0.2c0.6,0,1.7,0.1,2.3,0.2l3.8,0.3l2.6,0.4
			c1.5-0.3,10.2,0.5,12.1,0.8l-6.1,22.3l-7.1,2.4l-0.5,8.9l7.8-1.3c0.8,2.7,1,8,1.8,11.5c1.2,5.2,1.1,4.1,3.2,6.8
			c0.7,0.9,0.5,1.6,2,1.6l6.8-2.4c2.8,6.6,6.9,12,12,16.8c0.8,0.8,1.8,1.5,2.5,2.3c0.7,0.9,0.2,0.6,1.1,1.3c0.6,0.5,0.9,0.5,1.4,1.1
			c0.3,0.7-4.8,32.2-5.8,37.3c-0.7,3.9-1.1,8.9-2.1,12.5c0.3,0.4,0.3-0.1,0.6,1l5.9-4.7c1.5-1.6,0.5-2.2,1.4-5.2
			c3.5-1.4,7.1-1.4,9.8-3.6l6.3-5.3c0.5-0.7,0.1-0.9,0.8-0.4c0.9-0.6,0.8-1.1,1.8-1.3c0.7-0.1,1.7,0.3,2.4,0.5c2.6,0.8,2.4,0.8,5,0
			s7.4-2.6,9.9-3c-1,1.2-2.8,1.8-3.3,3c1.1,0,4.9-1.5,6.5-2c2-0.6,1.9-0.2,2.5-2.1c0.4-1.2,0.7-2.3,1.1-3.4c1.3-3.9,3-10.4,4.6-13.5
			c0.7-0.8,68.5-18.3,69.7-18.1c1,2.1,0,6.8-1,9c-1.6,1-12.1,4.7-14.8,5.6c-5,1.8-9.9,3.6-14.8,5.5c-4.2,1.6-28.2,10.1-29.9,11.3
			c0.5,1,0.8,1.4,1.4,2.2L22.8,356c-1.1,1.1-8.5,5.2-10.3,6.2c-3.6,2-7,4.1-10.5,6.2l-10.7,6.1c-1.8,1.1-3.5,1.9-5.2,3
			c-1.6,1-3.7,2.3-5.4,3c0.9,1.2,2.3,2.1,3.5,3l1.8,1.5c0.8,0.7,1,0.8,1.8,1.5l7.4,5.9L-23,450.2c-1.2,3.8-0.4,3-6.6,6.2
			c-1.4,0.7-7.6,3.9-8.1,4.7c1.1,0.6-0.2-0.4-1.8,1.8c-1,1.4-0.7,1.1-2.2,2c0.2,1.5,0.8,2.4,1.7,3.9c0.3,0.6,0.1,0.2,0.4,0.6
			l0.4,0.6c1.3-0.6,5.9-2.4,6.6-3.1c-1.2,0.7,0,0.9-2.1-4.5c2.1-1.3,4.6-2.8,7-4.1c1.5-0.8,5.9-3.6,7.4-3.9
			c0.1-2.1,12.7-40.1,14.4-45.8c1.5-4.8,4-11.1,4.9-15.7l-10.6-8.9c0.1,0,0.2-0.2,0.2-0.1l42.1-25.5c-1.2,5-2,10.9-3,16
			c-0.5,2.6-0.9,5.1-1.4,7.7c-0.2,1.3-0.5,2.6-0.7,3.9c-0.6,3.5,0,1.3-2.4,4.5l-4.2,4.9c-0.7,0.6-0.7,0.4-1.1,1.3L14.4,417
			c0.7,0.5,2.9,1.9,3.8,2.2l-20,29.5l-21.9,11.2c-1.8,0.9-2.1,2.8-1.6,3.7l7.5-3.1c1-0.9,11.3-5.4,13.6-6.3c1.1-0.5,2.2-1,3.3-1.5
			c3.7-1.5,3.8-3.5,7.4-8.1l14.8-20.5c0.7-1,1.8-2.1,1.9-3.2c0.6-1.6,2.2-1.3,3.8-1.3c0.2,0.4,0.3,0.7,0.5,0.9l0.8,1.2l0.3-1.6
			l-3.3-2.4c-1.2-1-2-1.9-3.2-2.5l3.2-15.7l3.9-1.7c1.2-0.7,5.3-9.5,6.1-11c2.7-5,5.2-9.8,7.7-14.8s5.4-9.8,7.7-14.8l7.9-14.9
			c-0.9,3.5-3.4,9-4.8,12.8l-12.1,32.3c-0.8,2.1-2.2,4.7-1.9,6.8c0.6,0.7,13.8,34.2,16.1,39.1L68.5,462c1.5,3.3,3.1,6.7,4.3,10
			c-2.7-1.4-5.7-3.5-8.3-5.1l-16-10.1c-1.5-0.9-2.7-1.6-4.1-2.6c-0.8-0.5-1.4-0.8-2.1-1.3c-1-0.6-1.1-0.9-2.2-1.1
			c-0.7,1.2,0.4,0.1,0.2,1c-2.3,0-10-0.2-11.2,0.3c0.8,1,12.3,7.6,14.4,8.9l21.4,13.5c2.4,1.5,4.9,3,7.4,4.5
			c2.1,1.2,1.4,0.8,2.4,3.3c0.5,1.4,1.1,2.7,1.6,4.2c1.1,2.9,2.1,5.9,3.3,8.5l-0.2-1.6c2.2,0,5.3-0.2,7.4,0.3
			c1.4,0.3-0.7,0.8,0.7,0.1c-0.1-1.5-37.1-87-42.4-99.2c-1.7-3.9-1.4-2.5,1.4-10c3.1-8.2,17.6-47.5,20.4-50.7l-12.7,52
			c-0.3,1.5-0.7,2.9-1.1,4.4c-0.6,2.4-0.5,1.9,0.3,4.1c4.8,13.1,9.3,26.9,14.2,39.9l8.5,24c0.9,2.4,2.3,6,2.8,8.3l1-0.9
			c4,0,2.6,0.2,3.3,0.5c1.2,0.5-0.9,1.1,0.6,0.1c-0.2-3.3-5.7-15-6.8-19.4c0.5,1.1,1.3,2.1,1.9,3.7c0.1-0.1,0.2-0.3,0.3-0.2
			c0.1,0.1,0.2-0.1,0.3-0.2c1.3-0.6,4.6-0.4,6.2-0.4c1,0,1.3,0.1,2.2,0.7c2.3-10.3,4.6-15.6,2.1-26.6c-2-8.6-4-17.2-4.8-26
			c-0.9-10.2,1-17.1,5.3-25.6c1.8-3.4,3.4-7.2,5.2-10.3c1.9-3.3,3.7-6.6,5.6-9.9c3-5.4,8.8-14.9,11.2-19.8c1.2-2.4,4.6-8,4.9-10.7
			c0.5-5.2-3.2-8.3-5.2-10.4c-1.3-1.5-2.5-2.3-4.4-3.4c-1.6-1-3.1-1.9-4.9-2.7c-3.5-1.5-7.9-2.9-11.7-3.8c-8.2-1.8-19.9-3-28.4-2.2
			l0.5-4.5c-1.6,0.4-3.3-0.3-4.1-1.8c-0.2-0.3-0.4-0.5-0.5-0.8c-0.2-0.3-0.3-0.7-0.4-1c-0.2-0.2-0.3-0.5-0.4-0.8
			c-0.1-0.1-0.1-0.2-0.1-0.2c-0.2-0.3-0.4-0.5-0.5-0.8v-0.1c-0.2-0.3-0.4-0.5-0.5-0.8c-0.1-0.2-0.2-0.5-0.3-0.7
			c-0.2-0.3-0.4-0.7-0.5-1.1c-0.2-0.2-0.3-0.5-0.4-0.7c-0.3-0.3-0.6-0.7-0.7-1.1l-0.1-0.1c-0.3-0.3-0.5-0.6-0.7-0.9
			c-0.4-0.2-0.8-0.4-1.1-0.7c-0.1-0.1-0.2-0.2-0.3-0.3c-0.6-0.5-1-1.2-1.1-2l-0.1-0.3c-0.1-0.2-0.2-0.5-0.3-0.8
			c0-0.1-0.1-0.2-0.1-0.3c-0.1-0.2-0.1-0.3-0.2-0.5c-0.1-0.2-0.2-0.3-0.2-0.5c0-0.1-0.1-0.2-0.1-0.3c-0.4-0.4-0.7-0.9-0.9-1.4
			c-0.4-0.5-0.7-1-0.8-1.5c0,0,0-0.1-0.1-0.1c-0.2-0.2-0.3-0.3-0.4-0.5l-0.1-0.1c-0.2-0.2-0.5-0.5-0.6-0.8c-0.2-0.1-0.4-0.3-0.6-0.5
			s-0.3-0.3-0.5-0.5c-0.2-0.2-0.4-0.5-0.6-0.8c-0.1-0.2-0.3-0.5-0.4-0.7c0-0.1-0.1-0.2-0.1-0.3c-0.1-0.1-0.1-0.3-0.2-0.4
			c-0.1-0.2-0.2-0.3-0.3-0.5c-0.2-0.2-0.3-0.5-0.5-0.7c-0.2-0.2-0.3-0.4-0.4-0.7c0,0,0-0.1-0.1-0.1c-0.1-0.2-0.2-0.4-0.3-0.6
			c0-0.1-0.1-0.1-0.1-0.2s-0.1-0.1-0.1-0.2c-0.1-0.1-0.2-0.2-0.2-0.3c-0.1-0.2-0.2-0.3-0.3-0.5s-0.3-0.4-0.4-0.6
			c-0.2-0.3-0.4-0.7-0.5-1.1c0-0.1-0.1-0.2-0.1-0.3c-0.1-0.1-0.1-0.2-0.1-0.3c-0.1-0.2-0.3-0.5-0.4-0.7c-0.1-0.1-0.1-0.2-0.2-0.3
			c-0.1-0.1-0.2-0.2-0.2-0.3c-0.1-0.1-0.2-0.3-0.4-0.4c-0.1-0.1-0.2-0.2-0.2-0.3c-0.1-0.2-0.3-0.4-0.4-0.6c-0.1-0.2-0.3-0.4-0.4-0.6
			c-0.1-0.2-0.2-0.4-0.3-0.6s-0.2-0.4-0.3-0.6c-0.1-0.1-0.2-0.3-0.3-0.4l-0.1-0.1c-0.2-0.2-0.4-0.4-0.5-0.6v-0.1
			c-0.1-0.1-0.3-0.3-0.4-0.4s-0.2-0.2-0.2-0.3l0.1,0.1c-0.2-0.2-0.3-0.3-0.5-0.5c-0.1-0.1-0.2-0.3-0.3-0.5s-0.3-0.3-0.4-0.5
			c-0.2-0.2-0.3-0.4-0.5-0.6c-0.6-0.6-0.9-1.4-1-2.3c-0.6-0.2-1-0.5-1.4-0.9c-0.5,0.3-1,0.6-1.6,0.7c-0.1,0-0.2,0.1-0.3,0.1
			c-0.3,0.2-0.6,0.4-0.9,0.6c-0.6,0.3-1.1,0.5-1.8,0.6c-0.1,0-0.2,0.1-0.3,0.1c-0.3,0.1-0.5,0.1-0.8,0.1c-0.4,0.1-0.7,0.2-1.1,0.2
			h-1.6c-2,0-3.6-1.6-3.6-3.6c0-0.5,0.1-1.1,0.3-1.5c-0.8-0.7-1.3-1.7-1.3-2.7c0-0.2,0-0.4,0-0.5c-1.2-0.6-2-1.7-2.1-3.1l-0.2,0.1
			c-0.4,0.2-0.8,0.2-1.3,0.2c-1.1,0-2.1-0.5-2.8-1.3c-0.5,0.3-1.1,0.4-1.7,0.4c-1.5,0-2.8-0.9-3.3-2.2c-0.1-0.1-0.2-0.1-0.3-0.2
			c-0.3-0.1-0.5-0.2-0.8-0.3s-0.5-0.2-0.7-0.3c-0.1,0-0.2-0.1-0.3-0.1c-0.1,0-0.2-0.1-0.4-0.1c-0.3-0.1-0.6-0.2-0.9-0.3
			c-0.2-0.1-0.3-0.1-0.5-0.2l0,0c-0.3-0.1-0.5-0.2-0.7-0.3c-0.3-0.1-0.6-0.2-0.9-0.4l0,0c-0.4-0.1-0.7-0.3-1.1-0.5
			c-0.1,0-0.2-0.1-0.3-0.1c-0.3-0.1-0.6-0.2-0.9-0.3c-0.2-0.1-0.4-0.1-0.6-0.2c-0.2-0.1-0.3-0.1-0.5-0.2c-0.3-0.1-0.7-0.3-0.9-0.5
			C-1.1,237.3-1.4,237.1-1.7,237z M65.9,290.7L65.9,290.7c0-0.1-0.1-0.2-0.2-0.3C65.9,290.5,65.9,290.6,65.9,290.7z"/>
		<g>
			<path class="st1" d="M-136.1,368.4c2.7-0.4,5.3-2.1,7.8-3.2c2.7-1.1,6.4,1.1,9.3,1.5c0.3-1.9,0.8-1.8-1.8-3.7
				c-1.2-0.9-2.4-2-3.8-2.5L-136.1,368.4z"/>
			<path class="st1" d="M-138.6,375.8c-1.4,2.7-0.4,7.4,2.7,8.6l6.4,2.3c-1.8-1.5-3.8-2.8-5.8-4.1
				C-137.5,381-137.6,378.4-138.6,375.8z"/>
		</g>
		<g>
			<path class="st2" d="M-110,438.9c-2.8-5.8-7.4-19.8-1.3-24.7l4.4-3.8c1.4-1,1.1-0.7,1.6-1.7c-1.2,0.4-3.3,1.7-4.1,2.2l-4.9,4.3
				c-1.5,1.9-2.6,4-2.6,6.5C-116.8,427.3-113.1,435.8-110,438.9z"/>
			<path class="st2" d="M-93.6,411.9c1-0.7,0,0.2,0.7-0.6l13.5-19.4c0.8-1.1,1.5-2,1.8-3.6s0.7-3.1,0.9-4.6
				c-0.8,0.6-7.5,12.2-8.6,14C-86.6,400-93,410.3-93.6,411.9z"/>
		</g>
		<g>
			<path class="st3" d="M-137.7,276.2c2.3,0,12.4,0.1,13.8,0.7c1.7-0.3,3.6,0,5.4,0.1c1.2,1.1,0.6,1.9,2.2,2.7
				c0.7,0.4,2.7,1.1,3.5,1.3c6.2,2,8.8,2,14.9-2.7c1.1-0.8,3.5-4.9,4-6.3c-2.4-0.6-11.2-6.5-14.7-7.7c0.8,1.6,2.8,5.3,2,7
				c-1.6,3.4-11.4,2.5-15.3,2.7C-125,274.2-135.5,275.2-137.7,276.2z"/>
			<path class="st3" d="M-91.9,244c0.4,0.9,0.7,1.4,1.5,2.1l11.4,13c2.9-4,6.1-4.4,12.4-5.3c0.1-2.7-3.3-11-4.7-12.5
				c0,2.8,0.3,5.5-1.7,6.7c-2.1,1.2-4.5,1.3-6.9,1C-84.4,248.5-88.2,245.8-91.9,244z"/>
			<path class="st3" d="M-68.7,237.9c0.5,1.7,4.6,8.6,6.1,11.1c0.1,0.2,0.3,0.5,0.5,0.8l0.5,0.8c0,0,0.1,0.1,0.1,0.2l0.6-0.4
				c4.9-3.1,7.8-0.2,11.4,0.2l1.5-13.4c-3.3,2.4-0.2,6.7-9.3,4.8C-60.9,241.2-65.7,239.6-68.7,237.9z"/>
			<path class="st3" d="M-105.6,259.4l7.5,4.7c1.4,0.9,2.4,1.6,3.7,2.4c1,0.7,2.7,2,3.7,2.3l6.4-6.9c0.9-0.7,1.6-1.5,2.1-2.4
				c-0.7-1-0.3-0.6-1.3-1.2l-8-6.6c-0.5-0.4-0.8-0.8-1.4-1c0.7,2.3,3.1,8.6,1.1,10.2C-93.2,262-103.1,259.9-105.6,259.4z"/>
			<path class="st3" d="M-34.9,246.4c-1.3,0.9-1.8,1.4-2.4,2.9c-1-0.3-0.9-0.2-2-1.5c-0.6-0.7-0.7-0.7-0.9-1.8l-1.8-9.1
				c-0.5-2.8-0.3-2.5-0.2-5.1l-1.5,19.1l6.4,2.1L-34.9,246.4z"/>
		</g>
		<g>
			<path class="st4" d="M87.6,494.7l0.8,0.7c0.3-3-3.2-11.1-4.4-14.4c-0.8-2.2-4.1-12.4-4.9-13.4c-0.5-2.4-1.9-5.9-2.8-8.3l-8.5-24
				c-4.8-13-9.3-26.8-14.2-39.9c-0.8-2.2-1-1.8-0.3-4.1c0.4-1.5,0.7-2.9,1.1-4.4l12.7-52c-2.7,3.2-17.3,42.5-20.4,50.7
				c-2.8,7.5-3.1,6-1.4,10C50.5,407.7,87.5,493.2,87.6,494.7z"/>
			<path class="st4" d="M90.8,464.2l0.2,1.3c1-1,2.9-8.7,3.1-9.8c0.8-3.5,1.4-7.1,1.8-10.6c3-24.2-5.1-30.5-5.5-43.4
				c-0.2-6.7,1.8-14.6,4.1-20.9c4.6-12.5,11-23,17-33.2c2.9-4.9,12.2-18.9,13.2-24.1c1-4.9-0.2-6.4-1.8-10.3c-0.3-0.1-0.1,0-0.6-0.6
				c-2.4-3.1-3-3.4-5.8-5.8l-4.6-3c-4.8-2.5-8.8-4.3-14.3-6.1c-11.6-3.9-21.9-5.4-33.7-7.5c0.4,1.3,1.1,1.7,1.8,2.6
				c2.2,3.2,4.5,3.2,9.2,3.7c12,1.2,30.1,4.8,38.8,11.8c8.8,7.1,6.6,15,2.1,24.3c-1.9,4-3.8,7.3-5.9,11.1
				c-4.2,7.7-15.6,26.7-18.2,32.5c-10.5,22.8,2.1,40.3,2.1,57.7c0,5.5-0.8,9.7-2.1,15c-0.7,3-1.3,3.9-1.3,7.2
				C90.4,459,90.7,461.5,90.8,464.2z"/>
			<path class="st4" d="M-100.8,470.9c0.6,1.4,0.5,0.3,2.7,2.9c0.9,1,1.6,2,2.6,2.8c1.6-0.3,4-1.2,5.2-1.9c0.8-4-1.5-3.6-4.5-5.1
				c0.2,0.7,0.9,1.8,1.2,2.3L-100.8,470.9z"/>
		</g>
		<g>
			<path class="st5" d="M-56.7,513.7c0.6-1-0.5-0.3,1.2-1l3.6-1.6c1.6-0.8,3.2-1.6,4.7-2.3l0.7,0.6c0.1,0.1,0.5,0.6,0.5,0.7
				c0.3,0.4,0.7,0.9,1,1.4l16.5,22.1c0.6,0.9,1.3,1.8,2.1,2.8l12,16.4l0.8,0.8c0.4,0.4,0.2,0.3,0.5,0.7c0.7,0.9,0.2,0.3,1.4,1
				c-0.3-1.5-13.1-29.5-14.9-33.7c-1.7-3.8-3.2-7.5-4.8-11.3c-6.6-15-4-12.9-10.2-14.1c-2.1-0.4-4.5-0.8-6.7-1.2
				c-4.6-0.8-9.1-1.7-13.7-2.4c-9.1-1.4-4.8-1-8.2-3.9c-0.9-0.8-1.2-1.2-1.8-2.2l-10.9,2.2c0.9,1.9,3,2.3,4.9,4.7
				c1.2,1.6,3.2,2.3,4.9,4.5l6.6,6.1c3.1,2.5,1.9,2,3.2,3.2c1,0.9,2.6,1.9,3.5,2.9l3,3.1C-56.9,513.4-56.8,513.6-56.7,513.7z"/>
			<path class="st5" d="M23.3,440.9c0.7,1.3,6.7,4.6,8.3,5.6c1.5,0.9,7.6,4.5,8.2,5.5c1.1,0.1,1.3,0.4,2.2,1.1
				c0.7,0.5,1.3,0.8,2.1,1.3c1.4,0.9,2.6,1.7,4.1,2.6l16,10.1c2.6,1.6,5.6,3.7,8.3,5.1c-1.2-3.3-2.9-6.7-4.3-10l-12.6-28.7
				c-2.3-4.9-15.5-38.4-16.1-39.1l1.7,51.4L23.3,440.9z"/>
			<path class="st5" d="M-89.8,551.8c5.7-1.8,14.5-3.5,20.6-4.7c3.9-0.8,12.2-2.9,15.9-3.3c1.9-0.2,3.1,0.7,4.8,1.5
				c3,1.3,33.3,14.2,36.3,15c-0.6-0.8-0.6-0.7-1.2-1.5c-0.4-0.6-0.4-0.6-1-1.1c-0.8-0.7-1.4-1.2-2.3-2c-3.5-3-2.7-2.9-4.3-4.2
				c-1.2-1-3.7-2.9-4.5-4c-1.6-2.1-2-2.2-4.3-4.2c-1-0.8-1.5-1.2-2.3-2.3c-1.2-1.6-4.4-3.9-5.5-5.1c-0.5-0.6-0.4-0.7-0.9-1.2
				c-0.9-1.1-3.3-3-4.5-4c-1.9-1.6-1-1.2-2-2.2c-0.4-0.4-1.8-1.7-2.3-1.8c-0.7-0.1-21.5,8.9-24,10.1c-8.1,3.6-5.4,3-10.9,6.4
				l-9.8,7.3c0.7,0.5-0.4-0.2,0.4,0.3L-89.8,551.8z"/>
			<path class="st5" d="M-25.4,463.7c-1.8,0.9-5.5,2.9-7.3,3.2c-0.7,0.7-5.2,2.6-6.6,3.1l-19.2,8.8c-1.1,0.5-2,1-3.1,1.4l-3.2,1.6
				c0.2,0.9,0.4,1.8,0.6,2.6l0.6,1.9l31.1,2.7l1.7,0.1L-22,508l3.9-4.3c0.5-0.5,0.2-0.2,0.5-0.5c-0.9-0.5-1.5-1.6-2-2.5
				s-0.9-1.5-1.5-2.4c-1-1.4-2.3-3.5-3.2-5c-4.6-7.8-5.3-5.8-3.4-10.1c1.9-4.4,8.6-19.1,9.8-22.6L-25.4,463.7z"/>
			<path class="st5" d="M-13.7,522.6l-2-10.5l-2.4,2.8l3.6,8.9c0,0,0,0.1,0,0.2C-14,522.8-14.6,523.6-13.7,522.6z"/>
		</g>
		<g>
			<path class="st6" d="M-118.9,332c-0.8,1.6-0.4-0.3-1.3,1.8c-1.1,2.7-5.4,13.4-5.4,14.7c0.5,0.9,0.3,0.5,0.7,0.9l0.6,0.6
				c0,0,0.1,0.1,0.1,0.2l6.5,7.8c0,0.1,0.1,0.1,0.1,0.2l0.6,0.9c0.8,1,2.4,2.5,2.8,3.6c0.6,1.6-0.4,11.6-0.4,14.2l0.2,3.5
				c1.5,0.5,7,2.6,8,3.4l-0.2,14.9c-0.8,0.6-1,0.5-1.8,1.1c-0.6,0.4-1,0.8-1.7,1.3c-3.9,3.1-6.7,4.8-8.5,9.8c0.7-0.6-0.1-0.3,1-0.1
				c0.4-0.7,0.7-1.4,1.1-1.9l1.1-1c0.2-0.2,0.2-0.3,0.4-0.5c0.8-0.8,2.2-1.6,3.4-2.4c3.6-2.4,7.1-2.1,8.6-3l0.1-1.1
				c1-3.6,1.4-8.6,2.1-12.5c0.9-5.1,6.1-36.6,5.8-37.3c-0.5-0.5-0.8-0.6-1.4-1.1c-0.9-0.7-0.4-0.4-1.1-1.3c-0.7-0.8-1.7-1.6-2.5-2.3
				c-5.2-4.8-9.2-10.2-12-16.8L-118.9,332z"/>
			<path class="st6" d="M-136.2,424.9l0.7,0.2c0.1,0,0.2,0,0.3,0l2.7,0.1c2.1-0.7-3.1-0.6,5.2-1.3c2.6-0.2,4.8-0.1,5.8-1.2v-0.9
				c-0.5-0.6-0.2,0.4-0.5-1.1c-0.1-0.3,0-0.7,0-1.1l-9.5,1.2c-0.4,0.8-1.4,3-1.3,4C-134.3,424.8-134.9,424.6-136.2,424.9z"/>
		</g>
		<g>
			<path class="st7" d="M56.5,335.6c-6.1,1.1-9,3.1-10.9-4c-1.6-6.1-7.9-41.4-7.6-42.6l3.5-3.9c0.6-0.6,0.8-0.5,1.4-1l3.5-3.8
				c0.7-0.8,0.5-0.8,1.6-1.3c-1.2-1-2.7-3.7-3.6-5c-1.1-1.5-2.3-3.6-3.6-4.6l1.6,5.1l-14.6,5.4l7.6,49.4c-4.1,2.3-26.6,8.3-29,10
				c6.4,0.4,14-0.1,20.7,0c8.7,0.2,13.1-1.4,13.1,7.3c0,5.8-1.9,11.5-3.4,17c-1.4,5.3-3.9,10.3-5.3,15.3l1.1-1.4
				c0.3-0.4,0.5-0.9,0.8-1.3l4.6-8.1c2.1-3.6,4.1-7.2,6.3-10.7l9.3-16.2C54.3,339.5,55.9,337.3,56.5,335.6z"/>
			<path class="st7" d="M-87.8,418.2c-0.9,0.4-3.4,2.7-4.2,3.4c-0.5,0.5-0.5,0.7-0.9,1.2c-1.2,1.4-5.2,4.2-6.7,6.3
				c-0.7,0.9-2.7,3-3.8,3.4c0.1-2.2,0.1-4.5,0.2-6.7c0-3.8-0.1-2.3,1.4-5.1c1.6-2.9,3.4-5.5,4.8-8.3c-8.7-1.4-16,8.3-12.5,16.7
				c0.5,1.3,1.3,2.6,2,3.2c2.8,2.8,5.9,5.1,11.2,4.3c3.6-0.6,4.8-1.8,6.8-3.5c1-0.9,1.3-1.2,2.2-2.9
				C-85.3,426.4-85.5,421.4-87.8,418.2z"/>
			<path class="st7" d="M-130.3,440.2c1.2-1,8.6-6.2,9.9-6.5l-1.6-4.2c-2.8-0.4-13.7-2.1-15.6-1.8l-4.5,10.3c0.6,0.1,7.9,3.9,8.3,5
				c1.1,2.9-0.6,2.6,1.9,4.7c1.2,1,2.7,1.5,4.9,1.6C-127.9,447-130.1,442.7-130.3,440.2z"/>
		</g>
		<g>
			<path class="st8" d="M-52.3,450.4c-0.1-0.1-1.8,0.6,0-1.2c0.3-0.3,0.7-0.3,1.2-0.7c0.8-0.6,0.2-0.1,0.8-1l7.9-7.6
				c1.4-1.2,0.9-3.6,0.9-6.1c0-9.2,0-18.5,0.1-27.7c-1.3,0.4-1.1,0.7-2,1.7l-29.7,21.3c-0.8-4-1.5-8.5-2.2-12.6
				c-0.5-3.4-1.5-3.6,0.7-5.3c0.9-0.7,1.1-0.8,1.8-1.8c0.7-1,0.9-1.1,1.8-1.8c0.8-0.7,1.4-1.1,2.2-1.8c1.1-0.9,0.9-1,1.7-1.9
				c1.1-1.2,2.8-2.2,4-3.3c0.7-0.7,0.3-0.5,0.9-1.2c1.3-1.6,1.8-0.7,1.7-3.3c0-2.4-0.2-4.9-0.2-7.4l-0.8-0.5c0.4,2.1,0.2,3.1,0,5.1
				c-0.3,4-1.2,2.6-3,5c-0.7,0.9-0.4,0.8-1.2,1.5L-79,412.6c-0.6,1.2,3.5,14,3.7,16.6c0.1,1.3-1,2.3-1.7,3.4s-1.3,2-2,3.1
				c-1.3,2.1-3,4.3-4,6.4l5.3,5c1.2-0.4,1-0.5,1.8-1.3l3.5-3.7c1.7-1.8,2.9-3.5,5.1-4.9c2.5-1.7,8-8.8,10-10c0.2,6.9,1.7,3.9-1.9,9
				c-0.6,0.9-0.9,1.5-1.5,2.4c-4.2,6.2-12.3,17.6-16,23.5l-1.6,2.3c-0.8,1.1-0.7,1.2-1.3,2.2c1.1-0.7,2-1.6,2.9-2.5
				c1-1,8.8-5.3,10.3-6.1L-52.3,450.4z"/>
			<path class="st8" d="M-36.9,376.2c-2.4,0.4-12.4,4-15.9,5.2c-1,0.3-1.9,0.6-2.7,0.9l-2.5,1.2c2.1,0.5,29.6,14.1,31.2,14.4
				c-0.4,5.6-1.4,11.4-2,17.1c-1.1,9.7-2.5,15.2-4.1,24.2c-0.9,4.8-0.5,5.5-2.5,6.8l-54.5,39.8c1.9-0.4,4.8-2.8,6.7-3.8
				c2.1-1.2,4.4-2.7,6.4-3.9l37.8-23.3c1.9-1.2,4.4-2.8,6.4-3.9c4.6-2.6,4.5-2.2,5.1-5.3c2.1-10.9,5.2-22.9,7.2-33.5
				c1-5.5,2.7-11.3,3.6-16.9l-23.5-11.5c1.9-1.5,6-3.3,8.4-4.6c2.4-1.4,6.4-2.8,8.3-4.5l-7.2-0.6L-36.9,376.2z"/>
			<path class="st8" d="M56.5,335.6c2.1-3.6,2.3-10.3,2.5-14.8c0.5-16.8-0.8-22-7.8-36c-0.9-1.9-2.7-4.2-3.2-5.8
				c-1.1,0.5-0.9,0.5-1.6,1.3l-3.5,3.8c-0.6,0.5-0.8,0.4-1.4,1L38,289c-0.3,1.2,6,36.6,7.6,42.6C47.5,338.7,50.4,336.7,56.5,335.6z"
				/>
			<path class="st8" d="M-109.7,326.4c0.5-0.9,1-1,2-1.2c0.4,1.7,0,3.6,0.6,5.4c1.1,3.2,5.7,6.9,8.5,8.9c0-0.1,0.1-0.2,0.1-0.2
				c0-0.1,0.1-0.2,0.1-0.2l0.5-1.4c2.2-8.2,1.9-6.3-0.9-11.7c-6.5-12.4-11-21.2-7.4-35.5c1.4-5.5-0.5-3.2-2.3-5.5
				c-2.8-0.2-5.2-1.2-7.8-1.8c-1,2.9-3.1,6.7-4.4,10.1c-1.3,3.3-2.9,8.2-3,11.8c-0.1,4.7,2.9,20,4.9,24.2L-109.7,326.4z"/>
			<path class="st8" d="M-93.6,411.9c0.6-1.6,7-11.9,8.4-14.2c1.1-1.8,7.8-13.3,8.6-14c-0.2,1.5-0.6,3-0.9,4.6s-1.1,2.6-1.8,3.6
				L-93,411.3C-93.7,412-92.6,411.1-93.6,411.9z M-78.1,382.7c-0.1,1.1-0.5,1.3-1.4,2.8c-0.5,0.9-1,1.8-1.6,2.7l-19.5,32.7
				c-0.5,1.1-0.5,6.7-0.4,8.4c1.7-1.3,4.1-3.4,5.4-5.1c1.9-2.5,4.5-3.4,7-6.7c1.1-1.5,5.7-4.8,7.1-6.6c0.8-1.2,1.7-1.8,2.8-2.7
				l4.1-3.8c0.7-0.9,0.5-0.8,1.3-1.5c1.6-1.5,4.6-3.7,5.7-5.2c2.1-2.8,5.1-4,5.1-5.5l-1.2-7c-0.6-1.6-0.5,0-0.9-1.6
				c0.5-0.8,1.7-1.5,2.4-1.6c0.5-1.1,2.3-1.8,3.3-3c-2.4,0.4-7.3,2.2-9.9,3s-2.4,0.8-5,0c-0.7-0.2-1.7-0.6-2.4-0.5
				C-77.3,381.6-77.2,382.1-78.1,382.7z"/>
			<path class="st8" d="M-110,438.9c-3.1-3.1-6.8-11.6-6.8-17.2c0-2.6,1.1-4.6,2.6-6.5l4.9-4.3c0.8-0.5,2.8-1.8,4.1-2.2
				c-0.5,1-0.2,0.7-1.6,1.7l-4.4,3.8C-117.4,419.1-112.8,433.1-110,438.9z M-87.8,418.2c2.3,3.2,2.5,8.2,0.5,12.1
				c-0.9,1.7-1.2,2.1-2.2,2.9c-2,1.8-3.2,3-6.8,3.5c-5.3,0.9-8.4-1.5-11.2-4.3c-0.7-0.7-1.4-1.9-2-3.2c-3.5-8.4,3.8-18,12.5-16.7
				l4-6.7c-5.1-2.6-15.6,0.2-20.4,6.5c-4.1,5.4-5.7,11.7-3.3,18.6c3.1,9.2,11.9,14.2,21.1,13.2c3.8-0.4,9.4-3.2,11.7-5.7
				c2.9-3.1,4.9-7.7,5.4-12.3c0.4-4.2-1.4-10.9-4-13.3C-84.4,414.2-86.4,416.4-87.8,418.2z"/>
			<path class="st8" d="M-25,227.5l-11.9,29.6l-3.2,0.2c-0.7,1-1,3.3-1.2,4.7l5.3,2.9l-10.8-3c-0.6,1-6.3,15-6,16.3
				c0.3,1.2,2.1,3.6,2.7,5.2c-1.3,0.5-3,1.9-4.2,2.7c-1.6,1-2.6,1.9-4.2,2.9c0.4,0.2-0.4,0.8,2.1-0.4l15.6-5.8v-1l-4.7,0.4
				c-2-4.6-2.5-3.2-0.7-8c0.5-1.4,2.5-7.1,3.3-7.8l3,0.6c1.4-1,3.9-1,5.7-1.2l22.6-59.4c-0.6-1-0.8-0.7-1.6-2.2
				c-0.9,0.3-2.3,1-2.7,1.5C-16.6,206.2-24.5,226.2-25,227.5z"/>
			<path class="st8" d="M-85.4,446.7l2.7-0.2l2.8,7.1c-2.8,3.7-6.2,7.4-11.3,7.9c-2.9,0.3-6,0.2-9,0c-2.7-0.1-6.4-0.8-8.8-0.7
				c1.6,1.5,9.7,4.9,11.4,5.5c6.6,2.2,9.1,4.6,11.2,5.3c1.3-1.6,2.4-3.2,3.4-4.9c1-1.6,2.2-3.2,3.2-4.6c1.2-1.7,2.2-3.3,3.3-4.9
				l16.2-23.9c-0.7,0.5-0.5,0.5-1.1,1.1l-3,3.3c-1,1.3-1.4,1.2-4.1,4.4c-0.9,1.1-1.4,1.1-2.2,2.1c-1.9,2.2-0.6,1.2-3.1,3.3l-2.8,3.6
				l-4.7-4.9L-85.4,446.7z"/>
			<path class="st8" d="M-108.7,480.4c-1.6-0.9-1.6-1.3-2.8-2.6c-2.3-2.6-4-3.9-6.6-6.5c-0.4-0.5-0.9-0.7-1.3-1.1
				c-0.6,0.7,0.3,0.2-1,0.4l-13.6-1c1.8,1.9,3.4,2.6,5.9,4.1c6.5,4,4.8,2.9,9.5,7.5c0.5,0.5,0.7,0.8,1.1,1.3c1,1.2,4.5,4.4,6.3,3.5
				C-110,484.7-108.5,482.6-108.7,480.4z"/>
			<path class="st8" d="M-112.2,472.6c0.7,0.8,0.8,1.1,1.5,2c0.5,0.6,0.8,1,1.3,1.7c0.9,1.1,1.5,2.5,2.4,3.7c0.5,1,1.1,2.1,1.6,3.3
				c0.3,0.6,0.5,1.2,0.7,1.7c0.6,1.3,0.1,0.8,1.1,1.4c0.7-1.9,5-5.6,6.3-7.5l-5-6.1c-0.6-0.7-0.8-0.6-1.4-1.3
				c-0.9-1-2.8-3.5-3.9-4.1c-0.1,1.8-0.1,2.9-1.1,3.9C-109.4,472-110.8,472.7-112.2,472.6z"/>
		</g>
		<g>
			<path class="st9" d="M-89.8,551.8c4.3,2.9,8.8,5.7,13.3,8.5c4.6,2.8,1.9,1.7,7.6,3.3l76.6,21.8c5.7,1.6,11.4,3.3,17,4.8
				c4.4,1.2,13.4,4.7,17.5,3.4c-2-1.2-34.3-12-40.8-14.4c-1.8-0.7-1.8-1.4-2.7-2.8c-1.1-1.8-10.1-15.7-11-16.2
				c-2.9-0.8-33.3-13.7-36.3-15c-1.7-0.8-2.9-1.7-4.8-1.5c-3.7,0.4-12,2.5-15.9,3.3C-75.3,548.4-84.1,550.1-89.8,551.8z"/>
			<path class="st9" d="M-17.9,460.5c-1.2,3.5-7.8,18.2-9.8,22.6c-1.9,4.3-1.2,2.3,3.4,10.1c0.9,1.5,2.2,3.6,3.2,5
				c0.6,0.9,1,1.5,1.5,2.4c0.5,0.8,1.1,2,2,2.5c0.3-0.8,3.8-4.5,4.6-5.4l9.4-11.6c1.3-1.5,2.3-2.9,3.5-4.4l4.4-5.4
				c3.3-4.5,3.2-3.2,4.9-8.5c2.5-7.8,4.8-15.8,7.3-23.7c1.2-3.9,2.4-7.9,3.6-11.8l2.7-8.8c0.6-1.9,1-2.2,0.3-2.8
				c-0.2,1.1-1.3,2.2-1.9,3.2L6.4,444.6c-3.5,4.7-3.7,6.6-7.4,8.1c-1.2,0.5-2.2,1-3.3,1.5C-6.6,455.2-16.9,459.6-17.9,460.5z"/>
			<path class="st9" d="M-140.1,353.9c1.3-0.3,5.1-2.2,7-2.9c2.2-0.8,5.3-2,7.5-2.5c0.1-1.3,4.3-12,5.4-14.7
				c0.9-2.1,0.5-0.3,1.3-1.8c-1.5,0-1.3-0.7-2-1.6c-2.1-2.7-2-1.6-3.2-6.8c-0.8-3.4-1.1-8.8-1.8-11.5l-7.8,1.3l0.5-8.9l7.1-2.4
				l6.1-22.3c-1.9-0.3-10.6-1.1-12.1-0.8c-1.1,0.2-0.9,0-2.1-0.1c0.2,1.3-8.1,32.1-9.1,36.5c-1.8,7.5-2.7,12.5-1.8,20.4
				C-144.6,339.9-142.2,351-140.1,353.9z"/>
			<path class="st9" d="M-61.4,388.3l0.8,0.5c-0.1,2.5,0.1,4.9,0.2,7.4c0,2.6-0.4,1.7-1.7,3.3c-0.6,0.7-0.2,0.5-0.9,1.2
				c-1.2,1.2-2.8,2.1-4,3.3c-0.8,0.9-0.6,1.1-1.7,1.9c-0.8,0.7-1.4,1.1-2.2,1.8c-0.9,0.7-1.1,0.8-1.8,1.8c-0.7,1-0.9,1.1-1.8,1.8
				c-2.1,1.7-1.2,1.9-0.7,5.3c0.6,4.1,1.3,8.6,2.2,12.6l29.7-21.3c1-1,0.8-1.3,2-1.7c-0.2,9.2-0.1,18.5-0.1,27.7
				c0,2.5,0.5,4.9-0.9,6.1l-7.9,7.6c-0.6,0.9,0,0.4-0.8,1c-0.5,0.4-0.9,0.3-1.2,0.7c-1.8,1.8-0.1,1.1,0,1.2l11.4-6.6
				c6.7-4,4.6-1.6,6.5-11.5c1.9-10.3,3.8-20.9,5.4-31.2c-1.3-0.3-27.1-12.4-29.1-13.7c-1.3-0.9-1.2-2.2-3.6-2.5L-61.4,388.3z"/>
			<path class="st9" d="M28.2,421.7l-4.8,19.2l18,4.7l-1.7-51.4c-0.4-2.1,1.1-4.7,1.9-6.8l12.1-32.3c1.4-3.7,3.9-9.3,4.8-12.8
				l-7.9,14.9c-2.3,5-5.2,9.7-7.7,14.8c-2.5,4.9-5,9.8-7.7,14.8c-0.8,1.5-4.8,10.3-6.1,11l-3.9,1.7L22,415.1c1.3,0.6,2,1.5,3.2,2.5
				l3.3,2.4L28.2,421.7z"/>
			<path class="st9" d="M-149.6,377.4l-3.4-0.4l0.8,6.1c0.8,0.2,4.1,2.2,4.6,2.7c1.4,1.5,10.1,37.9,11.4,39.2c1.4-0.3,1.9-0.1,3.3,0
				c-0.1-1,0.9-3.1,1.3-4l9.5-1.2c0,0.4-0.1,0.8,0,1.1c0.3,1.5,0,0.5,0.5,1.1c0.2-2.8,2-10.3,3.9-11.1c-1.1-0.2-0.3-0.6-1,0.1
				c1.8-5,4.6-6.7,8.5-9.8c0.7-0.5,1.1-0.9,1.7-1.3c0.8-0.6,1-0.5,1.8-1.1l0.2-14.9c-1-0.8-6.5-2.9-8-3.4l-0.2-3.5
				c0,2.9,0.1,2.7-1.2,4.7c-1.5,2.2-6.1,8.6-8,10.2c-5.1,4.3-12,5.6-19,3.8C-145.4,386.7-148.8,382.1-149.6,377.4z"/>
			<path class="st9" d="M27.9,257.8c1,0,2.5-0.6,3.6-1c0.9-0.3,3-0.9,3.6-1.6c-0.3-0.3-1.5-1.2-2-1.7c-0.7-0.6-1.5-1.1-2.2-1.7
				l-8.5-6.7c-6.8-5.7-17.2-9.1-25.5-12.4c-0.5,1.3-10.6,32.8-10.7,34.2L27.9,257.8z"/>
			<path class="st9" d="M-15.6,512.1l2,10.5c1.3-0.7,2.3-2.7,3.5-3.8c2.2-2,1-0.6,3.5-3.5c2.4-2.8,2.7-2.5,3.6-3.7
				c3.4-4,3.9-4,6.8-7.5c0.7-0.8,1-1.3,1.8-1.9c2.4-1.9,2.7-3.5,5-5.3c1.4-1.1,2.2-2.3,3.3-3.7c1.4-1.6,1.5-1.1,3.6-3.7
				c1.6-1.9,6.3-6.5,6.6-7.4c0.3-1-0.9-33.1-1.1-33.8l-10,28.8c-0.8,2.6-1.2,2.3-2.4,4L-6.2,501c-0.6,0.7-0.2,0.2-0.7,0.8
				L-15.6,512.1z"/>
			<path class="st9" d="M-109,460.8c2.5-0.1,6.1,0.6,8.8,0.7c2.9,0.1,6.1,0.3,9,0c5.1-0.6,8.5-4.2,11.3-7.9l-2.8-7.1l-2.7,0.2
				c-1.4-0.1-2.9,0.7-4.3,1.2l1.6,8.6c-0.7-2.2-2.6-5.5-3.5-8.1c-11.3,0.5-11.6,0.4-20.9-5c-1.4,1.1-2.5,1.6-3.8,2.5l2.7-3.4
				l-5.9-7.3c-3.1,1.6-6.1,4-9.1,5.4c0.8,3,3.5,7.5,5.6,9.7c0.8,0.9,1.3,1.7,2.3,2.6C-118.2,455.3-111.4,460.4-109,460.8z"/>
			<path class="st9" d="M-137.7,276.2c2.2-1,12.7-2,15.7-2.2c3.9-0.2,13.7,0.7,15.3-2.7c0.8-1.7-1.2-5.4-2-7c-0.5-0.5-6-3.2-7.1-3.7
				c-3.2-1.4-5.1-2.2-8.9-2.6l-0.7-0.2c-0.4,1.2-6.6,9-8.1,11.1c-0.6,0.8-1,1.4-1.7,2.3c-1,1.3-2.3,3.1-3.1,4.7L-137.7,276.2z"/>
			<path class="st9" d="M-112.9,256.4c2.7,0.6,5.1,2.5,7.3,3c2.4,0.5,12.4,2.6,13.9,1.5c1.9-1.6-0.4-7.9-1.1-10.2
				c-2.4-2.6-7.3-6.1-9.8-8.4c-0.8-0.7-0.8-0.7-1.6-1.3c-1,0.1-3.5,2.4-4.5,3.2l-11,8.7c-0.7,0.5-1.7,1.2-2.2,1.9
				C-118.6,255.1-116.1,255.8-112.9,256.4z"/>
			<path class="st9" d="M-98.4,239.9c2.2,0.1,5,3.4,6.5,4.2c3.6,1.8,7.5,4.4,11.9,4.9c2.5,0.3,4.9,0.1,6.9-1s1.7-3.8,1.7-6.7
				c-0.5-3-4.3-7.9-4.7-10.4c-2.2,0.3-9,3.3-11.5,4.2c-1.8,0.7-3.7,1.4-5.5,2.1C-94.8,238-97.7,238.7-98.4,239.9z"/>
			<path class="st9" d="M-56.7,513.7c1.6,0.3,0.4,0.5,2.7,2.4l8.1,7.4c0.8,1.1,1.7,1.6,2.7,2.5c0.5,0.4,1,0.8,1.5,1.3
				c2.6,3,0.9,1.1,3.9,3.7c1.2,1.1,0.7,1.1,2.4,2.5c3.8,3.1,3.2,3.1,5.4,4.9c3.1,2.5,2.3,2.4,5.2,4.8c2.6,2.1,1.3,1.3,2.6,2.6
				c1.2,1.3,3.2,2.3,4.2,3.7c1,1.3,2.4,2.4,3.7,3.4l-12-16.4c-0.7-1-1.4-2-2.1-2.8L-45,511.5c-0.3-0.5-0.7-1-1-1.4
				c-0.1-0.1-0.5-0.6-0.5-0.7l-0.7-0.6c-1.5,0.7-3.1,1.5-4.7,2.3l-3.6,1.6C-57.2,513.4-56.2,512.6-56.7,513.7z"/>
			<path class="st9" d="M-135.1,458c1.7,0.2,10.4,5.5,12.2,6.6c2,1.2,4.1,2.6,5.6,3.8c0.7,0.6,0.8,0.6,1.4,1c2,1.5,2.8,2.9,3.7,3.2
				c1.4,0.1,2.8-0.6,3.6-1.4c1.1-1,1.1-2.2,1.1-3.9c-0.6-1.6-4.1-4.8-5.5-6c-0.6-0.5-1.1-0.8-1.7-1.3c-4.6-4-16.8-10.9-20.1-11.1
				l-2.9,7.4C-136.7,457-135.8,457.1-135.1,458z"/>
			<path class="st9" d="M-51.7,228.7c-1.1,0.5-20,2.2-21.1,1.8c0.2,1,3.4,6.9,4.2,7.4c3,1.7,7.8,3.3,11.3,4c9.1,1.9,6-2.4,9.3-4.8
				l0.8-8.5C-48.7,228.7-50.4,229-51.7,228.7z"/>
			<path class="st9" d="M-42.3,231.9c-0.1,2.6-0.4,2.3,0.2,5.1l1.8,9.1c0.3,1.1,0.4,1.1,0.9,1.8c1.1,1.3,1,1.2,2,1.5
				c0.5-1.5,1-2.1,2.4-2.9c1-3.2,5.6-12.5,5.9-15.4l-13-2.1L-42.3,231.9z"/>
			<path class="st9" d="M-86.5,480.1c1.1-0.4,0.7-0.4,2.4-1.8l8.5-7c1-0.8,1.2-0.9,2.2-1.8c0.5-0.5,1.5-1.3,2.2-1.8l18.6-15.2
				c0.6-0.6,0,0.2,0.5-0.7L-72,463.2c-6.7,3.8-5.4,2.6-8.4,7.1L-86.5,480.1z"/>
			<path class="st9" d="M-134,469.7l13.6,1c1.2-0.1,0.4,0.3,1-0.4l-7.5-5.6c-2.6-1.6-5.1-2.8-8.2-4.3l-1.7-0.4
				c-0.5,2.5-1.3,3.2-0.2,6.2C-136.5,467.9-135.4,469.1-134,469.7z"/>
		</g>
		<g>
			<path class="st10" d="M-77.6,337.4c0.8-6.3,1.5-25.8,1.9-27.7c0.8,0.6,8.2,21.3,9.2,24.1C-69.2,334.1-74.5,336.6-77.6,337.4z
				 M-18.8,301.8c0.6,3.7,1.6,7.1,2.4,10.7c0.5,2.2,2.5,8.6,2.6,10.3l-26.1-38l-14.2,5l6.7,50.4l-20.7-45.6
				c-2.3,0.6-16.7,5.5-17.9,6.3l-10.7,70.9l16.4-5.6l1.5-15.9l16.5-5.7l5.1,13.5l25.8-9.1l-3.1-23.1c-1-6.6-4.6-18.9-4.9-21.2
				c1.1,0.6,0.9,0.8,1.9,2.6l7.6,12.4l16.6,23.1L0.8,338l-8.6-64.4l-14.1,5L-18.8,301.8z"/>
			<path class="st10" d="M-7.6,273.7c-0.3,2.9,1.4,9.6,1.6,13.1c2.8-0.2,11.6-4.1,15.1-5l7.2,50.8l14.5-4.9c0.6-2-6.7-46-6.7-51.1
				l15-5.2l-1.8-13.1L-7.6,273.7z"/>
			<path class="st10" d="M-30.7,374l7.2,0.6c-1.9,1.7-5.8,3.1-8.3,4.5c-2.4,1.3-6.5,3.1-8.4,4.6l23.5,11.5
				c-0.9,5.6-2.6,11.4-3.6,16.9c-2,10.6-5.1,22.6-7.2,33.5c-0.6,3.1-0.5,2.7-5.1,5.3c-2,1.1-4.5,2.7-6.4,3.9l-37.8,23.3
				c-2,1.2-4.3,2.7-6.4,3.9c-1.9,1.1-4.8,3.4-6.7,3.8l-0.7,0.5c0,0.1-0.1,0.1-0.1,0.2l-0.2,0.4c-0.1,0.7-0.6,0,0.1,0.6l26.9-12.8
				c2.5-1.1,4.3-2.3,6.6-3.4c2-0.9,4.6-2.3,6.5-3.5c1.7-1,12.2-6.7,13.3-6.8c0.5-0.7,6.7-4,8.1-4.7c6.2-3.2,5.4-2.4,6.6-6.2l18-57.6
				l-7.4-5.9c-0.8-0.7-1-0.8-1.8-1.5l-1.8-1.5c-1.2-1-2.5-1.9-3.5-3c1.6-0.8,3.7-2,5.4-3c1.7-1.1,3.4-1.9,5.2-3l10.5-6.2
				c3.6-2,7-4.1,10.5-6.2c1.7-1,9.2-5.1,10.3-6.2L-30.7,374z"/>
			<path class="st10" d="M-142.3,278.6l-4.6,9.1c-5.2,10.2-8.5,19.7-8.9,31.5c-0.5,17-0.2,23,1,39.1c0.3,3.7,1.2,9,1.2,12.4
				c0.3-0.3,0.1,0,0.5-0.6l0.7-2.1c0.9-3.3,1.7-4.3,2.9-7.4c3.8-10.2-1.7-21.2-0.3-37.6c1-11.7,4.2-22.4,8.3-33.4
				c2.2-5.9,2.9-7,1.2-11.1l2.1-0.2c-0.6-0.1-1.7-0.2-2.3-0.2c-1.2,0-0.3-0.1-1.1,0.2C-142.5,278.6-141.4,278.4-142.3,278.6z"/>
			<path class="st10" d="M60.2,385.7c-0.4,1.7-2.3,7.9-2.1,9.2l15.4,42c1.7-3.8-8.2-69-8.6-69.5L60.2,385.7z"/>
			<path class="st10" d="M61.1,301c1.1-12.7,2.6-14.6-3.3-26.2c-1.9-3.6-3.9-6.8-6-9.8c-0.4-0.6-1.2-1.6-1.7-2.3l-5.8-6.4
				c-0.7-0.9-1.3-1-2.1-1.9l-2.9-2.9c-0.5-0.5-0.5-0.7-0.9-1.2c-2-2.1-8.9-6.9-11.6-8.5c-5-2.9-16.2-8.4-22.3-9.6
				c0.1,0.1,13.6,7.5,19.3,11.7c1.7,1.3,9.3,7,10.6,8.8c0.6,0.8,1.2,1.3,1.9,2c0.4,0.4,0.5,0.5,0.9,0.9c2.5,1.9,1.3,1.6,2.9,3.2
				c4.8,4.8,9.1,13.3,11.9,19.4l6.8,16.6C59.3,296.4,60.2,300,61.1,301z"/>
			<path class="st10" d="M-162,319.7l0.7,1.2l3.1-16.5c2.8-12.5,5.5-19.8,12.4-29.3c1.4-1.9,2.8-3.9,4.3-6c0.8-1.1,3.8-6.1,3.8-6.1
				c-2.1,0.1-8.2,5.5-9.9,7.7c-0.3,0.4-0.8,1.2-1.1,1.6C-157.5,286-162.1,303.2-162,319.7z"/>
			<path class="st10" d="M-45.2,280.7c1.3-0.6,1.3-0.9,3.2-2.4c1.4-1.1,3.2-6.6,3.3-7.1c0.1-0.9-0.9-2-1.9-3.3l-1.9-0.6
				c-1,1.1-2.1,4.9-2.7,6.5C-47.5,279.3-46.1,276.1-45.2,280.7z"/>
		</g>
		<path class="st11" d="M79.6,496c-1.2-2.7-2.2-5.7-3.3-8.5c-0.5-1.4-1.1-2.8-1.6-4.2c-1-2.6-0.3-2.1-2.4-3.3c-2.5-1.5-5-3-7.4-4.5
			l-21.7-13.2c-2.1-1.3-13.6-8-14.4-8.9c-0.9-0.2-0.6,0-0.3,1.4l6.5,35.6c0,0,0,0.2,0,0.3l-17.6,14.6c-0.8,0.7-2.1,1.7-3,2.5
			l-26.2,21.7l12,33.4c0.7,2,3,10,4.4,10.7l21.8,8.6c3.7,1.5,19.5,7.9,21.8,8.6l41.2-68.2c0.2-1.1-4-11.3-4.7-13.3
			C83,504.8,81.2,500.4,79.6,496z"/>
		<path class="st11" d="M-94.8,469.6c3,1.5,5.3,1.2,4.5,5.1c-1.2,0.7-3.6,1.6-5.2,1.9c-1-0.8-1.7-1.8-2.6-2.8
			c-2.3-2.6-2.2-1.5-2.7-2.9c-1-0.5-3.2-3.2-4-4.2L-94.8,469.6z M-86.5,480.1l6-9.6c3-4.5,1.7-3.3,8.4-7.1l19.9-11.4
			c-0.5,0.8,0,0.1-0.5,0.7l-18.6,15.2c-0.7,0.5-1.6,1.3-2.2,1.8c-1,0.8-1.2,0.9-2.2,1.8l-8.5,7C-85.8,479.7-85.4,479.7-86.5,480.1z
			 M-109,460.8c-2.4-0.4-9.2-5.5-11.7-7.8c-1-0.9-1.5-1.7-2.3-2.6c-2.2-2.3-4.8-6.7-5.6-9.7c3-1.5,6-3.9,9.1-5.4l5.9,7.3l-2.7,3.4
			c1.3-0.9,2.5-1.5,3.8-2.5c9.4,5.4,9.6,5.5,20.9,5c0.9,2.7,2.8,5.9,3.5,8.1l-1.6-8.6c1.4-0.5,2.9-1.3,4.3-1.2l4.2-0.6l4.7,4.9
			l2.8-3.6c2.5-2.1,1.1-1.1,3.1-3.3c0.8-0.9,1.3-1,2.2-2.1c2.6-3.2,3.1-3.2,4.1-4.4l3-3.3c0.6-0.5,0.4-0.6,1.1-1.1l-16.2,23.9
			c-1.2,1.6-2.1,3.2-3.3,4.9c-1,1.5-2.2,3-3.2,4.6c-1,1.7-2.1,3.3-3.4,4.9c-2.1-0.6-4.6-3-11.2-5.3
			C-99.3,465.7-107.4,462.3-109,460.8z M-130.3,440.2c0.2,2.5,2.4,6.8,3.3,9c-2.1-0.1-3.7-0.5-4.9-1.6c-2.5-2.2-0.9-1.8-1.9-4.7
			c-0.4-1.1-7.7-4.9-8.3-5l4.5-10.3c1.8-0.4,12.8,1.4,15.6,1.8l1.6,4.2C-121.7,434-129.1,439.2-130.3,440.2z M-97,412.5
			c-1.4,2.9-3.3,5.5-4.8,8.3s-1.4,1.2-1.4,5.1c0,2.2-0.1,4.5-0.2,6.7c1.1-0.4,3.2-2.5,3.8-3.4c1.5-2.1,5.5-4.9,6.7-6.3
			c0.4-0.5,0.4-0.7,0.9-1.2c0.7-0.8,3.3-3.1,4.2-3.4c1.3-1.8,3.4-4,5.3-5.3c2.6,2.4,4.4,9.1,4,13.3c-0.4,4.5-2.5,9.1-5.4,12.3
			c-2.3,2.5-7.9,5.3-11.7,5.7c-9.2,1-18-4-21.1-13.2c-2.3-6.9-0.7-13.2,3.3-18.6c4.7-6.3,15.3-9.1,20.4-6.5L-97,412.5z M-52.3,450.4
			l-13.9,7.9c-1.5,0.8-9.3,5.2-10.3,6.1c-0.9,0.9-1.8,1.8-2.9,2.5c0.6-1,0.5-1.2,1.3-2.2l1.6-2.3c3.7-5.9,11.8-17.3,16-23.5
			c0.6-1,0.9-1.6,1.5-2.4c3.5-5.1,2-2.1,1.9-9c-2,1.2-7.5,8.3-10,10c-2.1,1.5-3.4,3.2-5.1,4.9l-3.5,3.7c-0.8,0.9-0.6,0.9-1.8,1.3
			l-5.3-5c1-2.1,2.7-4.3,4-6.4c0.8-1.2,1.3-2.1,2-3.1c0.7-1.1,1.8-2.1,1.7-3.4c-0.3-2.6-4.3-15.4-3.7-16.6l13.3-12.8
			c0.8-0.8,0.5-0.6,1.2-1.5c1.8-2.5,2.7-1.1,3-5c0.2-2,0.3-3,0-5.1l-0.2-3.4c2.4,0.3,2.3,1.7,3.6,2.5c2,1.3,27.8,13.4,28.9,13.6
			c-1.6,10.3-3.5,20.9-5.4,31.2c-1.8,9.9,0.3,7.5-6.5,11.5L-52.3,450.4z M-62.3,381.8c-0.8,0.1-2,0.9-2.4,1.6c0.4,1.6,0.4,0,0.9,1.6
			l1.2,7c0,1.6-3,2.7-5.1,5.5c-1.1,1.6-4.1,3.8-5.7,5.2c-0.8,0.7-0.6,0.5-1.3,1.5l-4.1,3.8c-1.1,0.9-1.9,1.5-2.8,2.7
			c-1.3,1.8-5.9,5.1-7.1,6.6c-2.5,3.3-5.1,4.2-7,6.7c-1.3,1.7-3.7,3.9-5.4,5.1c-0.1-1.6-0.1-7.3,0.4-8.4l19.5-32.7
			c0.5-0.9,1.1-1.8,1.6-2.7c0.9-1.6,1.3-1.7,1.4-2.8c-0.7-0.5-0.3-0.3-0.8,0.4l-6.3,5.3c-2.7,2.2-6.3,2.2-9.8,3.6
			c-0.9,3,0.1,3.6-1.4,5.2l-5.9,4.7c-0.3-1.1-0.3-0.6-0.6-1l-0.1,1.1c-1.5,0.9-5,0.6-8.6,3c-1.2,0.8-2.6,1.6-3.4,2.4
			c-0.2,0.2-0.2,0.3-0.4,0.5l-1.1,1c-0.5,0.5-0.7,1.1-1.1,1.9c-1.9,0.8-3.7,8.3-3.9,11.1v0.9c0.5,1,0.3,3.1-0.1,4.4
			c-2.8,0-6.3-0.4-9.1-0.6c-7.4-0.7-6.6-1.3-10.1,2.9l-4.4,9.7l10.5,5.4l0.1,4.3c3.3,0.2,15.5,7.1,20.1,11.1
			c0.6,0.5,1.1,0.8,1.7,1.3c1.4,1.2,4.8,4.4,5.5,6c1.1,0.6,3,3.1,3.9,4.1c0.6,0.8,0.8,0.6,1.4,1.3l5,6.1c-1.3,1.9-5.6,5.6-6.3,7.5
			c1.2-0.2,0.5-0.2,2.6-1.7c1.5-1.1,6-4.8,7.2-5.2l-1.9,7.5c0.2-0.4,1.1-1.9,1.4-2.6c0.5-0.9,1-1.8,1.5-2.5c0.7-0.9,2.9-3.9,3.8-4.2
			c-0.3,2-2.1,7.1-1.7,8.7l0.7-0.5l54.5-39.8c2-1.4,1.7-2,2.5-6.8c1.6-9,3-14.5,4.1-24.2c0.6-5.6,1.6-11.4,2-17.1
			c-1.7-0.3-29.1-13.9-31.2-14.4l2.4-1.2c0.9-0.3,1.7-0.6,2.7-0.9c3.5-1.2,13.5-4.8,15.9-5.2c-0.6-0.8-0.9-1.3-1.4-2.2
			c1.7-1.2,25.7-9.7,29.9-11.3c5-1.9,9.8-3.7,14.8-5.5c2.6-1,13.2-4.6,14.8-5.6c1-2.1,1.9-6.9,1-9c-1.2-0.2-69,17.4-69.7,18.1
			c-1.6,3.2-3.3,9.7-4.6,13.5c-0.4,1.2-0.7,2.3-1.1,3.4c-0.6,1.9-0.6,1.4-2.5,2.1C-57.3,380.3-61.1,381.8-62.3,381.8z"/>
		<path class="st11" d="M-32.7,466.9c1.8-0.4,5.5-2.3,7.3-3.2c-0.5-1-0.2-2.8,1.6-3.7L-2,448.7l20-29.5c-0.9-0.3-3.1-1.7-3.8-2.2
			l3.5-20.3c0.4-1,0.4-0.7,1.1-1.3l4.2-4.9c2.4-3.2,1.8-1.1,2.4-4.5c0.2-1.3,0.5-2.6,0.7-3.9c0.5-2.6,0.9-5.1,1.4-7.7
			c1-5.1,1.7-11,3-16l-42.1,25.5c0-0.1-0.1,0.1-0.2,0.1l10.6,8.9c-0.9,4.6-3.5,11-4.9,15.7c-1.7,5.7-14.3,43.7-14.4,45.8
			c-1.5,0.2-5.9,3-7.4,3.9c-2.4,1.3-4.8,2.8-7,4.1C-32.7,467.7-33.9,467.5-32.7,466.9z"/>
		<path class="st11" d="M-98.1,313l9.5-22c0.7,0.8,1.3,4.3,1.7,5.7c2.2-0.3,6.9-1.8,9.2-2.5c3.1-0.9,6.4-1.8,9.5-2.6
			c4.4-1.1,5-2.3,8.5-5.1l5.9-4.6c-1.7-5-2.7,0.8,0.9-12.2c1.2-4.3,2.6-8.5,3.7-12.8c-9.6,1.3-23.3,5.3-30.6,11.9
			c-0.8,0.7-1.1,0.8-1.9,1.4c-1.6,1.2-2,2-3.2,3.5c-4.4,5.3-6.8,10.6-9,17.3C-95.4,295.8-98.4,308.6-98.1,313z"/>
		<path class="st11" d="M-90.9,487.6c0,0.1-0.1,0.2-0.2,0.2l-0.5,1.2l22.3-7l2.7,7.8l34.1,3.2l-0.1-3.9l-31.1-2.7l-0.6-1.9
			c-0.2-0.9-0.4-1.8-0.6-2.6l3.2-1.6c1.1-0.5,2-1,3.1-1.4l19.2-8.8l-0.4-0.6c-0.2-0.4,0,0-0.4-0.6c-0.9-1.5-1.5-2.4-1.7-3.9
			c1.6-0.9,1.2-0.6,2.2-2c1.6-2.2,3-1.3,1.8-1.8c-1.1,0.1-11.5,5.8-13.3,6.8c-2,1.2-4.6,2.5-6.5,3.5c-2.3,1.1-4.1,2.3-6.6,3.4
			L-90.9,487.6z"/>
		<path class="st0" d="M-98.1,313c-0.3-4.4,2.7-17.2,4.3-21.8c2.3-6.7,4.7-12,9-17.3c1.2-1.5,1.6-2.3,3.2-3.5
			c0.8-0.6,1.1-0.7,1.9-1.4c7.3-6.6,21-10.6,30.6-11.9c-1.1,4.2-2.5,8.5-3.7,12.8c-3.6,13-2.6,7.2-0.9,12.2l-5.9,4.6
			c-3.6,2.8-4.2,4-8.5,5.1c-3.1,0.8-6.4,1.7-9.5,2.6c-2.3,0.7-7.1,2.2-9.2,2.5c-0.4-1.4-1-4.9-1.7-5.7L-98.1,313z"/>
		<path class="st0" d="M-109.7,326.4l-9.1,2.8c-2-4.2-5-19.5-4.9-24.2c0.1-3.6,1.7-8.5,3-11.8c1.3-3.4,3.3-7.2,4.4-10.1
			c2.6,0.5,5,1.6,7.8,1.8c6.9-0.1,6-2.2,11.1-4.2c-2.2,6.8-4,14.7-4.5,21.9c-0.5,6.9,2.1,12.1,5.4,17.8l1.7,1.9
			c0.1-3.2,1.9-8.9,2.6-12.3c0.2-0.9,2.3-11.3,3-12.1l-6.6,49.4l-0.6-0.5c-0.1,0-0.1-0.1-0.2-0.2l-9.6-11.1
			C-110.8,329.7-108.2,328.3-109.7,326.4z"/>
		<path class="st0" d="M-58.1,376.6l-4.1,1.2c-0.1-0.4-3.3-9-3.4-9.3c-0.2,2.2-0.2,9.8-1.9,10.9l-6.3,2l-0.4-3.2
			c-0.7,0.1-3.4,0.9-4,1.2c-1.3,0.6-1.2,2.2-1.8,3.4c-0.6,1.2-6,2.8-7.5,2.9l1.9-10.2c-0.8,1.6-1.7,3.7-2.6,5.5
			c-1,2-1.4,4.3-3.7,4.8l-2-7.7l-1.3,10.1l-3.7,1.1l2.4-15.9l4.2-1.3l1.8,8.3c0.4-0.4,0.1,0.1,0.6-0.8l2.9-6.3
			c2.2-4.3,0.6-3.2,5.8-4.7l-1.5,9c-0.1,0.5-0.3,1.1-0.3,1.6l0.1,1.4c1.1-3,2.7-6,3.9-9c0.3-0.7,1.7-4,2.1-4.3
			c0.7-0.6,4-1.6,4.8-1.5l1.7,10.5c0.9-1.6,1.8-9.5,2.1-12l3.9-1.1c0.9,2.1,2.9,8,3.7,9.1c0.1-1.9,0.1-3.6,0.4-5.5
			c0.2-1.5,0.8-3.8,0.8-5.3l3.8-1.1L-58.1,376.6z"/>
		<path class="st0" d="M-77.6,337.4c3.1-0.8,8.4-3.3,11.1-3.6c-1-2.8-8.4-23.6-9.2-24.1C-76.1,311.6-76.8,331-77.6,337.4z"/>
		<path class="st12" d="M27.9,257.8l-41.6,9.1c0.1-1.3,10.2-32.8,10.7-34.2l-11.3-3.3c-1.7,2.8-5.2,14.3-6.7,18.2L-34,284
			c0.1,0.8,0.6,1.2,1.2,1.7l4.6,4.8c1.1,1.1,2.1,1.9,3.2,2.9c1.3,1.2,1.1,2,3.1,3l-4.6-18.4c5-2.3,33.1-12.1,40.7-14.9
			c2.3-0.8,4.6-1.7,6.9-2.5C22.4,260.1,26.9,258.7,27.9,257.8z"/>
		<path class="st13" d="M88,451.5c-1.1,3.6-1.4,3.1,0,6.6c0.8,1.9,1.5,4.7,2.8,6.1c-0.1-2.7-0.4-5.2-0.4-7.9c0-3.3,0.6-4.2,1.3-7.2
			c1.3-5.3,2.1-9.4,2.1-15c0-17.4-12.6-34.9-2.1-57.7c2.7-5.8,14-24.8,18.2-32.5c2.1-3.8,4-7.1,5.9-11.1c4.5-9.3,6.7-17.3-2.1-24.3
			s-26.9-10.6-38.8-11.8c-4.6-0.5-6.9-0.5-9.2-3.7c-0.7-1-1.4-1.4-1.8-2.6l-1.1,9.8c8.5-0.8,20.2,0.4,28.4,2.2
			c3.8,0.8,8.3,2.3,11.7,3.8c1.8,0.8,3.3,1.7,4.9,2.7c2,1.2,3.1,1.9,4.4,3.4c1.9,2.2,5.7,5.2,5.2,10.4c-0.3,2.7-3.7,8.3-4.9,10.7
			c-2.5,4.9-8.2,14.3-11.2,19.8c-1.9,3.3-3.6,6.6-5.6,9.9c-1.8,3.1-3.4,6.9-5.2,10.3c-4.4,8.5-6.2,15.4-5.3,25.6
			c0.8,8.8,2.8,17.4,4.8,26C92.6,435.9,90.3,441.2,88,451.5z"/>
		<path class="st14" d="M-74.9,369.8l0.4,5.7l-2.9,0.8L-74.9,369.8z M-55.7,360.7l-3.8,1.1c0,1.5-0.6,3.8-0.8,5.3
			c-0.3,1.9-0.2,3.6-0.4,5.5c-0.8-1.2-2.7-7-3.7-9.1l-3.9,1.1c-0.3,2.5-1.2,10.4-2.1,12l-1.7-10.5c-0.8-0.1-4.1,0.9-4.8,1.5
			c-0.4,0.3-1.7,3.6-2.1,4.3c-1.3,3-2.9,5.9-3.9,9l-0.1-1.4c0.1-0.4,0.2-1.1,0.3-1.6l1.5-9c-5.2,1.5-3.6,0.4-5.8,4.7l-2.9,6.3
			c-0.5,0.9-0.2,0.4-0.6,0.8l-1.8-8.3l-4.2,1.3l-2.4,15.9l3.7-1.1l1.3-10.1l2,7.7c2.2-0.6,2.7-2.8,3.7-4.8c0.9-1.8,1.9-3.9,2.6-5.5
			l-1.9,10.2c1.5-0.2,6.9-1.7,7.5-2.9c0.6-1.2,0.5-2.7,1.8-3.4c0.6-0.3,3.3-1.1,4-1.2l0.4,3.2l6.3-2c1.7-1,1.7-8.7,1.9-10.9
			c0.2,0.3,3.3,8.8,3.4,9.3l4.1-1.2L-55.7,360.7z"/>
		<path class="st15" d="M-138.6,375.8c1,2.7,1.1,5.3,3.3,6.8c1.9,1.3,3.9,2.6,5.8,4.1l-6.4-2.3C-139,383.1-140,378.5-138.6,375.8z
			 M-124.6,360.5c1.4,0.5,2.7,1.6,3.8,2.5c2.5,1.9,2,1.8,1.8,3.7c-2.9-0.4-6.6-2.6-9.3-1.5c-2.5,1-5.1,2.7-7.8,3.2L-124.6,360.5z
			 M-128.8,389.2c1-0.3,0.8-0.4,1.5-1l6.1-6.1c4.1-3.2,3.1-6.9,3.4-11.1c0.4-5,1-5.3-0.8-8c-2.3-0.7-3.7-2.7-5.8-3.2
			c-0.7,0.5-1.4,1.1-2.2,1.6l-6.7,4.3c-1.5,1-3,2.1-4.5,3.1c-2.2,1.4-1.8,2.1-2.4,4.9c-0.4,2-1.5,4.4-0.8,6.1c0.8,2,1.8,3.5,2.9,4.4
			C-136.3,385.5-131.8,388.6-128.8,389.2z"/>
		<path class="st16" d="M-108.5,284.9c1.9,2.3,3.7,0,2.3,5.5c-3.6,14.3,0.9,23.1,7.4,35.5c2.8,5.4,3.1,3.5,0.9,11.7l-0.5,1.4
			c0,0.1-0.1,0.2-0.1,0.2c0,0.1-0.1,0.1-0.1,0.2c-2.8-2-7.4-5.7-8.5-8.9c-0.6-1.7-0.2-3.7-0.6-5.4c-1.1,0.3-1.6,0.3-2,1.2
			c1.5,1.9-1.1,3.2,3.4,9.2l9.6,11.1c0.1,0.1,0.1,0.1,0.2,0.2l0.6,0.5l6.6-49.4c-0.7,0.8-2.8,11.1-3,12.1c-0.7,3.4-2.5,9.1-2.6,12.3
			l-1.7-1.9c-3.2-5.8-5.8-10.9-5.4-17.8c0.5-7.2,2.4-15.1,4.5-21.9C-102.5,282.7-101.7,284.8-108.5,284.9z"/>
		<path class="st17" d="M-153.7,370.6l0.7,6.3l3.4,0.4c-0.7-5.3,1.4-16,5.9-20.6c0.8-0.8,1.5-1.5,2.2-1.6v-0.3
			c-1.5-0.7-3.2-6.9-3.5-8.2c-4.2-17.1,0.1-34.1,4.8-50.6c0.8-3,4.5-15.8,5.7-17.6l-3.8-0.3l-2.1,0.2c1.7,4,1,5.1-1.2,11.1
			c-4.1,11-7.3,21.6-8.3,33.4c-1.4,16.4,4.1,27.4,0.3,37.6c-1.2,3.1-2,4.1-2.9,7.4l-0.7,2.1C-153.5,370.6-153.4,370.4-153.7,370.6z"
			/>
		<path class="st18" d="M-7.8,200.7c-0.7,0.9-4.4,2.7-5.5,3.4c0.8,1.5,1.1,1.2,1.6,2.2l-22.6,59.4c-1.8,0.2-4.3,0.2-5.7,1.2l6.1,1.7
			c-0.3,2.2-3.9,10.4-5,13l-2,0.2v1l-15.6,5.8c-2.5,1.1-1.7,0.6-2.1,0.4c-1.1,0.7-2.1,1.7-3.2,2.5c8.1-1.8,17.1-6.8,25.8-7.9
			c1.1-1.9,2.6-6.7,3.5-9c2.8-7.5,3-6.1,0.9-8.7L-6,200.1L-7.8,200.7z"/>
		<path class="st19" d="M-140.1,353.9v0.3c0.8,0.3,1.2,0.8,2,1.3s0.1,0,0.9,0.6c0.7,0.6,0.2,0.1,0.6,0.7c1.3-0.1,1.1-0.5,2.5-1.3
			l7.6-4.3c2.6,2.8,6.4,8,9.1,11.2c0.6,0.7,1.1,1,1.3,1.9c0.3,1.3-0.5,9.4-0.5,11.5c-0.1,4.1,0.6,2.7-4.3,7.4
			c-1.8,1.8-6.8,7.5-9.2,8.1c-1.7,0.4-3.6,0.4-5.3-0.1c-1.6-0.5-2.6-1.3-3.7-2c-0.6-0.5-1.1-0.9-1.7-1.3l-4.4-4.4
			c-1.1-1.5-0.9-3.5-0.6-5.5l-3.7-0.5c0.8,4.7,4.3,9.4,6.7,18.2c7,1.8,13.9,0.6,19-3.8c1.9-1.6,6.6-8,8-10.2c1.3-2,1.2-1.8,1.2-4.7
			c0.1-2.7,1-12.7,0.4-14.2c-0.4-1.1-2-2.6-2.8-3.6l-0.6-0.9c0-0.1-0.1-0.1-0.1-0.2l-6.5-7.8c0,0-0.1-0.1-0.1-0.2l-0.6-0.6
			c-0.4-0.4-0.2,0-0.7-0.9c-2.1,0.5-5.3,1.7-7.5,2.5C-135,351.7-138.8,353.6-140.1,353.9z"/>
		<path class="st20" d="M-128.8,389.2c-3-0.6-7.5-3.6-9.4-5.1c-1.1-0.9-2.2-2.4-2.9-4.4c-0.6-1.7,0.4-4.1,0.8-6.1
			c0.6-2.8,0.2-3.5,2.4-4.9c1.5-0.9,3-2.1,4.5-3.1l6.7-4.3c0.9-0.6,1.6-1.2,2.2-1.6c2.1,0.5,3.5,2.5,5.8,3.2l-4.2-5.1
			c-1-1.3-3.4-3.8-3.9-5.2c-1.8,0.6-9.2,6.3-10.7,7.5l-4.9,3.9c-1.1,0.9-1.3,1-1.6,3c-0.7,3.8-0.8,8.5-1,12.3
			c-0.2,3.4,1.5,4.4,3.3,5.7c2.2,1.6,1.8,1.9,5.4,3.4C-134.3,389.2-130.8,390.2-128.8,389.2z"/>
		<path class="st21" d="M-137.7,262.9c0,0-3.1,5-3.8,6.1c-1.5,2.1-2.9,4.1-4.3,6c-7,9.5-9.7,16.8-12.4,29.3l-3.1,16.5l-0.7-1.2
			c0.1,8.8,2.1,16.3,4,24.6c0.3-0.9-0.6-10.7-0.6-12.8c-0.2-4.8,0.1-9.2,0.4-13.8c1.3-17.8,6.5-28,15.4-41.6
			c3.5-5.3,6.6-9.7,10.5-14.4l1.7-2.2C-132.5,260-136.6,261.5-137.7,262.9z"/>
		<path class="st22" d="M-128.8,389.2c-2,1.1-5.5,0-7.5-0.8c-3.6-1.6-3.1-1.8-5.4-3.4c-1.9-1.3-3.5-2.3-3.3-5.7
			c0.2-3.8,0.3-8.5,1-12.3c0.4-1.9,0.5-2.1,1.6-3l4.9-3.9c1.6-1.1,9-6.9,10.7-7.5c0.5,1.4,2.8,3.9,3.9,5.2l4.2,5.1
			c1.8,2.7,1.2,3,0.8,8c-0.3,4.2,0.7,7.9-3.4,11.1l-6.1,6.1C-128,388.8-127.8,388.8-128.8,389.2z M-136.6,356.8
			c-0.5,0.8-0.9,1.1-1.8,1.4c-0.6,0.6-1.2,1.1-2,1.7s-1.2,0.7-1.9,1.5c-0.2,0.2-0.2,0.2-0.4,0.5c-3.4,3.5-3.2,10-3.3,16
			c-0.3,2-0.4,4,0.6,5.5l4.4,4.4c0.6,0.5,1.1,0.9,1.7,1.3c1.1,0.8,2.1,1.5,3.7,2c1.7,0.6,3.6,0.6,5.3,0.1c2.4-0.6,7.4-6.3,9.2-8.1
			c4.8-4.8,4.2-3.3,4.3-7.4c0-2,0.8-10.2,0.5-11.5c-0.2-0.9-0.7-1.2-1.3-1.9c-2.7-3.2-6.5-8.5-9.1-11.2l-7.6,4.3
			C-135.5,356.3-135.3,356.7-136.6,356.8z"/>
		<path class="st23" d="M-141.6,354.9l1.5-0.6V354c-2.1-2.9-4.5-14.1-4.9-18.2c-0.9-8,0-12.9,1.8-20.4c1-4.4,9.3-35.2,9.1-36.5
			c1.2,0.2,1.1,0.3,2.1,0.1l-2.6-0.4c-1.2,1.7-4.8,14.6-5.7,17.6c-4.7,16.4-9.1,33.5-4.8,50.6C-144.7,348-143,354.2-141.6,354.9z"/>
		<path class="st24" d="M-149.6,377.4l3.7,0.5c0.2-6.1-0.1-12.5,3.3-16c0.2-0.2,0.2-0.3,0.4-0.5c0.7-0.8,1.1-0.9,1.9-1.5
			c0.8-0.6,1.4-1.1,2-1.7l-3.2-3.1c-0.7,0.1-1.4,0.8-2.2,1.6C-148.2,361.3-150.3,372-149.6,377.4z"/>
		<path class="st25" d="M-135.2,460.3c3.2,1.5,5.6,2.7,8.2,4.3l7.5,5.6c0.5,0.3,0.9,0.6,1.3,1.1c2.6,2.6,4.3,3.9,6.6,6.5
			c1.2,1.3,1.1,1.7,2.8,2.6c0.2-0.3,0.2-0.3,0.4-0.7c0.9,0,0.5-0.1,1.3,0.2c-0.9-1.1-1.5-2.5-2.4-3.7c-0.5-0.7-0.9-1.1-1.3-1.7
			c-0.7-0.8-0.7-1.2-1.5-2c-0.9-0.3-1.7-1.7-3.7-3.2c-0.6-0.5-0.7-0.5-1.4-1c-1.5-1.2-3.6-2.6-5.6-3.8c-1.8-1.1-10.5-6.4-12.2-6.6
			c-0.6,0.9,0.1-0.3,0.1,1.1C-134.9,459.8-135,459.7-135.2,460.3z"/>
		<path class="st26" d="M83.9,467.3c1.8,2,3.7,11.4,5.6,14.3c0.7-2,1.1-7.2,0.2-9c-1.1-2.4-2.4-4.7-3.6-7c-1.9-3.7-5.4-11.3-7-13.9
			c-0.6-1.6-1.4-2.6-1.9-3.7C78.2,452.2,83.8,464,83.9,467.3z"/>
		<path class="st27" d="M-45.2,280.7c0,0,5.4,1.3,6.6-1.4l1.6-4.1c0.8-1.8,1.7-3.9,2.2-5.7l-5.9-1.5c1,1.3,2,2.3,1.9,3.3
			c-0.1,0.5-1.8,5.9-3.3,7.1C-43.9,279.7-43.9,280.1-45.2,280.7z"/>
		<path class="st28" d="M-45.2,280.7c-0.9-4.6-2.2-1.4-0.1-6.9c0.6-1.6,1.8-5.3,2.7-6.5l1.9,0.6l5.9,1.5c-0.4,1.8-1.4,3.8-2.2,5.7
			l-1.6,4.1C-39.8,282-45.2,280.7-45.2,280.7z M-40.8,281.8l2-0.2c1.1-2.6,4.7-10.9,5-13l-6.1-1.7l-3-0.6c-0.8,0.7-2.7,6.4-3.3,7.8
			c-1.8,4.8-1.3,3.4,0.7,8L-40.8,281.8z"/>
		<path class="st29" d="M-100.8,470.9l7.2,1c-0.3-0.5-1-1.7-1.2-2.3l-10.1-2.9C-104,467.7-101.8,470.3-100.8,470.9z"/>
		<path class="st30" d="M-141.6,354.9v0.3l3.2,3.1c0.9-0.3,1.3-0.5,1.8-1.4c-0.5-0.6,0.1-0.1-0.6-0.7c-0.8-0.6-0.1-0.1-0.9-0.6
			c-0.8-0.5-1.1-1-2-1.3L-141.6,354.9z"/>
		<polygon class="st31" points="-77.5,376.3 -74.5,375.5 -74.9,369.8 		"/>
		<path class="st0" d="M-1.7,237c-0.2-0.1-0.5-0.2-0.7-0.3c-0.4-0.1-0.7-0.3-1-0.5c-0.3-0.1-0.6-0.3-0.8-0.5c-0.3-0.1-0.6-0.3-1-0.5
			c-0.4-0.1-0.8-0.4-1.2-0.6c-0.2-0.1-0.5-0.2-0.7-0.4c-0.2-0.1-0.4-0.2-0.5-0.3c-0.4-0.2-0.7-0.5-0.9-0.8c-0.1-0.1-0.2-0.2-0.3-0.2
			c-0.4-0.3-0.7-0.6-1-1c-0.1-0.1-0.3-0.3-0.4-0.5c-0.1-0.1-0.3-0.2-0.4-0.3c-0.1-0.1-0.2-0.1-0.2-0.2l0,0c-0.3-0.1-0.7-0.3-0.9-0.5
			l-0.1-0.1c-0.3-0.1-0.6-0.3-0.9-0.5c-0.3-0.2-0.5-0.4-0.7-0.6l-0.2-0.2c-0.2-0.1-0.4-0.3-0.6-0.5c-0.1-0.1-0.2-0.2-0.4-0.4
			c-0.3-0.3-0.6-0.6-0.8-0.9l-0.2-0.2c-0.1-0.2-0.2-0.3-0.4-0.5c-0.1-0.1-0.2-0.3-0.3-0.4l-15.4,39.7c2.1,2.5,1.9,1.2-0.9,8.7
			c-0.9,2.3-2.4,7.1-3.5,9c-8.7,1.1-17.7,6.1-25.8,7.9c1.1-0.8,2.1-1.7,3.2-2.5c1.6-0.9,2.7-1.8,4.2-2.9c1.2-0.8,2.9-2.2,4.2-2.7
			c-0.7-1.6-2.4-4-2.7-5.2c-0.4-1.4,5.3-15.3,6-16.3l10.8,3l-5.3-2.9c0.1-1.4,0.5-3.6,1.2-4.7l3.2-0.2l12.1-29.5
			c-2.1,0.2,1.5,0.7-6.4,0.7h-14.9c-1.4-0.1-1.7-0.4-3.3-0.2l-2.1,0.8c1.3,0.3,3,0,4.5-0.1l-2.3,21.9c-3.6-0.3-6.4-3.3-11.4-0.2
			l-0.6,0.4c0-0.1-0.1-0.2-0.1-0.2l-0.5-0.8c-0.2-0.2-0.3-0.5-0.5-0.8c-1.4-2.5-5.6-9.4-6.1-11.1c-0.8-0.4-4-6.4-4.2-7.4
			c-1.9,0.1-2.4,0.1-4.1-0.6l1.1,0.9c0.4,2.5,4.2,7.5,4.7,10.4c1.4,1.5,4.9,9.9,4.7,12.5c-6.3,0.9-9.5,1.4-12.4,5.3l-11.4-13
			c-0.8-0.6-1.1-1.1-1.5-2.1c-1.5-0.8-4.3-4-6.5-4.2c0,0.1-0.1,0.1-0.1,0.2l-0.4,0.6c-0.9,0-1.8,0-2.7,0h-1.9
			c-0.1,0-0.2,0.1-0.2,0.1c-0.1,0-0.2,0.1-0.2,0.1c-0.1,0-0.2,0.1-0.2,0.1c0.8,0.6,0.8,0.6,1.6,1.3c2.5,2.3,7.4,5.8,9.8,8.4
			c0.6,0.2,0.9,0.6,1.4,1l8,6.6c0.9,0.6,0.5,0.2,1.3,1.2c-0.5,0.9-1.2,1.7-2.1,2.4l-6.4,6.9c-1-0.3-2.7-1.6-3.7-2.3
			c-1.3-0.8-2.3-1.5-3.7-2.4l-7.5-4.7c-2.2-0.5-4.6-2.4-7.3-3c0.2,1-0.7-0.4,0.2,0.6c0.1,0.1,0.1,0.2,0.2,0.3
			c0.1,0.1,0.2,0.1,0.3,0.2c0.1,0.1,0.2,0.1,0.3,0.2h-9.7c-1-0.1-2-0.8-3.1,0.4c3.7,0.4,5.7,1.2,8.9,2.6c1.2,0.5,6.6,3.2,7.1,3.7
			c3.5,1.2,12.4,7.1,14.7,7.7c-0.4,1.3-2.9,5.5-4,6.3c-6.2,4.7-8.7,4.7-14.9,2.7c-0.9-0.3-2.8-0.9-3.5-1.3c-1.5-0.8-1-1.6-2.2-2.7
			c-1.7-0.2-3.7-0.4-5.4-0.1c-1.3,0.4-3,0.2-4.4,0.2l1.2,0.4c0.1,0,0.2,0.1,0.3,0.1c0.1,0,0.2,0.1,0.3,0.1c-6.4,0-7.8,0.1-13.6-0.3
			c-0.3,0-2.9-0.4-2.5,0.9l0.3,0.3c0.9-0.2-0.2,0,0.6-0.3c0.7-0.3-0.2-0.2,1.1-0.2c0.6,0,1.7,0.1,2.3,0.2l3.8,0.3l2.6,0.4
			c1.5-0.3,10.2,0.5,12.1,0.8l-6.1,22.3l-7.1,2.4l-0.5,8.9l7.8-1.3c0.8,2.7,1,8,1.8,11.5c1.2,5.2,1.1,4.1,3.2,6.8
			c0.7,0.9,0.5,1.6,2,1.6l6.8-2.4c2.8,6.6,6.9,12,12,16.8c0.8,0.8,1.8,1.5,2.5,2.3c0.7,0.9,0.2,0.6,1.1,1.3c0.6,0.5,0.9,0.5,1.4,1.1
			c0.3,0.7-4.8,32.2-5.8,37.3c-0.7,3.9-1.1,8.9-2.1,12.5c0.3,0.4,0.3-0.1,0.6,1l5.9-4.7c1.5-1.6,0.5-2.2,1.4-5.2
			c3.5-1.4,7.1-1.4,9.8-3.6l6.3-5.3c0.5-0.7,0.1-0.9,0.8-0.4c0.9-0.6,0.8-1.1,1.8-1.3c0.7-0.1,1.7,0.3,2.4,0.5c2.6,0.8,2.4,0.8,5,0
			s7.4-2.6,9.9-3c-1,1.2-2.8,1.8-3.3,3c1.1,0,4.9-1.5,6.5-2c2-0.6,1.9-0.2,2.5-2.1c0.4-1.2,0.7-2.3,1.1-3.4c1.3-3.9,3-10.4,4.6-13.5
			c0.7-0.8,68.5-18.3,69.7-18.1c1,2.1,0,6.8-1,9c-1.6,1-12.1,4.7-14.8,5.6c-5,1.8-9.9,3.6-14.8,5.5c-4.2,1.6-28.2,10.1-29.9,11.3
			c0.5,1,0.8,1.4,1.4,2.2L22.8,356c-1.1,1.1-8.5,5.2-10.3,6.2c-3.6,2-7,4.1-10.5,6.2l-10.7,6.1c-1.8,1.1-3.5,1.9-5.2,3
			c-1.6,1-3.7,2.3-5.4,3c0.9,1.2,2.3,2.1,3.5,3l1.8,1.5c0.8,0.7,1,0.8,1.8,1.5l7.4,5.9L-23,450.2c-1.2,3.8-0.4,3-6.6,6.2
			c-1.4,0.7-7.6,3.9-8.1,4.7c1.1,0.6-0.2-0.4-1.8,1.8c-1,1.4-0.7,1.1-2.2,2c0.2,1.5,0.8,2.4,1.7,3.9c0.3,0.6,0.1,0.2,0.4,0.6
			l0.4,0.6c1.3-0.6,5.9-2.4,6.6-3.1c-1.2,0.7,0,0.9-2.1-4.5c2.1-1.3,4.6-2.8,7-4.1c1.5-0.8,5.9-3.6,7.4-3.9
			c0.1-2.1,12.7-40.1,14.4-45.8c1.5-4.8,4-11.1,4.9-15.7l-10.6-8.9c0.1,0,0.2-0.2,0.2-0.1l42.1-25.5c-1.2,5-2,10.9-3,16
			c-0.5,2.6-0.9,5.1-1.4,7.7c-0.2,1.3-0.5,2.6-0.7,3.9c-0.6,3.5,0,1.3-2.4,4.5l-4.2,4.9c-0.7,0.6-0.7,0.4-1.1,1.3L14.4,417
			c0.7,0.5,2.9,1.9,3.8,2.2l-20,29.5l-21.9,11.2c-1.8,0.9-2.1,2.8-1.6,3.7l7.5-3.1c1-0.9,11.3-5.4,13.6-6.3c1.1-0.5,2.2-1,3.3-1.5
			c3.7-1.5,3.8-3.5,7.4-8.1l14.8-20.5c0.7-1,1.8-2.1,1.9-3.2c0.6-1.6,2.2-1.3,3.8-1.3c0.2,0.4,0.3,0.7,0.5,0.9l0.8,1.2l0.3-1.6
			l-3.3-2.4c-1.2-1-2-1.9-3.2-2.5l3.2-15.7l3.9-1.7c1.2-0.7,5.3-9.5,6.1-11c2.7-5,5.2-9.8,7.7-14.8s5.4-9.8,7.7-14.8l7.9-14.9
			c-0.9,3.5-3.4,9-4.8,12.8l-12.1,32.3c-0.8,2.1-2.2,4.7-1.9,6.8c0.6,0.7,13.8,34.2,16.1,39.1L68.5,462c1.5,3.3,3.1,6.7,4.3,10
			c-2.7-1.4-5.7-3.5-8.3-5.1l-16-10.1c-1.5-0.9-2.7-1.6-4.1-2.6c-0.8-0.5-1.4-0.8-2.1-1.3c-1-0.6-1.1-0.9-2.2-1.1
			c-0.7,1.2,0.4,0.1,0.2,1c-2.3,0-10-0.2-11.2,0.3c0.8,1,12.3,7.6,14.4,8.9l21.4,13.5c2.4,1.5,4.9,3,7.4,4.5
			c2.1,1.2,1.4,0.8,2.4,3.3c0.5,1.4,1.1,2.7,1.6,4.2c1.1,2.9,2.1,5.9,3.3,8.5l-0.2-1.6c2.2,0,5.3-0.2,7.4,0.3
			c1.4,0.3-0.7,0.8,0.7,0.1c-0.1-1.5-37.1-87-42.4-99.2c-1.7-3.9-1.4-2.5,1.4-10c3.1-8.2,17.6-47.5,20.4-50.7l-12.7,52
			c-0.3,1.5-0.7,2.9-1.1,4.4c-0.6,2.4-0.5,1.9,0.3,4.1c4.8,13.1,9.3,26.9,14.2,39.9l8.5,24c0.9,2.4,2.3,6,2.8,8.3l1-0.9
			c4,0,2.6,0.2,3.3,0.5c1.2,0.5-0.9,1.1,0.6,0.1c-0.2-3.3-5.7-15-6.8-19.4c0.5,1.1,1.3,2.1,1.9,3.7c0.1-0.1,0.2-0.3,0.3-0.2
			c0.1,0.1,0.2-0.1,0.3-0.2c1.3-0.6,4.6-0.4,6.2-0.4c1,0,1.3,0.1,2.2,0.7c2.3-10.3,4.6-15.6,2.1-26.6c-2-8.6-4-17.2-4.8-26
			c-0.9-10.2,1-17.1,5.3-25.6c1.8-3.4,3.4-7.2,5.2-10.3c1.9-3.3,3.7-6.6,5.6-9.9c3-5.4,8.8-14.9,11.2-19.8c1.2-2.4,4.6-8,4.9-10.7
			c0.5-5.2-3.2-8.3-5.2-10.4c-1.3-1.5-2.5-2.3-4.4-3.4c-1.6-1-3.1-1.9-4.9-2.7c-3.5-1.5-7.9-2.9-11.7-3.8c-8.2-1.8-19.9-3-28.4-2.2
			l0.5-4.5c-1.6,0.4-3.3-0.3-4.1-1.8c-0.2-0.3-0.4-0.5-0.5-0.8c-0.2-0.3-0.3-0.7-0.4-1c-0.2-0.2-0.3-0.5-0.4-0.8
			c-0.1-0.1-0.1-0.2-0.1-0.2c-0.2-0.3-0.4-0.5-0.5-0.8v-0.1c-0.2-0.3-0.4-0.5-0.5-0.8c-0.1-0.2-0.2-0.5-0.3-0.7
			c-0.2-0.3-0.4-0.7-0.5-1.1c-0.2-0.2-0.3-0.5-0.4-0.7c-0.3-0.3-0.6-0.7-0.7-1.1l-0.1-0.1c-0.3-0.3-0.5-0.6-0.7-0.9
			c-0.4-0.2-0.8-0.4-1.1-0.7c-0.1-0.1-0.2-0.2-0.3-0.3c-0.6-0.5-1-1.2-1.1-2l-0.1-0.3c-0.1-0.2-0.2-0.5-0.3-0.8
			c0-0.1-0.1-0.2-0.1-0.3c-0.1-0.2-0.1-0.3-0.2-0.5c-0.1-0.2-0.2-0.3-0.2-0.5c0-0.1-0.1-0.2-0.1-0.3c-0.4-0.4-0.7-0.9-0.9-1.4
			c-0.4-0.5-0.7-1-0.8-1.5c0,0,0-0.1-0.1-0.1c-0.2-0.2-0.3-0.3-0.4-0.5l-0.1-0.1c-0.2-0.2-0.5-0.5-0.6-0.8c-0.2-0.1-0.4-0.3-0.6-0.5
			s-0.3-0.3-0.5-0.5c-0.2-0.2-0.4-0.5-0.6-0.8c-0.1-0.2-0.3-0.5-0.4-0.7c0-0.1-0.1-0.2-0.1-0.3c-0.1-0.1-0.1-0.3-0.2-0.4
			c-0.1-0.2-0.2-0.3-0.3-0.5c-0.2-0.2-0.3-0.5-0.5-0.7c-0.2-0.2-0.3-0.4-0.4-0.7c0,0,0-0.1-0.1-0.1c-0.1-0.2-0.2-0.4-0.3-0.6
			c0-0.1-0.1-0.1-0.1-0.2s-0.1-0.1-0.1-0.2c-0.1-0.1-0.2-0.2-0.2-0.3c-0.1-0.2-0.2-0.3-0.3-0.5s-0.3-0.4-0.4-0.6
			c-0.2-0.3-0.4-0.7-0.5-1.1c0-0.1-0.1-0.2-0.1-0.3c-0.1-0.1-0.1-0.2-0.1-0.3c-0.1-0.2-0.3-0.5-0.4-0.7c-0.1-0.1-0.1-0.2-0.2-0.3
			c-0.1-0.1-0.2-0.2-0.2-0.3c-0.1-0.1-0.2-0.3-0.4-0.4c-0.1-0.1-0.2-0.2-0.2-0.3c-0.1-0.2-0.3-0.4-0.4-0.6c-0.1-0.2-0.3-0.4-0.4-0.6
			c-0.1-0.2-0.2-0.4-0.3-0.6s-0.2-0.4-0.3-0.6c-0.1-0.1-0.2-0.3-0.3-0.4l-0.1-0.1c-0.2-0.2-0.4-0.4-0.5-0.6v-0.1
			c-0.1-0.1-0.3-0.3-0.4-0.4s-0.2-0.2-0.2-0.3l0.1,0.1c-0.2-0.2-0.3-0.3-0.5-0.5c-0.1-0.1-0.2-0.3-0.3-0.5s-0.3-0.3-0.4-0.5
			c-0.2-0.2-0.3-0.4-0.5-0.6c-0.6-0.6-0.9-1.4-1-2.3c-0.6-0.2-1-0.5-1.4-0.9c-0.5,0.3-1,0.6-1.6,0.7c-0.1,0-0.2,0.1-0.3,0.1
			c-0.3,0.2-0.6,0.4-0.9,0.6c-0.6,0.3-1.1,0.5-1.8,0.6c-0.1,0-0.2,0.1-0.3,0.1c-0.3,0.1-0.5,0.1-0.8,0.1c-0.4,0.1-0.7,0.2-1.1,0.2
			h-1.6c-2,0-3.6-1.6-3.6-3.6c0-0.5,0.1-1.1,0.3-1.5c-0.8-0.7-1.3-1.7-1.3-2.7c0-0.2,0-0.4,0-0.5c-1.2-0.6-2-1.7-2.1-3.1l-0.2,0.1
			c-0.4,0.2-0.8,0.2-1.3,0.2c-1.1,0-2.1-0.5-2.8-1.3c-0.5,0.3-1.1,0.4-1.7,0.4c-1.5,0-2.8-0.9-3.3-2.2c-0.1-0.1-0.2-0.1-0.3-0.2
			c-0.3-0.1-0.5-0.2-0.8-0.3s-0.5-0.2-0.7-0.3c-0.1,0-0.2-0.1-0.3-0.1c-0.1,0-0.2-0.1-0.4-0.1c-0.3-0.1-0.6-0.2-0.9-0.3
			c-0.2-0.1-0.3-0.1-0.5-0.2l0,0c-0.3-0.1-0.5-0.2-0.7-0.3c-0.3-0.1-0.6-0.2-0.9-0.4l0,0c-0.4-0.1-0.7-0.3-1.1-0.5
			c-0.1,0-0.2-0.1-0.3-0.1c-0.3-0.1-0.6-0.2-0.9-0.3c-0.2-0.1-0.4-0.1-0.6-0.2c-0.2-0.1-0.3-0.1-0.5-0.2c-0.3-0.1-0.7-0.3-0.9-0.5
			C-1.1,237.3-1.4,237.1-1.7,237z M65.9,290.7L65.9,290.7c0-0.1-0.1-0.2-0.2-0.3C65.9,290.5,65.9,290.6,65.9,290.7z"/>
		<g>
			<path class="st1" d="M-136.1,368.4c2.7-0.4,5.3-2.1,7.8-3.2c2.7-1.1,6.4,1.1,9.3,1.5c0.3-1.9,0.8-1.8-1.8-3.7
				c-1.2-0.9-2.4-2-3.8-2.5L-136.1,368.4z"/>
			<path class="st1" d="M-138.6,375.8c-1.4,2.7-0.4,7.4,2.7,8.6l6.4,2.3c-1.8-1.5-3.8-2.8-5.8-4.1
				C-137.5,381-137.6,378.4-138.6,375.8z"/>
		</g>
		<g>
			<path class="st2" d="M-110,438.9c-2.8-5.8-7.4-19.8-1.3-24.7l4.4-3.8c1.4-1,1.1-0.7,1.6-1.7c-1.2,0.4-3.3,1.7-4.1,2.2l-4.9,4.3
				c-1.5,1.9-2.6,4-2.6,6.5C-116.8,427.3-113.1,435.8-110,438.9z"/>
			<path class="st2" d="M-93.6,411.9c1-0.7,0,0.2,0.7-0.6l13.5-19.4c0.8-1.1,1.5-2,1.8-3.6s0.7-3.1,0.9-4.6
				c-0.8,0.6-7.5,12.2-8.6,14C-86.6,400-93,410.3-93.6,411.9z"/>
		</g>
		<g>
			<path class="st3" d="M-137.7,276.2c2.3,0,12.4,0.1,13.8,0.7c1.7-0.3,3.6,0,5.4,0.1c1.2,1.1,0.6,1.9,2.2,2.7
				c0.7,0.4,2.7,1.1,3.5,1.3c6.2,2,8.8,2,14.9-2.7c1.1-0.8,3.5-4.9,4-6.3c-2.4-0.6-11.2-6.5-14.7-7.7c0.8,1.6,2.8,5.3,2,7
				c-1.6,3.4-11.4,2.5-15.3,2.7C-125,274.2-135.5,275.2-137.7,276.2z"/>
			<path class="st3" d="M-91.9,244c0.4,0.9,0.7,1.4,1.5,2.1l11.4,13c2.9-4,6.1-4.4,12.4-5.3c0.1-2.7-3.3-11-4.7-12.5
				c0,2.8,0.3,5.5-1.7,6.7c-2.1,1.2-4.5,1.3-6.9,1C-84.4,248.5-88.2,245.8-91.9,244z"/>
			<path class="st3" d="M-68.7,237.9c0.5,1.7,4.6,8.6,6.1,11.1c0.1,0.2,0.3,0.5,0.5,0.8l0.5,0.8c0,0,0.1,0.1,0.1,0.2l0.6-0.4
				c4.9-3.1,7.8-0.2,11.4,0.2l1.5-13.4c-3.3,2.4-0.2,6.7-9.3,4.8C-60.9,241.2-65.7,239.6-68.7,237.9z"/>
			<path class="st3" d="M-105.6,259.4l7.5,4.7c1.4,0.9,2.4,1.6,3.7,2.4c1,0.7,2.7,2,3.7,2.3l6.4-6.9c0.9-0.7,1.6-1.5,2.1-2.4
				c-0.7-1-0.3-0.6-1.3-1.2l-8-6.6c-0.5-0.4-0.8-0.8-1.4-1c0.7,2.3,3.1,8.6,1.1,10.2C-93.2,262-103.1,259.9-105.6,259.4z"/>
			<path class="st3" d="M-34.9,246.4c-1.3,0.9-1.8,1.4-2.4,2.9c-1-0.3-0.9-0.2-2-1.5c-0.6-0.7-0.7-0.7-0.9-1.8l-1.8-9.1
				c-0.5-2.8-0.3-2.5-0.2-5.1l-1.5,19.1l6.4,2.1L-34.9,246.4z"/>
		</g>
		<g>
			<path class="st4" d="M87.6,494.7l0.8,0.7c0.3-3-3.2-11.1-4.4-14.4c-0.8-2.2-4.1-12.4-4.9-13.4c-0.5-2.4-1.9-5.9-2.8-8.3l-8.5-24
				c-4.8-13-9.3-26.8-14.2-39.9c-0.8-2.2-1-1.8-0.3-4.1c0.4-1.5,0.7-2.9,1.1-4.4l12.7-52c-2.7,3.2-17.3,42.5-20.4,50.7
				c-2.8,7.5-3.1,6-1.4,10C50.5,407.7,87.5,493.2,87.6,494.7z"/>
			<path class="st4" d="M90.8,464.2l0.2,1.3c1-1,2.9-8.7,3.1-9.8c0.8-3.5,1.4-7.1,1.8-10.6c3-24.2-5.1-30.5-5.5-43.4
				c-0.2-6.7,1.8-14.6,4.1-20.9c4.6-12.5,11-23,17-33.2c2.9-4.9,12.2-18.9,13.2-24.1c1-4.9-0.2-6.4-1.8-10.3c-0.3-0.1-0.1,0-0.6-0.6
				c-2.4-3.1-3-3.4-5.8-5.8l-4.6-3c-4.8-2.5-8.8-4.3-14.3-6.1c-11.6-3.9-21.9-5.4-33.7-7.5c0.4,1.3,1.1,1.7,1.8,2.6
				c2.2,3.2,4.5,3.2,9.2,3.7c12,1.2,30.1,4.8,38.8,11.8c8.8,7.1,6.6,15,2.1,24.3c-1.9,4-3.8,7.3-5.9,11.1
				c-4.2,7.7-15.6,26.7-18.2,32.5c-10.5,22.8,2.1,40.3,2.1,57.7c0,5.5-0.8,9.7-2.1,15c-0.7,3-1.3,3.9-1.3,7.2
				C90.4,459,90.7,461.5,90.8,464.2z"/>
			<path class="st4" d="M-100.8,470.9c0.6,1.4,0.5,0.3,2.7,2.9c0.9,1,1.6,2,2.6,2.8c1.6-0.3,4-1.2,5.2-1.9c0.8-4-1.5-3.6-4.5-5.1
				c0.2,0.7,0.9,1.8,1.2,2.3L-100.8,470.9z"/>
		</g>
		<g>
			<path class="st5" d="M-56.7,513.7c0.6-1-0.5-0.3,1.2-1l3.6-1.6c1.6-0.8,3.2-1.6,4.7-2.3l0.7,0.6c0.1,0.1,0.5,0.6,0.5,0.7
				c0.3,0.4,0.7,0.9,1,1.4l16.5,22.1c0.6,0.9,1.3,1.8,2.1,2.8l12,16.4l0.8,0.8c0.4,0.4,0.2,0.3,0.5,0.7c0.7,0.9,0.2,0.3,1.4,1
				c-0.3-1.5-13.1-29.5-14.9-33.7c-1.7-3.8-3.2-7.5-4.8-11.3c-6.6-15-4-12.9-10.2-14.1c-2.1-0.4-4.5-0.8-6.7-1.2
				c-4.6-0.8-9.1-1.7-13.7-2.4c-9.1-1.4-4.8-1-8.2-3.9c-0.9-0.8-1.2-1.2-1.8-2.2l-10.9,2.2c0.9,1.9,3,2.3,4.9,4.7
				c1.2,1.6,3.2,2.3,4.9,4.5l6.6,6.1c3.1,2.5,1.9,2,3.2,3.2c1,0.9,2.6,1.9,3.5,2.9l3,3.1C-56.9,513.4-56.8,513.6-56.7,513.7z"/>
			<path class="st5" d="M23.3,440.9c0.7,1.3,6.7,4.6,8.3,5.6c1.5,0.9,7.6,4.5,8.2,5.5c1.1,0.1,1.3,0.4,2.2,1.1
				c0.7,0.5,1.3,0.8,2.1,1.3c1.4,0.9,2.6,1.7,4.1,2.6l16,10.1c2.6,1.6,5.6,3.7,8.3,5.1c-1.2-3.3-2.9-6.7-4.3-10l-12.6-28.7
				c-2.3-4.9-15.5-38.4-16.1-39.1l1.7,51.4L23.3,440.9z"/>
			<path class="st5" d="M-89.8,551.8c5.7-1.8,14.5-3.5,20.6-4.7c3.9-0.8,12.2-2.9,15.9-3.3c1.9-0.2,3.1,0.7,4.8,1.5
				c3,1.3,33.3,14.2,36.3,15c-0.6-0.8-0.6-0.7-1.2-1.5c-0.4-0.6-0.4-0.6-1-1.1c-0.8-0.7-1.4-1.2-2.3-2c-3.5-3-2.7-2.9-4.3-4.2
				c-1.2-1-3.7-2.9-4.5-4c-1.6-2.1-2-2.2-4.3-4.2c-1-0.8-1.5-1.2-2.3-2.3c-1.2-1.6-4.4-3.9-5.5-5.1c-0.5-0.6-0.4-0.7-0.9-1.2
				c-0.9-1.1-3.3-3-4.5-4c-1.9-1.6-1-1.2-2-2.2c-0.4-0.4-1.8-1.7-2.3-1.8c-0.7-0.1-21.5,8.9-24,10.1c-8.1,3.6-5.4,3-10.9,6.4
				l-9.8,7.3c0.7,0.5-0.4-0.2,0.4,0.3L-89.8,551.8z"/>
			<path class="st5" d="M-25.4,463.7c-1.8,0.9-5.5,2.9-7.3,3.2c-0.7,0.7-5.2,2.6-6.6,3.1l-19.2,8.8c-1.1,0.5-2,1-3.1,1.4l-3.2,1.6
				c0.2,0.9,0.4,1.8,0.6,2.6l0.6,1.9l31.1,2.7l1.7,0.1L-22,508l3.9-4.3c0.5-0.5,0.2-0.2,0.5-0.5c-0.9-0.5-1.5-1.6-2-2.5
				s-0.9-1.5-1.5-2.4c-1-1.4-2.3-3.5-3.2-5c-4.6-7.8-5.3-5.8-3.4-10.1c1.9-4.4,8.6-19.1,9.8-22.6L-25.4,463.7z"/>
			<path class="st5" d="M-13.7,522.6l-2-10.5l-2.4,2.8l3.6,8.9c0,0,0,0.1,0,0.2C-14,522.8-14.6,523.6-13.7,522.6z"/>
		</g>
		<g>
			<path class="st6" d="M-118.9,332c-0.8,1.6-0.4-0.3-1.3,1.8c-1.1,2.7-5.4,13.4-5.4,14.7c0.5,0.9,0.3,0.5,0.7,0.9l0.6,0.6
				c0,0,0.1,0.1,0.1,0.2l6.5,7.8c0,0.1,0.1,0.1,0.1,0.2l0.6,0.9c0.8,1,2.4,2.5,2.8,3.6c0.6,1.6-0.4,11.6-0.4,14.2l0.2,3.5
				c1.5,0.5,7,2.6,8,3.4l-0.2,14.9c-0.8,0.6-1,0.5-1.8,1.1c-0.6,0.4-1,0.8-1.7,1.3c-3.9,3.1-6.7,4.8-8.5,9.8c0.7-0.6-0.1-0.3,1-0.1
				c0.4-0.7,0.7-1.4,1.1-1.9l1.1-1c0.2-0.2,0.2-0.3,0.4-0.5c0.8-0.8,2.2-1.6,3.4-2.4c3.6-2.4,7.1-2.1,8.6-3l0.1-1.1
				c1-3.6,1.4-8.6,2.1-12.5c0.9-5.1,6.1-36.6,5.8-37.3c-0.5-0.5-0.8-0.6-1.4-1.1c-0.9-0.7-0.4-0.4-1.1-1.3c-0.7-0.8-1.7-1.6-2.5-2.3
				c-5.2-4.8-9.2-10.2-12-16.8L-118.9,332z"/>
			<path class="st6" d="M-136.2,424.9l0.7,0.2c0.1,0,0.2,0,0.3,0l2.7,0.1c2.1-0.7-3.1-0.6,5.2-1.3c2.6-0.2,4.8-0.1,5.8-1.2v-0.9
				c-0.5-0.6-0.2,0.4-0.5-1.1c-0.1-0.3,0-0.7,0-1.1l-9.5,1.2c-0.4,0.8-1.4,3-1.3,4C-134.3,424.8-134.9,424.6-136.2,424.9z"/>
		</g>
		<g>
			<path class="st7" d="M56.5,335.6c-6.1,1.1-9,3.1-10.9-4c-1.6-6.1-7.9-41.4-7.6-42.6l3.5-3.9c0.6-0.6,0.8-0.5,1.4-1l3.5-3.8
				c0.7-0.8,0.5-0.8,1.6-1.3c-1.2-1-2.7-3.7-3.6-5c-1.1-1.5-2.3-3.6-3.6-4.6l1.6,5.1l-14.6,5.4l7.6,49.4c-4.1,2.3-26.6,8.3-29,10
				c6.4,0.4,14-0.1,20.7,0c8.7,0.2,13.1-1.4,13.1,7.3c0,5.8-1.9,11.5-3.4,17c-1.4,5.3-3.9,10.3-5.3,15.3l1.1-1.4
				c0.3-0.4,0.5-0.9,0.8-1.3l4.6-8.1c2.1-3.6,4.1-7.2,6.3-10.7l9.3-16.2C54.3,339.5,55.9,337.3,56.5,335.6z"/>
			<path class="st7" d="M-87.8,418.2c-0.9,0.4-3.4,2.7-4.2,3.4c-0.5,0.5-0.5,0.7-0.9,1.2c-1.2,1.4-5.2,4.2-6.7,6.3
				c-0.7,0.9-2.7,3-3.8,3.4c0.1-2.2,0.1-4.5,0.2-6.7c0-3.8-0.1-2.3,1.4-5.1c1.6-2.9,3.4-5.5,4.8-8.3c-8.7-1.4-16,8.3-12.5,16.7
				c0.5,1.3,1.3,2.6,2,3.2c2.8,2.8,5.9,5.1,11.2,4.3c3.6-0.6,4.8-1.8,6.8-3.5c1-0.9,1.3-1.2,2.2-2.9
				C-85.3,426.4-85.5,421.4-87.8,418.2z"/>
			<path class="st7" d="M-130.3,440.2c1.2-1,8.6-6.2,9.9-6.5l-1.6-4.2c-2.8-0.4-13.7-2.1-15.6-1.8l-4.5,10.3c0.6,0.1,7.9,3.9,8.3,5
				c1.1,2.9-0.6,2.6,1.9,4.7c1.2,1,2.7,1.5,4.9,1.6C-127.9,447-130.1,442.7-130.3,440.2z"/>
		</g>
		<g>
			<path class="st8" d="M-52.3,450.4c-0.1-0.1-1.8,0.6,0-1.2c0.3-0.3,0.7-0.3,1.2-0.7c0.8-0.6,0.2-0.1,0.8-1l7.9-7.6
				c1.4-1.2,0.9-3.6,0.9-6.1c0-9.2,0-18.5,0.1-27.7c-1.3,0.4-1.1,0.7-2,1.7l-29.7,21.3c-0.8-4-1.5-8.5-2.2-12.6
				c-0.5-3.4-1.5-3.6,0.7-5.3c0.9-0.7,1.1-0.8,1.8-1.8c0.7-1,0.9-1.1,1.8-1.8c0.8-0.7,1.4-1.1,2.2-1.8c1.1-0.9,0.9-1,1.7-1.9
				c1.1-1.2,2.8-2.2,4-3.3c0.7-0.7,0.3-0.5,0.9-1.2c1.3-1.6,1.8-0.7,1.7-3.3c0-2.4-0.2-4.9-0.2-7.4l-0.8-0.5c0.4,2.1,0.2,3.1,0,5.1
				c-0.3,4-1.2,2.6-3,5c-0.7,0.9-0.4,0.8-1.2,1.5L-79,412.6c-0.6,1.2,3.5,14,3.7,16.6c0.1,1.3-1,2.3-1.7,3.4s-1.3,2-2,3.1
				c-1.3,2.1-3,4.3-4,6.4l5.3,5c1.2-0.4,1-0.5,1.8-1.3l3.5-3.7c1.7-1.8,2.9-3.5,5.1-4.9c2.5-1.7,8-8.8,10-10c0.2,6.9,1.7,3.9-1.9,9
				c-0.6,0.9-0.9,1.5-1.5,2.4c-4.2,6.2-12.3,17.6-16,23.5l-1.6,2.3c-0.8,1.1-0.7,1.2-1.3,2.2c1.1-0.7,2-1.6,2.9-2.5
				c1-1,8.8-5.3,10.3-6.1L-52.3,450.4z"/>
			<path class="st8" d="M-36.9,376.2c-2.4,0.4-12.4,4-15.9,5.2c-1,0.3-1.9,0.6-2.7,0.9l-2.5,1.2c2.1,0.5,29.6,14.1,31.2,14.4
				c-0.4,5.6-1.4,11.4-2,17.1c-1.1,9.7-2.5,15.2-4.1,24.2c-0.9,4.8-0.5,5.5-2.5,6.8l-54.5,39.8c1.9-0.4,4.8-2.8,6.7-3.8
				c2.1-1.2,4.4-2.7,6.4-3.9l37.8-23.3c1.9-1.2,4.4-2.8,6.4-3.9c4.6-2.6,4.5-2.2,5.1-5.3c2.1-10.9,5.2-22.9,7.2-33.5
				c1-5.5,2.7-11.3,3.6-16.9l-23.5-11.5c1.9-1.5,6-3.3,8.4-4.6c2.4-1.4,6.4-2.8,8.3-4.5l-7.2-0.6L-36.9,376.2z"/>
			<path class="st8" d="M56.5,335.6c2.1-3.6,2.3-10.3,2.5-14.8c0.5-16.8-0.8-22-7.8-36c-0.9-1.9-2.7-4.2-3.2-5.8
				c-1.1,0.5-0.9,0.5-1.6,1.3l-3.5,3.8c-0.6,0.5-0.8,0.4-1.4,1L38,289c-0.3,1.2,6,36.6,7.6,42.6C47.5,338.7,50.4,336.7,56.5,335.6z"
				/>
			<path class="st8" d="M-109.7,326.4c0.5-0.9,1-1,2-1.2c0.4,1.7,0,3.6,0.6,5.4c1.1,3.2,5.7,6.9,8.5,8.9c0-0.1,0.1-0.2,0.1-0.2
				c0-0.1,0.1-0.2,0.1-0.2l0.5-1.4c2.2-8.2,1.9-6.3-0.9-11.7c-6.5-12.4-11-21.2-7.4-35.5c1.4-5.5-0.5-3.2-2.3-5.5
				c-2.8-0.2-5.2-1.2-7.8-1.8c-1,2.9-3.1,6.7-4.4,10.1c-1.3,3.3-2.9,8.2-3,11.8c-0.1,4.7,2.9,20,4.9,24.2L-109.7,326.4z"/>
			<path class="st8" d="M-93.6,411.9c0.6-1.6,7-11.9,8.4-14.2c1.1-1.8,7.8-13.3,8.6-14c-0.2,1.5-0.6,3-0.9,4.6s-1.1,2.6-1.8,3.6
				L-93,411.3C-93.7,412-92.6,411.1-93.6,411.9z M-78.1,382.7c-0.1,1.1-0.5,1.3-1.4,2.8c-0.5,0.9-1,1.8-1.6,2.7l-19.5,32.7
				c-0.5,1.1-0.5,6.7-0.4,8.4c1.7-1.3,4.1-3.4,5.4-5.1c1.9-2.5,4.5-3.4,7-6.7c1.1-1.5,5.7-4.8,7.1-6.6c0.8-1.2,1.7-1.8,2.8-2.7
				l4.1-3.8c0.7-0.9,0.5-0.8,1.3-1.5c1.6-1.5,4.6-3.7,5.7-5.2c2.1-2.8,5.1-4,5.1-5.5l-1.2-7c-0.6-1.6-0.5,0-0.9-1.6
				c0.5-0.8,1.7-1.5,2.4-1.6c0.5-1.1,2.3-1.8,3.3-3c-2.4,0.4-7.3,2.2-9.9,3s-2.4,0.8-5,0c-0.7-0.2-1.7-0.6-2.4-0.5
				C-77.3,381.6-77.2,382.1-78.1,382.7z"/>
			<path class="st8" d="M-110,438.9c-3.1-3.1-6.8-11.6-6.8-17.2c0-2.6,1.1-4.6,2.6-6.5l4.9-4.3c0.8-0.5,2.8-1.8,4.1-2.2
				c-0.5,1-0.2,0.7-1.6,1.7l-4.4,3.8C-117.4,419.1-112.8,433.1-110,438.9z M-87.8,418.2c2.3,3.2,2.5,8.2,0.5,12.1
				c-0.9,1.7-1.2,2.1-2.2,2.9c-2,1.8-3.2,3-6.8,3.5c-5.3,0.9-8.4-1.5-11.2-4.3c-0.7-0.7-1.4-1.9-2-3.2c-3.5-8.4,3.8-18,12.5-16.7
				l4-6.7c-5.1-2.6-15.6,0.2-20.4,6.5c-4.1,5.4-5.7,11.7-3.3,18.6c3.1,9.2,11.9,14.2,21.1,13.2c3.8-0.4,9.4-3.2,11.7-5.7
				c2.9-3.1,4.9-7.7,5.4-12.3c0.4-4.2-1.4-10.9-4-13.3C-84.4,414.2-86.4,416.4-87.8,418.2z"/>
			<path class="st8" d="M-25,227.5l-11.9,29.6l-3.2,0.2c-0.7,1-1,3.3-1.2,4.7l5.3,2.9l-10.8-3c-0.6,1-6.3,15-6,16.3
				c0.3,1.2,2.1,3.6,2.7,5.2c-1.3,0.5-3,1.9-4.2,2.7c-1.6,1-2.6,1.9-4.2,2.9c0.4,0.2-0.4,0.8,2.1-0.4l15.6-5.8v-1l-4.7,0.4
				c-2-4.6-2.5-3.2-0.7-8c0.5-1.4,2.5-7.1,3.3-7.8l3,0.6c1.4-1,3.9-1,5.7-1.2l22.6-59.4c-0.6-1-0.8-0.7-1.6-2.2
				c-0.9,0.3-2.3,1-2.7,1.5C-16.6,206.2-24.5,226.2-25,227.5z"/>
			<path class="st8" d="M-85.4,446.7l2.7-0.2l2.8,7.1c-2.8,3.7-6.2,7.4-11.3,7.9c-2.9,0.3-6,0.2-9,0c-2.7-0.1-6.4-0.8-8.8-0.7
				c1.6,1.5,9.7,4.9,11.4,5.5c6.6,2.2,9.1,4.6,11.2,5.3c1.3-1.6,2.4-3.2,3.4-4.9c1-1.6,2.2-3.2,3.2-4.6c1.2-1.7,2.2-3.3,3.3-4.9
				l16.2-23.9c-0.7,0.5-0.5,0.5-1.1,1.1l-3,3.3c-1,1.3-1.4,1.2-4.1,4.4c-0.9,1.1-1.4,1.1-2.2,2.1c-1.9,2.2-0.6,1.2-3.1,3.3l-2.8,3.6
				l-4.7-4.9L-85.4,446.7z"/>
			<path class="st8" d="M-108.7,480.4c-1.6-0.9-1.6-1.3-2.8-2.6c-2.3-2.6-4-3.9-6.6-6.5c-0.4-0.5-0.9-0.7-1.3-1.1
				c-0.6,0.7,0.3,0.2-1,0.4l-13.6-1c1.8,1.9,3.4,2.6,5.9,4.1c6.5,4,4.8,2.9,9.5,7.5c0.5,0.5,0.7,0.8,1.1,1.3c1,1.2,4.5,4.4,6.3,3.5
				C-110,484.7-108.5,482.6-108.7,480.4z"/>
			<path class="st8" d="M-112.2,472.6c0.7,0.8,0.8,1.1,1.5,2c0.5,0.6,0.8,1,1.3,1.7c0.9,1.1,1.5,2.5,2.4,3.7c0.5,1,1.1,2.1,1.6,3.3
				c0.3,0.6,0.5,1.2,0.7,1.7c0.6,1.3,0.1,0.8,1.1,1.4c0.7-1.9,5-5.6,6.3-7.5l-5-6.1c-0.6-0.7-0.8-0.6-1.4-1.3
				c-0.9-1-2.8-3.5-3.9-4.1c-0.1,1.8-0.1,2.9-1.1,3.9C-109.4,472-110.8,472.7-112.2,472.6z"/>
		</g>
		<g>
			<path class="st9" d="M-89.8,551.8c4.3,2.9,8.8,5.7,13.3,8.5c4.6,2.8,1.9,1.7,7.6,3.3l76.6,21.8c5.7,1.6,11.4,3.3,17,4.8
				c4.4,1.2,13.4,4.7,17.5,3.4c-2-1.2-34.3-12-40.8-14.4c-1.8-0.7-1.8-1.4-2.7-2.8c-1.1-1.8-10.1-15.7-11-16.2
				c-2.9-0.8-33.3-13.7-36.3-15c-1.7-0.8-2.9-1.7-4.8-1.5c-3.7,0.4-12,2.5-15.9,3.3C-75.3,548.4-84.1,550.1-89.8,551.8z"/>
			<path class="st9" d="M-17.9,460.5c-1.2,3.5-7.8,18.2-9.8,22.6c-1.9,4.3-1.2,2.3,3.4,10.1c0.9,1.5,2.2,3.6,3.2,5
				c0.6,0.9,1,1.5,1.5,2.4c0.5,0.8,1.1,2,2,2.5c0.3-0.8,3.8-4.5,4.6-5.4l9.4-11.6c1.3-1.5,2.3-2.9,3.5-4.4l4.4-5.4
				c3.3-4.5,3.2-3.2,4.9-8.5c2.5-7.8,4.8-15.8,7.3-23.7c1.2-3.9,2.4-7.9,3.6-11.8l2.7-8.8c0.6-1.9,1-2.2,0.3-2.8
				c-0.2,1.1-1.3,2.2-1.9,3.2L6.4,444.6c-3.5,4.7-3.7,6.6-7.4,8.1c-1.2,0.5-2.2,1-3.3,1.5C-6.6,455.2-16.9,459.6-17.9,460.5z"/>
			<path class="st9" d="M-140.1,353.9c1.3-0.3,5.1-2.2,7-2.9c2.2-0.8,5.3-2,7.5-2.5c0.1-1.3,4.3-12,5.4-14.7
				c0.9-2.1,0.5-0.3,1.3-1.8c-1.5,0-1.3-0.7-2-1.6c-2.1-2.7-2-1.6-3.2-6.8c-0.8-3.4-1.1-8.8-1.8-11.5l-7.8,1.3l0.5-8.9l7.1-2.4
				l6.1-22.3c-1.9-0.3-10.6-1.1-12.1-0.8c-1.1,0.2-0.9,0-2.1-0.1c0.2,1.3-8.1,32.1-9.1,36.5c-1.8,7.5-2.7,12.5-1.8,20.4
				C-144.6,339.9-142.2,351-140.1,353.9z"/>
			<path class="st9" d="M-61.4,388.3l0.8,0.5c-0.1,2.5,0.1,4.9,0.2,7.4c0,2.6-0.4,1.7-1.7,3.3c-0.6,0.7-0.2,0.5-0.9,1.2
				c-1.2,1.2-2.8,2.1-4,3.3c-0.8,0.9-0.6,1.1-1.7,1.9c-0.8,0.7-1.4,1.1-2.2,1.8c-0.9,0.7-1.1,0.8-1.8,1.8c-0.7,1-0.9,1.1-1.8,1.8
				c-2.1,1.7-1.2,1.9-0.7,5.3c0.6,4.1,1.3,8.6,2.2,12.6l29.7-21.3c1-1,0.8-1.3,2-1.7c-0.2,9.2-0.1,18.5-0.1,27.7
				c0,2.5,0.5,4.9-0.9,6.1l-7.9,7.6c-0.6,0.9,0,0.4-0.8,1c-0.5,0.4-0.9,0.3-1.2,0.7c-1.8,1.8-0.1,1.1,0,1.2l11.4-6.6
				c6.7-4,4.6-1.6,6.5-11.5c1.9-10.3,3.8-20.9,5.4-31.2c-1.3-0.3-27.1-12.4-29.1-13.7c-1.3-0.9-1.2-2.2-3.6-2.5L-61.4,388.3z"/>
			<path class="st9" d="M28.2,421.7l-4.8,19.2l18,4.7l-1.7-51.4c-0.4-2.1,1.1-4.7,1.9-6.8l12.1-32.3c1.4-3.7,3.9-9.3,4.8-12.8
				l-7.9,14.9c-2.3,5-5.2,9.7-7.7,14.8c-2.5,4.9-5,9.8-7.7,14.8c-0.8,1.5-4.8,10.3-6.1,11l-3.9,1.7L22,415.1c1.3,0.6,2,1.5,3.2,2.5
				l3.3,2.4L28.2,421.7z"/>
			<path class="st9" d="M-149.6,377.4l-3.4-0.4l0.8,6.1c0.8,0.2,4.1,2.2,4.6,2.7c1.4,1.5,10.1,37.9,11.4,39.2c1.4-0.3,1.9-0.1,3.3,0
				c-0.1-1,0.9-3.1,1.3-4l9.5-1.2c0,0.4-0.1,0.8,0,1.1c0.3,1.5,0,0.5,0.5,1.1c0.2-2.8,2-10.3,3.9-11.1c-1.1-0.2-0.3-0.6-1,0.1
				c1.8-5,4.6-6.7,8.5-9.8c0.7-0.5,1.1-0.9,1.7-1.3c0.8-0.6,1-0.5,1.8-1.1l0.2-14.9c-1-0.8-6.5-2.9-8-3.4l-0.2-3.5
				c0,2.9,0.1,2.7-1.2,4.7c-1.5,2.2-6.1,8.6-8,10.2c-5.1,4.3-12,5.6-19,3.8C-145.4,386.7-148.8,382.1-149.6,377.4z"/>
			<path class="st9" d="M27.9,257.8c1,0,2.5-0.6,3.6-1c0.9-0.3,3-0.9,3.6-1.6c-0.3-0.3-1.5-1.2-2-1.7c-0.7-0.6-1.5-1.1-2.2-1.7
				l-8.5-6.7c-6.8-5.7-17.2-9.1-25.5-12.4c-0.5,1.3-10.6,32.8-10.7,34.2L27.9,257.8z"/>
			<path class="st9" d="M-15.6,512.1l2,10.5c1.3-0.7,2.3-2.7,3.5-3.8c2.2-2,1-0.6,3.5-3.5c2.4-2.8,2.7-2.5,3.6-3.7
				c3.4-4,3.9-4,6.8-7.5c0.7-0.8,1-1.3,1.8-1.9c2.4-1.9,2.7-3.5,5-5.3c1.4-1.1,2.2-2.3,3.3-3.7c1.4-1.6,1.5-1.1,3.6-3.7
				c1.6-1.9,6.3-6.5,6.6-7.4c0.3-1-0.9-33.1-1.1-33.8l-10,28.8c-0.8,2.6-1.2,2.3-2.4,4L-6.2,501c-0.6,0.7-0.2,0.2-0.7,0.8
				L-15.6,512.1z"/>
			<path class="st9" d="M-109,460.8c2.5-0.1,6.1,0.6,8.8,0.7c2.9,0.1,6.1,0.3,9,0c5.1-0.6,8.5-4.2,11.3-7.9l-2.8-7.1l-2.7,0.2
				c-1.4-0.1-2.9,0.7-4.3,1.2l1.6,8.6c-0.7-2.2-2.6-5.5-3.5-8.1c-11.3,0.5-11.6,0.4-20.9-5c-1.4,1.1-2.5,1.6-3.8,2.5l2.7-3.4
				l-5.9-7.3c-3.1,1.6-6.1,4-9.1,5.4c0.8,3,3.5,7.5,5.6,9.7c0.8,0.9,1.3,1.7,2.3,2.6C-118.2,455.3-111.4,460.4-109,460.8z"/>
			<path class="st9" d="M-137.7,276.2c2.2-1,12.7-2,15.7-2.2c3.9-0.2,13.7,0.7,15.3-2.7c0.8-1.7-1.2-5.4-2-7c-0.5-0.5-6-3.2-7.1-3.7
				c-3.2-1.4-5.1-2.2-8.9-2.6l-0.7-0.2c-0.4,1.2-6.6,9-8.1,11.1c-0.6,0.8-1,1.4-1.7,2.3c-1,1.3-2.3,3.1-3.1,4.7L-137.7,276.2z"/>
			<path class="st9" d="M-112.9,256.4c2.7,0.6,5.1,2.5,7.3,3c2.4,0.5,12.4,2.6,13.9,1.5c1.9-1.6-0.4-7.9-1.1-10.2
				c-2.4-2.6-7.3-6.1-9.8-8.4c-0.8-0.7-0.8-0.7-1.6-1.3c-1,0.1-3.5,2.4-4.5,3.2l-11,8.7c-0.7,0.5-1.7,1.2-2.2,1.9
				C-118.6,255.1-116.1,255.8-112.9,256.4z"/>
			<path class="st9" d="M-98.4,239.9c2.2,0.1,5,3.4,6.5,4.2c3.6,1.8,7.5,4.4,11.9,4.9c2.5,0.3,4.9,0.1,6.9-1s1.7-3.8,1.7-6.7
				c-0.5-3-4.3-7.9-4.7-10.4c-2.2,0.3-9,3.3-11.5,4.2c-1.8,0.7-3.7,1.4-5.5,2.1C-94.8,238-97.7,238.7-98.4,239.9z"/>
			<path class="st9" d="M-56.7,513.7c1.6,0.3,0.4,0.5,2.7,2.4l8.1,7.4c0.8,1.1,1.7,1.6,2.7,2.5c0.5,0.4,1,0.8,1.5,1.3
				c2.6,3,0.9,1.1,3.9,3.7c1.2,1.1,0.7,1.1,2.4,2.5c3.8,3.1,3.2,3.1,5.4,4.9c3.1,2.5,2.3,2.4,5.2,4.8c2.6,2.1,1.3,1.3,2.6,2.6
				c1.2,1.3,3.2,2.3,4.2,3.7c1,1.3,2.4,2.4,3.7,3.4l-12-16.4c-0.7-1-1.4-2-2.1-2.8L-45,511.5c-0.3-0.5-0.7-1-1-1.4
				c-0.1-0.1-0.5-0.6-0.5-0.7l-0.7-0.6c-1.5,0.7-3.1,1.5-4.7,2.3l-3.6,1.6C-57.2,513.4-56.2,512.6-56.7,513.7z"/>
			<path class="st9" d="M-135.1,458c1.7,0.2,10.4,5.5,12.2,6.6c2,1.2,4.1,2.6,5.6,3.8c0.7,0.6,0.8,0.6,1.4,1c2,1.5,2.8,2.9,3.7,3.2
				c1.4,0.1,2.8-0.6,3.6-1.4c1.1-1,1.1-2.2,1.1-3.9c-0.6-1.6-4.1-4.8-5.5-6c-0.6-0.5-1.1-0.8-1.7-1.3c-4.6-4-16.8-10.9-20.1-11.1
				l-2.9,7.4C-136.7,457-135.8,457.1-135.1,458z"/>
			<path class="st9" d="M-51.7,228.7c-1.1,0.5-20,2.2-21.1,1.8c0.2,1,3.4,6.9,4.2,7.4c3,1.7,7.8,3.3,11.3,4c9.1,1.9,6-2.4,9.3-4.8
				l0.8-8.5C-48.7,228.7-50.4,229-51.7,228.7z"/>
			<path class="st9" d="M-42.3,231.9c-0.1,2.6-0.4,2.3,0.2,5.1l1.8,9.1c0.3,1.1,0.4,1.1,0.9,1.8c1.1,1.3,1,1.2,2,1.5
				c0.5-1.5,1-2.1,2.4-2.9c1-3.2,5.6-12.5,5.9-15.4l-13-2.1L-42.3,231.9z"/>
			<path class="st9" d="M-86.5,480.1c1.1-0.4,0.7-0.4,2.4-1.8l8.5-7c1-0.8,1.2-0.9,2.2-1.8c0.5-0.5,1.5-1.3,2.2-1.8l18.6-15.2
				c0.6-0.6,0,0.2,0.5-0.7L-72,463.2c-6.7,3.8-5.4,2.6-8.4,7.1L-86.5,480.1z"/>
			<path class="st9" d="M-134,469.7l13.6,1c1.2-0.1,0.4,0.3,1-0.4l-7.5-5.6c-2.6-1.6-5.1-2.8-8.2-4.3l-1.7-0.4
				c-0.5,2.5-1.3,3.2-0.2,6.2C-136.5,467.9-135.4,469.1-134,469.7z"/>
		</g>
		<g>
			<path class="st10" d="M-77.6,337.4c0.8-6.3,1.5-25.8,1.9-27.7c0.8,0.6,8.2,21.3,9.2,24.1C-69.2,334.1-74.5,336.6-77.6,337.4z
				 M-18.8,301.8c0.6,3.7,1.6,7.1,2.4,10.7c0.5,2.2,2.5,8.6,2.6,10.3l-26.1-38l-14.2,5l6.7,50.4l-20.7-45.6
				c-2.3,0.6-16.7,5.5-17.9,6.3l-10.7,70.9l16.4-5.6l1.5-15.9l16.5-5.7l5.1,13.5l25.8-9.1l-3.1-23.1c-1-6.6-4.6-18.9-4.9-21.2
				c1.1,0.6,0.9,0.8,1.9,2.6l7.6,12.4l16.6,23.1L0.8,338l-8.6-64.4l-14.1,5L-18.8,301.8z"/>
			<path class="st10" d="M-7.6,273.7c-0.3,2.9,1.4,9.6,1.6,13.1c2.8-0.2,11.6-4.1,15.1-5l7.2,50.8l14.5-4.9c0.6-2-6.7-46-6.7-51.1
				l15-5.2l-1.8-13.1L-7.6,273.7z"/>
			<path class="st10" d="M-30.7,374l7.2,0.6c-1.9,1.7-5.8,3.1-8.3,4.5c-2.4,1.3-6.5,3.1-8.4,4.6l23.5,11.5
				c-0.9,5.6-2.6,11.4-3.6,16.9c-2,10.6-5.1,22.6-7.2,33.5c-0.6,3.1-0.5,2.7-5.1,5.3c-2,1.1-4.5,2.7-6.4,3.9l-37.8,23.3
				c-2,1.2-4.3,2.7-6.4,3.9c-1.9,1.1-4.8,3.4-6.7,3.8l-0.7,0.5c0,0.1-0.1,0.1-0.1,0.2l-0.2,0.4c-0.1,0.7-0.6,0,0.1,0.6l26.9-12.8
				c2.5-1.1,4.3-2.3,6.6-3.4c2-0.9,4.6-2.3,6.5-3.5c1.7-1,12.2-6.7,13.3-6.8c0.5-0.7,6.7-4,8.1-4.7c6.2-3.2,5.4-2.4,6.6-6.2l18-57.6
				l-7.4-5.9c-0.8-0.7-1-0.8-1.8-1.5l-1.8-1.5c-1.2-1-2.5-1.9-3.5-3c1.6-0.8,3.7-2,5.4-3c1.7-1.1,3.4-1.9,5.2-3l10.5-6.2
				c3.6-2,7-4.1,10.5-6.2c1.7-1,9.2-5.1,10.3-6.2L-30.7,374z"/>
			<path class="st10" d="M-142.3,278.6l-4.6,9.1c-5.2,10.2-8.5,19.7-8.9,31.5c-0.5,17-0.2,23,1,39.1c0.3,3.7,1.2,9,1.2,12.4
				c0.3-0.3,0.1,0,0.5-0.6l0.7-2.1c0.9-3.3,1.7-4.3,2.9-7.4c3.8-10.2-1.7-21.2-0.3-37.6c1-11.7,4.2-22.4,8.3-33.4
				c2.2-5.9,2.9-7,1.2-11.1l2.1-0.2c-0.6-0.1-1.7-0.2-2.3-0.2c-1.2,0-0.3-0.1-1.1,0.2C-142.5,278.6-141.4,278.4-142.3,278.6z"/>
			<path class="st10" d="M60.2,385.7c-0.4,1.7-2.3,7.9-2.1,9.2l15.4,42c1.7-3.8-8.2-69-8.6-69.5L60.2,385.7z"/>
			<path class="st10" d="M61.1,301c1.1-12.7,2.6-14.6-3.3-26.2c-1.9-3.6-3.9-6.8-6-9.8c-0.4-0.6-1.2-1.6-1.7-2.3l-5.8-6.4
				c-0.7-0.9-1.3-1-2.1-1.9l-2.9-2.9c-0.5-0.5-0.5-0.7-0.9-1.2c-2-2.1-8.9-6.9-11.6-8.5c-5-2.9-16.2-8.4-22.3-9.6
				c0.1,0.1,13.6,7.5,19.3,11.7c1.7,1.3,9.3,7,10.6,8.8c0.6,0.8,1.2,1.3,1.9,2c0.4,0.4,0.5,0.5,0.9,0.9c2.5,1.9,1.3,1.6,2.9,3.2
				c4.8,4.8,9.1,13.3,11.9,19.4l6.8,16.6C59.3,296.4,60.2,300,61.1,301z"/>
			<path class="st10" d="M-162,319.7l0.7,1.2l3.1-16.5c2.8-12.5,5.5-19.8,12.4-29.3c1.4-1.9,2.8-3.9,4.3-6c0.8-1.1,3.8-6.1,3.8-6.1
				c-2.1,0.1-8.2,5.5-9.9,7.7c-0.3,0.4-0.8,1.2-1.1,1.6C-157.5,286-162.1,303.2-162,319.7z"/>
			<path class="st10" d="M-45.2,280.7c1.3-0.6,1.3-0.9,3.2-2.4c1.4-1.1,3.2-6.6,3.3-7.1c0.1-0.9-0.9-2-1.9-3.3l-1.9-0.6
				c-1,1.1-2.1,4.9-2.7,6.5C-47.5,279.3-46.1,276.1-45.2,280.7z"/>
		</g>
		<path class="st11" d="M79.6,496c-1.2-2.7-2.2-5.7-3.3-8.5c-0.5-1.4-1.1-2.8-1.6-4.2c-1-2.6-0.3-2.1-2.4-3.3c-2.5-1.5-5-3-7.4-4.5
			l-21.7-13.2c-2.1-1.3-13.6-8-14.4-8.9c-0.9-0.2-0.6,0-0.3,1.4l6.5,35.6c0,0,0,0.2,0,0.3l-17.6,14.6c-0.8,0.7-2.1,1.7-3,2.5
			l-26.2,21.7l12,33.4c0.7,2,3,10,4.4,10.7l21.8,8.6c3.7,1.5,19.5,7.9,21.8,8.6l41.2-68.2c0.2-1.1-4-11.3-4.7-13.3
			C83,504.8,81.2,500.4,79.6,496z"/>
		<path class="st11" d="M-94.8,469.6c3,1.5,5.3,1.2,4.5,5.1c-1.2,0.7-3.6,1.6-5.2,1.9c-1-0.8-1.7-1.8-2.6-2.8
			c-2.3-2.6-2.2-1.5-2.7-2.9c-1-0.5-3.2-3.2-4-4.2L-94.8,469.6z M-86.5,480.1l6-9.6c3-4.5,1.7-3.3,8.4-7.1l19.9-11.4
			c-0.5,0.8,0,0.1-0.5,0.7l-18.6,15.2c-0.7,0.5-1.6,1.3-2.2,1.8c-1,0.8-1.2,0.9-2.2,1.8l-8.5,7C-85.8,479.7-85.4,479.7-86.5,480.1z
			 M-109,460.8c-2.4-0.4-9.2-5.5-11.7-7.8c-1-0.9-1.5-1.7-2.3-2.6c-2.2-2.3-4.8-6.7-5.6-9.7c3-1.5,6-3.9,9.1-5.4l5.9,7.3l-2.7,3.4
			c1.3-0.9,2.5-1.5,3.8-2.5c9.4,5.4,9.6,5.5,20.9,5c0.9,2.7,2.8,5.9,3.5,8.1l-1.6-8.6c1.4-0.5,2.9-1.3,4.3-1.2l4.2-0.6l4.7,4.9
			l2.8-3.6c2.5-2.1,1.1-1.1,3.1-3.3c0.8-0.9,1.3-1,2.2-2.1c2.6-3.2,3.1-3.2,4.1-4.4l3-3.3c0.6-0.5,0.4-0.6,1.1-1.1l-16.2,23.9
			c-1.2,1.6-2.1,3.2-3.3,4.9c-1,1.5-2.2,3-3.2,4.6c-1,1.7-2.1,3.3-3.4,4.9c-2.1-0.6-4.6-3-11.2-5.3
			C-99.3,465.7-107.4,462.3-109,460.8z M-130.3,440.2c0.2,2.5,2.4,6.8,3.3,9c-2.1-0.1-3.7-0.5-4.9-1.6c-2.5-2.2-0.9-1.8-1.9-4.7
			c-0.4-1.1-7.7-4.9-8.3-5l4.5-10.3c1.8-0.4,12.8,1.4,15.6,1.8l1.6,4.2C-121.7,434-129.1,439.2-130.3,440.2z M-97,412.5
			c-1.4,2.9-3.3,5.5-4.8,8.3s-1.4,1.2-1.4,5.1c0,2.2-0.1,4.5-0.2,6.7c1.1-0.4,3.2-2.5,3.8-3.4c1.5-2.1,5.5-4.9,6.7-6.3
			c0.4-0.5,0.4-0.7,0.9-1.2c0.7-0.8,3.3-3.1,4.2-3.4c1.3-1.8,3.4-4,5.3-5.3c2.6,2.4,4.4,9.1,4,13.3c-0.4,4.5-2.5,9.1-5.4,12.3
			c-2.3,2.5-7.9,5.3-11.7,5.7c-9.2,1-18-4-21.1-13.2c-2.3-6.9-0.7-13.2,3.3-18.6c4.7-6.3,15.3-9.1,20.4-6.5L-97,412.5z M-52.3,450.4
			l-13.9,7.9c-1.5,0.8-9.3,5.2-10.3,6.1c-0.9,0.9-1.8,1.8-2.9,2.5c0.6-1,0.5-1.2,1.3-2.2l1.6-2.3c3.7-5.9,11.8-17.3,16-23.5
			c0.6-1,0.9-1.6,1.5-2.4c3.5-5.1,2-2.1,1.9-9c-2,1.2-7.5,8.3-10,10c-2.1,1.5-3.4,3.2-5.1,4.9l-3.5,3.7c-0.8,0.9-0.6,0.9-1.8,1.3
			l-5.3-5c1-2.1,2.7-4.3,4-6.4c0.8-1.2,1.3-2.1,2-3.1c0.7-1.1,1.8-2.1,1.7-3.4c-0.3-2.6-4.3-15.4-3.7-16.6l13.3-12.8
			c0.8-0.8,0.5-0.6,1.2-1.5c1.8-2.5,2.7-1.1,3-5c0.2-2,0.3-3,0-5.1l-0.2-3.4c2.4,0.3,2.3,1.7,3.6,2.5c2,1.3,27.8,13.4,28.9,13.6
			c-1.6,10.3-3.5,20.9-5.4,31.2c-1.8,9.9,0.3,7.5-6.5,11.5L-52.3,450.4z M-62.3,381.8c-0.8,0.1-2,0.9-2.4,1.6c0.4,1.6,0.4,0,0.9,1.6
			l1.2,7c0,1.6-3,2.7-5.1,5.5c-1.1,1.6-4.1,3.8-5.7,5.2c-0.8,0.7-0.6,0.5-1.3,1.5l-4.1,3.8c-1.1,0.9-1.9,1.5-2.8,2.7
			c-1.3,1.8-5.9,5.1-7.1,6.6c-2.5,3.3-5.1,4.2-7,6.7c-1.3,1.7-3.7,3.9-5.4,5.1c-0.1-1.6-0.1-7.3,0.4-8.4l19.5-32.7
			c0.5-0.9,1.1-1.8,1.6-2.7c0.9-1.6,1.3-1.7,1.4-2.8c-0.7-0.5-0.3-0.3-0.8,0.4l-6.3,5.3c-2.7,2.2-6.3,2.2-9.8,3.6
			c-0.9,3,0.1,3.6-1.4,5.2l-5.9,4.7c-0.3-1.1-0.3-0.6-0.6-1l-0.1,1.1c-1.5,0.9-5,0.6-8.6,3c-1.2,0.8-2.6,1.6-3.4,2.4
			c-0.2,0.2-0.2,0.3-0.4,0.5l-1.1,1c-0.5,0.5-0.7,1.1-1.1,1.9c-1.9,0.8-3.7,8.3-3.9,11.1v0.9c0.5,1,0.3,3.1-0.1,4.4
			c-2.8,0-6.3-0.4-9.1-0.6c-7.4-0.7-6.6-1.3-10.1,2.9l-4.4,9.7l10.5,5.4l0.1,4.3c3.3,0.2,15.5,7.1,20.1,11.1
			c0.6,0.5,1.1,0.8,1.7,1.3c1.4,1.2,4.8,4.4,5.5,6c1.1,0.6,3,3.1,3.9,4.1c0.6,0.8,0.8,0.6,1.4,1.3l5,6.1c-1.3,1.9-5.6,5.6-6.3,7.5
			c1.2-0.2,0.5-0.2,2.6-1.7c1.5-1.1,6-4.8,7.2-5.2l-1.9,7.5c0.2-0.4,1.1-1.9,1.4-2.6c0.5-0.9,1-1.8,1.5-2.5c0.7-0.9,2.9-3.9,3.8-4.2
			c-0.3,2-2.1,7.1-1.7,8.7l0.7-0.5l54.5-39.8c2-1.4,1.7-2,2.5-6.8c1.6-9,3-14.5,4.1-24.2c0.6-5.6,1.6-11.4,2-17.1
			c-1.7-0.3-29.1-13.9-31.2-14.4l2.4-1.2c0.9-0.3,1.7-0.6,2.7-0.9c3.5-1.2,13.5-4.8,15.9-5.2c-0.6-0.8-0.9-1.3-1.4-2.2
			c1.7-1.2,25.7-9.7,29.9-11.3c5-1.9,9.8-3.7,14.8-5.5c2.6-1,13.2-4.6,14.8-5.6c1-2.1,1.9-6.9,1-9c-1.2-0.2-69,17.4-69.7,18.1
			c-1.6,3.2-3.3,9.7-4.6,13.5c-0.4,1.2-0.7,2.3-1.1,3.4c-0.6,1.9-0.6,1.4-2.5,2.1C-57.3,380.3-61.1,381.8-62.3,381.8z"/>
		<path class="st11" d="M-32.7,466.9c1.8-0.4,5.5-2.3,7.3-3.2c-0.5-1-0.2-2.8,1.6-3.7L-2,448.7l20-29.5c-0.9-0.3-3.1-1.7-3.8-2.2
			l3.5-20.3c0.4-1,0.4-0.7,1.1-1.3l4.2-4.9c2.4-3.2,1.8-1.1,2.4-4.5c0.2-1.3,0.5-2.6,0.7-3.9c0.5-2.6,0.9-5.1,1.4-7.7
			c1-5.1,1.7-11,3-16l-42.1,25.5c0-0.1-0.1,0.1-0.2,0.1l10.6,8.9c-0.9,4.6-3.5,11-4.9,15.7c-1.7,5.7-14.3,43.7-14.4,45.8
			c-1.5,0.2-5.9,3-7.4,3.9c-2.4,1.3-4.8,2.8-7,4.1C-32.7,467.7-33.9,467.5-32.7,466.9z"/>
		<path class="st11" d="M-98.1,313l9.5-22c0.7,0.8,1.3,4.3,1.7,5.7c2.2-0.3,6.9-1.8,9.2-2.5c3.1-0.9,6.4-1.8,9.5-2.6
			c4.4-1.1,5-2.3,8.5-5.1l5.9-4.6c-1.7-5-2.7,0.8,0.9-12.2c1.2-4.3,2.6-8.5,3.7-12.8c-9.6,1.3-23.3,5.3-30.6,11.9
			c-0.8,0.7-1.1,0.8-1.9,1.4c-1.6,1.2-2,2-3.2,3.5c-4.4,5.3-6.8,10.6-9,17.3C-95.4,295.8-98.4,308.6-98.1,313z"/>
		<path class="st11" d="M-90.9,487.6c0,0.1-0.1,0.2-0.2,0.2l-0.5,1.2l22.3-7l2.7,7.8l34.1,3.2l-0.1-3.9l-31.1-2.7l-0.6-1.9
			c-0.2-0.9-0.4-1.8-0.6-2.6l3.2-1.6c1.1-0.5,2-1,3.1-1.4l19.2-8.8l-0.4-0.6c-0.2-0.4,0,0-0.4-0.6c-0.9-1.5-1.5-2.4-1.7-3.9
			c1.6-0.9,1.2-0.6,2.2-2c1.6-2.2,3-1.3,1.8-1.8c-1.1,0.1-11.5,5.8-13.3,6.8c-2,1.2-4.6,2.5-6.5,3.5c-2.3,1.1-4.1,2.3-6.6,3.4
			L-90.9,487.6z"/>
		<path class="st0" d="M-98.1,313c-0.3-4.4,2.7-17.2,4.3-21.8c2.3-6.7,4.7-12,9-17.3c1.2-1.5,1.6-2.3,3.2-3.5
			c0.8-0.6,1.1-0.7,1.9-1.4c7.3-6.6,21-10.6,30.6-11.9c-1.1,4.2-2.5,8.5-3.7,12.8c-3.6,13-2.6,7.2-0.9,12.2l-5.9,4.6
			c-3.6,2.8-4.2,4-8.5,5.1c-3.1,0.8-6.4,1.7-9.5,2.6c-2.3,0.7-7.1,2.2-9.2,2.5c-0.4-1.4-1-4.9-1.7-5.7L-98.1,313z"/>
		<path class="st0" d="M-109.7,326.4l-9.1,2.8c-2-4.2-5-19.5-4.9-24.2c0.1-3.6,1.7-8.5,3-11.8c1.3-3.4,3.3-7.2,4.4-10.1
			c2.6,0.5,5,1.6,7.8,1.8c6.9-0.1,6-2.2,11.1-4.2c-2.2,6.8-4,14.7-4.5,21.9c-0.5,6.9,2.1,12.1,5.4,17.8l1.7,1.9
			c0.1-3.2,1.9-8.9,2.6-12.3c0.2-0.9,2.3-11.3,3-12.1l-6.6,49.4l-0.6-0.5c-0.1,0-0.1-0.1-0.2-0.2l-9.6-11.1
			C-110.8,329.7-108.2,328.3-109.7,326.4z"/>
		<path class="st0" d="M-58.1,376.6l-4.1,1.2c-0.1-0.4-3.3-9-3.4-9.3c-0.2,2.2-0.2,9.8-1.9,10.9l-6.3,2l-0.4-3.2
			c-0.7,0.1-3.4,0.9-4,1.2c-1.3,0.6-1.2,2.2-1.8,3.4c-0.6,1.2-6,2.8-7.5,2.9l1.9-10.2c-0.8,1.6-1.7,3.7-2.6,5.5
			c-1,2-1.4,4.3-3.7,4.8l-2-7.7l-1.3,10.1l-3.7,1.1l2.4-15.9l4.2-1.3l1.8,8.3c0.4-0.4,0.1,0.1,0.6-0.8l2.9-6.3
			c2.2-4.3,0.6-3.2,5.8-4.7l-1.5,9c-0.1,0.5-0.3,1.1-0.3,1.6l0.1,1.4c1.1-3,2.7-6,3.9-9c0.3-0.7,1.7-4,2.1-4.3
			c0.7-0.6,4-1.6,4.8-1.5l1.7,10.5c0.9-1.6,1.8-9.5,2.1-12l3.9-1.1c0.9,2.1,2.9,8,3.7,9.1c0.1-1.9,0.1-3.6,0.4-5.5
			c0.2-1.5,0.8-3.8,0.8-5.3l3.8-1.1L-58.1,376.6z"/>
		<path class="st0" d="M-77.6,337.4c3.1-0.8,8.4-3.3,11.1-3.6c-1-2.8-8.4-23.6-9.2-24.1C-76.1,311.6-76.8,331-77.6,337.4z"/>
		<path class="st12" d="M27.9,257.8l-41.6,9.1c0.1-1.3,10.2-32.8,10.7-34.2l-11.3-3.3c-1.7,2.8-5.2,14.3-6.7,18.2L-34,284
			c0.1,0.8,0.6,1.2,1.2,1.7l4.6,4.8c1.1,1.1,2.1,1.9,3.2,2.9c1.3,1.2,1.1,2,3.1,3l-4.6-18.4c5-2.3,33.1-12.1,40.7-14.9
			c2.3-0.8,4.6-1.7,6.9-2.5C22.4,260.1,26.9,258.7,27.9,257.8z"/>
		<path class="st13" d="M88,451.5c-1.1,3.6-1.4,3.1,0,6.6c0.8,1.9,1.5,4.7,2.8,6.1c-0.1-2.7-0.4-5.2-0.4-7.9c0-3.3,0.6-4.2,1.3-7.2
			c1.3-5.3,2.1-9.4,2.1-15c0-17.4-12.6-34.9-2.1-57.7c2.7-5.8,14-24.8,18.2-32.5c2.1-3.8,4-7.1,5.9-11.1c4.5-9.3,6.7-17.3-2.1-24.3
			s-26.9-10.6-38.8-11.8c-4.6-0.5-6.9-0.5-9.2-3.7c-0.7-1-1.4-1.4-1.8-2.6l-1.1,9.8c8.5-0.8,20.2,0.4,28.4,2.2
			c3.8,0.8,8.3,2.3,11.7,3.8c1.8,0.8,3.3,1.7,4.9,2.7c2,1.2,3.1,1.9,4.4,3.4c1.9,2.2,5.7,5.2,5.2,10.4c-0.3,2.7-3.7,8.3-4.9,10.7
			c-2.5,4.9-8.2,14.3-11.2,19.8c-1.9,3.3-3.6,6.6-5.6,9.9c-1.8,3.1-3.4,6.9-5.2,10.3c-4.4,8.5-6.2,15.4-5.3,25.6
			c0.8,8.8,2.8,17.4,4.8,26C92.6,435.9,90.3,441.2,88,451.5z"/>
		<path class="st14" d="M-74.9,369.8l0.4,5.7l-2.9,0.8L-74.9,369.8z M-55.7,360.7l-3.8,1.1c0,1.5-0.6,3.8-0.8,5.3
			c-0.3,1.9-0.2,3.6-0.4,5.5c-0.8-1.2-2.7-7-3.7-9.1l-3.9,1.1c-0.3,2.5-1.2,10.4-2.1,12l-1.7-10.5c-0.8-0.1-4.1,0.9-4.8,1.5
			c-0.4,0.3-1.7,3.6-2.1,4.3c-1.3,3-2.9,5.9-3.9,9l-0.1-1.4c0.1-0.4,0.2-1.1,0.3-1.6l1.5-9c-5.2,1.5-3.6,0.4-5.8,4.7l-2.9,6.3
			c-0.5,0.9-0.2,0.4-0.6,0.8l-1.8-8.3l-4.2,1.3l-2.4,15.9l3.7-1.1l1.3-10.1l2,7.7c2.2-0.6,2.7-2.8,3.7-4.8c0.9-1.8,1.9-3.9,2.6-5.5
			l-1.9,10.2c1.5-0.2,6.9-1.7,7.5-2.9c0.6-1.2,0.5-2.7,1.8-3.4c0.6-0.3,3.3-1.1,4-1.2l0.4,3.2l6.3-2c1.7-1,1.7-8.7,1.9-10.9
			c0.2,0.3,3.3,8.8,3.4,9.3l4.1-1.2L-55.7,360.7z"/>
		<path class="st15" d="M-138.6,375.8c1,2.7,1.1,5.3,3.3,6.8c1.9,1.3,3.9,2.6,5.8,4.1l-6.4-2.3C-139,383.1-140,378.5-138.6,375.8z
			 M-124.6,360.5c1.4,0.5,2.7,1.6,3.8,2.5c2.5,1.9,2,1.8,1.8,3.7c-2.9-0.4-6.6-2.6-9.3-1.5c-2.5,1-5.1,2.7-7.8,3.2L-124.6,360.5z
			 M-128.8,389.2c1-0.3,0.8-0.4,1.5-1l6.1-6.1c4.1-3.2,3.1-6.9,3.4-11.1c0.4-5,1-5.3-0.8-8c-2.3-0.7-3.7-2.7-5.8-3.2
			c-0.7,0.5-1.4,1.1-2.2,1.6l-6.7,4.3c-1.5,1-3,2.1-4.5,3.1c-2.2,1.4-1.8,2.1-2.4,4.9c-0.4,2-1.5,4.4-0.8,6.1c0.8,2,1.8,3.5,2.9,4.4
			C-136.3,385.5-131.8,388.6-128.8,389.2z"/>
		<path class="st16" d="M-108.5,284.9c1.9,2.3,3.7,0,2.3,5.5c-3.6,14.3,0.9,23.1,7.4,35.5c2.8,5.4,3.1,3.5,0.9,11.7l-0.5,1.4
			c0,0.1-0.1,0.2-0.1,0.2c0,0.1-0.1,0.1-0.1,0.2c-2.8-2-7.4-5.7-8.5-8.9c-0.6-1.7-0.2-3.7-0.6-5.4c-1.1,0.3-1.6,0.3-2,1.2
			c1.5,1.9-1.1,3.2,3.4,9.2l9.6,11.1c0.1,0.1,0.1,0.1,0.2,0.2l0.6,0.5l6.6-49.4c-0.7,0.8-2.8,11.1-3,12.1c-0.7,3.4-2.5,9.1-2.6,12.3
			l-1.7-1.9c-3.2-5.8-5.8-10.9-5.4-17.8c0.5-7.2,2.4-15.1,4.5-21.9C-102.5,282.7-101.7,284.8-108.5,284.9z"/>
		<path class="st17" d="M-153.7,370.6l0.7,6.3l3.4,0.4c-0.7-5.3,1.4-16,5.9-20.6c0.8-0.8,1.5-1.5,2.2-1.6v-0.3
			c-1.5-0.7-3.2-6.9-3.5-8.2c-4.2-17.1,0.1-34.1,4.8-50.6c0.8-3,4.5-15.8,5.7-17.6l-3.8-0.3l-2.1,0.2c1.7,4,1,5.1-1.2,11.1
			c-4.1,11-7.3,21.6-8.3,33.4c-1.4,16.4,4.1,27.4,0.3,37.6c-1.2,3.1-2,4.1-2.9,7.4l-0.7,2.1C-153.5,370.6-153.4,370.4-153.7,370.6z"
			/>
		<path class="st18" d="M-7.8,200.7c-0.7,0.9-4.4,2.7-5.5,3.4c0.8,1.5,1.1,1.2,1.6,2.2l-22.6,59.4c-1.8,0.2-4.3,0.2-5.7,1.2l6.1,1.7
			c-0.3,2.2-3.9,10.4-5,13l-2,0.2v1l-15.6,5.8c-2.5,1.1-1.7,0.6-2.1,0.4c-1.1,0.7-2.1,1.7-3.2,2.5c8.1-1.8,17.1-6.8,25.8-7.9
			c1.1-1.9,2.6-6.7,3.5-9c2.8-7.5,3-6.1,0.9-8.7L-6,200.1L-7.8,200.7z"/>
		<path class="st19" d="M-140.1,353.9v0.3c0.8,0.3,1.2,0.8,2,1.3s0.1,0,0.9,0.6c0.7,0.6,0.2,0.1,0.6,0.7c1.3-0.1,1.1-0.5,2.5-1.3
			l7.6-4.3c2.6,2.8,6.4,8,9.1,11.2c0.6,0.7,1.1,1,1.3,1.9c0.3,1.3-0.5,9.4-0.5,11.5c-0.1,4.1,0.6,2.7-4.3,7.4
			c-1.8,1.8-6.8,7.5-9.2,8.1c-1.7,0.4-3.6,0.4-5.3-0.1c-1.6-0.5-2.6-1.3-3.7-2c-0.6-0.5-1.1-0.9-1.7-1.3l-4.4-4.4
			c-1.1-1.5-0.9-3.5-0.6-5.5l-3.7-0.5c0.8,4.7,4.3,9.4,6.7,18.2c7,1.8,13.9,0.6,19-3.8c1.9-1.6,6.6-8,8-10.2c1.3-2,1.2-1.8,1.2-4.7
			c0.1-2.7,1-12.7,0.4-14.2c-0.4-1.1-2-2.6-2.8-3.6l-0.6-0.9c0-0.1-0.1-0.1-0.1-0.2l-6.5-7.8c0,0-0.1-0.1-0.1-0.2l-0.6-0.6
			c-0.4-0.4-0.2,0-0.7-0.9c-2.1,0.5-5.3,1.7-7.5,2.5C-135,351.7-138.8,353.6-140.1,353.9z"/>
		<path class="st20" d="M-128.8,389.2c-3-0.6-7.5-3.6-9.4-5.1c-1.1-0.9-2.2-2.4-2.9-4.4c-0.6-1.7,0.4-4.1,0.8-6.1
			c0.6-2.8,0.2-3.5,2.4-4.9c1.5-0.9,3-2.1,4.5-3.1l6.7-4.3c0.9-0.6,1.6-1.2,2.2-1.6c2.1,0.5,3.5,2.5,5.8,3.2l-4.2-5.1
			c-1-1.3-3.4-3.8-3.9-5.2c-1.8,0.6-9.2,6.3-10.7,7.5l-4.9,3.9c-1.1,0.9-1.3,1-1.6,3c-0.7,3.8-0.8,8.5-1,12.3
			c-0.2,3.4,1.5,4.4,3.3,5.7c2.2,1.6,1.8,1.9,5.4,3.4C-134.3,389.2-130.8,390.2-128.8,389.2z"/>
		<path class="st21" d="M-137.7,262.9c0,0-3.1,5-3.8,6.1c-1.5,2.1-2.9,4.1-4.3,6c-7,9.5-9.7,16.8-12.4,29.3l-3.1,16.5l-0.7-1.2
			c0.1,8.8,2.1,16.3,4,24.6c0.3-0.9-0.6-10.7-0.6-12.8c-0.2-4.8,0.1-9.2,0.4-13.8c1.3-17.8,6.5-28,15.4-41.6
			c3.5-5.3,6.6-9.7,10.5-14.4l1.7-2.2C-132.5,260-136.6,261.5-137.7,262.9z"/>
		<path class="st22" d="M-128.8,389.2c-2,1.1-5.5,0-7.5-0.8c-3.6-1.6-3.1-1.8-5.4-3.4c-1.9-1.3-3.5-2.3-3.3-5.7
			c0.2-3.8,0.3-8.5,1-12.3c0.4-1.9,0.5-2.1,1.6-3l4.9-3.9c1.6-1.1,9-6.9,10.7-7.5c0.5,1.4,2.8,3.9,3.9,5.2l4.2,5.1
			c1.8,2.7,1.2,3,0.8,8c-0.3,4.2,0.7,7.9-3.4,11.1l-6.1,6.1C-128,388.8-127.8,388.8-128.8,389.2z M-136.6,356.8
			c-0.5,0.8-0.9,1.1-1.8,1.4c-0.6,0.6-1.2,1.1-2,1.7s-1.2,0.7-1.9,1.5c-0.2,0.2-0.2,0.2-0.4,0.5c-3.4,3.5-3.2,10-3.3,16
			c-0.3,2-0.4,4,0.6,5.5l4.4,4.4c0.6,0.5,1.1,0.9,1.7,1.3c1.1,0.8,2.1,1.5,3.7,2c1.7,0.6,3.6,0.6,5.3,0.1c2.4-0.6,7.4-6.3,9.2-8.1
			c4.8-4.8,4.2-3.3,4.3-7.4c0-2,0.8-10.2,0.5-11.5c-0.2-0.9-0.7-1.2-1.3-1.9c-2.7-3.2-6.5-8.5-9.1-11.2l-7.6,4.3
			C-135.5,356.3-135.3,356.7-136.6,356.8z"/>
		<path class="st23" d="M-141.6,354.9l1.5-0.6V354c-2.1-2.9-4.5-14.1-4.9-18.2c-0.9-8,0-12.9,1.8-20.4c1-4.4,9.3-35.2,9.1-36.5
			c1.2,0.2,1.1,0.3,2.1,0.1l-2.6-0.4c-1.2,1.7-4.8,14.6-5.7,17.6c-4.7,16.4-9.1,33.5-4.8,50.6C-144.7,348-143,354.2-141.6,354.9z"/>
		<path class="st24" d="M-149.6,377.4l3.7,0.5c0.2-6.1-0.1-12.5,3.3-16c0.2-0.2,0.2-0.3,0.4-0.5c0.7-0.8,1.1-0.9,1.9-1.5
			c0.8-0.6,1.4-1.1,2-1.7l-3.2-3.1c-0.7,0.1-1.4,0.8-2.2,1.6C-148.2,361.3-150.3,372-149.6,377.4z"/>
		<path class="st25" d="M-135.2,460.3c3.2,1.5,5.6,2.7,8.2,4.3l7.5,5.6c0.5,0.3,0.9,0.6,1.3,1.1c2.6,2.6,4.3,3.9,6.6,6.5
			c1.2,1.3,1.1,1.7,2.8,2.6c0.2-0.3,0.2-0.3,0.4-0.7c0.9,0,0.5-0.1,1.3,0.2c-0.9-1.1-1.5-2.5-2.4-3.7c-0.5-0.7-0.9-1.1-1.3-1.7
			c-0.7-0.8-0.7-1.2-1.5-2c-0.9-0.3-1.7-1.7-3.7-3.2c-0.6-0.5-0.7-0.5-1.4-1c-1.5-1.2-3.6-2.6-5.6-3.8c-1.8-1.1-10.5-6.4-12.2-6.6
			c-0.6,0.9,0.1-0.3,0.1,1.1C-134.9,459.8-135,459.7-135.2,460.3z"/>
		<path class="st26" d="M83.9,467.3c1.8,2,3.7,11.4,5.6,14.3c0.7-2,1.1-7.2,0.2-9c-1.1-2.4-2.4-4.7-3.6-7c-1.9-3.7-5.4-11.3-7-13.9
			c-0.6-1.6-1.4-2.6-1.9-3.7C78.2,452.2,83.8,464,83.9,467.3z"/>
		<path class="st27" d="M-45.2,280.7c0,0,5.4,1.3,6.6-1.4l1.6-4.1c0.8-1.8,1.7-3.9,2.2-5.7l-5.9-1.5c1,1.3,2,2.3,1.9,3.3
			c-0.1,0.5-1.8,5.9-3.3,7.1C-43.9,279.7-43.9,280.1-45.2,280.7z"/>
		<path class="st28" d="M-45.2,280.7c-0.9-4.6-2.2-1.4-0.1-6.9c0.6-1.6,1.8-5.3,2.7-6.5l1.9,0.6l5.9,1.5c-0.4,1.8-1.4,3.8-2.2,5.7
			l-1.6,4.1C-39.8,282-45.2,280.7-45.2,280.7z M-40.8,281.8l2-0.2c1.1-2.6,4.7-10.9,5-13l-6.1-1.7l-3-0.6c-0.8,0.7-2.7,6.4-3.3,7.8
			c-1.8,4.8-1.3,3.4,0.7,8L-40.8,281.8z"/>
		<path class="st29" d="M-100.8,470.9l7.2,1c-0.3-0.5-1-1.7-1.2-2.3l-10.1-2.9C-104,467.7-101.8,470.3-100.8,470.9z"/>
		<path class="st30" d="M-141.6,354.9v0.3l3.2,3.1c0.9-0.3,1.3-0.5,1.8-1.4c-0.5-0.6,0.1-0.1-0.6-0.7c-0.8-0.6-0.1-0.1-0.9-0.6
			c-0.8-0.5-1.1-1-2-1.3L-141.6,354.9z"/>
		<polygon class="st31" points="-77.5,376.3 -74.5,375.5 -74.9,369.8 		"/>
	</g>
</g>
</svg>
