<?xml version="1.0" encoding="utf-8"?>
<!-- Generator: Adobe Illustrator 19.0.0, SVG Export Plug-In . SVG Version: 6.00 Build 0)  -->
<svg version="1.1" id="Layer_1" xmlns="http://www.w3.org/2000/svg" xmlns:xlink="http://www.w3.org/1999/xlink" x="0px" y="0px"
	 viewBox="-323.9 412 286.9 381.2" style="enable-background:new -323.9 412 286.9 381.2;" xml:space="preserve">
<style type="text/css">
	.st0{fill:#8A8A8A;}
	.st1{fill:#313131;}
	.st2{fill:#B7B7B7;}
	.st3{fill:#343434;}
	.st4{fill:#414141;}
	.st5{fill:#212121;}
	.st6{fill:#333333;}
	.st7{fill:#191919;}
	.st8{fill:#EFEFEF;}
	.st9{fill:#0E0E0E;}
	.st10{fill:#B5B5B5;}
	.st11{fill:#303030;}
	.st12{fill:#2E2E2E;}
</style>
<g id="Layer_x0020_1">
	<g id="_495799933920">
		<g>
			<ellipse class="st0" cx="-166.6" cy="510.6" rx="92.6" ry="68.7"/>
			<g>
				<path class="st1" d="M-110.7,563.2c0.2,0.7,0.1,0.8,0.4,0.4l6.1-10.1c-0.4-0.9,0.2-0.3-0.8-0.5c-1.9,0.8-1.1-0.1-5-1
					c-0.6,0.6-1.5,2.1-1.8,2.9l3.3,1.3l-0.8,1.6l-3.6-1.2l-2.1,3.5l4.7,1.4L-110.7,563.2z"/>
				<path class="st1" d="M-152.2,541.3c0.9-1.1,1.2-1.8,1.8-3.1l-3.4-1.2c-0.3,1.3-1.1,2-1.7,3.4
					C-154.5,540.9-153.3,541.4-152.2,541.3z"/>
			</g>
			<g>
				<path class="st2" d="M-102.2,554.8l3.2,0.9c-0.2,1-0.9,2.1-1.6,2.8c-1.3,0-2-0.5-3.3-0.9L-102.2,554.8z M-104.2,553.5l-6.1,10.1
					c0.5,0.6,1.4,0.8,2.2,1c0.8-1,2.5-3.9,3.1-5.1l1.8,0.5l-1.2,5.9l2.4,0.9l1-6.1c3.1-0.2,4.8-4.1,4.6-6.1
					c-1.3-0.7-5.1-2.1-6.8-2.4C-103.5,552.6-104.1,553.4-104.2,553.5L-104.2,553.5z"/>
				<path class="st2" d="M-144.5,552l1.9,0.7c1.5-1.9,3.5-6.2,4.7-7.4l-1,6.6c0,0.3-0.1,0.7-0.1,1l0.1,1.1l2.1,0.7
					c1.7-3.1,5.6-8.8,6.9-11.6l-1.9-0.8c-0.9,1.3-3.8,5.9-4.3,7.5c-0.7-1.2,0.6-6.3,0.8-8.7l-2.5-0.8
					C-138.1,541.9-143.3,549.6-144.5,552L-144.5,552z"/>
				<path class="st2" d="M-127.4,558l2,0.8l3.2-5.2l3.3,1l-3,5.2c0.6,0.5,1.2,0.6,2.1,0.8c0.3-0.4,6.6-10.4,7-11.6l-2-0.8
					c-1.1,1.4-1.9,3-2.9,4.6c-1-0.2-2.6-0.7-3.2-1.2l2.7-4.6l-2.3-0.7C-121.8,548.3-127.1,556.7-127.4,558L-127.4,558z"/>
				<path class="st2" d="M-148.4,546.1c0.6-1.1,1.1-1.7,2.2-2.5c0.9-0.7,0.9-1.4,2-2.1l-1.9,5.4L-148.4,546.1z M-154.1,549l2.1,0.6
					c0.4-0.3,0.8-0.6,1.2-0.9c0.5-0.5,0.7-0.7,1.1-1.2c1,0.3,2.3,0.6,2.9,1.2l-0.8,2.3l2.6,1l3.8-12.9l-2.7-0.9l-5.2,5.2
					C-150.6,545.2-152.6,547.1-154.1,549z"/>
				<path class="st2" d="M-152.2,541.3c-1,0.1-2.2-0.4-3.3-0.9c0.5-1.3,1.4-2,1.7-3.4l3.4,1.2C-151,539.6-151.4,540.2-152.2,541.3z
					 M-161.7,546.4l2.4,0.6c0.5-1.6,1.8-2.9,2.4-4.6c2.1,0.4,4.7,2.3,6.4,0.6c0.7-0.7,2.8-4.2,2.9-5.5c-1.2-1.5-5.1-2.6-7.2-3.1
					C-155.6,536.8-161.1,544.4-161.7,546.4z"/>
				<path class="st2" d="M-110.7,563.2l0.6-1.6l-4.7-1.4l2.1-3.5l3.6,1.2l0.8-1.6l-3.3-1.3c0.3-0.8,1.2-2.3,1.8-2.9
					c3.8,0.9,3.1,1.8,5,1l0.4-1.2c-0.8-0.7-5.2-2-6.6-2.4l-7.2,11.8c1.5,0.3,2.5,0.7,3.9,1.2C-112.1,563.2-111.8,563.7-110.7,563.2
					L-110.7,563.2z"/>
				<path class="st2" d="M-130,545.1l2.5,0.9c-1,2.4-5.2,8.2-5.7,9.9l2.4,0.8c0.3-1.3,4.8-8.6,5.7-9.9l2.8,0.9
					c0.3-1,0.3-0.8,0.9-1.8l-7.4-2.7L-130,545.1z"/>
			</g>
			<g>
				<path class="st3" d="M-167,592.2c0.4,6.8,1.8,14.2,2.5,21c0.7,6.7,2.4,13.5,3.7,20.2c0.3,1.6,0.4,3.5,1.5,4.4l20.7,15.2
					c0.8,0.6,3,2.3,3.7,2.5l-8.2-11.5c-3.5-4.8-1.9-2.9-7.7-6.4c-1-0.6-6.9-3.9-7.2-4.2c-0.4-0.5-6.5-34.9-6.8-38.2
					c2.3-0.9,26.4-12.4,27.3-13.1c-0.6-1.2-2.4-2.2-3.1-2.2c-1-0.1-16.8,7.7-18.9,8.7C-161.9,589.8-164.8,590.9-167,592.2
					L-167,592.2z"/>
				<path class="st3" d="M-86.4,462.4c-0.5,0.7,0.4,0.9-0.9,0c-0.1-0.1-0.7-0.7-1-0.8c-0.8-0.6-1-0.7-1.7-1.6
					c-0.8,0.6-0.2-0.1-0.3,0.7c-0.1,0.7,0.3,1.5,0.5,2.3c0.3,1.1,0.6,2.1,0.9,3.2l7.3,24.9c0.3,0.4,4,3,4.7,3.5l14.1,9.9
					c6.7,4.8,4.2,0.8,8.4,15.8l7.1,25.2c-0.2-2.9-4.1-20.5-5-25.2c-0.9-4.6-1.4-7.8-3.1-12.1c-0.9-2.3-0.5-1.5-3.7-3.9l-13.2-9.9
					c-1.5-1.1-2.8-2.2-4.3-3.3c-2.3-1.7-2.1-1.4-3-4.6l-6.4-22.2c-0.1-0.5,0-0.2-0.1-0.7c0-0.1,0-0.2-0.1-0.3l-0.2-0.5
					C-86.3,462.6-86.4,462.5-86.4,462.4L-86.4,462.4z"/>
			</g>
			<g>
				<path class="st4" d="M-88.1,585.6h-12.2c0,0.1,0.1,0.1,0.2,0.2c0.3,1.1,4.8,2,7.3,6.3l3.9,6.6c0.4,0.8,1,1.4,1.3,2.2l6.5,21.2
					c0.5,1.8,1.7,3.7,0.6,4.8c-0.7,0.7-0.6,0.2-1.8,1.8c-0.8,1.1-0.6,0.8-1.7,1.8c-0.7,0.6-1,1.2-1.6,2c-0.7,1-1.1,0.9-1.8,1.7
					c-0.6,0.7-0.8,1.3-1.6,2c-2.3,2.1-1,1.4-3.3,3.4c-0.7,0.6-1,1.2-1.6,2c-0.7,0.9-1.1,0.9-1.8,1.7c-0.6,0.7-0.8,1.3-1.6,2
					c-1.1,1-0.9,0.7-1.7,1.8l-8.2,9.1c-1,1.4-1.4,1.2-3.3,3.7c-1,1.4-0.7,4.4-0.8,6.5c-0.1,2.3,1.3,2.3,3.3,3.3
					c8.9,4.2,11.6,5.7,21.7,2c3.7-1.4,5.9-2.8,8.4-5.3c1-1,0.9-0.3,1.7-1.8c0.3-0.6,0.8-1.5,1.1-2.4c0.7-1.8,1.1-3.5,1.6-5.4
					c1.2-4.4,4.1-19.2,3.9-23.3c-2.2,4.9-1.3,5.3-5.4,12.7l-6.8,11.1c2.5-6,5.4-12.8,7.3-19.6c2.5-9.3,4.7-14.1,9.7-20.7
					c0.6-0.7,1.1-1.2,1.6-1.9c0.3-0.4,0.2-0.4,0.6-0.9l8.7-10.3c1.8-2.4,3.7-5.4,5.4-8.3c1-1.6,4.3-7,4.8-8.7l-14.8,3.9
					c-0.6-1.2-1.3-2.1-2.3-2.9c-1.2-1-1.3-1.7-2.3-2.7c-1.3-1.3-0.4,0.1-2.4-2.6c-0.6-0.8-0.5-0.6-1.3-1.3c-0.7-0.6-0.5-0.8-1.5-1.1
					l-17.3-2.9L-88.1,585.6L-88.1,585.6z"/>
				<path class="st4" d="M-131.8,583.1c-1.7,0.5-4.9,2.7-6.8,3.7c-3.2,1.7-18.7,10.8-20.5,11.3l3.3,34.9l12.2,5.1
					c1.2,0.6,1.9,1.9,2.7,3.2l8.2,12.2c2,2.8,3.2-0.1,7.3-5.5l5.4-7.1c0.8-0.9,1-1.3,1.7-2.3l16.8-21.6l-22.3-26.6
					c-0.6-0.7-0.4-0.5-1.1-1.3l-9.1-10.8C-133.5,580-132.4,581.4-131.8,583.1L-131.8,583.1z"/>
				<path class="st4" d="M-96.8,777.9c-2.9-2.3-13.8-9.2-18.3-12.5l-7.8-5.4c-1.8-1.2-3.4-2.4-5.1-3.7l-3.8-2.9
					c-0.6-0.5-0.7-0.5-1.2-0.9c-2-1.5-2.6-3.1-3.4-5.3c-4.4-12.3-2.5-17.9-2.3-31.8c0.1-5.6,0.6-11.4,0.6-17c0-1.9-0.1-2.3,1.2-3.2
					l7.3-5.7l-15.8,3.3c-1.9,0.4-4.1,0.6-4.7,1.4c-0.6,0.7-3.2,7.7-3.8,9.1c-1.2,3-2.4,6-3.6,8.9l-11,26.9c-1.6,4.3-2.2,4.8,0.6,8.9
					l4.6,5.1c2.7,2.1,6.3,4.5,9.7,6.1c8.5,4,28.2,10.7,37.4,13.1C-112.6,773.3-99.3,777.6-96.8,777.9L-96.8,777.9z"/>
				<path class="st4" d="M-186.2,457.4c-7.1-1.1-29.5-9.1-37-7.2c-4.2,1.1-3.1,5.1-1.6,6.8c3.9,4.9,18,8.1,24,9.9
					c2.8,0.8,6,1.5,8.9,2.2c4.6,1.1,4.9,0.2,8.4-1.8c7.7-4.6,10.7-2.7,16.8,0.1c1.9,0.9,29.5,12.6,31.7,13.1l-67.3-56.9
					c-1.7-1.6-3-1.4-6.2-2.3l-15.1-3.9l7.8,11.6c7.8,12.9,3.8,11.4,4.8,14.2c0.5,1.6,4.4,2.4,6.5,3.2c4.2,1.7,5,3.8,8.9,6
					L-186.2,457.4z"/>
				<path class="st4" d="M-74.3,529.3c-0.8,0.6-1.2,0.9-2.5,1.1c2,1.5-1.3-0.4,1.4,0.7c3.6,1.5,10.7,6,13.6,8.3l3.3,2.5
					c1.1,0.8-0.2,0.3,1.1,0.8l-10.2-26.8c-0.6-1.1-7.2-3.7-8.3-4.3c-5.7-2.5-11.4-5.4-17.1-7.8l-4.7-2.8l-4.6-12.6
					c-4.5-12.1-9-24.2-13.3-36.3c-1.9-5.2-1.2-4-6.7-5.6c-13.2-3.7-18.3-3.9-32-5.7c1.8,1.3,4.8,2.3,6.9,3.6c3,1.8,9.8,6.2,12.1,9
					c0.4,0.5,0.8,0.9,1.3,1.3c0.6,0.6,0.7,0.6,1.4,1.2l2.4,2.9c5.1,6.8,11.1,19.7,13.7,28.4c1.4,4.8,0.9,11.4,6.7,14.3
					c6.2,3.1,16.3,6.1,21.4,10.1l8.9,9.5C-78,523.1-74.4,526.9-74.3,529.3L-74.3,529.3z"/>
				<path class="st4" d="M-222.6,606.2c1.3-0.5,2.5-1.9,3.3-2.8c0.5-0.5,0.9-0.9,1.5-1.5c2-2,2.3-2,4.3-5c6.2-9,2-14.3-2.1-22.2
					c-1.7-3.3-3.4-5.8,0-8.2c4.2-3,13.5-5.8,19-5.6c3.8,0.1,6.5,1.8,9.9,2.3c-8.4-5.2-16.1-8.4-25.4-15.1c-2-1.5-4.1-2.9-4.7-5
					c2-3.2,9.6-4.5,14-5.5c-3.2-0.5-24.8-0.1-30.3-0.1c-2,0-3-0.1-4.4,3.3c-4.2,10.3,8.2,23.8,13.5,38
					C-220.2,589.1-224.2,595.4-222.6,606.2z"/>
				<path class="st4" d="M-62.1,563.5c0.5,1,1,1.5,1.7,2.5l4.8,7.5c1,1.7,3.4,1.9,6.2,2c3,0.2,4.7-1.3,5.7-2.8c3.3-4.8,3.3-6,0.6-12
					c-1.2-2.5-4.3-9.5-5.7-11.1c0,0.1-0.1,0.1-0.1,0.2l-2.6,3.9c-0.6,0.8-1,0.8-1.7,1.5c-0.8,0.8-0.8,1.2-1.5,2
					c-0.8,0.9-1.6,1.1-3.6,3.2c-0.7,0.7-1.1,0.8-1.8,1.4L-62.1,563.5L-62.1,563.5z"/>
				<path class="st4" d="M-261.2,686.5c5.1-3.4,4,1.7,7.1,7.6c1.2,2.4,4.3,6.1,6,7l4.5-42L-261.2,686.5z"/>
				<path class="st4" d="M-55.3,499.5l-19.1-26.4c-0.3-0.4-0.5-0.5-0.8-0.9l-3.8-3.8c-0.8-0.7-1.3-1.1-2-1.8c1.3,7.7,4.1,18,8.7,24
					c0.6,0.8,1.1,1.6,1.6,2.2C-68.9,494.8-58.1,498.5-55.3,499.5z"/>
				<path class="st4" d="M-85.2,489.8c0.1-3.4-6.9-25-8.5-31.3c-0.5-1.9-0.1-1.6-3.7-3c-1.6-0.6-3.3-1.5-5-2.1
					c1,3.1,2.6,6.6,3.9,9.6l7.7,18.6C-89.6,484.6-88.4,489.5-85.2,489.8z"/>
			</g>
			<g>
				<path class="st5" d="M-167,592.2c2.3-1.3,5.2-2.4,7.5-3.6c2.1-1,17.8-8.8,18.9-8.7c0.7,0.1,2.5,1,3.1,2.2
					c-0.8,0.7-25,12.3-27.3,13.1c0.3,3.3,6.4,37.7,6.8,38.2c0.3,0.3,6.2,3.6,7.2,4.2c5.8,3.5,4.1,1.5,7.7,6.4l8.2,11.5
					c-0.7-0.3-2.9-1.9-3.7-2.5l-20.8-15.1c-1.1-0.9-1.2-2.8-1.5-4.4c-1.3-6.7-3-13.5-3.7-20.2C-165.3,606.4-166.7,599-167,592.2
					L-167,592.2z M-258.8,525.8L-258.8,525.8c1.1,1,1.7,1.9,3.4,2.7c1.6,0.7,3.3,0.6,5,0.9c1.6,0.7,14.7,1,16.4,1
					c6.4-0.2,7.7-3.3,12-5.8c-1.1,4.5,2.4,6.1,6.3,6.9c10.2,2.3,27.3,0.3,37.8,0.3c-7,3-23.6,6.9-28.9,11.8c0.1,1.7,1.3,2.8,2.2,3.7
					l3.2,2.7c2.3,1.6,4.3,3.2,7,4.7c9,5,16.5,6.9,26.7,8.4c2.6,0.4,25,6.4,27.9,7.1c1.8,0.4,8.1,1.8,9.1,2.6c1,0.8,4.2,5.4,5.1,6.5
					c0.6,0.7,0.6,0.9,1.2,1.7c0.4,0.4,0.9,1,1.3,1.6l17.9,23c0.8,1.1,1.7,2.2,2.5,3.3l7.6,9.8l-21.8,30c-0.8,1.2-1.5,1.9-2.2,3
					l-10.7,14.7c-1.7-0.9-4-1.8-5.7-2.7c-5-2.9-32.4-17-33.8-18.2c-0.9-0.8-9.8-30-10.5-32.4c-2.1-7.3-6.9-20.2-8.3-26.3l5.4-4.2
					c0.4-0.3,0.5-0.5,0.9-0.8c2.4-1.8,5.8-4.1,7.7-6.4c-2.4-1.5-5.2-3.1-7.8-4.6c-2.7-1.6-5.2-3-7.9-4.6c-2.5-1.4-2.3-1.2-5.5-0.9
					c-1.9,0.2-3.6,0.3-5.5,0.6c-10.9,1.8-9.2,5.6-7.1,14.3c0.8,3.2,1.6,7.1,1.8,10.4c0.4,6.4-0.1,9.7-4.2,14.1l-1.8,1.4
					c-0.6,0.4-1.1,0.8-1.6,1.3l-15.9,12.4c-0.6,0.5-1.1,0.9-1.7,1.5c-1.2,0.9-2.3,1.6-3.2,2.9l-10.1,14.7
					c-3.6,5.5-9.7,13.6-12.6,18.4c-0.6,1-2,2.4-2.4,3.5c0.4-1.7,2.1-5.5,2.9-7.4c1-2.5,2-5,3-7.5l17.9-44.4c0.9-2.3,5.8-13,5.3-14.7
					c-1.5-4.6-12.4-34.1-14.5-37.5l-3.7-6.7c-0.8-0.6-4.2-6.9-5-8.3c-0.8-1.4-1.7-2.9-2.5-4.2C-257.4,528.7-258.7,527.1-258.8,525.8
					L-258.8,525.8z M-131.8,583.1c-0.6-1.7-1.8-3.2-2.3-4.9l9.1,10.8c0.7,0.7,0.5,0.6,1.1,1.3l22.4,26.7l-16.6,21.6
					c-0.8,1-1,1.4-1.7,2.3l-5.4,7.1c-4.1,5.4-5.3,8.3-7.3,5.5l-8.2-12.2c-0.7-1.2-1.5-2.6-2.7-3.2l-12.4-5.1l-3.3-34.8
					c1.8-0.5,17.3-9.6,20.5-11.3C-136.7,585.9-133.5,583.7-131.8,583.1L-131.8,583.1z M-222.6,606.2c-1.6-10.7,2.4-17-1.5-27.5
					c-5.3-14.2-17.6-27.7-13.5-38c1.4-3.4,2.3-3.3,4.4-3.3c5.5,0.1,27.1-0.3,30.3,0.1c-4.4,0.9-12,2.2-14,5.5c0.6,2.1,2.7,3.6,4.7,5
					c9.4,6.8,17,9.9,25.4,15.1c-3.4-0.6-6.1-2.2-9.9-2.3c-5.5-0.2-14.8,2.6-19,5.6c-3.4,2.4-1.8,4.9,0,8.2c4.1,8,8.3,13.2,2.1,22.2
					c-2.1,3-2.4,3-4.3,5c-0.5,0.5-1,0.9-1.5,1.5C-220.2,604.3-221.4,605.7-222.6,606.2z"/>
				<path class="st5" d="M-202.4,766.5c0.6,0.7,1.5,1.3,2.2,1.5l24.4-78.2l-5.3-6.3c-0.5-0.5-0.5-0.7-1.1-1.3l-4.2-4.8
					c-3.1-4.1-3.1-2.2-3.3-10.6l31.1,6.1c-5.3-19.5,0.8-12.2-14-19.4c-0.7,0.4-4.4-0.6-5.6-0.7c-3.2-0.4-2.9,0.3-4.3-2.3l-9.6-17.9
					c-0.8-1.5-1.6-3-2.5-4.6c-1-1.9-1.3-3.5-2.7-4.4c-1.5,2.1-10.7,10.1-11.2,11.8c-0.6,2.3-0.9,7.8-1.3,10.4l-8.6,72.1
					c-0.4,3.5-0.8,7-1.2,10.4c-0.7,5.7-1.4,6.4,0.3,9.3l12.8,22C-205.8,760.6-202.4,766.5-202.4,766.5L-202.4,766.5z"/>
				<path class="st5" d="M-60.2,561.8c0.7-0.7,1.1-0.7,1.8-1.4c1.9-2,2.7-2.2,3.6-3.2c0.7-0.8,0.7-1.2,1.5-2
					c0.7-0.7,1.1-0.7,1.7-1.5l2.6-3.9c0-0.1,0.1-0.1,0.1-0.2c1.4,1.5,4.5,8.5,5.7,11.1c2.8,6,2.8,7.2-0.6,12c-1,1.5-2.7,3-5.7,2.8
					c-2.7-0.2-5.1-0.4-6.2-2l-4.8-7.5c-0.7-1-1.2-1.5-1.7-2.5L-60.2,561.8L-60.2,561.8z M-88.1,548.3l1.4-4l16.3,1.5
					c1.6,3.6,6.4,18.3,6.4,21.8l-0.8-0.3c-4.1-0.5-19.2-3.6-20.9-6.1c0.3-1.2,0.5-1,1.4-1.7c0.7-0.5,1.2-0.8,1.9-1.1
					c-0.8-1.4-1.4-1.5-2.4-2.3C-89.1,552.7-89,551.3-88.1,548.3L-88.1,548.3z M-75.2,472.2c0.3,0.4,0.5,0.5,0.8,0.9l19.1,26.4
					c-2.8-1-13.6-4.6-15.4-6.7c-0.5-0.6-1-1.4-1.6-2.2c-4.6-6-7.5-16.3-8.7-24c0.7,0.6,1.2,1.1,2,1.8L-75.2,472.2L-75.2,472.2z
					 M-85.2,489.8c-3.1-0.3-4.3-5.2-5.6-8.1l-7.7-18.6c-1.3-3-2.9-6.5-3.9-9.6c1.7,0.5,3.4,1.4,5,2.1c3.6,1.4,3.3,1,3.7,3
					C-92.1,464.8-85.1,486.4-85.2,489.8z M-107.3,451.2c0.7,1,14.5,37.4,16.1,41.7c0.8,2.3,2,2.4,5.3,4.3l24.1,14.5
					c1.4,1.1,8.4,24.6,9.8,28.8c0.8,2.3,2,5.3,2.5,7.6l-4.5,3.8c-0.5,0.4-0.3,0.3-0.7,0.7c-0.3,0.3-0.5,0.3-0.9,0.6l-1.4,1.2
					c-0.3,0.3-0.4,0.4-0.8,0.7l-2.3,1.8c-0.5,0.4-0.4,0.2-0.8,0.6c-0.7,0.6,0.2,0.1-0.7,0.6c-1.1-0.9-3.3-9-3.7-10.3
					c-0.6-1.7-1.2-3.4-1.8-5.2c-0.6-1.8-0.4-1.4-4.7-2.3c-3.8-0.8-7.8-1.7-11.6-2.4c-3-0.6-5.7,1.1-11.4,1.7c0,1.2,1.1,3.7,1.2,5.8
					c0.1,2.5,0.2,5,0.1,7.5c-0.1,3.5-1.1,5.6-3.6,7.4c-0.9,0.7-1.2,1.1-2.3,1.5c-0.1,2.7-0.7,7.6-1.7,9.8
					c-2.5-0.3-59.6-21-63.8-21.4c0.3,0.8,1,1,1.5,1.6c0.7,0.8,0.7,1.1,1.6,1.9l3.8,3.5c1.5,1.5,2.5,4,2.7,4.3
					c0.7,0.9,4.2,1.4,5.5,1.8l17,4.7c1.2,0.3,2.1,0,2.8,0.2c1.3,0.2,0.1-0.1,1,0.6c0.7,0.5,0.6,0.4,1.5,0.6c8.6,2.4,20,5.2,28.2,7.7
					c4.1,1.3,2.5,1.1,7-3.8c0.5-0.5,0.4-0.7,0.9-1.2l3.5-3.9c2.4,0.2,24.9,3.2,25.5,3.6c0.7,0.4,6.1,6.1,7.2,7.1
					c1.9,2,1.6,1.3,4.2-0.2c0.9-0.5,1.4-0.7,2.3-1.2l2.3-1.4c0.1,0,0.2-0.1,0.2-0.2c0.7,0,6-2.9,7-3.5c-0.6-6-2.5-11.4-3.4-17.3
					c-0.9-6.1-1.5-12.1-2.2-18.3c-0.7-6.1-0.8-12.4-2-18.4c-3.3-16-11.3-30.4-21.1-43.1c-1.3-1.6-3-5.2-5.5-7.4
					c-1.7-1.5-13.7-10.5-14.6-10.8l1.7,5.2c0,0.1,0.1,0.2,0.1,0.3l0.2,0.5c0,0.1,0,0.2,0.1,0.3c0.1,0.5,0,0.3,0.1,0.7l6.4,22.2
					c0.9,3.1,0.8,2.9,3,4.6c1.5,1.1,2.9,2.2,4.3,3.3l13.2,9.9c3.2,2.4,2.9,1.6,3.7,3.9c1.6,4.3,2.2,7.5,3.1,12.1
					c0.9,4.7,4.8,22.3,5,25.2l-7.1-25.2c-4.2-15-1.7-11-8.4-15.8l-14.1-9.9c-0.8-0.5-4.4-3.1-4.7-3.5l-7.3-24.9
					c-0.3-1-0.6-2.1-0.9-3.2c-0.2-0.8-0.6-1.6-0.5-2.3c0.1-0.8-0.5-0.1,0.3-0.7c-1.4-1.6-1.6-4.9-2.6-5.8c-0.6-0.5-4.2-2.6-5.3-3.2
					c-3.4-1.8-7.7-4.2-11.6-5.6L-107.3,451.2L-107.3,451.2z"/>
				<path class="st5" d="M-74.1,637.3c-1.9,6.9-4.8,13.6-7.3,19.6l6.8-11.1c4.1-7.5,3.2-7.8,5.4-12.7c0.2,4-2.7,18.8-3.9,23.3
					c-0.5,1.9-0.9,3.6-1.6,5.4c-0.3,0.9-0.8,1.8-1.1,2.4c-0.8,1.5-0.7,0.9-1.7,1.8c-2.5,2.5-4.7,3.9-8.4,5.3
					c-10.1,3.8-12.8,2.2-21.7-2c-2-0.9-3.4-1-3.3-3.3c0.1-2-0.2-5.1,0.8-6.5c1.9-2.5,2.3-2.3,3.3-3.7l8.2-9.1
					c0.8-1.1,0.6-0.8,1.7-1.8c0.7-0.7,0.9-1.2,1.6-2c0.7-0.8,1.1-0.8,1.8-1.7c0.6-0.7,0.8-1.3,1.6-2c2.2-2,1-1.4,3.3-3.4
					c0.7-0.6,0.9-1.3,1.6-2c0.7-0.8,1-0.8,1.8-1.7c0.6-0.8,0.8-1.3,1.6-2c1.1-1,0.9-0.7,1.7-1.8c1.1-1.6,1-1,1.8-1.8
					c1.1-1.1-0.1-3-0.6-4.8l-6.5-21.2c-0.4-0.8-0.9-1.4-1.3-2.2l-3.9-6.6c-2.5-4.3-7-5.2-7.3-6.3c0-0.1-0.1-0.1-0.2-0.2h12.2
					l2.7-8.6l17.3,2.9c1.1,0.3,0.8,0.5,1.5,1.1c0.8,0.7,0.7,0.5,1.3,1.3c2,2.6,1.1,1.2,2.4,2.6c1,1,1.1,1.7,2.3,2.7
					c1,0.8,1.7,1.7,2.3,2.9l14.8-3.9c-0.5,1.7-3.8,7.1-4.8,8.7c-1.7,2.9-3.6,5.9-5.4,8.3l-8.7,10.3c-0.4,0.4-0.3,0.4-0.6,0.9
					c-0.5,0.7-1,1.2-1.6,1.9C-69.4,623.2-71.6,628-74.1,637.3L-74.1,637.3z M-110.2,676.2c2.4,0.4,6.2,3.1,8.7,3.8
					c-0.5-0.2-0.8-0.6-1.3-1.1c1.5-1.5,2.2-0.4,3.7,0.9c1,0.9,1,1.5,3,0.9l16.9-5.1c0.7-0.5,0.4-0.7,0.9-1.7l3.5-5
					c1.4-2.2,2.6-4.4,3.9-6.9c2-3.7,1.6-4.9,2.3-8.8c1.3-8.2,9.6-33.9,14.8-40.2c1.3-1.6,3.4-3.1,4.2-4c1.4-1.6,0.3-1.2,2.7-2.8
					c0.6-0.4,0.8-0.6,1.3-1.3l1.8-2.3c0.4-0.4,0.4-0.3,0.8-0.7c1.3-1.4,3.6-4.8,4.6-6.5c2.1-3.9,1.3-5.3,0.9-9.4l-1-8.7
					c-0.4-1.6,0.2-0.5-0.7-1.1l-6.2,3.6c-0.1,0-0.2,0-0.2,0.1l-3.7,2c-1.1,0.6-2.9,1.6-4.2,2.2l-9-7.6c-1.4-1.5-1.7-1.1-4.1-1.5
					l-19.1-2.7c-2,2.8-3.8,7.2-5.9,10l-33.7-8.5l15.3,19.7l8.2-0.4c2.3,3.3,4.3,6.5,6.3,9.7l3.2,4.7c2.4,3.6,1.7,7.2,3.2,12.6
					c1.2,4.4,1.5,3.4-0.4,5.3l-20.1,23.4c-0.5,0.5-0.5,0.7-0.9,1.2l-7.3,8.5c-0.5,0.6-0.5,0.4-1,1c-0.4,0.4-0.4,0.6-0.7,1
					c-0.5,0.6-0.6,0.5-1,1c-0.4,0.4-0.5,0.7-0.9,1.2l-3.8,4.4c-0.5,0.5-0.5,0.3-1,0.9C-125.2,669.5-111.7,674.5-110.2,676.2
					L-110.2,676.2z"/>
				<path class="st5" d="M-186.2,457.4l-9.6-5.2c-3.9-2.2-4.7-4.2-8.9-6c-2.1-0.9-5.9-1.6-6.5-3.2c-0.9-2.7,3-1.3-4.8-14.2
					l-7.8-11.6l15.1,3.9c3.2,0.9,4.5,0.8,6.2,2.3l67.3,56.9c-2.1-0.5-29.7-12.2-31.7-13.1c-6.1-2.8-9.1-4.7-16.8-0.1
					c-3.4,2-3.7,2.9-8.4,1.8c-2.9-0.7-6-1.3-8.9-2.2c-6-1.8-20.1-5-24-9.9c-1.4-1.8-2.6-5.8,1.6-6.8
					C-215.7,448.3-193.3,456.3-186.2,457.4z M-242.2,472.1l6-9.7c2.4,0.6,5.1,1.5,7.5,2.3c2.8,0.9,4.7,1.1,7.5,1.9
					c6.7,1.7,43.5,12,46.3,12.4c-0.4-0.5-0.8-1-1.4-1.8c-0.6-0.8-1-1.4-0.7-2.7c4.3-2.4,13.2,2.2,18.1,4.6
					c3.4,1.6,26.2,11.6,30.1,11.8c4.1,0.2,5.7-2.4,3.5-6.1c-0.8-1.4-1.8-2.4-2.6-3.5l-6.2-5.8c-0.3-0.2-0.6-0.4-0.8-0.6l-32.3-27.9
					c-0.4-0.3-0.4-0.2-0.8-0.6l-5.7-4.8c-0.6-0.5,0-0.1-0.7-0.7c-3-2.4-6.9-5.9-10-7.9l-2-1.8c0.4-0.3,0.2,0,0.9-0.1
					c1.5-0.2,4.3-1.2,5.4-1.9c-1.6,0.2-6.4,1.9-7.3,1.6c-0.2-0.1-4.6-3.1-5.2-3.6c-3.9-2.9-9.5-6.6-13-9.5c-1.1-0.9-1-1.3-2.6-1.8
					c-5.5-1.9-17.2-3.4-22.9-3.9c2,4.1,3.8,8.8,5.9,13c1,2,6.1,12.1,6.3,13.2c-4.5,2.8-8.7,4.8-12.8,7.6l-2.9,2
					c-1,0.8-1.9,1.4-3,2.2c-0.6,0.5-0.7,0.6-1.3,1.1c-0.7,0.6-0.9,0.5-1.5,1.2c-2.6,3-5.5,4.7-6.4,9.1c-0.6,2.9-1.2,6-1.3,8.9
					c-0.2,4.7,1.3,1.1-2.3,7.3c-1.2,2-2.7,4.5-3.6,6.8l6.1-2.8c1.1-0.5,1.3-0.4,1.8-1.4c0.7-1.7,0.5-2.6,1.6-4.3
					C-243.8,474.7-242.8,473.3-242.2,472.1L-242.2,472.1z"/>
				<path class="st5" d="M-96.8,777.9c-2.4-0.2-15.8-4.5-19.4-5.5c-9.2-2.4-28.9-9.2-37.4-13.1c-3.4-1.6-7.1-4-9.7-6.1l-4.6-5.1
					c-2.8-4.1-2.2-4.6-0.6-8.9l11-26.9c1.2-3,2.4-5.9,3.6-8.9c0.6-1.4,3.2-8.4,3.8-9.1c0.6-0.8,2.9-1,4.7-1.4l15.8-3.3l-7.3,5.7
					c-1.3,0.9-1.2,1.3-1.2,3.2c0,5.6-0.5,11.4-0.6,17c-0.2,13.9-2.1,19.4,2.3,31.8c0.8,2.3,1.5,3.8,3.4,5.3c0.5,0.4,0.6,0.4,1.2,0.9
					l3.8,2.9c1.7,1.2,3.3,2.4,5.1,3.7l7.8,5.4C-110.7,768.6-99.8,775.5-96.8,777.9L-96.8,777.9z M-137.6,685.9
					c-0.9,0.6-3.7,0.8-6.1,1.3c-2,0.4-3.9,0.8-5.8,1.2c-1.6,0.3-4.3,0.2-5.1,1.9c-3,6.8-7.2,18-10.1,25.3
					c-1.1,2.7-15.7,38.5-16.1,40.2l78.3,27.9l-1.8,0.6c3.8-0.3,11.2,2.7,15,4.1l12.3,4.4c0.3,0.1,0.5,0.2,0.9,0.3
					c0.8,0.1,0.4,0.1,0.9-0.2c-0.9-0.4-1.1-0.5-1.8-1.2l-35.6-31c-0.8-0.6-0.6-0.8-1.5-1.4l-17.1-14.7c-2.4-2.4-2.1-1.2-2.2-3.5
					c-0.2-12.4-1.2-27.7-1.1-39.6c0.1-5.7-0.1-2.8,2.6-5.8c0.5-0.5,0.7-0.9,1.2-1.4c3.6-4.2,2.3-2.4,4.3-4.4
					c1.1-1.1,2.8-3.6,4.1-4.7c1-0.9,1.5-0.7,2.6-2.7L-137.6,685.9L-137.6,685.9z"/>
				<path class="st5" d="M-74.3,529.3c-0.2-2.4-3.7-6.2-5.3-8.1l-8.9-9.5c-5.1-4-15.3-7-21.4-10.1c-5.8-2.9-5.3-9.5-6.7-14.3
					c-2.6-8.7-8.6-21.6-13.7-28.4l-2.4-2.9c-0.7-0.6-0.8-0.5-1.4-1.2c-0.5-0.5-0.9-0.8-1.3-1.3c-2.2-2.8-9.1-7.1-12.1-9
					c-2.1-1.3-5.1-2.3-6.9-3.6c13.7,1.7,18.8,2,32,5.7c5.5,1.5,4.9,0.4,6.7,5.6c4.4,12.2,8.9,24.2,13.3,36.3l4.6,12.6l4.7,2.8
					c5.7,2.4,11.4,5.2,17.1,7.8c1.1,0.5,7.7,3.2,8.3,4.3l10.2,26.8c-1.3-0.4-0.1,0-1.1-0.8l-3.3-2.5c-2.9-2.3-10-6.8-13.6-8.3
					c-2.6-1.1,0.6,0.8-1.4-0.7C-75.5,530.2-75.1,530-74.3,529.3L-74.3,529.3z M-148.1,434c0.5,0.1,5.1,1.8,6.3,2.2l4.9,1.5
					c0.2,0.1,0.7,0.2,0.9,0.3l0.9,0.6c-3.2-0.3-6.9-0.8-10.1-1.3c-3.5-0.5-6.9-0.7-10.2-1.1l-19.9-2.2c4.7,2.2,20.9,13,26.3,17.3
					l2.9,2.3c0.2,0.2,0.4,0.4,0.6,0.6l3.8,3.2c0.6,0.5,1.1,0.7,1.7,1.3l2.9,2.7c2.7,2.4,7.8,8.2,10.1,11.8c2.4,3.8,5.7,9.9,7,14.9
					c1.1,4.3-0.7,5.8-5,5.3c-3.1-0.3-6.5-0.9-9.5-1.6c-5.5-1.4-11.2-3.6-16.5-5.5c-5.2-1.8-10.9-4.6-15.8-6.1
					c1.5,1,44.5,20.1,49.1,21.9c8.5,3.5,16.1,7.7,23.4,11.9c1.9,1.1,3.8,2.2,5.4,3.4c0.9,0.6,1.7,1.2,2.6,1.8c1,0.6,1.7,1.3,2.7,2
					c1.3,0.9,1.2,0.5,2,2.4c1.6,4,2.3,6.9,0.2,10.9l12,2.9c1.8,0.4,2.4,0.2,3.1,1.9c1,2.1,5.4,12.6,6.2,13.5c1.3-0.7,4-4.1,5.1-5.3
					c2.7-3,2.3-1.7,0.4-6.6c-2-5.1-3.9-10.4-5.8-15.5c-0.6-1.5-3.5-10.4-4.6-11.2l-27.8-14.9c-1.6-0.9-1.5-1.3-2.1-3.1
					c-1.7-5.1-3.8-10.6-5.7-15.6l-8.5-23.3c-0.6-1.7-2.8-6.5-2.5-7.8c-1.2-1.1-1.5-4-2.4-5.7c-0.6-1.1-4.3-2.1-5.6-2.6
					c-4-1.5-8.1-2.9-12.2-4.2c-4.4-1.4-22.9-6.5-26.3-5.7C-155.7,431.9-150.1,434-148.1,434L-148.1,434z"/>
				<path class="st5" d="M-243.7,659l-4.5,42c-1.7-0.9-4.7-4.6-6-7c-3-5.9-2-11-7.1-7.6L-243.7,659z M-285.4,709
					c0.5,0.9,1.2,1.7,1.7,2.6l-3.7,6c-1.2,1.9-2.5,3.9-3.8,5.9l-7.4,11.9c0.8-0.4,1.8-1.1,2.7-1.7l21.5-13.3c4-2.6,8.2-4.9,12.3-7.6
					l15.4-9.5c1.1-0.8,0.9-2.6,1.1-3.8c1-8.5,2.7-17.2,3.8-26.1c1-7.8,4.6-29.3,4.9-34.5l-12,17.2c-1.1,1.5-2,2.9-3,4.3l-10.7,15.3
					c-0.6,0.8-0.9,1.4-1.5,2.3l-6.1,8.8c-0.6,0.9-0.9,1.4-1.5,2.3l-6.1,8.8c-0.7,0.9-0.9,1.4-1.5,2.3L-285.4,709L-285.4,709z"/>
				<path class="st5" d="M-259.3,631.3c0.1,1.2-14.1,40.3-16.5,47.1l-5.6,16.1c0.9-1.2,7-15.8,8-18.4c7.5-18.1,16-37.2,23.8-55.4
					l13.9-32.3c1-2.3,0.1-2.7-0.7-5l-13.7-35.7c-0.4-0.9-0.8-2-1.1-2.7c-0.1-2.8-4.9-11.2-6-13.9l12.7,52c0.8,2.9,1.4,3.5,0.4,6.4
					c-0.7,2-1.4,4.1-2.1,6L-259.3,631.3L-259.3,631.3z"/>
				<path class="st5" d="M-263.5,629.3c0.9-1.4,10.5-28.1,11.8-31.9c3.4-9.5,4-6.4,1-16.9c-1.6-5.6-3.2-12-4.5-17.6
					c-0.8,1.2-2.4,14.9-2.5,16.2C-259.5,594.7-263.5,614.3-263.5,629.3z"/>
				<path class="st5" d="M-298.1,715.1l2.8-5.4c0.9-1.8,1.8-3.6,2.7-5.4c1.8-3.6,3.7-7.3,5.5-10.9c6.8-13.5,4.7-7.5,7.8-20.9
					c0.4-1.9,0.3-2.4,0.7-3.5c0-0.1,0.1-0.2,0.1-0.3l6.5-28.1c-0.2-0.4,0.1-1.9-0.8,0.7l-1.6,4.5c-0.7,2-1.5,4-2.3,5.9
					c-4.7,12-8.8,23.9-13.7,36l-13.7,36.2c-1.2,3.4-3.7,8.7-4.5,12c1.8-2.7,5.9-11.6,8-15.8C-299.9,718.9-298.3,716.4-298.1,715.1
					L-298.1,715.1z"/>
				<path class="st5" d="M-166.7,686.5c0,3.6-6.6,26.1-7.4,32.5c1.3-1.9,2.7-6.1,3.8-8.4c1.3-2.9,2.5-5.8,3.9-8.7
					c1.2-2.8,6.7-16.1,7.9-17.3c1-0.7,21.4-3.4,25.5-4.2c1.7-0.3,5.3-2.8,6.6-3.7c-9.9,1.2-20,2.9-30,4.3c-5.3,0.8-6.2-0.6-13-3.1
					c-2.1-0.8-4.1-1.6-6.2-2.3c-1.8-0.7-4.6-2-6.3-2.4c1.4,1.6,1.7,1.6,3.6,3.4c0.7,0.6,1.3,0.8,2,1.5c0.5,0.6,0.2,0.4,0.8,0.9
					c0.4,0.4,0.8,0.5,1.2,0.9c1,0.7,0.8,1,1.8,1.7l4.6,4.1C-167.6,686-167.2,686.2-166.7,686.5L-166.7,686.5z"/>
			</g>
			<g>
				<path class="st6" d="M-166.7,686.5c-0.5-0.3-0.8-0.4-1.3-0.8l-4.6-4.1c-1-0.7-0.8-1-1.8-1.7c-0.4-0.3-0.8-0.5-1.2-0.9
					c-0.6-0.6-0.3-0.4-0.8-0.9c-0.7-0.7-1.3-0.9-2-1.5c-1.9-1.8-2.2-1.8-3.6-3.4c1.7,0.4,4.5,1.7,6.3,2.4c2.1,0.7,4.1,1.5,6.2,2.3
					c6.7,2.5,7.7,3.9,13,3.1c10-1.4,20.1-3.1,30-4.3c-1.3,0.9-4.9,3.4-6.6,3.7c-4.2,0.7-24.5,3.5-25.5,4.2
					c-1.2,1.2-6.6,14.6-7.9,17.3c-1.3,2.9-2.5,5.9-3.9,8.7c-1.1,2.4-2.6,6.5-3.8,8.4C-173.3,712.5-166.7,690-166.7,686.5
					L-166.7,686.5z M-202.4,766.5c-1.2-0.3-23-14.2-24.9-15.4c-1.1-0.7-1.7-1.5-2.9-1.4l-58.7,21.4c-4.3,1.5-8.8,3.4-13.1,4.8
					c1.3-4.6,2.2-9.4,3.5-14c0.5-1.8,6.7-15.6,7.9-18.1c0.3-0.7,1.1-2.6,1.4-3c0.4-0.6,14.2-8.2,16.2-9.3c0.9-0.5,1.8-1.1,2.8-1.6
					c5.2-2.7,11-6.3,16.3-9.1c3.7-2,7.4-4.1,11.1-6.2c1.9-1,3.6-2,5.4-3.1c2.5-1.6,3.7-1,4.3-4.2c3.5-19.1,7.8-38.2,11.3-57.4
					c0.8-4.4,1.4-9.9,3.8-13.4l20.4-29.9c0.2-0.3,0.1,0.6,0.3-0.3c0-0.1,0.1-0.1,0.1-0.2c2.1,3.3,4.2,8.4,6.1,12.1l12.1,24.2
					c1,2.1,2,4,3,6c1.2,2.4,1.3,3.7,3.6,5c14.8,7.2,8.7,0,14,19.4l-31.1-6.1c0.2,8.4,0.2,6.5,3.3,10.6l4.2,4.8
					c0.5,0.6,0.6,0.8,1.1,1.3l5.3,6.3l-24.6,78.3C-200.9,767.7-201.8,767.2-202.4,766.5L-202.4,766.5z M-279.3,700.3
					c0.7-0.9,0.8-1.4,1.5-2.3l6.1-8.8c0.6-0.9,0.9-1.4,1.5-2.3l6.1-8.8c0.7-0.9,0.9-1.5,1.5-2.3l10.7-15.3c1-1.4,1.9-2.8,3-4.3
					l12-17.2c-0.3,5.2-4,26.7-4.9,34.5c-1.1,8.8-2.7,17.6-3.8,26.1c-0.2,1.2,0,3-1.1,3.8l-15.4,9.5c-4.1,2.6-8.3,5-12.3,7.6
					l-21.5,13.3c-0.9,0.5-1.9,1.3-2.7,1.7l7.4-11.9c1.2-2,2.5-4,3.8-5.9l3.7-6c-0.5-0.9-1.2-1.7-1.7-2.6L-279.3,700.3L-279.3,700.3z
					 M-104.9,553c1,0.2,0.3-0.4,0.8,0.5c0.1-0.1,0.6-0.9,1-1.3c1.7,0.3,5.5,1.7,6.8,2.4c0.2,2-1.5,5.9-4.6,6.1l-1,6.1l-2.4-0.9
					l1.2-5.9l-1.8-0.5c-0.6,1.1-2.3,4.1-3.1,5.1c-0.8-0.2-1.6-0.4-2.2-1c-0.4,0.4-0.2,0.3-0.4-0.4c-1.2,0.5-1.4,0.1-3.7-0.7
					c-1.4-0.5-2.4-0.9-3.9-1.2l7.2-11.8c1.4,0.4,5.8,1.7,6.6,2.4L-104.9,553z M-127.4,558c0.4-1.2,5.6-9.7,6.8-11.8l2.3,0.7
					l-2.7,4.6c0.7,0.5,2.2,1,3.2,1.2c1.1-1.6,1.9-3.2,2.9-4.6l2,0.8c-0.3,1.2-6.6,11.2-7,11.6c-0.9-0.2-1.5-0.4-2.1-0.8l3-5.2
					l-3.3-1l-3.2,5.2L-127.4,558z M-125.1,546.9c-1,1.3-5.4,8.6-5.7,9.9l-2.4-0.8c0.6-1.8,4.7-7.5,5.7-9.9l-2.5-0.9l1.1-1.8l7.4,2.7
					c-0.6,1-0.6,0.8-0.9,1.8L-125.1,546.9z M-144.5,552c1.2-2.4,6.4-10.1,6.7-11.8l2.5,0.8c-0.2,2.4-1.5,7.5-0.8,8.7
					c0.5-1.5,3.3-6.1,4.3-7.5l1.9,0.8c-1.3,2.8-5.2,8.5-6.9,11.6l-2.1-0.7l-0.1-1.1c0-0.3,0.1-0.7,0.1-1l1-6.6
					c-1.3,1.2-3.2,5.5-4.7,7.4L-144.5,552z M-154.1,549c1.5-1.9,3.5-3.8,5.1-5.6l5.2-5.2l2.7,0.9l-3.8,12.9l-2.6-1l0.8-2.3
					c-0.6-0.6-1.9-0.9-2.9-1.2c-0.5,0.5-0.6,0.7-1.1,1.2c-0.4,0.4-0.8,0.6-1.2,0.9L-154.1,549z M-161.7,546.4
					c0.6-2,6.1-9.6,6.8-11.9c2.1,0.4,6,1.6,7.2,3.1c-0.1,1.3-2.2,4.8-2.9,5.5c-1.7,1.6-4.3-0.2-6.4-0.6c-0.5,1.7-1.9,3-2.4,4.6
					L-161.7,546.4z M-127.2,540.2c0.5-1,0-0.1,0.4-0.6c1.4-2.2,3-3.7,4.6-6.2c4.7-7.1,4.7-7.6,8.5-14.8c1.3-2.4,2.2-5.3,3.5-7.8
					c1.3,0.5,7.2,4.5,8,5.2c-0.3,2.2-5.1,10.5-5.7,12.5c5.2,3.2,4.9,4.7,9.2,2.8c3.2-1.4,6.2-3.3,8.8-4.7c0.8,0.6,6.9,6.8,7.4,8.2
					c-2.3,0.8-4.7,1.9-7.4,2.7c-4.6,1.4-3.6,1.5-8.1,0.4c0.7,1.2,1.1,1.2,1.7,2.6c0.8,2,0.8,9.9,0.7,12.1c-1.1,0.1-7.8-3-9.4-3.6
					c0.4-3.9,1.2-6.9,1-11.1c-0.1-1.8-0.9-2.5-2.5-3.5c-1.2-0.7-2.6-1.7-3.8-2.2c-0.5,1.3-3,4.7-3.9,5.8c-1.2,1.5-3.7,3.8-4.4,5.3
					L-127.2,540.2z M-129.7,539.2c-2.7-0.4-8.3-2.5-11.4-3.4c-3-0.8-9.3-2-11.5-3.4c-4.2-2.6-1.7-6.6,0.2-10.4
					c1.7-3.3,3.4-6.4,4.9-9.7c3.9-8.1,5.2-16.8,15.2-12.9c4.9,1.9,10.6,4.6,15.2,7c1.6,0.8,3.2,1.8,4.7,2.6l-2.7,5.8
					c-0.5-0.3-0.2-0.1-0.6-0.4c-2.3-1.8-5.3-3.2-8.1-4.5c-11.2-5.3-9.5-5.2-12.7,1.6c-0.8,1.8-1.7,3.5-2.6,5.3
					c-1,1.9-5.2,9.2-5.4,10.5c1.5,1.8,6.5,2.8,9.1,3.6c3,1,6.4,2.6,9.5,3.1L-129.7,539.2L-129.7,539.2z M-218.4,529.2
					c1-10.2,2.8-18.9,6.4-28.3c1.6-4.2,3.5-8,5.3-11.9c1.1-2.3,5.3-9.6,5.7-11.3l9.1,2.9c-3.1,6-6,11.7-9,18.1
					c-2.1,4.6-6,15-6.6,20.1l14.9,1.3c1.1-1.5,1.9-3.1,2.8-4.5c3-4.6,4-5.7,7.1-9.5c0.4-0.5,0.4-0.6,0.7-1l8.5-9.6
					c0.7-0.8,1.2-0.9,2-1.8l5.5-5.7c3.2,1.3,8.7,2.1,11.2,3.7c-0.4,5.7-2.6,34.8-4.3,40.2l-10.2-1.3l1.1-10.1l-12.5-2
					c-1.3,0.9-5.2,8.5-6.2,10.8L-218.4,529.2z M-185.6,431.1c-0.7,0.1-0.4-0.2-0.9,0.1l2,1.8c3,1.9,7,5.5,10,7.9
					c0.7,0.6,0.2,0.2,0.7,0.7l5.7,4.8c0.4,0.4,0.4,0.3,0.8,0.6l32.1,27.7c0.3,0.2,0.5,0.4,0.8,0.6l6.2,5.8c0.9,1.1,1.8,2.1,2.6,3.5
					c2.2,3.7,0.7,6.3-3.5,6.1c-3.9-0.2-26.7-10.2-30.1-11.8c-5-2.3-13.8-7-18.1-4.6c-0.3,1.3,0.1,1.9,0.7,2.7c0.5,0.7,1,1.2,1.4,1.8
					c-2.8-0.4-39.6-10.6-46.3-12.4c-2.8-0.7-4.6-0.9-7.5-1.9c-2.4-0.8-5.1-1.7-7.5-2.3l-6,9.7c0.5,0.7,0.4,1.7,0.5,2.5
					c0.6-0.3,4.4-7.2,5.1-8.4l23.3,7.6c1.3,0.5,1.8,0.8,2.7,1.7c3.7,4,0.4,7.4-2.2,12.7c-2.3,4.6-4.7,6.6-11.2,6.4
					c6.9,3.7,5.7,5.8,3.3,14c-1,3.4-2.5,14-4.9,15.6c-0.1,0.8,0,0.2-0.3,0.9l-0.3,0.5c-2.8,3.6-5.5,3.2-10,3s-9.6-0.7-14-1.4l1,2.2
					l-1.2-0.1c1.6,0.7,14.7,1,16.4,1c6.4-0.2,7.7-3.3,12-5.8c-1.1,4.5,2.4,6.1,6.3,6.9c10.2,2.3,27.3,0.3,37.8,0.3
					c-7,3-23.6,6.9-28.9,11.8c0.1,1.7,1.3,2.8,2.2,3.7l3.2,2.7c2.3,1.6,4.3,3.2,7,4.7c9,5,16.5,6.9,26.7,8.4
					c2.6,0.4,25,6.4,27.9,7.1c1.8,0.4,8.1,1.8,9.1,2.6c1,0.8,4.2,5.4,5.1,6.5c0.6,0.7,0.6,0.9,1.2,1.7c0.4,0.4,0.9,1,1.3,1.6
					l17.9,23c0.8,1.1,1.7,2.2,2.5,3.3l7.6,9.8l-21.8,30c-0.8,1.2-1.5,1.9-2.2,3l-10.7,14.7c-1.7-0.9-4-1.8-5.7-2.7
					c-5-2.9-32.4-17-33.8-18.2c-0.9-0.8-9.8-30-10.5-32.4c-2.1-7.3-6.9-20.2-8.3-26.3l5.4-4.2c0.4-0.3,0.5-0.5,0.9-0.8
					c2.4-1.8,5.8-4.1,7.7-6.4c-2.4-1.5-5.2-3.1-7.8-4.6c-2.7-1.6-5.2-3-7.9-4.6c-2.5-1.4-2.3-1.2-5.5-0.9c-1.9,0.2-3.6,0.3-5.5,0.6
					c-10.9,1.8-9.2,5.6-7.1,14.3c0.8,3.2,1.6,7.1,1.8,10.4c0.4,6.4-0.1,9.7-4.2,14.1l-1.8,1.4c-0.6,0.4-1.1,0.8-1.6,1.3l-15.9,12.4
					c-0.6,0.5-1.1,0.9-1.7,1.5c-1.2,0.9-2.3,1.6-3.2,2.9l-10.1,14.7c-3.6,5.5-9.7,13.6-12.6,18.4c-0.6,1-2,2.4-2.4,3.5
					c0.4-1.7,2.1-5.5,2.9-7.4c1-2.5,2-5,3-7.5l17.9-44.4c0.9-2.3,5.8-13,5.3-14.7c-1.5-4.6-12.4-34.1-14.5-37.5l-3.7-6.7
					c-0.2,0.9-0.3,1.1-0.8,1.7l-1.3,0.9c0.3,0.7,0.7,1.7,1.1,2.7l13.7,35.7c0.8,2.3,1.7,2.7,0.7,5l-13.9,32.3
					c-7.8,18.2-16.3,37.2-23.8,55.4c-1.1,2.6-7.1,17.2-8,18.4l5.6-16.1c2.4-6.8,16.6-45.9,16.5-47.1c-1.6,1.4-2.4,4.6-3.5,6.5
					c-1.2,2.8-2.7,5.3-4,8l-9.8,19.8c-0.9,1.8-1.5,4.5-1.9,3.1c-0.1,0.1-0.1,0.2-0.1,0.3c-0.4,1.2-0.3,1.7-0.7,3.5
					c-3.1,13.4-1,7.4-7.8,20.9c-1.8,3.6-3.7,7.2-5.5,10.9c-0.9,1.8-1.8,3.6-2.7,5.4l-2.8,5.4l-25.9,77.3c1.8-0.3,21.7-8,25.6-9.3
					c16.9-5.9,34.5-12.9,51.3-18.8c4.2-1.5,8.7-3.1,12.8-4.7c4.1-1.6,3.2-1.2,8,2.7c0.7,0.6,1.7,1.3,2.3,1.8l7.3,5.8
					c7.7,6.3,5.9,6,15.1,6.6c10.8,0.8,21.7,1.6,32.4,2.6c21.5,2,43.4,3.5,65,5l1.8-0.6l-78.3-27.9c0.4-1.7,15-37.5,16.1-40.2
					c2.9-7.3,7.1-18.5,10.1-25.3c0.7-1.7,3.4-1.6,5.1-1.9c1.9-0.4,3.8-0.7,5.8-1.2c2.4-0.5,5.3-0.6,6.1-1.3c-0.8-0.3-1.1,0,1-0.7
					c5.1-1.9,25.1-7.7,26.4-9c-1.4-1.7-15-6.7-16-8.1c0.5-0.6,0.5-0.4,1-0.9l3.8-4.4c0.4-0.4,0.5-0.8,0.9-1.2c0.5-0.5,0.5-0.4,1-1
					c0.3-0.4,0.4-0.6,0.7-1c0.5-0.6,0.5-0.4,1-1l7.3-8.5c0.4-0.5,0.4-0.7,0.9-1.2l20.1-23.4c1.9-2,1.6-0.9,0.4-5.3
					c-1.5-5.4-0.9-9-3.2-12.6l-3.2-4.7c-2-3.2-3.9-6.3-6.3-9.7l-8.2,0.4l-15.3-19.7l33.7,8.5c2.1-2.8,3.9-7.2,5.9-10l19.1,2.7
					c2.4,0.3,2.7,0,4.1,1.5l9,7.6c1.3-0.5,3-1.5,4.2-2.2l3.7-2c0-0.1,0.2-0.1,0.2-0.1c-0.5-0.5-0.2-0.1-0.6-0.9
					c0-0.1-0.1-0.6-0.2-0.7c-0.1-0.7-0.1-1.5-0.1-2.2c-0.1,0.1-0.2,0.1-0.2,0.2l-2.3,1.4c-0.9,0.5-1.5,0.7-2.3,1.2
					c-2.6,1.4-2.3,2.2-4.2,0.2c-1.1-1.1-6.5-6.7-7.2-7.1c-0.6-0.3-23.1-3.4-25.5-3.6l-3.5,3.9c-0.4,0.5-0.4,0.7-0.9,1.2
					c-4.5,4.9-2.9,5-7,3.8c-8.2-2.5-19.6-5.3-28.2-7.7c-0.9-0.2-0.8-0.1-1.5-0.6c-1-0.7,0.2-0.4-1-0.6c-0.7-0.1-1.6,0.1-2.8-0.2
					l-17-4.7c-1.3-0.4-4.8-0.9-5.5-1.8c-0.2-0.3-1.1-2.8-2.7-4.3l-3.8-3.5c-0.9-0.8-0.8-1.1-1.6-1.9c-0.6-0.6-1.2-0.8-1.5-1.6
					c4.2,0.5,61.2,21.1,63.8,21.4c1-2.2,1.6-7.1,1.7-9.8c1.1-0.4,1.3-0.8,2.3-1.5c2.5-1.8,3.5-3.9,3.6-7.4c0.1-2.5,0-5-0.1-7.5
					c-0.1-2.1-1.2-4.6-1.2-5.8c5.7-0.6,8.4-2.3,11.4-1.7c3.8,0.7,7.8,1.6,11.6,2.4c4.3,0.9,4.1,0.5,4.7,2.3c0.6,1.8,1.2,3.5,1.8,5.2
					c0.5,1.3,2.7,9.3,3.7,10.3c0.9-0.6,0-0.1,0.7-0.6c0.5-0.4,0.3-0.3,0.8-0.6l2.3-1.8c0.3-0.3,0.5-0.4,0.8-0.7l1.4-1.2
					c0.4-0.3,0.5-0.3,0.9-0.6c0.5-0.4,0.3-0.3,0.7-0.7l4.5-3.8c-0.5-2.3-1.7-5.3-2.5-7.6c-1.4-4.2-8.4-27.6-9.8-28.8l-24.1-14.5
					c-3.2-1.9-4.4-2.1-5.3-4.3c-1.6-4.3-15.4-40.7-16.1-41.7l-4.4-1.7c-0.3,1.4,1.9,6.1,2.5,7.8l8.5,23.3c1.9,5,4,10.5,5.7,15.6
					c0.6,1.9,0.5,2.2,2.1,3.1l27.8,15.1c1.1,0.8,4,9.7,4.6,11.2c1.9,5.1,3.8,10.4,5.8,15.5c1.9,4.9,2.3,3.6-0.4,6.6
					c-1.1,1.2-3.8,4.5-5.1,5.3c-0.8-0.8-5.2-11.4-6.2-13.5c-0.8-1.7-1.4-1.5-3.1-1.9l-12-2.9c2.2-4,1.4-6.9-0.2-10.9
					c-0.8-1.9-0.7-1.5-2-2.4c-1-0.7-1.7-1.4-2.7-2c-0.9-0.6-1.6-1.2-2.6-1.8c-1.6-1.1-3.5-2.3-5.4-3.4c-7.3-4.2-14.9-8.5-23.4-11.9
					c-4.5-1.8-47.6-20.9-49.1-21.9c4.9,1.5,10.6,4.3,15.8,6.1c5.3,1.9,11,4.1,16.5,5.5c2.9,0.7,6.4,1.3,9.5,1.6
					c4.3,0.5,6.1-0.9,5-5.3c-1.3-5-4.6-11.1-7-14.9c-2.3-3.6-7.3-9.4-10.1-11.8l-2.9-2.7c-0.6-0.5-1.1-0.7-1.7-1.3l-3.8-3.2
					c-0.2-0.2-0.4-0.3-0.6-0.6l-2.9-2.3c-5.5-4.4-21.6-15.2-26.4-17.4l19.9,2.2c3.4,0.4,6.8,0.6,10.2,1.1c3.2,0.4,6.9,1,10.1,1.3
					l-0.8-0.6c-0.2-0.1-0.7-0.3-0.9-0.3l-4.9-1.5c-1.3-0.4-5.8-2.1-6.3-2.2c-0.5,0.4,0.1,0.1-0.7,0.3L-176,431
					C-180.1,430.4-184.2,432-185.6,431.1L-185.6,431.1z"/>
				<path class="st6" d="M-246,513.9c2.6,0.6,5.5,0.9,8.2,1.4c3.9,0.6,5.4,1.6,6.4-2.4c0.7-2.7,1.1-5.3,1.9-8
					c0.8-2.6,2.1-5.2,1.5-7.6l-13-3.3C-243.1,499.2-245.5,508.4-246,513.9z"/>
				<path class="st6" d="M-238,487.3c1.2,0.7,11.5,3.5,12.7,3.3c2.4-0.5,6-10.3,5.9-10.3c-0.4-1.3-11.8-4.5-12.6-4.6
					C-233.7,478.1-236.7,484.3-238,487.3z"/>
				<path class="st6" d="M-177.6,513.2c3.3,0,7.5,1.5,10.9,1.9l2.2-17.6c-1.8,1.2-5.3,6-6.6,7.4c-0.5,0.5-0.3,0.2-0.9,0.9
					c-0.3,0.4-0.4,0.6-0.7,1C-174.3,508.8-176.3,510.8-177.6,513.2z"/>
			</g>
			<path class="st7" d="M-202.4,766.5c0,0-3.4-5.8-4-6.8l-12.8-22c-1.7-2.9-1-3.6-0.3-9.3c0.4-3.4,0.8-6.9,1.2-10.4l8.6-72.1
				c0.3-2.7,0.6-8.1,1.3-10.4c0.5-1.8,9.8-9.7,11.2-11.8c1.4,0.8,1.7,2.5,2.7,4.4c0.9,1.6,1.7,3.1,2.5,4.6l9.6,17.9
				c1.4,2.6,1.2,1.9,4.3,2.3c1.2,0.2,4.9,1.1,5.6,0.7c-2.3-1.3-2.4-2.6-3.6-5c-1-2.1-2-4-3-6l-12.1-24.2c-1.8-3.7-4-8.7-6.1-12.1
				c0,0.1-0.1,0.1-0.1,0.2c-0.2,0.9,0,0-0.3,0.3l-20.4,29.9c-2.4,3.5-3,9-3.8,13.4c-3.5,19.1-7.8,38.2-11.3,57.4
				c-0.6,3.2-1.8,2.6-4.3,4.2c-1.8,1.1-3.5,2-5.4,3.1c-3.7,2.1-7.4,4.2-11.1,6.2c-5.3,2.9-11,6.4-16.3,9.1c-1,0.5-1.9,1.1-2.8,1.6
				c-2,1-15.7,8.7-16.2,9.3c-0.3,0.4-1,2.3-1.4,3c-1.2,2.4-7.4,16.2-7.9,18.1c-1.3,4.7-2.2,9.4-3.5,14c4.3-1.3,8.7-3.3,13.1-4.8
				l58.7-21.4c1.2-0.1,1.8,0.7,2.9,1.4C-225.4,752.2-203.6,766.2-202.4,766.5L-202.4,766.5z"/>
			<path class="st8" d="M-64.9,567.3l-6.5-14.2c-1-2.2-0.4-2-2.8-2.5c-1.4-0.3-2.9-0.6-4.4-0.9c-1.5-0.3-2.9-0.6-4.4-0.9
				c-1.9-0.4-3.5-0.2-5.2-0.6c-0.9,3-0.9,4.4,3.2,7.8c1.1,0.9,1.7,1,2.4,2.3c-0.7,0.3-1.2,0.6-1.9,1.1c-1,0.6-1.1,0.4-1.4,1.7
				C-84.1,563.7-69,566.8-64.9,567.3L-64.9,567.3z"/>
			<path class="st9" d="M-189.3,416l2.8,3.9c1,1.4,1.8,2.4,2.9,3.8c2.1,2.7,1.6,3.2,3.6,3.2c7.5-0.3,9.8-1.4,18.3,0.7
				c3.8,0.9,6.7,2.3,10.1,3.3l-15.1-11.4c-0.6-0.5-3.3-2.6-3.9-2.7c-1.2-0.4-4.8-0.3-6.3-0.4C-179.5,416.2-187.9,415.4-189.3,416z"
				/>
			<path class="st10" d="M-88.1,548.3c1.8,0.4,3.3,0.2,5.2,0.6c1.5,0.3,2.9,0.6,4.4,0.9s3,0.6,4.4,0.9c2.4,0.5,1.7,0.3,2.8,2.5
				l6.5,14.2l0.8,0.3c0-3.5-4.8-18.2-6.4-21.8l-16.3-1.5L-88.1,548.3L-88.1,548.3z"/>
			<path class="st11" d="M-103.8,557.7c1.3,0.3,2,0.8,3.3,0.9c0.7-0.7,1.3-1.8,1.6-2.8l-3.2-0.9L-103.8,557.7z"/>
			<path class="st12" d="M-148.4,546.1l2.3,0.7l1.9-5.4c-1.1,0.7-1.1,1.4-2,2.1C-147.3,544.4-147.8,545-148.4,546.1z"/>
		</g>
		<g>
			<ellipse class="st0" cx="-166.6" cy="510.6" rx="92.6" ry="68.7"/>
			<g>
				<path class="st1" d="M-110.7,563.2c0.2,0.7,0.1,0.8,0.4,0.4l6.1-10.1c-0.4-0.9,0.2-0.3-0.8-0.5c-1.9,0.8-1.1-0.1-5-1
					c-0.6,0.6-1.5,2.1-1.8,2.9l3.3,1.3l-0.8,1.6l-3.6-1.2l-2.1,3.5l4.7,1.4L-110.7,563.2z"/>
				<path class="st1" d="M-152.2,541.3c0.9-1.1,1.2-1.8,1.8-3.1l-3.4-1.2c-0.3,1.3-1.1,2-1.7,3.4
					C-154.5,540.9-153.3,541.4-152.2,541.3z"/>
			</g>
			<g>
				<path class="st2" d="M-102.2,554.8l3.2,0.9c-0.2,1-0.9,2.1-1.6,2.8c-1.3,0-2-0.5-3.3-0.9L-102.2,554.8z M-104.2,553.5l-6.1,10.1
					c0.5,0.6,1.4,0.8,2.2,1c0.8-1,2.5-3.9,3.1-5.1l1.8,0.5l-1.2,5.9l2.4,0.9l1-6.1c3.1-0.2,4.8-4.1,4.6-6.1
					c-1.3-0.7-5.1-2.1-6.8-2.4C-103.5,552.6-104.1,553.4-104.2,553.5L-104.2,553.5z"/>
				<path class="st2" d="M-144.5,552l1.9,0.7c1.5-1.9,3.5-6.2,4.7-7.4l-1,6.6c0,0.3-0.1,0.7-0.1,1l0.1,1.1l2.1,0.7
					c1.7-3.1,5.6-8.8,6.9-11.6l-1.9-0.8c-0.9,1.3-3.8,5.9-4.3,7.5c-0.7-1.2,0.6-6.3,0.8-8.7l-2.5-0.8
					C-138.1,541.9-143.3,549.6-144.5,552L-144.5,552z"/>
				<path class="st2" d="M-127.4,558l2,0.8l3.2-5.2l3.3,1l-3,5.2c0.6,0.5,1.2,0.6,2.1,0.8c0.3-0.4,6.6-10.4,7-11.6l-2-0.8
					c-1.1,1.4-1.9,3-2.9,4.6c-1-0.2-2.6-0.7-3.2-1.2l2.7-4.6l-2.3-0.7C-121.8,548.3-127.1,556.7-127.4,558L-127.4,558z"/>
				<path class="st2" d="M-148.4,546.1c0.6-1.1,1.1-1.7,2.2-2.5c0.9-0.7,0.9-1.4,2-2.1l-1.9,5.4L-148.4,546.1z M-154.1,549l2.1,0.6
					c0.4-0.3,0.8-0.6,1.2-0.9c0.5-0.5,0.7-0.7,1.1-1.2c1,0.3,2.3,0.6,2.9,1.2l-0.8,2.3l2.6,1l3.8-12.9l-2.7-0.9l-5.2,5.2
					C-150.6,545.2-152.6,547.1-154.1,549z"/>
				<path class="st2" d="M-152.2,541.3c-1,0.1-2.2-0.4-3.3-0.9c0.5-1.3,1.4-2,1.7-3.4l3.4,1.2C-151,539.6-151.4,540.2-152.2,541.3z
					 M-161.7,546.4l2.4,0.6c0.5-1.6,1.8-2.9,2.4-4.6c2.1,0.4,4.7,2.3,6.4,0.6c0.7-0.7,2.8-4.2,2.9-5.5c-1.2-1.5-5.1-2.6-7.2-3.1
					C-155.6,536.8-161.1,544.4-161.7,546.4z"/>
				<path class="st2" d="M-110.7,563.2l0.6-1.6l-4.7-1.4l2.1-3.5l3.6,1.2l0.8-1.6l-3.3-1.3c0.3-0.8,1.2-2.3,1.8-2.9
					c3.8,0.9,3.1,1.8,5,1l0.4-1.2c-0.8-0.7-5.2-2-6.6-2.4l-7.2,11.8c1.5,0.3,2.5,0.7,3.9,1.2C-112.1,563.2-111.8,563.7-110.7,563.2
					L-110.7,563.2z"/>
				<path class="st2" d="M-130,545.1l2.5,0.9c-1,2.4-5.2,8.2-5.7,9.9l2.4,0.8c0.3-1.3,4.8-8.6,5.7-9.9l2.8,0.9
					c0.3-1,0.3-0.8,0.9-1.8l-7.4-2.7L-130,545.1z"/>
			</g>
			<g>
				<path class="st3" d="M-167,592.2c0.4,6.8,1.8,14.2,2.5,21c0.7,6.7,2.4,13.5,3.7,20.2c0.3,1.6,0.4,3.5,1.5,4.4l20.7,15.2
					c0.8,0.6,3,2.3,3.7,2.5l-8.2-11.5c-3.5-4.8-1.9-2.9-7.7-6.4c-1-0.6-6.9-3.9-7.2-4.2c-0.4-0.5-6.5-34.9-6.8-38.2
					c2.3-0.9,26.4-12.4,27.3-13.1c-0.6-1.2-2.4-2.2-3.1-2.2c-1-0.1-16.8,7.7-18.9,8.7C-161.9,589.8-164.8,590.9-167,592.2
					L-167,592.2z"/>
				<path class="st3" d="M-86.4,462.4c-0.5,0.7,0.4,0.9-0.9,0c-0.1-0.1-0.7-0.7-1-0.8c-0.8-0.6-1-0.7-1.7-1.6
					c-0.8,0.6-0.2-0.1-0.3,0.7c-0.1,0.7,0.3,1.5,0.5,2.3c0.3,1.1,0.6,2.1,0.9,3.2l7.3,24.9c0.3,0.4,4,3,4.7,3.5l14.1,9.9
					c6.7,4.8,4.2,0.8,8.4,15.8l7.1,25.2c-0.2-2.9-4.1-20.5-5-25.2c-0.9-4.6-1.4-7.8-3.1-12.1c-0.9-2.3-0.5-1.5-3.7-3.9l-13.2-9.9
					c-1.5-1.1-2.8-2.2-4.3-3.3c-2.3-1.7-2.1-1.4-3-4.6l-6.4-22.2c-0.1-0.5,0-0.2-0.1-0.7c0-0.1,0-0.2-0.1-0.3l-0.2-0.5
					C-86.3,462.6-86.4,462.5-86.4,462.4L-86.4,462.4z"/>
			</g>
			<g>
				<path class="st4" d="M-88.1,585.6h-12.2c0,0.1,0.1,0.1,0.2,0.2c0.3,1.1,4.8,2,7.3,6.3l3.9,6.6c0.4,0.8,1,1.4,1.3,2.2l6.5,21.2
					c0.5,1.8,1.7,3.7,0.6,4.8c-0.7,0.7-0.6,0.2-1.8,1.8c-0.8,1.1-0.6,0.8-1.7,1.8c-0.7,0.6-1,1.2-1.6,2c-0.7,1-1.1,0.9-1.8,1.7
					c-0.6,0.7-0.8,1.3-1.6,2c-2.3,2.1-1,1.4-3.3,3.4c-0.7,0.6-1,1.2-1.6,2c-0.7,0.9-1.1,0.9-1.8,1.7c-0.6,0.7-0.8,1.3-1.6,2
					c-1.1,1-0.9,0.7-1.7,1.8l-8.2,9.1c-1,1.4-1.4,1.2-3.3,3.7c-1,1.4-0.7,4.4-0.8,6.5c-0.1,2.3,1.3,2.3,3.3,3.3
					c8.9,4.2,11.6,5.7,21.7,2c3.7-1.4,5.9-2.8,8.4-5.3c1-1,0.9-0.3,1.7-1.8c0.3-0.6,0.8-1.5,1.1-2.4c0.7-1.8,1.1-3.5,1.6-5.4
					c1.2-4.4,4.1-19.2,3.9-23.3c-2.2,4.9-1.3,5.3-5.4,12.7l-6.8,11.1c2.5-6,5.4-12.8,7.3-19.6c2.5-9.3,4.7-14.1,9.7-20.7
					c0.6-0.7,1.1-1.2,1.6-1.9c0.3-0.4,0.2-0.4,0.6-0.9l8.7-10.3c1.8-2.4,3.7-5.4,5.4-8.3c1-1.6,4.3-7,4.8-8.7l-14.8,3.9
					c-0.6-1.2-1.3-2.1-2.3-2.9c-1.2-1-1.3-1.7-2.3-2.7c-1.3-1.3-0.4,0.1-2.4-2.6c-0.6-0.8-0.5-0.6-1.3-1.3c-0.7-0.6-0.5-0.8-1.5-1.1
					l-17.3-2.9L-88.1,585.6L-88.1,585.6z"/>
				<path class="st4" d="M-131.8,583.1c-1.7,0.5-4.9,2.7-6.8,3.7c-3.2,1.7-18.7,10.8-20.5,11.3l3.3,34.9l12.2,5.1
					c1.2,0.6,1.9,1.9,2.7,3.2l8.2,12.2c2,2.8,3.2-0.1,7.3-5.5l5.4-7.1c0.8-0.9,1-1.3,1.7-2.3l16.8-21.6l-22.3-26.6
					c-0.6-0.7-0.4-0.5-1.1-1.3l-9.1-10.8C-133.5,580-132.4,581.4-131.8,583.1L-131.8,583.1z"/>
				<path class="st4" d="M-96.8,777.9c-2.9-2.3-13.8-9.2-18.3-12.5l-7.8-5.4c-1.8-1.2-3.4-2.4-5.1-3.7l-3.8-2.9
					c-0.6-0.5-0.7-0.5-1.2-0.9c-2-1.5-2.6-3.1-3.4-5.3c-4.4-12.3-2.5-17.9-2.3-31.8c0.1-5.6,0.6-11.4,0.6-17c0-1.9-0.1-2.3,1.2-3.2
					l7.3-5.7l-15.8,3.3c-1.9,0.4-4.1,0.6-4.7,1.4c-0.6,0.7-3.2,7.7-3.8,9.1c-1.2,3-2.4,6-3.6,8.9l-11,26.9c-1.6,4.3-2.2,4.8,0.6,8.9
					l4.6,5.1c2.7,2.1,6.3,4.5,9.7,6.1c8.5,4,28.2,10.7,37.4,13.1C-112.6,773.3-99.3,777.6-96.8,777.9L-96.8,777.9z"/>
				<path class="st4" d="M-186.2,457.4c-7.1-1.1-29.5-9.1-37-7.2c-4.2,1.1-3.1,5.1-1.6,6.8c3.9,4.9,18,8.1,24,9.9
					c2.8,0.8,6,1.5,8.9,2.2c4.6,1.1,4.9,0.2,8.4-1.8c7.7-4.6,10.7-2.7,16.8,0.1c1.9,0.9,29.5,12.6,31.7,13.1l-67.3-56.9
					c-1.7-1.6-3-1.4-6.2-2.3l-15.1-3.9l7.8,11.6c7.8,12.9,3.8,11.4,4.8,14.2c0.5,1.6,4.4,2.4,6.5,3.2c4.2,1.7,5,3.8,8.9,6
					L-186.2,457.4z"/>
				<path class="st4" d="M-74.3,529.3c-0.8,0.6-1.2,0.9-2.5,1.1c2,1.5-1.3-0.4,1.4,0.7c3.6,1.5,10.7,6,13.6,8.3l3.3,2.5
					c1.1,0.8-0.2,0.3,1.1,0.8l-10.2-26.8c-0.6-1.1-7.2-3.7-8.3-4.3c-5.7-2.5-11.4-5.4-17.1-7.8l-4.7-2.8l-4.6-12.6
					c-4.5-12.1-9-24.2-13.3-36.3c-1.9-5.2-1.2-4-6.7-5.6c-13.2-3.7-18.3-3.9-32-5.7c1.8,1.3,4.8,2.3,6.9,3.6c3,1.8,9.8,6.2,12.1,9
					c0.4,0.5,0.8,0.9,1.3,1.3c0.6,0.6,0.7,0.6,1.4,1.2l2.4,2.9c5.1,6.8,11.1,19.7,13.7,28.4c1.4,4.8,0.9,11.4,6.7,14.3
					c6.2,3.1,16.3,6.1,21.4,10.1l8.9,9.5C-78,523.1-74.4,526.9-74.3,529.3L-74.3,529.3z"/>
				<path class="st4" d="M-222.6,606.2c1.3-0.5,2.5-1.9,3.3-2.8c0.5-0.5,0.9-0.9,1.5-1.5c2-2,2.3-2,4.3-5c6.2-9,2-14.3-2.1-22.2
					c-1.7-3.3-3.4-5.8,0-8.2c4.2-3,13.5-5.8,19-5.6c3.8,0.1,6.5,1.8,9.9,2.3c-8.4-5.2-16.1-8.4-25.4-15.1c-2-1.5-4.1-2.9-4.7-5
					c2-3.2,9.6-4.5,14-5.5c-3.2-0.5-24.8-0.1-30.3-0.1c-2,0-3-0.1-4.4,3.3c-4.2,10.3,8.2,23.8,13.5,38
					C-220.2,589.1-224.2,595.4-222.6,606.2z"/>
				<path class="st4" d="M-62.1,563.5c0.5,1,1,1.5,1.7,2.5l4.8,7.5c1,1.7,3.4,1.9,6.2,2c3,0.2,4.7-1.3,5.7-2.8c3.3-4.8,3.3-6,0.6-12
					c-1.2-2.5-4.3-9.5-5.7-11.1c0,0.1-0.1,0.1-0.1,0.2l-2.6,3.9c-0.6,0.8-1,0.8-1.7,1.5c-0.8,0.8-0.8,1.2-1.5,2
					c-0.8,0.9-1.6,1.1-3.6,3.2c-0.7,0.7-1.1,0.8-1.8,1.4L-62.1,563.5L-62.1,563.5z"/>
				<path class="st4" d="M-261.2,686.5c5.1-3.4,4,1.7,7.1,7.6c1.2,2.4,4.3,6.1,6,7l4.5-42L-261.2,686.5z"/>
				<path class="st4" d="M-55.3,499.5l-19.1-26.4c-0.3-0.4-0.5-0.5-0.8-0.9l-3.8-3.8c-0.8-0.7-1.3-1.1-2-1.8c1.3,7.7,4.1,18,8.7,24
					c0.6,0.8,1.1,1.6,1.6,2.2C-68.9,494.8-58.1,498.5-55.3,499.5z"/>
				<path class="st4" d="M-85.2,489.8c0.1-3.4-6.9-25-8.5-31.3c-0.5-1.9-0.1-1.6-3.7-3c-1.6-0.6-3.3-1.5-5-2.1
					c1,3.1,2.6,6.6,3.9,9.6l7.7,18.6C-89.6,484.6-88.4,489.5-85.2,489.8z"/>
			</g>
			<g>
				<path class="st5" d="M-167,592.2c2.3-1.3,5.2-2.4,7.5-3.6c2.1-1,17.8-8.8,18.9-8.7c0.7,0.1,2.5,1,3.1,2.2
					c-0.8,0.7-25,12.3-27.3,13.1c0.3,3.3,6.4,37.7,6.8,38.2c0.3,0.3,6.2,3.6,7.2,4.2c5.8,3.5,4.1,1.5,7.7,6.4l8.2,11.5
					c-0.7-0.3-2.9-1.9-3.7-2.5l-20.8-15.1c-1.1-0.9-1.2-2.8-1.5-4.4c-1.3-6.7-3-13.5-3.7-20.2C-165.3,606.4-166.7,599-167,592.2
					L-167,592.2z M-258.8,525.8L-258.8,525.8c1.1,1,1.7,1.9,3.4,2.7c1.6,0.7,3.3,0.6,5,0.9c1.6,0.7,14.7,1,16.4,1
					c6.4-0.2,7.7-3.3,12-5.8c-1.1,4.5,2.4,6.1,6.3,6.9c10.2,2.3,27.3,0.3,37.8,0.3c-7,3-23.6,6.9-28.9,11.8c0.1,1.7,1.3,2.8,2.2,3.7
					l3.2,2.7c2.3,1.6,4.3,3.2,7,4.7c9,5,16.5,6.9,26.7,8.4c2.6,0.4,25,6.4,27.9,7.1c1.8,0.4,8.1,1.8,9.1,2.6c1,0.8,4.2,5.4,5.1,6.5
					c0.6,0.7,0.6,0.9,1.2,1.7c0.4,0.4,0.9,1,1.3,1.6l17.9,23c0.8,1.1,1.7,2.2,2.5,3.3l7.6,9.8l-21.8,30c-0.8,1.2-1.5,1.9-2.2,3
					l-10.7,14.7c-1.7-0.9-4-1.8-5.7-2.7c-5-2.9-32.4-17-33.8-18.2c-0.9-0.8-9.8-30-10.5-32.4c-2.1-7.3-6.9-20.2-8.3-26.3l5.4-4.2
					c0.4-0.3,0.5-0.5,0.9-0.8c2.4-1.8,5.8-4.1,7.7-6.4c-2.4-1.5-5.2-3.1-7.8-4.6c-2.7-1.6-5.2-3-7.9-4.6c-2.5-1.4-2.3-1.2-5.5-0.9
					c-1.9,0.2-3.6,0.3-5.5,0.6c-10.9,1.8-9.2,5.6-7.1,14.3c0.8,3.2,1.6,7.1,1.8,10.4c0.4,6.4-0.1,9.7-4.2,14.1l-1.8,1.4
					c-0.6,0.4-1.1,0.8-1.6,1.3l-15.9,12.4c-0.6,0.5-1.1,0.9-1.7,1.5c-1.2,0.9-2.3,1.6-3.2,2.9l-10.1,14.7
					c-3.6,5.5-9.7,13.6-12.6,18.4c-0.6,1-2,2.4-2.4,3.5c0.4-1.7,2.1-5.5,2.9-7.4c1-2.5,2-5,3-7.5l17.9-44.4c0.9-2.3,5.8-13,5.3-14.7
					c-1.5-4.6-12.4-34.1-14.5-37.5l-3.7-6.7c-0.8-0.6-4.2-6.9-5-8.3c-0.8-1.4-1.7-2.9-2.5-4.2C-257.4,528.7-258.7,527.1-258.8,525.8
					L-258.8,525.8z M-131.8,583.1c-0.6-1.7-1.8-3.2-2.3-4.9l9.1,10.8c0.7,0.7,0.5,0.6,1.1,1.3l22.4,26.7l-16.6,21.6
					c-0.8,1-1,1.4-1.7,2.3l-5.4,7.1c-4.1,5.4-5.3,8.3-7.3,5.5l-8.2-12.2c-0.7-1.2-1.5-2.6-2.7-3.2l-12.4-5.1l-3.3-34.8
					c1.8-0.5,17.3-9.6,20.5-11.3C-136.7,585.9-133.5,583.7-131.8,583.1L-131.8,583.1z M-222.6,606.2c-1.6-10.7,2.4-17-1.5-27.5
					c-5.3-14.2-17.6-27.7-13.5-38c1.4-3.4,2.3-3.3,4.4-3.3c5.5,0.1,27.1-0.3,30.3,0.1c-4.4,0.9-12,2.2-14,5.5c0.6,2.1,2.7,3.6,4.7,5
					c9.4,6.8,17,9.9,25.4,15.1c-3.4-0.6-6.1-2.2-9.9-2.3c-5.5-0.2-14.8,2.6-19,5.6c-3.4,2.4-1.8,4.9,0,8.2c4.1,8,8.3,13.2,2.1,22.2
					c-2.1,3-2.4,3-4.3,5c-0.5,0.5-1,0.9-1.5,1.5C-220.2,604.3-221.4,605.7-222.6,606.2z"/>
				<path class="st5" d="M-202.4,766.5c0.6,0.7,1.5,1.3,2.2,1.5l24.4-78.2l-5.3-6.3c-0.5-0.5-0.5-0.7-1.1-1.3l-4.2-4.8
					c-3.1-4.1-3.1-2.2-3.3-10.6l31.1,6.1c-5.3-19.5,0.8-12.2-14-19.4c-0.7,0.4-4.4-0.6-5.6-0.7c-3.2-0.4-2.9,0.3-4.3-2.3l-9.6-17.9
					c-0.8-1.5-1.6-3-2.5-4.6c-1-1.9-1.3-3.5-2.7-4.4c-1.5,2.1-10.7,10.1-11.2,11.8c-0.6,2.3-0.9,7.8-1.3,10.4l-8.6,72.1
					c-0.4,3.5-0.8,7-1.2,10.4c-0.7,5.7-1.4,6.4,0.3,9.3l12.8,22C-205.8,760.6-202.4,766.5-202.4,766.5L-202.4,766.5z"/>
				<path class="st5" d="M-60.2,561.8c0.7-0.7,1.1-0.7,1.8-1.4c1.9-2,2.7-2.2,3.6-3.2c0.7-0.8,0.7-1.2,1.5-2
					c0.7-0.7,1.1-0.7,1.7-1.5l2.6-3.9c0-0.1,0.1-0.1,0.1-0.2c1.4,1.5,4.5,8.5,5.7,11.1c2.8,6,2.8,7.2-0.6,12c-1,1.5-2.7,3-5.7,2.8
					c-2.7-0.2-5.1-0.4-6.2-2l-4.8-7.5c-0.7-1-1.2-1.5-1.7-2.5L-60.2,561.8L-60.2,561.8z M-88.1,548.3l1.4-4l16.3,1.5
					c1.6,3.6,6.4,18.3,6.4,21.8l-0.8-0.3c-4.1-0.5-19.2-3.6-20.9-6.1c0.3-1.2,0.5-1,1.4-1.7c0.7-0.5,1.2-0.8,1.9-1.1
					c-0.8-1.4-1.4-1.5-2.4-2.3C-89.1,552.7-89,551.3-88.1,548.3L-88.1,548.3z M-75.2,472.2c0.3,0.4,0.5,0.5,0.8,0.9l19.1,26.4
					c-2.8-1-13.6-4.6-15.4-6.7c-0.5-0.6-1-1.4-1.6-2.2c-4.6-6-7.5-16.3-8.7-24c0.7,0.6,1.2,1.1,2,1.8L-75.2,472.2L-75.2,472.2z
					 M-85.2,489.8c-3.1-0.3-4.3-5.2-5.6-8.1l-7.7-18.6c-1.3-3-2.9-6.5-3.9-9.6c1.7,0.5,3.4,1.4,5,2.1c3.6,1.4,3.3,1,3.7,3
					C-92.1,464.8-85.1,486.4-85.2,489.8z M-107.3,451.2c0.7,1,14.5,37.4,16.1,41.7c0.8,2.3,2,2.4,5.3,4.3l24.1,14.5
					c1.4,1.1,8.4,24.6,9.8,28.8c0.8,2.3,2,5.3,2.5,7.6l-4.5,3.8c-0.5,0.4-0.3,0.3-0.7,0.7c-0.3,0.3-0.5,0.3-0.9,0.6l-1.4,1.2
					c-0.3,0.3-0.4,0.4-0.8,0.7l-2.3,1.8c-0.5,0.4-0.4,0.2-0.8,0.6c-0.7,0.6,0.2,0.1-0.7,0.6c-1.1-0.9-3.3-9-3.7-10.3
					c-0.6-1.7-1.2-3.4-1.8-5.2c-0.6-1.8-0.4-1.4-4.7-2.3c-3.8-0.8-7.8-1.7-11.6-2.4c-3-0.6-5.7,1.1-11.4,1.7c0,1.2,1.1,3.7,1.2,5.8
					c0.1,2.5,0.2,5,0.1,7.5c-0.1,3.5-1.1,5.6-3.6,7.4c-0.9,0.7-1.2,1.1-2.3,1.5c-0.1,2.7-0.7,7.6-1.7,9.8
					c-2.5-0.3-59.6-21-63.8-21.4c0.3,0.8,1,1,1.5,1.6c0.7,0.8,0.7,1.1,1.6,1.9l3.8,3.5c1.5,1.5,2.5,4,2.7,4.3
					c0.7,0.9,4.2,1.4,5.5,1.8l17,4.7c1.2,0.3,2.1,0,2.8,0.2c1.3,0.2,0.1-0.1,1,0.6c0.7,0.5,0.6,0.4,1.5,0.6c8.6,2.4,20,5.2,28.2,7.7
					c4.1,1.3,2.5,1.1,7-3.8c0.5-0.5,0.4-0.7,0.9-1.2l3.5-3.9c2.4,0.2,24.9,3.2,25.5,3.6c0.7,0.4,6.1,6.1,7.2,7.1
					c1.9,2,1.6,1.3,4.2-0.2c0.9-0.5,1.4-0.7,2.3-1.2l2.3-1.4c0.1,0,0.2-0.1,0.2-0.2c0.7,0,6-2.9,7-3.5c-0.6-6-2.5-11.4-3.4-17.3
					c-0.9-6.1-1.5-12.1-2.2-18.3c-0.7-6.1-0.8-12.4-2-18.4c-3.3-16-11.3-30.4-21.1-43.1c-1.3-1.6-3-5.2-5.5-7.4
					c-1.7-1.5-13.7-10.5-14.6-10.8l1.7,5.2c0,0.1,0.1,0.2,0.1,0.3l0.2,0.5c0,0.1,0,0.2,0.1,0.3c0.1,0.5,0,0.3,0.1,0.7l6.4,22.2
					c0.9,3.1,0.8,2.9,3,4.6c1.5,1.1,2.9,2.2,4.3,3.3l13.2,9.9c3.2,2.4,2.9,1.6,3.7,3.9c1.6,4.3,2.2,7.5,3.1,12.1
					c0.9,4.7,4.8,22.3,5,25.2l-7.1-25.2c-4.2-15-1.7-11-8.4-15.8l-14.1-9.9c-0.8-0.5-4.4-3.1-4.7-3.5l-7.3-24.9
					c-0.3-1-0.6-2.1-0.9-3.2c-0.2-0.8-0.6-1.6-0.5-2.3c0.1-0.8-0.5-0.1,0.3-0.7c-1.4-1.6-1.6-4.9-2.6-5.8c-0.6-0.5-4.2-2.6-5.3-3.2
					c-3.4-1.8-7.7-4.2-11.6-5.6L-107.3,451.2L-107.3,451.2z"/>
				<path class="st5" d="M-74.1,637.3c-1.9,6.9-4.8,13.6-7.3,19.6l6.8-11.1c4.1-7.5,3.2-7.8,5.4-12.7c0.2,4-2.7,18.8-3.9,23.3
					c-0.5,1.9-0.9,3.6-1.6,5.4c-0.3,0.9-0.8,1.8-1.1,2.4c-0.8,1.5-0.7,0.9-1.7,1.8c-2.5,2.5-4.7,3.9-8.4,5.3
					c-10.1,3.8-12.8,2.2-21.7-2c-2-0.9-3.4-1-3.3-3.3c0.1-2-0.2-5.1,0.8-6.5c1.9-2.5,2.3-2.3,3.3-3.7l8.2-9.1
					c0.8-1.1,0.6-0.8,1.7-1.8c0.7-0.7,0.9-1.2,1.6-2c0.7-0.8,1.1-0.8,1.8-1.7c0.6-0.7,0.8-1.3,1.6-2c2.2-2,1-1.4,3.3-3.4
					c0.7-0.6,0.9-1.3,1.6-2c0.7-0.8,1-0.8,1.8-1.7c0.6-0.8,0.8-1.3,1.6-2c1.1-1,0.9-0.7,1.7-1.8c1.1-1.6,1-1,1.8-1.8
					c1.1-1.1-0.1-3-0.6-4.8l-6.5-21.2c-0.4-0.8-0.9-1.4-1.3-2.2l-3.9-6.6c-2.5-4.3-7-5.2-7.3-6.3c0-0.1-0.1-0.1-0.2-0.2h12.2
					l2.7-8.6l17.3,2.9c1.1,0.3,0.8,0.5,1.5,1.1c0.8,0.7,0.7,0.5,1.3,1.3c2,2.6,1.1,1.2,2.4,2.6c1,1,1.1,1.7,2.3,2.7
					c1,0.8,1.7,1.7,2.3,2.9l14.8-3.9c-0.5,1.7-3.8,7.1-4.8,8.7c-1.7,2.9-3.6,5.9-5.4,8.3l-8.7,10.3c-0.4,0.4-0.3,0.4-0.6,0.9
					c-0.5,0.7-1,1.2-1.6,1.9C-69.4,623.2-71.6,628-74.1,637.3L-74.1,637.3z M-110.2,676.2c2.4,0.4,6.2,3.1,8.7,3.8
					c-0.5-0.2-0.8-0.6-1.3-1.1c1.5-1.5,2.2-0.4,3.7,0.9c1,0.9,1,1.5,3,0.9l16.9-5.1c0.7-0.5,0.4-0.7,0.9-1.7l3.5-5
					c1.4-2.2,2.6-4.4,3.9-6.9c2-3.7,1.6-4.9,2.3-8.8c1.3-8.2,9.6-33.9,14.8-40.2c1.3-1.6,3.4-3.1,4.2-4c1.4-1.6,0.3-1.2,2.7-2.8
					c0.6-0.4,0.8-0.6,1.3-1.3l1.8-2.3c0.4-0.4,0.4-0.3,0.8-0.7c1.3-1.4,3.6-4.8,4.6-6.5c2.1-3.9,1.3-5.3,0.9-9.4l-1-8.7
					c-0.4-1.6,0.2-0.5-0.7-1.1l-6.2,3.6c-0.1,0-0.2,0-0.2,0.1l-3.7,2c-1.1,0.6-2.9,1.6-4.2,2.2l-9-7.6c-1.4-1.5-1.7-1.1-4.1-1.5
					l-19.1-2.7c-2,2.8-3.8,7.2-5.9,10l-33.7-8.5l15.3,19.7l8.2-0.4c2.3,3.3,4.3,6.5,6.3,9.7l3.2,4.7c2.4,3.6,1.7,7.2,3.2,12.6
					c1.2,4.4,1.5,3.4-0.4,5.3l-20.1,23.4c-0.5,0.5-0.5,0.7-0.9,1.2l-7.3,8.5c-0.5,0.6-0.5,0.4-1,1c-0.4,0.4-0.4,0.6-0.7,1
					c-0.5,0.6-0.6,0.5-1,1c-0.4,0.4-0.5,0.7-0.9,1.2l-3.8,4.4c-0.5,0.5-0.5,0.3-1,0.9C-125.2,669.5-111.7,674.5-110.2,676.2
					L-110.2,676.2z"/>
				<path class="st5" d="M-186.2,457.4l-9.6-5.2c-3.9-2.2-4.7-4.2-8.9-6c-2.1-0.9-5.9-1.6-6.5-3.2c-0.9-2.7,3-1.3-4.8-14.2
					l-7.8-11.6l15.1,3.9c3.2,0.9,4.5,0.8,6.2,2.3l67.3,56.9c-2.1-0.5-29.7-12.2-31.7-13.1c-6.1-2.8-9.1-4.7-16.8-0.1
					c-3.4,2-3.7,2.9-8.4,1.8c-2.9-0.7-6-1.3-8.9-2.2c-6-1.8-20.1-5-24-9.9c-1.4-1.8-2.6-5.8,1.6-6.8
					C-215.7,448.3-193.3,456.3-186.2,457.4z M-242.2,472.1l6-9.7c2.4,0.6,5.1,1.5,7.5,2.3c2.8,0.9,4.7,1.1,7.5,1.9
					c6.7,1.7,43.5,12,46.3,12.4c-0.4-0.5-0.8-1-1.4-1.8c-0.6-0.8-1-1.4-0.7-2.7c4.3-2.4,13.2,2.2,18.1,4.6
					c3.4,1.6,26.2,11.6,30.1,11.8c4.1,0.2,5.7-2.4,3.5-6.1c-0.8-1.4-1.8-2.4-2.6-3.5l-6.2-5.8c-0.3-0.2-0.6-0.4-0.8-0.6l-32.3-27.9
					c-0.4-0.3-0.4-0.2-0.8-0.6l-5.7-4.8c-0.6-0.5,0-0.1-0.7-0.7c-3-2.4-6.9-5.9-10-7.9l-2-1.8c0.4-0.3,0.2,0,0.9-0.1
					c1.5-0.2,4.3-1.2,5.4-1.9c-1.6,0.2-6.4,1.9-7.3,1.6c-0.2-0.1-4.6-3.1-5.2-3.6c-3.9-2.9-9.5-6.6-13-9.5c-1.1-0.9-1-1.3-2.6-1.8
					c-5.5-1.9-17.2-3.4-22.9-3.9c2,4.1,3.8,8.8,5.9,13c1,2,6.1,12.1,6.3,13.2c-4.5,2.8-8.7,4.8-12.8,7.6l-2.9,2
					c-1,0.8-1.9,1.4-3,2.2c-0.6,0.5-0.7,0.6-1.3,1.1c-0.7,0.6-0.9,0.5-1.5,1.2c-2.6,3-5.5,4.7-6.4,9.1c-0.6,2.9-1.2,6-1.3,8.9
					c-0.2,4.7,1.3,1.1-2.3,7.3c-1.2,2-2.7,4.5-3.6,6.8l6.1-2.8c1.1-0.5,1.3-0.4,1.8-1.4c0.7-1.7,0.5-2.6,1.6-4.3
					C-243.8,474.7-242.8,473.3-242.2,472.1L-242.2,472.1z"/>
				<path class="st5" d="M-96.8,777.9c-2.4-0.2-15.8-4.5-19.4-5.5c-9.2-2.4-28.9-9.2-37.4-13.1c-3.4-1.6-7.1-4-9.7-6.1l-4.6-5.1
					c-2.8-4.1-2.2-4.6-0.6-8.9l11-26.9c1.2-3,2.4-5.9,3.6-8.9c0.6-1.4,3.2-8.4,3.8-9.1c0.6-0.8,2.9-1,4.7-1.4l15.8-3.3l-7.3,5.7
					c-1.3,0.9-1.2,1.3-1.2,3.2c0,5.6-0.5,11.4-0.6,17c-0.2,13.9-2.1,19.4,2.3,31.8c0.8,2.3,1.5,3.8,3.4,5.3c0.5,0.4,0.6,0.4,1.2,0.9
					l3.8,2.9c1.7,1.2,3.3,2.4,5.1,3.7l7.8,5.4C-110.7,768.6-99.8,775.5-96.8,777.9L-96.8,777.9z M-137.6,685.9
					c-0.9,0.6-3.7,0.8-6.1,1.3c-2,0.4-3.9,0.8-5.8,1.2c-1.6,0.3-4.3,0.2-5.1,1.9c-3,6.8-7.2,18-10.1,25.3
					c-1.1,2.7-15.7,38.5-16.1,40.2l78.3,27.9l-1.8,0.6c3.8-0.3,11.2,2.7,15,4.1l12.3,4.4c0.3,0.1,0.5,0.2,0.9,0.3
					c0.8,0.1,0.4,0.1,0.9-0.2c-0.9-0.4-1.1-0.5-1.8-1.2l-35.6-31c-0.8-0.6-0.6-0.8-1.5-1.4l-17.1-14.7c-2.4-2.4-2.1-1.2-2.2-3.5
					c-0.2-12.4-1.2-27.7-1.1-39.6c0.1-5.7-0.1-2.8,2.6-5.8c0.5-0.5,0.7-0.9,1.2-1.4c3.6-4.2,2.3-2.4,4.3-4.4
					c1.1-1.1,2.8-3.6,4.1-4.7c1-0.9,1.5-0.7,2.6-2.7L-137.6,685.9L-137.6,685.9z"/>
				<path class="st5" d="M-74.3,529.3c-0.2-2.4-3.7-6.2-5.3-8.1l-8.9-9.5c-5.1-4-15.3-7-21.4-10.1c-5.8-2.9-5.3-9.5-6.7-14.3
					c-2.6-8.7-8.6-21.6-13.7-28.4l-2.4-2.9c-0.7-0.6-0.8-0.5-1.4-1.2c-0.5-0.5-0.9-0.8-1.3-1.3c-2.2-2.8-9.1-7.1-12.1-9
					c-2.1-1.3-5.1-2.3-6.9-3.6c13.7,1.7,18.8,2,32,5.7c5.5,1.5,4.9,0.4,6.7,5.6c4.4,12.2,8.9,24.2,13.3,36.3l4.6,12.6l4.7,2.8
					c5.7,2.4,11.4,5.2,17.1,7.8c1.1,0.5,7.7,3.2,8.3,4.3l10.2,26.8c-1.3-0.4-0.1,0-1.1-0.8l-3.3-2.5c-2.9-2.3-10-6.8-13.6-8.3
					c-2.6-1.1,0.6,0.8-1.4-0.7C-75.5,530.2-75.1,530-74.3,529.3L-74.3,529.3z M-148.1,434c0.5,0.1,5.1,1.8,6.3,2.2l4.9,1.5
					c0.2,0.1,0.7,0.2,0.9,0.3l0.9,0.6c-3.2-0.3-6.9-0.8-10.1-1.3c-3.5-0.5-6.9-0.7-10.2-1.1l-19.9-2.2c4.7,2.2,20.9,13,26.3,17.3
					l2.9,2.3c0.2,0.2,0.4,0.4,0.6,0.6l3.8,3.2c0.6,0.5,1.1,0.7,1.7,1.3l2.9,2.7c2.7,2.4,7.8,8.2,10.1,11.8c2.4,3.8,5.7,9.9,7,14.9
					c1.1,4.3-0.7,5.8-5,5.3c-3.1-0.3-6.5-0.9-9.5-1.6c-5.5-1.4-11.2-3.6-16.5-5.5c-5.2-1.8-10.9-4.6-15.8-6.1
					c1.5,1,44.5,20.1,49.1,21.9c8.5,3.5,16.1,7.7,23.4,11.9c1.9,1.1,3.8,2.2,5.4,3.4c0.9,0.6,1.7,1.2,2.6,1.8c1,0.6,1.7,1.3,2.7,2
					c1.3,0.9,1.2,0.5,2,2.4c1.6,4,2.3,6.9,0.2,10.9l12,2.9c1.8,0.4,2.4,0.2,3.1,1.9c1,2.1,5.4,12.6,6.2,13.5c1.3-0.7,4-4.1,5.1-5.3
					c2.7-3,2.3-1.7,0.4-6.6c-2-5.1-3.9-10.4-5.8-15.5c-0.6-1.5-3.5-10.4-4.6-11.2l-27.8-14.9c-1.6-0.9-1.5-1.3-2.1-3.1
					c-1.7-5.1-3.8-10.6-5.7-15.6l-8.5-23.3c-0.6-1.7-2.8-6.5-2.5-7.8c-1.2-1.1-1.5-4-2.4-5.7c-0.6-1.1-4.3-2.1-5.6-2.6
					c-4-1.5-8.1-2.9-12.2-4.2c-4.4-1.4-22.9-6.5-26.3-5.7C-155.7,431.9-150.1,434-148.1,434L-148.1,434z"/>
				<path class="st5" d="M-243.7,659l-4.5,42c-1.7-0.9-4.7-4.6-6-7c-3-5.9-2-11-7.1-7.6L-243.7,659z M-285.4,709
					c0.5,0.9,1.2,1.7,1.7,2.6l-3.7,6c-1.2,1.9-2.5,3.9-3.8,5.9l-7.4,11.9c0.8-0.4,1.8-1.1,2.7-1.7l21.5-13.3c4-2.6,8.2-4.9,12.3-7.6
					l15.4-9.5c1.1-0.8,0.9-2.6,1.1-3.8c1-8.5,2.7-17.2,3.8-26.1c1-7.8,4.6-29.3,4.9-34.5l-12,17.2c-1.1,1.5-2,2.9-3,4.3l-10.7,15.3
					c-0.6,0.8-0.9,1.4-1.5,2.3l-6.1,8.8c-0.6,0.9-0.9,1.4-1.5,2.3l-6.1,8.8c-0.7,0.9-0.9,1.4-1.5,2.3L-285.4,709L-285.4,709z"/>
				<path class="st5" d="M-259.3,631.3c0.1,1.2-14.1,40.3-16.5,47.1l-5.6,16.1c0.9-1.2,7-15.8,8-18.4c7.5-18.1,16-37.2,23.8-55.4
					l13.9-32.3c1-2.3,0.1-2.7-0.7-5l-13.7-35.7c-0.4-0.9-0.8-2-1.1-2.7c-0.1-2.8-4.9-11.2-6-13.9l12.7,52c0.8,2.9,1.4,3.5,0.4,6.4
					c-0.7,2-1.4,4.1-2.1,6L-259.3,631.3L-259.3,631.3z"/>
				<path class="st5" d="M-263.5,629.3c0.9-1.4,10.5-28.1,11.8-31.9c3.4-9.5,4-6.4,1-16.9c-1.6-5.6-3.2-12-4.5-17.6
					c-0.8,1.2-2.4,14.9-2.5,16.2C-259.5,594.7-263.5,614.3-263.5,629.3z"/>
				<path class="st5" d="M-298.1,715.1l2.8-5.4c0.9-1.8,1.8-3.6,2.7-5.4c1.8-3.6,3.7-7.3,5.5-10.9c6.8-13.5,4.7-7.5,7.8-20.9
					c0.4-1.9,0.3-2.4,0.7-3.5c0-0.1,0.1-0.2,0.1-0.3l6.5-28.1c-0.2-0.4,0.1-1.9-0.8,0.7l-1.6,4.5c-0.7,2-1.5,4-2.3,5.9
					c-4.7,12-8.8,23.9-13.7,36l-13.7,36.2c-1.2,3.4-3.7,8.7-4.5,12c1.8-2.7,5.9-11.6,8-15.8C-299.9,718.9-298.3,716.4-298.1,715.1
					L-298.1,715.1z"/>
				<path class="st5" d="M-166.7,686.5c0,3.6-6.6,26.1-7.4,32.5c1.3-1.9,2.7-6.1,3.8-8.4c1.3-2.9,2.5-5.8,3.9-8.7
					c1.2-2.8,6.7-16.1,7.9-17.3c1-0.7,21.4-3.4,25.5-4.2c1.7-0.3,5.3-2.8,6.6-3.7c-9.9,1.2-20,2.9-30,4.3c-5.3,0.8-6.2-0.6-13-3.1
					c-2.1-0.8-4.1-1.6-6.2-2.3c-1.8-0.7-4.6-2-6.3-2.4c1.4,1.6,1.7,1.6,3.6,3.4c0.7,0.6,1.3,0.8,2,1.5c0.5,0.6,0.2,0.4,0.8,0.9
					c0.4,0.4,0.8,0.5,1.2,0.9c1,0.7,0.8,1,1.8,1.7l4.6,4.1C-167.6,686-167.2,686.2-166.7,686.5L-166.7,686.5z"/>
			</g>
			<g>
				<path class="st6" d="M-166.7,686.5c-0.5-0.3-0.8-0.4-1.3-0.8l-4.6-4.1c-1-0.7-0.8-1-1.8-1.7c-0.4-0.3-0.8-0.5-1.2-0.9
					c-0.6-0.6-0.3-0.4-0.8-0.9c-0.7-0.7-1.3-0.9-2-1.5c-1.9-1.8-2.2-1.8-3.6-3.4c1.7,0.4,4.5,1.7,6.3,2.4c2.1,0.7,4.1,1.5,6.2,2.3
					c6.7,2.5,7.7,3.9,13,3.1c10-1.4,20.1-3.1,30-4.3c-1.3,0.9-4.9,3.4-6.6,3.7c-4.2,0.7-24.5,3.5-25.5,4.2
					c-1.2,1.2-6.6,14.6-7.9,17.3c-1.3,2.9-2.5,5.9-3.9,8.7c-1.1,2.4-2.6,6.5-3.8,8.4C-173.3,712.5-166.7,690-166.7,686.5
					L-166.7,686.5z M-202.4,766.5c-1.2-0.3-23-14.2-24.9-15.4c-1.1-0.7-1.7-1.5-2.9-1.4l-58.7,21.4c-4.3,1.5-8.8,3.4-13.1,4.8
					c1.3-4.6,2.2-9.4,3.5-14c0.5-1.8,6.7-15.6,7.9-18.1c0.3-0.7,1.1-2.6,1.4-3c0.4-0.6,14.2-8.2,16.2-9.3c0.9-0.5,1.8-1.1,2.8-1.6
					c5.2-2.7,11-6.3,16.3-9.1c3.7-2,7.4-4.1,11.1-6.2c1.9-1,3.6-2,5.4-3.1c2.5-1.6,3.7-1,4.3-4.2c3.5-19.1,7.8-38.2,11.3-57.4
					c0.8-4.4,1.4-9.9,3.8-13.4l20.4-29.9c0.2-0.3,0.1,0.6,0.3-0.3c0-0.1,0.1-0.1,0.1-0.2c2.1,3.3,4.2,8.4,6.1,12.1l12.1,24.2
					c1,2.1,2,4,3,6c1.2,2.4,1.3,3.7,3.6,5c14.8,7.2,8.7,0,14,19.4l-31.1-6.1c0.2,8.4,0.2,6.5,3.3,10.6l4.2,4.8
					c0.5,0.6,0.6,0.8,1.1,1.3l5.3,6.3l-24.6,78.3C-200.9,767.7-201.8,767.2-202.4,766.5L-202.4,766.5z M-279.3,700.3
					c0.7-0.9,0.8-1.4,1.5-2.3l6.1-8.8c0.6-0.9,0.9-1.4,1.5-2.3l6.1-8.8c0.7-0.9,0.9-1.5,1.5-2.3l10.7-15.3c1-1.4,1.9-2.8,3-4.3
					l12-17.2c-0.3,5.2-4,26.7-4.9,34.5c-1.1,8.8-2.7,17.6-3.8,26.1c-0.2,1.2,0,3-1.1,3.8l-15.4,9.5c-4.1,2.6-8.3,5-12.3,7.6
					l-21.5,13.3c-0.9,0.5-1.9,1.3-2.7,1.7l7.4-11.9c1.2-2,2.5-4,3.8-5.9l3.7-6c-0.5-0.9-1.2-1.7-1.7-2.6L-279.3,700.3L-279.3,700.3z
					 M-104.9,553c1,0.2,0.3-0.4,0.8,0.5c0.1-0.1,0.6-0.9,1-1.3c1.7,0.3,5.5,1.7,6.8,2.4c0.2,2-1.5,5.9-4.6,6.1l-1,6.1l-2.4-0.9
					l1.2-5.9l-1.8-0.5c-0.6,1.1-2.3,4.1-3.1,5.1c-0.8-0.2-1.6-0.4-2.2-1c-0.4,0.4-0.2,0.3-0.4-0.4c-1.2,0.5-1.4,0.1-3.7-0.7
					c-1.4-0.5-2.4-0.9-3.9-1.2l7.2-11.8c1.4,0.4,5.8,1.7,6.6,2.4L-104.9,553z M-127.4,558c0.4-1.2,5.6-9.7,6.8-11.8l2.3,0.7
					l-2.7,4.6c0.7,0.5,2.2,1,3.2,1.2c1.1-1.6,1.9-3.2,2.9-4.6l2,0.8c-0.3,1.2-6.6,11.2-7,11.6c-0.9-0.2-1.5-0.4-2.1-0.8l3-5.2
					l-3.3-1l-3.2,5.2L-127.4,558z M-125.1,546.9c-1,1.3-5.4,8.6-5.7,9.9l-2.4-0.8c0.6-1.8,4.7-7.5,5.7-9.9l-2.5-0.9l1.1-1.8l7.4,2.7
					c-0.6,1-0.6,0.8-0.9,1.8L-125.1,546.9z M-144.5,552c1.2-2.4,6.4-10.1,6.7-11.8l2.5,0.8c-0.2,2.4-1.5,7.5-0.8,8.7
					c0.5-1.5,3.3-6.1,4.3-7.5l1.9,0.8c-1.3,2.8-5.2,8.5-6.9,11.6l-2.1-0.7l-0.1-1.1c0-0.3,0.1-0.7,0.1-1l1-6.6
					c-1.3,1.2-3.2,5.5-4.7,7.4L-144.5,552z M-154.1,549c1.5-1.9,3.5-3.8,5.1-5.6l5.2-5.2l2.7,0.9l-3.8,12.9l-2.6-1l0.8-2.3
					c-0.6-0.6-1.9-0.9-2.9-1.2c-0.5,0.5-0.6,0.7-1.1,1.2c-0.4,0.4-0.8,0.6-1.2,0.9L-154.1,549z M-161.7,546.4
					c0.6-2,6.1-9.6,6.8-11.9c2.1,0.4,6,1.6,7.2,3.1c-0.1,1.3-2.2,4.8-2.9,5.5c-1.7,1.6-4.3-0.2-6.4-0.6c-0.5,1.7-1.9,3-2.4,4.6
					L-161.7,546.4z M-127.2,540.2c0.5-1,0-0.1,0.4-0.6c1.4-2.2,3-3.7,4.6-6.2c4.7-7.1,4.7-7.6,8.5-14.8c1.3-2.4,2.2-5.3,3.5-7.8
					c1.3,0.5,7.2,4.5,8,5.2c-0.3,2.2-5.1,10.5-5.7,12.5c5.2,3.2,4.9,4.7,9.2,2.8c3.2-1.4,6.2-3.3,8.8-4.7c0.8,0.6,6.9,6.8,7.4,8.2
					c-2.3,0.8-4.7,1.9-7.4,2.7c-4.6,1.4-3.6,1.5-8.1,0.4c0.7,1.2,1.1,1.2,1.7,2.6c0.8,2,0.8,9.9,0.7,12.1c-1.1,0.1-7.8-3-9.4-3.6
					c0.4-3.9,1.2-6.9,1-11.1c-0.1-1.8-0.9-2.5-2.5-3.5c-1.2-0.7-2.6-1.7-3.8-2.2c-0.5,1.3-3,4.7-3.9,5.8c-1.2,1.5-3.7,3.8-4.4,5.3
					L-127.2,540.2z M-129.7,539.2c-2.7-0.4-8.3-2.5-11.4-3.4c-3-0.8-9.3-2-11.5-3.4c-4.2-2.6-1.7-6.6,0.2-10.4
					c1.7-3.3,3.4-6.4,4.9-9.7c3.9-8.1,5.2-16.8,15.2-12.9c4.9,1.9,10.6,4.6,15.2,7c1.6,0.8,3.2,1.8,4.7,2.6l-2.7,5.8
					c-0.5-0.3-0.2-0.1-0.6-0.4c-2.3-1.8-5.3-3.2-8.1-4.5c-11.2-5.3-9.5-5.2-12.7,1.6c-0.8,1.8-1.7,3.5-2.6,5.3
					c-1,1.9-5.2,9.2-5.4,10.5c1.5,1.8,6.5,2.8,9.1,3.6c3,1,6.4,2.6,9.5,3.1L-129.7,539.2L-129.7,539.2z M-218.4,529.2
					c1-10.2,2.8-18.9,6.4-28.3c1.6-4.2,3.5-8,5.3-11.9c1.1-2.3,5.3-9.6,5.7-11.3l9.1,2.9c-3.1,6-6,11.7-9,18.1
					c-2.1,4.6-6,15-6.6,20.1l14.9,1.3c1.1-1.5,1.9-3.1,2.8-4.5c3-4.6,4-5.7,7.1-9.5c0.4-0.5,0.4-0.6,0.7-1l8.5-9.6
					c0.7-0.8,1.2-0.9,2-1.8l5.5-5.7c3.2,1.3,8.7,2.1,11.2,3.7c-0.4,5.7-2.6,34.8-4.3,40.2l-10.2-1.3l1.1-10.1l-12.5-2
					c-1.3,0.9-5.2,8.5-6.2,10.8L-218.4,529.2z M-185.6,431.1c-0.7,0.1-0.4-0.2-0.9,0.1l2,1.8c3,1.9,7,5.5,10,7.9
					c0.7,0.6,0.2,0.2,0.7,0.7l5.7,4.8c0.4,0.4,0.4,0.3,0.8,0.6l32.1,27.7c0.3,0.2,0.5,0.4,0.8,0.6l6.2,5.8c0.9,1.1,1.8,2.1,2.6,3.5
					c2.2,3.7,0.7,6.3-3.5,6.1c-3.9-0.2-26.7-10.2-30.1-11.8c-5-2.3-13.8-7-18.1-4.6c-0.3,1.3,0.1,1.9,0.7,2.7c0.5,0.7,1,1.2,1.4,1.8
					c-2.8-0.4-39.6-10.6-46.3-12.4c-2.8-0.7-4.6-0.9-7.5-1.9c-2.4-0.8-5.1-1.7-7.5-2.3l-6,9.7c0.5,0.7,0.4,1.7,0.5,2.5
					c0.6-0.3,4.4-7.2,5.1-8.4l23.3,7.6c1.3,0.5,1.8,0.8,2.7,1.7c3.7,4,0.4,7.4-2.2,12.7c-2.3,4.6-4.7,6.6-11.2,6.4
					c6.9,3.7,5.7,5.8,3.3,14c-1,3.4-2.5,14-4.9,15.6c-0.1,0.8,0,0.2-0.3,0.9l-0.3,0.5c-2.8,3.6-5.5,3.2-10,3s-9.6-0.7-14-1.4l1,2.2
					l-1.2-0.1c1.6,0.7,14.7,1,16.4,1c6.4-0.2,7.7-3.3,12-5.8c-1.1,4.5,2.4,6.1,6.3,6.9c10.2,2.3,27.3,0.3,37.8,0.3
					c-7,3-23.6,6.9-28.9,11.8c0.1,1.7,1.3,2.8,2.2,3.7l3.2,2.7c2.3,1.6,4.3,3.2,7,4.7c9,5,16.5,6.9,26.7,8.4
					c2.6,0.4,25,6.4,27.9,7.1c1.8,0.4,8.1,1.8,9.1,2.6c1,0.8,4.2,5.4,5.1,6.5c0.6,0.7,0.6,0.9,1.2,1.7c0.4,0.4,0.9,1,1.3,1.6
					l17.9,23c0.8,1.1,1.7,2.2,2.5,3.3l7.6,9.8l-21.8,30c-0.8,1.2-1.5,1.9-2.2,3l-10.7,14.7c-1.7-0.9-4-1.8-5.7-2.7
					c-5-2.9-32.4-17-33.8-18.2c-0.9-0.8-9.8-30-10.5-32.4c-2.1-7.3-6.9-20.2-8.3-26.3l5.4-4.2c0.4-0.3,0.5-0.5,0.9-0.8
					c2.4-1.8,5.8-4.1,7.7-6.4c-2.4-1.5-5.2-3.1-7.8-4.6c-2.7-1.6-5.2-3-7.9-4.6c-2.5-1.4-2.3-1.2-5.5-0.9c-1.9,0.2-3.6,0.3-5.5,0.6
					c-10.9,1.8-9.2,5.6-7.1,14.3c0.8,3.2,1.6,7.1,1.8,10.4c0.4,6.4-0.1,9.7-4.2,14.1l-1.8,1.4c-0.6,0.4-1.1,0.8-1.6,1.3l-15.9,12.4
					c-0.6,0.5-1.1,0.9-1.7,1.5c-1.2,0.9-2.3,1.6-3.2,2.9l-10.1,14.7c-3.6,5.5-9.7,13.6-12.6,18.4c-0.6,1-2,2.4-2.4,3.5
					c0.4-1.7,2.1-5.5,2.9-7.4c1-2.5,2-5,3-7.5l17.9-44.4c0.9-2.3,5.8-13,5.3-14.7c-1.5-4.6-12.4-34.1-14.5-37.5l-3.7-6.7
					c-0.2,0.9-0.3,1.1-0.8,1.7l-1.3,0.9c0.3,0.7,0.7,1.7,1.1,2.7l13.7,35.7c0.8,2.3,1.7,2.7,0.7,5l-13.9,32.3
					c-7.8,18.2-16.3,37.2-23.8,55.4c-1.1,2.6-7.1,17.2-8,18.4l5.6-16.1c2.4-6.8,16.6-45.9,16.5-47.1c-1.6,1.4-2.4,4.6-3.5,6.5
					c-1.2,2.8-2.7,5.3-4,8l-9.8,19.8c-0.9,1.8-1.5,4.5-1.9,3.1c-0.1,0.1-0.1,0.2-0.1,0.3c-0.4,1.2-0.3,1.7-0.7,3.5
					c-3.1,13.4-1,7.4-7.8,20.9c-1.8,3.6-3.7,7.2-5.5,10.9c-0.9,1.8-1.8,3.6-2.7,5.4l-2.8,5.4l-25.9,77.3c1.8-0.3,21.7-8,25.6-9.3
					c16.9-5.9,34.5-12.9,51.3-18.8c4.2-1.5,8.7-3.1,12.8-4.7c4.1-1.6,3.2-1.2,8,2.7c0.7,0.6,1.7,1.3,2.3,1.8l7.3,5.8
					c7.7,6.3,5.9,6,15.1,6.6c10.8,0.8,21.7,1.6,32.4,2.6c21.5,2,43.4,3.5,65,5l1.8-0.6l-78.3-27.9c0.4-1.7,15-37.5,16.1-40.2
					c2.9-7.3,7.1-18.5,10.1-25.3c0.7-1.7,3.4-1.6,5.1-1.9c1.9-0.4,3.8-0.7,5.8-1.2c2.4-0.5,5.3-0.6,6.1-1.3c-0.8-0.3-1.1,0,1-0.7
					c5.1-1.9,25.1-7.7,26.4-9c-1.4-1.7-15-6.7-16-8.1c0.5-0.6,0.5-0.4,1-0.9l3.8-4.4c0.4-0.4,0.5-0.8,0.9-1.2c0.5-0.5,0.5-0.4,1-1
					c0.3-0.4,0.4-0.6,0.7-1c0.5-0.6,0.5-0.4,1-1l7.3-8.5c0.4-0.5,0.4-0.7,0.9-1.2l20.1-23.4c1.9-2,1.6-0.9,0.4-5.3
					c-1.5-5.4-0.9-9-3.2-12.6l-3.2-4.7c-2-3.2-3.9-6.3-6.3-9.7l-8.2,0.4l-15.3-19.7l33.7,8.5c2.1-2.8,3.9-7.2,5.9-10l19.1,2.7
					c2.4,0.3,2.7,0,4.1,1.5l9,7.6c1.3-0.5,3-1.5,4.2-2.2l3.7-2c0-0.1,0.2-0.1,0.2-0.1c-0.5-0.5-0.2-0.1-0.6-0.9
					c0-0.1-0.1-0.6-0.2-0.7c-0.1-0.7-0.1-1.5-0.1-2.2c-0.1,0.1-0.2,0.1-0.2,0.2l-2.3,1.4c-0.9,0.5-1.5,0.7-2.3,1.2
					c-2.6,1.4-2.3,2.2-4.2,0.2c-1.1-1.1-6.5-6.7-7.2-7.1c-0.6-0.3-23.1-3.4-25.5-3.6l-3.5,3.9c-0.4,0.5-0.4,0.7-0.9,1.2
					c-4.5,4.9-2.9,5-7,3.8c-8.2-2.5-19.6-5.3-28.2-7.7c-0.9-0.2-0.8-0.1-1.5-0.6c-1-0.7,0.2-0.4-1-0.6c-0.7-0.1-1.6,0.1-2.8-0.2
					l-17-4.7c-1.3-0.4-4.8-0.9-5.5-1.8c-0.2-0.3-1.1-2.8-2.7-4.3l-3.8-3.5c-0.9-0.8-0.8-1.1-1.6-1.9c-0.6-0.6-1.2-0.8-1.5-1.6
					c4.2,0.5,61.2,21.1,63.8,21.4c1-2.2,1.6-7.1,1.7-9.8c1.1-0.4,1.3-0.8,2.3-1.5c2.5-1.8,3.5-3.9,3.6-7.4c0.1-2.5,0-5-0.1-7.5
					c-0.1-2.1-1.2-4.6-1.2-5.8c5.7-0.6,8.4-2.3,11.4-1.7c3.8,0.7,7.8,1.6,11.6,2.4c4.3,0.9,4.1,0.5,4.7,2.3c0.6,1.8,1.2,3.5,1.8,5.2
					c0.5,1.3,2.7,9.3,3.7,10.3c0.9-0.6,0-0.1,0.7-0.6c0.5-0.4,0.3-0.3,0.8-0.6l2.3-1.8c0.3-0.3,0.5-0.4,0.8-0.7l1.4-1.2
					c0.4-0.3,0.5-0.3,0.9-0.6c0.5-0.4,0.3-0.3,0.7-0.7l4.5-3.8c-0.5-2.3-1.7-5.3-2.5-7.6c-1.4-4.2-8.4-27.6-9.8-28.8l-24.1-14.5
					c-3.2-1.9-4.4-2.1-5.3-4.3c-1.6-4.3-15.4-40.7-16.1-41.7l-4.4-1.7c-0.3,1.4,1.9,6.1,2.5,7.8l8.5,23.3c1.9,5,4,10.5,5.7,15.6
					c0.6,1.9,0.5,2.2,2.1,3.1l27.8,15.1c1.1,0.8,4,9.7,4.6,11.2c1.9,5.1,3.8,10.4,5.8,15.5c1.9,4.9,2.3,3.6-0.4,6.6
					c-1.1,1.2-3.8,4.5-5.1,5.3c-0.8-0.8-5.2-11.4-6.2-13.5c-0.8-1.7-1.4-1.5-3.1-1.9l-12-2.9c2.2-4,1.4-6.9-0.2-10.9
					c-0.8-1.9-0.7-1.5-2-2.4c-1-0.7-1.7-1.4-2.7-2c-0.9-0.6-1.6-1.2-2.6-1.8c-1.6-1.1-3.5-2.3-5.4-3.4c-7.3-4.2-14.9-8.5-23.4-11.9
					c-4.5-1.8-47.6-20.9-49.1-21.9c4.9,1.5,10.6,4.3,15.8,6.1c5.3,1.9,11,4.1,16.5,5.5c2.9,0.7,6.4,1.3,9.5,1.6
					c4.3,0.5,6.1-0.9,5-5.3c-1.3-5-4.6-11.1-7-14.9c-2.3-3.6-7.3-9.4-10.1-11.8l-2.9-2.7c-0.6-0.5-1.1-0.7-1.7-1.3l-3.8-3.2
					c-0.2-0.2-0.4-0.3-0.6-0.6l-2.9-2.3c-5.5-4.4-21.6-15.2-26.4-17.4l19.9,2.2c3.4,0.4,6.8,0.6,10.2,1.1c3.2,0.4,6.9,1,10.1,1.3
					l-0.8-0.6c-0.2-0.1-0.7-0.3-0.9-0.3l-4.9-1.5c-1.3-0.4-5.8-2.1-6.3-2.2c-0.5,0.4,0.1,0.1-0.7,0.3L-176,431
					C-180.1,430.4-184.2,432-185.6,431.1L-185.6,431.1z"/>
				<path class="st6" d="M-246,513.9c2.6,0.6,5.5,0.9,8.2,1.4c3.9,0.6,5.4,1.6,6.4-2.4c0.7-2.7,1.1-5.3,1.9-8
					c0.8-2.6,2.1-5.2,1.5-7.6l-13-3.3C-243.1,499.2-245.5,508.4-246,513.9z"/>
				<path class="st6" d="M-238,487.3c1.2,0.7,11.5,3.5,12.7,3.3c2.4-0.5,6-10.3,5.9-10.3c-0.4-1.3-11.8-4.5-12.6-4.6
					C-233.7,478.1-236.7,484.3-238,487.3z"/>
				<path class="st6" d="M-177.6,513.2c3.3,0,7.5,1.5,10.9,1.9l2.2-17.6c-1.8,1.2-5.3,6-6.6,7.4c-0.5,0.5-0.3,0.2-0.9,0.9
					c-0.3,0.4-0.4,0.6-0.7,1C-174.3,508.8-176.3,510.8-177.6,513.2z"/>
			</g>
			<path class="st7" d="M-202.4,766.5c0,0-3.4-5.8-4-6.8l-12.8-22c-1.7-2.9-1-3.6-0.3-9.3c0.4-3.4,0.8-6.9,1.2-10.4l8.6-72.1
				c0.3-2.7,0.6-8.1,1.3-10.4c0.5-1.8,9.8-9.7,11.2-11.8c1.4,0.8,1.7,2.5,2.7,4.4c0.9,1.6,1.7,3.1,2.5,4.6l9.6,17.9
				c1.4,2.6,1.2,1.9,4.3,2.3c1.2,0.2,4.9,1.1,5.6,0.7c-2.3-1.3-2.4-2.6-3.6-5c-1-2.1-2-4-3-6l-12.1-24.2c-1.8-3.7-4-8.7-6.1-12.1
				c0,0.1-0.1,0.1-0.1,0.2c-0.2,0.9,0,0-0.3,0.3l-20.4,29.9c-2.4,3.5-3,9-3.8,13.4c-3.5,19.1-7.8,38.2-11.3,57.4
				c-0.6,3.2-1.8,2.6-4.3,4.2c-1.8,1.1-3.5,2-5.4,3.1c-3.7,2.1-7.4,4.2-11.1,6.2c-5.3,2.9-11,6.4-16.3,9.1c-1,0.5-1.9,1.1-2.8,1.6
				c-2,1-15.7,8.7-16.2,9.3c-0.3,0.4-1,2.3-1.4,3c-1.2,2.4-7.4,16.2-7.9,18.1c-1.3,4.7-2.2,9.4-3.5,14c4.3-1.3,8.7-3.3,13.1-4.8
				l58.7-21.4c1.2-0.1,1.8,0.7,2.9,1.4C-225.4,752.2-203.6,766.2-202.4,766.5L-202.4,766.5z"/>
			<path class="st8" d="M-64.9,567.3l-6.5-14.2c-1-2.2-0.4-2-2.8-2.5c-1.4-0.3-2.9-0.6-4.4-0.9c-1.5-0.3-2.9-0.6-4.4-0.9
				c-1.9-0.4-3.5-0.2-5.2-0.6c-0.9,3-0.9,4.4,3.2,7.8c1.1,0.9,1.7,1,2.4,2.3c-0.7,0.3-1.2,0.6-1.9,1.1c-1,0.6-1.1,0.4-1.4,1.7
				C-84.1,563.7-69,566.8-64.9,567.3L-64.9,567.3z"/>
			<path class="st9" d="M-189.3,416l2.8,3.9c1,1.4,1.8,2.4,2.9,3.8c2.1,2.7,1.6,3.2,3.6,3.2c7.5-0.3,9.8-1.4,18.3,0.7
				c3.8,0.9,6.7,2.3,10.1,3.3l-15.1-11.4c-0.6-0.5-3.3-2.6-3.9-2.7c-1.2-0.4-4.8-0.3-6.3-0.4C-179.5,416.2-187.9,415.4-189.3,416z"
				/>
			<path class="st10" d="M-88.1,548.3c1.8,0.4,3.3,0.2,5.2,0.6c1.5,0.3,2.9,0.6,4.4,0.9s3,0.6,4.4,0.9c2.4,0.5,1.7,0.3,2.8,2.5
				l6.5,14.2l0.8,0.3c0-3.5-4.8-18.2-6.4-21.8l-16.3-1.5L-88.1,548.3L-88.1,548.3z"/>
			<path class="st11" d="M-103.8,557.7c1.3,0.3,2,0.8,3.3,0.9c0.7-0.7,1.3-1.8,1.6-2.8l-3.2-0.9L-103.8,557.7z"/>
			<path class="st12" d="M-148.4,546.1l2.3,0.7l1.9-5.4c-1.1,0.7-1.1,1.4-2,2.1C-147.3,544.4-147.8,545-148.4,546.1z"/>
		</g>
	</g>
</g>
</svg>
