<?xml version="1.0" encoding="UTF-8"?>
<!DOCTYPE svg PUBLIC "-//W3C//DTD SVG 1.1//EN" "http://www.w3.org/Graphics/SVG/1.1/DTD/svg11.dtd">
<!-- Creator: CorelDRAW X7 -->
<svg xmlns="http://www.w3.org/2000/svg" xml:space="preserve" width="287px" height="549px" version="1.1" style="shape-rendering:geometricPrecision; text-rendering:geometricPrecision; image-rendering:optimizeQuality; fill-rule:evenodd; clip-rule:evenodd"
viewBox="0 0 18649962 20044133"
 xmlns:xlink="http://www.w3.org/1999/xlink">
 <defs>
  <style type="text/css">
   <![CDATA[
    .fil5 {fill:#0D0E0E}
    .fil0 {fill:#101010}
    .fil38 {fill:#121415}
    .fil3 {fill:#1E2021}
    .fil29 {fill:#222222}
    .fil36 {fill:#242424}
    .fil13 {fill:#262626}
    .fil14 {fill:#333333}
    .fil37 {fill:#385827}
    .fil34 {fill:#393939}
    .fil11 {fill:#414141}
    .fil17 {fill:#53271F}
    .fil32 {fill:#58883E}
    .fil19 {fill:#5F2D23}
    .fil31 {fill:#643026}
    .fil1 {fill:#665A55}
    .fil30 {fill:#6A3126}
    .fil39 {fill:#71645E}
    .fil24 {fill:#757575}
    .fil26 {fill:#7D6D67}
    .fil21 {fill:#81716A}
    .fil40 {fill:#85746D}
    .fil9 {fill:#883F31}
    .fil16 {fill:#884032}
    .fil28 {fill:#95827B}
    .fil2 {fill:#979695}
    .fil23 {fill:#98847D}
    .fil22 {fill:#A18C84}
    .fil35 {fill:#A28C84}
    .fil15 {fill:#A64835}
    .fil25 {fill:#AA958C}
    .fil12 {fill:#B39C93}
    .fil6 {fill:#B59E95}
    .fil7 {fill:#B7A198}
    .fil20 {fill:#BDA59B}
    .fil18 {fill:#C9AFA5}
    .fil4 {fill:#CDB3A8}
    .fil33 {fill:#D1B6AC}
    .fil27 {fill:#D7D6D6}
    .fil8 {fill:#DAC3B9}
    .fil10 {fill:#DCC4BA}
   ]]>
  </style>
 </defs>
 <g id="Layer_x0020_1">
  <metadata id="CorelCorpID_0Corel-Layer"/>
  <g id="_494065316128">
   <g>
    <path class="fil0" d="M17259297 7856845c-32714,-995 -64771,2961 -95306,11280 29462,-13521 61442,-28883 95306,-45627l0 34347zm-12045090 9558195l920259 0 3190235 1738267 0 289803 1656472 -343308 0 -151000 -1002059 0 0 -1636014 2556279 -3742390 74128 0 0 -1153740 -91012 -56612c-90103,-54704 -187588,-112726 -285787,-174381 -90524,-56839 -205230,-111363 -278078,-177211l-68046 -790748c-9691,-129802 -22106,-136464 39346,-231818 293044,-454662 588783,-978157 875638,-1442069 76128,-123117 146768,-236475 221041,-358211 63660,-104339 160816,-255426 214003,-358239l557025 201274 412088 109754c76998,29333 60622,8363 77206,63738 156023,42389 62746,91895 312192,-131610 44443,-39820 106031,-88620 141305,-131623 270479,-329772 281942,-146058 335718,-500429 16908,-111397 34845,-402740 84031,-479259 -8854,-88398 7739,-207018 32328,-293430 17106,-144899 38936,-288097 59128,-429305 23932,-167357 -6719,-121784 121146,-238403 27183,-24791 48786,-37115 77234,-47965l233273 -200177 -80606 -31694 141812 -3884c24207,-54351 353867,-296416 421435,-354757 81244,-70147 389828,-304202 433054,-363833l-832596 -326584c-80708,28777 -211042,-45960 -306705,-81408 -69969,-25926 -254673,-77983 -301063,-121368l166913 -491766c-18821,16468 -42603,32457 -62197,56099 -22062,26632 -27322,44337 -49674,70409 -233737,272652 -128455,161323 -429904,80659l-7223644 -2534212c-28206,106629 -299111,574435 -372214,732734l-1100680 2079976 0 357244 6253792 2131337 -182270 720445 741536 272938c-147087,188752 -192501,143744 -419749,480810l-274416 407146c-18691,28019 -23517,38545 -47318,71751l-62196 65409c-8309,45998 -473632,740604 -565199,875450 -128826,189723 -101880,123252 -65490,380760 40095,283720 75248,567730 114827,851378 26767,191830 117436,681166 108136,846282l-1429431 -645771 -711880 720710c-601300,-103977 -1264940,-153362 -1858867,-248851 -286344,-46038 -309836,131618 -517602,142034 -35999,44423 -2919175,1409258 -3202905,1535606 -538958,240007 -1068173,515389 -1607310,761502 -208350,95113 -1056231,563112 -1403398,739720l-156565 231118 -796926 0 0 5 1175256 0 658868 1006097 169381 -177849 1636014 0 0 122711 1574688 0 0 306753zm11830358 -14404757l-2788 -2492 2788 -126 0 2618zm-11227185 3051563l21164 -92 -21164 42549 0 -42457z"/>
    <g>
     <g>
      <polygon class="fil1" points="16438865,7395261 16429884,7376479 16408870,7375832 16394943,7394841 "/>
      <path class="fil1" d="M14489184 8951471l-24347 -8183 -5608 23574c319,1184 4154,5729 5874,8811l24081 -24202z"/>
     </g>
     <g>
      <path class="fil2" d="M15874018 7927645l29507 -9498 24632 -11217 -302251 -210428c-30970,-2473 -21792,-8308 -19029,25512 43540,37704 87210,69906 130146,107349 41776,36429 87470,75070 136995,98282z"/>
      <path class="fil2" d="M16141681 7629427l6410 37796 23396 5275c-15034,-74210 6372,-19873 43467,-34312 2884,-1121 9884,-1435 12367,-2194 2478,-763 8410,-231 12458,-1256 -38820,-46327 -25115,-38428 -99301,-55123l1203 49814z"/>
     </g>
     <g>
      <path class="fil3" d="M16018289 8076954c42042,8062 30675,14695 24009,-29820 -50003,-39748 -113808,-80616 -168280,-119489 -49525,-23212 -95219,-61853 -136995,-98282 -42936,-37443 -86606,-69645 -130146,-107349 7382,50418 21106,95253 47462,138367 31966,52288 50105,45139 106543,80674 91804,57800 160309,92340 257407,135899z"/>
      <path class="fil3" d="M16438865 7395261c-32536,76959 6246,14227 -46767,76413l-32458 21854 209703 -25202c53921,-60476 43521,-2980 61849,-86958 -70182,44655 -110528,27414 -201308,-4889l8981 18782z"/>
     </g>
     <g>
      <path class="fil4" d="M15623848 7521532c115861,-46501 246378,-94011 369640,-119851 86562,-18149 347592,-20197 400687,44453l-2077 25540c53013,-62186 14231,546 46767,-76413l-43922 -420 -32100 -12657 -2580 -27888c-305540,-130942 -694639,32975 -736415,167236z"/>
      <path class="fil4" d="M15446027 6950111c174299,-7627 114412,-178438 521486,-48824 56457,17975 115160,50723 160734,26733l-448947 -178086 -233273 200177z"/>
     </g>
     <g>
      <path class="fil5" d="M13456798 8682833c50206,-66515 165125,-259238 199785,-343091l-145995 -46998 -202162 344510c36834,27294 90137,49395 148372,45579z"/>
      <path class="fil5" d="M13855026 8832345c57158,-45661 188883,-273165 216525,-347583 -58308,-23289 -79544,-38704 -154029,-42226 -44970,125344 -143783,226993 -189849,354341l127353 35468z"/>
     </g>
     <g>
      <path class="fil6" d="M13456798 8682833c-58235,3816 -111538,-18285 -148372,-45579l202162 -344510 145995 46998c-34660,83853 -149579,276576 -199785,343091zm-300150 5545c47139,38328 249557,110417 319975,99644 70075,-10719 69655,-39858 103185,-102368 221568,-413040 340216,-389079 -127614,-518476 -20342,95891 -238379,406243 -295546,521200z"/>
      <path class="fil6" d="M13855026 8832345l-127353 -35468c46066,-127348 144879,-228997 189849,-354341 74485,3522 95721,18937 154029,42226 -27642,74418 -159367,301922 -216525,347583zm-249842 -3657c51651,55201 223993,121078 299507,103088 66042,-15734 122383,-152449 168589,-229828 33530,-56148 140807,-198597 114639,-259876 -22173,-51906 -217805,-103600 -281769,-102755 -70964,19014 -298932,404987 -300966,489371z"/>
     </g>
     <g>
      <path class="fil7" d="M14489184 8951471l-24081 24202c-1720,-3082 -5555,-7627 -5874,-8811l5608 -23574 141401 -374200c-127686,-76534 -151077,47964 -213036,112426l-134918 154768c-30120,35805 1420,15415 -42646,42694 33351,-106571 133053,-311521 135957,-406948l-95186 -28613 -191216 568552 113629 33545c54158,-43342 209882,-260287 271687,-304768l-135744 357196 127875 38805c51530,-83818 243866,-294077 317589,-360998 41394,-37578 70992,-81393 98310,-124909l-83253 -30143c-68263,48636 -235765,256967 -286102,330776z"/>
      <path class="fil7" d="M12647394 8318550l-25105 23226c-35284,-68582 -198,-25893 2594,-31284l137961 -385016 -111097 -35463c-12053,156961 -148474,407195 -178859,573595l103996 31984c16985,-15120 56110,-48525 75708,-71886l203046 -227703 -135005 359269c113277,20443 107712,59515 181593,-35014 46767,-59834 56554,-86929 117784,-138720 64843,-54844 72771,-89528 125286,-147860 57413,-63780 86722,-48114 120377,-138971l-75282 -24178c-78935,44298 -112079,116899 -171772,173617 -84017,79834 -24714,56801 -153797,167599l147652 -400011 -106354 -31893c-17154,34777 -31497,62442 -57399,94519 -65269,80828 -129281,135304 -201327,244190z"/>
      <path class="fil7" d="M13392631 8142188l-82945 -27680c-44331,36047 -301869,455676 -324308,524519l100263 28110 306990 -524949z"/>
     </g>
     <g>
      <path class="fil8" d="M17018382 8449898c-1343,-14652 -4473,-29236 -8811,-43733 -36999,-40052 -63747,-89035 -77210,-142444 -14217,7941 -22927,16004 367,90132 13038,41496 25806,84770 41066,128068l412426 1226748c44834,175409 -245349,117996 -182825,430928l102171 13337c291396,-48481 108474,-56664 326361,30511 -5222,-264561 44936,-245315 -75234,-492877l-425426 -953534c-1903,-4913 -7178,-18874 -9328,-23608 -45535,-100098 -78558,-120977 -103557,-263528z"/>
      <path class="fil8" d="M16171487 7672498c42878,30425 28419,52042 18173,109842l-3410 85283c27603,-24333 49703,-40951 70249,-57255l8936 -85920c-642,-5125 -1946,-10415 -2763,-15265 -898,-5323 -6628,-28216 -7937,-33738l-14956 -40709c-4048,1025 -9980,493 -12458,1256 -2483,759 -9483,1073 -12367,2194 -37095,14439 -58501,-39898 -43467,34312z"/>
     </g>
     <g>
      <path class="fil9" d="M13912111 9062216c-20434,111055 -85480,281479 -126749,390509 -73689,194699 -46347,261939 -74824,455449l-224997 3035529 -46153 645704c34105,-51883 27472,-65317 39375,-147068 7985,-54868 12739,-94968 21420,-151014 13845,-89422 12164,-215858 55191,-292102l0 -67510c7362,-167110 363597,-2533685 419489,-2911856 29902,-202298 215582,-638192 308082,-817722 -16584,-55375 -208,-34405 -77206,-63738l-293628 -76181z"/>
      <path class="fil9" d="M15445873 11744791c3319,2859 7579,3744 8942,9632l25694 28584c58767,62524 73438,52433 123634,98470 106364,97552 395833,315840 433425,444604 109161,-44023 204419,-70635 201158,-197293 -1705,-85732 16835,-148454 -107745,-280856 -37279,-39617 -129928,-71906 -186081,-101663l-61182 -50979 36217 -3609c-11807,-9816 -99678,-15159 -150720,-32936 133928,-15545 280005,7841 413151,-1976 62829,-4627 241784,-89939 330293,-111721 57549,-47868 79732,-123285 106973,-195805 34921,-92992 17815,-127561 -34217,-205124l-119923 69665c-534505,253673 -287310,258948 -1027300,318337 -15729,75230 -52675,152324 7681,212670z"/>
      <path class="fil9" d="M15679300 6749934l448947 178086c59602,31883 119962,80510 182564,122460 140454,94108 434662,266349 429966,447551 -8854,78340 -55061,150072 1841,180776l125126 -84813c50148,-31159 82215,-49834 129006,-81500 8425,-133073 -74152,-304135 -143913,-373510 -239220,-237886 -794873,-329709 -1112331,-424628l-141812 3884 80606 31694z"/>
     </g>
     <g>
      <path class="fil10" d="M14261245 10606794c270933,22724 682649,142962 914279,172062 72611,9120 212500,-47853 291194,-69519 150270,-41371 120406,-39328 174472,-183521 140054,-373519 144150,-476526 246490,-860344 50897,-190887 110329,-380852 161951,-572513 128397,-476699 130638,-327211 22593,-542808 -135971,-271329 -116952,-239156 -332211,-400881 -73360,-55114 -139556,-104455 -214553,-160052l-226611 -164034c8149,284759 -10391,627555 -23019,914067 -10410,236268 17541,296952 -80403,403103 -78635,85219 -136126,176936 -233249,244195 -125749,87074 -312617,359891 -405305,429913 -391596,295836 -272136,385857 -295628,790332z"/>
      <path class="fil10" d="M16728440 6048010l-240567 211404c-87809,76664 -386862,313193 -425730,377461 234204,10555 619950,197187 806292,367568 47366,43317 144256,165637 161193,225828 59689,-43771 107214,-154376 105905,-206321l-157097 -759232c-52500,-220582 -149328,-862440 -219326,-1013228 -34796,99055 -70085,304324 -92596,419050 -52776,268952 -24482,160458 61926,377470z"/>
      <path class="fil10" d="M15331007 11413927c222143,-16449 426363,-79389 643317,-108707 -2618,-4569 -7014,-16067 -8468,-13347 -1435,2696 -6275,-9797 -8188,-13313 -71119,-130673 -22608,-174420 -11488,-311850 -75722,-9208 -160449,6869 -235949,11859 -116561,7705 -143241,-5241 -194278,86485 -40671,73090 -165299,270861 -184946,348873z"/>
     </g>
     <g>
      <path class="fil11" d="M10146572 17969945c-33743,-33448 -49578,-69800 -81326,-107025l-384658 -406548c-1904,-6468 -7372,-6458 -10623,-9589l213616 1786000c-213380,-88524 -780926,-493873 -966630,-557170l349152 842504 4228969 526016c-244731,-94982 -2241087,-855996 -2299877,-907096l-758265 -843948c-37274,-37095 -52766,-77147 -89248,-116127l-146194 -160444c-23651,-23424 -31288,-23158 -54916,-46573z"/>
      <path class="fil11" d="M10140553 16519654c-3082,-83026 -24134,-21337 42173,-87142 11714,-11628 48737,-44897 62196,-55476 172100,-135315 184709,-175434 354747,-361153 132826,-145068 211978,-198665 243504,-233345 76693,-84355 142536,-156067 219355,-241021 41897,-46341 72051,-79108 113721,-124996l125943 -112339c63244,-46743 164559,-173507 222862,-237369 67365,-73795 158140,-188289 228215,-249219 64133,-55766 157840,-101726 229514,-240693l-3294269 2339909c-66298,50095 -157000,125020 -231172,145430 -9337,264876 -189515,946955 -164187,1125717 119281,82519 940988,464241 1141107,563847 3966,-218631 -60906,-1227332 -81509,-1491140 -15666,-200544 -39801,-166845 97142,-264132l650118 -438512c50284,-32414 23855,5758 40540,-38366z"/>
     </g>
     <g>
      <path class="fil12" d="M14282945 9202135c-92500,179530 -278180,615424 -308082,817722 -55892,378171 -412127,2744746 -419489,2911856 71795,-26559 335066,136073 405639,166763l613555 289962c118291,52925 94992,67384 210809,14072 135523,-62380 286735,-147812 417726,-191675 11806,-247258 -31593,-550258 -26878,-803617 3690,-198211 -28980,-177351 -113601,-291198 -18033,-24260 -24371,-34651 -47539,-54853 -212003,-184854 -117189,-188651 25671,-431870l344834 -524031c37177,-56076 153294,-220892 165859,-267045 -98649,3884 -213399,97789 -319936,117344 -85239,15647 -284774,-56355 -382524,-76007 -196342,-39477 -564967,-109016 -748792,-174120 -10536,-95533 -45583,-590222 5058,-658423 132923,-179013 194148,-178907 249958,-244581l228070 -266924c68292,-71563 51046,-15922 137527,-117242 59766,-70027 218983,-271697 282729,-314295 58182,-38882 158541,-124252 179874,-197679 11168,-38438 -17478,-909458 -27222,-947080 -49186,76519 -67123,367862 -84031,479259 -53776,354371 -65239,170657 -335718,500429 -35274,43003 -96862,91803 -141305,131623 -249446,223505 -156169,173999 -312192,131610z"/>
      <path class="fil12" d="M13088341 12711373c14686,-30550 -15367,-49583 90847,5246 45081,23270 55588,32728 97611,60099 54017,35183 131749,77911 191694,81259 2464,21854 5526,22240 3430,39935 -4290,36217 -10734,43511 -10840,43796l24458 1995 224997 -3035529 1435 -76949c-51549,40709 -51375,74032 -65283,149889 -11632,63428 -23077,118986 -37579,183849 -90267,403682 -482443,2445708 -520968,2498556 -78568,-47356 -18473,-234350 2295,-428174 17303,-161507 37882,-337477 60080,-498684 45196,-328294 91886,-675920 124208,-1004528 32352,-328927 86964,-660694 119513,-986354 11169,-111760 14922,-120407 74264,-200182l325148 -516954 -557025 -201274c-53187,102813 -150343,253900 -214003,358239 -74273,121736 -144913,235094 -221041,358211 -286855,463912 -582594,987407 -875638,1442069 -61452,95354 -49037,102016 -39346,231818l68046 790748c72848,65848 187554,120372 278078,177211 98199,61655 195684,119677 285787,174381l430595 267832c45974,30414 88514,50626 139237,83495z"/>
     </g>
     <g>
      <path class="fil13" d="M4130735 17405934c-85307,-112117 -343776,-223036 -460217,-322448 -21362,-40598 35492,-210950 -41289,-299932l-517374 -623700c-22932,-28805 -26777,-40824 -50853,-68650l-107543 -123348c29333,-47491 1466431,-832403 1641169,-929535 133363,-74128 275856,-147647 406846,-223490l1242496 -664583c31352,-63273 91442,-173936 113335,-245214l-5365796 2363884c11251,135948 150468,737508 209626,847132l2929600 289884z"/>
      <path class="fil13" d="M16039308 7588023l101170 -8410c74186,16695 60481,8796 99301,55123l14956 40709c53371,10985 20560,-18250 30821,-76104 14226,-80219 14931,-38114 39472,-98446l-162067 -5656c-159343,-11691 -302822,18115 -435822,62659 90997,2657 78123,-9193 155140,23570 80389,34192 71041,32902 157029,6555z"/>
     </g>
     <g>
      <path class="fil14" d="M4130735 17405934l2071531 202598c-96900,-389992 -412774,-1396969 -547006,-1829057 -85234,-274363 -63626,-186158 38545,-426338l550165 -1202889 -1242496 664583c-130990,75843 -273483,149362 -406846,223490 -174738,97132 -1611836,882044 -1641169,929535l107543 123348c24076,27826 27921,39845 50853,68650l517374 623700c76781,88982 19927,259334 41289,299932 116441,99412 374910,210331 460217,322448z"/>
      <path class="fil14" d="M11966508 14213271c95924,-58598 455763,-255118 507254,-310995 30970,-33608 240413,-483062 262885,-538615 -78751,19695 -94900,74244 -155816,100349 -60022,25724 -178038,5913 -244915,3522 -243233,-8705 -1462479,-101326 -1514342,-77781l-1858688 2489122c-47008,60984 -77485,112393 -125430,174492l3129052 -1840094z"/>
      <path class="fil14" d="M10128191 12983895c10787,28019 54414,86495 70959,110035 30932,43994 53308,67950 81205,110538 -44360,197457 -788380,1545258 -856213,1754343 70215,-70934 114025,-139435 173303,-217553 382456,-504017 781424,-1074187 1173005,-1558432 305140,7512 662153,40342 970785,67070 278745,24139 667650,97649 891623,-62954l-1935898 -109514c-440985,-13448 -420677,-81760 -568769,-93533z"/>
     </g>
     <g>
      <path class="fil15" d="M8266358 8295609c39216,16009 79138,34467 118924,51380l1214859 523591c112846,47685 397282,188269 493655,204708l-489597 3437212c45713,-19763 63466,-29917 96866,-71360 37144,-46090 17613,-34226 61858,-73394 152362,-134879 54989,-20748 212389,-196588 45776,-51138 152502,-110416 215713,-186008 199607,83137 1138625,638486 1258867,682045 295,-102431 -136068,-846199 -163193,-1019677 -26656,-170472 -54809,-343433 -83234,-510683 -59974,-352926 -78070,-278866 40424,-441242l492641 -700397c31105,-42820 30613,-49163 61418,-91833 43255,-59906 159039,-201612 180598,-260117 28251,-76674 71341,-424682 75742,-514148 -73326,-16048 -484294,-205892 -509984,-261556 -70533,-152826 -96180,-437672 -177346,-593720l-3237909 -57931 137309 79718z"/>
      <path class="fil15" d="M12528045 576600c62675,76983 2432452,1278953 2892954,1535742 592464,330375 413296,185593 972882,577768 215567,151077 442410,343100 650915,465888l-64055 -65408c-37076,-35525 -33342,-28729 -63979,-55216l-911806 -774216c-32144,-29675 -37907,-26134 -69616,-50167 -37521,-28444 -28903,-29719 -61225,-57544 -28444,-24492 -39467,-28024 -66268,-53491l-1043329 -882025c-240122,-186467 -602589,-511969 -848605,-719039 -345631,-290918 -241866,-261528 -634462,-137865 -246442,77630 -508800,145551 -753406,215573z"/>
      <path class="fil15" d="M16024951 3699667c-158068,91258 -640274,453970 -831167,584290l-543900 376200c-68060,17478 -858798,-262450 -1071520,-303352l1040449 585498c117300,58746 235345,144396 348447,184332 19889,-20246 39332,-33685 58665,-56042 155565,-179922 206525,-177129 273421,-255209 42955,-50139 34023,-78447 101842,-95615l-2763 553358c49114,17821 46134,12324 100335,51076l526191 -1624536z"/>
      <path class="fil15" d="M16708508 3622490c3125,3971 7145,9010 9647,11705 2454,2643 6676,8145 9734,11242l524534 367534c50370,32356 86900,65645 138560,100035 43612,29038 75491,49839 130407,90992 302120,226423 361186,171004 454801,466275l307889 1053753 184346 47114 -744903 -2239555c-41926,53916 -53302,242775 -101987,300918l-913028 -210013z"/>
      <path class="fil15" d="M15627901 5536824c165714,-216109 753120,-1734943 851571,-1997886 -77543,36380 -154691,83152 -231678,128860 -116958,69442 -121006,42550 -163908,192520l-455985 1676506z"/>
     </g>
     <g>
      <path class="fil16" d="M8129049 8215891l3237909 57931c81166,156048 106813,440894 177346,593720 25690,55664 436658,245508 509984,261556 -4401,89466 -47491,437474 -75742,514148 -21559,58505 -137343,200211 -180598,260117 -30805,42670 -30313,49013 -61418,91833l-492641 700397c-118494,162376 -100398,88316 -40424,441242 28425,167250 56578,340211 83234,510683 27125,173478 163488,917246 163193,1019677 -120242,-43559 -1059260,-598908 -1258867,-682045 -63211,75592 -169937,134870 -215713,186008 -157400,175840 -60027,61709 -212389,196588 -44245,39168 -24714,27304 -61858,73394 -33400,41443 -51153,51597 -96866,71360l489597 -3437212c-96373,-16439 -380809,-157023 -493655,-204708l-1214859 -523591c-39786,-16913 -79708,-35371 -118924,-51380l-137309 -79718zm-961945 4673486c207766,-10416 231258,-188072 517602,-142034 593927,95489 1257567,144874 1858867,248851l711880 -720710 1429431 645771c9300,-165116 -81369,-654452 -108136,-846282 -39579,-283648 -74732,-567658 -114827,-851378 -36390,-257508 -63336,-191037 65490,-380760 91567,-134846 556890,-829452 565199,-875450 39641,-178395 113451,-364380 158053,-547697 16652,-68433 67834,-215177 42076,-278001 -17497,-42680 -150024,-116146 -212365,-144377 -379026,-171627 -352964,-144468 -376601,-319835 -14038,-104122 -64114,-544248 -109451,-592178 -53892,-48269 -2971048,-160280 -3448283,-195975l-1175923 -61379 -3125623 5781444 3322611 -720010z"/>
      <path class="fil16" d="M15498760 5324203c-54201,-38752 -51221,-33255 -100335,-51076l2763 -553358c-67819,17168 -58887,45476 -101842,95615 -66896,78080 -117856,75287 -273421,255209 -19333,22357 -38776,35796 -58665,56042 -113102,-39936 -231147,-125586 -348447,-184332l-1040449 -585498c212722,40902 1003460,320830 1071520,303352l543900 -376200c190893,-130320 673099,-493032 831167,-584290l-526191 1624536zm1209748 -1701713l913028 210013c48685,-58143 60061,-247002 101987,-300918l744903 2239555 -184346 -47114 -307889 -1053753c-93615,-295271 -152681,-239852 -454801,-466275 -54916,-41153 -86795,-61954 -130407,-90992 -51660,-34390 -88190,-67679 -138560,-100035l-524534 -367534c-3058,-3097 -7280,-8599 -9734,-11242 -2502,-2695 -6522,-7734 -9647,-11705zm-1080607 1914334l455985 -1676506c42902,-149970 46950,-123078 163908,-192520 76987,-45708 154135,-92480 231678,-128860 -98451,262943 -685857,1781777 -851571,1997886zm-3099856 -4960224c244606,-70022 506964,-137943 753406,-215573 392596,-123663 288831,-153053 634462,137865 246016,207070 608483,532572 848605,719039l1043329 882025c26801,25467 37824,28999 66268,53491 32322,27825 23704,29100 61225,57544 31709,24033 37472,20492 69616,50167l911806 774216c30637,26487 26903,19691 63979,55216l64055 65408c-208505,-122788 -435348,-314811 -650915,-465888 -559586,-392175 -380418,-247393 -972882,-577768 -460502,-256789 -2830279,-1458759 -2892954,-1535742zm2251724 4605207c301449,80664 196167,191993 429904,-80659 22352,-26072 27612,-43777 49674,-70409 19594,-23642 43376,-39631 62197,-56099l-166913 491766c46390,43385 231094,95442 301063,121368 95663,35448 225997,110185 306705,81408 -26777,-57249 170149,-455429 196418,-517930 48617,-115687 174937,-456429 227418,-534388 35468,-105494 86736,-214066 130445,-317700 36057,-85490 84650,-259141 143049,-288594 -14565,-45728 18381,-100422 37733,-143831 22815,-51182 46636,-102707 64229,-155768 20681,-49825 6508,-25502 40429,-47641l1138176 901067c28863,21777 37433,22516 59510,43259 67307,63245 332187,888653 389378,1041416 60264,160956 59771,113687 6271,274015 -145657,436507 -336381,911502 -460077,1350821l438575 82572c21767,-135440 121199,-381418 168347,-521283 57815,-171497 111306,-339810 169091,-511085 185719,-550489 197858,-334061 -43989,-1020870 -84480,-239895 -660075,-1961110 -709793,-2030011 -225089,51830 -80471,88398 -341424,-4275 -290662,-103233 -159164,-90316 -299333,-193965l-584493 -523200c-26057,-27579 -37047,-32062 -66747,-52926l-453980 -398339c-44767,-35434 -20941,-22459 -58085,-60646l-787177 -678702c-37429,-38699 -23642,-24226 -65061,-54395l-339167 -291227c-46400,-32559 -25719,-19796 -62989,-55602l-599125 -492307c-178854,-148826 -546977,-472439 -760086,-466787l-2432110 1002875c-168637,70486 -124677,16942 -201186,173202 -224457,458411 -587551,1119848 -763183,1529129l1200642 615526c405103,208737 796129,401601 1209134,614444l2426530 1245771z"/>
      <path class="fil16" d="M10960782 5726340c79858,-81539 23864,-60873 169633,-188434 43245,-37844 70345,-85992 107614,-131585 45564,-55747 75119,-60539 120518,-117344l231524 -248315 -383673 1202033 -534394 -188221c-2067,-5821 -8125,-4763 -11888,-7580l300666 -320554zm-1915401 320554c40076,-80775 111267,-184385 161560,-268455 197829,-330689 998668,-1635888 1096757,-1840307l-472661 -157647c-40405,96118 -128300,224206 -186898,322285l-1208269 2012615c-49177,82157 -69162,89736 -91002,161806 233818,51390 1109852,383070 1450039,489163 146648,45738 165981,98292 251113,-11714l368017 -407311 638535 228761 -175101 562030 531297 180400 820799 -2730887c-155140,-12729 -428116,-157381 -593251,-188781 -29492,5777 -280117,302009 -341288,366485 -46598,49110 -75486,53800 -120895,100113 -79717,81302 -148836,165139 -226548,250919l-174106 183922c-146188,110214 -263542,267349 -400107,417919 -51752,57065 -65998,53708 -119977,101180 -67660,59500 -400282,426793 -443464,493419 -125720,-23121 -279459,-88215 -402644,-129151 -50699,-16850 -318733,-103567 -361906,-136764z"/>
      <path class="fil16" d="M7100372 5375245c44868,-101857 159275,-273634 219621,-376060l225597 -381002c126783,24545 569498,178023 666553,247600 2483,121996 -106606,250079 -165164,349428 -256779,435634 -168178,433875 -573986,293711 -95543,-32999 -294454,-85476 -372621,-133677zm649564 -1079583c46491,-112402 124309,-216650 190732,-328806 55583,-93852 147624,-232577 183956,-324555 108272,24666 239291,80785 349254,118040 409533,138744 389427,85505 174463,454314 -43201,74113 -123479,231577 -192047,269556 -114320,63322 -558083,-158086 -706358,-188549zm709740 436899c149077,20081 299444,16922 417484,-67457 155816,-111388 343003,-434885 426280,-596763 261267,-507848 -269996,-565291 -658273,-701465 -209119,-73341 -556721,-215114 -754792,-254920 -142787,201661 -581232,963249 -745381,1235366l-743150 1239443c3556,2840 8667,6053 11324,7627l770573 273634c426605,150787 828964,348138 1110365,-116281 187912,-310135 549620,-755203 242263,-963466 -14130,-9575 -23845,-13807 -43892,-28270 -21130,-15236 -19193,-14328 -32801,-27448z"/>
      <path class="fil16" d="M14482049 6575191c57704,-145884 470511,-781457 586976,-988426 -45462,-43898 -437353,-162657 -464159,-168309l-1312797 2178837c-44912,74587 -150058,231621 -179255,307753l481969 162261c30579,-131962 599783,-964505 647371,-1124915 90011,17840 319352,79490 346375,158927 42298,124339 -201960,993248 -204032,1240530l542214 179868c23043,-249132 78698,-538915 118566,-787882 44255,-276330 148169,-567252 -12560,-753783 255547,-36370 332695,-133580 509824,-284850l598565 -492202c74544,-65509 157966,-121097 214269,-188472l-529862 -174975c-105055,119745 -190970,168980 -300131,275296l-460149 392658c-54032,51859 -82273,84568 -161574,128132 -125165,68751 -301372,1183 -421610,-60448z"/>
      <path class="fil16" d="M14215971 5792333c49713,-135952 191950,-293696 243084,-422165 -82799,-53467 -554818,-197192 -689345,-244355 -693997,-243310 -808631,-248624 -1173314,361322 -116156,194283 -228626,381702 -345134,575116l-525118 872658c-283875,478265 236446,583788 556272,684470 216307,68100 476076,184796 689755,233457l253306 -427663c-151329,3169 -914850,-249871 -980369,-327632 -30835,-72654 289715,-555542 344418,-646177 125320,-207640 244780,-406590 371206,-617216 264952,-441396 201283,-436363 539142,-318323 122624,42839 244571,87736 367640,126445 266503,83823 278923,123653 348457,150063z"/>
     </g>
     <g>
      <path class="fil17" d="M7167104 12889377l-3322611 720010 3125623 -5781444 1175923 61379c477235,35695 3394391,147706 3448283,195975 45337,47930 95413,488056 109451,592178 23637,175367 -2425,148208 376601,319835 62341,28231 194868,101697 212365,144377 25758,62824 -25424,209568 -42076,278001 -44602,183317 -118412,369302 -158053,547697l62196 -65409c23801,-33206 28627,-43732 47318,-71751l274416 -407146c227248,-337066 272662,-292058 419749,-480810l-741536 -272938 182270 -720445 -6336658 -2159577c-17546,30815 -39941,58505 -66167,82021 -81920,160449 -242659,488110 -275170,551610l-1620020 3186292c-202621,402253 -457680,864967 -647433,1278297 -189911,413677 -470071,864662 -645587,1279861 -175313,414702 -462748,865132 -645429,1279857 -120218,272924 -482433,942641 -646877,1278727 -100828,206075 -621448,1148068 -643588,1267224 95084,-24376 1293528,-691098 1546795,-806713 539137,-246113 1068352,-521495 1607310,-761502 283730,-126348 3166906,-1491183 3202905,-1535606z"/>
      <path class="fil17" d="M14779769 5181807l-2426530 -1245771c-413005,-212843 -804031,-405707 -1209134,-614444l-1200642 -615526c175632,-409281 538726,-1070718 763183,-1529129 76509,-156260 32549,-102716 201186,-173202l2432110 -1002875c-464546,-10328 -1020542,75012 -1487899,124928 -471202,50327 -959495,107108 -1423364,174449l-1053879 141266c-106701,22651 -1089051,709952 -1226196,802017l-1441074 961935c-138319,90963 -103248,69814 -136054,255639 -54872,310806 -525741,2938604 -533180,3084126l1145615 -2164891c73103,-158299 344008,-626105 372214,-732734l7223644 2534212z"/>
     </g>
     <path class="fil0" d="M16923631 8157111c-710,8482 -1082,16931 -1130,25337 -135,-8290 270,-16753 1130,-25337z"/>
     <path class="fil0" d="M17080317 7904037c-59341,35936 -107117,90533 -134034,157434 14497,-44076 32105,-87746 42167,-126213 27753,-106069 57830,-213838 87370,-319337 45906,-163961 216857,-437382 216022,-580687 10226,-640443 -11681,-1285528 -13430,-1925642 -584,-213235 25492,-308145 -71085,-420914 -45104,-52670 -61143,-82113 -104025,-134672l-419822 -534326c-57308,-75843 -74148,-81519 -92992,-149768 -63409,34246 -95094,85442 -130759,140658 -14565,-45728 18381,-100422 37733,-143831 22815,-51182 46636,-102707 64229,-155768 58448,32245 259509,327385 299493,386122 48554,71327 92099,129692 140464,200617 43511,63805 93166,129136 136807,186873 218660,289285 199839,235456 206646,454473l49235 1959931c10777,303652 -12802,279750 -122363,537157 -65757,154488 -138851,317801 -194646,469071l2990 -1178z"/>
     <path class="fil0" d="M7100372 5375245c78167,48201 277078,100678 372621,133677 405808,140164 317207,141923 573986,-293711 58558,-99349 167647,-227432 165164,-349428 -97055,-69577 -539770,-223055 -666553,-247600l-225597 381002c-60346,102426 -174753,274203 -219621,376060z"/>
     <path class="fil0" d="M7749936 4295662c148275,30463 592038,251871 706358,188549 68568,-37979 148846,-195443 192047,-269556 214964,-368809 235070,-315570 -174463,-454314 -109963,-37255 -240982,-93374 -349254,-118040 -36332,91978 -128373,230703 -183956,324555 -66423,112156 -144241,216404 -190732,328806z"/>
     <path class="fil0" d="M10660116 6046894c3763,2817 9821,1759 11888,7580l534394 188221 383673 -1202033 -231524 248315c-45399,56805 -74954,61597 -120518,117344 -37269,45593 -64369,93741 -107614,131585 -145769,127561 -89775,106895 -169633,188434l-300666 320554z"/>
     <path class="fil18" d="M15331007 11413927c19647,-78012 144275,-275783 184946,-348873 51037,-91726 77717,-78780 194278,-86485 75500,-4990 160227,-21067 235949,-11859 -11120,137430 -59631,181177 11488,311850 1913,3516 6753,16009 8188,13313 1454,-2720 5850,8778 8468,13347 -216954,29318 -421174,92258 -643317,108707zm1615276 -3352456c-7807,19410 -13879,39835 -17946,61158 -2198,11531 -3754,23038 -4706,34482 -860,8584 -1265,17047 -1130,25337 -159,27801 3251,55071 9860,81273 -14217,7941 -22927,16004 367,90132 13038,41496 25806,84770 41066,128068l412426 1226748c44834,175409 -245349,117996 -182825,430928l102171 13337c291396,-48481 108474,-56664 326361,30511 -5222,-264561 44936,-245315 -75234,-492877l-425426 -953534c-1903,-4913 -7178,-18874 -9328,-23608 -45535,-100098 -78558,-120977 -103557,-263528 82587,75872 350974,723638 434889,883996 77138,147415 140213,289787 212795,435116 71288,142744 45182,441357 -57491,524509 -33868,-20690 -33400,-21511 -64210,-47341 -63061,-52873 -19193,-44733 -252055,-12609 -127430,17580 -663312,83935 -741874,111383 -91659,32023 -224660,95427 -267808,190342l130566 26927 -57037 44732 310777 -2207c19261,20695 10923,-18053 13928,36984 -19275,144169 -138286,378833 -95447,502389l-119923 69665c-534505,253673 -287310,258948 -1027300,318337 -15729,75230 -52675,152324 7681,212670 52887,231219 243799,358172 170279,527350 -45220,104059 -69925,51698 -133846,29574 -6053,264440 -10922,669243 71075,902265l8377 59133c-134392,55274 -384118,172391 -516534,245895 -87282,48453 -173410,83263 -264426,127779 -135097,66075 -132233,30622 -254876,-46298l-970548 -591266 0 -67510c71795,-26559 335066,136073 405639,166763l613555 289962c118291,52925 94992,67384 210809,14072 135523,-62380 286735,-147812 417726,-191675 11806,-247258 -31593,-550258 -26878,-803617 3690,-198211 -28980,-177351 -113601,-291198 -18033,-24260 -24371,-34651 -47539,-54853 -212003,-184854 -117189,-188651 25671,-431870l344834 -524031c37177,-56076 153294,-220892 165859,-267045 -98649,3884 -213399,97789 -319936,117344 -85239,15647 -284774,-56355 -382524,-76007 -196342,-39477 -564967,-109016 -748792,-174120 -10536,-95533 -45583,-590222 5058,-658423 132923,-179013 194148,-178907 249958,-244581l228070 -266924c68292,-71563 51046,-15922 137527,-117242 59766,-70027 218983,-271697 282729,-314295 58182,-38882 158541,-124252 179874,-197679 11168,-38438 -17478,-909458 -27222,-947080 -8854,-88398 7739,-207018 32328,-293430 23352,-44042 5386,34240 32226,-44231 24888,43545 -5903,4285 33081,43004 47887,47554 146087,95030 192361,148623 107634,124662 97567,87268 136937,135527 93036,114049 21009,72297 240046,203602 -35965,-102412 -11285,-27125 -85935,-102108l-142266 -181748c-78012,-99330 -160183,-194167 -18719,-295159l48994 24038 -24941 69147c2140,4493 4521,9304 6106,16787 1420,6691 14690,10217 19497,13236 -30970,-2473 -21792,-8308 -19029,25512 7382,50418 21106,95253 47462,138367 31966,52288 50105,45139 106543,80674 91804,57800 160309,92340 257407,135899l27849 9251 -3840 -39071c-50003,-39748 -113808,-80616 -168280,-119489l29507 -9498 122682 79283 24912 -75263c-69370,5260 -70254,12149 -115344,-25922l119629 -3589c72992,3371 30593,20289 91489,-17734 -7917,-40472 22043,734 -90958,-20391 16956,-20183 3551,-5034 25038,-25883l16555 -15676c1531,-1449 5671,-4860 8299,-7512l83833 -23120 -3410 85283c27603,-24333 49703,-40951 70249,-57255 -16488,241476 -143489,273581 -247215,349714 185845,140000 242456,301652 214172,544098 -29685,254421 -196452,1021551 -270411,1264142 -48095,157753 -143324,440396 -165391,587759 20275,-68568 81089,-141619 127856,-192279l201882 50960c-12797,-130837 -52699,-284233 -55370,-391558 2811,-67775 26376,-117759 56554,-178970 213200,-9690 340810,80669 524412,99920 -178569,-169130 559185,57138 664302,-172396 68670,-149946 -137923,-536634 -202756,-702899 -125721,-322410 -292793,-682041 -399316,-1016334 -61592,-193308 -11458,-224123 75684,-353163 -18792,-30733 10381,-5101 -38284,-20555l125126 -84813c50148,-31159 82215,-49834 129006,-81500 8425,-133073 -74152,-304135 -143913,-373510 -239220,-237886 -794873,-329709 -1112331,-424628 24207,-54351 353867,-296416 421435,-354757 81244,-70147 389828,-304202 433054,-363833l-832596 -326584c-26777,-57249 170149,-455429 196418,-517930 48617,-115687 174937,-456429 227418,-534388l114808 -23391c26052,66940 49351,63911 100601,99997l220582 204776c172806,167381 253996,131894 293811,357297l375805 1779691c835,143305 -170116,416726 -216022,580687 -29540,105499 -59617,213268 -87370,319337 -10062,38467 -27670,82137 -42167,126213zm-2685038 2545323c23492,-404475 -95968,-494496 295628,-790332 92688,-70022 279556,-342839 405305,-429913 97123,-67259 154614,-158976 233249,-244195 97944,-106151 69993,-166835 80403,-403103 12628,-286512 31168,-629308 23019,-914067l226611 164034c74997,55597 141193,104938 214553,160052 215259,161725 196240,129552 332211,400881 108045,215597 105804,66109 -22593,542808 -51622,191661 -111054,381626 -161951,572513 -102340,383818 -106436,486825 -246490,860344 -54066,144193 -24202,142150 -174472,183521 -78694,21666 -218583,78639 -291194,69519 -231630,-29100 -643346,-149338 -914279,-172062zm2467195 -4558784c-86408,-217012 -114702,-108518 -61926,-377470 22511,-114726 57800,-319995 92596,-419050 69998,150788 166826,792646 219326,1013228l157097 759232c1309,51945 -46216,162550 -105905,206321 -16937,-60191 -113827,-182511 -161193,-225828 -186342,-170381 -572088,-357013 -806292,-367568 38868,-64268 337921,-300797 425730,-377461l240567 -211404z"/>
     <path class="fil19" d="M16561691 3710971c58448,32245 259509,327385 299493,386122 48554,71327 92099,129692 140464,200617 43511,63805 93166,129136 136807,186873 218660,289285 199839,235456 206646,454473l49235 1959931c10777,303652 -12802,279750 -122363,537157 -65757,154488 -138851,317801 -194646,469071l2990 -1178c25941,-15715 54095,-27859 83674,-35912 302734,-138836 871556,-472289 1009962,-511645l-438575 -82572c123696,-439319 314420,-914314 460077,-1350821 53500,-160328 53993,-113059 -6271,-274015 -57191,-152763 -322071,-978171 -389378,-1041416 -22077,-20743 -30647,-21482 -59510,-43259l-1138176 -901067c-33921,22139 -19748,-2184 -40429,47641z"/>
     <path class="fil20" d="M16214152 7478379l-51191 16860 162067 5656c-24541,60332 -25246,18227 -39472,98446 -10261,57854 22550,87089 -30821,76104 1309,5522 7039,28415 7937,33738 817,4850 2121,10140 2763,15265l-8936 85920c-16488,241476 -143489,273581 -247215,349714 185845,140000 242456,301652 214172,544098 -29685,254421 -196452,1021551 -270411,1264142 -48095,157753 -143324,440396 -165391,587759 20275,-68568 81089,-141619 127856,-192279l201882 50960c-12797,-130837 -52699,-284233 -55370,-391558l-74128 107147 39530 -346545c77369,-41134 182719,-99315 260247,-145111 111523,-65877 135827,-114489 241046,-47100 -3561,2271 -9019,4058 -11623,5029l-24516 9188c-97992,32342 70505,-22593 -26690,7565 -95683,29685 -77650,38202 -160275,93847 -63800,42965 -148478,79732 -187037,137010 213200,-9690 340810,80669 524412,99920 -178569,-169130 559185,57138 664302,-172396 68670,-149946 -137923,-536634 -202756,-702899 -125721,-322410 -292793,-682041 -399316,-1016334 -61592,-193308 -11458,-224123 75684,-353163 -18792,-30733 10381,-5101 -38284,-20555 -56902,-30704 -10695,-102436 -1841,-180776 -73393,4874 -117933,-12850 -171434,-29705l-209703 25202 32458 -21854 2077 -25540 -180023 32245z"/>
     <path class="fil21" d="M16459729 4010570c-58399,29453 -106992,203104 -143049,288594 -43709,103634 -94977,212206 -130445,317700l114808 -23391c26052,66940 49351,63911 100601,99997l220582 204776c172806,167381 253996,131894 293811,357297l375805 1779691c10226,-640443 -11681,-1285528 -13430,-1925642 -584,-213235 25492,-308145 -71085,-420914 -45104,-52670 -61143,-82113 -104025,-134672l-419822 -534326c-57308,-75843 -74148,-81519 -92992,-149768 -63409,34246 -95094,85442 -130759,140658z"/>
     <path class="fil22" d="M15446027 6950111c-28448,10850 -50051,23174 -77234,47965 -127865,116619 -97214,71046 -121146,238403 -20192,141208 -42022,284406 -59128,429305 23352,-44042 5386,34240 32226,-44231 24888,43545 -5903,4285 33081,43004 47887,47554 146087,95030 192361,148623 107634,124662 97567,87268 136937,135527 93036,114049 21009,72297 240046,203602 -35965,-102412 -11285,-27125 -85935,-102108l-142266 -181748c-78012,-99330 -160183,-194167 -18719,-295159l48994 24038c49911,9743 348037,31013 380987,57302l26642 -40269 6435 -26342c-85988,26347 -76640,27637 -157029,-6555 -77017,-32763 -64143,-20913 -155140,-23570 133000,-44544 276479,-74350 435822,-62659l51191 -16860c-162149,-64940 -436957,60534 -625550,63520l35246 -20367c41776,-134261 430875,-298178 736415,-167236l53675 -19627 -5068 41163 21014 647c90780,32303 131126,49544 201308,4889 -18328,83978 -7928,26482 -61849,86958 53501,16855 98041,34579 171434,29705 4696,-181202 -289512,-353443 -429966,-447551 -62602,-41950 -122962,-90577 -182564,-122460 -45574,23990 -104277,-8758 -160734,-26733 -407074,-129614 -347187,41197 -521486,48824z"/>
     <path class="fil23" d="M13710538 9908174c28477,-193510 1135,-260750 74824,-455449 41269,-109030 106315,-279454 126749,-390509l-118460 -33573 -325148 516954c-59342,79775 -63095,88422 -74264,200182 -32549,325660 -87161,657427 -119513,986354 -32322,328608 -79012,676234 -124208,1004528 -22198,161207 -42777,337177 -60080,498684 -20768,193824 -80863,380818 -2295,428174 38525,-52848 430701,-2094874 520968,-2498556 14502,-64863 25947,-120421 37579,-183849 13908,-75857 13734,-109180 65283,-149889l-1435 76949z"/>
     <path class="fil24" d="M11982783 14576901c-71674,138967 -165381,184927 -229514,240693 -70075,60930 -160850,175424 -228215,249219 -58303,63862 -159618,190626 -222862,237369l-125943 112339c-41670,45888 -71824,78655 -113721,124996 -76819,84954 -142662,156666 -219355,241021 -31526,34680 -110678,88277 -243504,233345 -170038,185719 -182647,225838 -354747,361153 -13459,10579 -50482,43848 -62196,55476 -66307,65805 -45255,4116 -42173,87142l1425244 -985934c332085,-233987 180738,-92084 354819,-429165 57177,-110716 120759,-245465 170004,-358616 51950,-119378 125793,-247721 165661,-364070l-273498 195032z"/>
     <path class="fil25" d="M15553381 13203980c57796,-84708 93959,-442628 116673,-573011 20951,-120252 78640,-129899 152729,-185235 51771,-38661 142247,-114446 214785,-119653 -37592,-128764 -327061,-347052 -433425,-444604 -50196,-46037 -64867,-35946 -123634,-98470l-25694 -28584c-1363,-5888 -5623,-6773 -8942,-9632 52887,231219 243799,358172 170279,527350 -45220,104059 -69925,51698 -133846,29574 -6053,264440 -10922,669243 71075,902265z"/>
     <path class="fil26" d="M16680862 10641730c46186,-56370 9618,-39250 103228,-63312 260513,-66949 623371,-125996 824485,-284899 -33868,-20690 -33400,-21511 -64210,-47341 -63061,-52873 -19193,-44733 -252055,-12609 -127430,17580 -663312,83935 -741874,111383 -91659,32023 -224660,95427 -267808,190342l130566 26927 -57037 44732 310777 -2207c19261,20695 10923,-18053 13928,36984z"/>
     <path class="fil27" d="M15625906 7696502l302251 210428 7618 -10685 119629 -3589c-49984,-78191 -86326,-102190 -49173,-238022 -32950,-26289 -331076,-47559 -380987,-57302l-24941 69147c2140,4493 4521,9304 6106,16787 1420,6691 14690,10217 19497,13236z"/>
     <path class="fil28" d="M16062022 10023204c2811,-67775 26376,-117759 56554,-178970 38559,-57278 123237,-94045 187037,-137010 82625,-55645 64592,-64162 160275,-93847 97195,-30158 -71302,24777 26690,-7565l24516 -9188c2604,-971 8062,-2758 11623,-5029 -105219,-67389 -129523,-18777 -241046,47100 -77528,45796 -182878,103977 -260247,145111l-39530 346545 74128 -107147z"/>
     <path class="fil29" d="M15623848 7521532l-35246 20367c188593,-2986 463401,-128460 625550,-63520l180023 -32245c-53095,-64650 -314125,-62602 -400687,-44453 -123262,25840 -253779,73350 -369640,119851z"/>
     <path class="fil30" d="M15919935 11691681c73857,-1444 250605,-5173 298164,26661 70423,-15661 110958,-35037 174096,-66746 68770,-34550 97702,-41492 120464,-106548 -88509,21782 -267464,107094 -330293,111721 -133146,9817 -279223,-13569 -413151,1976 51042,17777 138913,23120 150720,32936z"/>
     <path class="fil31" d="M16238726 12128788c17314,-46327 23444,-174521 14497,-235862 -10473,-71800 -66089,-79152 -95900,-151981l-273605 -45655 61182 50979c56153,29757 148802,62046 186081,101663 124580,132402 106040,195124 107745,280856z"/>
     <path class="fil32" d="M16006231 7654634c-37153,135832 -811,159831 49173,238022 72992,3371 30593,20289 91489,-17734 -7917,-40472 22043,734 -90958,-20391 16956,-20183 3551,-5034 25038,-25883l16555 -15676c1531,-1449 5671,-4860 8299,-7512 -18850,-15753 -23018,-20332 -35632,-31260 9338,-64862 11338,-110494 77896,-106977l-6410 -37796c-9111,39 -67114,2343 -71534,1783 -55259,-6976 -11415,19589 -37274,-16845l-26642 40269z"/>
     <path class="fil33" d="M13461083 12941708c106,-285 6550,-7579 10840,-43796 2096,-17695 -966,-18081 -3430,-39935 -59945,-3348 -137677,-46076 -191694,-81259 -42023,-27371 -52530,-36829 -97611,-60099 -106214,-54829 -76161,-35796 -90847,-5246 62032,42737 118750,71514 190395,115165 63167,38477 118020,75679 182347,115170z"/>
     <path class="fil34" d="M16105827 7805460l83833 -23120c10246,-57800 24705,-79417 -18173,-109842l-23396 -5275c-66558,-3517 -68558,42115 -77896,106977 12614,10928 16782,15507 35632,31260z"/>
     <path class="fil35" d="M16157323 11740945l60776 -22603c-47559,-31834 -224307,-28105 -298164,-26661l-36217 3609 273605 45655z"/>
     <path class="fil36" d="M15935775 7896245l-7618 10685 -24632 11217 122682 79283 24912 -75263c-69370,5260 -70254,12149 -115344,-25922z"/>
     <path class="fil37" d="M16039308 7588023l-6435 26342c25859,36434 -17985,9869 37274,16845 4420,560 62423,-1744 71534,-1783l-1203 -49814 -101170 8410z"/>
     <polygon class="fil38" points="16360263,7354296 16362843,7382184 16394943,7394841 16408870,7375832 16413938,7334669 "/>
     <path class="fil39" d="M12647394 8318550l-22511 -8058c-2792,5391 -37878,-37298 -2594,31284l25105 -23226z"/>
     <path class="fil40" d="M16018289 8076954l27849 9251 -3840 -39071c6666,44515 18033,37882 -24009,29820z"/>
    </g>
   </g>
   <g>
    <path class="fil0" d="M17259297 7856845c-32714,-995 -64771,2961 -95306,11280 29462,-13521 61442,-28883 95306,-45627l0 34347zm-12045090 9558195l920259 0 3190235 1738267 0 289803 1656472 -343308 0 -151000 -1002059 0 0 -1636014 2556279 -3742390 74128 0 0 -1153740 -91012 -56612c-90103,-54704 -187588,-112726 -285787,-174381 -90524,-56839 -205230,-111363 -278078,-177211l-68046 -790748c-9691,-129802 -22106,-136464 39346,-231818 293044,-454662 588783,-978157 875638,-1442069 76128,-123117 146768,-236475 221041,-358211 63660,-104339 160816,-255426 214003,-358239l557025 201274 412088 109754c76998,29333 60622,8363 77206,63738 156023,42389 62746,91895 312192,-131610 44443,-39820 106031,-88620 141305,-131623 270479,-329772 281942,-146058 335718,-500429 16908,-111397 34845,-402740 84031,-479259 -8854,-88398 7739,-207018 32328,-293430 17106,-144899 38936,-288097 59128,-429305 23932,-167357 -6719,-121784 121146,-238403 27183,-24791 48786,-37115 77234,-47965l233273 -200177 -80606 -31694 141812 -3884c24207,-54351 353867,-296416 421435,-354757 81244,-70147 389828,-304202 433054,-363833l-832596 -326584c-80708,28777 -211042,-45960 -306705,-81408 -69969,-25926 -254673,-77983 -301063,-121368l166913 -491766c-18821,16468 -42603,32457 -62197,56099 -22062,26632 -27322,44337 -49674,70409 -233737,272652 -128455,161323 -429904,80659l-7223644 -2534212c-28206,106629 -299111,574435 -372214,732734l-1100680 2079976 0 357244 6253792 2131337 -182270 720445 741536 272938c-147087,188752 -192501,143744 -419749,480810l-274416 407146c-18691,28019 -23517,38545 -47318,71751l-62196 65409c-8309,45998 -473632,740604 -565199,875450 -128826,189723 -101880,123252 -65490,380760 40095,283720 75248,567730 114827,851378 26767,191830 117436,681166 108136,846282l-1429431 -645771 -711880 720710c-601300,-103977 -1264940,-153362 -1858867,-248851 -286344,-46038 -309836,131618 -517602,142034 -35999,44423 -2919175,1409258 -3202905,1535606 -538958,240007 -1068173,515389 -1607310,761502 -208350,95113 -1056231,563112 -1403398,739720l-156565 231118 -796926 0 0 5 1175256 0 658868 1006097 169381 -177849 1636014 0 0 122711 1574688 0 0 306753zm11830358 -14404757l-2788 -2492 2788 -126 0 2618zm-11227185 3051563l21164 -92 -21164 42549 0 -42457z"/>
    <g>
     <g>
      <polygon class="fil1" points="16438865,7395261 16429884,7376479 16408870,7375832 16394943,7394841 "/>
      <path class="fil1" d="M14489184 8951471l-24347 -8183 -5608 23574c319,1184 4154,5729 5874,8811l24081 -24202z"/>
     </g>
     <g>
      <path class="fil2" d="M15874018 7927645l29507 -9498 24632 -11217 -302251 -210428c-30970,-2473 -21792,-8308 -19029,25512 43540,37704 87210,69906 130146,107349 41776,36429 87470,75070 136995,98282z"/>
      <path class="fil2" d="M16141681 7629427l6410 37796 23396 5275c-15034,-74210 6372,-19873 43467,-34312 2884,-1121 9884,-1435 12367,-2194 2478,-763 8410,-231 12458,-1256 -38820,-46327 -25115,-38428 -99301,-55123l1203 49814z"/>
     </g>
     <g>
      <path class="fil3" d="M16018289 8076954c42042,8062 30675,14695 24009,-29820 -50003,-39748 -113808,-80616 -168280,-119489 -49525,-23212 -95219,-61853 -136995,-98282 -42936,-37443 -86606,-69645 -130146,-107349 7382,50418 21106,95253 47462,138367 31966,52288 50105,45139 106543,80674 91804,57800 160309,92340 257407,135899z"/>
      <path class="fil3" d="M16438865 7395261c-32536,76959 6246,14227 -46767,76413l-32458 21854 209703 -25202c53921,-60476 43521,-2980 61849,-86958 -70182,44655 -110528,27414 -201308,-4889l8981 18782z"/>
     </g>
     <g>
      <path class="fil4" d="M15623848 7521532c115861,-46501 246378,-94011 369640,-119851 86562,-18149 347592,-20197 400687,44453l-2077 25540c53013,-62186 14231,546 46767,-76413l-43922 -420 -32100 -12657 -2580 -27888c-305540,-130942 -694639,32975 -736415,167236z"/>
      <path class="fil4" d="M15446027 6950111c174299,-7627 114412,-178438 521486,-48824 56457,17975 115160,50723 160734,26733l-448947 -178086 -233273 200177z"/>
     </g>
     <g>
      <path class="fil5" d="M13456798 8682833c50206,-66515 165125,-259238 199785,-343091l-145995 -46998 -202162 344510c36834,27294 90137,49395 148372,45579z"/>
      <path class="fil5" d="M13855026 8832345c57158,-45661 188883,-273165 216525,-347583 -58308,-23289 -79544,-38704 -154029,-42226 -44970,125344 -143783,226993 -189849,354341l127353 35468z"/>
     </g>
     <g>
      <path class="fil6" d="M13456798 8682833c-58235,3816 -111538,-18285 -148372,-45579l202162 -344510 145995 46998c-34660,83853 -149579,276576 -199785,343091zm-300150 5545c47139,38328 249557,110417 319975,99644 70075,-10719 69655,-39858 103185,-102368 221568,-413040 340216,-389079 -127614,-518476 -20342,95891 -238379,406243 -295546,521200z"/>
      <path class="fil6" d="M13855026 8832345l-127353 -35468c46066,-127348 144879,-228997 189849,-354341 74485,3522 95721,18937 154029,42226 -27642,74418 -159367,301922 -216525,347583zm-249842 -3657c51651,55201 223993,121078 299507,103088 66042,-15734 122383,-152449 168589,-229828 33530,-56148 140807,-198597 114639,-259876 -22173,-51906 -217805,-103600 -281769,-102755 -70964,19014 -298932,404987 -300966,489371z"/>
     </g>
     <g>
      <path class="fil7" d="M14489184 8951471l-24081 24202c-1720,-3082 -5555,-7627 -5874,-8811l5608 -23574 141401 -374200c-127686,-76534 -151077,47964 -213036,112426l-134918 154768c-30120,35805 1420,15415 -42646,42694 33351,-106571 133053,-311521 135957,-406948l-95186 -28613 -191216 568552 113629 33545c54158,-43342 209882,-260287 271687,-304768l-135744 357196 127875 38805c51530,-83818 243866,-294077 317589,-360998 41394,-37578 70992,-81393 98310,-124909l-83253 -30143c-68263,48636 -235765,256967 -286102,330776z"/>
      <path class="fil7" d="M12647394 8318550l-25105 23226c-35284,-68582 -198,-25893 2594,-31284l137961 -385016 -111097 -35463c-12053,156961 -148474,407195 -178859,573595l103996 31984c16985,-15120 56110,-48525 75708,-71886l203046 -227703 -135005 359269c113277,20443 107712,59515 181593,-35014 46767,-59834 56554,-86929 117784,-138720 64843,-54844 72771,-89528 125286,-147860 57413,-63780 86722,-48114 120377,-138971l-75282 -24178c-78935,44298 -112079,116899 -171772,173617 -84017,79834 -24714,56801 -153797,167599l147652 -400011 -106354 -31893c-17154,34777 -31497,62442 -57399,94519 -65269,80828 -129281,135304 -201327,244190z"/>
      <path class="fil7" d="M13392631 8142188l-82945 -27680c-44331,36047 -301869,455676 -324308,524519l100263 28110 306990 -524949z"/>
     </g>
     <g>
      <path class="fil8" d="M17018382 8449898c-1343,-14652 -4473,-29236 -8811,-43733 -36999,-40052 -63747,-89035 -77210,-142444 -14217,7941 -22927,16004 367,90132 13038,41496 25806,84770 41066,128068l412426 1226748c44834,175409 -245349,117996 -182825,430928l102171 13337c291396,-48481 108474,-56664 326361,30511 -5222,-264561 44936,-245315 -75234,-492877l-425426 -953534c-1903,-4913 -7178,-18874 -9328,-23608 -45535,-100098 -78558,-120977 -103557,-263528z"/>
      <path class="fil8" d="M16171487 7672498c42878,30425 28419,52042 18173,109842l-3410 85283c27603,-24333 49703,-40951 70249,-57255l8936 -85920c-642,-5125 -1946,-10415 -2763,-15265 -898,-5323 -6628,-28216 -7937,-33738l-14956 -40709c-4048,1025 -9980,493 -12458,1256 -2483,759 -9483,1073 -12367,2194 -37095,14439 -58501,-39898 -43467,34312z"/>
     </g>
     <g>
      <path class="fil9" d="M13912111 9062216c-20434,111055 -85480,281479 -126749,390509 -73689,194699 -46347,261939 -74824,455449l-224997 3035529 -46153 645704c34105,-51883 27472,-65317 39375,-147068 7985,-54868 12739,-94968 21420,-151014 13845,-89422 12164,-215858 55191,-292102l0 -67510c7362,-167110 363597,-2533685 419489,-2911856 29902,-202298 215582,-638192 308082,-817722 -16584,-55375 -208,-34405 -77206,-63738l-293628 -76181z"/>
      <path class="fil9" d="M15445873 11744791c3319,2859 7579,3744 8942,9632l25694 28584c58767,62524 73438,52433 123634,98470 106364,97552 395833,315840 433425,444604 109161,-44023 204419,-70635 201158,-197293 -1705,-85732 16835,-148454 -107745,-280856 -37279,-39617 -129928,-71906 -186081,-101663l-61182 -50979 36217 -3609c-11807,-9816 -99678,-15159 -150720,-32936 133928,-15545 280005,7841 413151,-1976 62829,-4627 241784,-89939 330293,-111721 57549,-47868 79732,-123285 106973,-195805 34921,-92992 17815,-127561 -34217,-205124l-119923 69665c-534505,253673 -287310,258948 -1027300,318337 -15729,75230 -52675,152324 7681,212670z"/>
      <path class="fil9" d="M15679300 6749934l448947 178086c59602,31883 119962,80510 182564,122460 140454,94108 434662,266349 429966,447551 -8854,78340 -55061,150072 1841,180776l125126 -84813c50148,-31159 82215,-49834 129006,-81500 8425,-133073 -74152,-304135 -143913,-373510 -239220,-237886 -794873,-329709 -1112331,-424628l-141812 3884 80606 31694z"/>
     </g>
     <g>
      <path class="fil10" d="M14261245 10606794c270933,22724 682649,142962 914279,172062 72611,9120 212500,-47853 291194,-69519 150270,-41371 120406,-39328 174472,-183521 140054,-373519 144150,-476526 246490,-860344 50897,-190887 110329,-380852 161951,-572513 128397,-476699 130638,-327211 22593,-542808 -135971,-271329 -116952,-239156 -332211,-400881 -73360,-55114 -139556,-104455 -214553,-160052l-226611 -164034c8149,284759 -10391,627555 -23019,914067 -10410,236268 17541,296952 -80403,403103 -78635,85219 -136126,176936 -233249,244195 -125749,87074 -312617,359891 -405305,429913 -391596,295836 -272136,385857 -295628,790332z"/>
      <path class="fil10" d="M16728440 6048010l-240567 211404c-87809,76664 -386862,313193 -425730,377461 234204,10555 619950,197187 806292,367568 47366,43317 144256,165637 161193,225828 59689,-43771 107214,-154376 105905,-206321l-157097 -759232c-52500,-220582 -149328,-862440 -219326,-1013228 -34796,99055 -70085,304324 -92596,419050 -52776,268952 -24482,160458 61926,377470z"/>
      <path class="fil10" d="M15331007 11413927c222143,-16449 426363,-79389 643317,-108707 -2618,-4569 -7014,-16067 -8468,-13347 -1435,2696 -6275,-9797 -8188,-13313 -71119,-130673 -22608,-174420 -11488,-311850 -75722,-9208 -160449,6869 -235949,11859 -116561,7705 -143241,-5241 -194278,86485 -40671,73090 -165299,270861 -184946,348873z"/>
     </g>
     <g>
      <path class="fil11" d="M10146572 17969945c-33743,-33448 -49578,-69800 -81326,-107025l-384658 -406548c-1904,-6468 -7372,-6458 -10623,-9589l213616 1786000c-213380,-88524 -780926,-493873 -966630,-557170l349152 842504 4228969 526016c-244731,-94982 -2241087,-855996 -2299877,-907096l-758265 -843948c-37274,-37095 -52766,-77147 -89248,-116127l-146194 -160444c-23651,-23424 -31288,-23158 -54916,-46573z"/>
      <path class="fil11" d="M10140553 16519654c-3082,-83026 -24134,-21337 42173,-87142 11714,-11628 48737,-44897 62196,-55476 172100,-135315 184709,-175434 354747,-361153 132826,-145068 211978,-198665 243504,-233345 76693,-84355 142536,-156067 219355,-241021 41897,-46341 72051,-79108 113721,-124996l125943 -112339c63244,-46743 164559,-173507 222862,-237369 67365,-73795 158140,-188289 228215,-249219 64133,-55766 157840,-101726 229514,-240693l-3294269 2339909c-66298,50095 -157000,125020 -231172,145430 -9337,264876 -189515,946955 -164187,1125717 119281,82519 940988,464241 1141107,563847 3966,-218631 -60906,-1227332 -81509,-1491140 -15666,-200544 -39801,-166845 97142,-264132l650118 -438512c50284,-32414 23855,5758 40540,-38366z"/>
     </g>
     <g>
      <path class="fil12" d="M14282945 9202135c-92500,179530 -278180,615424 -308082,817722 -55892,378171 -412127,2744746 -419489,2911856 71795,-26559 335066,136073 405639,166763l613555 289962c118291,52925 94992,67384 210809,14072 135523,-62380 286735,-147812 417726,-191675 11806,-247258 -31593,-550258 -26878,-803617 3690,-198211 -28980,-177351 -113601,-291198 -18033,-24260 -24371,-34651 -47539,-54853 -212003,-184854 -117189,-188651 25671,-431870l344834 -524031c37177,-56076 153294,-220892 165859,-267045 -98649,3884 -213399,97789 -319936,117344 -85239,15647 -284774,-56355 -382524,-76007 -196342,-39477 -564967,-109016 -748792,-174120 -10536,-95533 -45583,-590222 5058,-658423 132923,-179013 194148,-178907 249958,-244581l228070 -266924c68292,-71563 51046,-15922 137527,-117242 59766,-70027 218983,-271697 282729,-314295 58182,-38882 158541,-124252 179874,-197679 11168,-38438 -17478,-909458 -27222,-947080 -49186,76519 -67123,367862 -84031,479259 -53776,354371 -65239,170657 -335718,500429 -35274,43003 -96862,91803 -141305,131623 -249446,223505 -156169,173999 -312192,131610z"/>
      <path class="fil12" d="M13088341 12711373c14686,-30550 -15367,-49583 90847,5246 45081,23270 55588,32728 97611,60099 54017,35183 131749,77911 191694,81259 2464,21854 5526,22240 3430,39935 -4290,36217 -10734,43511 -10840,43796l24458 1995 224997 -3035529 1435 -76949c-51549,40709 -51375,74032 -65283,149889 -11632,63428 -23077,118986 -37579,183849 -90267,403682 -482443,2445708 -520968,2498556 -78568,-47356 -18473,-234350 2295,-428174 17303,-161507 37882,-337477 60080,-498684 45196,-328294 91886,-675920 124208,-1004528 32352,-328927 86964,-660694 119513,-986354 11169,-111760 14922,-120407 74264,-200182l325148 -516954 -557025 -201274c-53187,102813 -150343,253900 -214003,358239 -74273,121736 -144913,235094 -221041,358211 -286855,463912 -582594,987407 -875638,1442069 -61452,95354 -49037,102016 -39346,231818l68046 790748c72848,65848 187554,120372 278078,177211 98199,61655 195684,119677 285787,174381l430595 267832c45974,30414 88514,50626 139237,83495z"/>
     </g>
     <g>
      <path class="fil13" d="M4130735 17405934c-85307,-112117 -343776,-223036 -460217,-322448 -21362,-40598 35492,-210950 -41289,-299932l-517374 -623700c-22932,-28805 -26777,-40824 -50853,-68650l-107543 -123348c29333,-47491 1466431,-832403 1641169,-929535 133363,-74128 275856,-147647 406846,-223490l1242496 -664583c31352,-63273 91442,-173936 113335,-245214l-5365796 2363884c11251,135948 150468,737508 209626,847132l2929600 289884z"/>
      <path class="fil13" d="M16039308 7588023l101170 -8410c74186,16695 60481,8796 99301,55123l14956 40709c53371,10985 20560,-18250 30821,-76104 14226,-80219 14931,-38114 39472,-98446l-162067 -5656c-159343,-11691 -302822,18115 -435822,62659 90997,2657 78123,-9193 155140,23570 80389,34192 71041,32902 157029,6555z"/>
     </g>
     <g>
      <path class="fil14" d="M4130735 17405934l2071531 202598c-96900,-389992 -412774,-1396969 -547006,-1829057 -85234,-274363 -63626,-186158 38545,-426338l550165 -1202889 -1242496 664583c-130990,75843 -273483,149362 -406846,223490 -174738,97132 -1611836,882044 -1641169,929535l107543 123348c24076,27826 27921,39845 50853,68650l517374 623700c76781,88982 19927,259334 41289,299932 116441,99412 374910,210331 460217,322448z"/>
      <path class="fil14" d="M11966508 14213271c95924,-58598 455763,-255118 507254,-310995 30970,-33608 240413,-483062 262885,-538615 -78751,19695 -94900,74244 -155816,100349 -60022,25724 -178038,5913 -244915,3522 -243233,-8705 -1462479,-101326 -1514342,-77781l-1858688 2489122c-47008,60984 -77485,112393 -125430,174492l3129052 -1840094z"/>
      <path class="fil14" d="M10128191 12983895c10787,28019 54414,86495 70959,110035 30932,43994 53308,67950 81205,110538 -44360,197457 -788380,1545258 -856213,1754343 70215,-70934 114025,-139435 173303,-217553 382456,-504017 781424,-1074187 1173005,-1558432 305140,7512 662153,40342 970785,67070 278745,24139 667650,97649 891623,-62954l-1935898 -109514c-440985,-13448 -420677,-81760 -568769,-93533z"/>
     </g>
     <g>
      <path class="fil15" d="M8266358 8295609c39216,16009 79138,34467 118924,51380l1214859 523591c112846,47685 397282,188269 493655,204708l-489597 3437212c45713,-19763 63466,-29917 96866,-71360 37144,-46090 17613,-34226 61858,-73394 152362,-134879 54989,-20748 212389,-196588 45776,-51138 152502,-110416 215713,-186008 199607,83137 1138625,638486 1258867,682045 295,-102431 -136068,-846199 -163193,-1019677 -26656,-170472 -54809,-343433 -83234,-510683 -59974,-352926 -78070,-278866 40424,-441242l492641 -700397c31105,-42820 30613,-49163 61418,-91833 43255,-59906 159039,-201612 180598,-260117 28251,-76674 71341,-424682 75742,-514148 -73326,-16048 -484294,-205892 -509984,-261556 -70533,-152826 -96180,-437672 -177346,-593720l-3237909 -57931 137309 79718z"/>
      <path class="fil15" d="M12528045 576600c62675,76983 2432452,1278953 2892954,1535742 592464,330375 413296,185593 972882,577768 215567,151077 442410,343100 650915,465888l-64055 -65408c-37076,-35525 -33342,-28729 -63979,-55216l-911806 -774216c-32144,-29675 -37907,-26134 -69616,-50167 -37521,-28444 -28903,-29719 -61225,-57544 -28444,-24492 -39467,-28024 -66268,-53491l-1043329 -882025c-240122,-186467 -602589,-511969 -848605,-719039 -345631,-290918 -241866,-261528 -634462,-137865 -246442,77630 -508800,145551 -753406,215573z"/>
      <path class="fil15" d="M16024951 3699667c-158068,91258 -640274,453970 -831167,584290l-543900 376200c-68060,17478 -858798,-262450 -1071520,-303352l1040449 585498c117300,58746 235345,144396 348447,184332 19889,-20246 39332,-33685 58665,-56042 155565,-179922 206525,-177129 273421,-255209 42955,-50139 34023,-78447 101842,-95615l-2763 553358c49114,17821 46134,12324 100335,51076l526191 -1624536z"/>
      <path class="fil15" d="M16708508 3622490c3125,3971 7145,9010 9647,11705 2454,2643 6676,8145 9734,11242l524534 367534c50370,32356 86900,65645 138560,100035 43612,29038 75491,49839 130407,90992 302120,226423 361186,171004 454801,466275l307889 1053753 184346 47114 -744903 -2239555c-41926,53916 -53302,242775 -101987,300918l-913028 -210013z"/>
      <path class="fil15" d="M15627901 5536824c165714,-216109 753120,-1734943 851571,-1997886 -77543,36380 -154691,83152 -231678,128860 -116958,69442 -121006,42550 -163908,192520l-455985 1676506z"/>
     </g>
     <g>
      <path class="fil16" d="M8129049 8215891l3237909 57931c81166,156048 106813,440894 177346,593720 25690,55664 436658,245508 509984,261556 -4401,89466 -47491,437474 -75742,514148 -21559,58505 -137343,200211 -180598,260117 -30805,42670 -30313,49013 -61418,91833l-492641 700397c-118494,162376 -100398,88316 -40424,441242 28425,167250 56578,340211 83234,510683 27125,173478 163488,917246 163193,1019677 -120242,-43559 -1059260,-598908 -1258867,-682045 -63211,75592 -169937,134870 -215713,186008 -157400,175840 -60027,61709 -212389,196588 -44245,39168 -24714,27304 -61858,73394 -33400,41443 -51153,51597 -96866,71360l489597 -3437212c-96373,-16439 -380809,-157023 -493655,-204708l-1214859 -523591c-39786,-16913 -79708,-35371 -118924,-51380l-137309 -79718zm-961945 4673486c207766,-10416 231258,-188072 517602,-142034 593927,95489 1257567,144874 1858867,248851l711880 -720710 1429431 645771c9300,-165116 -81369,-654452 -108136,-846282 -39579,-283648 -74732,-567658 -114827,-851378 -36390,-257508 -63336,-191037 65490,-380760 91567,-134846 556890,-829452 565199,-875450 39641,-178395 113451,-364380 158053,-547697 16652,-68433 67834,-215177 42076,-278001 -17497,-42680 -150024,-116146 -212365,-144377 -379026,-171627 -352964,-144468 -376601,-319835 -14038,-104122 -64114,-544248 -109451,-592178 -53892,-48269 -2971048,-160280 -3448283,-195975l-1175923 -61379 -3125623 5781444 3322611 -720010z"/>
      <path class="fil16" d="M15498760 5324203c-54201,-38752 -51221,-33255 -100335,-51076l2763 -553358c-67819,17168 -58887,45476 -101842,95615 -66896,78080 -117856,75287 -273421,255209 -19333,22357 -38776,35796 -58665,56042 -113102,-39936 -231147,-125586 -348447,-184332l-1040449 -585498c212722,40902 1003460,320830 1071520,303352l543900 -376200c190893,-130320 673099,-493032 831167,-584290l-526191 1624536zm1209748 -1701713l913028 210013c48685,-58143 60061,-247002 101987,-300918l744903 2239555 -184346 -47114 -307889 -1053753c-93615,-295271 -152681,-239852 -454801,-466275 -54916,-41153 -86795,-61954 -130407,-90992 -51660,-34390 -88190,-67679 -138560,-100035l-524534 -367534c-3058,-3097 -7280,-8599 -9734,-11242 -2502,-2695 -6522,-7734 -9647,-11705zm-1080607 1914334l455985 -1676506c42902,-149970 46950,-123078 163908,-192520 76987,-45708 154135,-92480 231678,-128860 -98451,262943 -685857,1781777 -851571,1997886zm-3099856 -4960224c244606,-70022 506964,-137943 753406,-215573 392596,-123663 288831,-153053 634462,137865 246016,207070 608483,532572 848605,719039l1043329 882025c26801,25467 37824,28999 66268,53491 32322,27825 23704,29100 61225,57544 31709,24033 37472,20492 69616,50167l911806 774216c30637,26487 26903,19691 63979,55216l64055 65408c-208505,-122788 -435348,-314811 -650915,-465888 -559586,-392175 -380418,-247393 -972882,-577768 -460502,-256789 -2830279,-1458759 -2892954,-1535742zm2251724 4605207c301449,80664 196167,191993 429904,-80659 22352,-26072 27612,-43777 49674,-70409 19594,-23642 43376,-39631 62197,-56099l-166913 491766c46390,43385 231094,95442 301063,121368 95663,35448 225997,110185 306705,81408 -26777,-57249 170149,-455429 196418,-517930 48617,-115687 174937,-456429 227418,-534388 35468,-105494 86736,-214066 130445,-317700 36057,-85490 84650,-259141 143049,-288594 -14565,-45728 18381,-100422 37733,-143831 22815,-51182 46636,-102707 64229,-155768 20681,-49825 6508,-25502 40429,-47641l1138176 901067c28863,21777 37433,22516 59510,43259 67307,63245 332187,888653 389378,1041416 60264,160956 59771,113687 6271,274015 -145657,436507 -336381,911502 -460077,1350821l438575 82572c21767,-135440 121199,-381418 168347,-521283 57815,-171497 111306,-339810 169091,-511085 185719,-550489 197858,-334061 -43989,-1020870 -84480,-239895 -660075,-1961110 -709793,-2030011 -225089,51830 -80471,88398 -341424,-4275 -290662,-103233 -159164,-90316 -299333,-193965l-584493 -523200c-26057,-27579 -37047,-32062 -66747,-52926l-453980 -398339c-44767,-35434 -20941,-22459 -58085,-60646l-787177 -678702c-37429,-38699 -23642,-24226 -65061,-54395l-339167 -291227c-46400,-32559 -25719,-19796 -62989,-55602l-599125 -492307c-178854,-148826 -546977,-472439 -760086,-466787l-2432110 1002875c-168637,70486 -124677,16942 -201186,173202 -224457,458411 -587551,1119848 -763183,1529129l1200642 615526c405103,208737 796129,401601 1209134,614444l2426530 1245771z"/>
      <path class="fil16" d="M10960782 5726340c79858,-81539 23864,-60873 169633,-188434 43245,-37844 70345,-85992 107614,-131585 45564,-55747 75119,-60539 120518,-117344l231524 -248315 -383673 1202033 -534394 -188221c-2067,-5821 -8125,-4763 -11888,-7580l300666 -320554zm-1915401 320554c40076,-80775 111267,-184385 161560,-268455 197829,-330689 998668,-1635888 1096757,-1840307l-472661 -157647c-40405,96118 -128300,224206 -186898,322285l-1208269 2012615c-49177,82157 -69162,89736 -91002,161806 233818,51390 1109852,383070 1450039,489163 146648,45738 165981,98292 251113,-11714l368017 -407311 638535 228761 -175101 562030 531297 180400 820799 -2730887c-155140,-12729 -428116,-157381 -593251,-188781 -29492,5777 -280117,302009 -341288,366485 -46598,49110 -75486,53800 -120895,100113 -79717,81302 -148836,165139 -226548,250919l-174106 183922c-146188,110214 -263542,267349 -400107,417919 -51752,57065 -65998,53708 -119977,101180 -67660,59500 -400282,426793 -443464,493419 -125720,-23121 -279459,-88215 -402644,-129151 -50699,-16850 -318733,-103567 -361906,-136764z"/>
      <path class="fil16" d="M7100372 5375245c44868,-101857 159275,-273634 219621,-376060l225597 -381002c126783,24545 569498,178023 666553,247600 2483,121996 -106606,250079 -165164,349428 -256779,435634 -168178,433875 -573986,293711 -95543,-32999 -294454,-85476 -372621,-133677zm649564 -1079583c46491,-112402 124309,-216650 190732,-328806 55583,-93852 147624,-232577 183956,-324555 108272,24666 239291,80785 349254,118040 409533,138744 389427,85505 174463,454314 -43201,74113 -123479,231577 -192047,269556 -114320,63322 -558083,-158086 -706358,-188549zm709740 436899c149077,20081 299444,16922 417484,-67457 155816,-111388 343003,-434885 426280,-596763 261267,-507848 -269996,-565291 -658273,-701465 -209119,-73341 -556721,-215114 -754792,-254920 -142787,201661 -581232,963249 -745381,1235366l-743150 1239443c3556,2840 8667,6053 11324,7627l770573 273634c426605,150787 828964,348138 1110365,-116281 187912,-310135 549620,-755203 242263,-963466 -14130,-9575 -23845,-13807 -43892,-28270 -21130,-15236 -19193,-14328 -32801,-27448z"/>
      <path class="fil16" d="M14482049 6575191c57704,-145884 470511,-781457 586976,-988426 -45462,-43898 -437353,-162657 -464159,-168309l-1312797 2178837c-44912,74587 -150058,231621 -179255,307753l481969 162261c30579,-131962 599783,-964505 647371,-1124915 90011,17840 319352,79490 346375,158927 42298,124339 -201960,993248 -204032,1240530l542214 179868c23043,-249132 78698,-538915 118566,-787882 44255,-276330 148169,-567252 -12560,-753783 255547,-36370 332695,-133580 509824,-284850l598565 -492202c74544,-65509 157966,-121097 214269,-188472l-529862 -174975c-105055,119745 -190970,168980 -300131,275296l-460149 392658c-54032,51859 -82273,84568 -161574,128132 -125165,68751 -301372,1183 -421610,-60448z"/>
      <path class="fil16" d="M14215971 5792333c49713,-135952 191950,-293696 243084,-422165 -82799,-53467 -554818,-197192 -689345,-244355 -693997,-243310 -808631,-248624 -1173314,361322 -116156,194283 -228626,381702 -345134,575116l-525118 872658c-283875,478265 236446,583788 556272,684470 216307,68100 476076,184796 689755,233457l253306 -427663c-151329,3169 -914850,-249871 -980369,-327632 -30835,-72654 289715,-555542 344418,-646177 125320,-207640 244780,-406590 371206,-617216 264952,-441396 201283,-436363 539142,-318323 122624,42839 244571,87736 367640,126445 266503,83823 278923,123653 348457,150063z"/>
     </g>
     <g>
      <path class="fil17" d="M7167104 12889377l-3322611 720010 3125623 -5781444 1175923 61379c477235,35695 3394391,147706 3448283,195975 45337,47930 95413,488056 109451,592178 23637,175367 -2425,148208 376601,319835 62341,28231 194868,101697 212365,144377 25758,62824 -25424,209568 -42076,278001 -44602,183317 -118412,369302 -158053,547697l62196 -65409c23801,-33206 28627,-43732 47318,-71751l274416 -407146c227248,-337066 272662,-292058 419749,-480810l-741536 -272938 182270 -720445 -6336658 -2159577c-17546,30815 -39941,58505 -66167,82021 -81920,160449 -242659,488110 -275170,551610l-1620020 3186292c-202621,402253 -457680,864967 -647433,1278297 -189911,413677 -470071,864662 -645587,1279861 -175313,414702 -462748,865132 -645429,1279857 -120218,272924 -482433,942641 -646877,1278727 -100828,206075 -621448,1148068 -643588,1267224 95084,-24376 1293528,-691098 1546795,-806713 539137,-246113 1068352,-521495 1607310,-761502 283730,-126348 3166906,-1491183 3202905,-1535606z"/>
      <path class="fil17" d="M14779769 5181807l-2426530 -1245771c-413005,-212843 -804031,-405707 -1209134,-614444l-1200642 -615526c175632,-409281 538726,-1070718 763183,-1529129 76509,-156260 32549,-102716 201186,-173202l2432110 -1002875c-464546,-10328 -1020542,75012 -1487899,124928 -471202,50327 -959495,107108 -1423364,174449l-1053879 141266c-106701,22651 -1089051,709952 -1226196,802017l-1441074 961935c-138319,90963 -103248,69814 -136054,255639 -54872,310806 -525741,2938604 -533180,3084126l1145615 -2164891c73103,-158299 344008,-626105 372214,-732734l7223644 2534212z"/>
     </g>
     <path class="fil0" d="M16923631 8157111c-710,8482 -1082,16931 -1130,25337 -135,-8290 270,-16753 1130,-25337z"/>
     <path class="fil0" d="M17080317 7904037c-59341,35936 -107117,90533 -134034,157434 14497,-44076 32105,-87746 42167,-126213 27753,-106069 57830,-213838 87370,-319337 45906,-163961 216857,-437382 216022,-580687 10226,-640443 -11681,-1285528 -13430,-1925642 -584,-213235 25492,-308145 -71085,-420914 -45104,-52670 -61143,-82113 -104025,-134672l-419822 -534326c-57308,-75843 -74148,-81519 -92992,-149768 -63409,34246 -95094,85442 -130759,140658 -14565,-45728 18381,-100422 37733,-143831 22815,-51182 46636,-102707 64229,-155768 58448,32245 259509,327385 299493,386122 48554,71327 92099,129692 140464,200617 43511,63805 93166,129136 136807,186873 218660,289285 199839,235456 206646,454473l49235 1959931c10777,303652 -12802,279750 -122363,537157 -65757,154488 -138851,317801 -194646,469071l2990 -1178z"/>
     <path class="fil0" d="M7100372 5375245c78167,48201 277078,100678 372621,133677 405808,140164 317207,141923 573986,-293711 58558,-99349 167647,-227432 165164,-349428 -97055,-69577 -539770,-223055 -666553,-247600l-225597 381002c-60346,102426 -174753,274203 -219621,376060z"/>
     <path class="fil0" d="M7749936 4295662c148275,30463 592038,251871 706358,188549 68568,-37979 148846,-195443 192047,-269556 214964,-368809 235070,-315570 -174463,-454314 -109963,-37255 -240982,-93374 -349254,-118040 -36332,91978 -128373,230703 -183956,324555 -66423,112156 -144241,216404 -190732,328806z"/>
     <path class="fil0" d="M10660116 6046894c3763,2817 9821,1759 11888,7580l534394 188221 383673 -1202033 -231524 248315c-45399,56805 -74954,61597 -120518,117344 -37269,45593 -64369,93741 -107614,131585 -145769,127561 -89775,106895 -169633,188434l-300666 320554z"/>
     <path class="fil18" d="M15331007 11413927c19647,-78012 144275,-275783 184946,-348873 51037,-91726 77717,-78780 194278,-86485 75500,-4990 160227,-21067 235949,-11859 -11120,137430 -59631,181177 11488,311850 1913,3516 6753,16009 8188,13313 1454,-2720 5850,8778 8468,13347 -216954,29318 -421174,92258 -643317,108707zm1615276 -3352456c-7807,19410 -13879,39835 -17946,61158 -2198,11531 -3754,23038 -4706,34482 -860,8584 -1265,17047 -1130,25337 -159,27801 3251,55071 9860,81273 -14217,7941 -22927,16004 367,90132 13038,41496 25806,84770 41066,128068l412426 1226748c44834,175409 -245349,117996 -182825,430928l102171 13337c291396,-48481 108474,-56664 326361,30511 -5222,-264561 44936,-245315 -75234,-492877l-425426 -953534c-1903,-4913 -7178,-18874 -9328,-23608 -45535,-100098 -78558,-120977 -103557,-263528 82587,75872 350974,723638 434889,883996 77138,147415 140213,289787 212795,435116 71288,142744 45182,441357 -57491,524509 -33868,-20690 -33400,-21511 -64210,-47341 -63061,-52873 -19193,-44733 -252055,-12609 -127430,17580 -663312,83935 -741874,111383 -91659,32023 -224660,95427 -267808,190342l130566 26927 -57037 44732 310777 -2207c19261,20695 10923,-18053 13928,36984 -19275,144169 -138286,378833 -95447,502389l-119923 69665c-534505,253673 -287310,258948 -1027300,318337 -15729,75230 -52675,152324 7681,212670 52887,231219 243799,358172 170279,527350 -45220,104059 -69925,51698 -133846,29574 -6053,264440 -10922,669243 71075,902265l8377 59133c-134392,55274 -384118,172391 -516534,245895 -87282,48453 -173410,83263 -264426,127779 -135097,66075 -132233,30622 -254876,-46298l-970548 -591266 0 -67510c71795,-26559 335066,136073 405639,166763l613555 289962c118291,52925 94992,67384 210809,14072 135523,-62380 286735,-147812 417726,-191675 11806,-247258 -31593,-550258 -26878,-803617 3690,-198211 -28980,-177351 -113601,-291198 -18033,-24260 -24371,-34651 -47539,-54853 -212003,-184854 -117189,-188651 25671,-431870l344834 -524031c37177,-56076 153294,-220892 165859,-267045 -98649,3884 -213399,97789 -319936,117344 -85239,15647 -284774,-56355 -382524,-76007 -196342,-39477 -564967,-109016 -748792,-174120 -10536,-95533 -45583,-590222 5058,-658423 132923,-179013 194148,-178907 249958,-244581l228070 -266924c68292,-71563 51046,-15922 137527,-117242 59766,-70027 218983,-271697 282729,-314295 58182,-38882 158541,-124252 179874,-197679 11168,-38438 -17478,-909458 -27222,-947080 -8854,-88398 7739,-207018 32328,-293430 23352,-44042 5386,34240 32226,-44231 24888,43545 -5903,4285 33081,43004 47887,47554 146087,95030 192361,148623 107634,124662 97567,87268 136937,135527 93036,114049 21009,72297 240046,203602 -35965,-102412 -11285,-27125 -85935,-102108l-142266 -181748c-78012,-99330 -160183,-194167 -18719,-295159l48994 24038 -24941 69147c2140,4493 4521,9304 6106,16787 1420,6691 14690,10217 19497,13236 -30970,-2473 -21792,-8308 -19029,25512 7382,50418 21106,95253 47462,138367 31966,52288 50105,45139 106543,80674 91804,57800 160309,92340 257407,135899l27849 9251 -3840 -39071c-50003,-39748 -113808,-80616 -168280,-119489l29507 -9498 122682 79283 24912 -75263c-69370,5260 -70254,12149 -115344,-25922l119629 -3589c72992,3371 30593,20289 91489,-17734 -7917,-40472 22043,734 -90958,-20391 16956,-20183 3551,-5034 25038,-25883l16555 -15676c1531,-1449 5671,-4860 8299,-7512l83833 -23120 -3410 85283c27603,-24333 49703,-40951 70249,-57255 -16488,241476 -143489,273581 -247215,349714 185845,140000 242456,301652 214172,544098 -29685,254421 -196452,1021551 -270411,1264142 -48095,157753 -143324,440396 -165391,587759 20275,-68568 81089,-141619 127856,-192279l201882 50960c-12797,-130837 -52699,-284233 -55370,-391558 2811,-67775 26376,-117759 56554,-178970 213200,-9690 340810,80669 524412,99920 -178569,-169130 559185,57138 664302,-172396 68670,-149946 -137923,-536634 -202756,-702899 -125721,-322410 -292793,-682041 -399316,-1016334 -61592,-193308 -11458,-224123 75684,-353163 -18792,-30733 10381,-5101 -38284,-20555l125126 -84813c50148,-31159 82215,-49834 129006,-81500 8425,-133073 -74152,-304135 -143913,-373510 -239220,-237886 -794873,-329709 -1112331,-424628 24207,-54351 353867,-296416 421435,-354757 81244,-70147 389828,-304202 433054,-363833l-832596 -326584c-26777,-57249 170149,-455429 196418,-517930 48617,-115687 174937,-456429 227418,-534388l114808 -23391c26052,66940 49351,63911 100601,99997l220582 204776c172806,167381 253996,131894 293811,357297l375805 1779691c835,143305 -170116,416726 -216022,580687 -29540,105499 -59617,213268 -87370,319337 -10062,38467 -27670,82137 -42167,126213zm-2685038 2545323c23492,-404475 -95968,-494496 295628,-790332 92688,-70022 279556,-342839 405305,-429913 97123,-67259 154614,-158976 233249,-244195 97944,-106151 69993,-166835 80403,-403103 12628,-286512 31168,-629308 23019,-914067l226611 164034c74997,55597 141193,104938 214553,160052 215259,161725 196240,129552 332211,400881 108045,215597 105804,66109 -22593,542808 -51622,191661 -111054,381626 -161951,572513 -102340,383818 -106436,486825 -246490,860344 -54066,144193 -24202,142150 -174472,183521 -78694,21666 -218583,78639 -291194,69519 -231630,-29100 -643346,-149338 -914279,-172062zm2467195 -4558784c-86408,-217012 -114702,-108518 -61926,-377470 22511,-114726 57800,-319995 92596,-419050 69998,150788 166826,792646 219326,1013228l157097 759232c1309,51945 -46216,162550 -105905,206321 -16937,-60191 -113827,-182511 -161193,-225828 -186342,-170381 -572088,-357013 -806292,-367568 38868,-64268 337921,-300797 425730,-377461l240567 -211404z"/>
     <path class="fil19" d="M16561691 3710971c58448,32245 259509,327385 299493,386122 48554,71327 92099,129692 140464,200617 43511,63805 93166,129136 136807,186873 218660,289285 199839,235456 206646,454473l49235 1959931c10777,303652 -12802,279750 -122363,537157 -65757,154488 -138851,317801 -194646,469071l2990 -1178c25941,-15715 54095,-27859 83674,-35912 302734,-138836 871556,-472289 1009962,-511645l-438575 -82572c123696,-439319 314420,-914314 460077,-1350821 53500,-160328 53993,-113059 -6271,-274015 -57191,-152763 -322071,-978171 -389378,-1041416 -22077,-20743 -30647,-21482 -59510,-43259l-1138176 -901067c-33921,22139 -19748,-2184 -40429,47641z"/>
     <path class="fil20" d="M16214152 7478379l-51191 16860 162067 5656c-24541,60332 -25246,18227 -39472,98446 -10261,57854 22550,87089 -30821,76104 1309,5522 7039,28415 7937,33738 817,4850 2121,10140 2763,15265l-8936 85920c-16488,241476 -143489,273581 -247215,349714 185845,140000 242456,301652 214172,544098 -29685,254421 -196452,1021551 -270411,1264142 -48095,157753 -143324,440396 -165391,587759 20275,-68568 81089,-141619 127856,-192279l201882 50960c-12797,-130837 -52699,-284233 -55370,-391558l-74128 107147 39530 -346545c77369,-41134 182719,-99315 260247,-145111 111523,-65877 135827,-114489 241046,-47100 -3561,2271 -9019,4058 -11623,5029l-24516 9188c-97992,32342 70505,-22593 -26690,7565 -95683,29685 -77650,38202 -160275,93847 -63800,42965 -148478,79732 -187037,137010 213200,-9690 340810,80669 524412,99920 -178569,-169130 559185,57138 664302,-172396 68670,-149946 -137923,-536634 -202756,-702899 -125721,-322410 -292793,-682041 -399316,-1016334 -61592,-193308 -11458,-224123 75684,-353163 -18792,-30733 10381,-5101 -38284,-20555 -56902,-30704 -10695,-102436 -1841,-180776 -73393,4874 -117933,-12850 -171434,-29705l-209703 25202 32458 -21854 2077 -25540 -180023 32245z"/>
     <path class="fil21" d="M16459729 4010570c-58399,29453 -106992,203104 -143049,288594 -43709,103634 -94977,212206 -130445,317700l114808 -23391c26052,66940 49351,63911 100601,99997l220582 204776c172806,167381 253996,131894 293811,357297l375805 1779691c10226,-640443 -11681,-1285528 -13430,-1925642 -584,-213235 25492,-308145 -71085,-420914 -45104,-52670 -61143,-82113 -104025,-134672l-419822 -534326c-57308,-75843 -74148,-81519 -92992,-149768 -63409,34246 -95094,85442 -130759,140658z"/>
     <path class="fil22" d="M15446027 6950111c-28448,10850 -50051,23174 -77234,47965 -127865,116619 -97214,71046 -121146,238403 -20192,141208 -42022,284406 -59128,429305 23352,-44042 5386,34240 32226,-44231 24888,43545 -5903,4285 33081,43004 47887,47554 146087,95030 192361,148623 107634,124662 97567,87268 136937,135527 93036,114049 21009,72297 240046,203602 -35965,-102412 -11285,-27125 -85935,-102108l-142266 -181748c-78012,-99330 -160183,-194167 -18719,-295159l48994 24038c49911,9743 348037,31013 380987,57302l26642 -40269 6435 -26342c-85988,26347 -76640,27637 -157029,-6555 -77017,-32763 -64143,-20913 -155140,-23570 133000,-44544 276479,-74350 435822,-62659l51191 -16860c-162149,-64940 -436957,60534 -625550,63520l35246 -20367c41776,-134261 430875,-298178 736415,-167236l53675 -19627 -5068 41163 21014 647c90780,32303 131126,49544 201308,4889 -18328,83978 -7928,26482 -61849,86958 53501,16855 98041,34579 171434,29705 4696,-181202 -289512,-353443 -429966,-447551 -62602,-41950 -122962,-90577 -182564,-122460 -45574,23990 -104277,-8758 -160734,-26733 -407074,-129614 -347187,41197 -521486,48824z"/>
     <path class="fil23" d="M13710538 9908174c28477,-193510 1135,-260750 74824,-455449 41269,-109030 106315,-279454 126749,-390509l-118460 -33573 -325148 516954c-59342,79775 -63095,88422 -74264,200182 -32549,325660 -87161,657427 -119513,986354 -32322,328608 -79012,676234 -124208,1004528 -22198,161207 -42777,337177 -60080,498684 -20768,193824 -80863,380818 -2295,428174 38525,-52848 430701,-2094874 520968,-2498556 14502,-64863 25947,-120421 37579,-183849 13908,-75857 13734,-109180 65283,-149889l-1435 76949z"/>
     <path class="fil24" d="M11982783 14576901c-71674,138967 -165381,184927 -229514,240693 -70075,60930 -160850,175424 -228215,249219 -58303,63862 -159618,190626 -222862,237369l-125943 112339c-41670,45888 -71824,78655 -113721,124996 -76819,84954 -142662,156666 -219355,241021 -31526,34680 -110678,88277 -243504,233345 -170038,185719 -182647,225838 -354747,361153 -13459,10579 -50482,43848 -62196,55476 -66307,65805 -45255,4116 -42173,87142l1425244 -985934c332085,-233987 180738,-92084 354819,-429165 57177,-110716 120759,-245465 170004,-358616 51950,-119378 125793,-247721 165661,-364070l-273498 195032z"/>
     <path class="fil25" d="M15553381 13203980c57796,-84708 93959,-442628 116673,-573011 20951,-120252 78640,-129899 152729,-185235 51771,-38661 142247,-114446 214785,-119653 -37592,-128764 -327061,-347052 -433425,-444604 -50196,-46037 -64867,-35946 -123634,-98470l-25694 -28584c-1363,-5888 -5623,-6773 -8942,-9632 52887,231219 243799,358172 170279,527350 -45220,104059 -69925,51698 -133846,29574 -6053,264440 -10922,669243 71075,902265z"/>
     <path class="fil26" d="M16680862 10641730c46186,-56370 9618,-39250 103228,-63312 260513,-66949 623371,-125996 824485,-284899 -33868,-20690 -33400,-21511 -64210,-47341 -63061,-52873 -19193,-44733 -252055,-12609 -127430,17580 -663312,83935 -741874,111383 -91659,32023 -224660,95427 -267808,190342l130566 26927 -57037 44732 310777 -2207c19261,20695 10923,-18053 13928,36984z"/>
     <path class="fil27" d="M15625906 7696502l302251 210428 7618 -10685 119629 -3589c-49984,-78191 -86326,-102190 -49173,-238022 -32950,-26289 -331076,-47559 -380987,-57302l-24941 69147c2140,4493 4521,9304 6106,16787 1420,6691 14690,10217 19497,13236z"/>
     <path class="fil28" d="M16062022 10023204c2811,-67775 26376,-117759 56554,-178970 38559,-57278 123237,-94045 187037,-137010 82625,-55645 64592,-64162 160275,-93847 97195,-30158 -71302,24777 26690,-7565l24516 -9188c2604,-971 8062,-2758 11623,-5029 -105219,-67389 -129523,-18777 -241046,47100 -77528,45796 -182878,103977 -260247,145111l-39530 346545 74128 -107147z"/>
     <path class="fil29" d="M15623848 7521532l-35246 20367c188593,-2986 463401,-128460 625550,-63520l180023 -32245c-53095,-64650 -314125,-62602 -400687,-44453 -123262,25840 -253779,73350 -369640,119851z"/>
     <path class="fil30" d="M15919935 11691681c73857,-1444 250605,-5173 298164,26661 70423,-15661 110958,-35037 174096,-66746 68770,-34550 97702,-41492 120464,-106548 -88509,21782 -267464,107094 -330293,111721 -133146,9817 -279223,-13569 -413151,1976 51042,17777 138913,23120 150720,32936z"/>
     <path class="fil31" d="M16238726 12128788c17314,-46327 23444,-174521 14497,-235862 -10473,-71800 -66089,-79152 -95900,-151981l-273605 -45655 61182 50979c56153,29757 148802,62046 186081,101663 124580,132402 106040,195124 107745,280856z"/>
     <path class="fil32" d="M16006231 7654634c-37153,135832 -811,159831 49173,238022 72992,3371 30593,20289 91489,-17734 -7917,-40472 22043,734 -90958,-20391 16956,-20183 3551,-5034 25038,-25883l16555 -15676c1531,-1449 5671,-4860 8299,-7512 -18850,-15753 -23018,-20332 -35632,-31260 9338,-64862 11338,-110494 77896,-106977l-6410 -37796c-9111,39 -67114,2343 -71534,1783 -55259,-6976 -11415,19589 -37274,-16845l-26642 40269z"/>
     <path class="fil33" d="M13461083 12941708c106,-285 6550,-7579 10840,-43796 2096,-17695 -966,-18081 -3430,-39935 -59945,-3348 -137677,-46076 -191694,-81259 -42023,-27371 -52530,-36829 -97611,-60099 -106214,-54829 -76161,-35796 -90847,-5246 62032,42737 118750,71514 190395,115165 63167,38477 118020,75679 182347,115170z"/>
     <path class="fil34" d="M16105827 7805460l83833 -23120c10246,-57800 24705,-79417 -18173,-109842l-23396 -5275c-66558,-3517 -68558,42115 -77896,106977 12614,10928 16782,15507 35632,31260z"/>
     <path class="fil35" d="M16157323 11740945l60776 -22603c-47559,-31834 -224307,-28105 -298164,-26661l-36217 3609 273605 45655z"/>
     <path class="fil36" d="M15935775 7896245l-7618 10685 -24632 11217 122682 79283 24912 -75263c-69370,5260 -70254,12149 -115344,-25922z"/>
     <path class="fil37" d="M16039308 7588023l-6435 26342c25859,36434 -17985,9869 37274,16845 4420,560 62423,-1744 71534,-1783l-1203 -49814 -101170 8410z"/>
     <polygon class="fil38" points="16360263,7354296 16362843,7382184 16394943,7394841 16408870,7375832 16413938,7334669 "/>
     <path class="fil39" d="M12647394 8318550l-22511 -8058c-2792,5391 -37878,-37298 -2594,31284l25105 -23226z"/>
     <path class="fil40" d="M16018289 8076954l27849 9251 -3840 -39071c6666,44515 18033,37882 -24009,29820z"/>
    </g>
   </g>
  </g>
 </g>
</svg>
