<?xml version="1.0" encoding="utf-8"?>
<!-- Generator: Adobe Illustrator 19.0.0, SVG Export Plug-In . SVG Version: 6.00 Build 0)  -->
<svg version="1.1" id="Layer_1" xmlns="http://www.w3.org/2000/svg" xmlns:xlink="http://www.w3.org/1999/xlink" x="0px" y="0px"
	 viewBox="-162 214 287 365" style="enable-background:new -162 214 287 365;" xml:space="preserve">
<style type="text/css">
	.st0{fill:#88363A;}
	.st1{fill:#36647B;}
	.st2{fill:#131C24;}
	.st3{fill:#FCE8BC;}
	.st4{fill:#AF9B78;}
	.st5{fill:#1A2126;}
	.st6{fill:#060608;}
	.st7{fill:#9E8E74;}
	.st8{fill:#74C1FE;}
	.st9{fill:#F9E2B9;}
	.st10{fill:#BDBDBD;}
	.st11{fill:#17517C;}
	.st12{fill:#468CC0;}
	.st13{fill:#FAEFDD;}
	.st14{fill:#1B242B;}
	.st15{fill:#90816A;}
	.st16{fill:#FEFEFD;}
	.st17{fill:#E84242;}
	.st18{fill:#2374B3;}
	.st19{fill:#16496E;}
	.st20{fill:#1A232C;}
	.st21{fill:#0D2E46;}
	.st22{fill:#FAE1B8;}
	.st23{fill:#1A2229;}
	.st24{fill:#2374B5;}
	.st25{fill:#D2D2D2;}
	.st26{fill:#BEBEBE;}
	.st27{fill:#524B3B;}
	.st28{fill:#FAEEDD;}
	.st29{fill:#2475B5;}
	.st30{fill:#867A64;}
	.st31{fill:#C5B290;}
	.st32{fill:#3999AC;}
	.st33{fill:#2E6989;}
	.st34{fill:#4D483A;}
	.st35{fill:#97866B;}
	.st36{fill:#595F62;}
	.st37{fill:#A8AAAD;}
	.st38{fill:#A4D1DF;}
	.st39{fill:#776C5A;}
	.st40{fill:#50514C;}
	.st41{fill:#216599;}
	.st42{fill:#477193;}
	.st43{fill:#9B8F76;}
	.st44{fill:#6D6F71;}
</style>
<g id="Layer_x0020_1">
	<g id="_495799915040">
		<path class="st0" d="M33.7,291.7l0.2,0c-0.3-0.5,0.4-0.3-0.5-0.4L33.7,291.7z"/>
		<path class="st0" d="M-35.1,306.4l0.6,0.3l-0.1-0.8C-34.7,306.6-34.5,306.5-35.1,306.4z"/>
	</g>
	<g id="_495799918528">
		<path class="st1" d="M-84.5,371.9l0.7,0.6l-0.3-1.2C-84.2,372-84,371.9-84.5,371.9z"/>
		<polygon class="st1" points="-82,366.9 -81.6,366.7 -82,366 		"/>
	</g>
	<g id="_495799917920">
		<path class="st2" d="M-136.8,364.9c-0.7,0.2-1-1-0.3,0.8c0.4,1.3,1.8,1.9,3.4,2.8c0.8,0.5,3.2,1.9,4.2,2c3.3,0.5,5.2-4.8,5.5-6.5
			c-1.5,2.2-1.6,4-4,5.3c-1.8,0.2-3.4-0.9-5-1.6C-136,366.5-135.1,367.4-136.8,364.9z"/>
		<path class="st2" d="M-87.9,371.3c-0.3-1.4-1-3.6-1.7-4.5l-0.3,5.3L-87.9,371.3z"/>
		<polygon class="st2" points="-38.4,354.1 -36.3,353.5 -38,349.5 		"/>
	</g>
	<g id="_495799919072">
		<path class="st3" d="M-117.7,445c0.8-1.1,0.9-8.7,0.9-10l-5.4-3c1,1.9,0,1.3,2.1,2.5c1.4,0.8,1.7,0.6,1.8,2.4
			C-118.1,438.9-117.5,443.3-117.7,445z"/>
		<path class="st3" d="M-137.8,361.9c1,0.3,0.6,0.3,1.2,0.5c1.4,0.5,0.6,0.2,1-0.2c-0.3-1.3-0.2-1.6-1-2.7L-137.8,361.9z"/>
	</g>
	<g id="_495799919008">
		<path class="st4" d="M-104.9,420c0.2-0.3,0.4-0.1-0.3-1.5l-2.4-4.2c-5.7-9.7-3.2-5.8-0.2-17.5c0.5-1.9-0.1-1.5-0.2-1.6
			c-0.1,1.4-2,5-2.7,6.6c-1.8,4.1-2.8,4.7-1.6,6.6C-110.9,410.4-105.1,418.6-104.9,420z"/>
		<path class="st4" d="M-128.3,359.4c0.6,0.2,0.5-0.1,0.8,0.3c0,1-0.3,1.3-0.6,2.2l1.8-1.3c-0.8-0.1-0.3,1.2-0.7-0.1
			c0-0.1-0.1-0.1-0.3-0.1l0.4-2.7c-0.3,0.4-0.4,0.5-0.7,0.8l-0.6,0.7C-128.2,359.1-128.3,359.3-128.3,359.4z"/>
	</g>
	<g id="_495799920704">
		<path class="st5" d="M-63.8,367.8c-0.1-0.6-0.2-0.3,0.6-0.3l-1.6-11.9c-0.2-0.6,0.3-0.1-0.9-0.1l0.4,2.7l-4.4,1.6l0.3,2.1l3.8-1.1
			l0.4,2.6l-3.7,1.3l0.2,2.7l4.5-1.5L-63.8,367.8z"/>
		<path class="st5" d="M-60.9,360.3c3-0.6,4.1-3.5,1.8-3.9c-0.3-0.1-0.4,0-0.8,0c-0.5,0.1-0.9,0.2-1.6,0.3L-60.9,360.3z"/>
	</g>
	<g id="_495799922784">
		<path class="st6" d="M-130.7,341.3c2.4,0.2,10.8,2,12.5,3.1l-0.8,2.8c-1.6,0,1.3-1.1-6,0.4c-2.4,0.5-4.6,1-7,1.4
			c-1.5,0.3-2,0.2-2.7,1.4c-1.3,2.1-3.3,6.2-4.7,7.7c0.2,1.7,0.9,2,1.3,3.8l0.2,0l1.2-2.4l0.7-1.9c0.3-0.3,0.5-0.8,0.8-1.1
			c0.5-0.5,1.1-0.6,1.7-0.9c2.1-0.5,1.3-0.8,3.9-0.4c1.3,0.2,2.7,0.6,3.9,0.5l0.5-0.3l-5.3-1.5l-0.9-0.2c-0.3-1.3-0.1-0.1,0.3-0.6
			l9.5-4l0.6-0.4l1.7-0.7c-0.4,1.4-1,5-1.7,6.1l-1,3.2l-2,6.1c1.5-1.6,6.4-16,6.5-18.8c-1.4-1.9-5.2-2.2-7.6-2.7
			c-2.4-0.5-6.5-1.7-8.7-1.2L-130.7,341.3z"/>
		<path class="st6" d="M-130.5,362l-4.7,0.7c-0.6,0.8,2.1,0.8,2.8,0.6c1.1-0.3,2.1-0.7,3.2-1c0.6-0.2,0.6-0.3,1.1-0.5
			c0.3-0.9,0.6-1.2,0.6-2.2c-0.3-0.4-0.2,0-0.8-0.3C-128.5,359.9-130.1,361.5-130.5,362z"/>
	</g>
	<g id="_495799921376">
		<path class="st7" d="M-122.8,430.4c0.9-0.8,8.5,0.2,8.6,0.2l0.4,3.5c1.4,0.4,3.1,1.4,4.5,1.1c1.3-0.4,2.9-1.8,4.2-1.6
			c2.9-1.8,1.2-1.4,3.5-3.6c0.6-0.5,0,0.1,0.5-0.5l-4.7-1.1l-0.8,0c-1.1-0.2-7.5-1.5-8.6-2.1c0.7-0.9,1.7-2.4,2.1-3.4
			c-3.8-1.3-4.6-0.4-8.2,0.6c-1.3,0.4-6.6,1.8-7.2,2.1l-0.6-3.6c0,3.4,0.4,4.4,1.2,7.4C-126.3,429.6-123.8,429.8-122.8,430.4z"/>
		<path class="st7" d="M-132.4,416.8c1.8,1.8,3,0.1,3.3,3.5c2.4-0.5,7.5-2.2,9.4-2.1c2.1,0.1,8.6,1.5,9.9,0.9l-2.7-1.4
			c-1.7-0.5-2.9-1.2-4.5-1.9c-2.5-1.2-2.1-1-4.9-0.6C-125.2,415.7-129.5,416.5-132.4,416.8z"/>
	</g>
	<g id="_495799924896">
		<path class="st8" d="M-90,372.1l0.3-5.3c0.8,0.9,1.4,3.1,1.7,4.5L-90,372.1z M-84.1,371.3l0.3,1.2l-0.7-0.6
			c-0.3-1.7-2.7-6.7-3.5-8.4l-3.7,1.3l-2.1,14.3c3.8-1.2,3.1-0.3,3.6-4.2l3.5-1.3c0.2,1.2,0.4,2,1,2.7l5.1-1.8l-1.4-7.6l0-0.9
			l0.5,0.8c0.4,1.5,0.9,2,1.6,3.2c1.1,2,2.2,4.1,2.9,0.8c0.1-0.7,0.3-1.4,0.4-2.1c0.3-1.4,0.4-3.2,0.9-4.3l0.7,8.1l2.9-0.9
			c-0.4-2.7-1-11-1.9-13c-5.6,1.6-2.4,3.9-4.4,9.4c-0.7-0.8-1.2-2.1-1.8-3.1l-2-3.5l-2.9,1L-84.1,371.3z"/>
		<path class="st8" d="M-38,349.5l1.8,4.1l-2.1,0.6L-38,349.5z M-40.1,346.9l-1.7,11.4c-2.7-0.7-0.8,2-4.5,1
			c-1.7-0.9-2.4-6.1-0.3-7.5c1-0.7,1.8-0.1,2.7,0l1.3-2.1c-3.8-3.4-10.6,1.9-7.7,9.4c0.8,2.2,3.3,4.2,6.5,3l3.6-1.5
			c2-0.6,1.4-1.4,1.7-3.6l3.2-1.3l1.1,2.6l3.1-0.9l-5.3-11.9L-40.1,346.9z"/>
		<path class="st8" d="M-61.5,356.7c0.7-0.1,1-0.3,1.6-0.3c0.3,0,0.4-0.1,0.8,0c2.3,0.4,1.2,3.3-1.8,3.9L-61.5,356.7z M-64.7,355.6
			l1.6,11.9l0.2,0.8l2.8-0.9c0-3-1.2-4.1,0.1-4.7c0.9-0.5,2.4,2,3.4,3.3c1.8-0.1,4.2-1.2,5.9-1.8c0.4-1.5-1.1-9.6-1.3-11.8
			c-0.5-1.4-0.3-0.7-0.9-1.2l-2.3,1l1.7,12.5c-2.2-1.3-1.6-2.6-3.3-3.2c0.1-0.2,3.9-5.6,0-7.5c-1.3-0.7-2.9-0.3-4.2,0.2
			c-0.7,0.2-1.4,0.5-2.1,0.7C-64.1,355.1-64.5,355.1-64.7,355.6z"/>
		<polygon class="st8" points="-63.8,367.8 -64.1,366 -68.6,367.5 -68.8,364.8 -65.1,363.5 -65.5,360.9 -69.3,362 -69.6,359.9 
			-65.2,358.3 -65.6,355.6 -72.9,358.2 -71.1,371.4 -63.8,368.7 		"/>
	</g>
	<g id="_495799923648">
		<path class="st9" d="M-157.8,399c0.1-0.8,1.9-7.4,2.1-8.1c0.6-1.3-0.2-0.4,1.3-1.2c1.7-1,3.8-2.4,5.1-2.6c1.4,1.8,2.6,2.4,4.1,3.7
			c0.5,0.5,0,0.1,0.6,0.6c1.2,1.1,2.9,1.2,2,3.7c-0.5,1.4-0.8,2.4-1.2,3.8L-157.8,399z M-155.9,388.6c-0.4,1.8-2.1,5.4-2.9,7.3
			c-1.2,2.8-2.3,4.4,0.1,6.7l17-1.1l1.4,5.4c0.3,1.7-0.1,3-0.1,4.6c0,1.5,0.6,2.4,0.8,3.9c2.6,0.3,3.6,1.3,7.1,1.4
			c2.9-0.3,7.2-1.1,10.4-1.6c2.8-0.5,2.4-0.6,4.9,0.6c1.6,0.8,2.8,1.4,4.5,1.9c-1.1-1-2.7-2-4.2-2.9c-2.1-1.4-2.3-1.5-5.3-1.2
			c-10.6,0.9-6.7,1.6-11.2-1.3c-4.5-2.9-3.9-2.3-6.1-8c-0.8-2.2-2.1-2.9-1-4.5c1.3-1.9,2.7-2.1,1.4-4.5c2,0.9,6.8,3.8,8.6,3.5
			c-0.1-0.1-0.4-0.6-0.5-0.7c-0.1-0.1-0.4-0.2-0.5-0.3c0-0.1-0.2-0.1-0.3-0.1c-0.6-0.9-7.2-4.8-8.7-6l-9-6L-155.9,388.6z"/>
		<path class="st9" d="M-128.2,424l-0.1-2.8c1.2-0.5,6.8-2.2,7.8-2.4c1.1-0.1,7.7,0.9,8.8,1.2c-2.5,0.8-5.8,1.1-8.4,1.7
			C-122.9,422.4-125.5,423.4-128.2,424z M-129.1,420.2l0.1,1.7l0.6,3.6c0.6-0.3,5.9-1.7,7.2-2.1c3.6-1,4.4-1.8,8.2-0.6
			c-0.4,1-1.3,2.5-2.1,3.4c1.1,0.6,7.4,1.9,8.6,2.1c0.6-1.1,0.7-0.8,1.1-1.9c-0.9-0.4-0.7-0.5-1.6-0.9c-0.3,0.4,0.2,0.6-1.9,0.4
			c-1.5-0.2-1.2-0.1-1.7-0.5c1.1-0.4,0.4-0.3,1.6-0.6c-0.4-1.1-0.2-1,0.6-1.9c0.8-1,0.6-0.5,1-1.7c-1.2,0.5-1.3,1-2.7,1.4
			c0.7-1.3,1.2-1.3,1.7-3c-0.6-0.2-0.7-0.3-1.3-0.4c-1.3,0.6-7.8-0.8-9.9-0.9C-121.7,418.1-126.8,419.8-129.1,420.2z"/>
		<path class="st9" d="M-131,353.1c0.1,0.1,0.1,0.2,0.2,0.2c0,0.1,0.1,0.2,0.2,0.2c0,0.1,0.2,0.3,0.3,0.3l5.3,1.5
			c0.9,0.2,1.9,0,0.4,0.6c-1.9,0.7-1,0.2-2.1,1.6l-0.4,2.7c0.1,0.1,0.2,0,0.3,0.1c0.4,1.3-0.1,0,0.7,0.1l-1.8,1.3
			c-0.4,0.2-0.5,0.3-1.1,0.5l-1.4,1.5c2.2-0.3,3.9-1.8,4.7-2.9c1.4-1.8,0.8-0.8,1.9-1.9c1.2-1.1,0.4-0.9,2.2-1.8l1-3.2
			c-0.3-1.5-0.1-0.5-0.3-1c-0.4-1.2-0.5-1.7,0-3.4c0-0.7,0.2-0.6-0.4-0.6L-131,353.1z"/>
	</g>
	<g id="_495799925088">
		<path class="st10" d="M-18.8,238.4c-1.9,2.2-3.4,5.1-5.1,7.6c-3.9,5.6-0.3,2.4-6.9,5.8c-5.4,2.8-11.6,5.4-17.3,8
			c-0.8,0.3-32.7,15.7-33.9,17.3c7.5-2.5,15-5.9,22.5-8.6c2.6-1,34.9-12.7,36.1-13.9c0.7-0.7,1.1-1.6,1.8-2.3c0.9-0.9,1-0.7,1.9-1.8
			c1.8-2.3,5.1-5.3,7.2-8.1c0.9-1.1,1.2-1.1,2.1-2c0.6-0.7,1-1.5,1.6-2.1c0.9-0.9,0.8-0.3,2-2c1.9-2.6,2.8-2.4,3.7-4.3L-18.8,238.4z
			"/>
		<path class="st10" d="M-36,262.3l-4.2,6.4c-1.9,3-2.3,4.5-4.9,5.7c-2.2,1.1-5.2,2.2-7.3,3.3c-1.6,0.9-0.2,0.4-1.5,1.3l-5.1,2.4
			c-3.6,1.7-27.2,13-28.3,14.2l1.5-0.1c2.5-0.5,6.8-2.4,9.5-3.4l33.4-12.5c3-1.2,7.6-8,9.9-9.8c1.5-1.2,1.8-2.4,3.1-3.5
			c2.5-2.1,1.8-2.3,3.1-3.4c2.6-2.3,1.6-2,3.1-3.5c1-1,1.8-1.2,3.1-3.5L-36,262.3z"/>
	</g>
	<g id="_495799926592">
		<path class="st11" d="M-146,283.2l7.1,0l3,7.8c1-3.3,4.3-11.3,6.3-12.9c0.6-1.4,0.5-1.2,1.4-2.3c0.8-0.9,0.7-1.1,1.6-2.1l3.5-3.7
			c0.3-0.3,0.5-0.4,0.9-0.7l11.4-8.9c2-1.3,13-7.8,13.7-8.6c-4.5-1.2,0.3-2.2-7,0.9c-6.6,2.8-15.9,7.7-23.3,8.5l6.4-10.4
			c0.9-1.5,1.6-2.1,2.3-3.8l-14.5,17.3C-135.7,267.4-144.8,279.9-146,283.2z"/>
		<path class="st11" d="M-154,322.8c0.5,6.5,0.5,17.4,2.2,23.4c1-0.7,1.8-3.2,2.8-3.8c0.3-1,2.5-4.5,3.2-5.4l6.8-0.3l0.1-6.6l-2.1,0
			c-0.4-1.1-1.2-2.6-1.7-3.8l-1.9-3.9L-154,322.8z"/>
		<path class="st11" d="M-153.1,301.6c-0.8,2.2-1.2,10.9-0.9,13.6l7-0.6c0-1.1-1.7-6.6-2-7.9c-0.4-1.4-1.3-7.1-2.2-8.1
			C-151.7,299.3-152.8,302.2-153.1,301.6z"/>
	</g>
	<g id="_495799927840">
		<path class="st12" d="M-152.8,379.9c0.7,0.7,16.1,8.2,19.1,9.7c1.6,0.8,1.6,0.4,3-0.3c1.2-0.6,2.1-0.9,3.3-1.6
			c-0.9-0.6-3.1,0.2-4.5,0.2c-0.3-1.7,2-13.8,2.4-16.5c-2.1-0.2-6.7-2.5-7.9-3.4c-1.5-1.2-3-5.3-3.1-7.8c-1-1.2-2.3-6.7-2.9-8.6
			c-0.6-1.9-1.3-2.8-1.1-5c0.2-2.9,1.1-3.2-1.3-4.5c-1.1,3.2-4.4,5.3-3.7,9.3c0.3,1.9,1.8,10,1.6,11.4c-0.1,0.9-2.1,3.2-2.8,4
			l-5.7,7.4c-1.9,2.5-2.2,2.2-1.8,4.4c2.9,0.1,4.3-0.2,5.1,0.8C-153.1,379.5-152.9,379.8-152.8,379.9z"/>
		<path class="st12" d="M-119.1,328.6c-0.4,2.5-1.2,1.9-3.7,1.8c-1.7-0.1-3.7-0.2-5.3-0.1l8.3,0.3c-1,1.3-1.8,4-2.7,5.4
			c-1.1,1.7-4.4,1.4-5.8,2.5c3.3,1.4,12.7,4.3,16.1,4.1c-0.4-4.1,0.4-8,2.2-11l4.2-5.8c0.7-0.8,1.1-0.8,1.7-1.6
			c-0.5-1.1,0-0.4-0.9-1.2c-0.4-0.4-0.8-0.5-1.2-0.9c-0.7-0.6-0.3-0.4-0.8-1c-1.1-1.4-2.1-1.5-3.3-3c-0.7-0.8-1.2-1.4-2.2-1.8
			C-113.7,318.3-118,328.1-119.1,328.6z"/>
	</g>
	<g id="_495799927968">
		<path class="st13" d="M-130.3,398.7c-1.8,0.3-6.6-2.6-8.6-3.5c1.3,2.4,0,2.6-1.4,4.5c-1.1,1.6,0.2,2.3,1,4.5c2.2,5.7,1.5,5,6.1,8
			c4.5,2.9,0.6,2.2,11.2,1.3c3-0.2,3.2-0.1,5.3,1.2c1.4,0.9,3,1.9,4.2,2.9l2.7,1.4c0.6,0.2,0.7,0.2,1.3,0.4c-0.5,1.7-1,1.7-1.7,3
			c1.3-0.5,1.5-0.9,2.7-1.4c-0.4,1.1-0.2,0.7-1,1.7c-0.8,1-1,0.9-0.6,1.9c0.5,0.6,1.2,0.7,2,0.8c0.9,0.4,0.7,0.5,1.6,0.9
			c-0.4,1.1-0.5,0.9-1.1,1.9l0.8,0c1.5-0.6,3.6-2,4.8-2.2c-1-2.4-3-4.4-3.5-5.4c-0.4-0.7,0.1,0.5-0.3-0.7c-0.3-1.4-6.1-9.6-7.4-11.6
			c-1.2-1.9-0.2-2.5,1.6-6.6c0.7-1.6,2.5-5.2,2.7-6.6c0.3-1.5,0.6-1.8,1.3-3.2c0.5-1,0.9-2,1.3-3.1L-130.3,398.7z"/>
		<path class="st13" d="M-87.7,388.6c-5.3,1-10.6,1.8-16,2.2c-0.6,1-6.5,16.7-6.5,17.3c0,0.7,7.9,13.7,8.9,14.7
			c0-4.3,0.1-8.6,0.1-12.8c0-4.2,0.7-8,0.7-12L-87.7,388.6z"/>
		<path class="st13" d="M-128.2,424c2.7-0.6,5.3-1.6,8.1-2.2c2.6-0.6,5.9-0.9,8.4-1.7c-1.1-0.3-7.7-1.4-8.8-1.2
			c-1,0.1-6.6,1.8-7.8,2.4L-128.2,424z"/>
	</g>
	<g id="_495799930432">
		<path class="st14" d="M-49.8,442.2l-0.1,1.3c0.8,0,0.4-0.2,0.7,0.1l-0.9,0.4l-0.2,0.4c-0.7,0.9-4.6,3.7-5.4,4.1
			c-1.2,1.7-7.6,6.6-9.7,8.4c-0.5,0.4-0.6,0.4-1.1,0.8c-0.4,0.3-0.6,0.5-1,0.9l-22.4,18.4l0.7,1.1c-0.1,0.1-0.2,0.1-0.2,0.1
			l-0.5,0.6c0,0,0,0.2,0,0.2l0.2,0.5l1.5-0.8c0.8-1,1.6-1.6,2.8-2.4c0.9-0.7,1.8-1.2,2.7-2l5.6-4.1c1.8-1.3,3.6-2.7,5.6-4.1
			l33.4-24.3c0.9-0.7,1.9-1.3,2.9-2.1c1-0.7,1.8-1.4,2.7-2c1.7-1.1,1.2-0.9,1.7-3.3l2.4-12c1.5-7.5,4-26.4,4.5-33.9l-32-14.9
			l1.1-0.7c0.1,0,0.8-0.3,0.9-0.3l14.9-4.9c-1-1-1.7-0.5-1.8-0.5c0,0-0.8,0.3-1.3,0.1c-0.7-0.3-0.6-0.8-1-1.1c0,0,0.9,1.1-0.3,0.4
			c1.2-0.3,2.3-1.2,1.9-2.7l-1.3,1.1c-0.3,0.4-0.5,0.7-0.8,1.1c-0.9,0.9-7.3,2.9-8.8,3.4c-3.3,1.1-8.9,2.9-11.7,4.3
			c1.1,0.9,36.4,17.6,37.8,17.9c-1.8,10.6-3.9,21.2-5.5,31.8c-1.7,10.8-0.5,8.3-6.5,11.9C-42,437.8-45.8,439.8-49.8,442.2z"/>
		<path class="st14" d="M-65.4,485c5.3,0.5,22,3.8,29.2,5.1c2.4,0.4,1.9,0.8,2.8,2.8l15.7,36.2c1.7-1.1-0.5-0.1,1.6-4.2
			c0.2,0.3,1,0-0.3,0.3c-0.4-0.5,0-0.1-0.1-1c0-1.1-16.1-37.1-16.2-37.1c-0.6-0.5-22.8-3.7-27.1-4.4c-2.7-0.4-1.6-1-3.3-1.1
			c-0.8,1.1-0.4-0.3,0,0.6c0,0,0.3,0.2,0.4,0.3l-0.8,0.5c-0.6,0.2,0.4,0.1-0.9,0.2c0.8,0.6,0.2,0.4,0.6,1.1
			C-66.5,484.3-64.6,484.3-65.4,485z"/>
	</g>
	<g id="_495799930944">
		<path class="st15" d="M-155.9,388.6l6.6-3.1l9,6c1.6,1.2,8.1,5.1,8.7,6c1.9-0.3,18.2-7.9,21.3-9.4c2.5-1.1,2.6-1.8,5.6-1.3
			c1.9,0.3,5,1,6.8,0.9c4.4-0.3,9.3-1.2,13.8-1.7c0.1,0.2,0.2,0.3,0.3,0.9c0.1,0.5,0.1,0.6,0.1,1.1c0.1,2.9,0.7,4.2-0.3,5.9
			c-1.9,3.4-1.7,2.4-2.3,6.7c-0.9,6.9-0.5,9.8-2.9,15l3.3-3.4c2.2-3,2.2-11.1,3.9-15.8c1.2,0.5,1.4,1.2,2.5,1.7l0.2-15.6l-16.1-0.1
			l1.7-15.2c-3-0.3-1.5-1.2-3.8,0.6c-0.7,0.6-0.9,0.7-1.5,1.3c-1.6,2-1.7,1.4-3.2,2.8c-0.8,0.7-0.7,1-1.5,1.7l-6.3,5.6
			c-1.3,1.6-1.8,1.6-3.2,2.8c-0.7,0.7-0.6,0.9-1.3,1.5c-0.5,0.4-1.3,0.7-2.1,1.1c-1.4,0.6-2.8,1.2-4.1,1.8c-2.8,1.2-5.6,2.4-8.3,3.6
			c-4.8,2.2-3.5,1.9-8.2-0.4c-5.2-2.7-10.8-5.6-15.8-7.8C-153.6,382.4-155.1,387.2-155.9,388.6z"/>
		<path class="st15" d="M-158.7,402.6c0.7,1.7,0.7,2.7,2.8,2.8c1.7,0.1,3.4,0.4,5.2,0.5c3.4,0.2,7,0.7,10.4,1l-1.4-5.4L-158.7,402.6
			z"/>
	</g>
	<g id="_495799929344">
		<path class="st16" d="M-104.4,315.6c2.2,0.1,5.2,1.1,7,1.1c0.9,0,1.9-0.7,2.7-1.1c1.1-0.5,2.1-0.8,2.8-1.5c-1-2-2.3-4.1-3.3-6.1
			c2-1.1,6.2-2.2,8.5-3c2.9-0.9,5.7-1.9,8.6-3c1.4-0.5,2.8-1,4.2-1.4c3.4-1.1,2-1,5.6-6.2c0.4-0.6,2.1-2.9,1.9-3.3
			c-2.8,0.3-21.1,8.7-24.2,9c0.3-4.1,0.3-3.3,1.4-3.4c0.1-0.1,0.2-0.2,0.2-0.2c0,0.1,0.1-0.1,0.2-0.2c0.3-0.2,0.3-0.2,0.6-0.4
			c0.4-0.2,0.5-0.2,0.9-0.3c1.1-1.2,24.7-12.5,28.3-14.2l5.1-2.4c1.3-0.9-0.1-0.4,1.5-1.3c2-1.2,5.1-2.3,7.3-3.3
			c2.6-1.2,3-2.7,4.9-5.7l4.2-6.4l0.4-0.9c-3.8,1.3-8.4,3.9-12.3,5.6c-4.2,1.8-8,3.6-12.5,5.3c-4.3,1.7-8.6,3.3-12.9,4.9l-13.3,5
			l1-3.8l3.4-1.4c1.2-1.5,33.1-16.9,33.9-17.3c5.7-2.6,11.9-5.2,17.3-8c6.6-3.4,3-0.3,6.9-5.8c1.8-2.5,3.2-5.3,5.1-7.6l0.4-1
			c-6.2,2.5-15.3,7.3-21.1,9.6L-91,267.6c-10.1,4.1-8,1.3-9.7,10.9c-1,5.9-5.8,31.7-6.1,35.3C-105.6,314.5-105.4,315.1-104.4,315.6z
			"/>
		<path class="st16" d="M-153.1,301.6c0.3,0.7,1.4-2.3,1.8-3.1c0.9,1.1,1.8,6.7,2.2,8.1c0.4,1.4,2.1,6.9,2,7.9l-7,0.6l0,7.6l9.3-0.4
			l1.9,3.9c0.6,1.2,1.3,2.7,1.7,3.8l2.1,0c-0.7-4.2-0.1-16,0.1-20.7c0.3-5.3,1-13.7,2.9-18.4l-3-7.8l-7.1,0
			c-1.1,1.3-3.5,6.4-4.3,8.4C-151.6,294.7-152.7,297.8-153.1,301.6z"/>
		<path class="st16" d="M-133.4,355.5c0.6,1.2,1.2,1.4,1.8,2.7c1.1,2.4-0.2,2.8,1.1,3.8c0.4-0.5,1.9-2.1,2.2-2.6
			c0-0.1,0.1-0.3,0.2-0.2l0.6-0.7c0.3-0.4,0.4-0.5,0.7-0.8c1.2-1.3,0.3-0.8,2.1-1.6c-1.6,0.2-0.5,0-0.9-0.3
			c-1.3,0.1-2.6-0.3-3.9-0.5C-132.1,354.7-131.3,355-133.4,355.5z"/>
	</g>
	<g id="_495799931808">
		<path class="st17" d="M-70.2,322.7l5.2,13.9l-6.3,2.1L-70.2,322.7z M-47.8,315.2c4-1.6,9.4-3.2,9.8,3.1c0.3,4.8-4.7,6.7-8.5,7.5
			L-47.8,315.2z M-34.7,305.9l0.1,0.8l-0.6-0.3c-6-3-16.5,2.9-22.5,4.3l3.9,29.1l-12-26l-10.6,3.5c-0.7,5.4-1.7,11.2-2.5,16.7
			l-2.2,14.7c-0.1,0.3-0.1,0.7-0.2,1.1c-0.4,1.7,0.3-0.9-0.2,0.5l-0.2,0.4c-0.7-0.5-1.5-1.2-2.2-1.6c-0.9,1-2.3,2.9-3.3,3.6
			c-4,2.9-9.7,1-11.4-7c-0.9-4.2-0.6-8.1,1.5-11.6c1.9-3.1,5.5-4.9,9.1-2c0.1-0.1,0.1-0.3,0.2-0.2l4.2-6.6
			c-3.8-1.9-7.7-5.4-15.5-0.4c-1.6,1.1-2.5,1.9-3.7,3.2c-10.6,11.2-5.1,34.2,9.5,34.5c2.1,0,3.9-0.4,5.8-1.1
			c2.7-0.9,3.1-1.8,4.4-2.4c1.1-0.5,7.2-2,10-3.4l0.9-9.1l9.7-3.4l2.9,7.9c5.6-1.4,10.1-3.9,15.8-5.3l-1.7-12.4
			c2.7-0.9,5.3-1.7,7.6-2.9c8.3-4.4,10.5-11,6.8-20.3c0.9-0.7,5-2,6.1-2.2l4.1,29.8l8.8-2.9l-4.1-30c2.7-1.1,6.9-1.9,9.1-3.4
			c-0.8-1.5-1-5.4-1.3-7.5L-35,303L-34.7,305.9z"/>
		<path class="st17" d="M-0.3,314.2c0.1-2.7,0.4-5.3,0.6-7.9c0.1-1.4,0.1-2.7,0.2-4l0.5-4.1l5,13.7L-0.3,314.2z M13.5,286.1
			c-0.4,1.5,3.4,26,3.7,29.2l-12-26.2l-10.5,3.5c-0.8,2.5-6.3,39.8-6.2,41.7l9.4-3.2l1-9.3l9.6-3.3l3,7.9c2.1-0.5,14.6-4.8,15.7-5.6
			l-5.1-37.6L13.5,286.1z"/>
		<path class="st17" d="M33.7,291.7l-0.3-0.5c0.8,0.1,0.2-0.1,0.5,0.4c1,1.9,2.3,3.9,3.3,5.7l11.5,16.2l8.3-2.9L51.9,273l-8.3,2.7
			c0.2,4.2,1.1,9.2,1.7,13.4c0.6,4.3,2.3,8.4,2.9,12.4l-7.5-11.3c-1.5-2.1-6.6-9.6-7.9-10.8l-8.2,2.8l5.1,37.8l8.3-2.8
			C38.3,309.7,33.9,294.1,33.7,291.7z"/>
	</g>
	<g id="_495799933440">
		<path class="st18" d="M-126.7,278.9c-1.9,3.5-3,3.7-4.7,9.5c-1.3,4.3-1.3,8.3-2.1,12.6l0.6,1.1c1.5,3.6,2.1,8,5.4,14.2
			c0.6,1.2,6.9,11.9,8.4,12.4c1.1-0.5,5.4-10.3,6.6-12.2c1,0.4,1.5,0.9,2.2,1.8c1.2,1.5,2.2,1.6,3.3,3c0.5,0.6,0.2,0.4,0.8,1
			c0.4,0.4,0.8,0.6,1.2,0.9c0.9,0.8,0.4,0.1,0.9,1.2c-0.7,0.7-1.1,0.7-1.7,1.6l-4.2,5.8c-1.9,3-2.6,6.9-2.2,11
			c-3.4,0.2-12.8-2.7-16.1-4.1c1.5-1.1,4.7-0.8,5.8-2.5c0.8-1.3,1.6-4.1,2.7-5.4l-8.3-0.3l-7.7-0.1l-0.1-1l-0.6,8.3
			c1.7,0.9,7.7,2.3,10,2.9c2.5,0.7,8.4,2,9.9,2.8l-0.6,1.4c-0.1,2.8-4.9,17.2-6.5,18.8l-0.3,0.6c-0.3,1.7-2.2,7-5.5,6.5
			c-1-0.1-3.4-1.6-4.2-2c-1.5-0.9-2.9-1.5-3.4-2.8c-2-2.1-1.9-4.5-3.2-6c-0.1,0.8-0.1,1.1-0.1,0.5c0.1,2.5,1.7,6.6,3.1,7.8
			c1.1,0.9,5.8,3.2,7.9,3.4c-0.4,2.7-2.6,14.8-2.4,16.5c1.4,0,3.6-0.8,4.5-0.2c3.1-1.2,6-2.8,9.1-4.1c3.7-1.5,10.8-9.5,14-12.6
			c1.9-1.9,5.2-4.8,6.7-6.7c-0.6-0.7-5.8-3.4-7-4.9c-0.7-0.9,0.1-0.2-0.9-1c-0.9-0.7-0.3,0-1.1-1.1c-7.3-9.7-5.2-19.9,1.6-29.3
			c1.5-2.1,3.1-3.3,3.7-4.5c-2.1-1.3-5.5-4.7-7.9-6.4c-1.4-1-1.2-1.3-2.9-2.1c1.1-8.4,4.8-32.9,7.4-41.1c0.6-1.8,1.7-3.7,2.4-5.7
			c1.2-3.5,0.9-2.4,4.2-3.9c7.4-3.3,14.8-6.7,22.1-10.1c3.2-1.5,20.9-9.2,22.2-10.3l0.7-5.7c-15.2,2.3-30.6,7.7-41.8,15.2
			l-26.5,19.4L-126.7,278.9z"/>
		<path class="st18" d="M-27.6,363.6c1,0.6,6.1,0.6,7.3,0.8c-2,1.8-6.1,3.3-8.7,4.8c-2.5,1.4-6.4,3-8.5,4.7l24.1,11.7
			c-0.9,5.3-2.4,12-3.7,17.3l-7.5,34.5c-0.5,2.4,0,2.2-1.9,3.4l-9.7,5.9c-16.7,10.7-35.2,21.3-52,31.9l-1.5,0.8
			c-0.6,0.6-0.6,0.5-1.1,1.5c2.8-1.3,5.4-2.6,8.1-3.9c1.5-0.7,2.7-1.2,4.1-1.8c1.3-0.6,2.4-1.3,3.8-1.9c2.7-1.2,5.3-2.6,8.1-3.8
			c2.4-1.1,5.5-2.5,7.8-3.7c2.6-1.4,5.2-2.8,7.7-4.2c3.1-1.7,29.7-15.8,30.2-16.6c0.5-0.8,2.5-7.4,2.8-8.7
			c3.2-11.2,7.7-23.9,11.3-35.6l5.6-17.6c-0.5-1-3.4-3.1-4.6-4c-1.2-1-10.1-7.8-10.2-8.4c0-0.1-0.1-0.2-0.2-0.2
			c1.9-0.4,37.1-21.7,42.8-25.1L-27.6,363.6z"/>
		<path class="st18" d="M-17.7,529.1l-15.7-36.2c-0.9-2-0.4-2.4-2.8-2.8c-7.2-1.3-23.9-4.6-29.2-5.1l-5-5.3
			c-3.3,0.5-8.1,1.9-11.2,1.9l1.4,1.7c1.4,1.1,2.3,1.7,3.4,3.1l9.2,8.6c1.3,1.8,3.2,2.5,4.6,4.1c2.9,3.3,3.4,3,4.7,4.4
			c0.5,0.5,0.4,0.7,0.9,1.2c1.5,1.6,1.5,0.7,4.5,4.2c1.2,1.4,2.2,1.3,4.5,4.2l8.2,7.4c1.1,0.9,1.1,1.4,2.1,2.3l3.5,3
			c2.9,3.5,2.9,2.1,5.5,5.4c1.3,1.6,2.4,1.5,4.7,4.4c1.2,1.5,2.9,2.1,4.5,4.2c0.6,0.9,1.4,1.3,2.3,2.1c3.3,2.7,2,2,3.3,3.3
			c0.4,0.4,0.8,0.6,1.2,1c0.8,0.6,1.8,1.3,2.4,2c0.9,1,0.7,1.1,2.2,2L-17.7,529.1z"/>
		<path class="st18" d="M75.6,461.8c-3.8-10.6-8.7-21.8-13-32.4l-16.3-40.6c-2.4-6-2.4-4.5-1.1-8.1l12.4-33.2
			c1.3-3.4,5.6-13.9,6.2-16.3c-1.5,2.2-7.1,13.6-9,17.2c-7.6,14.3-14.9,29-22.5,43.1c-2.7,5.1-3.1,3.5,3.2,12.2c0.6,0.8,1,1.3,1.4,2
			L75.6,461.8z"/>
		<path class="st18" d="M-58.3,369.2c-1,1.7-2.1,1.9-4.4,2.9c-1.3,0.6-3.7,1.5-4.8,2.3c0.4,2.3,3.8,4.2,6.6,6.2l22,16
			c0.2,10-0.1,20.2-0.1,30.3c0,4.7-0.6,4.6-5.6,9.2l-7.6,7.3l2.4-1.2c4-2.4,7.8-4.4,11.7-6.8c6-3.6,4.8-1.1,6.5-11.9
			c1.6-10.6,3.7-21.3,5.5-31.8c-1.4-0.2-36.6-16.9-37.8-17.9c2.8-1.4,8.4-3.2,11.7-4.3c1.5-0.5,7.9-2.5,8.8-3.4
			c0.4-0.4,0.5-0.7,0.8-1.1l1.3-1.1c0.7-0.7,0.6-0.2,0.9-1.4L-58.3,369.2z"/>
		<path class="st18" d="M70.4,356.9c-0.6,1.8-7.2,26.9-7,28.3l15.8,43.2C81,424.4,70.8,357.4,70.4,356.9z"/>
		<path class="st18" d="M-16.1,549.3c-0.3-1.2-1.2-1.6-3.3-3.4c-0.4-0.4-0.7-0.4-1.1-0.8c-0.7-0.5-0.5-0.6-1.1-1.1
			c-0.4-0.4-0.7-0.4-1.1-0.8l-11-9.5l-24.2,12.9L-16.1,549.3z"/>
		<path class="st18" d="M-112.7,466.8c5.2-0.7,3.5-1.5,8.6,0.7l11.7,4.9c1.8,0.7,2.3-0.2,3.6-1.2c7-5,16.2-10.8,23-15.8l10.1-6.9
			c0.8-0.4,4.7-3.2,5.4-4.1l0.2-0.4c-1.3,0.2-14,8-15.7,8.9c-5.3,3-10.2,6.1-15.6,9.1c-2.7,1.5-5.1,3.1-7.9,4.6
			c-1.4,0.8-2.5,1.9-4.1,1.2l-12.6-5.5c-5.5-2.5-6.1-3.4-8.8-2.1L-112.7,466.8z"/>
		<path class="st18" d="M83.1,439.9l24.2,65.7c0.1-3.6-0.2-7.7-0.3-11.3c-0.2-3.8,0.3-6.8-1.3-9.9c-2.6-4.9-4.9-9.8-7.5-15L85,443.3
			C84.5,442.2,83.3,440.2,83.1,439.9z"/>
		<path class="st18" d="M-81.8,418.4c1.5,5.6,10.3,3.6,8.9-2.4C-74.1,410.6-83.6,412.1-81.8,418.4z"/>
	</g>
	<g id="_495799935936">
		<path class="st19" d="M-52.2,443.4l7.6-7.3c5-4.6,5.6-4.5,5.6-9.2c0-10,0.3-20.3,0.1-30.3l-22-16c-2.8-2-6.1-3.9-6.6-6.2
			c1.1-0.8,3.5-1.8,4.8-2.3c2.3-1,3.4-1.2,4.4-2.9l-30.1,11.3l11.8,0.2c0.4,2.5-0.9,25.6-1.2,29.6c5.6-0.3,8.6,4.9,7,9.2
			c-0.9,2.5-1.7,2.2-2.2,3.3c0.8,1.6,2.4,2.4,3.6,3.4c0.9,0.8,0.8,1.1,1.7,1.8c1.5,1.3,1.2,0.2,2,2c-2.5,0.4-39.9,24.4-43,25.4
			l-4.3-4.2c-0.7-0.6-0.8-0.5-1-1.4l-7,1.9l4.4,6.9c3.7-1.8,5.4-0.3,9.1,1.3l13.1,5.4c2.2,0.9,2.3,1.4,4.2,0.3L-52.2,443.4z"/>
		<path class="st19" d="M44.9,272.3c2.1-0.4,8.1-3,9.4-2.9c0.5,4.7,3.7,39.9,4.3,41.1c2.2,0.2,2.5-3.3,4-7.4c1-2.6,1.9-5.9,2.5-8.8
			c1.5-6.9,2.8-13.5,1.9-20.7c-1-7.5-5.7-13.9-8.9-19.2c-1.7-2.8-5.4-7.1-7.8-9.4c-1.1-1.1-1.5-2.1-2.7-3c-1.4-1.1-1.7-1.6-2.9-2.7
			c-1-0.9-1.7-2.1-2.8-2.8l-3.1-2.5c-9.6-8-26.6-14.7-39.3-17.5c-3-0.7-6.4-2-9.3-2.3l5,2c7.3,2.6,19.9,9.1,26.1,14.2
			c4.4,3.6,7.8,7.6,10.7,12.4c1.8,2.9,3.4,5.6,5,9c1.5,3.2,2.9,6.5,4.2,9.8C42.6,265.1,43.5,268.8,44.9,272.3z"/>
		<path class="st19" d="M-38.8,367.6l-14.9,4.9c-0.1,0-0.8,0.3-0.9,0.3l-1.1,0.7l32,14.9c-0.5,7.5-3.1,26.4-4.5,33.9l-2.4,12
			c-0.5,2.4,0,2.1-1.7,3.3c-0.9,0.6-1.7,1.3-2.7,2c-1,0.7-2.1,1.4-2.9,2.1L-71.5,466c-1.9,1.4-3.7,2.8-5.6,4.1l-5.6,4.1
			c-1,0.8-1.8,1.3-2.7,2c-1.2,0.9-2,1.4-2.8,2.4c16.8-10.6,35.3-21.2,52-31.9l9.7-5.9c1.9-1.1,1.4-1,1.9-3.4l7.5-34.5
			c1.3-5.3,2.8-12,3.7-17.3l-24.1-11.7c2.1-1.7,6.1-3.4,8.5-4.7c2.6-1.5,6.7-3,8.7-4.8c-1.2-0.1-6.3-0.1-7.3-0.8L-38.8,367.6z"/>
		<path class="st19" d="M98.7,498.1c-0.6-2.8-2.7-7.9-3.7-10.8l-11.3-31.8c-5.2-14.3-9.7-28-15-42.4c-2.6-6.9-5.2-14.2-7.5-21.2
			c-0.6-1.9-1.3-3.5-1.9-5.3c-1.1-3.3-1.2-2.7-0.6-5.4c1.5-6,13.7-54.9,14.1-57.8c-2.8,3.2-19,46.8-22.2,55.5c-1,2.6-1.9,3-0.7,5.5
			C55.6,397.3,96.9,496.1,98.7,498.1z"/>
		<path class="st19" d="M-62.9,481.6c1.7,0.1,0.6,0.7,3.3,1.1c4.3,0.7,26.5,3.9,27.1,4.4c0,0,16.2,36,16.2,37.1
			c0.3-0.4,0.2,0,0.2-0.8l-6.8-28.8c-1.2-4.8-1.7-5.1,0.4-6.6l7.2-6.5c0.5-0.5,0.9-0.6,1.4-1.1c1.2-0.9,3.9-4,6.1-5.1
			c-0.7-0.6-0.6-0.5-1.8,0l-11.6,4.4c-2.3,0.9-4.5,1.7-6.8,2.6c-3.9,1.5-3.1,1.3-7.4,0.7c-4.7-0.7-29.5-4.5-31.9-4.4
			C-65.9,479.7-63.7,480.6-62.9,481.6z"/>
		<path class="st19" d="M-112.7,466.8l1.2,4l21.7,6.1l22.4-18.4c0.4-0.4,0.6-0.5,1-0.9c0.5-0.4,0.6-0.4,1.1-0.8
			c2.1-1.7,8.4-6.7,9.7-8.4l-10.1,6.9c-6.8,5-16,10.8-23,15.8c-1.4,1-1.8,2-3.6,1.2l-11.7-4.9C-109.2,465.3-107.4,466.1-112.7,466.8
			z"/>
	</g>
	<path class="st20" d="M-16.4,524.2c0,0.8-0.3,0.5,0.1,1c1.3-0.3,0.6,0,0.3-0.3c-2.1,4.1,0.1,3.1-1.6,4.2l8.3,18.6l75.7,28.1
		c2.3,0.9,4.5,1.9,6.6,3.2c0-0.1,0.1-0.1,0.1-0.2l52-91.3c-8.8-0.7-17.2-4.7-23.3-11.1c1.3,2.7,2.6,5.3,4,8c1.6,3.1,1.1,6.2,1.3,9.9
		c0.1,3.6,0.4,7.7,0.3,11.3l-24.2-65.7c0.2,0.3,1.4,2.4,1.9,3.4l4.8,9.6L79.4,424c0.1,2.3,0.1,3.8-0.1,4.3l-15.8-43.2
		c-0.1-1,3.5-15.5,5.6-23.4l-0.7-16.4c-0.1-1.5,0-2.9,0.1-4.3c-3.8,15.6-9,36.4-10,40.2c-0.7,2.7-0.5,2.1,0.6,5.4
		c0.6,1.8,1.3,3.4,1.9,5.3c2.3,7,5,14.3,7.5,21.2c5.4,14.4,9.8,28.1,15,42.4l11.3,31.8c1.1,2.9,3.1,7.9,3.7,10.8
		c-1.8-2-43-100.8-49-113.5c-1.2-2.5-0.2-2.9,0.7-5.5c3.1-8.3,17.9-48.3,21.8-54.8c-1.3-2.5-2.4-5.2-3.1-8l-4.8-18.5
		c-0.5,1.9-1.1,3.8-1.7,5.4c-1.5,4-1.8,7.6-4,7.4c-0.6-1.2-3.8-36.4-4.3-41.1c-1.4-0.1-7.3,2.5-9.4,2.9c-1.4-3.5-2.3-7.2-3.7-10.7
		c-1.3-3.3-2.7-6.6-4.2-9.8c-1.6-3.4-3.3-6.1-5-9c-2.9-4.8-6.3-8.9-10.7-12.4c-6.2-5.1-18.9-11.6-26.1-14.2l-5-2
		c1.3,0.1,2.8,0.5,4.2,0.9c-0.7-0.3-1.3-0.7-2-1.1h-18.8l-3.5,1.1c-1.5,0.5-3,0.9-4.5,1.2c0.7-0.1,1.4-0.1,1.9-0.1
		c-1.1,0.7-10.4,3-12.7,3.8c-16.2,5.1-32.1,10.5-46.7,18.9c-0.7,0.4-0.6,0.4-1.3,0.9l-3.5,2.5c-0.8,0.6-1.4,1.1-2.3,1.8
		c-6.4,5.2-16.3,11.2-24.1,13c0.1-0.4,1-1.3,2-2.4l-4.3,2.8l-2.3,3.8c7.4-0.8,16.7-5.7,23.3-8.5c7.3-3.1,2.5-2.1,7-0.9
		c-0.7,0.8-11.7,7.3-13.7,8.6l-11.4,8.9c-0.3,0.3-0.5,0.4-0.9,0.7l-3.5,3.7c-0.9,1-0.8,1.2-1.6,2.1c-0.9,1.1-0.8,0.9-1.4,2.3
		c1.7,1.2-0.8-1.7,0.2,1.2l0.9,1.2c0.2-1,0.3-0.8,0.6-1.7c0.6-0.1,0.2-0.2,1.1,0.1l5.4-5.7l26.5-19.4c11.2-7.6,26.6-12.9,41.8-15.2
		l-0.7,5.7c-1.3,1.2-18.9,8.8-22.2,10.3c-7.3,3.4-14.7,6.8-22.1,10.1c-3.4,1.5-3,0.4-4.2,3.9c-0.7,2-1.8,3.9-2.4,5.7
		c-2.7,8.2-6.4,32.7-7.4,41.1c1.7,0.8,1.5,1.1,2.9,2.1c2.4,1.8,5.7,5.2,7.9,6.4c-0.6,1.2-2.2,2.4-3.7,4.5
		c-6.8,9.4-8.9,19.6-1.6,29.3c0.8,1.1,0.3,0.4,1.1,1.1c1,0.8,0.1,0.1,0.9,1c1.2,1.5,6.4,4.2,7,4.9c-1.5,1.9-4.8,4.8-6.7,6.7
		c-3.1,3.1-10.3,11.1-14,12.6c-3.1,1.3-6,2.9-9.1,4.1c-1.2,0.7-2.1,1-3.3,1.6c-1.5,0.7-1.5,1.1-3,0.3c-2.2-1.1-10.9-5.4-15.8-7.9
		c-0.2,0.4-0.3,0.8-0.5,1.2c4.2,2,8.7,4.3,13,6.5c4.7,2.4,3.4,2.7,8.2,0.4c2.7-1.2,5.5-2.4,8.3-3.6c1.4-0.6,2.8-1.2,4.1-1.8
		c0.8-0.4,1.6-0.7,2.1-1.1c0.7-0.6,0.6-0.8,1.3-1.5c1.3-1.2,1.9-1.2,3.2-2.8l6.3-5.6c0.8-0.7,0.7-1,1.5-1.7c1.5-1.4,1.5-0.8,3.2-2.8
		c0.5-0.7,0.8-0.8,1.5-1.3c2.3-1.8,0.8-0.9,3.8-0.6l-1.7,15.2l16.1,0.1l-0.2,15.6c-1.1-0.5-1.4-1.2-2.5-1.7
		c-1.7,4.8-1.7,12.9-3.9,15.8l-3.3,3.4c-1.4,2.3-4.8,5.4-6.1,6.9c-0.7,0.8-0.7,1.2-1.5,1.9c-1,0.9-0.8,0.6-1.5,1.6
		c-0.9,1.2-1.2,1.1-2.9,3.3c-0.5,0.6,0.1-0.1-0.5,0.5c-2.3,2.2-0.6,1.7-3.5,3.6c-0.9,2.2-1.3,1.4-2.8,3.6l-4.6,5.1
		c-0.6,0.7-0.7,1.1-1.3,1.7c0,0.4,0.1,0.8,0.1,1.2c0.5-0.5,1.2-1.2,2-2l3.6-4.2c1-1.3,0.7-0.3,2.5-2.8c1-1.4,0.8-0.6,2.5-2.8
		l3.9-4.2c0.6-0.6,0.6-0.7,1.1-1.4c0.7-0.9,0.7-0.6,1.4-1.4c0.5-0.5,0.6-0.9,1.1-1.4c0.8-1,0.7-0.6,1.4-1.4l8.6-9.9
		c0.7-0.9,1-0.8,1.4-1.4c0.6-0.9,2.5-11.5,2.9-13.2c2.1,1.3,1.9,3.3,1.8,4.9c-0.2,2.1-0.3,4.6-0.3,6.8c-3.2,2.1-5.9,4.7-3.9,9.4
		c2.5,6,8.1,3.3,9.7,4.3c0.4,0.2,3.9,3.7,4.5,5.2l-19.3,11.9c-6.1,3.9-12.3,7.6-18.5,11.4c0.5,0.3,1,0.6,1.4,0.9
		c9.5-5.4,38-23.5,40.2-23.9c-0.8-1.7-0.4-0.7-2-2c-0.9-0.7-0.7-1-1.7-1.8c-1.2-1-2.8-1.8-3.6-3.4c0.5-1.1,1.3-0.8,2.2-3.3
		c1.6-4.3-1.5-9.6-7-9.2c0.4-4,1.7-27,1.2-29.6l-11.8-0.2l48-18c-0.3,1.1-0.2,0.7-0.9,1.4c0.4,1.5-0.7,2.4-1.9,2.7
		c1.2,0.6,0.3-0.4,0.3-0.4c0.3,0.3,0.3,0.7,1,1.1c0.5,0.3,1.3-0.1,1.3-0.1c0.1,0,0.8-0.6,1.8,0.5l11.2-4l54.3-18.2
		c-5.7,3.3-40.9,24.6-42.8,25.1c0.1,0.1,0.1,0.1,0.2,0.2c0.1,0.6,9,7.4,10.2,8.4c1.1,0.9,4.1,3,4.6,4l-5.6,17.6
		c-3.5,11.6-8.1,24.3-11.3,35.6c-0.4,1.3-2.4,8-2.8,8.7c-0.5,0.8-27.1,14.9-30.2,16.6c-2.6,1.4-5.1,2.7-7.7,4.2
		c-2.3,1.2-5.4,2.6-7.8,3.7c-2.8,1.2-5.3,2.6-8.1,3.8c-1.3,0.6-2.4,1.2-3.8,1.9c-1.4,0.7-2.6,1.1-4.1,1.8c-1.9,0.9-3.9,1.9-5.8,2.8
		c0.1,0.1,0.2,0.3,0.3,0.4c2.6,0.1,5.3,0.5,7.8,1.1c3.1-0.3,7-1.4,9.9-1.8l5,5.3c0.8-0.7-1.2-0.7,1.7-0.7c-0.5-0.7,0.1-0.6-0.6-1.1
		c1.4,0,0.3,0.1,0.9-0.2l0.8-0.5c-0.1-0.1-0.4-0.2-0.4-0.3c-0.4-0.9-0.8,0.4,0-0.6c-0.7-1-3-1.9-4.2-2.9c2.4-0.1,27.2,3.8,31.9,4.4
		c4.3,0.6,3.5,0.8,7.4-0.7c2.3-0.9,4.5-1.7,6.8-2.6l11.6-4.4c1.2-0.5,1-0.5,1.8,0c-2.2,1-4.9,4.2-6.1,5.1c-0.6,0.4-1,0.6-1.4,1.1
		l-7.2,6.5c-2.1,1.4-1.6,1.8-0.4,6.6l6.8,28.8C-16.2,524.2-16.1,523.8-16.4,524.2z M-12.2,546.7c-0.4-0.3-0.7-0.6-1.1-0.9
		c0,0.2,0.1,0.3,0.1,0.5L-12.2,546.7z M-81.8,418.4c-1.7-6.3,7.7-7.8,8.9-2.4C-71.5,422-80.3,424-81.8,418.4z M73.2,325.9
		c-0.3-0.4-0.5-0.8-0.7-1.3c-0.2,1.1-0.7,2.9-1.2,5.2C71.8,328.5,72.5,327.2,73.2,325.9z M49.7,241.6c-1.4-0.4-2.9-0.8-4.3-1.4
		c0.6,0.6,1.1,1.1,2.1,1.9c1.2,0.9,1.6,1.9,2.7,3c0.1,0.1,0.2,0.2,0.3,0.3C50.2,244.1,49.9,242.8,49.7,241.6z M-40.2,216.9l-1.6,0.6
		c1.2-0.2,2.3-0.5,3.4-0.6C-39,216.9-39.6,216.9-40.2,216.9z M-148.9,286.5c0.1,0.5,0.1,1,0.2,1.5c0.4-0.7,0.7-1.5,1.1-2.2
		C-148,286.1-148.4,286.3-148.9,286.5z M-110.1,451.3c-0.9-1.3-1.4-2-3.1-2c0.1,0.2,0.2,0.5,0.2,0.7
		C-111.9,450.4-111,450.9-110.1,451.3z M-89.6,478.4l0.2-0.2c0,0,0.1-0.1,0.2-0.1l-0.7-1.1l-1.1-0.3l0,0.2
		C-90.4,477.3-90,477.9-89.6,478.4z M-94,467.6l0.7,0.3c1.6,0.7,2.7-0.4,4.1-1.2c2.7-1.6,5.2-3.1,7.9-4.6c5.4-3,10.3-6.1,15.6-9.1
		c1.6-0.9,14.4-8.7,15.7-8.9c0-0.1,0.1-0.3,0.1-0.3c0,0,0.1-0.2,0.1-0.2c0,0,0-0.1,0.1-0.1l0.1-1.3l-2.4,1.2l-38.3,22.1
		c-1.9,1.1-2.1,0.6-4.2-0.3l-0.9-0.4C-95,465.7-94.5,466.7-94,467.6z M-81.6,366.7l-0.4,0.1l1.4,7.6l-5.1,1.8
		c-0.6-0.7-0.9-1.6-1-2.7l-3.5,1.3c-0.5,4,0.2,3-3.6,4.2l2.1-14.3l3.7-1.3c0.8,1.7,3.2,6.6,3.5,8.4c0.5,0,0.3,0.1,0.4-0.6l-1.1-8.8
		l2.9-1l2,3.5c0.6,1,1.1,2.4,1.8,3.1c1.9-5.5-1.2-7.8,4.4-9.4c0.9,2,1.6,10.3,1.9,13l-2.9,0.9l-0.7-8.1c-0.5,1.1-0.6,2.9-0.9,4.3
		c-0.1,0.7-0.3,1.4-0.4,2.1c-0.7,3.3-1.8,1.3-2.9-0.8C-80.7,368.7-81.1,368.2-81.6,366.7z M-52.9,351.1l0.7,0l0.1,1.2
		c0.2,2.2,1.7,10.4,1.3,11.8c-1.7,0.7-4.2,1.8-5.9,1.8c-1-1.3-2.5-3.8-3.4-3.3c-1.2,0.7-0.1,1.7-0.1,4.7l-2.8,0.9l-0.2-0.8
		c-0.8,0-0.7-0.2-0.6,0.3l0,0.9l-7.3,2.6l-1.7-13.1l7.3-2.6c1.2-0.1,0.7-0.5,0.9,0.1c0.2-0.6,0.6-0.6,1.6-0.9
		c0.7-0.2,1.4-0.4,2.1-0.7c1.3-0.4,2.9-0.8,4.2-0.2c3.9,1.9,0.1,7.3,0,7.5c1.7,0.6,1.1,1.8,3.3,3.2l-1.7-12.5L-52.9,351.1z
		 M-36.5,345.7l5.3,11.9l-3.1,0.9l-1.1-2.6l-3.2,1.3c-0.3,2.2,0.3,3-1.7,3.6l-3.6,1.5c-3.2,1.3-5.7-0.8-6.5-3
		c-2.8-7.5,4-12.8,7.7-9.4l-1.3,2.1c-0.9-0.1-1.7-0.6-2.7,0c-2.1,1.4-1.4,6.6,0.3,7.5c3.7,1,1.7-1.7,4.5-1l1.7-11.4L-36.5,345.7z
		 M75.6,461.8L37,405.7c-0.4-0.6-0.9-1.2-1.4-2c-6.3-8.7-5.9-7.1-3.2-12.2c7.6-14.1,14.9-28.8,22.5-43.1c1.9-3.6,7.5-15,9-17.2
		c-0.6,2.4-4.9,12.8-6.2,16.3l-12.4,33.2c-1.3,3.6-1.3,2.1,1.1,8.1l16.3,40.6C66.9,440,71.8,451.2,75.6,461.8z M-35.1,306.4
		c0.6,0.1,0.4,0.2,0.5-0.5L-35,303l26.5-9.1c0.3,2,0.4,6,1.3,7.5c-2.2,1.5-6.4,2.4-9.1,3.4l4.1,30l-8.8,2.9l-4.1-29.8
		c-1,0.2-5.2,1.6-6.1,2.2c3.7,9.3,1.5,15.9-6.8,20.3c-2.3,1.2-4.9,2-7.6,2.9l1.7,12.4c-5.7,1.4-10.2,3.9-15.8,5.3l-2.9-7.9l-9.7,3.4
		l-0.9,9.1c-2.8,1.4-8.8,2.9-10,3.4c-1.3,0.6-1.7,1.5-4.4,2.4c-1.9,0.7-3.7,1.1-5.8,1.1c-14.6-0.3-20.2-23.3-9.5-34.5
		c1.2-1.3,2.1-2.1,3.7-3.2c7.8-5,11.7-1.5,15.5,0.4l-4.2,6.6c0-0.1-0.1,0.1-0.2,0.2c-3.6-2.9-7.1-1.2-9.1,2
		c-2.2,3.5-2.4,7.4-1.5,11.6c1.7,8,7.4,9.9,11.4,7c1-0.7,2.4-2.6,3.3-3.6c0.7,0.4,1.4,1.1,2.2,1.6l0.2-0.4c0.5-1.4-0.3,1.2,0.2-0.5
		c0.1-0.3,0.1-0.7,0.2-1.1l2.2-14.7c0.8-5.5,1.8-11.3,2.5-16.7l10.6-3.5l12,26l-3.9-29.1C-51.6,309.2-41.2,303.4-35.1,306.4z
		 M22.1,283.3l5.1,37.6c-1.1,0.8-13.7,5-15.7,5.6l-3-7.9l-9.6,3.3l-1,9.3l-9.4,3.2c-0.2-1.9,5.4-39.2,6.2-41.7l10.5-3.5l12,26.2
		c-0.2-3.2-4.1-27.6-3.7-29.2L22.1,283.3z M33.9,291.7l-0.2,0c0.2,2.4,4.6,18,4.4,25.6l-8.3,2.8l-5.1-37.8l8.2-2.8
		c1.2,1.2,6.3,8.7,7.9,10.8l7.5,11.3c-0.6-3.9-2.3-8-2.9-12.4c-0.6-4.2-1.5-9.2-1.7-13.4l8.3-2.7l5.1,37.7l-8.3,2.9l-11.5-16.2
		C36.2,295.6,34.9,293.6,33.9,291.7z M-82,277.1l-3.4,1.4l-1,3.8l13.3-5c4.3-1.7,8.6-3.3,12.9-4.9c4.4-1.8,8.3-3.6,12.5-5.3
		c3.9-1.7,8.5-4.3,12.3-5.6l-0.4,0.9l15.5-6.4c-1.3,2.3-2.1,2.5-3.1,3.5c-1.5,1.5-0.5,1.2-3.1,3.5c-1.3,1.1-0.7,1.3-3.1,3.4
		c-1.3,1.1-1.6,2.3-3.1,3.5c-2.3,1.8-6.9,8.6-9.9,9.8l-33.4,12.5c-2.7,1-7.1,3-9.5,3.4c-0.8,0.9-0.5,0.5-1.7,0.9
		c-0.8,0.2-0.8,0.3-1.7,0.3c-1.1,0.2-1.2-0.7-1.4,3.4c3.1-0.4,21.4-8.8,24.2-9c1-0.8,2.5-1.1,3.8-1.7l0.7-0.2l-0.4,0.4
		c-0.8,2.3-3.1,5.6-4.3,8c-1.1,2.1-1,2.2-3.3,2.9c-6.2,2.1-17,5.8-22.1,8.1c0.4,0.5,11.8,8.9,13.1,9.2c-0.7,1.4-3.1,3.4-4.2,4.5
		c-1-0.5-7.3-4.5-7.5-4.5c-0.5,0-6.9,3.6-7.4,4.1c-1.9-1-5.7-4.9-6.3-6.3c-1-0.5-1.2-1.1-2.3-1.7c0.2-3.7,5-29.5,6.1-35.3
		c1.7-9.6-0.4-6.9,9.7-10.9l51.5-20.6c5.8-2.3,14.9-7,21.1-9.6l-0.4,1l15.6-6.5c-0.9,1.9-1.8,1.7-3.7,4.3c-1.2,1.7-1.2,1.1-2,2
		c-0.6,0.7-1,1.4-1.6,2.1c-0.8,0.9-1.2,0.9-2.1,2c-2.1,2.8-5.4,5.8-7.2,8.1c-0.9,1.1-1,0.9-1.9,1.8c-0.7,0.7-1.1,1.6-1.8,2.3
		c-1.1,1.2-33.4,12.9-36.1,13.9C-67,271.2-74.6,274.6-82,277.1z"/>
	<path class="st20" d="M-47.8,315.2l1.4,10.6c3.8-0.8,8.8-2.7,8.5-7.5C-38.4,311.9-43.9,313.6-47.8,315.2z"/>
	<path class="st20" d="M5.9,311.9l-5-13.7l-0.5,4.1c-0.1,1.4,0,2.6-0.2,4c-0.2,2.6-0.5,5.2-0.6,7.9L5.9,311.9z"/>
	<polygon class="st20" points="-71.3,338.7 -65,336.6 -70.2,322.7 	"/>
	<path class="st21" d="M-79.8,410.5c0-2.1,0.2-4.6,0.3-6.8c0.1-1.6,0.3-3.6-1.8-4.9c-0.5,1.8-2.3,12.3-2.9,13.2
		c-0.4,0.6-0.7,0.5-1.4,1.4l-8.6,9.9c-0.8,0.8-0.7,0.4-1.4,1.4c-0.4,0.6-0.6,0.9-1.1,1.4c-0.7,0.8-0.7,0.5-1.4,1.4
		c-0.5,0.7-0.5,0.8-1.1,1.4l-3.9,4.2c-1.7,2.2-1.5,1.4-2.5,2.8c-1.8,2.5-1.5,1.6-2.5,2.8l-3.6,4.2c-4,4-3.9,4-7.2,3.7l-0.5-2.3l-2,6
		c11.6-2.1,9.3-1.3,12.9,3.1c6.6-4,13.2-8,19.6-12.1l19.3-11.9c-0.6-1.5-4.2-5-4.5-5.2c-1.6-1.1-7.2,1.6-9.7-4.3
		C-85.7,415.2-83.1,412.6-79.8,410.5z"/>
	<path class="st22" d="M-100.4,397.9c0,4-0.6,7.8-0.7,12c0,4.3-0.2,8.6-0.1,12.8c-1-1.1-8.9-14.1-8.9-14.7c0-0.6,5.9-16.3,6.5-17.3
		c5.4-0.3,10.8-1.2,16-2.2L-100.4,397.9z M-131.6,397.5c0.1,0,0.2,0,0.3,0.1c0,0.1,0.4,0.2,0.5,0.3c0.1,0.1,0.4,0.6,0.5,0.7
		l24.9-9.8c-0.3,1.1-0.8,2.1-1.3,3.1c-0.6,1.4-1,1.7-1.3,3.2c0.2,0.1,0.7-0.3,0.2,1.6c-3,11.7-5.5,7.8,0.2,17.5l2.4,4.2
		c0.7,1.3,0.5,1.2,0.3,1.5c0.4,1.2-0.1,0,0.3,0.7c0.5,1,2.5,3,3.5,5.4c-1.2,0.2-3.3,1.6-4.8,2.2l4.7,1.1c1.6-2.2,2-2.1,2.9-3.3
		c0.7-1,0.5-0.8,1.5-1.6c0.8-0.7,0.9-1.1,1.5-1.9c1.2-1.5,4.7-4.6,6.1-6.9c2.4-5.2,2-8.2,2.9-15c0.6-4.3,0.4-3.3,2.3-6.7
		c1-1.7,0.4-3.1,0.3-5.9c0-0.5,0-0.6-0.1-1.1c-0.1-0.6-0.2-0.6-0.3-0.9c-4.4,0.6-9.4,1.4-13.8,1.7c-1.9,0.1-4.9-0.6-6.8-0.9
		c-3-0.5-3.1,0.2-5.6,1.3C-113.4,389.6-129.7,397.2-131.6,397.5z"/>
	<path class="st23" d="M-135.9,291.1c-1.9,4.6-2.6,13-2.9,18.4c-0.2,4.7-0.8,16.5-0.1,20.7l-0.1,6.6l-6.8,0.3
		c-0.7,0.9-2.9,4.4-3.2,5.4c0.8,0-0.1-0.1,0.9,0.1c0.7-0.2,0,0.2,0.7-0.5l2.7-2.3c0.8,0.5,3.9,3.6,4.4,4.4c-1,0.5-2.6,2.1-2.8,2.5
		c-0.9,1.8,2.8,10.4,2.7,13.1c1.3,1.5,1.2,3.9,3.2,6c-0.6-1.7-0.3-0.5,0.3-0.8c-0.6-0.9-1.2-1.9-1.1-3c-0.3-1.8-1.1-2.1-1.3-3.8
		c-0.5-2.2-2.9-9.7-2.5-11.3l2.4-2.1c-0.2-1.2-0.4-0.4-0.4-1.9c2.9-1.4,5.4-1.9,9.1-1.5l-3.1-0.5c2.2-0.5,6.4,0.7,8.7,1.2
		c2.4,0.5,6.3,0.8,7.6,2.7l0.6-1.4c-1.5-0.8-7.4-2.1-9.9-2.8c-2.3-0.6-8.2-2-10-2.9l0.6-8.3l2.5-28.3c0.8-4.3,0.8-8.2,2.1-12.6
		c1.7-5.7,2.8-6,4.7-9.5c-0.9-0.2-0.5-0.2-1.1-0.1c-0.3,1-0.4,0.8-0.6,1.7l-0.9-1.2c-1-2.9,1.4,0-0.2-1.2
		C-131.6,279.8-134.8,287.8-135.9,291.1z"/>
	<path class="st24" d="M-122.9,257.1c7.8-1.8,17.7-7.8,24.1-13c0.9-0.7,1.5-1.1,2.3-1.8l3.5-2.5c0.7-0.5,0.6-0.5,1.3-0.9
		c14.6-8.4,30.5-13.9,46.7-18.9c2.3-0.7,11.6-3.1,12.7-3.8c-6-0.1-19.6,3.6-26.5,5.6c-8.2,2.4-16.6,5.4-24.4,8.7
		c-7.9,3.4-19.7,9.4-26.4,14.5c-1.6,1.2-3.2,2.5-4.8,3.7C-116.1,249.8-122.5,256-122.9,257.1z"/>
	<path class="st25" d="M-136,329.2l0.1,1l7.7,0.1c1.6-0.1,3.7,0,5.3,0.1c2.5,0.1,3.4,0.7,3.7-1.8c-1.5-0.5-7.7-11.2-8.4-12.4
		c-3.4-6.2-3.9-10.7-5.4-14.2l-0.6-1.1L-136,329.2z"/>
	<path class="st26" d="M-66.4,291.1c0.2,0.4-1.5,2.7-1.9,3.3c-3.6,5.3-2.2,5.1-5.6,6.2c-1.4,0.5-2.8,0.9-4.2,1.4c-2.9,1-5.7,2-8.6,3
		c-2.3,0.8-6.5,2-8.5,3c1,2,2.4,4.1,3.3,6.1c-0.7,0.7-1.8,1-2.8,1.5c-0.8,0.4-1.9,1-2.7,1.1c-1.8,0-4.7-1.1-7-1.1
		c0.6,1.4,4.5,5.3,6.3,6.3c0.5-0.5,6.8-4.2,7.4-4.1c0.3,0,6.6,4,7.5,4.5c1.2-1.2,3.5-3.1,4.2-4.5c-1.4-0.3-12.8-8.7-13.1-9.2
		c5.2-2.3,15.9-6,22.1-8.1c2.3-0.8,2.2-0.9,3.3-2.9c1.2-2.4,3.6-5.7,4.3-8l-0.3-0.2C-63.9,290-65.4,290.3-66.4,291.1z"/>
	<path class="st27" d="M-139.2,358.1c1.3-1.5,3.3-5.6,4.7-7.7c0.7-1.2,1.3-1.1,2.7-1.4c2.4-0.4,4.6-0.9,7-1.4c7.3-1.5,4.3-0.4,6-0.4
		l0.8-2.8c-1.7-1.2-10.1-2.9-12.5-3.1c-3.6-0.4-6.1,0.1-9.1,1.5c0.1,1.5,0.2,0.7,0.4,1.9l-2.4,2.1
		C-142.2,348.4-139.8,355.9-139.2,358.1z"/>
	<path class="st28" d="M-157.8,399l14,0c0.4-1.5,0.7-2.5,1.2-3.8c0.9-2.6-0.7-2.7-2-3.7c-0.6-0.5-0.1-0.1-0.6-0.6
		c-1.4-1.4-2.7-2-4.1-3.7c-1.4,0.2-3.4,1.7-5.1,2.6c-1.5,0.8-0.7-0.1-1.3,1.2C-155.9,391.6-157.7,398.2-157.8,399z"/>
	<path class="st29" d="M-148.1,342.5c-2.7,6.1-2.1,7.4-1.4,15.9c0.5,5.9-0.4,3.4-3.9,8.2l-7.2,8.4c-0.5,0.5-0.9,1.2-1.4,1.9l2.9,4.1
		c2.2-0.3,4.1-1.5,6.2-1c-0.1-0.1-0.2-0.4-0.3-0.5c-0.8-1-2.2-0.7-5.1-0.8c-0.3-2.2-0.1-1.9,1.8-4.4l5.7-7.4c0.7-0.8,2.7-3.2,2.8-4
		c0.2-1.4-1.3-9.4-1.6-11.4c-0.7-4,2.6-6.1,3.7-9.3c2.4,1.3,1.4,1.6,1.3,4.5c-0.1,2.1,0.5,3.1,1.1,5c0.6,2,1.9,7.5,2.9,8.6
		c0,0.5,0.1,0.2,0.1-0.5c0.1-2.6-3.7-11.3-2.7-13.1c0.2-0.4,1.8-2,2.8-2.5c-0.5-0.8-3.6-3.9-4.4-4.4l-2.7,2.3
		C-148.1,342.7-147.4,342.4-148.1,342.5z"/>
	<path class="st30" d="M-122.8,430.4l0.6,1.6l5.4,3c0,1.4-0.1,8.9-0.9,10c0.6,2.5,2.7-0.1,3.8-1.1c0.7-0.6,0.8-1,1.4-1.8l4.6-5.1
		c1.5-2.2,2-1.4,2.8-3.6c-1.3-0.1-2.9,1.3-4.2,1.6c-1.4,0.4-3.1-0.7-4.5-1.1l-0.4-3.5C-114.3,430.6-121.9,429.6-122.8,430.4z"/>
	<path class="st31" d="M-129.2,362.4c-1,0.3-2.1,0.7-3.2,1c-0.7,0.2-3.4,0.2-2.8-0.6l-0.1-0.7l-0.4,0.1c-0.4,0.4,0.4,0.7-1,0.2
		c-0.5-0.2-0.1-0.2-1.2-0.5l-0.2,0c0,1.1,0.6,2.1,1.1,3c1.7,2.5,0.8,1.6,3.7,2.9c1.5,0.7,3.1,1.8,5,1.6c2.4-1.4,2.5-3.2,4-5.3
		l0.3-0.6l2-6.1c-1.7,0.9-1,0.7-2.2,1.8c-1.1,1-0.5,0.1-1.9,1.9c-0.8,1.1-2.5,2.6-4.7,2.9L-129.2,362.4z"/>
	<path class="st32" d="M-136,357.5l1,0.4c0.5-0.9,0.2-0.5,0.9-1l0.3,1.7l-0.1,0.7c0.9,1.3-0.5,2.3-1.4,2.8l0.1,0.7l4.7-0.7
		c-1.3-1,0-1.5-1.1-3.8c-0.6-1.3-1.3-1.5-1.8-2.7c-0.7,0.3-1.3,0.5-1.7,0.9C-135.5,356.7-135.6,357.2-136,357.5z"/>
	<path class="st33" d="M-136.6,359.4c0.7,1.1,0.7,1.4,1,2.7l0.4-0.1c1-0.5,2.4-1.5,1.4-2.8c-0.3,0.7-0.2,0.5-1,0.8l-0.2-2.2l-1-0.4
		L-136.6,359.4z"/>
	<path class="st34" d="M-120.9,348.7l-0.2,1c-0.6,1.7-0.5,2.2,0,3.4c0.2,0.5,0-0.5,0.3,1c0.7-1.1,1.3-4.6,1.7-6.1L-120.9,348.7z"/>
	<path class="st35" d="M-107.1,425.4c-0.8-0.1-1.5-0.2-2-0.8c-1.3,0.3-0.5,0.2-1.6,0.6c0.6,0.4,0.3,0.4,1.7,0.5
		C-106.9,426-107.4,425.8-107.1,425.4z"/>
	<path class="st36" d="M-89.2,296.7c0.9,0,0.9-0.1,1.7-0.3c1.2-0.3,1,0,1.7-0.9l-1.5,0.1c-0.4,0.1-0.5,0.2-0.9,0.3
		c-0.3,0.2-0.3,0.1-0.6,0.4c0,0-0.2,0.2-0.2,0.2C-89,296.5-89.1,296.6-89.2,296.7z"/>
	<path class="st37" d="M-133.8,359.3l0.1-0.7c-0.6-0.3-0.2-0.1-0.7-0.4c-0.5-0.3-0.1-0.1-0.5-0.3l0.2,2.2
		C-134,359.8-134.2,360-133.8,359.3z"/>
	<path class="st38" d="M-135,357.9c0.4,0.2,0,0,0.5,0.3c0.5,0.3,0,0,0.7,0.4l-0.3-1.7C-134.8,357.4-134.5,357-135,357.9z"/>
	<path class="st39" d="M-125.6,355.7c0.4,0.3-0.7,0.5,0.9,0.3c1.5-0.5,0.4-0.4-0.4-0.6L-125.6,355.7z"/>
	<path class="st40" d="M-130.4,353.9c-0.1-0.1-0.2-0.3-0.3-0.3c0,0-0.1-0.2-0.2-0.2c0-0.1-0.1-0.2-0.2-0.2c-0.4,0.5-0.6-0.7-0.3,0.6
		L-130.4,353.9z"/>
	<path class="st41" d="M-50.1,444l0.9-0.4c-0.4-0.3,0.1-0.1-0.7-0.1c0,0-0.1,0.1-0.1,0.1c0,0-0.1,0.2-0.1,0.2
		C-50,443.7-50.1,444-50.1,444z"/>
	<path class="st42" d="M-52,352.3l-0.1-1.2l-0.7,0C-52.3,351.7-52.5,350.9-52,352.3z"/>
	<path class="st43" d="M-121.1,349.7l0.2-1l-0.6,0.4C-120.9,349.1-121.1,349-121.1,349.7z"/>
	<polygon class="st44" points="-62.3,289.5 -61.9,289.2 -62.6,289.4 	"/>
</g>
</svg>
