<?xml version="1.0" encoding="UTF-8"?>
<!DOCTYPE svg PUBLIC "-//W3C//DTD SVG 1.1//EN" "http://www.w3.org/Graphics/SVG/1.1/DTD/svg11.dtd">
<!-- Creator: CorelDRAW X7 -->
<svg xmlns="http://www.w3.org/2000/svg" xml:space="preserve" width="287px" height="549px" version="1.1" style="shape-rendering:geometricPrecision; text-rendering:geometricPrecision; image-rendering:optimizeQuality; fill-rule:evenodd; clip-rule:evenodd"
viewBox="0 0 3575948 4547406"
 xmlns:xlink="http://www.w3.org/1999/xlink">
 <defs>
  <style type="text/css">
   <![CDATA[
    .fil6 {fill:#060608}
    .fil21 {fill:#0D2E46}
    .fil2 {fill:#131C24}
    .fil19 {fill:#16496E}
    .fil11 {fill:#17517C}
    .fil5 {fill:#1A2126}
    .fil23 {fill:#1A2229}
    .fil20 {fill:#1A232C}
    .fil14 {fill:#1B242B}
    .fil41 {fill:#216599}
    .fil18 {fill:#2374B3}
    .fil24 {fill:#2374B5}
    .fil29 {fill:#2475B5}
    .fil33 {fill:#2E6989}
    .fil1 {fill:#36647B}
    .fil32 {fill:#3999AC}
    .fil12 {fill:#468CC0}
    .fil42 {fill:#477193}
    .fil34 {fill:#4D483A}
    .fil40 {fill:#50514C}
    .fil27 {fill:#524B3B}
    .fil36 {fill:#595F62}
    .fil44 {fill:#6D6F71}
    .fil8 {fill:#74C1FE}
    .fil39 {fill:#776C5A}
    .fil30 {fill:#867A64}
    .fil0 {fill:#88363A}
    .fil15 {fill:#90816A}
    .fil35 {fill:#97866B}
    .fil43 {fill:#9B8F76}
    .fil7 {fill:#9E8E74}
    .fil38 {fill:#A4D1DF}
    .fil37 {fill:#A8AAAD}
    .fil4 {fill:#AF9B78}
    .fil10 {fill:#BDBDBD}
    .fil26 {fill:#BEBEBE}
    .fil31 {fill:#C5B290}
    .fil25 {fill:#D2D2D2}
    .fil17 {fill:#E84242}
    .fil9 {fill:#F9E2B9}
    .fil22 {fill:#FAE1B8}
    .fil28 {fill:#FAEEDD}
    .fil13 {fill:#FAEFDD}
    .fil3 {fill:#FCE8BC}
    .fil16 {fill:#FEFEFD}
   ]]>
  </style>
 </defs>
 <g id="Layer_x0020_1">
  <metadata id="CorelCorpID_0Corel-Layer"/>
  <g id="_495799915040">
   <path class="fil0" d="M2438729 968290l1926 -583c-3493,-5989 4361,-4109 -6218,-5125l4292 5708z"/>
   <path class="fil0" d="M1580623 1150543l7220 3308 -1613 -9605c-189,8948 2398,7666 -5607,6297z"/>
  </g>
  <g id="_495799918528">
   <path class="fil1" d="M965648 1966585l8902 7826 -3557 -15146c-1366,8634 1428,7320 -5345,7320z"/>
   <polygon class="fil1" points="996723,1904278 1002201,1902945 996557,1893139 "/>
  </g>
  <g id="_495799917920">
   <path class="fil2" d="M313558 1879779c-8378,2960 -11925,-11903 -4255,9600 5307,16369 22881,24205 41944,35326 9908,5778 40055,23622 52317,25363 40895,5810 64443,-59623 68257,-81250 -19223,27137 -20381,49316 -49940,66595 -22812,2256 -42459,-11038 -61687,-19604 -36668,-16343 -25248,-4752 -46636,-36030z"/>
   <path class="fil2" d="M923548 1959191c-4095,-17201 -12211,-44872 -21752,-55566l-4163 65686 25915 -10120z"/>
   <polygon class="fil2" points="1539920,1745697 1566523,1738519 1544654,1687581 "/>
  </g>
  <g id="_495799919072">
   <path class="fil3" d="M552042 2877964c10244,-13865 11347,-108089 11021,-125019l-66867 -37193c13061,23452 460,16076 25589,30585 17702,10220 20708,7154 22665,30050 2188,25551 10566,80193 7592,101577z"/>
   <path class="fil3" d="M301136 1842067c12900,3309 7739,4214 14440,6383 18018,5837 7973,2565 12430,-2555 -3350,-16793 -2615,-20423 -11870,-34026l-15000 30198z"/>
  </g>
  <g id="_495799919008">
   <path class="fil4" d="M712021 2566745c2449,-3742 5441,-1412 -3769,-18117l-30074 -51903c-71392,-120919 -39499,-72822 -2642,-218585 6043,-23897 -827,-19297 -2703,-20533 -1576,17974 -24760,62702 -33253,82648 -21944,51516 -35019,58262 -19582,82081 16116,24881 88420,126399 92023,144409z"/>
   <path class="fil4" d="M419809 1811254c7573,2853 5827,-1848 9595,3341 166,12808 -3608,16461 -7551,27164l22708 -15965c-10024,-1287 -4113,15092 -8553,-1627 -225,-859 -1397,-725 -3263,-1424l5373 -33966c-3939,4609 -4720,5928 -8755,10537l-7666 9132c-340,-699 -1277,1856 -1888,2808z"/>
  </g>
  <g id="_495799920704">
   <path class="fil5" d="M1224045 1916645c-1025,-6981 -2012,-4154 7942,-4168l-19436 -147814c-2702,-7688 3516,-1765 -10868,-997l4600 34252 -54637 19714 3851 26572 47275 -13847 4798 32409 -45717 15970 2008 33695 55583 -18135 4601 22349z"/>
   <path class="fil5" d="M1259206 1822094c37003,-6967 50970,-43203 21917,-48681 -4196,-786 -5447,-179 -9449,349 -6765,892 -11030,3057 -19407,4155l6939 44177z"/>
  </g>
  <g id="_495799922784">
   <path class="fil6" d="M390286 1585384c30107,3098 134909,24627 155847,39182l-9375 35129c-20451,588 16314,-13608 -74174,5188 -29471,6122 -57381,12276 -87252,17717 -18277,3332 -24656,2587 -33901,17137 -16421,25836 -41172,77610 -57955,95712 2012,20712 11599,24633 15767,47087l1893 -469 15000 -30198 8428 -23861c4003,-4356 5951,-9848 9628,-13409 6038,-5850 13365,-7734 21761,-11737 26682,-6269 16268,-10028 48778,-4399 15983,2772 33327,7524 48906,6743l5900 -3664 -66102 -18946 -11135 -2597c-3388,-16131 -1301,-1163 3487,-7335l118654 -49467 7634 -5074 21691 -8566c-4830,17789 -12454,62243 -20933,75612l-12707 40037 -24862 75671c19228,-20267 79508,-198949 80703,-234055 -16934,-23782 -64885,-26944 -95179,-33327 -29366,-6190 -80938,-21029 -108889,-14715l38387 6604z"/>
   <path class="fil6" d="M392865 1843772l-59040 9274c-7142,9425 26691,9453 35179,7174 13318,-3585 26729,-8171 39555,-11995 7008,-2936 7831,-3993 13294,-6466 3943,-10703 7717,-14356 7551,-27164 -3768,-5189 -2022,-488 -9595,-3341 -2840,5877 -22238,26880 -26944,32518z"/>
  </g>
  <g id="_495799921376">
   <path class="fil7" d="M488435 2696354c11411,-10244 106485,2040 106682,2114l5506 43185c17326,4968 38663,17956 56167,13112 15957,-4413 35594,-21839 52166,-20157 35514,-22767 14788,-17031 43125,-44412 7054,-6811 202,1144 6309,-6139l-58911 -13406 -9398 -340c-13888,-2624 -93098,-18263 -106668,-26315 9213,-11356 20951,-29885 25886,-42799 -47289,-15680 -57078,-5546 -102261,7230 -15773,4462 -82684,22036 -89716,26236l-7385 -44481c584,42729 4720,55234 14881,92560 19508,3309 51094,6453 63617,13612z"/>
   <path class="fil7" d="M368788 2526491c22629,23019 37206,1347 40515,43098 29642,-5708 93272,-26940 117009,-25942 26604,1111 107068,18612 123791,10891l-33694 -16990c-21738,-5749 -36296,-14375 -56508,-23791 -31411,-14637 -26186,-12752 -61369,-7078 -39859,6425 -93002,16177 -129744,19812z"/>
  </g>
  <g id="_495799924896">
   <path class="fil8" d="M897633 1969311l4163 -65686c9541,10694 17657,38365 21752,55566l-25915 10120zm73360 -10046l3557 15146 -8902 -7826c-3957,-21553 -34114,-82878 -44008,-104302l-46025 15924 -26365 177652c47358,-14682 38263,-3207 45042,-52486l43709 -16319c1971,14738 5124,25243 13046,34183l63034 -22041 -17358 -94918 -166 -11139 5644 9806c5359,18130 11016,24463 19440,40226 13644,25528 27274,50983 36071,9530 1819,-8561 3372,-17288 5082,-26207 3387,-17657 4821,-40088 11425,-53728l9324 101328 35690 -10670c-4844,-33742 -12771,-136670 -24219,-161610 -69752,20290 -30313,48558 -54471,117409 -8783,-9384 -15033,-26149 -22124,-39192l-24568 -43511 -36407 12813 13549 109932z"/>
   <path class="fil8" d="M1544654 1687581l21869 50938 -26603 7178 4734 -58116zm-26366 -32275l-21185 142114c-34064,-8584 -9536,24932 -55704,12975 -21310,-10631 -30202,-75907 -4077,-92961 12497,-8153 22381,-1756 33691,-147l15630 -26131c-46852,-42780 -131940,24036 -96494,117055 10400,27288 41571,52716 81006,37059l44316 -18157c24582,-8061 17749,-17138 21310,-45042l40340 -15634 13410 32495 39159 -10859 -66222 -147702 -45180 14935z"/>
   <path class="fil8" d="M1252267 1777917c8377,-1098 12642,-3263 19407,-4155 4002,-528 5253,-1135 9449,-349 29053,5478 15086,41714 -21917,48681l-6939 -44177zm-39716 -13254l19436 147814 2742 10022 34988 -11084c215,-37449 -14371,-50506 877,-59091 11439,-6437 29347,25207 42312,41034 21842,-1024 52771,-14443 73929,-22945 5253,-18304 -13396,-119367 -16388,-147308 -6154,-17849 -3662,-8198 -10593,-14724l-29159 12284 21766 156342c-27795,-16810 -19909,-32008 -41329,-39783 1351,-2647 48640,-69684 -211,-93963 -16365,-8134 -36187,-3561 -52630,1940 -9227,3089 -17137,5781 -26406,8681 -11884,3722 -16470,3621 -19334,10781z"/>
   <polygon class="fil8" points="1224045,1916645 1219444,1894296 1163861,1912431 1161853,1878736 1207570,1862766 1202772,1830357 1155497,1844204 1151646,1817632 1206283,1797918 1201683,1763666 1110409,1796584 1132059,1960404 1223485,1927647 "/>
  </g>
  <g id="_495799923648">
   <path class="fil9" d="M52491 2304776c1337,-9903 23180,-92045 26677,-100410 7031,-16815 -2500,-4949 16099,-15376 21700,-12165 46852,-30171 63736,-32905 17073,22192 32909,29619 50538,46674 6484,6268 42,1406 7574,7817 15492,13184 36291,14747 24825,46686 -6190,17257 -9591,29647 -14605,47914l-174844 -400zm23336 -129026c-4738,22518 -25992,67197 -35538,90520 -14471,35353 -29049,54950 1255,83672l211527 -13594 17587 67482c3842,21167 -882,36880 -625,57445 239,19159 7817,29977 10125,48369 32982,4067 44761,16737 88630,16847 36742,-3635 89885,-13387 129744,-19812 35183,-5674 29958,-7559 61369,7078 20212,9416 34770,18042 56508,23791 -14275,-12716 -34049,-24407 -52064,-36011 -26434,-17026 -29090,-18575 -66012,-15524 -132302,10943 -83221,19716 -139338,-16493 -56503,-36453 -48525,-28290 -75800,-99275 -10511,-27353 -26549,-36627 -12827,-56443 16623,-24007 33181,-26388 16976,-56484 24496,11470 84325,47091 107280,43249 -624,-1406 -4402,-7363 -5804,-8737 -818,-799 -5478,-2035 -6052,-3758 -574,-1729 -2459,-824 -3667,-1288 -7896,-11277 -89174,-60280 -109013,-74627l-112565 -74602 -81696 38195z"/>
   <path class="fil9" d="M420985 2616405l-1535 -34638c14485,-6520 85313,-27868 97339,-29375 13250,-1659 95617,11416 109556,15349 -31384,9651 -71688,13493 -104302,20874 -34620,7840 -67496,20335 -101058,27790zm-11682 -46816l634 20593 7385 44481c7032,-4200 73943,-21774 89716,-26236 45183,-12776 54972,-22910 102261,-7230 -4935,12914 -16673,31443 -25886,42799 13570,8052 92780,23691 106668,26315 7776,-13336 8640,-10175 13984,-24274 -10745,-5243 -8249,-6636 -19876,-11746 -3456,4945 2431,7150 -23519,4489 -18539,-1902 -14335,-1135 -21784,-6594 14150,-5561 4485,-3607 20322,-7666 -5469,-13313 -2647,-11971 6971,-23924 9564,-11880 7841,-6641 12404,-20810 -15129,6590 -16719,12110 -33429,18034 8203,-16319 14509,-16264 20810,-37767 -7285,-2890 -8723,-3116 -15861,-5515 -16723,7721 -97187,-9780 -123791,-10891 -23737,-998 -87367,20234 -117009,25942z"/>
   <path class="fil9" d="M385787 1732664c727,970 1595,2270 2105,2955 474,630 1530,2072 2000,2689 537,721 2660,3336 3543,4288l66102 18946c10657,1995 23897,621 5162,7391 -23162,9287 -12013,3055 -26581,19844l-5373 33966c1866,699 3038,565 3263,1424 4440,16719 -1471,340 8553,1627l-22708 15965c-5463,2473 -6286,3530 -13294,6466l-17096 19095c26806,-3162 48364,-22578 58401,-35828 16852,-22246 9440,-10418 23130,-23469 14389,-13718 5395,-11131 27132,-22817l12707 -40037c-3543,-18227 -1706,-5915 -3901,-12165 -5203,-14807 -6701,-21329 408,-42459 612,-9016 3111,-7330 -4899,-7348l-118654 49467z"/>
  </g>
  <g id="_495799925088">
   <path class="fil10" d="M1784654 303838c-23924,28019 -41907,63204 -63911,94472 -48837,69408 -3842,30294 -86582,72666 -67421,34531 -145092,67059 -215717,99509 -9472,4352 -407406,196117 -421978,215116 93098,-31140 187110,-72923 280222,-107736 32996,-12334 435337,-158111 449358,-173107 8112,-8672 13521,-19880 22091,-28671 11057,-11342 12923,-8641 23723,-22813 21963,-28824 63153,-66154 89849,-100929 10813,-14081 15119,-13139 25570,-24858 7872,-8828 12403,-18139 20460,-26420 10717,-11011 9875,-4339 25405,-25037 23975,-31944 34755,-29886 45808,-53231l-194298 81039z"/>
   <path class="fil10" d="M1570058 601445l-52900 79674c-23333,37243 -28627,55846 -60667,71292 -27432,13221 -65391,26963 -90906,41453 -19549,11107 -2642,5051 -18686,16305l-62996 30404c-44647,20873 -338536,161945 -352291,176421l19252 -1338c30772,-5933 85289,-30262 118967,-42757l415920 -155934c37776,-14563 94853,-99103 123163,-122091 18129,-14720 22339,-29848 38139,-43590 30721,-26709 22877,-28621 39003,-42716 32578,-28474 20138,-24651 38465,-43263 12803,-13001 22541,-15556 39224,-44012l-193687 80152z"/>
  </g>
  <g id="_495799926592">
   <path class="fil11" d="M199477 862508l88034 -101 37816 97445c12993,-41112 53434,-140689 78048,-160184 7500,-17789 6415,-14849 17316,-28456 9467,-11820 9279,-13764 19945,-26747l43097 -46360c4325,-3773 6439,-5037 10663,-8874l142339 -110456c24651,-16383 162331,-97413 170897,-107036 -56586,-15446 3659,-27302 -87716,11195 -82308,34678 -198429,96269 -290103,106113l79537 -129923c11621,-18548 20064,-26700 28773,-47441l-180172 215153c-29903,38373 -143640,194026 -158474,235672z"/>
   <path class="fil11" d="M99743 1355135c6346,81448 6645,217225 26916,291591 12000,-9122 22326,-39403 34775,-46765 3607,-12381 31398,-56659 40041,-67412l84574 -3424 1429 -82529 -26554 -229c-4816,-14210 -14421,-32666 -21516,-47790l-23777 -48506 -115888 5064z"/>
   <path class="fil11" d="M110978 1090864c-9709,27340 -15050,135635 -11424,169776l87060 -7836c229,-13116 -20565,-81664 -25363,-98889 -4982,-17872 -16292,-87900 -27298,-101447 -6150,9655 -19468,46668 -22975,38396z"/>
  </g>
  <g id="_495799927840">
   <path class="fil12" d="M114477 2066953c8359,9012 200289,101756 238314,121140 19687,10033 19701,5295 37877,-3584 14802,-7229 26516,-11462 41264,-19765 -11209,-7216 -38589,2702 -56517,2499 -3262,-21084 24425,-172197 29517,-205819 -26337,-2730 -83805,-30941 -98093,-42739 -18414,-15198 -37726,-65648 -38998,-97335 -12619,-14679 -28856,-82928 -36305,-107610 -7124,-23590 -15667,-35374 -13935,-61830 2330,-35607 14279,-40433 -15656,-56135 -14082,40045 -54559,65841 -46113,116067 4081,24246 22427,124026 19816,141737 -1640,11122 -25970,39927 -34669,50414l-71191 92238c-23323,30764 -26842,27215 -22670,54555 36333,1862 53282,-2243 63673,10175 579,689 3037,4871 3686,5992z"/>
   <path class="fil12" d="M534616 1427328c-4554,30597 -15051,23399 -46563,22361 -20836,-685 -46484,-2228 -66595,-1245l103480 4145c-12642,16025 -22703,50130 -33121,66733 -13585,21650 -54605,17302 -72757,31319 41107,17812 158346,53447 200667,51411 -4431,-51227 4388,-99269 27693,-137211l52813 -71733c8506,-10561 13152,-10216 21672,-19513 -6572,-13396 -211,-4646 -11493,-14389 -5455,-4714 -9968,-6765 -15391,-11796 -8552,-7938 -3943,-4481 -10547,-12547 -13828,-16888 -25584,-18097 -40689,-37362 -8300,-10575 -14329,-17670 -26967,-22160 -14642,24122 -68829,145580 -82202,151987z"/>
  </g>
  <g id="_495799927968">
   <path class="fil13" d="M394624 2300567c-22955,3842 -82784,-31779 -107280,-43249 16205,30096 -353,32477 -16976,56484 -13722,19816 2316,29090 12827,56443 27275,70985 19297,62822 75800,99275 56117,36209 7036,27436 139338,16493 36922,-3051 39578,-1502 66012,15524 18015,11604 37789,23295 52064,36011l33694 16990c7138,2399 8576,2625 15861,5515 -6301,21503 -12607,21448 -20810,37767 16710,-5924 18300,-11444 33429,-18034 -4563,14169 -2840,8930 -12404,20810 -9618,11953 -12440,10611 -6971,23924 6144,6985 15524,8889 24981,9771 11627,5110 9131,6503 19876,11746 -5344,14099 -6208,10938 -13984,24274l9398 340c18391,-7781 44279,-25386 59623,-27946 -12583,-30207 -37219,-54232 -43653,-67114 -4380,-8768 1232,6121 -3428,-8846 -3603,-18010 -75907,-119528 -92023,-144409 -15437,-23819 -2362,-30565 19582,-82081 8493,-19946 31677,-64674 33253,-82648 3379,-18378 7928,-22027 15589,-39660 5680,-13079 11650,-24955 15915,-38975l-309713 121595z"/>
   <path class="fil13" d="M926139 2175377c-65708,11890 -132454,22863 -199835,27193 -7207,12610 -81090,208241 -81017,215782 74,8194 98728,170171 111307,183407 -203,-53209 1102,-106766 1709,-160098 593,-52261 8355,-100276 8667,-149946l159169 -116338z"/>
   <path class="fil13" d="M420985 2616405c33562,-7455 66438,-19950 101058,-27790 32614,-7381 72918,-11223 104302,-20874 -13939,-3933 -96306,-17008 -109556,-15349 -12026,1507 -82854,22855 -97339,29375l1535 34638z"/>
  </g>
  <g id="_495799930432">
   <path class="fil14" d="M1397745 2843115l-786 16457c10262,-253 4394,-2812 9145,1241l-11806 5303 -2931 4563c-8204,11095 -57308,46334 -66949,50709 -15060,20703 -94550,82358 -120277,104081 -6089,5147 -7775,5317 -13625,9812 -5428,4177 -7064,6305 -12463,10808l-278641 229735 8193 14071c-639,667 -2017,1040 -2413,1361l-6025 7252c-119,506 199,2078 161,2518l1936 5680 18695 -9884c9769,-12808 20081,-19376 34669,-30488 11544,-8792 22150,-14862 34182,-24375l69609 -50970c22680,-15882 45464,-33235 69348,-51213l416556 -303292c10836,-8107 23919,-16618 36613,-25680 12054,-8608 22412,-17221 33644,-24711 21047,-14045 15552,-11117 21186,-40612l30363 -149661c18198,-93369 49555,-328415 56251,-422005l-399185 -185911 13631 -9053c1011,-460 9867,-3414 11590,-4003l186256 -61020c-12045,-13071 -21172,-5804 -21839,-5750 -427,37 -9968,4045 -16672,777 -8195,-3998 -8006,-9779 -12032,-13212 78,515 10993,13180 -3911,5184 14702,-3976 28824,-14357 23993,-33576l-16465 14008c-3755,4692 -5713,8759 -10083,13248 -11149,11448 -90690,36490 -109077,42515 -41245,13510 -111145,36126 -145850,53294 14287,11531 453246,219694 470700,222713 -23010,131490 -48612,264712 -68865,396542 -20662,134527 -6397,103847 -80630,148769 -48668,29453 -95888,55474 -146196,84775z"/>
   <path class="fil14" d="M1203981 3376220c66369,6498 273985,47216 363719,63547 29693,5401 24210,9500 35056,34968l195529 450908c21397,-13851 -5611,-1079 20465,-52086 3046,3258 12187,445 -3893,3851 -5166,-6186 -552,-1586 -952,-12086 101,-14187 -200974,-462250 -201412,-462590 -7748,-6043 -283654,-46434 -337570,-54642 -33580,-5115 -19963,-12491 -40580,-13782 -9861,13621 -5487,-3125 -293,8097 257,556 3878,2509 4927,3272l-10579 5828c-7592,2977 5481,1842 -11458,1935 9412,7228 2018,5523 7767,14292 -35125,0 -11204,-349 -20726,8488z"/>
  </g>
  <g id="_495799930944">
   <path class="fil15" d="M75827 2175750l81696 -38195 112565 74602c19839,14347 101117,63350 109013,74627 23699,-3749 226996,-98888 265314,-116669 30702,-14246 32670,-22684 69545,-16406 24063,4100 61939,12505 85129,10957 54238,-3622 116310,-14339 171416,-21559 1769,3047 2500,3699 4187,10657 1415,5842 1383,7992 1668,13847 1741,35965 8291,52459 -3552,74058 -23392,42661 -21338,30381 -28622,83502 -11700,85369 -6209,122101 -36696,187401l41452 -41853c27699,-37023 27552,-138048 48796,-197423 14362,6200 17014,14738 31292,20832l2188 -194275 -200709 -1305 20974 -188829c-36976,-4021 -18428,-15547 -47505,7385 -9034,7128 -11750,8410 -18496,16632 -20428,24904 -20796,17716 -39413,34577 -9558,8658 -8465,11852 -18143,20561l-78645 69352c-16126,19614 -23019,19821 -39338,34646 -9339,8484 -7628,11471 -16269,18622 -5947,4922 -15901,8732 -25804,13199 -16875,7610 -34389,14572 -51585,22270 -34440,15419 -69408,29453 -102855,45009 -60005,27905 -44155,23994 -102119,-5436 -65404,-33212 -134932,-69509 -196816,-97183 -9233,8928 -29041,67946 -38668,86397z"/>
   <path class="fil15" d="M41544 2349942c8102,20993 8805,33148 35501,35381 21480,1798 42831,4495 64384,5993 42239,2932 87409,8185 129229,12514l-17587 -67482 -211527 13594z"/>
  </g>
  <g id="_495799929344">
   <path class="fil16" d="M717531 1265644c27886,630 64201,14090 86678,13856 10689,-110 24117,-8681 33961,-13148 13520,-6139 26563,-10088 35473,-19205 -11994,-24684 -28704,-51292 -41553,-76278 25368,-13088 77294,-28019 106517,-37422 36287,-11672 70772,-24191 107202,-36903 17721,-6181 34706,-12027 52234,-17684 42114,-13602 24807,-12279 69835,-77730 4802,-6981 26351,-35960 23415,-40892 -35442,3337 -263091,107854 -301643,112703 3608,-51410 4104,-40759 18033,-42753 777,-758 1912,-3037 2344,-2260 428,757 1774,-1711 2376,-2101 4104,-2684 3975,-2597 8038,-4535 4913,-2350 6773,-2675 11171,-4298 13755,-14476 307644,-155548 352291,-176421l62996 -30404c16044,-11254 -863,-5198 18686,-16305 25515,-14490 63474,-28232 90906,-41453 32040,-15446 37334,-34049 60667,-71292l52900 -79674 4545 -10878c-47041,16301 -104068,48640 -152708,69288 -51916,22045 -99977,44311 -155410,66352 -53175,21144 -107113,40666 -160147,61669l-165208 62505 13028 -47115 42308 -17665c14572,-18999 412506,-210764 421978,-215116 70625,-32450 148296,-64978 215717,-99509 82740,-42372 37745,-3258 86582,-72666 22004,-31268 39987,-66453 63911,-94472l5473 -12679c-77849,31682 -190754,91195 -263337,119491l-641713 257110c-125929,50560 -99356,16723 -120413,136246 -12878,73070 -72768,394713 -75387,440259 13176,7685 16351,15070 28254,21379z"/>
   <path class="fil16" d="M110978 1090864c3507,8272 16825,-28741 22975,-38396 11006,13547 22316,83575 27298,101447 4798,17225 25592,85773 25363,98889l-87060 7836 189 94495 115888 -5064 23777 48506c7095,15124 16700,33580 21516,47790l26554 229c-8805,-52247 -1429,-198760 1640,-257878 3452,-66567 12969,-171021 36209,-228866l-37816 -97445 -88034 101c-13907,16094 -43567,79191 -53902,104325 -16021,38948 -29168,77422 -34597,124031z"/>
   <path class="fil16" d="M355953 1762862c7049,14581 14972,16944 22830,33345 14072,29380 -1902,34835 14082,47565 4706,-5638 24104,-26641 26944,-32518 611,-952 1548,-3507 1888,-2808l7666 -9132c4035,-4609 4816,-5928 8755,-10537 14568,-16789 3419,-10557 26581,-19844 -19583,1999 -6223,-607 -11062,-3727 -15579,781 -32923,-3971 -48906,-6743 -32510,-5629 -22096,-1870 -48778,4399z"/>
  </g>
  <g id="_495799931808">
   <path class="fil17" d="M1143939 1353715l64173 173452 -77955 26365 13782 -199817zm278697 -93379c49402,-19499 116989,-40441 122656,38231 4333,60203 -58382,84040 -105405,93746l-17251 -131977zm163594 -116090l1613 9605 -7220 -3308c-75106,-37005 -205506,35771 -280084,54131l48162 362084 -150037 -323724 -131665 43460c-8387,67851 -21535,138986 -30965,208081l-27817 183401c-648,4339 -997,8801 -2119,13106 -5514,21155 4279,-11410 -1921,5861l-2546 5449c-9200,-6474 -18069,-15538 -27238,-20123 -10974,12637 -28309,36130 -41015,45229 -49982,35787 -121233,12845 -141849,-87219 -10873,-52777 -7983,-100759 19017,-144473 24200,-39186 68828,-61006 113268,-24816 753,-763 1751,-3120 2076,-2458l52892 -82492c-47620,-23685 -96370,-67744 -193489,-5042 -20299,13107 -31292,23769 -46218,39459 -132496,139329 -63874,426169 118631,429399 25652,451 48314,-4879 72050,-13162 33824,-11796 39090,-22871 54835,-30041 14103,-6425 89255,-24996 124357,-42403l10809 -113351 121094 -42873 35883 99013c69499,-17271 125235,-48994 196356,-66135l-21245 -154950c33557,-11173 66006,-21302 94637,-36375 103586,-54546 130892,-136627 84817,-253016 11085,-8447 62748,-25064 75441,-28020l50648 371487 109118 -36411 -51401 -373196c33993,-13350 86112,-24031 113452,-42813 -10589,-18658 -12946,-67726 -16159,-92850l-330300 113370 4132 36116z"/>
   <path class="fil17" d="M2014127 1247987c1301,-33230 5202,-65868 7845,-98184 1442,-17634 996,-33107 1884,-50373l5955 -51029 62579 171154 -78263 28432zm172708 -349605c-4444,18966 42960,323746 46047,363452l-150079 -325888 -130487 43934c-9412,31434 -78626,495889 -76673,519979l116844 -39981 12031 -115644 119104 -41714 37541 98125c25662,-6429 181697,-59347 196003,-69237l-63599 -468703 -106732 35677z"/>
   <path class="fil17" d="M2438729 968290l-4292 -5708c10579,1016 2725,-864 6218,5125 12362,23313 28879,49021 41733,71020l143272 202262 103926 -35548 -63889 -470139 -103084 34132c2965,52330 14182,115055 21640,167408 7694,54007 28430,105166 36356,154151l-92941 -140368c-19131,-25833 -82845,-119992 -98061,-134730l-102657 35018 63258 471432 102901 -35349c2340,-94560 -51944,-288711 -54380,-318706z"/>
  </g>
  <g id="_495799933440">
   <path class="fil18" d="M439753 808174c-23497,43659 -37086,46539 -58359,118098 -16048,53998 -16190,103323 -26549,156600l7830 13415c18715,44402 25861,99425 67897,177138 7757,14342 85685,148088 104044,153903 13373,-6407 67560,-127865 82202,-151987 12638,4490 18667,11585 26967,22160 15105,19265 26861,20474 40689,37362 6604,8066 1995,4609 10547,12547 5423,5031 9936,7082 15391,11796 11282,9743 4921,993 11493,14389 -8520,9297 -13166,8952 -21672,19513l-52813 71733c-23305,37942 -32124,85984 -27693,137211 -42321,2036 -159560,-33599 -200667,-51411 18152,-14017 59172,-9669 72757,-31319 10418,-16603 20479,-50708 33121,-66733l-103480 -4145 -96489 -698 -887 -12804 -7643 103998c21568,11159 96063,28603 124252,36173 31369,8424 104275,24976 122992,34880l-7716 16829c-1195,35106 -61475,213788 -80703,234055l-3443 7941c-3814,21627 -27362,87060 -68257,81250 -12262,-1741 -42409,-19585 -52317,-25363 -19063,-11121 -36637,-18957 -41944,-35326 -24863,-26406 -24174,-55708 -39969,-74762 -822,9362 -1755,13503 -1493,6733 1272,31687 20584,82137 38998,97335 14288,11798 71756,40009 98093,42739 -5092,33622 -32779,184735 -29517,205819 17928,203 45308,-9715 56517,-2499 38368,-14564 74812,-35245 113318,-51035 46246,-18966 135015,-118024 174050,-156706 23603,-23387 64812,-59393 82959,-82969 -7398,-8737 -72091,-42343 -86898,-60552 -9232,-11356 1393,-2210 -10997,-12270 -10598,-8603 -3787,561 -14067,-13120 -90910,-120957 -64324,-248370 20290,-365094 18902,-26071 38465,-40841 45721,-56144 -26677,-15598 -68616,-58076 -97950,-79936 -16982,-12662 -15447,-16472 -36269,-25833 13107,-104426 59232,-409855 92321,-511473 7316,-22477 21291,-46603 30037,-70928 15570,-43327 11080,-29288 52937,-48162 91628,-41329 184367,-83158 274983,-125792 40396,-18998 260166,-114195 276376,-128947l8478 -71393c-189518,29113 -381018,95565 -520816,189968l-329817 242290 -66835 71526z"/>
   <path class="fil18" d="M1674373 1863877c12069,8012 75511,8076 90521,9450 -24702,22481 -75594,41631 -108553,59710 -30861,16930 -79698,37762 -106316,58898l300668 146237c-10928,66599 -29977,149518 -45657,215529l-93066 429423c-6148,29513 14,27634 -23612,41802l-120511 74039c-207974,133595 -438380,265531 -647888,397857l-18695 9884c-7791,7014 -7335,6829 -13356,18990 34343,-15607 67712,-32528 101398,-48167 18846,-8750 33571,-14439 50892,-22881 16594,-8089 30110,-15681 46894,-23222 34223,-15363 66080,-31847 100455,-47385 29871,-13507 68952,-30971 97615,-46269 32955,-17579 64200,-34734 96141,-51788 38892,-20768 370616,-197193 376632,-207023 5860,-9582 30630,-92427 35258,-108805 39578,-139946 96081,-298343 140281,-443165l70373 -219702c-6292,-12946 -42974,-38631 -57188,-50341 -15359,-12642 -125222,-97665 -126967,-105097 -396,-1695 -1508,-1879 -2161,-2890 23475,-5335 462585,-270824 533132,-312410l-676290 227326z"/>
   <path class="fil18" d="M1798285 3925643l-195529 -450908c-10846,-25468 -5363,-29567 -35056,-34968 -89734,-16331 -297350,-57049 -363719,-63547l-61954 -66623c-41673,5878 -100594,23213 -139835,23442l17128 21242c17624,14118 28695,20965 42421,38892l114900 106921c16650,22142 39835,31338 57514,51466 36016,41012 42887,37051 58286,54605 5773,6582 5248,8365 11824,15263 18884,19802 18213,9094 56320,52624 15005,17141 27413,16430 56600,52390l102280 92358c13401,11140 14200,17638 26043,28282l44159 37688c36255,44127 36393,26659 68925,67114 15781,19623 29426,18874 58259,54597 14756,18276 36402,25730 56627,52375 8065,10625 17463,16779 28575,25902 41163,33791 25014,25110 41085,40524 4853,4655 9591,7923 15005,12330 9526,7766 22105,16640 29499,25445 10735,12781 8194,14022 27454,24867l-116811 -262281z"/>
   <path class="fil18" d="M2960933 3086995c-47702,-132312 -108305,-271775 -162036,-403775l-202599 -505393c-29843,-75073 -30275,-55998 -14062,-100961l154257 -413903c15937,-42850 69398,-172865 76953,-202690 -18474,27105 -87946,169242 -111926,214385 -94555,178020 -185626,361385 -280134,537011 -33990,63167 -38071,43106 39945,151563 7090,9854 12403,16775 17936,24871l481666 698892z"/>
   <path class="fil18" d="M1292060 1933409c-12693,20892 -26567,23787 -54738,35709 -16590,7016 -45943,18579 -59936,28979 5377,28607 46884,52253 81999,76867l274321 199858c2639,124623 -832,252005 -988,376969 -69,58764 -7496,57003 -70059,114701l-94331 91049 29417 -14426c50308,-29301 97528,-55322 146196,-84775 74233,-44922 59968,-14242 80630,-148769 20253,-131830 45855,-265052 68865,-396542 -17454,-3019 -456413,-211182 -470700,-222713 34705,-17168 104605,-39784 145850,-53294 18387,-6025 97928,-31067 109077,-42515 4370,-4489 6328,-8556 10083,-13248l16465 -14008c8889,-8534 7243,-2711 11256,-16829l-223407 82987z"/>
   <path class="fil18" d="M2896177 1780380c-7119,22376 -89404,335457 -86926,352249l196714 537797c21650,-49068 -105069,-883479 -109788,-890046z"/>
   <path class="fil18" d="M1818405 4178049c-3236,-15428 -14899,-19758 -40497,-41835 -5060,-4361 -8373,-5417 -13745,-9765 -8319,-6733 -6218,-7174 -13535,-13530 -5299,-4605 -8263,-5395 -13704,-9821l-136562 -118506 -301859 161310 519902 32147z"/>
   <path class="fil18" d="M614414 3149597c65401,-8250 43075,-19178 106742,8354l145258 61393c23043,9182 28167,-2896 45442,-15276 86632,-62091 201903,-134270 286196,-196325l126366 -86355c9641,-4375 58745,-39614 66949,-50709l2931 -4563c-15730,2426 -174886,100029 -195267,111430 -65900,36875 -127450,75547 -194550,112873 -33585,18677 -63852,38079 -97846,57766 -17068,9882 -31273,24164 -50693,15437l-157014 -69094c-68070,-31067 -76214,-42000 -109486,-26150l24972 81219z"/>
   <path class="fil18" d="M3053834 2814264l301430 818713c680,-44770 -1989,-95888 -3823,-140754 -1922,-47009 4163,-85213 -16039,-123765 -32321,-61673 -60653,-122588 -93595,-186494l-164333 -325609c-6086,-12638 -21573,-37997 -23640,-42091z"/>
   <path class="fil18" d="M999062 2546721c19177,69564 128618,44885 111200,-30349 -15570,-67266 -132904,-48392 -111200,30349z"/>
  </g>
  <g id="_495799935936">
   <path class="fil19" d="M1368328 2857541l94331 -91049c62563,-57698 69990,-55937 70059,-114701 156,-124964 3627,-252346 988,-376969l-274321 -199858c-35115,-24614 -76622,-48260 -81999,-76867 13993,-10400 43346,-21963 59936,-28979 28171,-11922 42045,-14817 54738,-35709l-374726 140746 146439 3010c5349,31572 -11066,318664 -15432,368223 69178,-4090 107299,61365 87698,114918 -11250,30740 -21020,27380 -27721,40891 10547,19900 30061,29481 45428,42496 11654,9867 9886,13272 20575,22027 19296,15805 14471,2707 24407,24357 -30635,5298 -497577,303829 -536276,315902l-52983 -51714c-8690,-7279 -10464,-6020 -12932,-17032l-87702 23438 54748 86250c46121,-21903 66911,-3648 112872,15699l162670 66958c26789,11411 28159,17822 52372,3644l476831 -275681z"/>
   <path class="fil19" d="M2577462 725894c26709,-5437 100441,-37385 117514,-36521 5786,58898 46406,497755 53686,512093 27284,2316 31056,-41672 49306,-91949 11861,-32670 23089,-73989 30681,-109113 18510,-85653 35193,-168429 23369,-258012 -12363,-93685 -70898,-172996 -110825,-238690 -21501,-35378 -67582,-88605 -97059,-116937 -13611,-13083 -18699,-26249 -33042,-37077 -17743,-13400 -21728,-19981 -36470,-33543 -12151,-11180 -21316,-25689 -34688,-35349l-38530 -31577c-120028,-99302 -331932,-183507 -489391,-218434 -37550,-8327 -79670,-25092 -115966,-28897l62046 24380c90524,32118 247560,113249 325406,176384 54673,44343 96705,94600 133079,154835 22165,36705 42501,69509 62671,112436 19008,40447 35988,80718 52638,122442 17518,43910 28746,90487 45575,133529z"/>
   <path class="fil19" d="M1534672 1913828l-186256 61020c-1723,589 -10579,3543 -11590,4003l-13631 9053 399185 185911c-6696,93590 -38053,328636 -56251,422005l-30363 149661c-5634,29495 -139,26567 -21186,40612 -11232,7490 -21590,16103 -33644,24711 -12694,9062 -25777,17573 -36613,25680l-416556 303292c-23884,17978 -46668,35331 -69348,51213l-69609 50970c-12032,9513 -22638,15583 -34182,24375 -14588,11112 -24900,17680 -34669,30488 209508,-132326 439914,-264262 647888,-397857l120511 -74039c23626,-14168 17464,-12289 23612,-41802l93066 -429423c15680,-66011 34729,-148930 45657,-215529l-300668 -146237c26618,-21136 75455,-41968 106316,-58898 32959,-18079 83851,-37229 108553,-59710 -15010,-1374 -78452,-1438 -90521,-9450l-139701 49951z"/>
   <path class="fil19" d="M3247727 3539336c-7234,-35253 -33189,-97922 -46361,-133966l-141218 -396004c-64729,-177772 -120341,-348912 -187272,-528371 -32077,-86016 -64660,-176817 -93879,-264151 -7743,-23153 -16755,-43755 -23897,-65836 -13226,-40907 -15478,-33347 -6916,-67542 18782,-75024 170934,-683584 175750,-719807 -35235,40276 -237152,583464 -277138,692021 -11880,32247 -23811,37610 -9233,68916 74039,158989 588275,1389488 610164,1414740z"/>
   <path class="fil19" d="M1234343 3334308c20617,1291 7000,8667 40580,13782 53916,8208 329822,48599 337570,54642 438,340 201513,448403 201412,462590 3939,-5566 2638,-354 3019,-10226l-84439 -358260c-14499,-59238 -21397,-63930 5262,-81659l90188 -80989c6150,-6071 11173,-8098 18057,-13212 15464,-11494 49045,-50280 75947,-63323 -9044,-6880 -7490,-6199 -22040,-266l-143985 55276c-28384,11001 -56384,21033 -84660,31985 -48733,18870 -38517,16287 -91826,8957 -58916,-8103 -367272,-55989 -397207,-55088 15142,12009 43102,23066 52122,35791z"/>
   <path class="fil19" d="M614414 3149597l15102 50060 269896 76167 278641 -229735c5399,-4503 7035,-6631 12463,-10808 5850,-4495 7536,-4665 13625,-9812 25727,-21723 105217,-83378 120277,-104081l-126366 86355c-84293,62055 -199564,134234 -286196,196325 -17275,12380 -22399,24458 -45442,15276l-145258 -61393c-63667,-27532 -41341,-16604 -106742,-8354z"/>
  </g>
  <path class="fil20" d="M1813905 3865322c400,10500 -4214,5900 952,12086 16080,-3406 6939,-593 3893,-3851 -26076,51007 932,38235 -20465,52086l103238 231805 943406 349973c29079,10788 56390,24246 81766,39985 452,-805 881,-1618 1338,-2422l647915 -1138005c-110151,-9014 -213908,-58225 -290577,-137965 16414,33318 32646,66271 50031,99444 20202,38552 14117,76756 16039,123765 1834,44866 4503,95984 3823,140754l-301430 -818713c2067,4094 17554,29453 23640,42091l60253 119384 -130172 -359273c1517,28567 1178,47688 -1590,53960l-196714 -537797c-1864,-12629 44221,-192860 70211,-290956l-8237 -204894c-728,-18097 -354,-35983 1005,-53608 -47500,194216 -112216,453045 -124046,500295 -8562,34195 -6310,26635 6916,67542 7142,22081 16154,42683 23897,65836 29219,87334 61802,178135 93879,264151 66931,179459 122543,350599 187272,528371l141218 396004c13172,36044 39127,98713 46361,133966 -21889,-25252 -536125,-1255751 -610164,-1414740 -14578,-31306 -2647,-36669 9233,-68916 38106,-103449 223262,-601593 271091,-683091 -16568,-30940 -29813,-64291 -39084,-99741l-60256 -230393c-6143,23321 -13240,46848 -20579,67062 -18250,50277 -22022,94265 -49306,91949 -7280,-14338 -47900,-453195 -53686,-512093 -17073,-864 -90805,31084 -117514,36521 -16829,-43042 -28057,-89619 -45575,-133529 -16650,-41724 -33630,-81995 -52638,-122442 -20170,-42927 -40506,-75731 -62671,-112436 -36374,-60235 -78406,-110492 -133079,-154835 -77846,-63135 -234882,-144266 -325406,-176384l-62046 -24380c16623,1743 34466,6205 52533,11327 -8396,-4171 -16617,-8561 -24755,-13215l-233791 0 -43808 14197c-18744,6075 -37595,10867 -56458,14411 8795,-690 16881,-1000 24099,-864 -13883,8841 -129467,37968 -158203,46948 -201788,63038 -399938,131416 -581280,235879 -8824,5083 -7684,5174 -16136,11052l-43259 30791c-9742,7839 -17683,13419 -28409,22100 -79532,64389 -202689,140138 -299657,161963 1824,-4529 11903,-16053 25243,-29913l-53546 35428 -28807 47055c91674,-9844 207795,-71435 290103,-106113 91375,-38497 31130,-26641 87716,-11195 -8566,9623 -146246,90653 -170897,107036l-142339 110456c-4224,3837 -6338,5101 -10663,8874l-43097 46360c-10666,12983 -10478,14927 -19945,26747 -10901,13607 -9816,10667 -17316,28456 20662,14383 -9610,-21719 2895,14449l11719 15128c2936,-12404 3883,-9803 7803,-21756 7634,-1360 2247,-2040 13961,685l66835 -71526 329817 -242290c139798,-94403 331298,-160855 520816,-189968l-8478 71393c-16210,14752 -235980,109949 -276376,128947 -90616,42634 -183355,84463 -274983,125792 -41857,18874 -37367,4835 -52937,48162 -8746,24325 -22721,48451 -30037,70928 -33089,101618 -79214,407047 -92321,511473 20822,9361 19287,13171 36269,25833 29334,21860 71273,64338 97950,79936 -7256,15303 -26819,30073 -45721,56144 -84614,116724 -111200,244137 -20290,365094 10280,13681 3469,4517 14067,13120 12390,10060 1765,914 10997,12270 14807,18209 79500,51815 86898,60552 -18147,23576 -59356,59582 -82959,82969 -39035,38682 -127804,137740 -174050,156706 -38506,15790 -74950,36471 -113318,51035 -14748,8303 -26462,12536 -41264,19765 -18176,8879 -18190,13617 -37877,3584 -27584,-14061 -136139,-66719 -196875,-98022 -1996,5193 -4092,10358 -6285,15490 52390,24819 108403,53921 161680,80975 57964,29430 42114,33341 102119,5436 33447,-15556 68415,-29590 102855,-45009 17196,-7698 34710,-14660 51585,-22270 9903,-4467 19857,-8277 25804,-13199 8641,-7151 6930,-10138 16269,-18622 16319,-14825 23212,-15032 39338,-34646l78645 -69352c9678,-8709 8585,-11903 18143,-20561 18617,-16861 18985,-9673 39413,-34577 6746,-8222 9462,-9504 18496,-16632 29077,-22932 10529,-11406 47505,-7385l-20974 188829 200709 1305 -2188 194275c-14278,-6094 -16930,-14632 -31292,-20832 -21244,59375 -21097,160400 -48796,197423l-41452 41853c-17040,28249 -60175,67716 -75533,86153 -8557,10281 -9256,14899 -19150,23842 -11944,10796 -9632,8015 -18442,20382 -10966,15395 -15428,13989 -35975,41108 -6107,7283 745,-672 -6309,6139 -28337,27381 -7611,21645 -43125,44412 -10639,27170 -15847,16977 -35134,44578l-57418 63135c-7082,9286 -8224,13384 -16004,20641 582,4982 1084,9989 1506,15019 6753,-6484 14825,-14690 25009,-25017l44677 -52693c12101,-15768 8277,-4280 30635,-35446 12928,-18024 10584,-7027 31205,-34941l48290 -52900c7840,-7123 7582,-8635 14003,-17161 8691,-11525 8313,-7894 17643,-17329 5915,-5979 8070,-10809 13364,-17780 9379,-12354 8565,-7482 18042,-16871l106558 -123149c8291,-10762 12376,-10009 17597,-17343 7656,-10764 30832,-142717 36594,-164533 25777,15759 23985,41522 22451,60989 -2111,26714 -3925,57812 -4248,84394 -40119,25712 -73634,58510 -49085,117675 30804,74228 101113,40915 120727,54132 4412,2973 48589,45873 56609,65078l-240792 148581c-75796,48423 -153222,94839 -230713,142196 6004,3756 11913,7651 17725,11676 118615,-67331 473938,-292862 500531,-297462 -9936,-21650 -5111,-8552 -24407,-24357 -10689,-8755 -8921,-12160 -20575,-22027 -15367,-13015 -34881,-22596 -45428,-42496 6701,-13511 16471,-10151 27721,-40891 19601,-53553 -18520,-119008 -87698,-114918 4366,-49559 20781,-336651 15432,-368223l-146439 -3010 598133 -223733c-4013,14118 -2367,8295 -11256,16829 4831,19219 -9291,29600 -23993,33576 14904,7996 3989,-4669 3911,-5184 4026,3433 3837,9214 12032,13212 6704,3268 16245,-740 16672,-777 667,-54 9794,-7321 21839,5750l139701 -49951 676290 -227326c-70547,41586 -509657,307075 -533132,312410 653,1011 1765,1195 2161,2890 1745,7432 111608,92455 126967,105097 14214,11710 50896,37395 57188,50341l-70373 219702c-44200,144822 -100703,303219 -140281,443165 -4628,16378 -29398,99223 -35258,108805 -6016,9830 -337740,186255 -376632,207023 -31941,17054 -63186,34209 -96141,51788 -28663,15298 -67744,32762 -97615,46269 -34375,15538 -66232,32022 -100455,47385 -16784,7541 -30300,15133 -46894,23222 -17321,8442 -32046,14131 -50892,22881 -24272,11269 -48379,23204 -72805,34831 1346,1855 2674,3724 3993,5599 32867,1177 65645,5903 97717,14205 38076,-3619 87495,-17444 123816,-22567l61954 66623c9522,-8837 -14399,-8488 20726,-8488 -5749,-8769 1645,-7064 -7767,-14292 16939,-93 3866,1042 11458,-1935l10579 -5828c-1049,-763 -4670,-2716 -4927,-3272 -5194,-11222 -9568,5524 293,-8097 -9020,-12725 -36980,-23782 -52122,-35791 29935,-901 338291,46985 397207,55088 53309,7330 43093,9913 91826,-8957 28276,-10952 56276,-20984 84660,-31985l143985 -55276c14550,-5933 12996,-6614 22040,266 -26902,13043 -60483,51829 -75947,63323 -6884,5114 -11907,7141 -18057,13212l-90188 80989c-26659,17729 -19761,22421 -5262,81659l84439 358260c-381,9872 920,4660 -3019,10226zm53148 279338c-4504,-3529 -8946,-7135 -13458,-10648 587,2093 1151,4190 1708,6290l11750 4358zm-867991 -1597939c-21704,-78741 95630,-97615 111200,-30349 17418,75234 -92023,99913 -111200,30349zm1931142 -1152561c-3149,-5172 -6213,-10412 -9165,-15734 -3013,13962 -8180,36267 -14878,64474 7058,-16773 15092,-33045 24043,-48740zm-292175 -1051006c-17946,-4617 -35770,-10378 -53377,-17320 7847,7903 13465,14055 26440,23854 14343,10828 19431,23994 33042,37077 1278,1228 2588,2505 3924,3823 -4115,-15736 -7507,-31357 -10029,-47434zm-1120755 -306906l-20089 6888c14523,-3007 28664,-5703 42117,-7968 -7357,541 -14700,901 -22028,1080zm-1353461 867206c846,6117 1572,12258 2167,18424 4457,-9207 9143,-18539 13686,-27104 -5215,3003 -10510,5881 -15853,8680zm483457 2053505c-10922,-16103 -17316,-24408 -38309,-25458 979,3043 1925,6096 2839,9158 12088,4944 23931,10368 35470,16300zm255409 337323l2513 -3026c396,-321 1774,-694 2413,-1361l-8193 -14071 -14272 -4028 484 2469c5878,6500 11556,13184 17055,20017zm-55708 -134607l8971 3947c19420,8727 33625,-5555 50693,-15437 33994,-19687 64261,-39089 97846,-57766 67100,-37326 128650,-75998 194550,-112873 20381,-11401 179537,-109004 195267,-111430 391,-1020 649,-3933 814,-3166 120,551 740,-1912 887,-2183 97,-175 519,-938 960,-1195l786 -16457 -29417 14426 -476831 275681c-24213,14178 -25583,7767 -52372,-3644l-11263 -4636c6863,11260 13228,22857 19109,34733zm155230 -1256730l-5478 1333 17358 94918 -63034 22041c-7922,-8940 -11075,-19445 -13046,-34183l-43709 16319c-6779,49279 2316,37804 -45042,52486l26365 -177652 46025 -15924c9894,21424 40051,82749 44008,104302 6773,0 3979,1314 5345,-7320l-13549 -109932 36407 -12813 24568 43511c7091,13043 13341,29808 22124,39192 24158,-68851 -15281,-97119 54471,-117409 11448,24940 19375,127868 24219,161610l-35690 10670 -9324 -101328c-6604,13640 -8038,36071 -11425,53728 -1710,8919 -3263,17646 -5082,26207 -8797,41453 -22427,15998 -36071,-9530 -8424,-15763 -14081,-22096 -19440,-40226zm357653 -194564l8778 137 1815 14587c2992,27941 21641,129004 16388,147308 -21158,8502 -52087,21921 -73929,22945 -12965,-15827 -30873,-47471 -42312,-41034 -15248,8585 -662,21642 -877,59091l-34988 11084 -2742 -10022c-9954,14 -8967,-2813 -7942,4168l-560 11002 -91426 32757 -21650 -163820 91274 -32918c14384,-768 8166,-6691 10868,997 2864,-7160 7450,-7059 19334,-10781 9269,-2900 17179,-5592 26406,-8681 16443,-5501 36265,-10074 52630,-1940 48851,24279 1562,91316 211,93963 21420,7775 13534,22973 41329,39783l-21766 -156342 29159 -12284zm203614 -68010l66222 147702 -39159 10859 -13410 -32495 -40340 15634c-3561,27904 3272,36981 -21310,45042l-44316 18157c-39435,15657 -70606,-9771 -81006,-37059 -35446,-93019 49642,-159835 96494,-117055l-15630 26131c-11310,-1609 -21194,-8006 -33691,147 -26125,17054 -17233,82330 4077,92961 46168,11957 21640,-21559 55704,-12975l21185 -142114 45180 -14935zm1397465 1446624l-481666 -698892c-5533,-8096 -10846,-15017 -17936,-24871 -78016,-108457 -73935,-88396 -39945,-151563 94508,-175626 185579,-358991 280134,-537011 23980,-45143 93452,-187280 111926,-214385 -7555,29825 -61016,159840 -76953,202690l-154257 413903c-16213,44963 -15781,25888 14062,100961l202599 505393c53731,132000 114334,271463 162036,403775zm-1380310 -1936452c8005,1369 5418,2651 5607,-6297l-4132 -36116 330300 -113370c3213,25124 5570,74192 16159,92850 -27340,18782 -79459,29463 -113452,42813l51401 373196 -109118 36411 -50648 -371487c-12693,2956 -64356,19573 -75441,28020 46075,116389 18769,198470 -84817,253016 -28631,15073 -61080,25202 -94637,36375l21245 154950c-71121,17141 -126857,48864 -196356,66135l-35883 -99013 -121094 42873 -10809 113351c-35102,17407 -110254,35978 -124357,42403 -15745,7170 -21011,18245 -54835,30041 -23736,8283 -46398,13613 -72050,13162 -182505,-3230 -251127,-290070 -118631,-429399 14926,-15690 25919,-26352 46218,-39459 97119,-62702 145869,-18643 193489,5042l-52892 82492c-325,-662 -1323,1695 -2076,2458 -44440,-36190 -89068,-14370 -113268,24816 -27000,43714 -29890,91696 -19017,144473 20616,100064 91867,123006 141849,87219 12706,-9099 30041,-32592 41015,-45229 9169,4585 18038,13649 27238,20123l2546 -5449c6200,-17271 -3593,15294 1921,-5861 1122,-4305 1471,-8767 2119,-13106l27817 -183401c9430,-69095 22578,-140230 30965,-208081l131665 -43460 150037 323724 -48162 -362084c74578,-18360 204978,-91136 280084,-54131zm712944 -287838l63599 468703c-14306,9890 -170341,62808 -196003,69237l-37541 -98125 -119104 41714 -12031 115644 -116844 39981c-1953,-24090 67261,-488545 76673,-519979l130487 -43934 150079 325888c-3087,-39706 -50491,-344486 -46047,-363452l106732 -35677zm147088 105002l-1926 583c2436,29995 56720,224146 54380,318706l-102901 35349 -63258 -471432 102657 -35018c15216,14738 78930,108897 98061,134730l92941 140368c-7926,-48985 -28662,-100144 -36356,-154151 -7458,-52353 -18675,-115078 -21640,-167408l103084 -34132 63889 470139 -103926 35548 -143272 -202262c-12854,-21999 -29371,-47707 -41733,-71020zm-1444189 -182106l-42308 17665 -13028 47115 165208 -62505c53034,-21003 106972,-40525 160147,-61669 55433,-22041 103494,-44307 155410,-66352 48640,-20648 105667,-52987 152708,-69288l-4545 10878 193687 -80152c-16683,28456 -26421,31011 -39224,44012 -18327,18612 -5887,14789 -38465,43263 -16126,14095 -8282,16007 -39003,42716 -15800,13742 -20010,28870 -38139,43590 -28310,22988 -85387,107528 -123163,122091l-415920 155934c-33678,12495 -88195,36824 -118967,42757 -9476,10681 -6562,6770 -21614,11031 -10073,2854 -10225,3492 -21567,3501 -13929,1994 -14425,-8657 -18033,42753 38552,-4849 266201,-109366 301643,-112703 12232,-10161 31043,-13363 47523,-21429l8157 -2555 -5010 4559c-9779,28782 -38613,69834 -54136,99545 -13548,25933 -12918,27077 -41245,36700 -77289,26265 -211399,71812 -275650,100746 4711,6645 146807,110694 163728,114950 -8809,17978 -38052,41774 -52482,56323 -12109,-6488 -90382,-56047 -93994,-56319 -6402,-482 -85455,44941 -91705,51513 -23466,-12023 -70934,-61302 -78948,-78627 -11903,-6309 -15078,-13694 -28254,-21379 2619,-45546 62509,-367189 75387,-440259 21057,-119523 -5516,-85686 120413,-136246l641713 -257110c72583,-28296 185488,-87809 263337,-119491l-5473 12679 194298 -81039c-11053,23345 -21833,21287 -45808,53231 -15530,20698 -14688,14026 -25405,25037 -8057,8281 -12588,17592 -20460,26420 -10451,11719 -14757,10777 -25570,24858 -26696,34775 -67886,72105 -89849,100929 -10800,14172 -12666,11471 -23723,22813 -8570,8791 -13979,19999 -22091,28671 -14021,14996 -416362,160773 -449358,173107 -93112,34813 -187124,76596 -280222,107736z"/>
  <path class="fil20" d="M1422636 1260336l17251 131977c47023,-9706 109738,-33543 105405,-93746 -5667,-78672 -73254,-57730 -122656,-38231z"/>
  <path class="fil20" d="M2092390 1219555l-62579 -171154 -5955 51029c-888,17266 -442,32739 -1884,50373 -2643,32316 -6544,64954 -7845,98184l78263 -28432z"/>
  <polygon class="fil20" points="1130157,1553532 1208112,1527167 1143939,1353715 "/>
  <path class="fil21" d="M1023726 2448201c323,-26582 2137,-57680 4248,-84394 1534,-19467 3326,-45230 -22451,-60989 -5762,21816 -28938,153769 -36594,164533 -5221,7334 -9306,6581 -17597,17343l-106558 123149c-9477,9389 -8663,4517 -18042,16871 -5294,6971 -7449,11801 -13364,17780 -9330,9435 -8952,5804 -17643,17329 -6421,8526 -6163,10038 -14003,17161l-48290 52900c-20621,27914 -18277,16917 -31205,34941 -22358,31166 -18534,19678 -30635,35446l-44677 52693c-49293,49986 -49124,50331 -89312,45933l-6682 -28318 -25110 74780c144794,-26637 116434,-16021 161200,38740 81981,-50225 163990,-99205 244174,-150432l240792 -148581c-8020,-19205 -52197,-62105 -56609,-65078 -19614,-13217 -89923,20096 -120727,-54132 -24549,-59165 8966,-91963 49085,-117675z"/>
  <path class="fil22" d="M766970 2291715c-312,49670 -8074,97685 -8667,149946 -607,53332 -1912,106889 -1709,160098 -12579,-13236 -111233,-175213 -111307,-183407 -73,-7541 73810,-203172 81017,-215782 67381,-4330 134127,-15303 199835,-27193l-159169 116338zm-387869 -4931c1208,464 3093,-441 3667,1288 574,1723 5234,2959 6052,3758 1402,1374 5180,7331 5804,8737l309713 -121595c-4265,14020 -10235,25896 -15915,38975 -7661,17633 -12210,21282 -15589,39660 1876,1236 8746,-3364 2703,20533 -36857,145763 -68750,97666 2642,218585l30074 51903c9210,16705 6218,14375 3769,18117 4660,14967 -952,78 3428,8846 6434,12882 31070,36907 43653,67114 -15344,2560 -41232,20165 -59623,27946l58911 13406c20547,-27119 25009,-25713 35975,-41108 8810,-12367 6498,-9586 18442,-20382 9894,-8943 10593,-13561 19150,-23842 15358,-18437 58493,-57904 75533,-86153 30487,-65300 24996,-102032 36696,-187401 7284,-53121 5230,-40841 28622,-83502 11843,-21599 5293,-38093 3552,-74058 -285,-5855 -253,-8005 -1668,-13847 -1687,-6958 -2418,-7610 -4187,-10657 -55106,7220 -117178,17937 -171416,21559 -23190,1548 -61066,-6857 -85129,-10957 -36875,-6278 -38843,2160 -69545,16406 -38318,17781 -241615,112920 -265314,116669z"/>
  <path class="fil23" d="M325327 959852c-23240,57845 -32757,162299 -36209,228866 -3069,59118 -10445,205631 -1640,257878l-1429 82529 -84574 3424c-8643,10753 -36434,55031 -40041,67412 9407,-547 -1659,-1227 11333,1283 8759,-2110 105,2086 8824,-6628l34072 -28906c10041,6388 48718,44881 54949,55088 -12973,5634 -32896,26245 -35308,30863 -11696,22395 34798,129970 34030,162956 15795,19054 15106,48356 39969,74762 -7670,-21503 -4123,-6640 4255,-9600 -6862,-10878 -14936,-23920 -14315,-37243 -4168,-22454 -13755,-26375 -15767,-47087 -6674,-27895 -36412,-120809 -30690,-140676l29848 -26314c-2908,-15556 -4549,-5598 -5330,-23971 36608,-17496 67835,-24173 112982,-19104l-38387 -6604c27951,-6314 79523,8525 108889,14715 30294,6383 78245,9545 95179,33327l7716 -16829c-18717,-9904 -91623,-26456 -122992,-34880 -28189,-7570 -102684,-25014 -124252,-36173l7643 -103998 30763 -352070c10359,-53277 10501,-102602 26549,-156600 21273,-71559 34862,-74439 58359,-118098 -11714,-2725 -6327,-2045 -13961,-685 -3920,11953 -4867,9352 -7803,21756l-11719 -15128c-12505,-36168 17767,-66 -2895,-14449 -24614,19495 -65055,119072 -78048,160184z"/>
  <path class="fil24" d="M486923 536477c96968,-21825 220125,-97574 299657,-161963 10726,-8681 18667,-14261 28409,-22100l43259 -30791c8452,-5878 7312,-5969 16136,-11052 181342,-104463 379492,-172841 581280,-235879 28736,-8980 144320,-38107 158203,-46948 -75166,-1402 -244370,45247 -329922,70151 -102690,29890 -207433,67371 -303785,108286 -98635,41885 -245800,116931 -329045,180705 -19739,15124 -39950,31696 -59527,45597 -19118,13571 -99182,90378 -104665,103994z"/>
  <path class="fil25" d="M324082 1434942l887 12804 96489 698c20111,-983 45759,560 66595,1245 31512,1038 42009,8236 46563,-22361 -18359,-5815 -96287,-139561 -104044,-153903 -42036,-77713 -49182,-132736 -67897,-177138l-7830 -13415 -30763 352070z"/>
  <path class="fil26" d="M1191293 960238c2936,4932 -18613,33911 -23415,40892 -45028,65451 -27721,64128 -69835,77730 -17528,5657 -34513,11503 -52234,17684 -36430,12712 -70915,25231 -107202,36903 -29223,9403 -81149,24334 -106517,37422 12849,24986 29559,51594 41553,76278 -8910,9117 -21953,13066 -35473,19205 -9844,4467 -23272,13038 -33961,13148 -22477,234 -58792,-13226 -86678,-13856 8014,17325 55482,66604 78948,78627 6250,-6572 85303,-51995 91705,-51513 3612,272 81885,49831 93994,56319 14430,-14549 43673,-38345 52482,-56323 -16921,-4256 -159017,-108305 -163728,-114950 64251,-28934 198361,-74481 275650,-100746 28327,-9623 27697,-10767 41245,-36700 15523,-29711 44357,-70763 54136,-99545l-3147 -2004c-16480,8066 -35291,11268 -47523,21429z"/>
  <path class="fil27" d="M283476 1795449c16783,-18102 41534,-69876 57955,-95712 9245,-14550 15624,-13805 33901,-17137 29871,-5441 57781,-11595 87252,-17717 90488,-18796 53723,-4600 74174,-5188l9375 -35129c-20938,-14555 -125740,-36084 -155847,-39182 -45147,-5069 -76374,1608 -112982,19104 781,18373 2422,8415 5330,23971l-29848 26314c-5722,19867 24016,112781 30690,140676z"/>
  <path class="fil28" d="M52491 2304776l174844 400c5014,-18267 8415,-30657 14605,-47914 11466,-31939 -9333,-33502 -24825,-46686 -7532,-6411 -1090,-1549 -7574,-7817 -17629,-17055 -33465,-24482 -50538,-46674 -16884,2734 -42036,20740 -63736,32905 -18599,10427 -9068,-1439 -16099,15376 -3497,8365 -25340,90507 -26677,100410z"/>
  <path class="fil29" d="M172767 1601244c-33782,76516 -25593,92757 -17104,198259 5873,72973 -5093,42817 -48246,101995l-90202 104269c-6222,6347 -11595,14702 -17215,23461l36677 50657c27326,-3957 51476,-19269 77800,-12932 -649,-1121 -3107,-5303 -3686,-5992 -10391,-12418 -27340,-8313 -63673,-10175 -4172,-27340 -653,-23791 22670,-54555l71191 -92238c8699,-10487 33029,-39292 34669,-50414 2611,-17711 -15735,-117491 -19816,-141737 -8446,-50226 32031,-76022 46113,-116067 29935,15702 17986,20528 15656,56135 -1732,26456 6811,38240 13935,61830 7449,24682 23686,92931 36305,107610 -262,6770 671,2629 1493,-6733 768,-32986 -45726,-140561 -34030,-162956 2412,-4618 22335,-25229 35308,-30863 -6231,-10207 -44908,-48700 -54949,-55088l-34072 28906c-8719,8714 -65,4518 -8824,6628z"/>
  <path class="fil30" d="M488435 2696354l7761 19398 66867 37193c326,16930 -777,111154 -11021,125019 7349,31034 33241,-1462 47078,-13833 8957,-8010 9831,-12036 17284,-21810l57418 -63135c19287,-27601 24495,-17408 35134,-44578 -16572,-1682 -36209,15744 -52166,20157 -17504,4844 -38841,-8144 -56167,-13112l-5506 -43185c-197,-74 -95271,-12358 -106682,-2114z"/>
  <path class="fil31" d="M408559 1848225c-12826,3824 -26237,8410 -39555,11995 -8488,2279 -42321,2251 -35179,-7174l-874 -8231 -4945 1080c-4457,5120 5588,8392 -12430,2555 -6701,-2169 -1540,-3074 -14440,-6383l-1893 469c-621,13323 7453,26365 14315,37243 21388,31278 9968,19687 46636,36030 19228,8566 38875,21860 61687,19604 29559,-17279 30717,-39458 49940,-66595l3443 -7941 24862 -75671c-21737,11686 -12743,9099 -27132,22817 -13690,13051 -6278,1223 -23130,23469 -10037,13250 -31595,32666 -58401,35828l17096 -19095z"/>
  <path class="fil32" d="M324564 1788008l12147 4873c6484,-11196 2555,-6848 11631,-12855l3451 21383 -864 9096c11674,16024 -5790,28139 -17978,34310l874 8231 59040 -9274c-15984,-12730 -10,-18185 -14082,-47565 -7858,-16401 -15781,-18764 -22830,-33345 -8396,4003 -15723,5887 -21761,11737 -3677,3561 -5625,9053 -9628,13409z"/>
  <path class="fil33" d="M316136 1811869c9255,13603 8520,17233 11870,34026l4945 -1080c12188,-6171 29652,-18286 17978,-34310 -4356,8621 -2426,6107 -12077,10151l-2141 -27775 -12147 -4873 -8428 23861z"/>
  <path class="fil34" d="M512075 1678123l-2735 12422c-7109,21130 -5611,27652 -408,42459 2195,6250 358,-6062 3901,12165 8479,-13369 16103,-57823 20933,-75612l-21691 8566z"/>
  <path class="fil35" d="M684189 2634291c-9457,-882 -18837,-2786 -24981,-9771 -15837,4059 -6172,2105 -20322,7666 7449,5459 3245,4692 21784,6594 25950,2661 20063,456 23519,-4489z"/>
  <path class="fil36" d="M907683 1030188c11342,-9 11494,-647 21567,-3501 15052,-4261 12138,-350 21614,-11031l-19252 1338c-4398,1623 -6258,1948 -11171,4298 -4063,1938 -3934,1851 -8038,4535 -602,390 -1948,2858 -2376,2101 -432,-777 -1567,1502 -2344,2260z"/>
  <path class="fil37" d="M350929 1810505l864 -9096c-7844,-4282 -1870,-1019 -8336,-4692 -6286,-3570 -1273,-936 -6746,-3836l2141 27775c9651,-4044 7721,-1530 12077,-10151z"/>
  <path class="fil38" d="M336711 1792881c5473,2900 460,266 6746,3836 6466,3673 492,410 8336,4692l-3451 -21383c-9076,6007 -5147,1659 -11631,12855z"/>
  <path class="fil39" d="M453637 1765206c4839,3120 -8521,5726 11062,3727 18735,-6770 5495,-5396 -5162,-7391l-5900 3664z"/>
  <path class="fil40" d="M393435 1742596c-883,-952 -3006,-3567 -3543,-4288 -470,-617 -1526,-2059 -2000,-2689 -510,-685 -1378,-1985 -2105,-2955 -4788,6172 -6875,-8796 -3487,7335l11135 2597z"/>
  <path class="fil41" d="M1394298 2866116l11806 -5303c-4751,-4053 1117,-1494 -9145,-1241 -441,257 -863,1020 -960,1195 -147,271 -767,2734 -887,2183 -165,-767 -423,2146 -814,3166z"/>
  <path class="fil42" d="M1370447 1723105l-1815 -14587 -8778 -137c6931,6526 4439,-3125 10593,14724z"/>
  <path class="fil43" d="M509340 1690545l2735 -12422 -7634 5074c8010,18 5511,-1668 4899,7348z"/>
  <polygon class="fil44" points="1241963,940813 1246973,936254 1238816,938809 "/>
 </g>
</svg>
