<?xml version="1.0" encoding="utf-8"?>
<!-- Generator: Adobe Illustrator 19.0.0, SVG Export Plug-In . SVG Version: 6.00 Build 0)  -->
<svg version="1.1" id="Layer_1" xmlns="http://www.w3.org/2000/svg" xmlns:xlink="http://www.w3.org/1999/xlink" x="0px" y="0px"
	 viewBox="0 0 1280 800" style="enable-background:new 0 0 1280 800;" xml:space="preserve">
<style type="text/css">
	.st0{fill:#EAEAEA;}
	.st1{fill:#727272;}
	.st2{fill:#4D4D4D;}
	.st3{fill:#333333;}
</style>
<g id="XMLID_32_">
	<g id="XMLID_33_">
		<polygon id="XMLID_30_" class="st0" points="1174.7,667 1174.7,550.2 1145.3,550.2 1145.3,450.8 1071.7,450.8 1071.7,667 
			1038.8,667 1038.8,550.2 980.8,550.2 980.8,500.5 944,500.5 944,514.7 928.4,514.7 928.4,520.9 910,520.9 910,531.6 899.6,531.6 
			899.6,667 887.9,667 887.9,500.5 833.6,500.5 833.6,667 825.6,667 825.6,577.8 755.7,577.8 755.7,667 752,667 752,433 682.1,433 
			682.1,667 662.8,667 662.8,493 592.9,452.1 592.9,566.2 573.6,566.2 573.6,541.4 528,541.4 528,667 435.4,667 435.4,472.5 
			362.6,472.5 362.6,667 283.9,667 283.9,402.8 211.1,402.8 211.1,544.9 187.8,544.9 187.8,511.2 114.9,511.2 114.9,577.8 
			91.6,577.8 91.6,667 70.9,667 70.9,500.5 1,500.5 1,805.5 1280,805.5 1280,667 		"/>
		<path id="XMLID_29_" class="st1" d="M1243.1,553.6V716h-6.9V606.2h-37.8V716h-60.9V542.3h-45.4V716h-9.6V506.7
			c0-11.7-9.4-21.3-21.3-22l-1.4-55.6l-1.4,55.6c-11.9,0.7-21.3,10.3-21.3,22V716h-59V559.6h-45.4V716h-37V593.1H844V716h-29.2
			V502.1h-19.6l-1.7-66.9l-1.7,66.9h-26.1v43h-32.3l-16-26.9l-16,26.9h-3.2v-25.4h-45.6V716h-8.8v-88.1h-21v-26.7h-34.9v-18.5h-37.2
			v30.8h-16.8V460.5h-12.1c-3.8-9.3-12.7-16-23.4-16.8l-1.8-72.1l-1.8,72.1c-11,0.6-20.2,7.4-24.1,16.8h-9.5V716h-8.8V558.7h-43.3
			V716h-14V558.7h-30.6l-30-50.5l-30,50.5h-29.5V716h-7v-80.5h-47.5V716h-10.2v-63.7h-23.7V716h-21.4V607.9h-35.8V716H127v-71h-23.7
			v-9.5H79.5V716h-7V594.9H39v-36.2H14.8l-1.9-78.1L11,558.7H1v246.8h1279V553.6H1243.1z"/>
		<polygon id="XMLID_28_" class="st2" points="1208.8,586 1208.8,645.7 1185.9,645.7 1185.9,752.7 1141.8,752.7 1141.8,687.1 
			1099.1,687.1 1099.1,714.5 1085.5,714.5 1085.5,780.3 1032.4,780.3 1032.4,677.3 958.8,677.3 958.8,653 877.5,653 877.5,684 
			811.6,684 811.6,780.3 741,780.3 741,673.1 692.4,673.1 692.4,780.3 666.4,780.3 666.4,629.7 645.7,629.7 645.7,586.8 
			597.1,586.8 597.1,780.3 577.5,780.3 577.5,639 501.2,639 501.2,780.3 484.9,780.3 484.9,658.6 408.6,658.6 408.6,780.3 
			364.5,780.3 364.5,651.9 280.7,651.9 280.7,675.2 202.3,675.2 202.3,780.3 139.1,780.3 139.1,684.5 55.2,684.5 55.2,780.3 
			45.4,780.3 45.4,648.3 1,648.3 1,805.5 1280,805.5 1280,586 		"/>
		<polygon id="XMLID_27_" class="st3" points="1231.8,709.1 1231.8,772.5 1202.6,772.5 1202.6,739.5 1135.9,739.5 1135.9,762.9 
			1069.2,762.9 1069.2,784.2 1016.2,784.2 1016.2,713.6 969.3,713.6 969.3,757.3 945.9,757.3 945.9,784.2 932.4,784.2 932.4,736 
			848.6,736 848.6,785 805.7,785 805.7,736 771.3,736 771.3,784.2 755.3,784.2 755.3,766.5 721,766.5 721,784.2 700.9,784.2 
			700.9,736 637.4,736 637.4,784.2 627.3,784.2 627.3,736 592.9,736 592.9,784.2 585.2,784.2 585.2,672.5 550.9,672.5 550.9,785 
			510,785 510,709.1 460.9,709.1 460.9,727.6 411.9,727.6 411.9,754.5 381.1,754.5 381.1,713.6 328.5,713.6 328.5,703.6 
			245.4,703.6 245.4,713.6 185,713.6 185,739.5 161.5,739.5 161.5,724.3 123.5,724.3 123.5,709.1 1,709.1 1,805.5 1280,805.5 
			1280,709.1 		"/>
	</g>
</g>
</svg>
