<?xml version="1.0" encoding="UTF-8"?>
<!DOCTYPE svg PUBLIC "-//W3C//DTD SVG 1.1//EN" "http://www.w3.org/Graphics/SVG/1.1/DTD/svg11.dtd">
<!-- Creator: CorelDRAW X7 -->
<svg xmlns="http://www.w3.org/2000/svg" xml:space="preserve" width="8838px" height="887px" version="1.1" style="shape-rendering:geometricPrecision; text-rendering:geometricPrecision; image-rendering:optimizeQuality; fill-rule:evenodd; clip-rule:evenodd"
viewBox="0 0 95249280 9555554"
 xmlns:xlink="http://www.w3.org/1999/xlink">
 <defs>
  <style type="text/css">
   <![CDATA[
    .fil1 {fill:#BDBFC1}
    .fil0 {fill:#BDBFC1}
    .fil3 {fill:#848688}
    .fil2 {fill:#848688}
    .fil5 {fill:#606062}
    .fil4 {fill:#606062}
   ]]>
  </style>
 </defs>
 <g id="Layer_x0020_1">
  <metadata id="CorelCorpID_0Corel-Layer"/>
  <g id="_84861358560">
   <polygon class="fil0" points="95249280,3036552 92942255,3036552 92942255,780812 90025115,0 88774970,0 88774970,3426952 86857988,3426952 86857988,1908657 84982707,1908657 84982707,4164383 83274100,4164383 83274100,2949791 81107107,2949791 81107107,0 80231947,0 80231947,780812 79690212,780812 79690212,0 78690040,0 78690040,3513700 77148133,3513700 77148133,780812 76064649,780812 76064649,2472617 75439526,2472617 75439526,1171225 73981006,1171225 73981006,2993159 72064037,2993159 72064037,1366425 71313902,1366425 71313902,2819649 69855332,2819649 69855332,1366425 67646664,1366425 67646664,2038786 66459006,802515 64924036,802515 64924036,2530458 64715674,2530458 64715674,1735147 63875264,1735147 63875264,8573852 95249280,8573852 "/>
   <path class="fil0" d="M32331749 8573852l0 -1069240 666773 0 0 -3875230 687610 -715742 562586 0 0 -281974 194474 0 0 1474864 1930831 0 493148 -513312 354211 0 0 701345 638999 0 0 -419383 208361 216953 0 202430c0,0 604248,-21690 583411,0 -20838,21665 0,-737482 0,-737482l1111322 -13 0 -2168953 527860 0 0 650722 416711 0 0 -650722 555623 0 0 679642 1083509 0 0 2255727 1264083 0 0 -708575 187525 195200 0 983293 493161 0 0 -1438764 798722 -831410 0 1294111 493111 0 0 -506069 1528032 0 0 578382 291699 0 0 903750 291712 0 0 -2508768 305624 0 0 621751 1972506 0 0 419333 319499 0 0 -607278 402848 0 0 1633964 2542042 0 0 -1258037 222287 0 0 592830 958446 0 0 -1749569 1007097 -1048364 1020996 1062811 0 520542 1014060 0 1125145 1171212 1698182 0 0 -1547177 302124 0 0 477174 229250 -238568 0 -643479 812610 0 0 1243539 1514120 0 0 1677357 291686 0 0 -896545 319499 0 0 1077272 194500 0 0 -788081 215311 -224133 0 -1539921 159737 0 0 1547151 215312 224121 0 1395396 131975 0 0 3165917 -32338330 0z"/>
   <polygon class="fil1" points="204989,8573852 204989,3412517 573100,3412517 573100,4771724 1295435,4771724 1295435,4048753 4295887,4048753 4295887,6217706 6185056,6217706 6185056,2313555 7518601,2313555 7518601,4569294 8741022,4569294 8741022,2197886 9491158,1417074 10380154,1417074 10380154,1098962 10852466,1098962 10852466,4627122 11852638,4612662 11852638,1098962 12324911,1098962 12324911,1532742 13825143,1532742 14408553,2140045 14408553,5379065 15603212,5379065 15603212,2559365 17297894,2559365 17297894,3210100 18492515,4453600 18492515,3499291 18909276,3499291 18909276,4482520 19826060,4482520 21777779,2450927 23993359,2450927 23993359,3354689 25354705,3354689 25354705,1908695 25882578,1359233 25882578,983293 26077040,983293 26077040,1330312 26646588,1923155 26646588,3875230 27966234,3875230 27966234,2255727 28577432,2255727 28577432,3210100 29660890,3210100 29660890,2313555 31994620,1445994 31994620,2920858 32543318,2920858 32543318,8573852 "/>
  </g>
  <g id="_84861359616">
   <polygon class="fil2" points="95249280,4530420 94987800,4530420 94664864,4866632 94664864,2708524 93800116,2708524 93331306,2220493 90466303,2220493 90466303,4183388 89591156,4183388 89591156,3467659 89111907,3467659 89111907,4747310 88653534,4747310 87830449,3890607 86653165,3890607 86293748,4264765 85861406,4264765 85861406,6525876 84090286,6525876 82652566,5029322 82652566,2426563 82173330,1927674 79860488,1927674 79422927,2383183 79422927,5246212 77610146,5246212 77610146,2686834 77266309,2328944 77266309,1797532 76943348,1797532 76943348,5441412 75255578,5441412 75255578,3255250 74503330,2472184 72671875,2472184 72671875,6395747 71588353,6395747 71588353,4096639 69963096,4096639 69963096,2947105 69660972,2632596 69660972,4118330 69338011,4118330 69338011,2556654 66650120,2556654 66650120,4270149 65941659,4270149 65941659,3255250 65587448,3255250 65587448,4270149 64795651,4270149 64795651,4964251 64441440,4964251 64441440,3576098 63983029,3576098 63983029,9004959 95249280,9004959 "/>
   <polygon class="fil2" points="64670079,9004959 64670079,6417424 64440880,6417424 64440880,7133217 64107455,7133217 64107455,4617207 63690732,4617207 63690732,5788419 62982309,5788419 62982309,4335258 62159236,3478517 60023506,3478517 60023506,995029 58669123,995029 58669123,2838653 58356574,2838653 58356574,1081778 57252266,1081778 57252266,3576098 56231257,3576098 55616596,2936234 53814240,2936234 53814240,5072677 52897405,5072677 52897405,2404873 52584856,2404873 52584856,4140007 52188983,4140007 52188983,2361480 51813934,2361480 51813934,4074936 50126165,4074936 50126165,5094380 49782379,5452270 49782379,3576098 48125859,3576098 48125859,4335258 48125859,5701683 47250712,5701683 47250712,4638897 45021207,4638897 45021207,5810122 43354275,5810122 43354275,3923104 42750027,3923104 42750027,5831825 41874867,5831825 41874867,2838653 41333131,3402563 41020595,3402563 41020595,3185685 40666384,3185685 40666384,3424266 39957911,3424266 39259901,4150865 39259901,4920871 38311816,4920871 38311816,6027025 37884680,6471663 36790784,6471663 36790784,4552136 36280261,5083510 34477917,5083510 33826775,4405713 32706810,4405713 32706810,6027025 32331749,6027025 32331749,9004959 "/>
   <polygon class="fil3" points="39078,9004959 39078,6070443 539151,6070443 1070487,5517341 1070487,6851256 1664323,6851256 1664323,4378626 1893535,4378626 1893535,3901478 2289433,3901478 2289433,3467646 2872856,3467646 2872856,4400329 3414592,4400329 3758391,4758219 3758391,6872933 4539788,6872933 4539788,5289580 4800237,5560722 5237786,5105251 5237786,4573839 5623259,4573839 5623259,5137761 5894121,5137761 5894121,3641207 6071233,3825536 6071233,5116071 6665106,5116071 6665106,5961992 8290363,5961992 8290363,3467646 8811261,3467646 8811261,5745051 9175898,6124631 9457184,5831850 10165657,5831850 10571956,6254773 10769892,6254773 10769892,5745051 11186616,5311270 12916060,5311270 12916060,5593282 12645186,5593282 12645186,5918624 13249434,5918624 13249434,6547604 13666196,6547604 13666196,4942561 14457968,4942561 14457968,5701683 14843441,6102953 14843441,4942561 15624826,4942561 15624826,3966536 15843613,4194246 15843613,4964238 16208237,4964238 16208237,6005373 16499948,6005373 16499948,4248497 16874997,4248497 16874997,5831850 17812656,5831850 17812656,5354651 18458566,5354651 18458566,5614973 18937802,5614973 18937802,3467646 19292064,3467646 19292064,2990473 19458751,2990473 19458751,3489324 19667113,3489324 19667113,2990473 19875475,2990473 19875475,4183426 21271533,4183426 21271533,5267890 21667406,5267890 21667406,5007619 22000792,5007619 22000792,4617219 22896790,4617219 22896790,4140058 25188794,4140058 25188794,5506483 25543006,5506483 25543006,4595529 25918054,4595529 25918054,3836407 26772389,3836407 26772389,4530458 27772510,4530458 27772510,5680031 28064222,5680031 28064222,3988226 28210071,3988226 28210071,5680031 29168556,5680031 29168556,3229053 29960328,3229053 29960328,6222263 30647964,6222263 30647964,3207376 31460573,3207376 31460573,6113824 31856472,6113824 31856472,4660600 32377408,4660600 32377408,9004959 "/>
  </g>
  <g id="_84861360672">
   <path class="fil4" d="M64670079 9555554l0 -1993228 -375100 0 0 780812 -395886 0 0 -2038849 -500048 0 0 542244 -187524 0 0 -542244 -125012 -130142 -416723 0 0 -281961 -270938 0 0 -2147263 -229174 0 0 -390400 -1020971 0 0 498839 -354211 0 0 260271 -510537 531399 0 3134171 -385461 0 0 -1843624 -291698 0 0 1887017 -541736 0 0 -2060552 -333437 0 0 303677 -1020959 0 0 -1453250 -1521082 0 0 542245 -250024 0 0 -238568 -333387 0 0 195225 -270861 0 0 455471 -312587 0 0 195200 -291712 0 0 1019418 -250024 0 0 -672373 -1583582 0 0 2103907 -416723 0 0 -2299120 -187525 -195200 0 -390400 -458398 0 0 1453186 -645948 0 0 -542244 -187524 0 0 542244 -187525 0 0 -520541 -250049 -260271 0 -867586 -166687 0 0 845883 -312523 325342 0 477173c0,0 -479249,0 -541749,0 -62550,0 0,-1301354 0,-1301354l-1333545 0 0 -368735 -135437 140975 0 2158095 -281287 0 0 -520542 -750135 0 0 -455483 -302137 -314497 0 -1572508 -177099 0 0 -477148 -479236 0 0 3622190 -312574 0 0 -1192966 -187524 0 0 -650671 -958459 0 0 216903 -500074 0 0 347006 -416761 0 0 477174 -875109 910992 0 -1821946 -854323 0 0 -108439 -166700 0 0 151807 -187524 0 0 1431496 -291699 0 0 -2385856 -250036 -260271 -458386 0 -250037 260271 0 1431534 -187562 0 0 607315 -260449 -271116 0 -683231 -593835 0 -333374 347032 -604286 0 -322961 336199 -156275 0 0 -357890 -270861 0 0 -347019 -250037 0 0 368710 -1083522 0 0 932644 -312536 0 0 -3058229 -375049 0 -614660 -639864 0 618161 -281312 0 0 3318563 -270874 0 0 -650734 -354223 0 0 585664 -250037 0 0 -976064 -333387 0 -322961 336200 -364649 0 0 1073644 -187524 0 0 -867612 -312549 0 0 2383692 32338330 0z"/>
   <polygon class="fil5" points="0,9555554 0,7327322 166687,7327322 166687,8767881 520911,8767881 520911,7118833 750123,7118833 1156434,6749169 1156434,7459971 1312708,7459971 1312708,5810911 1771107,5810911 1771107,5431827 2104493,5431827 2104493,4938984 3118527,4938984 3118527,5520294 3451952,5823538 3451952,8275050 3896424,8275050 3896424,6922946 4049237,6783919 4049237,5861483 4188123,5861483 4188123,6783919 4382610,6960853 4382610,8325623 4660434,8325623 4660434,6885051 4799334,6885051 4799334,6670236 5035483,6670236 5348032,6385882 5348032,6025739 5549469,6025739 5549469,6366928 5730031,6366928 5730031,6013086 6077330,6013086 6077330,6392208 6348204,6638604 6348204,7213575 6507928,7213575 6507928,7011413 6646865,7011413 6646865,7238868 6841353,7415776 6841353,7693740 7063589,7693740 7063589,5078011 8536034,5078011 8536034,6657558 9008345,7087214 9008345,7719033 9216707,7719033 9216707,7276750 9390357,7118833 9966804,7118833 9966804,7289389 10314103,7289389 10696102,7636905 10696102,7213575 11026026,6913475 12619983,6913475 12619983,7024040 12383872,7024040 12383872,7403123 12821432,7801161 12821432,7289389 12995082,7289389 12995082,8186596 13175644,8186596 13175644,7681126 13564605,7681126 13564605,8363504 13911866,8363504 13911866,7087214 14314702,6720745 14696714,7068261 14696714,8123409 14984963,7861204 14984963,7074587 15203750,7074587 15203750,5912005 15842697,5912005 15842697,7466298 16151783,7185151 16703982,7185151 17039061,7490012 17039061,6872386 17648566,6872386 17648566,6998747 18218102,6998747 18218102,8275050 18426464,8275050 18426464,7478963 18634813,7478963 18634813,6897666 18898724,6897666 18898724,8148689 19162686,8148689 19162686,5962565 19329360,5962565 19329360,5798296 20718468,6013086 20718468,7504205 20940756,7504205 20940756,6922946 21315804,6922946 21315804,6746025 21565828,6746025 21565828,6569091 22135364,6569091 22135364,6190007 22579875,6190007 22579875,6885051 22871574,6885051 22871574,6051032 23260510,6051032 23260510,5747737 23482784,5747737 23482784,6038353 23830032,6038353 24663530,5280173 24663530,7390509 24927442,7390509 24927442,6910293 25358078,6518569 25608127,6518569 25608127,7011413 25969276,7011413 25969276,5583468 26274862,5583468 26274862,5457107 26774973,5457107 26774973,5621363 27094472,5621363 27094472,6354314 27795945,6992421 27795945,7573718 28039069,7573718 28039069,6973467 28441906,6607049 28441906,5495001 28650267,5495001 28650267,5052731 28997528,5052731 28997528,4686274 29122540,4686274 29122540,4395645 29261465,4395645 29261465,4686274 29539315,4686274 29539315,5545574 30317199,5545574 30317199,7466298 30650560,7466298 30650560,7959141 31192296,7466298 31192296,7984421 31525695,7984421 31525695,6379543 32338330,6379543 32338330,9555554 "/>
   <polygon class="fil4" points="63794410,9555554 63794410,7562275 64523682,7562275 64523682,6174160 65065443,6174160 65065443,6781462 65565516,6781462 65565516,5870508 66044765,5371619 66419826,5762070 66419826,6998353 66774037,6998353 66774037,3701543 67149086,3701543 67149086,2920692 68315957,2920692 68315957,3701543 68732681,3701543 68732681,6564572 69066054,6564572 69066054,5870508 69774477,5133038 70503787,5892211 70503787,6564572 70899673,6564572 70899673,8343138 71399734,8343138 71399734,6564572 71795658,6152482 72170707,6542882 72469381,6542882 72469381,5899441 72747154,5899441 72747154,5422230 73163929,5422230 73413953,5161959 74483562,5161959 74754423,4879998 75330921,4879998 75626082,5187277 75973382,5187277 75973382,6748952 76301549,6407305 76301549,4547426 76650554,4547426 76650554,6391050 76937047,6689266 77286103,6689266 77286103,6152482 77806988,6152482 77806988,6564572 78057037,6564572 78057037,6770643 78286224,6770643 78994659,4981219 79411420,4981219 79411420,4395594 80734503,4395594 80734503,4200407 81224202,4200407 81495063,4482355 81495063,6781462 81682587,6781462 81682587,6369372 82297248,6369372 83021352,7123059 83021352,7508074 83599543,7508074 83599543,6203080 83957217,6203080 83957217,4684785 84214216,4417284 84985189,4417284 85203976,4645045 85203976,5942809 85665824,5942809 85665824,5436690 86221472,5436690 86221472,5812680 86936870,5067967 87721717,5067967 87721717,5581330 88138428,5581330 88138428,6015110 88874663,6015110 89228875,5646388 90638820,5646388 90638820,4482355 90888882,4482355 90888882,3846145 92361314,3846145 92361314,4337766 92687738,4677568 92687738,6983892 93014213,6983892 93014213,5234260 93660122,4561886 93660122,4009687 94347720,4009687 94347720,5913902 95097843,5913902 95097843,5407769 95249280,5407769 95249280,9555554 "/>
  </g>
 </g>
</svg>
