<?xml version="1.0" encoding="UTF-8"?>
<!DOCTYPE svg PUBLIC "-//W3C//DTD SVG 1.1//EN" "http://www.w3.org/Graphics/SVG/1.1/DTD/svg11.dtd">
<!-- Creator: CorelDRAW X7 -->
<svg xmlns="http://www.w3.org/2000/svg" xml:space="preserve" width="1372px" height="392px" version="1.1" style="shape-rendering:geometricPrecision; text-rendering:geometricPrecision; image-rendering:optimizeQuality; fill-rule:evenodd; clip-rule:evenodd"
viewBox="0 0 1583325 452377"
 xmlns:xlink="http://www.w3.org/1999/xlink">
 <defs>
  <style type="text/css">
   <![CDATA[
    .fil0 {fill:black}
    .fil2 {fill:#51231A}
    .fil1 {fill:#A64734}
   ]]>
  </style>
 </defs>
 <g id="Layer_x0020_1">
  <metadata id="CorelCorpID_0Corel-Layer"/>
  <g id="_532217650736">
   <path class="fil0" d="M1074860 186491c770,-7498 16346,-58163 20549,-72003 1503,-4949 4061,-21789 9004,-21789 26316,0 36222,-2847 29577,19951 -2870,9847 -5534,19115 -8360,28567 -14485,48454 -7583,45904 -50770,45274zm76468 36531l-3157 -2331 5226 -624c8151,-66 14100,-4531 18110,-8717 7945,-8297 16706,-45338 20000,-57301 4285,-15563 21720,-70340 23152,-80743 2436,-17678 -5579,-28583 -17356,-33517 -12272,-5140 -33484,-3448 -47891,-3448 -33186,0 -70493,-1598 -103506,31l-102872 351359 72542 -24 44074 -149672c10145,0 25693,-2232 31601,3531 3785,6771 -35328,122962 -40256,146182l70720 0c3803,-942 12855,-38006 13886,-41455 4175,-13947 8153,-28092 12347,-41923 5971,-19692 28653,-74278 3380,-81348z"/>
   <path class="fil0" d="M310509 324653c-2112,-15287 80880,-273916 81259,-288316l-71363 177 -60676 205939c-6377,21003 -27609,86853 -27323,104890 736,46426 52464,40405 92488,40430l-7666 27020 71788 -34976c14681,-7773 10292,-2075 15507,-19129 5839,-19096 94592,-318549 94626,-324357l-71655 153 -85902 292096c-5945,819 -12451,605 -18525,410 -7188,-232 -7611,-577 -12558,-4337z"/>
   <path class="fil0" d="M839456 414971c15651,-7064 30983,-15259 46577,-22815 8070,-3909 15906,-7712 24134,-11697 13602,-6589 11936,-2871 16193,-18430 24303,-88820 54424,-182373 79859,-272083 4252,-14999 13316,-39374 15417,-53582l-71846 -165 -85573 292611c-25859,1507 -36015,1656 -30180,-17529 3998,-13140 7880,-25868 11542,-39263 7161,-26179 15240,-52784 22951,-78568 7876,-26345 15346,-52035 23111,-78506 3188,-10866 22386,-72652 22060,-78603l-70799 0c-4816,8933 -11853,39041 -15545,51248 -5203,17203 -9961,34419 -15207,51768 -10179,33662 -20724,68576 -30036,102661 -4779,17489 -10097,34749 -15102,51804 -4476,15249 -12702,37212 -12393,53562 889,46704 51881,39650 92448,40439l-7611 27148z"/>
   <path class="fil0" d="M1261009 271645c2223,-9762 57074,-143266 62268,-156151 -154,8985 -17016,100648 -19931,118088 -509,3036 -4426,36941 -8527,38063l-33810 0zm135874 -235300l-102963 -117 -153466 351415 73582 17c4314,-2078 5930,-10358 7827,-15153l19059 -47985 47530 49 -10821 63102 72149 -392 47103 -350936z"/>
   <path class="fil0" d="M297095 36419c-30806,-944 -63023,-78 -93986,-78 -30786,0 -62490,-5335 -78311,15746 -8276,11029 -37997,120938 -44824,143317 -5167,16936 -40311,131399 -41020,147296 -1366,30640 20217,44627 49859,45040 31052,432 62435,8 93524,8 4516,-2386 6117,-11573 7994,-16232l19156 -50151c-16688,-936 -35606,-149 -52539,-149 -25377,0 -41729,4192 -38684,-12586l47197 -161655c3943,-13207 7644,-26759 11673,-40212 5301,-17706 8358,-14064 37449,-14064 -107,6012 -15537,54870 -18274,66725l70038 -16457 30748 -106548z"/>
   <path class="fil0" d="M1366096 387748l149142 0c4107,-824 12603,-28340 14035,-32119 2718,-7173 11598,-28058 12321,-34413l-78110 -15 41349 -142340c4647,-15281 41031,-137297 41026,-142520l-76313 0c-4287,8070 -10010,32545 -13193,43209l-64371 219526c-8469,28772 -18982,59786 -25886,88672z"/>
   <path class="fil0" d="M600647 36344l-76319 -3c-2393,3641 -47382,158281 -52003,175182 -8089,29594 -46791,153648 -51393,176225l149157 0c3235,-1570 3367,-3958 4788,-7900 4107,-11386 21080,-53722 21483,-58629l-78386 -142 82673 -284733z"/>
   <path class="fil0" d="M803737 99472c2338,-11698 18175,-55989 17605,-63137l-168740 205 -18464 62932 49834 132 -85002 288139 70366 5c4335,-2449 5345,-12429 6776,-17491l78477 -270785 49148 0z"/>
  </g>
  <g id="_532217590640">
   <path class="fil1" d="M198493 280428l-20773 0c4481,-19232 15674,-51637 21416,-73215 2733,-10274 -557,-8722 18976,-8722 5933,0 1842,6258 -1555,18064l-12297 41942c-1377,4968 -5670,17609 -5767,21931zm1384832 -215803l0 16280c-279,1377 -850,2644 -1943,4858l-1107 2354c-836,2129 -923,2941 -1330,4439 -15111,55464 -34137,115290 -50260,171314 -1466,5095 -4103,11553 -4215,16558l50777 0c2701,0 4616,1914 4616,4615l0 71551c0,3316 -16202,44162 -19484,53219 -2174,5997 -3844,11220 -7058,16022 -195416,0 -390831,0 -586246,0 -21269,0 -29597,-2235 -44992,4630 -10639,4745 -21775,10918 -32331,16139 -1572,778 -3109,1453 -4603,2321l-2770 1847c-215,128 -474,335 -700,454 -1032,539 -4772,907 -10137,1151l-72955 0 0 -26542c-22481,0 -73098,3791 -79627,-24234l-2309 0c-1042,4472 -2380,7581 -3713,12443 -4429,16158 -1525,11791 -34370,11791l-244653 0c-12594,0 -18548,-1445 -28381,2778 -7304,3138 -13292,6881 -20104,9901 -4367,1935 -6649,3019 -10963,5193l-14409 7519c-1019,532 -4506,902 -9507,1151l-73584 0 0 -26542c-13878,0 -33181,987 -46043,-1383 -10353,-1910 -5600,1383 -10504,1383l-169642 0c-26283,0 -50778,-14756 -50778,-40392l0 -79627c0,-13733 5935,-30809 9667,-42265 11799,-36234 23881,-82780 35483,-120310l29610 -100795c2484,-8927 5815,-20730 11496,-27740 2132,-2630 3518,-4700 6019,-6675 4348,-3434 9667,-8031 17358,-8031l1117099 0c12267,0 14645,9780 21925,10386 1036,-4447 2550,-6471 3462,-10386l331206 0 0 64625zm-429928 155442c-260,282 -761,950 -911,1169 -128,190 -421,635 -553,832 -150,222 -397,640 -605,954 25273,7070 2591,61656 -3380,81348 -4194,13831 -8172,27976 -12347,41923 -1031,3449 -10083,40513 -13886,41455l-70720 0c4928,-23220 44041,-139411 40256,-146182 -5908,-5763 -21456,-3531 -31601,-3531l-44074 149672 -72542 24 102872 -351359c33013,-1629 70320,-31 103506,-31 14407,0 35619,-1692 47891,3448 11777,4934 19792,15839 17356,33517 -1432,10403 -18867,65180 -23152,80743 -3294,11963 -12055,49004 -20000,57301 -4010,4186 -9959,8651 -18110,8717zm212699 167681c6904,-28886 17417,-59900 25886,-88672l64371 -219526c3183,-10664 8906,-35139 13193,-43209l76313 0c5,5223 -36379,127239 -41026,142520l-41349 142340 78110 15c-723,6355 -9603,27240 -12321,34413 -1432,3779 -9928,31295 -14035,32119l-149142 0zm-562359 -288276l-49148 0 -78477 270785c-1431,5062 -2441,15042 -6776,17491l-70366 -5 85002 -288139 -49834 -132 18464 -62932 168740 -205c570,7148 -15267,51439 -17605,63137zm-285763 221605l78386 142c-403,4907 -17376,47243 -21483,58629 -1421,3942 -1553,6330 -4788,7900l-149157 0c4602,-22577 43304,-146631 51393,-176225 4621,-16901 49610,-171541 52003,-175182l76319 3 -82673 284733zm-207465 3576c4947,3760 5370,4105 12558,4337 6074,195 12580,409 18525,-410l85902 -292096 71655 -153c-34,5808 -88787,305261 -94626,324357 -5215,17054 -826,11356 -15507,19129l-71788 34976 7666 -27020c-40024,-25 -91752,5996 -92488,-40430 -286,-18037 20946,-83887 27323,-104890l60676 -205939 71363 -177c-379,14400 -83371,273029 -81259,288316zm-44162 -181686l-70038 16457c2737,-11855 18167,-60713 18274,-66725 -29091,0 -32148,-3642 -37449,14064 -4029,13453 -7730,27005 -11673,40212l-47197 161655c-3045,16778 13307,12586 38684,12586 16933,0 35851,-787 52539,149l-19156 50151c-1877,4659 -3478,13846 -7994,16232 -31089,0 -62472,424 -93524,-8 -29642,-413 -51225,-14400 -49859,-45040 709,-15897 35853,-130360 41020,-147296 6827,-22379 36548,-132288 44824,-143317 15821,-21081 47525,-15746 78311,-15746 30963,0 63180,-866 93986,78l-30748 106548zm1083433 244314l-72149 392 10821 -63102 -47530 -49 -19059 47985c-1897,4795 -3513,13075 -7827,15153l-73582 -17 153466 -351415 102963 117 -47103 350936zm-510324 27690l7611 -27148c-40567,-789 -91559,6265 -92448,-40439 -309,-16350 7917,-38313 12393,-53562 5005,-17055 10323,-34315 15102,-51804 9312,-34085 19857,-68999 30036,-102661 5246,-17349 10004,-34565 15207,-51768 3692,-12207 10729,-42315 15545,-51248l70799 0c326,5951 -18872,67737 -22060,78603 -7765,26471 -15235,52161 -23111,78506 -7711,25784 -15790,52389 -22951,78568 -3662,13395 -7544,26123 -11542,39263 -5835,19185 4321,19036 30180,17529l85573 -292611 71846 165c-2101,14208 -11165,38583 -15417,53582 -25435,89710 -55556,183263 -79859,272083 -4257,15559 -2591,11841 -16193,18430 -8228,3985 -16064,7788 -24134,11697 -15594,7556 -30926,15751 -46577,22815z"/>
   <path class="fil1" d="M1074860 186491c43187,630 36285,3180 50770,-45274 2826,-9452 5490,-18720 8360,-28567 6645,-22798 -3261,-19951 -29577,-19951 -4943,0 -7501,16840 -9004,21789 -4203,13840 -19779,64505 -20549,72003z"/>
   <path class="fil1" d="M1261009 271645l33810 0c4101,-1122 8018,-35027 8527,-38063 2915,-17440 19777,-109103 19931,-118088 -5194,12885 -60045,146389 -62268,156151z"/>
  </g>
  <path class="fil2" d="M1151328 223022c208,-314 455,-732 605,-954 132,-197 425,-642 553,-832 150,-219 651,-887 911,-1169l-5226 624 3157 2331z"/>
 </g>
</svg>
