<?xml version="1.0" encoding="utf-8"?>
<!-- Generator: Adobe Illustrator 19.0.0, SVG Export Plug-In . SVG Version: 6.00 Build 0)  -->
<svg version="1.1" id="Layer_1" xmlns="http://www.w3.org/2000/svg" xmlns:xlink="http://www.w3.org/1999/xlink" x="0px" y="0px"
	 viewBox="0 0 1080 1920" style="enable-background:new 0 0 1080 1920;" xml:space="preserve">
<style type="text/css">
	.st0{fill:#BEBEBE;}
	.st1{fill:#C0333F;}
</style>
<g id="face_1_">
	<path id="XMLID_111_" class="st0" d="M540.6,1374.8c-40.2-0.8-76.4-13.5-110.2-33.5c-16.4-9.7-28.3-24-36.4-41.3
		c-4.3-9.3-10.3-17.4-18.4-23.6c-77.1-60.2-128.6-138.1-159.9-230.2c-23.6-69.5-46.5-139.1-63.4-210.6c-5.1-21.7-8.5-43.6-6.1-66
		c2.2-21.7,10-41,22.9-58.4c8.2-11,16.3-22,24.2-33.2c7.7-10.9,10.2-22.4,8.3-36.4c-14.4-106.2,13.7-200,84.7-280.6
		c3.9-4.5,3.7-7.3,1.3-12C257.9,291,228.4,233,199,175c-2.8-5.5-6.2-8.7-12.6-7.9c-1.8,0.2-3.6,0.1-5.4-0.1c-7.3-0.5-13.8-2.5-17-10
		c-3.4-7.8-1.6-14.9,3.8-20.9c10.6-11.6,24.4-18,39-22.8c4.1-1.4,8.7-0.7,13,0.5c13.9,3.8,19.4,15.8,11,27.4
		c-6.6,9.1-5.1,15.7,0.5,24.3c31.6,49.1,62.7,98.5,93.7,148c3.7,5.8,6,6.3,11.6,2.1C455,228,616.3,226.2,737,310.9
		c1.7,1.2,3.5,2.3,5.1,3.5c9.6,6.8,9.7,6.9,16.2-3.4c31.5-49.7,63-99.5,94.6-149.2c3.4-5.4,5.3-10.4,0.8-16.3
		c-5.4-7-9.5-14.6-3.8-23.4c4.8-7.5,16.5-11.7,26.4-8.4c13.3,4.4,25.8,10.6,36,20.6c6.4,6.3,9.1,13.8,5.6,22.6
		c-3.5,8.7-11.1,10.8-19.1,10.1c-9.3-0.8-13.6,3.4-17.6,11.3c-28.7,57.2-57.9,114.3-87.2,171.2c-2.9,5.7-2.7,9.1,1.6,13.9
		c46.6,52.5,74.4,113.7,83.6,183.3c4.3,32.5,4.1,65-1.4,97.3c-2,11.7,0.4,21.6,6.6,30.8c6.9,10.3,13.9,20.6,21.7,30.2
		c25.9,31.7,32.6,67.9,25.7,107.2c-9.6,54.3-26.2,106.8-43,159.2c-14.3,44.5-27.8,89.3-47.6,131.8
		c-31.2,67.2-75.4,124.3-133.6,170.4c-9.5,7.5-17.1,16.3-22.3,27.4c-8,17.1-19.9,31-36.1,40.6
		C615.8,1361.3,579.7,1373.8,540.6,1374.8z"/>
	<path id="XMLID_110_" class="st1" d="M643,1240.7c-1.6,0.2-4.2-0.9-6.9-1.9c-64.1-23.9-128.2-23.9-192.4,0
		c-10.3,3.8-19.3,1.6-26.8-6.3c-15.6-16.3-28.9-34.2-39.5-54.3c-17.6-33.6-35.4-67.1-51.2-101.7c-17.4-38-25.8-78.3-33.9-118.9
		c-2.4-11.9-5.8-23.5-1.7-35.8c1.4-4,2.6-4.3,5.8-2.4c8.5,4.9,17.1,9.7,25.6,14.6c40.7,23.7,82.9,26.4,126.6,9.2
		c22.1-8.7,44.4-16.9,67.4-23.1c16.2-4.4,31.9-4.4,48,0c21.5,5.9,42.5,13,63,21.5c46.4,19.3,91.1,16.6,134.3-9.5
		c7.3-4.4,14.9-8.4,22.2-12.7c3.2-1.9,4.7-1.8,5.6,2.4c1.8,8.1,2.9,16,1,24.4c-4.2,18.1-7.8,36.3-11.5,54.6
		c-9.6,47.4-30.7,90.3-52.6,132.8c-9.5,18.6-19.6,37-29.5,55.4c-9.2,17-21.9,31.3-35.1,45.1C656.7,1238.9,650.8,1240.4,643,1240.7z"
		/>
	<path id="XMLID_109_" class="st1" d="M414.3,905.9c-53.7-1.2-93.5-24-115.1-74.7c-1.9-4.5-3.3-9.2-4.4-14c-2.8-12.6,2.6-18,15-14.9
		c16.3,4,32.4,8.5,48.7,12.5c40.6,10.1,78.5,26.8,114.8,47.4c15.9,9.1,16.4,15.9,1.7,26.4C456.9,901.5,436.3,906.3,414.3,905.9z"/>
	<path id="XMLID_108_" class="st1" d="M668.1,905.8c-25.1,0.5-45.9-4.5-64.1-17.7c-13.6-9.9-13.1-16.7,1.4-25.2
		c44.1-26.2,91.7-43.3,141.5-54.8c7-1.6,14-3.5,21-5.3c15.2-3.7,20.9,1.7,16.4,16.9c-11.6,38.9-36,66.1-74.8,79.4
		C695.2,903.9,680.4,905.9,668.1,905.8z"/>
</g>
</svg>
