<?xml version="1.0" encoding="utf-8"?>
<!-- Generator: Adobe Illustrator 19.0.0, SVG Export Plug-In . SVG Version: 6.00 Build 0)  -->
<svg version="1.1" id="Layer_1" xmlns="http://www.w3.org/2000/svg" xmlns:xlink="http://www.w3.org/1999/xlink" x="0px" y="0px"
	 viewBox="1180 -1260 3000 3000" style="enable-background:new 1180 -1260 3000 3000;" xml:space="preserve">
<style type="text/css">
	.st0{fill:none;}
	.st1{fill:#BDC3D5;}
	.st2{fill:#C74242;}
	.st3{fill:#5B606D;}
</style>
<g id="Layer_x0020_1">
	<circle class="st0" cx="2680" cy="240" r="1500"/>
	<path class="st1" d="M1721,1297h117.1l20.8-57.5H1801l20.8-70.4h54.6l15.8-53.7h-54.6l19.6-66.7h55.8l16.2-54.6h-119.2L1721,1297z
		 M1986.5,1223.3l69.2-94.6L2006,1297h62.9l89.6-302.9h-65l-70.8,105.8l-10.8-105.8h-62.5l-89.2,302.9h62.9l50-168.3L1986.5,1223.3z
		 M2204,1121.6l23.3-78.8h20.4c9.6,0,10.8,5,8.3,12.5l-16.2,55c-2.9,9.2-7.1,11.3-15.4,11.3H2204z M2089.8,1297h118.8
		c27.5,0,41.7-12.5,47.5-32.1l25-83.7c4.6-15.8,0.4-34.2-20.8-35.4c21.2,0.8,32.5-10.4,35.4-20.8l26.7-91.3
		c6.2-21.7-1.7-39.6-30.4-39.6H2179L2089.8,1297L2089.8,1297z M2167.3,1246.6l25-84.6h20c9.2,0,10.8,5.8,8.8,13.3l-17.9,60.8
		c-2.9,9.2-7.1,10.4-13.3,10.4H2167.3z M2266.5,1297h117.1l20.8-57.5h-57.9l20.8-70.4h54.6l15.8-53.7h-54.6l19.6-66.7h55.8
		l16.2-54.6h-119.2L2266.5,1297z M2563.1,1042.9c9.6,0,10.4,4.6,7.9,13.3l-52.9,180c-2.1,7.1-5,10.4-15,10.4h-20l60-203.8H2563.1z
		 M2405.6,1297h96.3c43.3,0,61.3-5,71.7-40.8l67.1-227.9c5-17.1-3.3-34.2-25.8-34.2h-120L2405.6,1297z M2739.8,1042.9
		c9.6,0,10.4,4.6,7.9,13.3l-52.9,180c-2.1,7.1-5,10.4-15,10.4h-20l60-203.8H2739.8z M2582.3,1297h96.3c43.3,0,61.3-5,71.7-40.8
		l67.1-227.9c5-17.1-3.3-34.2-25.8-34.2h-120L2582.3,1297z M2859.8,1167.9h20.8c7.5,0,8.3,5.4,6.7,10.4l-35,118.8h62.9l32.5-110.4
		c6.7-21.7-2.5-31.7-12.1-33.3c15.4,0,24.2-9.2,26.7-17.9l30.4-102.9c5.8-20-2.9-38.3-30-38.3h-114.6L2759,1297h62.9L2859.8,1167.9z
		 M2872.7,1123.3l23.7-80.4h19.6c9.6,0,12.1,4.6,9.6,12.5l-16.7,56.3c-2.9,9.2-8.3,11.7-14.6,11.7H2872.7L2872.7,1123.3z
		 M3081,1042.9h15.8c5.8,0,7.5,3.3,6.2,7.9l-55.4,188.3c-1.2,4.6-5,7.5-10,7.5h-16.2c-5,0-7.1-2.9-5.8-7.5l55.8-188.8
		C3072.7,1046.2,3074.8,1042.9,3081,1042.9z M3055.6,994.1c-20.4,0-34.6,12.1-39.2,29.6l-68.3,232.1c-7.5,25.8,8.7,41.3,30,41.3
		h74.6c20.8,0,41.3-7.1,48.8-32.1l69.6-236.3c5-17.9-5-34.6-24.6-34.6L3055.6,994.1L3055.6,994.1z M3112.7,1297h59.2l36.3-120.8
		l5.4,120.8h50.4l89.2-302.9h-60.8l-34.6,117.1l-2.1-117.1h-53.7L3112.7,1297L3112.7,1297z M3284.8,1297h117.1l20.8-57.5h-57.9
		l20.8-70.4h54.6l15.8-53.7h-54.6l19.6-66.7h55.8l16.2-54.6H3374L3284.8,1297z M3622.7,1048.7l16.2-54.6h-97.1
		c-15,0-30,4.2-37.1,25.4l-34.6,117.5c-6.3,22.1,0,36.7,26.3,36.7h33.3c3.8,0,3.8,1.7,2.9,4.2l-14.6,51.3
		c-2.5,7.5-4.2,10.4-15.8,10.4h-52.5l-17.1,57.5h102.9c12.9,0,26.7-6.3,30-18.3l34.6-117.5c8.7-29.6-5.4-42.1-27.9-42.1h-33.8
		l17.9-61.7c2.1-6.7,6.7-8.8,11.3-8.8L3622.7,1048.7L3622.7,1048.7z"/>
	<g id="_84944787904">
		<g id="_575957256800">
			<ellipse class="st1" cx="2680" cy="-30.7" rx="910.9" ry="910.9"/>
			<path class="st2" d="M2680-859.6c-457,0-828.8,371.8-828.8,828.8c0,430,329.1,784.6,748.8,824.9c0-54.1,0-471.3,0-529.4
				L2408.1,78.2V-178c33-9.6,57.3-40,57.3-76.1c0-104.8-158.6-104.8-158.6,0c0,36.1,24.2,66.5,57.3,76.1v129.6l-81.3-61.5v-221.4
				c86.9-26.2,68-155.2-22.8-155.2c-91.6,0-109.8,131-21.2,155.6V-88l125.3,94.7v90.1l40.3,39.2h-118.2L2160.4,13.9
				c34.7-52.5-3.2-122.8-66.2-122.8c-127.1,0-86.5,205.3,32.5,151.5L2268.4,180h181.3l106.4,103.4c0,54.3,0,413.4,0,460.9
				c-373-59.3-660.9-383.5-660.9-775c0-432.7,352.1-784.8,784.8-784.8c432.7,0,784.8,352.1,784.8,784.8
				c0,401.7-303.4,733.9-693.3,779.4v-49.2c362-45.1,644.5-354.8,644.5-730.3c0-405.8-330.1-735.9-735.9-735.9
				c-405.8,0-735.9,330.1-735.9,735.9c0,348.1,242.9,640.4,568,716.6v-40.2c-303.4-75.4-529-350-529-676.4
				c0-384.3,312.6-696.9,696.9-696.9c384.3,0,696.9,312.6,696.9,696.9c0,353.6-264.6,646-605.4,690.9c0-155.9,0-283.8,0-358.8
				l11.7-8.9h131L3120,182.9c49.6,50.4,135.8,15.2,135.8-55.6c0-116.5-181.5-96.7-156.7,16.9l-195.9,104.2h-61.8l357-269.5v-254.1
				c87.6-25.3,69.4-155.4-22-155.4c-91.5,0-109.4,130.1-22,155.4v232l-270.8,204.5V9.6l139.1-100V-200
				c87.6-25.3,69.4-155.4-22-155.4c-91.5,0-109.5,130.1-22,155.4v87L2839.7-13v207.4l-112.2,84.7c0,58.7,0,459.3,0,517.4
				c435.2-24.8,781.3-386.5,781.3-827.4C3508.8-487.8,3137-859.6,2680-859.6L2680-859.6L2680-859.6z M2240.5-436.8L2240.5-436.8
				c14.6-8.9,32.6-7.4,44.9,4.5c18,17.5,12.4,55.9-21.1,60C2220.3-372.3,2213.7-419.3,2240.5-436.8z M2069.1-4.5L2069.1-4.5
				c-21.1-21.8-7.8-60.5,25.2-60.5c20.2,0,35.3,15.1,35.3,35.3C2129.6,3.2,2091,16.7,2069.1-4.5L2069.1-4.5z M2350.8-254.1
				L2350.8-254.1c0-46.7,70.6-46.7,70.6,0C2421.4-207.5,2350.8-207.5,2350.8-254.1z M3176.5,92L3176.5,92
				c20.2,0,35.3,15.1,35.3,35.3c0,20.2-15.1,35.3-35.3,35.3c-20.1,0-35.3-15.1-35.3-35.3C3141.2,107.1,3156.3,92,3176.5,92z
				 M3176.5-386.3L3176.5-386.3c47.2,0,47.2,70,0,70C3129.4-316.3,3129.4-386.3,3176.5-386.3z M3000.8-311.4L3000.8-311.4
				c46.7,0,46.7,70.6,0,70.6C2954.2-240.8,2954.2-311.4,3000.8-311.4z"/>
			<path class="st3" d="M2680-941.7c-502.3,0-910.9,408.6-910.9,910.9c0,554,494,983.5,1046.3,900.8
				c438.3-65.6,775.4-444.6,775.4-900.8C3590.9-533.1,3182.3-941.7,2680-941.7L2680-941.7L2680-941.7z M2685,840.2L2685,840.2
				c0-99.5,0-675,0-759.5l110.8-105.8v-333l107.3-117.1c119,50.3,156.3-152.3,30.8-152.3c-63.9,0-101.6,72.2-65,124.6l-117,127.7
				v331.3L2641,61.9v31l-77.2-73.4v-170.9l1.3,1.6L2707-266v-249.4c80.3-32.9,56.6-152.6-29.9-152.6c-43.7,0-79.3,35.6-79.3,79.3
				c0,38.9,28.2,71.3,65.2,78v224l-99.2,81.3v-162.1c30-11.3,51.3-40.2,51.3-74.1c0-104.8-158.6-104.8-158.6,0
				c0,38.2,27.2,70.2,63.3,77.7V38.3L2641,153.5c0,73.4,0,615.4,0,685.9c-462-20.5-832.1-402.7-832.1-870.2
				c0-480.3,390.8-871.1,871.1-871.1c480.3,0,871.1,390.8,871.1,871.1C3551.1,447.7,3163.2,837.6,2685,840.2L2685,840.2z
				 M2933.9-583.5L2933.9-583.5c58,0,37.4,92.8-15.4,66.9l-14.8-13.5C2889.2-554.1,2907.1-583.5,2933.9-583.5L2933.9-583.5z
				 M2548.9-409L2548.9-409h-26.3c-34.3-13.8-28.1-67.7,13.1-67.7C2577.1-476.8,2583.2-422.8,2548.9-409z M2677.1-553.5
				L2677.1-553.5c-19.5,0-35.3-15.8-35.3-35.3c0-19.5,15.8-35.3,35.3-35.3c19.5,0,35.3,15.8,35.3,35.3
				C2712.4-569.3,2696.5-553.5,2677.1-553.5z"/>
		</g>
	</g>
</g>
</svg>
