<?xml version="1.0" encoding="UTF-8"?>
<!DOCTYPE svg PUBLIC "-//W3C//DTD SVG 1.1//EN" "http://www.w3.org/Graphics/SVG/1.1/DTD/svg11.dtd">
<!-- Creator: CorelDRAW X7 -->
<svg xmlns="http://www.w3.org/2000/svg" xml:space="preserve" width="6184px" height="1134px" version="1.1" style="shape-rendering:geometricPrecision; text-rendering:geometricPrecision; image-rendering:optimizeQuality; fill-rule:evenodd; clip-rule:evenodd"
viewBox="0 0 6277820 1151574"
 xmlns:xlink="http://www.w3.org/1999/xlink">
 <defs>
  <style type="text/css">
   <![CDATA[
    .fil0 {fill:#888FA2}
    .fil3 {fill:#A8AFC2}
    .fil2 {fill:#ACB3C6}
    .fil1 {fill:#CCD2E6}
   ]]>
  </style>
 </defs>
 <g id="Layer_x0020_1">
  <metadata id="CorelCorpID_0Corel-Layer"/>
  <g id="_566836284224">
   <g>
    <path class="fil0" d="M936203 813748l7271 1552 210903 -287914 -154152 528024 198873 336c35501,-103790 272986,-944777 286324,-959233l-203848 -1609c-8654,1880 -102464,146643 -114622,164769 -18663,27822 -35879,54702 -55616,84090 -11391,16965 -46591,73947 -57989,84040l-34951 -332813 -193621 -19c-10176,2833 -34525,101207 -38919,116685 -11718,41263 -23179,79294 -35334,120155 -24010,80688 -47723,159083 -70669,240276 -22561,79844 -46364,161092 -70735,240075 -11289,36581 -67244,220011 -70432,243583l197273 0c13068,-33192 66167,-218531 79623,-265404 25710,-89540 52770,-179531 80308,-265212l40314 288618 -1 1z"/>
    <path class="fil0" d="M4510753 1055399l187104 349c27017,-75852 57909,-194734 84251,-279992l30911 -94379 17330 370441c9482,6345 24330,4026 35821,3944l123717 -16 283184 -960630 -188002 -144c-10371,2649 -27593,78053 -30340,87161l-55126 186004c-6943,23710 -18657,72440 -28097,91781l-7659 -364294 -170935 -684 -282158 960461 -1 -2z"/>
    <path class="fil0" d="M1512263 895952c8731,-42191 26728,-95265 39667,-136992l35037 -120228c5859,-15283 86,-6476 8660,-11234 44100,0 100685,-13787 86361,42580 -8477,33365 -19849,67372 -29612,100442 -41779,141553 -16595,125432 -140113,125432zm116286 -396527c7768,-39013 25245,-89486 36949,-127970l28385 -95433c1276,-4276 2814,-11060 4276,-14779 5813,-14803 -3879,-11746 56104,-11826 64634,-86 44123,22680 413,169780 -27666,93100 -20899,80228 -126128,80228l1 0zm199994 82111l-11992 -6607 16063 -1238c88255,-920 95745,-98324 114373,-161830 11871,-40474 58248,-188834 61557,-218191 13118,-116243 -112939,-98700 -181348,-98700 -92268,0 -185450,-1283 -277606,109l-283731 960148c92508,3498 189854,518 282183,518 96780,0 181287,9239 225451,-59406 24603,-38241 54037,-159269 70160,-212077 14660,-48023 73560,-186889 -15110,-202726z"/>
    <path class="fil0" d="M2514157 895952c10327,-51200 32438,-113212 47577,-164504 16086,-54519 31695,-106890 47797,-161645l71168 -242688c4906,-15997 17865,-75099 28379,-77621 23419,0 67939,-6288 84031,9312 10969,16633 -85322,318886 -96880,359644 -16654,58757 -34436,118345 -51637,176657 -31523,106892 -11330,100845 -130433,100845l-2 0zm-246458 159457c90621,793 180408,326 270079,336 249937,23 232893,-34851 297283,-247737 16003,-52908 181946,-602643 182208,-633458 834,-98827 -113164,-79579 -193992,-79579 -91136,0 -182273,0 -273402,0l-282177 960438 1 0z"/>
    <path class="fil0" d="M3749686 504421c10918,-43263 25402,-87029 37937,-130043 4446,-15260 31970,-121948 41248,-124884 19437,0 48367,-1696 66697,588 21897,2728 27739,13528 22424,35712 -7915,33077 -20400,67135 -29716,100430 -34937,124849 -22740,121277 -138591,118197l1 0zm-360962 550455l198854 899 120541 -409552c102991,-915 102879,-15853 64634,109867l-58533 198399c-8117,26687 -24892,75185 -28490,101257l197759 0 103134 -349063c5850,-20716 11167,-43997 4631,-66636 -7542,-26127 -16672,-28097 -36303,-39981 83933,-12786 80214,-64657 113045,-173759 10850,-36051 21643,-74254 32246,-110327 22437,-76387 70010,-169051 -9604,-209749 -32741,-16738 -92303,-11260 -131709,-11260 -61315,0 -239954,-2965 -286852,514l-283353 959389 0 2z"/>
    <path class="fil0" d="M3263268 249494c17246,0 34486,-39 51736,-83 26771,-67 31970,-823 38559,11280 9024,17809 -33351,140605 -41292,168162l-97804 333574c-38120,134773 -23477,140650 -140458,132534l189260 -645466 -1 -1zm-435133 805928c91104,323 181110,311 271124,323 249167,29 229832,-33052 296395,-248553l123276 -419111c12053,-40764 58757,-180772 58791,-213669 109,-98209 -108766,-79441 -192962,-79441 -47991,0 -241990,-2388 -272809,863l-283814 959588 -1 0z"/>
    <path class="fil0" d="M4479793 276050c-13405,56061 -34988,120858 -52085,176909l-105089 357949c-7506,25270 -14097,71692 -33182,81113 -14424,7113 -37515,3998 -54593,4052 -25840,82 -38372,930 -31158,-28936 13949,-57742 35852,-118233 52462,-176512l105799 -357284c6229,-21852 16073,-73825 33188,-81085 13539,-5737 39824,-3006 55632,-2927 21705,122 34903,2137 29025,26719l1 2zm-172745 -179400c-65037,10204 -87711,46517 -105419,104768 -16575,54516 -30937,107715 -47630,161750l-143126 485130c-14582,49518 -46403,121571 -12008,168124 36460,49338 96204,39322 169429,39322 140346,0 268026,28110 308746,-109272l190334 -647034c14074,-47678 48280,-123656 20291,-168533 -30679,-49198 -106803,-35936 -173596,-35936 -54359,0 -158971,-5860 -207021,1678l0 3z"/>
    <path class="fil0" d="M5843381 666123c255,14052 -43269,167670 -50298,184750 -12597,30608 -52111,22549 -95779,22549 -38478,-4 -76956,0 -115435,0 -6575,11110 -52959,165796 -55149,182227 107040,1231 219205,2376 326024,67 50204,-1084 84353,-22405 96527,-64513 12492,-43208 24436,-84909 37448,-127538l73988 -252864c32438,-138434 -95882,-119303 -198604,-119303l54163 -189857c13701,-43576 40851,-33631 88740,-33627 41369,0 82860,313 124212,-93l50481 -172639c-44974,-1059 -299125,-2412 -329338,677 -50285,5148 -78235,32808 -93128,71922 -14550,38223 -102684,342980 -112892,381835 -41193,156759 122463,103804 199036,116406l4 1z"/>
    <path class="fil0" d="M97281 1055745l369536 0 66256 -181885 -182742 -442 65284 -223308 168076 -176c8577,-4161 5861,-2549 9734,-15034 2139,-6898 4292,-15005 6421,-22251 8913,-30278 35191,-112195 38223,-133049l-171582 -28 61460 -211137 173116 -457c9532,-3291 51250,-154676 55078,-173007l-370716 0c-10000,2187 -6431,-723 -14227,25635l-203574 691088c-10889,35804 -67638,222512 -70343,244051z"/>
    <path class="fil0" d="M5056660 1055227l370853 524 66358 -182215 -182955 -215 65111 -222482 173244 -944 50099 -170103 -172300 -192 61618 -211639c44497,-1158 141559,5789 176893,-1676l51503 -171191 -378301 -121 -282122 960254 -1 0z"/>
    <path class="fil0" d="M1826237 1055445l371068 282 65862 -181801 -182589 -503c7465,-35523 22021,-78868 32872,-114282 3109,-10147 26979,-106537 37313,-109205l168128 0 50089 -169589 -172281 -780 61682 -211962 171536 409c7156,-3633 2833,157 7067,-6898l49317 -165492 -376777 -629 -283289 960451 2 -1z"/>
   </g>
   <g>
    <path class="fil1" d="M5465732 774087c2388,-10259 5392,-13917 6341,-25379 32751,0 80426,-6380 107072,3962 31794,12335 66084,11900 102297,11900 -4161,2890 -192,3715 -19029,6351 -45948,6425 -147778,3166 -196682,3166l1 0zm812088 -615406l0 39254c-701,3125 -2239,5856 -5357,12483l-22806 75542c-4217,13652 -8640,28577 -12680,41243 -4956,15550 -6005,24289 -13086,37669 -39124,0 -78248,0 -117372,0 -31103,0 -81200,-7350 -88824,25376 34381,0 64666,-2210 89850,8491 79253,33668 56074,101606 56074,232598 0,44080 137,54621 -9514,88826 -6968,24714 -14915,49943 -21516,73647l-66170 225671c-17861,59931 -17947,95863 -70963,122544l-10435 5426c-649,317 -1400,802 -2069,1101l-5082044 3022 0 -183983c0,-31954 14128,-35785 6348,-50759 -7426,14033 -69505,222030 -69789,234741l-837467 0 0 -193500c0,-30279 157961,-544443 174098,-599921 19383,-66636 91699,-300740 105056,-358084l840636 0c0,28111 6349,51724 6349,76135l50751 -76135 2950167 -3c20084,-48 28305,-681 44554,3322 22616,5568 15818,-3320 37922,-3320l2068284 0 0 158610 3 4zm-4445206 415010c-4342,3505 -1100,806 -4070,7845 88671,15837 29770,154703 15110,202726 -16124,52808 -45558,173836 -70160,212077 -44164,68645 -128671,59406 -225451,59406 -92328,0 -189674,2980 -282183,-518l283731 -960148c92156,-1391 185339,-109 277607,-109 68408,0 194465,-17544 181348,98700 -3311,29357 -49687,177717 -61558,218191 -18628,63506 -26118,160910 -114372,161830l-2 0zm1839463 -478206c46898,-3479 225538,-514 286852,-514 39406,0 98968,-5478 131709,11260 79614,40698 32041,133363 9604,209749 -10601,36073 -21394,74276 -32246,110327 -32831,109102 -29112,160973 -113045,173759 19633,11884 28763,13854 36303,39981 6536,22639 1218,45920 -4631,66636l-103134 349063 -197759 0c3598,-26074 20373,-74571 28490,-101257l58533 -198399c38244,-125720 38357,-110782 -64634,-109867l-120541 409552 -198854 -899 283353 -959389 0 -2zm634971 1165c48049,-7538 152662,-1679 207021,-1679 66793,0 142918,-13262 173596,35936 27988,44878 -6217,120855 -20291,168534l-190334 647033c-40720,137381 -168400,109272 -308746,109272 -73225,0 -132969,10016 -169429,-39322 -34395,-46553 -2574,-118607 12008,-168123l143126 -485130c16693,-54037 31055,-107235 47630,-161750 17708,-58251 40381,-94565 105419,-104769l0 -2zm-1757172 -1679c91130,0 182265,0 273402,0 80829,0 194826,-19249 193992,79579 -263,30815 -166205,580550 -182208,633458 -64390,212886 -47346,247760 -297283,247737 -89672,-10 -179457,457 -270079,-336l282177 -960438 -1 0zm562072 863c30819,-3253 224819,-863 272810,-863 84196,0 193071,-18770 192962,79441 -35,32898 -46738,172905 -58791,213669l-123276 419111c-66563,215503 -47228,248582 -296395,248553 -90014,-13 -180021,0 -271124,-323l283813 -959588 1 0zm2731433 570289c-76572,-12603 -240228,40352 -199036,-116406 10208,-38855 98341,-343613 112892,-381834 14893,-39115 42843,-66775 93128,-71923 30211,-3090 284364,-1736 329337,-677l-50480 172640c-41353,406 -82844,92 -124212,92 -47890,-4 -75041,-9949 -88740,33627l-54164 189857c102722,0 231041,-19131 198605,119303l-73989 252864c-13012,42629 -24957,84331 -37448,127538 -12174,42108 -46322,63429 -96527,64513 -106819,2309 -218984,1164 -326023,-67 2190,-16432 48574,-171117 55149,-182227 38478,0 76955,-3 115434,0 43668,0 83183,8060 95779,-22548 7030,-17081 50554,-170699 50299,-184751l-4 -1zm-504598 -571148l378301 121 -51503 171190c-35334,7465 -132396,518 -176893,1676l-61618 211640 172300 191 -50099 170103 -173244 944 -65111 222483 182955 214 -66358 182215 -370853 -524 282121 -960253 2 0zm-545873 -36l170936 684 7658 364294c9441,-19341 21155,-68072 28098,-91782l55126 -186003c2747,-9108 19969,-84513 30339,-87161l188003 144 -283185 960630 -123716 15c-11491,83 -26339,2402 -35821,-3943l-17330 -370441 -30911 94379c-26342,85258 -57234,204140 -84251,279992l-187105 -349 282158 -960461 1 2zm-4695629 960806c2706,-21538 59454,-208247 70343,-244051l203574 -691088c7796,-26358 4227,-23448 14227,-25635l370716 0c-3828,18331 -45546,169717 -55078,173007l-173116 457 -61460 211137 171582 28c-3032,20855 -29310,102771 -38223,133049 -2129,7246 -4282,15353 -6421,22251 -3873,12485 -1158,10873 -9734,15034l-168076 176 -65284 223308 182742 442 -66256 181885 -369536 0zm2012246 -960751l376776 629 -49316 165492c-4235,7055 90,3265 -7068,6898l-171536 -409 -61682 211962 172282 780 -50090 169589 -168127 0c-10336,2667 -34206,99057 -37314,109205 -10850,35414 -25408,78760 -32871,114282l182589 502 -65862 181802 -371068 -282 283289 -960451 -2 1zm-1166052 720304c-5464,6844 6965,5233 -5903,5415l-1369 -6965 -40314 -288618c-27537,85681 -54599,175671 -80308,265212 -13457,46873 -66556,232211 -79623,265404l-197274 0c3188,-23573 59143,-207002 70433,-243583 24372,-78983 48175,-160231 70735,-240075 22946,-81194 46658,-159588 70668,-240276 12155,-40860 23617,-78891 35335,-120155 4394,-15478 28743,-113851 38919,-116685l193621 19 34951 332814c11397,-10093 46598,-67074 57989,-84041 19738,-29389 36953,-56269 55616,-84090 12158,-18126 105967,-162889 114621,-164769l203849 1609c-13338,14455 -250823,855443 -286324,959233l-198873 -336 154152 -528024 -210903 287914 2 -3z"/>
    <path class="fil1" d="M4479793 276050c5879,-24583 -7319,-26597 -29025,-26718 -15808,-81 -42091,-2812 -55632,2926 -17115,7260 -26960,59233 -33188,81085l-105799 357284c-16610,58280 -38514,118770 -52462,176513 -7214,29865 5318,29018 31158,28935 17077,-54 40170,3061 54593,-4051 19086,-9422 25677,-55844 33182,-81114l105089 -357949c17096,-56051 38679,-120848 52086,-176908l-2 -3z"/>
    <path class="fil1" d="M3074008 894960c116982,8117 102338,2238 140458,-132534l97804 -333575c7940,-27556 50317,-150352 41291,-168162 -6588,-12101 -11788,-11346 -38558,-11279 -17250,44 -34490,82 -51737,82l-189259 645467 1 1z"/>
    <path class="fil1" d="M2514157 895952c119102,0 98911,6047 130432,-100845 17203,-58312 34983,-117900 51638,-176657 11558,-40758 107849,-343011 96879,-359644 -16092,-15600 -60611,-9312 -84030,-9312 -10515,2523 -23473,61624 -28379,77621l-71168 242688c-16102,54756 -31711,107126 -47798,161645 -15139,51292 -37250,113304 -47576,164504l2 0z"/>
    <path class="fil1" d="M1512263 895952c123519,0 98334,16121 140113,-125432 9763,-33070 21135,-67077 29612,-100442 14324,-56367 -42261,-42580 -86361,-42580 -8574,4758 -2802,-4049 -8660,11234l-35037 120228c-12939,41727 -30937,94801 -39667,136992z"/>
    <path class="fil1" d="M3749686 504421c115850,3080 103653,6652 138591,-118197 9316,-33294 21801,-67352 29716,-100430 5315,-22184 -527,-32984 -22424,-35712 -18330,-2282 -47260,-588 -66697,-588 -9277,2936 -36803,109623 -41247,124884 -12537,43013 -27020,86780 -37937,130043l-2 0z"/>
    <path class="fil1" d="M1628549 499425c105229,0 98462,12872 126128,-80228 43710,-147100 64221,-169866 -413,-169780 -59984,80 -50291,-2977 -56104,11826 -1462,3719 -3000,10502 -4276,14779l-28385 95433c-11704,38485 -29181,88959 -36949,127970l-1 0z"/>
   </g>
   <path class="fil2" d="M1828543 581536c2971,-7039 -272,-4340 4070,-7845l-16063 1238 11992 6607 1 0z"/>
   <path class="fil3" d="M943475 815298l-7271 -1551 1369 6965c12868,-183 438,1429 5904,-5415l-2 1z"/>
  </g>
 </g>
</svg>
