<?xml version="1.0" encoding="UTF-8"?>
<!DOCTYPE svg PUBLIC "-//W3C//DTD SVG 1.1//EN" "http://www.w3.org/Graphics/SVG/1.1/DTD/svg11.dtd">
<!-- Creator: CorelDRAW X7 -->
<svg xmlns="http://www.w3.org/2000/svg" xml:space="preserve" width="886px" height="886px" version="1.1" style="shape-rendering:geometricPrecision; text-rendering:geometricPrecision; image-rendering:optimizeQuality; fill-rule:evenodd; clip-rule:evenodd"
viewBox="0 0 1911907 1912070"
 xmlns:xlink="http://www.w3.org/1999/xlink">
 <defs>
  <style type="text/css">
   <![CDATA[
    .fil0 {fill:#CDD4E7}
    .fil2 {fill:#888FA2;fill-rule:nonzero}
    .fil1 {fill:#C74242;fill-rule:nonzero}
   ]]>
  </style>
 </defs>
 <g id="Layer_x0020_1">
  <metadata id="CorelCorpID_0Corel-Layer"/>
  <g id="_575957256800">
   <circle class="fil0" cx="955955" cy="956034" r="955952"/>
   <path class="fil1" d="M955955 86178c-479590,0 -869779,390184 -869779,869779 0,451296 345428,823363 785869,865713 0,-56804 0,-494666 0,-555576l-201408 -195741 0 -268908c34670,-10039 60123,-42008 60123,-79872 0,-109960 -166396,-109960 -166396,0 0,37864 25448,69833 60128,79872l0 136033 -85315 -64530 0 -232361c91206,-27447 71396,-162871 -23921,-162871 -96105,0 -115224,137451 -22229,163305l0 254882 131465 99429 0 94533 42304 41113 -124078 0 -132043 -128161c36417,-55137 -3363,-128916 -69433,-128916 -133347,0 -90760,215482 34152,158981l148611 144244 190270 0 111624 108474c0,56967 0,433847 0,483682 -391468,-62285 -693567,-402487 -693567,-813325 0,-454153 369472,-823623 823623,-823623 454141,0 823613,369470 823613,823623 0,421568 -318358,770238 -727613,817995l0 -51606c379957,-47332 676338,-372327 676338,-766389 0,-425870 -346478,-772345 -772338,-772345 -425865,0 -772341,346475 -772341,772345 0,365271 254890,672119 596140,752029l0 -42169c-318432,-79079 -555154,-367325 -555154,-709860 0,-403271 328083,-731364 731355,-731364 403264,0 731364,328093 731364,731364 0,371101 -277707,677954 -635364,725051 0,-163578 0,-297839 0,-376523l12316 -9297 137481 0 216020 -114977c52052,52873 142470,15922 142470,-58311 0,-122247 -190439,-101522 -164452,17743l-205553 109391 -64839 0 374695 -282880 0 -266688c91907,-26598 72861,-163077 -23078,-163077 -95978,0 -114837,136512 -23063,163077l0 243447 -284211 214569 0 -159147 146011 -104968 0 -114998c91886,-26585 72823,-163075 -23080,-163075 -96008,0 -114867,136518 -23071,163075l0 91341 -146010 104956 0 217654 -117786 88924c0,61555 0,481988 0,543029 456685,-26007 819918,-405635 819918,-868316 0,-479595 -390173,-869779 -869768,-869779zm-461220 443644l0 0c15323,-9358 34205,-7755 47094,4749 18930,18398 13024,58706 -22163,62958 -46128,0 -53041,-49312 -24931,-67707zm-179951 453733l0 0c-22186,-22889 -8232,-63511 26458,-63511 21168,0 37055,15843 37055,37050 0,34573 -40443,48677 -63513,26461zm295715 -261982l0 0c0,-48973 74111,-48973 74111,0 0,48968 -74111,48968 -74111,0zm866516 363272l0 0c21153,0 37076,15854 37076,37055 0,21192 -15895,37058 -37076,37058 -21125,0 -37040,-15856 -37040,-37058 0,-21189 15874,-37055 37040,-37055zm0 -501984l0 0c49513,0 49513,73458 0,73458 -49477,0 -49477,-73458 0,-73458zm-184343 78584l0 0c48973,0 48973,74100 0,74100 -48963,0 -48963,-74100 0,-74100z"/>
   <path class="fil2" d="M955955 0c-527122,0 -955955,428835 -955955,955957 0,581354 518442,1032204 1098106,945371 459948,-68862 813801,-466551 813801,-945371 0,-527122 -428825,-955957 -955952,-955957zm5228 1870067l0 0c0,-104423 0,-708368 0,-797104l116298 -111010 0 -349437 112588 -122872c124865,52832 164044,-159871 32321,-159871 -67072,0 -106618,75765 -68209,130721l-122833 134068 0 347653 -116313 111000 0 32492 -81067 -77032 0 -179309 1409 1724 148874 -122021 0 -261709c84318,-34475 59361,-160197 -31381,-160197 -45865,0 -83188,37320 -83188,83198 0,40826 29581,74809 68433,81810l0 235059 -104147 85353 0 -170157c31434,-11905 53877,-42228 53877,-77771 0,-109950 -166412,-109950 -166412,0 0,40119 28538,73684 66391,81493l0 422327 127211 120888c0,77073 0,645811 0,719827 -484879,-21475 -873274,-422625 -873274,-913233 0,-504085 410104,-914188 914194,-914188 504080,0 914194,410103 914194,914188 0,502125 -407121,911349 -908966,914110zm261207 -1494148l0 0c60850,0 39276,97367 -16164,70243l-15497 -14189c-15180,-25245 3531,-56054 31661,-56054zm-403975 183073l0 0 -27552 0c-35972,-14482 -29461,-71074 13784,-71059 43321,-15 49668,56598 13768,71059zm134455 -151583l0 0c-20419,0 -37045,-16623 -37045,-37048 0,-20434 16626,-37057 37045,-37057 20440,0 37053,16623 37053,37057 0,20425 -16613,37048 -37053,37048z"/>
  </g>
 </g>
</svg>
