<?xml version="1.0" encoding="UTF-8"?>
<!DOCTYPE svg PUBLIC "-//W3C//DTD SVG 1.1//EN" "http://www.w3.org/Graphics/SVG/1.1/DTD/svg11.dtd">
<!-- Creator: CorelDRAW X7 -->
<svg xmlns="http://www.w3.org/2000/svg" xml:space="preserve" width="3000px" height="3000px" version="1.1" style="shape-rendering:geometricPrecision; text-rendering:geometricPrecision; image-rendering:optimizeQuality; fill-rule:evenodd; clip-rule:evenodd"
viewBox="0 0 2975833 2975833"
 xmlns:xlink="http://www.w3.org/1999/xlink">
 <defs>
  <style type="text/css">
   <![CDATA[
    .fil0 {fill:none}
    .fil1 {fill:#888FA2}
    .fil4 {fill:#A8AFC2}
    .fil3 {fill:#ACB3C6}
    .fil2 {fill:#CCD2E6}
    .fil5 {fill:#CDD4E7}
    .fil7 {fill:#888FA2;fill-rule:nonzero}
    .fil6 {fill:#C74242;fill-rule:nonzero}
   ]]>
  </style>
 </defs>
 <g id="Layer_x0020_1">
  <metadata id="CorelCorpID_0Corel-Layer"/>
  <circle class="fil0" cx="1487917" cy="1487917" r="1487916"/>
  <g id="_566836284224">
   <g>
    <path class="fil1" d="M799135 2460590l2274 485 65949 -90030 -48203 165112 62187 105c11101,-32455 85362,-295430 89533,-299950l-63743 -503c-2706,588 -32040,45855 -35842,51523 -5836,8700 -11219,17105 -17391,26295 -3562,5305 -14569,23123 -18133,26279l-10929 -104070 -60545 -6c-3182,886 -10796,31647 -12170,36487 -3664,12903 -7248,24795 -11049,37572 -7508,25231 -14923,49745 -22098,75134 -7055,24967 -14498,50373 -22119,75071 -3530,11439 -21027,68797 -22024,76168l61687 0c4086,-10379 20690,-68334 24898,-82991 8039,-27999 16501,-56139 25112,-82931l12606 90250z"/>
    <path class="fil1" d="M1916889 2536154l58507 109c8448,-23719 18108,-60893 26345,-87553l9666 -29512 5419 115836c2965,1984 7608,1259 11201,1233l38686 -5 88551 -300387 -58788 -45c-3243,828 -8628,24407 -9487,27255l-17238 58163c-2171,7414 -5834,22652 -8786,28700l-2395 -113914 -53451 -214 -88230 300334z"/>
    <path class="fil1" d="M979268 2486295c2730,-13193 8358,-29789 12404,-42837l10956 -37595c1832,-4779 27,-2025 2708,-3513 13790,0 31484,-4311 27005,13315 -2651,10433 -6207,21067 -9260,31408 -13064,44263 -5189,39222 -43813,39222zm36362 -123993c2429,-12199 7894,-27982 11554,-40016l8876 -29842c399,-1337 880,-3458 1337,-4621 1818,-4629 -1213,-3673 17544,-3698 20211,-27 13797,7092 129,53090 -8651,29112 -6535,25087 -39440,25087zm62538 25676l-3750 -2066 5023 -387c27597,-288 29939,-30746 35764,-50604 3712,-12656 18214,-59048 19249,-68228 4102,-36349 -35316,-30863 -56707,-30863 -28852,0 -57990,-401 -86807,34l-88722 300236c28927,1094 59367,162 88238,162 30263,0 56688,2889 70498,-18576 7693,-11958 16897,-49803 21939,-66316 4584,-15017 23002,-58440 -4725,-63392z"/>
    <path class="fil1" d="M1292558 2486295c3229,-16010 10143,-35401 14877,-51440 5030,-17048 9911,-33424 14946,-50546l22254 -75888c1534,-5002 5586,-23483 8874,-24272 7323,0 21244,-1966 26276,2912 3430,5201 -26680,99715 -30294,112460 -5208,18373 -10768,37006 -16147,55240 -9857,33425 -3543,31534 -40786,31534zm-77067 49862c28337,248 56413,102 84453,105 78155,7 72825,-10898 92960,-77467 5004,-16544 56894,-188445 56976,-198081 261,-30903 -35386,-24884 -60661,-24884 -28498,0 -56996,0 -85492,0l-88236 300327z"/>
    <path class="fil1" d="M1678905 2363864c3414,-13528 7943,-27214 11863,-40664 1390,-4772 9997,-38133 12898,-39051 6078,0 15124,-530 20856,184 6847,853 8674,4230 7012,11167 -2475,10343 -6379,20993 -9292,31404 -10925,39040 -7111,37923 -43337,36960zm-112872 172126l62181 281 37693 -128066c32205,-286 32170,-4957 20211,34355l-18303 62039c-2538,8345 -7784,23510 -8909,31663l61839 0 32250 -109151c1829,-6478 3492,-13758 1448,-20837 -2358,-8170 -5213,-8786 -11352,-12502 26246,-3998 25083,-20218 35349,-54334 3393,-11273 6768,-23219 10083,-34499 7016,-23886 21892,-52862 -3003,-65588 -10238,-5234 -28863,-3521 -41185,-3521 -19173,0 -75033,-927 -89698,161l-88604 299999z"/>
    <path class="fil1" d="M1526803 2284149c5393,0 10784,-12 16178,-26 8371,-21 9997,-257 12057,3527 2822,5569 -10429,43967 -12912,52584l-30583 104308c-11920,42143 -7341,43981 -43921,41443l59181 -201836zm-136065 252012c28488,101 56633,97 84780,101 77914,9 71868,-10335 92682,-77722l38548 -131055c3769,-12747 18373,-56527 18384,-66814 34,-30710 -34011,-24841 -60339,-24841 -15007,0 -75670,-747 -85307,270l-88748 300061z"/>
    <path class="fil1" d="M1907208 2292453c-4192,17530 -10941,37792 -16287,55319l-32861 111930c-2347,7902 -4408,22418 -10376,25364 -4510,2224 -11731,1250 -17071,1267 -8080,26 -11999,291 -9743,-9048 4362,-18056 11211,-36971 16405,-55195l33083 -111722c1948,-6833 5026,-23085 10378,-25355 4234,-1794 12453,-940 17396,-915 6787,38 10914,668 9076,8355zm-54017 -56098c-20337,3191 -27427,14546 -32964,32761 -5183,17047 -9674,33682 -14894,50579l-44755 151699c-4560,15484 -14510,38015 -3755,52572 11401,15428 30083,12296 52980,12296 43886,0 83811,8790 96544,-34169l59517 -202326c4401,-14909 15097,-38667 6345,-52700 -9593,-15384 -33397,-11237 -54283,-11237 -16998,0 -49710,-1832 -64735,525z"/>
    <path class="fil1" d="M2333599 2414428c80,4394 -13530,52430 -15728,57771 -3939,9571 -16295,7051 -29950,7051 -12032,-1 -24064,0 -36096,0 -2056,3474 -16560,51844 -17245,56982 33471,385 68545,743 101947,21 15699,-339 26377,-7006 30184,-20173 3906,-13511 7641,-26551 11710,-39881l23136 -79070c10143,-43288 -29982,-37306 -62103,-37306l16937 -59368c4284,-13626 12774,-10516 27749,-10515 12936,0 25910,98 38841,-29l15785 -53984c-14063,-331 -93536,-754 -102983,212 -15724,1610 -24464,10259 -29121,22490 -4550,11952 -32109,107249 -35301,119399 -12881,49018 38294,32459 62238,36400z"/>
    <path class="fil1" d="M536806 2536262l115553 0 20718 -56875 -57143 -138 20414 -69828 52557 -55c2682,-1301 1833,-797 3044,-4701 669,-2157 1342,-4692 2008,-6958 2787,-9468 11004,-35083 11952,-41604l-53653 -9 19218 -66022 54133 -143c2981,-1029 16026,-48367 17223,-54099l-115922 0c-3127,684 -2011,-226 -4449,8016l-63657 216102c-3405,11196 -21150,69579 -21996,76314z"/>
    <path class="fil1" d="M2087593 2536100l115965 164 20750 -56978 -57210 -67 20360 -69570 54173 -295 15666 -53191 -53878 -60 19268 -66179c13914,-362 44265,1810 55314,-524l16105 -53531 -118294 -38 -88219 300269z"/>
    <path class="fil1" d="M1077447 2536168l116032 88 20595 -56849 -57095 -157c2334,-11108 6886,-24662 10279,-35736 972,-3173 8436,-33314 11668,-34148l52573 0 15663 -53030 -53872 -244 19288 -66280 53639 128c2238,-1136 886,49 2210,-2157l15421 -51749 -117817 -197 -88584 300331z"/>
   </g>
   <g>
    <path class="fil2" d="M2215509 2448188c747,-3208 1686,-4352 1983,-7936 10241,0 25149,-1995 33481,1239 9942,3857 20664,3721 31988,3721 -1301,904 -60,1162 -5950,1986 -14368,2009 -46210,990 -61502,990zm253938 -192436l0 12275c-219,977 -700,1831 -1675,3903l-7131 23622c-1319,4269 -2702,8936 -3965,12897 -1550,4862 -1878,7595 -4092,11779 -12234,0 -24468,0 -36702,0 -9726,0 -25391,-2298 -27775,7935 10751,0 20221,-691 28096,2655 24782,10528 17534,31772 17534,72733 0,13784 43,17080 -2975,27776 -2179,7728 -4664,15617 -6728,23029l-20691 70567c-5585,18740 -5612,29976 -22190,38319l-3263 1697c-203,99 -438,251 -647,344l-1589144 945 0 -57531c0,-9992 4418,-11190 1985,-15872 -2322,4388 -21734,69428 -21823,73403l-261874 0 0 -60507c0,-9468 49394,-170246 54440,-187594 6061,-20837 28674,-94041 32851,-111972l262865 0c0,8790 1985,16174 1985,23807l15870 -23807 922511 -1c6280,-15 8851,-213 13932,1039 7072,1741 4946,-1038 11858,-1038l646748 0 0 49597zm-1390006 129773c-1358,1096 -344,252 -1273,2453 27727,4952 9309,48375 4725,63392 -5042,16513 -14246,54358 -21939,66316 -13810,21465 -40235,18576 -70498,18576 -28871,0 -59311,932 -88238,-162l88722 -300236c28817,-435 57955,-34 86807,-34 21391,0 60809,-5486 56707,30863 -1035,9180 -15537,55572 -19249,68228 -5825,19858 -8167,50316 -35764,50604zm575196 -149534c14665,-1088 70525,-161 89698,-161 12322,0 30947,-1713 41185,3521 24895,12726 10019,41702 3003,65588 -3315,11280 -6690,23226 -10083,34499 -10266,34116 -9103,50336 -35349,54334 6139,3716 8994,4332 11352,12502 2044,7079 381,14359 -1448,20837l-32250 109151 -61839 0c1125,-8153 6371,-23318 8909,-31663l18303 -62039c11959,-39312 11994,-34641 -20211,-34355l-37693 128066 -62181 -281 88604 -299999zm198554 364c15025,-2357 47737,-525 64735,-525 20886,0 44690,-4147 54283,11237 8752,14033 -1944,37791 -6345,52700l-59517 202326c-12733,42959 -52658,34169 -96544,34169 -22897,0 -41579,3132 -52980,-12296 -10755,-14557 -805,-37088 3755,-52572l44755 -151699c5220,-16897 9711,-33532 14894,-50579 5537,-18215 12627,-29570 32964,-32761zm-549464 -525c28496,0 56994,0 85492,0 25275,0 60922,-6019 60661,24884 -82,9636 -51972,181537 -56976,198081 -20135,66569 -14805,77474 -92960,77467 -28040,-3 -56116,143 -84453,-105l88236 -300327zm175759 270c9637,-1017 70300,-270 85307,-270 26328,0 60373,-5869 60339,24841 -11,10287 -14615,54067 -18384,66814l-38548 131055c-20814,67387 -14768,77731 -92682,77722 -28147,-4 -56292,0 -84780,-101l88748 -300061zm854113 178328c-23944,-3941 -75119,12618 -62238,-36400 3192,-12150 30751,-107447 35301,-119399 4657,-12231 13397,-20880 29121,-22490 9447,-966 88920,-543 102983,-212l-15785 53984c-12931,127 -25905,29 -38841,29 -14975,-1 -23465,-3111 -27749,10515l-16937 59368c32121,0 72246,-5982 62103,37306l-23136 79070c-4069,13330 -7804,26370 -11710,39881 -3807,13167 -14485,19834 -30184,20173 -33402,722 -68476,364 -101947,-21 685,-5138 15189,-53508 17245,-56982 12032,0 24064,-1 36096,0 13655,0 26011,2520 29950,-7051 2198,-5341 15808,-53377 15728,-57771zm-157787 -178597l118294 38 -16105 53531c-11049,2334 -41400,162 -55314,524l-19268 66179 53878 60 -15666 53191 -54173 295 -20360 69570 57210 67 -20750 56978 -115965 -164 88219 -300269zm-170693 -11l53451 214 2395 113914c2952,-6048 6615,-21286 8786,-28700l17238 -58163c859,-2848 6244,-26427 9487,-27255l58788 45 -88551 300387 -38686 5c-3593,26 -8236,751 -11201,-1233l-5419 -115836 -9666 29512c-8237,26660 -17897,63834 -26345,87553l-58507 -109 88230 -300334zm-1468313 300442c846,-6735 18591,-65118 21996,-76314l63657 -216102c2438,-8242 1322,-7332 4449,-8016l115922 0c-1197,5732 -14242,53070 -17223,54099l-54133 143 -19218 66022 53653 9c-948,6521 -9165,32136 -11952,41604 -666,2266 -1339,4801 -2008,6958 -1211,3904 -362,3400 -3044,4701l-52557 55 -20414 69828 57143 138 -20718 56875 -115553 0zm629225 -300425l117817 197 -15421 51749c-1324,2206 28,1021 -2210,2157l-53639 -128 -19288 66280 53872 244 -15663 53030 -52573 0c-3232,834 -10696,30975 -11668,34148 -3393,11074 -7945,24628 -10279,35736l57095 157 -20595 56849 -116032 -88 88584 -300331zm-364622 225238c-1709,2140 2178,1636 -1846,1693l-428 -2178 -12606 -90250c-8611,26792 -17073,54932 -25112,82931 -4208,14657 -20812,72612 -24898,82991l-61687 0c997,-7371 18494,-64729 22024,-76168 7621,-24698 15064,-50104 22119,-75071 7175,-25389 14590,-49903 22098,-75134 3801,-12777 7385,-24669 11049,-37572 1374,-4840 8988,-35601 12170,-36487l60545 6 10929 104070c3564,-3156 14571,-20974 18133,-26279 6172,-9190 11555,-17595 17391,-26295 3802,-5668 33136,-50935 35842,-51523l63743 503c-4171,4520 -78432,267495 -89533,299950l-62187 -105 48203 -165112 -65949 90030z"/>
    <path class="fil2" d="M1907208 2292453c1838,-7687 -2289,-8317 -9076,-8355 -4943,-25 -13162,-879 -17396,915 -5352,2270 -8430,18522 -10378,25355l-33083 111722c-5194,18224 -12043,37139 -16405,55195 -2256,9339 1663,9074 9743,9048 5340,-17 12561,957 17071,-1267 5968,-2946 8029,-17462 10376,-25364l32861 -111930c5346,-17527 12095,-37789 16287,-55319z"/>
    <path class="fil2" d="M1467622 2485985c36580,2538 32001,700 43921,-41443l30583 -104308c2483,-8617 15734,-47015 12912,-52584 -2060,-3784 -3686,-3548 -12057,-3527 -5394,14 -10785,26 -16178,26l-59181 201836z"/>
    <path class="fil2" d="M1292558 2486295c37243,0 30929,1891 40786,-31534 5379,-18234 10939,-36867 16147,-55240 3614,-12745 33724,-107259 30294,-112460 -5032,-4878 -18953,-2912 -26276,-2912 -3288,789 -7340,19270 -8874,24272l-22254 75888c-5035,17122 -9916,33498 -14946,50546 -4734,16039 -11648,35430 -14877,51440z"/>
    <path class="fil2" d="M979268 2486295c38624,0 30749,5041 43813,-39222 3053,-10341 6609,-20975 9260,-31408 4479,-17626 -13215,-13315 -27005,-13315 -2681,1488 -876,-1266 -2708,3513l-10956 37595c-4046,13048 -9674,29644 -12404,42837z"/>
    <path class="fil2" d="M1678905 2363864c36226,963 32412,2080 43337,-36960 2913,-10411 6817,-21061 9292,-31404 1662,-6937 -165,-10314 -7012,-11167 -5732,-714 -14778,-184 -20856,-184 -2901,918 -11508,34279 -12898,39051 -3920,13450 -8449,27136 -11863,40664z"/>
    <path class="fil2" d="M1015630 2362302c32905,0 30789,4025 39440,-25087 13668,-45998 20082,-53117 -129,-53090 -18757,25 -15726,-931 -17544,3698 -457,1163 -938,3284 -1337,4621l-8876 29842c-3660,12034 -9125,27817 -11554,40016z"/>
   </g>
   <path class="fil3" d="M1078168 2387978c929,-2201 -85,-1357 1273,-2453l-5023 387 3750 2066z"/>
   <path class="fil4" d="M801409 2461075l-2274 -485 428 2178c4024,-57 137,447 1846,-1693z"/>
  </g>
  <g id="_566836293408">
   <g id="_575957256800">
    <circle class="fil5" cx="1487918" cy="1219379" r="903552"/>
    <path class="fil6" d="M1487918 397203c-453302,0 -822103,368798 -822103,822104 0,426558 326494,778232 742792,818260 0,-53690 0,-467551 0,-525123l-190368 -185012 0 -254168c32771,-9489 56828,-39706 56828,-75494 0,-103933 -157275,-103933 -157275,0 0,35788 24053,66005 56831,75494l0 128577 -80638 -60993 0 -219625c86207,-25942 67483,-153943 -22609,-153943 -90838,0 -108908,129916 -21011,154353l0 240911 124258 93979 0 89351 39986 38861 -117276 0 -124805 -121136c34420,-52115 -3178,-121850 -65628,-121850 -126037,0 -85784,203670 32281,150266l140465 136338 179840 0 105506 102528c0,53845 0,410066 0,457170 -370009,-58871 -655550,-380425 -655550,-768743 0,-429259 349221,-778477 778477,-778477 429247,0 778467,349218 778467,778477 0,398460 -300907,728017 -687729,773156l0 -48776c359129,-44737 639264,-351918 639264,-724380 0,-402526 -327485,-730010 -730002,-730010 -402523,0 -730006,327484 -730006,730010 0,345248 240918,635277 563464,710807l0 -39858c-300978,-74743 -524724,-347189 -524724,-670949 0,-381166 310099,-691275 691266,-691275 381160,0 691274,310109 691274,691275 0,350760 -262485,640793 -600537,685308 0,-154612 0,-281512 0,-355883l11641 -8787 129944 0 204180 -108675c49198,49976 134660,15050 134660,-55115 0,-115546 -179999,-95957 -155437,16771l-194287 103395 -61284 0 354157 -267374 0 -252070c86868,-25140 68867,-154137 -21814,-154137 -90717,0 -108542,129028 -21799,154137l0 230102 -268632 202808 0 -150424 138007 -99213 0 -108695c86850,-25127 68832,-154136 -21814,-154136 -90745,0 -108571,129034 -21806,154136l0 86335 -138006 99203 0 205724 -111330 84048c0,58182 0,455569 0,513265 431652,-24582 774974,-383401 774974,-820721 0,-453306 -368785,-822102 -822091,-822102l-1 -5zm-435939 419327l0 0c14483,-8846 32330,-7331 44514,4488 17891,17390 12309,55489 -20948,59508 -43600,0 -50135,-46610 -23566,-63996zm-170087 428862l0 0c-20969,-21634 -7781,-60030 25008,-60030 20008,0 35024,14975 35024,35019 0,32679 -38226,46009 -60031,25011l-1 0zm279505 -247622l0 0c0,-46288 70048,-46288 70048,0 0,46284 -70048,46284 -70048,0zm819019 343360l0 0c19994,0 35043,14984 35043,35024 0,20031 -15023,35026 -35043,35026 -19966,0 -35010,-14987 -35010,-35026 0,-20028 15005,-35024 35010,-35024zm0 -474468l0 0c46799,0 46799,69431 0,69431 -46765,0 -46765,-69431 0,-69431zm-174238 74275l0 0c46289,0 46289,70039 0,70039 -46280,0 -46280,-70039 0,-70039z"/>
    <path class="fil7" d="M1487918 315750c-498229,0 -903556,405328 -903556,903557 0,549487 490025,975624 1037915,893551 434736,-65088 769194,-440978 769194,-893551 0,-498227 -405320,-903557 -903552,-903557l-1 0zm4940 1767559l0 0c0,-98698 0,-669539 0,-753410l109925 -104925 0 -330284 106416 -116137c118020,49935 155053,-151108 30549,-151108 -63396,0 -100773,71612 -64470,123556l-116100 126719 0 328596 -109937 104916 0 30711 -76624 -72810 0 -169481 1331 1630 140714 -115332 0 -247363c79696,-32586 56107,-151416 -29660,-151416 -43351,0 -78629,35275 -78629,78638 0,38587 27960,70707 64682,77326l0 222174 -98439 80674 0 -160830c29711,-11253 50924,-39913 50924,-73507 0,-103924 -157290,-103924 -157290,0 0,37919 26973,69645 62751,77026l0 399177 120238 114260c0,72850 0,610413 0,680371 -458301,-20297 -825406,-399459 -825406,-863175 0,-476454 387625,-864077 864084,-864077 476449,0 864083,387623 864083,864077 0,474601 -384806,861394 -859142,864004l0 0zm246890 -1412246l0 0c57515,0 37124,92030 -15277,66393l-14647 -13412c-14349,-23862 3337,-52982 29925,-52982l-1 1zm-381831 173038l0 0 -26042 0c-34001,-13689 -27846,-67179 13028,-67165 40947,-14 46946,53496 13014,67165zm127085 -143274l0 0c-19300,0 -35014,-15712 -35014,-35017 0,-19314 15715,-35026 35014,-35026 19320,0 35022,15712 35022,35026 0,19305 -15703,35017 -35022,35017z"/>
   </g>
  </g>
 </g>
</svg>
