<?xml version="1.0" encoding="utf-8"?>
<!-- Generator: Adobe Illustrator 19.0.0, SVG Export Plug-In . SVG Version: 6.00 Build 0)  -->
<svg version="1.1" id="Layer_1" xmlns="http://www.w3.org/2000/svg" xmlns:xlink="http://www.w3.org/1999/xlink" x="0px" y="0px"
	 viewBox="0 0 1080 1920" style="enable-background:new 0 0 1080 1920;" xml:space="preserve">
<style type="text/css">
	.st0{fill:#A871A9;}
	.st1{fill:#F9F9F9;}
</style>
<g id="bowarrow">
	<path id="XMLID_75_" class="st0" d="M868.4,1550.2c-49.7-1.4-98.5-9.3-146.9-20.1c-16.9-3.8-33.5-8.9-50.2-13.5
		c-2.7-0.7-5.3-2-8.2-1.5c-40-13.5-80.1-26.6-119.4-42c-37.8-14.8-75.1-30.7-112.2-47c-20.3-9-42.5-8.8-64.3-10.6
		c-2-1.9-6.7,1.3-6.9-2.7c-0.2-3.3,4-3.6,6.5-4.2c13.1-3.1,26.3-5.4,39.6-7.1c11-1.5,20.9,3.2,30.8,6.9c21.3,7.9,41.2,18.8,61.9,28
		c51.6,23.1,103.5,45.2,157.6,62c29.7,9.2,59.7,17.2,90.2,22.8c24.9,4.6,49.8,9.5,75.1,12.2c3.8,0.4,7.9,0.3,11.1,3.2
		c26.3,2.3,52.7,4.7,79,7c1.3,0.4,2.6,0.9,6.2,2.1c-8.2,1.3-14,2.2-19.8,3.1c-6.7,1.7-13.7-0.6-20.4,1.3
		C874.9,1550,871.7,1550.1,868.4,1550.2z"/>
	<path id="XMLID_74_" class="st0" d="M237.7,1203.8c2.2-6.5,0.3-12.8-1.2-19c-10.2-42.7-18.4-85.9-25-129.2
		c-9.2-61.1-16.8-122.4-17.5-184.3c0-0.8-0.2-1.7-0.3-2.5c0-2.8,0-5.6,0-8.4c-2.1-4.5-0.9-8.9,0-13.4c0.1-2.7,0.1-5.4,0.2-8.2
		c2-10.1-0.6-20.4,1.4-30.5c2.7-38.4,7.4-76.5,20.2-113.2c0.8-2.4,0.5-6.2,5-4.6c-3.5,8.4-2.7,17.5-3.7,26.3
		c-1.7,14.1-3.2,28.3-4.8,42.5c0,13.8-0.9,27.4-2.1,41.1c-2.8,32.7-1.5,65.5-2,98.2c-0.2,11.8,2,23.4,2.8,35.1
		c2.6,38.5,7,76.9,14.8,114.7c7.6,37,15.7,73.9,24.4,110.7c3.2,13.3,5.5,26.9,6.8,40.5c1.4,14.9-5.4,27.9-10.9,40.9
		c-2.6,6.2-4.2,13.4-10.9,17.3c-2.5-2.3-1.8-4.7-1-7.1C235.8,1235.1,238.5,1219.6,237.7,1203.8z"/>
	<path id="XMLID_73_" class="st0" d="M569,1118.4c-9.6,4.3-16.6,12.2-24.6,18.7c-30.2,24.5-60.2,49.3-90.3,74
		c-41.1,33.8-82.1,67.7-123.2,101.5c-24.9,20.4-49.9,40.6-74.9,60.9c-4.1,0.5-6.1-0.9-4.7-5.3c61.6-50.7,123.3-101.4,184.9-152.1
		c39-32,78.1-63.8,117-95.9c3.3-2.7,8.9-4.5,7.5-10.8c3.6,1.1,6.3-0.4,9.1-2.6c33.4-27.7,66.9-55.3,100.4-82.8
		c34.9-28.6,69.9-57,104.7-85.6c20.4-16.7,40.6-33.5,61-50.1c2.5-2,5.3-5.8,8.3-1.7c2.8,3.7-1.7,5.2-3.8,7
		c-62.9,51.8-126,103.4-188.9,155.2c-26.6,21.9-53.1,43.8-79.6,65.8C570.7,1115.5,570,1117.1,569,1118.4z"/>
	<path id="XMLID_72_" class="st0" d="M781.6,950.1c11.9-10.1,22.7-19.3,33.6-28.4c7.8-6.4,15.8-12.6,23.6-18.8
		c2.2-1.8,4.4-4.3,7.3-3.5c9.9,2.8,20,5.7,29.5,9.5c4.8,1.9,0.2,3.9-1.5,4.9c-16,9.2-32.3,17.9-49.3,25.1
		c-9.6,4.1-19.4,7.2-29.3,10.1C791.6,950.2,787.6,951.5,781.6,950.1z"/>
	<path id="XMLID_71_" class="st0" d="M768.3,934.1c3.7-12.7,10.3-23.7,17.2-34.4c10.6-16.4,22.7-31.9,35.7-46.5
		c1.6-1.8,2.9-5.1,5.6-4.3c3.1,1,2.3,4.7,2.8,7.3c0.1,0.5,0,1.2,0.1,1.7c6.3,20-2.7,32.8-18.8,43.6c-12.2,8.3-23,18.6-34.4,28
		C774.3,931.4,772.3,933.9,768.3,934.1z"/>
	<path id="XMLID_70_" class="st0" d="M212.5,798c-0.5,75.6,4.6,150.6,27.4,223.3c2.9,9.3-0.4,17.3,1,25.8
		c4.7,10.8,6.6,22.5,8.4,33.8c4.6,28.2,14.6,54.5,25.4,80.6c0.9,2.1,1.9,4,2.6,6.2c2.2,6.7,5.9,11.6,12.7,14.6
		c5.1,2.3,10.7,4.9,13.2,10.8c16.1,9.5,17.4,19.1,3.3,31c-7.2,6.1-3.6,11-0.5,16.6c2.5,2.1,0.8,4.4-0.3,5.9
		c-7.2,9.7-16.8,16.2-28.1,20.3c-1.7,0.6-3.3-0.1-4.8-0.8c-7.4-11.3-7.4-11.3-20.4-6.8c-4.5,1.5-8.9,3.2-13.4,4.8
		c-7.4,0-3.5-4.5-2.4-7c4.1-9.8,8.6-19.4,12.8-29.2c5.7-13.3,7.2-26.4,4.4-40.7c-5.7-29.1-12.4-57.9-18.9-86.8
		c-11.3-49.8-20.2-100.1-24.9-150.9c-3-32-4.1-64.1-3.5-96.3c0.4-19.8,1.9-39.6,2.5-59.4c0.1-2.1,0-4.4,2.9-6
		C214,791.2,213.2,794.6,212.5,798z"/>
	<path id="XMLID_69_" class="st0" d="M379.9,1351.1c5.8-5.5,11.4-7.1,17.4,0.1c2.2,2.6,5.5,2.4,8.4,0.2c1.8-1.3,3.6-2.7,5.4-3.9
		c12.3-8.3,20.7-5.6,25.9,8.5c0.9,2.4,1.8,4.7,2.7,7.1c3.1,2.6,4.7,6.1,6.2,9.7c8,19.8,25.1,28.3,43.4,35.2c0.8,0.3,1.6,0.7,2.3,1.2
		c7.1,9.1,17.6,13.5,27.6,18c14.2,6.3,27.8,13.9,42.5,19.2c1.7,0.6,2.9,1.6,3.7,3.2c2.4,0.7,5,2.5,7.1,2.1
		c12.8-2.9,21.7,5.5,31.4,10.8c32.9,17.8,67.7,30.6,103.1,41.9c21.1,6.7,42.7,11.3,63.9,17.3c1.5,2,0.7,3.4-1.1,4.5
		c-16.5-1.1-32.4-5.1-48.4-8.8c-54.6-12.5-107.5-30-159.1-51.6c-36.8-15.4-72.9-32.6-109.3-48.9c-10.5-4.7-21.1-8.9-32-12.5
		c-8-2.7-16.1-1.3-24.1-0.1c-11.8,1.9-23.6,3.6-35.1,7c-2.6,0.8-5.6,1.9-6.7-2.2c3.8-6.2,7.4-12.5,11.4-18.6
		c3.5-5.1,3.2-9.3-2.1-12.7c-4.1-2.7-4-5.5-0.8-8.9C368.9,1362.9,374.4,1357,379.9,1351.1C380,1351.1,379.9,1351.1,379.9,1351.1z"/>
	<path id="XMLID_68_" class="st0" d="M251.3,1368.2c1.6,1.8,3.1,3.5,4.7,5.3c0.6,4.5-4.4,4.6-6,8.1c4.8,4.1,9.8,8.3,15.4,13.1
		c-33.4,20.7-67.9,37.6-103.8,52c21-32.3,44.1-62.8,71-91.5c1.6,2.7,3.2,4.5,4,6.7C239.3,1369.3,242.8,1374.3,251.3,1368.2z"/>
	<path id="XMLID_67_" class="st0" d="M311.4,1249.1c3.1,5.6,5.8,11.4,9.5,16.6c4.8,6.9,7.9,13.1-1.1,18.9c-1.8,7-4.6,8.7-12.2,7.6
		c-1.4,0.3-2.8,0.5-4.1,1c-11.9,5-12.1,5.2-18.6-5.8c-3.5-6-8.6-11.1-10.2-18.2c2.5-4.6,7.8-4.9,11.5-7.7
		c5.8-4.3,12.3-7.6,17.3-12.8C306.2,1245.8,309,1244.8,311.4,1249.1z"/>
	<path id="XMLID_66_" class="st0" d="M355.1,1322.9c-3.3-1.8-4.4,1.3-6,2.8c-3.3,3-6.4,6.3-9.3,9.7c-9.9,11.6-9.7,11.6-18.8-0.6
		c-3.1-4.1-3.7-6.7,1.1-10.1c7-5,13.6-10.8,20-16.6c4.1-3.7,6.9-3.3,10.3,0.9c4,4.9,8.8,9.3,13.2,13.9
		C362,1326.8,358.5,1326.8,355.1,1322.9z"/>
	<path id="XMLID_65_" class="st0" d="M307.5,1292.2c4.1-2.5,8.2-5.1,12.2-7.6c4.5-1.4,8.8-6.8,13.4,0.8c3.4,5.5,3.9,8.9-1.8,12.9
		c-6.6,4.6-12.6,10.1-18.6,15.4c-4.4,3.9-7.8,3.4-10.9-1.4c-1.4-2.1-2.7-4.3-4.3-6.2c-3.5-4.3-1.9-6.9,2.5-8.9
		C302.8,1296.1,305.7,1294.9,307.5,1292.2z"/>
	<path id="XMLID_64_" class="st0" d="M355.1,1322.9c3.5,0,7,0,10.5,0c3.7,3.3,7.4,6.7,11.2,10c9.3,8.3,9.3,8.3,3.2,18.1
		c0,0,0.1-0.1,0.1-0.1c-1.4,0.2-2.8,0.5-4.2,0.7c-14.2,3.6-29.1-7.7-27.6-20.9C350.7,1328.4,351.8,1324.8,355.1,1322.9z"/>
	<path id="XMLID_63_" class="st0" d="M348.2,1330.9c3.5,14.5,17.3,15.3,27.6,20.9c-4.9,5.7-11.1,10.1-15.2,16.5
		c-2,3.1-4.3,3.3-6.8,0.7c-6.2-6.4-13.5-11.8-18.8-19c-0.3-3.4,4.2-4.9,3.3-8.6C341.5,1337.9,344.9,1334.4,348.2,1330.9z"/>
</g>
<g id="mask">
	<path id="XMLID_59_" class="st0" d="M331,440.8c-1.7-0.5-3.2,0.1-5.5,1c3-4.3,1.1-7-1.9-9.4c-3.2-2.5-6-0.8-9.1,0.5
		c-6.3,2.6-10.1,8.4-15.6,11.9c-1.4,0.9-2.2,2.5-1.4,4.3c0.7,1.6,3.5,2.6,1.8,4.9c-1.7,2.5-4.2,4.1-7.3,4.3c-0.3,0-0.6,0.1-1,0.1
		c6.5-32.2,13.3-64.3,20.8-96.8c1.9,1.4,2,3,2.3,4.5c4.8,23.6,10.1,47.1,16.1,70.4C330.7,437.9,330.8,439.4,331,440.8z"/>
	<g id="XMLID_77_">
		<path id="XMLID_62_" class="st0" d="M492.4,495.2c32.2,0,64.5,0,96.7,0c1.1-1.6,0.5-3.5,0.5-5.2c0-41.3,0-82.7,0-124
			c0-2.8-0.2-5.4,2.8-7.2c1.8-1,1.5-3,1-4.9c-0.7-2.8,2.8-11.4,5.2-12.6c1.6-0.8,3.1-0.5,4.6,0.3c5,2.6,6.9,2,9.9-2.6
			c5.2-8.3,13.5-10.8,22.5-7c1.8,0.8,2.9,2,2.9,4c0,1.6,0,3.3,0,4.9c0,64,0,127.9,0,191.9c0,8,2.6,15.7,2,23.8c0,7-0.1,14,0,21
			c0,3.5-1.2,6.2-3.5,8.7c-13.7,14.8-27.6,29.5-40.8,44.8c-1.3,1.6-2.5,3.8-5.1,2.7c-2.5-1-2.2-3.4-2.3-5.5
			c-0.2-19.5-0.1-39.1-0.1-58.6c0-12.9-0.4-13.3-13.1-13.3c-23.1,0-46.3,0-69.4,0c-9.1,0-10.4,1.4-10.4,10.6c0,12.7,0,25.4,0,38.1
			c0,1.3,0.1,2.6-0.1,3.9c-0.2,2.1,0.1,4.5-2.4,5.4c-2.5,0.9-3.9-1.2-5.4-2.5c-6.1-5.2-11.9-10.6-17.8-16c-8.8-8-17.6-16-26.3-24.1
			c-2.4-2.2-3.7-4.7-3.7-8.1c0-27.2-0.1-54.4,0.1-81.6c0-1,0.1-2,0.3-2.9c1.4-2.2,4-3.8,2.2-7.3c-0.5-1,1.6-2.9,2.8-4.2
			c2.8-2.9,4.9-6.1,5.5-10.3c0.3-2.5,1.4-5,3.3-6.9c0.8-0.8,1.8-1.7,1.8-2.8c0.5-7.2,6.6-7.5,11.5-9.1c2.1-0.7,4.2-0.4,6.2,1.9
			c2,2.4,5.8,2.6,7.8,5.3c2.1-1.6,1.5-3.8,1.8-5.6c0.4-2.4,1.5-4,4.1-3.9c2.6,0.1,2.8,2.3,3.3,4.1c0.6,2-1,4.2,0.6,6.1
			c0,14.1,0.1,28.2,0.1,42.3C491.4,490.8,491,493.1,492.4,495.2z"/>
		<path id="XMLID_61_" class="st0" d="M442.7,353.5c0.5-0.3,1.5-0.6,1.6-1.1c1-6.6,6.2-6.3,10.9-6.9c5.9-0.7,11.5-3.5,17.6-3.4
			c1.8,0,2.6-1.4,2-3.5c-1.9-6.5,4.3-13.5,10.8-11.9c3,0.7,3.5,4,4.3,6.6c0.4,1.5-0.1,3.3,1.4,4.5c0,36.2,0,72.3,0,108.5
			c-1.7-1.3-1.4-3.1-1.5-4.9c-0.1-1.4-0.7-2.7-2.2-2.8c-1.9-0.1-2,1.5-1.7,2.8c0.7,3.5-2.1,6-2.6,9.2c-0.2,1.4-1.3,2.3-2.9,1.8
			c-1.3-0.4-1.5-1.3-1.6-2.6c-0.2-4.3-4.9-8.8-9.3-9.1c-3.9-0.3-9.4,3.3-10.5,6.8c-0.3,1.1-0.6,2.5-1.3,3.1
			c-5.4,3.8-4.5,10.4-7.2,15.3c-0.7,1.2-0.5,3-2.1,3.5c-3.2,1-4.8,1.9-2.2,5.7c1.5,2.2-1.8,2.7-3.4,3.4c-2.5-0.7-2.4-2.8-2.5-4.7
			c-0.2-4.5-0.3-9,0.2-13.5c0.2-2,1.7-2.4,3.3-2.5c-1.8,0.3-2.9-0.4-3.3-2.2c-0.6-5.4-0.3-10.7-0.3-16.1c0-26.1-0.1-52.3,0.1-78.4
			C440.2,358.5,439.1,355.2,442.7,353.5z"/>
		<path id="XMLID_60_" class="st0" d="M412.2,801.3c-9.3-5.3-18.8-10.2-27.4-16.9c-21.2-16.6-37.6-37.4-51.7-60.1
			c-26.5-42.6-44.9-88.8-59.5-136.6c-2.9-9.4-1.2-18.8,0-28.1c4.3-32.8,10.8-65.2,17.5-97.5c2.9-2.4,5.4-4.8,3.9-9.2
			c-0.7-1.9,0.2-4.4,1.7-5.7c6-5.3,11.6-11.3,19.4-14.1c6.4-2.3,9.8-0.3,12.8,6.6c0.7,1.6,0.9,3.4,2.2,4.7
			c4.2,14.5,8.4,29.1,12.6,43.6c1.5,5.2,3.3,10.2,4.8,15.4c0.7,2.3,2.1,4,3.9,5.4c41,33.3,80,68.8,119.4,104
			c20.8,18.6,41.3,37.4,61.9,56.1c1.7,1.5,3.4,2.3,5.7,2.3c10.4-0.1,20.9-0.1,31.3,0c2.5,0,4.2-0.8,5.8-2.8
			c19-25.3,41.2-47.8,62.7-71c26.6-28.7,53.8-56.7,80.2-85.6c10-11,13.1-24.1,16-37.5c6.2-28,10.9-56.2,15.1-84.6
			c0.9-5.6,1.8-11.2,2.8-17.3c1.9,1.5,2.3,3.4,2.8,5.1c16.8,49.7,29.4,100.5,41.4,151.5c3.3,14.1,6.2,28.3,9.5,42.4
			c1.3,5.7,1.4,11.1,0.1,16.9C790.6,663,755.6,727.5,701,781.4c-5.6,5.5-11.7,10.4-17.5,15.6c-2.5,2.2-5.5,2.6-8.6,3.1
			c-4.5,3.3-8.8,0.8-12.9-0.7c-17.6-6.6-32.8-17.2-47.6-28.5c-10.5-8-20.6-16.5-30.6-25.1c-16.6-14.3-41.4-11.8-57,0.3
			c-21.2,16.3-43.5,31-67.7,42.7c-12.9,6.2-26.3,11.4-40.5,14.2C416.3,803.4,414,803.7,412.2,801.3z"/>
		<path id="XMLID_58_" class="st1" d="M577.1,703.3c18.6-11.3,36.4-22.4,54.5-33c4.1-2.4,9.3-1.3,13.9-1.7c18-1.6,36-2.7,54-4.2
			c4.3-0.4,5.3,0.6,4,4.8c-5.8,18.1-13.9,34.7-28.6,47.4c-13.8,11.8-29.6,14.1-46.7,10.2C609.7,722.7,593.4,714.2,577.1,703.3z"/>
		<path id="XMLID_57_" class="st1" d="M522.4,705c-19.4,10.4-38.3,20-59.8,23c-20.1,2.8-35.5-5.4-48-20.2
			c-9.5-11.2-15.5-24.3-19.4-38.5c-0.7-2.6-0.5-3.5,2.5-3.2c22.5,1.7,45.1,3.4,67.6,5c1.7,0.1,3.1,0.8,4.5,1.6
			c16.8,10.2,33.6,20.5,50.4,30.7C520.8,703.7,521.2,704.2,522.4,705z"/>
	</g>
</g>
</svg>
