<?xml version="1.0" encoding="UTF-8"?>
<!DOCTYPE svg PUBLIC "-//W3C//DTD SVG 1.1//EN" "http://www.w3.org/Graphics/SVG/1.1/DTD/svg11.dtd">
<!-- Creator: CorelDRAW X7 -->
<svg xmlns="http://www.w3.org/2000/svg" xml:space="preserve" width="847px" height="839px" version="1.1" style="shape-rendering:geometricPrecision; text-rendering:geometricPrecision; image-rendering:optimizeQuality; fill-rule:evenodd; clip-rule:evenodd"
viewBox="0 0 7509849 7438927"
 xmlns:xlink="http://www.w3.org/1999/xlink">
 <defs>
  <style type="text/css">
   <![CDATA[
    .fil1 {fill:#656A6D}
    .fil0 {fill:#79519A}
    .fil2 {fill:#A060AC}
   ]]>
  </style>
 </defs>
 <g id="Layer_x0020_1">
  <metadata id="CorelCorpID_0Corel-Layer"/>
  <path class="fil0" d="M7251897 1441483c340921,-94734 335479,-419128 33420,-586752l-966546 -582147c-175411,-114652 -362702,-275557 -624108,-272532 -170648,53014 -232119,181880 -377334,384913l-343580 432651c-69027,110434 -353209,33378 -659684,57975 -271579,21854 -209145,121131 -335520,286682l-1464206 6678c169058,486010 144137,658439 -6751,1141434l1491221 -471c179231,444761 203912,241142 790151,286484 177829,13785 231000,129672 311112,240661l380945 463601c331072,383886 425220,76459 1163258,-306507 210464,-109209 205534,-152489 331270,-213007 862309,-414963 456767,-773928 202321,-742340 -174186,21666 -1069161,649825 -1365379,760939l-382170 -460545c-179745,-228781 -261490,-237803 -261845,-599553 -157,-146115 -19709,-242890 49507,-341078l585371 -724535c128279,21415 233909,106854 341601,174616 245946,154739 880028,581623 1106946,592833z"/>
  <circle class="fil1" cx="1095657" cy="1737175" r="1095657"/>
  <circle class="fil2" cx="1095657" cy="1737175" r="658295"/>
  <path class="fil2" d="M278592 3003971l1808340 3112521 2032097 -8269 -1934286 -3263011c-494478,626421 -1333529,623668 -1906151,158759z"/>
  <rect class="fil2" x="633355" y="6101577" width="4989265" height="1337345" rx="172633" ry="172633"/>
 </g>
</svg>
