<?xml version="1.0" encoding="UTF-8"?>
<!DOCTYPE svg PUBLIC "-//W3C//DTD SVG 1.1//EN" "http://www.w3.org/Graphics/SVG/1.1/DTD/svg11.dtd">
<!-- Creator: CorelDRAW X7 -->
<svg xmlns="http://www.w3.org/2000/svg" xml:space="preserve" width="6522px" height="1225px" version="1.1" style="shape-rendering:geometricPrecision; text-rendering:geometricPrecision; image-rendering:optimizeQuality; fill-rule:evenodd; clip-rule:evenodd"
viewBox="0 0 5168242 970902"
 xmlns:xlink="http://www.w3.org/1999/xlink">
 <defs>
  <style type="text/css">
   <![CDATA[
    .str0 {stroke:#78519A;stroke-width:2228.47}
    .fil0 {fill:#78519A}
    .fil5 {fill:#82549C}
    .fil3 {fill:#86569E}
    .fil4 {fill:#905AA1}
    .fil2 {fill:#925BA2}
    .fil1 {fill:#9F5FA4}
   ]]>
  </style>
 </defs>
 <g id="Layer_x0020_1">
  <metadata id="CorelCorpID_0Corel-Layer"/>
  <g id="_623275500448">
   <path class="fil0 str0" d="M1125241 496428c97682,-7230 78893,9295 48180,110116 -19907,65340 -16039,98476 -56472,99137 -17549,286 -35439,-44 -53801,-272l62093 -208980 0 -1zm86234 -295117c96241,-5873 83278,-5678 40637,134748 -17054,56165 -4755,63434 -98115,59631l57479 -194379 -1 0zm-340018 628659c73606,2229 149618,328 223084,328 189348,0 169296,-14080 230462,-220712 16928,-57195 52626,-134263 -22152,-152643 34229,-7040 57858,-14472 71777,-37920 8515,-14341 43314,-142380 51193,-169160 15414,-52383 53346,-133295 -8894,-161015 -27376,-12194 -70321,-8453 -101991,-8453 -74024,0 -148047,0 -222069,0l-221410 749574 0 1z"/>
   <path class="fil0 str0" d="M3618541 400226c-532,-17329 48394,-168427 56891,-198915 102886,-6280 79499,2056 40930,137413 -20325,71324 -20723,61502 -97821,61502zm-282673 429879l155578 -15 93355 -319625c11246,-3 51107,-1343 59160,1172 17952,5604 8319,26880 4103,41211 -25556,86919 -59522,193806 -81093,276361l155576 1135c4961,-25388 67715,-230714 80616,-275835 11621,-40635 4110,-64706 -26276,-80230 54755,-5502 58446,-33730 72725,-81419 12038,-40204 24220,-80142 35633,-120364 20377,-71819 82303,-192101 -51877,-192101l-272396 0c-9190,0 -14472,32311 -17032,41404 -4469,15893 -9482,32311 -14000,47812 -9014,30912 -18251,63316 -27663,93713 -38467,124251 -73380,251533 -110976,376891 -13360,44559 -46311,150782 -55433,189889l0 1z"/>
   <path class="fil0 str0" d="M4401432 400226c-82,-10374 35776,-127439 43465,-152475 16644,-54188 2737,-47958 59684,-46876 16317,307 20148,612 27823,12270 2264,17221 -26788,106085 -33518,128024 -20912,68162 -16818,59057 -97454,59057zm164524 78159l-7462 -4089 7968 -1216c32997,-2302 49124,-21977 57695,-51035l75621 -258646c17268,-96399 -90841,-83003 -138364,-83003 -72620,0 -149612,-2465 -221685,211l-221013 748788 155865 938 93366 -319859c21655,-11 57150,-5267 68528,8242 5411,24831 -76879,262296 -86372,311582l151879 0c7108,-2275 74197,-241581 82114,-267614 10049,-33038 10497,-72579 -18140,-84299l0 0z"/>
   <path class="fil0 str0" d="M3129160 830682l-16083 57367 149381 -72150c30260,-14518 26911,-6094 36788,-39809l136378 -462879c5736,-19140 11664,-37978 17032,-57317 11260,-40591 48838,-155694 50491,-175497l-152353 0c-6420,11530 -86779,291202 -93047,312366l-88613 302513c-4521,11839 -93,9351 -36566,9351 -51342,0 -34302,-24990 -24215,-60038 37859,-131561 82612,-272480 118081,-401912 6502,-23723 46300,-150299 46555,-162279l-152184 0c-7838,14983 -55363,184847 -64977,216924l-96630 329213c-19754,65975 -63410,167348 33138,197316 38849,12059 94383,4098 136825,6832l-1 -1z"/>
   <path class="fil0 str0" d="M2003631 253623l2586 -8432c4118,7251 4176,3575 -921,9667l-56420 327928 -76591 -845 131346 -328318zm-388501 576222l157928 454c7815,-5478 24162,-53074 29072,-65524 8061,-20445 21913,-50225 26718,-69655l102798 6 -23311 135118 154840 55 101789 -749748 -221040 -155c-11386,17247 -30514,69020 -40851,91891l-123874 282238c-10701,23831 -158574,356744 -164069,375319l0 1z"/>
   <path class="fil0 str0" d="M777136 260605c1541,22933 -21150,130230 -26456,160867 -9131,52732 -20663,108320 -27610,161332l-77814 -190 130001 -323995 1588 -9538c1153,-1793 1103,-3325 2832,-4618 1316,2038 6355,-3647 804,5004 -366,5569 152,2595 -1206,7701 -137,515 -863,2161 -980,1840 -111,-307 -783,1059 -1160,1597l1 0zm-388896 569693l161753 -6c808,-3434 47511,-132847 56712,-135173l98279 0 -23322 134336 150387 878c7139,-4203 1994,2556 5145,-7786 47,-155 1325,-9622 1448,-10640l73924 -543110c4273,-31427 8535,-62084 12775,-93725 3270,-24420 12662,-72764 12006,-94465l-216734 -217c-8283,1407 -38177,78177 -43255,89491l-289119 660418 1 -1z"/>
   <path class="fil0 str0" d="M2424335 830298c8155,-4089 11395,-19286 16800,-33247 4642,-11988 9175,-23246 13961,-35545 8605,-22105 21901,-51180 28078,-72874 -36871,-2965 -119824,-219 -165433,-453 -18078,-93 -33299,-2775 -30988,-23395 2059,-18362 18365,-66059 24712,-86554 8990,-29040 16329,-56943 25358,-86109l76063 -258248c12120,-40769 14522,-32951 81833,-32951l-40151 141131 148486 -33454c7683,-13282 66888,-220966 67624,-227886l-298075 29c-89376,4490 -87648,73807 -120323,180645 -16072,52540 -30806,104242 -46262,156805 -15469,52625 -86746,278727 -88344,315039 -2857,64933 40828,95313 103556,96992 66771,1787 136056,76 203107,76l-2 -1z"/>
   <path class="fil0 str0" d="M4825400 526144c2779,10957 -31050,127133 -37932,143278 -10812,25370 -43097,18704 -72523,18704 -31507,-3 -63015,0 -94521,0l-41540 141689 255004 439c41020,-1185 65510,-18046 75410,-51234l57997 -197111c17089,-60488 63956,-160259 -4610,-185562 -28101,-10371 -87984,-6212 -121616,-6461l42658 -149045c10623,-32937 32316,-25499 68946,-25499 32082,0 64281,272 96349,-70l39888 -134608c-44345,-273 -226652,-2495 -256031,506 -39371,4025 -62149,24581 -73284,55226 -11395,31366 -19385,66861 -29610,99274 -20231,64153 -41035,134064 -58444,198910 -33392,124398 97492,80654 153860,91564l-1 0z"/>
   <path class="fil0 str0" d="M3773980 829790l290234 517 50415 -140885 -142090 -1359c1895,-16523 44761,-159940 51687,-174544l131221 0c6268,-2091 39988,-123003 41509,-132565l-132812 -345c8,-2992 36057,-138302 44457,-157287 4039,-9134 -1197,-4674 7071,-7979l133722 0 39827 -134670 -294118 -278 -221123 749394 0 1z"/>
   <path class="fil0 str0" d="M1309371 830298l156655 -18 92252 -316479 138012 -304c7038,-2191 19731,-55322 22624,-64782 6517,-21295 14530,-46279 19304,-67951l-139669 -185 47423 -165123 139466 -114c6911,-1567 9836,-18908 13376,-30950 3223,-10962 6829,-23173 10079,-34367 5350,-18417 18102,-53146 19831,-69314l-298070 -322c-8152,14720 -21925,71175 -28234,92353l-138112 468633c-9117,31302 -18573,62284 -27514,93781 -8508,29968 -21295,65053 -27423,95141l0 1z"/>
   <path class="fil0 str0" d="M82285 829395l152967 938c10475,-6911 21047,-60870 25809,-76284 10635,-34440 64670,-226793 71178,-240530l140744 0 38947 -132748 -140478 -146 47577 -164777 143698 -524 39822 -134587 -299248 -328 -221016 748987 0 -1z"/>
   <path class="fil0 str0" d="M2673461 215343l106226 0 -181952 614448 150999 507c7089,-2129 22187,-64171 25174,-74436l134831 -464459c3720,-12840 6876,-25215 10883,-38479 1901,-6289 3811,-12539 5639,-19210 2582,-9424 2316,-14612 9198,-18371l101532 0c1435,-5101 3117,-9602 4738,-15001l14987 -51609c4680,-15118 18207,-54872 19164,-68338l-360812 0c-6277,11240 -36578,115664 -40605,134947l-2 1z"/>
  </g>
  <g id="_623275504544">
   <path class="fil1" d="M2553102 601929l-141151 0 38075 -132792c4694,-14413 7833,-31506 13927,-43029 21919,0 58532,2147 78655,-588 20278,-2755 46501,-13802 67452,-14270 -5403,11257 -10568,34460 -14554,47355 -4946,16002 -8879,31234 -14232,47678l-28172 95647 0 -1zm625057 368973l-151039 0 -1035 0c0,-64500 5074,-57490 -22203,-57043 -43848,723 -112411,3115 -141341,-34478 -4305,-5595 -7847,-9058 -9801,-17437l-4952 0c-638,7662 -9555,47086 -18365,50970 -7693,3395 -2584819,1032 -2829423,1032l0 -170866c0,-15204 8202,-37734 12074,-49836 4934,-15431 8865,-30038 13579,-45853l136171 -463104c13795,-47941 43755,-141780 53617,-184108l1998404 -3c10485,-15 21579,-907 30854,1480 17745,4562 4521,-1477 23627,-1477l2899787 0 129 170993c-1076,13608 -652,5814 -3401,11459l-22024 69608c-15515,56288 -8909,50345 -41544,50072 -40401,-339 -80943,-20 -121359,-20l0 2477c51620,0 101528,6300 101528,74290 0,54085 4745,154435 -9017,201461 -6219,21237 -11720,41330 -17918,61335 -8084,26107 -61763,222353 -74503,239992 -25829,35753 -64086,32100 -123910,32100l-1257978 0c-85513,0 -193180,-1921 -277497,-146 -17730,372 -87147,37066 -108036,47973l-12287 7519c-1807,769 -10085,1281 -22138,1609l1 1zm1388302 -497822l-506 5305c28636,11720 28189,51261 18139,84299 -7917,26034 -75007,265339 -82114,267614l-151879 0c9494,-49286 91784,-286751 86372,-311582 -11377,-13510 -46872,-8254 -68528,-8242l-93365 319859 -155866 -938 221013 -748788c72073,-2676 149066,-211 221685,-211 47523,0 155632,-13395 138364,83003l-75621 258646c-8570,29058 -24697,48733 -57695,51035l1 0zm-3473593 -392684c74022,0 148045,0 222069,0 31669,0 74615,-3741 101991,8452 62240,27722 24308,108634 8894,161016 -7879,26780 -42678,154819 -51193,169160 -13919,23448 -37548,30880 -71778,37920 74779,18379 39081,95448 22153,152643 -61166,206631 -41114,220712 -230462,220712 -73466,0 -149479,1901 -223084,-328l221410 -749574 0 -1zm2243000 749709c9122,-39107 42073,-145330 55433,-189889 37596,-125357 72509,-252639 110976,-376891 9412,-30397 18649,-62801 27663,-93714 4518,-15501 9531,-31918 14000,-47811 2559,-9094 7842,-41404 17032,-41404l272396 0c134181,0 72254,120283 51877,192101 -11413,40222 -23594,80160 -35633,120364 -14279,47689 -17970,75916 -72725,81419 30386,15524 37897,39595 26276,80230 -12901,45120 -75655,250448 -80616,275835l-155576 -1135c21571,-82555 55537,-189442 81093,-276361 4215,-14331 13849,-35607 -4103,-41211 -8052,-2515 -47914,-1175 -59160,-1172l-93355 319625 -155578 15 0 -1zm-1720738 -260c5495,-18576 153368,-351489 164069,-375319l123874 -282238c10337,-22871 29465,-74644 40851,-91891l221040 155 -101789 749748 -154840 -56 23311 -135117 -102798 -6c-4805,19429 -18657,49210 -26718,69655 -4911,12450 -21257,60046 -29072,65524l-157928 -454 0 -1zm-1311829 -749438l299248 328 -39822 134588 -143698 523 -47577 164777 140478 146 -38947 132748 -140744 0c-6508,13737 -60543,206090 -71178,240530 -4762,15414 -15334,69374 -25809,76284l-152967 -938 221016 -748987 0 1zm4522099 445737c-56367,-10909 -187252,32834 -153860,-91563 17409,-64846 38213,-134757 58444,-198910 10225,-32413 18215,-67908 29610,-99274 11135,-30646 33913,-51201 73284,-55226 29379,-3001 211686,-778 256031,-506l-39888 134608c-32067,343 -64267,70 -96349,70 -36630,0 -58324,-7438 -68946,25499l-42658 149045c33632,249 93515,-3910 121616,6461 68566,25303 21699,125074 4610,185561l-57997 197112c-9900,33187 -34390,50049 -75410,51234l-255004 -439 41540 -141689c31507,0 63015,-3 94521,0 29426,0 61710,6666 72523,-18704 6882,-16145 40711,-132321 37932,-143278l1 -1zm-830296 -445748l294118 278 -39827 134670 -133722 0c-8268,3305 -3033,-1156 -7072,7979 -8400,18985 -44448,154295 -44457,157287l132813 345c-1521,9562 -35241,130473 -41509,132565l-131221 0c-6926,14603 -49792,158020 -51687,174543l142090 1360 -50415 140885 -290234 -517 221123 -749394 0 -1zm-1321643 134947c4027,-19283 34328,-123707 40605,-134947l360812 0c-957,13465 -14484,53219 -19164,68338l-14987 51609c-1620,5399 -3302,9900 -4738,15001l-101532 0c-6882,3759 -6616,8947 -9198,18371 -1828,6671 -3738,12921 -5639,19210 -4007,13264 -7163,25639 -10883,38479l-134831 464459c-2987,10266 -18084,72306 -25174,74436l-150999 -507 181952 -614448 -106226 0 2 -1zm-1996102 -45462c5078,-11314 34972,-88084 43255,-89491l216734 217c656,21702 -8736,70046 -12006,94465 -4241,31640 -8502,62298 -12775,93725l-73924 543110c-123,1018 -1401,10485 -1448,10640 -3151,10342 1994,3583 -5145,7786l-150387 -878 23322 -134336 -98279 0c-9201,2325 -55904,131739 -56712,135173l-161753 6 289119 -660418 -1 1zm2451801 660801c-42442,-2735 -97975,5226 -136825,-6833 -96548,-29968 -52892,-131341 -33138,-197316l96630 -329213c9614,-32076 57139,-201940 64977,-216924l152184 0c-255,11980 -40053,138557 -46555,162279 -35469,129432 -80221,270351 -118080,401912 -10088,35048 -27128,60038 24214,60038 36473,0 32045,2489 36566,-9351l88613 -302513c6268,-21164 86626,-300836 93047,-312366l152353 0c-1653,19804 -39231,134907 -50491,175497 -5367,19338 -11296,38178 -17032,57317l-136378 462879c-9877,33715 -6528,25291 -36788,39809l-149381 72150 16083 -57367 1 2zm-704825 -384c-67051,0 -136337,1711 -203107,-76 -62728,-1679 -106413,-32059 -103555,-96992 1596,-36312 72873,-262413 88344,-315039 15455,-52563 30189,-104264 46261,-156805 32676,-106838 30948,-176156 120323,-180645l298076 -29c-737,6921 -59942,214605 -67625,227886l-148486 33454 40152 -141131c-67312,0 -69714,-7818 -81834,32951l-76063 258248c-9029,29167 -16367,57069 -25358,86109 -6347,20495 -22652,68192 -24712,86554 -2310,20620 12911,23302 30988,23396 45610,234 128563,-2512 165433,453 -6177,21693 -19473,50769 -28078,72873 -4786,12300 -9318,23557 -13961,35545 -5405,13960 -8645,29158 -16800,33247l2 1zm-1114964 0c6128,-30088 18915,-65173 27423,-95141 8941,-31497 18397,-62479 27514,-93781l138112 -468633c6309,-21178 20082,-77633 28234,-92353l298070 321c-1729,16169 -14481,50898 -19831,69315 -3250,11193 -6856,23404 -10079,34367 -3539,12041 -6464,29382 -13376,30950l-139466 114 -47423 165123 139669 184c-4774,21673 -12788,46657 -19304,67952 -2893,9459 -15586,62591 -22624,64782l-138012 304 -92252 316479 -156655 18 0 -1z"/>
   <path class="fil1" d="M1063147 705409c18362,229 36252,559 53801,272 40433,-661 36566,-33796 56472,-99137 30713,-100821 49502,-117346 -48180,-110116l-62094 208980 1 1z"/>
   <path class="fil1" d="M3618541 400226c77098,0 77496,9822 97821,-61502 38569,-135357 61956,-143693 -40930,-137413 -8496,30488 -57422,181586 -56891,198915z"/>
   <path class="fil1" d="M4401432 400226c80636,0 76542,9105 97454,-59057 6731,-21940 35782,-110803 33518,-128024 -7675,-11658 -11506,-11963 -27823,-12270 -56947,-1081 -43039,-7312 -59684,46876 -7690,25036 -43548,142101 -43465,152475z"/>
   <path class="fil1" d="M1153996 395690c93360,3803 81061,-3466 98115,-59631 42641,-140426 55604,-140621 -40637,-134748l-57479 194379 1 0z"/>
   <path class="fil1" d="M777136 260605l-1878 -1986 -130002 323995 77815 190c6947,-53012 18479,-108600 27610,-161332 5306,-30637 27996,-137934 26456,-160867l-1 0z"/>
   <polygon class="fil1" points="2005296,254858 2003631,253623 1872285,581941 1948876,582786 "/>
  </g>
  <path class="fil2" d="M775258 258619l1878 1986c377,-538 1050,-1904 1160,-1597 117,322 843,-1325 980,-1840 1357,-5106 840,-2132 1206,-7701l-3636 -385 -1588 9538 0 -1z"/>
  <path class="fil3" d="M2003631 253623l1665 1235c5098,-6092 5039,-2416 921,-9667l-2586 8432z"/>
  <polygon class="fil4" points="4565956,478385 4566461,473080 4558494,474297 "/>
  <path class="fil5" d="M776846 249081l3636 386c5551,-8652 512,-2966 -804,-5005 -1729,1293 -1679,2826 -2832,4618l0 1z"/>
 </g>
</svg>
