<?xml version="1.0" encoding="UTF-8"?>
<!DOCTYPE svg PUBLIC "-//W3C//DTD SVG 1.1//EN" "http://www.w3.org/Graphics/SVG/1.1/DTD/svg11.dtd">
<!-- Creator: CorelDRAW X7 -->
<svg xmlns="http://www.w3.org/2000/svg" xml:space="preserve" width="3000px" height="3000px" version="1.1" style="shape-rendering:geometricPrecision; text-rendering:geometricPrecision; image-rendering:optimizeQuality; fill-rule:evenodd; clip-rule:evenodd"
viewBox="0 0 32025876 32025876"
 xmlns:xlink="http://www.w3.org/1999/xlink">
 <defs>
  <style type="text/css">
   <![CDATA[
    .str0 {stroke:#78519A;stroke-width:9607.76}
    .fil0 {fill:none}
    .fil10 {fill:#78519A}
    .fil8 {fill:#656A6D}
    .fil1 {fill:#78519A}
    .fil7 {fill:#79519A}
    .fil6 {fill:#82549C}
    .fil4 {fill:#86569E}
    .fil5 {fill:#905AA1}
    .fil3 {fill:#925BA2}
    .fil2 {fill:#9F5FA4}
    .fil9 {fill:#A060AC}
   ]]>
  </style>
 </defs>
 <g id="Layer_x0020_1">
  <metadata id="CorelCorpID_0Corel-Layer"/>
  <circle class="fil0" cx="16012938" cy="16012938" r="16012936"/>
  <g id="_623275500448">
   <path class="fil1 str0" d="M9723813 25116697c421102,-31169 340104,40070 207701,474702 -85814,281676 -69145,424519 -243447,427368 -75652,1236 -152778,-189 -231935,-1172l267681 -900898zm371752 -1272234c414886,-25318 359005,-24474 175184,580891 -73521,242123 -20502,273456 -422969,257064l247785 -837955zm-1465789 2710107c317308,9608 644993,1413 961697,1413 816269,0 729824,-60698 993508,-951471 72978,-246562 226867,-578799 -95498,-658031 147559,-30349 249424,-62388 309428,-163471 36704,-61820 186721,-613787 220689,-729232 66447,-225820 229968,-574625 -38343,-694129 -118017,-52565 -303149,-36439 -439675,-36439 -319111,0 -638223,0 -957322,0l-954484 3231360z"/>
   <path class="fil1 str0" d="M20472251 24701974c-2294,-74706 208622,-726079 245251,-857511 443533,-27071 342714,8864 176444,592378 -87617,307473 -89332,265133 -421695,265133zm-1218584 1853176l670690 -63 402441 -1377881c48481,-13 220323,-5788 255035,5056 77392,24158 35859,115873 17690,177655 -110174,374703 -256598,835485 -349587,1191375l670678 4892c21384,-109442 291914,-994592 347531,-1189105 50094,-175172 17715,-278941 -113276,-345867 236046,-23717 251958,-145403 313513,-350986 51897,-173318 104412,-345489 153611,-518882 87844,-309605 354806,-828134 -223639,-828134l-1174278 0c-39616,0 -62387,139287 -73420,178488 -19266,68515 -40877,139287 -60357,206113 -38860,133260 -78678,272951 -119253,403992 -165828,535639 -316337,1084341 -478408,1624746 -57596,192092 -199645,650012 -238971,818601z"/>
   <path class="fil1 str0" d="M23847237 24701974c-353,-44722 154228,-549382 187376,-657312 71756,-233600 11802,-206743 257292,-202078 70343,1324 86860,2635 119945,52893 9759,74240 -115482,457327 -144494,551904 -90152,293844 -72500,254593 -420119,254593zm709247 336940l-32165 -17626 34346 -5246c142250,-9923 211774,-94741 248717,-220007l325996 -1115005c74441,-415567 -391611,-357820 -596476,-357820 -313059,0 -644968,-10629 -955669,908l-952770 3227969 671925 4047 402493 -1378891c93354,-50 246372,-22708 295419,35532 23326,107047 -331417,1130740 -372345,1343208l654740 0c30639,-9810 319856,-1041434 353987,-1153663 43323,-142427 45253,-312883 -78198,-363406z"/>
   <path class="fil1 str0" d="M18362566 26557634l-69335 247306 643972 -311030c130449,-62589 116012,-26276 158591,-171615l587915 -1995439c24725,-82511 50283,-163723 73420,-247091 48543,-174983 210538,-671182 217662,-756555l-656782 0c-27676,49703 -374098,1255351 -401118,1346587l-382003 1304109c-19493,51040 -404,40310 -157633,40310 -221332,0 -147874,-107728 -104387,-258817 163206,-567148 356130,-1174644 509035,-1732613 28029,-102268 199594,-647931 200691,-699576l-656051 0c-33791,64594 -238669,796864 -280113,935143l-416563 1419213c-85159,284412 -273355,721427 142855,850615 167480,51985 406880,17664 589844,29453z"/>
   <path class="fil1 str0" d="M13510494 24069980l11146 -36350c17753,31256 18005,15407 -3972,41671l-243220 1413678 -330181 -3644 566227 -1415355zm-1674802 2484048l680815 1955c33690,-23616 104160,-228796 125329,-282471 34750,-88134 94464,-216515 115180,-300274l443155 25 -100491 582480 667500 240 438805 -3232105 -952883 -668c-49085,74353 -131546,297538 -176105,396137l-534012 1216706c-46135,102735 -683601,1537898 -707293,1617975z"/>
   <path class="fil1 str0" d="M8223161 24100077c6644,98864 -91173,561411 -114045,693486 -39364,227321 -89080,466960 -119026,695491l-335452 -819 560428 -1396719 6846 -41117c4968,-7729 4754,-14336 12206,-19909 5673,8788 27398,-15723 3467,21573 -1576,24007 656,11184 -5195,33199 -592,2219 -3719,9318 -4224,7931 -479,-1324 -3379,4564 -5005,6884zm-1676505 2455906l697307 -26c3480,-14802 204815,-572695 244481,-582719l423675 0 -100541 579113 648309 3783c30778,-18119 8599,11020 22179,-33564 202,-668 5712,-41482 6241,-45870l318683 -2341306c18421,-135480 36792,-267643 55074,-404043 14097,-105269 54583,-313677 51759,-407233l-934324 -933c-35707,6065 -164580,337015 -186469,385786l-1246374 2847012z"/>
   <path class="fil1 str0" d="M15324117 26555983c35153,-17627 49123,-83142 72424,-143322 20010,-51683 39553,-100214 60181,-153233 37094,-95296 94413,-220638 121042,-314156 -158944,-12785 -516549,-946 -713168,-1954 -77934,-404 -143549,-11966 -133588,-100857 8876,-79157 79169,-284778 106530,-373126 38759,-125191 70394,-245477 109317,-371211l327899 -1113290c52250,-175751 62602,-142048 352777,-142048l-173091 608403 640114 -144217c33122,-57256 288346,-952568 291523,-982400l-1284981 126c-385294,19354 -377842,318178 -518706,778746 -69284,226501 -132806,449383 -199430,675973 -66687,226866 -373959,1201575 -380843,1358111 -12319,279924 176003,410889 446420,418127 287842,7704 586528,328 875580,328z"/>
   <path class="fil1 str0" d="M25674931 25244800c11978,47232 -133853,548059 -163521,617659 -46615,109367 -185788,80632 -312644,80632 -135820,-13 -271652,0 -407472,0l-179080 610811 1099307 1892c176836,-5107 282408,-77796 325088,-220866l250016 -849732c73672,-260758 275712,-690863 -19871,-799941 -121144,-44710 -379293,-26780 -524279,-27852l183897 -642522c45794,-141986 139312,-109922 297222,-109922 138304,0 277113,1172 415353,-303l171957 -580286c-191172,-1173 -977080,-10755 -1103733,2181 -169725,17350 -267921,105963 -315922,238076 -49123,135215 -83569,288233 -127649,427962 -87214,276557 -176899,577941 -251945,857486 -143953,536270 420282,347695 663276,394725z"/>
   <path class="fil1 str0" d="M21142336 26553789l1251178 2231 217335 -607344 -612539 -5863c8170,-71226 192962,-689489 222819,-752444l565685 0c27021,-9015 172385,-530255 178942,-571473l-572545 -1488c38,-12898 155439,-596210 191651,-678053 17413,-39377 -5157,-20148 30488,-34396l576466 0 171691 -580551 -1267922 -1198 -953249 3230579z"/>
   <path class="fil1 str0" d="M10517588 26555983l675330 -76 397688 -1364315 594963 -1311c30336,-9444 85057,-238492 97527,-279268 28092,-91804 62640,-199506 83217,-292936l-602099 -795 204436 -711831 601229 -492c29794,-6758 42403,-81515 57659,-133425 13895,-47257 29441,-99898 43449,-148151 23062,-79396 78035,-229111 85487,-298811l-1284956 -1387c-35141,63459 -94515,306830 -121711,398129l-595392 2020241c-39301,134937 -80064,268500 -118609,404282 -36678,129188 -91803,280441 -118218,410146z"/>
   <path class="fil1 str0" d="M5227707 26552087l659431 4047c45151,-29794 90731,-262410 111258,-328858 45845,-148466 278789,-977684 306843,-1036907l606739 0 167897 -572267 -605592 -630 205104 -710345 619474 -2256 171666 -580198 -1290037 -1413 -952783 3228827z"/>
   <path class="fil1 str0" d="M16398081 23904959l457932 0 -784382 2648842 650945 2182c30563,-9179 95649,-276633 108522,-320890l581245 -2002247c16038,-55352 29643,-108699 46916,-165879 8196,-27109 16429,-54053 24310,-82814 11133,-40624 9986,-62992 39654,-79194l437695 0c6191,-21990 13441,-41394 20426,-64670l64607 -222479c20174,-65174 78488,-236550 82611,-294600l-1555436 0c-27058,48455 -157683,498620 -175045,581749z"/>
  </g>
  <g id="_623275504544">
   <path class="fil2" d="M15879224 25571502l-608492 0 164139 -572456c20237,-62135 33766,-135820 60042,-185498 94489,0 252324,9255 339071,-2534 87416,-11878 200464,-59500 290780,-61518 -23288,48531 -45555,148555 -62741,204146 -21321,68982 -38279,134648 -61353,205533l-121446 412327zm2694574 1590614l-651122 0 -4463 0c0,-278057 21876,-247834 -95712,-245905 -189028,3114 -484599,13428 -609311,-148631 -18560,-24120 -33829,-39048 -42252,-75172l-21346 0c-2749,33034 -41192,202986 -79170,219730 -33160,14639 -11142962,4451 -12197433,4451l0 -736595c0,-65540 35355,-162664 52049,-214838 21270,-66523 38216,-129491 58541,-197666l587020 -1996409c59474,-206668 188624,-611203 231141,-793675l8614973 -12c45202,-63 93026,-3909 133008,6380 76497,19669 19493,-6368 101853,-6368l12500771 0 555 737138c-4640,58667 -2812,25065 -14664,49400l-94943 300072c-66889,242653 -38406,217032 -179093,215860 -174163,-1463 -348943,-88 -523169,-88l0 10679c222529,0 437683,27159 437683,320259 0,233158 20451,665760 -38873,868481 -26805,91551 -50522,178172 -77240,264415 -34850,112545 -266256,958545 -321179,1034587 -111347,154128 -276267,138380 -534164,138380l-5423053 0c-368638,0 -832786,-8284 -1196267,-630 -76433,1601 -375686,159789 -465737,206806l-52969 32417c-7792,3316 -43474,5522 -95434,6934zm5984867 -2146074l-2181 22872c123451,50523 121521,220979 78198,363406 -34131,112229 -323348,1143853 -353987,1153663l-654740 0c40928,-212468 395671,-1236161 372345,-1343208 -49047,-58240 -202065,-35582 -295419,-35532l-402493 1378891 -671925 -4047 952770 -3227969c310701,-11537 642610,-908 955669,-908 204865,0 670917,-57747 596476,357820l-325996 1115005c-36943,125266 -106467,210084 -248717,220007zm-14974405 -1692832c319099,0 638211,0 957322,0 136526,0 321658,-16126 439675,36439 268311,119504 104790,468309 38343,694129 -33968,115445 -183985,667412 -220689,729232 -60004,101083 -161869,133122 -309428,163471 322365,79232 168476,411469 95498,658031 -263684,890773 -177239,951471 -993508,951471 -316704,0 -644389,8195 -961697,-1413l954484 -3231360zm9669407 3231940c39326,-168589 181375,-626509 238971,-818601 162071,-540405 312580,-1089107 478408,-1624746 40575,-131041 80393,-270732 119253,-403992 19480,-66826 41091,-137598 60357,-206113 11033,-39201 33804,-178488 73420,-178488l1174278 0c578445,0 311483,518529 223639,828134 -49199,173393 -101714,345564 -153611,518882 -61555,205583 -77467,327269 -313513,350986 130991,66926 163370,170695 113276,345867 -55617,194513 -326147,1079663 -347531,1189105l-670678 -4892c92989,-355890 239413,-816672 349587,-1191375 18169,-61782 59702,-153497 -17690,-177655 -34712,-10844 -206554,-5069 -255035,-5056l-402441 1377881 -670690 63zm-7417975 -1122c23692,-80077 661158,-1515240 707293,-1617975l534012 -1216706c44559,-98599 127020,-321784 176105,-396137l952883 668 -438805 3232105 -667500 -240 100491 -582480 -443155 -25c-20716,83759 -80430,212140 -115180,300274 -21169,53675 -91639,258855 -125329,282471l-680815 -1955zm-5655202 -3230768l1290037 1413 -171666 580198 -619474 2256 -205104 710345 605592 630 -167897 572267 -606739 0c-28054,59223 -260998,888441 -306843,1036907 -20527,66448 -66107,299064 -111258,328858l-659431 -4047 952783 -3228827zm19494441 1921540c-242994,-47030 -807229,141545 -663276,-394725 75046,-279545 164731,-580929 251945,-857486 44080,-139729 78526,-292747 127649,-427962 48001,-132113 146197,-220726 315922,-238076 126653,-12936 912561,-3354 1103733,-2181l-171957 580286c-138240,1475 -277049,303 -415353,303 -157910,0 -251428,-32064 -297222,109922l-183897 642522c144986,1072 403135,-16858 524279,27852 295583,109078 93543,539183 19871,799941l-250016 849732c-42680,143070 -148252,215759 -325088,220866l-1099307 -1892 179080 -610811c135820,0 271652,-13 407472,0 126856,0 266029,28735 312644,-80632 29668,-69600 175499,-570427 163521,-617659zm-3579346 -1921590l1267922 1198 -171691 580551 -576466 0c-35645,14248 -13075,-4981 -30488,34396 -36212,81843 -191613,665155 -191651,678053l572545 1488c-6557,41218 -151921,562458 -178942,571473l-565685 0c-29857,62955 -214649,681218 -222819,752444l612539 5863 -217335 607344 -1251178 -2231 953249 -3230579zm-5697504 581749c17362,-83129 147987,-533294 175045,-581749l1555436 0c-4123,58050 -62437,229426 -82611,294600l-64607 222479c-6985,23276 -14235,42680 -20426,64670l-437695 0c-29668,16202 -28521,38570 -39654,79194 -7881,28761 -16114,55705 -24310,82814 -17273,57180 -30878,110527 -46916,165879l-581245 2002247c-12873,44257 -77959,311711 -108522,320890l-650945 -2182 784382 -2648842 -457932 0zm-8605051 -195988c21889,-48771 150762,-379721 186469,-385786l934324 933c2824,93556 -37662,301964 -51759,407233 -18282,136400 -36653,268563 -55074,404043l-318683 2341306c-529,4388 -6039,45202 -6241,45870 -13580,44584 8599,15445 -22179,33564l-648309 -3783 100541 -579113 -423675 0c-39666,10024 -241001,567917 -244481,582719l-697307 26 1246374 -2847012zm10569536 2848663c-182964,-11789 -422364,22532 -589844,-29453 -416210,-129188 -228014,-566203 -142855,-850615l416563 -1419213c41444,-138279 246322,-870549 280113,-935143l656051 0c-1097,51645 -172662,597308 -200691,699576 -152905,557969 -345829,1165465 -509035,1732613 -43487,151089 -116945,258817 104387,258817 157229,0 138140,10730 157633,-40310l382003 -1304109c27020,-91236 373442,-1296884 401118,-1346587l656782 0c-7124,85373 -169119,581572 -217662,756555 -23137,83368 -48695,164580 -73420,247091l-587915 1995439c-42579,145339 -28142,109026 -158591,171615l-643972 311030 69335 -247306zm-3038449 -1651c-289052,0 -587738,7376 -875580,-328 -270417,-7238 -458739,-138203 -446420,-418127 6884,-156536 314156,-1131245 380843,-1358111 66624,-226590 130146,-449472 199430,-675973 140864,-460568 133412,-759392 518706,-778746l1284981 -126c-3177,29832 -258401,925144 -291523,982400l-640114 144217 173091 -608403c-290175,0 -300527,-33703 -352777,142048l-327899 1113290c-38923,125734 -70558,246020 -109317,371211 -27361,88348 -97654,293969 -106530,373126 -9961,88891 55654,100453 133588,100857 196619,1008 554224,-10831 713168,1954 -26629,93518 -83948,218860 -121042,314156 -20628,53019 -40171,101550 -60181,153233 -23301,60180 -37271,125695 -72424,143322zm-4806529 0c26415,-129705 81540,-280958 118218,-410146 38545,-135782 79308,-269345 118609,-404282l595392 -2020241c27196,-91299 86570,-334670 121711,-398129l1284956 1387c-7452,69700 -62425,219415 -85487,298811 -14008,48253 -29554,100894 -43449,148151 -15256,51910 -27865,126667 -57659,133425l-601229 492 -204436 711831 602099 795c-20577,93430 -55125,201132 -83217,292936 -12470,40776 -67191,269824 -97527,279268l-594963 1311 -397688 1364315 -675330 76z"/>
   <path class="fil2" d="M9456132 26017595c79157,983 156283,2408 231935,1172 174302,-2849 157633,-145692 243447,-427368 132403,-434632 213401,-505871 -207701,-474702l-267681 900898z"/>
   <path class="fil2" d="M20472251 24701974c332363,0 334078,42340 421695,-265133 166270,-583514 267089,-619449 -176444,-592378 -36629,131432 -247545,782805 -245251,857511z"/>
   <path class="fil2" d="M23847237 24701974c347619,0 329967,39251 420119,-254593 29012,-94577 154253,-477664 144494,-551904 -33085,-50258 -49602,-51569 -119945,-52893 -245490,-4665 -185536,-31522 -257292,202078 -33148,107930 -187729,612590 -187376,657312z"/>
   <path class="fil2" d="M9847780 24682418c402467,16392 349448,-14941 422969,-257064 183821,-605365 239702,-606209 -175184,-580891l-247785 837955z"/>
   <path class="fil2" d="M8223161 24100077l-8095 -8561 -560428 1396719 335452 819c29946,-228531 79662,-468170 119026,-695491 22872,-132075 120689,-594622 114045,-693486z"/>
   <polygon class="fil2" points="13517668,24075301 13510494,24069980 12944267,25485335 13274448,25488979 "/>
  </g>
  <path class="fil3" d="M8215066 24091516l8095 8561c1626,-2320 4526,-8208 5005,-6884 505,1387 3632,-5712 4224,-7931 5851,-22015 3619,-9192 5195,-33199l-15673 -1664 -6846 41117z"/>
  <path class="fil4" d="M13510494 24069980l7174 5321c21977,-26264 21725,-10415 3972,-41671l-11146 36350z"/>
  <polygon class="fil5" points="24556484,25038914 24558665,25016042 24524319,25021288 "/>
  <path class="fil6" d="M8221912 24050399l15673 1664c23931,-37296 2206,-12785 -3467,-21573 -7452,5573 -7238,12180 -12206,19909z"/>
  <path class="fil7" d="M24864890 7257442c862984,-239816 849203,-1060952 84604,-1485270l-2446638 -1473593c-444025,-290225 -918121,-697521 -1579821,-689868 -431959,134194 -587562,460404 -955141,974343l-869717 1095184c-174730,279546 -894076,84478 -1669872,146739 -687446,55327 -529410,306629 -849316,725689l-3706365 16908c427949,1230248 364856,1666720 -17084,2889339l3774754 -1197c453683,1125823 516158,610408 2000116,725184 450141,34901 584737,328240 787522,609185l964294 1173522c838044,971745 1076372,193542 2944577,-775871 532752,-276444 520270,-385988 838549,-539195 2182778,-1050399 1156222,-1959051 512136,-1879100 -440923,54848 -2706388,1644920 -3456209,1926180l-967396 -1165779c-454995,-579114 -661915,-601961 -662810,-1517661 -403,-369861 -49892,-614834 125317,-863375l1481764 -1834036c324710,54204 592101,270480 864699,442007 622563,391700 2227627,1472270 2802025,1500665l12 0z"/>
  <ellipse class="fil8" cx="9281496" cy="8005922" rx="2773452" ry="2773454"/>
  <ellipse class="fil9" cx="9281496" cy="8005922" rx="1666353" ry="1666354"/>
  <path class="fil9" d="M7213249 11212600l4577481 7878781 5143885 -20930 -4896290 -8259738c-1251682,1585684 -3375590,1578712 -4825076,401874l0 13z"/>
  <path class="fil10" d="M8548249 19053619l11755450 0c241304,-13 436990,195673 436990,436976l-13 2511283c13,241303 -195673,436989 -436977,436989l-11755450 0c-241304,0 -436990,-195686 -436990,-437002l0 -2511257c0,-241316 195686,-437002 436990,-437002z"/>
 </g>
</svg>
