<?xml version="1.0" encoding="UTF-8"?>
<!DOCTYPE svg PUBLIC "-//W3C//DTD SVG 1.1//EN" "http://www.w3.org/Graphics/SVG/1.1/DTD/svg11.dtd">
<!-- Creator: CorelDRAW X7 -->
<svg xmlns="http://www.w3.org/2000/svg" xml:space="preserve" width="300px" height="50px" version="1.1" style="shape-rendering:geometricPrecision; text-rendering:geometricPrecision; image-rendering:optimizeQuality; fill-rule:evenodd; clip-rule:evenodd"
viewBox="0 0 349411 48820"
 xmlns:xlink="http://www.w3.org/1999/xlink">
 <defs>
  <style type="text/css">
   <![CDATA[
    .fil0 {fill:#fff;fill-rule:nonzero}
   ]]>
  </style>
 </defs>
 <g id="Layer_x0020_1">
  <metadata id="CorelCorpID_0Corel-Layer"/>
  <path class="fil0" d="M2809 24975c254,1113 857,2088 1813,2914 963,820 2007,1236 3132,1236 1689,0 3025,-807 4007,-2422 839,-1386 1255,-2970 1255,-4772 0,-2038 -460,-3727 -1386,-5076 -1062,-1565 -2572,-2348 -4510,-2348 -1541,0 -2727,621 -3548,1858l-2422 -1659c1478,-2075 3454,-3113 5914,-3113 2734,0 4915,1050 6555,3150 1515,1920 2274,4281 2274,7083 0,2659 -709,4964 -2131,6914 -1566,2175 -3629,3262 -6188,3262 -1784,0 -3417,-646 -4896,-1932 -1479,-1286 -2373,-2814 -2678,-4585l2809 -510zm22968 11339c-1858,0 -3286,-715 -4293,-2150 -876,-1261 -1311,-2858 -1311,-4784l0 -17675 2926 0 0 17675c0,2666 901,4002 2697,4002 304,0 602,-81 888,-255l1534 2497c-745,460 -1553,690 -2441,690zm20129 -945c-1267,628 -2429,945 -3498,945 -2149,0 -3995,-1243 -5547,-3734 -1119,-1808 -1970,-4026 -2554,-6660l-2528 0 0 -2840 2621 0c2789,0 4641,-130 5554,-397 1988,-572 2982,-1895 2982,-3970 0,-1224 -453,-2249 -1366,-3075 -907,-827 -1982,-1237 -3219,-1237 -1981,0 -3758,472 -5336,1417l-1435 -2454c1820,-1230 4075,-1839 6771,-1839 2137,0 3902,646 5294,1944 1447,1336 2168,3057 2168,5170 0,2429 -832,4293 -2491,5591 -1522,1174 -3523,1764 -6008,1764 25,1299 584,2858 1690,4679 1205,2000 2392,3000 3566,3000 826,0 1497,-229 2007,-689l1329 2385zm31120 945c-2168,0 -3734,-932 -4691,-2802 -621,-1193 -932,-2566 -932,-4132l0 -2752c-994,696 -2031,1037 -3113,1037 -1043,0 -2050,-298 -3019,-906 -404,1453 -1193,2683 -2385,3678 -1224,1031 -2579,1547 -4058,1547 -2199,0 -3994,-1013 -5386,-3045 -1242,-1808 -1857,-3858 -1857,-6150 0,-2815 639,-5194 1925,-7133 1411,-2125 3436,-3441 6083,-3951l453 2876c-1820,206 -3237,1156 -4255,2858 -877,1467 -1312,3187 -1312,5151 0,1590 342,3000 1038,4243 833,1479 1988,2218 3455,2218 1348,0 2354,-689 3025,-2075 522,-1069 783,-2355 783,-3858l0 -4734 2870 0 0 4423c0,522 317,982 951,1386 559,347 1112,528 1652,528 2100,0 3150,-1150 3150,-3442l0 -9574 2933 0 0 17675c0,2666 888,4002 2678,4002 322,0 627,-88 907,-274l1528 2516c-752,460 -1560,690 -2423,690zm-5623 -24280c-1156,-2162 -2647,-3933 -4479,-5318 -2051,-1528 -4207,-2293 -6462,-2293l-4057 0 0 -2857 4057 0c2926,0 5722,1068 8394,3206 2448,1975 4274,4398 5473,7262l-2926 0zm46248 13103c0,-944 -597,-1777 -1783,-2492 -1106,-670 -2299,-999 -3585,-999 -1721,0 -3262,397 -4622,1198 1832,1690 2746,3387 2746,5095 0,1578 -504,2945 -1510,4094 -1044,1193 -2349,1789 -3914,1789 -1466,0 -2721,-633 -3765,-1894 -988,-1200 -1478,-2548 -1478,-4039 0,-2019 1292,-3939 3876,-5771l-2547 -3660c-410,1019 -1081,1858 -2013,2510 -926,659 -1932,982 -3007,982 -1435,0 -2684,-559 -3740,-1690 -1062,-1131 -1597,-2410 -1597,-3840 0,-1459 528,-2764 1584,-3932 1057,-1162 2306,-1746 3753,-1746 1708,0 3622,1292 5728,3877 1460,2013 2914,4026 4374,6039 1926,-1050 3976,-1578 6150,-1578 1722,0 3337,534 4840,1615 1690,1217 2529,2696 2529,4442l-2019 0zm-18893 -8536c0,-764 -261,-1454 -789,-2063 -529,-615 -1168,-919 -1920,-919 -733,0 -1323,279 -1777,844 -453,566 -683,1218 -683,1957 0,678 242,1286 720,1821 479,534 1056,801 1740,801 690,0 1317,-236 1870,-714 559,-472 839,-1050 839,-1727zm8971 11524c0,-1323 -746,-2677 -2237,-4063 -2037,1081 -3056,2355 -3056,3827 0,752 230,1429 689,2038 510,640 1131,963 1858,963 752,0 1398,-273 1938,-820 541,-547 808,-1193 808,-1945zm18259 528c454,0 870,-74 1268,-223 391,-143 733,-354 1019,-628 285,-273 509,-596 671,-981 167,-379 248,-802 248,-1261 0,-976 -248,-1771 -745,-2399 -498,-621 -1261,-1056 -2293,-1298 -863,-205 -1733,-373 -2616,-504 -875,-124 -1745,-298 -2590,-515 -597,-162 -1112,-385 -1560,-677 -441,-292 -807,-634 -1099,-1038 -292,-398 -510,-845 -646,-1335 -137,-491 -212,-1007 -212,-1541 0,-789 137,-1466 404,-2044 267,-578 696,-1050 1280,-1423 590,-367 1361,-640 2311,-814 957,-180 2119,-267 3486,-267l2553 0 0 2783 -4262 0c-1963,0 -2951,590 -2951,1765 0,559 255,1025 764,1385 509,367 1286,677 2318,932 410,106 832,205 1273,286 435,87 888,180 1361,286 472,99 969,217 1478,354 510,130 1050,304 1616,509 546,193 1012,473 1404,827 385,360 708,776 956,1248 249,473 429,1000 547,1572 112,578 168,1181 168,1814 0,883 -162,1702 -497,2448 -336,746 -789,1392 -1354,1926 -572,541 -1243,963 -2013,1268 -771,304 -1591,453 -2467,453 -2292,0 -3976,-895 -5044,-2690l2478 -1529c628,870 1547,1311 2746,1311zm-5349 -4678c-752,398 -1360,833 -1832,1311 -467,472 -827,951 -1088,1435 -261,485 -441,963 -528,1435 -93,479 -137,914 -137,1311 0,802 143,1535 435,2206 292,665 690,1267 1193,1801 503,535 1087,1007 1758,1417 665,416 1373,770 2125,1056 758,292 1522,528 2305,702 783,174 1547,304 2286,373l-422 2932c-311,-37 -733,-99 -1261,-192 -529,-93 -1119,-224 -1765,-391 -652,-168 -1336,-386 -2056,-647 -727,-261 -1441,-584 -2150,-975 -708,-385 -1385,-839 -2031,-1361 -640,-522 -1212,-1130 -1703,-1820 -491,-696 -882,-1479 -1174,-2348 -292,-876 -435,-1852 -435,-2933 0,-801 100,-1572 292,-2317 193,-752 491,-1454 901,-2113 404,-664 919,-1273 1547,-1832 621,-560 1373,-1044 2249,-1454l1491 2404zm-3169 18725c2125,2125 4213,3188 6263,3188 944,0 1783,-211 2510,-634 888,-503 1329,-1187 1329,-2057 0,-546 -192,-1006 -571,-1366 -385,-367 -851,-547 -1398,-547 -689,0 -1124,261 -1304,783l-2678 -1019c776,-1783 2118,-2678 4019,-2678 1460,0 2628,491 3517,1473 845,962 1273,2174 1273,3640 0,1641 -708,2970 -2131,3989 -1273,901 -2764,1348 -4479,1348 -2864,0 -5660,-1367 -8387,-4094l2037 -2026zm21950 -28119c-311,0 -577,131 -795,398l-2367 -1652c845,-1082 1944,-1622 3292,-1622 2125,0 3523,919 4207,2746 385,1056 584,2876 584,5461l0 6281 9517 0 0 2951 -9176 0c0,932 -323,1740 -975,2429 -646,684 -1435,1026 -2373,1026 -932,0 -1746,-336 -2429,-1007 -684,-677 -1032,-1479 -1032,-2411 0,-925 348,-1720 1032,-2398 683,-671 1484,-1006 2392,-1006l0 -8773c0,-1615 -622,-2423 -1877,-2423zm35494 21733c-1845,0 -3268,-715 -4274,-2150 -889,-1261 -1330,-2858 -1330,-4784l0 -4225c-1286,703 -2740,1057 -4355,1057 -2193,0 -3989,-609 -5387,-1820 -484,409 -1230,708 -2237,894 25,1404 479,3063 1367,4964 1032,2212 2144,3318 3349,3318 603,0 1286,-242 2038,-715l1199 2622c-1348,559 -2423,839 -3237,839 -2274,0 -4113,-1386 -5535,-4150 -1187,-2510 -1865,-4722 -2020,-6623l-2659 0 0 -2734 2460 0c1467,0 2734,-292 3803,-876 1360,-739 2038,-1839 2038,-3311 0,-1175 -330,-2125 -982,-2858 -690,-739 -1622,-1106 -2784,-1106 -938,0 -1851,230 -2752,690l-1453 -2492c1273,-764 2646,-1149 4113,-1149 1932,0 3541,671 4833,2013 1292,1342 1938,2976 1938,4902 0,1335 -441,2603 -1329,3808 839,578 1957,870 3367,870 1056,0 1969,-186 2746,-565 988,-485 1479,-1199 1479,-2144l0 -8884 2926 0 0 17675c0,2666 901,4002 2696,4002 330,0 628,-81 889,-255l1534 2497c-752,460 -1565,690 -2441,690zm-5604 -24280c-1156,-2162 -2647,-3933 -4479,-5318 -2051,-1528 -4207,-2293 -6462,-2293l-4057 0 0 -2857 4057 0c2926,0 5722,1068 8393,3206 2448,1975 4275,4398 5474,7262l-2926 0zm45900 24280c-2169,0 -3734,-932 -4691,-2802 -621,-1193 -932,-2566 -932,-4132l0 -2752c-994,696 -2031,1037 -3113,1037 -1043,0 -2050,-298 -3019,-906 -404,1453 -1193,2683 -2386,3678 -1223,1031 -2578,1547 -4057,1547 -2199,0 -3994,-1013 -5386,-3045 -1242,-1808 -1857,-3858 -1857,-6150 0,-2815 639,-5194 1925,-7133 1410,-2125 3436,-3441 6083,-3951l453 2876c-1820,206 -3237,1156 -4256,2858 -876,1467 -1311,3187 -1311,5151 0,1590 342,3000 1038,4243 833,1479 1988,2218 3454,2218 1349,0 2355,-689 3026,-2075 522,-1069 783,-2355 783,-3858l0 -4734 2870 0 0 4423c0,522 317,982 951,1386 559,347 1112,528 1652,528 2100,0 3150,-1150 3150,-3442l0 -9574 2933 0 0 17675c0,2666 888,4002 2677,4002 323,0 628,-88 907,-274l1529 2516c-752,460 -1560,690 -2423,690zm-5642 -24609c0,-3361 317,-5890 944,-7592 1020,-2740 2902,-4113 5642,-4113 2851,0 4833,1336 5939,4007 740,1771 1106,4330 1106,7679l0 17601c0,2721 876,4076 2622,4076 329,0 640,-87 932,-274l1510 2498c-765,485 -1578,727 -2442,727 -1820,0 -3237,-721 -4256,-2169 -901,-1286 -1348,-2876 -1348,-4765l0 -17694c0,-2740 -124,-4597 -367,-5566 -559,-2200 -1789,-3299 -3696,-3299 -1771,0 -2895,1137 -3386,3404 -193,889 -286,2715 -286,5480l-2914 0zm54623 24609c-1858,0 -3287,-715 -4293,-2150 -876,-1249 -1311,-2845 -1311,-4784l0 -1857c-2274,2280 -4964,3423 -8083,3423 -2379,0 -4386,-845 -6014,-2522 -1634,-1684 -2448,-3710 -2448,-6089 0,-2354 802,-4367 2411,-6045 1603,-1671 3578,-2510 5921,-2510 2416,0 4404,919 5970,2765l-2292 1858c-883,-1138 -2113,-1709 -3678,-1709 -1566,0 -2877,547 -3939,1646 -1063,1100 -1591,2429 -1591,3995 0,1783 572,3193 1727,4225 1106,981 2560,1472 4368,1472 1969,0 3690,-534 5169,-1603 1652,-1174 2479,-2708 2479,-4603l0 -10121 2926 0 0 17675c0,2666 895,4002 2678,4002 304,0 609,-81 907,-255l1528 2497c-752,460 -1559,690 -2435,690zm-5642 -24609c0,-3361 317,-5890 945,-7592 1019,-2740 2901,-4113 5641,-4113 2852,0 4834,1336 5940,4007 739,1771 1105,4330 1105,7679l0 17601c0,2721 876,4076 2622,4076 329,0 640,-87 932,-274l1510 2498c-764,485 -1578,727 -2442,727 -1820,0 -3237,-721 -4256,-2169 -900,-1286 -1348,-2876 -1348,-4765l0 -17694c0,-2740 -124,-4597 -366,-5566 -560,-2200 -1790,-3299 -3697,-3299 -1770,0 -2895,1137 -3386,3404 -193,889 -285,2715 -285,5480l-2915 0zm57773 17601c0,2734 864,4094 2603,4094 230,0 553,-99 963,-311l1491 2516c-727,473 -1547,709 -2454,709 -2211,0 -3777,-988 -4697,-2970 -596,-1274 -894,-2858 -894,-4765 0,-243 12,-615 37,-1112 -715,546 -1615,820 -2690,820 -1193,0 -2243,-466 -3150,-1404 -547,1528 -1485,2802 -2802,3808 -1361,1032 -2833,1547 -4424,1547 -2031,0 -3820,-758 -5380,-2274 -1559,-1522 -2342,-3293 -2342,-5318l-3001 0 0 -2895 2765 0c1168,0 2199,-267 3094,-801 1156,-690 1733,-1672 1733,-2945 0,-938 -373,-1740 -1112,-2405 -739,-665 -1584,-1000 -2528,-1000 -926,0 -1709,286 -2349,858l-1982 -2169c1299,-1068 2759,-1603 4386,-1603 1696,0 3206,634 4523,1895 1317,1262 1970,2734 1970,4424 0,1354 -429,2615 -1299,3765 -870,1155 -1957,1932 -3268,2329 0,1411 441,2616 1330,3622 907,1044 2063,1566 3460,1566 1659,0 2908,-621 3747,-1876 727,-1056 1093,-2454 1093,-4200l0 -6082 2914 0 0 4262c0,2547 870,3820 2622,3820 1112,0 1876,-422 2292,-1254 268,-560 398,-1417 398,-2566l0 -9866c0,-2187 -1665,-4013 -5002,-5480 -2733,-1199 -5380,-1802 -7939,-1802l-2057 0 0 -2857 2057 0c3535,0 6902,814 10102,2441 3858,1976 5790,4542 5790,7698l0 17781zm12481 -12302c0,-1615 -621,-2423 -1876,-2423 -323,0 -590,131 -801,398l-2361 -1652c833,-1082 1932,-1622 3293,-1622 1602,0 2814,497 3640,1491 765,926 1143,2193 1143,3808l0 7189 9525 0 0 -12488 2926 0 0 17675c0,2666 901,4002 2696,4002 329,0 628,-81 889,-255l1534 2497c-752,460 -1565,690 -2441,690 -1870,0 -3299,-715 -4294,-2150 -875,-1236 -1310,-2833 -1310,-4784l0 -2242 -9176 0c0,938 -336,1745 -1007,2435 -677,683 -1473,1025 -2398,1025 -920,0 -1721,-342 -2392,-1019 -671,-677 -1013,-1479 -1013,-2404 0,-920 342,-1721 1019,-2392 683,-671 1485,-1013 2404,-1013l0 -6766zm-96968 19310l0 -3728 3727 0 0 3728 -3727 0zm48981 0l0 -3728 3728 0 0 3728 -3728 0z"/>
 </g>
</svg>
