<?xml version="1.0" encoding="iso-8859-1"?>
<!-- Generator: Adobe Illustrator 19.0.0, SVG Export Plug-In . SVG Version: 6.00 Build 0)  -->
<svg version="1.1" id="Layer_1" xmlns="http://www.w3.org/2000/svg" xmlns:xlink="http://www.w3.org/1999/xlink" x="0px" y="0px"
	 viewBox="-658 448.751 286.9 348.963" enable-background="new -658 448.751 286.9 348.963" xml:space="preserve">
<g id="Layer_x0020_1">
	<g id="_495801324128">
		<g>
			<g>
				<path fill="#F8F3F0" d="M-599.4,581.8l0.2,4.4c0.9-0.3,0.5-0.1,1.3-0.7c0.5-0.3,0.6-0.4,1.2-0.9c0.1-0.9-0.6,0,0.4-0.9
					c0.6-0.5,0.4-0.3,1.3-0.4c-0.4-0.7-0.1-0.8-1.9-1.5c-0.8-0.3-1.4-0.4-2.3-0.7C-599.5,581.6-599.8,580.3-599.4,581.8z"/>
				<path fill="#F8F3F0" d="M-603.3,582.6l2.3-0.6c-0.1,0-0.1-0.2-0.2-0.2l-0.7-0.6c-0.8-0.4-0.5-0.2-1.4-0.3
					c-0.8,0.4-0.2,0-0.8,0.3l-0.4,0.2c-0.6,0.4-0.1,0-0.5,0.5L-603.3,582.6z"/>
				<path fill="#F8F3F0" d="M-603.9,583.5c0.6,0.8-0.3,0.8,0.7,0.3c0.6-0.3,0.3-0.3,0.1-0.7l-0.5-0.3
					C-604.4,583.2-603.8,582.5-603.9,583.5z"/>
			</g>
			<g>
				<path fill="#A28D85" d="M-583.7,633.1c1-0.6,0.3-0.1,1-0.9l19.6-25.8c1-1.5,2.2-2.9,3.2-4.5c0.6-0.8,1.1-1.5,1.7-2.3
					c0.7-0.9,0.9-1.6,1.5-2.2c-0.3,0.5-1.3,0.9-1.9,1.5l-11.5,12.2C-571.7,613-583,631.7-583.7,633.1z"/>
				<path fill="#A28D85" d="M-580.9,655.5l-0.7-3.3l-3.1-6.5c-2.2-4.1-3.6-5-6-8.3l-4.1-5.3c-0.5-0.8-1.6-1.8-1.9-2.4
					c1.1,2.6,2.5,4.1,3.9,6.7C-591.4,638.9-581.1,656.4-580.9,655.5z"/>
				<path fill="#A28D85" d="M-607.6,562.3c-1.7,1.4-2.4,1.6-3.7,3.4l-5.1,5.5c-0.6,0.7-0.9,1.3-1.5,1.9c-1.8,1.6-1.2,1.3-2.4,2.7
					l-1,1.2c1.7-0.8,3.2-2.9,4.8-4.2l5.8-4.8c0.5-0.5,0.5-0.5,1.1-0.9l6.4-5.8c1.3-0.9,0.9-1,1.9-1.9c0.4-0.4,0.7-0.5,1.1-0.9l1-1.1
					c-1.6,0.5-3.3,1.6-4.5,2.3L-607.6,562.3z"/>
				<path fill="#A28D85" d="M-609.8,595.2c1.1,0.1,2.7,1.9,6.8,3.4c2,0.7,5.6,2.3,7.6,2.6c-1.6-1.2-11-5.3-12-6.2l-4-1.7
					C-610.6,594.6-610.4,593.6-609.8,595.2z"/>
			</g>
			<g>
				<path fill="#856F67" d="M-626,505.7c-0.1-0.1-0.1-0.2-0.2-0.2l-0.5-0.5c-0.3-0.2-0.6-0.4-0.9-0.5c-0.6-0.3-1.3-0.8-1.8-1
					c-3.6-2.1-7.2-4-10.3-6.5l-10.8-8.6c-0.7-0.6-0.7-0.8-1.6-1.2l9,13.1c2.1,3.1,2.4,2.3,7.7,3.5
					C-632.9,504.4-628.5,505.5-626,505.7z"/>
				<path fill="#856F67" d="M-627.8,482.8c-0.7-2-3.5-6.5-4.8-9.3c-0.6-1.3-0.4-0.7-2.2-2.1l-11.8-9.4c-0.6-0.6-1-0.8-1.6-1.3
					c-0.9-0.7-0.6-0.8-1.7-1.2c0,4.8,0.9,3.2,2.8,5.5c2.2,2.6,2.7,2,4.4,4.2c0.9,1.1,2.1,1.6,3.1,2.7c1.4,1.4,0,0.5,2.7,2.7
					c2.3,1.8,1.6,1.7,2.9,2.8c1.2,1,1.9,1.4,3,2.7C-630.3,481-628.8,482.2-627.8,482.8z"/>
				<path fill="#856F67" d="M-616.1,459.2c5.5,3.7,9,3,15.9,3c6,0,12,0.3,18,0.2L-616.1,459.2z"/>
			</g>
			<g>
				<path fill="#99867E" d="M-494.8,580.7c0.6-0.6,0.9-1,1.6-1.6c0.9-0.9,0.9-1.3,1.6-2c0.2,0.3,0.2,0.1,0.2,0.7c0,0.3,0,0.7-0.1,1
					c-0.1,0.7-0.3,1.7-0.2,2.3c0.1,1.3,1.1,2.2,1.5,3.4c1.6-0.6,2.7-1.8,4.1-2.4c0.6-3.1,2-3,0.8-6.3c-1.1-3.3,0.6-8.7,0.3-10.8
					c-0.2-1.4,0.2-0.1-0.7-1.2c-0.4-0.5-0.5-0.7-0.9-1.1c-0.5-0.6-0.4-0.4-0.9-1.1l-2.5-3l-12,10.5l4.2,8.5
					c-1.5,1.2-3.7,1.9-5.3,3.2l1.8,3C-499.1,582.8-496.9,581.1-494.8,580.7z"/>
				<path fill="#99867E" d="M-613,581.6c1.4,0.3,2.4,3.1,2.3,4.5c-0.2,2.1-1,4.1-1.4,6l6,0.7l-0.9-1.5l1.2-0.9
					c-2.2,0.2-2.8-0.4-3.8-1.8l4.3-0.1c1.5-1.5,2.7-1.1,4-3.7c0,0-3.8,4.1-5.9-0.3c-0.8-1.1-0.4-1.8-0.6-3.4
					c-0.9-1.1-1.9-1.2-3.5-1.5C-611.8,581.3-612.1,580.2-613,581.6z"/>
				<path fill="#99867E" d="M-608.3,578c2.1-0.5,12,0.5,14,1.4l1.4-0.4c-0.8-2.5-2.7-1.7-4.7-3.2c0-1.2,0.8-3.3,1.2-4.5
					c-1.9,0.4-5,2-6.5,2.8C-604.2,574.9-607.5,576.7-608.3,578z"/>
			</g>
			<g>
				<path fill="#594943" d="M-466.1,580.3c1.2,0.1,4.7,4.1,6.4,5.5c2.8,2.3,2.1,2.2,3.2,3.1c1.2,1,2.1,1.8,3.5,2.9
					c-0.1-3.4,1.6-11.2,2.3-15c0.7-4.3,2-10.5,2.2-14.6c1.5,1.5,0-0.4,1,1.4c0.2,0.3,0.4,0.7,0.6,1.1c0.5,0.9,0.7,1.5,1.3,2.4
					l2.7,4.6l1.9-17.8l-0.4,1.1c-0.7-1.7-4-9.3-5-10.5l-16.9,9.2l1.5,3.1c0.8,1.6,1.1,1.5,0.5,3.3c-1,3.3-6.1,19-6.1,20.2H-466.1z"
					/>
				<path fill="#594943" d="M-540.6,581.5l1,1.1c0.5,0.5,0.6,0.7,1,1c1.7-4.2,3.3-8.5,4.9-12.7c1.9-4.9,3.6-3.5,9.6-8.4l-28.5,12.8
					c-0.9,0.6-0.9,0.8-1.7,1.4l-1.7,1.4c-0.9,0.7-0.8,0.6-1.7,1.5c3.4-0.9,13.7-5,15.6-5.3L-540.6,581.5z"/>
			</g>
			<g>
				<path fill="#D2BAAF" d="M-596.4,571.3c-0.4,1.2-1.2,3.3-1.2,4.5c2,1.4,3.9,0.7,4.7,3.2l-1.4,0.4c0.2,0.3,0.5,0.7,0.5,1.1
					c0.1,0.5,0.1,0.3,0,0.7c-0.1,0.7,0,0.3-0.3,0.6c0.1,0.1,0.4,0.6,0.4,0.7c-0.9,0.3-0.3,0.1-0.9,0.4l-0.5,0.4
					c-0.9,0-0.7-0.1-1.3,0.4c-1.1,0.9-0.3,0-0.4,0.9c-0.1,1-0.6,1.5-1.8,2.3c-2,1.4-5.1,2.7-7.4,3.6l-1.2,0.9l0.9,1.5l-6-0.7
					c0.5-1.9,1.3-3.9,1.4-6c0.1-1.4-0.9-4.2-2.3-4.5c-1.4,1.1-3,2.2-4.4,3.3c-1-0.4-1.9-1.3-2.8-2c-1.1-0.9-1.8-1.5-2.7-2.2l0.5-0.5
					l-3.9-1.6c0.5,1.3,0.9,1.6,1.7,2.8c2.7,4.5,4.4,5,3.3,8.5c0.5,1.6,1.2,0.1,0.3,2.8c-0.4,1.2-0.8,2.3-1.1,3.5
					c-1.8,6.1-5.2,14.8-6.3,20.6l-2,8.2c1.3,0.3,3.4,1.5,4.7,2.1c3,1.3,2.3,0.8,5.5,0.1c3.7-0.7,7.4-1.7,11.1-2.5
					c-1.2-0.9-4-1.5-5.7-1.9c0.2-0.8,1-2,1.5-2.7c0.5-0.6,0.7-0.6,1-1c0.2-0.3,0.2-0.2,0.3-0.5c0.3-0.6-0.1,0.3,0.2-0.6
					c-0.6-0.8,0.4-2,1-3.5c0.5-1.2,1-2.7,1.7-3.7c1.6,0.5,5.5,1.3,6.3,2.5c0.6,1,2.1,5.8,1.7,6.6c0.7,0.7,0.6,0.4,0.8,1.8l0.3,1.9
					c3.2-3-1.6-11.4-3.3-14.7c-2.2-4.5-4.6-9.2-7-13.2c0.5-0.5-0.6,0,0.4-0.4c-0.6-1.6-0.8-0.6-1.6-1.9l4,1.7
					c0.4-0.6,2.5-0.7,3.5-0.8c0.3-2.8,0.6-2.6,2.5-4c0.6-0.4,0.5-0.3,1-0.7c0.5-0.5,0.2-0.3,0.9-0.8l5.1-4.6c0.7-0.7,0.9-1,1.9-1.6
					c0.1-0.1,1.1-0.6,1.1-0.6c0.8-0.3,0-1,0.8,0.1l0.7-2.3l-1-0.8c-1.7-1.8-2.8-2.5-0.3-4.1c2.4-1.5,1.3-1.7,2-0.7
					c0.5-0.9,0.8-2.7,0.8-4C-590.6,569.6-594.5,570.2-596.4,571.3z"/>
				<path fill="#D2BAAF" d="M-486.2,554c0.9,0.4,3.5,1.7,4,2.1c0.5,0.4,1.6,2.7,1.9,3.8c1,3.1,1.6,6.4,2,9.6
					c0.6,2.7-0.6,4.8-2.2,8.1c-2.1,4.2-4.1,5-4.7,6.3c-0.8,1.3-1.7,2.4-2.6,3.6c0.1,0,0.2,0,0.2,0.1c0.2,0.5,2.6-1.3,3.4-1.7
					c1.8-1,2-0.6,3.1-2.7c0.7-1.3,3.3-6.5,4.1-7.4c-0.3,2.6-3.1,12.5-4.3,14.6c-2.3,4-4.3,8.3-6.6,12.3c-1.9,3.3-0.8,3.6-4.8,4.7
					c-2.8,0.8-3.9,1.3-6.4-0.2c-1.2-0.7-4.3-8.1-5.8-9.4c-0.8-0.7-2.3-1.2-3.2-1.7l0.7-0.2c4.5-0.6,9.4,2.1,13.9-1.9l1.1-6
					c-0.9-0.7-1.5-1.1-2.4-1.6l-5.2,4.1c-3.1,2.3-1.4,1.7-6.1,0c-0.2-2.2-0.7-6.9,0-8.7c0-0.1-0.1-0.2-0.1-0.2l-0.2-0.8
					c-0.5-3.9,0.9-2.2-1.8-4.5c-0.8-0.7-4-3.4-4.8-3.7c-0.7,1.1-0.4,9.4-0.4,11.7c0,6.4,0.9,6.8,1.4,11.2c2-0.1,0.3-0.1,1,0.4
					c0.8,0.8,1.7,1.2,2.7,1.7c2.5,1.5,3.3,4.1,5.6,7.5c2.3,3.4,2.1,4.6,4,4.7c2.7,0.2,6.1,0.5,8.7,0.4c1.2-4.9,19.2-27.1,17.5-47.6
					c-0.3-3.5-1-5.7-2.4-8.4c-1.2-2.3,1-4.8,2.9-7.1l-15,6.2C-486.6,553.7-487.2,553.4-486.2,554z"/>
				<path fill="#D2BAAF" d="M-526.8,576.8c0.6-0.3,1.3-1.9,1.6-2.6c0.9-1.7,1.5-1.2,3.4-1.4c2.2-0.2,6.9-1.1,8.9-0.9l2-0.4l6.5,6.5
					l3.7-1.1c-4-9.1-5.1-5.9-2.6-11c2.8-5.7,3.4-6.7,8.4-8.8l4.3-1.7l0.3-2.9c-3.4,1-7.7,3-11.1,4.4c-3.6,1.4-7.2,2.9-10.8,4.3
					c-1.9,0.8-11.4,4-12.2,5.2l-3.7,9.3L-526.8,576.8z"/>
			</g>
			<g>
				<path fill="#1D1D1C" d="M-573.6,758.9c0.3,0.8-0.5,0.6,0.9,0.2l32.8-20.2l-0.3-16.8c1.5,0.3,24.2,4.2,25.2,3.5
					c-0.4-1.4-1.4-2.5-2.6-3.5c-0.6-0.5-1.1-0.8-1.6-1.2l-11.8-9.2c-4.3-3.2-2.7-2.6-7.9-4c-0.7-0.2-1.5-0.5-2.2-0.7
					c-2.6-0.7-1.8-0.1-2.1-1.2c-1.3,1.1-5.2-1.3-7-1.2c-0.7,0-3.1,2-4,2.7l-10.3,8c-0.7,0.5-0.7,0.3-1.4,1c0.3,0.7,4.3,5.1,5,5.7
					c1,0.7,0.8,0.4,1.6,1.3l3.8,4.2c1.9,2.1,2.2,1.9,5.4,5.5c0.8,1,1.7,2,2.6,2.9c1.1,1,1.9,0.9,2.6,2.8l-25.1,17.9
					C-571.4,757.4-572.5,757.9-573.6,758.9z"/>
				<path fill="#1D1D1C" d="M-532.6,691.8c-0.7-0.2,0-0.1-1-0.5l-0.5,7.3c-2.5,0-8.8-0.9-10.5-0.3l7.9,3.4c4.7,1.9,9.9,4.2,14.7,6.3
					c1.2,0.5,2.4,0.9,3.6,1.5c1.7,0.9,4.6,7,6.5,9c0.5-0.9,1.1-2.4,1.6-3.3c1.3-3,2.4-2-2.7-8.6c-0.8-1-3.5-4.5-3.3-5.4l9-18.4
					c1.3-2.5,4.9-10.8,6-12.3c-0.9,0.8-1.9,2.5-2.7,3.6l-17.3,25.2l-12.2-0.5c0-1.1,0.1-3.3,0.2-4.2
					C-533.2,691.2-532.1,692.1-532.6,691.8z"/>
			</g>
			<g>
				<path fill="#E3CCC1" d="M-603.2,561.3l-6.4,5.8c-0.6,0.4-0.6,0.4-1.1,0.9l-5.8,4.8c-1.6,1.3-3.1,3.4-4.8,4.2l1-1.2
					c1.3-1.4,0.7-1.1,2.4-2.7c0.7-0.6,1-1.2,1.5-1.9l5.1-5.5c1.3-1.8,2.1-2,3.7-3.4c-3.5,0.3-4.8,1.8-6.9,3.9l-6.3,8
					c-4.3-2.5-6-4.4-10.2-4.7l1.7-32.2c0.2-2.8,2.7-6.1,4.6-9.1c0.9-1.4,1.7-3,2.7-4.2l33.3-2.9c0.8,2,1.5,9.1,1.9,11.7
					c0.4,2.7,0.1,2.5-0.9,4.9l-5.9,14.2c-0.1,0.9,2.7,9.1,3.1,10.7c-4.3-0.9-11.8-1-11.9-1.1C-603.6,561.4-602.6,561.8-603.2,561.3z
					 M-617.8,519.3c-1.4,0.2-2.7,0.9-4.1,1.3c-2.6,0.8-2.9,2-5.1,5.7c-0.8,1.3-1.6,2.1-2.1,3.6c-1.4,1.8-1.4,1.2-1.7,4.2l-3.7,38.3
					l8,10.7c2.4,3.3,3.3,3.8,2.9,6.3c-2.2,12-6.4,25.4-8.7,37.3c1.1,0.4,0.4,0.2,1.2,0.8c0.4,0.3,0.5,0.2,0.9,0.6
					c5.8,1.4,2.8,2.6,11.2,0.6c3.5-0.9,8.2-2.1,11.6-2.6c0.5,1.6,1.8,2.9,2.5,4.4c-1.1,1-5.1,2.7-6.8,3.8l-1.1,0.8v3.4
					c0,1.4-0.2,2.7-0.3,4c-0.1,1.7-0.2,1.6,0.8,2.8c3.5,0,18.6,3.1,21.2,4.6c2.4,0.1,1.2,0.1,2.6,1.8c0.7,0.8,1.6,1.9,1.9,2.7
					l-4.2-1.3c-0.2,0.9,0.1,0.3-0.5,1c-0.9,2.7-3.8,5.1-3.5,8.3c1.7-1,1.3-1.2,2.1-2l1-0.8l-1.1,2.6c0.8-0.1,5.7-5.3,6.5-6.2
					c1.1,0.4,2.4,1.5,3.3,2.3c0.7,0.6,2.2,2,3,2.2c-0.1-0.8-0.3-1.5-0.5-2.3l-0.7-2.6c-0.2,0.9-10.5-16.6-11.9-19.1
					c-1.4-2.6-2.8-4.1-3.9-6.7c0.3,0.6,1.4,1.6,1.9,2.4l4.1,5.3c2.3,3.3,3.8,4.2,6,8.3l3.1,6.5c-0.7-4.6-2-9.4-2.9-14.1
					c-0.7-3.7-4.1-5.5-7.4-9.4c-0.7-0.8-1.2-1.4-1.8-2.2c-0.7-0.8-1.9-1.3-2.3-2c-0.5-1.2,3.9-19.9,4.3-20.7l37.8-13
					c1.1,1.7,5.1,12.1,6.2,14.9c0.8,1.8,1,1.6,2.8,2.3c1.3,0.5,2.6,1,3.9,1.5c2.4,0.9,5.6,1.8,7.5,3.2c-3.3,7-7.1,14.1-10.6,21
					l-14.4,29c-0.9,1.3-11.3,5.9-13,6.7c-3.4,1.7-7,3.8-10.4,5.3c-2.3,1-9-2.6-11.9-3.1c0.1-2.8,0.9-6,0.9-8.4
					c-0.8,0.8-1.5,2.5-1.8,3.8c-0.1,0.9-0.2,1.7-0.3,2.5c-0.1,1-0.5,1.5-0.7,2.1l0.4,3c0.8,0.8,1.4,0.7,3,1.3
					c1.1,0.4,2.2,0.8,3.4,1.2c4.2,1.4,4.5,2.3,6.7,1.2l25.1-10.9c0.8-0.5,2.7-4.5,3.3-5.5l29.1-52.3c-0.9-0.3-15.6-7.5-16.4-8.1
					c-0.4-0.3-0.2-0.1-0.6-0.8l-7.8-15.6c-3.9,1.1-36,10.5-36.8,10.3c-1.2,0.2-6.1,3.2-7.4,4c0.6-3.4,3.5-15.3,3.3-17.6
					c-0.8-1-0.1-0.4-0.8-0.1c0,0-1,0.6-1.1,0.6c-1,0.6-1.2,0.8-1.9,1.6l-5.1,4.6c-0.7,0.5-0.4,0.3-0.9,0.8c-0.4,0.4-0.4,0.3-1,0.7
					c-1.9,1.4-2.2,1.2-2.5,4c-1,0.2-3.1,0.2-3.5,0.8c1,0.9,10.4,5,12,6.2c-2-0.4-5.6-1.9-7.6-2.6c-4.1-1.4-5.7-3.3-6.8-3.4
					c-1,0.3,0-0.1-0.4,0.4c2.4,4,4.8,8.8,7,13.2c1.7,3.3,6.5,11.7,3.3,14.7l-0.3-1.9c-0.2-1.3-0.1-1-0.8-1.8
					c-3.5-5.7-3.4-6.4-8.3-6.7c-0.6,0.8-2.4,3.9-2.5,4.8c-0.3,0.9,0.1,0-0.2,0.6c-0.2,0.4-0.1,0.3-0.3,0.5c-0.3,0.4-0.5,0.4-1,1
					c-0.5,0.7-1.3,1.9-1.5,2.7c1.7,0.4,4.5,1,5.7,1.9c-3.7,0.8-7.4,1.7-11.1,2.5c-3.1,0.6-2.5,1.2-5.5-0.1c-1.4-0.6-3.5-1.7-4.7-2.1
					l2-8.2c-0.8,0.9-0.4,0.6-0.7,1.7l-0.8,1.6c0-1.5,7.2-30.2,7.8-30.8l0.9,0.5c1.1-3.5-0.6-4-3.3-8.5c-0.7-1.2-1.2-1.5-1.7-2.8
					l3.9,1.6c1.5-0.5,5.2-2.9,6.3-3.7c0.4-0.5,0-0.2,0.7-0.7c0.2-0.2,0.4-0.3,0.7-0.4c3.9-2.6,5.8-4,10.8-5.3
					c1.4-0.1,5.8-2.2,7.7-2.8c4.6-1.4,5.3-0.2,8.2,1.3c0.2-3,0.7-5.6,0.7-8.8c0-3.2-0.2-6.1-0.5-9.2l0.7-0.4c0.2-1.4,2.4-3.7,3.3-5
					l5.6-7.6c-1.7-2.8-3.3-6.6-4.8-9.6c-2.3-4.7-1.3-7.3-2.5-11.7L-617.8,519.3z"/>
				<path fill="#E3CCC1" d="M-487.7,611.9l-3.4,4.9c-1.1,1.6-2,3-3.1,4.6l-31.3,46.7c-1.2,1.7-2.1,3.1-3.2,4.8
					c-1.8,2.7-5.1,14.6-6.8,16.5c0.5,1,0.1,0.3,0.9,1c0.7,0.6,0.4,0.1,1,0.9c1,0.3,0.2,0.2,1,0.5c1.4-2.9,12-16.8,14.9-21.1
					l31.9-43.5c0.7-0.9,1.4-2,2.1-3l10.6-14.5c0.5-1.2,2.9-14.9,3-16.8c-0.8,0.5-3.7,4.4-4.3,4.9l-9,9.6
					C-484.8,608.8-487.7,611.1-487.7,611.9z"/>
			</g>
			<g>
				<path fill="#EFDCD3" d="M-583.7,633.1c0.7-1.4,12-20.1,13.6-22l11.5-12.2c0.6-0.5,1.6-1,1.9-1.5c-0.5,0.6-0.8,1.2-1.5,2.2
					c-0.6,0.8-1.1,1.5-1.7,2.3c-1.1,1.6-2.2,3-3.2,4.5l-19.6,25.8C-583.4,633.1-582.8,632.6-583.7,633.1z M-581.6,652.2l0.7,3.3
					l0.7,2.6c0.1,0.7,0.4,1.5,0.5,2.3c-0.8-0.2-2.3-1.7-3-2.2c-0.9-0.7-2.2-1.8-3.3-2.3c-0.8,0.9-5.7,6.1-6.5,6.2l-0.4,1.2
					c0,2.4-0.8,5.6-0.9,8.4c3,0.5,9.7,4.1,11.9,3.1c3.4-1.5,7-3.6,10.4-5.3c1.7-0.9,12.1-5.5,13-6.7l14.4-29c3.5-6.9,7.3-14,10.6-21
					c-1.9-1.4-5.2-2.3-7.5-3.2c-1.3-0.5-2.6-1-3.9-1.5c-1.8-0.7-2-0.5-2.8-2.3c-1.1-2.7-5.2-13.2-6.2-14.9l-37.8,13
					c-0.4,0.8-4.8,19.5-4.3,20.7c0.3,0.7,1.6,1.3,2.3,2c0.7,0.8,1.2,1.4,1.8,2.2c3.4,3.9,6.8,5.7,7.4,9.4
					C-583.6,642.8-582.3,647.6-581.6,652.2z"/>
				<path fill="#EFDCD3" d="M-607.6,562.3l3.8-2.5c1.2-0.7,3-1.8,4.5-2.3l-1,1.1c-0.4,0.3-0.7,0.5-1.1,0.9c-1,0.9-0.6,1-1.9,1.9
					c0.6,0.5-0.4,0.1,0.7,0.3c0.1,0,7.6,0.2,11.9,1.1c-0.5-1.6-3.2-9.8-3.1-10.7l5.9-14.2c1-2.4,1.4-2.2,0.9-4.9
					c-0.4-2.6-1.1-9.7-1.9-11.7l-33.3,2.9c-0.9,1.2-1.8,2.8-2.7,4.2c-1.9,3-4.4,6.3-4.6,9.1l-1.7,32.2c4.2,0.3,5.9,2.2,10.2,4.7
					l6.3-8C-612.3,564-611,562.6-607.6,562.3z"/>
			</g>
			<g>
				<path fill="#3D322D" d="M-579.3,450.9c1.2,0.7,49.7,4.4,60.4,7.5c4.7,1.3,5.6,2.6,8.6,4.9c1.5,1.1,4.9,5.6,5.9,7.6
					c2.7,5.4,4.1,10.5,1.7,16.4c-0.8,2.1-1.6,2.7-2.8,4.1l-2.6,2.6c-3.3,3.2-18.7,12.2-21.6,13.8c-5.7,3.1-11.7,6.2-17.8,9.3
					c-3,1.5-6,3-9,4.4c-2.6,1.3-6.4,3.2-9.2,4.1l-0.4-17.8c-1.9,5-3.8,11.4-5.6,16.8c-1.6,4.8-0.9,3.9,0.1,8.8
					c0.5,2.1,1.4,7.4,2.2,9.1c9.6-4,18.7-8.2,28.9-12.4c15-6.2,21.4-6.6,37-14.7c2.1-1.1,4.8-2.6,6.5-3.8c2.1-1.4,4.1-2.8,6.2-4.1
					c1-0.7,1.9-1.4,3-2.2l10.9-9.9c2.3-2.9,3.9-7,4.7-10.8c0.4-2.3,0.3-8.4,0.5-9.3c-0.8-3.6-0.7-3.1-5.7-6.5
					c-0.8-0.6-1.7-1.1-2.4-1.6l-4.8-3.5c-0.9-0.6-1.5-1.1-2.3-1.7c-6.8-5.3-10.7-6.5-18.1-10.4c-1.4-0.8-3.8-2.2-5.1-2.7
					c-2.5-0.5-13.9,0.4-17.3,0.6c-5.6,0.4-11.3,0.6-16.9,0.8C-555.7,450.6-567.9,451.1-579.3,450.9z"/>
				<path fill="#3D322D" d="M-629.5,523.5c2.4-4.4,2.6-4.4,5.3-5.5c7.6-3.1,15.8-5.7,23.7-8.5c5.3-1.9,10.6-3.8,15.9-5.6l13.8-4.8
					c0.9-0.3,1.4-0.4,2.1-1c-4.2,0.5-9.1,1.9-13.4,2.8c-4.3,0.8-8.7,1.8-12.9,2.7c-8.7,1.9-17.4,3.7-26.2,5.6
					c-2.6,0.6-15.3-4.2-20.1-5.7c-2-0.6-2-1.5-4.6-5.1l-3.4-4.6c-0.6-0.8-0.9-1.3-1.6-2.1l-3.4-4.6c-0.3-0.4-2.6-4.2-3-4
					c0,1.5,5.1,24.5,5.9,28.6c0.3,1.5,0.4,2.5,1.3,3.3l13.2,8.2c1.6,0.9,4,2.7,5.4,3.2L-629.5,523.5z"/>
				<path fill="#3D322D" d="M-439.1,531.8l-18.3,9c-13.7,6.6-7.3,3.5-14.9,12.2c0.3,1.3,4,7.3,5,8.8c1,1.6-0.1,3.3-0.7,5.2
					c-0.5,1.7-1,3.3-1.5,5c-1.1,3.4-2.1,7.1-3.3,10.4c-0.6,1.8-3,8.8-3.1,10.2c0.8-0.8,0.6-0.6,1.3-1.4l1.3-1.6
					c0.5-0.7,0.2-0.2,0.7-0.8l1.6-2.1c0.8-1.1,4.6-5.2,4.9-6.3l-1.3-0.1c0-1.1,5-16.9,6.1-20.2c0.6-1.8,0.2-1.7-0.5-3.3l-1.5-3.1
					l16.9-9.1c1,1.2,4.3,8.8,5,10.5l0.4-1.1l2.5-22.2L-439.1,531.8z"/>
				<path fill="#3D322D" d="M-653.9,461.7c-0.2,4.9-0.5,2.3,1.2,4.7l7,8.1c0.7,0.9,0.8,0.7,1.4,1.4c0.6,0.6,0.7,1.1,1.4,1.8
					c0.9,0.8,0.7,0.5,1.4,1.5c0.7,1.1,1.8,2.2,3.1,2.8c1.6,0.9,6.7,3.7,8.1,3.9c1.1,0.3,0.2,0.1,0.6-0.3c-2.4-2.3-3.4-3.8-4.5-4.9
					l-14.1-14.5c-1.9-1.9-4.4-3.6-5.2-7.5L-653.9,461.7z"/>
				<path fill="#3D322D" d="M-598.9,464.9l1.9-0.2c-1.2,0.3-13-2-15.5-2.4c-3.5-0.6-3.8-0.9-6.7-2.5c-1.6-0.8-5.2-2.2-5.8-3.4h-4
					c0.9,0.9,1.7,1.2,2.7,2c1.6,1.2,7.2,5.6,8.7,5.7L-598.9,464.9z"/>
			</g>
			<g>
				<path fill="#BFA79D" d="M-519.8,609.6c-1.6-1.4-2.6-3.4-3.9-4.3c-0.9-0.7-3.8-2.1-4.9-2.8c1.9,0.4,15.5,4.4,16.2,5.1
					c-0.5,1-2.3,3.4-3.1,4.5c-5.5,7.8-9.8,15.6-14.9,23.4c-1.8,2.8-3.9,6.7-6,9.2L-519.8,609.6z M-526.8,576.8
					c-0.5,1.6-11,20-11.5,20.4c-1.2-2.3-8.3-18-8.5-19.5c-7,2.1-14.9,4.2-21.7,7.2c-5.1,2.2-5.4,2.9-9.2,5c-1.3,0.7-8.2,4.8-8.7,5.6
					c0.9,0.2,32.9-9.2,36.8-10.3l7.8,15.6c0.4,0.7,0.2,0.5,0.6,0.8c0.7,0.6,15.4,7.8,16.4,8.1l-29.1,52.3c-0.6,1-2.5,5-3.3,5.5
					l-25.1,10.9c-2.2,1-2.5,0.2-6.7-1.2c-1.1-0.4-2.2-0.8-3.4-1.2c-1.6-0.6-2.3-0.5-3-1.3c0.2,1.1,0,0.7,0.6,1.4l8.8,7
					c1.1,0.5,1.4,0.1,2.7-0.2l21.9-5.8c4.9-1.3,2.5-1.5,4.5-2.4c0.5-0.7,0.3-0.2,0.8-0.8l19.8-17.3c1-1,1-0.8,1.9-1.6l13.8-12.1
					c0.6-0.6,1.1-0.8,1.7-1.4c0.9-1,0.8-0.7,1.7-1.4c3.8-2.9,8.6-15.6,10.7-18.1c-0.5,2.3-5,16.5-6.3,17.7l-35.7,35.4
					c-0.7,0.9-0.8,0.6-1.5,2c1,0.5,6.2,5.1,7.2,6.2l7.1,6.1c1.6-1.9,5-13.8,6.8-16.5c1.1-1.7,2.1-3.1,3.2-4.8l31.3-46.7
					c1.1-1.6,2.1-3.1,3.1-4.6l3.4-4.9c-3.1,1.7-6.9,7.2-12.2,2.2l-1.6-1.6c-1-0.9-5.2-7.3-6-8.8l-3.3-5.9c0-0.1-0.6-0.9-0.6-0.9
					c-0.5-1.6-0.4-0.4,0.2-0.9c-0.7-0.4,1-0.5-1-0.4c-0.6-4.4-1.4-4.8-1.4-11.2c0-2.2-0.3-10.5,0.4-11.7c0-0.9-0.4-0.4,0.3-0.9
					c-1.9-0.2-6.7,0.6-8.9,0.9c-1.9,0.2-2.5-0.2-3.4,1.4C-525.5,574.9-526.2,576.6-526.8,576.8z"/>
				<path fill="#BFA79D" d="M-617.8,519.3l32.3-3c1.2,4.5,0.2,7,2.5,11.7c1.5,3,3.1,6.8,4.8,9.6l-5.6,7.6c-0.9,1.2-3.1,3.6-3.3,5
					l12.5-6.4c1.1-0.6,1-0.5,1.3-1c1-1.9,0.4-3.6-0.3-5.4l-4-10.3c-0.7-1.9-0.5-1.9,0.2-3.8l7.2-21L-617.8,519.3z"/>
				<path fill="#BFA79D" d="M-605.7,656.7c3.2,0,5.8,0.9,8.8,1.5c1.8,0.4,1.9-0.8,2.9-1.9c0.5-0.5,2.4-2.2,3-2.5
					c0.6-0.7,0.2-0.1,0.5-1c-2.5-1.6-12-1.6-15.2-1.4V656.7z"/>
				<path fill="#BFA79D" d="M-606.4,649.4l15.5,0.4c-2.6-1.5-17.7-4.7-21.2-4.6c1.1,0.6,1.9,1.4,2.9,2.3c0.5,0.4,0.9,0.7,1.5,1.1
					C-607,649.2-607.5,649.1-606.4,649.4z"/>
			</g>
			<g>
				<path fill="#2F302F" d="M-460.6,632.9l40.6,3.1c-0.6,1-6.3,5.4-7.7,6.5l-25,20.4c-0.8,0.7-0.8,0.6-1.4,1.1l-26.6,21.7
					c-0.7,0.6-1.8,1.4-2.7,2.1l-7.9,6.3l-21.2,3.1c0.4-1.4,35.6-50.3,40.3-57.6c0.6-0.9,1.1-1.5,1.7-2.3c2.1-3,10.8-15.7,12-16.9
					L-460.6,632.9z M-501.4,670.4c-1.1,1.5-4.6,9.9-6,12.3l-9,18.4c-0.2,1,2.6,4.4,3.3,5.4c5.1,6.6,4,5.6,2.7,8.6
					c-0.4,1-1,2.4-1.6,3.3c0.5,1.2,1.5,2.4,2.2,3.5c0.7,1.1,1.5,2.4,2.2,3.4l106.6-40.6l0.4,1.8l-0.2-1.7c0.7-0.6,3.1-1.4,4.1-1.8
					c1.5-0.6,2.9-1.2,4.4-1.6c-0.6-2.4-3.3-8.2-4.4-10.9c-2-4.9-13.2-31.7-13.3-32.9c-1.2-1.2-2.1-5.6-3.1-6.9
					c-0.6-0.7-0.7-0.6-1.8-0.7c-6.8-1-14.6-3.1-22.4-4.3l-1.7-0.3h-0.4c-1.6-0.7-9.9-2.1-12.5-2.5c0.8-4.6,5.7-22.9,5.7-24.3
					c0.1-2.1-2.2-4.8-2-8.2c-0.1,0.5-0.1,1.6-0.3,2.2L-468,621c-0.7,1-0.9,1.5-1.7,2.6c-0.6,0.8-1.1,1.5-1.7,2.3l-5.1,7.4
					c-4.3,6-9.2,13.7-13.6,19.8l-10.2,14.7C-500.7,669-500.8,669.3-501.4,670.4z"/>
				<path fill="#2F302F" d="M-573.6,758.9c-3,1.8-6,4.4-9,6.4l-5,3.7c0-0.1-0.1,0.1-0.2,0.3l4.5,1.9c0.1-0.2-0.1-0.7,1.8-0.3
					c0.6,0.1,1,0.3,1.7,0.5c1.2,0.2,2.4,0.4,3.6,0.7c2.4,0.5,4.8,0.9,7.2,1.3c4.8,0.8,9.7,1.7,14.5,2.6c9.6,1.8,19.4,3.2,28.9,5.3
					c-0.3-0.8-0.3-0.6-0.6-1.3l-5.4-6.5c-0.8-1.1-0.8-0.6-1.7-2.1l-9.3-11.1c-2.1-2.5-5-5.6-6.8-8.3l12.5-8.6
					c1.2-0.8,2.2-1.5,3.2-2.2c1.8-1.2,7.7-5.9,9.6-6.2c-0.4-0.4,0.2-0.6-0.5-0.3c0.9-0.1,10.5-6.7,11-7.6l-1.2-1.3
					c-1,0.7-23.8-3.3-25.2-3.5l0.3,16.8l-32.8,20.2C-574.2,759.6-573.3,759.7-573.6,758.9z"/>
				<path fill="#2F302F" d="M-400.1,691.8c-0.6,0.5-91,31.3-91.5,31.3c2.4-0.1,27-5.1,31.6-6l23.9-4.6c2.3-0.4,6.3-1.8,8.3-1.5
					c5.3-1.5,27.2-5.5,34.3-6.9c3-0.6,8.8-1,10.2-2.6l10.1-13c0.7-1,1.9-2.2,2.1-3c-0.5-0.6-1.1-1.2-1.7-1.9l-16.9-21.6
					c-0.4-0.5-0.6-0.7-0.9-1.1l-5.2-6.6c0.8,2.2,2.4,5.5,3.5,7.7c1.2,2.3,2.5,5.4,3.6,7.9l7.1,15.7
					C-382.3,686.1-399,691.8-400.1,691.8z"/>
			</g>
			<g>
				<path fill="#211D31" d="M-540.6,581.5l-1.4-7.1c-1.9,0.3-12.2,4.3-15.6,5.3c0.9-0.9,0.7-0.7,1.7-1.5l1.7-1.4
					c0.8-0.6,0.8-0.8,1.7-1.4l28.5-12.8l7.5-3.4c-1.3,1.1-3.1,2.3-4.6,3.3l-4.9,3.3c-1.9,1.2-1.8,2.1-3,5.2
					c-0.7,1.7-1.9,4.3-2.3,6.1l1.2,1.1c0.4,0.4,0.1,0,0.5,0.5c-1,2.4-2.2,6.1-3.4,8.2l-4,4.8c-0.6,0.8-0.7,1.1-1.2,1.6L-540.6,581.5
					z M-470,476.4l6.9,7.2c1.3,1.9,2.3,1.7,2.1,5c-0.1,2.6-0.7,4.1-1.1,6.4c1,0.7,3.9,6.1,4.6,7.5c1.4-1,2-4.7,2.9-6.2
					c1,0.9,4,6.4,4.9,8.2c1.5,2.8,0.1,3.7-1.6,5.9c-0.6,0.8-0.5,1.2-1.6,1.7l3.1,10.1c1.3-0.6,2.4-1.9,3.4-2.9s2-1.8,3.1-3
					c0.8,1.7,3,9.5,3.1,11.3c-1.9,2-9.6,6.2-13.2,7.6c-0.8-3.1-1.1-7.5-1.8-11c-2.3-10.4-5.9-18.6-11-27.6c1.6,7.3,3.2,7,4.6,19.4
					c0.6,5.1,0,4.9,1.1,10.8c0.5,2.7,1.3,8.2,1.3,10.9l-6,2.2c-0.3-3.5-0.6-6.5-1-9.8c-0.5-4.3-0.8-4.6-2.5-7.9
					c-1.3-2.5-2.6-4.4-4-6.6c-0.6-1-1.4-2.1-2.1-3.1c-0.7-1-1.4-2.3-2.3-3.1l0.8,2.3c-1.7,1-6.1,4.2-8,4.7l1.4,6.1
					c2.5-0.7,5-2.9,7.2-3.6l1.7,7.3c-0.9,1.1-6.1,2.6-7.7,3.7l0.8,7c2.1,0,7.8-3.2,9.6-3.2l0.6,7.9l-22.3,7c-0.3-1.5-6-11-7-12
					c-0.8,0.9-2.2,5.1-2.2,6.5c0.1,2.7,0.4,5.5,0.5,8.3c-1.2,0.9-4.9,1.9-6.5,2.5c-0.4-2.4-0.7-11.2-1.2-15
					c-0.2-1.6-1.2-12.9-2.4-14.4c-0.2,4.3,0.1,28.9-1.3,31.2c-0.5,0.8-7.5,3.4-8.3,3.6c-1.7-3.3-3-17.6-4.9-20.3
					c-0.3,3.9-0.3,8-0.7,12c-0.2,1.9-0.2,3.7-0.4,5.7l-0.4,4.2c-0.3,2.4-0.6,1.4-7.7,4.8c-1.7,0.8-6.3,3.2-7.6,3.5l-1.6-7.5
					c-1.1,0.3-3.2,1.5-4.3,2l-2.9,1.4c-1.9,1-1.3,2.3-2.7,7.9c-0.8,3.4-1.5,3.1-4.4,4.5c-4,1.9-7.7,4.4-11.7,6.3
					c1.1-5.5,1.5-11.2,2.1-16.9c-2.4,0.9-6.3,3.1-8.7,4.4c-1.7,1-1.3,2.4-1.6,4.6c-0.3,1.9-0.6,3.8-0.9,5.7
					c-0.3,1.8-0.6,3.5-1.1,5.2c-1.1,4.5-0.6,3.2-6.3,6.5c-1.5,0.9-2.7,1.7-4.2,2.5c0.3-2.4,2-7,2.7-9.8c1.7-6.9,3-14.1,3.5-21.2
					c0.3-3.8,0.2-8.6,0.6-12.1c1.3-0.7,6.1-3.1,7.2-3.2c0.2,4.8,0,8.9,0,13.6l9.3-4.4c0.1-4.5-0.7-8.9-0.7-13
					c0.7-0.7,5.6-2.6,6.9-3.1c0.7,3.5,0.9,9.2,1.1,13c0.2,4.9-0.4,9.7-0.2,14.4c0.1-0.1,0.1-0.3,0.2-0.2l1.1-3.4
					c1.8-6.1,3.1-12.5,4-18.8c0.4-2.3,0.7-6.1,1.3-8.1l8.3-3.5c0.4,1.9,3,6.9,3.9,9.1c0.7,1.6,1.2,3.1,1.9,4.7
					c0.6,1.5,0.9,3.6,2,4.8c-0.7-6.2-3.5-13.6-5-19.6l6.8-2.8c1.9,5.6,3.1,11.4,4,17.2c0.3,1.9,0.4,4.5,0.9,6.1
					c0.9-2,1.6-22.2,1.7-26l5.4-2.1c3.2,4.4,5.6,19.9,7.1,22.3c0.8-8.2-0.5-17-0.3-25.1l12.5-5.1l2.1,11.4c0.9-1.1,3-8.6,3.5-10.6
					c0.7-2.7,0.1-3.5,2.5-4.6c1.7-0.8,3.1-1.7,4.9-2.4c-0.3,4.3-2,9.4-3.1,13.5c-1.4,5.1-1.1,2.3,4.2,10.4c0.8,1.2,1.4,2.3,2.2,3.5
					c0.5,0.8,0.7,1.1,1.1,1.8l0.8,1.3c0.3,0.4,0.2,0.3,0.5,0.6c-0.2-8.1-1.3-16.2-3-24.1c-0.5-2.3-1.5-5.3-1.8-7.5
					c1.4-1,3-1.7,4.4-2.6c2.7-1.7,9.9-6.8,11.6-9.3c2.4,2.6,8.7,13.7,9.7,14.4c-0.7-6.6-2.9-13.3-5.2-19.3c-0.6-1.5,0.5-2.5,1.1-4.1
					c0.6-1.5,1-3.1,1.3-4.7c0.3-2,0.3-3.9,0-5.9C-469.2,479.5-469.8,478-470,476.4z M-566.1,507.7l4-11.5l-6.6,1.9
					c-0.6,0.6-1.2,0.7-2.1,1l-13.8,4.8c-5.3,1.8-10.6,3.7-15.9,5.6c-7.9,2.8-16.2,5.5-23.7,8.5c-2.7,1.1-3,1.1-5.3,5.5
					c0,1.1,0,2.2,0,3.2c0,0.8-0.2,2.6,0.5,3.1c0.4-1.4,1.3-2.3,2.1-3.6c2.2-3.7,2.5-4.9,5.1-5.7c1.4-0.4,2.7-1.1,4.1-1.3l47.6-16.9
					l-7.2,21c-0.7,1.9-1,1.9-0.2,3.8l4,10.3c0.7,1.8,1.3,3.5,0.3,5.4c-0.3,0.5-0.1,0.4-1.3,1l-12.5,6.4l-0.7,0.4
					c0.3,3.1,0.5,6.1,0.5,9.2c-0.1,3.2-0.5,5.8-0.7,8.8c0.8,1.4,0.6,0,0.9,1.5l-1.2-0.2c-0.1,1.3-0.3,3.1-0.8,4
					c0.3,1.6-0.6,3.9-0.7,5.6l-0.7,2.3c0.2,2.3-2.6,14.2-3.3,17.6c1.3-0.8,6.2-3.8,7.4-4c0.5-0.8,7.5-4.9,8.7-5.6
					c3.8-2.2,4.2-2.8,9.2-5c6.8-2.9,14.6-5.1,21.7-7.2c0.2,1.6,7.3,17.2,8.5,19.5c0.5-0.4,11-18.8,11.5-20.4l-1.4-1.2l3.7-9.3
					c0.8-1.2,10.3-4.4,12.2-5.2c3.6-1.4,7.2-2.9,10.8-4.3c3.4-1.3,7.7-3.4,11.1-4.4l-0.3,2.9l-4.3,1.7c0.8,0.3,3.1-0.7,4.4-1.3
					c1.2-0.5,3.7-0.9,4.3-1.7c-1-0.5-0.4-0.3-0.8-0.7l14.8-5.9c-1.9,2.3-4.1,4.7-2.9,7.1c1.4,2.7,2.1,4.9,2.4,8.4
					c1.7,20.4-16.3,42.7-17.5,47.6c-2.6,0.1-6-0.2-8.7-0.4c-1.9-0.1-1.7-1.3-4-4.7c-2.3-3.4-3.1-6-5.6-7.5c-0.9-0.6-1.9-0.9-2.7-1.7
					c-0.6,0.5-0.7-0.6-0.2,0.9c0,0,0.5,0.8,0.6,0.9l3.3,5.9c0.9,1.5,5.1,7.9,6,8.8l1.6,1.6c5.3,5.1,9.1-0.4,12.2-2.2
					c0.1-0.8,3-3.1,4.4-4.5l9-9.6c0.6-0.6,3.5-4.4,4.3-4.9c-0.1,1.9-2.5,15.5-3,16.8l-10.6,14.5c-0.7,1-1.5,2.1-2.1,3l-32,43.4
					c-2.9,4.2-13.5,18.1-14.9,21.1c0.6,0.3-0.6-0.5-0.8,2.7c-0.1,0.9-0.2,3.1-0.2,4.2l12.2,0.5l17.3-25.2c0.8-1.1,1.8-2.8,2.7-3.6
					c0.6-1.2,0.7-1.4,1.5-2.5l10.2-14.7c4.3-6.1,9.3-13.9,13.6-19.8l5.1-7.4c0.5-0.8,1.1-1.5,1.7-2.3c0.8-1.1,1.1-1.6,1.7-2.6
					l19.4-28.4c0.2-0.6,0.2-1.7,0.3-2.2l0.7-15.7c0.8,0.4,1.4,1.7,1.9,2.5c0.6,0.9,1.2,1.8,1.9,2.5l0.3-8l-2.7-4.6
					c-0.6-1-0.8-1.5-1.3-2.4c-0.2-0.4-0.4-0.7-0.6-1.1c-1-1.8,0.5,0.1-1-1.4c-0.2,4.1-1.5,10.3-2.2,14.6c-0.6,3.8-2.3,11.6-2.3,15
					c-1.4-1.1-2.3-1.9-3.5-2.9c-1.1-1-0.4-0.8-3.2-3.1c-1.7-1.4-5.2-5.4-6.4-5.5c-0.3,1.1-4.1,5.3-4.9,6.3l-1.8,2.2
					c-0.5,0.6-0.1,0.1-0.7,0.8l-1.3,1.6c-0.7,0.9-0.5,0.7-1.3,1.4c0.1-1.4,2.5-8.3,3.1-10.2c1.1-3.4,2.2-7,3.3-10.4
					c0.5-1.7,1-3.3,1.5-5c0.6-1.9,1.7-3.7,0.7-5.2s-4.7-7.5-5-8.8c7.6-8.6,1.2-5.5,14.9-12.2l18.3-9c-0.5-1.9-0.9-12.2-1.1-15.6
					c-0.1-1.4,0.1-1.3-0.7-2c-5.9-4.7-4.3-0.9-5-8.8c-0.1-1.4-2.3-3.7-3.2-4.9c-0.7-0.9-0.6-0.7-1.2-1.7c-0.5-0.1-2.1-2.3-2.5-2.9
					c-0.8-1.2-1.7-2.2-2.5-3.2c-3.1-3.8-1.6-2.6-2.1-6.5c-0.2-1.3-0.4-1.1-1.1-1.8l-5.3-6.2c-0.9-0.5-7.2-2.9-8.1-3.1
					c-0.3,0.8-0.1,7-0.5,9.3c-0.7,3.8-2.3,7.9-4.7,10.8l-10.5,9.9c-1,0.8-1.9,1.5-3,2.2c-2.1,1.4-4,2.7-6.2,4.1
					c-1.7,1.2-4.4,2.7-6.5,3.8c-15.6,8.1-21.9,8.5-37,14.7c-10.1,4.2-19.2,8.4-28.9,12.4c-0.8-1.7-1.7-7-2.2-9.1
					c-1.1-4.9-1.7-3.9-0.1-8.8C-569.9,519.1-568,512.8-566.1,507.7z"/>
				<path fill="#211D31" d="M-511.9,718.6c-1.9-2-4.8-8.1-6.5-9c-1.2-0.6-2.4-1-3.6-1.5c-4.8-2.1-10-4.4-14.7-6.3
					c-0.6,0.9-5.4,3.4-6.6,4c0.3,1.1-0.5,0.6,2.1,1.2c0.8,0.2,1.5,0.5,2.2,0.7c5.2,1.5,3.7,0.8,7.9,4l11.9,9.3
					c0.6,0.4,1.1,0.8,1.6,1.2c1.2,1,2.2,2.1,2.6,3.5l1.2,1.3c-0.5,0.9-10.1,7.5-11,7.6c0.7-0.3,0.1-0.1,0.5,0.3c0.4,0.8,4.1,3,4.3,3
					c2.3-1.1,7.9-4.7,10.1-5.1c4.2-0.7,8.5-1.3,12.8-2l38.5-6c6-0.9,7.1-0.6,11.7-3.1c2.5-1.4,18.1-9.7,19.1-10.6
					c-2-0.3-6,1-8.3,1.5L-460,717c-4.6,0.9-29.2,6-31.6,6c0.5,0,90.9-30.7,91.5-31.3l-0.4-5.1l-0.4-1.8l-106.6,40.6
					c-0.6-1.1-1.5-2.3-2.2-3.4C-510.4,721-511.4,719.8-511.9,718.6z"/>
				<path fill="#211D31" d="M-556.8,674.6l8.5,0.4l35.7-35.4c1.3-1.2,5.8-15.4,6.3-17.7c-2.2,2.5-6.9,15.2-10.7,18.1
					c-0.9,0.7-0.8,0.5-1.7,1.4c-0.6,0.6-1.1,0.8-1.7,1.4l-13.8,12.1c-0.9,0.8-0.9,0.5-1.9,1.6l-19.9,17.4
					C-556.5,674.4-556.3,673.9-556.8,674.6z"/>
				<path fill="#211D31" d="M-546.3,555.3c-0.1-1.3-3.1-11.1-3.7-11.9c-0.4,1.5-0.4,5.6-0.6,7.5c-0.2,2.2-0.6,4.6-0.9,6.9
					L-546.3,555.3z"/>
			</g>
			<path fill="#584842" d="M-626,505.7c-2.5-0.2-6.9-1.3-9.4-1.9c-5.3-1.2-5.6-0.4-7.7-3.5l-9-13.1c0.9,0.3,0.9,0.6,1.6,1.2
				l10.8,8.6c3.1,2.5,6.7,4.4,10.3,6.5c0.5,0.3,1.2,0.7,1.8,1c0.3,0.2,0.6,0.3,0.9,0.5l0.5,0.5C-626.2,505.5-626.1,505.6-626,505.7z
				 M-627.8,482.8c-1-0.6-2.4-1.8-3.2-2.7c-1.1-1.3-1.8-1.7-3-2.7c-1.3-1.1-0.6-1-2.9-2.8c-2.8-2.2-1.4-1.3-2.7-2.7
				c-1-1-2.2-1.6-3.1-2.7c-1.7-2.1-2.1-1.5-4.4-4.2c-1.9-2.3-2.8-0.7-2.8-5.5c1.1,0.4,0.9,0.5,1.7,1.2c0.6,0.5,0.9,0.7,1.6,1.3
				l11.8,9.4c1.8,1.4,1.6,0.8,2.2,2.1C-631.3,476.3-628.5,480.8-627.8,482.8z M-582.3,462.4c-5.9,0.1-12-0.2-18-0.2
				c-6.9,0-10.4,0.7-15.9-3L-582.3,462.4z M-625,456.4c0.7,1.2,4.3,2.6,5.8,3.4c2.9,1.6,3.2,1.9,6.7,2.5c2.5,0.4,14.3,2.7,15.5,2.4
				l-1.9,0.2l4,0.2c-0.1,0-0.2,0.1-0.3,0.1c-2.1,0.7-19.6,1.1-25.1,1.4c-3.8,0.3-4,0.3-7.4-0.9c-5-1.8-22.8-8.7-25.9-9.5l-0.3,5.5
				l0.5-3c0.9,3.9,3.3,5.6,5.2,7.5l14.1,14.5c1.1,1.1,2.1,2.6,4.5,4.9c-0.4,0.4,0.5,0.5-0.6,0.3l0.4,0.6c-3.6,0.2-11.5-1-15.5-1.4
				c-3.3-0.3-9.3-3.2-12.7-4.5l0.7,2.6c0.4-0.2,2.7,3.6,3,4l3.4,4.6c0.6,0.8,1,1.3,1.6,2.1l3.4,4.6c2.6,3.6,2.7,4.5,4.6,5.1
				c4.7,1.4,17.4,6.3,20.1,5.7c8.8-2,17.4-3.7,26.2-5.6c4.3-0.9,8.7-1.9,12.9-2.7c4.3-0.9,9.2-2.3,13.4-2.8l6.6-1.9l-4,11.5
				l0.4,17.8c2.8-0.9,6.6-2.9,9.2-4.1c3-1.4,6-3,9-4.4c6.2-3,12.1-6.1,17.8-9.3c2.9-1.6,18.3-10.6,21.6-13.8l2.6-2.6
				c1.1-1.4,1.9-2,2.8-4.1c2.4-5.9,1-11-1.7-16.4c-1-2-4.3-6.4-5.9-7.6c-3-2.2-3.9-3.5-8.6-4.9c-10.6-3-59.2-6.8-60.4-7.5l-18,0.3
				c2.6,1,9.1,2.1,12.2,2.8l10.8,2.4c0.6,0.2,0.1,0,0.7,0.2c0.5,0.2,0.4,0.2,0.7,0.5L-625,456.4z"/>
			<path fill="#896C63" d="M-551.5,557.9c0.2-2.4,0.7-4.7,0.9-6.9c0.2-1.9,0.3-6,0.6-7.5c0.6,0.8,3.5,10.6,3.7,11.9L-551.5,557.9z
				 M-470,476.4c0.2,1.6,0.8,3.1,1,5c0.2,2,0.2,3.9,0,5.9c-0.2,1.6-0.7,3.3-1.3,4.7c-0.7,1.6-1.7,2.6-1.1,4.1
				c2.3,6,4.5,12.7,5.2,19.3c-0.9-0.8-7.2-11.8-9.7-14.4c-1.7,2.5-8.9,7.6-11.6,9.3c-1.4,0.8-3,1.6-4.4,2.6c0.3,2.1,1.3,5.2,1.8,7.5
				c1.6,7.9,2.7,16,3,24.1c-0.2-0.3-0.2-0.2-0.5-0.6l-0.8-1.3c-0.4-0.6-0.6-1-1.1-1.8c-0.8-1.2-1.4-2.3-2.2-3.5
				c-5.3-8.1-5.6-5.3-4.2-10.4c1.1-4.1,2.9-9.2,3.1-13.5c-1.7,0.7-3.1,1.5-4.9,2.4c-2.4,1.1-1.8,1.9-2.5,4.6
				c-0.5,2-2.6,9.5-3.5,10.6l-2.1-11.4l-12.5,5.1c-0.2,8.1,1.1,16.8,0.3,25.1c-1.4-2.4-3.8-18-7.1-22.3l-5.4,2.1
				c-0.1,3.8-0.9,24-1.7,26c-0.5-1.7-0.6-4.3-0.9-6.1c-1-5.8-2.2-11.6-4-17.2l-6.8,2.8c1.5,6,4.3,13.4,5,19.6c-1-1.3-1.4-3.3-2-4.8
				c-0.6-1.6-1.2-3.1-1.9-4.7c-0.9-2.2-3.4-7.2-3.9-9.1l-8.3,3.5c-0.5,2-0.9,5.9-1.3,8.1c-1,6.3-2.2,12.7-4,18.8l-1.1,3.4
				c0,0-0.1,0.1-0.2,0.2c-0.1-4.7,0.4-9.5,0.2-14.4c-0.1-3.8-0.4-9.5-1.1-13c-1.3,0.4-6.2,2.3-6.9,3.1c0,4.1,0.8,8.5,0.7,13
				l-9.3,4.4c0-4.7,0.3-8.8,0-13.6c-1.1,0.1-5.9,2.5-7.2,3.2c-0.4,3.5-0.3,8.3-0.6,12.1c-0.5,7.1-1.8,14.3-3.5,21.2
				c-0.7,2.8-2.3,7.4-2.7,9.8c1.6-0.7,2.8-1.6,4.2-2.5c5.7-3.3,5.3-2,6.3-6.5c0.4-1.7,0.7-3.5,1.1-5.2c0.3-1.9,0.7-3.8,0.9-5.7
				c0.3-2.2,0-3.6,1.6-4.6c2.4-1.3,6.3-3.5,8.7-4.4c-0.6,5.7-1,11.4-2.1,16.9c3.9-1.8,7.7-4.4,11.7-6.3c2.9-1.3,3.6-1,4.4-4.5
				c1.4-5.6,0.8-6.9,2.7-7.9l2.9-1.4c1.1-0.5,3.2-1.7,4.3-2l1.6,7.5c1.2-0.3,5.9-2.7,7.6-3.5c7.1-3.4,7.4-2.4,7.7-4.8l0.4-4.2
				c0.2-2,0.3-3.8,0.4-5.7c0.3-4,0.3-8,0.7-12c1.9,2.7,3.2,17,4.9,20.3c0.7-0.3,7.8-2.8,8.3-3.6c1.4-2.3,1.1-26.9,1.3-31.2
				c1.2,1.5,2.2,12.9,2.4,14.4c0.5,3.9,0.8,12.6,1.2,15c1.6-0.5,5.3-1.5,6.5-2.5c-0.1-2.8-0.4-5.6-0.5-8.3c0-1.4,1.4-5.6,2.2-6.5
				c1,1,6.6,10.5,7,12l22.3-7l-0.6-7.9c-1.8,0-7.5,3.2-9.6,3.2l-0.8-7c1.6-1.1,6.8-2.6,7.7-3.7l-1.7-7.3c-2.3,0.7-4.8,2.8-7.2,3.6
				l-1.4-6.1c2-0.6,6.3-3.7,8-4.7l-0.8-2.3c0.8,0.8,1.5,2,2.3,3.1c0.7,1,1.4,2.1,2.1,3.1c1.4,2.2,2.7,4.1,4,6.6
				c1.7,3.3,2,3.7,2.5,7.9c0.4,3.3,0.7,6.3,1,9.8l6-2.2c0.1-2.7-0.8-8.2-1.3-10.9c-1.1-6-0.6-5.7-1.1-10.8
				c-1.4-12.4-2.9-12.1-4.6-19.4c5.1,9.1,8.7,17.3,11,27.6c0.8,3.5,1,8,1.8,11c3.6-1.4,11.3-5.5,13.2-7.6c-0.1-1.8-2.3-9.6-3.1-11.3
				c-1.1,1.1-2.1,1.9-3.1,3c-1,1-2.1,2.3-3.4,2.9l-3.1-10.1c1.1-0.5,1-0.9,1.6-1.7c1.7-2.2,3.1-3.1,1.6-5.9c-0.9-1.7-4-7.2-4.9-8.2
				c-0.9,1.5-1.5,5.1-2.9,6.2c-0.7-1.4-3.6-6.8-4.6-7.5c0.4-2.4,1-3.8,1.1-6.4c0.2-3.3-0.8-3.1-2.1-5L-470,476.4z"/>
			<path fill="#292145" d="M-523.1,770.3c0.3,0.8,0.9,1.5,1.6,2.1c4.6,3.7,1.3,3.9,6.9,4.4c4.5,0.3,9.3,0.6,13.8,0.9
				c18.4,0.9,36.7,2.7,55.4,3.7c4.7,0.3,9.3,0.8,14,1c4.3,0.2,9.5,0.4,13.7,0.9l-19.8-17.7c-0.6-0.5-0.4-0.6-0.9-1.1l-8.3-7.4
				c-0.5-0.3-0.8-0.5-1.2-0.9l-3.2-2.7c0-0.8,0.5,0-0.6-0.9l-7.3-6.5c-0.5-0.5-4.4-3.5-4.8-4.3c-10,2.4-22.1,3.4-32.7,5.4
				c-5.2,1-11,1.8-16.2,2.6c-4.8,0.7-11.3,1.5-16,2.6L-523.1,770.3z"/>
			<path fill="#434343" d="M-458.6,620.4c-1.2,1.1-9.9,13.8-12,16.9c-0.6,0.8-1.1,1.5-1.7,2.3c-4.7,7.3-39.9,56.3-40.3,57.6
				l21.2-3.1l7.9-6.3c0.9-0.8,2-1.5,2.7-2.1l26.5-21.7c0.7-0.5,0.7-0.5,1.4-1.1l25-20.4c1.4-1.1,7.1-5.5,7.7-6.5l-40.6-3.1
				L-458.6,620.4z"/>
			<path fill="#392E61" d="M-524.9,768.5l1.8,1.8l-5.7-17.8c4.8-1.1,11.3-1.9,16-2.6c5.3-0.8,11-1.6,16.2-2.6
				c10.6-2,22.7-3,32.7-5.4c-0.5-0.5-1-0.8-1.5-1.3c1.2-1,22.4-9.1,25.8-10.4c5.8-2.3,21.4-8.2,26-10.3c-1,0.1-2.5,0.6-3.8,0.8
				l-90.3,14.3c-2.8,0.4-4.6,1.9-6.9,3.1l-25.1,13.5c-0.1,0-0.1,0.1-0.2,0.1l-0.5,0.4c0.6,0.7,1.3,1.6,1.9,2.2
				c3.1,2.7,1.2,1.2,3.8,4.1c0.8,0.9,1.3,0.9,2.1,1.9c3.4,4.1,1.9,2.1,3.9,4.1l2.7,3.3C-525.5,768.1-525.4,768.1-524.9,768.5z"/>
			<path fill="#212121" d="M-526.2,780c0.3,0.7,0.3,0.5,0.6,1.3c-9.5-2-19.3-3.4-28.9-5.3c-4.8-0.9-9.6-1.8-14.5-2.6
				c-2.4-0.4-4.8-0.9-7.2-1.3c-1.2-0.2-2.4-0.4-3.6-0.7c-0.7-0.1-1.1-0.3-1.7-0.5c-1.9-0.5-1.6,0.1-1.8,0.3
				c2.1,0.5,49.6,19.8,55.1,21.9c5.1,2,7.7,1.8,13.1,2.3c4.2,0.4,25.8,2.5,28.2,2.3c-0.4-1.3-7.7-13.5-7.7-13.5
				c-0.2-0.7-25.6-1.9-29.1-2.4C-525.7,781.7-525,781.1-526.2,780z"/>
			<path fill="#615651" d="M-494.9,557c-5,2.1-5.6,3.1-8.4,8.8c-2.5,5.1-1.4,2,2.6,11l-3.7,1.1l-6.5-6.5l-2,0.4
				c-0.7,0.5-0.4-0.1-0.3,0.9c0.8,0.3,4,3,4.8,3.7c2.8,2.3,1.3,0.6,1.8,4.5l0.2,0.8c0,0.1,0,0.2,0.1,0.2c0.3-1,0.5-3.2,0-4
				c0.1,4.1,0.3,7.6,0.1,11.8l4.8-1.9c0.1,0,0.4-0.2,0.4-0.2l0.3-0.2l0.1-0.1l0.4-0.4l5.5-6.3c-2.2,0.4-4.3,2.1-6.5,3.1l-1.8-3
				c1.6-1.3,3.7-2,5.3-3.2l-4.2-8.5l12-10.5l2.8,3.1c0.5,0.7,0.4,0.4,0.9,1.1c0.4,0.5,0.5,0.6,0.9,1.1c0.9,1,0.5-0.2,0.7,1.2
				c0.3,2.1-1.5,7.5-0.3,10.8c1.1,3.3-0.2,3.2-0.8,6.3c1.1-0.9,2.9-4.6,3.9-6.3c0.6-1,3.1-5.9,3.7-6.3c-0.4-3.2-0.9-6.5-2-9.6
				c-0.4-1.1-1.5-3.3-1.9-3.8c-0.5-0.4-3.1-1.8-4-2.1c-0.6,0.8-3.1,1.2-4.3,1.7C-491.8,556.3-494.1,557.3-494.9,557z"/>
			<path fill="#B39C93" d="M-487.9,587.6c-0.4,0.7-1,1.4-1.5,2.1s-0.9,1.3-1.4,2c-0.7,1-2.1,3.2-2.9,3.9l0.1-1.4
				c-4.5,4-9.4,1.3-13.9,1.9l-0.7,0.2c0.9,0.4,2.4,1,3.2,1.7c1.5,1.2,4.6,8.6,5.8,9.4c2.4,1.5,3.5,0.9,6.4,0.2
				c4-1.1,2.8-1.4,4.8-4.7c2.3-3.9,4.2-8.3,6.6-12.3c1.2-2.1,4-12,4.3-14.6c-0.8,0.8-3.4,6-4.1,7.4c-1,2-1.3,1.7-3.1,2.7
				c-0.7,0.4-3.2,2.2-3.4,1.7C-487.7,587.6-487.8,587.6-487.9,587.6z"/>
			<path fill="#3C312C" d="M-604,570.1c-1.2,1.2-4.3,2.3-6,3.2c-1.9,1-4.3,2.5-6.1,3.2c-1.1,0.8-4.9,3.2-6.3,3.7l-0.5,0.5
				c0.9,0.7,1.7,1.4,2.7,2.2c0.9,0.7,1.8,1.6,2.8,2c1.4-1.2,3-2.3,4.4-3.3c0.8-1.4,1.2-0.4,1.7-2l-1.2-0.6l4.2-1.1
				c0.7-1.3,4.1-3.1,5.4-3.9c1.5-0.9,4.6-2.4,6.5-2.8c1.9-1.1,5.8-1.7,8.1-1.4l1.2,0.2c-0.3-1.5-0.1,0-0.9-1.5
				c-2.9-1.6-3.6-2.7-8.2-1.3C-598.2,567.9-602.6,570-604,570.1z"/>
			<path fill="#3E332E" d="M-524.1,562.5c-6,4.9-7.7,3.4-9.6,8.4c-1.6,4.2-3.2,8.6-4.9,12.7c-0.4-0.3-0.6-0.5-1-1l-1-1.1l2.4,11.8
				c0.5-0.5,0.5-0.8,1.2-1.6l3.8-4.8c1.2-2.1,2.4-5.8,3.4-8.2c-0.4-0.5-0.1-0.1-0.5-0.5l-1.2-1.1c0.4-1.8,1.6-4.4,2.3-6.1
				c1.3-3.1,1.2-4.1,3-5.2l4.9-3.3c1.5-1,3.3-2.2,4.6-3.3L-524.1,562.5z"/>
			<path fill="#DBC4BB" d="M-519.8,609.6l-16.6,35.1c2.1-2.5,4.1-6.4,6-9.2c5-7.8,9.3-15.6,14.9-23.4c0.8-1.1,2.6-3.5,3.1-4.5
				c-0.7-0.7-14.2-4.7-16.2-5.1c1.1,0.7,4,2.1,4.9,2.8C-522.5,606.2-521.4,608.2-519.8,609.6z"/>
			<path fill="#907D77" d="M-630.1,628.1c0.3,0.3,0.1,0.2,0.5,0.5c1.5,1.4,4.4,3.8,6.3,3.7c3.3-0.3,6.7-0.7,10-1.1
				c0.5,3.2,0.6,3.9,0.6,7.2V635l1.1-0.8c1.7-1,5.6-2.7,6.8-3.8c-0.7-1.5-2-2.8-2.5-4.4c-3.5,0.5-8.1,1.8-11.6,2.6
				C-627.3,630.8-624.3,629.5-630.1,628.1z"/>
			<path fill="#917E79" d="M-605.7,656.7l4.4,5c0.7,0.6,0.8,0.9,1.4,1.7c1.6,2.2,3.6,1.8,4.1,8.3c0.2-0.6,0.6-1.1,0.7-2.1
				c0.1-0.8,0.2-1.7,0.3-2.5c0.2-1.3,0.9-3.1,1.8-3.8l0.4-1.2l1.1-2.6l-1,0.8c-0.8,0.9-0.4,1.1-2.1,2c-0.3-3.2,2.6-5.6,3.5-8.3
				c-0.5,0.3-2.5,1.9-3,2.5c-1,1-1.1,2.2-2.9,1.9C-599.9,657.6-602.5,656.7-605.7,656.7z"/>
			<path fill="#1F1B31" d="M-485.9,582.1c-1.4,0.6-2.5,1.7-4.1,2.4c-0.4-1.2-1.4-2.1-1.5-3.4c-0.1-0.6,0.1-1.6,0.2-2.3
				c0-0.3,0.1-0.7,0.1-1c-0.1-0.6-0.1-0.4-0.2-0.7c-0.7,0.7-0.7,1.2-1.6,2c-0.7,0.6-1,1.1-1.6,1.6l-5.5,6.3c1-0.1,1-0.1,2-0.5
				c1.7-0.7,3.7-1.9,5.5-2.4c0.3,1,1,1.7,1.6,2.5c1.9-0.7,4.6-2.4,5.9-2.6c0.6-1.3,2.7-2.1,4.7-6.3c1.6-3.3,2.8-5.4,2.2-8.1
				c-0.6,0.4-3.2,5.3-3.7,6.3C-483,577.5-484.8,581.2-485.9,582.1z"/>
			<path fill="#554B46" d="M-506.3,582c-0.7,1.8-0.2,6.5,0,8.7c4.8,1.7,3,2.2,6.1,0l5.2-4.1c0.9,0.5,1.5,0.9,2.4,1.6l-1.1,6
				l-0.1,1.4c0.8-0.7,2.1-2.9,2.9-3.9c0.5-0.7,0.9-1.3,1.4-2s1.1-1.4,1.5-2.1c0.9-1.2,1.7-2.3,2.6-3.6c-1.3,0.3-4,2-5.9,2.6
				c-0.6-0.8-1.3-1.5-1.6-2.5c-1.8,0.5-3.8,1.7-5.5,2.4c-1,0.4-1,0.4-2,0.5l-0.4,0.4l-0.1,0.1l-0.3,0.2c0,0-0.3,0.1-0.4,0.2
				l-4.8,1.9c0.3-4.2,0.1-7.6-0.1-11.8C-505.7,578.9-506,581-506.3,582z"/>
			<path fill="#2A2A2A" d="M-611.3,579.7c1.6,0.3,2.6,0.4,3.5,1.5c0.2,1.6-0.3,2.4,0.6,3.4c1.4,0.4,3.4,0.5,3.2-1.2
				c0.2-0.9-0.4-0.3,0.3-0.6l0.5,0.3l-0.2-0.5l-1.6-0.6c0.4-0.5,0-0.1,0.5-0.5l0.4-0.2c0.6-0.3,0,0.1,0.8-0.3
				c0.2-1.3,0.4-0.9,1.5-1.5l1.3-0.3c3.5,0.8,3.9,1.3,6.4,2.7c0.3-0.3,0.2,0.1,0.3-0.6c0.1-0.4,0.1-0.2,0-0.7s-0.4-0.8-0.5-1.1
				c-2-0.9-12-1.9-14-1.4l-4.2,1.1L-611.3,579.7z"/>
			<path fill="#EFDAD1" d="M-628.5,616.9c1.1-5.8,4.5-14.6,6.3-20.6c0.4-1.2,0.7-2.3,1.1-3.5c1-2.8,0.2-1.3-0.3-2.8l-0.9-0.5
				c-0.6,0.6-7.8,29.3-7.8,30.8l0.8-1.6C-628.9,617.4-629.2,617.8-628.5,616.9z"/>
			<path fill="#72635E" d="M-605.8,651.6c3.2-0.3,12.7-0.2,15.2,1.4l4.2,1.3c-0.3-0.8-1.3-1.9-1.9-2.7c-1.4-1.8-0.2-1.7-2.6-1.8
				l-15.5-0.4C-605.8,650.5-605.8,650.2-605.8,651.6z"/>
			<path fill="#52B1DA" d="M-603.2,581c0.9,0,0.6-0.1,1.4,0.3l0.7,0.6c0-0.1,0.1,0.1,0.2,0.2l-2.3,0.6l0.2,0.5
				c0.2,0.3,0.5,0.4-0.1,0.7c-1,0.4-0.1,0.4-0.7-0.3c0.2,1.7-1.9,1.6-3.2,1.2c2.1,4.4,5.9,0.3,5.9,0.3c-1.3,2.6-2.5,2.1-4,3.7
				c2.2-0.6,4.6-1.2,6.2-2.4l-0.2-4.4l-0.5-1.3c0,0.6-0.1,0.6-0.1,0.7c-1.3-1.1-0.3-0.8-1.8-1.7C-602.9,580.1-603,579.7-603.2,581z"
				/>
			<path fill="#8A7976" d="M-611.8,618c0.1-0.9,2-4,2.5-4.8c4.9,0.3,4.7,1,8.3,6.7c0.4-0.7-1.1-5.6-1.7-6.6c-0.8-1.2-4.7-2-6.3-2.5
				c-0.8,1-1.2,2.5-1.7,3.7C-611.5,615.9-612.4,617.1-611.8,618z"/>
			<path fill="#282726" d="M-599.2,586.2c-1.6,1.2-4,1.8-6.2,2.4l-4.3,0.1c1,1.4,1.6,2,3.8,1.8c2.3-0.9,5.4-2.2,7.4-3.6
				c1.2-0.8,1.7-1.3,1.8-2.3c-0.6,0.5-0.8,0.5-1.2,0.9C-598.7,586-598.3,585.9-599.2,586.2z"/>
			<path fill="#E6CDC2" d="M-589.9,579.6c0.2-1.7,1-4,0.7-5.6c-0.7-1,0.4-0.8-2,0.7c-2.5,1.6-1.4,2.3,0.3,4.1L-589.9,579.6z"/>
			<path fill="#9D8A82" d="M-616.1,576.5c1.9-0.7,4.3-2.2,6.1-3.2c1.7-0.9,4.8-2,6-3.2c-5,1.2-6.9,2.7-10.8,5.3
				c-0.3,0.2-0.5,0.3-0.7,0.4C-616.1,576.3-615.7,576-616.1,576.5z"/>
			<path fill="#5672AC" d="M-599.9,580.5l-0.5-1.3l-1.3,0.3c1.5,0.8,0.5,0.6,1.8,1.7C-599.9,581.1-599.8,581.1-599.9,580.5z"/>
		</g>
		<g>
			<g>
				<path fill="#F8F3F0" d="M-599.4,581.8l0.2,4.4c0.9-0.3,0.5-0.1,1.3-0.7c0.5-0.3,0.6-0.4,1.2-0.9c0.1-0.9-0.6,0,0.4-0.9
					c0.6-0.5,0.4-0.3,1.3-0.4c-0.4-0.7-0.1-0.8-1.9-1.5c-0.8-0.3-1.4-0.4-2.3-0.7C-599.5,581.6-599.8,580.3-599.4,581.8z"/>
				<path fill="#F8F3F0" d="M-603.3,582.6l2.3-0.6c-0.1,0-0.1-0.2-0.2-0.2l-0.7-0.6c-0.8-0.4-0.5-0.2-1.4-0.3
					c-0.8,0.4-0.2,0-0.8,0.3l-0.4,0.2c-0.6,0.4-0.1,0-0.5,0.5L-603.3,582.6z"/>
				<path fill="#F8F3F0" d="M-603.9,583.5c0.6,0.8-0.3,0.8,0.7,0.3c0.6-0.3,0.3-0.3,0.1-0.7l-0.5-0.3
					C-604.4,583.2-603.8,582.5-603.9,583.5z"/>
			</g>
			<g>
				<path fill="#A28D85" d="M-583.7,633.1c1-0.6,0.3-0.1,1-0.9l19.6-25.8c1-1.5,2.2-2.9,3.2-4.5c0.6-0.8,1.1-1.5,1.7-2.3
					c0.7-0.9,0.9-1.6,1.5-2.2c-0.3,0.5-1.3,0.9-1.9,1.5l-11.5,12.2C-571.7,613-583,631.7-583.7,633.1z"/>
				<path fill="#A28D85" d="M-580.9,655.5l-0.7-3.3l-3.1-6.5c-2.2-4.1-3.6-5-6-8.3l-4.1-5.3c-0.5-0.8-1.6-1.8-1.9-2.4
					c1.1,2.6,2.5,4.1,3.9,6.7C-591.4,638.9-581.1,656.4-580.9,655.5z"/>
				<path fill="#A28D85" d="M-607.6,562.3c-1.7,1.4-2.4,1.6-3.7,3.4l-5.1,5.5c-0.6,0.7-0.9,1.3-1.5,1.9c-1.8,1.6-1.2,1.3-2.4,2.7
					l-1,1.2c1.7-0.8,3.2-2.9,4.8-4.2l5.8-4.8c0.5-0.5,0.5-0.5,1.1-0.9l6.4-5.8c1.3-0.9,0.9-1,1.9-1.9c0.4-0.4,0.7-0.5,1.1-0.9l1-1.1
					c-1.6,0.5-3.3,1.6-4.5,2.3L-607.6,562.3z"/>
				<path fill="#A28D85" d="M-609.8,595.2c1.1,0.1,2.7,1.9,6.8,3.4c2,0.7,5.6,2.3,7.6,2.6c-1.6-1.2-11-5.3-12-6.2l-4-1.7
					C-610.6,594.6-610.4,593.6-609.8,595.2z"/>
			</g>
			<g>
				<path fill="#856F67" d="M-626,505.7c-0.1-0.1-0.1-0.2-0.2-0.2l-0.5-0.5c-0.3-0.2-0.6-0.4-0.9-0.5c-0.6-0.3-1.3-0.8-1.8-1
					c-3.6-2.1-7.2-4-10.3-6.5l-10.8-8.6c-0.7-0.6-0.7-0.8-1.6-1.2l9,13.1c2.1,3.1,2.4,2.3,7.7,3.5
					C-632.9,504.4-628.5,505.5-626,505.7z"/>
				<path fill="#856F67" d="M-627.8,482.8c-0.7-2-3.5-6.5-4.8-9.3c-0.6-1.3-0.4-0.7-2.2-2.1l-11.8-9.4c-0.6-0.6-1-0.8-1.6-1.3
					c-0.9-0.7-0.6-0.8-1.7-1.2c0,4.8,0.9,3.2,2.8,5.5c2.2,2.6,2.7,2,4.4,4.2c0.9,1.1,2.1,1.6,3.1,2.7c1.4,1.4,0,0.5,2.7,2.7
					c2.3,1.8,1.6,1.7,2.9,2.8c1.2,1,1.9,1.4,3,2.7C-630.3,481-628.8,482.2-627.8,482.8z"/>
				<path fill="#856F67" d="M-616.1,459.2c5.5,3.7,9,3,15.9,3c6,0,12,0.3,18,0.2L-616.1,459.2z"/>
			</g>
			<g>
				<path fill="#99867E" d="M-494.8,580.7c0.6-0.6,0.9-1,1.6-1.6c0.9-0.9,0.9-1.3,1.6-2c0.2,0.3,0.2,0.1,0.2,0.7c0,0.3,0,0.7-0.1,1
					c-0.1,0.7-0.3,1.7-0.2,2.3c0.1,1.3,1.1,2.2,1.5,3.4c1.6-0.6,2.7-1.8,4.1-2.4c0.6-3.1,2-3,0.8-6.3c-1.1-3.3,0.6-8.7,0.3-10.8
					c-0.2-1.4,0.2-0.1-0.7-1.2c-0.4-0.5-0.5-0.7-0.9-1.1c-0.5-0.6-0.4-0.4-0.9-1.1l-2.5-3l-12,10.5l4.2,8.5
					c-1.5,1.2-3.7,1.9-5.3,3.2l1.8,3C-499.1,582.8-496.9,581.1-494.8,580.7z"/>
				<path fill="#99867E" d="M-613,581.6c1.4,0.3,2.4,3.1,2.3,4.5c-0.2,2.1-1,4.1-1.4,6l6,0.7l-0.9-1.5l1.2-0.9
					c-2.2,0.2-2.8-0.4-3.8-1.8l4.3-0.1c1.5-1.5,2.7-1.1,4-3.7c0,0-3.8,4.1-5.9-0.3c-0.8-1.1-0.4-1.8-0.6-3.4
					c-0.9-1.1-1.9-1.2-3.5-1.5C-611.8,581.3-612.1,580.2-613,581.6z"/>
				<path fill="#99867E" d="M-608.3,578c2.1-0.5,12,0.5,14,1.4l1.4-0.4c-0.8-2.5-2.7-1.7-4.7-3.2c0-1.2,0.8-3.3,1.2-4.5
					c-1.9,0.4-5,2-6.5,2.8C-604.2,574.9-607.5,576.7-608.3,578z"/>
			</g>
			<g>
				<path fill="#594943" d="M-466.1,580.3c1.2,0.1,4.7,4.1,6.4,5.5c2.8,2.3,2.1,2.2,3.2,3.1c1.2,1,2.1,1.8,3.5,2.9
					c-0.1-3.4,1.6-11.2,2.3-15c0.7-4.3,2-10.5,2.2-14.6c1.5,1.5,0-0.4,1,1.4c0.2,0.3,0.4,0.7,0.6,1.1c0.5,0.9,0.7,1.5,1.3,2.4
					l2.7,4.6l1.9-17.8l-0.4,1.1c-0.7-1.7-4-9.3-5-10.5l-16.9,9.2l1.5,3.1c0.8,1.6,1.1,1.5,0.5,3.3c-1,3.3-6.1,19-6.1,20.2H-466.1z"
					/>
				<path fill="#594943" d="M-540.6,581.5l1,1.1c0.5,0.5,0.6,0.7,1,1c1.7-4.2,3.3-8.5,4.9-12.7c1.9-4.9,3.6-3.5,9.6-8.4l-28.5,12.8
					c-0.9,0.6-0.9,0.8-1.7,1.4l-1.7,1.4c-0.9,0.7-0.8,0.6-1.7,1.5c3.4-0.9,13.7-5,15.6-5.3L-540.6,581.5z"/>
			</g>
			<g>
				<path fill="#D2BAAF" d="M-596.4,571.3c-0.4,1.2-1.2,3.3-1.2,4.5c2,1.4,3.9,0.7,4.7,3.2l-1.4,0.4c0.2,0.3,0.5,0.7,0.5,1.1
					c0.1,0.5,0.1,0.3,0,0.7c-0.1,0.7,0,0.3-0.3,0.6c0.1,0.1,0.4,0.6,0.4,0.7c-0.9,0.3-0.3,0.1-0.9,0.4l-0.5,0.4
					c-0.9,0-0.7-0.1-1.3,0.4c-1.1,0.9-0.3,0-0.4,0.9c-0.1,1-0.6,1.5-1.8,2.3c-2,1.4-5.1,2.7-7.4,3.6l-1.2,0.9l0.9,1.5l-6-0.7
					c0.5-1.9,1.3-3.9,1.4-6c0.1-1.4-0.9-4.2-2.3-4.5c-1.4,1.1-3,2.2-4.4,3.3c-1-0.4-1.9-1.3-2.8-2c-1.1-0.9-1.8-1.5-2.7-2.2l0.5-0.5
					l-3.9-1.6c0.5,1.3,0.9,1.6,1.7,2.8c2.7,4.5,4.4,5,3.3,8.5c0.5,1.6,1.2,0.1,0.3,2.8c-0.4,1.2-0.8,2.3-1.1,3.5
					c-1.8,6.1-5.2,14.8-6.3,20.6l-2,8.2c1.3,0.3,3.4,1.5,4.7,2.1c3,1.3,2.3,0.8,5.5,0.1c3.7-0.7,7.4-1.7,11.1-2.5
					c-1.2-0.9-4-1.5-5.7-1.9c0.2-0.8,1-2,1.5-2.7c0.5-0.6,0.7-0.6,1-1c0.2-0.3,0.2-0.2,0.3-0.5c0.3-0.6-0.1,0.3,0.2-0.6
					c-0.6-0.8,0.4-2,1-3.5c0.5-1.2,1-2.7,1.7-3.7c1.6,0.5,5.5,1.3,6.3,2.5c0.6,1,2.1,5.8,1.7,6.6c0.7,0.7,0.6,0.4,0.8,1.8l0.3,1.9
					c3.2-3-1.6-11.4-3.3-14.7c-2.2-4.5-4.6-9.2-7-13.2c0.5-0.5-0.6,0,0.4-0.4c-0.6-1.6-0.8-0.6-1.6-1.9l4,1.7
					c0.4-0.6,2.5-0.7,3.5-0.8c0.3-2.8,0.6-2.6,2.5-4c0.6-0.4,0.5-0.3,1-0.7c0.5-0.5,0.2-0.3,0.9-0.8l5.1-4.6c0.7-0.7,0.9-1,1.9-1.6
					c0.1-0.1,1.1-0.6,1.1-0.6c0.8-0.3,0-1,0.8,0.1l0.7-2.3l-1-0.8c-1.7-1.8-2.8-2.5-0.3-4.1c2.4-1.5,1.3-1.7,2-0.7
					c0.5-0.9,0.8-2.7,0.8-4C-590.6,569.6-594.5,570.2-596.4,571.3z"/>
				<path fill="#D2BAAF" d="M-486.2,554c0.9,0.4,3.5,1.7,4,2.1c0.5,0.4,1.6,2.7,1.9,3.8c1,3.1,1.6,6.4,2,9.6
					c0.6,2.7-0.6,4.8-2.2,8.1c-2.1,4.2-4.1,5-4.7,6.3c-0.8,1.3-1.7,2.4-2.6,3.6c0.1,0,0.2,0,0.2,0.1c0.2,0.5,2.6-1.3,3.4-1.7
					c1.8-1,2-0.6,3.1-2.7c0.7-1.3,3.3-6.5,4.1-7.4c-0.3,2.6-3.1,12.5-4.3,14.6c-2.3,4-4.3,8.3-6.6,12.3c-1.9,3.3-0.8,3.6-4.8,4.7
					c-2.8,0.8-3.9,1.3-6.4-0.2c-1.2-0.7-4.3-8.1-5.8-9.4c-0.8-0.7-2.3-1.2-3.2-1.7l0.7-0.2c4.5-0.6,9.4,2.1,13.9-1.9l1.1-6
					c-0.9-0.7-1.5-1.1-2.4-1.6l-5.2,4.1c-3.1,2.3-1.4,1.7-6.1,0c-0.2-2.2-0.7-6.9,0-8.7c0-0.1-0.1-0.2-0.1-0.2l-0.2-0.8
					c-0.5-3.9,0.9-2.2-1.8-4.5c-0.8-0.7-4-3.4-4.8-3.7c-0.7,1.1-0.4,9.4-0.4,11.7c0,6.4,0.9,6.8,1.4,11.2c2-0.1,0.3-0.1,1,0.4
					c0.8,0.8,1.7,1.2,2.7,1.7c2.5,1.5,3.3,4.1,5.6,7.5c2.3,3.4,2.1,4.6,4,4.7c2.7,0.2,6.1,0.5,8.7,0.4c1.2-4.9,19.2-27.1,17.5-47.6
					c-0.3-3.5-1-5.7-2.4-8.4c-1.2-2.3,1-4.8,2.9-7.1l-15,6.2C-486.6,553.7-487.2,553.4-486.2,554z"/>
				<path fill="#D2BAAF" d="M-526.8,576.8c0.6-0.3,1.3-1.9,1.6-2.6c0.9-1.7,1.5-1.2,3.4-1.4c2.2-0.2,6.9-1.1,8.9-0.9l2-0.4l6.5,6.5
					l3.7-1.1c-4-9.1-5.1-5.9-2.6-11c2.8-5.7,3.4-6.7,8.4-8.8l4.3-1.7l0.3-2.9c-3.4,1-7.7,3-11.1,4.4c-3.6,1.4-7.2,2.9-10.8,4.3
					c-1.9,0.8-11.4,4-12.2,5.2l-3.7,9.3L-526.8,576.8z"/>
			</g>
			<g>
				<path fill="#1D1D1C" d="M-573.6,758.9c0.3,0.8-0.5,0.6,0.9,0.2l32.8-20.2l-0.3-16.8c1.5,0.3,24.2,4.2,25.2,3.5
					c-0.4-1.4-1.4-2.5-2.6-3.5c-0.6-0.5-1.1-0.8-1.6-1.2l-11.8-9.2c-4.3-3.2-2.7-2.6-7.9-4c-0.7-0.2-1.5-0.5-2.2-0.7
					c-2.6-0.7-1.8-0.1-2.1-1.2c-1.3,1.1-5.2-1.3-7-1.2c-0.7,0-3.1,2-4,2.7l-10.3,8c-0.7,0.5-0.7,0.3-1.4,1c0.3,0.7,4.3,5.1,5,5.7
					c1,0.7,0.8,0.4,1.6,1.3l3.8,4.2c1.9,2.1,2.2,1.9,5.4,5.5c0.8,1,1.7,2,2.6,2.9c1.1,1,1.9,0.9,2.6,2.8l-25.1,17.9
					C-571.4,757.4-572.5,757.9-573.6,758.9z"/>
				<path fill="#1D1D1C" d="M-532.6,691.8c-0.7-0.2,0-0.1-1-0.5l-0.5,7.3c-2.5,0-8.8-0.9-10.5-0.3l7.9,3.4c4.7,1.9,9.9,4.2,14.7,6.3
					c1.2,0.5,2.4,0.9,3.6,1.5c1.7,0.9,4.6,7,6.5,9c0.5-0.9,1.1-2.4,1.6-3.3c1.3-3,2.4-2-2.7-8.6c-0.8-1-3.5-4.5-3.3-5.4l9-18.4
					c1.3-2.5,4.9-10.8,6-12.3c-0.9,0.8-1.9,2.5-2.7,3.6l-17.3,25.2l-12.2-0.5c0-1.1,0.1-3.3,0.2-4.2
					C-533.2,691.2-532.1,692.1-532.6,691.8z"/>
			</g>
			<g>
				<path fill="#E3CCC1" d="M-603.2,561.3l-6.4,5.8c-0.6,0.4-0.6,0.4-1.1,0.9l-5.8,4.8c-1.6,1.3-3.1,3.4-4.8,4.2l1-1.2
					c1.3-1.4,0.7-1.1,2.4-2.7c0.7-0.6,1-1.2,1.5-1.9l5.1-5.5c1.3-1.8,2.1-2,3.7-3.4c-3.5,0.3-4.8,1.8-6.9,3.9l-6.3,8
					c-4.3-2.5-6-4.4-10.2-4.7l1.7-32.2c0.2-2.8,2.7-6.1,4.6-9.1c0.9-1.4,1.7-3,2.7-4.2l33.3-2.9c0.8,2,1.5,9.1,1.9,11.7
					c0.4,2.7,0.1,2.5-0.9,4.9l-5.9,14.2c-0.1,0.9,2.7,9.1,3.1,10.7c-4.3-0.9-11.8-1-11.9-1.1C-603.6,561.4-602.6,561.8-603.2,561.3z
					 M-617.8,519.3c-1.4,0.2-2.7,0.9-4.1,1.3c-2.6,0.8-2.9,2-5.1,5.7c-0.8,1.3-1.6,2.1-2.1,3.6c-1.4,1.8-1.4,1.2-1.7,4.2l-3.7,38.3
					l8,10.7c2.4,3.3,3.3,3.8,2.9,6.3c-2.2,12-6.4,25.4-8.7,37.3c1.1,0.4,0.4,0.2,1.2,0.8c0.4,0.3,0.5,0.2,0.9,0.6
					c5.8,1.4,2.8,2.6,11.2,0.6c3.5-0.9,8.2-2.1,11.6-2.6c0.5,1.6,1.8,2.9,2.5,4.4c-1.1,1-5.1,2.7-6.8,3.8l-1.1,0.8v3.4
					c0,1.4-0.2,2.7-0.3,4c-0.1,1.7-0.2,1.6,0.8,2.8c3.5,0,18.6,3.1,21.2,4.6c2.4,0.1,1.2,0.1,2.6,1.8c0.7,0.8,1.6,1.9,1.9,2.7
					l-4.2-1.3c-0.2,0.9,0.1,0.3-0.5,1c-0.9,2.7-3.8,5.1-3.5,8.3c1.7-1,1.3-1.2,2.1-2l1-0.8l-1.1,2.6c0.8-0.1,5.7-5.3,6.5-6.2
					c1.1,0.4,2.4,1.5,3.3,2.3c0.7,0.6,2.2,2,3,2.2c-0.1-0.8-0.3-1.5-0.5-2.3l-0.7-2.6c-0.2,0.9-10.5-16.6-11.9-19.1
					c-1.4-2.6-2.8-4.1-3.9-6.7c0.3,0.6,1.4,1.6,1.9,2.4l4.1,5.3c2.3,3.3,3.8,4.2,6,8.3l3.1,6.5c-0.7-4.6-2-9.4-2.9-14.1
					c-0.7-3.7-4.1-5.5-7.4-9.4c-0.7-0.8-1.2-1.4-1.8-2.2c-0.7-0.8-1.9-1.3-2.3-2c-0.5-1.2,3.9-19.9,4.3-20.7l37.8-13
					c1.1,1.7,5.1,12.1,6.2,14.9c0.8,1.8,1,1.6,2.8,2.3c1.3,0.5,2.6,1,3.9,1.5c2.4,0.9,5.6,1.8,7.5,3.2c-3.3,7-7.1,14.1-10.6,21
					l-14.4,29c-0.9,1.3-11.3,5.9-13,6.7c-3.4,1.7-7,3.8-10.4,5.3c-2.3,1-9-2.6-11.9-3.1c0.1-2.8,0.9-6,0.9-8.4
					c-0.8,0.8-1.5,2.5-1.8,3.8c-0.1,0.9-0.2,1.7-0.3,2.5c-0.1,1-0.5,1.5-0.7,2.1l0.4,3c0.8,0.8,1.4,0.7,3,1.3
					c1.1,0.4,2.2,0.8,3.4,1.2c4.2,1.4,4.5,2.3,6.7,1.2l25.1-10.9c0.8-0.5,2.7-4.5,3.3-5.5l29.1-52.3c-0.9-0.3-15.6-7.5-16.4-8.1
					c-0.4-0.3-0.2-0.1-0.6-0.8l-7.8-15.6c-3.9,1.1-36,10.5-36.8,10.3c-1.2,0.2-6.1,3.2-7.4,4c0.6-3.4,3.5-15.3,3.3-17.6
					c-0.8-1-0.1-0.4-0.8-0.1c0,0-1,0.6-1.1,0.6c-1,0.6-1.2,0.8-1.9,1.6l-5.1,4.6c-0.7,0.5-0.4,0.3-0.9,0.8c-0.4,0.4-0.4,0.3-1,0.7
					c-1.9,1.4-2.2,1.2-2.5,4c-1,0.2-3.1,0.2-3.5,0.8c1,0.9,10.4,5,12,6.2c-2-0.4-5.6-1.9-7.6-2.6c-4.1-1.4-5.7-3.3-6.8-3.4
					c-1,0.3,0-0.1-0.4,0.4c2.4,4,4.8,8.8,7,13.2c1.7,3.3,6.5,11.7,3.3,14.7l-0.3-1.9c-0.2-1.3-0.1-1-0.8-1.8
					c-3.5-5.7-3.4-6.4-8.3-6.7c-0.6,0.8-2.4,3.9-2.5,4.8c-0.3,0.9,0.1,0-0.2,0.6c-0.2,0.4-0.1,0.3-0.3,0.5c-0.3,0.4-0.5,0.4-1,1
					c-0.5,0.7-1.3,1.9-1.5,2.7c1.7,0.4,4.5,1,5.7,1.9c-3.7,0.8-7.4,1.7-11.1,2.5c-3.1,0.6-2.5,1.2-5.5-0.1c-1.4-0.6-3.5-1.7-4.7-2.1
					l2-8.2c-0.8,0.9-0.4,0.6-0.7,1.7l-0.8,1.6c0-1.5,7.2-30.2,7.8-30.8l0.9,0.5c1.1-3.5-0.6-4-3.3-8.5c-0.7-1.2-1.2-1.5-1.7-2.8
					l3.9,1.6c1.5-0.5,5.2-2.9,6.3-3.7c0.4-0.5,0-0.2,0.7-0.7c0.2-0.2,0.4-0.3,0.7-0.4c3.9-2.6,5.8-4,10.8-5.3
					c1.4-0.1,5.8-2.2,7.7-2.8c4.6-1.4,5.3-0.2,8.2,1.3c0.2-3,0.7-5.6,0.7-8.8c0-3.2-0.2-6.1-0.5-9.2l0.7-0.4c0.2-1.4,2.4-3.7,3.3-5
					l5.6-7.6c-1.7-2.8-3.3-6.6-4.8-9.6c-2.3-4.7-1.3-7.3-2.5-11.7L-617.8,519.3z"/>
				<path fill="#E3CCC1" d="M-487.7,611.9l-3.4,4.9c-1.1,1.6-2,3-3.1,4.6l-31.3,46.7c-1.2,1.7-2.1,3.1-3.2,4.8
					c-1.8,2.7-5.1,14.6-6.8,16.5c0.5,1,0.1,0.3,0.9,1c0.7,0.6,0.4,0.1,1,0.9c1,0.3,0.2,0.2,1,0.5c1.4-2.9,12-16.8,14.9-21.1
					l31.9-43.5c0.7-0.9,1.4-2,2.1-3l10.6-14.5c0.5-1.2,2.9-14.9,3-16.8c-0.8,0.5-3.7,4.4-4.3,4.9l-9,9.6
					C-484.8,608.8-487.7,611.1-487.7,611.9z"/>
			</g>
			<g>
				<path fill="#EFDCD3" d="M-583.7,633.1c0.7-1.4,12-20.1,13.6-22l11.5-12.2c0.6-0.5,1.6-1,1.9-1.5c-0.5,0.6-0.8,1.2-1.5,2.2
					c-0.6,0.8-1.1,1.5-1.7,2.3c-1.1,1.6-2.2,3-3.2,4.5l-19.6,25.8C-583.4,633.1-582.8,632.6-583.7,633.1z M-581.6,652.2l0.7,3.3
					l0.7,2.6c0.1,0.7,0.4,1.5,0.5,2.3c-0.8-0.2-2.3-1.7-3-2.2c-0.9-0.7-2.2-1.8-3.3-2.3c-0.8,0.9-5.7,6.1-6.5,6.2l-0.4,1.2
					c0,2.4-0.8,5.6-0.9,8.4c3,0.5,9.7,4.1,11.9,3.1c3.4-1.5,7-3.6,10.4-5.3c1.7-0.9,12.1-5.5,13-6.7l14.4-29c3.5-6.9,7.3-14,10.6-21
					c-1.9-1.4-5.2-2.3-7.5-3.2c-1.3-0.5-2.6-1-3.9-1.5c-1.8-0.7-2-0.5-2.8-2.3c-1.1-2.7-5.2-13.2-6.2-14.9l-37.8,13
					c-0.4,0.8-4.8,19.5-4.3,20.7c0.3,0.7,1.6,1.3,2.3,2c0.7,0.8,1.2,1.4,1.8,2.2c3.4,3.9,6.8,5.7,7.4,9.4
					C-583.6,642.8-582.3,647.6-581.6,652.2z"/>
				<path fill="#EFDCD3" d="M-607.6,562.3l3.8-2.5c1.2-0.7,3-1.8,4.5-2.3l-1,1.1c-0.4,0.3-0.7,0.5-1.1,0.9c-1,0.9-0.6,1-1.9,1.9
					c0.6,0.5-0.4,0.1,0.7,0.3c0.1,0,7.6,0.2,11.9,1.1c-0.5-1.6-3.2-9.8-3.1-10.7l5.9-14.2c1-2.4,1.4-2.2,0.9-4.9
					c-0.4-2.6-1.1-9.7-1.9-11.7l-33.3,2.9c-0.9,1.2-1.8,2.8-2.7,4.2c-1.9,3-4.4,6.3-4.6,9.1l-1.7,32.2c4.2,0.3,5.9,2.2,10.2,4.7
					l6.3-8C-612.3,564-611,562.6-607.6,562.3z"/>
			</g>
			<g>
				<path fill="#3D322D" d="M-579.3,450.9c1.2,0.7,49.7,4.4,60.4,7.5c4.7,1.3,5.6,2.6,8.6,4.9c1.5,1.1,4.9,5.6,5.9,7.6
					c2.7,5.4,4.1,10.5,1.7,16.4c-0.8,2.1-1.6,2.7-2.8,4.1l-2.6,2.6c-3.3,3.2-18.7,12.2-21.6,13.8c-5.7,3.1-11.7,6.2-17.8,9.3
					c-3,1.5-6,3-9,4.4c-2.6,1.3-6.4,3.2-9.2,4.1l-0.4-17.8c-1.9,5-3.8,11.4-5.6,16.8c-1.6,4.8-0.9,3.9,0.1,8.8
					c0.5,2.1,1.4,7.4,2.2,9.1c9.6-4,18.7-8.2,28.9-12.4c15-6.2,21.4-6.6,37-14.7c2.1-1.1,4.8-2.6,6.5-3.8c2.1-1.4,4.1-2.8,6.2-4.1
					c1-0.7,1.9-1.4,3-2.2l10.9-9.9c2.3-2.9,3.9-7,4.7-10.8c0.4-2.3,0.3-8.4,0.5-9.3c-0.8-3.6-0.7-3.1-5.7-6.5
					c-0.8-0.6-1.7-1.1-2.4-1.6l-4.8-3.5c-0.9-0.6-1.5-1.1-2.3-1.7c-6.8-5.3-10.7-6.5-18.1-10.4c-1.4-0.8-3.8-2.2-5.1-2.7
					c-2.5-0.5-13.9,0.4-17.3,0.6c-5.6,0.4-11.3,0.6-16.9,0.8C-555.7,450.6-567.9,451.1-579.3,450.9z"/>
				<path fill="#3D322D" d="M-629.5,523.5c2.4-4.4,2.6-4.4,5.3-5.5c7.6-3.1,15.8-5.7,23.7-8.5c5.3-1.9,10.6-3.8,15.9-5.6l13.8-4.8
					c0.9-0.3,1.4-0.4,2.1-1c-4.2,0.5-9.1,1.9-13.4,2.8c-4.3,0.8-8.7,1.8-12.9,2.7c-8.7,1.9-17.4,3.7-26.2,5.6
					c-2.6,0.6-15.3-4.2-20.1-5.7c-2-0.6-2-1.5-4.6-5.1l-3.4-4.6c-0.6-0.8-0.9-1.3-1.6-2.1l-3.4-4.6c-0.3-0.4-2.6-4.2-3-4
					c0,1.5,5.1,24.5,5.9,28.6c0.3,1.5,0.4,2.5,1.3,3.3l13.2,8.2c1.6,0.9,4,2.7,5.4,3.2L-629.5,523.5z"/>
				<path fill="#3D322D" d="M-439.1,531.8l-18.3,9c-13.7,6.6-7.3,3.5-14.9,12.2c0.3,1.3,4,7.3,5,8.8c1,1.6-0.1,3.3-0.7,5.2
					c-0.5,1.7-1,3.3-1.5,5c-1.1,3.4-2.1,7.1-3.3,10.4c-0.6,1.8-3,8.8-3.1,10.2c0.8-0.8,0.6-0.6,1.3-1.4l1.3-1.6
					c0.5-0.7,0.2-0.2,0.7-0.8l1.6-2.1c0.8-1.1,4.6-5.2,4.9-6.3l-1.3-0.1c0-1.1,5-16.9,6.1-20.2c0.6-1.8,0.2-1.7-0.5-3.3l-1.5-3.1
					l16.9-9.1c1,1.2,4.3,8.8,5,10.5l0.4-1.1l2.5-22.2L-439.1,531.8z"/>
				<path fill="#3D322D" d="M-653.9,461.7c-0.2,4.9-0.5,2.3,1.2,4.7l7,8.1c0.7,0.9,0.8,0.7,1.4,1.4c0.6,0.6,0.7,1.1,1.4,1.8
					c0.9,0.8,0.7,0.5,1.4,1.5c0.7,1.1,1.8,2.2,3.1,2.8c1.6,0.9,6.7,3.7,8.1,3.9c1.1,0.3,0.2,0.1,0.6-0.3c-2.4-2.3-3.4-3.8-4.5-4.9
					l-14.1-14.5c-1.9-1.9-4.4-3.6-5.2-7.5L-653.9,461.7z"/>
				<path fill="#3D322D" d="M-598.9,464.9l1.9-0.2c-1.2,0.3-13-2-15.5-2.4c-3.5-0.6-3.8-0.9-6.7-2.5c-1.6-0.8-5.2-2.2-5.8-3.4h-4
					c0.9,0.9,1.7,1.2,2.7,2c1.6,1.2,7.2,5.6,8.7,5.7L-598.9,464.9z"/>
			</g>
			<g>
				<path fill="#BFA79D" d="M-519.8,609.6c-1.6-1.4-2.6-3.4-3.9-4.3c-0.9-0.7-3.8-2.1-4.9-2.8c1.9,0.4,15.5,4.4,16.2,5.1
					c-0.5,1-2.3,3.4-3.1,4.5c-5.5,7.8-9.8,15.6-14.9,23.4c-1.8,2.8-3.9,6.7-6,9.2L-519.8,609.6z M-526.8,576.8
					c-0.5,1.6-11,20-11.5,20.4c-1.2-2.3-8.3-18-8.5-19.5c-7,2.1-14.9,4.2-21.7,7.2c-5.1,2.2-5.4,2.9-9.2,5c-1.3,0.7-8.2,4.8-8.7,5.6
					c0.9,0.2,32.9-9.2,36.8-10.3l7.8,15.6c0.4,0.7,0.2,0.5,0.6,0.8c0.7,0.6,15.4,7.8,16.4,8.1l-29.1,52.3c-0.6,1-2.5,5-3.3,5.5
					l-25.1,10.9c-2.2,1-2.5,0.2-6.7-1.2c-1.1-0.4-2.2-0.8-3.4-1.2c-1.6-0.6-2.3-0.5-3-1.3c0.2,1.1,0,0.7,0.6,1.4l8.8,7
					c1.1,0.5,1.4,0.1,2.7-0.2l21.9-5.8c4.9-1.3,2.5-1.5,4.5-2.4c0.5-0.7,0.3-0.2,0.8-0.8l19.8-17.3c1-1,1-0.8,1.9-1.6l13.8-12.1
					c0.6-0.6,1.1-0.8,1.7-1.4c0.9-1,0.8-0.7,1.7-1.4c3.8-2.9,8.6-15.6,10.7-18.1c-0.5,2.3-5,16.5-6.3,17.7l-35.7,35.4
					c-0.7,0.9-0.8,0.6-1.5,2c1,0.5,6.2,5.1,7.2,6.2l7.1,6.1c1.6-1.9,5-13.8,6.8-16.5c1.1-1.7,2.1-3.1,3.2-4.8l31.3-46.7
					c1.1-1.6,2.1-3.1,3.1-4.6l3.4-4.9c-3.1,1.7-6.9,7.2-12.2,2.2l-1.6-1.6c-1-0.9-5.2-7.3-6-8.8l-3.3-5.9c0-0.1-0.6-0.9-0.6-0.9
					c-0.5-1.6-0.4-0.4,0.2-0.9c-0.7-0.4,1-0.5-1-0.4c-0.6-4.4-1.4-4.8-1.4-11.2c0-2.2-0.3-10.5,0.4-11.7c0-0.9-0.4-0.4,0.3-0.9
					c-1.9-0.2-6.7,0.6-8.9,0.9c-1.9,0.2-2.5-0.2-3.4,1.4C-525.5,574.9-526.2,576.6-526.8,576.8z"/>
				<path fill="#BFA79D" d="M-617.8,519.3l32.3-3c1.2,4.5,0.2,7,2.5,11.7c1.5,3,3.1,6.8,4.8,9.6l-5.6,7.6c-0.9,1.2-3.1,3.6-3.3,5
					l12.5-6.4c1.1-0.6,1-0.5,1.3-1c1-1.9,0.4-3.6-0.3-5.4l-4-10.3c-0.7-1.9-0.5-1.9,0.2-3.8l7.2-21L-617.8,519.3z"/>
				<path fill="#BFA79D" d="M-605.7,656.7c3.2,0,5.8,0.9,8.8,1.5c1.8,0.4,1.9-0.8,2.9-1.9c0.5-0.5,2.4-2.2,3-2.5
					c0.6-0.7,0.2-0.1,0.5-1c-2.5-1.6-12-1.6-15.2-1.4V656.7z"/>
				<path fill="#BFA79D" d="M-606.4,649.4l15.5,0.4c-2.6-1.5-17.7-4.7-21.2-4.6c1.1,0.6,1.9,1.4,2.9,2.3c0.5,0.4,0.9,0.7,1.5,1.1
					C-607,649.2-607.5,649.1-606.4,649.4z"/>
			</g>
			<g>
				<path fill="#2F302F" d="M-460.6,632.9l40.6,3.1c-0.6,1-6.3,5.4-7.7,6.5l-25,20.4c-0.8,0.7-0.8,0.6-1.4,1.1l-26.6,21.7
					c-0.7,0.6-1.8,1.4-2.7,2.1l-7.9,6.3l-21.2,3.1c0.4-1.4,35.6-50.3,40.3-57.6c0.6-0.9,1.1-1.5,1.7-2.3c2.1-3,10.8-15.7,12-16.9
					L-460.6,632.9z M-501.4,670.4c-1.1,1.5-4.6,9.9-6,12.3l-9,18.4c-0.2,1,2.6,4.4,3.3,5.4c5.1,6.6,4,5.6,2.7,8.6
					c-0.4,1-1,2.4-1.6,3.3c0.5,1.2,1.5,2.4,2.2,3.5c0.7,1.1,1.5,2.4,2.2,3.4l106.6-40.6l0.4,1.8l-0.2-1.7c0.7-0.6,3.1-1.4,4.1-1.8
					c1.5-0.6,2.9-1.2,4.4-1.6c-0.6-2.4-3.3-8.2-4.4-10.9c-2-4.9-13.2-31.7-13.3-32.9c-1.2-1.2-2.1-5.6-3.1-6.9
					c-0.6-0.7-0.7-0.6-1.8-0.7c-6.8-1-14.6-3.1-22.4-4.3l-1.7-0.3h-0.4c-1.6-0.7-9.9-2.1-12.5-2.5c0.8-4.6,5.7-22.9,5.7-24.3
					c0.1-2.1-2.2-4.8-2-8.2c-0.1,0.5-0.1,1.6-0.3,2.2L-468,621c-0.7,1-0.9,1.5-1.7,2.6c-0.6,0.8-1.1,1.5-1.7,2.3l-5.1,7.4
					c-4.3,6-9.2,13.7-13.6,19.8l-10.2,14.7C-500.7,669-500.8,669.3-501.4,670.4z"/>
				<path fill="#2F302F" d="M-573.6,758.9c-3,1.8-6,4.4-9,6.4l-5,3.7c0-0.1-0.1,0.1-0.2,0.3l4.5,1.9c0.1-0.2-0.1-0.7,1.8-0.3
					c0.6,0.1,1,0.3,1.7,0.5c1.2,0.2,2.4,0.4,3.6,0.7c2.4,0.5,4.8,0.9,7.2,1.3c4.8,0.8,9.7,1.7,14.5,2.6c9.6,1.8,19.4,3.2,28.9,5.3
					c-0.3-0.8-0.3-0.6-0.6-1.3l-5.4-6.5c-0.8-1.1-0.8-0.6-1.7-2.1l-9.3-11.1c-2.1-2.5-5-5.6-6.8-8.3l12.5-8.6
					c1.2-0.8,2.2-1.5,3.2-2.2c1.8-1.2,7.7-5.9,9.6-6.2c-0.4-0.4,0.2-0.6-0.5-0.3c0.9-0.1,10.5-6.7,11-7.6l-1.2-1.3
					c-1,0.7-23.8-3.3-25.2-3.5l0.3,16.8l-32.8,20.2C-574.2,759.6-573.3,759.7-573.6,758.9z"/>
				<path fill="#2F302F" d="M-400.1,691.8c-0.6,0.5-91,31.3-91.5,31.3c2.4-0.1,27-5.1,31.6-6l23.9-4.6c2.3-0.4,6.3-1.8,8.3-1.5
					c5.3-1.5,27.2-5.5,34.3-6.9c3-0.6,8.8-1,10.2-2.6l10.1-13c0.7-1,1.9-2.2,2.1-3c-0.5-0.6-1.1-1.2-1.7-1.9l-16.9-21.6
					c-0.4-0.5-0.6-0.7-0.9-1.1l-5.2-6.6c0.8,2.2,2.4,5.5,3.5,7.7c1.2,2.3,2.5,5.4,3.6,7.9l7.1,15.7
					C-382.3,686.1-399,691.8-400.1,691.8z"/>
			</g>
			<g>
				<path fill="#211D31" d="M-540.6,581.5l-1.4-7.1c-1.9,0.3-12.2,4.3-15.6,5.3c0.9-0.9,0.7-0.7,1.7-1.5l1.7-1.4
					c0.8-0.6,0.8-0.8,1.7-1.4l28.5-12.8l7.5-3.4c-1.3,1.1-3.1,2.3-4.6,3.3l-4.9,3.3c-1.9,1.2-1.8,2.1-3,5.2
					c-0.7,1.7-1.9,4.3-2.3,6.1l1.2,1.1c0.4,0.4,0.1,0,0.5,0.5c-1,2.4-2.2,6.1-3.4,8.2l-4,4.8c-0.6,0.8-0.7,1.1-1.2,1.6L-540.6,581.5
					z M-470,476.4l6.9,7.2c1.3,1.9,2.3,1.7,2.1,5c-0.1,2.6-0.7,4.1-1.1,6.4c1,0.7,3.9,6.1,4.6,7.5c1.4-1,2-4.7,2.9-6.2
					c1,0.9,4,6.4,4.9,8.2c1.5,2.8,0.1,3.7-1.6,5.9c-0.6,0.8-0.5,1.2-1.6,1.7l3.1,10.1c1.3-0.6,2.4-1.9,3.4-2.9s2-1.8,3.1-3
					c0.8,1.7,3,9.5,3.1,11.3c-1.9,2-9.6,6.2-13.2,7.6c-0.8-3.1-1.1-7.5-1.8-11c-2.3-10.4-5.9-18.6-11-27.6c1.6,7.3,3.2,7,4.6,19.4
					c0.6,5.1,0,4.9,1.1,10.8c0.5,2.7,1.3,8.2,1.3,10.9l-6,2.2c-0.3-3.5-0.6-6.5-1-9.8c-0.5-4.3-0.8-4.6-2.5-7.9
					c-1.3-2.5-2.6-4.4-4-6.6c-0.6-1-1.4-2.1-2.1-3.1c-0.7-1-1.4-2.3-2.3-3.1l0.8,2.3c-1.7,1-6.1,4.2-8,4.7l1.4,6.1
					c2.5-0.7,5-2.9,7.2-3.6l1.7,7.3c-0.9,1.1-6.1,2.6-7.7,3.7l0.8,7c2.1,0,7.8-3.2,9.6-3.2l0.6,7.9l-22.3,7c-0.3-1.5-6-11-7-12
					c-0.8,0.9-2.2,5.1-2.2,6.5c0.1,2.7,0.4,5.5,0.5,8.3c-1.2,0.9-4.9,1.9-6.5,2.5c-0.4-2.4-0.7-11.2-1.2-15
					c-0.2-1.6-1.2-12.9-2.4-14.4c-0.2,4.3,0.1,28.9-1.3,31.2c-0.5,0.8-7.5,3.4-8.3,3.6c-1.7-3.3-3-17.6-4.9-20.3
					c-0.3,3.9-0.3,8-0.7,12c-0.2,1.9-0.2,3.7-0.4,5.7l-0.4,4.2c-0.3,2.4-0.6,1.4-7.7,4.8c-1.7,0.8-6.3,3.2-7.6,3.5l-1.6-7.5
					c-1.1,0.3-3.2,1.5-4.3,2l-2.9,1.4c-1.9,1-1.3,2.3-2.7,7.9c-0.8,3.4-1.5,3.1-4.4,4.5c-4,1.9-7.7,4.4-11.7,6.3
					c1.1-5.5,1.5-11.2,2.1-16.9c-2.4,0.9-6.3,3.1-8.7,4.4c-1.7,1-1.3,2.4-1.6,4.6c-0.3,1.9-0.6,3.8-0.9,5.7
					c-0.3,1.8-0.6,3.5-1.1,5.2c-1.1,4.5-0.6,3.2-6.3,6.5c-1.5,0.9-2.7,1.7-4.2,2.5c0.3-2.4,2-7,2.7-9.8c1.7-6.9,3-14.1,3.5-21.2
					c0.3-3.8,0.2-8.6,0.6-12.1c1.3-0.7,6.1-3.1,7.2-3.2c0.2,4.8,0,8.9,0,13.6l9.3-4.4c0.1-4.5-0.7-8.9-0.7-13
					c0.7-0.7,5.6-2.6,6.9-3.1c0.7,3.5,0.9,9.2,1.1,13c0.2,4.9-0.4,9.7-0.2,14.4c0.1-0.1,0.1-0.3,0.2-0.2l1.1-3.4
					c1.8-6.1,3.1-12.5,4-18.8c0.4-2.3,0.7-6.1,1.3-8.1l8.3-3.5c0.4,1.9,3,6.9,3.9,9.1c0.7,1.6,1.2,3.1,1.9,4.7
					c0.6,1.5,0.9,3.6,2,4.8c-0.7-6.2-3.5-13.6-5-19.6l6.8-2.8c1.9,5.6,3.1,11.4,4,17.2c0.3,1.9,0.4,4.5,0.9,6.1
					c0.9-2,1.6-22.2,1.7-26l5.4-2.1c3.2,4.4,5.6,19.9,7.1,22.3c0.8-8.2-0.5-17-0.3-25.1l12.5-5.1l2.1,11.4c0.9-1.1,3-8.6,3.5-10.6
					c0.7-2.7,0.1-3.5,2.5-4.6c1.7-0.8,3.1-1.7,4.9-2.4c-0.3,4.3-2,9.4-3.1,13.5c-1.4,5.1-1.1,2.3,4.2,10.4c0.8,1.2,1.4,2.3,2.2,3.5
					c0.5,0.8,0.7,1.1,1.1,1.8l0.8,1.3c0.3,0.4,0.2,0.3,0.5,0.6c-0.2-8.1-1.3-16.2-3-24.1c-0.5-2.3-1.5-5.3-1.8-7.5
					c1.4-1,3-1.7,4.4-2.6c2.7-1.7,9.9-6.8,11.6-9.3c2.4,2.6,8.7,13.7,9.7,14.4c-0.7-6.6-2.9-13.3-5.2-19.3c-0.6-1.5,0.5-2.5,1.1-4.1
					c0.6-1.5,1-3.1,1.3-4.7c0.3-2,0.3-3.9,0-5.9C-469.2,479.5-469.8,478-470,476.4z M-566.1,507.7l4-11.5l-6.6,1.9
					c-0.6,0.6-1.2,0.7-2.1,1l-13.8,4.8c-5.3,1.8-10.6,3.7-15.9,5.6c-7.9,2.8-16.2,5.5-23.7,8.5c-2.7,1.1-3,1.1-5.3,5.5
					c0,1.1,0,2.2,0,3.2c0,0.8-0.2,2.6,0.5,3.1c0.4-1.4,1.3-2.3,2.1-3.6c2.2-3.7,2.5-4.9,5.1-5.7c1.4-0.4,2.7-1.1,4.1-1.3l47.6-16.9
					l-7.2,21c-0.7,1.9-1,1.9-0.2,3.8l4,10.3c0.7,1.8,1.3,3.5,0.3,5.4c-0.3,0.5-0.1,0.4-1.3,1l-12.5,6.4l-0.7,0.4
					c0.3,3.1,0.5,6.1,0.5,9.2c-0.1,3.2-0.5,5.8-0.7,8.8c0.8,1.4,0.6,0,0.9,1.5l-1.2-0.2c-0.1,1.3-0.3,3.1-0.8,4
					c0.3,1.6-0.6,3.9-0.7,5.6l-0.7,2.3c0.2,2.3-2.6,14.2-3.3,17.6c1.3-0.8,6.2-3.8,7.4-4c0.5-0.8,7.5-4.9,8.7-5.6
					c3.8-2.2,4.2-2.8,9.2-5c6.8-2.9,14.6-5.1,21.7-7.2c0.2,1.6,7.3,17.2,8.5,19.5c0.5-0.4,11-18.8,11.5-20.4l-1.4-1.2l3.7-9.3
					c0.8-1.2,10.3-4.4,12.2-5.2c3.6-1.4,7.2-2.9,10.8-4.3c3.4-1.3,7.7-3.4,11.1-4.4l-0.3,2.9l-4.3,1.7c0.8,0.3,3.1-0.7,4.4-1.3
					c1.2-0.5,3.7-0.9,4.3-1.7c-1-0.5-0.4-0.3-0.8-0.7l14.8-5.9c-1.9,2.3-4.1,4.7-2.9,7.1c1.4,2.7,2.1,4.9,2.4,8.4
					c1.7,20.4-16.3,42.7-17.5,47.6c-2.6,0.1-6-0.2-8.7-0.4c-1.9-0.1-1.7-1.3-4-4.7c-2.3-3.4-3.1-6-5.6-7.5c-0.9-0.6-1.9-0.9-2.7-1.7
					c-0.6,0.5-0.7-0.6-0.2,0.9c0,0,0.5,0.8,0.6,0.9l3.3,5.9c0.9,1.5,5.1,7.9,6,8.8l1.6,1.6c5.3,5.1,9.1-0.4,12.2-2.2
					c0.1-0.8,3-3.1,4.4-4.5l9-9.6c0.6-0.6,3.5-4.4,4.3-4.9c-0.1,1.9-2.5,15.5-3,16.8l-10.6,14.5c-0.7,1-1.5,2.1-2.1,3l-32,43.4
					c-2.9,4.2-13.5,18.1-14.9,21.1c0.6,0.3-0.6-0.5-0.8,2.7c-0.1,0.9-0.2,3.1-0.2,4.2l12.2,0.5l17.3-25.2c0.8-1.1,1.8-2.8,2.7-3.6
					c0.6-1.2,0.7-1.4,1.5-2.5l10.2-14.7c4.3-6.1,9.3-13.9,13.6-19.8l5.1-7.4c0.5-0.8,1.1-1.5,1.7-2.3c0.8-1.1,1.1-1.6,1.7-2.6
					l19.4-28.4c0.2-0.6,0.2-1.7,0.3-2.2l0.7-15.7c0.8,0.4,1.4,1.7,1.9,2.5c0.6,0.9,1.2,1.8,1.9,2.5l0.3-8l-2.7-4.6
					c-0.6-1-0.8-1.5-1.3-2.4c-0.2-0.4-0.4-0.7-0.6-1.1c-1-1.8,0.5,0.1-1-1.4c-0.2,4.1-1.5,10.3-2.2,14.6c-0.6,3.8-2.3,11.6-2.3,15
					c-1.4-1.1-2.3-1.9-3.5-2.9c-1.1-1-0.4-0.8-3.2-3.1c-1.7-1.4-5.2-5.4-6.4-5.5c-0.3,1.1-4.1,5.3-4.9,6.3l-1.8,2.2
					c-0.5,0.6-0.1,0.1-0.7,0.8l-1.3,1.6c-0.7,0.9-0.5,0.7-1.3,1.4c0.1-1.4,2.5-8.3,3.1-10.2c1.1-3.4,2.2-7,3.3-10.4
					c0.5-1.7,1-3.3,1.5-5c0.6-1.9,1.7-3.7,0.7-5.2s-4.7-7.5-5-8.8c7.6-8.6,1.2-5.5,14.9-12.2l18.3-9c-0.5-1.9-0.9-12.2-1.1-15.6
					c-0.1-1.4,0.1-1.3-0.7-2c-5.9-4.7-4.3-0.9-5-8.8c-0.1-1.4-2.3-3.7-3.2-4.9c-0.7-0.9-0.6-0.7-1.2-1.7c-0.5-0.1-2.1-2.3-2.5-2.9
					c-0.8-1.2-1.7-2.2-2.5-3.2c-3.1-3.8-1.6-2.6-2.1-6.5c-0.2-1.3-0.4-1.1-1.1-1.8l-5.3-6.2c-0.9-0.5-7.2-2.9-8.1-3.1
					c-0.3,0.8-0.1,7-0.5,9.3c-0.7,3.8-2.3,7.9-4.7,10.8l-10.5,9.9c-1,0.8-1.9,1.5-3,2.2c-2.1,1.4-4,2.7-6.2,4.1
					c-1.7,1.2-4.4,2.7-6.5,3.8c-15.6,8.1-21.9,8.5-37,14.7c-10.1,4.2-19.2,8.4-28.9,12.4c-0.8-1.7-1.7-7-2.2-9.1
					c-1.1-4.9-1.7-3.9-0.1-8.8C-569.9,519.1-568,512.8-566.1,507.7z"/>
				<path fill="#211D31" d="M-511.9,718.6c-1.9-2-4.8-8.1-6.5-9c-1.2-0.6-2.4-1-3.6-1.5c-4.8-2.1-10-4.4-14.7-6.3
					c-0.6,0.9-5.4,3.4-6.6,4c0.3,1.1-0.5,0.6,2.1,1.2c0.8,0.2,1.5,0.5,2.2,0.7c5.2,1.5,3.7,0.8,7.9,4l11.9,9.3
					c0.6,0.4,1.1,0.8,1.6,1.2c1.2,1,2.2,2.1,2.6,3.5l1.2,1.3c-0.5,0.9-10.1,7.5-11,7.6c0.7-0.3,0.1-0.1,0.5,0.3c0.4,0.8,4.1,3,4.3,3
					c2.3-1.1,7.9-4.7,10.1-5.1c4.2-0.7,8.5-1.3,12.8-2l38.5-6c6-0.9,7.1-0.6,11.7-3.1c2.5-1.4,18.1-9.7,19.1-10.6
					c-2-0.3-6,1-8.3,1.5L-460,717c-4.6,0.9-29.2,6-31.6,6c0.5,0,90.9-30.7,91.5-31.3l-0.4-5.1l-0.4-1.8l-106.6,40.6
					c-0.6-1.1-1.5-2.3-2.2-3.4C-510.4,721-511.4,719.8-511.9,718.6z"/>
				<path fill="#211D31" d="M-556.8,674.6l8.5,0.4l35.7-35.4c1.3-1.2,5.8-15.4,6.3-17.7c-2.2,2.5-6.9,15.2-10.7,18.1
					c-0.9,0.7-0.8,0.5-1.7,1.4c-0.6,0.6-1.1,0.8-1.7,1.4l-13.8,12.1c-0.9,0.8-0.9,0.5-1.9,1.6l-19.9,17.4
					C-556.5,674.4-556.3,673.9-556.8,674.6z"/>
				<path fill="#211D31" d="M-546.3,555.3c-0.1-1.3-3.1-11.1-3.7-11.9c-0.4,1.5-0.4,5.6-0.6,7.5c-0.2,2.2-0.6,4.6-0.9,6.9
					L-546.3,555.3z"/>
			</g>
			<path fill="#584842" d="M-626,505.7c-2.5-0.2-6.9-1.3-9.4-1.9c-5.3-1.2-5.6-0.4-7.7-3.5l-9-13.1c0.9,0.3,0.9,0.6,1.6,1.2
				l10.8,8.6c3.1,2.5,6.7,4.4,10.3,6.5c0.5,0.3,1.2,0.7,1.8,1c0.3,0.2,0.6,0.3,0.9,0.5l0.5,0.5C-626.2,505.5-626.1,505.6-626,505.7z
				 M-627.8,482.8c-1-0.6-2.4-1.8-3.2-2.7c-1.1-1.3-1.8-1.7-3-2.7c-1.3-1.1-0.6-1-2.9-2.8c-2.8-2.2-1.4-1.3-2.7-2.7
				c-1-1-2.2-1.6-3.1-2.7c-1.7-2.1-2.1-1.5-4.4-4.2c-1.9-2.3-2.8-0.7-2.8-5.5c1.1,0.4,0.9,0.5,1.7,1.2c0.6,0.5,0.9,0.7,1.6,1.3
				l11.8,9.4c1.8,1.4,1.6,0.8,2.2,2.1C-631.3,476.3-628.5,480.8-627.8,482.8z M-582.3,462.4c-5.9,0.1-12-0.2-18-0.2
				c-6.9,0-10.4,0.7-15.9-3L-582.3,462.4z M-625,456.4c0.7,1.2,4.3,2.6,5.8,3.4c2.9,1.6,3.2,1.9,6.7,2.5c2.5,0.4,14.3,2.7,15.5,2.4
				l-1.9,0.2l4,0.2c-0.1,0-0.2,0.1-0.3,0.1c-2.1,0.7-19.6,1.1-25.1,1.4c-3.8,0.3-4,0.3-7.4-0.9c-5-1.8-22.8-8.7-25.9-9.5l-0.3,5.5
				l0.5-3c0.9,3.9,3.3,5.6,5.2,7.5l14.1,14.5c1.1,1.1,2.1,2.6,4.5,4.9c-0.4,0.4,0.5,0.5-0.6,0.3l0.4,0.6c-3.6,0.2-11.5-1-15.5-1.4
				c-3.3-0.3-9.3-3.2-12.7-4.5l0.7,2.6c0.4-0.2,2.7,3.6,3,4l3.4,4.6c0.6,0.8,1,1.3,1.6,2.1l3.4,4.6c2.6,3.6,2.7,4.5,4.6,5.1
				c4.7,1.4,17.4,6.3,20.1,5.7c8.8-2,17.4-3.7,26.2-5.6c4.3-0.9,8.7-1.9,12.9-2.7c4.3-0.9,9.2-2.3,13.4-2.8l6.6-1.9l-4,11.5
				l0.4,17.8c2.8-0.9,6.6-2.9,9.2-4.1c3-1.4,6-3,9-4.4c6.2-3,12.1-6.1,17.8-9.3c2.9-1.6,18.3-10.6,21.6-13.8l2.6-2.6
				c1.1-1.4,1.9-2,2.8-4.1c2.4-5.9,1-11-1.7-16.4c-1-2-4.3-6.4-5.9-7.6c-3-2.2-3.9-3.5-8.6-4.9c-10.6-3-59.2-6.8-60.4-7.5l-18,0.3
				c2.6,1,9.1,2.1,12.2,2.8l10.8,2.4c0.6,0.2,0.1,0,0.7,0.2c0.5,0.2,0.4,0.2,0.7,0.5L-625,456.4z"/>
			<path fill="#896C63" d="M-551.5,557.9c0.2-2.4,0.7-4.7,0.9-6.9c0.2-1.9,0.3-6,0.6-7.5c0.6,0.8,3.5,10.6,3.7,11.9L-551.5,557.9z
				 M-470,476.4c0.2,1.6,0.8,3.1,1,5c0.2,2,0.2,3.9,0,5.9c-0.2,1.6-0.7,3.3-1.3,4.7c-0.7,1.6-1.7,2.6-1.1,4.1
				c2.3,6,4.5,12.7,5.2,19.3c-0.9-0.8-7.2-11.8-9.7-14.4c-1.7,2.5-8.9,7.6-11.6,9.3c-1.4,0.8-3,1.6-4.4,2.6c0.3,2.1,1.3,5.2,1.8,7.5
				c1.6,7.9,2.7,16,3,24.1c-0.2-0.3-0.2-0.2-0.5-0.6l-0.8-1.3c-0.4-0.6-0.6-1-1.1-1.8c-0.8-1.2-1.4-2.3-2.2-3.5
				c-5.3-8.1-5.6-5.3-4.2-10.4c1.1-4.1,2.9-9.2,3.1-13.5c-1.7,0.7-3.1,1.5-4.9,2.4c-2.4,1.1-1.8,1.9-2.5,4.6
				c-0.5,2-2.6,9.5-3.5,10.6l-2.1-11.4l-12.5,5.1c-0.2,8.1,1.1,16.8,0.3,25.1c-1.4-2.4-3.8-18-7.1-22.3l-5.4,2.1
				c-0.1,3.8-0.9,24-1.7,26c-0.5-1.7-0.6-4.3-0.9-6.1c-1-5.8-2.2-11.6-4-17.2l-6.8,2.8c1.5,6,4.3,13.4,5,19.6c-1-1.3-1.4-3.3-2-4.8
				c-0.6-1.6-1.2-3.1-1.9-4.7c-0.9-2.2-3.4-7.2-3.9-9.1l-8.3,3.5c-0.5,2-0.9,5.9-1.3,8.1c-1,6.3-2.2,12.7-4,18.8l-1.1,3.4
				c0,0-0.1,0.1-0.2,0.2c-0.1-4.7,0.4-9.5,0.2-14.4c-0.1-3.8-0.4-9.5-1.1-13c-1.3,0.4-6.2,2.3-6.9,3.1c0,4.1,0.8,8.5,0.7,13
				l-9.3,4.4c0-4.7,0.3-8.8,0-13.6c-1.1,0.1-5.9,2.5-7.2,3.2c-0.4,3.5-0.3,8.3-0.6,12.1c-0.5,7.1-1.8,14.3-3.5,21.2
				c-0.7,2.8-2.3,7.4-2.7,9.8c1.6-0.7,2.8-1.6,4.2-2.5c5.7-3.3,5.3-2,6.3-6.5c0.4-1.7,0.7-3.5,1.1-5.2c0.3-1.9,0.7-3.8,0.9-5.7
				c0.3-2.2,0-3.6,1.6-4.6c2.4-1.3,6.3-3.5,8.7-4.4c-0.6,5.7-1,11.4-2.1,16.9c3.9-1.8,7.7-4.4,11.7-6.3c2.9-1.3,3.6-1,4.4-4.5
				c1.4-5.6,0.8-6.9,2.7-7.9l2.9-1.4c1.1-0.5,3.2-1.7,4.3-2l1.6,7.5c1.2-0.3,5.9-2.7,7.6-3.5c7.1-3.4,7.4-2.4,7.7-4.8l0.4-4.2
				c0.2-2,0.3-3.8,0.4-5.7c0.3-4,0.3-8,0.7-12c1.9,2.7,3.2,17,4.9,20.3c0.7-0.3,7.8-2.8,8.3-3.6c1.4-2.3,1.1-26.9,1.3-31.2
				c1.2,1.5,2.2,12.9,2.4,14.4c0.5,3.9,0.8,12.6,1.2,15c1.6-0.5,5.3-1.5,6.5-2.5c-0.1-2.8-0.4-5.6-0.5-8.3c0-1.4,1.4-5.6,2.2-6.5
				c1,1,6.6,10.5,7,12l22.3-7l-0.6-7.9c-1.8,0-7.5,3.2-9.6,3.2l-0.8-7c1.6-1.1,6.8-2.6,7.7-3.7l-1.7-7.3c-2.3,0.7-4.8,2.8-7.2,3.6
				l-1.4-6.1c2-0.6,6.3-3.7,8-4.7l-0.8-2.3c0.8,0.8,1.5,2,2.3,3.1c0.7,1,1.4,2.1,2.1,3.1c1.4,2.2,2.7,4.1,4,6.6
				c1.7,3.3,2,3.7,2.5,7.9c0.4,3.3,0.7,6.3,1,9.8l6-2.2c0.1-2.7-0.8-8.2-1.3-10.9c-1.1-6-0.6-5.7-1.1-10.8
				c-1.4-12.4-2.9-12.1-4.6-19.4c5.1,9.1,8.7,17.3,11,27.6c0.8,3.5,1,8,1.8,11c3.6-1.4,11.3-5.5,13.2-7.6c-0.1-1.8-2.3-9.6-3.1-11.3
				c-1.1,1.1-2.1,1.9-3.1,3c-1,1-2.1,2.3-3.4,2.9l-3.1-10.1c1.1-0.5,1-0.9,1.6-1.7c1.7-2.2,3.1-3.1,1.6-5.9c-0.9-1.7-4-7.2-4.9-8.2
				c-0.9,1.5-1.5,5.1-2.9,6.2c-0.7-1.4-3.6-6.8-4.6-7.5c0.4-2.4,1-3.8,1.1-6.4c0.2-3.3-0.8-3.1-2.1-5L-470,476.4z"/>
			<path fill="#292145" d="M-523.1,770.3c0.3,0.8,0.9,1.5,1.6,2.1c4.6,3.7,1.3,3.9,6.9,4.4c4.5,0.3,9.3,0.6,13.8,0.9
				c18.4,0.9,36.7,2.7,55.4,3.7c4.7,0.3,9.3,0.8,14,1c4.3,0.2,9.5,0.4,13.7,0.9l-19.8-17.7c-0.6-0.5-0.4-0.6-0.9-1.1l-8.3-7.4
				c-0.5-0.3-0.8-0.5-1.2-0.9l-3.2-2.7c0-0.8,0.5,0-0.6-0.9l-7.3-6.5c-0.5-0.5-4.4-3.5-4.8-4.3c-10,2.4-22.1,3.4-32.7,5.4
				c-5.2,1-11,1.8-16.2,2.6c-4.8,0.7-11.3,1.5-16,2.6L-523.1,770.3z"/>
			<path fill="#434343" d="M-458.6,620.4c-1.2,1.1-9.9,13.8-12,16.9c-0.6,0.8-1.1,1.5-1.7,2.3c-4.7,7.3-39.9,56.3-40.3,57.6
				l21.2-3.1l7.9-6.3c0.9-0.8,2-1.5,2.7-2.1l26.5-21.7c0.7-0.5,0.7-0.5,1.4-1.1l25-20.4c1.4-1.1,7.1-5.5,7.7-6.5l-40.6-3.1
				L-458.6,620.4z"/>
			<path fill="#392E61" d="M-524.9,768.5l1.8,1.8l-5.7-17.8c4.8-1.1,11.3-1.9,16-2.6c5.3-0.8,11-1.6,16.2-2.6
				c10.6-2,22.7-3,32.7-5.4c-0.5-0.5-1-0.8-1.5-1.3c1.2-1,22.4-9.1,25.8-10.4c5.8-2.3,21.4-8.2,26-10.3c-1,0.1-2.5,0.6-3.8,0.8
				l-90.3,14.3c-2.8,0.4-4.6,1.9-6.9,3.1l-25.1,13.5c-0.1,0-0.1,0.1-0.2,0.1l-0.5,0.4c0.6,0.7,1.3,1.6,1.9,2.2
				c3.1,2.7,1.2,1.2,3.8,4.1c0.8,0.9,1.3,0.9,2.1,1.9c3.4,4.1,1.9,2.1,3.9,4.1l2.7,3.3C-525.5,768.1-525.4,768.1-524.9,768.5z"/>
			<path fill="#212121" d="M-526.2,780c0.3,0.7,0.3,0.5,0.6,1.3c-9.5-2-19.3-3.4-28.9-5.3c-4.8-0.9-9.6-1.8-14.5-2.6
				c-2.4-0.4-4.8-0.9-7.2-1.3c-1.2-0.2-2.4-0.4-3.6-0.7c-0.7-0.1-1.1-0.3-1.7-0.5c-1.9-0.5-1.6,0.1-1.8,0.3
				c2.1,0.5,49.6,19.8,55.1,21.9c5.1,2,7.7,1.8,13.1,2.3c4.2,0.4,25.8,2.5,28.2,2.3c-0.4-1.3-7.7-13.5-7.7-13.5
				c-0.2-0.7-25.6-1.9-29.1-2.4C-525.7,781.7-525,781.1-526.2,780z"/>
			<path fill="#615651" d="M-494.9,557c-5,2.1-5.6,3.1-8.4,8.8c-2.5,5.1-1.4,2,2.6,11l-3.7,1.1l-6.5-6.5l-2,0.4
				c-0.7,0.5-0.4-0.1-0.3,0.9c0.8,0.3,4,3,4.8,3.7c2.8,2.3,1.3,0.6,1.8,4.5l0.2,0.8c0,0.1,0,0.2,0.1,0.2c0.3-1,0.5-3.2,0-4
				c0.1,4.1,0.3,7.6,0.1,11.8l4.8-1.9c0.1,0,0.4-0.2,0.4-0.2l0.3-0.2l0.1-0.1l0.4-0.4l5.5-6.3c-2.2,0.4-4.3,2.1-6.5,3.1l-1.8-3
				c1.6-1.3,3.7-2,5.3-3.2l-4.2-8.5l12-10.5l2.8,3.1c0.5,0.7,0.4,0.4,0.9,1.1c0.4,0.5,0.5,0.6,0.9,1.1c0.9,1,0.5-0.2,0.7,1.2
				c0.3,2.1-1.5,7.5-0.3,10.8c1.1,3.3-0.2,3.2-0.8,6.3c1.1-0.9,2.9-4.6,3.9-6.3c0.6-1,3.1-5.9,3.7-6.3c-0.4-3.2-0.9-6.5-2-9.6
				c-0.4-1.1-1.5-3.3-1.9-3.8c-0.5-0.4-3.1-1.8-4-2.1c-0.6,0.8-3.1,1.2-4.3,1.7C-491.8,556.3-494.1,557.3-494.9,557z"/>
			<path fill="#B39C93" d="M-487.9,587.6c-0.4,0.7-1,1.4-1.5,2.1s-0.9,1.3-1.4,2c-0.7,1-2.1,3.2-2.9,3.9l0.1-1.4
				c-4.5,4-9.4,1.3-13.9,1.9l-0.7,0.2c0.9,0.4,2.4,1,3.2,1.7c1.5,1.2,4.6,8.6,5.8,9.4c2.4,1.5,3.5,0.9,6.4,0.2
				c4-1.1,2.8-1.4,4.8-4.7c2.3-3.9,4.2-8.3,6.6-12.3c1.2-2.1,4-12,4.3-14.6c-0.8,0.8-3.4,6-4.1,7.4c-1,2-1.3,1.7-3.1,2.7
				c-0.7,0.4-3.2,2.2-3.4,1.7C-487.7,587.6-487.8,587.6-487.9,587.6z"/>
			<path fill="#3C312C" d="M-604,570.1c-1.2,1.2-4.3,2.3-6,3.2c-1.9,1-4.3,2.5-6.1,3.2c-1.1,0.8-4.9,3.2-6.3,3.7l-0.5,0.5
				c0.9,0.7,1.7,1.4,2.7,2.2c0.9,0.7,1.8,1.6,2.8,2c1.4-1.2,3-2.3,4.4-3.3c0.8-1.4,1.2-0.4,1.7-2l-1.2-0.6l4.2-1.1
				c0.7-1.3,4.1-3.1,5.4-3.9c1.5-0.9,4.6-2.4,6.5-2.8c1.9-1.1,5.8-1.7,8.1-1.4l1.2,0.2c-0.3-1.5-0.1,0-0.9-1.5
				c-2.9-1.6-3.6-2.7-8.2-1.3C-598.2,567.9-602.6,570-604,570.1z"/>
			<path fill="#3E332E" d="M-524.1,562.5c-6,4.9-7.7,3.4-9.6,8.4c-1.6,4.2-3.2,8.6-4.9,12.7c-0.4-0.3-0.6-0.5-1-1l-1-1.1l2.4,11.8
				c0.5-0.5,0.5-0.8,1.2-1.6l3.8-4.8c1.2-2.1,2.4-5.8,3.4-8.2c-0.4-0.5-0.1-0.1-0.5-0.5l-1.2-1.1c0.4-1.8,1.6-4.4,2.3-6.1
				c1.3-3.1,1.2-4.1,3-5.2l4.9-3.3c1.5-1,3.3-2.2,4.6-3.3L-524.1,562.5z"/>
			<path fill="#DBC4BB" d="M-519.8,609.6l-16.6,35.1c2.1-2.5,4.1-6.4,6-9.2c5-7.8,9.3-15.6,14.9-23.4c0.8-1.1,2.6-3.5,3.1-4.5
				c-0.7-0.7-14.2-4.7-16.2-5.1c1.1,0.7,4,2.1,4.9,2.8C-522.5,606.2-521.4,608.2-519.8,609.6z"/>
			<path fill="#907D77" d="M-630.1,628.1c0.3,0.3,0.1,0.2,0.5,0.5c1.5,1.4,4.4,3.8,6.3,3.7c3.3-0.3,6.7-0.7,10-1.1
				c0.5,3.2,0.6,3.9,0.6,7.2V635l1.1-0.8c1.7-1,5.6-2.7,6.8-3.8c-0.7-1.5-2-2.8-2.5-4.4c-3.5,0.5-8.1,1.8-11.6,2.6
				C-627.3,630.8-624.3,629.5-630.1,628.1z"/>
			<path fill="#917E79" d="M-605.7,656.7l4.4,5c0.7,0.6,0.8,0.9,1.4,1.7c1.6,2.2,3.6,1.8,4.1,8.3c0.2-0.6,0.6-1.1,0.7-2.1
				c0.1-0.8,0.2-1.7,0.3-2.5c0.2-1.3,0.9-3.1,1.8-3.8l0.4-1.2l1.1-2.6l-1,0.8c-0.8,0.9-0.4,1.1-2.1,2c-0.3-3.2,2.6-5.6,3.5-8.3
				c-0.5,0.3-2.5,1.9-3,2.5c-1,1-1.1,2.2-2.9,1.9C-599.9,657.6-602.5,656.7-605.7,656.7z"/>
			<path fill="#1F1B31" d="M-485.9,582.1c-1.4,0.6-2.5,1.7-4.1,2.4c-0.4-1.2-1.4-2.1-1.5-3.4c-0.1-0.6,0.1-1.6,0.2-2.3
				c0-0.3,0.1-0.7,0.1-1c-0.1-0.6-0.1-0.4-0.2-0.7c-0.7,0.7-0.7,1.2-1.6,2c-0.7,0.6-1,1.1-1.6,1.6l-5.5,6.3c1-0.1,1-0.1,2-0.5
				c1.7-0.7,3.7-1.9,5.5-2.4c0.3,1,1,1.7,1.6,2.5c1.9-0.7,4.6-2.4,5.9-2.6c0.6-1.3,2.7-2.1,4.7-6.3c1.6-3.3,2.8-5.4,2.2-8.1
				c-0.6,0.4-3.2,5.3-3.7,6.3C-483,577.5-484.8,581.2-485.9,582.1z"/>
			<path fill="#554B46" d="M-506.3,582c-0.7,1.8-0.2,6.5,0,8.7c4.8,1.7,3,2.2,6.1,0l5.2-4.1c0.9,0.5,1.5,0.9,2.4,1.6l-1.1,6
				l-0.1,1.4c0.8-0.7,2.1-2.9,2.9-3.9c0.5-0.7,0.9-1.3,1.4-2s1.1-1.4,1.5-2.1c0.9-1.2,1.7-2.3,2.6-3.6c-1.3,0.3-4,2-5.9,2.6
				c-0.6-0.8-1.3-1.5-1.6-2.5c-1.8,0.5-3.8,1.7-5.5,2.4c-1,0.4-1,0.4-2,0.5l-0.4,0.4l-0.1,0.1l-0.3,0.2c0,0-0.3,0.1-0.4,0.2
				l-4.8,1.9c0.3-4.2,0.1-7.6-0.1-11.8C-505.7,578.9-506,581-506.3,582z"/>
			<path fill="#2A2A2A" d="M-611.3,579.7c1.6,0.3,2.6,0.4,3.5,1.5c0.2,1.6-0.3,2.4,0.6,3.4c1.4,0.4,3.4,0.5,3.2-1.2
				c0.2-0.9-0.4-0.3,0.3-0.6l0.5,0.3l-0.2-0.5l-1.6-0.6c0.4-0.5,0-0.1,0.5-0.5l0.4-0.2c0.6-0.3,0,0.1,0.8-0.3
				c0.2-1.3,0.4-0.9,1.5-1.5l1.3-0.3c3.5,0.8,3.9,1.3,6.4,2.7c0.3-0.3,0.2,0.1,0.3-0.6c0.1-0.4,0.1-0.2,0-0.7s-0.4-0.8-0.5-1.1
				c-2-0.9-12-1.9-14-1.4l-4.2,1.1L-611.3,579.7z"/>
			<path fill="#EFDAD1" d="M-628.5,616.9c1.1-5.8,4.5-14.6,6.3-20.6c0.4-1.2,0.7-2.3,1.1-3.5c1-2.8,0.2-1.3-0.3-2.8l-0.9-0.5
				c-0.6,0.6-7.8,29.3-7.8,30.8l0.8-1.6C-628.9,617.4-629.2,617.8-628.5,616.9z"/>
			<path fill="#72635E" d="M-605.8,651.6c3.2-0.3,12.7-0.2,15.2,1.4l4.2,1.3c-0.3-0.8-1.3-1.9-1.9-2.7c-1.4-1.8-0.2-1.7-2.6-1.8
				l-15.5-0.4C-605.8,650.5-605.8,650.2-605.8,651.6z"/>
			<path fill="#52B1DA" d="M-603.2,581c0.9,0,0.6-0.1,1.4,0.3l0.7,0.6c0-0.1,0.1,0.1,0.2,0.2l-2.3,0.6l0.2,0.5
				c0.2,0.3,0.5,0.4-0.1,0.7c-1,0.4-0.1,0.4-0.7-0.3c0.2,1.7-1.9,1.6-3.2,1.2c2.1,4.4,5.9,0.3,5.9,0.3c-1.3,2.6-2.5,2.1-4,3.7
				c2.2-0.6,4.6-1.2,6.2-2.4l-0.2-4.4l-0.5-1.3c0,0.6-0.1,0.6-0.1,0.7c-1.3-1.1-0.3-0.8-1.8-1.7C-602.9,580.1-603,579.7-603.2,581z"
				/>
			<path fill="#8A7976" d="M-611.8,618c0.1-0.9,2-4,2.5-4.8c4.9,0.3,4.7,1,8.3,6.7c0.4-0.7-1.1-5.6-1.7-6.6c-0.8-1.2-4.7-2-6.3-2.5
				c-0.8,1-1.2,2.5-1.7,3.7C-611.5,615.9-612.4,617.1-611.8,618z"/>
			<path fill="#282726" d="M-599.2,586.2c-1.6,1.2-4,1.8-6.2,2.4l-4.3,0.1c1,1.4,1.6,2,3.8,1.8c2.3-0.9,5.4-2.2,7.4-3.6
				c1.2-0.8,1.7-1.3,1.8-2.3c-0.6,0.5-0.8,0.5-1.2,0.9C-598.7,586-598.3,585.9-599.2,586.2z"/>
			<path fill="#E6CDC2" d="M-589.9,579.6c0.2-1.7,1-4,0.7-5.6c-0.7-1,0.4-0.8-2,0.7c-2.5,1.6-1.4,2.3,0.3,4.1L-589.9,579.6z"/>
			<path fill="#9D8A82" d="M-616.1,576.5c1.9-0.7,4.3-2.2,6.1-3.2c1.7-0.9,4.8-2,6-3.2c-5,1.2-6.9,2.7-10.8,5.3
				c-0.3,0.2-0.5,0.3-0.7,0.4C-616.1,576.3-615.7,576-616.1,576.5z"/>
			<path fill="#5672AC" d="M-599.9,580.5l-0.5-1.3l-1.3,0.3c1.5,0.8,0.5,0.6,1.8,1.7C-599.9,581.1-599.8,581.1-599.9,580.5z"/>
		</g>
	</g>
</g>
</svg>
