<?xml version="1.0" encoding="utf-8"?>
<!-- Generator: Adobe Illustrator 19.0.0, SVG Export Plug-In . SVG Version: 6.00 Build 0)  -->
<svg version="1.1" id="Layer_1" xmlns="http://www.w3.org/2000/svg" xmlns:xlink="http://www.w3.org/1999/xlink" x="0px" y="0px"
	 viewBox="-162 221.9 287 349.3" style="enable-background:new -162 221.9 287 349.3;" xml:space="preserve">
<style type="text/css">
	.st0{fill:#F8F3F0;}
	.st1{fill:#A28D85;}
	.st2{fill:#856F67;}
	.st3{fill:#99867E;}
	.st4{fill:#594943;}
	.st5{fill:#D2BAAF;}
	.st6{fill:#1D1D1C;}
	.st7{fill:#E3CCC1;}
	.st8{fill:#EFDCD3;}
	.st9{fill:#3D322D;}
	.st10{fill:#BFA79D;}
	.st11{fill:#2F302F;}
	.st12{fill:#211D31;}
	.st13{fill:#584842;}
	.st14{fill:#896C63;}
	.st15{fill:#292145;}
	.st16{fill:#434343;}
	.st17{fill:#392E61;}
	.st18{fill:#212121;}
	.st19{fill:#615651;}
	.st20{fill:#B39C93;}
	.st21{fill:#3C312C;}
	.st22{fill:#3E332E;}
	.st23{fill:#DBC4BB;}
	.st24{fill:#907D77;}
	.st25{fill:#917E79;}
	.st26{fill:#1F1B31;}
	.st27{fill:#554B46;}
	.st28{fill:#2A2A2A;}
	.st29{fill:#EFDAD1;}
	.st30{fill:#72635E;}
	.st31{fill:#52B1DA;}
	.st32{fill:#8A7976;}
	.st33{fill:#282726;}
	.st34{fill:#E6CDC2;}
	.st35{fill:#9D8A82;}
	.st36{fill:#5672AC;}
</style>
<g id="Layer_x0020_1">
	<g id="_495801324128">
		<g>
			<g>
				<path class="st0" d="M-103.4,355.1l0.2,4.4c0.9-0.3,0.5-0.1,1.3-0.7c0.5-0.3,0.6-0.4,1.2-0.9c0.1-0.9-0.6,0,0.4-0.9
					c0.6-0.5,0.4-0.3,1.3-0.4c-0.4-0.7-0.1-0.8-1.9-1.5c-0.8-0.3-1.4-0.4-2.3-0.7C-103.5,354.9-103.8,353.6-103.4,355.1z"/>
				<path class="st0" d="M-107.3,355.9l2.3-0.6c-0.1,0-0.1-0.2-0.2-0.2l-0.7-0.6c-0.8-0.4-0.5-0.2-1.4-0.3c-0.8,0.4-0.2,0-0.8,0.3
					l-0.4,0.2c-0.6,0.4-0.1,0-0.5,0.5L-107.3,355.9z"/>
				<path class="st0" d="M-107.9,356.8c0.6,0.8-0.3,0.8,0.7,0.3c0.6-0.3,0.3-0.3,0.1-0.7l-0.5-0.3
					C-108.4,356.5-107.8,355.8-107.9,356.8z"/>
			</g>
			<g>
				<path class="st1" d="M-87.7,406.4c1-0.6,0.3-0.1,1-0.9l19.6-25.8c1-1.5,2.2-2.9,3.2-4.5c0.6-0.8,1.1-1.5,1.7-2.3
					c0.7-0.9,0.9-1.6,1.5-2.2c-0.3,0.5-1.3,0.9-1.9,1.5l-11.5,12.2C-75.7,386.3-87,405-87.7,406.4z"/>
				<path class="st1" d="M-84.9,428.8l-0.7-3.3l-3.1-6.5c-2.2-4.1-3.6-5-6-8.3l-4.1-5.3c-0.5-0.8-1.6-1.8-1.9-2.4
					c1.1,2.6,2.5,4.1,3.9,6.7C-95.4,412.2-85.1,429.7-84.9,428.8z"/>
				<path class="st1" d="M-111.6,335.6c-1.7,1.4-2.4,1.6-3.7,3.4l-5.1,5.5c-0.6,0.7-0.9,1.3-1.5,1.9c-1.8,1.6-1.2,1.3-2.4,2.7
					l-1,1.2c1.7-0.8,3.2-2.9,4.8-4.2l5.8-4.8c0.5-0.5,0.5-0.5,1.1-0.9l6.4-5.8c1.3-0.9,0.9-1,1.9-1.9c0.4-0.4,0.7-0.5,1.1-0.9l1-1.1
					c-1.6,0.5-3.3,1.6-4.5,2.3L-111.6,335.6z"/>
				<path class="st1" d="M-113.8,368.5c1.1,0.1,2.7,1.9,6.8,3.4c2,0.7,5.6,2.3,7.6,2.6c-1.6-1.2-11-5.3-12-6.2l-4-1.7
					C-114.6,367.9-114.4,366.9-113.8,368.5z"/>
			</g>
			<g>
				<path class="st2" d="M-130,279c-0.1-0.1-0.1-0.2-0.2-0.2l-0.5-0.5c-0.3-0.2-0.6-0.4-0.9-0.5c-0.6-0.3-1.3-0.8-1.8-1
					c-3.6-2.1-7.2-4-10.3-6.5l-10.8-8.6c-0.7-0.6-0.7-0.8-1.6-1.2l9,13.1c2.1,3.1,2.4,2.3,7.7,3.5C-136.9,277.7-132.5,278.8-130,279
					z"/>
				<path class="st2" d="M-131.8,256.1c-0.7-2-3.5-6.5-4.8-9.3c-0.6-1.3-0.4-0.7-2.2-2.1l-11.8-9.4c-0.6-0.6-1-0.8-1.6-1.3
					c-0.9-0.7-0.6-0.8-1.7-1.2c0,4.8,0.9,3.2,2.8,5.5c2.2,2.6,2.7,2,4.4,4.2c0.9,1.1,2.1,1.6,3.1,2.7c1.4,1.4,0,0.5,2.7,2.7
					c2.3,1.8,1.6,1.7,2.9,2.8c1.2,1,1.9,1.4,3,2.7C-134.3,254.3-132.8,255.5-131.8,256.1z"/>
				<path class="st2" d="M-120.1,232.5c5.5,3.7,9,3,15.9,3c6,0,12,0.3,18,0.2L-120.1,232.5z"/>
			</g>
			<g>
				<path class="st3" d="M1.2,354c0.6-0.6,0.9-1,1.6-1.6c0.9-0.9,0.9-1.3,1.6-2c0.2,0.3,0.2,0.1,0.2,0.7c0,0.3,0,0.7-0.1,1
					c-0.1,0.7-0.3,1.7-0.2,2.3c0.1,1.3,1.1,2.2,1.5,3.4c1.6-0.6,2.7-1.8,4.1-2.4c0.6-3.1,2-3,0.8-6.3c-1.1-3.3,0.6-8.7,0.3-10.8
					c-0.2-1.4,0.2-0.1-0.7-1.2c-0.4-0.5-0.5-0.7-0.9-1.1c-0.5-0.6-0.4-0.4-0.9-1.1L6,331.9l-12,10.5l4.2,8.5
					c-1.5,1.2-3.7,1.9-5.3,3.2l1.8,3C-3.1,356.1-0.9,354.4,1.2,354z"/>
				<path class="st3" d="M-117,354.9c1.4,0.3,2.4,3.1,2.3,4.5c-0.2,2.1-1,4.1-1.4,6l6,0.7l-0.9-1.5l1.2-0.9
					c-2.2,0.2-2.8-0.4-3.8-1.8l4.3-0.1c1.5-1.5,2.7-1.1,4-3.7c0,0-3.8,4.1-5.9-0.3c-0.8-1.1-0.4-1.8-0.6-3.4
					c-0.9-1.1-1.9-1.2-3.5-1.5C-115.8,354.6-116.1,353.5-117,354.9z"/>
				<path class="st3" d="M-112.3,351.3c2.1-0.5,12,0.5,14,1.4l1.4-0.4c-0.8-2.5-2.7-1.7-4.7-3.2c0-1.2,0.8-3.3,1.2-4.5
					c-1.9,0.4-5,2-6.5,2.8C-108.2,348.2-111.5,350-112.3,351.3z"/>
			</g>
			<g>
				<path class="st4" d="M29.9,353.6c1.2,0.1,4.7,4.1,6.4,5.5c2.8,2.3,2.1,2.2,3.2,3.1c1.2,1,2.1,1.8,3.5,2.9
					c-0.1-3.4,1.6-11.2,2.3-15c0.7-4.3,2-10.5,2.2-14.6c1.5,1.5,0-0.4,1,1.4c0.2,0.3,0.4,0.7,0.6,1.1c0.5,0.9,0.7,1.5,1.3,2.4
					l2.7,4.6l1.9-17.8l-0.4,1.1c-0.7-1.7-4-9.3-5-10.5L32.7,327l1.5,3.1c0.8,1.6,1.1,1.5,0.5,3.3c-1,3.3-6.1,19-6.1,20.2L29.9,353.6
					z"/>
				<path class="st4" d="M-44.6,354.8l1,1.1c0.5,0.5,0.6,0.7,1,1c1.7-4.2,3.3-8.5,4.9-12.7c1.9-4.9,3.6-3.5,9.6-8.4l-28.5,12.8
					c-0.9,0.6-0.9,0.8-1.7,1.4l-1.7,1.4c-0.9,0.7-0.8,0.6-1.7,1.5c3.4-0.9,13.7-5,15.6-5.3L-44.6,354.8z"/>
			</g>
			<g>
				<path class="st5" d="M-100.4,344.6c-0.4,1.2-1.2,3.3-1.2,4.5c2,1.4,3.9,0.7,4.7,3.2l-1.4,0.4c0.2,0.3,0.5,0.7,0.5,1.1
					c0.1,0.5,0.1,0.3,0,0.7c-0.1,0.7,0,0.3-0.3,0.6c0.1,0.1,0.4,0.6,0.4,0.7c-0.9,0.3-0.3,0.1-0.9,0.4l-0.5,0.4
					c-0.9,0-0.7-0.1-1.3,0.4c-1.1,0.9-0.3,0-0.4,0.9c-0.1,1-0.6,1.5-1.8,2.3c-2,1.4-5.1,2.7-7.4,3.6l-1.2,0.9l0.9,1.5l-6-0.7
					c0.5-1.9,1.3-3.9,1.4-6c0.1-1.4-0.9-4.2-2.3-4.5c-1.4,1.1-3,2.2-4.4,3.3c-1-0.4-1.9-1.3-2.8-2c-1.1-0.9-1.8-1.5-2.7-2.2l0.5-0.5
					l-3.9-1.6c0.5,1.3,0.9,1.6,1.7,2.8c2.7,4.5,4.4,5,3.3,8.5c0.5,1.6,1.2,0.1,0.3,2.8c-0.4,1.2-0.8,2.3-1.1,3.5
					c-1.8,6.1-5.2,14.8-6.3,20.6l-2,8.2c1.3,0.3,3.4,1.5,4.7,2.1c3,1.3,2.3,0.8,5.5,0.1c3.7-0.7,7.4-1.7,11.1-2.5
					c-1.2-0.9-4-1.5-5.7-1.9c0.2-0.8,1-2,1.5-2.7c0.5-0.6,0.7-0.6,1-1c0.2-0.3,0.2-0.2,0.3-0.5c0.3-0.6-0.1,0.3,0.2-0.6
					c-0.6-0.8,0.4-2,1-3.5c0.5-1.2,1-2.7,1.7-3.7c1.6,0.5,5.5,1.3,6.3,2.5c0.6,1,2.1,5.8,1.7,6.6c0.7,0.7,0.6,0.4,0.8,1.8l0.3,1.9
					c3.2-3-1.6-11.4-3.3-14.7c-2.2-4.5-4.6-9.2-7-13.2c0.5-0.5-0.6,0,0.4-0.4c-0.6-1.6-0.8-0.6-1.6-1.9l4,1.7
					c0.4-0.6,2.5-0.7,3.5-0.8c0.3-2.8,0.6-2.6,2.5-4c0.6-0.4,0.5-0.3,1-0.7c0.5-0.5,0.2-0.3,0.9-0.8l5.1-4.6c0.7-0.7,0.9-1,1.9-1.6
					c0.1-0.1,1.1-0.6,1.1-0.6c0.8-0.3,0-1,0.8,0.1l0.7-2.3l-1-0.8c-1.7-1.8-2.8-2.5-0.3-4.1c2.4-1.5,1.3-1.7,2-0.7
					c0.5-0.9,0.8-2.7,0.8-4C-94.6,342.9-98.5,343.5-100.4,344.6z"/>
				<path class="st5" d="M9.8,327.3c0.9,0.4,3.5,1.7,4,2.1c0.5,0.4,1.6,2.7,1.9,3.8c1,3.1,1.6,6.4,2,9.6c0.6,2.7-0.6,4.8-2.2,8.1
					c-2.1,4.2-4.1,5-4.7,6.3c-0.8,1.3-1.7,2.4-2.6,3.6c0.1,0,0.2,0,0.2,0.1c0.2,0.5,2.6-1.3,3.4-1.7c1.8-1,2-0.6,3.1-2.7
					c0.7-1.3,3.3-6.5,4.1-7.4c-0.3,2.6-3.1,12.5-4.3,14.6c-2.3,4-4.3,8.3-6.6,12.3c-1.9,3.3-0.8,3.6-4.8,4.7
					c-2.8,0.8-3.9,1.3-6.4-0.2c-1.2-0.7-4.3-8.1-5.8-9.4c-0.8-0.7-2.3-1.2-3.2-1.7l0.7-0.2c4.5-0.6,9.4,2.1,13.9-1.9l1.1-6
					c-0.9-0.7-1.5-1.1-2.4-1.6l-5.2,4.1c-3.1,2.3-1.4,1.7-6.1,0c-0.2-2.2-0.7-6.9,0-8.7c0-0.1-0.1-0.2-0.1-0.2l-0.2-0.8
					c-0.5-3.9,0.9-2.2-1.8-4.5c-0.8-0.7-4-3.4-4.8-3.7c-0.7,1.1-0.4,9.4-0.4,11.7c0,6.4,0.9,6.8,1.4,11.2c2-0.1,0.3-0.1,1,0.4
					c0.8,0.8,1.7,1.2,2.7,1.7c2.5,1.5,3.3,4.1,5.6,7.5c2.3,3.4,2.1,4.6,4,4.7c2.7,0.2,6.1,0.5,8.7,0.4c1.2-4.9,19.2-27.1,17.5-47.6
					c-0.3-3.5-1-5.7-2.4-8.4c-1.2-2.3,1-4.8,2.9-7.1L9,326.6C9.4,327,8.8,326.7,9.8,327.3z"/>
				<path class="st5" d="M-30.8,350.1c0.6-0.3,1.3-1.9,1.6-2.6c0.9-1.7,1.5-1.2,3.4-1.4c2.2-0.2,6.9-1.1,8.9-0.9l2-0.4l6.5,6.5
					l3.7-1.1c-4-9.1-5.1-5.9-2.6-11c2.8-5.7,3.4-6.7,8.4-8.8l4.3-1.7l0.3-2.9c-3.4,1-7.7,3-11.1,4.4c-3.6,1.4-7.2,2.9-10.8,4.3
					c-1.9,0.8-11.4,4-12.2,5.2l-3.7,9.3L-30.8,350.1z"/>
			</g>
			<g>
				<path class="st6" d="M-77.6,532.2c0.3,0.8-0.5,0.6,0.9,0.2l32.8-20.2l-0.3-16.8c1.5,0.3,24.2,4.2,25.2,3.5
					c-0.4-1.4-1.4-2.5-2.6-3.5c-0.6-0.5-1.1-0.8-1.6-1.2L-35,485c-4.3-3.2-2.7-2.6-7.9-4c-0.7-0.2-1.5-0.5-2.2-0.7
					c-2.6-0.7-1.8-0.1-2.1-1.2c-1.3,1.1-5.2-1.3-7-1.2c-0.7,0-3.1,2-4,2.7l-10.3,8c-0.7,0.5-0.7,0.3-1.4,1c0.3,0.7,4.3,5.1,5,5.7
					c1,0.7,0.8,0.4,1.6,1.3l3.8,4.2c1.9,2.1,2.2,1.9,5.4,5.5c0.8,1,1.7,2,2.6,2.9c1.1,1,1.9,0.9,2.6,2.8l-25.1,17.9
					C-75.4,530.7-76.5,531.2-77.6,532.2z"/>
				<path class="st6" d="M-36.6,465.1c-0.7-0.2,0-0.1-1-0.5l-0.5,7.3c-2.5,0-8.8-0.9-10.5-0.3l7.9,3.4c4.7,1.9,9.9,4.2,14.7,6.3
					c1.2,0.5,2.4,0.9,3.6,1.5c1.7,0.9,4.6,7,6.5,9c0.5-0.9,1.1-2.4,1.6-3.3c1.3-3,2.4-2-2.7-8.6c-0.8-1-3.5-4.5-3.3-5.4l9-18.4
					c1.3-2.5,4.9-10.8,6-12.3c-0.9,0.8-1.9,2.5-2.7,3.6l-17.3,25.2l-12.2-0.5c0-1.1,0.1-3.3,0.2-4.2
					C-37.2,464.5-36.1,465.4-36.6,465.1z"/>
			</g>
			<g>
				<path class="st7" d="M-107.2,334.6l-6.4,5.8c-0.6,0.4-0.6,0.4-1.1,0.9l-5.8,4.8c-1.6,1.3-3.1,3.4-4.8,4.2l1-1.2
					c1.3-1.4,0.7-1.1,2.4-2.7c0.7-0.6,1-1.2,1.5-1.9l5.1-5.5c1.3-1.8,2.1-2,3.7-3.4c-3.5,0.3-4.8,1.8-6.9,3.9l-6.3,8
					c-4.3-2.5-6-4.4-10.2-4.7l1.7-32.2c0.2-2.8,2.7-6.1,4.6-9.1c0.9-1.4,1.7-3,2.7-4.2l33.3-2.9c0.8,2,1.5,9.1,1.9,11.7
					c0.4,2.7,0.1,2.5-0.9,4.9l-5.9,14.2c-0.1,0.9,2.7,9.1,3.1,10.7c-4.3-0.9-11.8-1-11.9-1.1C-107.6,334.7-106.6,335.1-107.2,334.6z
					 M-121.8,292.6c-1.4,0.2-2.7,0.9-4.1,1.3c-2.6,0.8-2.9,2-5.1,5.7c-0.8,1.3-1.6,2.1-2.1,3.6c-1.4,1.8-1.4,1.2-1.7,4.2l-3.7,38.3
					l8,10.7c2.4,3.3,3.3,3.8,2.9,6.3c-2.2,12-6.4,25.4-8.7,37.3c1.1,0.4,0.4,0.2,1.2,0.8c0.4,0.3,0.5,0.2,0.9,0.6
					c5.8,1.4,2.8,2.6,11.2,0.6c3.5-0.9,8.2-2.1,11.6-2.6c0.5,1.6,1.8,2.9,2.5,4.4c-1.1,1-5.1,2.7-6.8,3.8l-1.1,0.8l0,3.4
					c0,1.4-0.2,2.7-0.3,4c-0.1,1.7-0.2,1.6,0.8,2.8c3.5,0,18.6,3.1,21.2,4.6c2.4,0.1,1.2,0.1,2.6,1.8c0.7,0.8,1.6,1.9,1.9,2.7
					l-4.2-1.3c-0.2,0.9,0.1,0.3-0.5,1c-0.9,2.7-3.8,5.1-3.5,8.3c1.7-1,1.3-1.2,2.1-2l1-0.8l-1.1,2.6c0.8-0.1,5.7-5.3,6.5-6.2
					c1.1,0.4,2.4,1.5,3.3,2.3c0.7,0.6,2.2,2,3,2.2c-0.1-0.8-0.3-1.5-0.5-2.3l-0.7-2.6c-0.2,0.9-10.5-16.6-11.9-19.1
					c-1.4-2.6-2.8-4.1-3.9-6.7c0.3,0.6,1.4,1.6,1.9,2.4l4.1,5.3c2.3,3.3,3.8,4.2,6,8.3l3.1,6.5c-0.7-4.6-2-9.4-2.9-14.1
					c-0.7-3.7-4.1-5.5-7.4-9.4c-0.7-0.8-1.2-1.4-1.8-2.2c-0.7-0.8-1.9-1.3-2.3-2c-0.5-1.2,3.9-19.9,4.3-20.7l37.8-13
					c1.1,1.7,5.1,12.1,6.2,14.9c0.8,1.8,1,1.6,2.8,2.3c1.3,0.5,2.6,1,3.9,1.5c2.4,0.9,5.6,1.8,7.5,3.2c-3.3,7-7.1,14.1-10.6,21
					l-14.4,29c-0.9,1.3-11.3,5.9-13,6.7c-3.4,1.7-7,3.8-10.4,5.3c-2.3,1-9-2.6-11.9-3.1c0.1-2.8,0.9-6,0.9-8.4
					c-0.8,0.8-1.5,2.5-1.8,3.8c-0.1,0.9-0.2,1.7-0.3,2.5c-0.1,1-0.5,1.5-0.7,2.1l0.4,3c0.8,0.8,1.4,0.7,3,1.3
					c1.1,0.4,2.2,0.8,3.4,1.2c4.2,1.4,4.5,2.3,6.7,1.2l25.1-10.9c0.8-0.5,2.7-4.5,3.3-5.5l29.1-52.3c-0.9-0.3-15.6-7.5-16.4-8.1
					c-0.4-0.3-0.2-0.1-0.6-0.8l-7.8-15.6c-3.9,1.1-36,10.5-36.8,10.3c-1.2,0.2-6.1,3.2-7.4,4c0.6-3.4,3.5-15.3,3.3-17.6
					c-0.8-1-0.1-0.4-0.8-0.1c0,0-1,0.6-1.1,0.6c-1,0.6-1.2,0.8-1.9,1.6l-5.1,4.6c-0.7,0.5-0.4,0.3-0.9,0.8c-0.4,0.4-0.4,0.3-1,0.7
					c-1.9,1.4-2.2,1.2-2.5,4c-1,0.2-3.1,0.2-3.5,0.8c1,0.9,10.4,5,12,6.2c-2-0.4-5.6-1.9-7.6-2.6c-4.1-1.4-5.7-3.3-6.8-3.4
					c-1,0.3,0-0.1-0.4,0.4c2.4,4,4.8,8.8,7,13.2c1.7,3.3,6.5,11.7,3.3,14.7l-0.3-1.9c-0.2-1.3-0.1-1-0.8-1.8
					c-3.5-5.7-3.4-6.4-8.3-6.7c-0.6,0.8-2.4,3.9-2.5,4.8c-0.3,0.9,0.1,0-0.2,0.6c-0.2,0.4-0.1,0.3-0.3,0.5c-0.3,0.4-0.5,0.4-1,1
					c-0.5,0.7-1.3,1.9-1.5,2.7c1.7,0.4,4.5,1,5.7,1.9c-3.7,0.8-7.4,1.7-11.1,2.5c-3.1,0.6-2.5,1.2-5.5-0.1c-1.4-0.6-3.5-1.7-4.7-2.1
					l2-8.2c-0.8,0.9-0.4,0.6-0.7,1.7l-0.8,1.6c0-1.5,7.2-30.2,7.8-30.8l0.9,0.5c1.1-3.5-0.6-4-3.3-8.5c-0.7-1.2-1.2-1.5-1.7-2.8
					l3.9,1.6c1.5-0.5,5.2-2.9,6.3-3.7c0.4-0.5,0-0.2,0.7-0.7c0.2-0.2,0.4-0.3,0.7-0.4c3.9-2.6,5.8-4,10.8-5.3
					c1.4-0.1,5.8-2.2,7.7-2.8c4.6-1.4,5.3-0.2,8.2,1.3c0.2-3,0.7-5.6,0.7-8.8c0-3.2-0.2-6.1-0.5-9.2l0.7-0.4c0.2-1.4,2.4-3.7,3.3-5
					l5.6-7.6c-1.7-2.8-3.3-6.6-4.8-9.6c-2.3-4.7-1.3-7.3-2.5-11.7L-121.8,292.6z"/>
				<path class="st7" d="M8.3,385.2l-3.4,4.9c-1.1,1.6-2,3-3.1,4.6l-31.3,46.7c-1.2,1.7-2.1,3.1-3.2,4.8c-1.8,2.7-5.1,14.6-6.8,16.5
					c0.5,1,0.1,0.3,0.9,1c0.7,0.6,0.4,0.1,1,0.9c1,0.3,0.2,0.2,1,0.5c1.4-2.9,12-16.8,14.9-21.1l31.9-43.5c0.7-0.9,1.4-2,2.1-3
					l10.6-14.5c0.5-1.2,2.9-14.9,3-16.8c-0.8,0.5-3.7,4.4-4.3,4.9l-9,9.6C11.2,382.1,8.3,384.4,8.3,385.2z"/>
			</g>
			<g>
				<path class="st8" d="M-87.7,406.4c0.7-1.4,12-20.1,13.6-22l11.5-12.2c0.6-0.5,1.6-1,1.9-1.5c-0.5,0.6-0.8,1.2-1.5,2.2
					c-0.6,0.8-1.1,1.5-1.7,2.3c-1.1,1.6-2.2,3-3.2,4.5l-19.6,25.8C-87.4,406.4-86.8,405.9-87.7,406.4z M-85.6,425.5l0.7,3.3l0.7,2.6
					c0.1,0.7,0.4,1.5,0.5,2.3c-0.8-0.2-2.3-1.7-3-2.2c-0.9-0.7-2.2-1.8-3.3-2.3c-0.8,0.9-5.7,6.1-6.5,6.2l-0.4,1.2
					c0,2.4-0.8,5.6-0.9,8.4c3,0.5,9.7,4.1,11.9,3.1c3.4-1.5,7-3.6,10.4-5.3c1.7-0.9,12.1-5.5,13-6.7l14.4-29c3.5-6.9,7.3-14,10.6-21
					c-1.9-1.4-5.2-2.3-7.5-3.2c-1.3-0.5-2.6-1-3.9-1.5c-1.8-0.7-2-0.5-2.8-2.3c-1.1-2.7-5.2-13.2-6.2-14.9l-37.8,13
					c-0.4,0.8-4.8,19.5-4.3,20.7c0.3,0.7,1.6,1.3,2.3,2c0.7,0.8,1.2,1.4,1.8,2.2c3.4,3.9,6.8,5.7,7.4,9.4
					C-87.6,416.1-86.3,420.9-85.6,425.5z"/>
				<path class="st8" d="M-111.6,335.6l3.8-2.5c1.2-0.7,3-1.8,4.5-2.3l-1,1.1c-0.4,0.3-0.7,0.5-1.1,0.9c-1,0.9-0.6,1-1.9,1.9
					c0.6,0.5-0.4,0.1,0.7,0.3c0.1,0,7.6,0.2,11.9,1.1c-0.5-1.6-3.2-9.8-3.1-10.7l5.9-14.2c1-2.4,1.4-2.2,0.9-4.9
					c-0.4-2.6-1.1-9.7-1.9-11.7l-33.3,2.9c-0.9,1.2-1.8,2.8-2.7,4.2c-1.9,3-4.4,6.3-4.6,9.1l-1.7,32.2c4.2,0.3,5.9,2.2,10.2,4.7
					l6.3-8C-116.3,337.3-115,335.9-111.6,335.6z"/>
			</g>
			<g>
				<path class="st9" d="M-83.3,224.2c1.2,0.7,49.7,4.4,60.4,7.5c4.7,1.3,5.6,2.6,8.6,4.9c1.5,1.1,4.9,5.6,5.9,7.6
					c2.7,5.4,4.1,10.5,1.7,16.4c-0.8,2.1-1.6,2.7-2.8,4.1l-2.6,2.6c-3.3,3.2-18.7,12.2-21.6,13.8c-5.7,3.1-11.7,6.2-17.8,9.3
					c-3,1.5-6,3-9,4.4c-2.6,1.3-6.4,3.2-9.2,4.1l-0.4-17.8c-1.9,5-3.8,11.4-5.6,16.8c-1.6,4.8-0.9,3.9,0.1,8.8
					c0.5,2.1,1.4,7.4,2.2,9.1c9.6-4,18.7-8.2,28.9-12.4c15-6.2,21.4-6.6,37-14.7c2.1-1.1,4.8-2.6,6.5-3.8c2.1-1.4,4.1-2.8,6.2-4.1
					c1-0.7,1.9-1.4,3-2.2l10.9-9.9c2.3-2.9,3.9-7,4.7-10.8c0.4-2.3,0.3-8.4,0.5-9.3c-0.8-3.6-0.7-3.1-5.7-6.5
					c-0.8-0.6-1.7-1.1-2.4-1.6l-4.8-3.5c-0.9-0.6-1.5-1.1-2.3-1.7c-6.8-5.3-10.7-6.5-18.1-10.4c-1.4-0.8-3.8-2.2-5.1-2.7
					c-2.5-0.5-13.9,0.4-17.3,0.6c-5.6,0.4-11.3,0.6-16.9,0.8C-59.7,223.9-71.9,224.4-83.3,224.2z"/>
				<path class="st9" d="M-133.5,296.8c2.4-4.4,2.6-4.4,5.3-5.5c7.6-3.1,15.8-5.7,23.7-8.5c5.3-1.9,10.6-3.8,15.9-5.6l13.8-4.8
					c0.9-0.3,1.4-0.4,2.1-1c-4.2,0.5-9.1,1.9-13.4,2.8c-4.3,0.8-8.7,1.8-12.9,2.7c-8.7,1.9-17.4,3.7-26.2,5.6
					c-2.6,0.6-15.3-4.2-20.1-5.7c-2-0.6-2-1.5-4.6-5.1l-3.4-4.6c-0.6-0.8-0.9-1.3-1.6-2.1l-3.4-4.6c-0.3-0.4-2.6-4.2-3-4
					c0,1.5,5.1,24.5,5.9,28.6c0.3,1.5,0.4,2.5,1.3,3.3l13.2,8.2c1.6,0.9,4,2.7,5.4,3.2L-133.5,296.8z"/>
				<path class="st9" d="M56.9,305.1l-18.3,9c-13.7,6.6-7.3,3.5-14.9,12.2c0.3,1.3,4,7.3,5,8.8c1,1.6-0.1,3.3-0.7,5.2
					c-0.5,1.7-1,3.3-1.5,5c-1.1,3.4-2.1,7.1-3.3,10.4c-0.6,1.8-3,8.8-3.1,10.2c0.8-0.8,0.6-0.6,1.3-1.4l1.3-1.6
					c0.5-0.7,0.2-0.2,0.7-0.8L25,360c0.8-1.1,4.6-5.2,4.9-6.3l-1.3-0.1c0-1.1,5-16.9,6.1-20.2c0.6-1.8,0.2-1.7-0.5-3.3l-1.5-3.1
					l16.9-9.1c1,1.2,4.3,8.8,5,10.5l0.4-1.1l2.5-22.2L56.9,305.1z"/>
				<path class="st9" d="M-157.9,235c-0.2,4.9-0.5,2.3,1.2,4.7l7,8.1c0.7,0.9,0.8,0.7,1.4,1.4c0.6,0.6,0.7,1.1,1.4,1.8
					c0.9,0.8,0.7,0.5,1.4,1.5c0.7,1.1,1.8,2.2,3.1,2.8c1.6,0.9,6.7,3.7,8.1,3.9c1.1,0.3,0.2,0.1,0.6-0.3c-2.4-2.3-3.4-3.8-4.5-4.9
					l-14.1-14.5c-1.9-1.9-4.4-3.6-5.2-7.5L-157.9,235z"/>
				<path class="st9" d="M-102.9,238.2l1.9-0.2c-1.2,0.3-13-2-15.5-2.4c-3.5-0.6-3.8-0.9-6.7-2.5c-1.6-0.8-5.2-2.2-5.8-3.4l-4,0
					c0.9,0.9,1.7,1.2,2.7,2c1.6,1.2,7.2,5.6,8.7,5.7L-102.9,238.2z"/>
			</g>
			<g>
				<path class="st10" d="M-23.8,382.9c-1.6-1.4-2.6-3.4-3.9-4.3c-0.9-0.7-3.8-2.1-4.9-2.8c1.9,0.4,15.5,4.4,16.2,5.1
					c-0.5,1-2.3,3.4-3.1,4.5c-5.5,7.8-9.8,15.6-14.9,23.4c-1.8,2.8-3.9,6.7-6,9.2L-23.8,382.9z M-30.8,350.1
					c-0.5,1.6-11,20-11.5,20.4c-1.2-2.3-8.3-18-8.5-19.5c-7,2.1-14.9,4.2-21.7,7.2c-5.1,2.2-5.4,2.9-9.2,5c-1.3,0.7-8.2,4.8-8.7,5.6
					c0.9,0.2,32.9-9.2,36.8-10.3l7.8,15.6c0.4,0.7,0.2,0.5,0.6,0.8c0.7,0.6,15.4,7.8,16.4,8.1l-29.1,52.3c-0.6,1-2.5,5-3.3,5.5
					l-25.1,10.9c-2.2,1-2.5,0.2-6.7-1.2c-1.1-0.4-2.2-0.8-3.4-1.2c-1.6-0.6-2.3-0.5-3-1.3c0.2,1.1,0,0.7,0.6,1.4l8.8,7
					c1.1,0.5,1.4,0.1,2.7-0.2l21.9-5.8c4.9-1.3,2.5-1.5,4.5-2.4c0.5-0.7,0.3-0.2,0.8-0.8l19.8-17.3c1-1,1-0.8,1.9-1.6l13.8-12.1
					c0.6-0.6,1.1-0.8,1.7-1.4c0.9-1,0.8-0.7,1.7-1.4c3.8-2.9,8.6-15.6,10.7-18.1c-0.5,2.3-5,16.5-6.3,17.7l-35.7,35.4
					c-0.7,0.9-0.8,0.6-1.5,2c1,0.5,6.2,5.1,7.2,6.2l7.1,6.1c1.6-1.9,5-13.8,6.8-16.5c1.1-1.7,2.1-3.1,3.2-4.8l31.3-46.7
					c1.1-1.6,2.1-3.1,3.1-4.6l3.4-4.9c-3.1,1.7-6.9,7.2-12.2,2.2l-1.6-1.6c-1-0.9-5.2-7.3-6-8.8l-3.3-5.9c0-0.1-0.6-0.9-0.6-0.9
					c-0.5-1.6-0.4-0.4,0.2-0.9c-0.7-0.4,1-0.5-1-0.4c-0.6-4.4-1.4-4.8-1.4-11.2c0-2.2-0.3-10.5,0.4-11.7c0-0.9-0.4-0.4,0.3-0.9
					c-1.9-0.2-6.7,0.6-8.9,0.9c-1.9,0.2-2.5-0.2-3.4,1.4C-29.5,348.2-30.2,349.9-30.8,350.1z"/>
				<path class="st10" d="M-121.8,292.6l32.3-3c1.2,4.5,0.2,7,2.5,11.7c1.5,3,3.1,6.8,4.8,9.6l-5.6,7.6c-0.9,1.2-3.1,3.6-3.3,5
					l12.5-6.4c1.1-0.6,1-0.5,1.3-1c1-1.9,0.4-3.6-0.3-5.4l-4-10.3c-0.7-1.9-0.5-1.9,0.2-3.8l7.2-21L-121.8,292.6z"/>
				<path class="st10" d="M-109.7,430c3.2,0,5.8,0.9,8.8,1.5c1.8,0.4,1.9-0.8,2.9-1.9c0.5-0.5,2.4-2.2,3-2.5c0.6-0.7,0.2-0.1,0.5-1
					c-2.5-1.6-12-1.6-15.2-1.4L-109.7,430z"/>
				<path class="st10" d="M-110.4,422.7l15.5,0.4c-2.6-1.5-17.7-4.7-21.2-4.6c1.1,0.6,1.9,1.4,2.9,2.3c0.5,0.4,0.9,0.7,1.5,1.1
					C-111,422.5-111.5,422.4-110.4,422.7z"/>
			</g>
			<g>
				<path class="st11" d="M35.4,406.2l40.6,3.1c-0.6,1-6.3,5.4-7.7,6.5l-25,20.4c-0.8,0.7-0.8,0.6-1.4,1.1L15.3,459
					c-0.7,0.6-1.8,1.4-2.7,2.1l-7.9,6.3l-21.2,3.1c0.4-1.4,35.6-50.3,40.3-57.6c0.6-0.9,1.1-1.5,1.7-2.3c2.1-3,10.8-15.7,12-16.9
					L35.4,406.2z M-5.4,443.7c-1.1,1.5-4.6,9.9-6,12.3l-9,18.4c-0.2,1,2.6,4.4,3.3,5.4c5.1,6.6,4,5.6,2.7,8.6c-0.4,1-1,2.4-1.6,3.3
					c0.5,1.2,1.5,2.4,2.2,3.5c0.7,1.1,1.5,2.4,2.2,3.4l106.6-40.6l0.4,1.8l-0.2-1.7c0.7-0.6,3.1-1.4,4.1-1.8
					c1.5-0.6,2.9-1.2,4.4-1.6c-0.6-2.4-3.3-8.2-4.4-10.9c-2-4.9-13.2-31.7-13.3-32.9c-1.2-1.2-2.1-5.6-3.1-6.9
					c-0.6-0.7-0.7-0.6-1.8-0.7c-6.8-1-14.6-3.1-22.4-4.3l-1.7-0.3l-0.4,0c-1.6-0.7-9.9-2.1-12.5-2.5c0.8-4.6,5.7-22.9,5.7-24.3
					c0.1-2.1-2.2-4.8-2-8.2c-0.1,0.5-0.1,1.6-0.3,2.2l-19.5,28.4c-0.7,1-0.9,1.5-1.7,2.6c-0.6,0.8-1.1,1.5-1.7,2.3l-5.1,7.4
					c-4.3,6-9.2,13.7-13.6,19.8l-10.2,14.7C-4.7,442.3-4.8,442.6-5.4,443.7z"/>
				<path class="st11" d="M-77.6,532.2c-3,1.8-6,4.4-9,6.4l-5,3.7c0-0.1-0.1,0.1-0.2,0.3l4.5,1.9c0.1-0.2-0.1-0.7,1.8-0.3
					c0.6,0.1,1,0.3,1.7,0.5c1.2,0.2,2.4,0.4,3.6,0.7c2.4,0.5,4.8,0.9,7.2,1.3c4.8,0.8,9.7,1.7,14.5,2.6c9.6,1.8,19.4,3.2,28.9,5.3
					c-0.3-0.8-0.3-0.6-0.6-1.3l-5.4-6.5c-0.8-1.1-0.8-0.6-1.7-2.1l-9.3-11.1c-2.1-2.5-5-5.6-6.8-8.3l12.5-8.6
					c1.2-0.8,2.2-1.5,3.2-2.2c1.8-1.2,7.7-5.9,9.6-6.2c-0.4-0.4,0.2-0.6-0.5-0.3c0.9-0.1,10.5-6.7,11-7.6l-1.2-1.3
					c-1,0.7-23.8-3.3-25.2-3.5l0.3,16.8l-32.8,20.2C-78.2,532.9-77.3,533-77.6,532.2z"/>
				<path class="st11" d="M95.9,465.1c-0.6,0.5-91,31.3-91.5,31.3c2.4-0.1,27-5.1,31.6-6l23.9-4.6c2.3-0.4,6.3-1.8,8.3-1.5
					c5.3-1.5,27.2-5.5,34.3-6.9c3-0.6,8.8-1,10.2-2.6l10.1-13c0.7-1,1.9-2.2,2.1-3c-0.5-0.6-1.1-1.2-1.7-1.9l-16.9-21.6
					c-0.4-0.5-0.6-0.7-0.9-1.1l-5.2-6.6c0.8,2.2,2.4,5.5,3.5,7.7c1.2,2.3,2.5,5.4,3.6,7.9l7.1,15.7C113.7,459.4,97,465.1,95.9,465.1
					z"/>
			</g>
			<g>
				<path class="st12" d="M-44.6,354.8l-1.4-7.1c-1.9,0.3-12.2,4.3-15.6,5.3c0.9-0.9,0.7-0.7,1.7-1.5l1.7-1.4
					c0.8-0.6,0.8-0.8,1.7-1.4l28.5-12.8l7.5-3.4c-1.3,1.1-3.1,2.3-4.6,3.3l-4.9,3.3c-1.9,1.2-1.8,2.1-3,5.2
					c-0.7,1.7-1.9,4.3-2.3,6.1l1.2,1.1c0.4,0.4,0.1,0,0.5,0.5c-1,2.4-2.2,6.1-3.4,8.2L-41,365c-0.6,0.8-0.7,1.1-1.2,1.6L-44.6,354.8
					z M26,249.7l6.9,7.2c1.3,1.9,2.3,1.7,2.1,5c-0.1,2.6-0.7,4.1-1.1,6.4c1,0.7,3.9,6.1,4.6,7.5c1.4-1,2-4.7,2.9-6.2
					c1,0.9,4,6.4,4.9,8.2c1.5,2.8,0.1,3.7-1.6,5.9c-0.6,0.8-0.5,1.2-1.6,1.7l3.1,10.1c1.3-0.6,2.4-1.9,3.4-2.9c1-1,2-1.8,3.1-3
					c0.8,1.7,3,9.5,3.1,11.3c-1.9,2-9.6,6.2-13.2,7.6c-0.8-3.1-1.1-7.5-1.8-11c-2.3-10.4-5.9-18.6-11-27.6c1.6,7.3,3.2,7,4.6,19.4
					c0.6,5.1,0,4.9,1.1,10.8c0.5,2.7,1.3,8.2,1.3,10.9l-6,2.2c-0.3-3.5-0.6-6.5-1-9.8c-0.5-4.3-0.8-4.6-2.5-7.9
					c-1.3-2.5-2.6-4.4-4-6.6c-0.6-1-1.4-2.1-2.1-3.1c-0.7-1-1.4-2.3-2.3-3.1l0.8,2.3c-1.7,1-6.1,4.2-8,4.7l1.4,6.1
					c2.5-0.7,5-2.9,7.2-3.6l1.7,7.3c-0.9,1.1-6.1,2.6-7.7,3.7l0.8,7c2.1,0,7.8-3.2,9.6-3.2l0.6,7.9l-22.3,7c-0.3-1.5-6-11-7-12
					c-0.8,0.9-2.2,5.1-2.2,6.5c0.1,2.7,0.4,5.5,0.5,8.3c-1.2,0.9-4.9,1.9-6.5,2.5c-0.4-2.4-0.7-11.2-1.2-15
					c-0.2-1.6-1.2-12.9-2.4-14.4c-0.2,4.3,0.1,28.9-1.3,31.2c-0.5,0.8-7.5,3.4-8.3,3.6c-1.7-3.3-3-17.6-4.9-20.3
					c-0.3,3.9-0.3,8-0.7,12c-0.2,1.9-0.2,3.7-0.4,5.7l-0.4,4.2c-0.3,2.4-0.6,1.4-7.7,4.8c-1.7,0.8-6.3,3.2-7.6,3.5l-1.6-7.5
					c-1.1,0.3-3.2,1.5-4.3,2l-2.9,1.4c-1.9,1-1.3,2.3-2.7,7.9c-0.8,3.4-1.5,3.1-4.4,4.5c-4,1.9-7.7,4.4-11.7,6.3
					c1.1-5.5,1.5-11.2,2.1-16.9c-2.4,0.9-6.3,3.1-8.7,4.4c-1.7,1-1.3,2.4-1.6,4.6c-0.3,1.9-0.6,3.8-0.9,5.7
					c-0.3,1.8-0.6,3.5-1.1,5.2c-1.1,4.5-0.6,3.2-6.3,6.5c-1.5,0.9-2.7,1.7-4.2,2.5c0.3-2.4,2-7,2.7-9.8c1.7-6.9,3-14.1,3.5-21.2
					c0.3-3.8,0.2-8.6,0.6-12.1c1.3-0.7,6.1-3.1,7.2-3.2c0.2,4.8,0,8.9,0,13.6l9.3-4.4c0.1-4.5-0.7-8.9-0.7-13
					c0.7-0.7,5.6-2.6,6.9-3.1c0.7,3.5,0.9,9.2,1.1,13c0.2,4.9-0.4,9.7-0.2,14.4c0.1-0.1,0.1-0.3,0.2-0.2l1.1-3.4
					c1.8-6.1,3.1-12.5,4-18.8c0.4-2.3,0.7-6.1,1.3-8.1l8.3-3.5c0.4,1.9,3,6.9,3.9,9.1c0.7,1.6,1.2,3.1,1.9,4.7
					c0.6,1.5,0.9,3.6,2,4.8c-0.7-6.2-3.5-13.6-5-19.6l6.8-2.8c1.9,5.6,3.1,11.4,4,17.2c0.3,1.9,0.4,4.5,0.9,6.1
					c0.9-2,1.6-22.2,1.7-26l5.4-2.1c3.2,4.4,5.6,19.9,7.1,22.3c0.8-8.2-0.5-17-0.3-25.1l12.5-5.1l2.1,11.4c0.9-1.1,3-8.6,3.5-10.6
					c0.7-2.7,0.1-3.5,2.5-4.6c1.7-0.8,3.1-1.7,4.9-2.4c-0.3,4.3-2,9.4-3.1,13.5c-1.4,5.1-1.1,2.3,4.2,10.4c0.8,1.2,1.4,2.3,2.2,3.5
					c0.5,0.8,0.7,1.1,1.1,1.8l0.8,1.3c0.3,0.4,0.2,0.3,0.5,0.6c-0.2-8.1-1.3-16.2-3-24.1c-0.5-2.3-1.5-5.3-1.8-7.5
					c1.4-1,3-1.7,4.4-2.6c2.7-1.7,9.9-6.8,11.6-9.3c2.4,2.6,8.7,13.7,9.7,14.4c-0.7-6.6-2.9-13.3-5.2-19.3c-0.6-1.5,0.5-2.5,1.1-4.1
					c0.6-1.5,1-3.1,1.3-4.7c0.3-2,0.3-3.9,0-5.9C26.8,252.8,26.2,251.3,26,249.7z M-70.1,281l4-11.5l-6.6,1.9
					c-0.6,0.6-1.2,0.7-2.1,1l-13.8,4.8c-5.3,1.8-10.6,3.7-15.9,5.6c-7.9,2.8-16.2,5.5-23.7,8.5c-2.7,1.1-3,1.1-5.3,5.5
					c0,1.1,0,2.2,0,3.2c0,0.8-0.2,2.6,0.5,3.1c0.4-1.4,1.3-2.3,2.1-3.6c2.2-3.7,2.5-4.9,5.1-5.7c1.4-0.4,2.7-1.1,4.1-1.3l47.6-16.9
					l-7.2,21c-0.7,1.9-1,1.9-0.2,3.8l4,10.3c0.7,1.8,1.3,3.5,0.3,5.4c-0.3,0.5-0.1,0.4-1.3,1l-12.5,6.4l-0.7,0.4
					c0.3,3.1,0.5,6.1,0.5,9.2c-0.1,3.2-0.5,5.8-0.7,8.8c0.8,1.4,0.6,0,0.9,1.5l-1.2-0.2c-0.1,1.3-0.3,3.1-0.8,4
					c0.3,1.6-0.6,3.9-0.7,5.6l-0.7,2.3c0.2,2.3-2.6,14.2-3.3,17.6c1.3-0.8,6.2-3.8,7.4-4c0.5-0.8,7.5-4.9,8.7-5.6
					c3.8-2.2,4.2-2.8,9.2-5c6.8-2.9,14.6-5.1,21.7-7.2c0.2,1.6,7.3,17.2,8.5,19.5c0.5-0.4,11-18.8,11.5-20.4l-1.4-1.2l3.7-9.3
					c0.8-1.2,10.3-4.4,12.2-5.2c3.6-1.4,7.2-2.9,10.8-4.3c3.4-1.3,7.7-3.4,11.1-4.4l-0.3,2.9l-4.3,1.7c0.8,0.3,3.1-0.7,4.4-1.3
					c1.2-0.5,3.7-0.9,4.3-1.7c-1-0.5-0.4-0.3-0.8-0.7l14.8-5.9c-1.9,2.3-4.1,4.7-2.9,7.1c1.4,2.7,2.1,4.9,2.4,8.4
					C25,356.5,7,378.8,5.8,383.7c-2.6,0.1-6-0.2-8.7-0.4c-1.9-0.1-1.7-1.3-4-4.7c-2.3-3.4-3.1-6-5.6-7.5c-0.9-0.6-1.9-0.9-2.7-1.7
					c-0.6,0.5-0.7-0.6-0.2,0.9c0,0,0.5,0.8,0.6,0.9l3.3,5.9c0.9,1.5,5.1,7.9,6,8.8l1.6,1.6c5.3,5.1,9.1-0.4,12.2-2.2
					c0.1-0.8,3-3.1,4.4-4.5l9-9.6c0.6-0.6,3.5-4.4,4.3-4.9c-0.1,1.9-2.5,15.5-3,16.8l-10.6,14.5c-0.7,1-1.5,2.1-2.1,3L-21.7,444
					c-2.9,4.2-13.5,18.1-14.9,21.1c0.6,0.3-0.6-0.5-0.8,2.7c-0.1,0.9-0.2,3.1-0.2,4.2l12.2,0.5l17.3-25.2c0.8-1.1,1.8-2.8,2.7-3.6
					c0.6-1.2,0.7-1.4,1.5-2.5l10.2-14.7c4.3-6.1,9.3-13.9,13.6-19.8l5.1-7.4c0.5-0.8,1.1-1.5,1.7-2.3c0.8-1.1,1.1-1.6,1.7-2.6
					L47.8,366c0.2-0.6,0.2-1.7,0.3-2.2l0.7-15.7c0.8,0.4,1.4,1.7,1.9,2.5c0.6,0.9,1.2,1.8,1.9,2.5l0.3-8l-2.7-4.6
					c-0.6-1-0.8-1.5-1.3-2.4c-0.2-0.4-0.4-0.7-0.6-1.1c-1-1.8,0.5,0.1-1-1.4c-0.2,4.1-1.5,10.3-2.2,14.6c-0.6,3.8-2.3,11.6-2.3,15
					c-1.4-1.1-2.3-1.9-3.5-2.9c-1.1-1-0.4-0.8-3.2-3.1c-1.7-1.4-5.2-5.4-6.4-5.5c-0.3,1.1-4.1,5.3-4.9,6.3l-1.8,2.2
					c-0.5,0.6-0.1,0.1-0.7,0.8l-1.3,1.6c-0.7,0.9-0.5,0.7-1.3,1.4c0.1-1.4,2.5-8.3,3.1-10.2c1.1-3.4,2.2-7,3.3-10.4
					c0.5-1.7,1-3.3,1.5-5c0.6-1.9,1.7-3.7,0.7-5.2c-1-1.5-4.7-7.5-5-8.8c7.6-8.6,1.2-5.5,14.9-12.2l18.3-9
					c-0.5-1.9-0.9-12.2-1.1-15.6c-0.1-1.4,0.1-1.3-0.7-2c-5.9-4.7-4.3-0.9-5-8.8c-0.1-1.4-2.3-3.7-3.2-4.9c-0.7-0.9-0.6-0.7-1.2-1.7
					c-0.5-0.1-2.1-2.3-2.5-2.9c-0.8-1.2-1.7-2.2-2.5-3.2c-3.1-3.8-1.6-2.6-2.1-6.5c-0.2-1.3-0.4-1.1-1.1-1.8l-5.3-6.2
					c-0.9-0.5-7.2-2.9-8.1-3.1c-0.3,0.8-0.1,7-0.5,9.3c-0.7,3.8-2.3,7.9-4.7,10.8L8,278.5c-1,0.8-1.9,1.5-3,2.2
					c-2.1,1.4-4,2.7-6.2,4.1c-1.7,1.2-4.4,2.7-6.5,3.8c-15.6,8.1-21.9,8.5-37,14.7c-10.1,4.2-19.2,8.4-28.9,12.4
					c-0.8-1.7-1.7-7-2.2-9.1c-1.1-4.9-1.7-3.9-0.1-8.8C-73.9,292.4-72,286.1-70.1,281z"/>
				<path class="st12" d="M-15.9,491.9c-1.9-2-4.8-8.1-6.5-9c-1.2-0.6-2.4-1-3.6-1.5c-4.8-2.1-10-4.4-14.7-6.3
					c-0.6,0.9-5.4,3.4-6.6,4c0.3,1.1-0.5,0.6,2.1,1.2c0.8,0.2,1.5,0.5,2.2,0.7c5.2,1.5,3.7,0.8,7.9,4l11.9,9.3
					c0.6,0.4,1.1,0.8,1.6,1.2c1.2,1,2.2,2.1,2.6,3.5l1.2,1.3c-0.5,0.9-10.1,7.5-11,7.6c0.7-0.3,0.1-0.1,0.5,0.3c0.4,0.8,4.1,3,4.3,3
					c2.3-1.1,7.9-4.7,10.1-5.1c4.2-0.7,8.5-1.3,12.8-2l38.5-6c6-0.9,7.1-0.6,11.7-3.1c2.5-1.4,18.1-9.7,19.1-10.6
					c-2-0.3-6,1-8.3,1.5L36,490.3c-4.6,0.9-29.2,6-31.6,6c0.5,0,90.9-30.7,91.5-31.3l-0.4-5.1l-0.4-1.8l-106.6,40.6
					c-0.6-1.1-1.5-2.3-2.2-3.4C-14.4,494.3-15.4,493.1-15.9,491.9z"/>
				<path class="st12" d="M-60.8,447.9l8.5,0.4l35.7-35.4c1.3-1.2,5.8-15.4,6.3-17.7c-2.2,2.5-6.9,15.2-10.7,18.1
					c-0.9,0.7-0.8,0.5-1.7,1.4c-0.6,0.6-1.1,0.8-1.7,1.4l-13.8,12.1c-0.9,0.8-0.9,0.5-1.9,1.6L-60,447.2
					C-60.5,447.7-60.3,447.2-60.8,447.9z"/>
				<path class="st12" d="M-50.3,328.6c-0.1-1.3-3.1-11.1-3.7-11.9c-0.4,1.5-0.4,5.6-0.6,7.5c-0.2,2.2-0.6,4.6-0.9,6.9L-50.3,328.6z
					"/>
			</g>
			<path class="st13" d="M-130,279c-2.5-0.2-6.9-1.3-9.4-1.9c-5.3-1.2-5.6-0.4-7.7-3.5l-9-13.1c0.9,0.3,0.9,0.6,1.6,1.2l10.8,8.6
				c3.1,2.5,6.7,4.4,10.3,6.5c0.5,0.3,1.2,0.7,1.8,1c0.3,0.2,0.6,0.3,0.9,0.5l0.5,0.5C-130.2,278.8-130.1,278.9-130,279z
				 M-131.8,256.1c-1-0.6-2.4-1.8-3.2-2.7c-1.1-1.3-1.8-1.7-3-2.7c-1.3-1.1-0.6-1-2.9-2.8c-2.8-2.2-1.4-1.3-2.7-2.7
				c-1-1-2.2-1.6-3.1-2.7c-1.7-2.1-2.1-1.5-4.4-4.2c-1.9-2.3-2.8-0.7-2.8-5.5c1.1,0.4,0.9,0.5,1.7,1.2c0.6,0.5,0.9,0.7,1.6,1.3
				l11.8,9.4c1.8,1.4,1.6,0.8,2.2,2.1C-135.3,249.6-132.5,254.1-131.8,256.1z M-86.3,235.7c-5.9,0.1-12-0.2-18-0.2
				c-6.9,0-10.4,0.7-15.9-3L-86.3,235.7z M-129,229.7c0.7,1.2,4.3,2.6,5.8,3.4c2.9,1.6,3.2,1.9,6.7,2.5c2.5,0.4,14.3,2.7,15.5,2.4
				l-1.9,0.2l4,0.2c-0.1,0-0.2,0.1-0.3,0.1c-2.1,0.7-19.6,1.1-25.1,1.4c-3.8,0.3-4,0.3-7.4-0.9c-5-1.8-22.8-8.7-25.9-9.5l-0.3,5.5
				l0.5-3c0.9,3.9,3.3,5.6,5.2,7.5l14.1,14.5c1.1,1.1,2.1,2.6,4.5,4.9c-0.4,0.4,0.5,0.5-0.6,0.3l0.4,0.6c-3.6,0.2-11.5-1-15.5-1.4
				c-3.3-0.3-9.3-3.2-12.7-4.5l0.7,2.6c0.4-0.2,2.7,3.6,3,4l3.4,4.6c0.6,0.8,1,1.3,1.6,2.1l3.4,4.6c2.6,3.6,2.7,4.5,4.6,5.1
				c4.7,1.4,17.4,6.3,20.1,5.7c8.8-2,17.4-3.7,26.2-5.6c4.3-0.9,8.7-1.9,12.9-2.7c4.3-0.9,9.2-2.3,13.4-2.8l6.6-1.9l-4,11.5
				l0.4,17.8c2.8-0.9,6.6-2.9,9.2-4.1c3-1.4,6-3,9-4.4c6.2-3,12.1-6.1,17.8-9.3c2.9-1.6,18.3-10.6,21.6-13.8l2.6-2.6
				c1.1-1.4,1.9-2,2.8-4.1c2.4-5.9,1-11-1.7-16.4c-1-2-4.3-6.4-5.9-7.6c-3-2.2-3.9-3.5-8.6-4.9c-10.6-3-59.2-6.8-60.4-7.5l-18,0.3
				c2.6,1,9.1,2.1,12.2,2.8l10.8,2.4c0.6,0.2,0.1,0,0.7,0.2c0.5,0.2,0.4,0.2,0.7,0.5L-129,229.7z"/>
			<path class="st14" d="M-55.5,331.2c0.2-2.4,0.7-4.7,0.9-6.9c0.2-1.9,0.3-6,0.6-7.5c0.6,0.8,3.5,10.6,3.7,11.9L-55.5,331.2z
				 M26,249.7c0.2,1.6,0.8,3.1,1,5c0.2,2,0.2,3.9,0,5.9c-0.2,1.6-0.7,3.3-1.3,4.7c-0.7,1.6-1.7,2.6-1.1,4.1c2.3,6,4.5,12.7,5.2,19.3
				c-0.9-0.8-7.2-11.8-9.7-14.4c-1.7,2.5-8.9,7.6-11.6,9.3c-1.4,0.8-3,1.6-4.4,2.6c0.3,2.1,1.3,5.2,1.8,7.5c1.6,7.9,2.7,16,3,24.1
				c-0.2-0.3-0.2-0.2-0.5-0.6l-0.8-1.3c-0.4-0.6-0.6-1-1.1-1.8c-0.8-1.2-1.4-2.3-2.2-3.5c-5.3-8.1-5.6-5.3-4.2-10.4
				c1.1-4.1,2.9-9.2,3.1-13.5c-1.7,0.7-3.1,1.5-4.9,2.4c-2.4,1.1-1.8,1.9-2.5,4.6c-0.5,2-2.6,9.5-3.5,10.6l-2.1-11.4l-12.5,5.1
				c-0.2,8.1,1.1,16.8,0.3,25.1c-1.4-2.4-3.8-18-7.1-22.3l-5.4,2.1c-0.1,3.8-0.9,24-1.7,26c-0.5-1.7-0.6-4.3-0.9-6.1
				c-1-5.8-2.2-11.6-4-17.2l-6.8,2.8c1.5,6,4.3,13.4,5,19.6c-1-1.3-1.4-3.3-2-4.8c-0.6-1.6-1.2-3.1-1.9-4.7
				c-0.9-2.2-3.4-7.2-3.9-9.1l-8.3,3.5c-0.5,2-0.9,5.9-1.3,8.1c-1,6.3-2.2,12.7-4,18.8l-1.1,3.4c0,0-0.1,0.1-0.2,0.2
				c-0.1-4.7,0.4-9.5,0.2-14.4c-0.1-3.8-0.4-9.5-1.1-13c-1.3,0.4-6.2,2.3-6.9,3.1c0,4.1,0.8,8.5,0.7,13l-9.3,4.4
				c0-4.7,0.3-8.8,0-13.6c-1.1,0.1-5.9,2.5-7.2,3.2c-0.4,3.5-0.3,8.3-0.6,12.1c-0.5,7.1-1.8,14.3-3.5,21.2c-0.7,2.8-2.3,7.4-2.7,9.8
				c1.6-0.7,2.8-1.6,4.2-2.5c5.7-3.3,5.3-2,6.3-6.5c0.4-1.7,0.7-3.5,1.1-5.2c0.3-1.9,0.7-3.8,0.9-5.7c0.3-2.2,0-3.6,1.6-4.6
				c2.4-1.3,6.3-3.5,8.7-4.4c-0.6,5.7-1,11.4-2.1,16.9c3.9-1.8,7.7-4.4,11.7-6.3c2.9-1.3,3.6-1,4.4-4.5c1.4-5.6,0.8-6.9,2.7-7.9
				l2.9-1.4c1.1-0.5,3.2-1.7,4.3-2l1.6,7.5c1.2-0.3,5.9-2.7,7.6-3.5c7.1-3.4,7.4-2.4,7.7-4.8l0.4-4.2c0.2-2,0.3-3.8,0.4-5.7
				c0.3-4,0.3-8,0.7-12c1.9,2.7,3.2,17,4.9,20.3c0.7-0.3,7.8-2.8,8.3-3.6c1.4-2.3,1.1-26.9,1.3-31.2c1.2,1.5,2.2,12.9,2.4,14.4
				c0.5,3.9,0.8,12.6,1.2,15c1.6-0.5,5.3-1.5,6.5-2.5c-0.1-2.8-0.4-5.6-0.5-8.3c0-1.4,1.4-5.6,2.2-6.5c1,1,6.6,10.5,7,12l22.3-7
				l-0.6-7.9c-1.8,0-7.5,3.2-9.6,3.2l-0.8-7c1.6-1.1,6.8-2.6,7.7-3.7l-1.7-7.3c-2.3,0.7-4.8,2.8-7.2,3.6l-1.4-6.1
				c2-0.6,6.3-3.7,8-4.7l-0.8-2.3c0.8,0.8,1.5,2,2.3,3.1c0.7,1,1.4,2.1,2.1,3.1c1.4,2.2,2.7,4.1,4,6.6c1.7,3.3,2,3.7,2.5,7.9
				c0.4,3.3,0.7,6.3,1,9.8l6-2.2c0.1-2.7-0.8-8.2-1.3-10.9c-1.1-6-0.6-5.7-1.1-10.8c-1.4-12.4-2.9-12.1-4.6-19.4
				c5.1,9.1,8.7,17.3,11,27.6c0.8,3.5,1,8,1.8,11c3.6-1.4,11.3-5.5,13.2-7.6c-0.1-1.8-2.3-9.6-3.1-11.3c-1.1,1.1-2.1,1.9-3.1,3
				c-1,1-2.1,2.3-3.4,2.9l-3.1-10.1c1.1-0.5,1-0.9,1.6-1.7c1.7-2.2,3.1-3.1,1.6-5.9c-0.9-1.7-4-7.2-4.9-8.2
				c-0.9,1.5-1.5,5.1-2.9,6.2c-0.7-1.4-3.6-6.8-4.6-7.5c0.4-2.4,1-3.8,1.1-6.4c0.2-3.3-0.8-3.1-2.1-5L26,249.7z"/>
			<path class="st15" d="M-27.1,543.6c0.3,0.8,0.9,1.5,1.6,2.1c4.6,3.7,1.3,3.9,6.9,4.4c4.5,0.3,9.3,0.6,13.8,0.9
				c18.4,0.9,36.7,2.7,55.4,3.7c4.7,0.3,9.3,0.8,14,1c4.3,0.2,9.5,0.4,13.7,0.9l-19.8-17.7c-0.6-0.5-0.4-0.6-0.9-1.1l-8.3-7.4
				c-0.5-0.3-0.8-0.5-1.2-0.9l-3.2-2.7c0-0.8,0.5,0-0.6-0.9l-7.3-6.5c-0.5-0.5-4.4-3.5-4.8-4.3c-10,2.4-22.1,3.4-32.7,5.4
				c-5.2,1-11,1.8-16.2,2.6c-4.8,0.7-11.3,1.5-16,2.6L-27.1,543.6z"/>
			<path class="st16" d="M37.4,393.7c-1.2,1.1-9.9,13.8-12,16.9c-0.6,0.8-1.1,1.5-1.7,2.3c-4.7,7.3-39.9,56.3-40.3,57.6l21.2-3.1
				l7.9-6.3c0.9-0.8,2-1.5,2.7-2.1l26.5-21.7c0.7-0.5,0.7-0.5,1.4-1.1l25-20.4c1.4-1.1,7.1-5.5,7.7-6.5l-40.6-3.1L37.4,393.7z"/>
			<path class="st17" d="M-28.9,541.8l1.8,1.8l-5.7-17.8c4.8-1.1,11.3-1.9,16-2.6c5.3-0.8,11-1.6,16.2-2.6c10.6-2,22.7-3,32.7-5.4
				c-0.5-0.5-1-0.8-1.5-1.3c1.2-1,22.4-9.1,25.8-10.4c5.8-2.3,21.4-8.2,26-10.3c-1,0.1-2.5,0.6-3.8,0.8l-90.3,14.3
				c-2.8,0.4-4.6,1.9-6.9,3.1l-25.1,13.5c-0.1,0-0.1,0.1-0.2,0.1l-0.5,0.4c0.6,0.7,1.3,1.6,1.9,2.2c3.1,2.7,1.2,1.2,3.8,4.1
				c0.8,0.9,1.3,0.9,2.1,1.9c3.4,4.1,1.9,2.1,3.9,4.1l2.7,3.3C-29.5,541.4-29.4,541.4-28.9,541.8z"/>
			<path class="st18" d="M-30.2,553.3c0.3,0.7,0.3,0.5,0.6,1.3c-9.5-2-19.3-3.4-28.9-5.3c-4.8-0.9-9.6-1.8-14.5-2.6
				c-2.4-0.4-4.8-0.9-7.2-1.3c-1.2-0.2-2.4-0.4-3.6-0.7c-0.7-0.1-1.1-0.3-1.7-0.5c-1.9-0.5-1.6,0.1-1.8,0.3
				c2.1,0.5,49.6,19.8,55.1,21.9c5.1,2,7.7,1.8,13.1,2.3c4.2,0.4,25.8,2.5,28.2,2.3c-0.4-1.3-7.7-13.5-7.7-13.5
				c-0.2-0.7-25.6-1.9-29.1-2.4C-29.7,555-29,554.4-30.2,553.3z"/>
			<path class="st19" d="M1.1,330.3c-5,2.1-5.6,3.1-8.4,8.8c-2.5,5.1-1.4,2,2.6,11l-3.7,1.1l-6.5-6.5l-2,0.4
				c-0.7,0.5-0.4-0.1-0.3,0.9c0.8,0.3,4,3,4.8,3.7c2.8,2.3,1.3,0.6,1.8,4.5l0.2,0.8c0,0.1,0,0.2,0.1,0.2c0.3-1,0.5-3.2,0-4
				c0.1,4.1,0.3,7.6,0.1,11.8l4.8-1.9c0.1,0,0.4-0.2,0.4-0.2l0.3-0.2c0,0,0.1-0.1,0.1-0.1l0.4-0.4l5.5-6.3c-2.2,0.4-4.3,2.1-6.5,3.1
				l-1.8-3c1.6-1.3,3.7-2,5.3-3.2l-4.2-8.5l12-10.5l2.8,3.1c0.5,0.7,0.4,0.4,0.9,1.1c0.4,0.5,0.5,0.6,0.9,1.1c0.9,1,0.5-0.2,0.7,1.2
				c0.3,2.1-1.5,7.5-0.3,10.8c1.1,3.3-0.2,3.2-0.8,6.3c1.1-0.9,2.9-4.6,3.9-6.3c0.6-1,3.1-5.9,3.7-6.3c-0.4-3.2-0.9-6.5-2-9.6
				c-0.4-1.1-1.5-3.3-1.9-3.8c-0.5-0.4-3.1-1.8-4-2.1c-0.6,0.8-3.1,1.2-4.3,1.7C4.2,329.6,1.9,330.6,1.1,330.3z"/>
			<path class="st20" d="M8.1,360.9c-0.4,0.7-1,1.4-1.5,2.1c-0.5,0.7-0.9,1.3-1.4,2c-0.7,1-2.1,3.2-2.9,3.9l0.1-1.4
				c-4.5,4-9.4,1.3-13.9,1.9l-0.7,0.2c0.9,0.4,2.4,1,3.2,1.7c1.5,1.2,4.6,8.6,5.8,9.4c2.4,1.5,3.5,0.9,6.4,0.2
				c4-1.1,2.8-1.4,4.8-4.7c2.3-3.9,4.2-8.3,6.6-12.3c1.2-2.1,4-12,4.3-14.6c-0.8,0.8-3.4,6-4.1,7.4c-1,2-1.3,1.7-3.1,2.7
				c-0.7,0.4-3.2,2.2-3.4,1.7C8.3,360.9,8.2,360.9,8.1,360.9z"/>
			<path class="st21" d="M-108,343.4c-1.2,1.2-4.3,2.3-6,3.2c-1.9,1-4.3,2.5-6.1,3.2c-1.1,0.8-4.9,3.2-6.3,3.7l-0.5,0.5
				c0.9,0.7,1.7,1.4,2.7,2.2c0.9,0.7,1.8,1.6,2.8,2c1.4-1.2,3-2.3,4.4-3.3c0.8-1.4,1.2-0.4,1.7-2l-1.2-0.6l4.2-1.1
				c0.7-1.3,4.1-3.1,5.4-3.9c1.5-0.9,4.6-2.4,6.5-2.8c1.9-1.1,5.8-1.7,8.1-1.4l1.2,0.2c-0.3-1.5-0.1,0-0.9-1.5
				c-2.9-1.6-3.6-2.7-8.2-1.3C-102.2,341.2-106.6,343.3-108,343.4z"/>
			<path class="st22" d="M-28.1,335.8c-6,4.9-7.7,3.4-9.6,8.4c-1.6,4.2-3.2,8.6-4.9,12.7c-0.4-0.3-0.6-0.5-1-1l-1-1.1l2.4,11.8
				c0.5-0.5,0.5-0.8,1.2-1.6l3.8-4.8c1.2-2.1,2.4-5.8,3.4-8.2c-0.4-0.5-0.1-0.1-0.5-0.5l-1.2-1.1c0.4-1.8,1.6-4.4,2.3-6.1
				c1.3-3.1,1.2-4.1,3-5.2l4.9-3.3c1.5-1,3.3-2.2,4.6-3.3L-28.1,335.8z"/>
			<path class="st23" d="M-23.8,382.9L-40.4,418c2.1-2.5,4.1-6.4,6-9.2c5-7.8,9.3-15.6,14.9-23.4c0.8-1.1,2.6-3.5,3.1-4.5
				c-0.7-0.7-14.2-4.7-16.2-5.1c1.1,0.7,4,2.1,4.9,2.8C-26.5,379.5-25.4,381.5-23.8,382.9z"/>
			<path class="st24" d="M-134.1,401.4c0.3,0.3,0.1,0.2,0.5,0.5c1.5,1.4,4.4,3.8,6.3,3.7c3.3-0.3,6.7-0.7,10-1.1
				c0.5,3.2,0.6,3.9,0.6,7.2l0-3.4l1.1-0.8c1.7-1,5.6-2.7,6.8-3.8c-0.7-1.5-2-2.8-2.5-4.4c-3.5,0.5-8.1,1.8-11.6,2.6
				C-131.3,404.1-128.3,402.8-134.1,401.4z"/>
			<path class="st25" d="M-109.7,430l4.4,5c0.7,0.6,0.8,0.9,1.4,1.7c1.6,2.2,3.6,1.8,4.1,8.3c0.2-0.6,0.6-1.1,0.7-2.1
				c0.1-0.8,0.2-1.7,0.3-2.5c0.2-1.3,0.9-3.1,1.8-3.8l0.4-1.2l1.1-2.6l-1,0.8c-0.8,0.9-0.4,1.1-2.1,2c-0.3-3.2,2.6-5.6,3.5-8.3
				c-0.5,0.3-2.5,1.9-3,2.5c-1,1-1.1,2.2-2.9,1.9C-103.9,430.9-106.5,430-109.7,430z"/>
			<path class="st26" d="M10.1,355.4c-1.4,0.6-2.5,1.7-4.1,2.4c-0.4-1.2-1.4-2.1-1.5-3.4c-0.1-0.6,0.1-1.6,0.2-2.3
				c0-0.3,0.1-0.7,0.1-1c-0.1-0.6-0.1-0.4-0.2-0.7c-0.7,0.7-0.7,1.2-1.6,2c-0.7,0.6-1,1.1-1.6,1.6l-5.5,6.3c1-0.1,1-0.1,2-0.5
				c1.7-0.7,3.7-1.9,5.5-2.4c0.3,1,1,1.7,1.6,2.5c1.9-0.7,4.6-2.4,5.9-2.6c0.6-1.3,2.7-2.1,4.7-6.3c1.6-3.3,2.8-5.4,2.2-8.1
				c-0.6,0.4-3.2,5.3-3.7,6.3C13,350.8,11.2,354.5,10.1,355.4z"/>
			<path class="st27" d="M-10.3,355.3c-0.7,1.8-0.2,6.5,0,8.7c4.8,1.7,3,2.2,6.1,0l5.2-4.1c0.9,0.5,1.5,0.9,2.4,1.6l-1.1,6l-0.1,1.4
				c0.8-0.7,2.1-2.9,2.9-3.9c0.5-0.7,0.9-1.3,1.4-2c0.5-0.7,1.1-1.4,1.5-2.1c0.9-1.2,1.7-2.3,2.6-3.6c-1.3,0.3-4,2-5.9,2.6
				c-0.6-0.8-1.3-1.5-1.6-2.5c-1.8,0.5-3.8,1.7-5.5,2.4c-1,0.4-1,0.4-2,0.5l-0.4,0.4c0,0-0.1,0.1-0.1,0.1l-0.3,0.2
				c0,0-0.3,0.1-0.4,0.2l-4.8,1.9c0.3-4.2,0.1-7.6-0.1-11.8C-9.7,352.2-10,354.3-10.3,355.3z"/>
			<path class="st28" d="M-115.3,353c1.6,0.3,2.6,0.4,3.5,1.5c0.2,1.6-0.3,2.4,0.6,3.4c1.4,0.4,3.4,0.5,3.2-1.2
				c0.2-0.9-0.4-0.3,0.3-0.6l0.5,0.3l-0.2-0.5l-1.6-0.6c0.4-0.5,0-0.1,0.5-0.5l0.4-0.2c0.6-0.3,0,0.1,0.8-0.3
				c0.2-1.3,0.4-0.9,1.5-1.5l1.3-0.3c3.5,0.8,3.9,1.3,6.4,2.7c0.3-0.3,0.2,0.1,0.3-0.6c0.1-0.4,0.1-0.2,0-0.7
				c-0.1-0.5-0.4-0.8-0.5-1.1c-2-0.9-12-1.9-14-1.4l-4.2,1.1L-115.3,353z"/>
			<path class="st29" d="M-132.5,390.2c1.1-5.8,4.5-14.6,6.3-20.6c0.4-1.2,0.7-2.3,1.1-3.5c1-2.8,0.2-1.3-0.3-2.8l-0.9-0.5
				c-0.6,0.6-7.8,29.3-7.8,30.8l0.8-1.6C-132.9,390.7-133.2,391.1-132.5,390.2z"/>
			<path class="st30" d="M-109.8,424.9c3.2-0.3,12.7-0.2,15.2,1.4l4.2,1.3c-0.3-0.8-1.3-1.9-1.9-2.7c-1.4-1.8-0.2-1.7-2.6-1.8
				l-15.5-0.4C-109.8,423.8-109.8,423.5-109.8,424.9z"/>
			<path class="st31" d="M-107.2,354.3c0.9,0,0.6-0.1,1.4,0.3l0.7,0.6c0-0.1,0.1,0.1,0.2,0.2l-2.3,0.6l0.2,0.5
				c0.2,0.3,0.5,0.4-0.1,0.7c-1,0.4-0.1,0.4-0.7-0.3c0.2,1.7-1.9,1.6-3.2,1.2c2.1,4.4,5.9,0.3,5.9,0.3c-1.3,2.6-2.5,2.1-4,3.7
				c2.2-0.6,4.6-1.2,6.2-2.4l-0.2-4.4l-0.5-1.3c0,0.6-0.1,0.6-0.1,0.7c-1.3-1.1-0.3-0.8-1.8-1.7C-106.9,353.4-107,353-107.2,354.3z"
				/>
			<path class="st32" d="M-115.8,391.3c0.1-0.9,2-4,2.5-4.8c4.9,0.3,4.7,1,8.3,6.7c0.4-0.7-1.1-5.6-1.7-6.6c-0.8-1.2-4.7-2-6.3-2.5
				c-0.8,1-1.2,2.5-1.7,3.7C-115.5,389.2-116.4,390.4-115.8,391.3z"/>
			<path class="st33" d="M-103.2,359.5c-1.6,1.2-4,1.8-6.2,2.4l-4.3,0.1c1,1.4,1.6,2,3.8,1.8c2.3-0.9,5.4-2.2,7.4-3.6
				c1.2-0.8,1.7-1.3,1.8-2.3c-0.6,0.5-0.8,0.5-1.2,0.9C-102.7,359.3-102.3,359.2-103.2,359.5z"/>
			<path class="st34" d="M-93.9,352.9c0.2-1.7,1-4,0.7-5.6c-0.7-1,0.4-0.8-2,0.7c-2.5,1.6-1.4,2.3,0.3,4.1L-93.9,352.9z"/>
			<path class="st35" d="M-120.1,349.8c1.9-0.7,4.3-2.2,6.1-3.2c1.7-0.9,4.8-2,6-3.2c-5,1.2-6.9,2.7-10.8,5.3
				c-0.3,0.2-0.5,0.3-0.7,0.4C-120.1,349.6-119.7,349.3-120.1,349.8z"/>
			<path class="st36" d="M-103.9,353.8l-0.5-1.3l-1.3,0.3c1.5,0.8,0.5,0.6,1.8,1.7C-103.9,354.4-103.8,354.4-103.9,353.8z"/>
		</g>
		<g>
			<g>
				<path class="st0" d="M-103.4,355.1l0.2,4.4c0.9-0.3,0.5-0.1,1.3-0.7c0.5-0.3,0.6-0.4,1.2-0.9c0.1-0.9-0.6,0,0.4-0.9
					c0.6-0.5,0.4-0.3,1.3-0.4c-0.4-0.7-0.1-0.8-1.9-1.5c-0.8-0.3-1.4-0.4-2.3-0.7C-103.5,354.9-103.8,353.6-103.4,355.1z"/>
				<path class="st0" d="M-107.3,355.9l2.3-0.6c-0.1,0-0.1-0.2-0.2-0.2l-0.7-0.6c-0.8-0.4-0.5-0.2-1.4-0.3c-0.8,0.4-0.2,0-0.8,0.3
					l-0.4,0.2c-0.6,0.4-0.1,0-0.5,0.5L-107.3,355.9z"/>
				<path class="st0" d="M-107.9,356.8c0.6,0.8-0.3,0.8,0.7,0.3c0.6-0.3,0.3-0.3,0.1-0.7l-0.5-0.3
					C-108.4,356.5-107.8,355.8-107.9,356.8z"/>
			</g>
			<g>
				<path class="st1" d="M-87.7,406.4c1-0.6,0.3-0.1,1-0.9l19.6-25.8c1-1.5,2.2-2.9,3.2-4.5c0.6-0.8,1.1-1.5,1.7-2.3
					c0.7-0.9,0.9-1.6,1.5-2.2c-0.3,0.5-1.3,0.9-1.9,1.5l-11.5,12.2C-75.7,386.3-87,405-87.7,406.4z"/>
				<path class="st1" d="M-84.9,428.8l-0.7-3.3l-3.1-6.5c-2.2-4.1-3.6-5-6-8.3l-4.1-5.3c-0.5-0.8-1.6-1.8-1.9-2.4
					c1.1,2.6,2.5,4.1,3.9,6.7C-95.4,412.2-85.1,429.7-84.9,428.8z"/>
				<path class="st1" d="M-111.6,335.6c-1.7,1.4-2.4,1.6-3.7,3.4l-5.1,5.5c-0.6,0.7-0.9,1.3-1.5,1.9c-1.8,1.6-1.2,1.3-2.4,2.7
					l-1,1.2c1.7-0.8,3.2-2.9,4.8-4.2l5.8-4.8c0.5-0.5,0.5-0.5,1.1-0.9l6.4-5.8c1.3-0.9,0.9-1,1.9-1.9c0.4-0.4,0.7-0.5,1.1-0.9l1-1.1
					c-1.6,0.5-3.3,1.6-4.5,2.3L-111.6,335.6z"/>
				<path class="st1" d="M-113.8,368.5c1.1,0.1,2.7,1.9,6.8,3.4c2,0.7,5.6,2.3,7.6,2.6c-1.6-1.2-11-5.3-12-6.2l-4-1.7
					C-114.6,367.9-114.4,366.9-113.8,368.5z"/>
			</g>
			<g>
				<path class="st2" d="M-130,279c-0.1-0.1-0.1-0.2-0.2-0.2l-0.5-0.5c-0.3-0.2-0.6-0.4-0.9-0.5c-0.6-0.3-1.3-0.8-1.8-1
					c-3.6-2.1-7.2-4-10.3-6.5l-10.8-8.6c-0.7-0.6-0.7-0.8-1.6-1.2l9,13.1c2.1,3.1,2.4,2.3,7.7,3.5C-136.9,277.7-132.5,278.8-130,279
					z"/>
				<path class="st2" d="M-131.8,256.1c-0.7-2-3.5-6.5-4.8-9.3c-0.6-1.3-0.4-0.7-2.2-2.1l-11.8-9.4c-0.6-0.6-1-0.8-1.6-1.3
					c-0.9-0.7-0.6-0.8-1.7-1.2c0,4.8,0.9,3.2,2.8,5.5c2.2,2.6,2.7,2,4.4,4.2c0.9,1.1,2.1,1.6,3.1,2.7c1.4,1.4,0,0.5,2.7,2.7
					c2.3,1.8,1.6,1.7,2.9,2.8c1.2,1,1.9,1.4,3,2.7C-134.3,254.3-132.8,255.5-131.8,256.1z"/>
				<path class="st2" d="M-120.1,232.5c5.5,3.7,9,3,15.9,3c6,0,12,0.3,18,0.2L-120.1,232.5z"/>
			</g>
			<g>
				<path class="st3" d="M1.2,354c0.6-0.6,0.9-1,1.6-1.6c0.9-0.9,0.9-1.3,1.6-2c0.2,0.3,0.2,0.1,0.2,0.7c0,0.3,0,0.7-0.1,1
					c-0.1,0.7-0.3,1.7-0.2,2.3c0.1,1.3,1.1,2.2,1.5,3.4c1.6-0.6,2.7-1.8,4.1-2.4c0.6-3.1,2-3,0.8-6.3c-1.1-3.3,0.6-8.7,0.3-10.8
					c-0.2-1.4,0.2-0.1-0.7-1.2c-0.4-0.5-0.5-0.7-0.9-1.1c-0.5-0.6-0.4-0.4-0.9-1.1L6,331.9l-12,10.5l4.2,8.5
					c-1.5,1.2-3.7,1.9-5.3,3.2l1.8,3C-3.1,356.1-0.9,354.4,1.2,354z"/>
				<path class="st3" d="M-117,354.9c1.4,0.3,2.4,3.1,2.3,4.5c-0.2,2.1-1,4.1-1.4,6l6,0.7l-0.9-1.5l1.2-0.9
					c-2.2,0.2-2.8-0.4-3.8-1.8l4.3-0.1c1.5-1.5,2.7-1.1,4-3.7c0,0-3.8,4.1-5.9-0.3c-0.8-1.1-0.4-1.8-0.6-3.4
					c-0.9-1.1-1.9-1.2-3.5-1.5C-115.8,354.6-116.1,353.5-117,354.9z"/>
				<path class="st3" d="M-112.3,351.3c2.1-0.5,12,0.5,14,1.4l1.4-0.4c-0.8-2.5-2.7-1.7-4.7-3.2c0-1.2,0.8-3.3,1.2-4.5
					c-1.9,0.4-5,2-6.5,2.8C-108.2,348.2-111.5,350-112.3,351.3z"/>
			</g>
			<g>
				<path class="st4" d="M29.9,353.6c1.2,0.1,4.7,4.1,6.4,5.5c2.8,2.3,2.1,2.2,3.2,3.1c1.2,1,2.1,1.8,3.5,2.9
					c-0.1-3.4,1.6-11.2,2.3-15c0.7-4.3,2-10.5,2.2-14.6c1.5,1.5,0-0.4,1,1.4c0.2,0.3,0.4,0.7,0.6,1.1c0.5,0.9,0.7,1.5,1.3,2.4
					l2.7,4.6l1.9-17.8l-0.4,1.1c-0.7-1.7-4-9.3-5-10.5L32.7,327l1.5,3.1c0.8,1.6,1.1,1.5,0.5,3.3c-1,3.3-6.1,19-6.1,20.2L29.9,353.6
					z"/>
				<path class="st4" d="M-44.6,354.8l1,1.1c0.5,0.5,0.6,0.7,1,1c1.7-4.2,3.3-8.5,4.9-12.7c1.9-4.9,3.6-3.5,9.6-8.4l-28.5,12.8
					c-0.9,0.6-0.9,0.8-1.7,1.4l-1.7,1.4c-0.9,0.7-0.8,0.6-1.7,1.5c3.4-0.9,13.7-5,15.6-5.3L-44.6,354.8z"/>
			</g>
			<g>
				<path class="st5" d="M-100.4,344.6c-0.4,1.2-1.2,3.3-1.2,4.5c2,1.4,3.9,0.7,4.7,3.2l-1.4,0.4c0.2,0.3,0.5,0.7,0.5,1.1
					c0.1,0.5,0.1,0.3,0,0.7c-0.1,0.7,0,0.3-0.3,0.6c0.1,0.1,0.4,0.6,0.4,0.7c-0.9,0.3-0.3,0.1-0.9,0.4l-0.5,0.4
					c-0.9,0-0.7-0.1-1.3,0.4c-1.1,0.9-0.3,0-0.4,0.9c-0.1,1-0.6,1.5-1.8,2.3c-2,1.4-5.1,2.7-7.4,3.6l-1.2,0.9l0.9,1.5l-6-0.7
					c0.5-1.9,1.3-3.9,1.4-6c0.1-1.4-0.9-4.2-2.3-4.5c-1.4,1.1-3,2.2-4.4,3.3c-1-0.4-1.9-1.3-2.8-2c-1.1-0.9-1.8-1.5-2.7-2.2l0.5-0.5
					l-3.9-1.6c0.5,1.3,0.9,1.6,1.7,2.8c2.7,4.5,4.4,5,3.3,8.5c0.5,1.6,1.2,0.1,0.3,2.8c-0.4,1.2-0.8,2.3-1.1,3.5
					c-1.8,6.1-5.2,14.8-6.3,20.6l-2,8.2c1.3,0.3,3.4,1.5,4.7,2.1c3,1.3,2.3,0.8,5.5,0.1c3.7-0.7,7.4-1.7,11.1-2.5
					c-1.2-0.9-4-1.5-5.7-1.9c0.2-0.8,1-2,1.5-2.7c0.5-0.6,0.7-0.6,1-1c0.2-0.3,0.2-0.2,0.3-0.5c0.3-0.6-0.1,0.3,0.2-0.6
					c-0.6-0.8,0.4-2,1-3.5c0.5-1.2,1-2.7,1.7-3.7c1.6,0.5,5.5,1.3,6.3,2.5c0.6,1,2.1,5.8,1.7,6.6c0.7,0.7,0.6,0.4,0.8,1.8l0.3,1.9
					c3.2-3-1.6-11.4-3.3-14.7c-2.2-4.5-4.6-9.2-7-13.2c0.5-0.5-0.6,0,0.4-0.4c-0.6-1.6-0.8-0.6-1.6-1.9l4,1.7
					c0.4-0.6,2.5-0.7,3.5-0.8c0.3-2.8,0.6-2.6,2.5-4c0.6-0.4,0.5-0.3,1-0.7c0.5-0.5,0.2-0.3,0.9-0.8l5.1-4.6c0.7-0.7,0.9-1,1.9-1.6
					c0.1-0.1,1.1-0.6,1.1-0.6c0.8-0.3,0-1,0.8,0.1l0.7-2.3l-1-0.8c-1.7-1.8-2.8-2.5-0.3-4.1c2.4-1.5,1.3-1.7,2-0.7
					c0.5-0.9,0.8-2.7,0.8-4C-94.6,342.9-98.5,343.5-100.4,344.6z"/>
				<path class="st5" d="M9.8,327.3c0.9,0.4,3.5,1.7,4,2.1c0.5,0.4,1.6,2.7,1.9,3.8c1,3.1,1.6,6.4,2,9.6c0.6,2.7-0.6,4.8-2.2,8.1
					c-2.1,4.2-4.1,5-4.7,6.3c-0.8,1.3-1.7,2.4-2.6,3.6c0.1,0,0.2,0,0.2,0.1c0.2,0.5,2.6-1.3,3.4-1.7c1.8-1,2-0.6,3.1-2.7
					c0.7-1.3,3.3-6.5,4.1-7.4c-0.3,2.6-3.1,12.5-4.3,14.6c-2.3,4-4.3,8.3-6.6,12.3c-1.9,3.3-0.8,3.6-4.8,4.7
					c-2.8,0.8-3.9,1.3-6.4-0.2c-1.2-0.7-4.3-8.1-5.8-9.4c-0.8-0.7-2.3-1.2-3.2-1.7l0.7-0.2c4.5-0.6,9.4,2.1,13.9-1.9l1.1-6
					c-0.9-0.7-1.5-1.1-2.4-1.6l-5.2,4.1c-3.1,2.3-1.4,1.7-6.1,0c-0.2-2.2-0.7-6.9,0-8.7c0-0.1-0.1-0.2-0.1-0.2l-0.2-0.8
					c-0.5-3.9,0.9-2.2-1.8-4.5c-0.8-0.7-4-3.4-4.8-3.7c-0.7,1.1-0.4,9.4-0.4,11.7c0,6.4,0.9,6.8,1.4,11.2c2-0.1,0.3-0.1,1,0.4
					c0.8,0.8,1.7,1.2,2.7,1.7c2.5,1.5,3.3,4.1,5.6,7.5c2.3,3.4,2.1,4.6,4,4.7c2.7,0.2,6.1,0.5,8.7,0.4c1.2-4.9,19.2-27.1,17.5-47.6
					c-0.3-3.5-1-5.7-2.4-8.4c-1.2-2.3,1-4.8,2.9-7.1L9,326.6C9.4,327,8.8,326.7,9.8,327.3z"/>
				<path class="st5" d="M-30.8,350.1c0.6-0.3,1.3-1.9,1.6-2.6c0.9-1.7,1.5-1.2,3.4-1.4c2.2-0.2,6.9-1.1,8.9-0.9l2-0.4l6.5,6.5
					l3.7-1.1c-4-9.1-5.1-5.9-2.6-11c2.8-5.7,3.4-6.7,8.4-8.8l4.3-1.7l0.3-2.9c-3.4,1-7.7,3-11.1,4.4c-3.6,1.4-7.2,2.9-10.8,4.3
					c-1.9,0.8-11.4,4-12.2,5.2l-3.7,9.3L-30.8,350.1z"/>
			</g>
			<g>
				<path class="st6" d="M-77.6,532.2c0.3,0.8-0.5,0.6,0.9,0.2l32.8-20.2l-0.3-16.8c1.5,0.3,24.2,4.2,25.2,3.5
					c-0.4-1.4-1.4-2.5-2.6-3.5c-0.6-0.5-1.1-0.8-1.6-1.2L-35,485c-4.3-3.2-2.7-2.6-7.9-4c-0.7-0.2-1.5-0.5-2.2-0.7
					c-2.6-0.7-1.8-0.1-2.1-1.2c-1.3,1.1-5.2-1.3-7-1.2c-0.7,0-3.1,2-4,2.7l-10.3,8c-0.7,0.5-0.7,0.3-1.4,1c0.3,0.7,4.3,5.1,5,5.7
					c1,0.7,0.8,0.4,1.6,1.3l3.8,4.2c1.9,2.1,2.2,1.9,5.4,5.5c0.8,1,1.7,2,2.6,2.9c1.1,1,1.9,0.9,2.6,2.8l-25.1,17.9
					C-75.4,530.7-76.5,531.2-77.6,532.2z"/>
				<path class="st6" d="M-36.6,465.1c-0.7-0.2,0-0.1-1-0.5l-0.5,7.3c-2.5,0-8.8-0.9-10.5-0.3l7.9,3.4c4.7,1.9,9.9,4.2,14.7,6.3
					c1.2,0.5,2.4,0.9,3.6,1.5c1.7,0.9,4.6,7,6.5,9c0.5-0.9,1.1-2.4,1.6-3.3c1.3-3,2.4-2-2.7-8.6c-0.8-1-3.5-4.5-3.3-5.4l9-18.4
					c1.3-2.5,4.9-10.8,6-12.3c-0.9,0.8-1.9,2.5-2.7,3.6l-17.3,25.2l-12.2-0.5c0-1.1,0.1-3.3,0.2-4.2
					C-37.2,464.5-36.1,465.4-36.6,465.1z"/>
			</g>
			<g>
				<path class="st7" d="M-107.2,334.6l-6.4,5.8c-0.6,0.4-0.6,0.4-1.1,0.9l-5.8,4.8c-1.6,1.3-3.1,3.4-4.8,4.2l1-1.2
					c1.3-1.4,0.7-1.1,2.4-2.7c0.7-0.6,1-1.2,1.5-1.9l5.1-5.5c1.3-1.8,2.1-2,3.7-3.4c-3.5,0.3-4.8,1.8-6.9,3.9l-6.3,8
					c-4.3-2.5-6-4.4-10.2-4.7l1.7-32.2c0.2-2.8,2.7-6.1,4.6-9.1c0.9-1.4,1.7-3,2.7-4.2l33.3-2.9c0.8,2,1.5,9.1,1.9,11.7
					c0.4,2.7,0.1,2.5-0.9,4.9l-5.9,14.2c-0.1,0.9,2.7,9.1,3.1,10.7c-4.3-0.9-11.8-1-11.9-1.1C-107.6,334.7-106.6,335.1-107.2,334.6z
					 M-121.8,292.6c-1.4,0.2-2.7,0.9-4.1,1.3c-2.6,0.8-2.9,2-5.1,5.7c-0.8,1.3-1.6,2.1-2.1,3.6c-1.4,1.8-1.4,1.2-1.7,4.2l-3.7,38.3
					l8,10.7c2.4,3.3,3.3,3.8,2.9,6.3c-2.2,12-6.4,25.4-8.7,37.3c1.1,0.4,0.4,0.2,1.2,0.8c0.4,0.3,0.5,0.2,0.9,0.6
					c5.8,1.4,2.8,2.6,11.2,0.6c3.5-0.9,8.2-2.1,11.6-2.6c0.5,1.6,1.8,2.9,2.5,4.4c-1.1,1-5.1,2.7-6.8,3.8l-1.1,0.8l0,3.4
					c0,1.4-0.2,2.7-0.3,4c-0.1,1.7-0.2,1.6,0.8,2.8c3.5,0,18.6,3.1,21.2,4.6c2.4,0.1,1.2,0.1,2.6,1.8c0.7,0.8,1.6,1.9,1.9,2.7
					l-4.2-1.3c-0.2,0.9,0.1,0.3-0.5,1c-0.9,2.7-3.8,5.1-3.5,8.3c1.7-1,1.3-1.2,2.1-2l1-0.8l-1.1,2.6c0.8-0.1,5.7-5.3,6.5-6.2
					c1.1,0.4,2.4,1.5,3.3,2.3c0.7,0.6,2.2,2,3,2.2c-0.1-0.8-0.3-1.5-0.5-2.3l-0.7-2.6c-0.2,0.9-10.5-16.6-11.9-19.1
					c-1.4-2.6-2.8-4.1-3.9-6.7c0.3,0.6,1.4,1.6,1.9,2.4l4.1,5.3c2.3,3.3,3.8,4.2,6,8.3l3.1,6.5c-0.7-4.6-2-9.4-2.9-14.1
					c-0.7-3.7-4.1-5.5-7.4-9.4c-0.7-0.8-1.2-1.4-1.8-2.2c-0.7-0.8-1.9-1.3-2.3-2c-0.5-1.2,3.9-19.9,4.3-20.7l37.8-13
					c1.1,1.7,5.1,12.1,6.2,14.9c0.8,1.8,1,1.6,2.8,2.3c1.3,0.5,2.6,1,3.9,1.5c2.4,0.9,5.6,1.8,7.5,3.2c-3.3,7-7.1,14.1-10.6,21
					l-14.4,29c-0.9,1.3-11.3,5.9-13,6.7c-3.4,1.7-7,3.8-10.4,5.3c-2.3,1-9-2.6-11.9-3.1c0.1-2.8,0.9-6,0.9-8.4
					c-0.8,0.8-1.5,2.5-1.8,3.8c-0.1,0.9-0.2,1.7-0.3,2.5c-0.1,1-0.5,1.5-0.7,2.1l0.4,3c0.8,0.8,1.4,0.7,3,1.3
					c1.1,0.4,2.2,0.8,3.4,1.2c4.2,1.4,4.5,2.3,6.7,1.2l25.1-10.9c0.8-0.5,2.7-4.5,3.3-5.5l29.1-52.3c-0.9-0.3-15.6-7.5-16.4-8.1
					c-0.4-0.3-0.2-0.1-0.6-0.8l-7.8-15.6c-3.9,1.1-36,10.5-36.8,10.3c-1.2,0.2-6.1,3.2-7.4,4c0.6-3.4,3.5-15.3,3.3-17.6
					c-0.8-1-0.1-0.4-0.8-0.1c0,0-1,0.6-1.1,0.6c-1,0.6-1.2,0.8-1.9,1.6l-5.1,4.6c-0.7,0.5-0.4,0.3-0.9,0.8c-0.4,0.4-0.4,0.3-1,0.7
					c-1.9,1.4-2.2,1.2-2.5,4c-1,0.2-3.1,0.2-3.5,0.8c1,0.9,10.4,5,12,6.2c-2-0.4-5.6-1.9-7.6-2.6c-4.1-1.4-5.7-3.3-6.8-3.4
					c-1,0.3,0-0.1-0.4,0.4c2.4,4,4.8,8.8,7,13.2c1.7,3.3,6.5,11.7,3.3,14.7l-0.3-1.9c-0.2-1.3-0.1-1-0.8-1.8
					c-3.5-5.7-3.4-6.4-8.3-6.7c-0.6,0.8-2.4,3.9-2.5,4.8c-0.3,0.9,0.1,0-0.2,0.6c-0.2,0.4-0.1,0.3-0.3,0.5c-0.3,0.4-0.5,0.4-1,1
					c-0.5,0.7-1.3,1.9-1.5,2.7c1.7,0.4,4.5,1,5.7,1.9c-3.7,0.8-7.4,1.7-11.1,2.5c-3.1,0.6-2.5,1.2-5.5-0.1c-1.4-0.6-3.5-1.7-4.7-2.1
					l2-8.2c-0.8,0.9-0.4,0.6-0.7,1.7l-0.8,1.6c0-1.5,7.2-30.2,7.8-30.8l0.9,0.5c1.1-3.5-0.6-4-3.3-8.5c-0.7-1.2-1.2-1.5-1.7-2.8
					l3.9,1.6c1.5-0.5,5.2-2.9,6.3-3.7c0.4-0.5,0-0.2,0.7-0.7c0.2-0.2,0.4-0.3,0.7-0.4c3.9-2.6,5.8-4,10.8-5.3
					c1.4-0.1,5.8-2.2,7.7-2.8c4.6-1.4,5.3-0.2,8.2,1.3c0.2-3,0.7-5.6,0.7-8.8c0-3.2-0.2-6.1-0.5-9.2l0.7-0.4c0.2-1.4,2.4-3.7,3.3-5
					l5.6-7.6c-1.7-2.8-3.3-6.6-4.8-9.6c-2.3-4.7-1.3-7.3-2.5-11.7L-121.8,292.6z"/>
				<path class="st7" d="M8.3,385.2l-3.4,4.9c-1.1,1.6-2,3-3.1,4.6l-31.3,46.7c-1.2,1.7-2.1,3.1-3.2,4.8c-1.8,2.7-5.1,14.6-6.8,16.5
					c0.5,1,0.1,0.3,0.9,1c0.7,0.6,0.4,0.1,1,0.9c1,0.3,0.2,0.2,1,0.5c1.4-2.9,12-16.8,14.9-21.1l31.9-43.5c0.7-0.9,1.4-2,2.1-3
					l10.6-14.5c0.5-1.2,2.9-14.9,3-16.8c-0.8,0.5-3.7,4.4-4.3,4.9l-9,9.6C11.2,382.1,8.3,384.4,8.3,385.2z"/>
			</g>
			<g>
				<path class="st8" d="M-87.7,406.4c0.7-1.4,12-20.1,13.6-22l11.5-12.2c0.6-0.5,1.6-1,1.9-1.5c-0.5,0.6-0.8,1.2-1.5,2.2
					c-0.6,0.8-1.1,1.5-1.7,2.3c-1.1,1.6-2.2,3-3.2,4.5l-19.6,25.8C-87.4,406.4-86.8,405.9-87.7,406.4z M-85.6,425.5l0.7,3.3l0.7,2.6
					c0.1,0.7,0.4,1.5,0.5,2.3c-0.8-0.2-2.3-1.7-3-2.2c-0.9-0.7-2.2-1.8-3.3-2.3c-0.8,0.9-5.7,6.1-6.5,6.2l-0.4,1.2
					c0,2.4-0.8,5.6-0.9,8.4c3,0.5,9.7,4.1,11.9,3.1c3.4-1.5,7-3.6,10.4-5.3c1.7-0.9,12.1-5.5,13-6.7l14.4-29c3.5-6.9,7.3-14,10.6-21
					c-1.9-1.4-5.2-2.3-7.5-3.2c-1.3-0.5-2.6-1-3.9-1.5c-1.8-0.7-2-0.5-2.8-2.3c-1.1-2.7-5.2-13.2-6.2-14.9l-37.8,13
					c-0.4,0.8-4.8,19.5-4.3,20.7c0.3,0.7,1.6,1.3,2.3,2c0.7,0.8,1.2,1.4,1.8,2.2c3.4,3.9,6.8,5.7,7.4,9.4
					C-87.6,416.1-86.3,420.9-85.6,425.5z"/>
				<path class="st8" d="M-111.6,335.6l3.8-2.5c1.2-0.7,3-1.8,4.5-2.3l-1,1.1c-0.4,0.3-0.7,0.5-1.1,0.9c-1,0.9-0.6,1-1.9,1.9
					c0.6,0.5-0.4,0.1,0.7,0.3c0.1,0,7.6,0.2,11.9,1.1c-0.5-1.6-3.2-9.8-3.1-10.7l5.9-14.2c1-2.4,1.4-2.2,0.9-4.9
					c-0.4-2.6-1.1-9.7-1.9-11.7l-33.3,2.9c-0.9,1.2-1.8,2.8-2.7,4.2c-1.9,3-4.4,6.3-4.6,9.1l-1.7,32.2c4.2,0.3,5.9,2.2,10.2,4.7
					l6.3-8C-116.3,337.3-115,335.9-111.6,335.6z"/>
			</g>
			<g>
				<path class="st9" d="M-83.3,224.2c1.2,0.7,49.7,4.4,60.4,7.5c4.7,1.3,5.6,2.6,8.6,4.9c1.5,1.1,4.9,5.6,5.9,7.6
					c2.7,5.4,4.1,10.5,1.7,16.4c-0.8,2.1-1.6,2.7-2.8,4.1l-2.6,2.6c-3.3,3.2-18.7,12.2-21.6,13.8c-5.7,3.1-11.7,6.2-17.8,9.3
					c-3,1.5-6,3-9,4.4c-2.6,1.3-6.4,3.2-9.2,4.1l-0.4-17.8c-1.9,5-3.8,11.4-5.6,16.8c-1.6,4.8-0.9,3.9,0.1,8.8
					c0.5,2.1,1.4,7.4,2.2,9.1c9.6-4,18.7-8.2,28.9-12.4c15-6.2,21.4-6.6,37-14.7c2.1-1.1,4.8-2.6,6.5-3.8c2.1-1.4,4.1-2.8,6.2-4.1
					c1-0.7,1.9-1.4,3-2.2l10.9-9.9c2.3-2.9,3.9-7,4.7-10.8c0.4-2.3,0.3-8.4,0.5-9.3c-0.8-3.6-0.7-3.1-5.7-6.5
					c-0.8-0.6-1.7-1.1-2.4-1.6l-4.8-3.5c-0.9-0.6-1.5-1.1-2.3-1.7c-6.8-5.3-10.7-6.5-18.1-10.4c-1.4-0.8-3.8-2.2-5.1-2.7
					c-2.5-0.5-13.9,0.4-17.3,0.6c-5.6,0.4-11.3,0.6-16.9,0.8C-59.7,223.9-71.9,224.4-83.3,224.2z"/>
				<path class="st9" d="M-133.5,296.8c2.4-4.4,2.6-4.4,5.3-5.5c7.6-3.1,15.8-5.7,23.7-8.5c5.3-1.9,10.6-3.8,15.9-5.6l13.8-4.8
					c0.9-0.3,1.4-0.4,2.1-1c-4.2,0.5-9.1,1.9-13.4,2.8c-4.3,0.8-8.7,1.8-12.9,2.7c-8.7,1.9-17.4,3.7-26.2,5.6
					c-2.6,0.6-15.3-4.2-20.1-5.7c-2-0.6-2-1.5-4.6-5.1l-3.4-4.6c-0.6-0.8-0.9-1.3-1.6-2.1l-3.4-4.6c-0.3-0.4-2.6-4.2-3-4
					c0,1.5,5.1,24.5,5.9,28.6c0.3,1.5,0.4,2.5,1.3,3.3l13.2,8.2c1.6,0.9,4,2.7,5.4,3.2L-133.5,296.8z"/>
				<path class="st9" d="M56.9,305.1l-18.3,9c-13.7,6.6-7.3,3.5-14.9,12.2c0.3,1.3,4,7.3,5,8.8c1,1.6-0.1,3.3-0.7,5.2
					c-0.5,1.7-1,3.3-1.5,5c-1.1,3.4-2.1,7.1-3.3,10.4c-0.6,1.8-3,8.8-3.1,10.2c0.8-0.8,0.6-0.6,1.3-1.4l1.3-1.6
					c0.5-0.7,0.2-0.2,0.7-0.8L25,360c0.8-1.1,4.6-5.2,4.9-6.3l-1.3-0.1c0-1.1,5-16.9,6.1-20.2c0.6-1.8,0.2-1.7-0.5-3.3l-1.5-3.1
					l16.9-9.1c1,1.2,4.3,8.8,5,10.5l0.4-1.1l2.5-22.2L56.9,305.1z"/>
				<path class="st9" d="M-157.9,235c-0.2,4.9-0.5,2.3,1.2,4.7l7,8.1c0.7,0.9,0.8,0.7,1.4,1.4c0.6,0.6,0.7,1.1,1.4,1.8
					c0.9,0.8,0.7,0.5,1.4,1.5c0.7,1.1,1.8,2.2,3.1,2.8c1.6,0.9,6.7,3.7,8.1,3.9c1.1,0.3,0.2,0.1,0.6-0.3c-2.4-2.3-3.4-3.8-4.5-4.9
					l-14.1-14.5c-1.9-1.9-4.4-3.6-5.2-7.5L-157.9,235z"/>
				<path class="st9" d="M-102.9,238.2l1.9-0.2c-1.2,0.3-13-2-15.5-2.4c-3.5-0.6-3.8-0.9-6.7-2.5c-1.6-0.8-5.2-2.2-5.8-3.4l-4,0
					c0.9,0.9,1.7,1.2,2.7,2c1.6,1.2,7.2,5.6,8.7,5.7L-102.9,238.2z"/>
			</g>
			<g>
				<path class="st10" d="M-23.8,382.9c-1.6-1.4-2.6-3.4-3.9-4.3c-0.9-0.7-3.8-2.1-4.9-2.8c1.9,0.4,15.5,4.4,16.2,5.1
					c-0.5,1-2.3,3.4-3.1,4.5c-5.5,7.8-9.8,15.6-14.9,23.4c-1.8,2.8-3.9,6.7-6,9.2L-23.8,382.9z M-30.8,350.1
					c-0.5,1.6-11,20-11.5,20.4c-1.2-2.3-8.3-18-8.5-19.5c-7,2.1-14.9,4.2-21.7,7.2c-5.1,2.2-5.4,2.9-9.2,5c-1.3,0.7-8.2,4.8-8.7,5.6
					c0.9,0.2,32.9-9.2,36.8-10.3l7.8,15.6c0.4,0.7,0.2,0.5,0.6,0.8c0.7,0.6,15.4,7.8,16.4,8.1l-29.1,52.3c-0.6,1-2.5,5-3.3,5.5
					l-25.1,10.9c-2.2,1-2.5,0.2-6.7-1.2c-1.1-0.4-2.2-0.8-3.4-1.2c-1.6-0.6-2.3-0.5-3-1.3c0.2,1.1,0,0.7,0.6,1.4l8.8,7
					c1.1,0.5,1.4,0.1,2.7-0.2l21.9-5.8c4.9-1.3,2.5-1.5,4.5-2.4c0.5-0.7,0.3-0.2,0.8-0.8l19.8-17.3c1-1,1-0.8,1.9-1.6l13.8-12.1
					c0.6-0.6,1.1-0.8,1.7-1.4c0.9-1,0.8-0.7,1.7-1.4c3.8-2.9,8.6-15.6,10.7-18.1c-0.5,2.3-5,16.5-6.3,17.7l-35.7,35.4
					c-0.7,0.9-0.8,0.6-1.5,2c1,0.5,6.2,5.1,7.2,6.2l7.1,6.1c1.6-1.9,5-13.8,6.8-16.5c1.1-1.7,2.1-3.1,3.2-4.8l31.3-46.7
					c1.1-1.6,2.1-3.1,3.1-4.6l3.4-4.9c-3.1,1.7-6.9,7.2-12.2,2.2l-1.6-1.6c-1-0.9-5.2-7.3-6-8.8l-3.3-5.9c0-0.1-0.6-0.9-0.6-0.9
					c-0.5-1.6-0.4-0.4,0.2-0.9c-0.7-0.4,1-0.5-1-0.4c-0.6-4.4-1.4-4.8-1.4-11.2c0-2.2-0.3-10.5,0.4-11.7c0-0.9-0.4-0.4,0.3-0.9
					c-1.9-0.2-6.7,0.6-8.9,0.9c-1.9,0.2-2.5-0.2-3.4,1.4C-29.5,348.2-30.2,349.9-30.8,350.1z"/>
				<path class="st10" d="M-121.8,292.6l32.3-3c1.2,4.5,0.2,7,2.5,11.7c1.5,3,3.1,6.8,4.8,9.6l-5.6,7.6c-0.9,1.2-3.1,3.6-3.3,5
					l12.5-6.4c1.1-0.6,1-0.5,1.3-1c1-1.9,0.4-3.6-0.3-5.4l-4-10.3c-0.7-1.9-0.5-1.9,0.2-3.8l7.2-21L-121.8,292.6z"/>
				<path class="st10" d="M-109.7,430c3.2,0,5.8,0.9,8.8,1.5c1.8,0.4,1.9-0.8,2.9-1.9c0.5-0.5,2.4-2.2,3-2.5c0.6-0.7,0.2-0.1,0.5-1
					c-2.5-1.6-12-1.6-15.2-1.4L-109.7,430z"/>
				<path class="st10" d="M-110.4,422.7l15.5,0.4c-2.6-1.5-17.7-4.7-21.2-4.6c1.1,0.6,1.9,1.4,2.9,2.3c0.5,0.4,0.9,0.7,1.5,1.1
					C-111,422.5-111.5,422.4-110.4,422.7z"/>
			</g>
			<g>
				<path class="st11" d="M35.4,406.2l40.6,3.1c-0.6,1-6.3,5.4-7.7,6.5l-25,20.4c-0.8,0.7-0.8,0.6-1.4,1.1L15.3,459
					c-0.7,0.6-1.8,1.4-2.7,2.1l-7.9,6.3l-21.2,3.1c0.4-1.4,35.6-50.3,40.3-57.6c0.6-0.9,1.1-1.5,1.7-2.3c2.1-3,10.8-15.7,12-16.9
					L35.4,406.2z M-5.4,443.7c-1.1,1.5-4.6,9.9-6,12.3l-9,18.4c-0.2,1,2.6,4.4,3.3,5.4c5.1,6.6,4,5.6,2.7,8.6c-0.4,1-1,2.4-1.6,3.3
					c0.5,1.2,1.5,2.4,2.2,3.5c0.7,1.1,1.5,2.4,2.2,3.4l106.6-40.6l0.4,1.8l-0.2-1.7c0.7-0.6,3.1-1.4,4.1-1.8
					c1.5-0.6,2.9-1.2,4.4-1.6c-0.6-2.4-3.3-8.2-4.4-10.9c-2-4.9-13.2-31.7-13.3-32.9c-1.2-1.2-2.1-5.6-3.1-6.9
					c-0.6-0.7-0.7-0.6-1.8-0.7c-6.8-1-14.6-3.1-22.4-4.3l-1.7-0.3l-0.4,0c-1.6-0.7-9.9-2.1-12.5-2.5c0.8-4.6,5.7-22.9,5.7-24.3
					c0.1-2.1-2.2-4.8-2-8.2c-0.1,0.5-0.1,1.6-0.3,2.2l-19.5,28.4c-0.7,1-0.9,1.5-1.7,2.6c-0.6,0.8-1.1,1.5-1.7,2.3l-5.1,7.4
					c-4.3,6-9.2,13.7-13.6,19.8l-10.2,14.7C-4.7,442.3-4.8,442.6-5.4,443.7z"/>
				<path class="st11" d="M-77.6,532.2c-3,1.8-6,4.4-9,6.4l-5,3.7c0-0.1-0.1,0.1-0.2,0.3l4.5,1.9c0.1-0.2-0.1-0.7,1.8-0.3
					c0.6,0.1,1,0.3,1.7,0.5c1.2,0.2,2.4,0.4,3.6,0.7c2.4,0.5,4.8,0.9,7.2,1.3c4.8,0.8,9.7,1.7,14.5,2.6c9.6,1.8,19.4,3.2,28.9,5.3
					c-0.3-0.8-0.3-0.6-0.6-1.3l-5.4-6.5c-0.8-1.1-0.8-0.6-1.7-2.1l-9.3-11.1c-2.1-2.5-5-5.6-6.8-8.3l12.5-8.6
					c1.2-0.8,2.2-1.5,3.2-2.2c1.8-1.2,7.7-5.9,9.6-6.2c-0.4-0.4,0.2-0.6-0.5-0.3c0.9-0.1,10.5-6.7,11-7.6l-1.2-1.3
					c-1,0.7-23.8-3.3-25.2-3.5l0.3,16.8l-32.8,20.2C-78.2,532.9-77.3,533-77.6,532.2z"/>
				<path class="st11" d="M95.9,465.1c-0.6,0.5-91,31.3-91.5,31.3c2.4-0.1,27-5.1,31.6-6l23.9-4.6c2.3-0.4,6.3-1.8,8.3-1.5
					c5.3-1.5,27.2-5.5,34.3-6.9c3-0.6,8.8-1,10.2-2.6l10.1-13c0.7-1,1.9-2.2,2.1-3c-0.5-0.6-1.1-1.2-1.7-1.9l-16.9-21.6
					c-0.4-0.5-0.6-0.7-0.9-1.1l-5.2-6.6c0.8,2.2,2.4,5.5,3.5,7.7c1.2,2.3,2.5,5.4,3.6,7.9l7.1,15.7C113.7,459.4,97,465.1,95.9,465.1
					z"/>
			</g>
			<g>
				<path class="st12" d="M-44.6,354.8l-1.4-7.1c-1.9,0.3-12.2,4.3-15.6,5.3c0.9-0.9,0.7-0.7,1.7-1.5l1.7-1.4
					c0.8-0.6,0.8-0.8,1.7-1.4l28.5-12.8l7.5-3.4c-1.3,1.1-3.1,2.3-4.6,3.3l-4.9,3.3c-1.9,1.2-1.8,2.1-3,5.2
					c-0.7,1.7-1.9,4.3-2.3,6.1l1.2,1.1c0.4,0.4,0.1,0,0.5,0.5c-1,2.4-2.2,6.1-3.4,8.2L-41,365c-0.6,0.8-0.7,1.1-1.2,1.6L-44.6,354.8
					z M26,249.7l6.9,7.2c1.3,1.9,2.3,1.7,2.1,5c-0.1,2.6-0.7,4.1-1.1,6.4c1,0.7,3.9,6.1,4.6,7.5c1.4-1,2-4.7,2.9-6.2
					c1,0.9,4,6.4,4.9,8.2c1.5,2.8,0.1,3.7-1.6,5.9c-0.6,0.8-0.5,1.2-1.6,1.7l3.1,10.1c1.3-0.6,2.4-1.9,3.4-2.9c1-1,2-1.8,3.1-3
					c0.8,1.7,3,9.5,3.1,11.3c-1.9,2-9.6,6.2-13.2,7.6c-0.8-3.1-1.1-7.5-1.8-11c-2.3-10.4-5.9-18.6-11-27.6c1.6,7.3,3.2,7,4.6,19.4
					c0.6,5.1,0,4.9,1.1,10.8c0.5,2.7,1.3,8.2,1.3,10.9l-6,2.2c-0.3-3.5-0.6-6.5-1-9.8c-0.5-4.3-0.8-4.6-2.5-7.9
					c-1.3-2.5-2.6-4.4-4-6.6c-0.6-1-1.4-2.1-2.1-3.1c-0.7-1-1.4-2.3-2.3-3.1l0.8,2.3c-1.7,1-6.1,4.2-8,4.7l1.4,6.1
					c2.5-0.7,5-2.9,7.2-3.6l1.7,7.3c-0.9,1.1-6.1,2.6-7.7,3.7l0.8,7c2.1,0,7.8-3.2,9.6-3.2l0.6,7.9l-22.3,7c-0.3-1.5-6-11-7-12
					c-0.8,0.9-2.2,5.1-2.2,6.5c0.1,2.7,0.4,5.5,0.5,8.3c-1.2,0.9-4.9,1.9-6.5,2.5c-0.4-2.4-0.7-11.2-1.2-15
					c-0.2-1.6-1.2-12.9-2.4-14.4c-0.2,4.3,0.1,28.9-1.3,31.2c-0.5,0.8-7.5,3.4-8.3,3.6c-1.7-3.3-3-17.6-4.9-20.3
					c-0.3,3.9-0.3,8-0.7,12c-0.2,1.9-0.2,3.7-0.4,5.7l-0.4,4.2c-0.3,2.4-0.6,1.4-7.7,4.8c-1.7,0.8-6.3,3.2-7.6,3.5l-1.6-7.5
					c-1.1,0.3-3.2,1.5-4.3,2l-2.9,1.4c-1.9,1-1.3,2.3-2.7,7.9c-0.8,3.4-1.5,3.1-4.4,4.5c-4,1.9-7.7,4.4-11.7,6.3
					c1.1-5.5,1.5-11.2,2.1-16.9c-2.4,0.9-6.3,3.1-8.7,4.4c-1.7,1-1.3,2.4-1.6,4.6c-0.3,1.9-0.6,3.8-0.9,5.7
					c-0.3,1.8-0.6,3.5-1.1,5.2c-1.1,4.5-0.6,3.2-6.3,6.5c-1.5,0.9-2.7,1.7-4.2,2.5c0.3-2.4,2-7,2.7-9.8c1.7-6.9,3-14.1,3.5-21.2
					c0.3-3.8,0.2-8.6,0.6-12.1c1.3-0.7,6.1-3.1,7.2-3.2c0.2,4.8,0,8.9,0,13.6l9.3-4.4c0.1-4.5-0.7-8.9-0.7-13
					c0.7-0.7,5.6-2.6,6.9-3.1c0.7,3.5,0.9,9.2,1.1,13c0.2,4.9-0.4,9.7-0.2,14.4c0.1-0.1,0.1-0.3,0.2-0.2l1.1-3.4
					c1.8-6.1,3.1-12.5,4-18.8c0.4-2.3,0.7-6.1,1.3-8.1l8.3-3.5c0.4,1.9,3,6.9,3.9,9.1c0.7,1.6,1.2,3.1,1.9,4.7
					c0.6,1.5,0.9,3.6,2,4.8c-0.7-6.2-3.5-13.6-5-19.6l6.8-2.8c1.9,5.6,3.1,11.4,4,17.2c0.3,1.9,0.4,4.5,0.9,6.1
					c0.9-2,1.6-22.2,1.7-26l5.4-2.1c3.2,4.4,5.6,19.9,7.1,22.3c0.8-8.2-0.5-17-0.3-25.1l12.5-5.1l2.1,11.4c0.9-1.1,3-8.6,3.5-10.6
					c0.7-2.7,0.1-3.5,2.5-4.6c1.7-0.8,3.1-1.7,4.9-2.4c-0.3,4.3-2,9.4-3.1,13.5c-1.4,5.1-1.1,2.3,4.2,10.4c0.8,1.2,1.4,2.3,2.2,3.5
					c0.5,0.8,0.7,1.1,1.1,1.8l0.8,1.3c0.3,0.4,0.2,0.3,0.5,0.6c-0.2-8.1-1.3-16.2-3-24.1c-0.5-2.3-1.5-5.3-1.8-7.5
					c1.4-1,3-1.7,4.4-2.6c2.7-1.7,9.9-6.8,11.6-9.3c2.4,2.6,8.7,13.7,9.7,14.4c-0.7-6.6-2.9-13.3-5.2-19.3c-0.6-1.5,0.5-2.5,1.1-4.1
					c0.6-1.5,1-3.1,1.3-4.7c0.3-2,0.3-3.9,0-5.9C26.8,252.8,26.2,251.3,26,249.7z M-70.1,281l4-11.5l-6.6,1.9
					c-0.6,0.6-1.2,0.7-2.1,1l-13.8,4.8c-5.3,1.8-10.6,3.7-15.9,5.6c-7.9,2.8-16.2,5.5-23.7,8.5c-2.7,1.1-3,1.1-5.3,5.5
					c0,1.1,0,2.2,0,3.2c0,0.8-0.2,2.6,0.5,3.1c0.4-1.4,1.3-2.3,2.1-3.6c2.2-3.7,2.5-4.9,5.1-5.7c1.4-0.4,2.7-1.1,4.1-1.3l47.6-16.9
					l-7.2,21c-0.7,1.9-1,1.9-0.2,3.8l4,10.3c0.7,1.8,1.3,3.5,0.3,5.4c-0.3,0.5-0.1,0.4-1.3,1l-12.5,6.4l-0.7,0.4
					c0.3,3.1,0.5,6.1,0.5,9.2c-0.1,3.2-0.5,5.8-0.7,8.8c0.8,1.4,0.6,0,0.9,1.5l-1.2-0.2c-0.1,1.3-0.3,3.1-0.8,4
					c0.3,1.6-0.6,3.9-0.7,5.6l-0.7,2.3c0.2,2.3-2.6,14.2-3.3,17.6c1.3-0.8,6.2-3.8,7.4-4c0.5-0.8,7.5-4.9,8.7-5.6
					c3.8-2.2,4.2-2.8,9.2-5c6.8-2.9,14.6-5.1,21.7-7.2c0.2,1.6,7.3,17.2,8.5,19.5c0.5-0.4,11-18.8,11.5-20.4l-1.4-1.2l3.7-9.3
					c0.8-1.2,10.3-4.4,12.2-5.2c3.6-1.4,7.2-2.9,10.8-4.3c3.4-1.3,7.7-3.4,11.1-4.4l-0.3,2.9l-4.3,1.7c0.8,0.3,3.1-0.7,4.4-1.3
					c1.2-0.5,3.7-0.9,4.3-1.7c-1-0.5-0.4-0.3-0.8-0.7l14.8-5.9c-1.9,2.3-4.1,4.7-2.9,7.1c1.4,2.7,2.1,4.9,2.4,8.4
					C25,356.5,7,378.8,5.8,383.7c-2.6,0.1-6-0.2-8.7-0.4c-1.9-0.1-1.7-1.3-4-4.7c-2.3-3.4-3.1-6-5.6-7.5c-0.9-0.6-1.9-0.9-2.7-1.7
					c-0.6,0.5-0.7-0.6-0.2,0.9c0,0,0.5,0.8,0.6,0.9l3.3,5.9c0.9,1.5,5.1,7.9,6,8.8l1.6,1.6c5.3,5.1,9.1-0.4,12.2-2.2
					c0.1-0.8,3-3.1,4.4-4.5l9-9.6c0.6-0.6,3.5-4.4,4.3-4.9c-0.1,1.9-2.5,15.5-3,16.8l-10.6,14.5c-0.7,1-1.5,2.1-2.1,3L-21.7,444
					c-2.9,4.2-13.5,18.1-14.9,21.1c0.6,0.3-0.6-0.5-0.8,2.7c-0.1,0.9-0.2,3.1-0.2,4.2l12.2,0.5l17.3-25.2c0.8-1.1,1.8-2.8,2.7-3.6
					c0.6-1.2,0.7-1.4,1.5-2.5l10.2-14.7c4.3-6.1,9.3-13.9,13.6-19.8l5.1-7.4c0.5-0.8,1.1-1.5,1.7-2.3c0.8-1.1,1.1-1.6,1.7-2.6
					L47.8,366c0.2-0.6,0.2-1.7,0.3-2.2l0.7-15.7c0.8,0.4,1.4,1.7,1.9,2.5c0.6,0.9,1.2,1.8,1.9,2.5l0.3-8l-2.7-4.6
					c-0.6-1-0.8-1.5-1.3-2.4c-0.2-0.4-0.4-0.7-0.6-1.1c-1-1.8,0.5,0.1-1-1.4c-0.2,4.1-1.5,10.3-2.2,14.6c-0.6,3.8-2.3,11.6-2.3,15
					c-1.4-1.1-2.3-1.9-3.5-2.9c-1.1-1-0.4-0.8-3.2-3.1c-1.7-1.4-5.2-5.4-6.4-5.5c-0.3,1.1-4.1,5.3-4.9,6.3l-1.8,2.2
					c-0.5,0.6-0.1,0.1-0.7,0.8l-1.3,1.6c-0.7,0.9-0.5,0.7-1.3,1.4c0.1-1.4,2.5-8.3,3.1-10.2c1.1-3.4,2.2-7,3.3-10.4
					c0.5-1.7,1-3.3,1.5-5c0.6-1.9,1.7-3.7,0.7-5.2c-1-1.5-4.7-7.5-5-8.8c7.6-8.6,1.2-5.5,14.9-12.2l18.3-9
					c-0.5-1.9-0.9-12.2-1.1-15.6c-0.1-1.4,0.1-1.3-0.7-2c-5.9-4.7-4.3-0.9-5-8.8c-0.1-1.4-2.3-3.7-3.2-4.9c-0.7-0.9-0.6-0.7-1.2-1.7
					c-0.5-0.1-2.1-2.3-2.5-2.9c-0.8-1.2-1.7-2.2-2.5-3.2c-3.1-3.8-1.6-2.6-2.1-6.5c-0.2-1.3-0.4-1.1-1.1-1.8l-5.3-6.2
					c-0.9-0.5-7.2-2.9-8.1-3.1c-0.3,0.8-0.1,7-0.5,9.3c-0.7,3.8-2.3,7.9-4.7,10.8L8,278.5c-1,0.8-1.9,1.5-3,2.2
					c-2.1,1.4-4,2.7-6.2,4.1c-1.7,1.2-4.4,2.7-6.5,3.8c-15.6,8.1-21.9,8.5-37,14.7c-10.1,4.2-19.2,8.4-28.9,12.4
					c-0.8-1.7-1.7-7-2.2-9.1c-1.1-4.9-1.7-3.9-0.1-8.8C-73.9,292.4-72,286.1-70.1,281z"/>
				<path class="st12" d="M-15.9,491.9c-1.9-2-4.8-8.1-6.5-9c-1.2-0.6-2.4-1-3.6-1.5c-4.8-2.1-10-4.4-14.7-6.3
					c-0.6,0.9-5.4,3.4-6.6,4c0.3,1.1-0.5,0.6,2.1,1.2c0.8,0.2,1.5,0.5,2.2,0.7c5.2,1.5,3.7,0.8,7.9,4l11.9,9.3
					c0.6,0.4,1.1,0.8,1.6,1.2c1.2,1,2.2,2.1,2.6,3.5l1.2,1.3c-0.5,0.9-10.1,7.5-11,7.6c0.7-0.3,0.1-0.1,0.5,0.3c0.4,0.8,4.1,3,4.3,3
					c2.3-1.1,7.9-4.7,10.1-5.1c4.2-0.7,8.5-1.3,12.8-2l38.5-6c6-0.9,7.1-0.6,11.7-3.1c2.5-1.4,18.1-9.7,19.1-10.6
					c-2-0.3-6,1-8.3,1.5L36,490.3c-4.6,0.9-29.2,6-31.6,6c0.5,0,90.9-30.7,91.5-31.3l-0.4-5.1l-0.4-1.8l-106.6,40.6
					c-0.6-1.1-1.5-2.3-2.2-3.4C-14.4,494.3-15.4,493.1-15.9,491.9z"/>
				<path class="st12" d="M-60.8,447.9l8.5,0.4l35.7-35.4c1.3-1.2,5.8-15.4,6.3-17.7c-2.2,2.5-6.9,15.2-10.7,18.1
					c-0.9,0.7-0.8,0.5-1.7,1.4c-0.6,0.6-1.1,0.8-1.7,1.4l-13.8,12.1c-0.9,0.8-0.9,0.5-1.9,1.6L-60,447.2
					C-60.5,447.7-60.3,447.2-60.8,447.9z"/>
				<path class="st12" d="M-50.3,328.6c-0.1-1.3-3.1-11.1-3.7-11.9c-0.4,1.5-0.4,5.6-0.6,7.5c-0.2,2.2-0.6,4.6-0.9,6.9L-50.3,328.6z
					"/>
			</g>
			<path class="st13" d="M-130,279c-2.5-0.2-6.9-1.3-9.4-1.9c-5.3-1.2-5.6-0.4-7.7-3.5l-9-13.1c0.9,0.3,0.9,0.6,1.6,1.2l10.8,8.6
				c3.1,2.5,6.7,4.4,10.3,6.5c0.5,0.3,1.2,0.7,1.8,1c0.3,0.2,0.6,0.3,0.9,0.5l0.5,0.5C-130.2,278.8-130.1,278.9-130,279z
				 M-131.8,256.1c-1-0.6-2.4-1.8-3.2-2.7c-1.1-1.3-1.8-1.7-3-2.7c-1.3-1.1-0.6-1-2.9-2.8c-2.8-2.2-1.4-1.3-2.7-2.7
				c-1-1-2.2-1.6-3.1-2.7c-1.7-2.1-2.1-1.5-4.4-4.2c-1.9-2.3-2.8-0.7-2.8-5.5c1.1,0.4,0.9,0.5,1.7,1.2c0.6,0.5,0.9,0.7,1.6,1.3
				l11.8,9.4c1.8,1.4,1.6,0.8,2.2,2.1C-135.3,249.6-132.5,254.1-131.8,256.1z M-86.3,235.7c-5.9,0.1-12-0.2-18-0.2
				c-6.9,0-10.4,0.7-15.9-3L-86.3,235.7z M-129,229.7c0.7,1.2,4.3,2.6,5.8,3.4c2.9,1.6,3.2,1.9,6.7,2.5c2.5,0.4,14.3,2.7,15.5,2.4
				l-1.9,0.2l4,0.2c-0.1,0-0.2,0.1-0.3,0.1c-2.1,0.7-19.6,1.1-25.1,1.4c-3.8,0.3-4,0.3-7.4-0.9c-5-1.8-22.8-8.7-25.9-9.5l-0.3,5.5
				l0.5-3c0.9,3.9,3.3,5.6,5.2,7.5l14.1,14.5c1.1,1.1,2.1,2.6,4.5,4.9c-0.4,0.4,0.5,0.5-0.6,0.3l0.4,0.6c-3.6,0.2-11.5-1-15.5-1.4
				c-3.3-0.3-9.3-3.2-12.7-4.5l0.7,2.6c0.4-0.2,2.7,3.6,3,4l3.4,4.6c0.6,0.8,1,1.3,1.6,2.1l3.4,4.6c2.6,3.6,2.7,4.5,4.6,5.1
				c4.7,1.4,17.4,6.3,20.1,5.7c8.8-2,17.4-3.7,26.2-5.6c4.3-0.9,8.7-1.9,12.9-2.7c4.3-0.9,9.2-2.3,13.4-2.8l6.6-1.9l-4,11.5
				l0.4,17.8c2.8-0.9,6.6-2.9,9.2-4.1c3-1.4,6-3,9-4.4c6.2-3,12.1-6.1,17.8-9.3c2.9-1.6,18.3-10.6,21.6-13.8l2.6-2.6
				c1.1-1.4,1.9-2,2.8-4.1c2.4-5.9,1-11-1.7-16.4c-1-2-4.3-6.4-5.9-7.6c-3-2.2-3.9-3.5-8.6-4.9c-10.6-3-59.2-6.8-60.4-7.5l-18,0.3
				c2.6,1,9.1,2.1,12.2,2.8l10.8,2.4c0.6,0.2,0.1,0,0.7,0.2c0.5,0.2,0.4,0.2,0.7,0.5L-129,229.7z"/>
			<path class="st14" d="M-55.5,331.2c0.2-2.4,0.7-4.7,0.9-6.9c0.2-1.9,0.3-6,0.6-7.5c0.6,0.8,3.5,10.6,3.7,11.9L-55.5,331.2z
				 M26,249.7c0.2,1.6,0.8,3.1,1,5c0.2,2,0.2,3.9,0,5.9c-0.2,1.6-0.7,3.3-1.3,4.7c-0.7,1.6-1.7,2.6-1.1,4.1c2.3,6,4.5,12.7,5.2,19.3
				c-0.9-0.8-7.2-11.8-9.7-14.4c-1.7,2.5-8.9,7.6-11.6,9.3c-1.4,0.8-3,1.6-4.4,2.6c0.3,2.1,1.3,5.2,1.8,7.5c1.6,7.9,2.7,16,3,24.1
				c-0.2-0.3-0.2-0.2-0.5-0.6l-0.8-1.3c-0.4-0.6-0.6-1-1.1-1.8c-0.8-1.2-1.4-2.3-2.2-3.5c-5.3-8.1-5.6-5.3-4.2-10.4
				c1.1-4.1,2.9-9.2,3.1-13.5c-1.7,0.7-3.1,1.5-4.9,2.4c-2.4,1.1-1.8,1.9-2.5,4.6c-0.5,2-2.6,9.5-3.5,10.6l-2.1-11.4l-12.5,5.1
				c-0.2,8.1,1.1,16.8,0.3,25.1c-1.4-2.4-3.8-18-7.1-22.3l-5.4,2.1c-0.1,3.8-0.9,24-1.7,26c-0.5-1.7-0.6-4.3-0.9-6.1
				c-1-5.8-2.2-11.6-4-17.2l-6.8,2.8c1.5,6,4.3,13.4,5,19.6c-1-1.3-1.4-3.3-2-4.8c-0.6-1.6-1.2-3.1-1.9-4.7
				c-0.9-2.2-3.4-7.2-3.9-9.1l-8.3,3.5c-0.5,2-0.9,5.9-1.3,8.1c-1,6.3-2.2,12.7-4,18.8l-1.1,3.4c0,0-0.1,0.1-0.2,0.2
				c-0.1-4.7,0.4-9.5,0.2-14.4c-0.1-3.8-0.4-9.5-1.1-13c-1.3,0.4-6.2,2.3-6.9,3.1c0,4.1,0.8,8.5,0.7,13l-9.3,4.4
				c0-4.7,0.3-8.8,0-13.6c-1.1,0.1-5.9,2.5-7.2,3.2c-0.4,3.5-0.3,8.3-0.6,12.1c-0.5,7.1-1.8,14.3-3.5,21.2c-0.7,2.8-2.3,7.4-2.7,9.8
				c1.6-0.7,2.8-1.6,4.2-2.5c5.7-3.3,5.3-2,6.3-6.5c0.4-1.7,0.7-3.5,1.1-5.2c0.3-1.9,0.7-3.8,0.9-5.7c0.3-2.2,0-3.6,1.6-4.6
				c2.4-1.3,6.3-3.5,8.7-4.4c-0.6,5.7-1,11.4-2.1,16.9c3.9-1.8,7.7-4.4,11.7-6.3c2.9-1.3,3.6-1,4.4-4.5c1.4-5.6,0.8-6.9,2.7-7.9
				l2.9-1.4c1.1-0.5,3.2-1.7,4.3-2l1.6,7.5c1.2-0.3,5.9-2.7,7.6-3.5c7.1-3.4,7.4-2.4,7.7-4.8l0.4-4.2c0.2-2,0.3-3.8,0.4-5.7
				c0.3-4,0.3-8,0.7-12c1.9,2.7,3.2,17,4.9,20.3c0.7-0.3,7.8-2.8,8.3-3.6c1.4-2.3,1.1-26.9,1.3-31.2c1.2,1.5,2.2,12.9,2.4,14.4
				c0.5,3.9,0.8,12.6,1.2,15c1.6-0.5,5.3-1.5,6.5-2.5c-0.1-2.8-0.4-5.6-0.5-8.3c0-1.4,1.4-5.6,2.2-6.5c1,1,6.6,10.5,7,12l22.3-7
				l-0.6-7.9c-1.8,0-7.5,3.2-9.6,3.2l-0.8-7c1.6-1.1,6.8-2.6,7.7-3.7l-1.7-7.3c-2.3,0.7-4.8,2.8-7.2,3.6l-1.4-6.1
				c2-0.6,6.3-3.7,8-4.7l-0.8-2.3c0.8,0.8,1.5,2,2.3,3.1c0.7,1,1.4,2.1,2.1,3.1c1.4,2.2,2.7,4.1,4,6.6c1.7,3.3,2,3.7,2.5,7.9
				c0.4,3.3,0.7,6.3,1,9.8l6-2.2c0.1-2.7-0.8-8.2-1.3-10.9c-1.1-6-0.6-5.7-1.1-10.8c-1.4-12.4-2.9-12.1-4.6-19.4
				c5.1,9.1,8.7,17.3,11,27.6c0.8,3.5,1,8,1.8,11c3.6-1.4,11.3-5.5,13.2-7.6c-0.1-1.8-2.3-9.6-3.1-11.3c-1.1,1.1-2.1,1.9-3.1,3
				c-1,1-2.1,2.3-3.4,2.9l-3.1-10.1c1.1-0.5,1-0.9,1.6-1.7c1.7-2.2,3.1-3.1,1.6-5.9c-0.9-1.7-4-7.2-4.9-8.2
				c-0.9,1.5-1.5,5.1-2.9,6.2c-0.7-1.4-3.6-6.8-4.6-7.5c0.4-2.4,1-3.8,1.1-6.4c0.2-3.3-0.8-3.1-2.1-5L26,249.7z"/>
			<path class="st15" d="M-27.1,543.6c0.3,0.8,0.9,1.5,1.6,2.1c4.6,3.7,1.3,3.9,6.9,4.4c4.5,0.3,9.3,0.6,13.8,0.9
				c18.4,0.9,36.7,2.7,55.4,3.7c4.7,0.3,9.3,0.8,14,1c4.3,0.2,9.5,0.4,13.7,0.9l-19.8-17.7c-0.6-0.5-0.4-0.6-0.9-1.1l-8.3-7.4
				c-0.5-0.3-0.8-0.5-1.2-0.9l-3.2-2.7c0-0.8,0.5,0-0.6-0.9l-7.3-6.5c-0.5-0.5-4.4-3.5-4.8-4.3c-10,2.4-22.1,3.4-32.7,5.4
				c-5.2,1-11,1.8-16.2,2.6c-4.8,0.7-11.3,1.5-16,2.6L-27.1,543.6z"/>
			<path class="st16" d="M37.4,393.7c-1.2,1.1-9.9,13.8-12,16.9c-0.6,0.8-1.1,1.5-1.7,2.3c-4.7,7.3-39.9,56.3-40.3,57.6l21.2-3.1
				l7.9-6.3c0.9-0.8,2-1.5,2.7-2.1l26.5-21.7c0.7-0.5,0.7-0.5,1.4-1.1l25-20.4c1.4-1.1,7.1-5.5,7.7-6.5l-40.6-3.1L37.4,393.7z"/>
			<path class="st17" d="M-28.9,541.8l1.8,1.8l-5.7-17.8c4.8-1.1,11.3-1.9,16-2.6c5.3-0.8,11-1.6,16.2-2.6c10.6-2,22.7-3,32.7-5.4
				c-0.5-0.5-1-0.8-1.5-1.3c1.2-1,22.4-9.1,25.8-10.4c5.8-2.3,21.4-8.2,26-10.3c-1,0.1-2.5,0.6-3.8,0.8l-90.3,14.3
				c-2.8,0.4-4.6,1.9-6.9,3.1l-25.1,13.5c-0.1,0-0.1,0.1-0.2,0.1l-0.5,0.4c0.6,0.7,1.3,1.6,1.9,2.2c3.1,2.7,1.2,1.2,3.8,4.1
				c0.8,0.9,1.3,0.9,2.1,1.9c3.4,4.1,1.9,2.1,3.9,4.1l2.7,3.3C-29.5,541.4-29.4,541.4-28.9,541.8z"/>
			<path class="st18" d="M-30.2,553.3c0.3,0.7,0.3,0.5,0.6,1.3c-9.5-2-19.3-3.4-28.9-5.3c-4.8-0.9-9.6-1.8-14.5-2.6
				c-2.4-0.4-4.8-0.9-7.2-1.3c-1.2-0.2-2.4-0.4-3.6-0.7c-0.7-0.1-1.1-0.3-1.7-0.5c-1.9-0.5-1.6,0.1-1.8,0.3
				c2.1,0.5,49.6,19.8,55.1,21.9c5.1,2,7.7,1.8,13.1,2.3c4.2,0.4,25.8,2.5,28.2,2.3c-0.4-1.3-7.7-13.5-7.7-13.5
				c-0.2-0.7-25.6-1.9-29.1-2.4C-29.7,555-29,554.4-30.2,553.3z"/>
			<path class="st19" d="M1.1,330.3c-5,2.1-5.6,3.1-8.4,8.8c-2.5,5.1-1.4,2,2.6,11l-3.7,1.1l-6.5-6.5l-2,0.4
				c-0.7,0.5-0.4-0.1-0.3,0.9c0.8,0.3,4,3,4.8,3.7c2.8,2.3,1.3,0.6,1.8,4.5l0.2,0.8c0,0.1,0,0.2,0.1,0.2c0.3-1,0.5-3.2,0-4
				c0.1,4.1,0.3,7.6,0.1,11.8l4.8-1.9c0.1,0,0.4-0.2,0.4-0.2l0.3-0.2c0,0,0.1-0.1,0.1-0.1l0.4-0.4l5.5-6.3c-2.2,0.4-4.3,2.1-6.5,3.1
				l-1.8-3c1.6-1.3,3.7-2,5.3-3.2l-4.2-8.5l12-10.5l2.8,3.1c0.5,0.7,0.4,0.4,0.9,1.1c0.4,0.5,0.5,0.6,0.9,1.1c0.9,1,0.5-0.2,0.7,1.2
				c0.3,2.1-1.5,7.5-0.3,10.8c1.1,3.3-0.2,3.2-0.8,6.3c1.1-0.9,2.9-4.6,3.9-6.3c0.6-1,3.1-5.9,3.7-6.3c-0.4-3.2-0.9-6.5-2-9.6
				c-0.4-1.1-1.5-3.3-1.9-3.8c-0.5-0.4-3.1-1.8-4-2.1c-0.6,0.8-3.1,1.2-4.3,1.7C4.2,329.6,1.9,330.6,1.1,330.3z"/>
			<path class="st20" d="M8.1,360.9c-0.4,0.7-1,1.4-1.5,2.1c-0.5,0.7-0.9,1.3-1.4,2c-0.7,1-2.1,3.2-2.9,3.9l0.1-1.4
				c-4.5,4-9.4,1.3-13.9,1.9l-0.7,0.2c0.9,0.4,2.4,1,3.2,1.7c1.5,1.2,4.6,8.6,5.8,9.4c2.4,1.5,3.5,0.9,6.4,0.2
				c4-1.1,2.8-1.4,4.8-4.7c2.3-3.9,4.2-8.3,6.6-12.3c1.2-2.1,4-12,4.3-14.6c-0.8,0.8-3.4,6-4.1,7.4c-1,2-1.3,1.7-3.1,2.7
				c-0.7,0.4-3.2,2.2-3.4,1.7C8.3,360.9,8.2,360.9,8.1,360.9z"/>
			<path class="st21" d="M-108,343.4c-1.2,1.2-4.3,2.3-6,3.2c-1.9,1-4.3,2.5-6.1,3.2c-1.1,0.8-4.9,3.2-6.3,3.7l-0.5,0.5
				c0.9,0.7,1.7,1.4,2.7,2.2c0.9,0.7,1.8,1.6,2.8,2c1.4-1.2,3-2.3,4.4-3.3c0.8-1.4,1.2-0.4,1.7-2l-1.2-0.6l4.2-1.1
				c0.7-1.3,4.1-3.1,5.4-3.9c1.5-0.9,4.6-2.4,6.5-2.8c1.9-1.1,5.8-1.7,8.1-1.4l1.2,0.2c-0.3-1.5-0.1,0-0.9-1.5
				c-2.9-1.6-3.6-2.7-8.2-1.3C-102.2,341.2-106.6,343.3-108,343.4z"/>
			<path class="st22" d="M-28.1,335.8c-6,4.9-7.7,3.4-9.6,8.4c-1.6,4.2-3.2,8.6-4.9,12.7c-0.4-0.3-0.6-0.5-1-1l-1-1.1l2.4,11.8
				c0.5-0.5,0.5-0.8,1.2-1.6l3.8-4.8c1.2-2.1,2.4-5.8,3.4-8.2c-0.4-0.5-0.1-0.1-0.5-0.5l-1.2-1.1c0.4-1.8,1.6-4.4,2.3-6.1
				c1.3-3.1,1.2-4.1,3-5.2l4.9-3.3c1.5-1,3.3-2.2,4.6-3.3L-28.1,335.8z"/>
			<path class="st23" d="M-23.8,382.9L-40.4,418c2.1-2.5,4.1-6.4,6-9.2c5-7.8,9.3-15.6,14.9-23.4c0.8-1.1,2.6-3.5,3.1-4.5
				c-0.7-0.7-14.2-4.7-16.2-5.1c1.1,0.7,4,2.1,4.9,2.8C-26.5,379.5-25.4,381.5-23.8,382.9z"/>
			<path class="st24" d="M-134.1,401.4c0.3,0.3,0.1,0.2,0.5,0.5c1.5,1.4,4.4,3.8,6.3,3.7c3.3-0.3,6.7-0.7,10-1.1
				c0.5,3.2,0.6,3.9,0.6,7.2l0-3.4l1.1-0.8c1.7-1,5.6-2.7,6.8-3.8c-0.7-1.5-2-2.8-2.5-4.4c-3.5,0.5-8.1,1.8-11.6,2.6
				C-131.3,404.1-128.3,402.8-134.1,401.4z"/>
			<path class="st25" d="M-109.7,430l4.4,5c0.7,0.6,0.8,0.9,1.4,1.7c1.6,2.2,3.6,1.8,4.1,8.3c0.2-0.6,0.6-1.1,0.7-2.1
				c0.1-0.8,0.2-1.7,0.3-2.5c0.2-1.3,0.9-3.1,1.8-3.8l0.4-1.2l1.1-2.6l-1,0.8c-0.8,0.9-0.4,1.1-2.1,2c-0.3-3.2,2.6-5.6,3.5-8.3
				c-0.5,0.3-2.5,1.9-3,2.5c-1,1-1.1,2.2-2.9,1.9C-103.9,430.9-106.5,430-109.7,430z"/>
			<path class="st26" d="M10.1,355.4c-1.4,0.6-2.5,1.7-4.1,2.4c-0.4-1.2-1.4-2.1-1.5-3.4c-0.1-0.6,0.1-1.6,0.2-2.3
				c0-0.3,0.1-0.7,0.1-1c-0.1-0.6-0.1-0.4-0.2-0.7c-0.7,0.7-0.7,1.2-1.6,2c-0.7,0.6-1,1.1-1.6,1.6l-5.5,6.3c1-0.1,1-0.1,2-0.5
				c1.7-0.7,3.7-1.9,5.5-2.4c0.3,1,1,1.7,1.6,2.5c1.9-0.7,4.6-2.4,5.9-2.6c0.6-1.3,2.7-2.1,4.7-6.3c1.6-3.3,2.8-5.4,2.2-8.1
				c-0.6,0.4-3.2,5.3-3.7,6.3C13,350.8,11.2,354.5,10.1,355.4z"/>
			<path class="st27" d="M-10.3,355.3c-0.7,1.8-0.2,6.5,0,8.7c4.8,1.7,3,2.2,6.1,0l5.2-4.1c0.9,0.5,1.5,0.9,2.4,1.6l-1.1,6l-0.1,1.4
				c0.8-0.7,2.1-2.9,2.9-3.9c0.5-0.7,0.9-1.3,1.4-2c0.5-0.7,1.1-1.4,1.5-2.1c0.9-1.2,1.7-2.3,2.6-3.6c-1.3,0.3-4,2-5.9,2.6
				c-0.6-0.8-1.3-1.5-1.6-2.5c-1.8,0.5-3.8,1.7-5.5,2.4c-1,0.4-1,0.4-2,0.5l-0.4,0.4c0,0-0.1,0.1-0.1,0.1l-0.3,0.2
				c0,0-0.3,0.1-0.4,0.2l-4.8,1.9c0.3-4.2,0.1-7.6-0.1-11.8C-9.7,352.2-10,354.3-10.3,355.3z"/>
			<path class="st28" d="M-115.3,353c1.6,0.3,2.6,0.4,3.5,1.5c0.2,1.6-0.3,2.4,0.6,3.4c1.4,0.4,3.4,0.5,3.2-1.2
				c0.2-0.9-0.4-0.3,0.3-0.6l0.5,0.3l-0.2-0.5l-1.6-0.6c0.4-0.5,0-0.1,0.5-0.5l0.4-0.2c0.6-0.3,0,0.1,0.8-0.3
				c0.2-1.3,0.4-0.9,1.5-1.5l1.3-0.3c3.5,0.8,3.9,1.3,6.4,2.7c0.3-0.3,0.2,0.1,0.3-0.6c0.1-0.4,0.1-0.2,0-0.7
				c-0.1-0.5-0.4-0.8-0.5-1.1c-2-0.9-12-1.9-14-1.4l-4.2,1.1L-115.3,353z"/>
			<path class="st29" d="M-132.5,390.2c1.1-5.8,4.5-14.6,6.3-20.6c0.4-1.2,0.7-2.3,1.1-3.5c1-2.8,0.2-1.3-0.3-2.8l-0.9-0.5
				c-0.6,0.6-7.8,29.3-7.8,30.8l0.8-1.6C-132.9,390.7-133.2,391.1-132.5,390.2z"/>
			<path class="st30" d="M-109.8,424.9c3.2-0.3,12.7-0.2,15.2,1.4l4.2,1.3c-0.3-0.8-1.3-1.9-1.9-2.7c-1.4-1.8-0.2-1.7-2.6-1.8
				l-15.5-0.4C-109.8,423.8-109.8,423.5-109.8,424.9z"/>
			<path class="st31" d="M-107.2,354.3c0.9,0,0.6-0.1,1.4,0.3l0.7,0.6c0-0.1,0.1,0.1,0.2,0.2l-2.3,0.6l0.2,0.5
				c0.2,0.3,0.5,0.4-0.1,0.7c-1,0.4-0.1,0.4-0.7-0.3c0.2,1.7-1.9,1.6-3.2,1.2c2.1,4.4,5.9,0.3,5.9,0.3c-1.3,2.6-2.5,2.1-4,3.7
				c2.2-0.6,4.6-1.2,6.2-2.4l-0.2-4.4l-0.5-1.3c0,0.6-0.1,0.6-0.1,0.7c-1.3-1.1-0.3-0.8-1.8-1.7C-106.9,353.4-107,353-107.2,354.3z"
				/>
			<path class="st32" d="M-115.8,391.3c0.1-0.9,2-4,2.5-4.8c4.9,0.3,4.7,1,8.3,6.7c0.4-0.7-1.1-5.6-1.7-6.6c-0.8-1.2-4.7-2-6.3-2.5
				c-0.8,1-1.2,2.5-1.7,3.7C-115.5,389.2-116.4,390.4-115.8,391.3z"/>
			<path class="st33" d="M-103.2,359.5c-1.6,1.2-4,1.8-6.2,2.4l-4.3,0.1c1,1.4,1.6,2,3.8,1.8c2.3-0.9,5.4-2.2,7.4-3.6
				c1.2-0.8,1.7-1.3,1.8-2.3c-0.6,0.5-0.8,0.5-1.2,0.9C-102.7,359.3-102.3,359.2-103.2,359.5z"/>
			<path class="st34" d="M-93.9,352.9c0.2-1.7,1-4,0.7-5.6c-0.7-1,0.4-0.8-2,0.7c-2.5,1.6-1.4,2.3,0.3,4.1L-93.9,352.9z"/>
			<path class="st35" d="M-120.1,349.8c1.9-0.7,4.3-2.2,6.1-3.2c1.7-0.9,4.8-2,6-3.2c-5,1.2-6.9,2.7-10.8,5.3
				c-0.3,0.2-0.5,0.3-0.7,0.4C-120.1,349.6-119.7,349.3-120.1,349.8z"/>
			<path class="st36" d="M-103.9,353.8l-0.5-1.3l-1.3,0.3c1.5,0.8,0.5,0.6,1.8,1.7C-103.9,354.4-103.8,354.4-103.9,353.8z"/>
		</g>
	</g>
</g>
</svg>
