<?xml version="1.0" encoding="UTF-8"?>
<!DOCTYPE svg PUBLIC "-//W3C//DTD SVG 1.1//EN" "http://www.w3.org/Graphics/SVG/1.1/DTD/svg11.dtd">
<!-- Creator: CorelDRAW X7 -->
<svg xmlns="http://www.w3.org/2000/svg" xml:space="preserve" width="287px" height="549px" version="1.1" style="shape-rendering:geometricPrecision; text-rendering:geometricPrecision; image-rendering:optimizeQuality; fill-rule:evenodd; clip-rule:evenodd"
viewBox="0 0 13746915 16845533"
 xmlns:xlink="http://www.w3.org/1999/xlink">
 <defs>
  <style type="text/css">
   <![CDATA[
    .fil18 {fill:#0B040A}
    .fil21 {fill:#112900}
    .fil27 {fill:#122D00}
    .fil40 {fill:#141915}
    .fil0 {fill:#151616}
    .fil32 {fill:#173701}
    .fil30 {fill:#1A0C16}
    .fil10 {fill:#1A1A1A}
    .fil11 {fill:#23101B}
    .fil22 {fill:#235100}
    .fil7 {fill:#245400}
    .fil36 {fill:#245500}
    .fil12 {fill:#262626}
    .fil6 {fill:#296200}
    .fil5 {fill:#2B6400}
    .fil35 {fill:#2B6500}
    .fil13 {fill:#305C0E}
    .fil16 {fill:#317400}
    .fil23 {fill:#317500}
    .fil31 {fill:#3A8A00}
    .fil19 {fill:#3E9200}
    .fil33 {fill:#41B200}
    .fil38 {fill:#43AD00}
    .fil8 {fill:#468616}
    .fil9 {fill:#47A800}
    .fil41 {fill:#49A602}
    .fil37 {fill:#49AC00}
    .fil20 {fill:#56A800}
    .fil34 {fill:#686768}
    .fil17 {fill:#69C921}
    .fil15 {fill:#6ACF00}
    .fil14 {fill:#6CD200}
    .fil26 {fill:#787778}
    .fil24 {fill:#79E400}
    .fil29 {fill:#7B17B0}
    .fil39 {fill:#9E4981}
    .fil28 {fill:#A920F0}
    .fil3 {fill:#B1779D}
    .fil1 {fill:#B2799E}
    .fil2 {fill:#B7B7B8}
    .fil25 {fill:#ECECEC}
    .fil4 {fill:#FEFDFF}
   ]]>
  </style>
 </defs>
 <g id="Layer_x0020_1">
  <metadata id="CorelCorpID_0Corel-Layer"/>
  <g id="_495441626944">
   <g>
    <path class="fil0" d="M3290353 6153115c20673,36222 312270,218349 360343,245933 -29872,-72992 -173433,-237454 -232432,-351518 13102,-12544 13543,-11761 32181,-25501 -13359,-18430 22724,-38444 -43141,6856 -17512,12042 -24891,26968 -43973,43273 -55092,47071 -62919,50277 -109543,51938l36565 29019z"/>
    <path class="fil0" d="M1894428 7470311c34455,27124 46111,-7206 70749,41755 30687,-7519 22926,-5692 53484,-21747l-70083 -211444c-14364,30680 -14448,65761 -30084,100264 -20763,45824 -24256,24621 -24066,91172z"/>
   </g>
   <g>
    <path class="fil1" d="M1283678 9333516l-398527 -318297c-52908,-40819 -66635,-21879 -171741,-28219 47796,109928 160157,155311 266834,202425 102333,45196 206036,108895 303434,144091z"/>
    <path class="fil1" d="M2128506 11006455c37678,-20409 56469,-30582 78958,-50524 36794,-32631 29691,-29671 72194,-48960l-10540 -98531 -140612 198015z"/>
   </g>
   <g>
    <path class="fil2" d="M3754454 10611280c130972,-13875 74621,-20177 157873,-53525l50267 384145c21779,-42291 129322,-661076 128449,-734020 -39976,72070 -87325,169156 -122906,247278 -32014,70298 -24475,59352 -92809,89838 -41736,18624 -93518,38135 -120874,66284z"/>
    <path class="fil2" d="M3328038 10609499l-200133 59092c-15997,7986 -17047,9179 -25990,16527 122691,-919 478298,-75959 550985,-52177l-13064 -113187 -311798 89745z"/>
   </g>
   <g>
    <path class="fil3" d="M1062858 10848748c117946,3134 238220,1976 356662,3931 171398,2832 157533,-3657 288796,-77519 77473,-43594 158809,-83602 235714,-130819 67713,-41577 185343,-75428 256370,-106527 -96747,12793 -1103001,286172 -1137542,310934z"/>
    <path class="fil3" d="M1816885 11754666l384645 -229576c121259,-71248 80031,-42516 140337,-165145 34073,-69279 83415,-143973 102379,-217048 -103977,67927 -45516,51470 -153731,153141l-320540 303216c-30510,28780 -50801,48219 -81963,76822 -62136,57044 -29792,50943 -71127,78590z"/>
    <path class="fil3" d="M1489284 9853385c133904,47324 227982,103855 381518,122115 135163,16077 325421,50691 452094,56739 -61619,-30316 -494101,-193735 -572622,-195235l-251502 12863c-2382,651 -6510,1930 -9488,3518z"/>
   </g>
   <g>
    <path class="fil4" d="M2762831 9164610l-493755 24038 -171041 17061 200736 349771 309136 -35162 41332 1293 100905 -28472c136757,-19518 674422,-104836 726692,-131859 -52887,-44062 -130735,-132514 -184628,-148431 -90615,-26762 -213163,-19847 -287507,-59595l-241870 11356z"/>
    <path class="fil4" d="M3754454 10611280c-53695,5803 -69893,39807 -101554,21661 -72687,-23782 -428294,51258 -550985,52177 -65398,1841 -253177,48929 -298339,81807 40260,19033 114389,80843 155246,111522 54524,40943 116261,72316 159284,125880l844488 -62427 -50267 -384145c-83252,33348 -26901,39650 -157873,53525z"/>
   </g>
   <g>
    <path class="fil5" d="M1384091 8752378c-21286,43591 -18468,35203 -44978,67286l7754 47713 559277 -140403c16978,92517 120753,131092 -62375,228081l41231 196622c327455,76601 168494,29442 384076,36971l493755 -24038c-24770,-38313 -434871,-204005 -534996,-256935 -61515,-32520 -72174,-86195 -78937,-201828 29948,-18382 105422,-132428 110403,-145280 10905,-28146 -669,-165024 -1324,-167794 -15116,-63903 10076,-38135 -39678,-41265l-544049 62149c-70982,17855 -273424,353802 -283150,333057 -978,-2083 -4458,4079 -7009,5664z"/>
    <path class="fil5" d="M2925827 11360725c-26399,45390 569557,171769 607481,241038 12257,22392 49647,205527 59349,246030 65311,272599 16995,210068 273909,311739 137790,54528 288300,131443 426489,176078 -26458,-35071 -59925,-79110 -89155,-109620 -26399,-27549 -28039,-20603 -54108,-43185 -75789,-65661 -109966,-219663 -158875,-330648 -30759,-69806 -57553,-64815 -19439,-133502 21148,-38111 55588,-82735 80861,-115793l173921 -219430 -385583 14954 -85596 -96434 -829254 58773z"/>
    <path class="fil5" d="M1993517 6476317c-8280,32933 -1982,38260 -3150,71768 -63,1817 -2843,37488 -2968,37949 -11875,44153 3581,20125 -25674,48319 -15903,27508 -320585,218550 -367975,261520l1241 51207 68766 452146 186123 69619c-21969,-63692 -51969,-411518 -54506,-504274l207558 -187198c108316,-118566 52482,-47952 133990,-122860 36268,-33328 33432,-46992 77096,-81353 30066,-23657 70867,-50413 94909,-76742 38819,-42514 7144,-24725 78961,-79679 47630,-36443 65346,-43130 89353,-88603 -77128,27747 -435872,250445 -482088,291926l-1636 -143745z"/>
   </g>
   <g>
    <path class="fil6" d="M9990173 3890954c35567,-41040 51796,-30052 101883,-127373 77224,-150057 218206,-1149237 259413,-1354185 -73193,1886 -166854,58787 -241787,88278 -78798,31009 -157724,59983 -234720,95256 -26603,85214 -100195,665437 -124701,814831 -19861,121083 -29650,273347 -85106,381300 -36358,70777 -225735,135987 -309604,159450 -49353,-108233 -144525,-952088 -195801,-1073128l-428066 169131 451962 2679298c66628,-14025 160217,-59782 226366,-86961 34292,-14090 70243,-27893 105145,-41501l106524 -49238c-26589,-154927 -206972,-1130228 -200126,-1203664 107702,-51913 300061,-153432 372713,-54159 110906,151540 505776,917595 565097,969807 79862,-26278 166802,-64892 249475,-97578l219201 -87079c23460,-12066 8818,-2537 25650,-16451l-581866 -940794c-68818,-112948 -112410,-178712 -232452,-208484l-49200 -16756z"/>
    <path class="fil6" d="M5557419 4313498l-21345 305729c-15505,58042 -2770,17557 -22281,39848 31726,109724 114035,652615 143817,818925 48642,271621 92559,543211 138982,815241 42358,248217 59183,608515 343341,608269 141772,-122 889948,-298783 1039894,-400583 80874,-54908 154580,-143568 184158,-291680 35466,-177603 -62926,-640646 -99627,-835268 -31834,-168813 -261149,-1600516 -282921,-1622728 -21691,-11667 -360703,136722 -426963,157371 25463,311385 388928,2106177 354457,2221373 -19338,64625 -55914,66909 -126993,95103 -50759,20136 -98496,38867 -148961,58843 -86774,34347 -235392,115048 -326013,104843 -61255,-81789 -56399,-148205 -74971,-252646l-141374 -835134c-59280,-372409 -123752,-748765 -191194,-1120474 -35796,-707 -312068,110379 -342006,132968z"/>
    <path class="fil6" d="M7741988 6300711l1349072 -531162 -77897 -417706c-54274,23390 -134414,67450 -216601,100032 -77526,30735 -150418,59453 -227746,90063 -150188,59453 -312813,134178 -459952,182328l-392412 -2276303 -428239 169086 453775 2683662z"/>
    <path class="fil6" d="M5275222 7277842l342114 -126379 -215253 -1230991c9945,90621 -103658,1303702 -126861,1357370z"/>
   </g>
   <g>
    <path class="fil7" d="M5498295 11543077c27775,33508 44247,67972 66982,104815 60184,97543 24593,70392 68215,89231 52323,22597 193232,48257 255129,63145 127498,30669 415885,87463 512077,129907l496853 122726 -445809 995744 -365591 823834c42940,-29491 424804,-511380 487380,-592372 14440,-18690 35512,-42035 50174,-59793l1000434 -1229993c-42461,-56492 -117696,-142490 -176483,-183156 -64728,-44769 -270945,-282362 -339916,-357146l-90535 -80507c-35022,-25765 -55213,-56715 -86891,-85394l1049388 -2959838c-23584,13990 -36007,19339 -55349,34132 -36021,27557 -18589,19394 -46257,51034 -31521,36049 -69328,50011 -102298,81650 -43165,41418 -2891,23914 -93700,89474 -19289,13924 -32024,21747 -47553,38226 -91380,96950 -89879,73560 -142878,137949l-194549 172514c-41169,29380 -59516,56271 -96618,98968l-583246 908559c-48025,72961 -95730,157669 -141582,225340 -104122,153679 -248314,237087 -400318,345497l-217981 161051c-159898,113984 -204664,223413 -331819,414083 -208103,312051 -153877,201330 -27259,460320z"/>
    <path class="fil7" d="M1992633 6454511c43568,-45831 144875,-318897 188231,-415924 26291,-58842 4187,-25317 43272,-54763l409297 -287136 -163378 -543262c534,1192 -2939,1428 -3934,5695l-12971 13508c-1521,1858 -4163,4967 -5764,7074l-144549 246987c-287777,505460 -362204,445906 -310204,1027821z"/>
    <path class="fil7" d="M1046452 6662530c33120,-43418 111890,-486392 122383,-537301 16242,-78791 56742,-83567 162448,-153928l168515 -113020c35258,-21470 -2403,-2901 38492,-20825 -52995,-77079 -182948,-345352 -213672,-373120 -31197,83162 -85862,173142 -126660,251150 -45536,87061 -79242,163374 -126341,252678 -75727,143589 -44589,164324 -40569,329157 2957,121356 11096,246588 15404,365209z"/>
   </g>
   <g>
    <path class="fil8" d="M12982749 14823149c20544,-35286 -5189,-114057 -19141,-180043 -133980,-633659 -264400,-1362005 -388502,-2006967 -28811,-149720 -138667,-609734 -135564,-725340l217596 37224c10967,-29342 -184140,-2793157 -209063,-3063592 -45691,-495883 45061,-296436 -209513,-620858 -18384,-23432 -32086,-38715 -49452,-60576 -19033,-23962 -26572,-29373 -43879,-53855 -30489,-43127 -56070,-74281 -91336,-116635 -28104,-33754 -61896,-78379 -92974,-114885 -21342,-25071 -24129,-32402 -42736,-55290 -16755,-20617 -27279,-30815 -44745,-53026l-556799 -690474c-32391,-40770 -61241,-73657 -93304,-114441 -31584,-40177 -61473,-67817 -84291,-114497l-140074 -57577c-56015,133859 -279334,961807 -354482,1188314 -72475,218460 -72475,185330 -5358,400357 162750,521419 337323,1068051 484863,1587570 -107145,-67131 -207537,-233555 -288744,-281056l663867 1623247c154313,369625 359285,852018 497699,1226867l136213 364550c27722,34278 -5221,3740 10544,6541 1126,201 2430,-3671 6395,-4593 225558,500992 456853,1210170 714075,1651671 34773,59685 100459,168407 118705,227364z"/>
    <path class="fil8" d="M9112405 9099635l-21772 84309c-2488,27363 -4637,58046 -7431,85935 -6312,63006 -13855,124462 -20784,187465 -18565,168784 -129377,1044504 -115120,1079773l928763 639444c59553,35199 72801,67865 110628,121446l1377592 1789356c25761,32448 26340,36358 46306,63886l933616 1208631c-204577,-436617 -436513,-876732 -658286,-1324954 -105523,-213267 -1958519,-3918670 -1981504,-3995173l-592008 59882z"/>
   </g>
   <g>
    <path class="fil9" d="M6070165 14035784l803490 127089 5698473 888371c-13965,-34243 -8239,-17487 -25241,-40471l-949973 -1226326c-27452,-34569 -29608,-42416 -57408,-77165 -17716,-22150 -39497,-48739 -58676,-75883l-111075 -145755c-17047,-21338 -39647,-48635 -60209,-74171l-922209 -1193250c-28000,-34961 -29390,-42261 -57355,-77252 -16680,-20867 -39935,-48975 -60212,-74195l-229531 -296207c-20901,-28288 -33629,-47123 -57810,-76791 -24995,-30666 -38967,-52836 -57494,-77158l-117835 -151111c-20776,-28076 -34613,-41591 -54472,-67692 -17206,-22610 -33719,-50773 -57289,-77297 -43044,-48430 -445148,-236428 -520871,-274307l-710058 -351909c35376,-268651 610462,-2594767 600074,-2651669 -6600,-36142 -142725,-133377 -180012,-167249 -27224,-24732 -30232,-35453 -60531,-58697 -28197,129675 -69362,239749 -94520,380984l-483353 2742823 1159705 511790 -423279 323916c-372215,275749 -640733,491407 -990043,770990l-1687179 1357599c-167044,133863 -170635,73848 -235107,130993z"/>
    <path class="fil9" d="M3988484 11120525c200334,-124215 160361,-103487 193225,-283021 14787,-80781 47432,-334232 74725,-384637 55231,178278 42205,263957 15466,440364 -17241,113741 -1785,101865 -106094,150933 -58507,27522 -119675,59765 -177322,76361zm-1770185 -2769017c49754,3130 24562,-22638 39678,41265 655,2770 12229,139648 1324,167794 -4981,12852 -80455,126898 -110403,145280 6763,115633 17422,169308 78937,201828 100125,52930 510226,218622 534996,256935l241870 -11356 518822 -28392c47283,-11490 71963,-7864 89425,26309 34389,26659 43984,30437 83103,60926 29037,22631 51918,39938 81752,65023 58808,49446 112382,78320 157734,130882 106701,60111 276862,244903 401605,282512l-246099 517366c873,72944 -106670,691729 -128449,734020l-844488 62427c-40888,19140 -37363,37466 -53100,75439 -13636,32901 -27761,58732 -43913,90573 -33006,65064 -65186,125727 -95266,190386l829254 -58773 85596 96434 385583 -14954 -173921 219430c-25273,33058 -59713,77682 -80861,115793 -38114,68687 -11320,63696 19439,133502 48909,110985 83086,264987 158875,330648 26069,22582 27709,15636 54108,43185 29230,30510 62697,74549 89155,109620 55227,26836 107519,44794 161277,68417 83855,36842 82562,14076 165484,-26254l474666 -234487c85176,-39896 63637,-62815 84001,-158168 27498,-128746 61533,-259024 86247,-387209 38759,-164556 105276,-281035 143599,-423095 -24794,-25883 374,-22805 -22797,11008l-117166 262640c4562,-100025 8835,-506916 58832,-575824l949700 -1520765c28118,-45307 53560,-81113 73567,-125103l-10107 -16080c-37290,-56087 24350,33775 -10319,-15259l-276249 -359715c-123183,-173596 -113963,-109883 -169370,-306404 -22066,-78251 -60396,-221853 -91727,-285594l-509519 237853 -306259 367910c13466,17258 13896,-5782 6939,28842 -9165,45623 5692,-4041 -11691,21345 -1065,1560 -15536,18278 -17692,20995 -10139,12801 -6323,9865 -16319,21789 -32760,39092 -12555,10731 -45390,40167l-184577 206442c-16014,18537 -20229,31778 -36046,50173l-224054 252550c-46728,38725 1446,16537 -46752,28191l18787 38589c-41446,-21726 -335764,-320779 -396565,-380200 -86711,-84743 -303833,-285393 -371261,-389657l-643846 102157c-35449,-67131 -326422,-339729 -399754,-413061 -244941,-244951 -237548,-181096 -186889,-339652 15928,-49855 32659,-106476 48514,-147995 -43287,-2544 -234661,-62832 -268270,-91217 -40884,33224 -23185,-31168 -23033,63383 73,45498 43380,264911 39283,389186z"/>
    <path class="fil9" d="M5275222 7277842c23203,-53668 136806,-1266749 126861,-1357370l-239791 -1456477 -435795 177520 181915 1077874 -651815 256692 -184234 -1075160c-119672,22770 -323795,150275 -435775,161547l462035 2687419 422898 -167918c13907,-99883 -180466,-990296 -196282,-1213961l649925 -254363 212016 1204170 88042 -39973z"/>
    <path class="fil9" d="M1046452 6662530c4836,93328 -1906,335785 25751,399414 -3768,-71328 3411,-342010 20194,-400592 24274,-84743 97485,-284526 121513,-314208 1202,144348 -48150,580283 13331,675431l291236 433674c16721,-52624 -43089,-120965 -72864,-175589 -31501,-57799 -67796,-126916 -96143,-181579 31904,-30191 190830,-96749 243327,-107297l2194 -44704 -1241 -51207c47390,-42970 352072,-234012 367975,-261520 -10128,-68409 -166923,-325119 -209194,-406194 -69311,-132947 -148719,-257243 -214241,-390703 -40895,17924 -3234,-645 -38492,20825l-168515 113020c-105706,70361 -146206,75137 -162448,153928 -10493,50909 -89263,493883 -122383,537301z"/>
    <path class="fil9" d="M8472223 15085206l-2491688 -731947c-47262,11820 -7872,11245 45134,36701l244529 110562c490530,208151 1090979,519641 1588460,734908 83508,36132 83526,56087 176705,31140 62025,-16603 123100,-31560 185603,-47168 78631,-19633 318204,-63983 364578,-97526l-113321 -36670z"/>
    <path class="fil9" d="M12980517 7754248c16260,21522 25851,31595 42558,55311 26659,37837 -3733,15345 38683,45348l-219794 -891234c-17442,-49279 -374363,-315594 -440253,-367140l-630993 -496462 1209799 1654177z"/>
    <path class="fil9" d="M1992633 6454511l884 21806 1636 143745c46216,-41481 404960,-264179 482088,-291926 133949,-89505 110541,-110715 223495,-197822 19113,-14742 38358,-27556 54438,-43667 26232,-26281 21781,-32898 50413,-59051 39442,-36025 82014,-59567 118545,-95928l-232151 -166261c-56659,-38992 -28555,-18361 -58548,-68719l-409297 287136c-39085,29446 -16981,-4079 -43272,54763 -43356,97027 -144663,370093 -188231,415924z"/>
   </g>
   <g>
    <path class="fil10" d="M8028770 1637178c-49501,-118777 -111658,-229825 -164261,-347445 -19928,-44562 -140767,-303136 -160962,-328155l-343285 -389982c-25005,-28805 -25865,-42985 -53581,-69041 -35096,-32995 -36801,-22877 -54364,-68801l1698052 723233c127211,54881 160351,86812 307039,91945 108839,3810 293021,690 388575,15318l270740 639877c12455,69262 2389,217852 4364,297569 -170940,39227 -338807,86122 -513279,131273 -166740,43148 -672547,320914 -890951,394177 -156802,52600 -315448,109148 -469705,165831 -623278,229028 -1263543,451654 -1895267,671832 -636415,221819 -1257848,450999 -1894935,674041l-713000 252470c-152535,55719 -157156,30503 -197541,119561 -94011,207308 -235981,476887 -269011,693828 -12409,81492 -18922,206605 -43775,275046 -33664,-29577 -385216,-624102 -439515,-707236 -23040,-35280 -38894,-45540 -36562,-81668 1945,-30094 187863,-438437 217257,-540916l-413296 501747c-14472,17058 -15592,15013 -29023,31862l-434461 531699c-27671,31401 -32406,43332 -60250,74240 -26385,29290 -28954,46538 -61616,64950 -17598,-17019 -19168,-23982 -38732,-42693l-459293 -519398c-17875,-22205 -57581,-58870 -82781,-73772 -9677,37997 -72669,131714 -105997,150795 -31803,-117866 -56198,-245232 -84361,-367944 -18479,-80507 -88649,-308321 -59332,-359524l160979 -182529c71709,-65446 63730,-81678 102684,-117574l429681 -474944c21279,-19192 39997,-43303 57730,-52430l969741 -150857 -430721 -798933c71086,-28242 1340375,-254979 1471028,-281939 122867,-25359 245232,-43994 369545,-69446 105280,-21557 85287,-28756 168030,20800l687662 394770c-76604,-298589 -147180,-595977 -228730,-891301 -20142,-72940 -37737,-148178 -55581,-224012 -25737,-109377 -52732,-86493 -155037,-126108 -68500,-26527 -138237,-50524 -205822,-75380 -61189,-22503 -152698,-49242 -195464,-83055l2671814 -27744c160805,-3386 156206,12656 287500,72663 323829,148008 646781,320491 978070,463300zm-1211327 -1095312c44836,20073 203256,160871 234466,203409 96303,131256 162927,126008 271552,266297l167596 150590c19875,17241 41473,33155 58392,51741 50309,55265 3768,28201 106888,112271l52195 55096c-116455,-47890 -653867,-348062 -829071,-439328 -298509,-155499 -210910,-150064 -468857,-134805l-1750943 124094c-379303,29099 -791979,74046 -1169372,85512 17289,25505 403771,233351 481758,276997 32056,17938 51563,28649 79068,43048l75748 52582c-62334,-1223 -261729,6409 -305826,-6125l-1260160 -800377c13713,58354 198626,307132 239819,366107l251302 372273c35937,59034 86964,81051 171741,133863 63252,39404 128753,84926 192262,125672 57019,36586 353756,218164 374481,249333l-2766078 559862 36409 18857c12388,4669 24922,6294 38375,9182 26125,5604 51317,11864 77342,19220 76094,21508 430260,106157 481491,138895 48347,-5917 139963,23221 193180,47117l17806 141041 -852562 -144313c-38541,39536 -907730,440832 -1016445,483002 54011,8409 260016,-57061 334107,-74677 197364,-46922 143627,-38769 317794,44968 97415,46836 191673,92181 288793,138923 92230,44385 206678,113315 292422,144861 -16503,40988 -100438,138802 -128736,174126l-531616 691198c-84580,105426 -71495,92400 -49148,214151l144119 772658c20659,121769 47765,126112 -963,244137l-508220 1335020c48171,-22849 176671,-186178 223933,-237350 34915,-37800 52690,-36670 86788,-71793l212948 -239881c88330,-98240 106704,-26513 198469,-266102 28222,-73686 55949,-147211 83304,-222356 50812,-139595 107904,-313302 167901,-445563 92458,-7397 106358,3518 133162,40731 18354,25477 53616,94948 59561,118306 30724,27768 160677,296041 213672,373120 65522,133460 144930,257756 214241,390703 42271,81075 199066,337785 209194,406194 29255,-28194 13799,-4166 25674,-48319 125,-461 2905,-36132 2968,-37949 1168,-33508 -5130,-38835 3150,-71768l-884 -21806c-52000,-581915 22427,-522361 310204,-1027821l144549 -246987c1601,-2107 4243,-5216 5764,-7074l12971 -13508c995,-4267 4468,-4503 3934,-5695l163378 543262c29993,50358 1889,29727 58548,68719l232151 166261c-36531,36361 -79103,59903 -118545,95928 -28632,26153 -24181,32770 -50413,59051 -16080,16111 -35325,28925 -54438,43667 -112954,87107 -89546,108317 -223495,197822 -24007,45473 -41723,52160 -89353,88603 -71817,54954 -40142,37165 -78961,79679 -24042,26329 -64843,53085 -94909,76742 -43664,34361 -40828,48025 -77096,81353 -81508,74908 -25674,4294 -133990,122860l-207558 187198c2537,92756 32537,440582 54506,504274l-2322 -4086 46870 5552c-190,-66551 3303,-45348 24066,-91172 15636,-34503 15720,-69584 30084,-100264 -8822,-35699 17681,-132175 20901,-191998 60240,-24035 389535,-292578 435570,-308135l647098 -468048c57757,-41713 177360,-142057 238206,-157579l-36565 -29019c46624,-1661 54451,-4867 109543,-51938 19082,-16305 26461,-31231 43973,-43273 65865,-45300 29782,-25286 43141,-6856 15837,-14749 44724,-32236 69030,-50915 42249,-32469 48222,-23342 75674,-64431 1636,-1324 15189,-14062 16475,-15431 1106,-1179 4773,-3269 5612,-7269 895,-4253 3792,-5296 5730,-7910l-80944 -501155c-60766,-41394 34212,66538 -37809,-12166 -17110,90766 -44035,51563 -112441,125973 -25581,27830 -19387,30794 -51075,58652 -21092,18541 -36098,31969 -62361,43688l30669 -143574c40839,-266377 36011,-189094 102604,-281105 46538,-64302 27678,-48936 69366,-65709 13619,-37817 89484,-127121 146681,-158979l2428439 -958708c293781,-115301 597946,-228910 885983,-349248 584182,-244057 1186118,-462263 1771415,-698612 292547,-118133 590487,-233926 885869,-348849 149020,-57979 297361,-118250 447692,-176129 126774,-48812 174126,-47651 200813,-104653 19625,-41917 86364,-193852 97033,-207177l178750 -263523c79655,-111419 -70835,-291604 -88836,-576019 -44263,21588 -64014,43179 -99789,70018 -49803,37362 -194858,166303 -243614,189235 -78607,-122153 -237860,-657062 -334609,-701787l-715219 -311992c-86164,-37321 -423692,-201042 -483415,-201804l454142 610136c34070,41744 42101,37051 60285,88143l-2810692 -1000729 130216 121010c51494,44707 108548,82555 146441,134874 31384,43339 26819,37789 64410,69928 89602,76600 167537,129024 214473,216054z"/>
    <path class="fil10" d="M10886957 5328665l-5931516 2177889c11921,45883 21332,47484 -4412,81384 37023,794 71945,247212 87072,319206 35997,171325 17456,174878 -12479,340318 -40614,224483 -94306,459511 -126902,684546 67127,-34368 30295,-48291 78195,-82527l306259 -367910c18385,-47754 312290,-380197 375837,-469085 49262,-68909 65102,-69550 122312,-155073 33613,28160 53245,99797 70625,140497l127564 300505c36812,95564 33235,64857 106812,113485l516005 344242c-9207,-98393 -400714,-907162 -365279,-970771 15633,-108527 187229,-503120 241683,-664993 30846,-91696 10090,-47827 88774,-94750 54447,-32471 174289,-108895 228560,-128073 8610,9057 19400,17851 29574,29577 26624,30686 13047,4579 22721,34260 44277,18936 66125,55751 98729,88296 33591,33528 58121,58208 91664,91765 42240,42260 156424,140916 177537,188292 22416,-2943 147357,136400 171104,160074 43262,43134 156660,132598 165918,196740 28926,200408 29262,471900 43997,682907l206722 -242040c23224,-25941 13179,-10236 34531,-38395 12766,-16839 10901,-18125 25720,-35810l211062 -253198c104126,-143862 392582,-457681 484049,-588916 -64649,41435 -124784,90728 -173936,153082 -46530,59027 -110874,97526 -168722,149326 -54922,49175 -35304,50128 -163038,154829 -66406,54434 -45816,72895 -165519,155236 -68330,-39460 -294540,-308474 -380087,-366842 16618,-58514 102154,-201725 138060,-259833 -35910,-64849 -185838,-247073 -209398,-308744l3548359 -1386940 -106012 528098 2049 36579 15837 12249 405972 630238c-3362,-86313 -29608,-185828 -16970,-270845 -26583,-69536 -54646,-491293 -64951,-608022 -17605,-199419 -36773,-403442 -54142,-604366l-279940 103513z"/>
    <path class="fil10" d="M9327353 7559148c44461,114475 50534,-78462 45522,249163 -1494,97786 -4264,195662 -6156,293475 -3515,181475 -9446,375328 -5952,557277 37255,-43106 51491,-79637 83672,-125952 180272,-259441 430586,-702675 620341,-985468 27997,23779 14638,-32094 7314,24520 31425,-29161 41168,-82895 58794,-125717 18818,-45716 44926,-77175 67737,-115692 39626,-66916 97907,-165506 147402,-227690l99276 132722 102251 176619c45536,-48191 72035,-306863 83636,-369698 23006,-124632 42652,-247053 66386,-371948 -177409,-19681 -186262,-111173 -272706,5705 -17564,23754 -42403,51172 -61311,73315l-121852 147172c-13778,17491 -12322,12819 -28648,32292 -234235,279319 -212089,300838 -388638,638695l-102025 183797 -395043 -192587z"/>
   </g>
   <g>
    <path class="fil11" d="M9704413 9039753c22985,76503 1875981,3781906 1981504,3995173 221773,448222 453709,888337 658286,1324954l-933616 -1208631c-19966,-27528 -20545,-31438 -46306,-63886l-1377592 -1789356c-37827,-53581 -51075,-86247 -110628,-121446l-928763 -639444c-14257,-35269 96555,-910989 115120,-1079773 6929,-63003 14472,-124459 20784,-187465 2794,-27889 4943,-58572 7431,-85935l21772 -84309 592008 -59882zm993163 -2368994c-23734,124895 -43380,247316 -66386,371948 -11601,62835 -38100,321507 -83636,369698l-102251 -176619c-6738,129201 -119207,512462 -157585,661773 -97568,379622 -83290,214040 55026,635663 132778,404745 289795,805296 429026,1209351 139211,403996 287299,804606 430555,1208606 137977,389106 300387,809033 421352,1193632 -64888,-79467 -108833,-129883 -159260,-245790l-863695 -2009917c-144760,-330009 -367344,-827694 -493051,-1145680l-243322 -574244c-10617,-64198 197034,-479463 207745,-597017 7324,-56614 20683,-741 -7314,-24520 -189755,282793 -440069,726027 -620341,985468 -32181,46315 -46417,82846 -83672,125952 -3494,-181949 2437,-375802 5952,-557277 1892,-97813 4662,-195689 6156,-293475 5012,-327625 -1061,-134688 -45522,-249163l-272013 -294554c-31425,-40815 -43258,-36056 -74628,-71571 -24541,-27782 -39016,-57591 -63851,-83564 -34995,-36596 -93440,-75044 -128442,-153131 -56672,34798 -74655,70711 -126978,133363l-102046 121416c-91467,131235 -379923,445054 -484049,588916l-211062 253198c-14819,17685 -12954,18971 -25720,35810 -21352,28159 -11307,12454 -34531,38395l-206722 242040c-14735,-211007 -15071,-482499 -43997,-682907 -9258,-64142 -122656,-153606 -165918,-196740 -23747,-23674 -148688,-163017 -171104,-160074 -22232,98989 -32087,206425 -51747,306596 -30801,156937 12000,153921 -121371,219461 -79227,38929 -410187,192837 -457005,236903l525876 88212c22108,50479 52742,180140 66926,238986 53966,223898 -123918,458278 -225839,642151 -35900,64770 -74032,135277 -111453,194026 -62288,97790 -351608,425154 -450493,552310l-550261 672550c-13944,17920 -14610,23473 -30731,42981l-138899 166570c-78195,93744 -137571,154569 -181170,271628 -25178,67598 -49848,154829 -81796,212695 -38323,142060 -104840,258539 -143599,423095l233565 -54832c-126618,-258990 -180844,-148269 27259,-460320 127155,-190670 171921,-300099 331819,-414083l217981 -161051c152004,-108410 296196,-191818 400318,-345497 45852,-67671 93557,-152379 141582,-225340l583246 -908559c37102,-42697 55449,-69588 96618,-98968l194549 -172514c52999,-64389 51498,-40999 142878,-137949 15529,-16479 28264,-24302 47553,-38226 90809,-65560 50535,-48056 93700,-89474 32970,-31639 70777,-45601 102298,-81650 27668,-31640 10236,-23477 46257,-51034 19342,-14793 31765,-20142 55349,-34132 48410,-82094 109200,-96863 170726,-168101l350405 -310381c21220,-20291 20375,-26430 39162,-45789 31567,-32530 85903,-58836 130784,-107737 25605,21733 56097,37764 80486,60149 37470,34396 22374,32787 72676,64268 30299,23244 33307,33965 60531,58697 37287,33872 173412,131107 180012,167249 10388,56902 -564698,2383018 -600074,2651669l710058 351909c75723,37879 477827,225877 520871,274307 23570,26524 40083,54687 57289,77297 19859,26101 33696,39616 54472,67692l117835 151111c18527,24322 32499,46492 57494,77158 24181,29668 36909,48503 57810,76791l229531 296207c20277,25220 43532,53328 60212,74195 27965,34991 29355,42291 57355,77252l922209 1193250c20562,25536 43162,52833 60209,74171l111075 145755c19179,27144 40960,53733 58676,75883 27800,34749 29956,42596 57408,77165l949973 1226326c17002,22984 11276,6228 25241,40471l-5698473 -888371c58850,58035 186185,59352 243728,117724 67488,412 809199,321254 944431,373258 157959,60742 313129,126060 470135,190109 125267,51102 361958,160892 481155,188220 24090,24537 994844,408259 1120758,459736 169118,69141 144854,66829 334457,42278l720848 -73997c72417,-8617 108986,-22444 162896,11407l1295411 893696c42174,28731 73203,46284 117270,78423l589523 401806 97266 -1171760c-21782,-62118 -77488,-158549 -114147,-218428 -42011,-68614 -76423,-147173 -115727,-214220 -82465,-140677 -151852,-285157 -238910,-417976 -18246,-58957 -83932,-167679 -118705,-227364 -257222,-441501 -488517,-1150679 -714075,-1651671 -3965,922 -5269,4794 -6395,4593 -15765,-2801 17178,27737 -10544,-6541l-136213 -364550c-138414,-374849 -343386,-857242 -497699,-1226867l-663867 -1623247c81207,47501 181599,213925 288744,281056 -147540,-519519 -322113,-1066151 -484863,-1587570 -67117,-215027 -67117,-181897 5358,-400357 75148,-226507 298467,-1054455 354482,-1188314l140074 57577 274428 104514 94292 -373785 -165617 -138555c-33248,-36472 -10436,-24839 -56159,-44528 -12638,85017 13608,184532 16970,270845l-405972 -630238c-42877,-7424 -10593,3737 -45792,-22783 -20642,-15550 -11702,-11931 -34136,-22645l-119484 638040z"/>
    <path class="fil11" d="M5402083 5920472l215253 1230991 -342114 126379 -88042 39973 -212016 -1204170 -649925 254363c15816,223665 210189,1114078 196282,1213961l-422898 167918 -462035 -2687419c111980,-11272 316103,-138777 435775,-161547l184234 1075160 651815 -256692 -181915 -1077874 435795 -177520 239791 1456477zm111710 -1261397l-42112 -317923 85738 -27654c29938,-22589 306210,-133675 342006,-132968 67442,371709 131914,748065 191194,1120474l141374 835134c18572,104441 13716,170857 74971,252646 90621,10205 239239,-70496 326013,-104843 50465,-19976 98202,-38707 148961,-58843 71079,-28194 107655,-30478 126993,-95103 34471,-115196 -328994,-1909988 -354457,-2221373 66260,-20649 405272,-169038 426963,-157371 21772,22212 251087,1453915 282921,1622728 36701,194622 135093,657665 99627,835268 -29578,148112 -103284,236772 -184158,291680 -149946,101800 -898122,400461 -1039894,400583 -284158,246 -300983,-360052 -343341,-608269 -46423,-272030 -90340,-543620 -138982,-815241 -29782,-166310 -112091,-709201 -143817,-818925zm1774420 -1042026l428239 -169086 392412 2276303c147139,-48150 309764,-122875 459952,-182328 77328,-30610 150220,-59328 227746,-90063 82187,-32582 162327,-76642 216601,-100032l77897 417706 -1349072 531162 -453775 -2683662zm2701960 273905l49200 16756c120042,29772 163634,95536 232452,208484l581866 940794c-16832,13914 -2190,4385 -25650,16451l-219201 87079c-82673,32686 -169613,71300 -249475,97578 -59321,-52212 -454191,-818267 -565097,-969807 -72652,-99273 -265011,2246 -372713,54159 -6846,73436 173537,1048737 200126,1203664l-106524 49238c-34902,13608 -70853,27411 -105145,41501 -66149,27179 -159738,72936 -226366,86961l-451962 -2679298 428066 -169131c51276,121040 146448,964895 195801,1073128 83869,-23463 273246,-88673 309604,-159450 55456,-107953 65245,-260217 85106,-381300 24506,-149394 98098,-729617 124701,-814831 76996,-35273 155922,-64247 234720,-95256 74933,-29491 168594,-86392 241787,-88278 -41207,204948 -182189,1204128 -259413,1354185 -50087,97321 -66316,86333 -101883,127373zm-6509198 1209723l-1459 158850 24697 103225c72021,78704 -22957,-29228 37809,12166l80944 501155c26593,-8340 17740,-5317 37841,-16978 39234,238886 74444,471113 110805,709341 16915,110846 125984,646165 67574,690869l101581 572812c13716,67037 42375,99384 83332,146552l926930 -390731c25744,-33900 16333,-35501 4412,-81384l5931516 -2177889c-19397,-301438 -35397,-592823 -53037,-895127 -28454,-487689 -15650,-243049 -265597,-675268 -41487,-71737 -104365,-688009 -120451,-821618 -14510,-120528 -109128,-779123 -102972,-838330 -10669,13325 -77408,165260 -97033,207177 -26687,57002 -74039,55841 -200813,104653 -150331,57879 -298672,118150 -447692,176129 -295382,114923 -593322,230716 -885869,348849 -585297,236349 -1187233,454555 -1771415,698612 -288037,120338 -592202,233947 -885983,349248l-2428439 958708c-57197,31858 -133062,121162 -146681,158979z"/>
    <path class="fil11" d="M13505530 14982460c32277,-354963 55182,-705212 86624,-1060591l153385 -1845939c8942,-96389 -27294,-136594 -62975,-218643 -109616,-252061 -223645,-541599 -347223,-784703 -29439,78940 -174615,796738 -208553,948188 -58326,260290 -77928,262259 -39744,492541 136747,824704 286017,1663928 412267,2480423l6219 -11276z"/>
    <polygon class="fil11" points="6451742,13048645 6897551,12052901 6400698,11930175 "/>
    <path class="fil11" d="M6237050 7785371l244019 90958 367293 -914937c-9674,-29681 3903,-3574 -22721,-34260 -10174,-11726 -20964,-20520 -29574,-29577 -54271,19178 -174113,95602 -228560,128073 -78684,46923 -57928,3054 -88774,94750 -54454,161873 -226050,556466 -241683,664993z"/>
   </g>
   <g>
    <path class="fil12" d="M8028770 1637178c-331289,-142809 -654241,-315292 -978070,-463300 -131294,-60007 -126695,-76049 -287500,-72663l-2671814 27744c42766,33813 134275,60552 195464,83055 67585,24856 137322,48853 205822,75380 102305,39615 129300,16731 155037,126108 17844,75834 35439,151072 55581,224012 81550,295324 152126,592712 228730,891301l-687662 -394770c-82743,-49556 -62750,-42357 -168030,-20800 -124313,25452 -246678,44087 -369545,69446 -130653,26960 -1399942,253697 -1471028,281939l430721 798933 -969741 150857c-17733,9127 -36451,33238 -57730,52430l-429681 474944c-38954,35896 -30975,52128 -102684,117574l-160979 182529c-29317,51203 40853,279017 59332,359524 28163,122712 52558,250078 84361,367944 33328,-19081 96320,-112798 105997,-150795 25200,14902 64906,51567 82781,73772l459293 519398c19564,18711 21134,25674 38732,42693 32662,-18412 35231,-35660 61616,-64950 27844,-30908 32579,-42839 60250,-74240l434461 -531699c13431,-16849 14551,-14804 29023,-31862l413296 -501747c-29394,102479 -215312,510822 -217257,540916 -2332,36128 13522,46388 36562,81668 54299,83134 405851,677659 439515,707236 24853,-68441 31366,-193554 43775,-275046 33030,-216941 175000,-486520 269011,-693828 40385,-89058 45006,-63842 197541,-119561l713000 -252470c637087,-223042 1258520,-452222 1894935,-674041 631724,-220178 1271989,-442804 1895267,-671832 154257,-56683 312903,-113231 469705,-165831 218404,-73263 724211,-351029 890951,-394177 174472,-45151 342339,-92046 513279,-131273 -1975,-79717 8091,-228307 -4364,-297569l-270740 -639877c-95554,-14628 -279736,-11508 -388575,-15318 -146688,-5133 -179828,-37064 -307039,-91945l-1698052 -723233c17563,45924 19268,35806 54364,68801 27716,26056 28576,40236 53581,69041l343285 389982c20195,25019 141034,283593 160962,328155 52603,117620 114760,228668 164261,347445z"/>
    <path class="fil12" d="M8559395 7211107l102046 -121416c52323,-62652 70306,-98565 126978,-133363 35002,78087 93447,116535 128442,153131 24835,25973 39310,55782 63851,83564 31370,35515 43203,30756 74628,71571l272013 294554 395043 192587 102025 -183797c176549,-337857 154403,-359376 388638,-638695 16326,-19473 14870,-14801 28648,-32292l121852 -147172c18908,-22143 43747,-49561 61311,-73315 86444,-116878 95297,-25386 272706,-5705l119484 -638040 8849 -55189c20586,25043 18659,33262 53193,51789l106012 -528098 -3548359 1386940c23560,61671 173488,243895 209398,308744 -35906,58108 -121442,201319 -138060,259833 85547,58368 311757,327382 380087,366842 119703,-82341 99113,-100802 165519,-155236 127734,-104701 108116,-105654 163038,-154829 57848,-51800 122192,-90299 168722,-149326 49152,-62354 109287,-111647 173936,-153082z"/>
   </g>
   <path class="fil13" d="M11507766 6620623l-94292 373785 -274428 -104514c22818,46680 52707,74320 84291,114497 32063,40784 60913,73671 93304,114441l556799 690474c17466,22211 27990,32409 44745,53026 18607,22888 21394,30219 42736,55290 31078,36506 64870,81131 92974,114885 35266,42354 60847,73508 91336,116635 17307,24482 24846,29893 43879,53855 17366,21861 31068,37144 49452,60576 254574,324422 163822,124975 209513,620858 24923,270435 220030,3034250 209063,3063592l-217596 -37224c-3103,115606 106753,575620 135564,725340 124102,644962 254522,1373308 388502,2006967 13952,65986 39685,144757 19141,180043 87058,132819 156445,277299 238910,417976 39304,67047 73716,145606 115727,214220 36659,59879 92365,156310 114147,218428 55740,54364 162687,297902 220213,377799 -14101,-158189 -57196,-365262 -85689,-526743 -18253,-103450 -89931,-457255 -80527,-542369l-6219 11276c-126250,-816495 -275520,-1655719 -412267,-2480423 -38184,-230282 -18582,-232251 39744,-492541 33938,-151450 179114,-869248 208553,-948188 6409,-107970 70708,-351733 97249,-470208 34981,-156140 65855,-318776 102236,-472812 31997,-135481 206900,-862763 184955,-939415 -28652,-3556 -6520,3958 -35879,-35484l-908372 -1183632c-247430,-314301 -651242,-830398 -876405,-1141247l-267129 -344138c-19307,-27969 -35474,-50725 -63158,-78992 -35862,49460 -41093,152234 -61072,213967z"/>
   <path class="fil14" d="M7979702 8324280l-1049388 2959838c31678,28679 51869,59629 86891,85394l90535 80507c68971,74784 275188,312377 339916,357146 58787,40666 134022,126664 176483,183156l-1000434 1229993c-14662,17758 -35734,41103 -50174,59793 -62576,80992 -444440,562881 -487380,592372l-71359 153332 55373 9973c64472,-57145 68063,2870 235107,-130993l1687179 -1357599c349310,-279583 617828,-495241 990043,-770990l423279 -323916 -1159705 -511790 483353 -2742823c25158,-141235 66323,-251309 94520,-380984 -50302,-31481 -35206,-29872 -72676,-64268 -24389,-22385 -54881,-38416 -80486,-60149 -44881,48901 -99217,75207 -130784,107737 -18787,19359 -17942,25498 -39162,45789l-350405 310381c-61526,71238 -122316,86007 -170726,168101z"/>
   <path class="fil15" d="M2470319 7990156c-15855,41519 -32586,98140 -48514,147995 -50659,158556 -58052,94701 186889,339652 73332,73332 364305,345930 399754,413061l771088 -228567c61428,71564 104767,142878 161928,218993 118694,158054 351968,514115 459869,638685 48198,-11654 24,10534 46752,-28191l224054 -252550c15817,-18395 20032,-31636 36046,-50173l184577 -206442c32835,-29436 12630,-1075 45390,-40167 9996,-11924 6180,-8988 16319,-21789 2156,-2717 16627,-19435 17692,-20995 17383,-25386 2526,24278 11691,-21345 6957,-34624 6527,-11584 -6939,-28842 -47900,34236 -11068,48159 -78195,82527 32596,-225035 86288,-460063 126902,-684546 29935,-165440 48476,-168993 12479,-340318 -15127,-71994 -50049,-318412 -87072,-319206l-926930 390731c-40957,-47168 -69616,-79515 -83332,-146552l-101581 -572812 -4953 -28916 -23681 22035c-2524,2922 -9155,12049 -11283,15168l-607648 968618 -721302 -246054z"/>
   <path class="fil16" d="M6237050 7785371c-35435,63609 356072,872378 365279,970771l-516005 -344242c-73577,-48628 -70000,-17921 -106812,-113485l-127564 -300505c-17380,-40700 -37012,-112337 -70625,-140497 -57210,85523 -73050,86164 -122312,155073 -63547,88888 -357452,421331 -375837,469085l509519 -237853c31331,63741 69661,207343 91727,285594 55407,196521 46187,132808 169370,306404l276249 359715c34669,49034 -26971,-40828 10319,15259l10107 16080c-20007,43990 -45449,79796 -73567,125103l-949700 1520765c-49997,68908 -54270,475799 -58832,575824l117166 -262640c23171,-33813 -1997,-36891 22797,-11008 31948,-57866 56618,-145097 81796,-212695 43599,-117059 102975,-177884 181170,-271628l138899 -166570c16121,-19508 16787,-25061 30731,-42981l550261 -672550c98885,-127156 388205,-454520 450493,-552310 37421,-58749 75553,-129256 111453,-194026 101921,-183873 279805,-418253 225839,-642151 -14184,-58846 -44818,-188507 -66926,-238986l-525876 -88212c46818,-44066 377778,-197974 457005,-236903 133371,-65540 90570,-62524 121371,-219461 19660,-100171 29515,-207607 51747,-306596 -21113,-47376 -135297,-146032 -177537,-188292 -33543,-33557 -58073,-58237 -91664,-91765 -32604,-32545 -54452,-69360 -98729,-88296l-367293 914937 -244019 -90958z"/>
   <path class="fil17" d="M10072094 7572163c-10711,117554 -218362,532819 -207745,597017l243322 574244c125707,317986 348291,815671 493051,1145680l863695 2009917c50427,115907 94372,166323 159260,245790 -120965,-384599 -283375,-804526 -421352,-1193632 -143256,-404000 -291344,-804610 -430555,-1208606 -139231,-404055 -296248,-804606 -429026,-1209351 -138316,-421623 -152594,-256041 -55026,-635663 38378,-149311 150847,-532572 157585,-661773l-99276 -132722c-49495,62184 -107776,160774 -147402,227690 -22811,38517 -48919,69976 -67737,115692 -17626,42822 -27369,96556 -58794,125717z"/>
   <path class="fil18" d="M3676186 10536725l-8287 -52915 -327636 96375c-16748,-69526 26077,-113502 52906,-174234 32818,-74295 23341,-83630 96503,-124167 88212,-48878 200355,-112570 290096,-151021 51366,-39726 344232,-183031 424818,-228189 -44825,122168 -134105,275282 -194047,398579 -78662,161804 -42711,204518 -319257,286495l-15096 -50923zm-1026947 -1015114l-41332 -1293c15352,34600 138764,76794 175523,97408 74791,23668 182771,55807 213548,122920 33564,73189 70025,151325 102119,227922 70205,167551 136964,276591 182396,464947l46545 175984 311798 -89745 13064 113187c31661,18146 47859,-15858 101554,-21661 27356,-28149 79138,-47660 120874,-66284 68334,-30486 60795,-19540 92809,-89838 35581,-78122 82930,-175208 122906,-247278l246099 -517366c-124743,-37609 -294904,-222401 -401605,-282512l-1286298 113609z"/>
   <path class="fil19" d="M1518477 7456249c13896,82732 -93103,514167 -116562,629717 -17883,88067 -60590,237164 -55145,320159 7297,111200 27917,231895 37321,346253 2551,-1585 6031,-7747 7009,-5664 9726,20745 212168,-315202 283150,-333057l544049 -62149c4097,-124275 -39210,-343688 -39283,-389186 -152,-94551 -17851,-30159 23033,-63383 0,-22492 3914,-13213 -26003,-11123 -72639,-4971 -233409,-69886 -318304,-96739l21813 -300696c-62354,-10399 -7987,2530 -31997,-25622l2322 4086 -186123 -69619 -68766 -452146 -2194 44704c-52497,10548 -211423,77106 -243327,107297 28347,54663 64642,123780 96143,181579 29775,54624 89585,122965 72864,175589z"/>
   <path class="fil20" d="M2533529 7767382l-63210 222774 721302 246054 607648 -968618c2128,-3119 8759,-12246 11283,-15168l23681 -22035 -48184 -241423c-45429,-15761 -293088,60025 -328866,80836 -36361,21151 -256616,301611 -295964,352731l-283459 342290 -344231 2559z"/>
   <path class="fil21" d="M2387961 7049223l66288 -117581c56299,-2881 183766,22731 248335,34755 44534,8295 220120,25269 206352,45526 -20444,49238 -179080,285313 -218224,331264 -28870,33890 -37193,30118 -92150,40340 -42926,7983 -80791,16184 -123668,25134 -76361,15938 -159218,34194 -236515,44153l-44291 -59370c57133,-109803 131817,-243094 193873,-344221zm17088 -270481c-46035,15557 -375330,284100 -435570,308135 -3220,59823 -29723,156299 -20901,191998l70083 211444c60656,10967 29786,25327 109287,25331l429463 -11775c47862,-4870 29571,2901 74337,-36271l179658 -150687c39124,-29550 36652,-43110 74244,-72022 42333,-32561 38125,-24104 79033,-68052l490330 -390021c30409,-22898 55404,-42440 80399,-66811l-220542 -349092 -169950 154393c-179817,139471 -332956,68736 -520125,140248 -75034,28669 -136476,107397 -219746,113182z"/>
   <path class="fil22" d="M3450445 6022029c-18638,13740 -19079,12957 -32181,25501 58999,114064 202560,278526 232432,351518 -48073,-27584 -339670,-209711 -360343,-245933 -60846,15522 -180449,115866 -238206,157579l-647098 468048c83270,-5785 144712,-84513 219746,-113182 187169,-71512 340308,-777 520125,-140248l169950 -154393 220542 349092c-24995,24371 -49990,43913 -80399,66811l-490330 390021c-40908,43948 -36700,35491 -79033,68052 -37592,28912 -35120,42472 -74244,72022l-179658 150687c-44766,39172 -26475,31401 -74337,36271l-429463 11775c-79501,-4 -48631,-14364 -109287,-25331 -30558,16055 -22797,14228 -53484,21747 17935,17750 1241,5951 33467,23171 105678,56472 214938,84365 335493,89849 155995,7095 314051,29130 467151,31951 27668,-61106 14240,-127699 36125,-181977 11252,-27903 566123,-445920 609281,-464940l243063 -74451c45061,-13449 50863,-19917 86077,-9619 -9085,-145588 -64736,-375843 -92108,-525702 -15772,-86323 -32399,-172688 -47297,-259365 -3421,-19899 -8156,-42860 -10701,-61446l-1792 -53411c274,-3355 1124,-6586 1449,-9847 4032,-40223 6271,-77110 -30236,-109596 -27452,41089 -33425,31962 -75674,64431 -24306,18679 -53193,36166 -69030,50915z"/>
   <path class="fil23" d="M1965177 7512066c-24638,-48961 -36294,-14631 -70749,-41755l-46870 -5552c24010,28152 -30357,15223 31997,25622l-21813 300696c84895,26853 245665,91768 318304,96739l-17463 -126833 374946 6399 344231 -2559 283459 -342290c39348,-51120 259603,-331580 295964,-352731 35778,-20811 283437,-96597 328866,-80836l-10215 -62916c-35214,-10298 -41016,-3830 -86077,9619l-243063 74451c-43158,19020 -598029,437037 -609281,464940 -21885,54278 -8457,120871 -36125,181977 -153100,-2821 -311156,-24856 -467151,-31951 -120555,-5484 -229815,-33377 -335493,-89849 -32226,-17220 -15532,-5421 -33467,-23171z"/>
   <path class="fil24" d="M1072203 7061944c29900,39754 54423,67141 83782,105242 25390,32950 47221,61390 75169,96756 3924,1099 -26177,-18762 9900,4198l11875 8620c70815,53079 50926,60205 86531,98369 46032,49338 45411,31903 106181,127481l-23106 61078c-47768,172352 -79193,411830 -114510,596154 -26070,136036 -41027,161860 -19734,306440 15772,107078 31252,213676 43789,322061l52011 -35965c-9404,-114358 -30024,-235053 -37321,-346253 -5445,-82995 37262,-232092 55145,-320159 23459,-115550 130458,-546985 116562,-629717l-291236 -433674c-61481,-95148 -12129,-531083 -13331,-675431 -24028,29682 -97239,229465 -121513,314208 -16783,58582 -23962,329264 -20194,400592z"/>
   <path class="fil25" d="M2387961 7049223c-62056,101127 -136740,234418 -193873,344221l44291 59370c77297,-9959 160154,-28215 236515,-44153 42877,-8950 80742,-17151 123668,-25134 54957,-10222 63280,-6450 92150,-40340 39144,-45951 197780,-282026 218224,-331264 -92486,6471 -186030,3743 -278845,3643 -38184,-42 -97987,-3522 -133682,738 -47404,5657 -55099,23415 -108448,32919z"/>
   <path class="fil26" d="M3004701 9153254c74344,39748 196892,32833 287507,59595 53893,15917 131741,104369 184628,148431 -52270,27023 -589935,112341 -726692,131859l-100905 28472 1286298 -113609c-45352,-52562 -98926,-81436 -157734,-130882 -29834,-25085 -52715,-42392 -81752,-65023 -39119,-30489 -48714,-34267 -83103,-60926l-89425 -26309 -518822 28392z"/>
   <path class="fil27" d="M3008448 8890864l643846 -102157c67428,104264 284550,304914 371261,389657 60801,59421 355119,358474 396565,380200l-18787 -38589c-107901,-124570 -341175,-480631 -459869,-638685 -57161,-76115 -100500,-147429 -161928,-218993l-771088 228567z"/>
   <path class="fil28" d="M3676186 10536725l179343 -255648c18871,-28860 37564,-66940 52098,-88285 -28004,-31231 -88601,-63595 -127859,-62029 -89741,38451 -201884,102143 -290096,151021 -73162,40537 -63685,49872 -96503,124167 -26829,60732 -69654,104708 -52906,174234l327636 -96375 8287 52915z"/>
   <path class="fil29" d="M3779768 10130763c39258,-1566 99855,30798 127859,62029 -14534,21345 -33227,59425 -52098,88285l-179343 255648 15096 50923c276546,-81977 240595,-124691 319257,-286495 59942,-123297 149222,-276411 194047,-398579 -80586,45158 -373452,188463 -424818,228189z"/>
   <path class="fil30" d="M3622966 5876073c-1938,2614 -4835,3657 -5730,7910 -839,4000 -4506,6090 -5612,7269 -1286,1369 -14839,14107 -16475,15431 36507,32486 34268,69373 30236,109596 -325,3261 -1175,6492 -1449,9847l1792 53411c2545,18586 7280,41547 10701,61446 14898,86677 31525,173042 47297,259365 27372,149859 83023,380114 92108,525702l10215 62916 48184 241423 4953 28916c58410,-44704 -50659,-580023 -67574,-690869 -36361,-238228 -71571,-470455 -110805,-709341 -20101,11661 -11248,8638 -37841,16978z"/>
   <path class="fil31" d="M2176046 7887816c29917,-2090 26003,-11369 26003,11123 33609,28385 224983,88673 268270,91217l63210 -222774 -374946 -6399 17463 126833z"/>
   <path class="fil32" d="M3988484 11120525c57647,-16596 118815,-48839 177322,-76361 104309,-49068 88853,-37192 106094,-150933 26739,-176407 39765,-262086 -15466,-440364 -27293,50405 -59938,303856 -74725,384637 -32864,179534 7109,158806 -193225,283021z"/>
   <path class="fil33" d="M3281493 10433515c-45432,-188356 -112191,-297396 -182396,-464947 -32094,-76597 -68555,-154733 -102119,-227922 -30777,-67113 -138757,-99252 -213548,-122920 107571,145315 98597,-23283 280994,373563 39952,86930 171149,388835 217069,442226z"/>
   <path class="fil34" d="M2387961 7049223c53349,-9504 61044,-27262 108448,-32919 35695,-4260 95498,-780 133682,-738 92815,100 186359,2828 278845,-3643 13768,-20257 -161818,-37231 -206352,-45526 -64569,-12024 -192036,-37636 -248335,-34755l-66288 117581z"/>
   <path class="fil35" d="M3309005 5447491l-30669 143574c26263,-11719 41269,-25147 62361,-43688 31688,-27858 25494,-30822 51075,-58652 68406,-74410 95331,-35207 112441,-125973l-24697 -103225 -32479 27543c-37047,33851 -28173,34381 -52482,69772 -64080,93283 -46198,77453 -85550,90649z"/>
   <path class="fil36" d="M3309005 5447491c39352,-13196 21470,2634 85550,-90649 24309,-35391 15435,-35921 52482,-69772l32479 -27543 1459 -158850c-41688,16773 -22828,1407 -69366,65709 -66593,92011 -61765,14728 -102604,281105z"/>
   <path class="fil37" d="M5513793 4659075c19511,-22291 6776,18194 22281,-39848l21345 -305729 -85738 27654 42112 317923z"/>
   <path class="fil38" d="M1422535 7563688l23106 -61078c-60770,-95578 -60149,-78143 -106181,-127481 -35605,-38164 -15716,-45290 -86531,-98369l-11875 -8620c-36077,-22960 -5976,-3099 -9900,-4198 22177,36628 29747,37519 51775,69751l69956 88986c86593,110288 83491,60447 69650,141009z"/>
   <path class="fil39" d="M10817060 6032719c22434,10714 13494,7095 34136,22645 35199,26520 2915,15359 45792,22783l-15837 -12249 -2049 -36579c-34534,-18527 -32607,-26746 -53193,-51789l-8849 55189z"/>
   <path class="fil40" d="M3612948 9151171c-17462,-34173 -42142,-37799 -89425,-26309l89425 26309z"/>
   <path class="fil41" d="M1332080 8788343l7033 31321c26510,-32083 23692,-23695 44978,-67286l-52011 35965z"/>
  </g>
  <g id="_495797554544">
   <g>
    <path class="fil0" d="M3290353 6153115c20673,36222 312270,218349 360343,245933 -29872,-72992 -173433,-237454 -232432,-351518 13102,-12544 13543,-11761 32181,-25501 -13359,-18430 22724,-38444 -43141,6856 -17512,12042 -24891,26968 -43973,43273 -55092,47071 -62919,50277 -109543,51938l36565 29019z"/>
    <path class="fil0" d="M1894428 7470311c34455,27124 46111,-7206 70749,41755 30687,-7519 22926,-5692 53484,-21747l-70083 -211444c-14364,30680 -14448,65761 -30084,100264 -20763,45824 -24256,24621 -24066,91172z"/>
   </g>
   <g>
    <path class="fil1" d="M1283678 9333516l-398527 -318297c-52908,-40819 -66635,-21879 -171741,-28219 47796,109928 160157,155311 266834,202425 102333,45196 206036,108895 303434,144091z"/>
    <path class="fil1" d="M2128506 11006455c37678,-20409 56469,-30582 78958,-50524 36794,-32631 29691,-29671 72194,-48960l-10540 -98531 -140612 198015z"/>
   </g>
   <g>
    <path class="fil2" d="M3754454 10611280c130972,-13875 74621,-20177 157873,-53525l50267 384145c21779,-42291 129322,-661076 128449,-734020 -39976,72070 -87325,169156 -122906,247278 -32014,70298 -24475,59352 -92809,89838 -41736,18624 -93518,38135 -120874,66284z"/>
    <path class="fil2" d="M3328038 10609499l-200133 59092c-15997,7986 -17047,9179 -25990,16527 122691,-919 478298,-75959 550985,-52177l-13064 -113187 -311798 89745z"/>
   </g>
   <g>
    <path class="fil3" d="M1062858 10848748c117946,3134 238220,1976 356662,3931 171398,2832 157533,-3657 288796,-77519 77473,-43594 158809,-83602 235714,-130819 67713,-41577 185343,-75428 256370,-106527 -96747,12793 -1103001,286172 -1137542,310934z"/>
    <path class="fil3" d="M1816885 11754666l384645 -229576c121259,-71248 80031,-42516 140337,-165145 34073,-69279 83415,-143973 102379,-217048 -103977,67927 -45516,51470 -153731,153141l-320540 303216c-30510,28780 -50801,48219 -81963,76822 -62136,57044 -29792,50943 -71127,78590z"/>
    <path class="fil3" d="M1489284 9853385c133904,47324 227982,103855 381518,122115 135163,16077 325421,50691 452094,56739 -61619,-30316 -494101,-193735 -572622,-195235l-251502 12863c-2382,651 -6510,1930 -9488,3518z"/>
   </g>
   <g>
    <path class="fil4" d="M2762831 9164610l-493755 24038 -171041 17061 200736 349771 309136 -35162 41332 1293 100905 -28472c136757,-19518 674422,-104836 726692,-131859 -52887,-44062 -130735,-132514 -184628,-148431 -90615,-26762 -213163,-19847 -287507,-59595l-241870 11356z"/>
    <path class="fil4" d="M3754454 10611280c-53695,5803 -69893,39807 -101554,21661 -72687,-23782 -428294,51258 -550985,52177 -65398,1841 -253177,48929 -298339,81807 40260,19033 114389,80843 155246,111522 54524,40943 116261,72316 159284,125880l844488 -62427 -50267 -384145c-83252,33348 -26901,39650 -157873,53525z"/>
   </g>
   <g>
    <path class="fil5" d="M1384091 8752378c-21286,43591 -18468,35203 -44978,67286l7754 47713 559277 -140403c16978,92517 120753,131092 -62375,228081l41231 196622c327455,76601 168494,29442 384076,36971l493755 -24038c-24770,-38313 -434871,-204005 -534996,-256935 -61515,-32520 -72174,-86195 -78937,-201828 29948,-18382 105422,-132428 110403,-145280 10905,-28146 -669,-165024 -1324,-167794 -15116,-63903 10076,-38135 -39678,-41265l-544049 62149c-70982,17855 -273424,353802 -283150,333057 -978,-2083 -4458,4079 -7009,5664z"/>
    <path class="fil5" d="M2925827 11360725c-26399,45390 569557,171769 607481,241038 12257,22392 49647,205527 59349,246030 65311,272599 16995,210068 273909,311739 137790,54528 288300,131443 426489,176078 -26458,-35071 -59925,-79110 -89155,-109620 -26399,-27549 -28039,-20603 -54108,-43185 -75789,-65661 -109966,-219663 -158875,-330648 -30759,-69806 -57553,-64815 -19439,-133502 21148,-38111 55588,-82735 80861,-115793l173921 -219430 -385583 14954 -85596 -96434 -829254 58773z"/>
    <path class="fil5" d="M1993517 6476317c-8280,32933 -1982,38260 -3150,71768 -63,1817 -2843,37488 -2968,37949 -11875,44153 3581,20125 -25674,48319 -15903,27508 -320585,218550 -367975,261520l1241 51207 68766 452146 186123 69619c-21969,-63692 -51969,-411518 -54506,-504274l207558 -187198c108316,-118566 52482,-47952 133990,-122860 36268,-33328 33432,-46992 77096,-81353 30066,-23657 70867,-50413 94909,-76742 38819,-42514 7144,-24725 78961,-79679 47630,-36443 65346,-43130 89353,-88603 -77128,27747 -435872,250445 -482088,291926l-1636 -143745z"/>
   </g>
   <g>
    <path class="fil6" d="M9990173 3890954c35567,-41040 51796,-30052 101883,-127373 77224,-150057 218206,-1149237 259413,-1354185 -73193,1886 -166854,58787 -241787,88278 -78798,31009 -157724,59983 -234720,95256 -26603,85214 -100195,665437 -124701,814831 -19861,121083 -29650,273347 -85106,381300 -36358,70777 -225735,135987 -309604,159450 -49353,-108233 -144525,-952088 -195801,-1073128l-428066 169131 451962 2679298c66628,-14025 160217,-59782 226366,-86961 34292,-14090 70243,-27893 105145,-41501l106524 -49238c-26589,-154927 -206972,-1130228 -200126,-1203664 107702,-51913 300061,-153432 372713,-54159 110906,151540 505776,917595 565097,969807 79862,-26278 166802,-64892 249475,-97578l219201 -87079c23460,-12066 8818,-2537 25650,-16451l-581866 -940794c-68818,-112948 -112410,-178712 -232452,-208484l-49200 -16756z"/>
    <path class="fil6" d="M5557419 4313498l-21345 305729c-15505,58042 -2770,17557 -22281,39848 31726,109724 114035,652615 143817,818925 48642,271621 92559,543211 138982,815241 42358,248217 59183,608515 343341,608269 141772,-122 889948,-298783 1039894,-400583 80874,-54908 154580,-143568 184158,-291680 35466,-177603 -62926,-640646 -99627,-835268 -31834,-168813 -261149,-1600516 -282921,-1622728 -21691,-11667 -360703,136722 -426963,157371 25463,311385 388928,2106177 354457,2221373 -19338,64625 -55914,66909 -126993,95103 -50759,20136 -98496,38867 -148961,58843 -86774,34347 -235392,115048 -326013,104843 -61255,-81789 -56399,-148205 -74971,-252646l-141374 -835134c-59280,-372409 -123752,-748765 -191194,-1120474 -35796,-707 -312068,110379 -342006,132968z"/>
    <path class="fil6" d="M7741988 6300711l1349072 -531162 -77897 -417706c-54274,23390 -134414,67450 -216601,100032 -77526,30735 -150418,59453 -227746,90063 -150188,59453 -312813,134178 -459952,182328l-392412 -2276303 -428239 169086 453775 2683662z"/>
    <path class="fil6" d="M5275222 7277842l342114 -126379 -215253 -1230991c9945,90621 -103658,1303702 -126861,1357370z"/>
   </g>
   <g>
    <path class="fil7" d="M5498295 11543077c27775,33508 44247,67972 66982,104815 60184,97543 24593,70392 68215,89231 52323,22597 193232,48257 255129,63145 127498,30669 415885,87463 512077,129907l496853 122726 -445809 995744 -365591 823834c42940,-29491 424804,-511380 487380,-592372 14440,-18690 35512,-42035 50174,-59793l1000434 -1229993c-42461,-56492 -117696,-142490 -176483,-183156 -64728,-44769 -270945,-282362 -339916,-357146l-90535 -80507c-35022,-25765 -55213,-56715 -86891,-85394l1049388 -2959838c-23584,13990 -36007,19339 -55349,34132 -36021,27557 -18589,19394 -46257,51034 -31521,36049 -69328,50011 -102298,81650 -43165,41418 -2891,23914 -93700,89474 -19289,13924 -32024,21747 -47553,38226 -91380,96950 -89879,73560 -142878,137949l-194549 172514c-41169,29380 -59516,56271 -96618,98968l-583246 908559c-48025,72961 -95730,157669 -141582,225340 -104122,153679 -248314,237087 -400318,345497l-217981 161051c-159898,113984 -204664,223413 -331819,414083 -208103,312051 -153877,201330 -27259,460320z"/>
    <path class="fil7" d="M1992633 6454511c43568,-45831 144875,-318897 188231,-415924 26291,-58842 4187,-25317 43272,-54763l409297 -287136 -163378 -543262c534,1192 -2939,1428 -3934,5695l-12971 13508c-1521,1858 -4163,4967 -5764,7074l-144549 246987c-287777,505460 -362204,445906 -310204,1027821z"/>
    <path class="fil7" d="M1046452 6662530c33120,-43418 111890,-486392 122383,-537301 16242,-78791 56742,-83567 162448,-153928l168515 -113020c35258,-21470 -2403,-2901 38492,-20825 -52995,-77079 -182948,-345352 -213672,-373120 -31197,83162 -85862,173142 -126660,251150 -45536,87061 -79242,163374 -126341,252678 -75727,143589 -44589,164324 -40569,329157 2957,121356 11096,246588 15404,365209z"/>
   </g>
   <g>
    <path class="fil8" d="M12982749 14823149c20544,-35286 -5189,-114057 -19141,-180043 -133980,-633659 -264400,-1362005 -388502,-2006967 -28811,-149720 -138667,-609734 -135564,-725340l217596 37224c10967,-29342 -184140,-2793157 -209063,-3063592 -45691,-495883 45061,-296436 -209513,-620858 -18384,-23432 -32086,-38715 -49452,-60576 -19033,-23962 -26572,-29373 -43879,-53855 -30489,-43127 -56070,-74281 -91336,-116635 -28104,-33754 -61896,-78379 -92974,-114885 -21342,-25071 -24129,-32402 -42736,-55290 -16755,-20617 -27279,-30815 -44745,-53026l-556799 -690474c-32391,-40770 -61241,-73657 -93304,-114441 -31584,-40177 -61473,-67817 -84291,-114497l-140074 -57577c-56015,133859 -279334,961807 -354482,1188314 -72475,218460 -72475,185330 -5358,400357 162750,521419 337323,1068051 484863,1587570 -107145,-67131 -207537,-233555 -288744,-281056l663867 1623247c154313,369625 359285,852018 497699,1226867l136213 364550c27722,34278 -5221,3740 10544,6541 1126,201 2430,-3671 6395,-4593 225558,500992 456853,1210170 714075,1651671 34773,59685 100459,168407 118705,227364z"/>
    <path class="fil8" d="M9112405 9099635l-21772 84309c-2488,27363 -4637,58046 -7431,85935 -6312,63006 -13855,124462 -20784,187465 -18565,168784 -129377,1044504 -115120,1079773l928763 639444c59553,35199 72801,67865 110628,121446l1377592 1789356c25761,32448 26340,36358 46306,63886l933616 1208631c-204577,-436617 -436513,-876732 -658286,-1324954 -105523,-213267 -1958519,-3918670 -1981504,-3995173l-592008 59882z"/>
   </g>
   <g>
    <path class="fil9" d="M6070165 14035784l803490 127089 5698473 888371c-13965,-34243 -8239,-17487 -25241,-40471l-949973 -1226326c-27452,-34569 -29608,-42416 -57408,-77165 -17716,-22150 -39497,-48739 -58676,-75883l-111075 -145755c-17047,-21338 -39647,-48635 -60209,-74171l-922209 -1193250c-28000,-34961 -29390,-42261 -57355,-77252 -16680,-20867 -39935,-48975 -60212,-74195l-229531 -296207c-20901,-28288 -33629,-47123 -57810,-76791 -24995,-30666 -38967,-52836 -57494,-77158l-117835 -151111c-20776,-28076 -34613,-41591 -54472,-67692 -17206,-22610 -33719,-50773 -57289,-77297 -43044,-48430 -445148,-236428 -520871,-274307l-710058 -351909c35376,-268651 610462,-2594767 600074,-2651669 -6600,-36142 -142725,-133377 -180012,-167249 -27224,-24732 -30232,-35453 -60531,-58697 -28197,129675 -69362,239749 -94520,380984l-483353 2742823 1159705 511790 -423279 323916c-372215,275749 -640733,491407 -990043,770990l-1687179 1357599c-167044,133863 -170635,73848 -235107,130993z"/>
    <path class="fil9" d="M3988484 11120525c200334,-124215 160361,-103487 193225,-283021 14787,-80781 47432,-334232 74725,-384637 55231,178278 42205,263957 15466,440364 -17241,113741 -1785,101865 -106094,150933 -58507,27522 -119675,59765 -177322,76361zm-1770185 -2769017c49754,3130 24562,-22638 39678,41265 655,2770 12229,139648 1324,167794 -4981,12852 -80455,126898 -110403,145280 6763,115633 17422,169308 78937,201828 100125,52930 510226,218622 534996,256935l241870 -11356 518822 -28392c47283,-11490 71963,-7864 89425,26309 34389,26659 43984,30437 83103,60926 29037,22631 51918,39938 81752,65023 58808,49446 112382,78320 157734,130882 106701,60111 276862,244903 401605,282512l-246099 517366c873,72944 -106670,691729 -128449,734020l-844488 62427c-40888,19140 -37363,37466 -53100,75439 -13636,32901 -27761,58732 -43913,90573 -33006,65064 -65186,125727 -95266,190386l829254 -58773 85596 96434 385583 -14954 -173921 219430c-25273,33058 -59713,77682 -80861,115793 -38114,68687 -11320,63696 19439,133502 48909,110985 83086,264987 158875,330648 26069,22582 27709,15636 54108,43185 29230,30510 62697,74549 89155,109620 55227,26836 107519,44794 161277,68417 83855,36842 82562,14076 165484,-26254l474666 -234487c85176,-39896 63637,-62815 84001,-158168 27498,-128746 61533,-259024 86247,-387209 38759,-164556 105276,-281035 143599,-423095 -24794,-25883 374,-22805 -22797,11008l-117166 262640c4562,-100025 8835,-506916 58832,-575824l949700 -1520765c28118,-45307 53560,-81113 73567,-125103l-10107 -16080c-37290,-56087 24350,33775 -10319,-15259l-276249 -359715c-123183,-173596 -113963,-109883 -169370,-306404 -22066,-78251 -60396,-221853 -91727,-285594l-509519 237853 -306259 367910c13466,17258 13896,-5782 6939,28842 -9165,45623 5692,-4041 -11691,21345 -1065,1560 -15536,18278 -17692,20995 -10139,12801 -6323,9865 -16319,21789 -32760,39092 -12555,10731 -45390,40167l-184577 206442c-16014,18537 -20229,31778 -36046,50173l-224054 252550c-46728,38725 1446,16537 -46752,28191l18787 38589c-41446,-21726 -335764,-320779 -396565,-380200 -86711,-84743 -303833,-285393 -371261,-389657l-643846 102157c-35449,-67131 -326422,-339729 -399754,-413061 -244941,-244951 -237548,-181096 -186889,-339652 15928,-49855 32659,-106476 48514,-147995 -43287,-2544 -234661,-62832 -268270,-91217 -40884,33224 -23185,-31168 -23033,63383 73,45498 43380,264911 39283,389186z"/>
    <path class="fil9" d="M5275222 7277842c23203,-53668 136806,-1266749 126861,-1357370l-239791 -1456477 -435795 177520 181915 1077874 -651815 256692 -184234 -1075160c-119672,22770 -323795,150275 -435775,161547l462035 2687419 422898 -167918c13907,-99883 -180466,-990296 -196282,-1213961l649925 -254363 212016 1204170 88042 -39973z"/>
    <path class="fil9" d="M1046452 6662530c4836,93328 -1906,335785 25751,399414 -3768,-71328 3411,-342010 20194,-400592 24274,-84743 97485,-284526 121513,-314208 1202,144348 -48150,580283 13331,675431l291236 433674c16721,-52624 -43089,-120965 -72864,-175589 -31501,-57799 -67796,-126916 -96143,-181579 31904,-30191 190830,-96749 243327,-107297l2194 -44704 -1241 -51207c47390,-42970 352072,-234012 367975,-261520 -10128,-68409 -166923,-325119 -209194,-406194 -69311,-132947 -148719,-257243 -214241,-390703 -40895,17924 -3234,-645 -38492,20825l-168515 113020c-105706,70361 -146206,75137 -162448,153928 -10493,50909 -89263,493883 -122383,537301z"/>
    <path class="fil9" d="M8472223 15085206l-2491688 -731947c-47262,11820 -7872,11245 45134,36701l244529 110562c490530,208151 1090979,519641 1588460,734908 83508,36132 83526,56087 176705,31140 62025,-16603 123100,-31560 185603,-47168 78631,-19633 318204,-63983 364578,-97526l-113321 -36670z"/>
    <path class="fil9" d="M12980517 7754248c16260,21522 25851,31595 42558,55311 26659,37837 -3733,15345 38683,45348l-219794 -891234c-17442,-49279 -374363,-315594 -440253,-367140l-630993 -496462 1209799 1654177z"/>
    <path class="fil9" d="M1992633 6454511l884 21806 1636 143745c46216,-41481 404960,-264179 482088,-291926 133949,-89505 110541,-110715 223495,-197822 19113,-14742 38358,-27556 54438,-43667 26232,-26281 21781,-32898 50413,-59051 39442,-36025 82014,-59567 118545,-95928l-232151 -166261c-56659,-38992 -28555,-18361 -58548,-68719l-409297 287136c-39085,29446 -16981,-4079 -43272,54763 -43356,97027 -144663,370093 -188231,415924z"/>
   </g>
   <g>
    <path class="fil10" d="M8028770 1637178c-49501,-118777 -111658,-229825 -164261,-347445 -19928,-44562 -140767,-303136 -160962,-328155l-343285 -389982c-25005,-28805 -25865,-42985 -53581,-69041 -35096,-32995 -36801,-22877 -54364,-68801l1698052 723233c127211,54881 160351,86812 307039,91945 108839,3810 293021,690 388575,15318l270740 639877c12455,69262 2389,217852 4364,297569 -170940,39227 -338807,86122 -513279,131273 -166740,43148 -672547,320914 -890951,394177 -156802,52600 -315448,109148 -469705,165831 -623278,229028 -1263543,451654 -1895267,671832 -636415,221819 -1257848,450999 -1894935,674041l-713000 252470c-152535,55719 -157156,30503 -197541,119561 -94011,207308 -235981,476887 -269011,693828 -12409,81492 -18922,206605 -43775,275046 -33664,-29577 -385216,-624102 -439515,-707236 -23040,-35280 -38894,-45540 -36562,-81668 1945,-30094 187863,-438437 217257,-540916l-413296 501747c-14472,17058 -15592,15013 -29023,31862l-434461 531699c-27671,31401 -32406,43332 -60250,74240 -26385,29290 -28954,46538 -61616,64950 -17598,-17019 -19168,-23982 -38732,-42693l-459293 -519398c-17875,-22205 -57581,-58870 -82781,-73772 -9677,37997 -72669,131714 -105997,150795 -31803,-117866 -56198,-245232 -84361,-367944 -18479,-80507 -88649,-308321 -59332,-359524l160979 -182529c71709,-65446 63730,-81678 102684,-117574l429681 -474944c21279,-19192 39997,-43303 57730,-52430l969741 -150857 -430721 -798933c71086,-28242 1340375,-254979 1471028,-281939 122867,-25359 245232,-43994 369545,-69446 105280,-21557 85287,-28756 168030,20800l687662 394770c-76604,-298589 -147180,-595977 -228730,-891301 -20142,-72940 -37737,-148178 -55581,-224012 -25737,-109377 -52732,-86493 -155037,-126108 -68500,-26527 -138237,-50524 -205822,-75380 -61189,-22503 -152698,-49242 -195464,-83055l2671814 -27744c160805,-3386 156206,12656 287500,72663 323829,148008 646781,320491 978070,463300zm-1211327 -1095312c44836,20073 203256,160871 234466,203409 96303,131256 162927,126008 271552,266297l167596 150590c19875,17241 41473,33155 58392,51741 50309,55265 3768,28201 106888,112271l52195 55096c-116455,-47890 -653867,-348062 -829071,-439328 -298509,-155499 -210910,-150064 -468857,-134805l-1750943 124094c-379303,29099 -791979,74046 -1169372,85512 17289,25505 403771,233351 481758,276997 32056,17938 51563,28649 79068,43048l75748 52582c-62334,-1223 -261729,6409 -305826,-6125l-1260160 -800377c13713,58354 198626,307132 239819,366107l251302 372273c35937,59034 86964,81051 171741,133863 63252,39404 128753,84926 192262,125672 57019,36586 353756,218164 374481,249333l-2766078 559862 36409 18857c12388,4669 24922,6294 38375,9182 26125,5604 51317,11864 77342,19220 76094,21508 430260,106157 481491,138895 48347,-5917 139963,23221 193180,47117l17806 141041 -852562 -144313c-38541,39536 -907730,440832 -1016445,483002 54011,8409 260016,-57061 334107,-74677 197364,-46922 143627,-38769 317794,44968 97415,46836 191673,92181 288793,138923 92230,44385 206678,113315 292422,144861 -16503,40988 -100438,138802 -128736,174126l-531616 691198c-84580,105426 -71495,92400 -49148,214151l144119 772658c20659,121769 47765,126112 -963,244137l-508220 1335020c48171,-22849 176671,-186178 223933,-237350 34915,-37800 52690,-36670 86788,-71793l212948 -239881c88330,-98240 106704,-26513 198469,-266102 28222,-73686 55949,-147211 83304,-222356 50812,-139595 107904,-313302 167901,-445563 92458,-7397 106358,3518 133162,40731 18354,25477 53616,94948 59561,118306 30724,27768 160677,296041 213672,373120 65522,133460 144930,257756 214241,390703 42271,81075 199066,337785 209194,406194 29255,-28194 13799,-4166 25674,-48319 125,-461 2905,-36132 2968,-37949 1168,-33508 -5130,-38835 3150,-71768l-884 -21806c-52000,-581915 22427,-522361 310204,-1027821l144549 -246987c1601,-2107 4243,-5216 5764,-7074l12971 -13508c995,-4267 4468,-4503 3934,-5695l163378 543262c29993,50358 1889,29727 58548,68719l232151 166261c-36531,36361 -79103,59903 -118545,95928 -28632,26153 -24181,32770 -50413,59051 -16080,16111 -35325,28925 -54438,43667 -112954,87107 -89546,108317 -223495,197822 -24007,45473 -41723,52160 -89353,88603 -71817,54954 -40142,37165 -78961,79679 -24042,26329 -64843,53085 -94909,76742 -43664,34361 -40828,48025 -77096,81353 -81508,74908 -25674,4294 -133990,122860l-207558 187198c2537,92756 32537,440582 54506,504274l-2322 -4086 46870 5552c-190,-66551 3303,-45348 24066,-91172 15636,-34503 15720,-69584 30084,-100264 -8822,-35699 17681,-132175 20901,-191998 60240,-24035 389535,-292578 435570,-308135l647098 -468048c57757,-41713 177360,-142057 238206,-157579l-36565 -29019c46624,-1661 54451,-4867 109543,-51938 19082,-16305 26461,-31231 43973,-43273 65865,-45300 29782,-25286 43141,-6856 15837,-14749 44724,-32236 69030,-50915 42249,-32469 48222,-23342 75674,-64431 1636,-1324 15189,-14062 16475,-15431 1106,-1179 4773,-3269 5612,-7269 895,-4253 3792,-5296 5730,-7910l-80944 -501155c-60766,-41394 34212,66538 -37809,-12166 -17110,90766 -44035,51563 -112441,125973 -25581,27830 -19387,30794 -51075,58652 -21092,18541 -36098,31969 -62361,43688l30669 -143574c40839,-266377 36011,-189094 102604,-281105 46538,-64302 27678,-48936 69366,-65709 13619,-37817 89484,-127121 146681,-158979l2428439 -958708c293781,-115301 597946,-228910 885983,-349248 584182,-244057 1186118,-462263 1771415,-698612 292547,-118133 590487,-233926 885869,-348849 149020,-57979 297361,-118250 447692,-176129 126774,-48812 174126,-47651 200813,-104653 19625,-41917 86364,-193852 97033,-207177l178750 -263523c79655,-111419 -70835,-291604 -88836,-576019 -44263,21588 -64014,43179 -99789,70018 -49803,37362 -194858,166303 -243614,189235 -78607,-122153 -237860,-657062 -334609,-701787l-715219 -311992c-86164,-37321 -423692,-201042 -483415,-201804l454142 610136c34070,41744 42101,37051 60285,88143l-2810692 -1000729 130216 121010c51494,44707 108548,82555 146441,134874 31384,43339 26819,37789 64410,69928 89602,76600 167537,129024 214473,216054z"/>
    <path class="fil10" d="M10886957 5328665l-5931516 2177889c11921,45883 21332,47484 -4412,81384 37023,794 71945,247212 87072,319206 35997,171325 17456,174878 -12479,340318 -40614,224483 -94306,459511 -126902,684546 67127,-34368 30295,-48291 78195,-82527l306259 -367910c18385,-47754 312290,-380197 375837,-469085 49262,-68909 65102,-69550 122312,-155073 33613,28160 53245,99797 70625,140497l127564 300505c36812,95564 33235,64857 106812,113485l516005 344242c-9207,-98393 -400714,-907162 -365279,-970771 15633,-108527 187229,-503120 241683,-664993 30846,-91696 10090,-47827 88774,-94750 54447,-32471 174289,-108895 228560,-128073 8610,9057 19400,17851 29574,29577 26624,30686 13047,4579 22721,34260 44277,18936 66125,55751 98729,88296 33591,33528 58121,58208 91664,91765 42240,42260 156424,140916 177537,188292 22416,-2943 147357,136400 171104,160074 43262,43134 156660,132598 165918,196740 28926,200408 29262,471900 43997,682907l206722 -242040c23224,-25941 13179,-10236 34531,-38395 12766,-16839 10901,-18125 25720,-35810l211062 -253198c104126,-143862 392582,-457681 484049,-588916 -64649,41435 -124784,90728 -173936,153082 -46530,59027 -110874,97526 -168722,149326 -54922,49175 -35304,50128 -163038,154829 -66406,54434 -45816,72895 -165519,155236 -68330,-39460 -294540,-308474 -380087,-366842 16618,-58514 102154,-201725 138060,-259833 -35910,-64849 -185838,-247073 -209398,-308744l3548359 -1386940 -106012 528098 2049 36579 15837 12249 405972 630238c-3362,-86313 -29608,-185828 -16970,-270845 -26583,-69536 -54646,-491293 -64951,-608022 -17605,-199419 -36773,-403442 -54142,-604366l-279940 103513z"/>
    <path class="fil10" d="M9327353 7559148c44461,114475 50534,-78462 45522,249163 -1494,97786 -4264,195662 -6156,293475 -3515,181475 -9446,375328 -5952,557277 37255,-43106 51491,-79637 83672,-125952 180272,-259441 430586,-702675 620341,-985468 27997,23779 14638,-32094 7314,24520 31425,-29161 41168,-82895 58794,-125717 18818,-45716 44926,-77175 67737,-115692 39626,-66916 97907,-165506 147402,-227690l99276 132722 102251 176619c45536,-48191 72035,-306863 83636,-369698 23006,-124632 42652,-247053 66386,-371948 -177409,-19681 -186262,-111173 -272706,5705 -17564,23754 -42403,51172 -61311,73315l-121852 147172c-13778,17491 -12322,12819 -28648,32292 -234235,279319 -212089,300838 -388638,638695l-102025 183797 -395043 -192587z"/>
   </g>
   <g>
    <path class="fil11" d="M9704413 9039753c22985,76503 1875981,3781906 1981504,3995173 221773,448222 453709,888337 658286,1324954l-933616 -1208631c-19966,-27528 -20545,-31438 -46306,-63886l-1377592 -1789356c-37827,-53581 -51075,-86247 -110628,-121446l-928763 -639444c-14257,-35269 96555,-910989 115120,-1079773 6929,-63003 14472,-124459 20784,-187465 2794,-27889 4943,-58572 7431,-85935l21772 -84309 592008 -59882zm993163 -2368994c-23734,124895 -43380,247316 -66386,371948 -11601,62835 -38100,321507 -83636,369698l-102251 -176619c-6738,129201 -119207,512462 -157585,661773 -97568,379622 -83290,214040 55026,635663 132778,404745 289795,805296 429026,1209351 139211,403996 287299,804606 430555,1208606 137977,389106 300387,809033 421352,1193632 -64888,-79467 -108833,-129883 -159260,-245790l-863695 -2009917c-144760,-330009 -367344,-827694 -493051,-1145680l-243322 -574244c-10617,-64198 197034,-479463 207745,-597017 7324,-56614 20683,-741 -7314,-24520 -189755,282793 -440069,726027 -620341,985468 -32181,46315 -46417,82846 -83672,125952 -3494,-181949 2437,-375802 5952,-557277 1892,-97813 4662,-195689 6156,-293475 5012,-327625 -1061,-134688 -45522,-249163l-272013 -294554c-31425,-40815 -43258,-36056 -74628,-71571 -24541,-27782 -39016,-57591 -63851,-83564 -34995,-36596 -93440,-75044 -128442,-153131 -56672,34798 -74655,70711 -126978,133363l-102046 121416c-91467,131235 -379923,445054 -484049,588916l-211062 253198c-14819,17685 -12954,18971 -25720,35810 -21352,28159 -11307,12454 -34531,38395l-206722 242040c-14735,-211007 -15071,-482499 -43997,-682907 -9258,-64142 -122656,-153606 -165918,-196740 -23747,-23674 -148688,-163017 -171104,-160074 -22232,98989 -32087,206425 -51747,306596 -30801,156937 12000,153921 -121371,219461 -79227,38929 -410187,192837 -457005,236903l525876 88212c22108,50479 52742,180140 66926,238986 53966,223898 -123918,458278 -225839,642151 -35900,64770 -74032,135277 -111453,194026 -62288,97790 -351608,425154 -450493,552310l-550261 672550c-13944,17920 -14610,23473 -30731,42981l-138899 166570c-78195,93744 -137571,154569 -181170,271628 -25178,67598 -49848,154829 -81796,212695 -38323,142060 -104840,258539 -143599,423095l233565 -54832c-126618,-258990 -180844,-148269 27259,-460320 127155,-190670 171921,-300099 331819,-414083l217981 -161051c152004,-108410 296196,-191818 400318,-345497 45852,-67671 93557,-152379 141582,-225340l583246 -908559c37102,-42697 55449,-69588 96618,-98968l194549 -172514c52999,-64389 51498,-40999 142878,-137949 15529,-16479 28264,-24302 47553,-38226 90809,-65560 50535,-48056 93700,-89474 32970,-31639 70777,-45601 102298,-81650 27668,-31640 10236,-23477 46257,-51034 19342,-14793 31765,-20142 55349,-34132 48410,-82094 109200,-96863 170726,-168101l350405 -310381c21220,-20291 20375,-26430 39162,-45789 31567,-32530 85903,-58836 130784,-107737 25605,21733 56097,37764 80486,60149 37470,34396 22374,32787 72676,64268 30299,23244 33307,33965 60531,58697 37287,33872 173412,131107 180012,167249 10388,56902 -564698,2383018 -600074,2651669l710058 351909c75723,37879 477827,225877 520871,274307 23570,26524 40083,54687 57289,77297 19859,26101 33696,39616 54472,67692l117835 151111c18527,24322 32499,46492 57494,77158 24181,29668 36909,48503 57810,76791l229531 296207c20277,25220 43532,53328 60212,74195 27965,34991 29355,42291 57355,77252l922209 1193250c20562,25536 43162,52833 60209,74171l111075 145755c19179,27144 40960,53733 58676,75883 27800,34749 29956,42596 57408,77165l949973 1226326c17002,22984 11276,6228 25241,40471l-5698473 -888371c58850,58035 186185,59352 243728,117724 67488,412 809199,321254 944431,373258 157959,60742 313129,126060 470135,190109 125267,51102 361958,160892 481155,188220 24090,24537 994844,408259 1120758,459736 169118,69141 144854,66829 334457,42278l720848 -73997c72417,-8617 108986,-22444 162896,11407l1295411 893696c42174,28731 73203,46284 117270,78423l589523 401806 97266 -1171760c-21782,-62118 -77488,-158549 -114147,-218428 -42011,-68614 -76423,-147173 -115727,-214220 -82465,-140677 -151852,-285157 -238910,-417976 -18246,-58957 -83932,-167679 -118705,-227364 -257222,-441501 -488517,-1150679 -714075,-1651671 -3965,922 -5269,4794 -6395,4593 -15765,-2801 17178,27737 -10544,-6541l-136213 -364550c-138414,-374849 -343386,-857242 -497699,-1226867l-663867 -1623247c81207,47501 181599,213925 288744,281056 -147540,-519519 -322113,-1066151 -484863,-1587570 -67117,-215027 -67117,-181897 5358,-400357 75148,-226507 298467,-1054455 354482,-1188314l140074 57577 274428 104514 94292 -373785 -165617 -138555c-33248,-36472 -10436,-24839 -56159,-44528 -12638,85017 13608,184532 16970,270845l-405972 -630238c-42877,-7424 -10593,3737 -45792,-22783 -20642,-15550 -11702,-11931 -34136,-22645l-119484 638040z"/>
    <path class="fil11" d="M5402083 5920472l215253 1230991 -342114 126379 -88042 39973 -212016 -1204170 -649925 254363c15816,223665 210189,1114078 196282,1213961l-422898 167918 -462035 -2687419c111980,-11272 316103,-138777 435775,-161547l184234 1075160 651815 -256692 -181915 -1077874 435795 -177520 239791 1456477zm111710 -1261397l-42112 -317923 85738 -27654c29938,-22589 306210,-133675 342006,-132968 67442,371709 131914,748065 191194,1120474l141374 835134c18572,104441 13716,170857 74971,252646 90621,10205 239239,-70496 326013,-104843 50465,-19976 98202,-38707 148961,-58843 71079,-28194 107655,-30478 126993,-95103 34471,-115196 -328994,-1909988 -354457,-2221373 66260,-20649 405272,-169038 426963,-157371 21772,22212 251087,1453915 282921,1622728 36701,194622 135093,657665 99627,835268 -29578,148112 -103284,236772 -184158,291680 -149946,101800 -898122,400461 -1039894,400583 -284158,246 -300983,-360052 -343341,-608269 -46423,-272030 -90340,-543620 -138982,-815241 -29782,-166310 -112091,-709201 -143817,-818925zm1774420 -1042026l428239 -169086 392412 2276303c147139,-48150 309764,-122875 459952,-182328 77328,-30610 150220,-59328 227746,-90063 82187,-32582 162327,-76642 216601,-100032l77897 417706 -1349072 531162 -453775 -2683662zm2701960 273905l49200 16756c120042,29772 163634,95536 232452,208484l581866 940794c-16832,13914 -2190,4385 -25650,16451l-219201 87079c-82673,32686 -169613,71300 -249475,97578 -59321,-52212 -454191,-818267 -565097,-969807 -72652,-99273 -265011,2246 -372713,54159 -6846,73436 173537,1048737 200126,1203664l-106524 49238c-34902,13608 -70853,27411 -105145,41501 -66149,27179 -159738,72936 -226366,86961l-451962 -2679298 428066 -169131c51276,121040 146448,964895 195801,1073128 83869,-23463 273246,-88673 309604,-159450 55456,-107953 65245,-260217 85106,-381300 24506,-149394 98098,-729617 124701,-814831 76996,-35273 155922,-64247 234720,-95256 74933,-29491 168594,-86392 241787,-88278 -41207,204948 -182189,1204128 -259413,1354185 -50087,97321 -66316,86333 -101883,127373zm-6509198 1209723l-1459 158850 24697 103225c72021,78704 -22957,-29228 37809,12166l80944 501155c26593,-8340 17740,-5317 37841,-16978 39234,238886 74444,471113 110805,709341 16915,110846 125984,646165 67574,690869l101581 572812c13716,67037 42375,99384 83332,146552l926930 -390731c25744,-33900 16333,-35501 4412,-81384l5931516 -2177889c-19397,-301438 -35397,-592823 -53037,-895127 -28454,-487689 -15650,-243049 -265597,-675268 -41487,-71737 -104365,-688009 -120451,-821618 -14510,-120528 -109128,-779123 -102972,-838330 -10669,13325 -77408,165260 -97033,207177 -26687,57002 -74039,55841 -200813,104653 -150331,57879 -298672,118150 -447692,176129 -295382,114923 -593322,230716 -885869,348849 -585297,236349 -1187233,454555 -1771415,698612 -288037,120338 -592202,233947 -885983,349248l-2428439 958708c-57197,31858 -133062,121162 -146681,158979z"/>
    <path class="fil11" d="M13505530 14982460c32277,-354963 55182,-705212 86624,-1060591l153385 -1845939c8942,-96389 -27294,-136594 -62975,-218643 -109616,-252061 -223645,-541599 -347223,-784703 -29439,78940 -174615,796738 -208553,948188 -58326,260290 -77928,262259 -39744,492541 136747,824704 286017,1663928 412267,2480423l6219 -11276z"/>
    <polygon class="fil11" points="6451742,13048645 6897551,12052901 6400698,11930175 "/>
    <path class="fil11" d="M6237050 7785371l244019 90958 367293 -914937c-9674,-29681 3903,-3574 -22721,-34260 -10174,-11726 -20964,-20520 -29574,-29577 -54271,19178 -174113,95602 -228560,128073 -78684,46923 -57928,3054 -88774,94750 -54454,161873 -226050,556466 -241683,664993z"/>
   </g>
   <g>
    <path class="fil12" d="M8028770 1637178c-331289,-142809 -654241,-315292 -978070,-463300 -131294,-60007 -126695,-76049 -287500,-72663l-2671814 27744c42766,33813 134275,60552 195464,83055 67585,24856 137322,48853 205822,75380 102305,39615 129300,16731 155037,126108 17844,75834 35439,151072 55581,224012 81550,295324 152126,592712 228730,891301l-687662 -394770c-82743,-49556 -62750,-42357 -168030,-20800 -124313,25452 -246678,44087 -369545,69446 -130653,26960 -1399942,253697 -1471028,281939l430721 798933 -969741 150857c-17733,9127 -36451,33238 -57730,52430l-429681 474944c-38954,35896 -30975,52128 -102684,117574l-160979 182529c-29317,51203 40853,279017 59332,359524 28163,122712 52558,250078 84361,367944 33328,-19081 96320,-112798 105997,-150795 25200,14902 64906,51567 82781,73772l459293 519398c19564,18711 21134,25674 38732,42693 32662,-18412 35231,-35660 61616,-64950 27844,-30908 32579,-42839 60250,-74240l434461 -531699c13431,-16849 14551,-14804 29023,-31862l413296 -501747c-29394,102479 -215312,510822 -217257,540916 -2332,36128 13522,46388 36562,81668 54299,83134 405851,677659 439515,707236 24853,-68441 31366,-193554 43775,-275046 33030,-216941 175000,-486520 269011,-693828 40385,-89058 45006,-63842 197541,-119561l713000 -252470c637087,-223042 1258520,-452222 1894935,-674041 631724,-220178 1271989,-442804 1895267,-671832 154257,-56683 312903,-113231 469705,-165831 218404,-73263 724211,-351029 890951,-394177 174472,-45151 342339,-92046 513279,-131273 -1975,-79717 8091,-228307 -4364,-297569l-270740 -639877c-95554,-14628 -279736,-11508 -388575,-15318 -146688,-5133 -179828,-37064 -307039,-91945l-1698052 -723233c17563,45924 19268,35806 54364,68801 27716,26056 28576,40236 53581,69041l343285 389982c20195,25019 141034,283593 160962,328155 52603,117620 114760,228668 164261,347445z"/>
    <path class="fil12" d="M8559395 7211107l102046 -121416c52323,-62652 70306,-98565 126978,-133363 35002,78087 93447,116535 128442,153131 24835,25973 39310,55782 63851,83564 31370,35515 43203,30756 74628,71571l272013 294554 395043 192587 102025 -183797c176549,-337857 154403,-359376 388638,-638695 16326,-19473 14870,-14801 28648,-32292l121852 -147172c18908,-22143 43747,-49561 61311,-73315 86444,-116878 95297,-25386 272706,-5705l119484 -638040 8849 -55189c20586,25043 18659,33262 53193,51789l106012 -528098 -3548359 1386940c23560,61671 173488,243895 209398,308744 -35906,58108 -121442,201319 -138060,259833 85547,58368 311757,327382 380087,366842 119703,-82341 99113,-100802 165519,-155236 127734,-104701 108116,-105654 163038,-154829 57848,-51800 122192,-90299 168722,-149326 49152,-62354 109287,-111647 173936,-153082z"/>
   </g>
   <path class="fil13" d="M11507766 6620623l-94292 373785 -274428 -104514c22818,46680 52707,74320 84291,114497 32063,40784 60913,73671 93304,114441l556799 690474c17466,22211 27990,32409 44745,53026 18607,22888 21394,30219 42736,55290 31078,36506 64870,81131 92974,114885 35266,42354 60847,73508 91336,116635 17307,24482 24846,29893 43879,53855 17366,21861 31068,37144 49452,60576 254574,324422 163822,124975 209513,620858 24923,270435 220030,3034250 209063,3063592l-217596 -37224c-3103,115606 106753,575620 135564,725340 124102,644962 254522,1373308 388502,2006967 13952,65986 39685,144757 19141,180043 87058,132819 156445,277299 238910,417976 39304,67047 73716,145606 115727,214220 36659,59879 92365,156310 114147,218428 55740,54364 162687,297902 220213,377799 -14101,-158189 -57196,-365262 -85689,-526743 -18253,-103450 -89931,-457255 -80527,-542369l-6219 11276c-126250,-816495 -275520,-1655719 -412267,-2480423 -38184,-230282 -18582,-232251 39744,-492541 33938,-151450 179114,-869248 208553,-948188 6409,-107970 70708,-351733 97249,-470208 34981,-156140 65855,-318776 102236,-472812 31997,-135481 206900,-862763 184955,-939415 -28652,-3556 -6520,3958 -35879,-35484l-908372 -1183632c-247430,-314301 -651242,-830398 -876405,-1141247l-267129 -344138c-19307,-27969 -35474,-50725 -63158,-78992 -35862,49460 -41093,152234 -61072,213967z"/>
   <path class="fil14" d="M7979702 8324280l-1049388 2959838c31678,28679 51869,59629 86891,85394l90535 80507c68971,74784 275188,312377 339916,357146 58787,40666 134022,126664 176483,183156l-1000434 1229993c-14662,17758 -35734,41103 -50174,59793 -62576,80992 -444440,562881 -487380,592372l-71359 153332 55373 9973c64472,-57145 68063,2870 235107,-130993l1687179 -1357599c349310,-279583 617828,-495241 990043,-770990l423279 -323916 -1159705 -511790 483353 -2742823c25158,-141235 66323,-251309 94520,-380984 -50302,-31481 -35206,-29872 -72676,-64268 -24389,-22385 -54881,-38416 -80486,-60149 -44881,48901 -99217,75207 -130784,107737 -18787,19359 -17942,25498 -39162,45789l-350405 310381c-61526,71238 -122316,86007 -170726,168101z"/>
   <path class="fil15" d="M2470319 7990156c-15855,41519 -32586,98140 -48514,147995 -50659,158556 -58052,94701 186889,339652 73332,73332 364305,345930 399754,413061l771088 -228567c61428,71564 104767,142878 161928,218993 118694,158054 351968,514115 459869,638685 48198,-11654 24,10534 46752,-28191l224054 -252550c15817,-18395 20032,-31636 36046,-50173l184577 -206442c32835,-29436 12630,-1075 45390,-40167 9996,-11924 6180,-8988 16319,-21789 2156,-2717 16627,-19435 17692,-20995 17383,-25386 2526,24278 11691,-21345 6957,-34624 6527,-11584 -6939,-28842 -47900,34236 -11068,48159 -78195,82527 32596,-225035 86288,-460063 126902,-684546 29935,-165440 48476,-168993 12479,-340318 -15127,-71994 -50049,-318412 -87072,-319206l-926930 390731c-40957,-47168 -69616,-79515 -83332,-146552l-101581 -572812 -4953 -28916 -23681 22035c-2524,2922 -9155,12049 -11283,15168l-607648 968618 -721302 -246054z"/>
   <path class="fil16" d="M6237050 7785371c-35435,63609 356072,872378 365279,970771l-516005 -344242c-73577,-48628 -70000,-17921 -106812,-113485l-127564 -300505c-17380,-40700 -37012,-112337 -70625,-140497 -57210,85523 -73050,86164 -122312,155073 -63547,88888 -357452,421331 -375837,469085l509519 -237853c31331,63741 69661,207343 91727,285594 55407,196521 46187,132808 169370,306404l276249 359715c34669,49034 -26971,-40828 10319,15259l10107 16080c-20007,43990 -45449,79796 -73567,125103l-949700 1520765c-49997,68908 -54270,475799 -58832,575824l117166 -262640c23171,-33813 -1997,-36891 22797,-11008 31948,-57866 56618,-145097 81796,-212695 43599,-117059 102975,-177884 181170,-271628l138899 -166570c16121,-19508 16787,-25061 30731,-42981l550261 -672550c98885,-127156 388205,-454520 450493,-552310 37421,-58749 75553,-129256 111453,-194026 101921,-183873 279805,-418253 225839,-642151 -14184,-58846 -44818,-188507 -66926,-238986l-525876 -88212c46818,-44066 377778,-197974 457005,-236903 133371,-65540 90570,-62524 121371,-219461 19660,-100171 29515,-207607 51747,-306596 -21113,-47376 -135297,-146032 -177537,-188292 -33543,-33557 -58073,-58237 -91664,-91765 -32604,-32545 -54452,-69360 -98729,-88296l-367293 914937 -244019 -90958z"/>
   <path class="fil17" d="M10072094 7572163c-10711,117554 -218362,532819 -207745,597017l243322 574244c125707,317986 348291,815671 493051,1145680l863695 2009917c50427,115907 94372,166323 159260,245790 -120965,-384599 -283375,-804526 -421352,-1193632 -143256,-404000 -291344,-804610 -430555,-1208606 -139231,-404055 -296248,-804606 -429026,-1209351 -138316,-421623 -152594,-256041 -55026,-635663 38378,-149311 150847,-532572 157585,-661773l-99276 -132722c-49495,62184 -107776,160774 -147402,227690 -22811,38517 -48919,69976 -67737,115692 -17626,42822 -27369,96556 -58794,125717z"/>
   <path class="fil18" d="M3676186 10536725l-8287 -52915 -327636 96375c-16748,-69526 26077,-113502 52906,-174234 32818,-74295 23341,-83630 96503,-124167 88212,-48878 200355,-112570 290096,-151021 51366,-39726 344232,-183031 424818,-228189 -44825,122168 -134105,275282 -194047,398579 -78662,161804 -42711,204518 -319257,286495l-15096 -50923zm-1026947 -1015114l-41332 -1293c15352,34600 138764,76794 175523,97408 74791,23668 182771,55807 213548,122920 33564,73189 70025,151325 102119,227922 70205,167551 136964,276591 182396,464947l46545 175984 311798 -89745 13064 113187c31661,18146 47859,-15858 101554,-21661 27356,-28149 79138,-47660 120874,-66284 68334,-30486 60795,-19540 92809,-89838 35581,-78122 82930,-175208 122906,-247278l246099 -517366c-124743,-37609 -294904,-222401 -401605,-282512l-1286298 113609z"/>
   <path class="fil19" d="M1518477 7456249c13896,82732 -93103,514167 -116562,629717 -17883,88067 -60590,237164 -55145,320159 7297,111200 27917,231895 37321,346253 2551,-1585 6031,-7747 7009,-5664 9726,20745 212168,-315202 283150,-333057l544049 -62149c4097,-124275 -39210,-343688 -39283,-389186 -152,-94551 -17851,-30159 23033,-63383 0,-22492 3914,-13213 -26003,-11123 -72639,-4971 -233409,-69886 -318304,-96739l21813 -300696c-62354,-10399 -7987,2530 -31997,-25622l2322 4086 -186123 -69619 -68766 -452146 -2194 44704c-52497,10548 -211423,77106 -243327,107297 28347,54663 64642,123780 96143,181579 29775,54624 89585,122965 72864,175589z"/>
   <path class="fil20" d="M2533529 7767382l-63210 222774 721302 246054 607648 -968618c2128,-3119 8759,-12246 11283,-15168l23681 -22035 -48184 -241423c-45429,-15761 -293088,60025 -328866,80836 -36361,21151 -256616,301611 -295964,352731l-283459 342290 -344231 2559z"/>
   <path class="fil21" d="M2387961 7049223l66288 -117581c56299,-2881 183766,22731 248335,34755 44534,8295 220120,25269 206352,45526 -20444,49238 -179080,285313 -218224,331264 -28870,33890 -37193,30118 -92150,40340 -42926,7983 -80791,16184 -123668,25134 -76361,15938 -159218,34194 -236515,44153l-44291 -59370c57133,-109803 131817,-243094 193873,-344221zm17088 -270481c-46035,15557 -375330,284100 -435570,308135 -3220,59823 -29723,156299 -20901,191998l70083 211444c60656,10967 29786,25327 109287,25331l429463 -11775c47862,-4870 29571,2901 74337,-36271l179658 -150687c39124,-29550 36652,-43110 74244,-72022 42333,-32561 38125,-24104 79033,-68052l490330 -390021c30409,-22898 55404,-42440 80399,-66811l-220542 -349092 -169950 154393c-179817,139471 -332956,68736 -520125,140248 -75034,28669 -136476,107397 -219746,113182z"/>
   <path class="fil22" d="M3450445 6022029c-18638,13740 -19079,12957 -32181,25501 58999,114064 202560,278526 232432,351518 -48073,-27584 -339670,-209711 -360343,-245933 -60846,15522 -180449,115866 -238206,157579l-647098 468048c83270,-5785 144712,-84513 219746,-113182 187169,-71512 340308,-777 520125,-140248l169950 -154393 220542 349092c-24995,24371 -49990,43913 -80399,66811l-490330 390021c-40908,43948 -36700,35491 -79033,68052 -37592,28912 -35120,42472 -74244,72022l-179658 150687c-44766,39172 -26475,31401 -74337,36271l-429463 11775c-79501,-4 -48631,-14364 -109287,-25331 -30558,16055 -22797,14228 -53484,21747 17935,17750 1241,5951 33467,23171 105678,56472 214938,84365 335493,89849 155995,7095 314051,29130 467151,31951 27668,-61106 14240,-127699 36125,-181977 11252,-27903 566123,-445920 609281,-464940l243063 -74451c45061,-13449 50863,-19917 86077,-9619 -9085,-145588 -64736,-375843 -92108,-525702 -15772,-86323 -32399,-172688 -47297,-259365 -3421,-19899 -8156,-42860 -10701,-61446l-1792 -53411c274,-3355 1124,-6586 1449,-9847 4032,-40223 6271,-77110 -30236,-109596 -27452,41089 -33425,31962 -75674,64431 -24306,18679 -53193,36166 -69030,50915z"/>
   <path class="fil23" d="M1965177 7512066c-24638,-48961 -36294,-14631 -70749,-41755l-46870 -5552c24010,28152 -30357,15223 31997,25622l-21813 300696c84895,26853 245665,91768 318304,96739l-17463 -126833 374946 6399 344231 -2559 283459 -342290c39348,-51120 259603,-331580 295964,-352731 35778,-20811 283437,-96597 328866,-80836l-10215 -62916c-35214,-10298 -41016,-3830 -86077,9619l-243063 74451c-43158,19020 -598029,437037 -609281,464940 -21885,54278 -8457,120871 -36125,181977 -153100,-2821 -311156,-24856 -467151,-31951 -120555,-5484 -229815,-33377 -335493,-89849 -32226,-17220 -15532,-5421 -33467,-23171z"/>
   <path class="fil24" d="M1072203 7061944c29900,39754 54423,67141 83782,105242 25390,32950 47221,61390 75169,96756 3924,1099 -26177,-18762 9900,4198l11875 8620c70815,53079 50926,60205 86531,98369 46032,49338 45411,31903 106181,127481l-23106 61078c-47768,172352 -79193,411830 -114510,596154 -26070,136036 -41027,161860 -19734,306440 15772,107078 31252,213676 43789,322061l52011 -35965c-9404,-114358 -30024,-235053 -37321,-346253 -5445,-82995 37262,-232092 55145,-320159 23459,-115550 130458,-546985 116562,-629717l-291236 -433674c-61481,-95148 -12129,-531083 -13331,-675431 -24028,29682 -97239,229465 -121513,314208 -16783,58582 -23962,329264 -20194,400592z"/>
   <path class="fil25" d="M2387961 7049223c-62056,101127 -136740,234418 -193873,344221l44291 59370c77297,-9959 160154,-28215 236515,-44153 42877,-8950 80742,-17151 123668,-25134 54957,-10222 63280,-6450 92150,-40340 39144,-45951 197780,-282026 218224,-331264 -92486,6471 -186030,3743 -278845,3643 -38184,-42 -97987,-3522 -133682,738 -47404,5657 -55099,23415 -108448,32919z"/>
   <path class="fil26" d="M3004701 9153254c74344,39748 196892,32833 287507,59595 53893,15917 131741,104369 184628,148431 -52270,27023 -589935,112341 -726692,131859l-100905 28472 1286298 -113609c-45352,-52562 -98926,-81436 -157734,-130882 -29834,-25085 -52715,-42392 -81752,-65023 -39119,-30489 -48714,-34267 -83103,-60926l-89425 -26309 -518822 28392z"/>
   <path class="fil27" d="M3008448 8890864l643846 -102157c67428,104264 284550,304914 371261,389657 60801,59421 355119,358474 396565,380200l-18787 -38589c-107901,-124570 -341175,-480631 -459869,-638685 -57161,-76115 -100500,-147429 -161928,-218993l-771088 228567z"/>
   <path class="fil28" d="M3676186 10536725l179343 -255648c18871,-28860 37564,-66940 52098,-88285 -28004,-31231 -88601,-63595 -127859,-62029 -89741,38451 -201884,102143 -290096,151021 -73162,40537 -63685,49872 -96503,124167 -26829,60732 -69654,104708 -52906,174234l327636 -96375 8287 52915z"/>
   <path class="fil29" d="M3779768 10130763c39258,-1566 99855,30798 127859,62029 -14534,21345 -33227,59425 -52098,88285l-179343 255648 15096 50923c276546,-81977 240595,-124691 319257,-286495 59942,-123297 149222,-276411 194047,-398579 -80586,45158 -373452,188463 -424818,228189z"/>
   <path class="fil30" d="M3622966 5876073c-1938,2614 -4835,3657 -5730,7910 -839,4000 -4506,6090 -5612,7269 -1286,1369 -14839,14107 -16475,15431 36507,32486 34268,69373 30236,109596 -325,3261 -1175,6492 -1449,9847l1792 53411c2545,18586 7280,41547 10701,61446 14898,86677 31525,173042 47297,259365 27372,149859 83023,380114 92108,525702l10215 62916 48184 241423 4953 28916c58410,-44704 -50659,-580023 -67574,-690869 -36361,-238228 -71571,-470455 -110805,-709341 -20101,11661 -11248,8638 -37841,16978z"/>
   <path class="fil31" d="M2176046 7887816c29917,-2090 26003,-11369 26003,11123 33609,28385 224983,88673 268270,91217l63210 -222774 -374946 -6399 17463 126833z"/>
   <path class="fil32" d="M3988484 11120525c57647,-16596 118815,-48839 177322,-76361 104309,-49068 88853,-37192 106094,-150933 26739,-176407 39765,-262086 -15466,-440364 -27293,50405 -59938,303856 -74725,384637 -32864,179534 7109,158806 -193225,283021z"/>
   <path class="fil33" d="M3281493 10433515c-45432,-188356 -112191,-297396 -182396,-464947 -32094,-76597 -68555,-154733 -102119,-227922 -30777,-67113 -138757,-99252 -213548,-122920 107571,145315 98597,-23283 280994,373563 39952,86930 171149,388835 217069,442226z"/>
   <path class="fil34" d="M2387961 7049223c53349,-9504 61044,-27262 108448,-32919 35695,-4260 95498,-780 133682,-738 92815,100 186359,2828 278845,-3643 13768,-20257 -161818,-37231 -206352,-45526 -64569,-12024 -192036,-37636 -248335,-34755l-66288 117581z"/>
   <path class="fil35" d="M3309005 5447491l-30669 143574c26263,-11719 41269,-25147 62361,-43688 31688,-27858 25494,-30822 51075,-58652 68406,-74410 95331,-35207 112441,-125973l-24697 -103225 -32479 27543c-37047,33851 -28173,34381 -52482,69772 -64080,93283 -46198,77453 -85550,90649z"/>
   <path class="fil36" d="M3309005 5447491c39352,-13196 21470,2634 85550,-90649 24309,-35391 15435,-35921 52482,-69772l32479 -27543 1459 -158850c-41688,16773 -22828,1407 -69366,65709 -66593,92011 -61765,14728 -102604,281105z"/>
   <path class="fil37" d="M5513793 4659075c19511,-22291 6776,18194 22281,-39848l21345 -305729 -85738 27654 42112 317923z"/>
   <path class="fil38" d="M1422535 7563688l23106 -61078c-60770,-95578 -60149,-78143 -106181,-127481 -35605,-38164 -15716,-45290 -86531,-98369l-11875 -8620c-36077,-22960 -5976,-3099 -9900,-4198 22177,36628 29747,37519 51775,69751l69956 88986c86593,110288 83491,60447 69650,141009z"/>
   <path class="fil39" d="M10817060 6032719c22434,10714 13494,7095 34136,22645 35199,26520 2915,15359 45792,22783l-15837 -12249 -2049 -36579c-34534,-18527 -32607,-26746 -53193,-51789l-8849 55189z"/>
   <path class="fil40" d="M3612948 9151171c-17462,-34173 -42142,-37799 -89425,-26309l89425 26309z"/>
   <path class="fil41" d="M1332080 8788343l7033 31321c26510,-32083 23692,-23695 44978,-67286l-52011 35965z"/>
  </g>
 </g>
</svg>
