<?xml version="1.0" encoding="iso-8859-1"?>
<!-- Generator: Adobe Illustrator 19.0.0, SVG Export Plug-In . SVG Version: 6.00 Build 0)  -->
<svg version="1.1" id="Layer_1" xmlns="http://www.w3.org/2000/svg" xmlns:xlink="http://www.w3.org/1999/xlink" x="0px" y="0px"
	 viewBox="-657.9 445.5 286.931 352.2" enable-background="new -657.9 445.5 286.931 352.2" xml:space="preserve">
<g id="Layer_x0020_1">
	<g id="_495441626944">
		<g>
			<path fill="#151616" d="M-589.3,574.4c0.4,0.8,6.5,4.6,7.5,5.1c-0.6-1.5-3.6-5-4.9-7.3c0.3-0.3,0.3-0.2,0.7-0.5
				c-0.3-0.4,0.5-0.8-0.9,0.1c-0.4,0.3-0.5,0.6-0.9,0.9c-1.2,1-1.3,1-2.3,1.1L-589.3,574.4z"/>
			<path fill="#151616" d="M-618.4,601.9c0.7,0.6,1-0.2,1.5,0.9c0.6-0.2,0.5-0.1,1.1-0.5l-1.5-4.4c-0.3,0.6-0.3,1.4-0.6,2.1
				C-618.4,601-618.5,600.5-618.4,601.9z"/>
		</g>
		<g>
			<path fill="#B2799E" d="M-631.2,640.8l-8.3-6.6c-1.1-0.9-1.4-0.5-3.6-0.6c1,2.3,3.3,3.2,5.6,4.2
				C-635.4,638.7-633.2,640.1-631.2,640.8z"/>
			<path fill="#B2799E" d="M-613.6,675.7c0.8-0.4,1.2-0.6,1.6-1.1c0.8-0.7,0.6-0.6,1.5-1l-0.2-2.1L-613.6,675.7z"/>
		</g>
		<g>
			<path fill="#B7B7B8" d="M-579.6,667.5c2.7-0.3,1.6-0.4,3.3-1.1l1,8c0.5-0.9,2.7-13.8,2.7-15.3c-0.8,1.5-1.8,3.5-2.6,5.2
				c-0.7,1.5-0.5,1.2-1.9,1.9C-578,666.5-579,666.9-579.6,667.5z"/>
			<path fill="#B7B7B8" d="M-588.5,667.5l-4.2,1.2c-0.3,0.2-0.4,0.2-0.5,0.3c2.6,0,10-1.6,11.5-1.1l-0.3-2.4L-588.5,667.5z"/>
		</g>
		<g>
			<path fill="#B1779D" d="M-635.8,672.4c2.5,0.1,5,0,7.4,0.1c3.6,0.1,3.3-0.1,6-1.6c1.6-0.9,3.3-1.7,4.9-2.7
				c1.4-0.9,3.9-1.6,5.4-2.2C-614.1,666.2-635.1,671.9-635.8,672.4z"/>
			<path fill="#B1779D" d="M-620.1,691.4l8-4.8c2.5-1.5,1.7-0.9,2.9-3.4c0.7-1.4,1.7-3,2.1-4.5c-2.2,1.4-1,1.1-3.2,3.2l-6.7,6.3
				c-0.6,0.6-1.1,1-1.7,1.6C-619.9,690.9-619.2,690.8-620.1,691.4z"/>
			<path fill="#B1779D" d="M-626.9,651.7c2.8,1,4.8,2.2,8,2.5c2.8,0.3,6.8,1.1,9.4,1.2c-1.3-0.6-10.3-4-12-4.1l-5.3,0.3
				C-626.8,651.6-626.8,651.6-626.9,651.7z"/>
		</g>
		<g>
			<path fill="#FEFDFF" d="M-600.3,637.3l-10.3,0.5l-3.6,0.4l4.2,7.3l6.5-0.7h0.9l2.1-0.6c2.9-0.4,14.1-2.2,15.2-2.8
				c-1.1-0.9-2.7-2.8-3.9-3.1c-1.9-0.6-4.5-0.4-6-1.2L-600.3,637.3z"/>
			<path fill="#FEFDFF" d="M-579.6,667.5c-1.1,0.1-1.5,0.8-2.1,0.5c-1.5-0.5-8.9,1.1-11.5,1.1c-1.4,0-5.3,1-6.2,1.7
				c0.8,0.4,2.4,1.7,3.2,2.3c1.1,0.9,2.4,1.5,3.3,2.6l17.6-1.3l-1-8C-578.1,667.1-576.9,667.2-579.6,667.5z"/>
		</g>
		<g>
			<path fill="#2B6400" d="M-629.1,628.7c-0.4,0.9-0.4,0.7-0.9,1.4l0.2,1l11.7-2.9c0.4,1.9,2.5,2.7-1.3,4.8l0.9,4.1
				c6.8,1.6,3.5,0.6,8,0.8l10.3-0.5c-0.5-0.8-9.1-4.3-11.2-5.4c-1.3-0.7-1.5-1.8-1.6-4.2c0.6-0.4,2.2-2.8,2.3-3c0.2-0.6,0-3.4,0-3.5
				c-0.3-1.3,0.2-0.8-0.8-0.9l-11.4,1.3c-1.5,0.4-5.7,7.4-5.9,7C-629,628.5-629.1,628.6-629.1,628.7z"/>
			<path fill="#2B6400" d="M-596.9,683.1c-0.6,0.9,11.9,3.6,12.7,5c0.3,0.5,1,4.3,1.2,5.1c1.4,5.7,0.4,4.4,5.7,6.5
				c2.9,1.1,6,2.7,8.9,3.7c-0.6-0.7-1.3-1.7-1.9-2.3c-0.6-0.6-0.6-0.4-1.1-0.9c-1.6-1.4-2.3-4.6-3.3-6.9c-0.6-1.5-1.2-1.4-0.4-2.8
				c0.4-0.8,1.2-1.7,1.7-2.4l3.6-4.6l-8,0.3l-1.8-2L-596.9,683.1z"/>
			<path fill="#2B6400" d="M-616.4,581.2c-0.2,0.7,0,0.8-0.1,1.5l-0.1,0.8c-0.2,0.9,0.1,0.4-0.5,1c-0.3,0.6-6.7,4.6-7.7,5.5v1.1
				l1.4,9.4l3.9,1.5c-0.5-1.3-1.1-8.6-1.1-10.5l4.3-3.9c2.3-2.5,1.1-1,2.8-2.6c0.8-0.7,0.7-1,1.6-1.7c0.6-0.5,1.5-1.1,2-1.6
				c0.8-0.9,0.1-0.5,1.6-1.7c1-0.8,1.4-0.9,1.9-1.8c-1.6,0.6-9.1,5.2-10.1,6.1L-616.4,581.2z"/>
		</g>
		<g>
			<path fill="#296200" d="M-449.4,527.2c0.7-0.9,1.1-0.6,2.1-2.7c1.6-3.1,4.6-24,5.4-28.3c-1.5,0-3.5,1.2-5,1.8
				c-1.6,0.6-3.3,1.3-4.9,2c-0.6,1.8-2.1,13.9-2.6,17c-0.4,2.5-0.6,5.7-1.8,8c-0.8,1.5-4.7,2.8-6.5,3.3c-1-2.3-3-19.9-4.1-22.4
				l-8.9,3.5l9.4,55.9c1.4-0.3,3.3-1.2,4.7-1.8c0.7-0.3,1.5-0.6,2.2-0.9l2.2-1c-0.6-3.2-4.3-23.6-4.2-25.1c2.2-1.1,6.3-3.2,7.8-1.1
				c2.3,3.2,10.6,19.2,11.8,20.2c1.7-0.5,3.5-1.4,5.2-2l4.6-1.8c0.5-0.3,0.2-0.1,0.5-0.3l-12.1-19.6c-1.4-2.4-2.3-3.7-4.9-4.4
				L-449.4,527.2z"/>
			<path fill="#296200" d="M-542,536l-0.4,6.4c-0.3,1.2-0.1,0.4-0.5,0.8c0.7,2.3,2.4,13.6,3,17.1c1,5.7,1.9,11.3,2.9,17
				c0.9,5.2,1.2,12.7,7.2,12.7c3,0,18.6-6.2,21.7-8.4c1.7-1.1,3.2-3,3.8-6.1c0.7-3.7-1.3-13.4-2.1-17.4c-0.7-3.5-5.5-33.4-5.9-33.9
				c-0.5-0.2-7.5,2.9-8.9,3.3c0.5,6.5,8.1,44,7.4,46.4c-0.4,1.3-1.2,1.4-2.7,2c-1.1,0.4-2.1,0.8-3.1,1.2c-1.8,0.7-4.9,2.4-6.8,2.2
				c-1.3-1.7-1.2-3.1-1.6-5.3l-3-17.4c-1.2-7.8-2.6-15.6-4-23.4C-535.6,533.2-541.4,535.5-542,536z"/>
			<path fill="#296200" d="M-496.4,577.5l28.2-11.1l-1.6-8.7c-1.1,0.5-2.8,1.4-4.5,2.1c-1.6,0.6-3.1,1.2-4.8,1.9
				c-3.1,1.2-6.5,2.8-9.6,3.8l-8.2-47.5l-8.9,3.5L-496.4,577.5z"/>
			<path fill="#296200" d="M-547.9,597.9l7.1-2.6l-4.5-25.7C-545,571.5-547.4,596.8-547.9,597.9z"/>
		</g>
		<g>
			<path fill="#245400" d="M-543.2,686.9c0.6,0.7,0.9,1.4,1.4,2.2c1.3,2,0.5,1.5,1.4,1.9c1.1,0.5,4,1,5.3,1.3
				c2.7,0.6,8.7,1.8,10.7,2.7l10.4,2.6l-9.3,20.8l-7.6,17.2c0.9-0.6,8.9-10.7,10.2-12.4c0.3-0.4,0.7-0.9,1-1.2l20.9-25.7
				c-0.9-1.2-2.5-3-3.7-3.8c-1.4-0.9-5.7-5.9-7.1-7.5l-1.9-1.7c-0.7-0.5-1.2-1.2-1.8-1.8l21.9-61.8c-0.5,0.3-0.8,0.4-1.2,0.7
				c-0.8,0.6-0.4,0.4-1,1.1c-0.7,0.8-1.4,1-2.1,1.7c-0.9,0.9-0.1,0.5-2,1.9c-0.4,0.3-0.7,0.5-1,0.8c-1.9,2-1.9,1.5-3,2.9l-4.1,3.6
				c-0.9,0.6-1.2,1.2-2,2.1l-12.2,19c-1,1.5-2,3.3-3,4.7c-2.2,3.2-5.2,4.9-8.4,7.2l-4.6,3.4c-3.3,2.4-4.3,4.7-6.9,8.6
				C-547,683.8-545.9,681.5-543.2,686.9z"/>
			<path fill="#245400" d="M-616.4,580.7c0.9-1,3-6.7,3.9-8.7c0.5-1.2,0.1-0.5,0.9-1.1l8.5-6l-3.4-11.3c0,0-0.1,0-0.1,0.1l-0.3,0.3
				l-0.1,0.1l-3,5.2C-615.9,569.8-617.5,568.6-616.4,580.7z"/>
			<path fill="#245400" d="M-636.2,585.1c0.7-0.9,2.3-10.2,2.6-11.2c0.3-1.6,1.2-1.7,3.4-3.2l3.5-2.4c0.7-0.4-0.1-0.1,0.8-0.4
				c-1.1-1.6-3.8-7.2-4.5-7.8c-0.7,1.7-1.8,3.6-2.6,5.2c-1,1.8-1.7,3.4-2.6,5.3c-1.6,3-0.9,3.4-0.8,6.9
				C-636.4,580-636.2,582.6-636.2,585.1z"/>
		</g>
		<g>
			<path fill="#468616" d="M-387,755.4c0.4-0.7-0.1-2.4-0.4-3.8c-2.8-13.2-5.5-28.4-8.1-41.9c-0.6-3.1-2.9-12.7-2.8-15.1l4.5,0.8
				c0.2-0.6-3.8-58.3-4.4-64c-1-10.4,0.9-6.2-4.4-13c-0.4-0.5-0.7-0.8-1-1.3c-0.4-0.5-0.6-0.6-0.9-1.1c-0.6-0.9-1.2-1.6-1.9-2.4
				c-0.6-0.7-1.3-1.6-1.9-2.4c-0.4-0.5-0.5-0.7-0.9-1.2c-0.3-0.4-0.6-0.6-0.9-1.1l-11.6-14.4c-0.7-0.9-1.3-1.5-1.9-2.4
				c-0.7-0.8-1.3-1.4-1.8-2.4l-2.9-1.2c-1.2,2.8-5.8,20.1-7.4,24.8c-1.5,4.6-1.5,3.9-0.1,8.4c3.4,10.9,7,22.3,10.1,33.1
				c-2.2-1.4-4.3-4.9-6-5.9l13.9,33.9c3.2,7.7,7.5,17.8,10.4,25.6l2.8,7.6c0.6,0.7-0.1,0.1,0.2,0.1l0.1-0.1
				c4.7,10.5,9.5,25.3,14.9,34.5C-388.7,751.9-387.3,754.2-387,755.4z"/>
			<path fill="#468616" d="M-467.8,635.9l-0.5,1.8c-0.1,0.6-0.1,1.2-0.2,1.8c-0.1,1.3-0.3,2.6-0.4,3.9c-0.4,3.5-2.7,21.8-2.4,22.5
				l19.5,13.4c1.2,0.7,1.5,1.4,2.3,2.5l28.8,37.4c0.5,0.7,0.5,0.8,1,1.3l19.5,25.2c-4.3-9.1-9.1-18.3-13.7-27.7
				c-2.2-4.5-40.9-81.8-41.4-83.4L-467.8,635.9z"/>
		</g>
		<g>
			<path fill="#47A800" d="M-531.3,739l16.8,2.7l119,18.5c-0.3-0.7-0.2-0.4-0.5-0.8l-19.8-25.6c-0.6-0.7-0.6-0.9-1.2-1.6
				c-0.4-0.5-0.8-1-1.2-1.6l-2.3-3c-0.4-0.4-0.8-1-1.3-1.5l-19.3-24.9c-0.6-0.7-0.6-0.9-1.2-1.6c-0.3-0.4-0.8-1-1.3-1.5l-4.8-6.2
				c-0.4-0.6-0.7-1-1.2-1.6s-0.8-1.1-1.2-1.6l-2.5-3.2c-0.4-0.6-0.7-0.9-1.1-1.4s-0.7-1.1-1.2-1.6c-0.9-1-9.3-4.9-10.9-5.7
				l-14.8-7.3c0.7-5.6,12.7-54.2,12.5-55.4c-0.1-0.8-3-2.8-3.8-3.5c-0.6-0.5-0.6-0.7-1.3-1.2c-0.6,2.7-1.4,5-2,8l-10.1,57.3
				l24.2,10.7l-8.8,6.8c-7.8,5.8-13.4,10.3-20.7,16.1l-35.1,28C-529.8,739-529.9,737.8-531.3,739z"/>
			<path fill="#47A800" d="M-574.7,678.1c4.2-2.6,3.3-2.2,4-5.9c0.3-1.7,1-7,1.6-8c1.2,3.7,0.9,5.5,0.3,9.2c-0.4,2.4,0,2.1-2.2,3.2
				C-572.3,677.1-573.5,677.8-574.7,678.1z M-611.7,620.3c1,0.1,0.5-0.5,0.8,0.9c0,0.1,0.3,2.9,0,3.5c-0.1,0.3-1.7,2.6-2.3,3
				c0.1,2.4,0.4,3.5,1.6,4.2c2.1,1.1,10.7,4.6,11.2,5.4l5-0.2l10.8-0.6c1-0.2,1.5-0.2,1.9,0.5c0.7,0.6,0.9,0.6,1.7,1.3
				c0.6,0.5,1.1,0.8,1.7,1.4c1.2,1,2.3,1.6,3.3,2.7c2.2,1.3,5.8,5.1,8.4,5.9l-5.1,10.8c0,1.5-2.2,14.4-2.7,15.3l-17.6,1.3
				c-0.9,0.4-0.8,0.8-1.1,1.6c-0.3,0.7-0.6,1.2-0.9,1.9c-0.7,1.4-1.4,2.6-2,4l17.3-1.2l1.8,2l8-0.3l-3.6,4.6
				c-0.5,0.7-1.2,1.6-1.7,2.4c-0.8,1.4-0.2,1.3,0.4,2.8c1,2.3,1.7,5.5,3.3,6.9c0.5,0.5,0.6,0.3,1.1,0.9c0.6,0.6,1.3,1.6,1.9,2.3
				c1.2,0.6,2.2,0.9,3.4,1.4c1.8,0.8,1.7,0.3,3.5-0.5l9.9-4.9c1.8-0.8,1.3-1.3,1.8-3.3c0.6-2.7,1.3-5.4,1.8-8.1
				c0.8-3.4,2.2-5.9,3-8.8c-0.5-0.5,0-0.5-0.5,0.2l-2.4,5.5c0.1-2.1,0.2-10.6,1.2-12l19.8-31.7c0.6-0.9,1.1-1.7,1.5-2.6l-0.2-0.3
				c-0.8-1.2,0.5,0.7-0.2-0.3l-5.8-7.5c-2.6-3.6-2.4-2.3-3.5-6.4c-0.5-1.6-1.3-4.6-1.9-6l-10.6,5l-6.4,7.7c0.3,0.4,0.3-0.1,0.1,0.6
				c-0.2,1,0.1-0.1-0.2,0.4c0,0-0.3,0.4-0.4,0.4c-0.2,0.3-0.1,0.2-0.3,0.5c-0.7,0.8-0.3,0.2-0.9,0.8l-3.9,4.3
				c-0.3,0.4-0.4,0.7-0.8,1l-4.7,5.3c-1,0.8,0,0.3-1,0.6l0.4,0.8c-0.9-0.5-7-6.7-8.3-7.9c-1.8-1.8-6.3-6-7.8-8.1l-13.4,2.1
				c-0.7-1.4-6.8-7.1-8.3-8.6c-5.1-5.1-5-3.8-3.9-7.1c0.3-1,0.7-2.2,1-3.1c-0.9-0.1-4.9-1.3-5.6-1.9c-0.9,0.7-0.5-0.7-0.5,1.3
				C-612.5,613.1-611.6,617.7-611.7,620.3z"/>
			<path fill="#47A800" d="M-547.9,597.9c0.5-1.1,2.9-26.4,2.6-28.3l-5-30.4l-9.1,3.7l3.8,22.5l-13.6,5.4l-3.8-22.5
				c-2.5,0.5-6.8,3.1-9.1,3.4l9.6,56.1l8.8-3.5c0.3-2.1-3.8-20.7-4.1-25.3l13.6-5.3l4.4,25.1L-547.9,597.9z"/>
			<path fill="#47A800" d="M-636.2,585.1c0.1,1.9,0,7,0.5,8.3c-0.1-1.5,0.1-7.1,0.4-8.4c0.5-1.8,2-5.9,2.5-6.6c0,3-1,12.1,0.3,14.1
				l6.1,9.1c0.3-1.1-0.9-2.5-1.5-3.7c-0.7-1.2-1.4-2.6-2-3.8c0.7-0.6,4-2,5.1-2.2V591v-1.1c1-0.9,7.4-4.9,7.7-5.5
				c-0.2-1.4-3.5-6.8-4.4-8.5c-1.4-2.8-3.1-5.4-4.5-8.2c-0.9,0.4-0.1,0-0.8,0.4l-3.5,2.4c-2.2,1.5-3.1,1.6-3.4,3.2
				C-633.8,574.9-635.5,584.1-636.2,585.1z"/>
			<path fill="#47A800" d="M-481.1,760.9l-52-15.3c-1,0.2-0.2,0.2,0.9,0.8l5.1,2.3c10.2,4.3,22.8,10.8,33.2,15.3
				c1.7,0.8,1.7,1.2,3.7,0.7c1.3-0.3,2.6-0.7,3.9-1c1.6-0.4,6.6-1.3,7.6-2L-481.1,760.9z"/>
			<path fill="#47A800" d="M-387,607.8c0.3,0.4,0.5,0.7,0.9,1.2c0.6,0.8-0.1,0.3,0.8,0.9l-4.6-18.6c-0.4-1-7.8-6.6-9.2-7.7
				l-13.2-10.3L-387,607.8z"/>
			<path fill="#47A800" d="M-616.4,580.7v0.5v3c1-0.9,8.5-5.5,10.1-6.1c2.8-1.9,2.3-2.3,4.7-4.1c0.4-0.3,0.8-0.6,1.1-0.9
				c0.5-0.5,0.5-0.7,1.1-1.2c0.8-0.8,1.7-1.2,2.5-2l-4.8-3.5c-1.2-0.8-0.6-0.4-1.2-1.4l-8.5,6c-0.8,0.6-0.4-0.1-0.9,1.1
				C-613.4,574.1-615.5,579.8-616.4,580.7z"/>
		</g>
		<g>
			<path fill="#1A1A1A" d="M-490.4,480.1c-1-2.5-2.3-4.8-3.4-7.3c-0.4-0.9-2.9-6.3-3.4-6.9l-7.2-8.1c-0.5-0.6-0.5-0.9-1.1-1.4
				c-0.7-0.7-0.8-0.5-1.1-1.4l35.5,15.1c2.7,1.1,3.3,1.8,6.4,1.9c2.3,0.1,6.1,0,8.1,0.3l5.7,13.4c0.3,1.4,0,4.5,0.1,6.2
				c-3.6,0.8-7.1,1.8-10.7,2.7c-3.5,0.9-14,6.7-18.6,8.2c-3.3,1.1-6.6,2.3-9.8,3.5c-13,4.8-26.4,9.4-39.6,14
				c-13.3,4.6-26.3,9.4-39.6,14.1l-14.9,5.3c-3.2,1.2-3.3,0.6-4.1,2.5c-2,4.3-4.9,10-5.6,14.5c-0.3,1.7-0.4,4.3-0.9,5.7
				c-0.7-0.6-8-13-9.2-14.8c-0.5-0.7-0.8-1-0.8-1.7c0-0.6,3.9-9.2,4.5-11.3l-8.6,10.5c-0.3,0.4-0.3,0.3-0.6,0.7l-9.1,11.1
				c-0.6,0.7-0.7,0.9-1.3,1.5c-0.6,0.6-0.6,1-1.3,1.4c-0.4-0.4-0.4-0.5-0.8-0.9l-9.6-10.8c-0.4-0.5-1.2-1.2-1.7-1.5
				c-0.2,0.8-1.5,2.7-2.2,3.1c-0.7-2.5-1.2-5.1-1.8-7.7c-0.4-1.7-1.9-6.4-1.2-7.5l3.4-3.8c1.5-1.4,1.3-1.7,2.1-2.5l9-9.9
				c0.4-0.4,0.8-0.9,1.2-1.1l20.2-3.1l-9-16.7c1.5-0.6,28-5.3,30.7-5.9c2.6-0.5,5.1-0.9,7.7-1.4c2.2-0.5,1.8-0.6,3.5,0.4l14.4,8.2
				c-1.6-6.2-3.1-12.4-4.8-18.6c-0.4-1.5-0.8-3.1-1.2-4.7c-0.5-2.3-1.1-1.8-3.2-2.6c-1.4-0.6-2.9-1.1-4.3-1.6
				c-1.3-0.5-3.2-1-4.1-1.7l55.8-0.6c3.4-0.1,3.3,0.3,6,1.5C-504,473.6-497.3,477.2-490.4,480.1z M-515.7,457.3
				c0.9,0.4,4.2,3.4,4.9,4.2c2,2.7,3.4,2.6,5.7,5.6l3.5,3.1c0.4,0.4,0.9,0.7,1.2,1.1c1.1,1.2,0.1,0.6,2.2,2.3l1.1,1.2
				c-2.4-1-13.7-7.3-17.3-9.2c-6.2-3.2-4.4-3.1-9.8-2.8l-36.6,2.6c-7.9,0.6-16.5,1.5-24.4,1.8c0.4,0.5,8.4,4.9,10.1,5.8
				c0.7,0.4,1.1,0.6,1.7,0.9l1.6,1.1c-1.3,0-5.5,0.1-6.4-0.1l-26.3-16.7c0.3,1.2,4.1,6.4,5,7.6l5.2,7.8c0.8,1.2,1.8,1.7,3.6,2.8
				c1.3,0.8,2.7,1.8,4,2.6c1.2,0.8,7.4,4.6,7.8,5.2l-57.7,11.7l0.8,0.4c0.3,0.1,0.5,0.1,0.8,0.2c0.5,0.1,1.1,0.2,1.6,0.4
				c1.6,0.4,9,2.2,10.1,2.9c1-0.1,2.9,0.5,4,1l0.4,2.9l-17.8-3c-0.8,0.8-19,9.2-21.2,10.1c1.1,0.2,5.4-1.2,7-1.6
				c4.1-1,3-0.8,6.6,0.9c2,1,4,1.9,6,2.9c1.9,0.9,4.3,2.4,6.1,3c-0.3,0.9-2.1,2.9-2.7,3.6L-646,534c-1.8,2.2-1.5,1.9-1,4.5l3,16.1
				c0.4,2.5,1,2.6,0,5.1l-10.6,27.9c1-0.5,3.7-3.9,4.7-5c0.7-0.8,1.1-0.8,1.8-1.5l4.4-5c1.8-2.1,2.2-0.6,4.1-5.6
				c0.6-1.5,1.2-3.1,1.7-4.6c1.1-2.9,2.3-6.5,3.5-9.3c1.9-0.2,2.2,0.1,2.8,0.9c0.4,0.5,1.1,2,1.2,2.5c0.6,0.6,3.4,6.2,4.5,7.8
				c1.4,2.8,3,5.4,4.5,8.2c0.9,1.7,4.2,7.1,4.4,8.5c0.6-0.6,0.3-0.1,0.5-1l0.1-0.8c0-0.7-0.1-0.8,0.1-1.5v-0.5
				c-1.1-12.1,0.5-10.9,6.5-21.5l3-5.2l0.1-0.1l0.3-0.3c0-0.1,0.1-0.1,0.1-0.1l3.4,11.3c0.6,1.1,0,0.6,1.2,1.4l4.8,3.5
				c-0.8,0.8-1.7,1.3-2.5,2c-0.6,0.5-0.5,0.7-1.1,1.2c-0.3,0.3-0.7,0.6-1.1,0.9c-2.4,1.8-1.9,2.3-4.7,4.1c-0.5,0.9-0.9,1.1-1.9,1.8
				c-1.5,1.1-0.8,0.8-1.6,1.7c-0.5,0.5-1.4,1.1-2,1.6c-0.9,0.7-0.9,1-1.6,1.7c-1.7,1.6-0.5,0.1-2.8,2.6l-4.3,3.9
				c0.1,1.9,0.7,9.2,1.1,10.5v-0.1l1,0.1c0-1.4,0.1-0.9,0.5-1.9c0.3-0.7,0.3-1.5,0.6-2.1c-0.2-0.7,0.4-2.8,0.4-4
				c1.3-0.5,8.1-6.1,9.1-6.4l13.5-9.8c1.2-0.9,3.7-3,5-3.3l-0.8-0.6c1,0,1.1-0.1,2.3-1.1c0.4-0.3,0.6-0.7,0.9-0.9
				c1.4-0.9,0.6-0.5,0.9-0.1c0.3-0.3,0.9-0.7,1.4-1.1c0.9-0.7,1-0.5,1.6-1.3l0.3-0.3c0,0,0.1-0.1,0.1-0.2c0-0.1,0.1-0.1,0.1-0.2
				l-1.7-10.5c-1.3-0.9,0.7,1.4-0.8-0.3c-0.4,1.9-0.9,1.1-2.3,2.6c-0.5,0.6-0.4,0.6-1.1,1.2c-0.4,0.4-0.8,0.7-1.3,0.9l0.6-3
				c0.9-5.6,0.8-3.9,2.1-5.9c1-1.3,0.6-1,1.4-1.4c0.3-0.8,1.9-2.7,3.1-3.3l50.7-20c6.1-2.4,12.5-4.8,18.5-7.3
				c12.2-5.1,24.8-9.7,37-14.6c6.1-2.5,12.3-4.9,18.5-7.3c3.1-1.2,6.2-2.5,9.3-3.7c2.6-1,3.6-1,4.2-2.2c0.4-0.9,1.8-4,2-4.3l3.7-5.5
				c1.7-2.3-1.5-6.1-1.9-12c-0.9,0.5-1.3,0.9-2.1,1.5c-1,0.8-4.1,3.5-5.1,4c-1.6-2.6-5-13.7-7-14.7l-14.9-6.5
				c-1.8-0.8-8.8-4.2-10.1-4.2l9.5,12.7c0.7,0.9,0.9,0.8,1.3,1.8l-58.7-20.9l2.7,2.5c1.1,0.9,2.3,1.7,3.1,2.8
				c0.7,0.9,0.6,0.8,1.3,1.5C-518.3,454.4-516.6,455.5-515.7,457.3z"/>
			<path fill="#1A1A1A" d="M-430.7,557.2l-123.8,45.5c0.2,1,0.4,1-0.1,1.7c0.8,0,1.5,5.2,1.8,6.7c0.8,3.6,0.4,3.7-0.3,7.1
				c-0.8,4.7-2,9.6-2.6,14.3c1.4-0.7,0.6-1,1.6-1.7l6.4-7.7c0.4-1,6.5-7.9,7.8-9.8c1-1.4,1.4-1.5,2.6-3.2c0.7,0.6,1.1,2.1,1.5,2.9
				l2.7,6.3c0.8,2,0.7,1.4,2.2,2.4l10.8,7.2c-0.2-2.1-8.4-18.9-7.6-20.3c0.3-2.3,3.9-10.5,5-13.9c0.6-1.9,0.2-1,1.9-2
				c1.1-0.7,3.6-2.3,4.8-2.7c0.2,0.2,0.4,0.4,0.6,0.6c0.6,0.6,0.3,0.1,0.5,0.7c0.9,0.4,1.4,1.2,2.1,1.8c0.7,0.7,1.2,1.2,1.9,1.9
				c0.9,0.9,3.3,2.9,3.7,3.9c0.5-0.1,3.1,2.8,3.6,3.3c0.9,0.9,3.3,2.8,3.5,4.1c0.6,4.2,0.6,9.9,0.9,14.3l4.3-5.1
				c0.5-0.5,0.3-0.2,0.7-0.8c0.3-0.4,0.2-0.4,0.5-0.7l4.4-5.3c2.2-3,8.2-9.6,10.1-12.3c-1.3,0.9-2.6,1.9-3.6,3.2
				c-1,1.2-2.3,2-3.5,3.1c-1.1,1-0.7,1-3.4,3.2c-1.4,1.1-1,1.5-3.5,3.2c-1.4-0.8-6.1-6.4-7.9-7.7c0.3-1.2,2.1-4.2,2.9-5.4
				c-0.7-1.4-3.9-5.2-4.4-6.4l74.1-29l-2.2,11v0.8l0.3,0.3l8.5,13.2c-0.1-1.8-0.6-3.9-0.4-5.7c-0.6-1.5-1.1-10.3-1.4-12.7
				c-0.4-4.2-0.8-8.4-1.1-12.6L-430.7,557.2z"/>
			<path fill="#1A1A1A" d="M-463.3,603.8c0.9,2.4,1.1-1.6,1,5.2c0,2-0.1,4.1-0.1,6.1c-0.1,3.8-0.2,7.8-0.1,11.6
				c0.8-0.9,1.1-1.7,1.7-2.6c3.8-5.4,9-14.7,13-20.6c0.6,0.5,0.3-0.7,0.2,0.5c0.7-0.6,0.9-1.7,1.2-2.6c0.4-1,0.9-1.6,1.4-2.4
				c0.8-1.4,2-3.5,3.1-4.8l2.1,2.8l2.1,3.7c1-1,1.5-6.4,1.7-7.7c0.5-2.6,0.9-5.2,1.4-7.8c-3.7-0.4-3.9-2.3-5.7,0.1
				c-0.4,0.5-0.9,1.1-1.3,1.5l-2.5,3.1c-0.3,0.4-0.3,0.3-0.6,0.7c-4.9,5.8-4.4,6.3-8.1,13.3l-2.1,3.8L-463.3,603.8z"/>
		</g>
		<g>
			<path fill="#23101B" d="M-455.4,634.7c0.5,1.6,39.2,79,41.4,83.4c4.6,9.4,9.5,18.5,13.7,27.7l-19.5-25.2c-0.4-0.6-0.4-0.7-1-1.3
				l-28.8-37.4c-0.8-1.1-1.1-1.8-2.3-2.5l-19.4-13.3c-0.3-0.7,2-19,2.4-22.5c0.1-1.3,0.3-2.6,0.4-3.9c0.1-0.6,0.1-1.2,0.2-1.8
				l0.5-1.8L-455.4,634.7z M-434.7,585.2c-0.5,2.6-0.9,5.2-1.4,7.8c-0.2,1.3-0.8,6.7-1.7,7.7l-2.1-3.7c-0.1,2.7-2.5,10.7-3.3,13.8
				c-2,7.9-1.7,4.5,1.1,13.3c2.8,8.5,6.1,16.8,9,25.2c2.9,8.4,6,16.8,9,25.2c2.9,8.1,6.3,16.9,8.8,24.9c-1.4-1.7-2.3-2.7-3.3-5.1
				l-18-42c-3-6.9-7.7-17.3-10.3-23.9l-5.1-12c-0.2-1.3,4.1-10,4.3-12.5c0.2-1.2,0.4,0-0.2-0.5c-4,5.9-9.2,15.2-13,20.6
				c-0.7,1-1,1.7-1.7,2.6c-0.1-3.8,0.1-7.8,0.1-11.6c0-2,0.1-4.1,0.1-6.1c0.1-6.8,0-2.8-1-5.2l-5.7-6.1c-0.7-0.9-0.9-0.8-1.6-1.5
				c-0.5-0.6-0.8-1.2-1.3-1.7c-0.7-0.8-2-1.6-2.7-3.2c-1.2,0.7-1.6,1.5-2.7,2.8l-2.1,2.5c-1.9,2.7-7.9,9.3-10.1,12.3l-4.4,5.3
				c-0.3,0.4-0.3,0.4-0.5,0.7c-0.4,0.6-0.2,0.3-0.7,0.8l-4.3,5.1c-0.3-4.4-0.3-10.1-0.9-14.3c-0.2-1.3-2.6-3.2-3.5-4.1
				c-0.5-0.5-3.1-3.4-3.6-3.3c-0.5,2.1-0.7,4.3-1.1,6.4c-0.6,3.3,0.3,3.2-2.5,4.6c-1.7,0.8-8.6,4-9.5,4.9l11,1.8
				c0.5,1.1,1.1,3.8,1.4,5c1.1,4.7-2.6,9.6-4.7,13.4c-0.7,1.4-1.5,2.8-2.3,4.1c-1.3,2-7.3,8.9-9.4,11.5l-11.5,14
				c-0.3,0.4-0.3,0.5-0.6,0.9l-2.9,3.5c-1.6,2-2.9,3.2-3.8,5.7c-0.5,1.4-1,3.2-1.7,4.4c-0.8,3-2.2,5.4-3,8.8l4.9-1.1
				c-2.6-5.4-3.8-3.1,0.6-9.6c2.7-4,3.6-6.3,6.9-8.6l4.6-3.4c3.2-2.3,6.2-4,8.4-7.2c1-1.4,2-3.2,3-4.7l12.2-19
				c0.8-0.9,1.2-1.5,2-2.1l4.1-3.6c1.1-1.3,1.1-0.9,3-2.9c0.3-0.3,0.6-0.5,1-0.8c1.9-1.4,1.1-1,2-1.9c0.7-0.7,1.5-1,2.1-1.7
				c0.6-0.7,0.2-0.5,1-1.1c0.4-0.3,0.7-0.4,1.2-0.7c1-1.7,2.3-2,3.6-3.5l7.3-6.5c0.4-0.4,0.4-0.6,0.8-1c0.7-0.7,1.8-1.2,2.7-2.2
				c0.5,0.5,1.2,0.8,1.7,1.3c0.8,0.7,0.5,0.7,1.5,1.3c0.6,0.5,0.7,0.7,1.3,1.2c0.8,0.7,3.6,2.7,3.8,3.5c0.2,1.2-11.8,49.8-12.5,55.4
				l14.8,7.3c1.6,0.8,10,4.7,10.9,5.7c0.5,0.6,0.8,1.1,1.2,1.6s0.7,0.8,1.1,1.4l2.5,3.2c0.4,0.5,0.7,1,1.2,1.6
				c0.5,0.6,0.8,1,1.2,1.6l4.8,6.2c0.4,0.5,0.9,1.1,1.3,1.5c0.6,0.7,0.6,0.9,1.2,1.6l19.3,24.9c0.4,0.5,0.9,1.1,1.3,1.5l2.3,3
				c0.4,0.6,0.9,1.1,1.2,1.6c0.6,0.7,0.6,0.9,1.2,1.6l19.3,25.9c0.4,0.5,0.2,0.1,0.5,0.8l-119-18.5c1.2,1.2,3.9,1.2,5.1,2.5
				c1.4,0,16.9,6.7,19.7,7.8c3.3,1.3,6.5,2.6,9.8,4c2.6,1.1,7.6,3.4,10,3.9c0.5,0.5,20.8,8.5,23.4,9.6c3.5,1.4,3,1.4,7,0.9l15-1.5
				c1.5-0.2,2.3-0.5,3.4,0.2l27,18.7c0.9,0.6,1.5,1,2.4,1.6l12.3,8.4l2-24.5c-0.5-1.3-1.6-3.3-2.4-4.6c-0.9-1.4-1.6-3.1-2.4-4.5
				c-1.7-2.9-3.2-6-5-8.7c-0.4-1.2-1.8-3.5-2.5-4.7c-5.4-9.2-10.2-24-14.9-34.5c-0.1,0-0.1,0.1-0.1,0.1c-0.3-0.1,0.4,0.6-0.2-0.1
				l-2.8-7.6c-2.9-7.8-7.2-17.9-10.4-25.6l-13.9-33.9c1.7,1,3.8,4.5,6,5.9c-3.1-10.8-6.7-22.3-10.1-33.1c-1.4-4.5-1.4-3.8,0.1-8.4
				c1.6-4.7,6.2-22,7.4-24.8l2.9,1.2l5.7,2.2l2-7.8l-3.5-2.9c-0.7-0.8-0.2-0.5-1.2-0.9c-0.3,1.8,0.3,3.9,0.4,5.7l-8.5-13.2
				c-0.9-0.2-0.2,0.1-1-0.5c-0.4-0.3-0.2-0.2-0.7-0.5L-434.7,585.2L-434.7,585.2z"/>
			<path fill="#23101B" d="M-545.2,569.6l4.5,25.7l-7.1,2.6l-1.8,0.8l-4.4-25.1l-13.6,5.3c0.3,4.7,4.4,23.3,4.1,25.3l-8.8,3.5
				l-9.6-56.1c2.3-0.2,6.6-2.9,9.1-3.4l3.8,22.4l13.6-5.4l-3.8-22.5l9.1-3.7L-545.2,569.6z M-542.9,543.2l-0.9-6.6l1.8-0.6
				c0.6-0.5,6.4-2.8,7.1-2.8c1.4,7.8,2.8,15.6,4,23.4l3,17.4c0.4,2.2,0.3,3.6,1.6,5.3c1.9,0.2,5-1.5,6.8-2.2
				c1.1-0.4,2.1-0.8,3.1-1.2c1.5-0.6,2.2-0.6,2.7-2c0.7-2.4-6.9-39.9-7.4-46.4c1.4-0.4,8.5-3.5,8.9-3.3c0.5,0.5,5.2,30.4,5.9,33.9
				c0.8,4.1,2.8,13.7,2.1,17.4c-0.6,3.1-2.2,4.9-3.8,6.1c-3.1,2.1-18.8,8.4-21.7,8.4c-5.9,0-6.3-7.5-7.2-12.7
				c-1-5.7-1.9-11.3-2.9-17C-540.5,556.8-542.2,545.5-542.9,543.2z M-505.8,521.5l8.9-3.5l8.2,47.5c3.1-1,6.5-2.6,9.6-3.8
				c1.6-0.6,3.1-1.2,4.8-1.9c1.7-0.7,3.4-1.6,4.5-2.1l1.6,8.7l-28.2,11.1L-505.8,521.5z M-449.4,527.2l1,0.3c2.5,0.6,3.4,2,4.9,4.4
				l12.1,19.6c-0.4,0.3,0,0.1-0.5,0.3l-4.6,1.8c-1.7,0.7-3.5,1.5-5.2,2c-1.2-1.1-9.5-17.1-11.8-20.2c-1.5-2.1-5.5,0-7.8,1.1
				c-0.1,1.5,3.6,21.9,4.2,25.1l-2.2,1c-0.7,0.3-1.5,0.6-2.2,0.9c-1.4,0.6-3.3,1.5-4.7,1.8l-9.4-55.9l8.9-3.5
				c1.1,2.5,3.1,20.1,4.1,22.4c1.8-0.5,5.7-1.9,6.5-3.3c1.2-2.3,1.4-5.4,1.8-8c0.5-3.1,2-15.2,2.6-17c1.6-0.7,3.3-1.3,4.9-2
				c1.6-0.6,3.5-1.8,5-1.8c-0.9,4.3-3.8,25.1-5.4,28.3C-448.3,526.6-448.7,526.3-449.4,527.2z M-585.3,552.4v3.3l0.5,2.2
				c1.5,1.6-0.5-0.6,0.8,0.3l1.7,10.5c0.6-0.2,0.4-0.1,0.8-0.4c0.8,5,1.6,9.8,2.3,14.8c0.4,2.3,2.6,13.5,1.4,14.4l2.1,12
				c0.3,1.4,0.9,2.1,1.7,3.1l19.4-8.2c0.5-0.7,0.3-0.7,0.1-1.7l123.8-45.5c-0.4-6.3-0.7-12.4-1.1-18.7c-0.6-10.2-0.3-5.1-5.5-14.1
				c-0.9-1.5-2.2-14.4-2.5-17.2c-0.3-2.5-2.3-16.3-2.1-17.5c-0.2,0.3-1.6,3.5-2,4.3c-0.6,1.2-1.5,1.2-4.2,2.2
				c-3.1,1.2-6.2,2.5-9.3,3.7c-6.2,2.4-12.4,4.8-18.5,7.3c-12.2,4.9-24.8,9.5-37,14.6c-6,2.5-12.4,4.9-18.5,7.3l-50.7,20
				C-583.5,549.8-585,551.7-585.3,552.4z"/>
			<path fill="#23101B" d="M-376,758.7c0.7-7.4,1.2-14.7,1.8-22.1l3.2-38.5c0.2-2-0.6-2.9-1.3-4.6c-2.3-5.3-4.7-11.3-7.2-16.4
				c-0.6,1.6-3.6,16.6-4.4,19.8c-1.2,5.4-1.6,5.5-0.8,10.3c2.9,17.2,6,34.7,8.6,51.8L-376,758.7z"/>
			<polygon fill="#23101B" points="-523.3,718.4 -514,697.6 -524.4,695 			"/>
			<path fill="#23101B" d="M-527.8,608.5l5.1,1.9l7.7-19.1c-0.2-0.6,0.1-0.1-0.5-0.7c-0.2-0.2-0.4-0.4-0.6-0.6
				c-1.1,0.4-3.6,2-4.8,2.7c-1.6,1-1.2,0.1-1.9,2C-523.9,598-527.5,606.2-527.8,608.5z"/>
		</g>
		<g>
			<path fill="#262626" d="M-490.4,480.1c-6.9-3-13.7-6.6-20.4-9.7c-2.7-1.3-2.6-1.6-6-1.5l-55.8,0.6c0.9,0.7,2.8,1.3,4.1,1.7
				c1.4,0.5,2.9,1,4.3,1.6c2.1,0.8,2.7,0.3,3.2,2.6c0.4,1.6,0.7,3.2,1.2,4.7c1.7,6.2,3.2,12.4,4.8,18.6l-14.4-8.2
				c-1.7-1-1.3-0.9-3.5-0.4c-2.6,0.5-5.1,0.9-7.7,1.4c-2.7,0.6-29.2,5.3-30.7,5.9l9,16.7l-20.2,3.1c-0.4,0.2-0.8,0.7-1.2,1.1l-9,9.9
				c-0.8,0.7-0.6,1.1-2.1,2.5l-3.4,3.8c-0.6,1.1,0.9,5.8,1.2,7.5c0.6,2.6,1.1,5.2,1.8,7.7c0.7-0.4,2-2.4,2.2-3.1
				c0.5,0.3,1.4,1.1,1.7,1.5l9.6,10.8c0.4,0.4,0.4,0.5,0.8,0.9c0.7-0.4,0.7-0.7,1.3-1.4c0.6-0.6,0.7-0.9,1.3-1.5l9.1-11.1
				c0.3-0.4,0.3-0.3,0.6-0.7l8.6-10.5c-0.6,2.1-4.5,10.7-4.5,11.3c0,0.8,0.3,1,0.8,1.7c1.1,1.7,8.5,14.1,9.2,14.8
				c0.5-1.4,0.7-4,0.9-5.7c0.7-4.5,3.7-10.2,5.6-14.5c0.8-1.9,0.9-1.3,4.1-2.5l14.9-5.3c13.3-4.7,26.3-9.4,39.6-14.1
				c13.2-4.6,26.6-9.2,39.6-14c3.2-1.2,6.5-2.4,9.8-3.5c4.6-1.5,15.1-7.3,18.6-8.2c3.6-0.9,7.1-1.9,10.7-2.7c0-1.7,0.2-4.8-0.1-6.2
				l-5.8-13.4c-2-0.3-5.8-0.2-8.1-0.3c-3.1-0.1-3.8-0.8-6.4-1.9l-35.5-15.1c0.4,1,0.4,0.7,1.1,1.4c0.6,0.5,0.6,0.8,1.1,1.4l7.2,8.1
				c0.4,0.5,2.9,5.9,3.4,6.9C-492.7,475.3-491.4,477.7-490.4,480.1z"/>
			<path fill="#262626" d="M-479.3,596.5l2.1-2.5c1.1-1.3,1.5-2.1,2.7-2.8c0.7,1.6,2,2.4,2.7,3.2c0.5,0.5,0.8,1.2,1.3,1.7
				c0.7,0.7,0.9,0.6,1.6,1.5l5.7,6.1l8.2,4l2.1-3.8c3.7-7.1,3.2-7.5,8.1-13.3c0.3-0.4,0.3-0.3,0.6-0.7l2.5-3.1
				c0.4-0.5,0.9-1,1.3-1.5c1.8-2.4,2-0.5,5.7-0.1l2.5-13.3l0.2-1.2c0.4,0.5,0.4,0.7,1.1,1.1l2.2-11l-74.1,29
				c0.5,1.3,3.6,5.1,4.4,6.4c-0.7,1.2-2.5,4.2-2.9,5.4c1.8,1.2,6.5,6.8,7.9,7.7c2.5-1.7,2.1-2.1,3.5-3.2c2.7-2.2,2.3-2.2,3.4-3.2
				c1.2-1.1,2.6-1.9,3.5-3.1C-481.9,598.4-480.7,597.4-479.3,596.5z"/>
		</g>
		<path fill="#305C0E" d="M-417.7,584.2l-2,7.8l-5.7-2.2c0.5,1,1.1,1.6,1.8,2.4c0.7,0.9,1.3,1.5,1.9,2.4l11.6,14.4
			c0.4,0.5,0.6,0.7,0.9,1.1c0.4,0.5,0.4,0.6,0.9,1.2c0.6,0.8,1.4,1.7,1.9,2.4c0.7,0.9,1.3,1.5,1.9,2.4c0.4,0.5,0.5,0.6,0.9,1.1
			s0.6,0.8,1,1.3c5.3,6.8,3.4,2.6,4.4,13c0.5,5.6,4.6,63.3,4.4,64l-4.5-0.8c-0.1,2.4,2.2,12,2.8,15.1c2.6,13.5,5.3,28.7,8.1,41.9
			c0.3,1.4,0.8,3,0.4,3.8c1.8,2.8,3.3,5.8,5,8.7c0.8,1.4,1.5,3,2.4,4.5c0.8,1.3,1.9,3.3,2.4,4.6c1.2,1.1,3.4,6.2,4.6,7.9
			c-0.3-3.3-1.2-7.6-1.8-11c-0.4-2.2-1.9-9.5-1.7-11.3l-0.1,0.2c-2.6-17-5.8-34.6-8.6-51.8c-0.8-4.8-0.4-4.8,0.8-10.3
			c0.7-3.2,3.7-18.1,4.4-19.8c0.1-2.3,1.5-7.3,2-9.8c0.7-3.3,1.4-6.7,2.1-9.9c0.7-2.8,4.3-18,3.9-19.6c-0.6-0.1-0.1,0.1-0.7-0.7
			l-19-24.7c-5.2-6.6-13.6-17.3-18.3-23.8l-5.6-7.2c-0.4-0.6-0.7-1.1-1.3-1.6C-417.2,580.7-417.3,582.9-417.7,584.2z"/>
		<path fill="#6CD200" d="M-491.4,619.7l-21.9,61.8c0.7,0.6,1.1,1.2,1.8,1.8l1.9,1.7c1.4,1.6,5.7,6.5,7.1,7.5
			c1.2,0.8,2.8,2.6,3.7,3.8l-20.9,25.7c-0.3,0.4-0.7,0.9-1,1.2c-1.3,1.7-9.3,11.8-10.2,12.4l-1.5,3.2l1.2,0.2
			c1.3-1.2,1.4,0.1,4.9-2.7l35.2-28.3c7.3-5.8,12.9-10.3,20.7-16.1l8.8-6.8l-24.2-10.7l10.1-57.3c0.5-2.9,1.4-5.2,2-8
			c-1.1-0.7-0.7-0.6-1.5-1.3c-0.5-0.5-1.1-0.8-1.7-1.3c-0.9,1-2.1,1.6-2.7,2.2c-0.4,0.4-0.4,0.5-0.8,1l-7.3,6.5
			C-489.1,617.7-490.4,618-491.4,619.7z"/>
		<path fill="#6ACF00" d="M-606.4,612.8c-0.3,0.9-0.7,2-1,3.1c-1.1,3.3-1.2,2,3.9,7.1c1.5,1.5,7.6,7.2,8.3,8.6l16.1-4.8
			c1.3,1.5,2.2,3,3.4,4.6c2.5,3.3,7.3,10.7,9.6,13.3c1-0.2,0,0.2,1-0.6l4.7-5.3c0.3-0.4,0.4-0.7,0.8-1l3.9-4.3
			c0.7-0.6,0.3,0,0.9-0.8c0.2-0.2,0.1-0.2,0.3-0.5c0-0.1,0.3-0.4,0.4-0.4c0.4-0.5,0.1,0.5,0.2-0.4c0.1-0.7,0.1-0.2-0.1-0.6
			c-1,0.7-0.2,1-1.6,1.7c0.7-4.7,1.8-9.6,2.6-14.3c0.6-3.5,1-3.5,0.3-7.1c-0.3-1.5-1-6.6-1.8-6.7l-19.4,8.2c-0.9-1-1.5-1.7-1.7-3.1
			l-2.1-12l-0.1-0.6l-0.5,0.5c-0.1,0.1-0.2,0.3-0.2,0.3l-12.7,20.2L-606.4,612.8z"/>
		<path fill="#317400" d="M-527.8,608.5c-0.7,1.3,7.4,18.2,7.6,20.3l-10.8-7.2c-1.5-1-1.5-0.4-2.2-2.4l-2.7-6.3
			c-0.4-0.8-0.8-2.3-1.5-2.9c-1.2,1.8-1.5,1.8-2.6,3.2c-1.3,1.9-7.5,8.8-7.8,9.8l10.6-5c0.7,1.3,1.5,4.3,1.9,6
			c1.2,4.1,1,2.8,3.5,6.4l5.8,7.5c0.7,1-0.6-0.9,0.2,0.3l0.2,0.3c-0.4,0.9-0.9,1.7-1.5,2.6l-19.8,31.7c-1,1.4-1.1,9.9-1.2,12
			l2.4-5.5c0.5-0.7,0-0.8,0.5-0.2c0.7-1.2,1.2-3,1.7-4.4c0.9-2.4,2.1-3.7,3.8-5.7l2.9-3.5c0.3-0.4,0.4-0.5,0.6-0.9l11.5-14
			c2.1-2.7,8.1-9.5,9.4-11.5c0.8-1.2,1.6-2.7,2.3-4.1c2.1-3.8,5.8-8.7,4.7-13.4c-0.3-1.2-0.9-3.9-1.4-5l-11-1.8
			c1-0.9,7.9-4.1,9.5-4.9c2.8-1.4,1.9-1.3,2.5-4.6c0.4-2.1,0.6-4.3,1.1-6.4c-0.4-1-2.8-3-3.7-3.9c-0.7-0.7-1.2-1.2-1.9-1.9
			c-0.7-0.7-1.1-1.4-2.1-1.8l-7.7,19.1L-527.8,608.5z"/>
		<path fill="#69C921" d="M-447.7,604c-0.2,2.5-4.6,11.1-4.3,12.5l5.1,12c2.6,6.6,7.3,17,10.3,23.9l18,42c1.1,2.4,2,3.5,3.3,5.1
			c-2.5-8-5.9-16.8-8.8-24.9c-3-8.4-6.1-16.8-9-25.2c-2.9-8.4-6.2-16.8-9-25.2c-2.9-8.8-3.2-5.3-1.1-13.3c0.8-3.1,3.1-11.1,3.3-13.8
			l-2.1-2.8c-1,1.3-2.3,3.4-3.1,4.8c-0.5,0.8-1,1.5-1.4,2.4C-446.9,602.3-447.1,603.4-447.7,604z"/>
		<path fill="#0B040A" d="M-581.3,665.9l-0.2-1.1l-6.8,2c-0.3-1.5,0.5-2.4,1.1-3.6c0.7-1.6,0.5-1.7,2-2.6c1.8-1,4.2-2.4,6.1-3.2
			c1.1-0.8,7.2-3.8,8.9-4.8c-0.9,2.6-2.8,5.7-4.1,8.3c-1.6,3.4-0.9,4.3-6.7,6L-581.3,665.9z M-602.7,644.7h-0.9
			c0.3,0.7,2.9,1.6,3.7,2c1.6,0.5,3.8,1.2,4.5,2.6c0.7,1.5,1.5,3.2,2.1,4.8c1.5,3.5,2.9,5.8,3.8,9.7l1,3.7l6.5-1.9l0.3,2.4
			c0.7,0.4,1-0.3,2.1-0.5c0.6-0.6,1.7-1,2.5-1.4c1.4-0.6,1.3-0.4,1.9-1.9c0.7-1.6,1.7-3.7,2.6-5.2l5.1-10.8
			c-2.6-0.8-6.2-4.6-8.4-5.9L-602.7,644.7z"/>
		<path fill="#3E9200" d="M-626.3,601.6c0.3,1.7-1.9,10.7-2.4,13.1c-0.4,1.8-1.3,5-1.2,6.7c0.2,2.3,0.6,4.8,0.8,7.2
			c0.1,0,0.1-0.2,0.1-0.1c0.2,0.4,4.4-6.6,5.9-7l11.4-1.3c0.1-2.6-0.8-7.2-0.8-8.1c0-2-0.4-0.6,0.5-1.3c0-0.5,0.1-0.3-0.5-0.2
			c-1.5-0.1-4.9-1.5-6.6-2l0.5-6.3c-1.3-0.2-0.2,0.1-0.7-0.5v0.1l-3.9-1.5l-1.4-9.4v0.9c-1.1,0.2-4.4,1.6-5.1,2.2
			c0.6,1.1,1.3,2.6,2,3.8C-627.2,599.1-625.9,600.5-626.3,601.6z"/>
		<path fill="#56A800" d="M-605.1,608.1l-1.3,4.7l15.1,5.1l12.7-20.2c0-0.1,0.2-0.3,0.2-0.3l0.5-0.5l-1-5c-0.9-0.3-6.1,1.3-6.9,1.7
			c-0.8,0.4-5.4,6.3-6.2,7.4l-5.9,7.1H-605.1z"/>
		<path fill="#112900" d="M-608.1,593.1l1.4-2.5c1.2-0.1,3.8,0.5,5.2,0.7c0.9,0.2,4.6,0.5,4.3,1c-0.4,1-3.7,6-4.6,6.9
			c-0.6,0.7-0.8,0.6-1.9,0.8c-0.9,0.2-1.7,0.3-2.6,0.5c-1.6,0.3-3.3,0.7-4.9,0.9l-0.9-1.2C-611,598-609.4,595.2-608.1,593.1z
			 M-607.8,587.5c-1,0.3-7.8,5.9-9.1,6.4c-0.1,1.2-0.6,3.3-0.4,4l1.5,4.4c1.3,0.2,0.6,0.5,2.3,0.5l9-0.2c1-0.1,0.6,0.1,1.6-0.8
			l3.8-3.1c0.8-0.6,0.8-0.9,1.6-1.5c0.9-0.7,0.8-0.5,1.7-1.4l10.2-8.1c0.6-0.5,1.2-0.9,1.7-1.4l-4.6-7.3l-3.5,3.2
			c-3.8,2.9-7,1.4-10.9,2.9C-604.8,585.7-606.1,587.4-607.8,587.5z"/>
		<path fill="#235100" d="M-586,571.7c-0.4,0.3-0.4,0.3-0.7,0.5c1.2,2.4,4.2,5.8,4.9,7.3c-1-0.6-7.1-4.4-7.5-5.1
			c-1.3,0.3-3.8,2.4-5,3.3l-13.5,9.8c1.7-0.1,3-1.8,4.6-2.4c3.9-1.5,7.1,0,10.9-2.9l3.5-3.2l4.6,7.3c-0.5,0.5-1,0.9-1.7,1.4
			l-10.2,8.1c-0.9,0.9-0.8,0.7-1.7,1.4c-0.8,0.6-0.7,0.9-1.6,1.5l-3.8,3.1c-0.9,0.8-0.6,0.7-1.6,0.8l-9,0.2c-1.7,0-1-0.3-2.3-0.5
			c-0.6,0.3-0.5,0.3-1.1,0.5c0.4,0.4,0,0.1,0.7,0.5c2.2,1.2,4.5,1.8,7,1.9c3.3,0.1,6.6,0.6,9.8,0.7c0.6-1.3,0.3-2.7,0.8-3.8
			c0.2-0.6,11.8-9.3,12.7-9.7l5.1-1.6c0.9-0.3,1.1-0.4,1.8-0.2c-0.2-3-1.4-7.8-1.9-11c-0.3-1.8-0.7-3.6-1-5.4
			c-0.1-0.4-0.2-0.9-0.2-1.3v-1.1c0-0.1,0-0.1,0-0.2c0.1-0.8,0.1-1.6-0.6-2.3c-0.6,0.9-0.7,0.7-1.6,1.3
			C-585,571-585.6,571.4-586,571.7z"/>
		<path fill="#317500" d="M-617,602.8c-0.5-1-0.8-0.3-1.5-0.9l-1-0.1c0.5,0.6-0.6,0.3,0.7,0.5l-0.5,6.3c1.8,0.6,5.1,1.9,6.6,2
			l-0.4-2.6l7.8,0.1l7.2-0.1l5.9-7.1c0.8-1.1,5.4-6.9,6.2-7.4c0.7-0.4,5.9-2,6.9-1.7l-0.2-1.3c-0.7-0.2-0.9-0.1-1.8,0.2l-4.9,1.6
			c-0.9,0.4-12.5,9.1-12.7,9.7c-0.5,1.1-0.2,2.5-0.8,3.8c-3.2-0.1-6.5-0.5-9.8-0.7c-2.5-0.1-4.8-0.7-7-1.9
			C-616.9,602.9-616.6,603.2-617,602.8z"/>
		<path fill="#79E400" d="M-635.6,593.4c0.6,0.8,1.1,1.4,1.7,2.2c0.5,0.7,1,1.3,1.6,2c0.1,0-0.5-0.4,0.2,0.1l0.2,0.2
			c1.5,1.1,1.1,1.3,1.8,2.1c1,1,0.9,0.7,2.2,2.7l-0.5,1.3c-1,3.6-1.7,8.6-2.4,12.4c-0.5,2.8-0.9,3.4-0.4,6.4
			c0.3,2.2,0.7,4.5,0.9,6.7l1.1-0.8c-0.2-2.4-0.6-4.9-0.8-7.2c-0.1-1.7,0.8-4.8,1.2-6.7c0.5-2.4,2.7-11.4,2.4-13.1l-6.1-9.1
			c-1.3-2-0.3-11.1-0.3-14.1c-0.5,0.6-2,4.8-2.5,6.6C-635.5,586.2-635.7,591.9-635.6,593.4z"/>
		<path fill="#ECECEC" d="M-608.1,593.1c-1.3,2.1-2.9,4.9-4,7.2l0.9,1.2c1.6-0.2,3.3-0.6,4.9-0.9c0.9-0.2,1.7-0.4,2.6-0.5
			c1.1-0.2,1.3-0.1,1.9-0.8c0.8-1,4.1-5.9,4.6-6.9c-1.9,0.1-3.9,0.1-5.8,0.1c-0.8,0-2-0.1-2.8,0C-606.9,592.6-607,592.9-608.1,593.1
			z"/>
		<path fill="#787778" d="M-595.3,637.1c1.6,0.8,4.1,0.7,6,1.2c1.1,0.3,2.8,2.2,3.9,3.1c-1.1,0.6-12.3,2.3-15.2,2.8l-2.1,0.6
			l26.9-2.4c-0.9-1.1-2.1-1.7-3.3-2.7c-0.6-0.5-1.1-0.9-1.7-1.4c-0.8-0.6-1-0.7-1.7-1.3l-1.9-0.5L-595.3,637.1z"/>
		<path fill="#122D00" d="M-595.2,631.6l13.4-2.1c1.4,2.2,5.9,6.4,7.8,8.1c1.3,1.2,7.4,7.5,8.3,7.9l-0.4-0.8
			c-2.3-2.6-7.1-10-9.6-13.3c-1.2-1.6-2.1-3.1-3.4-4.6L-595.2,631.6z"/>
		<path fill="#A920F0" d="M-581.3,665.9l3.7-5.3c0.4-0.6,0.8-1.4,1.1-1.8c-0.6-0.7-1.8-1.3-2.7-1.3c-1.9,0.8-4.2,2.1-6.1,3.2
			c-1.5,0.8-1.3,1-2,2.6c-0.6,1.3-1.5,2.2-1.1,3.6l6.8-2L-581.3,665.9z"/>
		<path fill="#7B17B0" d="M-579.1,657.5c0.8,0,2.1,0.6,2.7,1.3c-0.3,0.4-0.7,1.2-1.1,1.8l-3.7,5.3l0.3,1.1c5.8-1.7,5-2.6,6.7-6
			c1.3-2.6,3.1-5.8,4.1-8.3C-571.9,653.6-578,656.6-579.1,657.5z"/>
		<path fill="#1A0C16" d="M-582.4,568.6c0,0.1-0.1,0.1-0.1,0.2s-0.1,0.1-0.1,0.2l-0.3,0.3c0.8,0.7,0.7,1.4,0.6,2.3
			c0,0.1,0,0.1,0,0.2v1.1c0.1,0.4,0.2,0.9,0.2,1.3c0.3,1.8,0.7,3.6,1,5.4c0.6,3.1,1.7,7.9,1.9,11l0.2,1.3l1,5l0.1,0.6
			c1.2-0.9-1.1-12.1-1.4-14.4c-0.8-5-1.5-9.8-2.3-14.8C-582,568.5-581.8,568.5-582.4,568.6z"/>
		<path fill="#3A8A00" d="M-612.6,610.6c0.6,0,0.5-0.2,0.5,0.2c0.7,0.6,4.7,1.9,5.6,1.9l1.3-4.7l-7.8-0.1L-612.6,610.6z"/>
		<path fill="#173701" d="M-574.7,678.1c1.2-0.3,2.5-1,3.7-1.6c2.2-1,1.9-0.8,2.2-3.2c0.6-3.7,0.8-5.5-0.3-9.2
			c-0.6,1.1-1.3,6.3-1.6,8C-571.4,676-570.5,675.5-574.7,678.1z"/>
		<path fill="#41B200" d="M-589.5,663.8c-0.9-3.9-2.3-6.2-3.8-9.7c-0.7-1.6-1.4-3.2-2.1-4.8c-0.6-1.4-2.9-2.1-4.5-2.6
			c2.2,3,2.1-0.5,5.9,7.8C-593.2,656.4-590.4,662.7-589.5,663.8z"/>
		<path fill="#686768" d="M-608.1,593.1c1.1-0.2,1.3-0.6,2.3-0.7c0.7-0.1,2,0,2.8,0c1.9,0,3.9,0.1,5.8-0.1c0.3-0.4-3.4-0.8-4.3-1
			c-1.3-0.3-4-0.8-5.2-0.7L-608.1,593.1z"/>
		<path fill="#2B6500" d="M-588.9,559.7l-0.6,3c0.5-0.2,0.9-0.5,1.3-0.9c0.7-0.6,0.5-0.6,1.1-1.2c1.4-1.6,2-0.7,2.3-2.6l-0.5-2.2
			l-0.7,0.5c-0.8,0.7-0.6,0.7-1.1,1.5C-588.5,559.7-588.1,559.4-588.9,559.7z"/>
		<path fill="#245500" d="M-588.9,559.7c0.8-0.3,0.4,0.1,1.8-1.9c0.5-0.7,0.3-0.7,1.1-1.5l0.7-0.6v-3.3c-0.9,0.4-0.5,0-1.4,1.4
			C-588.2,555.7-588.1,554.1-588.9,559.7z"/>
		<path fill="#49AC00" d="M-542.9,543.2c0.4-0.5,0.1,0.4,0.5-0.8l0.4-6.4l-1.8,0.6L-542.9,543.2z"/>
		<path fill="#43AD00" d="M-628.3,603.9l0.5-1.3c-1.3-2-1.3-1.6-2.2-2.7c-0.7-0.8-0.3-0.9-1.8-2.1l-0.2-0.2
			c-0.8-0.5-0.1-0.1-0.2-0.1c0.5,0.8,0.6,0.8,1.1,1.5l1.5,1.9C-627.9,603.2-628,602.2-628.3,603.9z"/>
		<path fill="#9E4981" d="M-432.2,571.9c0.5,0.2,0.3,0.1,0.7,0.5c0.7,0.6,0.1,0.3,1,0.5l-0.3-0.3v-0.8c-0.7-0.4-0.7-0.6-1.1-1.1
			L-432.2,571.9z"/>
		<path fill="#141915" d="M-582.6,637c-0.4-0.7-0.9-0.8-1.9-0.5L-582.6,637z"/>
		<path fill="#49A602" d="M-630.2,629.4l0.1,0.7c0.6-0.7,0.5-0.5,0.9-1.4L-630.2,629.4z"/>
	</g>
	<g id="_495797554544">
		<g>
			<path fill="#151616" d="M-589.3,574.4c0.4,0.8,6.5,4.6,7.5,5.1c-0.6-1.5-3.6-5-4.9-7.3c0.3-0.3,0.3-0.2,0.7-0.5
				c-0.3-0.4,0.5-0.8-0.9,0.1c-0.4,0.3-0.5,0.6-0.9,0.9c-1.2,1-1.3,1-2.3,1.1L-589.3,574.4z"/>
			<path fill="#151616" d="M-618.4,601.9c0.7,0.6,1-0.2,1.5,0.9c0.6-0.2,0.5-0.1,1.1-0.5l-1.5-4.4c-0.3,0.6-0.3,1.4-0.6,2.1
				C-618.4,601-618.5,600.5-618.4,601.9z"/>
		</g>
		<g>
			<path fill="#B2799E" d="M-631.2,640.8l-8.3-6.6c-1.1-0.9-1.4-0.5-3.6-0.6c1,2.3,3.3,3.2,5.6,4.2
				C-635.4,638.7-633.2,640.1-631.2,640.8z"/>
			<path fill="#B2799E" d="M-613.6,675.7c0.8-0.4,1.2-0.6,1.6-1.1c0.8-0.7,0.6-0.6,1.5-1l-0.2-2.1L-613.6,675.7z"/>
		</g>
		<g>
			<path fill="#B7B7B8" d="M-579.6,667.5c2.7-0.3,1.6-0.4,3.3-1.1l1,8c0.5-0.9,2.7-13.8,2.7-15.3c-0.8,1.5-1.8,3.5-2.6,5.2
				c-0.7,1.5-0.5,1.2-1.9,1.9C-578,666.5-579,666.9-579.6,667.5z"/>
			<path fill="#B7B7B8" d="M-588.5,667.5l-4.2,1.2c-0.3,0.2-0.4,0.2-0.5,0.3c2.6,0,10-1.6,11.5-1.1l-0.3-2.4L-588.5,667.5z"/>
		</g>
		<g>
			<path fill="#B1779D" d="M-635.8,672.4c2.5,0.1,5,0,7.4,0.1c3.6,0.1,3.3-0.1,6-1.6c1.6-0.9,3.3-1.7,4.9-2.7
				c1.4-0.9,3.9-1.6,5.4-2.2C-614.1,666.2-635.1,671.9-635.8,672.4z"/>
			<path fill="#B1779D" d="M-620.1,691.4l8-4.8c2.5-1.5,1.7-0.9,2.9-3.4c0.7-1.4,1.7-3,2.1-4.5c-2.2,1.4-1,1.1-3.2,3.2l-6.7,6.3
				c-0.6,0.6-1.1,1-1.7,1.6C-619.9,690.9-619.2,690.8-620.1,691.4z"/>
			<path fill="#B1779D" d="M-626.9,651.7c2.8,1,4.8,2.2,8,2.5c2.8,0.3,6.8,1.1,9.4,1.2c-1.3-0.6-10.3-4-12-4.1l-5.3,0.3
				C-626.8,651.6-626.8,651.6-626.9,651.7z"/>
		</g>
		<g>
			<path fill="#FEFDFF" d="M-600.3,637.3l-10.3,0.5l-3.6,0.4l4.2,7.3l6.5-0.7h0.9l2.1-0.6c2.9-0.4,14.1-2.2,15.2-2.8
				c-1.1-0.9-2.7-2.8-3.9-3.1c-1.9-0.6-4.5-0.4-6-1.2L-600.3,637.3z"/>
			<path fill="#FEFDFF" d="M-579.6,667.5c-1.1,0.1-1.5,0.8-2.1,0.5c-1.5-0.5-8.9,1.1-11.5,1.1c-1.4,0-5.3,1-6.2,1.7
				c0.8,0.4,2.4,1.7,3.2,2.3c1.1,0.9,2.4,1.5,3.3,2.6l17.6-1.3l-1-8C-578.1,667.1-576.9,667.2-579.6,667.5z"/>
		</g>
		<g>
			<path fill="#2B6400" d="M-629.1,628.7c-0.4,0.9-0.4,0.7-0.9,1.4l0.2,1l11.7-2.9c0.4,1.9,2.5,2.7-1.3,4.8l0.9,4.1
				c6.8,1.6,3.5,0.6,8,0.8l10.3-0.5c-0.5-0.8-9.1-4.3-11.2-5.4c-1.3-0.7-1.5-1.8-1.6-4.2c0.6-0.4,2.2-2.8,2.3-3c0.2-0.6,0-3.4,0-3.5
				c-0.3-1.3,0.2-0.8-0.8-0.9l-11.4,1.3c-1.5,0.4-5.7,7.4-5.9,7C-629,628.5-629.1,628.6-629.1,628.7z"/>
			<path fill="#2B6400" d="M-596.9,683.1c-0.6,0.9,11.9,3.6,12.7,5c0.3,0.5,1,4.3,1.2,5.1c1.4,5.7,0.4,4.4,5.7,6.5
				c2.9,1.1,6,2.7,8.9,3.7c-0.6-0.7-1.3-1.7-1.9-2.3c-0.6-0.6-0.6-0.4-1.1-0.9c-1.6-1.4-2.3-4.6-3.3-6.9c-0.6-1.5-1.2-1.4-0.4-2.8
				c0.4-0.8,1.2-1.7,1.7-2.4l3.6-4.6l-8,0.3l-1.8-2L-596.9,683.1z"/>
			<path fill="#2B6400" d="M-616.4,581.2c-0.2,0.7,0,0.8-0.1,1.5l-0.1,0.8c-0.2,0.9,0.1,0.4-0.5,1c-0.3,0.6-6.7,4.6-7.7,5.5v1.1
				l1.4,9.4l3.9,1.5c-0.5-1.3-1.1-8.6-1.1-10.5l4.3-3.9c2.3-2.5,1.1-1,2.8-2.6c0.8-0.7,0.7-1,1.6-1.7c0.6-0.5,1.5-1.1,2-1.6
				c0.8-0.9,0.1-0.5,1.6-1.7c1-0.8,1.4-0.9,1.9-1.8c-1.6,0.6-9.1,5.2-10.1,6.1L-616.4,581.2z"/>
		</g>
		<g>
			<path fill="#296200" d="M-449.4,527.2c0.7-0.9,1.1-0.6,2.1-2.7c1.6-3.1,4.6-24,5.4-28.3c-1.5,0-3.5,1.2-5,1.8
				c-1.6,0.6-3.3,1.3-4.9,2c-0.6,1.8-2.1,13.9-2.6,17c-0.4,2.5-0.6,5.7-1.8,8c-0.8,1.5-4.7,2.8-6.5,3.3c-1-2.3-3-19.9-4.1-22.4
				l-8.9,3.5l9.4,55.9c1.4-0.3,3.3-1.2,4.7-1.8c0.7-0.3,1.5-0.6,2.2-0.9l2.2-1c-0.6-3.2-4.3-23.6-4.2-25.1c2.2-1.1,6.3-3.2,7.8-1.1
				c2.3,3.2,10.6,19.2,11.8,20.2c1.7-0.5,3.5-1.4,5.2-2l4.6-1.8c0.5-0.3,0.2-0.1,0.5-0.3l-12.1-19.6c-1.4-2.4-2.3-3.7-4.9-4.4
				L-449.4,527.2z"/>
			<path fill="#296200" d="M-542,536l-0.4,6.4c-0.3,1.2-0.1,0.4-0.5,0.8c0.7,2.3,2.4,13.6,3,17.1c1,5.7,1.9,11.3,2.9,17
				c0.9,5.2,1.2,12.7,7.2,12.7c3,0,18.6-6.2,21.7-8.4c1.7-1.1,3.2-3,3.8-6.1c0.7-3.7-1.3-13.4-2.1-17.4c-0.7-3.5-5.5-33.4-5.9-33.9
				c-0.5-0.2-7.5,2.9-8.9,3.3c0.5,6.5,8.1,44,7.4,46.4c-0.4,1.3-1.2,1.4-2.7,2c-1.1,0.4-2.1,0.8-3.1,1.2c-1.8,0.7-4.9,2.4-6.8,2.2
				c-1.3-1.7-1.2-3.1-1.6-5.3l-3-17.4c-1.2-7.8-2.6-15.6-4-23.4C-535.6,533.2-541.4,535.5-542,536z"/>
			<path fill="#296200" d="M-496.4,577.5l28.2-11.1l-1.6-8.7c-1.1,0.5-2.8,1.4-4.5,2.1c-1.6,0.6-3.1,1.2-4.8,1.9
				c-3.1,1.2-6.5,2.8-9.6,3.8l-8.2-47.5l-8.9,3.5L-496.4,577.5z"/>
			<path fill="#296200" d="M-547.9,597.9l7.1-2.6l-4.5-25.7C-545,571.5-547.4,596.8-547.9,597.9z"/>
		</g>
		<g>
			<path fill="#245400" d="M-543.2,686.9c0.6,0.7,0.9,1.4,1.4,2.2c1.3,2,0.5,1.5,1.4,1.9c1.1,0.5,4,1,5.3,1.3
				c2.7,0.6,8.7,1.8,10.7,2.7l10.4,2.6l-9.3,20.8l-7.6,17.2c0.9-0.6,8.9-10.7,10.2-12.4c0.3-0.4,0.7-0.9,1-1.2l20.9-25.7
				c-0.9-1.2-2.5-3-3.7-3.8c-1.4-0.9-5.7-5.9-7.1-7.5l-1.9-1.7c-0.7-0.5-1.2-1.2-1.8-1.8l21.9-61.8c-0.5,0.3-0.8,0.4-1.2,0.7
				c-0.8,0.6-0.4,0.4-1,1.1c-0.7,0.8-1.4,1-2.1,1.7c-0.9,0.9-0.1,0.5-2,1.9c-0.4,0.3-0.7,0.5-1,0.8c-1.9,2-1.9,1.5-3,2.9l-4.1,3.6
				c-0.9,0.6-1.2,1.2-2,2.1l-12.2,19c-1,1.5-2,3.3-3,4.7c-2.2,3.2-5.2,4.9-8.4,7.2l-4.6,3.4c-3.3,2.4-4.3,4.7-6.9,8.6
				C-547,683.8-545.9,681.5-543.2,686.9z"/>
			<path fill="#245400" d="M-616.4,580.7c0.9-1,3-6.7,3.9-8.7c0.5-1.2,0.1-0.5,0.9-1.1l8.5-6l-3.4-11.3c0,0-0.1,0-0.1,0.1l-0.3,0.3
				l-0.1,0.1l-3,5.2C-615.9,569.8-617.5,568.6-616.4,580.7z"/>
			<path fill="#245400" d="M-636.2,585.1c0.7-0.9,2.3-10.2,2.6-11.2c0.3-1.6,1.2-1.7,3.4-3.2l3.5-2.4c0.7-0.4-0.1-0.1,0.8-0.4
				c-1.1-1.6-3.8-7.2-4.5-7.8c-0.7,1.7-1.8,3.6-2.6,5.2c-1,1.8-1.7,3.4-2.6,5.3c-1.6,3-0.9,3.4-0.8,6.9
				C-636.4,580-636.2,582.6-636.2,585.1z"/>
		</g>
		<g>
			<path fill="#468616" d="M-387,755.4c0.4-0.7-0.1-2.4-0.4-3.8c-2.8-13.2-5.5-28.4-8.1-41.9c-0.6-3.1-2.9-12.7-2.8-15.1l4.5,0.8
				c0.2-0.6-3.8-58.3-4.4-64c-1-10.4,0.9-6.2-4.4-13c-0.4-0.5-0.7-0.8-1-1.3c-0.4-0.5-0.6-0.6-0.9-1.1c-0.6-0.9-1.2-1.6-1.9-2.4
				c-0.6-0.7-1.3-1.6-1.9-2.4c-0.4-0.5-0.5-0.7-0.9-1.2c-0.3-0.4-0.6-0.6-0.9-1.1l-11.6-14.4c-0.7-0.9-1.3-1.5-1.9-2.4
				c-0.7-0.8-1.3-1.4-1.8-2.4l-2.9-1.2c-1.2,2.8-5.8,20.1-7.4,24.8c-1.5,4.6-1.5,3.9-0.1,8.4c3.4,10.9,7,22.3,10.1,33.1
				c-2.2-1.4-4.3-4.9-6-5.9l13.9,33.9c3.2,7.7,7.5,17.8,10.4,25.6l2.8,7.6c0.6,0.7-0.1,0.1,0.2,0.1l0.1-0.1
				c4.7,10.5,9.5,25.3,14.9,34.5C-388.7,751.9-387.3,754.2-387,755.4z"/>
			<path fill="#468616" d="M-467.8,635.9l-0.5,1.8c-0.1,0.6-0.1,1.2-0.2,1.8c-0.1,1.3-0.3,2.6-0.4,3.9c-0.4,3.5-2.7,21.8-2.4,22.5
				l19.5,13.4c1.2,0.7,1.5,1.4,2.3,2.5l28.8,37.4c0.5,0.7,0.5,0.8,1,1.3l19.5,25.2c-4.3-9.1-9.1-18.3-13.7-27.7
				c-2.2-4.5-40.9-81.8-41.4-83.4L-467.8,635.9z"/>
		</g>
		<g>
			<path fill="#47A800" d="M-531.3,739l16.8,2.7l119,18.5c-0.3-0.7-0.2-0.4-0.5-0.8l-19.8-25.6c-0.6-0.7-0.6-0.9-1.2-1.6
				c-0.4-0.5-0.8-1-1.2-1.6l-2.3-3c-0.4-0.4-0.8-1-1.3-1.5l-19.3-24.9c-0.6-0.7-0.6-0.9-1.2-1.6c-0.3-0.4-0.8-1-1.3-1.5l-4.8-6.2
				c-0.4-0.6-0.7-1-1.2-1.6s-0.8-1.1-1.2-1.6l-2.5-3.2c-0.4-0.6-0.7-0.9-1.1-1.4s-0.7-1.1-1.2-1.6c-0.9-1-9.3-4.9-10.9-5.7
				l-14.8-7.3c0.7-5.6,12.7-54.2,12.5-55.4c-0.1-0.8-3-2.8-3.8-3.5c-0.6-0.5-0.6-0.7-1.3-1.2c-0.6,2.7-1.4,5-2,8l-10.1,57.3
				l24.2,10.7l-8.8,6.8c-7.8,5.8-13.4,10.3-20.7,16.1l-35.1,28C-529.8,739-529.9,737.8-531.3,739z"/>
			<path fill="#47A800" d="M-574.7,678.1c4.2-2.6,3.3-2.2,4-5.9c0.3-1.7,1-7,1.6-8c1.2,3.7,0.9,5.5,0.3,9.2c-0.4,2.4,0,2.1-2.2,3.2
				C-572.3,677.1-573.5,677.8-574.7,678.1z M-611.7,620.3c1,0.1,0.5-0.5,0.8,0.9c0,0.1,0.3,2.9,0,3.5c-0.1,0.3-1.7,2.6-2.3,3
				c0.1,2.4,0.4,3.5,1.6,4.2c2.1,1.1,10.7,4.6,11.2,5.4l5-0.2l10.8-0.6c1-0.2,1.5-0.2,1.9,0.5c0.7,0.6,0.9,0.6,1.7,1.3
				c0.6,0.5,1.1,0.8,1.7,1.4c1.2,1,2.3,1.6,3.3,2.7c2.2,1.3,5.8,5.1,8.4,5.9l-5.1,10.8c0,1.5-2.2,14.4-2.7,15.3l-17.6,1.3
				c-0.9,0.4-0.8,0.8-1.1,1.6c-0.3,0.7-0.6,1.2-0.9,1.9c-0.7,1.4-1.4,2.6-2,4l17.3-1.2l1.8,2l8-0.3l-3.6,4.6
				c-0.5,0.7-1.2,1.6-1.7,2.4c-0.8,1.4-0.2,1.3,0.4,2.8c1,2.3,1.7,5.5,3.3,6.9c0.5,0.5,0.6,0.3,1.1,0.9c0.6,0.6,1.3,1.6,1.9,2.3
				c1.2,0.6,2.2,0.9,3.4,1.4c1.8,0.8,1.7,0.3,3.5-0.5l9.9-4.9c1.8-0.8,1.3-1.3,1.8-3.3c0.6-2.7,1.3-5.4,1.8-8.1
				c0.8-3.4,2.2-5.9,3-8.8c-0.5-0.5,0-0.5-0.5,0.2l-2.4,5.5c0.1-2.1,0.2-10.6,1.2-12l19.8-31.7c0.6-0.9,1.1-1.7,1.5-2.6l-0.2-0.3
				c-0.8-1.2,0.5,0.7-0.2-0.3l-5.8-7.5c-2.6-3.6-2.4-2.3-3.5-6.4c-0.5-1.6-1.3-4.6-1.9-6l-10.6,5l-6.4,7.7c0.3,0.4,0.3-0.1,0.1,0.6
				c-0.2,1,0.1-0.1-0.2,0.4c0,0-0.3,0.4-0.4,0.4c-0.2,0.3-0.1,0.2-0.3,0.5c-0.7,0.8-0.3,0.2-0.9,0.8l-3.9,4.3
				c-0.3,0.4-0.4,0.7-0.8,1l-4.7,5.3c-1,0.8,0,0.3-1,0.6l0.4,0.8c-0.9-0.5-7-6.7-8.3-7.9c-1.8-1.8-6.3-6-7.8-8.1l-13.4,2.1
				c-0.7-1.4-6.8-7.1-8.3-8.6c-5.1-5.1-5-3.8-3.9-7.1c0.3-1,0.7-2.2,1-3.1c-0.9-0.1-4.9-1.3-5.6-1.9c-0.9,0.7-0.5-0.7-0.5,1.3
				C-612.5,613.1-611.6,617.7-611.7,620.3z"/>
			<path fill="#47A800" d="M-547.9,597.9c0.5-1.1,2.9-26.4,2.6-28.3l-5-30.4l-9.1,3.7l3.8,22.5l-13.6,5.4l-3.8-22.5
				c-2.5,0.5-6.8,3.1-9.1,3.4l9.6,56.1l8.8-3.5c0.3-2.1-3.8-20.7-4.1-25.3l13.6-5.3l4.4,25.1L-547.9,597.9z"/>
			<path fill="#47A800" d="M-636.2,585.1c0.1,1.9,0,7,0.5,8.3c-0.1-1.5,0.1-7.1,0.4-8.4c0.5-1.8,2-5.9,2.5-6.6c0,3-1,12.1,0.3,14.1
				l6.1,9.1c0.3-1.1-0.9-2.5-1.5-3.7c-0.7-1.2-1.4-2.6-2-3.8c0.7-0.6,4-2,5.1-2.2V591v-1.1c1-0.9,7.4-4.9,7.7-5.5
				c-0.2-1.4-3.5-6.8-4.4-8.5c-1.4-2.8-3.1-5.4-4.5-8.2c-0.9,0.4-0.1,0-0.8,0.4l-3.5,2.4c-2.2,1.5-3.1,1.6-3.4,3.2
				C-633.8,574.9-635.5,584.1-636.2,585.1z"/>
			<path fill="#47A800" d="M-481.1,760.9l-52-15.3c-1,0.2-0.2,0.2,0.9,0.8l5.1,2.3c10.2,4.3,22.8,10.8,33.2,15.3
				c1.7,0.8,1.7,1.2,3.7,0.7c1.3-0.3,2.6-0.7,3.9-1c1.6-0.4,6.6-1.3,7.6-2L-481.1,760.9z"/>
			<path fill="#47A800" d="M-387,607.8c0.3,0.4,0.5,0.7,0.9,1.2c0.6,0.8-0.1,0.3,0.8,0.9l-4.6-18.6c-0.4-1-7.8-6.6-9.2-7.7
				l-13.2-10.3L-387,607.8z"/>
			<path fill="#47A800" d="M-616.4,580.7v0.5v3c1-0.9,8.5-5.5,10.1-6.1c2.8-1.9,2.3-2.3,4.7-4.1c0.4-0.3,0.8-0.6,1.1-0.9
				c0.5-0.5,0.5-0.7,1.1-1.2c0.8-0.8,1.7-1.2,2.5-2l-4.8-3.5c-1.2-0.8-0.6-0.4-1.2-1.4l-8.5,6c-0.8,0.6-0.4-0.1-0.9,1.1
				C-613.4,574.1-615.5,579.8-616.4,580.7z"/>
		</g>
		<g>
			<path fill="#1A1A1A" d="M-490.4,480.1c-1-2.5-2.3-4.8-3.4-7.3c-0.4-0.9-2.9-6.3-3.4-6.9l-7.2-8.1c-0.5-0.6-0.5-0.9-1.1-1.4
				c-0.7-0.7-0.8-0.5-1.1-1.4l35.5,15.1c2.7,1.1,3.3,1.8,6.4,1.9c2.3,0.1,6.1,0,8.1,0.3l5.7,13.4c0.3,1.4,0,4.5,0.1,6.2
				c-3.6,0.8-7.1,1.8-10.7,2.7c-3.5,0.9-14,6.7-18.6,8.2c-3.3,1.1-6.6,2.3-9.8,3.5c-13,4.8-26.4,9.4-39.6,14
				c-13.3,4.6-26.3,9.4-39.6,14.1l-14.9,5.3c-3.2,1.2-3.3,0.6-4.1,2.5c-2,4.3-4.9,10-5.6,14.5c-0.3,1.7-0.4,4.3-0.9,5.7
				c-0.7-0.6-8-13-9.2-14.8c-0.5-0.7-0.8-1-0.8-1.7c0-0.6,3.9-9.2,4.5-11.3l-8.6,10.5c-0.3,0.4-0.3,0.3-0.6,0.7l-9.1,11.1
				c-0.6,0.7-0.7,0.9-1.3,1.5c-0.6,0.6-0.6,1-1.3,1.4c-0.4-0.4-0.4-0.5-0.8-0.9l-9.6-10.8c-0.4-0.5-1.2-1.2-1.7-1.5
				c-0.2,0.8-1.5,2.7-2.2,3.1c-0.7-2.5-1.2-5.1-1.8-7.7c-0.4-1.7-1.9-6.4-1.2-7.5l3.4-3.8c1.5-1.4,1.3-1.7,2.1-2.5l9-9.9
				c0.4-0.4,0.8-0.9,1.2-1.1l20.2-3.1l-9-16.7c1.5-0.6,28-5.3,30.7-5.9c2.6-0.5,5.1-0.9,7.7-1.4c2.2-0.5,1.8-0.6,3.5,0.4l14.4,8.2
				c-1.6-6.2-3.1-12.4-4.8-18.6c-0.4-1.5-0.8-3.1-1.2-4.7c-0.5-2.3-1.1-1.8-3.2-2.6c-1.4-0.6-2.9-1.1-4.3-1.6
				c-1.3-0.5-3.2-1-4.1-1.7l55.8-0.6c3.4-0.1,3.3,0.3,6,1.5C-504,473.6-497.3,477.2-490.4,480.1z M-515.7,457.3
				c0.9,0.4,4.2,3.4,4.9,4.2c2,2.7,3.4,2.6,5.7,5.6l3.5,3.1c0.4,0.4,0.9,0.7,1.2,1.1c1.1,1.2,0.1,0.6,2.2,2.3l1.1,1.2
				c-2.4-1-13.7-7.3-17.3-9.2c-6.2-3.2-4.4-3.1-9.8-2.8l-36.6,2.6c-7.9,0.6-16.5,1.5-24.4,1.8c0.4,0.5,8.4,4.9,10.1,5.8
				c0.7,0.4,1.1,0.6,1.7,0.9l1.6,1.1c-1.3,0-5.5,0.1-6.4-0.1l-26.3-16.7c0.3,1.2,4.1,6.4,5,7.6l5.2,7.8c0.8,1.2,1.8,1.7,3.6,2.8
				c1.3,0.8,2.7,1.8,4,2.6c1.2,0.8,7.4,4.6,7.8,5.2l-57.7,11.7l0.8,0.4c0.3,0.1,0.5,0.1,0.8,0.2c0.5,0.1,1.1,0.2,1.6,0.4
				c1.6,0.4,9,2.2,10.1,2.9c1-0.1,2.9,0.5,4,1l0.4,2.9l-17.8-3c-0.8,0.8-19,9.2-21.2,10.1c1.1,0.2,5.4-1.2,7-1.6
				c4.1-1,3-0.8,6.6,0.9c2,1,4,1.9,6,2.9c1.9,0.9,4.3,2.4,6.1,3c-0.3,0.9-2.1,2.9-2.7,3.6L-646,534c-1.8,2.2-1.5,1.9-1,4.5l3,16.1
				c0.4,2.5,1,2.6,0,5.1l-10.6,27.9c1-0.5,3.7-3.9,4.7-5c0.7-0.8,1.1-0.8,1.8-1.5l4.4-5c1.8-2.1,2.2-0.6,4.1-5.6
				c0.6-1.5,1.2-3.1,1.7-4.6c1.1-2.9,2.3-6.5,3.5-9.3c1.9-0.2,2.2,0.1,2.8,0.9c0.4,0.5,1.1,2,1.2,2.5c0.6,0.6,3.4,6.2,4.5,7.8
				c1.4,2.8,3,5.4,4.5,8.2c0.9,1.7,4.2,7.1,4.4,8.5c0.6-0.6,0.3-0.1,0.5-1l0.1-0.8c0-0.7-0.1-0.8,0.1-1.5v-0.5
				c-1.1-12.1,0.5-10.9,6.5-21.5l3-5.2l0.1-0.1l0.3-0.3c0-0.1,0.1-0.1,0.1-0.1l3.4,11.3c0.6,1.1,0,0.6,1.2,1.4l4.8,3.5
				c-0.8,0.8-1.7,1.3-2.5,2c-0.6,0.5-0.5,0.7-1.1,1.2c-0.3,0.3-0.7,0.6-1.1,0.9c-2.4,1.8-1.9,2.3-4.7,4.1c-0.5,0.9-0.9,1.1-1.9,1.8
				c-1.5,1.1-0.8,0.8-1.6,1.7c-0.5,0.5-1.4,1.1-2,1.6c-0.9,0.7-0.9,1-1.6,1.7c-1.7,1.6-0.5,0.1-2.8,2.6l-4.3,3.9
				c0.1,1.9,0.7,9.2,1.1,10.5v-0.1l1,0.1c0-1.4,0.1-0.9,0.5-1.9c0.3-0.7,0.3-1.5,0.6-2.1c-0.2-0.7,0.4-2.8,0.4-4
				c1.3-0.5,8.1-6.1,9.1-6.4l13.5-9.8c1.2-0.9,3.7-3,5-3.3l-0.8-0.6c1,0,1.1-0.1,2.3-1.1c0.4-0.3,0.6-0.7,0.9-0.9
				c1.4-0.9,0.6-0.5,0.9-0.1c0.3-0.3,0.9-0.7,1.4-1.1c0.9-0.7,1-0.5,1.6-1.3l0.3-0.3c0,0,0.1-0.1,0.1-0.2c0-0.1,0.1-0.1,0.1-0.2
				l-1.7-10.5c-1.3-0.9,0.7,1.4-0.8-0.3c-0.4,1.9-0.9,1.1-2.3,2.6c-0.5,0.6-0.4,0.6-1.1,1.2c-0.4,0.4-0.8,0.7-1.3,0.9l0.6-3
				c0.9-5.6,0.8-3.9,2.1-5.9c1-1.3,0.6-1,1.4-1.4c0.3-0.8,1.9-2.7,3.1-3.3l50.7-20c6.1-2.4,12.5-4.8,18.5-7.3
				c12.2-5.1,24.8-9.7,37-14.6c6.1-2.5,12.3-4.9,18.5-7.3c3.1-1.2,6.2-2.5,9.3-3.7c2.6-1,3.6-1,4.2-2.2c0.4-0.9,1.8-4,2-4.3l3.7-5.5
				c1.7-2.3-1.5-6.1-1.9-12c-0.9,0.5-1.3,0.9-2.1,1.5c-1,0.8-4.1,3.5-5.1,4c-1.6-2.6-5-13.7-7-14.7l-14.9-6.5
				c-1.8-0.8-8.8-4.2-10.1-4.2l9.5,12.7c0.7,0.9,0.9,0.8,1.3,1.8l-58.7-20.9l2.7,2.5c1.1,0.9,2.3,1.7,3.1,2.8
				c0.7,0.9,0.6,0.8,1.3,1.5C-518.3,454.4-516.6,455.5-515.7,457.3z"/>
			<path fill="#1A1A1A" d="M-430.7,557.2l-123.8,45.5c0.2,1,0.4,1-0.1,1.7c0.8,0,1.5,5.2,1.8,6.7c0.8,3.6,0.4,3.7-0.3,7.1
				c-0.8,4.7-2,9.6-2.6,14.3c1.4-0.7,0.6-1,1.6-1.7l6.4-7.7c0.4-1,6.5-7.9,7.8-9.8c1-1.4,1.4-1.5,2.6-3.2c0.7,0.6,1.1,2.1,1.5,2.9
				l2.7,6.3c0.8,2,0.7,1.4,2.2,2.4l10.8,7.2c-0.2-2.1-8.4-18.9-7.6-20.3c0.3-2.3,3.9-10.5,5-13.9c0.6-1.9,0.2-1,1.9-2
				c1.1-0.7,3.6-2.3,4.8-2.7c0.2,0.2,0.4,0.4,0.6,0.6c0.6,0.6,0.3,0.1,0.5,0.7c0.9,0.4,1.4,1.2,2.1,1.8c0.7,0.7,1.2,1.2,1.9,1.9
				c0.9,0.9,3.3,2.9,3.7,3.9c0.5-0.1,3.1,2.8,3.6,3.3c0.9,0.9,3.3,2.8,3.5,4.1c0.6,4.2,0.6,9.9,0.9,14.3l4.3-5.1
				c0.5-0.5,0.3-0.2,0.7-0.8c0.3-0.4,0.2-0.4,0.5-0.7l4.4-5.3c2.2-3,8.2-9.6,10.1-12.3c-1.3,0.9-2.6,1.9-3.6,3.2
				c-1,1.2-2.3,2-3.5,3.1c-1.1,1-0.7,1-3.4,3.2c-1.4,1.1-1,1.5-3.5,3.2c-1.4-0.8-6.1-6.4-7.9-7.7c0.3-1.2,2.1-4.2,2.9-5.4
				c-0.7-1.4-3.9-5.2-4.4-6.4l74.1-29l-2.2,11v0.8l0.3,0.3l8.5,13.2c-0.1-1.8-0.6-3.9-0.4-5.7c-0.6-1.5-1.1-10.3-1.4-12.7
				c-0.4-4.2-0.8-8.4-1.1-12.6L-430.7,557.2z"/>
			<path fill="#1A1A1A" d="M-463.3,603.8c0.9,2.4,1.1-1.6,1,5.2c0,2-0.1,4.1-0.1,6.1c-0.1,3.8-0.2,7.8-0.1,11.6
				c0.8-0.9,1.1-1.7,1.7-2.6c3.8-5.4,9-14.7,13-20.6c0.6,0.5,0.3-0.7,0.2,0.5c0.7-0.6,0.9-1.7,1.2-2.6c0.4-1,0.9-1.6,1.4-2.4
				c0.8-1.4,2-3.5,3.1-4.8l2.1,2.8l2.1,3.7c1-1,1.5-6.4,1.7-7.7c0.5-2.6,0.9-5.2,1.4-7.8c-3.7-0.4-3.9-2.3-5.7,0.1
				c-0.4,0.5-0.9,1.1-1.3,1.5l-2.5,3.1c-0.3,0.4-0.3,0.3-0.6,0.7c-4.9,5.8-4.4,6.3-8.1,13.3l-2.1,3.8L-463.3,603.8z"/>
		</g>
		<g>
			<path fill="#23101B" d="M-455.4,634.7c0.5,1.6,39.2,79,41.4,83.4c4.6,9.4,9.5,18.5,13.7,27.7l-19.5-25.2c-0.4-0.6-0.4-0.7-1-1.3
				l-28.8-37.4c-0.8-1.1-1.1-1.8-2.3-2.5l-19.4-13.3c-0.3-0.7,2-19,2.4-22.5c0.1-1.3,0.3-2.6,0.4-3.9c0.1-0.6,0.1-1.2,0.2-1.8
				l0.5-1.8L-455.4,634.7z M-434.7,585.2c-0.5,2.6-0.9,5.2-1.4,7.8c-0.2,1.3-0.8,6.7-1.7,7.7l-2.1-3.7c-0.1,2.7-2.5,10.7-3.3,13.8
				c-2,7.9-1.7,4.5,1.1,13.3c2.8,8.5,6.1,16.8,9,25.2c2.9,8.4,6,16.8,9,25.2c2.9,8.1,6.3,16.9,8.8,24.9c-1.4-1.7-2.3-2.7-3.3-5.1
				l-18-42c-3-6.9-7.7-17.3-10.3-23.9l-5.1-12c-0.2-1.3,4.1-10,4.3-12.5c0.2-1.2,0.4,0-0.2-0.5c-4,5.9-9.2,15.2-13,20.6
				c-0.7,1-1,1.7-1.7,2.6c-0.1-3.8,0.1-7.8,0.1-11.6c0-2,0.1-4.1,0.1-6.1c0.1-6.8,0-2.8-1-5.2l-5.7-6.1c-0.7-0.9-0.9-0.8-1.6-1.5
				c-0.5-0.6-0.8-1.2-1.3-1.7c-0.7-0.8-2-1.6-2.7-3.2c-1.2,0.7-1.6,1.5-2.7,2.8l-2.1,2.5c-1.9,2.7-7.9,9.3-10.1,12.3l-4.4,5.3
				c-0.3,0.4-0.3,0.4-0.5,0.7c-0.4,0.6-0.2,0.3-0.7,0.8l-4.3,5.1c-0.3-4.4-0.3-10.1-0.9-14.3c-0.2-1.3-2.6-3.2-3.5-4.1
				c-0.5-0.5-3.1-3.4-3.6-3.3c-0.5,2.1-0.7,4.3-1.1,6.4c-0.6,3.3,0.3,3.2-2.5,4.6c-1.7,0.8-8.6,4-9.5,4.9l11,1.8
				c0.5,1.1,1.1,3.8,1.4,5c1.1,4.7-2.6,9.6-4.7,13.4c-0.7,1.4-1.5,2.8-2.3,4.1c-1.3,2-7.3,8.9-9.4,11.5l-11.5,14
				c-0.3,0.4-0.3,0.5-0.6,0.9l-2.9,3.5c-1.6,2-2.9,3.2-3.8,5.7c-0.5,1.4-1,3.2-1.7,4.4c-0.8,3-2.2,5.4-3,8.8l4.9-1.1
				c-2.6-5.4-3.8-3.1,0.6-9.6c2.7-4,3.6-6.3,6.9-8.6l4.6-3.4c3.2-2.3,6.2-4,8.4-7.2c1-1.4,2-3.2,3-4.7l12.2-19
				c0.8-0.9,1.2-1.5,2-2.1l4.1-3.6c1.1-1.3,1.1-0.9,3-2.9c0.3-0.3,0.6-0.5,1-0.8c1.9-1.4,1.1-1,2-1.9c0.7-0.7,1.5-1,2.1-1.7
				c0.6-0.7,0.2-0.5,1-1.1c0.4-0.3,0.7-0.4,1.2-0.7c1-1.7,2.3-2,3.6-3.5l7.3-6.5c0.4-0.4,0.4-0.6,0.8-1c0.7-0.7,1.8-1.2,2.7-2.2
				c0.5,0.5,1.2,0.8,1.7,1.3c0.8,0.7,0.5,0.7,1.5,1.3c0.6,0.5,0.7,0.7,1.3,1.2c0.8,0.7,3.6,2.7,3.8,3.5c0.2,1.2-11.8,49.8-12.5,55.4
				l14.8,7.3c1.6,0.8,10,4.7,10.9,5.7c0.5,0.6,0.8,1.1,1.2,1.6s0.7,0.8,1.1,1.4l2.5,3.2c0.4,0.5,0.7,1,1.2,1.6
				c0.5,0.6,0.8,1,1.2,1.6l4.8,6.2c0.4,0.5,0.9,1.1,1.3,1.5c0.6,0.7,0.6,0.9,1.2,1.6l19.3,24.9c0.4,0.5,0.9,1.1,1.3,1.5l2.3,3
				c0.4,0.6,0.9,1.1,1.2,1.6c0.6,0.7,0.6,0.9,1.2,1.6l19.3,25.9c0.4,0.5,0.2,0.1,0.5,0.8l-119-18.5c1.2,1.2,3.9,1.2,5.1,2.5
				c1.4,0,16.9,6.7,19.7,7.8c3.3,1.3,6.5,2.6,9.8,4c2.6,1.1,7.6,3.4,10,3.9c0.5,0.5,20.8,8.5,23.4,9.6c3.5,1.4,3,1.4,7,0.9l15-1.5
				c1.5-0.2,2.3-0.5,3.4,0.2l27,18.7c0.9,0.6,1.5,1,2.4,1.6l12.3,8.4l2-24.5c-0.5-1.3-1.6-3.3-2.4-4.6c-0.9-1.4-1.6-3.1-2.4-4.5
				c-1.7-2.9-3.2-6-5-8.7c-0.4-1.2-1.8-3.5-2.5-4.7c-5.4-9.2-10.2-24-14.9-34.5c-0.1,0-0.1,0.1-0.1,0.1c-0.3-0.1,0.4,0.6-0.2-0.1
				l-2.8-7.6c-2.9-7.8-7.2-17.9-10.4-25.6l-13.9-33.9c1.7,1,3.8,4.5,6,5.9c-3.1-10.8-6.7-22.3-10.1-33.1c-1.4-4.5-1.4-3.8,0.1-8.4
				c1.6-4.7,6.2-22,7.4-24.8l2.9,1.2l5.7,2.2l2-7.8l-3.5-2.9c-0.7-0.8-0.2-0.5-1.2-0.9c-0.3,1.8,0.3,3.9,0.4,5.7l-8.5-13.2
				c-0.9-0.2-0.2,0.1-1-0.5c-0.4-0.3-0.2-0.2-0.7-0.5L-434.7,585.2L-434.7,585.2z"/>
			<path fill="#23101B" d="M-545.2,569.6l4.5,25.7l-7.1,2.6l-1.8,0.8l-4.4-25.1l-13.6,5.3c0.3,4.7,4.4,23.3,4.1,25.3l-8.8,3.5
				l-9.6-56.1c2.3-0.2,6.6-2.9,9.1-3.4l3.8,22.4l13.6-5.4l-3.8-22.5l9.1-3.7L-545.2,569.6z M-542.9,543.2l-0.9-6.6l1.8-0.6
				c0.6-0.5,6.4-2.8,7.1-2.8c1.4,7.8,2.8,15.6,4,23.4l3,17.4c0.4,2.2,0.3,3.6,1.6,5.3c1.9,0.2,5-1.5,6.8-2.2
				c1.1-0.4,2.1-0.8,3.1-1.2c1.5-0.6,2.2-0.6,2.7-2c0.7-2.4-6.9-39.9-7.4-46.4c1.4-0.4,8.5-3.5,8.9-3.3c0.5,0.5,5.2,30.4,5.9,33.9
				c0.8,4.1,2.8,13.7,2.1,17.4c-0.6,3.1-2.2,4.9-3.8,6.1c-3.1,2.1-18.8,8.4-21.7,8.4c-5.9,0-6.3-7.5-7.2-12.7
				c-1-5.7-1.9-11.3-2.9-17C-540.5,556.8-542.2,545.5-542.9,543.2z M-505.8,521.5l8.9-3.5l8.2,47.5c3.1-1,6.5-2.6,9.6-3.8
				c1.6-0.6,3.1-1.2,4.8-1.9c1.7-0.7,3.4-1.6,4.5-2.1l1.6,8.7l-28.2,11.1L-505.8,521.5z M-449.4,527.2l1,0.3c2.5,0.6,3.4,2,4.9,4.4
				l12.1,19.6c-0.4,0.3,0,0.1-0.5,0.3l-4.6,1.8c-1.7,0.7-3.5,1.5-5.2,2c-1.2-1.1-9.5-17.1-11.8-20.2c-1.5-2.1-5.5,0-7.8,1.1
				c-0.1,1.5,3.6,21.9,4.2,25.1l-2.2,1c-0.7,0.3-1.5,0.6-2.2,0.9c-1.4,0.6-3.3,1.5-4.7,1.8l-9.4-55.9l8.9-3.5
				c1.1,2.5,3.1,20.1,4.1,22.4c1.8-0.5,5.7-1.9,6.5-3.3c1.2-2.3,1.4-5.4,1.8-8c0.5-3.1,2-15.2,2.6-17c1.6-0.7,3.3-1.3,4.9-2
				c1.6-0.6,3.5-1.8,5-1.8c-0.9,4.3-3.8,25.1-5.4,28.3C-448.3,526.6-448.7,526.3-449.4,527.2z M-585.3,552.4v3.3l0.5,2.2
				c1.5,1.6-0.5-0.6,0.8,0.3l1.7,10.5c0.6-0.2,0.4-0.1,0.8-0.4c0.8,5,1.6,9.8,2.3,14.8c0.4,2.3,2.6,13.5,1.4,14.4l2.1,12
				c0.3,1.4,0.9,2.1,1.7,3.1l19.4-8.2c0.5-0.7,0.3-0.7,0.1-1.7l123.8-45.5c-0.4-6.3-0.7-12.4-1.1-18.7c-0.6-10.2-0.3-5.1-5.5-14.1
				c-0.9-1.5-2.2-14.4-2.5-17.2c-0.3-2.5-2.3-16.3-2.1-17.5c-0.2,0.3-1.6,3.5-2,4.3c-0.6,1.2-1.5,1.2-4.2,2.2
				c-3.1,1.2-6.2,2.5-9.3,3.7c-6.2,2.4-12.4,4.8-18.5,7.3c-12.2,4.9-24.8,9.5-37,14.6c-6,2.5-12.4,4.9-18.5,7.3l-50.7,20
				C-583.5,549.8-585,551.7-585.3,552.4z"/>
			<path fill="#23101B" d="M-376,758.7c0.7-7.4,1.2-14.7,1.8-22.1l3.2-38.5c0.2-2-0.6-2.9-1.3-4.6c-2.3-5.3-4.7-11.3-7.2-16.4
				c-0.6,1.6-3.6,16.6-4.4,19.8c-1.2,5.4-1.6,5.5-0.8,10.3c2.9,17.2,6,34.7,8.6,51.8L-376,758.7z"/>
			<polygon fill="#23101B" points="-523.3,718.4 -514,697.6 -524.4,695 			"/>
			<path fill="#23101B" d="M-527.8,608.5l5.1,1.9l7.7-19.1c-0.2-0.6,0.1-0.1-0.5-0.7c-0.2-0.2-0.4-0.4-0.6-0.6
				c-1.1,0.4-3.6,2-4.8,2.7c-1.6,1-1.2,0.1-1.9,2C-523.9,598-527.5,606.2-527.8,608.5z"/>
		</g>
		<g>
			<path fill="#262626" d="M-490.4,480.1c-6.9-3-13.7-6.6-20.4-9.7c-2.7-1.3-2.6-1.6-6-1.5l-55.8,0.6c0.9,0.7,2.8,1.3,4.1,1.7
				c1.4,0.5,2.9,1,4.3,1.6c2.1,0.8,2.7,0.3,3.2,2.6c0.4,1.6,0.7,3.2,1.2,4.7c1.7,6.2,3.2,12.4,4.8,18.6l-14.4-8.2
				c-1.7-1-1.3-0.9-3.5-0.4c-2.6,0.5-5.1,0.9-7.7,1.4c-2.7,0.6-29.2,5.3-30.7,5.9l9,16.7l-20.2,3.1c-0.4,0.2-0.8,0.7-1.2,1.1l-9,9.9
				c-0.8,0.7-0.6,1.1-2.1,2.5l-3.4,3.8c-0.6,1.1,0.9,5.8,1.2,7.5c0.6,2.6,1.1,5.2,1.8,7.7c0.7-0.4,2-2.4,2.2-3.1
				c0.5,0.3,1.4,1.1,1.7,1.5l9.6,10.8c0.4,0.4,0.4,0.5,0.8,0.9c0.7-0.4,0.7-0.7,1.3-1.4c0.6-0.6,0.7-0.9,1.3-1.5l9.1-11.1
				c0.3-0.4,0.3-0.3,0.6-0.7l8.6-10.5c-0.6,2.1-4.5,10.7-4.5,11.3c0,0.8,0.3,1,0.8,1.7c1.1,1.7,8.5,14.1,9.2,14.8
				c0.5-1.4,0.7-4,0.9-5.7c0.7-4.5,3.7-10.2,5.6-14.5c0.8-1.9,0.9-1.3,4.1-2.5l14.9-5.3c13.3-4.7,26.3-9.4,39.6-14.1
				c13.2-4.6,26.6-9.2,39.6-14c3.2-1.2,6.5-2.4,9.8-3.5c4.6-1.5,15.1-7.3,18.6-8.2c3.6-0.9,7.1-1.9,10.7-2.7c0-1.7,0.2-4.8-0.1-6.2
				l-5.8-13.4c-2-0.3-5.8-0.2-8.1-0.3c-3.1-0.1-3.8-0.8-6.4-1.9l-35.5-15.1c0.4,1,0.4,0.7,1.1,1.4c0.6,0.5,0.6,0.8,1.1,1.4l7.2,8.1
				c0.4,0.5,2.9,5.9,3.4,6.9C-492.7,475.3-491.4,477.7-490.4,480.1z"/>
			<path fill="#262626" d="M-479.3,596.5l2.1-2.5c1.1-1.3,1.5-2.1,2.7-2.8c0.7,1.6,2,2.4,2.7,3.2c0.5,0.5,0.8,1.2,1.3,1.7
				c0.7,0.7,0.9,0.6,1.6,1.5l5.7,6.1l8.2,4l2.1-3.8c3.7-7.1,3.2-7.5,8.1-13.3c0.3-0.4,0.3-0.3,0.6-0.7l2.5-3.1
				c0.4-0.5,0.9-1,1.3-1.5c1.8-2.4,2-0.5,5.7-0.1l2.5-13.3l0.2-1.2c0.4,0.5,0.4,0.7,1.1,1.1l2.2-11l-74.1,29
				c0.5,1.3,3.6,5.1,4.4,6.4c-0.7,1.2-2.5,4.2-2.9,5.4c1.8,1.2,6.5,6.8,7.9,7.7c2.5-1.7,2.1-2.1,3.5-3.2c2.7-2.2,2.3-2.2,3.4-3.2
				c1.2-1.1,2.6-1.9,3.5-3.1C-481.9,598.4-480.7,597.4-479.3,596.5z"/>
		</g>
		<path fill="#305C0E" d="M-417.7,584.2l-2,7.8l-5.7-2.2c0.5,1,1.1,1.6,1.8,2.4c0.7,0.9,1.3,1.5,1.9,2.4l11.6,14.4
			c0.4,0.5,0.6,0.7,0.9,1.1c0.4,0.5,0.4,0.6,0.9,1.2c0.6,0.8,1.4,1.7,1.9,2.4c0.7,0.9,1.3,1.5,1.9,2.4c0.4,0.5,0.5,0.6,0.9,1.1
			s0.6,0.8,1,1.3c5.3,6.8,3.4,2.6,4.4,13c0.5,5.6,4.6,63.3,4.4,64l-4.5-0.8c-0.1,2.4,2.2,12,2.8,15.1c2.6,13.5,5.3,28.7,8.1,41.9
			c0.3,1.4,0.8,3,0.4,3.8c1.8,2.8,3.3,5.8,5,8.7c0.8,1.4,1.5,3,2.4,4.5c0.8,1.3,1.9,3.3,2.4,4.6c1.2,1.1,3.4,6.2,4.6,7.9
			c-0.3-3.3-1.2-7.6-1.8-11c-0.4-2.2-1.9-9.5-1.7-11.3l-0.1,0.2c-2.6-17-5.8-34.6-8.6-51.8c-0.8-4.8-0.4-4.8,0.8-10.3
			c0.7-3.2,3.7-18.1,4.4-19.8c0.1-2.3,1.5-7.3,2-9.8c0.7-3.3,1.4-6.7,2.1-9.9c0.7-2.8,4.3-18,3.9-19.6c-0.6-0.1-0.1,0.1-0.7-0.7
			l-19-24.7c-5.2-6.6-13.6-17.3-18.3-23.8l-5.6-7.2c-0.4-0.6-0.7-1.1-1.3-1.6C-417.2,580.7-417.3,582.9-417.7,584.2z"/>
		<path fill="#6CD200" d="M-491.4,619.7l-21.9,61.8c0.7,0.6,1.1,1.2,1.8,1.8l1.9,1.7c1.4,1.6,5.7,6.5,7.1,7.5
			c1.2,0.8,2.8,2.6,3.7,3.8l-20.9,25.7c-0.3,0.4-0.7,0.9-1,1.2c-1.3,1.7-9.3,11.8-10.2,12.4l-1.5,3.2l1.2,0.2
			c1.3-1.2,1.4,0.1,4.9-2.7l35.2-28.3c7.3-5.8,12.9-10.3,20.7-16.1l8.8-6.8l-24.2-10.7l10.1-57.3c0.5-2.9,1.4-5.2,2-8
			c-1.1-0.7-0.7-0.6-1.5-1.3c-0.5-0.5-1.1-0.8-1.7-1.3c-0.9,1-2.1,1.6-2.7,2.2c-0.4,0.4-0.4,0.5-0.8,1l-7.3,6.5
			C-489.1,617.7-490.4,618-491.4,619.7z"/>
		<path fill="#6ACF00" d="M-606.4,612.8c-0.3,0.9-0.7,2-1,3.1c-1.1,3.3-1.2,2,3.9,7.1c1.5,1.5,7.6,7.2,8.3,8.6l16.1-4.8
			c1.3,1.5,2.2,3,3.4,4.6c2.5,3.3,7.3,10.7,9.6,13.3c1-0.2,0,0.2,1-0.6l4.7-5.3c0.3-0.4,0.4-0.7,0.8-1l3.9-4.3
			c0.7-0.6,0.3,0,0.9-0.8c0.2-0.2,0.1-0.2,0.3-0.5c0-0.1,0.3-0.4,0.4-0.4c0.4-0.5,0.1,0.5,0.2-0.4c0.1-0.7,0.1-0.2-0.1-0.6
			c-1,0.7-0.2,1-1.6,1.7c0.7-4.7,1.8-9.6,2.6-14.3c0.6-3.5,1-3.5,0.3-7.1c-0.3-1.5-1-6.6-1.8-6.7l-19.4,8.2c-0.9-1-1.5-1.7-1.7-3.1
			l-2.1-12l-0.1-0.6l-0.5,0.5c-0.1,0.1-0.2,0.3-0.2,0.3l-12.7,20.2L-606.4,612.8z"/>
		<path fill="#317400" d="M-527.8,608.5c-0.7,1.3,7.4,18.2,7.6,20.3l-10.8-7.2c-1.5-1-1.5-0.4-2.2-2.4l-2.7-6.3
			c-0.4-0.8-0.8-2.3-1.5-2.9c-1.2,1.8-1.5,1.8-2.6,3.2c-1.3,1.9-7.5,8.8-7.8,9.8l10.6-5c0.7,1.3,1.5,4.3,1.9,6
			c1.2,4.1,1,2.8,3.5,6.4l5.8,7.5c0.7,1-0.6-0.9,0.2,0.3l0.2,0.3c-0.4,0.9-0.9,1.7-1.5,2.6l-19.8,31.7c-1,1.4-1.1,9.9-1.2,12
			l2.4-5.5c0.5-0.7,0-0.8,0.5-0.2c0.7-1.2,1.2-3,1.7-4.4c0.9-2.4,2.1-3.7,3.8-5.7l2.9-3.5c0.3-0.4,0.4-0.5,0.6-0.9l11.5-14
			c2.1-2.7,8.1-9.5,9.4-11.5c0.8-1.2,1.6-2.7,2.3-4.1c2.1-3.8,5.8-8.7,4.7-13.4c-0.3-1.2-0.9-3.9-1.4-5l-11-1.8
			c1-0.9,7.9-4.1,9.5-4.9c2.8-1.4,1.9-1.3,2.5-4.6c0.4-2.1,0.6-4.3,1.1-6.4c-0.4-1-2.8-3-3.7-3.9c-0.7-0.7-1.2-1.2-1.9-1.9
			c-0.7-0.7-1.1-1.4-2.1-1.8l-7.7,19.1L-527.8,608.5z"/>
		<path fill="#69C921" d="M-447.7,604c-0.2,2.5-4.6,11.1-4.3,12.5l5.1,12c2.6,6.6,7.3,17,10.3,23.9l18,42c1.1,2.4,2,3.5,3.3,5.1
			c-2.5-8-5.9-16.8-8.8-24.9c-3-8.4-6.1-16.8-9-25.2c-2.9-8.4-6.2-16.8-9-25.2c-2.9-8.8-3.2-5.3-1.1-13.3c0.8-3.1,3.1-11.1,3.3-13.8
			l-2.1-2.8c-1,1.3-2.3,3.4-3.1,4.8c-0.5,0.8-1,1.5-1.4,2.4C-446.9,602.3-447.1,603.4-447.7,604z"/>
		<path fill="#0B040A" d="M-581.3,665.9l-0.2-1.1l-6.8,2c-0.3-1.5,0.5-2.4,1.1-3.6c0.7-1.6,0.5-1.7,2-2.6c1.8-1,4.2-2.4,6.1-3.2
			c1.1-0.8,7.2-3.8,8.9-4.8c-0.9,2.6-2.8,5.7-4.1,8.3c-1.6,3.4-0.9,4.3-6.7,6L-581.3,665.9z M-602.7,644.7h-0.9
			c0.3,0.7,2.9,1.6,3.7,2c1.6,0.5,3.8,1.2,4.5,2.6c0.7,1.5,1.5,3.2,2.1,4.8c1.5,3.5,2.9,5.8,3.8,9.7l1,3.7l6.5-1.9l0.3,2.4
			c0.7,0.4,1-0.3,2.1-0.5c0.6-0.6,1.7-1,2.5-1.4c1.4-0.6,1.3-0.4,1.9-1.9c0.7-1.6,1.7-3.7,2.6-5.2l5.1-10.8
			c-2.6-0.8-6.2-4.6-8.4-5.9L-602.7,644.7z"/>
		<path fill="#3E9200" d="M-626.3,601.6c0.3,1.7-1.9,10.7-2.4,13.1c-0.4,1.8-1.3,5-1.2,6.7c0.2,2.3,0.6,4.8,0.8,7.2
			c0.1,0,0.1-0.2,0.1-0.1c0.2,0.4,4.4-6.6,5.9-7l11.4-1.3c0.1-2.6-0.8-7.2-0.8-8.1c0-2-0.4-0.6,0.5-1.3c0-0.5,0.1-0.3-0.5-0.2
			c-1.5-0.1-4.9-1.5-6.6-2l0.5-6.3c-1.3-0.2-0.2,0.1-0.7-0.5v0.1l-3.9-1.5l-1.4-9.4v0.9c-1.1,0.2-4.4,1.6-5.1,2.2
			c0.6,1.1,1.3,2.6,2,3.8C-627.2,599.1-625.9,600.5-626.3,601.6z"/>
		<path fill="#56A800" d="M-605.1,608.1l-1.3,4.7l15.1,5.1l12.7-20.2c0-0.1,0.2-0.3,0.2-0.3l0.5-0.5l-1-5c-0.9-0.3-6.1,1.3-6.9,1.7
			c-0.8,0.4-5.4,6.3-6.2,7.4l-5.9,7.1H-605.1z"/>
		<path fill="#112900" d="M-608.1,593.1l1.4-2.5c1.2-0.1,3.8,0.5,5.2,0.7c0.9,0.2,4.6,0.5,4.3,1c-0.4,1-3.7,6-4.6,6.9
			c-0.6,0.7-0.8,0.6-1.9,0.8c-0.9,0.2-1.7,0.3-2.6,0.5c-1.6,0.3-3.3,0.7-4.9,0.9l-0.9-1.2C-611,598-609.4,595.2-608.1,593.1z
			 M-607.8,587.5c-1,0.3-7.8,5.9-9.1,6.4c-0.1,1.2-0.6,3.3-0.4,4l1.5,4.4c1.3,0.2,0.6,0.5,2.3,0.5l9-0.2c1-0.1,0.6,0.1,1.6-0.8
			l3.8-3.1c0.8-0.6,0.8-0.9,1.6-1.5c0.9-0.7,0.8-0.5,1.7-1.4l10.2-8.1c0.6-0.5,1.2-0.9,1.7-1.4l-4.6-7.3l-3.5,3.2
			c-3.8,2.9-7,1.4-10.9,2.9C-604.8,585.7-606.1,587.4-607.8,587.5z"/>
		<path fill="#235100" d="M-586,571.7c-0.4,0.3-0.4,0.3-0.7,0.5c1.2,2.4,4.2,5.8,4.9,7.3c-1-0.6-7.1-4.4-7.5-5.1
			c-1.3,0.3-3.8,2.4-5,3.3l-13.5,9.8c1.7-0.1,3-1.8,4.6-2.4c3.9-1.5,7.1,0,10.9-2.9l3.5-3.2l4.6,7.3c-0.5,0.5-1,0.9-1.7,1.4
			l-10.2,8.1c-0.9,0.9-0.8,0.7-1.7,1.4c-0.8,0.6-0.7,0.9-1.6,1.5l-3.8,3.1c-0.9,0.8-0.6,0.7-1.6,0.8l-9,0.2c-1.7,0-1-0.3-2.3-0.5
			c-0.6,0.3-0.5,0.3-1.1,0.5c0.4,0.4,0,0.1,0.7,0.5c2.2,1.2,4.5,1.8,7,1.9c3.3,0.1,6.6,0.6,9.8,0.7c0.6-1.3,0.3-2.7,0.8-3.8
			c0.2-0.6,11.8-9.3,12.7-9.7l5.1-1.6c0.9-0.3,1.1-0.4,1.8-0.2c-0.2-3-1.4-7.8-1.9-11c-0.3-1.8-0.7-3.6-1-5.4
			c-0.1-0.4-0.2-0.9-0.2-1.3v-1.1c0-0.1,0-0.1,0-0.2c0.1-0.8,0.1-1.6-0.6-2.3c-0.6,0.9-0.7,0.7-1.6,1.3
			C-585,571-585.6,571.4-586,571.7z"/>
		<path fill="#317500" d="M-617,602.8c-0.5-1-0.8-0.3-1.5-0.9l-1-0.1c0.5,0.6-0.6,0.3,0.7,0.5l-0.5,6.3c1.8,0.6,5.1,1.9,6.6,2
			l-0.4-2.6l7.8,0.1l7.2-0.1l5.9-7.1c0.8-1.1,5.4-6.9,6.2-7.4c0.7-0.4,5.9-2,6.9-1.7l-0.2-1.3c-0.7-0.2-0.9-0.1-1.8,0.2l-4.9,1.6
			c-0.9,0.4-12.5,9.1-12.7,9.7c-0.5,1.1-0.2,2.5-0.8,3.8c-3.2-0.1-6.5-0.5-9.8-0.7c-2.5-0.1-4.8-0.7-7-1.9
			C-616.9,602.9-616.6,603.2-617,602.8z"/>
		<path fill="#79E400" d="M-635.6,593.4c0.6,0.8,1.1,1.4,1.7,2.2c0.5,0.7,1,1.3,1.6,2c0.1,0-0.5-0.4,0.2,0.1l0.2,0.2
			c1.5,1.1,1.1,1.3,1.8,2.1c1,1,0.9,0.7,2.2,2.7l-0.5,1.3c-1,3.6-1.7,8.6-2.4,12.4c-0.5,2.8-0.9,3.4-0.4,6.4
			c0.3,2.2,0.7,4.5,0.9,6.7l1.1-0.8c-0.2-2.4-0.6-4.9-0.8-7.2c-0.1-1.7,0.8-4.8,1.2-6.7c0.5-2.4,2.7-11.4,2.4-13.1l-6.1-9.1
			c-1.3-2-0.3-11.1-0.3-14.1c-0.5,0.6-2,4.8-2.5,6.6C-635.5,586.2-635.7,591.9-635.6,593.4z"/>
		<path fill="#ECECEC" d="M-608.1,593.1c-1.3,2.1-2.9,4.9-4,7.2l0.9,1.2c1.6-0.2,3.3-0.6,4.9-0.9c0.9-0.2,1.7-0.4,2.6-0.5
			c1.1-0.2,1.3-0.1,1.9-0.8c0.8-1,4.1-5.9,4.6-6.9c-1.9,0.1-3.9,0.1-5.8,0.1c-0.8,0-2-0.1-2.8,0C-606.9,592.6-607,592.9-608.1,593.1
			z"/>
		<path fill="#787778" d="M-595.3,637.1c1.6,0.8,4.1,0.7,6,1.2c1.1,0.3,2.8,2.2,3.9,3.1c-1.1,0.6-12.3,2.3-15.2,2.8l-2.1,0.6
			l26.9-2.4c-0.9-1.1-2.1-1.7-3.3-2.7c-0.6-0.5-1.1-0.9-1.7-1.4c-0.8-0.6-1-0.7-1.7-1.3l-1.9-0.5L-595.3,637.1z"/>
		<path fill="#122D00" d="M-595.2,631.6l13.4-2.1c1.4,2.2,5.9,6.4,7.8,8.1c1.3,1.2,7.4,7.5,8.3,7.9l-0.4-0.8
			c-2.3-2.6-7.1-10-9.6-13.3c-1.2-1.6-2.1-3.1-3.4-4.6L-595.2,631.6z"/>
		<path fill="#A920F0" d="M-581.3,665.9l3.7-5.3c0.4-0.6,0.8-1.4,1.1-1.8c-0.6-0.7-1.8-1.3-2.7-1.3c-1.9,0.8-4.2,2.1-6.1,3.2
			c-1.5,0.8-1.3,1-2,2.6c-0.6,1.3-1.5,2.2-1.1,3.6l6.8-2L-581.3,665.9z"/>
		<path fill="#7B17B0" d="M-579.1,657.5c0.8,0,2.1,0.6,2.7,1.3c-0.3,0.4-0.7,1.2-1.1,1.8l-3.7,5.3l0.3,1.1c5.8-1.7,5-2.6,6.7-6
			c1.3-2.6,3.1-5.8,4.1-8.3C-571.9,653.6-578,656.6-579.1,657.5z"/>
		<path fill="#1A0C16" d="M-582.4,568.6c0,0.1-0.1,0.1-0.1,0.2s-0.1,0.1-0.1,0.2l-0.3,0.3c0.8,0.7,0.7,1.4,0.6,2.3
			c0,0.1,0,0.1,0,0.2v1.1c0.1,0.4,0.2,0.9,0.2,1.3c0.3,1.8,0.7,3.6,1,5.4c0.6,3.1,1.7,7.9,1.9,11l0.2,1.3l1,5l0.1,0.6
			c1.2-0.9-1.1-12.1-1.4-14.4c-0.8-5-1.5-9.8-2.3-14.8C-582,568.5-581.8,568.5-582.4,568.6z"/>
		<path fill="#3A8A00" d="M-612.6,610.6c0.6,0,0.5-0.2,0.5,0.2c0.7,0.6,4.7,1.9,5.6,1.9l1.3-4.7l-7.8-0.1L-612.6,610.6z"/>
		<path fill="#173701" d="M-574.7,678.1c1.2-0.3,2.5-1,3.7-1.6c2.2-1,1.9-0.8,2.2-3.2c0.6-3.7,0.8-5.5-0.3-9.2
			c-0.6,1.1-1.3,6.3-1.6,8C-571.4,676-570.5,675.5-574.7,678.1z"/>
		<path fill="#41B200" d="M-589.5,663.8c-0.9-3.9-2.3-6.2-3.8-9.7c-0.7-1.6-1.4-3.2-2.1-4.8c-0.6-1.4-2.9-2.1-4.5-2.6
			c2.2,3,2.1-0.5,5.9,7.8C-593.2,656.4-590.4,662.7-589.5,663.8z"/>
		<path fill="#686768" d="M-608.1,593.1c1.1-0.2,1.3-0.6,2.3-0.7c0.7-0.1,2,0,2.8,0c1.9,0,3.9,0.1,5.8-0.1c0.3-0.4-3.4-0.8-4.3-1
			c-1.3-0.3-4-0.8-5.2-0.7L-608.1,593.1z"/>
		<path fill="#2B6500" d="M-588.9,559.7l-0.6,3c0.5-0.2,0.9-0.5,1.3-0.9c0.7-0.6,0.5-0.6,1.1-1.2c1.4-1.6,2-0.7,2.3-2.6l-0.5-2.2
			l-0.7,0.5c-0.8,0.7-0.6,0.7-1.1,1.5C-588.5,559.7-588.1,559.4-588.9,559.7z"/>
		<path fill="#245500" d="M-588.9,559.7c0.8-0.3,0.4,0.1,1.8-1.9c0.5-0.7,0.3-0.7,1.1-1.5l0.7-0.6v-3.3c-0.9,0.4-0.5,0-1.4,1.4
			C-588.2,555.7-588.1,554.1-588.9,559.7z"/>
		<path fill="#49AC00" d="M-542.9,543.2c0.4-0.5,0.1,0.4,0.5-0.8l0.4-6.4l-1.8,0.6L-542.9,543.2z"/>
		<path fill="#43AD00" d="M-628.3,603.9l0.5-1.3c-1.3-2-1.3-1.6-2.2-2.7c-0.7-0.8-0.3-0.9-1.8-2.1l-0.2-0.2
			c-0.8-0.5-0.1-0.1-0.2-0.1c0.5,0.8,0.6,0.8,1.1,1.5l1.5,1.9C-627.9,603.2-628,602.2-628.3,603.9z"/>
		<path fill="#9E4981" d="M-432.2,571.9c0.5,0.2,0.3,0.1,0.7,0.5c0.7,0.6,0.1,0.3,1,0.5l-0.3-0.3v-0.8c-0.7-0.4-0.7-0.6-1.1-1.1
			L-432.2,571.9z"/>
		<path fill="#141915" d="M-582.6,637c-0.4-0.7-0.9-0.8-1.9-0.5L-582.6,637z"/>
		<path fill="#49A602" d="M-630.2,629.4l0.1,0.7c0.6-0.7,0.5-0.5,0.9-1.4L-630.2,629.4z"/>
	</g>
</g>
</svg>
