<?xml version="1.0" encoding="utf-8"?>
<!-- Generator: Adobe Illustrator 19.0.0, SVG Export Plug-In . SVG Version: 6.00 Build 0)  -->
<svg version="1.1" id="Layer_1" xmlns="http://www.w3.org/2000/svg" xmlns:xlink="http://www.w3.org/1999/xlink" x="0px" y="0px"
	 viewBox="-162 220.7 287 351.7" style="enable-background:new -162 220.7 287 351.7;" xml:space="preserve">
<style type="text/css">
	.st0{fill:#151616;}
	.st1{fill:#B2799E;}
	.st2{fill:#B7B7B8;}
	.st3{fill:#B1779D;}
	.st4{fill:#FEFDFF;}
	.st5{fill:#2B6400;}
	.st6{fill:#296200;}
	.st7{fill:#245400;}
	.st8{fill:#468616;}
	.st9{fill:#47A800;}
	.st10{fill:#1A1A1A;}
	.st11{fill:#23101B;}
	.st12{fill:#262626;}
	.st13{fill:#305C0E;}
	.st14{fill:#6CD200;}
	.st15{fill:#6ACF00;}
	.st16{fill:#317400;}
	.st17{fill:#69C921;}
	.st18{fill:#0B040A;}
	.st19{fill:#3E9200;}
	.st20{fill:#56A800;}
	.st21{fill:#112900;}
	.st22{fill:#235100;}
	.st23{fill:#317500;}
	.st24{fill:#79E400;}
	.st25{fill:#ECECEC;}
	.st26{fill:#787778;}
	.st27{fill:#122D00;}
	.st28{fill:#A920F0;}
	.st29{fill:#7B17B0;}
	.st30{fill:#1A0C16;}
	.st31{fill:#3A8A00;}
	.st32{fill:#173701;}
	.st33{fill:#41B200;}
	.st34{fill:#686768;}
	.st35{fill:#2B6500;}
	.st36{fill:#245500;}
	.st37{fill:#49AC00;}
	.st38{fill:#43AD00;}
	.st39{fill:#9E4981;}
	.st40{fill:#141915;}
	.st41{fill:#49A602;}
</style>
<g id="Layer_x0020_1">
	<g id="_495441626944">
		<g>
			<path class="st0" d="M-93.3,349.1c0.4,0.8,6.5,4.6,7.5,5.1c-0.6-1.5-3.6-5-4.9-7.3c0.3-0.3,0.3-0.2,0.7-0.5
				c-0.3-0.4,0.5-0.8-0.9,0.1c-0.4,0.3-0.5,0.6-0.9,0.9c-1.2,1-1.3,1-2.3,1.1L-93.3,349.1z"/>
			<path class="st0" d="M-122.4,376.6c0.7,0.6,1-0.2,1.5,0.9c0.6-0.2,0.5-0.1,1.1-0.5l-1.5-4.4c-0.3,0.6-0.3,1.4-0.6,2.1
				C-122.4,375.7-122.5,375.2-122.4,376.6z"/>
		</g>
		<g>
			<path class="st1" d="M-135.2,415.5l-8.3-6.6c-1.1-0.9-1.4-0.5-3.6-0.6c1,2.3,3.3,3.2,5.6,4.2
				C-139.4,413.4-137.2,414.8-135.2,415.5z"/>
			<path class="st1" d="M-117.6,450.4c0.8-0.4,1.2-0.6,1.6-1.1c0.8-0.7,0.6-0.6,1.5-1l-0.2-2.1L-117.6,450.4z"/>
		</g>
		<g>
			<path class="st2" d="M-83.6,442.2c2.7-0.3,1.6-0.4,3.3-1.1l1,8c0.5-0.9,2.7-13.8,2.7-15.3c-0.8,1.5-1.8,3.5-2.6,5.2
				c-0.7,1.5-0.5,1.2-1.9,1.9C-82,441.2-83,441.6-83.6,442.2z"/>
			<path class="st2" d="M-92.5,442.2l-4.2,1.2c-0.3,0.2-0.4,0.2-0.5,0.3c2.6,0,10-1.6,11.5-1.1l-0.3-2.4L-92.5,442.2z"/>
		</g>
		<g>
			<path class="st3" d="M-139.8,447.1c2.5,0.1,5,0,7.4,0.1c3.6,0.1,3.3-0.1,6-1.6c1.6-0.9,3.3-1.7,4.9-2.7c1.4-0.9,3.9-1.6,5.4-2.2
				C-118.1,440.9-139.1,446.6-139.8,447.1z"/>
			<path class="st3" d="M-124.1,466.1l8-4.8c2.5-1.5,1.7-0.9,2.9-3.4c0.7-1.4,1.7-3,2.1-4.5c-2.2,1.4-1,1.1-3.2,3.2l-6.7,6.3
				c-0.6,0.6-1.1,1-1.7,1.6C-123.9,465.6-123.2,465.5-124.1,466.1z"/>
			<path class="st3" d="M-130.9,426.4c2.8,1,4.8,2.2,8,2.5c2.8,0.3,6.8,1.1,9.4,1.2c-1.3-0.6-10.3-4-12-4.1l-5.3,0.3
				C-130.8,426.3-130.8,426.3-130.9,426.4z"/>
		</g>
		<g>
			<path class="st4" d="M-104.3,412l-10.3,0.5l-3.6,0.4l4.2,7.3l6.5-0.7l0.9,0l2.1-0.6c2.9-0.4,14.1-2.2,15.2-2.8
				c-1.1-0.9-2.7-2.8-3.9-3.1c-1.9-0.6-4.5-0.4-6-1.2L-104.3,412z"/>
			<path class="st4" d="M-83.6,442.2c-1.1,0.1-1.5,0.8-2.1,0.5c-1.5-0.5-8.9,1.1-11.5,1.1c-1.4,0-5.3,1-6.2,1.7
				c0.8,0.4,2.4,1.7,3.2,2.3c1.1,0.9,2.4,1.5,3.3,2.6l17.6-1.3l-1-8C-82.1,441.8-80.9,441.9-83.6,442.2z"/>
		</g>
		<g>
			<path class="st5" d="M-133.1,403.4c-0.4,0.9-0.4,0.7-0.9,1.4l0.2,1l11.7-2.9c0.4,1.9,2.5,2.7-1.3,4.8l0.9,4.1
				c6.8,1.6,3.5,0.6,8,0.8l10.3-0.5c-0.5-0.8-9.1-4.3-11.2-5.4c-1.3-0.7-1.5-1.8-1.6-4.2c0.6-0.4,2.2-2.8,2.3-3c0.2-0.6,0-3.4,0-3.5
				c-0.3-1.3,0.2-0.8-0.8-0.9l-11.4,1.3c-1.5,0.4-5.7,7.4-5.9,7C-133,403.2-133.1,403.3-133.1,403.4z"/>
			<path class="st5" d="M-100.9,457.8c-0.6,0.9,11.9,3.6,12.7,5c0.3,0.5,1,4.3,1.2,5.1c1.4,5.7,0.4,4.4,5.7,6.5
				c2.9,1.1,6,2.7,8.9,3.7c-0.6-0.7-1.3-1.7-1.9-2.3c-0.6-0.6-0.6-0.4-1.1-0.9c-1.6-1.4-2.3-4.6-3.3-6.9c-0.6-1.5-1.2-1.4-0.4-2.8
				c0.4-0.8,1.2-1.7,1.7-2.4l3.6-4.6l-8,0.3l-1.8-2L-100.9,457.8z"/>
			<path class="st5" d="M-120.4,355.9c-0.2,0.7,0,0.8-0.1,1.5c0,0-0.1,0.8-0.1,0.8c-0.2,0.9,0.1,0.4-0.5,1c-0.3,0.6-6.7,4.6-7.7,5.5
				l0,1.1l1.4,9.4l3.9,1.5c-0.5-1.3-1.1-8.6-1.1-10.5l4.3-3.9c2.3-2.5,1.1-1,2.8-2.6c0.8-0.7,0.7-1,1.6-1.7c0.6-0.5,1.5-1.1,2-1.6
				c0.8-0.9,0.1-0.5,1.6-1.7c1-0.8,1.4-0.9,1.9-1.8c-1.6,0.6-9.1,5.2-10.1,6.1L-120.4,355.9z"/>
		</g>
		<g>
			<path class="st6" d="M46.6,301.9c0.7-0.9,1.1-0.6,2.1-2.7c1.6-3.1,4.6-24,5.4-28.3c-1.5,0-3.5,1.2-5,1.8c-1.6,0.6-3.3,1.3-4.9,2
				c-0.6,1.8-2.1,13.9-2.6,17c-0.4,2.5-0.6,5.7-1.8,8c-0.8,1.5-4.7,2.8-6.5,3.3c-1-2.3-3-19.9-4.1-22.4l-8.9,3.5l9.4,55.9
				c1.4-0.3,3.3-1.2,4.7-1.8c0.7-0.3,1.5-0.6,2.2-0.9l2.2-1c-0.6-3.2-4.3-23.6-4.2-25.1c2.2-1.1,6.3-3.2,7.8-1.1
				c2.3,3.2,10.6,19.2,11.8,20.2c1.7-0.5,3.5-1.4,5.2-2l4.6-1.8c0.5-0.3,0.2-0.1,0.5-0.3l-12.1-19.6c-1.4-2.4-2.3-3.7-4.9-4.4
				L46.6,301.9z"/>
			<path class="st6" d="M-46,310.7l-0.4,6.4c-0.3,1.2-0.1,0.4-0.5,0.8c0.7,2.3,2.4,13.6,3,17.1c1,5.7,1.9,11.3,2.9,17
				c0.9,5.2,1.2,12.7,7.2,12.7c3,0,18.6-6.2,21.7-8.4c1.7-1.1,3.2-3,3.8-6.1c0.7-3.7-1.3-13.4-2.1-17.4c-0.7-3.5-5.5-33.4-5.9-33.9
				c-0.5-0.2-7.5,2.9-8.9,3.3c0.5,6.5,8.1,44,7.4,46.4c-0.4,1.3-1.2,1.4-2.7,2c-1.1,0.4-2.1,0.8-3.1,1.2c-1.8,0.7-4.9,2.4-6.8,2.2
				c-1.3-1.7-1.2-3.1-1.6-5.3l-3-17.4c-1.2-7.8-2.6-15.6-4-23.4C-39.6,307.9-45.4,310.2-46,310.7z"/>
			<path class="st6" d="M-0.4,352.2l28.2-11.1l-1.6-8.7c-1.1,0.5-2.8,1.4-4.5,2.1c-1.6,0.6-3.1,1.2-4.8,1.9
				c-3.1,1.2-6.5,2.8-9.6,3.8l-8.2-47.5l-8.9,3.5L-0.4,352.2z"/>
			<path class="st6" d="M-51.9,372.6l7.1-2.6l-4.5-25.7C-49,346.2-51.4,371.5-51.9,372.6z"/>
		</g>
		<g>
			<path class="st7" d="M-47.2,461.6c0.6,0.7,0.9,1.4,1.4,2.2c1.3,2,0.5,1.5,1.4,1.9c1.1,0.5,4,1,5.3,1.3c2.7,0.6,8.7,1.8,10.7,2.7
				l10.4,2.6l-9.3,20.8l-7.6,17.2c0.9-0.6,8.9-10.7,10.2-12.4c0.3-0.4,0.7-0.9,1-1.2L-2.8,471c-0.9-1.2-2.5-3-3.7-3.8
				c-1.4-0.9-5.7-5.9-7.1-7.5l-1.9-1.7c-0.7-0.5-1.2-1.2-1.8-1.8l21.9-61.8c-0.5,0.3-0.8,0.4-1.2,0.7c-0.8,0.6-0.4,0.4-1,1.1
				c-0.7,0.8-1.4,1-2.1,1.7c-0.9,0.9-0.1,0.5-2,1.9c-0.4,0.3-0.7,0.5-1,0.8c-1.9,2-1.9,1.5-3,2.9l-4.1,3.6c-0.9,0.6-1.2,1.2-2,2.1
				l-12.2,19c-1,1.5-2,3.3-3,4.7c-2.2,3.2-5.2,4.9-8.4,7.2l-4.6,3.4c-3.3,2.4-4.3,4.7-6.9,8.6C-51,458.5-49.9,456.2-47.2,461.6z"/>
			<path class="st7" d="M-120.4,355.4c0.9-1,3-6.7,3.9-8.7c0.5-1.2,0.1-0.5,0.9-1.1l8.5-6l-3.4-11.3c0,0-0.1,0-0.1,0.1l-0.3,0.3
				c0,0-0.1,0.1-0.1,0.1l-3,5.2C-119.9,344.5-121.5,343.3-120.4,355.4z"/>
			<path class="st7" d="M-140.2,359.8c0.7-0.9,2.3-10.2,2.6-11.2c0.3-1.6,1.2-1.7,3.4-3.2l3.5-2.4c0.7-0.4-0.1-0.1,0.8-0.4
				c-1.1-1.6-3.8-7.2-4.5-7.8c-0.7,1.7-1.8,3.6-2.6,5.2c-1,1.8-1.7,3.4-2.6,5.3c-1.6,3-0.9,3.4-0.8,6.9
				C-140.4,354.7-140.2,357.3-140.2,359.8z"/>
		</g>
		<g>
			<path class="st8" d="M109,530.1c0.4-0.7-0.1-2.4-0.4-3.8c-2.8-13.2-5.5-28.4-8.1-41.9c-0.6-3.1-2.9-12.7-2.8-15.1l4.5,0.8
				c0.2-0.6-3.8-58.3-4.4-64c-1-10.4,0.9-6.2-4.4-13c-0.4-0.5-0.7-0.8-1-1.3c-0.4-0.5-0.6-0.6-0.9-1.1c-0.6-0.9-1.2-1.6-1.9-2.4
				c-0.6-0.7-1.3-1.6-1.9-2.4c-0.4-0.5-0.5-0.7-0.9-1.2c-0.3-0.4-0.6-0.6-0.9-1.1l-11.6-14.4c-0.7-0.9-1.3-1.5-1.9-2.4
				c-0.7-0.8-1.3-1.4-1.8-2.4l-2.9-1.2c-1.2,2.8-5.8,20.1-7.4,24.8c-1.5,4.6-1.5,3.9-0.1,8.4c3.4,10.9,7,22.3,10.1,33.1
				c-2.2-1.4-4.3-4.9-6-5.9l13.9,33.9c3.2,7.7,7.5,17.8,10.4,25.6l2.8,7.6c0.6,0.7-0.1,0.1,0.2,0.1c0,0,0.1-0.1,0.1-0.1
				c4.7,10.5,9.5,25.3,14.9,34.5C107.3,526.6,108.7,528.9,109,530.1z"/>
			<path class="st8" d="M28.2,410.6l-0.5,1.8c-0.1,0.6-0.1,1.2-0.2,1.8c-0.1,1.3-0.3,2.6-0.4,3.9c-0.4,3.5-2.7,21.8-2.4,22.5
				L44.2,454c1.2,0.7,1.5,1.4,2.3,2.5l28.8,37.4c0.5,0.7,0.5,0.8,1,1.3l19.5,25.2c-4.3-9.1-9.1-18.3-13.7-27.7
				c-2.2-4.5-40.9-81.8-41.4-83.4L28.2,410.6z"/>
		</g>
		<g>
			<path class="st9" d="M-35.3,513.7l16.8,2.7l119,18.5c-0.3-0.7-0.2-0.4-0.5-0.8l-19.8-25.6c-0.6-0.7-0.6-0.9-1.2-1.6
				c-0.4-0.5-0.8-1-1.2-1.6l-2.3-3c-0.4-0.4-0.8-1-1.3-1.5l-19.3-24.9c-0.6-0.7-0.6-0.9-1.2-1.6c-0.3-0.4-0.8-1-1.3-1.5l-4.8-6.2
				c-0.4-0.6-0.7-1-1.2-1.6c-0.5-0.6-0.8-1.1-1.2-1.6l-2.5-3.2c-0.4-0.6-0.7-0.9-1.1-1.4c-0.4-0.5-0.7-1.1-1.2-1.6
				c-0.9-1-9.3-4.9-10.9-5.7l-14.8-7.3c0.7-5.6,12.7-54.2,12.5-55.4c-0.1-0.8-3-2.8-3.8-3.5c-0.6-0.5-0.6-0.7-1.3-1.2
				c-0.6,2.7-1.4,5-2,8l-10.1,57.3l24.2,10.7l-8.8,6.8c-7.8,5.8-13.4,10.3-20.7,16.1L-30.4,511C-33.8,513.7-33.9,512.5-35.3,513.7z"
				/>
			<path class="st9" d="M-78.7,452.8c4.2-2.6,3.3-2.2,4-5.9c0.3-1.7,1-7,1.6-8c1.2,3.7,0.9,5.5,0.3,9.2c-0.4,2.4,0,2.1-2.2,3.2
				C-76.3,451.8-77.5,452.5-78.7,452.8z M-115.7,395c1,0.1,0.5-0.5,0.8,0.9c0,0.1,0.3,2.9,0,3.5c-0.1,0.3-1.7,2.6-2.3,3
				c0.1,2.4,0.4,3.5,1.6,4.2c2.1,1.1,10.7,4.6,11.2,5.4l5-0.2l10.8-0.6c1-0.2,1.5-0.2,1.9,0.5c0.7,0.6,0.9,0.6,1.7,1.3
				c0.6,0.5,1.1,0.8,1.7,1.4c1.2,1,2.3,1.6,3.3,2.7c2.2,1.3,5.8,5.1,8.4,5.9l-5.1,10.8c0,1.5-2.2,14.4-2.7,15.3l-17.6,1.3
				c-0.9,0.4-0.8,0.8-1.1,1.6c-0.3,0.7-0.6,1.2-0.9,1.9c-0.7,1.4-1.4,2.6-2,4l17.3-1.2l1.8,2l8-0.3l-3.6,4.6
				c-0.5,0.7-1.2,1.6-1.7,2.4c-0.8,1.4-0.2,1.3,0.4,2.8c1,2.3,1.7,5.5,3.3,6.9c0.5,0.5,0.6,0.3,1.1,0.9c0.6,0.6,1.3,1.6,1.9,2.3
				c1.2,0.6,2.2,0.9,3.4,1.4c1.8,0.8,1.7,0.3,3.5-0.5l9.9-4.9c1.8-0.8,1.3-1.3,1.8-3.3c0.6-2.7,1.3-5.4,1.8-8.1
				c0.8-3.4,2.2-5.9,3-8.8c-0.5-0.5,0-0.5-0.5,0.2l-2.4,5.5c0.1-2.1,0.2-10.6,1.2-12l19.8-31.7c0.6-0.9,1.1-1.7,1.5-2.6l-0.2-0.3
				c-0.8-1.2,0.5,0.7-0.2-0.3l-5.8-7.5c-2.6-3.6-2.4-2.3-3.5-6.4c-0.5-1.6-1.3-4.6-1.9-6l-10.6,5l-6.4,7.7c0.3,0.4,0.3-0.1,0.1,0.6
				c-0.2,1,0.1-0.1-0.2,0.4c0,0-0.3,0.4-0.4,0.4c-0.2,0.3-0.1,0.2-0.3,0.5c-0.7,0.8-0.3,0.2-0.9,0.8l-3.9,4.3
				c-0.3,0.4-0.4,0.7-0.8,1l-4.7,5.3c-1,0.8,0,0.3-1,0.6l0.4,0.8c-0.9-0.5-7-6.7-8.3-7.9c-1.8-1.8-6.3-6-7.8-8.1l-13.4,2.1
				c-0.7-1.4-6.8-7.1-8.3-8.6c-5.1-5.1-5-3.8-3.9-7.1c0.3-1,0.7-2.2,1-3.1c-0.9-0.1-4.9-1.3-5.6-1.9c-0.9,0.7-0.5-0.7-0.5,1.3
				C-116.5,387.8-115.6,392.4-115.7,395z"/>
			<path class="st9" d="M-51.9,372.6c0.5-1.1,2.9-26.4,2.6-28.3l-5-30.4l-9.1,3.7l3.8,22.5l-13.6,5.4L-77,323
				c-2.5,0.5-6.8,3.1-9.1,3.4l9.6,56.1l8.8-3.5c0.3-2.1-3.8-20.7-4.1-25.3l13.6-5.3l4.4,25.1L-51.9,372.6z"/>
			<path class="st9" d="M-140.2,359.8c0.1,1.9,0,7,0.5,8.3c-0.1-1.5,0.1-7.1,0.4-8.4c0.5-1.8,2-5.9,2.5-6.6c0,3-1,12.1,0.3,14.1
				l6.1,9.1c0.3-1.1-0.9-2.5-1.5-3.7c-0.7-1.2-1.4-2.6-2-3.8c0.7-0.6,4-2,5.1-2.2l0-0.9l0-1.1c1-0.9,7.4-4.9,7.7-5.5
				c-0.2-1.4-3.5-6.8-4.4-8.5c-1.4-2.8-3.1-5.4-4.5-8.2c-0.9,0.4-0.1,0-0.8,0.4l-3.5,2.4c-2.2,1.5-3.1,1.6-3.4,3.2
				C-137.8,349.6-139.5,358.8-140.2,359.8z"/>
			<path class="st9" d="M14.9,535.6l-52-15.3c-1,0.2-0.2,0.2,0.9,0.8l5.1,2.3c10.2,4.3,22.8,10.8,33.2,15.3c1.7,0.8,1.7,1.2,3.7,0.7
				c1.3-0.3,2.6-0.7,3.9-1c1.6-0.4,6.6-1.3,7.6-2L14.9,535.6z"/>
			<path class="st9" d="M109,382.5c0.3,0.4,0.5,0.7,0.9,1.2c0.6,0.8-0.1,0.3,0.8,0.9l-4.6-18.6c-0.4-1-7.8-6.6-9.2-7.7L83.7,348
				L109,382.5z"/>
			<path class="st9" d="M-120.4,355.4l0,0.5l0,3c1-0.9,8.5-5.5,10.1-6.1c2.8-1.9,2.3-2.3,4.7-4.1c0.4-0.3,0.8-0.6,1.1-0.9
				c0.5-0.5,0.5-0.7,1.1-1.2c0.8-0.8,1.7-1.2,2.5-2l-4.8-3.5c-1.2-0.8-0.6-0.4-1.2-1.4l-8.5,6c-0.8,0.6-0.4-0.1-0.9,1.1
				C-117.4,348.8-119.5,354.5-120.4,355.4z"/>
		</g>
		<g>
			<path class="st10" d="M5.6,254.8c-1-2.5-2.3-4.8-3.4-7.3c-0.4-0.9-2.9-6.3-3.4-6.9l-7.2-8.1c-0.5-0.6-0.5-0.9-1.1-1.4
				c-0.7-0.7-0.8-0.5-1.1-1.4l35.5,15.1c2.7,1.1,3.3,1.8,6.4,1.9c2.3,0.1,6.1,0,8.1,0.3l5.7,13.4c0.3,1.4,0,4.5,0.1,6.2
				c-3.6,0.8-7.1,1.8-10.7,2.7c-3.5,0.9-14,6.7-18.6,8.2c-3.3,1.1-6.6,2.3-9.8,3.5c-13,4.8-26.4,9.4-39.6,14
				c-13.3,4.6-26.3,9.4-39.6,14.1l-14.9,5.3c-3.2,1.2-3.3,0.6-4.1,2.5c-2,4.3-4.9,10-5.6,14.5c-0.3,1.7-0.4,4.3-0.9,5.7
				c-0.7-0.6-8-13-9.2-14.8c-0.5-0.7-0.8-1-0.8-1.7c0-0.6,3.9-9.2,4.5-11.3l-8.6,10.5c-0.3,0.4-0.3,0.3-0.6,0.7l-9.1,11.1
				c-0.6,0.7-0.7,0.9-1.3,1.5c-0.6,0.6-0.6,1-1.3,1.4c-0.4-0.4-0.4-0.5-0.8-0.9l-9.6-10.8c-0.4-0.5-1.2-1.2-1.7-1.5
				c-0.2,0.8-1.5,2.7-2.2,3.1c-0.7-2.5-1.2-5.1-1.8-7.7c-0.4-1.7-1.9-6.4-1.2-7.5l3.4-3.8c1.5-1.4,1.3-1.7,2.1-2.5l9-9.9
				c0.4-0.4,0.8-0.9,1.2-1.1l20.2-3.1l-9-16.7c1.5-0.6,28-5.3,30.7-5.9c2.6-0.5,5.1-0.9,7.7-1.4c2.2-0.5,1.8-0.6,3.5,0.4l14.4,8.2
				c-1.6-6.2-3.1-12.4-4.8-18.6c-0.4-1.5-0.8-3.1-1.2-4.7c-0.5-2.3-1.1-1.8-3.2-2.6c-1.4-0.6-2.9-1.1-4.3-1.6
				c-1.3-0.5-3.2-1-4.1-1.7l55.8-0.6c3.4-0.1,3.3,0.3,6,1.5C-8,248.3-1.3,251.9,5.6,254.8z M-19.7,232c0.9,0.4,4.2,3.4,4.9,4.2
				c2,2.7,3.4,2.6,5.7,5.6l3.5,3.1c0.4,0.4,0.9,0.7,1.2,1.1c1.1,1.2,0.1,0.6,2.2,2.3l1.1,1.2c-2.4-1-13.7-7.3-17.3-9.2
				c-6.2-3.2-4.4-3.1-9.8-2.8l-36.6,2.6c-7.9,0.6-16.5,1.5-24.4,1.8c0.4,0.5,8.4,4.9,10.1,5.8c0.7,0.4,1.1,0.6,1.7,0.9l1.6,1.1
				c-1.3,0-5.5,0.1-6.4-0.1l-26.3-16.7c0.3,1.2,4.1,6.4,5,7.6l5.2,7.8c0.8,1.2,1.8,1.7,3.6,2.8c1.3,0.8,2.7,1.8,4,2.6
				c1.2,0.8,7.4,4.6,7.8,5.2l-57.7,11.7l0.8,0.4c0.3,0.1,0.5,0.1,0.8,0.2c0.5,0.1,1.1,0.2,1.6,0.4c1.6,0.4,9,2.2,10.1,2.9
				c1-0.1,2.9,0.5,4,1l0.4,2.9l-17.8-3c-0.8,0.8-19,9.2-21.2,10.1c1.1,0.2,5.4-1.2,7-1.6c4.1-1,3-0.8,6.6,0.9c2,1,4,1.9,6,2.9
				c1.9,0.9,4.3,2.4,6.1,3c-0.3,0.9-2.1,2.9-2.7,3.6l-11.1,14.4c-1.8,2.2-1.5,1.9-1,4.5l3,16.1c0.4,2.5,1,2.6,0,5.1l-10.6,27.9
				c1-0.5,3.7-3.9,4.7-5c0.7-0.8,1.1-0.8,1.8-1.5l4.4-5c1.8-2.1,2.2-0.6,4.1-5.6c0.6-1.5,1.2-3.1,1.7-4.6c1.1-2.9,2.3-6.5,3.5-9.3
				c1.9-0.2,2.2,0.1,2.8,0.9c0.4,0.5,1.1,2,1.2,2.5c0.6,0.6,3.4,6.2,4.5,7.8c1.4,2.8,3,5.4,4.5,8.2c0.9,1.7,4.2,7.1,4.4,8.5
				c0.6-0.6,0.3-0.1,0.5-1c0,0,0.1-0.8,0.1-0.8c0-0.7-0.1-0.8,0.1-1.5l0-0.5c-1.1-12.1,0.5-10.9,6.5-21.5l3-5.2c0,0,0.1-0.1,0.1-0.1
				l0.3-0.3c0-0.1,0.1-0.1,0.1-0.1l3.4,11.3c0.6,1.1,0,0.6,1.2,1.4l4.8,3.5c-0.8,0.8-1.7,1.3-2.5,2c-0.6,0.5-0.5,0.7-1.1,1.2
				c-0.3,0.3-0.7,0.6-1.1,0.9c-2.4,1.8-1.9,2.3-4.7,4.1c-0.5,0.9-0.9,1.1-1.9,1.8c-1.5,1.1-0.8,0.8-1.6,1.7c-0.5,0.5-1.4,1.1-2,1.6
				c-0.9,0.7-0.9,1-1.6,1.7c-1.7,1.6-0.5,0.1-2.8,2.6l-4.3,3.9c0.1,1.9,0.7,9.2,1.1,10.5l0-0.1l1,0.1c0-1.4,0.1-0.9,0.5-1.9
				c0.3-0.7,0.3-1.5,0.6-2.1c-0.2-0.7,0.4-2.8,0.4-4c1.3-0.5,8.1-6.1,9.1-6.4l13.5-9.8c1.2-0.9,3.7-3,5-3.3l-0.8-0.6
				c1,0,1.1-0.1,2.3-1.1c0.4-0.3,0.6-0.7,0.9-0.9c1.4-0.9,0.6-0.5,0.9-0.1c0.3-0.3,0.9-0.7,1.4-1.1c0.9-0.7,1-0.5,1.6-1.3
				c0,0,0.3-0.3,0.3-0.3c0,0,0.1-0.1,0.1-0.2c0-0.1,0.1-0.1,0.1-0.2l-1.7-10.5c-1.3-0.9,0.7,1.4-0.8-0.3c-0.4,1.9-0.9,1.1-2.3,2.6
				c-0.5,0.6-0.4,0.6-1.1,1.2c-0.4,0.4-0.8,0.7-1.3,0.9l0.6-3c0.9-5.6,0.8-3.9,2.1-5.9c1-1.3,0.6-1,1.4-1.4c0.3-0.8,1.9-2.7,3.1-3.3
				l50.7-20c6.1-2.4,12.5-4.8,18.5-7.3c12.2-5.1,24.8-9.7,37-14.6c6.1-2.5,12.3-4.9,18.5-7.3c3.1-1.2,6.2-2.5,9.3-3.7
				c2.6-1,3.6-1,4.2-2.2c0.4-0.9,1.8-4,2-4.3l3.7-5.5c1.7-2.3-1.5-6.1-1.9-12c-0.9,0.5-1.3,0.9-2.1,1.5c-1,0.8-4.1,3.5-5.1,4
				c-1.6-2.6-5-13.7-7-14.7l-14.9-6.5c-1.8-0.8-8.8-4.2-10.1-4.2l9.5,12.7c0.7,0.9,0.9,0.8,1.3,1.8l-58.7-20.9l2.7,2.5
				c1.1,0.9,2.3,1.7,3.1,2.8c0.7,0.9,0.6,0.8,1.3,1.5C-22.3,229.1-20.6,230.2-19.7,232z"/>
			<path class="st10" d="M65.3,331.9l-123.8,45.5c0.2,1,0.4,1-0.1,1.7c0.8,0,1.5,5.2,1.8,6.7c0.8,3.6,0.4,3.7-0.3,7.1
				c-0.8,4.7-2,9.6-2.6,14.3c1.4-0.7,0.6-1,1.6-1.7l6.4-7.7c0.4-1,6.5-7.9,7.8-9.8c1-1.4,1.4-1.5,2.6-3.2c0.7,0.6,1.1,2.1,1.5,2.9
				l2.7,6.3c0.8,2,0.7,1.4,2.2,2.4l10.8,7.2c-0.2-2.1-8.4-18.9-7.6-20.3c0.3-2.3,3.9-10.5,5-13.9c0.6-1.9,0.2-1,1.9-2
				c1.1-0.7,3.6-2.3,4.8-2.7c0.2,0.2,0.4,0.4,0.6,0.6c0.6,0.6,0.3,0.1,0.5,0.7c0.9,0.4,1.4,1.2,2.1,1.8c0.7,0.7,1.2,1.2,1.9,1.9
				c0.9,0.9,3.3,2.9,3.7,3.9c0.5-0.1,3.1,2.8,3.6,3.3c0.9,0.9,3.3,2.8,3.5,4.1c0.6,4.2,0.6,9.9,0.9,14.3l4.3-5.1
				c0.5-0.5,0.3-0.2,0.7-0.8c0.3-0.4,0.2-0.4,0.5-0.7l4.4-5.3c2.2-3,8.2-9.6,10.1-12.3c-1.3,0.9-2.6,1.9-3.6,3.2
				c-1,1.2-2.3,2-3.5,3.1c-1.1,1-0.7,1-3.4,3.2c-1.4,1.1-1,1.5-3.5,3.2c-1.4-0.8-6.1-6.4-7.9-7.7c0.3-1.2,2.1-4.2,2.9-5.4
				c-0.7-1.4-3.9-5.2-4.4-6.4l74.1-29l-2.2,11l0,0.8l0.3,0.3l8.5,13.2c-0.1-1.8-0.6-3.9-0.4-5.7c-0.6-1.5-1.1-10.3-1.4-12.7
				c-0.4-4.2-0.8-8.4-1.1-12.6L65.3,331.9z"/>
			<path class="st10" d="M32.7,378.5c0.9,2.4,1.1-1.6,1,5.2c0,2-0.1,4.1-0.1,6.1c-0.1,3.8-0.2,7.8-0.1,11.6c0.8-0.9,1.1-1.7,1.7-2.6
				c3.8-5.4,9-14.7,13-20.6c0.6,0.5,0.3-0.7,0.2,0.5c0.7-0.6,0.9-1.7,1.2-2.6c0.4-1,0.9-1.6,1.4-2.4c0.8-1.4,2-3.5,3.1-4.8l2.1,2.8
				l2.1,3.7c1-1,1.5-6.4,1.7-7.7c0.5-2.6,0.9-5.2,1.4-7.8c-3.7-0.4-3.9-2.3-5.7,0.1c-0.4,0.5-0.9,1.1-1.3,1.5l-2.5,3.1
				c-0.3,0.4-0.3,0.3-0.6,0.7c-4.9,5.8-4.4,6.3-8.1,13.3l-2.1,3.8L32.7,378.5z"/>
		</g>
		<g>
			<path class="st11" d="M40.6,409.4c0.5,1.6,39.2,79,41.4,83.4c4.6,9.4,9.5,18.5,13.7,27.7l-19.5-25.2c-0.4-0.6-0.4-0.7-1-1.3
				l-28.8-37.4c-0.8-1.1-1.1-1.8-2.3-2.5l-19.4-13.3c-0.3-0.7,2-19,2.4-22.5c0.1-1.3,0.3-2.6,0.4-3.9c0.1-0.6,0.1-1.2,0.2-1.8
				l0.5-1.8L40.6,409.4z M61.3,359.9c-0.5,2.6-0.9,5.2-1.4,7.8c-0.2,1.3-0.8,6.7-1.7,7.7l-2.1-3.7c-0.1,2.7-2.5,10.7-3.3,13.8
				c-2,7.9-1.7,4.5,1.1,13.3c2.8,8.5,6.1,16.8,9,25.2c2.9,8.4,6,16.8,9,25.2c2.9,8.1,6.3,16.9,8.8,24.9c-1.4-1.7-2.3-2.7-3.3-5.1
				l-18-42c-3-6.9-7.7-17.3-10.3-23.9l-5.1-12c-0.2-1.3,4.1-10,4.3-12.5c0.2-1.2,0.4,0-0.2-0.5c-4,5.9-9.2,15.2-13,20.6
				c-0.7,1-1,1.7-1.7,2.6c-0.1-3.8,0.1-7.8,0.1-11.6c0-2,0.1-4.1,0.1-6.1c0.1-6.8,0-2.8-1-5.2l-5.7-6.1c-0.7-0.9-0.9-0.8-1.6-1.5
				c-0.5-0.6-0.8-1.2-1.3-1.7c-0.7-0.8-2-1.6-2.7-3.2c-1.2,0.7-1.6,1.5-2.7,2.8l-2.1,2.5c-1.9,2.7-7.9,9.3-10.1,12.3l-4.4,5.3
				c-0.3,0.4-0.3,0.4-0.5,0.7c-0.4,0.6-0.2,0.3-0.7,0.8l-4.3,5.1c-0.3-4.4-0.3-10.1-0.9-14.3c-0.2-1.3-2.6-3.2-3.5-4.1
				c-0.5-0.5-3.1-3.4-3.6-3.3c-0.5,2.1-0.7,4.3-1.1,6.4c-0.6,3.3,0.3,3.2-2.5,4.6c-1.7,0.8-8.6,4-9.5,4.9l11,1.8
				c0.5,1.1,1.1,3.8,1.4,5c1.1,4.7-2.6,9.6-4.7,13.4c-0.7,1.4-1.5,2.8-2.3,4.1c-1.3,2-7.3,8.9-9.4,11.5l-11.5,14
				c-0.3,0.4-0.3,0.5-0.6,0.9l-2.9,3.5c-1.6,2-2.9,3.2-3.8,5.7c-0.5,1.4-1,3.2-1.7,4.4c-0.8,3-2.2,5.4-3,8.8l4.9-1.1
				c-2.6-5.4-3.8-3.1,0.6-9.6c2.7-4,3.6-6.3,6.9-8.6l4.6-3.4c3.2-2.3,6.2-4,8.4-7.2c1-1.4,2-3.2,3-4.7l12.2-19
				c0.8-0.9,1.2-1.5,2-2.1l4.1-3.6c1.1-1.3,1.1-0.9,3-2.9c0.3-0.3,0.6-0.5,1-0.8c1.9-1.4,1.1-1,2-1.9c0.7-0.7,1.5-1,2.1-1.7
				c0.6-0.7,0.2-0.5,1-1.1c0.4-0.3,0.7-0.4,1.2-0.7c1-1.7,2.3-2,3.6-3.5l7.3-6.5c0.4-0.4,0.4-0.6,0.8-1c0.7-0.7,1.8-1.2,2.7-2.2
				c0.5,0.5,1.2,0.8,1.7,1.3c0.8,0.7,0.5,0.7,1.5,1.3c0.6,0.5,0.7,0.7,1.3,1.2c0.8,0.7,3.6,2.7,3.8,3.5c0.2,1.2-11.8,49.8-12.5,55.4
				l14.8,7.3c1.6,0.8,10,4.7,10.9,5.7c0.5,0.6,0.8,1.1,1.2,1.6c0.4,0.5,0.7,0.8,1.1,1.4l2.5,3.2c0.4,0.5,0.7,1,1.2,1.6
				c0.5,0.6,0.8,1,1.2,1.6l4.8,6.2c0.4,0.5,0.9,1.1,1.3,1.5c0.6,0.7,0.6,0.9,1.2,1.6l19.3,24.9c0.4,0.5,0.9,1.1,1.3,1.5l2.3,3
				c0.4,0.6,0.9,1.1,1.2,1.6c0.6,0.7,0.6,0.9,1.2,1.6L99.9,534c0.4,0.5,0.2,0.1,0.5,0.8l-119-18.5c1.2,1.2,3.9,1.2,5.1,2.5
				c1.4,0,16.9,6.7,19.7,7.8c3.3,1.3,6.5,2.6,9.8,4c2.6,1.1,7.6,3.4,10,3.9c0.5,0.5,20.8,8.5,23.4,9.6c3.5,1.4,3,1.4,7,0.9l15-1.5
				c1.5-0.2,2.3-0.5,3.4,0.2l27,18.7c0.9,0.6,1.5,1,2.4,1.6l12.3,8.4l2-24.5c-0.5-1.3-1.6-3.3-2.4-4.6c-0.9-1.4-1.6-3.1-2.4-4.5
				c-1.7-2.9-3.2-6-5-8.7c-0.4-1.2-1.8-3.5-2.5-4.7c-5.4-9.2-10.2-24-14.9-34.5c-0.1,0-0.1,0.1-0.1,0.1c-0.3-0.1,0.4,0.6-0.2-0.1
				l-2.8-7.6c-2.9-7.8-7.2-17.9-10.4-25.6l-13.9-33.9c1.7,1,3.8,4.5,6,5.9c-3.1-10.8-6.7-22.3-10.1-33.1c-1.4-4.5-1.4-3.8,0.1-8.4
				c1.6-4.7,6.2-22,7.4-24.8l2.9,1.2l5.7,2.2l2-7.8l-3.5-2.9c-0.7-0.8-0.2-0.5-1.2-0.9c-0.3,1.8,0.3,3.9,0.4,5.7l-8.5-13.2
				c-0.9-0.2-0.2,0.1-1-0.5c-0.4-0.3-0.2-0.2-0.7-0.5L61.3,359.9L61.3,359.9z"/>
			<path class="st11" d="M-49.2,344.3l4.5,25.7l-7.1,2.6l-1.8,0.8l-4.4-25.1l-13.6,5.3c0.3,4.7,4.4,23.3,4.1,25.3l-8.8,3.5
				l-9.6-56.1c2.3-0.2,6.6-2.9,9.1-3.4l3.8,22.4l13.6-5.4l-3.8-22.5l9.1-3.7L-49.2,344.3z M-46.9,317.9l-0.9-6.6l1.8-0.6
				c0.6-0.5,6.4-2.8,7.1-2.8c1.4,7.8,2.8,15.6,4,23.4l3,17.4c0.4,2.2,0.3,3.6,1.6,5.3c1.9,0.2,5-1.5,6.8-2.2
				c1.1-0.4,2.1-0.8,3.1-1.2c1.5-0.6,2.2-0.6,2.7-2c0.7-2.4-6.9-39.9-7.4-46.4c1.4-0.4,8.5-3.5,8.9-3.3c0.5,0.5,5.2,30.4,5.9,33.9
				c0.8,4.1,2.8,13.7,2.1,17.4c-0.6,3.1-2.2,4.9-3.8,6.1c-3.1,2.1-18.8,8.4-21.7,8.4c-5.9,0-6.3-7.5-7.2-12.7
				c-1-5.7-1.9-11.3-2.9-17C-44.5,331.5-46.2,320.2-46.9,317.9z M-9.8,296.2l8.9-3.5l8.2,47.5c3.1-1,6.5-2.6,9.6-3.8
				c1.6-0.6,3.1-1.2,4.8-1.9c1.7-0.7,3.4-1.6,4.5-2.1l1.6,8.7l-28.2,11.1L-9.8,296.2z M46.6,301.9l1,0.3c2.5,0.6,3.4,2,4.9,4.4
				l12.1,19.6c-0.4,0.3,0,0.1-0.5,0.3l-4.6,1.8c-1.7,0.7-3.5,1.5-5.2,2c-1.2-1.1-9.5-17.1-11.8-20.2c-1.5-2.1-5.5,0-7.8,1.1
				c-0.1,1.5,3.6,21.9,4.2,25.1l-2.2,1c-0.7,0.3-1.5,0.6-2.2,0.9c-1.4,0.6-3.3,1.5-4.7,1.8l-9.4-55.9l8.9-3.5
				c1.1,2.5,3.1,20.1,4.1,22.4c1.8-0.5,5.7-1.9,6.5-3.3c1.2-2.3,1.4-5.4,1.8-8c0.5-3.1,2-15.2,2.6-17c1.6-0.7,3.3-1.3,4.9-2
				c1.6-0.6,3.5-1.8,5-1.8c-0.9,4.3-3.8,25.1-5.4,28.3C47.7,301.3,47.3,301,46.6,301.9z M-89.3,327.1l0,3.3l0.5,2.2
				c1.5,1.6-0.5-0.6,0.8,0.3l1.7,10.5c0.6-0.2,0.4-0.1,0.8-0.4c0.8,5,1.6,9.8,2.3,14.8c0.4,2.3,2.6,13.5,1.4,14.4l2.1,12
				c0.3,1.4,0.9,2.1,1.7,3.1l19.4-8.2c0.5-0.7,0.3-0.7,0.1-1.7l123.8-45.5c-0.4-6.3-0.7-12.4-1.1-18.7c-0.6-10.2-0.3-5.1-5.5-14.1
				c-0.9-1.5-2.2-14.4-2.5-17.2c-0.3-2.5-2.3-16.3-2.1-17.5c-0.2,0.3-1.6,3.5-2,4.3c-0.6,1.2-1.5,1.2-4.2,2.2
				c-3.1,1.2-6.2,2.5-9.3,3.7c-6.2,2.4-12.4,4.8-18.5,7.3c-12.2,4.9-24.8,9.5-37,14.6c-6,2.5-12.4,4.9-18.5,7.3l-50.7,20
				C-87.5,324.5-89,326.4-89.3,327.1z"/>
			<path class="st11" d="M120,533.4c0.7-7.4,1.2-14.7,1.8-22.1l3.2-38.5c0.2-2-0.6-2.9-1.3-4.6c-2.3-5.3-4.7-11.3-7.2-16.4
				c-0.6,1.6-3.6,16.6-4.4,19.8c-1.2,5.4-1.6,5.5-0.8,10.3c2.9,17.2,6,34.7,8.6,51.8L120,533.4z"/>
			<polygon class="st11" points="-27.3,493.1 -18,472.3 -28.4,469.7 			"/>
			<path class="st11" d="M-31.8,383.2l5.1,1.9L-19,366c-0.2-0.6,0.1-0.1-0.5-0.7c-0.2-0.2-0.4-0.4-0.6-0.6c-1.1,0.4-3.6,2-4.8,2.7
				c-1.6,1-1.2,0.1-1.9,2C-27.9,372.7-31.5,380.9-31.8,383.2z"/>
		</g>
		<g>
			<path class="st12" d="M5.6,254.8c-6.9-3-13.7-6.6-20.4-9.7c-2.7-1.3-2.6-1.6-6-1.5l-55.8,0.6c0.9,0.7,2.8,1.3,4.1,1.7
				c1.4,0.5,2.9,1,4.3,1.6c2.1,0.8,2.7,0.3,3.2,2.6c0.4,1.6,0.7,3.2,1.2,4.7c1.7,6.2,3.2,12.4,4.8,18.6l-14.4-8.2
				c-1.7-1-1.3-0.9-3.5-0.4c-2.6,0.5-5.1,0.9-7.7,1.4c-2.7,0.6-29.2,5.3-30.7,5.9l9,16.7l-20.2,3.1c-0.4,0.2-0.8,0.7-1.2,1.1l-9,9.9
				c-0.8,0.7-0.6,1.1-2.1,2.5l-3.4,3.8c-0.6,1.1,0.9,5.8,1.2,7.5c0.6,2.6,1.1,5.2,1.8,7.7c0.7-0.4,2-2.4,2.2-3.1
				c0.5,0.3,1.4,1.1,1.7,1.5l9.6,10.8c0.4,0.4,0.4,0.5,0.8,0.9c0.7-0.4,0.7-0.7,1.3-1.4c0.6-0.6,0.7-0.9,1.3-1.5l9.1-11.1
				c0.3-0.4,0.3-0.3,0.6-0.7l8.6-10.5c-0.6,2.1-4.5,10.7-4.5,11.3c0,0.8,0.3,1,0.8,1.7c1.1,1.7,8.5,14.1,9.2,14.8
				c0.5-1.4,0.7-4,0.9-5.7c0.7-4.5,3.7-10.2,5.6-14.5c0.8-1.9,0.9-1.3,4.1-2.5l14.9-5.3c13.3-4.7,26.3-9.4,39.6-14.1
				c13.2-4.6,26.6-9.2,39.6-14c3.2-1.2,6.5-2.4,9.8-3.5c4.6-1.5,15.1-7.3,18.6-8.2c3.6-0.9,7.1-1.9,10.7-2.7c0-1.7,0.2-4.8-0.1-6.2
				L39.4,247c-2-0.3-5.8-0.2-8.1-0.3c-3.1-0.1-3.8-0.8-6.4-1.9l-35.5-15.1c0.4,1,0.4,0.7,1.1,1.4c0.6,0.5,0.6,0.8,1.1,1.4l7.2,8.1
				c0.4,0.5,2.9,5.9,3.4,6.9C3.3,250,4.6,252.4,5.6,254.8z"/>
			<path class="st12" d="M16.7,371.2l2.1-2.5c1.1-1.3,1.5-2.1,2.7-2.8c0.7,1.6,2,2.4,2.7,3.2c0.5,0.5,0.8,1.2,1.3,1.7
				c0.7,0.7,0.9,0.6,1.6,1.5l5.7,6.1l8.2,4l2.1-3.8c3.7-7.1,3.2-7.5,8.1-13.3c0.3-0.4,0.3-0.3,0.6-0.7l2.5-3.1
				c0.4-0.5,0.9-1,1.3-1.5c1.8-2.4,2-0.5,5.7-0.1l2.5-13.3l0.2-1.2c0.4,0.5,0.4,0.7,1.1,1.1l2.2-11l-74.1,29
				c0.5,1.3,3.6,5.1,4.4,6.4c-0.7,1.2-2.5,4.2-2.9,5.4c1.8,1.2,6.5,6.8,7.9,7.7c2.5-1.7,2.1-2.1,3.5-3.2c2.7-2.2,2.3-2.2,3.4-3.2
				c1.2-1.1,2.6-1.9,3.5-3.1C14.1,373.1,15.3,372.1,16.7,371.2z"/>
		</g>
		<path class="st13" d="M78.3,358.9l-2,7.8l-5.7-2.2c0.5,1,1.1,1.6,1.8,2.4c0.7,0.9,1.3,1.5,1.9,2.4l11.6,14.4
			c0.4,0.5,0.6,0.7,0.9,1.1c0.4,0.5,0.4,0.6,0.9,1.2c0.6,0.8,1.4,1.7,1.9,2.4c0.7,0.9,1.3,1.5,1.9,2.4c0.4,0.5,0.5,0.6,0.9,1.1
			c0.4,0.5,0.6,0.8,1,1.3c5.3,6.8,3.4,2.6,4.4,13c0.5,5.6,4.6,63.3,4.4,64l-4.5-0.8c-0.1,2.4,2.2,12,2.8,15.1
			c2.6,13.5,5.3,28.7,8.1,41.9c0.3,1.4,0.8,3,0.4,3.8c1.8,2.8,3.3,5.8,5,8.7c0.8,1.4,1.5,3,2.4,4.5c0.8,1.3,1.9,3.3,2.4,4.6
			c1.2,1.1,3.4,6.2,4.6,7.9c-0.3-3.3-1.2-7.6-1.8-11c-0.4-2.2-1.9-9.5-1.7-11.3l-0.1,0.2c-2.6-17-5.8-34.6-8.6-51.8
			c-0.8-4.8-0.4-4.8,0.8-10.3c0.7-3.2,3.7-18.1,4.4-19.8c0.1-2.3,1.5-7.3,2-9.8c0.7-3.3,1.4-6.7,2.1-9.9c0.7-2.8,4.3-18,3.9-19.6
			c-0.6-0.1-0.1,0.1-0.7-0.7l-19-24.7c-5.2-6.6-13.6-17.3-18.3-23.8l-5.6-7.2c-0.4-0.6-0.7-1.1-1.3-1.6
			C78.8,355.4,78.7,357.6,78.3,358.9z"/>
		<path class="st14" d="M4.6,394.4l-21.9,61.8c0.7,0.6,1.1,1.2,1.8,1.8l1.9,1.7c1.4,1.6,5.7,6.5,7.1,7.5c1.2,0.8,2.8,2.6,3.7,3.8
			l-20.9,25.7c-0.3,0.4-0.7,0.9-1,1.2c-1.3,1.7-9.3,11.8-10.2,12.4l-1.5,3.2l1.2,0.2c1.3-1.2,1.4,0.1,4.9-2.7l35.2-28.3
			c7.3-5.8,12.9-10.3,20.7-16.1l8.8-6.8l-24.2-10.7l10.1-57.3c0.5-2.9,1.4-5.2,2-8c-1.1-0.7-0.7-0.6-1.5-1.3
			c-0.5-0.5-1.1-0.8-1.7-1.3c-0.9,1-2.1,1.6-2.7,2.2c-0.4,0.4-0.4,0.5-0.8,1l-7.3,6.5C6.9,392.4,5.6,392.7,4.6,394.4z"/>
		<path class="st15" d="M-110.4,387.5c-0.3,0.9-0.7,2-1,3.1c-1.1,3.3-1.2,2,3.9,7.1c1.5,1.5,7.6,7.2,8.3,8.6l16.1-4.8
			c1.3,1.5,2.2,3,3.4,4.6c2.5,3.3,7.3,10.7,9.6,13.3c1-0.2,0,0.2,1-0.6l4.7-5.3c0.3-0.4,0.4-0.7,0.8-1l3.9-4.3
			c0.7-0.6,0.3,0,0.9-0.8c0.2-0.2,0.1-0.2,0.3-0.5c0-0.1,0.3-0.4,0.4-0.4c0.4-0.5,0.1,0.5,0.2-0.4c0.1-0.7,0.1-0.2-0.1-0.6
			c-1,0.7-0.2,1-1.6,1.7c0.7-4.7,1.8-9.6,2.6-14.3c0.6-3.5,1-3.5,0.3-7.1c-0.3-1.5-1-6.6-1.8-6.7l-19.4,8.2c-0.9-1-1.5-1.7-1.7-3.1
			l-2.1-12l-0.1-0.6l-0.5,0.5c-0.1,0.1-0.2,0.3-0.2,0.3l-12.7,20.2L-110.4,387.5z"/>
		<path class="st16" d="M-31.8,383.2c-0.7,1.3,7.4,18.2,7.6,20.3l-10.8-7.2c-1.5-1-1.5-0.4-2.2-2.4l-2.7-6.3
			c-0.4-0.8-0.8-2.3-1.5-2.9c-1.2,1.8-1.5,1.8-2.6,3.2c-1.3,1.9-7.5,8.8-7.8,9.8l10.6-5c0.7,1.3,1.5,4.3,1.9,6
			c1.2,4.1,1,2.8,3.5,6.4l5.8,7.5c0.7,1-0.6-0.9,0.2,0.3l0.2,0.3c-0.4,0.9-0.9,1.7-1.5,2.6l-19.8,31.7c-1,1.4-1.1,9.9-1.2,12
			l2.4-5.5c0.5-0.7,0-0.8,0.5-0.2c0.7-1.2,1.2-3,1.7-4.4c0.9-2.4,2.1-3.7,3.8-5.7l2.9-3.5c0.3-0.4,0.4-0.5,0.6-0.9l11.5-14
			c2.1-2.7,8.1-9.5,9.4-11.5c0.8-1.2,1.6-2.7,2.3-4.1c2.1-3.8,5.8-8.7,4.7-13.4c-0.3-1.2-0.9-3.9-1.4-5l-11-1.8
			c1-0.9,7.9-4.1,9.5-4.9c2.8-1.4,1.9-1.3,2.5-4.6c0.4-2.1,0.6-4.3,1.1-6.4c-0.4-1-2.8-3-3.7-3.9c-0.7-0.7-1.2-1.2-1.9-1.9
			c-0.7-0.7-1.1-1.4-2.1-1.8l-7.7,19.1L-31.8,383.2z"/>
		<path class="st17" d="M48.3,378.7c-0.2,2.5-4.6,11.1-4.3,12.5l5.1,12c2.6,6.6,7.3,17,10.3,23.9l18,42c1.1,2.4,2,3.5,3.3,5.1
			c-2.5-8-5.9-16.8-8.8-24.9c-3-8.4-6.1-16.8-9-25.2c-2.9-8.4-6.2-16.8-9-25.2c-2.9-8.8-3.2-5.3-1.1-13.3c0.8-3.1,3.1-11.1,3.3-13.8
			l-2.1-2.8c-1,1.3-2.3,3.4-3.1,4.8c-0.5,0.8-1,1.5-1.4,2.4C49.1,377,48.9,378.1,48.3,378.7z"/>
		<path class="st18" d="M-85.3,440.6l-0.2-1.1l-6.8,2c-0.3-1.5,0.5-2.4,1.1-3.6c0.7-1.6,0.5-1.7,2-2.6c1.8-1,4.2-2.4,6.1-3.2
			c1.1-0.8,7.2-3.8,8.9-4.8c-0.9,2.6-2.8,5.7-4.1,8.3c-1.6,3.4-0.9,4.3-6.7,6L-85.3,440.6z M-106.7,419.4l-0.9,0
			c0.3,0.7,2.9,1.6,3.7,2c1.6,0.5,3.8,1.2,4.5,2.6c0.7,1.5,1.5,3.2,2.1,4.8c1.5,3.5,2.9,5.8,3.8,9.7l1,3.7l6.5-1.9l0.3,2.4
			c0.7,0.4,1-0.3,2.1-0.5c0.6-0.6,1.7-1,2.5-1.4c1.4-0.6,1.3-0.4,1.9-1.9c0.7-1.6,1.7-3.7,2.6-5.2l5.1-10.8
			c-2.6-0.8-6.2-4.6-8.4-5.9L-106.7,419.4z"/>
		<path class="st19" d="M-130.3,376.3c0.3,1.7-1.9,10.7-2.4,13.1c-0.4,1.8-1.3,5-1.2,6.7c0.2,2.3,0.6,4.8,0.8,7.2
			c0.1,0,0.1-0.2,0.1-0.1c0.2,0.4,4.4-6.6,5.9-7l11.4-1.3c0.1-2.6-0.8-7.2-0.8-8.1c0-2-0.4-0.6,0.5-1.3c0-0.5,0.1-0.3-0.5-0.2
			c-1.5-0.1-4.9-1.5-6.6-2l0.5-6.3c-1.3-0.2-0.2,0.1-0.7-0.5l0,0.1l-3.9-1.5l-1.4-9.4l0,0.9c-1.1,0.2-4.4,1.6-5.1,2.2
			c0.6,1.1,1.3,2.6,2,3.8C-131.2,373.8-129.9,375.2-130.3,376.3z"/>
		<path class="st20" d="M-109.1,382.8l-1.3,4.7l15.1,5.1l12.7-20.2c0-0.1,0.2-0.3,0.2-0.3l0.5-0.5l-1-5c-0.9-0.3-6.1,1.3-6.9,1.7
			c-0.8,0.4-5.4,6.3-6.2,7.4l-5.9,7.1L-109.1,382.8z"/>
		<path class="st21" d="M-112.1,367.8l1.4-2.5c1.2-0.1,3.8,0.5,5.2,0.7c0.9,0.2,4.6,0.5,4.3,1c-0.4,1-3.7,6-4.6,6.9
			c-0.6,0.7-0.8,0.6-1.9,0.8c-0.9,0.2-1.7,0.3-2.6,0.5c-1.6,0.3-3.3,0.7-4.9,0.9l-0.9-1.2C-115,372.7-113.4,369.9-112.1,367.8z
			 M-111.8,362.2c-1,0.3-7.8,5.9-9.1,6.4c-0.1,1.2-0.6,3.3-0.4,4l1.5,4.4c1.3,0.2,0.6,0.5,2.3,0.5l9-0.2c1-0.1,0.6,0.1,1.6-0.8
			l3.8-3.1c0.8-0.6,0.8-0.9,1.6-1.5c0.9-0.7,0.8-0.5,1.7-1.4l10.2-8.1c0.6-0.5,1.2-0.9,1.7-1.4l-4.6-7.3l-3.5,3.2
			c-3.8,2.9-7,1.4-10.9,2.9C-108.8,360.4-110.1,362.1-111.8,362.2z"/>
		<path class="st22" d="M-90,346.4c-0.4,0.3-0.4,0.3-0.7,0.5c1.2,2.4,4.2,5.8,4.9,7.3c-1-0.6-7.1-4.4-7.5-5.1
			c-1.3,0.3-3.8,2.4-5,3.3l-13.5,9.8c1.7-0.1,3-1.8,4.6-2.4c3.9-1.5,7.1,0,10.9-2.9l3.5-3.2l4.6,7.3c-0.5,0.5-1,0.9-1.7,1.4
			l-10.2,8.1c-0.9,0.9-0.8,0.7-1.7,1.4c-0.8,0.6-0.7,0.9-1.6,1.5l-3.8,3.1c-0.9,0.8-0.6,0.7-1.6,0.8l-9,0.2c-1.7,0-1-0.3-2.3-0.5
			c-0.6,0.3-0.5,0.3-1.1,0.5c0.4,0.4,0,0.1,0.7,0.5c2.2,1.2,4.5,1.8,7,1.9c3.3,0.1,6.6,0.6,9.8,0.7c0.6-1.3,0.3-2.7,0.8-3.8
			c0.2-0.6,11.8-9.3,12.7-9.7l5.1-1.6c0.9-0.3,1.1-0.4,1.8-0.2c-0.2-3-1.4-7.8-1.9-11c-0.3-1.8-0.7-3.6-1-5.4
			c-0.1-0.4-0.2-0.9-0.2-1.3l0-1.1c0-0.1,0-0.1,0-0.2c0.1-0.8,0.1-1.6-0.6-2.3c-0.6,0.9-0.7,0.7-1.6,1.3
			C-89,345.7-89.6,346.1-90,346.4z"/>
		<path class="st23" d="M-121,377.5c-0.5-1-0.8-0.3-1.5-0.9l-1-0.1c0.5,0.6-0.6,0.3,0.7,0.5l-0.5,6.3c1.8,0.6,5.1,1.9,6.6,2
			l-0.4-2.6l7.8,0.1l7.2-0.1l5.9-7.1c0.8-1.1,5.4-6.9,6.2-7.4c0.7-0.4,5.9-2,6.9-1.7l-0.2-1.3c-0.7-0.2-0.9-0.1-1.8,0.2L-90,367
			c-0.9,0.4-12.5,9.1-12.7,9.7c-0.5,1.1-0.2,2.5-0.8,3.8c-3.2-0.1-6.5-0.5-9.8-0.7c-2.5-0.1-4.8-0.7-7-1.9
			C-120.9,377.6-120.6,377.9-121,377.5z"/>
		<path class="st24" d="M-139.6,368.1c0.6,0.8,1.1,1.4,1.7,2.2c0.5,0.7,1,1.3,1.6,2c0.1,0-0.5-0.4,0.2,0.1l0.2,0.2
			c1.5,1.1,1.1,1.3,1.8,2.1c1,1,0.9,0.7,2.2,2.7l-0.5,1.3c-1,3.6-1.7,8.6-2.4,12.4c-0.5,2.8-0.9,3.4-0.4,6.4
			c0.3,2.2,0.7,4.5,0.9,6.7l1.1-0.8c-0.2-2.4-0.6-4.9-0.8-7.2c-0.1-1.7,0.8-4.8,1.2-6.7c0.5-2.4,2.7-11.4,2.4-13.1l-6.1-9.1
			c-1.3-2-0.3-11.1-0.3-14.1c-0.5,0.6-2,4.8-2.5,6.6C-139.5,360.9-139.7,366.6-139.6,368.1z"/>
		<path class="st25" d="M-112.1,367.8c-1.3,2.1-2.9,4.9-4,7.2l0.9,1.2c1.6-0.2,3.3-0.6,4.9-0.9c0.9-0.2,1.7-0.4,2.6-0.5
			c1.1-0.2,1.3-0.1,1.9-0.8c0.8-1,4.1-5.9,4.6-6.9c-1.9,0.1-3.9,0.1-5.8,0.1c-0.8,0-2-0.1-2.8,0C-110.9,367.3-111,367.6-112.1,367.8
			z"/>
		<path class="st26" d="M-99.3,411.8c1.6,0.8,4.1,0.7,6,1.2c1.1,0.3,2.8,2.2,3.9,3.1c-1.1,0.6-12.3,2.3-15.2,2.8l-2.1,0.6l26.9-2.4
			c-0.9-1.1-2.1-1.7-3.3-2.7c-0.6-0.5-1.1-0.9-1.7-1.4c-0.8-0.6-1-0.7-1.7-1.3l-1.9-0.5L-99.3,411.8z"/>
		<path class="st27" d="M-99.2,406.3l13.4-2.1c1.4,2.2,5.9,6.4,7.8,8.1c1.3,1.2,7.4,7.5,8.3,7.9l-0.4-0.8c-2.3-2.6-7.1-10-9.6-13.3
			c-1.2-1.6-2.1-3.1-3.4-4.6L-99.2,406.3z"/>
		<path class="st28" d="M-85.3,440.6l3.7-5.3c0.4-0.6,0.8-1.4,1.1-1.8c-0.6-0.7-1.8-1.3-2.7-1.3c-1.9,0.8-4.2,2.1-6.1,3.2
			c-1.5,0.8-1.3,1-2,2.6c-0.6,1.3-1.5,2.2-1.1,3.6l6.8-2L-85.3,440.6z"/>
		<path class="st29" d="M-83.1,432.2c0.8,0,2.1,0.6,2.7,1.3c-0.3,0.4-0.7,1.2-1.1,1.8l-3.7,5.3l0.3,1.1c5.8-1.7,5-2.6,6.7-6
			c1.3-2.6,3.1-5.8,4.1-8.3C-75.9,428.3-82,431.3-83.1,432.2z"/>
		<path class="st30" d="M-86.4,343.3c0,0.1-0.1,0.1-0.1,0.2c0,0.1-0.1,0.1-0.1,0.2c0,0-0.3,0.3-0.3,0.3c0.8,0.7,0.7,1.4,0.6,2.3
			c0,0.1,0,0.1,0,0.2l0,1.1c0.1,0.4,0.2,0.9,0.2,1.3c0.3,1.8,0.7,3.6,1,5.4c0.6,3.1,1.7,7.9,1.9,11l0.2,1.3l1,5l0.1,0.6
			c1.2-0.9-1.1-12.1-1.4-14.4c-0.8-5-1.5-9.8-2.3-14.8C-86,343.2-85.8,343.2-86.4,343.3z"/>
		<path class="st31" d="M-116.6,385.3c0.6,0,0.5-0.2,0.5,0.2c0.7,0.6,4.7,1.9,5.6,1.9l1.3-4.7l-7.8-0.1L-116.6,385.3z"/>
		<path class="st32" d="M-78.7,452.8c1.2-0.3,2.5-1,3.7-1.6c2.2-1,1.9-0.8,2.2-3.2c0.6-3.7,0.8-5.5-0.3-9.2c-0.6,1.1-1.3,6.3-1.6,8
			C-75.4,450.7-74.5,450.2-78.7,452.8z"/>
		<path class="st33" d="M-93.5,438.5c-0.9-3.9-2.3-6.2-3.8-9.7c-0.7-1.6-1.4-3.2-2.1-4.8c-0.6-1.4-2.9-2.1-4.5-2.6
			c2.2,3,2.1-0.5,5.9,7.8C-97.2,431.1-94.4,437.4-93.5,438.5z"/>
		<path class="st34" d="M-112.1,367.8c1.1-0.2,1.3-0.6,2.3-0.7c0.7-0.1,2,0,2.8,0c1.9,0,3.9,0.1,5.8-0.1c0.3-0.4-3.4-0.8-4.3-1
			c-1.3-0.3-4-0.8-5.2-0.7L-112.1,367.8z"/>
		<path class="st35" d="M-92.9,334.4l-0.6,3c0.5-0.2,0.9-0.5,1.3-0.9c0.7-0.6,0.5-0.6,1.1-1.2c1.4-1.6,2-0.7,2.3-2.6l-0.5-2.2
			L-90,331c-0.8,0.7-0.6,0.7-1.1,1.5C-92.5,334.4-92.1,334.1-92.9,334.4z"/>
		<path class="st36" d="M-92.9,334.4c0.8-0.3,0.4,0.1,1.8-1.9c0.5-0.7,0.3-0.7,1.1-1.5l0.7-0.6l0-3.3c-0.9,0.4-0.5,0-1.4,1.4
			C-92.2,330.4-92.1,328.8-92.9,334.4z"/>
		<path class="st37" d="M-46.9,317.9c0.4-0.5,0.1,0.4,0.5-0.8l0.4-6.4l-1.8,0.6L-46.9,317.9z"/>
		<path class="st38" d="M-132.3,378.6l0.5-1.3c-1.3-2-1.3-1.6-2.2-2.7c-0.7-0.8-0.3-0.9-1.8-2.1l-0.2-0.2c-0.8-0.5-0.1-0.1-0.2-0.1
			c0.5,0.8,0.6,0.8,1.1,1.5l1.5,1.9C-131.9,377.9-132,376.9-132.3,378.6z"/>
		<path class="st39" d="M63.8,346.6c0.5,0.2,0.3,0.1,0.7,0.5c0.7,0.6,0.1,0.3,1,0.5l-0.3-0.3l0-0.8c-0.7-0.4-0.7-0.6-1.1-1.1
			L63.8,346.6z"/>
		<path class="st40" d="M-86.6,411.7c-0.4-0.7-0.9-0.8-1.9-0.5L-86.6,411.7z"/>
		<path class="st41" d="M-134.2,404.1l0.1,0.7c0.6-0.7,0.5-0.5,0.9-1.4L-134.2,404.1z"/>
	</g>
	<g id="_495797554544">
		<g>
			<path class="st0" d="M-93.3,349.1c0.4,0.8,6.5,4.6,7.5,5.1c-0.6-1.5-3.6-5-4.9-7.3c0.3-0.3,0.3-0.2,0.7-0.5
				c-0.3-0.4,0.5-0.8-0.9,0.1c-0.4,0.3-0.5,0.6-0.9,0.9c-1.2,1-1.3,1-2.3,1.1L-93.3,349.1z"/>
			<path class="st0" d="M-122.4,376.6c0.7,0.6,1-0.2,1.5,0.9c0.6-0.2,0.5-0.1,1.1-0.5l-1.5-4.4c-0.3,0.6-0.3,1.4-0.6,2.1
				C-122.4,375.7-122.5,375.2-122.4,376.6z"/>
		</g>
		<g>
			<path class="st1" d="M-135.2,415.5l-8.3-6.6c-1.1-0.9-1.4-0.5-3.6-0.6c1,2.3,3.3,3.2,5.6,4.2
				C-139.4,413.4-137.2,414.8-135.2,415.5z"/>
			<path class="st1" d="M-117.6,450.4c0.8-0.4,1.2-0.6,1.6-1.1c0.8-0.7,0.6-0.6,1.5-1l-0.2-2.1L-117.6,450.4z"/>
		</g>
		<g>
			<path class="st2" d="M-83.6,442.2c2.7-0.3,1.6-0.4,3.3-1.1l1,8c0.5-0.9,2.7-13.8,2.7-15.3c-0.8,1.5-1.8,3.5-2.6,5.2
				c-0.7,1.5-0.5,1.2-1.9,1.9C-82,441.2-83,441.6-83.6,442.2z"/>
			<path class="st2" d="M-92.5,442.2l-4.2,1.2c-0.3,0.2-0.4,0.2-0.5,0.3c2.6,0,10-1.6,11.5-1.1l-0.3-2.4L-92.5,442.2z"/>
		</g>
		<g>
			<path class="st3" d="M-139.8,447.1c2.5,0.1,5,0,7.4,0.1c3.6,0.1,3.3-0.1,6-1.6c1.6-0.9,3.3-1.7,4.9-2.7c1.4-0.9,3.9-1.6,5.4-2.2
				C-118.1,440.9-139.1,446.6-139.8,447.1z"/>
			<path class="st3" d="M-124.1,466.1l8-4.8c2.5-1.5,1.7-0.9,2.9-3.4c0.7-1.4,1.7-3,2.1-4.5c-2.2,1.4-1,1.1-3.2,3.2l-6.7,6.3
				c-0.6,0.6-1.1,1-1.7,1.6C-123.9,465.6-123.2,465.5-124.1,466.1z"/>
			<path class="st3" d="M-130.9,426.4c2.8,1,4.8,2.2,8,2.5c2.8,0.3,6.8,1.1,9.4,1.2c-1.3-0.6-10.3-4-12-4.1l-5.3,0.3
				C-130.8,426.3-130.8,426.3-130.9,426.4z"/>
		</g>
		<g>
			<path class="st4" d="M-104.3,412l-10.3,0.5l-3.6,0.4l4.2,7.3l6.5-0.7l0.9,0l2.1-0.6c2.9-0.4,14.1-2.2,15.2-2.8
				c-1.1-0.9-2.7-2.8-3.9-3.1c-1.9-0.6-4.5-0.4-6-1.2L-104.3,412z"/>
			<path class="st4" d="M-83.6,442.2c-1.1,0.1-1.5,0.8-2.1,0.5c-1.5-0.5-8.9,1.1-11.5,1.1c-1.4,0-5.3,1-6.2,1.7
				c0.8,0.4,2.4,1.7,3.2,2.3c1.1,0.9,2.4,1.5,3.3,2.6l17.6-1.3l-1-8C-82.1,441.8-80.9,441.9-83.6,442.2z"/>
		</g>
		<g>
			<path class="st5" d="M-133.1,403.4c-0.4,0.9-0.4,0.7-0.9,1.4l0.2,1l11.7-2.9c0.4,1.9,2.5,2.7-1.3,4.8l0.9,4.1
				c6.8,1.6,3.5,0.6,8,0.8l10.3-0.5c-0.5-0.8-9.1-4.3-11.2-5.4c-1.3-0.7-1.5-1.8-1.6-4.2c0.6-0.4,2.2-2.8,2.3-3c0.2-0.6,0-3.4,0-3.5
				c-0.3-1.3,0.2-0.8-0.8-0.9l-11.4,1.3c-1.5,0.4-5.7,7.4-5.9,7C-133,403.2-133.1,403.3-133.1,403.4z"/>
			<path class="st5" d="M-100.9,457.8c-0.6,0.9,11.9,3.6,12.7,5c0.3,0.5,1,4.3,1.2,5.1c1.4,5.7,0.4,4.4,5.7,6.5
				c2.9,1.1,6,2.7,8.9,3.7c-0.6-0.7-1.3-1.7-1.9-2.3c-0.6-0.6-0.6-0.4-1.1-0.9c-1.6-1.4-2.3-4.6-3.3-6.9c-0.6-1.5-1.2-1.4-0.4-2.8
				c0.4-0.8,1.2-1.7,1.7-2.4l3.6-4.6l-8,0.3l-1.8-2L-100.9,457.8z"/>
			<path class="st5" d="M-120.4,355.9c-0.2,0.7,0,0.8-0.1,1.5c0,0-0.1,0.8-0.1,0.8c-0.2,0.9,0.1,0.4-0.5,1c-0.3,0.6-6.7,4.6-7.7,5.5
				l0,1.1l1.4,9.4l3.9,1.5c-0.5-1.3-1.1-8.6-1.1-10.5l4.3-3.9c2.3-2.5,1.1-1,2.8-2.6c0.8-0.7,0.7-1,1.6-1.7c0.6-0.5,1.5-1.1,2-1.6
				c0.8-0.9,0.1-0.5,1.6-1.7c1-0.8,1.4-0.9,1.9-1.8c-1.6,0.6-9.1,5.2-10.1,6.1L-120.4,355.9z"/>
		</g>
		<g>
			<path class="st6" d="M46.6,301.9c0.7-0.9,1.1-0.6,2.1-2.7c1.6-3.1,4.6-24,5.4-28.3c-1.5,0-3.5,1.2-5,1.8c-1.6,0.6-3.3,1.3-4.9,2
				c-0.6,1.8-2.1,13.9-2.6,17c-0.4,2.5-0.6,5.7-1.8,8c-0.8,1.5-4.7,2.8-6.5,3.3c-1-2.3-3-19.9-4.1-22.4l-8.9,3.5l9.4,55.9
				c1.4-0.3,3.3-1.2,4.7-1.8c0.7-0.3,1.5-0.6,2.2-0.9l2.2-1c-0.6-3.2-4.3-23.6-4.2-25.1c2.2-1.1,6.3-3.2,7.8-1.1
				c2.3,3.2,10.6,19.2,11.8,20.2c1.7-0.5,3.5-1.4,5.2-2l4.6-1.8c0.5-0.3,0.2-0.1,0.5-0.3l-12.1-19.6c-1.4-2.4-2.3-3.7-4.9-4.4
				L46.6,301.9z"/>
			<path class="st6" d="M-46,310.7l-0.4,6.4c-0.3,1.2-0.1,0.4-0.5,0.8c0.7,2.3,2.4,13.6,3,17.1c1,5.7,1.9,11.3,2.9,17
				c0.9,5.2,1.2,12.7,7.2,12.7c3,0,18.6-6.2,21.7-8.4c1.7-1.1,3.2-3,3.8-6.1c0.7-3.7-1.3-13.4-2.1-17.4c-0.7-3.5-5.5-33.4-5.9-33.9
				c-0.5-0.2-7.5,2.9-8.9,3.3c0.5,6.5,8.1,44,7.4,46.4c-0.4,1.3-1.2,1.4-2.7,2c-1.1,0.4-2.1,0.8-3.1,1.2c-1.8,0.7-4.9,2.4-6.8,2.2
				c-1.3-1.7-1.2-3.1-1.6-5.3l-3-17.4c-1.2-7.8-2.6-15.6-4-23.4C-39.6,307.9-45.4,310.2-46,310.7z"/>
			<path class="st6" d="M-0.4,352.2l28.2-11.1l-1.6-8.7c-1.1,0.5-2.8,1.4-4.5,2.1c-1.6,0.6-3.1,1.2-4.8,1.9
				c-3.1,1.2-6.5,2.8-9.6,3.8l-8.2-47.5l-8.9,3.5L-0.4,352.2z"/>
			<path class="st6" d="M-51.9,372.6l7.1-2.6l-4.5-25.7C-49,346.2-51.4,371.5-51.9,372.6z"/>
		</g>
		<g>
			<path class="st7" d="M-47.2,461.6c0.6,0.7,0.9,1.4,1.4,2.2c1.3,2,0.5,1.5,1.4,1.9c1.1,0.5,4,1,5.3,1.3c2.7,0.6,8.7,1.8,10.7,2.7
				l10.4,2.6l-9.3,20.8l-7.6,17.2c0.9-0.6,8.9-10.7,10.2-12.4c0.3-0.4,0.7-0.9,1-1.2L-2.8,471c-0.9-1.2-2.5-3-3.7-3.8
				c-1.4-0.9-5.7-5.9-7.1-7.5l-1.9-1.7c-0.7-0.5-1.2-1.2-1.8-1.8l21.9-61.8c-0.5,0.3-0.8,0.4-1.2,0.7c-0.8,0.6-0.4,0.4-1,1.1
				c-0.7,0.8-1.4,1-2.1,1.7c-0.9,0.9-0.1,0.5-2,1.9c-0.4,0.3-0.7,0.5-1,0.8c-1.9,2-1.9,1.5-3,2.9l-4.1,3.6c-0.9,0.6-1.2,1.2-2,2.1
				l-12.2,19c-1,1.5-2,3.3-3,4.7c-2.2,3.2-5.2,4.9-8.4,7.2l-4.6,3.4c-3.3,2.4-4.3,4.7-6.9,8.6C-51,458.5-49.9,456.2-47.2,461.6z"/>
			<path class="st7" d="M-120.4,355.4c0.9-1,3-6.7,3.9-8.7c0.5-1.2,0.1-0.5,0.9-1.1l8.5-6l-3.4-11.3c0,0-0.1,0-0.1,0.1l-0.3,0.3
				c0,0-0.1,0.1-0.1,0.1l-3,5.2C-119.9,344.5-121.5,343.3-120.4,355.4z"/>
			<path class="st7" d="M-140.2,359.8c0.7-0.9,2.3-10.2,2.6-11.2c0.3-1.6,1.2-1.7,3.4-3.2l3.5-2.4c0.7-0.4-0.1-0.1,0.8-0.4
				c-1.1-1.6-3.8-7.2-4.5-7.8c-0.7,1.7-1.8,3.6-2.6,5.2c-1,1.8-1.7,3.4-2.6,5.3c-1.6,3-0.9,3.4-0.8,6.9
				C-140.4,354.7-140.2,357.3-140.2,359.8z"/>
		</g>
		<g>
			<path class="st8" d="M109,530.1c0.4-0.7-0.1-2.4-0.4-3.8c-2.8-13.2-5.5-28.4-8.1-41.9c-0.6-3.1-2.9-12.7-2.8-15.1l4.5,0.8
				c0.2-0.6-3.8-58.3-4.4-64c-1-10.4,0.9-6.2-4.4-13c-0.4-0.5-0.7-0.8-1-1.3c-0.4-0.5-0.6-0.6-0.9-1.1c-0.6-0.9-1.2-1.6-1.9-2.4
				c-0.6-0.7-1.3-1.6-1.9-2.4c-0.4-0.5-0.5-0.7-0.9-1.2c-0.3-0.4-0.6-0.6-0.9-1.1l-11.6-14.4c-0.7-0.9-1.3-1.5-1.9-2.4
				c-0.7-0.8-1.3-1.4-1.8-2.4l-2.9-1.2c-1.2,2.8-5.8,20.1-7.4,24.8c-1.5,4.6-1.5,3.9-0.1,8.4c3.4,10.9,7,22.3,10.1,33.1
				c-2.2-1.4-4.3-4.9-6-5.9l13.9,33.9c3.2,7.7,7.5,17.8,10.4,25.6l2.8,7.6c0.6,0.7-0.1,0.1,0.2,0.1c0,0,0.1-0.1,0.1-0.1
				c4.7,10.5,9.5,25.3,14.9,34.5C107.3,526.6,108.7,528.9,109,530.1z"/>
			<path class="st8" d="M28.2,410.6l-0.5,1.8c-0.1,0.6-0.1,1.2-0.2,1.8c-0.1,1.3-0.3,2.6-0.4,3.9c-0.4,3.5-2.7,21.8-2.4,22.5
				L44.2,454c1.2,0.7,1.5,1.4,2.3,2.5l28.8,37.4c0.5,0.7,0.5,0.8,1,1.3l19.5,25.2c-4.3-9.1-9.1-18.3-13.7-27.7
				c-2.2-4.5-40.9-81.8-41.4-83.4L28.2,410.6z"/>
		</g>
		<g>
			<path class="st9" d="M-35.3,513.7l16.8,2.7l119,18.5c-0.3-0.7-0.2-0.4-0.5-0.8l-19.8-25.6c-0.6-0.7-0.6-0.9-1.2-1.6
				c-0.4-0.5-0.8-1-1.2-1.6l-2.3-3c-0.4-0.4-0.8-1-1.3-1.5l-19.3-24.9c-0.6-0.7-0.6-0.9-1.2-1.6c-0.3-0.4-0.8-1-1.3-1.5l-4.8-6.2
				c-0.4-0.6-0.7-1-1.2-1.6c-0.5-0.6-0.8-1.1-1.2-1.6l-2.5-3.2c-0.4-0.6-0.7-0.9-1.1-1.4c-0.4-0.5-0.7-1.1-1.2-1.6
				c-0.9-1-9.3-4.9-10.9-5.7l-14.8-7.3c0.7-5.6,12.7-54.2,12.5-55.4c-0.1-0.8-3-2.8-3.8-3.5c-0.6-0.5-0.6-0.7-1.3-1.2
				c-0.6,2.7-1.4,5-2,8l-10.1,57.3l24.2,10.7l-8.8,6.8c-7.8,5.8-13.4,10.3-20.7,16.1L-30.4,511C-33.8,513.7-33.9,512.5-35.3,513.7z"
				/>
			<path class="st9" d="M-78.7,452.8c4.2-2.6,3.3-2.2,4-5.9c0.3-1.7,1-7,1.6-8c1.2,3.7,0.9,5.5,0.3,9.2c-0.4,2.4,0,2.1-2.2,3.2
				C-76.3,451.8-77.5,452.5-78.7,452.8z M-115.7,395c1,0.1,0.5-0.5,0.8,0.9c0,0.1,0.3,2.9,0,3.5c-0.1,0.3-1.7,2.6-2.3,3
				c0.1,2.4,0.4,3.5,1.6,4.2c2.1,1.1,10.7,4.6,11.2,5.4l5-0.2l10.8-0.6c1-0.2,1.5-0.2,1.9,0.5c0.7,0.6,0.9,0.6,1.7,1.3
				c0.6,0.5,1.1,0.8,1.7,1.4c1.2,1,2.3,1.6,3.3,2.7c2.2,1.3,5.8,5.1,8.4,5.9l-5.1,10.8c0,1.5-2.2,14.4-2.7,15.3l-17.6,1.3
				c-0.9,0.4-0.8,0.8-1.1,1.6c-0.3,0.7-0.6,1.2-0.9,1.9c-0.7,1.4-1.4,2.6-2,4l17.3-1.2l1.8,2l8-0.3l-3.6,4.6
				c-0.5,0.7-1.2,1.6-1.7,2.4c-0.8,1.4-0.2,1.3,0.4,2.8c1,2.3,1.7,5.5,3.3,6.9c0.5,0.5,0.6,0.3,1.1,0.9c0.6,0.6,1.3,1.6,1.9,2.3
				c1.2,0.6,2.2,0.9,3.4,1.4c1.8,0.8,1.7,0.3,3.5-0.5l9.9-4.9c1.8-0.8,1.3-1.3,1.8-3.3c0.6-2.7,1.3-5.4,1.8-8.1
				c0.8-3.4,2.2-5.9,3-8.8c-0.5-0.5,0-0.5-0.5,0.2l-2.4,5.5c0.1-2.1,0.2-10.6,1.2-12l19.8-31.7c0.6-0.9,1.1-1.7,1.5-2.6l-0.2-0.3
				c-0.8-1.2,0.5,0.7-0.2-0.3l-5.8-7.5c-2.6-3.6-2.4-2.3-3.5-6.4c-0.5-1.6-1.3-4.6-1.9-6l-10.6,5l-6.4,7.7c0.3,0.4,0.3-0.1,0.1,0.6
				c-0.2,1,0.1-0.1-0.2,0.4c0,0-0.3,0.4-0.4,0.4c-0.2,0.3-0.1,0.2-0.3,0.5c-0.7,0.8-0.3,0.2-0.9,0.8l-3.9,4.3
				c-0.3,0.4-0.4,0.7-0.8,1l-4.7,5.3c-1,0.8,0,0.3-1,0.6l0.4,0.8c-0.9-0.5-7-6.7-8.3-7.9c-1.8-1.8-6.3-6-7.8-8.1l-13.4,2.1
				c-0.7-1.4-6.8-7.1-8.3-8.6c-5.1-5.1-5-3.8-3.9-7.1c0.3-1,0.7-2.2,1-3.1c-0.9-0.1-4.9-1.3-5.6-1.9c-0.9,0.7-0.5-0.7-0.5,1.3
				C-116.5,387.8-115.6,392.4-115.7,395z"/>
			<path class="st9" d="M-51.9,372.6c0.5-1.1,2.9-26.4,2.6-28.3l-5-30.4l-9.1,3.7l3.8,22.5l-13.6,5.4L-77,323
				c-2.5,0.5-6.8,3.1-9.1,3.4l9.6,56.1l8.8-3.5c0.3-2.1-3.8-20.7-4.1-25.3l13.6-5.3l4.4,25.1L-51.9,372.6z"/>
			<path class="st9" d="M-140.2,359.8c0.1,1.9,0,7,0.5,8.3c-0.1-1.5,0.1-7.1,0.4-8.4c0.5-1.8,2-5.9,2.5-6.6c0,3-1,12.1,0.3,14.1
				l6.1,9.1c0.3-1.1-0.9-2.5-1.5-3.7c-0.7-1.2-1.4-2.6-2-3.8c0.7-0.6,4-2,5.1-2.2l0-0.9l0-1.1c1-0.9,7.4-4.9,7.7-5.5
				c-0.2-1.4-3.5-6.8-4.4-8.5c-1.4-2.8-3.1-5.4-4.5-8.2c-0.9,0.4-0.1,0-0.8,0.4l-3.5,2.4c-2.2,1.5-3.1,1.6-3.4,3.2
				C-137.8,349.6-139.5,358.8-140.2,359.8z"/>
			<path class="st9" d="M14.9,535.6l-52-15.3c-1,0.2-0.2,0.2,0.9,0.8l5.1,2.3c10.2,4.3,22.8,10.8,33.2,15.3c1.7,0.8,1.7,1.2,3.7,0.7
				c1.3-0.3,2.6-0.7,3.9-1c1.6-0.4,6.6-1.3,7.6-2L14.9,535.6z"/>
			<path class="st9" d="M109,382.5c0.3,0.4,0.5,0.7,0.9,1.2c0.6,0.8-0.1,0.3,0.8,0.9l-4.6-18.6c-0.4-1-7.8-6.6-9.2-7.7L83.7,348
				L109,382.5z"/>
			<path class="st9" d="M-120.4,355.4l0,0.5l0,3c1-0.9,8.5-5.5,10.1-6.1c2.8-1.9,2.3-2.3,4.7-4.1c0.4-0.3,0.8-0.6,1.1-0.9
				c0.5-0.5,0.5-0.7,1.1-1.2c0.8-0.8,1.7-1.2,2.5-2l-4.8-3.5c-1.2-0.8-0.6-0.4-1.2-1.4l-8.5,6c-0.8,0.6-0.4-0.1-0.9,1.1
				C-117.4,348.8-119.5,354.5-120.4,355.4z"/>
		</g>
		<g>
			<path class="st10" d="M5.6,254.8c-1-2.5-2.3-4.8-3.4-7.3c-0.4-0.9-2.9-6.3-3.4-6.9l-7.2-8.1c-0.5-0.6-0.5-0.9-1.1-1.4
				c-0.7-0.7-0.8-0.5-1.1-1.4l35.5,15.1c2.7,1.1,3.3,1.8,6.4,1.9c2.3,0.1,6.1,0,8.1,0.3l5.7,13.4c0.3,1.4,0,4.5,0.1,6.2
				c-3.6,0.8-7.1,1.8-10.7,2.7c-3.5,0.9-14,6.7-18.6,8.2c-3.3,1.1-6.6,2.3-9.8,3.5c-13,4.8-26.4,9.4-39.6,14
				c-13.3,4.6-26.3,9.4-39.6,14.1l-14.9,5.3c-3.2,1.2-3.3,0.6-4.1,2.5c-2,4.3-4.9,10-5.6,14.5c-0.3,1.7-0.4,4.3-0.9,5.7
				c-0.7-0.6-8-13-9.2-14.8c-0.5-0.7-0.8-1-0.8-1.7c0-0.6,3.9-9.2,4.5-11.3l-8.6,10.5c-0.3,0.4-0.3,0.3-0.6,0.7l-9.1,11.1
				c-0.6,0.7-0.7,0.9-1.3,1.5c-0.6,0.6-0.6,1-1.3,1.4c-0.4-0.4-0.4-0.5-0.8-0.9l-9.6-10.8c-0.4-0.5-1.2-1.2-1.7-1.5
				c-0.2,0.8-1.5,2.7-2.2,3.1c-0.7-2.5-1.2-5.1-1.8-7.7c-0.4-1.7-1.9-6.4-1.2-7.5l3.4-3.8c1.5-1.4,1.3-1.7,2.1-2.5l9-9.9
				c0.4-0.4,0.8-0.9,1.2-1.1l20.2-3.1l-9-16.7c1.5-0.6,28-5.3,30.7-5.9c2.6-0.5,5.1-0.9,7.7-1.4c2.2-0.5,1.8-0.6,3.5,0.4l14.4,8.2
				c-1.6-6.2-3.1-12.4-4.8-18.6c-0.4-1.5-0.8-3.1-1.2-4.7c-0.5-2.3-1.1-1.8-3.2-2.6c-1.4-0.6-2.9-1.1-4.3-1.6
				c-1.3-0.5-3.2-1-4.1-1.7l55.8-0.6c3.4-0.1,3.3,0.3,6,1.5C-8,248.3-1.3,251.9,5.6,254.8z M-19.7,232c0.9,0.4,4.2,3.4,4.9,4.2
				c2,2.7,3.4,2.6,5.7,5.6l3.5,3.1c0.4,0.4,0.9,0.7,1.2,1.1c1.1,1.2,0.1,0.6,2.2,2.3l1.1,1.2c-2.4-1-13.7-7.3-17.3-9.2
				c-6.2-3.2-4.4-3.1-9.8-2.8l-36.6,2.6c-7.9,0.6-16.5,1.5-24.4,1.8c0.4,0.5,8.4,4.9,10.1,5.8c0.7,0.4,1.1,0.6,1.7,0.9l1.6,1.1
				c-1.3,0-5.5,0.1-6.4-0.1l-26.3-16.7c0.3,1.2,4.1,6.4,5,7.6l5.2,7.8c0.8,1.2,1.8,1.7,3.6,2.8c1.3,0.8,2.7,1.8,4,2.6
				c1.2,0.8,7.4,4.6,7.8,5.2l-57.7,11.7l0.8,0.4c0.3,0.1,0.5,0.1,0.8,0.2c0.5,0.1,1.1,0.2,1.6,0.4c1.6,0.4,9,2.2,10.1,2.9
				c1-0.1,2.9,0.5,4,1l0.4,2.9l-17.8-3c-0.8,0.8-19,9.2-21.2,10.1c1.1,0.2,5.4-1.2,7-1.6c4.1-1,3-0.8,6.6,0.9c2,1,4,1.9,6,2.9
				c1.9,0.9,4.3,2.4,6.1,3c-0.3,0.9-2.1,2.9-2.7,3.6l-11.1,14.4c-1.8,2.2-1.5,1.9-1,4.5l3,16.1c0.4,2.5,1,2.6,0,5.1l-10.6,27.9
				c1-0.5,3.7-3.9,4.7-5c0.7-0.8,1.1-0.8,1.8-1.5l4.4-5c1.8-2.1,2.2-0.6,4.1-5.6c0.6-1.5,1.2-3.1,1.7-4.6c1.1-2.9,2.3-6.5,3.5-9.3
				c1.9-0.2,2.2,0.1,2.8,0.9c0.4,0.5,1.1,2,1.2,2.5c0.6,0.6,3.4,6.2,4.5,7.8c1.4,2.8,3,5.4,4.5,8.2c0.9,1.7,4.2,7.1,4.4,8.5
				c0.6-0.6,0.3-0.1,0.5-1c0,0,0.1-0.8,0.1-0.8c0-0.7-0.1-0.8,0.1-1.5l0-0.5c-1.1-12.1,0.5-10.9,6.5-21.5l3-5.2c0,0,0.1-0.1,0.1-0.1
				l0.3-0.3c0-0.1,0.1-0.1,0.1-0.1l3.4,11.3c0.6,1.1,0,0.6,1.2,1.4l4.8,3.5c-0.8,0.8-1.7,1.3-2.5,2c-0.6,0.5-0.5,0.7-1.1,1.2
				c-0.3,0.3-0.7,0.6-1.1,0.9c-2.4,1.8-1.9,2.3-4.7,4.1c-0.5,0.9-0.9,1.1-1.9,1.8c-1.5,1.1-0.8,0.8-1.6,1.7c-0.5,0.5-1.4,1.1-2,1.6
				c-0.9,0.7-0.9,1-1.6,1.7c-1.7,1.6-0.5,0.1-2.8,2.6l-4.3,3.9c0.1,1.9,0.7,9.2,1.1,10.5l0-0.1l1,0.1c0-1.4,0.1-0.9,0.5-1.9
				c0.3-0.7,0.3-1.5,0.6-2.1c-0.2-0.7,0.4-2.8,0.4-4c1.3-0.5,8.1-6.1,9.1-6.4l13.5-9.8c1.2-0.9,3.7-3,5-3.3l-0.8-0.6
				c1,0,1.1-0.1,2.3-1.1c0.4-0.3,0.6-0.7,0.9-0.9c1.4-0.9,0.6-0.5,0.9-0.1c0.3-0.3,0.9-0.7,1.4-1.1c0.9-0.7,1-0.5,1.6-1.3
				c0,0,0.3-0.3,0.3-0.3c0,0,0.1-0.1,0.1-0.2c0-0.1,0.1-0.1,0.1-0.2l-1.7-10.5c-1.3-0.9,0.7,1.4-0.8-0.3c-0.4,1.9-0.9,1.1-2.3,2.6
				c-0.5,0.6-0.4,0.6-1.1,1.2c-0.4,0.4-0.8,0.7-1.3,0.9l0.6-3c0.9-5.6,0.8-3.9,2.1-5.9c1-1.3,0.6-1,1.4-1.4c0.3-0.8,1.9-2.7,3.1-3.3
				l50.7-20c6.1-2.4,12.5-4.8,18.5-7.3c12.2-5.1,24.8-9.7,37-14.6c6.1-2.5,12.3-4.9,18.5-7.3c3.1-1.2,6.2-2.5,9.3-3.7
				c2.6-1,3.6-1,4.2-2.2c0.4-0.9,1.8-4,2-4.3l3.7-5.5c1.7-2.3-1.5-6.1-1.9-12c-0.9,0.5-1.3,0.9-2.1,1.5c-1,0.8-4.1,3.5-5.1,4
				c-1.6-2.6-5-13.7-7-14.7l-14.9-6.5c-1.8-0.8-8.8-4.2-10.1-4.2l9.5,12.7c0.7,0.9,0.9,0.8,1.3,1.8l-58.7-20.9l2.7,2.5
				c1.1,0.9,2.3,1.7,3.1,2.8c0.7,0.9,0.6,0.8,1.3,1.5C-22.3,229.1-20.6,230.2-19.7,232z"/>
			<path class="st10" d="M65.3,331.9l-123.8,45.5c0.2,1,0.4,1-0.1,1.7c0.8,0,1.5,5.2,1.8,6.7c0.8,3.6,0.4,3.7-0.3,7.1
				c-0.8,4.7-2,9.6-2.6,14.3c1.4-0.7,0.6-1,1.6-1.7l6.4-7.7c0.4-1,6.5-7.9,7.8-9.8c1-1.4,1.4-1.5,2.6-3.2c0.7,0.6,1.1,2.1,1.5,2.9
				l2.7,6.3c0.8,2,0.7,1.4,2.2,2.4l10.8,7.2c-0.2-2.1-8.4-18.9-7.6-20.3c0.3-2.3,3.9-10.5,5-13.9c0.6-1.9,0.2-1,1.9-2
				c1.1-0.7,3.6-2.3,4.8-2.7c0.2,0.2,0.4,0.4,0.6,0.6c0.6,0.6,0.3,0.1,0.5,0.7c0.9,0.4,1.4,1.2,2.1,1.8c0.7,0.7,1.2,1.2,1.9,1.9
				c0.9,0.9,3.3,2.9,3.7,3.9c0.5-0.1,3.1,2.8,3.6,3.3c0.9,0.9,3.3,2.8,3.5,4.1c0.6,4.2,0.6,9.9,0.9,14.3l4.3-5.1
				c0.5-0.5,0.3-0.2,0.7-0.8c0.3-0.4,0.2-0.4,0.5-0.7l4.4-5.3c2.2-3,8.2-9.6,10.1-12.3c-1.3,0.9-2.6,1.9-3.6,3.2
				c-1,1.2-2.3,2-3.5,3.1c-1.1,1-0.7,1-3.4,3.2c-1.4,1.1-1,1.5-3.5,3.2c-1.4-0.8-6.1-6.4-7.9-7.7c0.3-1.2,2.1-4.2,2.9-5.4
				c-0.7-1.4-3.9-5.2-4.4-6.4l74.1-29l-2.2,11l0,0.8l0.3,0.3l8.5,13.2c-0.1-1.8-0.6-3.9-0.4-5.7c-0.6-1.5-1.1-10.3-1.4-12.7
				c-0.4-4.2-0.8-8.4-1.1-12.6L65.3,331.9z"/>
			<path class="st10" d="M32.7,378.5c0.9,2.4,1.1-1.6,1,5.2c0,2-0.1,4.1-0.1,6.1c-0.1,3.8-0.2,7.8-0.1,11.6c0.8-0.9,1.1-1.7,1.7-2.6
				c3.8-5.4,9-14.7,13-20.6c0.6,0.5,0.3-0.7,0.2,0.5c0.7-0.6,0.9-1.7,1.2-2.6c0.4-1,0.9-1.6,1.4-2.4c0.8-1.4,2-3.5,3.1-4.8l2.1,2.8
				l2.1,3.7c1-1,1.5-6.4,1.7-7.7c0.5-2.6,0.9-5.2,1.4-7.8c-3.7-0.4-3.9-2.3-5.7,0.1c-0.4,0.5-0.9,1.1-1.3,1.5l-2.5,3.1
				c-0.3,0.4-0.3,0.3-0.6,0.7c-4.9,5.8-4.4,6.3-8.1,13.3l-2.1,3.8L32.7,378.5z"/>
		</g>
		<g>
			<path class="st11" d="M40.6,409.4c0.5,1.6,39.2,79,41.4,83.4c4.6,9.4,9.5,18.5,13.7,27.7l-19.5-25.2c-0.4-0.6-0.4-0.7-1-1.3
				l-28.8-37.4c-0.8-1.1-1.1-1.8-2.3-2.5l-19.4-13.3c-0.3-0.7,2-19,2.4-22.5c0.1-1.3,0.3-2.6,0.4-3.9c0.1-0.6,0.1-1.2,0.2-1.8
				l0.5-1.8L40.6,409.4z M61.3,359.9c-0.5,2.6-0.9,5.2-1.4,7.8c-0.2,1.3-0.8,6.7-1.7,7.7l-2.1-3.7c-0.1,2.7-2.5,10.7-3.3,13.8
				c-2,7.9-1.7,4.5,1.1,13.3c2.8,8.5,6.1,16.8,9,25.2c2.9,8.4,6,16.8,9,25.2c2.9,8.1,6.3,16.9,8.8,24.9c-1.4-1.7-2.3-2.7-3.3-5.1
				l-18-42c-3-6.9-7.7-17.3-10.3-23.9l-5.1-12c-0.2-1.3,4.1-10,4.3-12.5c0.2-1.2,0.4,0-0.2-0.5c-4,5.9-9.2,15.2-13,20.6
				c-0.7,1-1,1.7-1.7,2.6c-0.1-3.8,0.1-7.8,0.1-11.6c0-2,0.1-4.1,0.1-6.1c0.1-6.8,0-2.8-1-5.2l-5.7-6.1c-0.7-0.9-0.9-0.8-1.6-1.5
				c-0.5-0.6-0.8-1.2-1.3-1.7c-0.7-0.8-2-1.6-2.7-3.2c-1.2,0.7-1.6,1.5-2.7,2.8l-2.1,2.5c-1.9,2.7-7.9,9.3-10.1,12.3l-4.4,5.3
				c-0.3,0.4-0.3,0.4-0.5,0.7c-0.4,0.6-0.2,0.3-0.7,0.8l-4.3,5.1c-0.3-4.4-0.3-10.1-0.9-14.3c-0.2-1.3-2.6-3.2-3.5-4.1
				c-0.5-0.5-3.1-3.4-3.6-3.3c-0.5,2.1-0.7,4.3-1.1,6.4c-0.6,3.3,0.3,3.2-2.5,4.6c-1.7,0.8-8.6,4-9.5,4.9l11,1.8
				c0.5,1.1,1.1,3.8,1.4,5c1.1,4.7-2.6,9.6-4.7,13.4c-0.7,1.4-1.5,2.8-2.3,4.1c-1.3,2-7.3,8.9-9.4,11.5l-11.5,14
				c-0.3,0.4-0.3,0.5-0.6,0.9l-2.9,3.5c-1.6,2-2.9,3.2-3.8,5.7c-0.5,1.4-1,3.2-1.7,4.4c-0.8,3-2.2,5.4-3,8.8l4.9-1.1
				c-2.6-5.4-3.8-3.1,0.6-9.6c2.7-4,3.6-6.3,6.9-8.6l4.6-3.4c3.2-2.3,6.2-4,8.4-7.2c1-1.4,2-3.2,3-4.7l12.2-19
				c0.8-0.9,1.2-1.5,2-2.1l4.1-3.6c1.1-1.3,1.1-0.9,3-2.9c0.3-0.3,0.6-0.5,1-0.8c1.9-1.4,1.1-1,2-1.9c0.7-0.7,1.5-1,2.1-1.7
				c0.6-0.7,0.2-0.5,1-1.1c0.4-0.3,0.7-0.4,1.2-0.7c1-1.7,2.3-2,3.6-3.5l7.3-6.5c0.4-0.4,0.4-0.6,0.8-1c0.7-0.7,1.8-1.2,2.7-2.2
				c0.5,0.5,1.2,0.8,1.7,1.3c0.8,0.7,0.5,0.7,1.5,1.3c0.6,0.5,0.7,0.7,1.3,1.2c0.8,0.7,3.6,2.7,3.8,3.5c0.2,1.2-11.8,49.8-12.5,55.4
				l14.8,7.3c1.6,0.8,10,4.7,10.9,5.7c0.5,0.6,0.8,1.1,1.2,1.6c0.4,0.5,0.7,0.8,1.1,1.4l2.5,3.2c0.4,0.5,0.7,1,1.2,1.6
				c0.5,0.6,0.8,1,1.2,1.6l4.8,6.2c0.4,0.5,0.9,1.1,1.3,1.5c0.6,0.7,0.6,0.9,1.2,1.6l19.3,24.9c0.4,0.5,0.9,1.1,1.3,1.5l2.3,3
				c0.4,0.6,0.9,1.1,1.2,1.6c0.6,0.7,0.6,0.9,1.2,1.6L99.9,534c0.4,0.5,0.2,0.1,0.5,0.8l-119-18.5c1.2,1.2,3.9,1.2,5.1,2.5
				c1.4,0,16.9,6.7,19.7,7.8c3.3,1.3,6.5,2.6,9.8,4c2.6,1.1,7.6,3.4,10,3.9c0.5,0.5,20.8,8.5,23.4,9.6c3.5,1.4,3,1.4,7,0.9l15-1.5
				c1.5-0.2,2.3-0.5,3.4,0.2l27,18.7c0.9,0.6,1.5,1,2.4,1.6l12.3,8.4l2-24.5c-0.5-1.3-1.6-3.3-2.4-4.6c-0.9-1.4-1.6-3.1-2.4-4.5
				c-1.7-2.9-3.2-6-5-8.7c-0.4-1.2-1.8-3.5-2.5-4.7c-5.4-9.2-10.2-24-14.9-34.5c-0.1,0-0.1,0.1-0.1,0.1c-0.3-0.1,0.4,0.6-0.2-0.1
				l-2.8-7.6c-2.9-7.8-7.2-17.9-10.4-25.6l-13.9-33.9c1.7,1,3.8,4.5,6,5.9c-3.1-10.8-6.7-22.3-10.1-33.1c-1.4-4.5-1.4-3.8,0.1-8.4
				c1.6-4.7,6.2-22,7.4-24.8l2.9,1.2l5.7,2.2l2-7.8l-3.5-2.9c-0.7-0.8-0.2-0.5-1.2-0.9c-0.3,1.8,0.3,3.9,0.4,5.7l-8.5-13.2
				c-0.9-0.2-0.2,0.1-1-0.5c-0.4-0.3-0.2-0.2-0.7-0.5L61.3,359.9L61.3,359.9z"/>
			<path class="st11" d="M-49.2,344.3l4.5,25.7l-7.1,2.6l-1.8,0.8l-4.4-25.1l-13.6,5.3c0.3,4.7,4.4,23.3,4.1,25.3l-8.8,3.5
				l-9.6-56.1c2.3-0.2,6.6-2.9,9.1-3.4l3.8,22.4l13.6-5.4l-3.8-22.5l9.1-3.7L-49.2,344.3z M-46.9,317.9l-0.9-6.6l1.8-0.6
				c0.6-0.5,6.4-2.8,7.1-2.8c1.4,7.8,2.8,15.6,4,23.4l3,17.4c0.4,2.2,0.3,3.6,1.6,5.3c1.9,0.2,5-1.5,6.8-2.2
				c1.1-0.4,2.1-0.8,3.1-1.2c1.5-0.6,2.2-0.6,2.7-2c0.7-2.4-6.9-39.9-7.4-46.4c1.4-0.4,8.5-3.5,8.9-3.3c0.5,0.5,5.2,30.4,5.9,33.9
				c0.8,4.1,2.8,13.7,2.1,17.4c-0.6,3.1-2.2,4.9-3.8,6.1c-3.1,2.1-18.8,8.4-21.7,8.4c-5.9,0-6.3-7.5-7.2-12.7
				c-1-5.7-1.9-11.3-2.9-17C-44.5,331.5-46.2,320.2-46.9,317.9z M-9.8,296.2l8.9-3.5l8.2,47.5c3.1-1,6.5-2.6,9.6-3.8
				c1.6-0.6,3.1-1.2,4.8-1.9c1.7-0.7,3.4-1.6,4.5-2.1l1.6,8.7l-28.2,11.1L-9.8,296.2z M46.6,301.9l1,0.3c2.5,0.6,3.4,2,4.9,4.4
				l12.1,19.6c-0.4,0.3,0,0.1-0.5,0.3l-4.6,1.8c-1.7,0.7-3.5,1.5-5.2,2c-1.2-1.1-9.5-17.1-11.8-20.2c-1.5-2.1-5.5,0-7.8,1.1
				c-0.1,1.5,3.6,21.9,4.2,25.1l-2.2,1c-0.7,0.3-1.5,0.6-2.2,0.9c-1.4,0.6-3.3,1.5-4.7,1.8l-9.4-55.9l8.9-3.5
				c1.1,2.5,3.1,20.1,4.1,22.4c1.8-0.5,5.7-1.9,6.5-3.3c1.2-2.3,1.4-5.4,1.8-8c0.5-3.1,2-15.2,2.6-17c1.6-0.7,3.3-1.3,4.9-2
				c1.6-0.6,3.5-1.8,5-1.8c-0.9,4.3-3.8,25.1-5.4,28.3C47.7,301.3,47.3,301,46.6,301.9z M-89.3,327.1l0,3.3l0.5,2.2
				c1.5,1.6-0.5-0.6,0.8,0.3l1.7,10.5c0.6-0.2,0.4-0.1,0.8-0.4c0.8,5,1.6,9.8,2.3,14.8c0.4,2.3,2.6,13.5,1.4,14.4l2.1,12
				c0.3,1.4,0.9,2.1,1.7,3.1l19.4-8.2c0.5-0.7,0.3-0.7,0.1-1.7l123.8-45.5c-0.4-6.3-0.7-12.4-1.1-18.7c-0.6-10.2-0.3-5.1-5.5-14.1
				c-0.9-1.5-2.2-14.4-2.5-17.2c-0.3-2.5-2.3-16.3-2.1-17.5c-0.2,0.3-1.6,3.5-2,4.3c-0.6,1.2-1.5,1.2-4.2,2.2
				c-3.1,1.2-6.2,2.5-9.3,3.7c-6.2,2.4-12.4,4.8-18.5,7.3c-12.2,4.9-24.8,9.5-37,14.6c-6,2.5-12.4,4.9-18.5,7.3l-50.7,20
				C-87.5,324.5-89,326.4-89.3,327.1z"/>
			<path class="st11" d="M120,533.4c0.7-7.4,1.2-14.7,1.8-22.1l3.2-38.5c0.2-2-0.6-2.9-1.3-4.6c-2.3-5.3-4.7-11.3-7.2-16.4
				c-0.6,1.6-3.6,16.6-4.4,19.8c-1.2,5.4-1.6,5.5-0.8,10.3c2.9,17.2,6,34.7,8.6,51.8L120,533.4z"/>
			<polygon class="st11" points="-27.3,493.1 -18,472.3 -28.4,469.7 			"/>
			<path class="st11" d="M-31.8,383.2l5.1,1.9L-19,366c-0.2-0.6,0.1-0.1-0.5-0.7c-0.2-0.2-0.4-0.4-0.6-0.6c-1.1,0.4-3.6,2-4.8,2.7
				c-1.6,1-1.2,0.1-1.9,2C-27.9,372.7-31.5,380.9-31.8,383.2z"/>
		</g>
		<g>
			<path class="st12" d="M5.6,254.8c-6.9-3-13.7-6.6-20.4-9.7c-2.7-1.3-2.6-1.6-6-1.5l-55.8,0.6c0.9,0.7,2.8,1.3,4.1,1.7
				c1.4,0.5,2.9,1,4.3,1.6c2.1,0.8,2.7,0.3,3.2,2.6c0.4,1.6,0.7,3.2,1.2,4.7c1.7,6.2,3.2,12.4,4.8,18.6l-14.4-8.2
				c-1.7-1-1.3-0.9-3.5-0.4c-2.6,0.5-5.1,0.9-7.7,1.4c-2.7,0.6-29.2,5.3-30.7,5.9l9,16.7l-20.2,3.1c-0.4,0.2-0.8,0.7-1.2,1.1l-9,9.9
				c-0.8,0.7-0.6,1.1-2.1,2.5l-3.4,3.8c-0.6,1.1,0.9,5.8,1.2,7.5c0.6,2.6,1.1,5.2,1.8,7.7c0.7-0.4,2-2.4,2.2-3.1
				c0.5,0.3,1.4,1.1,1.7,1.5l9.6,10.8c0.4,0.4,0.4,0.5,0.8,0.9c0.7-0.4,0.7-0.7,1.3-1.4c0.6-0.6,0.7-0.9,1.3-1.5l9.1-11.1
				c0.3-0.4,0.3-0.3,0.6-0.7l8.6-10.5c-0.6,2.1-4.5,10.7-4.5,11.3c0,0.8,0.3,1,0.8,1.7c1.1,1.7,8.5,14.1,9.2,14.8
				c0.5-1.4,0.7-4,0.9-5.7c0.7-4.5,3.7-10.2,5.6-14.5c0.8-1.9,0.9-1.3,4.1-2.5l14.9-5.3c13.3-4.7,26.3-9.4,39.6-14.1
				c13.2-4.6,26.6-9.2,39.6-14c3.2-1.2,6.5-2.4,9.8-3.5c4.6-1.5,15.1-7.3,18.6-8.2c3.6-0.9,7.1-1.9,10.7-2.7c0-1.7,0.2-4.8-0.1-6.2
				L39.4,247c-2-0.3-5.8-0.2-8.1-0.3c-3.1-0.1-3.8-0.8-6.4-1.9l-35.5-15.1c0.4,1,0.4,0.7,1.1,1.4c0.6,0.5,0.6,0.8,1.1,1.4l7.2,8.1
				c0.4,0.5,2.9,5.9,3.4,6.9C3.3,250,4.6,252.4,5.6,254.8z"/>
			<path class="st12" d="M16.7,371.2l2.1-2.5c1.1-1.3,1.5-2.1,2.7-2.8c0.7,1.6,2,2.4,2.7,3.2c0.5,0.5,0.8,1.2,1.3,1.7
				c0.7,0.7,0.9,0.6,1.6,1.5l5.7,6.1l8.2,4l2.1-3.8c3.7-7.1,3.2-7.5,8.1-13.3c0.3-0.4,0.3-0.3,0.6-0.7l2.5-3.1
				c0.4-0.5,0.9-1,1.3-1.5c1.8-2.4,2-0.5,5.7-0.1l2.5-13.3l0.2-1.2c0.4,0.5,0.4,0.7,1.1,1.1l2.2-11l-74.1,29
				c0.5,1.3,3.6,5.1,4.4,6.4c-0.7,1.2-2.5,4.2-2.9,5.4c1.8,1.2,6.5,6.8,7.9,7.7c2.5-1.7,2.1-2.1,3.5-3.2c2.7-2.2,2.3-2.2,3.4-3.2
				c1.2-1.1,2.6-1.9,3.5-3.1C14.1,373.1,15.3,372.1,16.7,371.2z"/>
		</g>
		<path class="st13" d="M78.3,358.9l-2,7.8l-5.7-2.2c0.5,1,1.1,1.6,1.8,2.4c0.7,0.9,1.3,1.5,1.9,2.4l11.6,14.4
			c0.4,0.5,0.6,0.7,0.9,1.1c0.4,0.5,0.4,0.6,0.9,1.2c0.6,0.8,1.4,1.7,1.9,2.4c0.7,0.9,1.3,1.5,1.9,2.4c0.4,0.5,0.5,0.6,0.9,1.1
			c0.4,0.5,0.6,0.8,1,1.3c5.3,6.8,3.4,2.6,4.4,13c0.5,5.6,4.6,63.3,4.4,64l-4.5-0.8c-0.1,2.4,2.2,12,2.8,15.1
			c2.6,13.5,5.3,28.7,8.1,41.9c0.3,1.4,0.8,3,0.4,3.8c1.8,2.8,3.3,5.8,5,8.7c0.8,1.4,1.5,3,2.4,4.5c0.8,1.3,1.9,3.3,2.4,4.6
			c1.2,1.1,3.4,6.2,4.6,7.9c-0.3-3.3-1.2-7.6-1.8-11c-0.4-2.2-1.9-9.5-1.7-11.3l-0.1,0.2c-2.6-17-5.8-34.6-8.6-51.8
			c-0.8-4.8-0.4-4.8,0.8-10.3c0.7-3.2,3.7-18.1,4.4-19.8c0.1-2.3,1.5-7.3,2-9.8c0.7-3.3,1.4-6.7,2.1-9.9c0.7-2.8,4.3-18,3.9-19.6
			c-0.6-0.1-0.1,0.1-0.7-0.7l-19-24.7c-5.2-6.6-13.6-17.3-18.3-23.8l-5.6-7.2c-0.4-0.6-0.7-1.1-1.3-1.6
			C78.8,355.4,78.7,357.6,78.3,358.9z"/>
		<path class="st14" d="M4.6,394.4l-21.9,61.8c0.7,0.6,1.1,1.2,1.8,1.8l1.9,1.7c1.4,1.6,5.7,6.5,7.1,7.5c1.2,0.8,2.8,2.6,3.7,3.8
			l-20.9,25.7c-0.3,0.4-0.7,0.9-1,1.2c-1.3,1.7-9.3,11.8-10.2,12.4l-1.5,3.2l1.2,0.2c1.3-1.2,1.4,0.1,4.9-2.7l35.2-28.3
			c7.3-5.8,12.9-10.3,20.7-16.1l8.8-6.8l-24.2-10.7l10.1-57.3c0.5-2.9,1.4-5.2,2-8c-1.1-0.7-0.7-0.6-1.5-1.3
			c-0.5-0.5-1.1-0.8-1.7-1.3c-0.9,1-2.1,1.6-2.7,2.2c-0.4,0.4-0.4,0.5-0.8,1l-7.3,6.5C6.9,392.4,5.6,392.7,4.6,394.4z"/>
		<path class="st15" d="M-110.4,387.5c-0.3,0.9-0.7,2-1,3.1c-1.1,3.3-1.2,2,3.9,7.1c1.5,1.5,7.6,7.2,8.3,8.6l16.1-4.8
			c1.3,1.5,2.2,3,3.4,4.6c2.5,3.3,7.3,10.7,9.6,13.3c1-0.2,0,0.2,1-0.6l4.7-5.3c0.3-0.4,0.4-0.7,0.8-1l3.9-4.3
			c0.7-0.6,0.3,0,0.9-0.8c0.2-0.2,0.1-0.2,0.3-0.5c0-0.1,0.3-0.4,0.4-0.4c0.4-0.5,0.1,0.5,0.2-0.4c0.1-0.7,0.1-0.2-0.1-0.6
			c-1,0.7-0.2,1-1.6,1.7c0.7-4.7,1.8-9.6,2.6-14.3c0.6-3.5,1-3.5,0.3-7.1c-0.3-1.5-1-6.6-1.8-6.7l-19.4,8.2c-0.9-1-1.5-1.7-1.7-3.1
			l-2.1-12l-0.1-0.6l-0.5,0.5c-0.1,0.1-0.2,0.3-0.2,0.3l-12.7,20.2L-110.4,387.5z"/>
		<path class="st16" d="M-31.8,383.2c-0.7,1.3,7.4,18.2,7.6,20.3l-10.8-7.2c-1.5-1-1.5-0.4-2.2-2.4l-2.7-6.3
			c-0.4-0.8-0.8-2.3-1.5-2.9c-1.2,1.8-1.5,1.8-2.6,3.2c-1.3,1.9-7.5,8.8-7.8,9.8l10.6-5c0.7,1.3,1.5,4.3,1.9,6
			c1.2,4.1,1,2.8,3.5,6.4l5.8,7.5c0.7,1-0.6-0.9,0.2,0.3l0.2,0.3c-0.4,0.9-0.9,1.7-1.5,2.6l-19.8,31.7c-1,1.4-1.1,9.9-1.2,12
			l2.4-5.5c0.5-0.7,0-0.8,0.5-0.2c0.7-1.2,1.2-3,1.7-4.4c0.9-2.4,2.1-3.7,3.8-5.7l2.9-3.5c0.3-0.4,0.4-0.5,0.6-0.9l11.5-14
			c2.1-2.7,8.1-9.5,9.4-11.5c0.8-1.2,1.6-2.7,2.3-4.1c2.1-3.8,5.8-8.7,4.7-13.4c-0.3-1.2-0.9-3.9-1.4-5l-11-1.8
			c1-0.9,7.9-4.1,9.5-4.9c2.8-1.4,1.9-1.3,2.5-4.6c0.4-2.1,0.6-4.3,1.1-6.4c-0.4-1-2.8-3-3.7-3.9c-0.7-0.7-1.2-1.2-1.9-1.9
			c-0.7-0.7-1.1-1.4-2.1-1.8l-7.7,19.1L-31.8,383.2z"/>
		<path class="st17" d="M48.3,378.7c-0.2,2.5-4.6,11.1-4.3,12.5l5.1,12c2.6,6.6,7.3,17,10.3,23.9l18,42c1.1,2.4,2,3.5,3.3,5.1
			c-2.5-8-5.9-16.8-8.8-24.9c-3-8.4-6.1-16.8-9-25.2c-2.9-8.4-6.2-16.8-9-25.2c-2.9-8.8-3.2-5.3-1.1-13.3c0.8-3.1,3.1-11.1,3.3-13.8
			l-2.1-2.8c-1,1.3-2.3,3.4-3.1,4.8c-0.5,0.8-1,1.5-1.4,2.4C49.1,377,48.9,378.1,48.3,378.7z"/>
		<path class="st18" d="M-85.3,440.6l-0.2-1.1l-6.8,2c-0.3-1.5,0.5-2.4,1.1-3.6c0.7-1.6,0.5-1.7,2-2.6c1.8-1,4.2-2.4,6.1-3.2
			c1.1-0.8,7.2-3.8,8.9-4.8c-0.9,2.6-2.8,5.7-4.1,8.3c-1.6,3.4-0.9,4.3-6.7,6L-85.3,440.6z M-106.7,419.4l-0.9,0
			c0.3,0.7,2.9,1.6,3.7,2c1.6,0.5,3.8,1.2,4.5,2.6c0.7,1.5,1.5,3.2,2.1,4.8c1.5,3.5,2.9,5.8,3.8,9.7l1,3.7l6.5-1.9l0.3,2.4
			c0.7,0.4,1-0.3,2.1-0.5c0.6-0.6,1.7-1,2.5-1.4c1.4-0.6,1.3-0.4,1.9-1.9c0.7-1.6,1.7-3.7,2.6-5.2l5.1-10.8
			c-2.6-0.8-6.2-4.6-8.4-5.9L-106.7,419.4z"/>
		<path class="st19" d="M-130.3,376.3c0.3,1.7-1.9,10.7-2.4,13.1c-0.4,1.8-1.3,5-1.2,6.7c0.2,2.3,0.6,4.8,0.8,7.2
			c0.1,0,0.1-0.2,0.1-0.1c0.2,0.4,4.4-6.6,5.9-7l11.4-1.3c0.1-2.6-0.8-7.2-0.8-8.1c0-2-0.4-0.6,0.5-1.3c0-0.5,0.1-0.3-0.5-0.2
			c-1.5-0.1-4.9-1.5-6.6-2l0.5-6.3c-1.3-0.2-0.2,0.1-0.7-0.5l0,0.1l-3.9-1.5l-1.4-9.4l0,0.9c-1.1,0.2-4.4,1.6-5.1,2.2
			c0.6,1.1,1.3,2.6,2,3.8C-131.2,373.8-129.9,375.2-130.3,376.3z"/>
		<path class="st20" d="M-109.1,382.8l-1.3,4.7l15.1,5.1l12.7-20.2c0-0.1,0.2-0.3,0.2-0.3l0.5-0.5l-1-5c-0.9-0.3-6.1,1.3-6.9,1.7
			c-0.8,0.4-5.4,6.3-6.2,7.4l-5.9,7.1L-109.1,382.8z"/>
		<path class="st21" d="M-112.1,367.8l1.4-2.5c1.2-0.1,3.8,0.5,5.2,0.7c0.9,0.2,4.6,0.5,4.3,1c-0.4,1-3.7,6-4.6,6.9
			c-0.6,0.7-0.8,0.6-1.9,0.8c-0.9,0.2-1.7,0.3-2.6,0.5c-1.6,0.3-3.3,0.7-4.9,0.9l-0.9-1.2C-115,372.7-113.4,369.9-112.1,367.8z
			 M-111.8,362.2c-1,0.3-7.8,5.9-9.1,6.4c-0.1,1.2-0.6,3.3-0.4,4l1.5,4.4c1.3,0.2,0.6,0.5,2.3,0.5l9-0.2c1-0.1,0.6,0.1,1.6-0.8
			l3.8-3.1c0.8-0.6,0.8-0.9,1.6-1.5c0.9-0.7,0.8-0.5,1.7-1.4l10.2-8.1c0.6-0.5,1.2-0.9,1.7-1.4l-4.6-7.3l-3.5,3.2
			c-3.8,2.9-7,1.4-10.9,2.9C-108.8,360.4-110.1,362.1-111.8,362.2z"/>
		<path class="st22" d="M-90,346.4c-0.4,0.3-0.4,0.3-0.7,0.5c1.2,2.4,4.2,5.8,4.9,7.3c-1-0.6-7.1-4.4-7.5-5.1
			c-1.3,0.3-3.8,2.4-5,3.3l-13.5,9.8c1.7-0.1,3-1.8,4.6-2.4c3.9-1.5,7.1,0,10.9-2.9l3.5-3.2l4.6,7.3c-0.5,0.5-1,0.9-1.7,1.4
			l-10.2,8.1c-0.9,0.9-0.8,0.7-1.7,1.4c-0.8,0.6-0.7,0.9-1.6,1.5l-3.8,3.1c-0.9,0.8-0.6,0.7-1.6,0.8l-9,0.2c-1.7,0-1-0.3-2.3-0.5
			c-0.6,0.3-0.5,0.3-1.1,0.5c0.4,0.4,0,0.1,0.7,0.5c2.2,1.2,4.5,1.8,7,1.9c3.3,0.1,6.6,0.6,9.8,0.7c0.6-1.3,0.3-2.7,0.8-3.8
			c0.2-0.6,11.8-9.3,12.7-9.7l5.1-1.6c0.9-0.3,1.1-0.4,1.8-0.2c-0.2-3-1.4-7.8-1.9-11c-0.3-1.8-0.7-3.6-1-5.4
			c-0.1-0.4-0.2-0.9-0.2-1.3l0-1.1c0-0.1,0-0.1,0-0.2c0.1-0.8,0.1-1.6-0.6-2.3c-0.6,0.9-0.7,0.7-1.6,1.3
			C-89,345.7-89.6,346.1-90,346.4z"/>
		<path class="st23" d="M-121,377.5c-0.5-1-0.8-0.3-1.5-0.9l-1-0.1c0.5,0.6-0.6,0.3,0.7,0.5l-0.5,6.3c1.8,0.6,5.1,1.9,6.6,2
			l-0.4-2.6l7.8,0.1l7.2-0.1l5.9-7.1c0.8-1.1,5.4-6.9,6.2-7.4c0.7-0.4,5.9-2,6.9-1.7l-0.2-1.3c-0.7-0.2-0.9-0.1-1.8,0.2L-90,367
			c-0.9,0.4-12.5,9.1-12.7,9.7c-0.5,1.1-0.2,2.5-0.8,3.8c-3.2-0.1-6.5-0.5-9.8-0.7c-2.5-0.1-4.8-0.7-7-1.9
			C-120.9,377.6-120.6,377.9-121,377.5z"/>
		<path class="st24" d="M-139.6,368.1c0.6,0.8,1.1,1.4,1.7,2.2c0.5,0.7,1,1.3,1.6,2c0.1,0-0.5-0.4,0.2,0.1l0.2,0.2
			c1.5,1.1,1.1,1.3,1.8,2.1c1,1,0.9,0.7,2.2,2.7l-0.5,1.3c-1,3.6-1.7,8.6-2.4,12.4c-0.5,2.8-0.9,3.4-0.4,6.4
			c0.3,2.2,0.7,4.5,0.9,6.7l1.1-0.8c-0.2-2.4-0.6-4.9-0.8-7.2c-0.1-1.7,0.8-4.8,1.2-6.7c0.5-2.4,2.7-11.4,2.4-13.1l-6.1-9.1
			c-1.3-2-0.3-11.1-0.3-14.1c-0.5,0.6-2,4.8-2.5,6.6C-139.5,360.9-139.7,366.6-139.6,368.1z"/>
		<path class="st25" d="M-112.1,367.8c-1.3,2.1-2.9,4.9-4,7.2l0.9,1.2c1.6-0.2,3.3-0.6,4.9-0.9c0.9-0.2,1.7-0.4,2.6-0.5
			c1.1-0.2,1.3-0.1,1.9-0.8c0.8-1,4.1-5.9,4.6-6.9c-1.9,0.1-3.9,0.1-5.8,0.1c-0.8,0-2-0.1-2.8,0C-110.9,367.3-111,367.6-112.1,367.8
			z"/>
		<path class="st26" d="M-99.3,411.8c1.6,0.8,4.1,0.7,6,1.2c1.1,0.3,2.8,2.2,3.9,3.1c-1.1,0.6-12.3,2.3-15.2,2.8l-2.1,0.6l26.9-2.4
			c-0.9-1.1-2.1-1.7-3.3-2.7c-0.6-0.5-1.1-0.9-1.7-1.4c-0.8-0.6-1-0.7-1.7-1.3l-1.9-0.5L-99.3,411.8z"/>
		<path class="st27" d="M-99.2,406.3l13.4-2.1c1.4,2.2,5.9,6.4,7.8,8.1c1.3,1.2,7.4,7.5,8.3,7.9l-0.4-0.8c-2.3-2.6-7.1-10-9.6-13.3
			c-1.2-1.6-2.1-3.1-3.4-4.6L-99.2,406.3z"/>
		<path class="st28" d="M-85.3,440.6l3.7-5.3c0.4-0.6,0.8-1.4,1.1-1.8c-0.6-0.7-1.8-1.3-2.7-1.3c-1.9,0.8-4.2,2.1-6.1,3.2
			c-1.5,0.8-1.3,1-2,2.6c-0.6,1.3-1.5,2.2-1.1,3.6l6.8-2L-85.3,440.6z"/>
		<path class="st29" d="M-83.1,432.2c0.8,0,2.1,0.6,2.7,1.3c-0.3,0.4-0.7,1.2-1.1,1.8l-3.7,5.3l0.3,1.1c5.8-1.7,5-2.6,6.7-6
			c1.3-2.6,3.1-5.8,4.1-8.3C-75.9,428.3-82,431.3-83.1,432.2z"/>
		<path class="st30" d="M-86.4,343.3c0,0.1-0.1,0.1-0.1,0.2c0,0.1-0.1,0.1-0.1,0.2c0,0-0.3,0.3-0.3,0.3c0.8,0.7,0.7,1.4,0.6,2.3
			c0,0.1,0,0.1,0,0.2l0,1.1c0.1,0.4,0.2,0.9,0.2,1.3c0.3,1.8,0.7,3.6,1,5.4c0.6,3.1,1.7,7.9,1.9,11l0.2,1.3l1,5l0.1,0.6
			c1.2-0.9-1.1-12.1-1.4-14.4c-0.8-5-1.5-9.8-2.3-14.8C-86,343.2-85.8,343.2-86.4,343.3z"/>
		<path class="st31" d="M-116.6,385.3c0.6,0,0.5-0.2,0.5,0.2c0.7,0.6,4.7,1.9,5.6,1.9l1.3-4.7l-7.8-0.1L-116.6,385.3z"/>
		<path class="st32" d="M-78.7,452.8c1.2-0.3,2.5-1,3.7-1.6c2.2-1,1.9-0.8,2.2-3.2c0.6-3.7,0.8-5.5-0.3-9.2c-0.6,1.1-1.3,6.3-1.6,8
			C-75.4,450.7-74.5,450.2-78.7,452.8z"/>
		<path class="st33" d="M-93.5,438.5c-0.9-3.9-2.3-6.2-3.8-9.7c-0.7-1.6-1.4-3.2-2.1-4.8c-0.6-1.4-2.9-2.1-4.5-2.6
			c2.2,3,2.1-0.5,5.9,7.8C-97.2,431.1-94.4,437.4-93.5,438.5z"/>
		<path class="st34" d="M-112.1,367.8c1.1-0.2,1.3-0.6,2.3-0.7c0.7-0.1,2,0,2.8,0c1.9,0,3.9,0.1,5.8-0.1c0.3-0.4-3.4-0.8-4.3-1
			c-1.3-0.3-4-0.8-5.2-0.7L-112.1,367.8z"/>
		<path class="st35" d="M-92.9,334.4l-0.6,3c0.5-0.2,0.9-0.5,1.3-0.9c0.7-0.6,0.5-0.6,1.1-1.2c1.4-1.6,2-0.7,2.3-2.6l-0.5-2.2
			L-90,331c-0.8,0.7-0.6,0.7-1.1,1.5C-92.5,334.4-92.1,334.1-92.9,334.4z"/>
		<path class="st36" d="M-92.9,334.4c0.8-0.3,0.4,0.1,1.8-1.9c0.5-0.7,0.3-0.7,1.1-1.5l0.7-0.6l0-3.3c-0.9,0.4-0.5,0-1.4,1.4
			C-92.2,330.4-92.1,328.8-92.9,334.4z"/>
		<path class="st37" d="M-46.9,317.9c0.4-0.5,0.1,0.4,0.5-0.8l0.4-6.4l-1.8,0.6L-46.9,317.9z"/>
		<path class="st38" d="M-132.3,378.6l0.5-1.3c-1.3-2-1.3-1.6-2.2-2.7c-0.7-0.8-0.3-0.9-1.8-2.1l-0.2-0.2c-0.8-0.5-0.1-0.1-0.2-0.1
			c0.5,0.8,0.6,0.8,1.1,1.5l1.5,1.9C-131.9,377.9-132,376.9-132.3,378.6z"/>
		<path class="st39" d="M63.8,346.6c0.5,0.2,0.3,0.1,0.7,0.5c0.7,0.6,0.1,0.3,1,0.5l-0.3-0.3l0-0.8c-0.7-0.4-0.7-0.6-1.1-1.1
			L63.8,346.6z"/>
		<path class="st40" d="M-86.6,411.7c-0.4-0.7-0.9-0.8-1.9-0.5L-86.6,411.7z"/>
		<path class="st41" d="M-134.2,404.1l0.1,0.7c0.6-0.7,0.5-0.5,0.9-1.4L-134.2,404.1z"/>
	</g>
</g>
</svg>
