<?xml version="1.0" encoding="UTF-8"?>
<!DOCTYPE svg PUBLIC "-//W3C//DTD SVG 1.1//EN" "http://www.w3.org/Graphics/SVG/1.1/DTD/svg11.dtd">
<!-- Creator: CorelDRAW X7 -->
<svg xmlns="http://www.w3.org/2000/svg" xml:space="preserve" width="287px" height="549px" version="1.1" style="shape-rendering:geometricPrecision; text-rendering:geometricPrecision; image-rendering:optimizeQuality; fill-rule:evenodd; clip-rule:evenodd"
viewBox="0 0 18117152 27659377"
 xmlns:xlink="http://www.w3.org/1999/xlink">
 <defs>
  <style type="text/css">
   <![CDATA[
    .fil2 {fill:#13F5FF}
    .fil20 {fill:#181C27}
    .fil16 {fill:#1D2229}
    .fil11 {fill:#1F2227}
    .fil19 {fill:#212732}
    .fil17 {fill:#242934}
    .fil21 {fill:#383736}
    .fil22 {fill:#5D5139}
    .fil6 {fill:#62231C}
    .fil13 {fill:#792C24}
    .fil7 {fill:#8F342A}
    .fil3 {fill:#93352B}
    .fil4 {fill:#9D7D42}
    .fil12 {fill:#A13F33}
    .fil14 {fill:#A99064}
    .fil5 {fill:#C19951}
    .fil9 {fill:#D84F3F}
    .fil15 {fill:#DA4E3F}
    .fil8 {fill:#E5B560}
    .fil1 {fill:#E6B661}
    .fil0 {fill:#E8B761}
    .fil10 {fill:#F8D393}
    .fil18 {fill:#F9D595}
   ]]>
  </style>
 </defs>
 <g id="Layer_x0020_1">
  <metadata id="CorelCorpID_0Corel-Layer"/>
  <g id="_495804301888">
   <g>
    <path class="fil0" d="M11528091 4410769c-117102,-112442 -224157,-181869 -347861,-277749 -121163,-93906 -231706,-181421 -361402,-275600 -114237,-82956 -248786,-180026 -369469,-267802l-772566 -523788c-296847,-183569 -956124,-615911 -1224904,-712664l1846633 1365146c157925,122041 582475,484053 739647,534009 148065,47065 352097,134604 489922,158448z"/>
    <path class="fil0" d="M11663381 10264893l37111 -46455c-18905,114162 6808,14289 -37111,46455zm0 0c-33480,119356 -275532,437219 -336220,595898l147150 40132c89290,-194663 378849,-596166 485885,-814984l-107883 -55337c-55592,-19527 -68990,-23763 -124078,-33150l-389662 418371 162541 -513074 -231339 -68747 -497271 822808 152475 54670c27768,-81610 307224,-553250 362960,-619045l-138050 479308 142547 40718 190639 -159402c32147,-35261 51880,-58999 81012,-95008 8284,-10253 33094,-42842 39061,-49027 4354,-4522 17441,-17223 21981,-20917 38476,-31318 -2211,-7916 38252,-23214z"/>
    <path class="fil0" d="M12176735 11142172l126507 41428c114772,-124651 220189,-411632 340411,-523881l-88648 623623 164490 38444 497795 -829218 -144627 -38481c-80775,95992 -203583,347530 -277083,453389 -15011,21620 -2952,5700 -20380,27370 -20618,25637 -18587,22511 -37361,40811l89658 -604314 -178126 -63839c-53399,179440 -400226,641618 -472636,834668z"/>
    <path class="fil0" d="M12193821 10390528l-133397 377030 -160249 -66355 293646 -310675zm-686553 508440c158143,119039 213854,37130 287497,-89241l225527 65247 -60139 203502 182411 49208 267091 -899878 -189431 -67676c-122794,89110 -226068,273501 -352438,369774 -144447,110038 -236627,222419 -360518,369064z"/>
   </g>
   <g>
    <path class="fil1" d="M9906748 326826l1440726 475159c912771,315041 1842123,705844 2587040,1301823 173509,138816 368509,275551 568504,398638 93750,57698 195217,129174 299836,183227 56813,29350 288843,144758 316605,168521 166409,45321 287921,119487 483693,153540 -577399,-750871 -1948144,-1515926 -2735928,-1836174 -560593,-227888 -1095979,-410386 -1680142,-605136 -296199,-98752 -1630518,-446893 -1872059,-400762l591725 161164z"/>
    <path class="fil1" d="M13922641 18751196c-80694,-147729 -296765,-305959 -335739,-447030l777051 -378463c227277,-117830 159252,-107559 420850,-59248 153366,28316 349231,90473 492532,102887 -156419,441256 -77917,414236 -525339,542985 -228978,65895 -614834,211394 -829355,238869zm-1453432 -939025c77406,51064 90854,75898 157701,124096l1179608 975321c97941,69707 405066,-59815 626556,-123106 280808,-80240 556259,-166895 839595,-240806l174357 -677584c-255537,-47152 -512451,-95880 -768742,-138684 -293813,-49065 -1070192,435656 -1262332,455196 -66131,6721 -444949,-276498 -527525,-336101 -99605,-71893 -173946,-113757 -274977,-186528 -241367,-173865 -1714669,-1202312 -1833845,-1246268 31891,34190 53175,47102 95544,84356 351797,309355 857315,685015 1219372,999501l374688 310607z"/>
    <path class="fil1" d="M9218121 19257531c-47650,-46293 -30870,-40955 -62662,-90038 -20991,-32415 -44143,-59174 -67819,-87154 -69389,-82033 -72915,-92367 -128974,-186416l-1443373 -551879c90928,120814 372103,329106 426942,389706 78097,86319 77106,67763 154823,131266l568698 520411 -576141 2451109c168508,-435208 1107615,-2370308 1128506,-2577005z"/>
   </g>
   <g>
    <path class="fil2" d="M16126291 10343631c378276,150146 726854,50130 1125921,44113 -24466,-57542 -222723,-215387 -304203,-287485 -26678,-23614 -35429,-25520 -63558,-47414l-366130 -314861c-104993,-100352 -156481,-123916 -235705,-233811 -80383,-13392 -210733,-166957 -286376,-231967 -193361,-166179 -191406,-125791 -362654,-74279 -282079,84849 -567116,166154 -845382,249745l179384 646202 1158703 249757z"/>
    <path class="fil2" d="M14578916 25431871c45227,48548 65589,95687 118952,146757l409183 446470c61890,75586 49874,77879 132263,154132 58127,53798 76197,108524 127404,158324l1967709 838542c-85018,-134873 -410766,-401454 -533661,-515279 -63365,-58688 -64835,-79928 -120515,-142509l-398482 -371045c-259256,-237822 -318000,-327766 -530446,-524086l-528385 -501657 -644022 310351z"/>
   </g>
   <g>
    <path class="fil3" d="M1726180 17230592l565577 -1092497c626725,-1257324 1287278,-2613164 1930279,-3850226 78284,-150606 61292,-126376 -17839,-278141 -44929,-86170 -77244,-179502 -124863,-270798 -93171,-178649 -169673,-387950 -261860,-572541 -211505,-423491 -1216345,-2677731 -1315956,-2789183l1286855 3345996c101131,274155 36894,268381 -72871,542898l-1102351 2743177c-293203,724661 -626793,1494107 -886971,2221315z"/>
    <path class="fil3" d="M10702716 19494469l-994219 388117c79611,35237 60513,48093 152999,159707 46809,56495 91177,113713 137756,170159l637538 790755c74541,93799 184299,172600 201926,297644l182368 -723509 332525 -1321848 -650893 238975z"/>
   </g>
   <g>
    <path class="fil4" d="M2199047 8411246c-110643,-292237 -231457,-488271 -345170,-736470l392646 1632087c132829,547227 276709,1094391 403135,1641817 255070,1104450 326870,748486 11735,1602644 -544280,1475251 -1070123,3015159 -1604406,4506113 -179521,500972 -347948,1009903 -533474,1508514l-523513 1492923c227128,-452717 450804,-1037216 662310,-1529355l2641829 -6147925c247894,-566249 245577,-460596 112467,-792741 -105659,-263647 -202075,-529338 -302801,-795177l-914758 -2382430z"/>
    <path class="fil4" d="M11018592 18703882l-1814237 257250c-87309,-423 -155963,-44175 -245689,-67209 56059,94049 59585,104383 128974,186416 23676,27980 46828,54739 67819,87154 31792,49083 15012,43745 62662,90038 64549,-57094 19409,-49900 117824,-73339 208691,-49699 1233107,-204591 1317794,-193672 141095,-82470 421778,-59404 594055,-111384 103380,-31200 364517,-202804 443031,-271315l-672233 96061z"/>
   </g>
   <g>
    <path class="fil5" d="M13725051 11732178c34763,54259 26572,56832 45800,114959 56907,171984 86419,21676 195448,223197l1233231 2128773c66686,119332 144017,231850 193175,351941 43795,-37659 54626,-78003 77860,-132786 18269,-43072 42269,-90754 45925,-136797 11997,-151080 -1121835,-4329259 -1085297,-4458351l-65427 -231594c-32540,-44717 -29394,-78720 -45016,-138454 -4615,-17646 -22013,-75182 -24199,-86593 -9443,-49264 -15460,-7637 -4173,-69975 -140161,-22617 -52752,-41733 -165593,-91594 -88306,83204 -649872,1044635 -780826,1210639l155664 96391c-66816,146477 -474872,646096 -583509,826514 97188,74727 320030,93769 459786,131459 210515,56782 331373,33324 347151,262271z"/>
    <path class="fil5" d="M14305153 9298747l1913119 -549737c-29942,-69202 -40967,-87496 -116871,-137657 120696,6858 -2647,10097 46866,-32664 -106015,-27712 -233357,-261205 -296660,-349312 -154413,-214888 -117314,-170526 -156101,-477470l-102109 -817283c-10551,-83005 -13348,-226256 -67539,-289939 -35560,141737 -613999,1101479 -730808,1319014 -113813,211942 -243167,428780 -363969,646901 -53630,96833 -133303,221714 -182728,323867 -62064,128276 94285,243080 56800,364280z"/>
   </g>
   <g>
    <path class="fil6" d="M1997327 21383700l613669 -1598894c-215274,83585 -909607,529662 -1042598,541123l-62911 -2486744c-316860,890254 -615981,1807827 -937755,2704621 -154755,431309 -197491,428512 -121120,694744l601200 2100881 145960 38350 803555 -1994081z"/>
    <path class="fil6" d="M11459543 20996953l-139968 502609c56888,-11411 134735,-12270 195174,2853 100875,25246 238582,252990 345606,386573l1142826 1494437c56109,72005 50329,66835 162734,81130 -78608,-101785 -293334,-673192 -363514,-848215 -294137,-733556 -703726,-1857297 -1070902,-2527630 -79511,96323 -200468,730622 -271956,908243z"/>
   </g>
   <g>
    <path class="fil7" d="M1919037 17741374c-109061,-23981 -275339,-58682 -369637,-30758l-43913 128569 62911 2486744c132991,-11461 827324,-457538 1042598,-541123l2174007 -5446086 -2047643 3013695c-64263,93009 -266562,362511 -295439,449229l-522884 -60270z"/>
    <path class="fil7" d="M10931899 24470902c22106,-215187 391195,-1428667 499134,-1808918 42979,-151410 114505,-471577 171828,-590516l1067439 1512556c38071,55206 34022,64773 75020,100938l1133981 887420c108892,92055 549911,393343 594965,477762 -212353,68767 -787161,142796 -1033193,172464 -178848,21570 -355990,62874 -531418,77275 -142889,11728 -1288344,-263205 -1472848,-306327 -347063,-81106 -555791,-79536 -818217,-360917 66598,-69756 220780,-147062 313309,-161737zm-745514 -246088l-1042904 54340c38370,57940 385352,262401 471771,316772 1053200,662672 582587,487100 1682285,709700 442458,89557 893917,169716 1335938,250354 355423,64842 340654,48760 690540,-10128 168794,-28403 591021,-88847 692327,-141319 59348,-2928 674543,-297414 773669,-354389 -19789,-63359 8303,-13659 -42257,-71886l-573848 -524878c-82669,-88431 -511,-39933 -185719,-209319 -147299,-134711 -277020,-254292 -424126,-389289 -83591,-76708 -121755,-100178 -192913,-202318 -49731,-71376 -124720,-143462 -205233,-187899 -112405,-14295 -106625,-9125 -162734,-81130l-1142826 -1494437c-107024,-133583 -244731,-361327 -345606,-386573 -60439,-15123 -138286,-14264 -195174,-2853l-788070 2758682 -345120 -33430z"/>
   </g>
   <g>
    <path class="fil8" d="M13725051 11732178c-49009,25252 -22854,-3127 -61784,66225 86375,753 143637,179060 244201,352569 72609,125262 140902,254722 218575,374894 402737,623088 954374,1689661 1341140,2270162 103548,18150 576327,1619 651110,-35137 79057,-73500 689319,-1792100 771857,-2043713 305436,-931096 399037,-1134025 655982,-2145460 -129547,25233 -489473,213655 -633440,278740 -195442,88362 -407956,3569 -731662,-51911 -230398,-39485 -1391343,-216657 -1503126,-272985 -83429,-102725 -193143,-546616 -246711,-702448 -36538,129092 1097294,4307271 1085297,4458351 -3656,46043 -27656,93725 -45925,136797 -23234,54783 -34065,95127 -77860,132786 -49158,-120091 -126489,-232609 -193175,-351941l-1233231 -2128773c-109029,-201521 -138541,-51213 -195448,-223197 -19228,-58127 -11037,-60700 -45800,-114959z"/>
    <path class="fil8" d="M9959020 15139927c3214,-414964 42543,-924681 74727,-1340274 16233,-209506 37535,-465093 40307,-675284 2604,-196868 23533,-118715 132344,-213418 47513,-41354 29157,-41534 88810,-86145 59025,-44144 42524,-23364 96584,-79399l851891 -730354c70124,-50023 34869,-30957 90797,-84537l189531 -162061c106699,-80134 137819,-140809 190265,-148377l767627 243360c65939,47532 579287,1362460 622371,1485710 178026,509237 131422,695043 48168,1212626 -60974,379098 -141712,778852 -232908,1156268 186123,85783 1171503,793676 1423634,941206 84381,49375 54932,12650 113881,84064 83398,101044 206573,196837 312911,274672l-88667 63447c-25520,10221 -57031,16195 -82445,24236l-535124 190378c-130755,48591 -602339,248567 -708017,200225l-2456957 -1369792c-243765,-127585 -246985,-239049 -375517,-349474l-502099 -574490c-12408,-12806 -22984,-22218 -36526,-35778 -2940,-2947 -10601,-4952 -12744,-13237 -2180,-8421 -9069,-8614 -12844,-13572zm620347 948487c94684,82631 375529,227701 512887,306233 178132,101848 365364,206779 544660,312151 361683,212565 721192,422676 1091302,627230l542131 310289c201098,124040 162354,101317 613850,-88362l933046 -385870c174849,-75767 184983,-2117 364168,25520 29524,-76851 312107,33555 413743,-15267 62238,-98129 104052,-508134 133253,-659009 57106,-295109 -106694,-282265 -155471,-475906 -12296,-48822 -9630,-25333 772,-50896 -45346,-64014 -64045,-86500 -99586,-149604 -171928,89477 -211705,208572 -427191,390858 -284726,240850 -193031,207034 -414553,391550 -118254,-37940 -1507586,-839227 -1554302,-894109 38500,-261343 118815,-529761 160324,-802129 89663,-588411 176325,-1178610 78713,-1774883 -44847,-273962 -193754,-449316 -278472,-694631 -9866,-107055 -294778,-563515 -362137,-702306 369712,165251 270985,83641 470662,427060 107310,184554 207986,380220 308171,570504 109820,208591 551138,1019932 556165,1214775 151254,175005 138466,610661 91395,842853 -44131,217672 -95438,337409 -191586,527487 -30783,60850 -60382,89913 -81417,143705 53973,42948 614162,330695 692414,358544l226530 -192514c163843,-181801 85920,-131447 366653,-352221l-745807 -1455887c-38463,-27376 -970382,-1816766 -1087321,-2034407 -82389,-153328 -248674,-178462 -517298,-273756l-1738002 -647367c148676,205195 437045,224156 689057,384480 -34875,103086 -20088,103342 -88786,159420l-1665037 1213411c-82526,57536 -159645,108637 -254578,187313 -30914,52540 -3613,1846608 -2828,2065545 934,262507 -45620,292150 104077,428399l721472 684410c43203,52590 20779,18008 48927,77387z"/>
    <path class="fil8" d="M17422384 9097344c-158642,-138354 -317334,-312954 -430200,-492575 -128862,-205071 -317458,-599897 -383720,-869468 -52795,-214769 -71476,-339645 26111,-525151 186286,-354115 168608,-1111533 537890,-1290337l461169 3314790 -211250 -137259zm-2608897 -5208039c21296,-74870 108992,-193025 151977,-238165 212396,-223023 403085,59460 475097,132935 42655,43527 56177,61790 102134,95781l442619 502541c92797,128426 229601,242158 359858,447796l-562624 -399211c-69315,-50709 -118697,-74790 -186896,-120902 -123729,-83646 -228305,-156069 -383377,-231842 -112867,-55144 -301861,-124047 -398788,-188933zm638441 -589844l-1005169 408897c72491,127385 53119,108176 160847,183974 67782,47694 102507,81697 177484,129877 334799,215137 1186814,748418 1470294,1034538 65022,65634 81666,100920 135532,172645 607865,809385 379815,1214015 21826,2066746 -76047,181141 -140765,317595 -46878,507213 102016,206043 334643,606500 467105,784924 76852,103517 180468,258783 245802,369419 108811,184267 458590,607752 491130,748025 27207,42879 12202,23265 54421,63048 -19284,-11149 -45601,-23893 -64649,-37310 -5350,-3763 -21782,-15167 -26728,-19615 -28889,-25974 -13174,-11772 -35217,-41951l-13106 -10365c-65060,-70597 -81473,-62475 -138822,-112430l-116547 -102757c-63814,-45682 -58333,-55928 -116149,-103124l-594092 -510477c-63920,-34370 -40051,-23258 -94292,-75132 -43327,-41427 -54010,-39521 -100452,-76570 -59678,-47607 -104221,-147524 -176001,-100347 -49513,42761 73830,39522 -46866,32664 75904,50161 86929,68455 116871,137657l-1913119 549737 -12775 -2249c-11287,62338 -5270,20711 4173,69975 2186,11411 19584,68947 24199,86593 15622,59734 12476,93737 45016,138454l90617 -228872c213604,-92728 514245,-152736 742549,-224605 126551,-39833 247066,-75929 372534,-113993 212190,-64375 192557,-86462 323948,31636 97325,20368 373928,183345 486203,247589 141413,80919 341937,191181 488738,258297 673379,307865 515528,421087 1025438,380718 -66175,-939649 -134319,-1827878 -287255,-2750553 -95338,-575169 -221391,-1270224 -432691,-1823648 -30671,-80340 -74366,-189680 -113520,-264196l-92872 -197117c-18599,-76390 -37827,-26260 8689,-64051 -208578,-438589 -670046,-1099859 -1005792,-1502303 -80146,-96061 -51282,-82134 -167723,-183819l-352701 142858z"/>
    <path class="fil8" d="M13238057 18633409c-100415,-99885 -818928,-606861 -913020,-656636 -11368,-29200 -667,-19377 -51849,-58881l-255917 -184759c-116579,-84419 -226854,-165848 -345052,-248430 -120135,-83939 -225090,-163612 -345051,-248536l-1524865 -1111906c-63272,-44256 -113750,-88076 -176045,-131329 -519060,-360468 -450487,-281561 -521950,-638877 -66044,-330202 -131472,-659588 -197136,-989055l-270411 -2114902c188639,-32321 2019750,-967840 2259017,-1041695 -61864,-59323 -1888172,-669037 -2003300,-677926l-506178 33916c50690,59516 173323,101791 299307,172320 110188,61684 204442,103841 304153,156991l613900 334874 -1692675 826371c5656,100135 101710,491391 128438,604663 47327,200567 91925,415337 130699,613507 80315,410460 191150,819943 265560,1229706 72734,400538 186186,811882 261641,1211374 45346,240052 75027,186933 370297,375722 1246767,797171 2691977,1616939 3917148,2411836 101287,65714 138118,123144 253289,131652z"/>
    <path class="fil8" d="M3349086 3970205c-752846,-93856 -718781,56981 -1100190,102651 35342,-148632 994412,-1518978 1241889,-1810194l281169 -334195 501563 -421130c59392,-54708 107846,-117731 186067,-143712l-197142 286308c-246349,350508 -1105820,1542891 -1048584,1921248 6759,44654 34869,150270 47570,196182l61148 142167c3183,6727 5805,12732 8727,19079 3095,6739 6291,14787 8832,20449 2616,5837 6335,13953 8951,21147zm-802652 250673c98839,-111652 543633,-79885 703271,-78938l23701 -26952c155770,-197759 522535,-802552 673702,-1022480 261779,-380854 654948,-1176418 1040842,-1551966 84837,-82563 154220,-118895 241965,-197727l486925 -391893c159950,-111956 706031,-449826 847244,-461106 171081,-186342 874022,-345413 1089246,-489816l-1093781 275513c-647018,182679 -1360062,485543 -1915797,832862l-593463 439854 -830750 882418c-45695,51543 -97288,120820 -145337,184634l-443423 611135c-175597,264158 -358425,555766 -508060,876263 -216078,462839 -191100,663164 -106482,1156960 3482,-5450 7226,-20767 8366,-17522l29543 -127653c8029,-55001 18960,-115084 31437,-168484 23401,-100128 56632,-208596 97175,-299737 83865,-188508 198245,-369443 363676,-425365z"/>
   </g>
   <g>
    <path class="fil9" d="M10333167 9398121l749351 265404c135010,-180031 1388821,-2321013 1657053,-2764798l78271 -99929 -465971 3297356 826290 287715c78807,-86674 1789439,-2964911 1932061,-3203998 108207,-181389 208540,-353560 322260,-534744 110431,-175951 6901,-311509 -49270,-699994l-384443 -124134 -422313 715442c-146727,243546 -284720,472100 -430256,712396l-854239 1414832c-3245,3837 -9461,10097 -12183,13193 -2760,3139 -8173,8963 -12514,13186l478199 -3296272 -825425 -290094 -2586871 4294439z"/>
    <path class="fil9" d="M5787531 4753659c34259,-90834 583584,-1009249 626949,-1051941 175647,43315 402083,133353 583659,197036 215548,75599 407321,115943 556751,225010 20580,174152 -165780,410404 -249128,547607 -72005,118540 -191044,392471 -337521,430106 -171859,44162 -933357,-305860 -1180710,-347818zm-2352886 2275606l801032 280321 1147641 -1899204c129391,30073 576172,163239 655016,236833l-427128 2146917c238458,24629 627242,234627 884548,285367l348851 -2246703c125934,-3818 218208,53674 384617,17821 536924,-115688 781947,-710515 1096652,-1235960 290718,-485380 446669,-914334 -219229,-1164888 -233531,-87870 -468999,-160268 -702611,-242308l-1385613 -472574c-73506,61796 -1996623,3302744 -2263565,3747107 -69987,116498 -289621,450182 -320211,547271z"/>
    <path class="fil9" d="M9913612 4960400c115862,-49307 454411,98808 581815,141986 716240,242737 688366,84263 2673,1223097 -188646,313322 -380793,633832 -569096,947067 -635645,1057354 -461786,1011728 -1193735,755487 -187973,-65808 -499308,-136168 -526372,-240569 -29475,-113689 178549,-406512 237013,-503918l1138547 -1893785c120608,-201733 180984,-366311 329155,-429365zm-223141 -817738c-169785,37959 -299843,109515 -397548,208111 -159134,160573 -150058,131310 -275102,340667 -154300,258340 -300366,498405 -453408,755138 -130818,219448 -1257007,2031548 -1343575,2303585 -120577,378905 73799,595600 422657,732173 291178,113993 600489,206952 898089,311366 702362,246424 1179327,427048 1665455,-342373 267067,-422707 1727899,-2827653 1799911,-3055840 133234,-422208 -106507,-622458 -419486,-747340 -268487,-107129 -620428,-219372 -899473,-307871 -324914,-103050 -641288,-277251 -997520,-197616z"/>
    <path class="fil9" d="M2501518 8377206c99611,111452 1104451,2365692 1315956,2789183 92187,184591 168689,393892 261860,572541 47619,91296 79934,184628 124863,270798 79131,151765 96123,127535 17839,278141 -643001,1237062 -1303554,2592902 -1930279,3850226l-565577 1092497 -83311 184286c179260,-209313 104090,-134343 237692,-326072l242476 -350807c59522,-82140 426842,-651933 500790,-691549 9636,-52739 -3201,-12270 22574,-60282l1582705 -2306033c62849,-87197 106550,-155328 159719,-235935l333753 -479077c177888,-247110 155926,-155615 -107765,-838337 -435781,-1128257 -849642,-2384641 -1285834,-3526532 -72428,-189612 -145486,-389090 -211032,-579897 -62133,-180866 -171075,-419804 -212590,-593233l6708911 2352537c-63030,-78028 -50846,-81099 -132886,-145822 -244687,-193025 -206118,-206405 -322354,-293471 -147853,-110742 -4213963,-1521190 -4708344,-1708353 -305611,-115700 -1627603,-560332 -1779530,-641575l-949839 -332400 780203 1719166z"/>
    <path class="fil9" d="M11929507 18106439l1472548 636398c-50858,-34937 -109832,-88144 -163998,-109428 -115171,-8508 -152002,-65938 -253289,-131652 -1225171,-794897 -2670381,-1614665 -3917148,-2411836 -295270,-188789 -324951,-135670 -370297,-375722 -75455,-399492 -188907,-810836 -261641,-1211374 -74410,-409763 -185245,-819246 -265560,-1229706 -38774,-198170 -83372,-412940 -130699,-613507 -26728,-113272 -122782,-504528 -128438,-604663l1692675 -826371 -613900 -334874c-99711,-53150 -193965,-95307 -304153,-156991 -125984,-70529 -248617,-112804 -299307,-172320l506178 -33916c-38724,-31449 -3588328,-1255244 -3797018,-1294031l2247127 1327249c247639,141675 523438,295016 757094,443872 -109702,116267 -696332,573936 -903540,739666l-134212 108276c-18369,36469 1226385,4002812 1360336,4352473 37659,98322 766,48218 80912,94728 68380,39684 156020,90007 227533,124402l1372613 736975c289516,168801 603691,312213 899859,484409 119070,69221 889058,414590 926325,457943z"/>
    <path class="fil9" d="M2633943 5565112c-69520,158131 -513286,804222 -584830,996038 169822,71283 509623,134294 629584,234609l175403 37447c175722,-248243 1097992,-1823536 1288357,-2139144 215791,-357752 429171,-716164 642758,-1071213l645380 -1073948c-75120,-60669 -695485,-252710 -796535,-289105 -71438,72678 -199958,307972 -258166,404562l-1741951 2900754z"/>
    <path class="fil9" d="M16483807 8625505c193772,117663 594665,580819 760451,760221 148371,160548 155920,122216 200369,172077 77935,87422 39198,7369 39995,101723l13106 10365c6446,2691 15920,-1021 19458,7761 3476,8621 14183,6117 18718,8509 4840,2560 27942,15441 33997,19558 -32540,-140273 -382319,-563758 -491130,-748025 -65334,-110636 -168950,-265902 -245802,-369419 -132462,-178424 -365089,-578881 -467105,-784924 -93887,-189618 -29169,-326072 46878,-507213 357989,-852731 586039,-1257361 -21826,-2066746 -53866,-71725 -70510,-107011 -135532,-172645 -283480,-286120 -1135495,-819401 -1470294,-1034538 -74977,-48180 -109702,-82183 -177484,-129877 -107728,-75798 -88356,-56589 -160847,-183974l-184890 83616 183862 261635c23358,31630 60009,87783 89845,130157 543869,772573 601816,680200 968917,1887401 134742,443087 233456,1001351 299501,1456951 67707,467087 6926,354937 256751,623729 99624,107186 376246,369294 423062,473658z"/>
    <path class="fil9" d="M10579367 16088414c-28148,-59379 -5724,-24797 -48927,-77387l-721472 -684410c-149697,-136249 -103143,-165892 -104077,-428399 -785,-218937 -28086,-2013005 2828,-2065545 94933,-78676 172052,-129777 254578,-187313l1665037 -1213411c68698,-56078 53911,-56334 88786,-159420 -252012,-160324 -540381,-179285 -689057,-384480l-1216158 -450282c90679,97930 152837,256160 298722,303699 152905,49818 304969,106095 455663,158766 198014,69202 757978,243491 899485,328346l-2652218 1274235 487311 2828588c36009,97375 1230896,735119 1279499,757013z"/>
    <path class="fil9" d="M10838716 21300851c-17627,-125044 -127385,-203845 -201926,-297644l-637538 -790755c-46579,-56446 -90947,-113664 -137756,-170159 -92486,-111614 -73388,-124470 -152999,-159707l-245465 2903751c147866,98583 276659,171286 424718,262295 104893,64475 349219,224393 440913,258209l510053 -2005990z"/>
    <path class="fil9" d="M15573708 15994527c34638,58931 231095,338025 274199,363539l14189 -413282c-93837,-49077 -206436,-143382 -303636,-215088 -59878,-44168 -271851,-193722 -296467,-247147l-598714 611570c-32527,40120 -53063,70274 -93557,104458 -34869,29443 -90660,69420 -113339,79511l-888006 -448313c-19290,-9368 -37821,-16905 -58912,-28559l-28191 -16420c-33985,-21788 -22941,-14637 -39528,-29599 245384,-481712 641275,-1037366 347156,-1659276 -75487,-295171 -585758,-1507953 -750261,-1634342 84718,245315 233625,420669 278472,694631 97612,596273 10950,1186472 -78713,1774883 -41509,272368 -121824,540786 -160324,802129 46716,54882 1436048,856169 1554302,894109 221522,-184516 129827,-150700 414553,-391550 215486,-182286 255263,-301381 427191,-390858 35541,63104 54240,85590 99586,149604z"/>
    <path class="fil9" d="M14365766 9591520l65427 231594c53568,155832 163282,599723 246711,702448 111783,56328 1272728,233500 1503126,272985 323706,55480 536220,140273 731662,51911 143967,-65085 503893,-253507 633440,-278740l8795 -21894c-269777,14693 -549793,43720 -816119,52901 -141942,4890 -609315,-86574 -723234,-142883l-1341525 -281306 -217666 -815888 -90617 228872z"/>
   </g>
   <g>
    <path class="fil10" d="M9959020 15139927c3775,4958 10664,5151 12844,13572 2143,8285 9804,10290 12744,13237 13542,13560 24118,22972 36526,35778l502099 574490c128532,110425 131752,221889 375517,349474l2456957 1369792c105678,48342 577262,-151634 708017,-200225l535124 -190378c25414,-8041 56925,-14015 82445,-24236l88667 -63447c-106338,-77835 -229513,-173628 -312911,-274672 -58949,-71414 -29500,-34689 -113881,-84064 -252131,-147530 -1237511,-855423 -1423634,-941206 91196,-377416 171934,-777170 232908,-1156268 83254,-517583 129858,-703389 -48168,-1212626 -43084,-123250 -556432,-1438178 -622371,-1485710l-767627 -243360c-52446,7568 -83566,68243 -190265,148377l-189531 162061c-55928,53580 -20673,34514 -90797,84537l-851891 730354c-54060,56035 -37559,35255 -96584,79399 -59653,44611 -41297,44791 -88810,86145 -108811,94703 -129740,16550 -132344,213418 -2772,210191 -24074,465778 -40307,675284 -32184,415593 -71513,925310 -74727,1340274z"/>
    <path class="fil10" d="M15895414 9055686l403104 352408c5095,4491 20163,18038 24828,22978 31425,33249 6702,-567 33841,43932 132001,78059 533293,446718 679458,578906l559940 470998 -41658 24916 -8795 21894c-256945,1011435 -350546,1214364 -655982,2145460 -82538,251613 -692800,1970213 -771857,2043713 -74783,36756 -547562,53287 -651110,35137 -386766,-580501 -938403,-1647074 -1341140,-2270162 -77673,-120172 -145966,-249632 -218575,-374894 -100564,-173509 -157826,-351816 -244201,-352569 115838,287902 912709,1804850 919523,1930416 78676,74827 493871,978193 575661,1148968 208647,435668 338418,543371 668433,825437 38208,32651 70330,74359 100671,108612l583727 -1363264c204249,-465754 390179,-920078 521944,-1433544 132418,-516014 287061,-1026908 413027,-1545526 38581,-158847 172600,-883128 256957,-971409l413942 -346235c-157913,-961773 -289584,-1890029 -360524,-2866022 -58370,-803175 -397984,-1822297 -778484,-2443111 -46516,37791 -27288,-12339 -8689,64051l92872 197117c39154,74516 82849,183856 113520,264196 211300,553424 337353,1248479 432691,1823648 152936,922675 221080,1810904 287255,2750553 -509910,40369 -352059,-72853 -1025438,-380718 -146801,-67116 -347325,-177378 -488738,-258297 -112275,-64244 -388878,-227221 -486203,-247589z"/>
    <path class="fil10" d="M17633634 9234603l-461169 -3314790c-369282,178804 -351604,936222 -537890,1290337 -97587,185506 -78906,310382 -26111,525151 66262,269571 254858,664397 383720,869468 112866,179621 271558,354221 430200,492575l211250 137259z"/>
    <polygon class="fil10" points="8425379,23420443 10362380,23679836 9259773,23121895 9480093,19913220 "/>
    <path class="fil10" d="M3349086 3970205c-2616,-7194 -6335,-15310 -8951,-21147 -2541,-5662 -5737,-13710 -8832,-20449 -2922,-6347 -5544,-12352 -8727,-19079l-61148 -142167c-12701,-45912 -40811,-151528 -47570,-196182 -57236,-378357 802235,-1570740 1048584,-1921248l197142 -286308c-78221,25981 -126675,89004 -186067,143712l-501563 421130 -281169 334195c-247477,291216 -1206547,1661562 -1241889,1810194 381409,-45670 347344,-196507 1100190,-102651z"/>
    <path class="fil10" d="M13922641 18751196c214521,-27475 600377,-172974 829355,-238869 447422,-128749 368920,-101729 525339,-542985 -143301,-12414 -339166,-74571 -492532,-102887 -261598,-48311 -193573,-58582 -420850,59248l-777051 378463c38974,141071 255045,299301 335739,447030z"/>
    <path class="fil10" d="M14813487 3889305c96927,64886 285921,133789 398788,188933 155072,75773 259648,148196 383377,231842 68199,46112 117581,70193 186896,120902l562624 399211c-130257,-205638 -267061,-319370 -359858,-447796l-442619 -502541c-45957,-33991 -59479,-52254 -102134,-95781 -72012,-73475 -262701,-355958 -475097,-132935 -42985,45140 -130681,163295 -151977,238165z"/>
   </g>
   <g>
    <path class="fil11" d="M9480093 19913220l-220320 3208675 1102607 557941 -1937001 -259393 1054714 -3507223zm2696642 -8771048c72410,-193050 419237,-655228 472636,-834668l178126 63839 -89658 604314c18774,-18300 16743,-15174 37361,-40811 17428,-21670 5369,-5750 20380,-27370 73500,-105859 196308,-357397 277083,-453389l144627 38481 -497795 829218 -164490 -38444 88648 -623623c-120222,112249 -225639,399230 -340411,523881l-126507 -41428zm-669467 -243204c123891,-146645 216071,-259026 360518,-369064 126370,-96273 229644,-280664 352438,-369774l189431 67676 -267091 899878 -182411 -49208 60139 -203502 -225527 -65247c-73643,126371 -129354,208280 -287497,89241zm156113 -634075c-40463,15298 224,-8104 -38252,23214 -4540,3694 -17627,16395 -21981,20917 -5967,6185 -30777,38774 -39061,49027 -29132,36009 -48865,59747 -81012,95008l-190639 159402 -142547 -40718 138050 -479308c-55736,65795 -335192,537435 -362960,619045l-152475 -54670 497271 -822808 231339 68747 -162541 513074 389662 -418371c55088,9387 68486,13623 124078,33150l107883 55337c-107036,218818 -396595,620321 -485885,814984l-147150 -40132c60688,-158679 302740,-476542 336220,-595898zm1256657 -5161211l825425 290094 -478199 3296272c4341,-4223 9754,-10047 12514,-13186 2722,-3096 8938,-9356 12183,-13193l854239 -1414832c145536,-240296 283529,-468850 430256,-712396l422313 -715442 384443 124134c56171,388485 159701,524043 49270,699994 -113720,181184 -214053,353355 -322260,534744 -142622,239087 -1853254,3117324 -1932061,3203998l-826290 -287715 465971 -3297356 -78271 99929c-268232,443785 -1522043,2584767 -1657053,2764798l-749351 -265404 2586871 -4294439zm-3229567 -961020c356232,-79635 672606,94566 997520,197616 279045,88499 630986,200742 899473,307871 312979,124882 552720,325132 419486,747340 -72012,228187 -1532844,2633133 -1799911,3055840 -486128,769421 -963093,588797 -1665455,342373 -297600,-104414 -606911,-197373 -898089,-311366 -348858,-136573 -543234,-353268 -422657,-732173 86568,-272037 1212757,-2084137 1343575,-2303585 153042,-256733 299108,-496798 453408,-755138 125044,-209357 115968,-180094 275102,-340667 97705,-98596 227763,-170152 397548,-208111zm-6255826 2886603c30590,-97089 250224,-430773 320211,-547271 266942,-444363 2190059,-3685311 2263565,-3747107l1385613 472574c233612,82040 469080,154438 702611,242308 665898,250554 509947,679508 219229,1164888 -314705,525445 -559728,1120272 -1096652,1235960 -166409,35853 -258683,-21639 -384617,-17821l-348851 2246703c-257306,-50740 -646090,-260738 -884548,-285367l427128 -2146917c-78844,-73594 -525625,-206760 -655016,-236833l-1147641 1899204 -801032 -280321zm8093446 -2618496c-137825,-23844 -341857,-111383 -489922,-158448 -157172,-49956 -581722,-411968 -739647,-534009l-1846633 -1365146c268780,96753 928057,529095 1224904,712664l772566 523788c120683,87776 255232,184846 369469,267802 129696,94179 240239,181694 361402,275600 123704,95880 230759,165307 347861,277749zm-4964007 -3920953c-141213,11280 -687294,349150 -847244,461106l-486925 391893c-87745,78832 -157128,115164 -241965,197727 -385894,375548 -779063,1171112 -1040842,1551966 -151167,219928 -517932,824721 -673702,1022480l-23701 26952c-159638,-947 -604432,-32714 -703271,78938 -9636,240033 51587,884872 57336,1207917 991,55474 -3513,102601 30173,136317l1741951 -2900754c58208,-96590 186728,-331884 258166,-404562 101050,36395 721415,228436 796535,289105l-645380 1073948c-213587,355049 -426967,713461 -642758,1071213 -190365,315608 -1112635,1890901 -1288357,2139144l-175403 -37447c-45489,62861 -14115,-1969 -8664,84861 3544,56483 7119,58788 1121,109820 151927,81243 1473919,525875 1779530,641575 494381,187163 4560491,1597611 4708344,1708353 116236,87066 77667,100446 322354,293471 82040,64723 69856,67794 132886,145822l-6708911 -2352537c41515,173429 150457,412367 212590,593233 65546,190807 138604,390285 211032,579897 436192,1141891 850053,2398275 1285834,3526532 263691,682722 285653,591227 107765,838337l-333753 479077c-53169,80607 -96870,148738 -159719,235935l-1582705 2306033c-25775,48012 -12938,7543 -22574,60282 39011,742 -8676,-28279 31817,16687l-736607 1678237 522884 60270c28877,-86718 231176,-356220 295439,-449229l2047643 -3013695 -2174007 5446086 -613669 1598894c92840,346285 757156,2858436 834879,2951258 564711,-157434 1582730,-531842 2217540,-737206 320137,-103560 2062611,-714277 2227432,-727831 145187,162136 1037453,816305 1290100,1057392 258670,71668 1506259,216052 1619107,297501l345120 33430 788070 -2758682 139968 -502609c-97550,-47190 -164030,-124751 -247970,-195498 -104021,-87677 -104843,-105989 -190489,-224113l-182368 723509 -510053 2005990c-91694,-33816 -336020,-193734 -440913,-258209 -148059,-91009 -276852,-163712 -424718,-262295l245465 -2903751 994219 -388117c-32022,-98902 19098,-408866 40656,-521353l-89633 17404c-84687,-10919 -1109103,143973 -1317794,193672 -98415,23439 -53275,16245 -117824,73339 -20891,206697 -959998,2141797 -1128506,2577005l576141 -2451109 -568698 -520411c-77717,-63503 -76726,-44947 -154823,-131266 -54839,-60600 -336014,-268892 -426942,-389706l1443373 551879c89726,23034 158380,66786 245689,67209l1814237 -257250c-76907,-58482 -70691,9381 -88960,-39167 -2903,-7705 -12053,-4659 -17285,-8340l1017160 -549936c-37267,-43353 -807255,-388722 -926325,-457943 -296168,-172196 -610343,-315608 -899859,-484409l-1372613 -736975c-71513,-34395 -159153,-84718 -227533,-124402 -80146,-46510 -43253,3594 -80912,-94728 -133951,-349661 -1378705,-4316004 -1360336,-4352473l134212 -108276c207208,-165730 793838,-623399 903540,-739666 -233656,-148856 -509455,-302197 -757094,-443872l-2247127 -1327249c208690,38787 3758294,1262582 3797018,1294031 115128,8889 1941436,618603 2003300,677926 -239267,73855 -2070378,1009374 -2259017,1041695l270411 2114902c65664,329467 131092,658853 197136,989055 71463,357316 2890,278409 521950,638877 62295,43253 112773,87073 176045,131329l1524865 1111906c119961,84924 224916,164597 345051,248536 118198,82582 228473,164011 345052,248430l255917 184759c51182,39504 40481,29681 51849,58881 24504,-84325 -11561,-26908 -3744,-79722 8067,-54484 64574,-48267 147916,-84880l-374688 -310607c-362057,-314486 -867575,-690146 -1219372,-999501 -42369,-37254 -63653,-50166 -95544,-84356l-294237 -232161c-27189,-26578 -51270,-59653 -79393,-68093l1127796 648631c183009,114891 378445,219367 568604,332395 98416,58495 493372,307112 581971,318386 2199,-3096 5083,-7942 6067,-9655l28671 -55324c1364,-9480 5681,-12134 9132,-17858 -370110,-204554 -729619,-414665 -1091302,-627230 -179296,-105372 -366528,-210303 -544660,-312151 -137358,-78532 -418203,-223602 -512887,-306233 -48603,-21894 -1243490,-659638 -1279499,-757013l-487311 -2828588 2652218 -1274235c-141507,-84855 -701471,-259144 -899485,-328346 -150694,-52671 -302758,-108948 -455663,-158766 -145885,-47539 -208043,-205769 -298722,-303699l1216158 450282 1738002 647367c268624,95294 434909,120428 517298,273756 116939,217641 1048858,2007031 1087321,2034407 80028,-37298 -36887,-5706 91196,-61678 23682,-10346 46074,-14457 63577,-21527 90262,-36444 -25170,45134 58333,-31555 -6814,-125566 -803685,-1642514 -919523,-1930416 38930,-69352 12775,-40973 61784,-66225 -15778,-228947 -136636,-205489 -347151,-262271 -139756,-37690 -362598,-56732 -459786,-131459 108637,-180418 516693,-680037 583509,-826514l-155664 -96391c130954,-166004 692520,-1127435 780826,-1210639 112841,49861 25432,68977 165593,91594l12775 2249c37485,-121200 -118864,-236004 -56800,-364280 49425,-102153 129098,-227034 182728,-323867 120802,-218121 250156,-434959 363969,-646901 116809,-217535 695248,-1177277 730808,-1319014 54191,63683 56988,206934 67539,289939l102109 817283c38787,306944 1688,262582 156101,477470 63303,88107 190645,321600 296660,349312 71780,-47177 116323,52740 176001,100347 46442,37049 57125,35143 100452,76570 54241,51874 30372,40762 94292,75132 -69414,-85615 -53923,14389 -60613,-104183 -2709,-48049 9182,-58245 25408,-101050 -46816,-104364 -323438,-366472 -423062,-473658 -249825,-268792 -189044,-156642 -256751,-623729 -66045,-455600 -164759,-1013864 -299501,-1456951 -367101,-1207201 -425048,-1114828 -968917,-1887401 -29836,-42374 -66487,-98527 -89845,-130157l-183862 -261635 184890 -83616 1005169 -408897c-4329,-4715 -11131,-9568 -14581,-12514 -200855,-171373 -247739,-293371 -346435,-386467 17715,-9760 23470,-38812 28547,-46286 -27762,-23763 -259792,-139171 -316605,-168521 -104619,-54053 -206086,-125529 -299836,-183227 -199995,-123087 -394995,-259822 -568504,-398638 -744917,-595979 -1674269,-986782 -2587040,-1301823l-1440726 -475159c-70728,94435 -295015,61242 -413245,64917 -498218,15491 -2811333,146813 -2929419,98073z"/>
    <path class="fil11" d="M9913612 4960400c-148171,63054 -208547,227632 -329155,429365l-1138547 1893785c-58464,97406 -266488,390229 -237013,503918 27064,104401 338399,174761 526372,240569 731949,256241 558090,301867 1193735,-755487 188303,-313235 380450,-633745 569096,-947067 685693,-1138834 713567,-980360 -2673,-1223097 -127404,-43178 -465953,-191293 -581815,-141986z"/>
    <path class="fil11" d="M5787531 4753659c247353,41958 1008851,391980 1180710,347818 146477,-37635 265516,-311566 337521,-430106 83348,-137203 269708,-373455 249128,-547607 -149430,-109067 -341203,-149411 -556751,-225010 -181576,-63683 -408012,-153721 -583659,-197036 -43365,42692 -592690,961107 -626949,1051941z"/>
    <path class="fil11" d="M14456383 9362648l217666 815888 1341525 281306 110717 -116211 -1158703 -249757 -179384 -646202c278266,-83591 563303,-164896 845382,-249745 171248,-51512 169293,-91900 362654,74279 75643,65010 205993,218575 286376,231967 12445,-13753 -6366,-51674 74571,-29169 -27139,-44499 -2416,-10683 -33841,-43932 -4665,-4940 -19733,-18487 -24828,-22978l-403104 -352408c-131391,-118098 -111758,-96011 -323948,-31636 -125468,38064 -245983,74160 -372534,113993 -228304,71869 -528945,131877 -742549,224605z"/>
   </g>
   <path class="fil12" d="M10931899 24470902c-92529,14675 -246711,91981 -313309,161737 262426,281381 471154,279811 818217,360917 184504,43122 1329959,318055 1472848,306327 175428,-14401 352570,-55705 531418,-77275 246032,-29668 820840,-103697 1033193,-172464 -45054,-84419 -486073,-385707 -594965,-477762l-1133981 -887420c-40998,-36165 -36949,-45732 -75020,-100938l-1067439 -1512556c-57323,118939 -128849,439106 -171828,590516 -107939,380251 -477028,1593731 -499134,1808918z"/>
   <path class="fil13" d="M14016342 25404533c-101306,52472 -523533,112916 -692327,141319 -349886,58888 -335117,74970 -690540,10128 -442021,-80638 -893480,-160797 -1335938,-250354 -1099698,-222600 -629085,-47028 -1682285,-709700 -86419,-54371 -433401,-258832 -471771,-316772l1042904 -54340c-112848,-81449 -1360437,-225833 -1619107,-297501l-823306 -132481c61858,64979 37740,33872 136317,97126l391176 245552c168932,107666 347905,214633 527862,329193l1041097 650812c409102,237736 646383,458616 1113357,602713 428275,132157 870459,257088 1296635,392316 865650,274672 1748890,514656 2608697,799749 417711,138504 872352,269733 1296385,393842 342068,100122 1007057,353162 1328402,353242 -57324,-116858 -289011,-180884 -461961,-252933l-1500584 -630132c-95388,-40294 -446239,-176755 -503519,-221653 -121543,-95270 -192900,-224268 -250231,-277830 -135134,-126252 -95824,-119263 -180168,-193162 -53344,-46741 -41397,-32595 -83018,-92554 -35242,-50765 -37672,-58731 -79909,-96272l-327300 -374913c-23738,-23620 -66474,-53786 -73450,-94429 -1887,-11000 -6036,-13685 -7418,-20966z"/>
   <path class="fil14" d="M1386142 15053166c69832,-101860 790699,-2124501 897579,-2417953 259636,-712894 290481,-478217 63796,-1273108 -65652,-230217 -285760,-1188259 -342398,-1310381 -54247,171878 -299849,2095368 -352259,2458041 -118110,817296 -270523,1708266 -266718,2543401z"/>
   <path class="fil15" d="M10779605 16417707c119176,43956 1592478,1072403 1833845,1246268 101031,72771 175372,114635 274977,186528 82576,59603 461394,342822 527525,336101 192140,-19540 968519,-504261 1262332,-455196 256291,42804 513205,91532 768742,138684l88132 -333011 -536034 -238034c-114236,-46430 -92728,-48840 -204442,1968l-1101205 482136c-187861,83067 -191331,133022 -355541,35984 -117918,-69682 -604968,-337926 -653590,-402270 -88599,-11274 -483555,-259891 -581971,-318386 -190159,-113028 -385595,-217504 -568604,-332395l-1127796 -648631c28123,8440 52204,41515 79393,68093l294237 232161z"/>
   <path class="fil16" d="M13038641 12461579c164503,126389 674774,1339171 750261,1634342 4211,-5307 9767,-20399 12147,-16295 6135,10577 4715,-58769 153054,-90722 94236,-20300 -29580,59111 57399,-17292 -5027,-194843 -446345,-1006184 -556165,-1214775 -100185,-190284 -200861,-385950 -308171,-570504 -199677,-343419 -100950,-261809 -470662,-427060 67359,138791 352271,595251 362137,702306z"/>
   <path class="fil17" d="M16282616 9504173c79224,109895 130712,133459 235705,233811l366130 314861c28129,21894 36880,23800 63558,47414 81480,72098 279737,229943 304203,287485 -399067,6017 -747645,106033 -1125921,-44113l-110717 116211c113919,56309 581292,147773 723234,142883 266326,-9181 546342,-38208 816119,-52901l41658 -24916 -559940 -470998c-146165,-132188 -547457,-500847 -679458,-578906 -80937,-22505 -62126,15416 -74571,29169z"/>
   <path class="fil18" d="M15181411 17195605l616491 196457 50005 -1033996c-43104,-25514 -239561,-304608 -274199,-363539 -10402,25563 -13068,2074 -772,50896 48777,193641 212577,180797 155471,475906 -29201,150875 -71015,560880 -133253,659009 -101636,48822 -384219,-61584 -413743,15267z"/>
   <path class="fil19" d="M16519012 8830738l594092 510477c57816,47196 52335,57442 116149,103124l116547 102757c57349,49955 73762,41833 138822,112430 -797,-94354 37940,-14301 -39995,-101723 -44449,-49861 -51998,-11529 -200369,-172077 -165786,-179402 -566679,-642558 -760451,-760221 -16226,42805 -28117,53001 -25408,101050 6690,118572 -8801,18568 60613,104183z"/>
   <polygon class="fil20" points="11900175,10701203 12060424,10767558 12193821,10390528 "/>
   <path class="fil21" d="M17569901 9705719c-6055,-4117 -29157,-16998 -33997,-19558 -4535,-2392 -15242,112 -18718,-8509 -3538,-8782 -13012,-5070 -19458,-7761 22043,30179 6328,15977 35217,41951 4946,4448 21378,15852 26728,19615 19048,13417 45365,26161 64649,37310 -42219,-39783 -27214,-20169 -54421,-63048z"/>
   <path class="fil22" d="M11663381 10264893c43919,-32166 18206,67707 37111,-46455l-37111 46455z"/>
  </g>
 </g>
</svg>
