<?xml version="1.0" encoding="UTF-8"?>
<!DOCTYPE svg PUBLIC "-//W3C//DTD SVG 1.1//EN" "http://www.w3.org/Graphics/SVG/1.1/DTD/svg11.dtd">
<!-- Creator: CorelDRAW X7 -->
<svg xmlns="http://www.w3.org/2000/svg" xml:space="preserve" width="3000px" height="3000px" version="1.1" style="shape-rendering:geometricPrecision; text-rendering:geometricPrecision; image-rendering:optimizeQuality; fill-rule:evenodd; clip-rule:evenodd"
viewBox="0 0 17637346 17637346"
 xmlns:xlink="http://www.w3.org/1999/xlink">
 <defs>
  <style type="text/css">
   <![CDATA[
    .fil2 {fill:none}
    .fil4 {fill:#B40001}
    .fil0 {fill:#B40001}
    .fil1 {fill:#FEC501}
    .fil5 {fill:#FFC602}
    .fil7 {fill:#B40001;fill-rule:nonzero}
    .fil8 {fill:#FFC602;fill-rule:nonzero}
    .fil6 {fill:#B40001;fill-rule:nonzero;fill-opacity:0.149020}
    .fil3 {fill:gray;fill-opacity:0.200000}
   ]]>
  </style>
 </defs>
 <g id="Layer_x0020_1">
  <metadata id="CorelCorpID_0Corel-Layer"/>
  <g id="_623283933216">
   <g>
    <path class="fil0" d="M10015978 14451131c28275,-2131 147723,-11943 165673,15791 18727,38406 -65981,281885 -82174,338734 -24511,86076 -224619,795069 -248263,821574 -25657,28747 -138550,25331 -186240,18693l351004 -1194792zm-290100 -279586c2701,24713 -227785,793764 -256075,886089l-196580 667608c-19873,67911 -49252,150674 -63529,218738 143293,2069 652144,9159 763065,-13075 215606,-43226 225633,-235278 296197,-473994 84416,-285565 184359,-609891 263039,-894942 28553,-103463 79264,-201719 56967,-313605 -25393,-29198 -36587,-81992 -150320,-84826l-482360 -41c-55912,0 -194331,-13027 -230404,8048z"/>
    <path class="fil0" d="M11872815 14450319c56461,-1118 131572,-8069 172131,15117 11992,49676 -13742,107157 -29213,157646 -102317,333908 -52203,299668 -281218,299328l138300 -472091zm-348455 -80979c1770,29643 -307223,1062949 -343498,1182598l-114351 392347 369877 -1576c48440,-183998 112928,-386508 167492,-573255 5410,-18526 44295,-179519 63224,-184574 128183,0 179679,-29644 139974,105261 -60168,204455 -143050,458217 -191837,653992l369821 7c16409,-84069 155702,-522920 191831,-654499 25782,-93901 12263,-155069 -62599,-190101 87597,-11763 128065,-45121 151230,-121010l181915 -623925c22275,-223973 -199316,-191108 -333520,-191108 -174596,0 -349191,0 -523787,0l-46760 157542c-2236,8381 -4305,19109 -7513,27504l-11499 20797z"/>
    <path class="fil0" d="M9146186 14456173c18734,42711 -61884,269414 -78452,328679l-245360 830684c-25817,55794 -170471,27838 -170569,27783 -33642,-18763 13701,-133759 24318,-168229l294550 -992816c22346,-46530 124712,-39003 175513,-26101zm404937 -87805c16443,-58078 1965,-119712 -26422,-156438 -27282,-35295 -81861,-48635 -144536,-48544 -705112,1014 -672024,-59231 -794444,368759 -19755,69057 -341505,1142018 -351712,1200589 -22387,128364 58786,206246 175797,211211 125114,5305 261873,229 388285,278 324354,118 319007,-113011 399833,-376460 60641,-197663 120351,-400264 176818,-599344 56780,-200183 119601,-399541 176381,-600051z"/>
    <path class="fil0" d="M5157903 14163483l-365843 -160 -523309 1780900 366524 -347 224244 -758309c206107,-8846 182755,-6215 119302,208086l-108372 367635c-16138,56536 -41726,126523 -52968,182928l367419 7 135461 -462057c34615,-112546 130516,-329652 24838,-400708 -6548,-4409 -15478,-8589 -22741,-12256 -9034,-4569 -3660,-1354 -12437,-6395 -16193,-9312 -4603,-1833 -12616,-8485 102018,-14138 153278,-55357 180713,-143300l218182 -747643 -356698 2000c-18713,41288 -110858,372495 -133926,449405 -22303,74396 -43003,147771 -65730,222550 -12311,40510 -21998,72320 -64883,82166 -26151,6000 -110963,5770 -137620,264l220460 -756281z"/>
    <path class="fil0" d="M7214042 14163545c-1777,38407 -212439,727819 -242124,830344 -12326,42559 -22471,103950 -56106,120198 -28095,13568 -138447,12805 -158688,-3930 -25581,-33872 36795,-190101 51003,-238861 61800,-212120 146494,-512622 211627,-707834l-371072 1486c-68119,230549 -137634,459814 -204294,689169 -33373,114816 -73439,231466 -101915,345074 -18894,75361 -6007,130336 43128,164791 49871,34976 127919,20220 194059,25706l-159673 554535 338047 0c16283,-4389 39142,-105810 47586,-134884 25032,-86194 103484,-378182 125239,-421116 71702,0 153854,7062 216113,-19464 53509,-22796 91777,-62654 115552,-119447l271164 -905032c14770,-48739 44204,-132857 51877,-180769l-371523 34z"/>
    <path class="fil0" d="M8063808 14786595c71390,-9756 162632,-37330 234723,-53717 16068,-3653 105143,-22186 113782,-27297 19234,-11395 97165,-304168 101873,-321326 17824,-64952 53675,-157729 62883,-220793 -161486,0 -322979,0 -484472,0 -156798,0 -320617,-25831 -393264,82222 -44045,65508 -194101,607009 -227716,724701 -35316,123655 -74841,247408 -109699,372307 -26504,94992 -96109,283462 -98581,377696 -4021,153112 104491,221189 252936,223745 157868,2715 318236,90 476382,90 22685,-12041 29421,-53988 39045,-78847 24845,-64168 87853,-211683 99436,-259186 -89277,0 -178547,0 -267824,0 -63036,0 -209530,28553 -197552,-59509l239840 -818442c93881,-321277 45350,-279469 254623,-277955l-96415 336311z"/>
    <path class="fil0" d="M12558061 14376930c812,30420 -137474,483791 -158077,553791 -26518,90117 -64827,215454 21249,264894 87006,49975 260761,2097 324263,28990 4409,20624 -76084,299960 -91082,336665 -24241,59342 -84556,44920 -170111,44920 -266198,-7 -216994,-24824 -249950,81805l-75299 256228c199295,0 409812,6590 607697,-167 101637,-3472 155125,-45239 178332,-127065 42954,-151466 181373,-587810 205148,-700203 54169,-256130 -174471,-218439 -368870,-218439 12749,-58828 34462,-123468 51356,-181415 75751,-259838 43136,-232653 221863,-232653 63536,0 160694,5708 220620,-1451l37878 -120371 55468 -198962c-171284,0 -342575,83 -513858,0 -86132,-49 -154410,-1618 -209371,48329 -62599,56891 -65619,144057 -87256,165104z"/>
    <path class="fil0" d="M10736081 14267474c806,38087 -212620,736130 -241971,838475 -36956,128829 -223911,734943 -245798,838274l678024 0c17040,-3889 26858,-47913 36538,-75431 23345,-66425 82826,-214717 93291,-262546l-334207 -56c-1056,-30115 100671,-358594 118121,-412825l322090 -1180 91249 -314327 -318625 -1639 113351 -391618 327993 -445 38503 -121697 56578 -197428 -699126 -1569c-10638,29907 -15603,81028 -36011,104012z"/>
    <path class="fil0" d="M6529408 14163448l-698918 618 -523086 1780081 687620 -271 120240 -337658 -338006 -1229 121691 -412749 312327 0c15964,-9020 13450,-12860 19359,-34448 15763,-57572 78848,-255158 79160,-281496l-317083 -632 113406 -391265 328104 -118 95186 -320833z"/>
   </g>
   <g>
    <path class="fil1" d="M6093696 15367808l52912 0 0 47038 -76431 0c1667,-19985 2826,-47038 23519,-47038zm-2004783 430428l0 -19450c1993,-73667 44816,-186539 64647,-258137l150772 -513573c45072,-151244 104046,-368017 151292,-513039l150654 -513691 5408762 0 0 182220 -259109 -659c-26449,583 -20720,-4271 -30053,9638 2701,24713 -227785,793764 -256075,886089l-196580 667608c-19873,67911 -49252,150674 -63529,218738 143293,2069 652144,9159 763065,-13075 215606,-43226 225633,-235278 296197,-473994 84416,-285565 184359,-609891 263039,-894942 28553,-103463 79264,-201719 56967,-313605l143363 -3680c1569,5222 5347,8138 3756,22790 806,38087 -212620,736130 -241971,838475 -36956,128829 -223911,734943 -245798,838274l678024 0c17040,-3889 26858,-47913 36538,-75431 23345,-66425 82826,-214717 93291,-262546l-334207 -56c-1056,-30115 100671,-358594 118121,-412825l322090 -1180 91249 -314327 -318625 -1639 113351 -391618 327993 -445 38503 -121697c27838,-20179 50364,-11701 105491,-11701 569,1618 2458,1854 2569,4465 799,18408 -271,-4826 1660,14117 1770,29643 -307223,1062949 -343498,1182598l-114351 392347 369877 -1576c48440,-183998 112928,-386508 167492,-573255 5410,-18526 44295,-179519 63224,-184574 128183,0 179679,-29644 139974,105261 -60168,204455 -143050,458217 -191837,653992l369821 7c16409,-84069 155702,-522920 191831,-654499 25782,-93901 12263,-155069 -62599,-190101 87597,-11763 128065,-45121 151230,-121010l181915 -623925c33587,-7721 72188,-3847 107414,-3847l2958 10756c83,903 250,15138 250,15416 812,30420 -137474,483791 -158077,553791 -26518,90117 -64827,215454 21249,264894 87006,49975 260761,2097 324263,28990 4409,20624 -76084,299960 -91082,336665 -24241,59342 -84556,44920 -170111,44920 -266198,-7 -216994,-24824 -249950,81805l-75299 256228c199295,0 409812,6590 607697,-167 101637,-3472 155125,-45239 178332,-127065 42954,-151466 181373,-587810 205148,-700203 54169,-256130 -174471,-218439 -368870,-218439 12749,-58828 34462,-123468 51356,-181415 75751,-259838 43136,-232653 221863,-232653 63536,0 160694,5708 220620,-1451l37878 -120371c23686,-16589 21672,-12583 53107,-12152 19651,264 39100,451 58779,451l88409 -437c33532,5833 10937,-6486 23297,12165 -4000,48045 -75737,272456 -94068,299835 -70550,0 -141099,0 -211649,0 -66188,0 -159458,-14936 -164610,47031 102706,0 164916,-9242 219099,45461 25678,25928 39892,36657 49044,80299 5784,27594 3444,355503 2507,391813 -1486,57286 -94131,358760 -111185,412061 -21318,66661 -38136,135314 -58787,199885 -40801,127558 -34212,206649 -134036,259866l-39337 19450c-4257,1236 -5705293,6194 -5727763,-97l-20470 -8923c-17291,-6819 -30970,-8659 -47468,-17207 -149105,-77229 -122434,-187859 -122434,-400798 -4222,6069 -701,-785 -6305,11332 -19443,42024 -117164,396535 -117164,417839l-717249 0 0 -152855 -18526 34386c-4431,12596 -7618,24032 -13013,39899 -9812,28838 -21373,42225 -21373,78570l-2092970 0 0 -5236 0 -5236c35,-103831 556,-207815 0,-311625zm8277810 -383390l0 -17638 82306 0c-17450,15166 -8736,8902 -34581,12451 -18776,2576 -25740,5187 -47725,5187zm-4280007 0l-152855 0 119601 -403639c16735,-60467 -9701,-49051 144960,-49051 28164,0 12540,25310 7409,42274 -6903,22790 -11972,39240 -18436,58398l-100679 352018zm1464407 -1046478c-56780,200510 -119601,399868 -176381,600051 -56467,199080 -116177,401681 -176818,599344 -80826,263449 -75479,376578 -399833,376460 -126412,-49 -263171,5027 -388285,-278 -117011,-4965 -198184,-82847 -175797,-211211 10207,-58571 331957,-1131532 351712,-1200589 122420,-427990 89332,-367745 794444,-368759 62675,-91 117254,13249 144536,48544 28387,36726 42865,98360 26422,156438zm-1487315 418227l96415 -336311c-209273,-1514 -160742,-43322 -254623,277955l-239840 818442c-11978,88062 134516,59509 197552,59509 89277,0 178547,0 267824,0 -11583,47503 -74591,195018 -99436,259186 -9624,24859 -16360,66806 -39045,78847 -158146,0 -318514,2625 -476382,-90 -148445,-2556 -256957,-70633 -252936,-223745 2472,-94234 72077,-282704 98581,-377696 34858,-124899 74383,-248652 109699,-372307 33615,-117692 183671,-659193 227716,-724701 72647,-108053 236466,-82222 393264,-82222 161493,0 322986,0 484472,0 -9208,63064 -45059,155841 -62883,220793 -4708,17158 -82639,309931 -101873,321326 -8639,5111 -97714,23644 -113782,27297 -72091,16387 -163333,43961 -234723,53717zm-1629586 -302314l-328104 118 -113406 391265 317083 632c-312,26338 -63397,223924 -79160,281496 -5909,21588 -3395,25428 -19359,34448l-312327 0 -121691 412749 338006 1229 -120240 337658 -687620 271 523086 -1780081 698918 -618 -95186 320833zm-1496779 435483c26657,5506 111469,5736 137620,-264 42885,-9846 52572,-41656 64883,-82166 22727,-74779 43427,-148154 65730,-222550 23068,-76910 115213,-408117 133926,-449405l356698 -2000 -218182 747643c-27435,87943 -78695,129162 -180713,143300 8013,6652 -3577,-827 12616,8485 8777,5041 3403,1826 12437,6395 7263,3667 16193,7847 22741,12256 105678,71056 9777,288162 -24838,400708l-135461 462057 -367419 -7c11242,-56405 36830,-126392 52968,-182928l108372 -367635c63453,-214301 86805,-216932 -119302,-208086l-224244 758309 -366524 347 523309 -1780900 365843 160 -220460 756281zm2082311 -756302l194288 83 371523 -34c-7673,47912 -37107,132030 -51877,180769l-271164 905032c-23775,56793 -62043,96651 -115552,119447 -62259,26526 -144411,19464 -216113,19464 -21755,42934 -100207,334922 -125239,421116 -8444,29074 -31303,130495 -47586,134884l-338047 0 159673 -554535c-66140,-5486 -144188,9270 -194059,-25706 -49135,-34455 -62022,-89430 -43128,-164791 28476,-113608 68542,-230258 101915,-345074 66660,-229355 136175,-458620 204294,-689169l371072 -1486z"/>
    <path class="fil1" d="M9725878 14171545c36073,-21075 174492,-8048 230404,-8048l482360 41c113733,2834 124927,55628 150320,84826l143363 -3680c1569,5222 5347,8138 3756,22790 20408,-22984 25373,-74105 36011,-104012l699126 1569 -56578 197428c27838,-20179 50364,-11701 105491,-11701 569,1618 2458,1854 2569,4465 799,18408 -271,-4826 1660,14117l11499 -20797c3208,-8395 5277,-19123 7513,-27504l46760 -157542c174596,0 349191,0 523787,0 134204,0 355795,-32865 333520,191108 33587,-7721 72188,-3847 107414,-3847l2958 10756c83,903 250,15138 250,15416 21637,-21047 24657,-108213 87256,-165104 54961,-49947 123239,-48378 209371,-48329 171283,83 342574,0 513858,0l-55468 198962c23686,-16589 21672,-12583 53107,-12152 19651,264 39100,451 58779,451l88409 -437c33532,5833 10937,-6486 23297,12165l11756 -382140c-295912,0 -591831,0 -887749,0l-1514 0 -99609 0 -4430 347c-79528,6993 -42163,702 -84250,-347l-2455834 0 0 182220 -259109 -659c-26449,583 -20720,-4271 -30053,9638z"/>
    <path class="fil1" d="M9664974 15645923c47690,6638 160583,10054 186240,-18693 23644,-26505 223752,-735498 248263,-821574 16193,-56849 100901,-300328 82174,-338734 -17950,-27734 -137398,-17922 -165673,-15791l-351004 1194792z"/>
    <path class="fil1" d="M9146186 14456173c-50801,-12902 -153167,-20429 -175513,26101l-294550 992816c-10617,34470 -57960,149466 -24318,168229 98,55 144752,28011 170569,-27783l245360 -830684c16568,-59265 97186,-285968 78452,-328679z"/>
    <path class="fil1" d="M7214042 14163545l-194288 -83c-65133,195212 -149827,495714 -211627,707834 -14208,48760 -76584,204989 -51003,238861 20241,16735 130593,17498 158688,3930 33635,-16248 43780,-77639 56106,-120198 29685,-102525 240347,-791937 242124,-830344z"/>
    <path class="fil1" d="M11734515 14922410c229015,340 178901,34580 281218,-299328 15471,-50489 41205,-107970 29213,-157646 -40559,-23186 -115670,-16235 -172131,-15117l-138300 472091z"/>
   </g>
  </g>
  <circle class="fil2" cx="8818673" cy="8818673" r="8818672"/>
  <g id="_623283938176">
   <g id="_575974838336">
    <path class="fil3" d="M8269693 12860972l7800331 -13666 -1680818 -2809115 -7798 0c2340,-18290 3958,-36781 3958,-55766l0 -6189257c0,-240215 -192282,-434920 -429414,-434920l-10306056 0c-237188,0 -429421,194705 -429421,434920l0 6189257c0,24901 2514,49100 6472,72813l-3444 -74049 -1753729 2891608 17728 0c8055,153126 170020,275400 369162,275400l13859711 0c204274,0 369905,-128600 369905,-287225l-7816580 0 -7 0z"/>
    <path class="fil4" d="M14463679 9747564c0,237569 -192594,430157 -430171,430157l-10324180 0c-237590,0 -430184,-192595 -430184,-430157l0 -6121701c0,-237583 192594,-430163 430184,-430163l10324180 0c237577,0 430171,192580 430171,430163l0 6121701z"/>
    <polygon class="fil5" points="3275276,9819564 1525401,12606348 16151316,12581101 14467526,9802705 "/>
    <path class="fil4" d="M16167571 12594592c0,156917 -165916,284149 -370571,284149l-13884042 0c-204649,0 -370586,-127232 -370586,-284149l14625199 0z"/>
    <polygon class="fil5" points="13845865,9293930 3902714,9293930 3902714,3757095 13845865,3757095 "/>
    <g>
     <g>
      <polygon class="fil6" points="4006844,10636111 3664700,10636111 3819617,10288676 4150533,10288676 "/>
      <polygon class="fil6" points="4270904,11074552 3469210,11074552 3624120,10727124 4400546,10727124 "/>
      <polygon class="fil6" points="4110446,11554364 3273873,11554364 3428214,11206936 4239539,11206936 "/>
      <polygon class="fil6" points="4417398,10636111 4075255,10636111 4216707,10288676 4547616,10288676 "/>
      <polygon class="fil6" points="4827953,10636111 4485837,10636111 4613784,10288676 4944699,10288676 "/>
      <polygon class="fil6" points="5238507,10636111 4896384,10636111 5010874,10288676 5341783,10288676 "/>
      <polygon class="fil6" points="5649061,10636111 5306945,10636111 5407950,10288676 5738859,10288676 "/>
      <polygon class="fil6" points="6059643,10636111 5717500,10636111 5805048,10288676 6135956,10288676 "/>
      <polygon class="fil6" points="6470191,10636111 6128054,10636111 6202117,10288676 6533026,10288676 "/>
      <polygon class="fil6" points="6880752,10636111 6538608,10636111 6599214,10288676 6930109,10288676 "/>
      <polygon class="fil6" points="7291300,10636111 6949170,10636111 6996291,10288676 7327199,10288676 "/>
      <polygon class="fil6" points="7701861,10636111 7359717,10636111 7393388,10288676 7724289,10288676 "/>
      <polygon class="fil6" points="8112415,10636111 7770292,10636111 7790457,10288676 8121366,10288676 "/>
      <polygon class="fil6" points="8522983,10636111 8180868,10636111 8187554,10288676 8518456,10288676 "/>
      <polygon class="fil6" points="8933524,10636111 8591401,10636111 8584624,10288676 8915532,10288676 "/>
      <polygon class="fil6" points="9344092,10636111 9001941,10636111 8981700,10288676 9312623,10288676 "/>
      <polygon class="fil6" points="9754653,10636111 9412531,10636111 9378790,10288676 9709699,10288676 "/>
      <polygon class="fil6" points="10165208,10636111 9823092,10636111 9775881,10288676 10106796,10288676 "/>
      <polygon class="fil6" points="10575755,10636111 10233639,10636111 10172957,10288676 10503845,10288676 "/>
      <polygon class="fil6" points="10986316,10636111 10644173,10636111 10570054,10288676 10900942,10288676 "/>
      <polygon class="fil6" points="11396871,10636111 11054755,10636111 10967124,10288676 11298011,10288676 "/>
      <polygon class="fil6" points="11807446,10636111 11465323,10636111 11364200,10288676 11695109,10288676 "/>
      <polygon class="fil6" points="12218007,10636111 11875843,10636111 11761276,10288676 12092206,10288676 "/>
      <polygon class="fil6" points="12628555,10636111 12286432,10636111 12158367,10288676 12489275,10288676 "/>
      <polygon class="fil6" points="13039116,10636111 12696986,10636111 12555478,10288676 12886365,10288676 "/>
      <polygon class="fil6" points="13449670,10636111 13107548,10636111 12952533,10288676 13283449,10288676 "/>
      <polygon class="fil6" points="13860232,10636111 13518095,10636111 13349631,10288676 13680532,10288676 "/>
      <polygon class="fil6" points="3442365,12001082 3056101,12001082 3211018,11653640 3586047,11653640 "/>
      <polygon class="fil6" points="3905853,12001082 3519595,12001082 3661048,11653640 4036050,11653640 "/>
      <polygon class="fil6" points="4369340,12001082 3983103,12001082 4111071,11653640 4486080,11653640 "/>
      <polygon class="fil6" points="4832827,12001082 4446583,12001082 4561080,11653640 4936110,11653640 "/>
      <polygon class="fil6" points="5296321,12001082 4910077,12001082 5011110,11653640 5386112,11653640 "/>
      <polygon class="fil6" points="5759829,12001082 5373585,12001082 5461112,11653640 5836142,11653640 "/>
      <polygon class="fil6" points="11765922,12001082 5856383,12001082 5929898,11653640 11667618,11653640 "/>
      <polygon class="fil6" points="12248734,12001082 11862497,12001082 11761394,11653640 12136396,11653640 "/>
      <polygon class="fil6" points="12712221,12001082 12325963,12001082 12211397,11653640 12586420,11653640 "/>
      <polygon class="fil6" points="13175708,12001082 12789471,12001082 12661427,11653640 13036429,11653640 "/>
      <polygon class="fil6" points="13639244,12001082 13252993,12001082 13111443,11653640 13486473,11653640 "/>
      <polygon class="fil6" points="14102683,12001082 13716446,12001082 13561459,11653640 13936461,11653640 "/>
      <polygon class="fil6" points="14566219,12001082 14179975,12001082 14011475,11653640 14386505,11653640 "/>
      <polygon class="fil6" points="4680639,11074552 4324351,11074552 4452326,10727124 4797372,10727124 "/>
      <polygon class="fil6" points="5108213,11074552 4751924,11074552 4866394,10727124 5211475,10727124 "/>
      <polygon class="fil6" points="5535773,11074552 5179491,11074552 5280489,10727124 5625549,10727124 "/>
      <polygon class="fil6" points="5963332,11074552 5607037,11074552 5694578,10727124 6039645,10727124 "/>
      <polygon class="fil6" points="6390892,11074552 6034583,11074552 6108653,10727124 6453727,10727124 "/>
      <polygon class="fil6" points="6818445,11074552 6462164,11074552 6522728,10727124 6867802,10727124 "/>
      <polygon class="fil6" points="7246019,11074552 6889703,11074552 6936824,10727124 7281918,10727124 "/>
      <polygon class="fil6" points="7673586,11074552 7317256,11074552 7350919,10727124 7695993,10727124 "/>
      <polygon class="fil6" points="8101145,11074552 7744829,11074552 7765022,10727124 8110096,10727124 "/>
      <polygon class="fil6" points="8528698,11074552 8172389,11074552 8179090,10727124 8524171,10727124 "/>
      <polygon class="fil6" points="8956258,11074552 8599956,11074552 8593179,10727124 8938239,10727124 "/>
      <polygon class="fil6" points="9383839,11074552 9027509,11074552 9007267,10727124 9352341,10727124 "/>
      <polygon class="fil6" points="9811371,11074552 9455082,11074552 9421349,10727124 9766423,10727124 "/>
      <polygon class="fil6" points="10238951,11074552 9882663,11074552 9835445,10727124 10180512,10727124 "/>
      <polygon class="fil6" points="10666490,11074552 10310202,11074552 10249520,10727124 10594573,10727124 "/>
      <polygon class="fil6" points="11094078,11074552 10737783,11074552 10663616,10727124 11008690,10727124 "/>
      <polygon class="fil6" points="11521617,11074552 11165322,11074552 11077690,10727124 11422771,10727124 "/>
      <polygon class="fil6" points="11949191,11074552 11592895,11074552 11491793,10727124 11836846,10727124 "/>
      <polygon class="fil6" points="12376764,11074552 12020462,11074552 11905847,10727124 12250963,10727124 "/>
      <polygon class="fil6" points="12804303,11074552 12448008,11074552 12319964,10727124 12665045,10727124 "/>
      <polygon class="fil6" points="13231884,11074552 12875589,11074552 12734045,10727124 13079140,10727124 "/>
      <polygon class="fil6" points="13659423,11074552 13303135,11074552 13148148,10727124 13493201,10727124 "/>
      <polygon class="fil6" points="14322344,11529561 13951328,11529561 13562237,10727124 13907297,10727124 "/>
      <polygon class="fil6" points="4519438,11554364 4147637,11554364 4275605,11206936 4636185,11206936 "/>
      <polygon class="fil6" points="4965600,11554364 4593813,11554364 4708289,11206936 5068876,11206936 "/>
      <polygon class="fil6" points="5411783,11554364 5039955,11554364 5140981,11206936 5501560,11206936 "/>
      <polygon class="fil6" points="5857946,11554364 5486138,11554364 5573665,11206936 5934252,11206936 "/>
      <polygon class="fil6" points="6304101,11554364 5932307,11554364 6006384,11206936 6366957,11206936 "/>
      <polygon class="fil6" points="6750284,11554364 6378456,11554364 6439069,11206936 6799641,11206936 "/>
      <polygon class="fil6" points="7196461,11554364 6824639,11554364 6871767,11206936 7232353,11206936 "/>
      <polygon class="fil6" points="7642623,11554364 7270815,11554364 7304458,11206936 7665031,11206936 "/>
      <polygon class="fil6" points="8088799,11554364 7716998,11554364 7737163,11206936 8097743,11206936 "/>
      <polygon class="fil6" points="8534948,11554364 8163154,11554364 8169862,11206936 8530434,11206936 "/>
      <polygon class="fil6" points="8981131,11554364 8609323,11554364 8602539,11206936 8963119,11206936 "/>
      <polygon class="fil6" points="9427307,11554364 9055458,11554364 9035202,11206936 9395831,11206936 "/>
      <polygon class="fil6" points="9873462,11554364 9501662,11554364 9467915,11206936 9828494,11206936 "/>
      <polygon class="fil6" points="10319632,11554364 9947817,11554364 9900620,11206936 10261213,11206936 "/>
      <polygon class="fil6" points="10765808,11554364 10394000,11554364 10333318,11206936 10693891,11206936 "/>
      <polygon class="fil6" points="11211963,11554364 10840163,11554364 10766016,11206936 11126610,11206936 "/>
      <polygon class="fil6" points="11658112,11554364 11286304,11554364 11198680,11206936 11559266,11206936 "/>
      <polygon class="fil6" points="12104309,11554364 11732508,11554364 11631399,11206936 11991978,11206936 "/>
      <polygon class="fil6" points="12550492,11554364 12178664,11554364 12064083,11206936 12424691,11206936 "/>
      <polygon class="fil6" points="12996654,11554364 12624847,11554364 12496802,11206936 12857361,11206936 "/>
      <polygon class="fil6" points="13442838,11554364 13071023,11554364 12929508,11206936 13290087,11206936 "/>
      <polygon class="fil6" points="13888972,11554364 13517171,11554364 13362178,11206936 13722751,11206936 "/>
     </g>
     <g>
      <g>
       <polygon class="fil7" points="4006844,10610440 3664700,10610440 3819617,10263005 4150533,10263005 "/>
       <polygon class="fil7" points="4270904,11048894 3469210,11048894 3624120,10701453 4400546,10701453 "/>
       <polygon class="fil7" points="4110446,11528700 3273873,11528700 3428214,11181265 4239539,11181265 "/>
       <polygon class="fil7" points="4417398,10610440 4075255,10610440 4216707,10263005 4547616,10263005 "/>
       <polygon class="fil7" points="4827953,10610440 4485837,10610440 4613784,10263005 4944699,10263005 "/>
       <polygon class="fil7" points="5238507,10610440 4896384,10610440 5010874,10263005 5341783,10263005 "/>
       <polygon class="fil7" points="5649061,10610440 5306945,10610440 5407950,10263005 5738859,10263005 "/>
       <polygon class="fil7" points="6059643,10610440 5717500,10610440 5805048,10263005 6135956,10263005 "/>
       <polygon class="fil7" points="6470191,10610440 6128054,10610440 6202117,10263005 6533026,10263005 "/>
       <polygon class="fil7" points="6880752,10610440 6538608,10610440 6599214,10263005 6930109,10263005 "/>
       <polygon class="fil7" points="7291300,10610440 6949170,10610440 6996291,10263005 7327199,10263005 "/>
       <polygon class="fil7" points="7701861,10610440 7359717,10610440 7393388,10263005 7724289,10263005 "/>
       <polygon class="fil7" points="8112415,10610440 7770292,10610440 7790457,10263005 8121366,10263005 "/>
       <polygon class="fil7" points="8522983,10610440 8180868,10610440 8187554,10263005 8518456,10263005 "/>
       <polygon class="fil7" points="8933524,10610440 8591401,10610440 8584624,10263005 8915532,10263005 "/>
       <polygon class="fil7" points="9344092,10610440 9001941,10610440 8981700,10263005 9312623,10263005 "/>
       <polygon class="fil7" points="9754653,10610440 9412531,10610440 9378790,10263005 9709699,10263005 "/>
       <polygon class="fil7" points="10165208,10610440 9823092,10610440 9775881,10263005 10106796,10263005 "/>
       <polygon class="fil7" points="10575755,10610440 10233639,10610440 10172957,10263005 10503845,10263005 "/>
       <polygon class="fil7" points="10986316,10610440 10644173,10610440 10570054,10263005 10900942,10263005 "/>
       <polygon class="fil7" points="11396871,10610440 11054755,10610440 10967124,10263005 11298011,10263005 "/>
       <polygon class="fil7" points="11807446,10610440 11465323,10610440 11364200,10263005 11695109,10263005 "/>
       <polygon class="fil7" points="12218007,10610440 11875843,10610440 11761276,10263005 12092206,10263005 "/>
       <polygon class="fil7" points="12628555,10610440 12286432,10610440 12158367,10263005 12489275,10263005 "/>
       <polygon class="fil7" points="13039116,10610440 12696986,10610440 12555478,10263005 12886365,10263005 "/>
       <polygon class="fil7" points="13449670,10610440 13107548,10610440 12952533,10263005 13283449,10263005 "/>
       <polygon class="fil7" points="13860232,10610440 13518095,10610440 13349631,10263005 13680532,10263005 "/>
       <polygon class="fil7" points="3442365,11975431 3056101,11975431 3211018,11627976 3586047,11627976 "/>
       <polygon class="fil7" points="3905853,11975431 3519595,11975431 3661048,11627976 4036050,11627976 "/>
       <polygon class="fil7" points="4369340,11975431 3983103,11975431 4111071,11627976 4486080,11627976 "/>
       <polygon class="fil7" points="4832827,11975431 4446583,11975431 4561080,11627976 4936110,11627976 "/>
       <polygon class="fil7" points="5296321,11975431 4910077,11975431 5011110,11627976 5386112,11627976 "/>
       <polygon class="fil7" points="5759829,11975431 5373585,11975431 5461112,11627976 5836142,11627976 "/>
       <polygon class="fil7" points="11765922,11975431 5856383,11975431 5929898,11627976 11667618,11627976 "/>
       <polygon class="fil7" points="12248734,11975431 11862497,11975431 11761394,11627976 12136396,11627976 "/>
       <polygon class="fil7" points="12712221,11975431 12325963,11975431 12211397,11627976 12586420,11627976 "/>
       <polygon class="fil7" points="13175708,11975431 12789471,11975431 12661427,11627976 13036429,11627976 "/>
       <polygon class="fil7" points="13639244,11975431 13252993,11975431 13111443,11627976 13486473,11627976 "/>
       <polygon class="fil7" points="14102683,11975431 13716446,11975431 13561459,11627976 13936461,11627976 "/>
       <polygon class="fil7" points="14566219,11975431 14179975,11975431 14011475,11627976 14386505,11627976 "/>
       <polygon class="fil7" points="4680639,11048894 4324351,11048894 4452326,10701453 4797372,10701453 "/>
       <polygon class="fil7" points="5108213,11048894 4751924,11048894 4866394,10701453 5211475,10701453 "/>
       <polygon class="fil7" points="5535773,11048894 5179491,11048894 5280489,10701453 5625549,10701453 "/>
       <polygon class="fil7" points="5963332,11048894 5607037,11048894 5694578,10701453 6039645,10701453 "/>
       <polygon class="fil7" points="6390892,11048894 6034583,11048894 6108653,10701453 6453727,10701453 "/>
       <polygon class="fil7" points="6818445,11048894 6462164,11048894 6522728,10701453 6867802,10701453 "/>
       <polygon class="fil7" points="7246019,11048894 6889703,11048894 6936824,10701453 7281918,10701453 "/>
       <polygon class="fil7" points="7673586,11048894 7317256,11048894 7350919,10701453 7695993,10701453 "/>
       <polygon class="fil7" points="8101145,11048894 7744829,11048894 7765022,10701453 8110096,10701453 "/>
       <polygon class="fil7" points="8528698,11048894 8172389,11048894 8179090,10701453 8524171,10701453 "/>
       <polygon class="fil7" points="8956258,11048894 8599956,11048894 8593179,10701453 8938239,10701453 "/>
       <polygon class="fil7" points="9383839,11048894 9027509,11048894 9007267,10701453 9352341,10701453 "/>
       <polygon class="fil7" points="9811371,11048894 9455082,11048894 9421349,10701453 9766423,10701453 "/>
       <polygon class="fil7" points="10238951,11048894 9882663,11048894 9835445,10701453 10180512,10701453 "/>
       <polygon class="fil7" points="10666490,11048894 10310202,11048894 10249520,10701453 10594573,10701453 "/>
       <polygon class="fil7" points="11094078,11048894 10737783,11048894 10663616,10701453 11008690,10701453 "/>
       <polygon class="fil7" points="11521617,11048894 11165322,11048894 11077690,10701453 11422771,10701453 "/>
       <polygon class="fil7" points="11949191,11048894 11592895,11048894 11491793,10701453 11836846,10701453 "/>
       <polygon class="fil7" points="12376764,11048894 12020462,11048894 11905847,10701453 12250963,10701453 "/>
       <polygon class="fil7" points="12804303,11048894 12448008,11048894 12319964,10701453 12665045,10701453 "/>
       <polygon class="fil7" points="13231884,11048894 12875589,11048894 12734045,10701453 13079140,10701453 "/>
       <polygon class="fil7" points="13659423,11048894 13303135,11048894 13148148,10701453 13493201,10701453 "/>
       <polygon class="fil7" points="14322344,11503889 13951328,11503889 13562237,10701453 13907297,10701453 "/>
       <polygon class="fil7" points="4519438,11528700 4147637,11528700 4275605,11181265 4636185,11181265 "/>
       <polygon class="fil7" points="4965600,11528700 4593813,11528700 4708289,11181265 5068876,11181265 "/>
       <polygon class="fil7" points="5411783,11528700 5039955,11528700 5140981,11181265 5501560,11181265 "/>
       <polygon class="fil7" points="5857946,11528700 5486138,11528700 5573665,11181265 5934252,11181265 "/>
       <polygon class="fil7" points="6304101,11528700 5932307,11528700 6006384,11181265 6366957,11181265 "/>
       <polygon class="fil7" points="6750284,11528700 6378456,11528700 6439069,11181265 6799641,11181265 "/>
       <polygon class="fil7" points="7196461,11528700 6824639,11528700 6871767,11181265 7232353,11181265 "/>
       <polygon class="fil7" points="7642623,11528700 7270815,11528700 7304458,11181265 7665031,11181265 "/>
       <polygon class="fil7" points="8088799,11528700 7716998,11528700 7737163,11181265 8097743,11181265 "/>
       <polygon class="fil7" points="8534948,11528700 8163154,11528700 8169862,11181265 8530434,11181265 "/>
       <polygon class="fil7" points="8981131,11528700 8609323,11528700 8602539,11181265 8963119,11181265 "/>
       <polygon class="fil7" points="9427307,11528700 9055458,11528700 9035202,11181265 9395831,11181265 "/>
       <polygon class="fil7" points="9873462,11528700 9501662,11528700 9467915,11181265 9828494,11181265 "/>
       <polygon class="fil7" points="10319632,11528700 9947817,11528700 9900620,11181265 10261213,11181265 "/>
       <polygon class="fil7" points="10765808,11528700 10394000,11528700 10333318,11181265 10693891,11181265 "/>
       <polygon class="fil7" points="11211963,11528700 10840163,11528700 10766016,11181265 11126610,11181265 "/>
       <polygon class="fil7" points="11658112,11528700 11286304,11528700 11198680,11181265 11559266,11181265 "/>
       <polygon class="fil7" points="12104309,11528700 11732508,11528700 11631399,11181265 11991978,11181265 "/>
       <polygon class="fil7" points="12550492,11528700 12178664,11528700 12064083,11181265 12424691,11181265 "/>
       <polygon class="fil7" points="12996654,11528700 12624847,11528700 12496802,11181265 12857361,11181265 "/>
       <polygon class="fil7" points="13442838,11528700 13071023,11528700 12929508,11181265 13290087,11181265 "/>
       <polygon class="fil7" points="13888972,11528700 13517171,11528700 13362178,11181265 13722751,11181265 "/>
      </g>
     </g>
    </g>
    <g>
     <path class="fil7" d="M11086169 6834478c-1715,0 -3410,188 -5104,410l-191108 -1206797c33504,-12173 55787,-43587 55787,-79174 0,-46704 -37976,-84715 -84653,-84715 -19616,0 -38663,7007 -54002,19763l-848169 -848093c10076,-14339 15388,-30914 15388,-48148 0,-46691 -37990,-84660 -84694,-84660 -38462,0 -71501,25463 -81535,62321l-1209616 -191587c-2396,-44441 -39622,-80090 -84409,-80090 -46705,0 -84708,37969 -84708,84659 0,13506 3291,26560 9825,38844l-1065636 542966c-16109,-17790 -38670,-27921 -62321,-27921 -46704,0 -84694,37990 -84694,84694 0,28463 14110,54474 37900,70244l-536530 1053137c-10415,-4375 -21268,-6583 -32288,-6583 -46712,0 -84722,37990 -84722,84687 0,46697 38010,84659 84722,84659 1840,0 3610,-187 5402,-416l182692 1153496c-39642,7444 -69077,42427 -69077,82889 0,46690 37990,84652 84687,84652 12950,0 25671,-3118 37865,-9312l873791 873736c-8728,13693 -13304,29310 -13304,45371 0,46698 37976,84694 84687,84694 33490,0 63446,-19477 77118,-49870l1208610 191420c-132,1146 -236,2306 -236,3486 0,46704 37976,84687 84659,84687 46683,0 84694,-37983 84694,-84687 0,-12624 -3035,-25095 -8985,-37149l1083412 -552049c16109,17706 38628,27817 62244,27817 46670,0 84653,-38018 84653,-84722 0,-28796 -15117,-55794 -39664,-71313l534475 -1048895c10644,4569 21692,6896 32844,6896 46725,0 84749,-37962 84749,-84660 0,-46683 -38024,-84694 -84749,-84694l0 7zm-695634 1297005l0 0 -310098 47815c-2492,-8978 -6700,-17373 -12505,-25102l324527 -299564c13478,11839 30546,18339 48364,18339l16748 161368c-39885,7693 -68473,41961 -68473,82805 0,4513 444,9041 1430,14339l7 0zm-1481780 494290l0 0c3750,-4020 7048,-8395 9840,-13075l168624 80291 -178464 -67209 0 -7zm-2149846 -2351176l0 0 159805 117844 0 719812c-13978,3236 -26657,10284 -36886,20484 -29844,29872 -29844,78549 28,108511 10735,10701 24199,17825 39122,20776l-19103 192497c-854,-97 -1694,-152 -2569,-152 -187,0 -382,0 -569,0l-182734 -1153712c16568,-4173 31587,-13290 42906,-26067l0 7zm636590 -1265084l0 0 186081 -33421c2548,8895 6784,17297 12589,25005l-268373 247166c-13429,-11916 -30490,-18429 -48412,-18429 -40441,0 -73341,32865 -73341,73271 0,35185 25609,65425 60155,71765l-9277 117934 -269060 370364c-30463,-20471 -70563,-16832 -96707,9270 -29657,29664 -29872,77777 -937,107504l-143946 169555c-1014,-709 -2021,-1389 -3062,-2056l536529 -1052984c10867,4770 22123,7215 33483,7215 46705,0 84715,-38004 84715,-84708 0,-2306 -153,-4743 -437,-7444l0 -7zm-277809 1475482l0 0c-9006,4027 -17249,10041 -24144,17617l-159674 -117810 0 -382084c8562,1048 17402,625 25929,-1250l157882 483534 7 -7zm612335 -1545406l0 0 76868 -24936c7520,20165 23700,36080 44114,43274l3396 9444 -122843 -12180c-14,-5367 -528,-10582 -1535,-15595l0 -7zm421789 57286l0 0 -204815 -93985c986,-4798 1458,-9311 1479,-13693l389480 88826c-9333,9881 -15770,22164 -18512,35462l-167632 -16603 0 -7zm2156333 171457l0 0 -91715 60752 -172221 -237049c5160,-5902 9388,-12554 12590,-19845l250880 165555c-1979,4840 -2972,9749 -2972,14700 0,5402 1160,10735 3445,15881l-7 6zm-2354496 2441037l0 0 -419331 3638c-3521,-37420 -34789,-66223 -72660,-66223 -2646,0 -5444,188 -8507,590l-26824 -526648c354,35 702,35 1091,35 11936,0 23317,-3757 33163,-10909l503873 545188c-8708,10319 -13457,23248 -13457,36803 0,6076 889,11943 2659,17519l-7 7zm1142310 -2882213l0 0 114941 -22102 503672 163596 -179901 127857c-10374,-8680 -23262,-13422 -36650,-13422 -3201,0 -6437,285 -9631,854 -13902,-18242 -35462,-29067 -58210,-29067 -9367,0 -18582,1826 -27414,5388l-312550 -204343c4000,-8082 6014,-16478 6014,-25067 0,-1236 -111,-2465 -264,-3694l-7 0zm1459296 822289l0 0 -84673 29518 -53516 -73729 124683 -5951c-375,2944 -569,5645 -569,8256 0,14985 4972,29671 14075,41906zm95790 1745792l0 0 -914767 336019c-8152,-15686 -23401,-26803 -40955,-29914l31845 -637021c19734,-1541 36983,-12839 46218,-30296l877819 334832c-1243,4701 -1833,9152 -1833,13478 0,4173 534,8347 1680,12895l-7 7zm-1985062 -2010477l0 0 -535384 268039c-10721,-16020 -28206,-25456 -47447,-25456 -3979,0 -8034,500 -12319,1520l-195128 -544160 274774 27185 508997 233591c-763,3784 -1145,7311 -1145,10700 0,10055 2624,19859 7652,28574l0 7zm-471959 -268560l0 0 123705 12277c97,23345 11179,44156 28351,57509l-152056 -69786zm266553 -10249l0 0 251298 57300c-118,1007 -188,2042 -188,3097 0,22797 15415,42608 37205,48482l-20359 85666c-4646,-1145 -8805,-1694 -12867,-1694 -22443,0 -42364,12832 -51766,33032l-287364 -131864c4666,952 9499,1424 14436,1424 40379,0 73251,-32844 73251,-73237 0,-7374 -1222,-14825 -3646,-22199l0 -7zm2195502 965235l0 0 -661129 -190206c472,-3097 722,-6048 722,-8923 0,-3770 -479,-7617 -1430,-11860l189754 -66202c11075,6013 22762,9062 34788,9062 29539,0 55759,-17478 67293,-44684l178408 -62196 215863 297189c-1562,1209 -3118,2479 -4569,3882l-14 42c-19290,19290 -26678,47641 -19686,73903l0 -7zm-3119421 647186l0 0c2972,5868 7638,10819 13429,14318l-108594 275351c-4778,-1312 -9402,-1965 -14082,-1965 -2278,0 -4424,181 -6479,445l-74723 -308807 190442 20658 7 0zm25671 -816199l0 0 630279 467126c-4854,8603 -7410,18248 -7410,28087 0,5736 924,11381 2806,17207l-588206 269873c-5631,-9861 -15707,-16527 -27039,-17839l-41489 -747713c11880,-2166 22699,-7999 31059,-16734l0 -7zm1200722 -685558l0 0c23289,-493 43281,-17388 48002,-40149l442809 7624c146,1451 340,2854 590,4256l-483381 153661c-4000,-15756 -14568,-29095 -29074,-36678l21061 -88714 -7 0zm-548293 1694664l0 0 -344851 150966c-10340,-17360 -28845,-28005 -49086,-28005 -8763,0 -17193,2014 -25165,6042l-204211 -310501c2465,-2097 4715,-4590 6603,-7388l616766 164652c-1007,4257 -1507,8298 -1507,12200 0,3847 479,7736 1451,12041l0 -7zm-610516 -213169l0 0 589796 -270608c9756,15728 26338,25817 44559,27081l21956 387876 35 590c-17783,3152 -33115,14512 -41143,30483l-615786 -164353c535,-2445 806,-4764 806,-7034 0,-1355 -77,-2674 -230,-4035l7 0zm2115531 -1059345l0 0 -995066 301342c-3639,-7103 -8729,-13402 -14964,-18519l570374 -695182c20164,12839 47620,11283 66473,-4000l386008 371051c-8722,10353 -13478,23262 -13478,36747 0,2895 201,5770 646,8561l7 0zm-1426431 784973l0 0 334658 122976 478923 176186c-1749,4860 -2840,9936 -3235,15214l-780154 139737c-8166,-20276 -27144,-34170 -48774,-35712l-21922 -388612c17367,-3173 32421,-14255 40504,-29796l0 7zm1129047 -77625l0 0 -239056 343859c-7291,-3201 -14908,-4819 -22637,-4819 -7200,0 -14262,1389 -21095,4145l-435767 -674989c6756,-4271 12561,-9874 17040,-16526l679371 287988 5333 2264c-1542,5194 -2340,10416 -2340,15533 0,16297 6930,31609 19144,42538l7 7zm-731520 -325694l0 0 436226 675733c-5242,3847 -9791,8569 -13540,14075l-815443 -299967c1104,-4562 1639,-8818 1639,-12867 0,-12887 -4437,-25386 -12561,-35552l346650 -354788c14839,14352 35879,20171 57029,13366zm984137 955618l0 0 -103179 -49912 -355226 -171832c986,-4292 1452,-8083 1452,-11805 0,-17838 -8284,-34545 -22304,-45371l238257 -342831c11068,5868 23206,7965 35379,5986l223175 598503c-7104,4437 -13076,10318 -17554,17269l0 -7zm-977588 -1062018l0 0c-6701,-3159 -13666,-4972 -20797,-5368l46468 -495852c28150,-3639 49808,-27845 49884,-56453l485729 -154404c2631,5715 6131,10854 10450,15367l-571728 696717 -6 -7zm438586 879965l0 0c7923,3847 16207,5812 24692,5812 21992,0 41733,-12395 51350,-31914l456606 220856c-2041,5943 -3076,12110 -3076,18352 0,7465 1507,14853 4513,22012l-472201 270247 -478604 273740c-3340,-4423 -7319,-8360 -11881,-11728l428601 -767384 0 7zm586865 155812l0 0c-4242,0 -8561,563 -13130,1709l-222682 -597115c12533,-6603 22185,-17707 27081,-31129l732533 154785c-153,1236 -243,2493 -243,3784 0,10631 3013,20985 8735,30144l-497470 449877c-10110,-7791 -22339,-12055 -34817,-12055l-7 0zm-244575 -700633l0 0c-26790,-8742 -53961,2903 -67154,25776l-683642 -289878c2215,-6249 3333,-12679 3333,-19158 0,-4527 -722,-8721 -1583,-12276l994559 -301238c4777,11305 12922,20693 23366,26901l-268879 569873 0 0zm-1347126 -533509l0 0 487083 235931c-1396,5034 -2056,9735 -2056,14318 0,10645 2945,20971 8541,30067l-347740 355907c-10048,-7653 -22165,-11847 -34497,-11847 -1889,0 -3701,153 -5388,382l-134544 -602030c11818,-4201 21803,-12124 28601,-22734l0 6zm-676364 1297623l0 0 108622 -275712c5625,917 10493,424 15374,-1083l195011 296446 9957 15158c-9804,8340 -16394,19617 -18908,32310l-280274 -20012c-1048,-19644 -12422,-37587 -29782,-47107zm873146 -114032l0 0c0,-2520 -174,-5069 -528,-7617l777099 -139210c2326,13346 9103,25157 19463,33837l-429045 768190c-13895,-5784 -29165,-5784 -43122,118l-345247 -610801c13443,-10895 21373,-27289 21373,-44517l7 0zm1921853 -436080l0 0 -732325 -154840c187,-1556 326,-3139 326,-4757 0,-11770 -3590,-22984 -10471,-32657l393625 -355413c16422,14145 39879,18144 60481,8867l307029 512351c-8534,6722 -15027,15916 -18665,26443l0 6zm-1541095 -1050255l0 0 -46475 496957c-16485,3284 -30643,13658 -38816,28414l-485937 -235382c2042,-5993 3049,-12117 3049,-18200 0,-6611 -1118,-13068 -3326,-19235l537744 -269219c9076,9298 20887,15103 33754,16665l7 0zm-1495265 1270424l0 0 117733 12728 75931 313972c-2035,806 -4118,1778 -6375,2993l-215863 -298647c12513,-7472 22484,-18318 28574,-31046zm2667614 -811277l0 0c0,11742 3618,22998 10471,32734l-393604 355448c-2055,-1729 -4305,-3326 -6784,-4875l269025 -570297c15533,4770 31073,2625 44364,-4875l96860 148328c-12972,10992 -20332,26657 -20332,43551l0 -14zm-137849 -288259l0 0 -386793 -371745c7534,-10055 11520,-21762 11520,-34108 0,-2209 -153,-4493 -500,-6868l2917 -729c13749,19498 35934,31039 59828,31039 13992,0 27490,-3944 39198,-11430 16415,9715 37073,10493 54516,1452l221161 391118c-632,417 -1250,854 -1847,1271zm-386293 -455648l0 0c0,7319 1160,14610 3500,21769 -9957,-17894 -28796,-29324 -49808,-29324 -10402,0 -20484,2820 -29421,8173l-201719 -257644c1063,-1083 2070,-2166 2986,-3236l306272 200233c-19762,13658 -31817,36163 -31817,60036l7 -7zm-288544 -248096l0 0 201677 257637c-8603,8722 -14145,19964 -15894,32206l-442094 -7680c-764,-9284 -4131,-18082 -9881,-25755l206628 -256845c17922,11165 41281,11374 59564,437l0 0zm-1796572 1292213l0 0c0,-13436 -4708,-26310 -13325,-36615l227508 -227764c9187,7103 19804,11214 31136,11971l41455 747907c-2229,666 -4417,1541 -6493,2631l-301848 -453349c13568,-10853 21567,-27338 21567,-44781zm261012 529878l0 0c0,215 0,395 0,590l-190372 -20637 -110143 -455488c1902,-653 3805,-1389 5694,-2285l303008 455058c-5305,6374 -8187,14353 -8187,22762zm-314389 -33470l0 0c1479,-5971 2222,-11533 2222,-16901 0,-33629 -23019,-62932 -55231,-70987l51106 -351219c604,-42 1209,-90 1827,-174l109080 451127 -109004 -11846zm264928 405895l0 0 280219 20033c1576,30213 26657,54315 57252,54315 3222,0 6596,-319 10214,-1007l153521 491901c-3284,1542 -6430,3403 -9541,5653l-503893 -545154c6187,-7388 10353,-16186 12228,-25741zm394827 16964l0 0c0,-5236 -827,-10562 -2514,-16214l343644 -150521c5499,11103 14339,20026 25393,25629l-225494 685350c-3805,-819 -7430,-1215 -10964,-1215 -3236,0 -6534,319 -10145,1007l-153549 -491909c20526,-9339 33629,-29421 33629,-52120l0 -7zm380029 -136481l0 0c4437,1048 8513,1576 12409,1576 8152,0 16151,-1826 23803,-5465l344880 610357c-14541,10784 -23109,27720 -23109,45982 0,28 0,35 0,62l-552473 70105c-4180,-16526 -15457,-30198 -30914,-37524l225404 -685079 0 -14zm472577 653700l0 0c34,-417 48,-820 48,-1257 0,-7409 -1541,-14791 -4562,-21991l950820 -543987c8680,11561 21449,19345 35872,21817l-31803 637097c-24213,1785 -44475,18415 -50968,41802l-899407 -133481 0 0zm1560113 -1867108l0 0c743,-4166 1125,-8075 1125,-11818 0,-40406 -32865,-73285 -73237,-73285 -40420,0 -73278,32879 -73278,73285 0,20790 8735,40149 24192,54071l-179970 62717c-9617,-19456 -29421,-31851 -51370,-31851 -8534,0 -17082,2055 -24964,5978l-97505 -149160c10756,-10263 17137,-24123 17825,-38788l565319 -26692 56745 78014 -164875 57536 -7 -7zm-1498771 -615335l0 0c-8736,-6631 -19290,-10228 -30123,-10228 -21102,0 -40010,13492 -47162,33261l-232897 -53093 514678 -227146c395,472 812,951 1236,1409l-205732 255797zm-708973 615724l0 0c1944,0 3784,-153 5555,-389l134488 602010c-8360,3014 -15846,7902 -21956,14304l-630320 -467132c4895,-8583 7465,-18242 7465,-28116 0,-3312 -362,-6666 -1105,-10360l453954 -143932c9193,20241 29629,33615 51919,33615l0 0zm871472 2370883l0 0c-6499,0 -12895,1097 -19088,3277l-230376 -461147c11527,-7735 19880,-19151 23498,-32143l899491 133343c-21,437 -35,875 -35,1326 0,7409 1479,14693 4416,21672l-631965 356955c-10854,-14638 -27783,-23283 -45941,-23283l0 0zm1326106 -1683367l0 0 -307035 -512344c7506,-5881 13346,-13596 17158,-22602l672045 193372c3792,7083 8014,12895 12874,17769 6305,6305 13839,11416 22464,15263 1610,6048 4013,11582 7172,16485l-362572 302508c-10673,-10041 -24449,-15520 -39087,-15520 -7763,0 -15519,1695 -23019,5062l0 7zm-448433 -811005l0 0c-1027,-5076 -2735,-9958 -5117,-14547l385084 -255013 176749 243326 -556716 26234zm-739067 -805395l0 0c-7610,-23477 -29449,-39594 -54322,-39594 -20442,0 -39427,11180 -49537,28810l-110414 -81347c4014,-6714 6944,-13755 8736,-21012l295168 95908 -89624 17235 -7 0zm-1066289 881715l0 0 -453953 143945c-9360,-20428 -29400,-33455 -51961,-33455 -7700,0 -15325,1660 -22734,4951l-171804 -290259 66098 -90972 635195 241944c-1278,4896 -1889,9312 -1889,13680 0,3256 347,6603 1048,10166zm-557131 142744l0 0 -2688 6437c-2326,6604 -3423,12714 -3423,18658 0,12568 4319,24901 12242,35087l-227904 228244c-5805,-4242 -12207,-7291 -19060,-9124l40635 -518649 47739 -65703 168582 284844c-6659,5256 -12186,12123 -16123,20206zm-255790 277302l0 0c-11083,97 -21867,3437 -31498,9833l-5333 4291c-3444,2965 -6575,6430 -9277,10312l-154042 -83167c11944,-28560 5625,-61730 -16200,-83624l254992 -350942 -38642 493297zm-221599 1120055l0 0 384320 -144904c7312,13936 20179,24338 35296,28525l28296 531607c-30706,9353 -51905,37600 -51905,69778 0,27303 14853,51739 38976,64508l-31380 113296c-5527,-1236 -10457,-1826 -15276,-1826 -2944,0 -5736,284 -8798,743l-395750 -544737c5569,-3312 10194,-6833 14096,-10701 29123,-29205 29866,-76201 2111,-106282l14 -7zm1676645 429573l0 0c7957,952 16068,-298 23498,-2944l230348 461168c-16124,10756 -25644,28276 -25644,47552 0,10811 3090,21296 8992,30553l-390264 321826c-5847,-5542 -12950,-9812 -20832,-12527l173902 -845621 0 -7zm1073399 96464l0 0c132,-1145 236,-2284 236,-3430 0,-4055 -542,-8110 -1687,-12839l900838 -331034 -329972 454197 -246825 -46246 0 0 -322590 -60648zm560180 119650l0 0 -256693 353337c-11881,-7055 -25345,-10638 -38899,-10638 -10819,0 -21686,2284 -31831,6895l-247325 -434261c5367,-5964 9409,-13124 11881,-20963l562867 105636 0 -6zm353525 -525156l0 0 -877812 -334832c1257,-4895 1868,-9270 1868,-13575 0,-11638 -3653,-22866 -10576,-32678l496734 -449148c14680,12645 35060,17290 54100,11291l322583 721013 18512 41434c2111,10103 6437,19762 12853,28713l2611 5805c-8860,5388 -16110,13026 -20866,21977l-7 0zm36538 -1370817l0 0 -213349 -293676 86353 -30129c12923,11290 29255,17484 46267,17484 3903,0 7951,-382 12263,-1166l86937 300230c-6666,1715 -12853,4132 -18464,7257l-7 0zm-897741 -408715l0 0c-11644,-4062 -25171,-4110 -37191,63l-221994 -392737c12436,-10929 19498,-26386 19498,-42913 0,-11846 -3847,-23532 -10930,-33281l187074 -132919 179325 58258c-2736,23325 5256,46746 21783,63217 6457,6513 14110,11735 22762,15534l-160327 464785 0 -7zm-2064777 -505740l0 0 129822 12895 197364 550403c-10464,5312 -19033,13728 -24616,24150l-631500 -240583 214912 -295807c29858,17602 68529,12888 93221,-11832 10777,-10777 17915,-24269 20797,-39226zm-458287 499289l0 0 7271 -93214c1541,-97 3069,-291 4603,-500l25227 42636 -37108 51078 7 0zm26804 -96456l0 0c27456,-8347 47225,-31761 50974,-60335l28289 10811 -59904 82312 -19366 -32781 7 -7zm-291885 596489l0 0 154091 83201c-479,1257 -896,2555 -1312,3944l-1521 6576 -153 910c-347,2590 -708,5249 -708,8089 0,7389 1417,14610 4347,21651l3118 6194c7964,14242 21234,24262 36795,27914l-51030 350692c-5597,-674 -11409,90 -18374,1666l-157868 -483596c8798,-3764 16645,-9117 23380,-15881 3298,-3236 6284,-6895 9242,-11367l-7 7zm124864 653498l0 0c5715,1368 10784,2014 15707,2014 7715,0 15638,-1368 23554,-4090l217523 300773c-5299,4888 -9694,10790 -12930,17449l-2423 6486c-2083,6256 -3104,12054 -3104,17707 0,4263 569,8589 1812,13367l-392049 147737c-4263,-2993 -8395,-5375 -12506,-7236l164416 -494193 0 -14zm787161 1630698l0 0 334082 130607 -353831 -114942c7618,-3673 14395,-9027 19756,-15665l-7 0zm12867 -36011l0 0c0,-22505 -13569,-43142 -34095,-52335l106199 -516441c1417,173 2896,298 4424,298 7048,0 13957,-1326 20581,-3937l414770 772308c-7146,5041 -12972,11672 -17124,19401l-500067 -195678c3520,-7680 5312,-15616 5312,-23616l0 0zm133835 -625889l0 0c0,0 0,-35 0,-35l552507 -70133c4715,18519 18811,33692 37046,39934l-173936 845579c-8319,-1028 -16964,451 -25061,3673l-414741 -772321c15200,-10784 24178,-27977 24178,-46697l7 0zm2082144 -2577608l0 0 -86256 -56981c493,-2368 889,-4687 1187,-6993l85069 63974zm-328603 478041l0 0c-3354,-3791 -7138,-7075 -11332,-9811l160861 -466855c22546,5388 46079,472 64355,-13416l170853 235216 -384730 254859 -7 7zm95089 -574672l0 0 -167430 -54363 78889 -56023c10895,6722 24831,6965 35837,972l69321 80834c-7555,8048 -13131,17644 -16617,28573l0 7zm-376668 -208051l0 0c25893,0 49641,-13811 62793,-36240l209030 95624c-625,2666 -937,5173 -937,7624 0,7437 2319,14624 6624,20707l-85152 60494 -488312 -158652 225425 -43406c8645,31421 37733,53849 70522,53849l7 0zm-1667452 259366l0 0 -2492 -6971c2597,291 5103,423 7624,423 29754,0 56419,-18227 67591,-45760l165479 75917 -238202 -23609zm-483443 342651l0 0 -36421 -13874c-1048,-13922 -5979,-27018 -14360,-38191l267525 -246319 -216744 298384zm1390100 3264527l0 0 -108983 -41073 108921 35414c-42,1847 -28,3715 62,5659zm138606 -464189l0 0c10721,10166 24540,15728 39302,15728 25241,0 47232,-16436 54579,-40406l921329 117170c187,3583 604,7111 1250,10492l-475535 154501 -923711 82749c-1403,-6666 -3916,-12873 -7499,-18470l390278 -321764 7 0zm96401 -38774l0 0c111,-924 188,-1861 188,-2833 0,-7326 -1486,-14589 -4437,-21658l631937 -356934c10812,14582 27762,23213 45983,23213 11269,0 22088,-3354 31532,-9714l245985 431990c-4152,2854 -7444,5569 -10416,8513 -11978,11978 -19533,27740 -21553,44746l-919226 -117330 7 7zm1370665 -229758l0 0 -323798 298898 260456 -358483 49038 9124c-292,2195 -514,4437 -514,6778 0,15769 5097,30795 14818,43683zm279802 -677899l0 0 -328777 -734845c8493,-5160 15381,-12277 20179,-20804l198226 80736c4180,36615 35531,64960 72417,64960 16624,0 32900,-5903 46114,-16693l58794 23942 0 544300c-17916,1715 -34428,9402 -46816,21880 -9992,9992 -16929,22657 -20144,36524l7 0zm35337 -683190l0 0c0,-40406 -32886,-73285 -73285,-73285 -38115,0 -69098,28601 -72737,66015l-192573 -78382c1465,-5048 2166,-9902 2166,-14798 0,-10985 -3152,-21574 -9193,-30844l362572 -302536c4284,4013 9284,7409 14672,9957l0 488964 -47850 -19477c10493,-13040 16228,-29039 16228,-45600l0 -14zm-152327 -997343l0 0 -138140 6492 -182179 -250811 91194 -60391c7554,8013 17928,12555 28976,12555 6222,0 12416,-1507 18033,-4382l200809 267595c-8555,7978 -14957,17887 -18686,28942l-7 0zm-3098215 2414906l0 0c4660,-10075 7020,-20352 7020,-30636 0,-29171 -16984,-55051 -43544,-66841l31073 -112219c6916,2097 13541,3103 20124,3103 38517,0 69862,-29323 72868,-67417l425699 -3090c6965,10895 17346,19005 29664,23213l-105963 515281c-3277,-590 -6395,-896 -9506,-896 -25150,0 -47711,17061 -54877,41698l-1667 7618c-395,2527 -798,5159 -798,8075 0,4528 680,9159 2264,15173l2187 6909c743,1777 1562,3485 2479,5180l-85284 -27678c3354,-23825 -4604,-47913 -21630,-65009 -25248,-25227 -64509,-29532 -94610,-10811l-175499 -241653 0 0zm3297295 -1330904l0 0 51003 20748c-4972,10138 -7465,20755 -7465,31616 0,29129 16950,55002 43448,66765l-86993 392028 0 -511164 7 7zm0 -15422l0 0 0 -490436c4146,770 8104,1090 11819,736l83707 487596c-14936,4527 -27955,13596 -37246,25873l-58280 -23769 0 0zm109247 -6111l0 0 -83402 -486034c24151,-7270 40712,-29337 40712,-54800 0,-3708 -396,-7500 -1195,-11291l-256 -1194 -10541 -9507c14165,-29455 8492,-64209 -14575,-87297 -6146,-6132 -13492,-11194 -21915,-15062l80271 -251005c3597,798 7263,1388 10895,1722l0 914475 6 -7zm-911149 -1668041l0 0 -47239 -55121 62127 46726c-5215,2208 -10201,5006 -14881,8395l-7 0zm-1074941 -243264l0 0c945,-930 1806,-1902 2625,-2895l113490 83666c-1298,4868 -1930,9464 -1930,13964 0,8874 2132,17450 6340,25581l-530697 234181 -4298 -993c-13520,-21783 -36560,-34747 -61995,-34747 -14110,0 -27741,4014 -39552,11610l-404694 -92290c-347,-1466 -743,-2972 -1236,-4569l796889 -258950c3888,9666 9457,18221 16623,25421 29859,29873 78507,29894 108435,21l0 0zm-1933560 1767471l0 0 150439 111066c-6666,11208 -10145,23991 -10145,37129 0,29011 16797,54773 43107,66640l-164361 494304c-6041,-1361 -11901,-2069 -17540,-2069 -507,0 -1007,0 -1500,20l0 -707090zm1864879 2115321l0 0c-10041,10000 -16985,22450 -20262,36213l-245701 -79778c681,-3187 1083,-6132 1215,-9006l861362 -77209 -472146 153466c-3923,-9083 -9312,-17040 -16012,-23686 -14464,-14484 -33740,-22470 -54225,-22470 0,0 0,0 0,0 -20484,0 -39739,7986 -54224,22470l-7 0zm724950 -155597l0 0 412423 -133968c1784,4285 3944,8354 6457,12215l-79833 58515c-14020,-15484 -33511,-24289 -54044,-24289 -38517,0 -70556,30435 -73014,68542l-211982 18985 -7 0zm847044 -584317l0 0 -42434 -7944 331423 -456161c3854,5583 8680,10436 14186,14339l-211099 400819c-7472,-2417 -14839,-3632 -21964,-3632 -32629,0 -60981,21443 -70105,52572l-7 7zm329805 -439753l0 0c1944,291 3979,500 6110,500 11194,0 22255,-3562 31984,-10305l916 -604 417 -1014c6853,-16234 13936,-33948 22290,-55731l395 -1028 -222 -1069c-937,-4423 -2576,-8888 -4861,-13339 12666,-3507 24068,-10097 33213,-19235 23081,-23116 28768,-57772 14637,-87166l223710 -168950c3430,3166 7076,5992 10819,8471l-534454 1048985c-534,-201 -1062,-410 -1604,-625l196636 -698890 14 0zm300987 -420054l0 0c0,18339 6159,36254 17388,50878l-221155 167041c-2284,-3083 -4589,-5771 -6971,-8173 -10201,-10221 -23352,-17193 -38275,-20297l92388 -416165c5902,1424 11103,2097 16172,2097 13388,0 26429,-3666 37907,-10610l130440 172568c-17777,16068 -27894,38705 -27894,62661zm-253443 -1042103l0 0c-5666,-1326 -11513,-2014 -17477,-2014 -1445,0 -2910,42 -4375,132l-87513 -302383c26504,-10819 44058,-36622 44058,-65279 0,-39045 -31761,-70806 -70813,-70806 -12832,0 -25331,3458 -36365,10047l-189157 -252387 403423 309452c-8832,13749 -13485,29247 -13485,45072 0,33775 20700,64599 51850,77792l-80146 250360 0 14zm27095 -403604l0 0 -394465 -302473c3013,-5750 4589,-12117 4589,-18547 0,-24123 -21102,-43357 -46114,-39879l-388285 -463424 824275 824323zm-457585 -350399l0 0 -255221 -191914c-2222,-16964 -9596,-32115 -21401,-43962 -17095,-17116 -41510,-25074 -65598,-21505l-98554 -74083c2271,-4820 3410,-9861 3410,-15048 0,-14519 -8764,-27393 -22103,-32955l13749 -73341c6486,1465 12207,2166 17721,2166 17276,0 33851,-5305 48176,-15401l386348 461050c-2312,1430 -4492,3083 -6520,4986l-7 7zm-474243 -382377l0 0c-8284,209 -16172,3292 -22526,8812l-27303 -20734 22234 26157c-55,83 -90,153 -153,215l-208815 -95505c2632,-7680 3944,-15527 3944,-23380 0,-4465 -514,-9069 -1562,-13957l197510 -19005c5236,28060 24276,51544 50670,62452l-13992 74945 -7 0zm-38386 -152403l0 0 -200295 19255c-11575,-27171 -37621,-44572 -67174,-44572 -40406,0 -73286,32886 -73286,73285 0,1868 174,3646 424,5402l-251096 48357 -324013 -105324c833,-21477 -7118,-42156 -22096,-57099 -29914,-29872 -78576,-29872 -108483,28 -931,951 -1813,1944 -2667,2930l-164131 -120948c2777,-6874 4624,-13783 5520,-20644l1207846 191338c-306,2388 -569,4839 -569,7430 0,187 0,381 20,562zm-1066872 7923l0 0 -798089 259234c-12555,-24151 -37636,-39594 -64828,-39594 -40392,0 -73251,32886 -73251,73286 0,3527 285,7193 834,10943l-77133 25095c-3923,-9214 -9353,-17339 -16206,-24178 -14492,-14513 -33754,-22512 -54267,-22512 -20498,0 -39774,7999 -54259,22512 -15880,15894 -23748,37663 -21921,60182l-186345 33476c-2174,-8089 -5375,-15575 -9541,-22338l1064101 -542217c16061,20693 40809,32956 66856,32956 28941,0 55828,-15152 71153,-39802l162180 119531c-9443,16012 -12762,35122 -9284,53426zm-1838339 1393440l0 0c5736,3882 12089,7021 18943,9326l0 374710 -150952 -111448c8187,-13402 12485,-28470 12485,-43795 0,-22352 -8680,-43205 -24533,-59141l144057 -169652zm36205 1273951l0 0c9055,0 18124,-1617 26574,-4700l393529 541563c-14714,5298 -27234,15048 -35907,28012l-346518 -249027c6812,-12513 10402,-26408 10402,-40392 0,-40184 -28060,-74404 -67251,-82646l19164 -192810 7 0zm29290 328430l0 0 347629 249819c-3597,8902 -5430,18081 -5430,27358 0,40379 32886,73251 73292,73251 22692,0 43941,-10534 57842,-28435l171916 236597c-660,514 -1327,1069 -1917,1687 -14512,14520 -22491,33810 -22491,54280 0,20485 7999,39754 22491,54225 23470,23387 59613,28831 89034,13811l127003 197552c-1542,1417 -2917,2764 -4194,4118l-869869 -869841c5424,-4166 10361,-8999 14694,-14429l0 7zm751850 668768l0 0c7972,-8013 13930,-17707 17756,-28845l113552 36775c5507,2854 11354,4784 16784,5583l555243 180331c-722,3465 -1042,6513 -1042,9596 0,1375 49,2806 188,4271l-453384 56162c-4472,-42816 -40594,-75820 -83875,-75820 -16207,0 -31969,4777 -45808,13867l-126163 -196219c2312,-1750 4583,-3576 6736,-5715l13 14zm249451 279094l0 0 456175 -56544c5180,14568 16033,26463 30192,32941l6805 1577c5576,1243 11152,2493 16776,3624l743 56c18617,-83 35754,-9221 46399,-24602l255943 96297c3500,13443 9923,24894 19165,34129 25963,25921 66293,29782 96596,9464l275837 103908c-396,1312 -778,2639 -1132,4014l-1205874 -190963c1180,-4645 1951,-9249 2375,-13901zm961117 17123l0 0 535224 -173915 273462 -24470c1278,9714 4347,18929 8986,27046l-434928 316069c-15727,-14963 -36177,-23150 -57932,-23150 -29900,0 -57398,15894 -72626,41753l-254831 -121267c4714,-13402 5631,-28088 2645,-42066zm826719 -159236l0 0c13937,15610 33539,24505 54308,24505 40365,0 73230,-32886 73230,-73272 0,-13005 -3486,-25685 -10083,-36871l80000 -58697c209,237 424,466 646,695 14492,14505 33747,22505 54259,22505 0,0 14,0 14,0 20512,-21 39740,-8000 54197,-22505 15853,-15804 23762,-37476 21984,-59925l311376 -48059c2013,5528 4624,10840 7763,15825l-1081378 550994 433684 -315202 0 7zm759691 -598093l0 0c0,-26519 -14839,-51232 -38115,-64009l208947 -396784 -195552 695098c-5180,-1048 -10374,-1562 -15520,-1562 -416,0 -833,21 -1236,56l-16762 -161313c33955,-7082 58231,-36594 58231,-71486l7 0zm420185 -1178383l0 0c0,-27845 -15720,-53107 -40399,-65488l2993 -5298 21 -3666c0,-1813 -21,-3625 -63,-5451 -34,-1771 -76,-3535 -76,-5312l0 -14200 -16450 29039c-3847,-1063 -7756,-1806 -11652,-2229l0 -915615c2306,-187 4534,-472 6666,-805l190789 1204638c-8437,2111 -16679,5673 -24539,10631l-130753 -172951c14964,-13936 23470,-33163 23470,-53293l-7 0z"/>
     <path class="fil7" d="M8096396 8338333c0,165194 -133905,299106 -299113,299106 -165194,0 -299106,-133912 -299106,-299106 0,-165194 133912,-299127 299106,-299127 165201,0 299113,133933 299113,299127z"/>
     <path class="fil8" d="M7867957 8184944l-141341 0c-18693,0 -33803,14894 -33803,33281l0 240202c0,18408 15110,33295 33803,33295l141341 0c18672,0 33810,-14880 33810,-33295l0 -240202c0,-18394 -15138,-33281 -33810,-33281zm-70667 276684l0 0c-10430,0 -18866,-8305 -18866,-18610 0,-10256 8436,-18554 18866,-18554 10416,0 18873,8298 18873,18554 0,10305 -8457,18610 -18873,18610zm75292 -55579l0 0 -150619 0 0 -190615 150619 0 0 190615z"/>
     <path class="fil7" d="M9011920 7538972c0,165194 -133912,299127 -299120,299127 -165187,0 -299126,-133933 -299126,-299127 0,-165194 133939,-299112 299126,-299112 165201,0 299120,133911 299120,299112z"/>
     <g>
      <path class="fil8" d="M8639265 7617382c305,-285 604,-514 937,-764 209,-173 417,-326 646,-472 18873,-19755 46072,-31768 75896,-31421l0 -55c403,0 813,34 1215,21 424,20 806,-21 1223,-21l0 55c29837,-347 57008,11673 75896,31421 208,146 409,299 625,472 326,243 625,479 951,764 6423,5597 7860,13916 3222,18582l-14145 14304c-4631,4666 -13575,3916 -19998,-1659 -153,-153 -306,-306 -472,-466l-42 35c-153,-181 -319,-354 -493,-542 -535,-652 -1090,-1319 -1680,-1909 -10722,-11673 -26519,-18769 -43864,-18408l0 125c-327,-35 -632,-111 -952,-125 -90,0 -173,0 -271,0 -90,0 -166,0 -243,0 -347,21 -645,90 -972,125l0 -125c-17366,-361 -33170,6735 -43885,18408 -576,590 -1125,1257 -1673,1909 -153,188 -327,361 -472,542l-35 -35c-195,153 -333,306 -479,466 -6416,5575 -15388,6318 -20019,1659l-14124 -14304c-4653,-4673 -3201,-12985 3215,-18582l-7 0z"/>
      <path class="fil8" d="M8505047 7457709c424,-466 862,-917 1341,-1341 590,-527 1236,-972 1888,-1409 54794,-49392 129079,-78618 209690,-76445 80604,-2173 154903,27053 209676,76445 660,437 1313,882 1882,1409 472,424 938,882 1354,1341 5125,5603 5368,13721 257,18880l-16929 17061c-4951,4972 -13193,5485 -19498,1521l-42 34c-111,-90 -243,-208 -354,-298 -569,-396 -1146,-799 -1694,-1299 -778,-646 -1431,-1368 -2021,-2111 -44913,-40121 -105602,-63807 -171402,-61946l0 28c-402,-28 -798,0 -1222,-28 -396,28 -812,0 -1215,28l0 -28c-65807,-1861 -126503,21825 -171408,61946 -591,743 -1250,1465 -2021,2111 -556,500 -1118,896 -1688,1299 -138,90 -270,208 -381,298l-35 -34c-6291,3964 -14547,3444 -19498,-1521l-16916 -17061c-5117,-5159 -4867,-13277 243,-18880l-7 0z"/>
      <path class="fil8" d="M8578340 7539333c625,-513 1298,-1013 2006,-1465 35081,-33545 83528,-53946 136405,-53690l0 -27c396,0 813,27 1215,27 424,0 827,-27 1222,-27l0 27c52878,-256 101297,20145 136405,53690 708,452 1375,952 2021,1465 243,243 500,493 764,743 5694,5597 6416,13839 1486,18811l-15791 15943c-4798,4854 -13283,4910 -19609,354 -451,-347 -917,-680 -1354,-1048 -1146,-1000 -2111,-2125 -2896,-3305 -26372,-24887 -62696,-39775 -102255,-39184 -39559,-591 -75875,14304 -102241,39184 -784,1180 -1777,2305 -2916,3305 -417,368 -882,708 -1354,1048 -6305,4556 -14790,4500 -19596,-354l-15783 -15943c-4923,-4972 -4208,-13214 1486,-18811 264,-257 507,-500 778,-743l7 0z"/>
      <path class="fil8" d="M8717959 7675870c19318,0 34977,15422 34977,34455 0,19020 -15666,34435 -34977,34435 -19303,0 -34955,-15415 -34955,-34435 0,-19026 15652,-34455 34955,-34455z"/>
     </g>
     <path class="fil7" d="M7175879 7375778c0,165187 -133912,299099 -299113,299099 -165194,0 -299126,-133912 -299126,-299099 0,-165201 133932,-299119 299126,-299119 165194,0 299113,133911 299113,299119z"/>
     <path class="fil8" d="M6728745 7459570c0,0 2263,5673 13075,1548l29581 -7874c0,0 8561,-2570 17686,5388 0,0 12700,8513 11762,15561l-8242 41129c0,0 -2666,6902 5375,11415l33087 12381c0,0 9194,882 11652,-6569l14415 -25914c0,0 4757,-11333 20200,-10576 0,0 15589,-1368 21060,6875l18895 30976c0,0 3402,7881 13547,3201l29324 -12325c0,0 8207,-5326 5722,-12561l-9166 -31303c0,0 -4062,-8451 4478,-17825 0,0 9125,-14818 21749,-11846l35087 8228c0,0 7256,3139 13596,-6964l11290 -27727c0,0 3486,-9958 -6374,-14284l-29039 -16588c0,0 -8090,-3639 -7638,-18103 0,0 -2202,-16276 8186,-21866l28484 -17151c0,0 9353,-4132 5368,-13840l-12110 -26997c0,0 -3944,-10555 -15499,-7166l-33094 10395c0,0 -11423,-153 -18492,-7743 0,0 -11790,-11200 -8166,-20776l7625 -32525c0,0 1965,-9513 -5326,-12978l-34254 -12776c0,0 -7375,-452 -9659,5145l-19228 33907c0,0 -8985,7381 -21401,4923 0,0 -12915,-1194 -15915,-4257 0,0 -19498,-32393 -20436,-34066 0,0 -3617,-7374 -11151,-4423l-31366 12971c0,0 -6298,3888 -4715,9444l11138 41281c0,0 -2361,10096 -9610,15616 0,0 -12777,9305 -18950,8187l-34219 -8187c0,0 -9923,-3499 -13825,4972l-12818 31074c0,0 -2458,6423 4326,10395l33622 18984c0,0 10700,4833 7562,23324 0,0 645,13583 -12972,20964 -13616,7367 -25324,14797 -25324,14797 0,0 -7506,3535 -4263,11513 3236,7965 15346,30609 15346,30609l14 7zm88693 -58891l0 0c-14144,-32629 1257,-70411 34393,-84326 33129,-13964 71452,1236 85604,33893 14130,32629 -1278,70396 -34407,84333 -33150,13936 -71473,-1257 -85583,-33900l-7 0z"/>
     <path class="fil7" d="M7886803 6833645c0,165201 -133912,299113 -299113,299113 -165194,0 -299106,-133905 -299106,-299113 0,-165194 133912,-299106 299106,-299106 165201,0 299113,133912 299113,299106z"/>
     <path class="fil8" d="M7757002 6679742l-307341 0c-14812,0 -26866,11846 -26866,26442l0 205781c0,14582 12054,26428 26866,26428l120399 0 0 24984 -107581 0c-8090,0 -14700,6596 -14700,14672 0,8090 6610,14700 14700,14700l285760 0c8075,0 14693,-6610 14693,-14700 0,-8076 -6625,-14672 -14693,-14672l-97964 0 0 -24984 106727 0c14811,0 26824,-11846 26824,-26428l0 -205781c0,-14603 -12020,-26442 -26824,-26442zm-5541 197996l0 0c0,12874 -10527,23387 -23380,23387l-249534 0c-12860,0 -23380,-10513 -23380,-23387l0 -137251c0,-12874 10520,-23380 23380,-23380l249534 0c12853,0 23380,10506 23380,23380l0 137251z"/>
     <path class="fil7" d="M11020827 5993656c0,165215 -133912,299127 -299119,299127 -165187,0 -299127,-133912 -299127,-299127 0,-165201 133940,-299113 299127,-299113 165201,0 299119,133905 299119,299113z"/>
     <g>
      <path class="fil8" d="M10712153 6147823l0 -124260c0,-16228 -13346,-29393 -29803,-29393 -16471,0 -29817,13172 -29817,29393l0 124260 59620 0z"/>
      <path class="fil8" d="M10790903 6147823l0 -203204c0,-16214 -13332,-29373 -29817,-29373 -16471,0 -29817,13159 -29817,29373l0 203204 59641 0 -7 0z"/>
      <path class="fil8" d="M10869653 6147823l0 -278906c0,-16242 -13325,-29421 -29775,-29421 -16471,0 -29859,13179 -29859,29421l0 278906 59634 0z"/>
      <path class="fil8" d="M10633403 6147823l0 -48023c0,-16228 -13346,-29380 -29803,-29380 -16471,0 -29845,13152 -29845,29380l0 48023 59648 0z"/>
     </g>
     <path class="fil7" d="M10039101 6925352c0,165187 -133912,299099 -299113,299099 -165194,0 -299127,-133912 -299127,-299099 0,-165200 133933,-299119 299127,-299119 165201,0 299113,133912 299113,299119z"/>
     <path class="fil8" d="M9862686 6900806c0,-54204 -43962,-98151 -98145,-98151 -36774,0 -68834,20220 -85610,50134 -4076,-673 -8284,-1041 -12541,-1041 -33226,0 -61369,21991 -70494,52287 -30212,9249 -52203,37281 -52203,70383 0,40677 32802,73639 73834,73639l244923 0c40788,0 73861,-33074 73861,-73639 0,-40532 -32691,-73494 -73611,-73605l-14 -7zm-122698 122691l0 0 -73605 -98145 49066 0 0 -73611 49092 0 0 73611 49066 0 -73612 98145 -7 0z"/>
     <path class="fil7" d="M10187872 8280324c0,165194 -133911,299106 -299119,299106 -165187,0 -299127,-133912 -299127,-299106 0,-165194 133940,-299113 299127,-299113 165201,0 299119,133912 299119,299113z"/>
     <path class="fil8" d="M9983731 8337312c-13062,0 -25061,4437 -34657,11819l-99144 -59474c500,-3049 819,-6146 819,-9333 0,-3194 -319,-6284 -819,-9332l99144 -59474c9596,7381 21595,11818 34657,11818 31476,0 56988,-25512 56988,-56981 0,-31477 -25512,-56995 -56988,-56995 -31477,0 -56988,25518 -56988,56995 0,3173 326,6277 833,9325l-99165 59488c-9597,-7388 -21595,-11825 -34643,-11825 -31462,0 -56995,25512 -56995,56988 0,31449 25539,56988 56995,56988 13054,0 25053,-4437 34643,-11825l99165 59488c-507,3048 -833,6145 -833,9325 0,31477 25511,56995 56988,56995 31476,0 56988,-25518 56988,-56995 0,-31469 -25512,-56981 -56988,-56981l0 -14z"/>
     <path class="fil7" d="M8968660 5885304c0,165201 -133912,299134 -299120,299134 -165194,0 -299127,-133933 -299127,-299134 0,-165186 133933,-299098 299127,-299098 165201,0 299120,133912 299120,299098z"/>
     <g>
      <path class="fil8" d="M8694795 5734241c-4986,48649 -21846,85361 -32185,128656 -39149,-16374 -91464,-23505 -137835,-9173 9367,-41226 22644,-78514 32185,-119483 34115,-27949 100449,-17915 137835,0z"/>
      <path class="fil8" d="M8717744 5757184c35108,20547 92853,22699 137891,9256 -13673,39906 -21957,85194 -36782,124052 -37802,20005 -110101,18519 -137821,-9194 11527,-42108 23047,-84132 36712,-124114l0 0z"/>
      <path class="fil8" d="M8653416 5885881c-7138,46440 -25490,81666 -32143,128634 -40496,-18623 -92151,-31087 -137835,-9193 5784,-46274 21214,-82861 32143,-124031 35400,-21956 105901,-15471 137835,4590z"/>
      <path class="fil8" d="M8676435 5904240c35094,24790 93777,26234 137863,9173 -13026,40635 -23442,83819 -36733,124086 -35566,24165 -105136,20478 -137897,-4603 9068,-46073 21005,-89222 36767,-128656l0 0z"/>
     </g>
     <path class="fil7" d="M11009759 7217473c0,165200 -133912,299112 -299113,299112 -165201,0 -299120,-133912 -299120,-299112 0,-165201 133912,-299127 299120,-299127 165194,0 299113,133926 299113,299127z"/>
     <path class="fil8" d="M10710653 7038676c-98741,0 -178797,80055 -178797,178797 0,98727 80056,178790 178797,178790 98728,0 178790,-80063 178790,-178790 0,-98742 -80062,-178797 -178790,-178797zm0 312875l0 0c-73938,0 -134106,-60120 -134106,-134078 0,-73931 60168,-134107 134106,-134107 73931,0 134079,60176 134079,134107 0,73958 -60148,134078 -134079,134078zm111747 -134078l0 0c0,12360 -10020,22352 -22359,22352l-89395 0c-12332,0 -22352,-9992 -22352,-22352l0 -89395c0,-12360 10020,-22359 22352,-22359 12332,0 22345,9999 22345,22359l0 67042 67050 0c12339,0 22359,9993 22359,22353z"/>
     <path class="fil7" d="M9695013 5129565c0,165201 -133912,299120 -299106,299120 -165215,0 -299127,-133912 -299127,-299120 0,-165194 133912,-299127 299127,-299127 165194,0 299106,133933 299106,299127z"/>
     <path class="fil8" d="M9496655 5026609c-19637,0 -35552,15943 -35552,35608 0,19595 15915,35531 35552,35531 19651,0 35622,-15936 35622,-35531 0,-19624 -16033,-35608 -35622,-35608zm-201489 0l0 0c-19637,0 -35622,15943 -35622,35608 0,19595 15992,35531 35622,35531 19575,0 35545,-15936 35545,-35531 0,-19624 -15970,-35608 -35545,-35608zm100706 -71119l0 0c-28997,0 -52613,23595 -52613,52613 0,29019 23588,52649 52613,52649 29012,0 52614,-23623 52614,-52649 34,-29011 -23595,-52613 -52614,-52613zm157639 315278l0 0 -62133 0 0 -113539c0,-15616 -4090,-30136 -10791,-43149 5104,-1513 10430,-2583 16006,-2583 31365,0 56918,25491 56918,56870l0 102401zm-253165 -113539l0 0 0 113539 -62057 0 0 -102401c0,-31358 25512,-56870 56891,-56870 5603,0 10895,1070 15964,2583 -6666,13013 -10791,27533 -10791,43149l-7 0zm13020 146390l0 0 164985 0 0 -146390c0,-45482 -37031,-82492 -82486,-82492 -45523,0 -82506,37010 -82506,82492l0 146390 7 0z"/>
     <path class="fil7" d="M7553513 5218502c0,165194 -133912,299126 -299106,299126 -165194,0 -299113,-133932 -299113,-299126 0,-165194 133912,-299113 299113,-299113 165194,0 299106,133912 299106,299113z"/>
     <g>
      <path class="fil8" d="M7429829 5167374l0 -12179c0,-22929 -18873,-41566 -42066,-41566l-298994 0c-23193,0 -42080,18637 -42080,41566l0 126621c0,22921 18894,41579 42080,41579l298994 0c23193,0 42066,-18665 42066,-41579l0 -16395c18582,-4395 32296,-20922 32296,-40267l0 -17519c0,-19360 -13714,-35872 -32296,-40254l0 -7zm-53224 131600l0 0 -278171 0c-16387,951 -25449,-6763 -24525,-25901l0 -106608c305,-17686 6492,-26234 24525,-25922l278171 0c18873,-319 24657,8631 24504,25922l0 106608c1389,19533 -8089,25227 -24504,25901z"/>
      <polygon class="fil8" points="7153763,5286801 7195225,5286801 7195225,5152737 7153763,5152737 "/>
      <polygon class="fil8" points="7257469,5152737 7215980,5152737 7215980,5286801 7257469,5286801 "/>
      <path class="fil8" d="M7133022 5152737l-21096 0c-16436,-264 -22026,6943 -22303,21935l0 90221c-896,16180 7388,22693 22303,21915l21096 0 0 -134071z"/>
     </g>
     <path class="fil7" d="M8923851 4502217c0,165194 -133905,299106 -299113,299106 -165193,0 -299126,-133912 -299126,-299106 0,-165194 133933,-299126 299126,-299126 165201,0 299113,133932 299113,299126z"/>
     <path class="fil8" d="M8780072 4614624l76 -201094c-34,-6159 -5062,-11172 -11207,-11172l-141835 0c-4388,-118 -7791,-8173 -7791,-11256l0 -1271c0,-6548 -5353,-11964 -11943,-11964l-75473 0c-6569,0 -11915,5388 -11915,11964l0 1271c0,3145 -3444,11318 -7923,11318l118 0c-6097,77 -11048,5042 -11048,11173l35 58203 -24123 0c0,0 -10673,-569 -6909,12152l25463 130676c0,6583 4583,11895 11152,11895l267824 0c6575,0 5506,-11895 5506,-11895l-7 0zm-13742 -125989l0 0 -125 131245 -25324 -140689c-2139,-7714 -10881,-7200 -10881,-7200l-215051 0 0 -44649 251381 0 0 61293 0 0z"/>
    </g>
   </g>
  </g>
 </g>
</svg>
