<?xml version="1.0" encoding="UTF-8"?>
<!DOCTYPE svg PUBLIC "-//W3C//DTD SVG 1.1//EN" "http://www.w3.org/Graphics/SVG/1.1/DTD/svg11.dtd">
<!-- Creator: CorelDRAW X7 -->
<svg xmlns="http://www.w3.org/2000/svg" xml:space="preserve" width="5028px" height="1138px" version="1.1" style="shape-rendering:geometricPrecision; text-rendering:geometricPrecision; image-rendering:optimizeQuality; fill-rule:evenodd; clip-rule:evenodd"
viewBox="0 0 3082628 697658"
 xmlns:xlink="http://www.w3.org/1999/xlink">
 <defs>
  <style type="text/css">
   <![CDATA[
    .fil0 {fill:#B40001}
    .fil1 {fill:#FEC501}
   ]]>
  </style>
 </defs>
 <g id="Layer_x0020_1">
  <metadata id="CorelCorpID_0Corel-Layer"/>
  <g id="_623283933216">
   <g>
    <path class="fil0" d="M1931488 153418c9214,-695 48139,-3892 53988,5146 6103,12515 -21501,91859 -26779,110385 -7987,28051 -73197,259094 -80903,267732 -8361,9368 -45150,8255 -60691,6092l114385 -389354 0 -1zm-94537 -91111c881,8054 -74229,258669 -83449,288755l-64060 217558c-6477,22131 -16050,49101 -20703,71281 46695,675 212517,2985 248664,-4260 70261,-14086 73529,-76671 96523,-154464 27510,-93058 60079,-198748 85718,-291640 9305,-33715 25831,-65735 18564,-102196 -8275,-9515 -11923,-26720 -48985,-27643l-157190 -13c-18221,0 -63328,-4245 -75083,2623l1 -1z"/>
    <path class="fil0" d="M2536586 153153c18400,-365 42877,-2630 56094,4926 3908,16188 -4478,34920 -9520,51373 -33343,108813 -17011,97654 -91642,97543l45068 -153843 0 1zm-113553 -26389c578,9660 -100116,346390 -111938,385381l-37263 127856 120533 -513c15786,-59960 36801,-125954 54582,-186810 1763,-6037 14434,-58501 20603,-60148 41771,0 58553,-9661 45614,34302 -19607,66627 -46616,149322 -62515,213120l120516 2c5348,-27396 50740,-170407 62514,-213285 8401,-30600 3996,-50533 -20400,-61949 28546,-3834 41733,-14704 49282,-39434l59282 -203323c7259,-72987 -64952,-62277 -108686,-62277 -56897,0 -113793,0 -170690,0l-15238 51339c-729,2731 -1403,6227 -2448,8963l-3748 6777 0 -1z"/>
    <path class="fil0" d="M1648044 155061c6105,13918 -20167,87795 -25566,107108l-79957 270700c-8413,18182 -55552,9072 -55584,9054 -10963,-6115 4465,-43589 7924,-54822l95987 -323535c7282,-15163 40640,-12710 57196,-8505zm131958 -28614c5359,-18926 641,-39011 -8610,-50979 -8890,-11502 -26677,-15850 -47101,-15820 -229779,330 -218996,-19302 -258890,120170 -6438,22504 -111288,372156 -114614,391243 -7296,41831 19157,67210 57288,68828 40772,1729 85338,75 126533,91 105699,38 103957,-36828 130296,-122680 19762,-64413 39220,-130437 57621,-195311 18503,-65235 38975,-130201 57478,-195543l-1 1z"/>
    <path class="fil0" d="M348358 59680l-119220 -52 -170534 580352 119441 -113 73076 -247114c67165,-2883 59556,-2026 38878,67810l-35316 119803c-5259,18424 -13597,41231 -17261,59612l119733 2 44144 -150573c11280,-36676 42531,-107425 8094,-130581 -2134,-1437 -5045,-2799 -7411,-3994 -2944,-1489 -1193,-441 -4053,-2084 -5276,-3035 -1500,-597 -4111,-2765 33245,-4608 49949,-18040 58890,-46699l71100 -243639 -116239 652c-6099,13455 -36126,121387 -43644,146450 -7268,24244 -14013,48155 -21420,72524 -4011,13201 -7168,23567 -21143,26776 -8522,1955 -36161,1880 -44847,86l71843 -246454 0 1z"/>
    <path class="fil0" d="M1018404 59700c-579,12516 -69228,237179 -78902,270589 -4016,13869 -7323,33875 -18283,39170 -9156,4421 -45117,4173 -51713,-1281 -8336,-11038 11990,-61949 16620,-77839 20139,-69125 47739,-167051 68964,-230666l-120923 484c-22199,75131 -44852,149842 -66575,224584 -10875,37416 -23931,75429 -33212,112451 -6157,24558 -1957,42473 14055,53701 16251,11398 41686,6590 63239,8377l-52034 180710 110161 0c5306,-1430 12755,-34481 15508,-43955 8157,-28089 33723,-123241 40812,-137232 23366,0 50137,2301 70425,-6343 17438,-7429 29908,-20418 37656,-38925l88366 -294928c4813,-15883 14405,-43295 16905,-58908l-121070 11 1 0z"/>
    <path class="fil0" d="M1295323 262737c23264,-3179 52998,-12165 76490,-17505 5236,-1190 34264,-7230 37079,-8896 6268,-3713 31664,-99121 33198,-104712 5809,-21166 17491,-51400 20492,-71951 -52624,0 -105251,0 -157877,0 -51097,0 -104481,-8418 -128155,26794 -14354,21347 -63253,197810 -74207,236163 -11509,40296 -24389,80624 -35749,121326 -8637,30955 -31319,92373 -32125,123082 -1310,49895 34051,72080 82426,72913 51445,884 103706,29 155242,29 7392,-3924 9588,-17593 12724,-25694 8096,-20911 28629,-68982 32403,-84462 -29093,0 -58184,0 -87277,0 -20542,0 -68281,9304 -64377,-19393l78158 -266710c30593,-104696 14778,-91072 82975,-90579l-31420 109595 0 0z"/>
    <path class="fil0" d="M2759892 129237c264,9913 -44800,157656 -51514,180467 -8641,29367 -21126,70212 6925,86323 28353,16286 84976,684 105669,9447 1437,6722 -24794,97750 -29681,109712 -7899,19338 -27555,14638 -55435,14638 -86748,-2 -70714,-8089 -81453,26658l-24538 83499c64946,0 133548,2148 198034,-54 33121,-1132 50551,-14742 58114,-41408 13997,-49359 59105,-191553 66853,-228179 17652,-83467 -56856,-71184 -120206,-71184 4155,-19170 11230,-40235 16735,-59119 24686,-84674 14057,-75816 72300,-75816 20705,0 52367,1861 71895,-473l12344 -39226 18076 -64837c-55818,0 -111637,27 -167454,0 -28068,-16 -50319,-527 -68229,15749 -20399,18540 -21383,46945 -28435,53804l0 -1z"/>
    <path class="fil0" d="M2166152 93568c263,12412 -69287,239887 -78852,273239 -12044,41982 -72968,239500 -80100,273173l220951 0c5554,-1267 8753,-15614 11908,-24581 7607,-21646 26991,-69971 30401,-85557l-108910 -18c-344,-9814 32807,-116857 38493,-134530l104961 -385 29736 -102432 -103832 -534 36938 -127620 106885 -144 12548 -39658 18437 -64337 -227828 -511c-3467,9746 -5085,26405 -11735,33894l-1 1z"/>
    <path class="fil0" d="M795299 59668l-227761 202 -170461 580086 224079 -89 39183 -110034 -110148 -400 39657 -134505 101779 0c5202,-2939 4383,-4191 6309,-11226 5136,-18762 25694,-83150 25796,-91733l-103330 -205 36956 -127504 106922 -39 31018 -104551 1 -2z"/>
   </g>
   <g>
    <path class="fil1" d="M653310 452141l17243 0 0 15328 -24907 0c543,-6512 921,-15328 7664,-15328l0 0zm-653310 140266l0 -6339c650,-24006 14604,-60788 21067,-84120l49133 -167361c14688,-49287 33906,-119928 49302,-167188l49094 -167399 1762586 0 0 59381 -84437 -215c-8619,190 -6753,-1392 -9794,3140 881,8054 -74229,258669 -83449,288756l-64060 217557c-6477,22131 -16050,49101 -20703,71282 46695,674 212517,2984 248664,-4261 70261,-14086 73529,-76671 96523,-154463 27510,-93059 60079,-198749 85718,-291640 9305,-33716 25831,-65735 18564,-102197l46719 -1199c511,1702 1742,2652 1224,7426 262,12412 -69288,239887 -78853,273239 -12043,41983 -72967,239501 -80099,273174l220951 0c5553,-1268 8752,-15614 11907,-24582 7608,-21646 26991,-69971 30402,-85557l-108910 -18c-344,-9814 32806,-116857 38493,-134530l104961 -385 29736 -102432 -103832 -534 36938 -127619 106885 -145 12547 -39658c9072,-6576 16413,-3813 34377,-3813 185,527 801,604 837,1455 261,5998 -88,-1573 541,4600 577,9660 -100116,346389 -111938,385380l-37264 127857 120534 -513c15785,-59961 36800,-125954 54582,-186810 1763,-6037 14434,-58501 20603,-60149 41771,0 58553,-9660 45614,34303 -19607,66627 -46617,149322 -62515,213120l120516 2c5347,-27396 50739,-170407 62513,-213285 8402,-30600 3996,-50533 -20399,-61950 28545,-3833 41733,-14703 49282,-39434l59281 -203322c10945,-2516 23524,-1253 35004,-1253l964 3505c27,294 82,4933 82,5024 264,9913 -44800,157656 -51514,180467 -8641,29367 -21125,70212 6925,86323 28353,16286 84976,684 105669,9447 1437,6722 -24794,97750 -29681,109712 -7899,19338 -27555,14638 -55435,14638 -86748,-2 -70713,-8089 -81452,26658l-24539 83499c64946,0 133548,2148 198034,-54 33121,-1132 50551,-14742 58114,-41408 13998,-49359 59105,-191553 66853,-228179 17652,-83467 -56856,-71184 -120206,-71184 4155,-19170 11230,-40235 16736,-59119 24685,-84674 14057,-75816 72299,-75816 20706,0 52367,1861 71895,-473l12344 -39226c7719,-5406 7062,-4100 17306,-3960 6404,86 12742,147 19155,147l28811 -143c10927,1901 3564,-2113 7592,3965 -1303,15657 -24681,88787 -30654,97709 -22991,0 -45981,0 -68971,0 -21569,0 -51963,-4867 -53643,15327 33470,0 53743,-3012 71399,14814 8368,8450 13000,11946 15983,26168 1885,8992 1122,115850 817,127682 -485,18668 -30676,116911 -36233,134281 -6947,21723 -12428,44096 -19157,65138 -13296,41568 -11149,67342 -43679,84684l-12819 6338c-1387,403 -1859217,2019 -1866540,-32l-6671 -2908c-5635,-2222 -10092,-2822 -15468,-5607 -48590,-25167 -39898,-61219 -39898,-130611 -1376,1978 -228,-255 -2054,3693 -6336,13694 -38181,129221 -38181,136164l-233734 0 0 -49812 -6037 11205c-1444,4105 -2482,7832 -4240,13002 -3198,9398 -6965,13761 -6965,25605l-682049 0 0 -1706 0 -1706c11,-33836 181,-67722 0,-101552l-3 0zm2697539 -124938l0 -5748 26822 0c-5687,4943 -2848,2901 -11270,4058 -6118,839 -8388,1690 -15552,1690l0 0zm-1394751 0l-49812 0 38975 -131535c5453,-19706 -3161,-15985 47239,-15985 9178,0 4086,8247 2414,13776 -2249,7426 -3901,12788 -6007,19030l-32810 114714 1 0zm477214 -341022c-18503,65341 -38974,130307 -57478,195542 -18401,64876 -37859,130898 -57620,195312 -26340,85851 -24597,122718 -130296,122679 -41195,-16 -85761,1638 -126534,-90 -38131,-1618 -64583,-26998 -57288,-68829 3327,-19086 108177,-368739 114614,-391242 39894,-139472 29112,-119840 258891,-120170 20424,-30 38210,4318 47100,15819 9251,11968 13969,32054 8611,50980l0 -1zm-484679 136290l31419 -109595c-68197,-493 -52382,-14118 -82975,90579l-78158 266710c-3903,28697 43835,19393 64377,19393 29094,0 58185,0 87278,0 -3775,15480 -24308,63551 -32404,84462 -3136,8101 -5332,21770 -12724,25694 -51536,0 -103796,855 -155242,-29 -48374,-833 -83736,-23018 -82425,-72913 805,-30709 23487,-92127 32125,-123082 11359,-40702 24239,-81030 35748,-121326 10954,-38353 59854,-214816 74207,-236163 23674,-35212 77059,-26794 128155,-26794 52627,0 105253,0 157877,0 -3000,20551 -14683,50785 -20492,71951 -1534,5592 -26930,100999 -33198,104712 -2815,1666 -31842,7706 -37078,8896 -23493,5340 -53226,14326 -76491,17505l1 0zm-531043 -98516l-106922 38 -36956 127504 103330 206c-102,8583 -20660,72971 -25796,91732 -1926,7035 -1107,8287 -6309,11226l-101779 0 -39657 134505 110148 400 -39183 110035 -224079 88 170461 -580086 227761 -201 -31019 104551 0 2zm-487764 141913c8687,1794 36324,1869 44846,-86 13976,-3209 17132,-13575 21144,-26776 7406,-24369 14152,-48280 21420,-72524 7518,-25063 37545,-132996 43643,-146450l116239 -652 -71099 243639c-8941,28659 -25645,42091 -58891,46698 2612,2168 -1165,-269 4112,2766 2860,1643 1109,595 4053,2084 2367,1194 5276,2556 7410,3994 34438,23155 3186,93905 -8094,130581l-44143 150573 -119733 -2c3663,-18381 12002,-41188 17261,-59612l35316 -119803c20677,-69836 28288,-70693 -38878,-67811l-73076 247115 -119441 113 170534 -580352 119219 52 -71842 246453 0 0zm678575 -246461l63313 27 121071 -11c-2501,15613 -12093,43025 -16906,58908l-88365 294928c-7748,18507 -20219,31496 -37656,38925 -20289,8644 -47060,6343 -70426,6343 -7090,13991 -32655,109143 -40812,137232 -2751,9474 -10201,42525 -15507,43955l-110161 0 52033 -180710c-21554,-1787 -46987,3021 -63239,-8377 -16012,-11228 -20211,-29143 -14054,-53701 9279,-37022 22336,-75035 33212,-112451 21723,-74742 44376,-149453 66574,-224584l120923 -484 0 0z"/>
    <path class="fil1" d="M1836951 62307c11755,-6868 56863,-2623 75083,-2623l157190 13c37063,924 40711,18128 48986,27643l46718 -1199c511,1702 1742,2652 1224,7426 6650,-7490 8269,-24148 11735,-33894l227828 511 -18437 64337c9071,-6576 16412,-3813 34377,-3813 185,527 801,604 837,1454 261,5999 -89,-1572 541,4601l3747 -6777c1046,-2736 1720,-6232 2448,-8963l15238 -51339c56897,0 113793,0 170690,0 43734,0 115945,-10711 108686,62277 10945,-2516 23524,-1253 35004,-1253l964 3505c27,294 82,4933 82,5024 7051,-6859 8035,-35264 28435,-53803 17910,-16277 40160,-15766 68228,-15750 55817,27 111637,0 167454,0l-18076 64838c7719,-5407 7062,-4101 17306,-3961 6404,87 12742,147 19155,147l28811 -142c10927,1901 3564,-2114 7592,3964l3831 -124530c-96430,0 -192863,0 -289296,0l-493 0 -32460 0 -1444 113c-25916,2279 -13740,229 -27455,-113l-800297 0 0 59381 -84438 -215c-8619,190 -6752,-1392 -9793,3140l-1 1z"/>
    <path class="fil1" d="M1817104 542771c15541,2163 52331,3277 60691,-6092 7705,-8637 72915,-239681 80903,-267731 5277,-18526 32881,-97869 26779,-110386 -5850,-9037 -44775,-5840 -53989,-5146l-114384 389354 0 1z"/>
    <path class="fil1" d="M1648044 155061c-16555,-4204 -49914,-6658 -57196,8505l-95987 323535c-3459,11233 -18887,48707 -7924,54822 32,18 47171,9128 55584,-9054l79957 -270700c5399,-19313 31671,-93190 25566,-107108z"/>
    <path class="fil1" d="M1018404 59700l-63313 -26c-21225,63614 -48825,161541 -68964,230665 -4630,15890 -24957,66801 -16620,77840 6595,5453 42557,5702 51712,1281 10961,-5295 14267,-25301 18284,-39170 9673,-33410 78323,-258074 78902,-270589l-1 -1z"/>
    <path class="fil1" d="M2491518 306996c74631,111 58299,11269 91642,-97543 5042,-16454 13428,-35185 9520,-51374 -13217,-7556 -37694,-5290 -56094,-4926l-45068 153844 0 -1z"/>
   </g>
  </g>
 </g>
</svg>
