<?xml version="1.0" encoding="UTF-8"?>
<!DOCTYPE svg PUBLIC "-//W3C//DTD SVG 1.1//EN" "http://www.w3.org/Graphics/SVG/1.1/DTD/svg11.dtd">
<!-- Creator: CorelDRAW X7 -->
<svg xmlns="http://www.w3.org/2000/svg" xml:space="preserve" height="100px" width="100px" version="1.1" style="shape-rendering:geometricPrecision; text-rendering:geometricPrecision; image-rendering:optimizeQuality; fill-rule:evenodd; clip-rule:evenodd"
viewBox="0 0 1914806 1296596"
 xmlns:xlink="http://www.w3.org/1999/xlink">
 <defs>
  <style type="text/css">
   <![CDATA[
    .fil1 {fill:#B40001}
    .fil2 {fill:#FFC602}
    .fil4 {fill:#B40001;fill-rule:nonzero}
    .fil5 {fill:#FFC602;fill-rule:nonzero}
    .fil3 {fill:#B40001;fill-rule:nonzero;fill-opacity:0.149020}
    .fil0 {fill:gray;fill-opacity:0.200000}
   ]]>
  </style>
 </defs>
 <g id="Layer_x0020_1">
  <metadata id="CorelCorpID_0Corel-Layer"/>
  <g id="_575974838336">
   <path class="fil0" d="M885883 1259177l1016215 -1781 -218974 -365967 -1017 0c305,-2383 516,-4792 516,-7265l0 -806326c0,-31295 -25051,-56661 -55944,-56661l-1342657 0c-30900,0 -55944,25366 -55944,56661l0 806326c0,3244 327,6397 843,9486l-449 -9647 -228472 376714 2309 0c1050,19949 22150,35879 48094,35879l1805621 0c26612,0 48190,-16753 48190,-37419l-1018331 0z"/>
   <path class="fil1" d="M1692826 853566c0,30950 -25091,56041 -56042,56041l-1345017 0c-30953,0 -56044,-25091 -56044,-56041l0 -797525c0,-30952 25091,-56041 56044,-56041l1345017 0c30951,0 56042,25089 56042,56041l0 797525z"/>
   <polygon class="fil2" points="235219,862947 7248,1226004 1912688,1222715 1693327,860750 "/>
   <path class="fil1" d="M1914806 1224473c0,20443 -21615,37018 -48277,37018l-1808791 0c-26661,0 -48280,-16575 -48280,-37018l1905348 0z"/>
   <polygon class="fil2" points="1612338,794468 316960,794468 316960,73138 1612338,73138 "/>
   <g>
    <g>
     <polygon class="fil3" points="330526,969325 285952,969325 306134,924062 349245,924062 "/>
     <polygon class="fil3" points="364927,1026445 260484,1026445 280666,981182 381817,981182 "/>
     <polygon class="fil3" points="344023,1088954 235036,1088954 255143,1043691 360841,1043691 "/>
     <polygon class="fil3" points="384013,969325 339439,969325 357867,924062 400977,924062 "/>
     <polygon class="fil3" points="437499,969325 392928,969325 409597,924062 452708,924062 "/>
     <polygon class="fil3" points="490985,969325 446414,969325 461330,924062 504440,924062 "/>
     <polygon class="fil3" points="544472,969325 499901,969325 513060,924062 556170,924062 "/>
     <polygon class="fil3" points="597961,969325 553387,969325 564793,924062 607903,924062 "/>
     <polygon class="fil3" points="651447,969325 606874,969325 616523,924062 659633,924062 "/>
     <polygon class="fil3" points="704934,969325 660360,969325 668256,924062 711364,924062 "/>
     <polygon class="fil3" points="758420,969325 713847,969325 719986,924062 763096,924062 "/>
     <polygon class="fil3" points="811907,969325 767333,969325 771719,924062 814829,924062 "/>
     <polygon class="fil3" points="865393,969325 820822,969325 823449,924062 866559,924062 "/>
     <polygon class="fil3" points="918882,969325 874311,969325 875182,924062 918292,924062 "/>
     <polygon class="fil3" points="972366,969325 927795,969325 926912,924062 970022,924062 "/>
     <polygon class="fil3" points="1025855,969325 981279,969325 978642,924062 1021755,924062 "/>
     <polygon class="fil3" points="1079342,969325 1034770,969325 1030375,924062 1073485,924062 "/>
     <polygon class="fil3" points="1132828,969325 1088257,969325 1082107,924062 1125218,924062 "/>
     <polygon class="fil3" points="1186314,969325 1141743,969325 1133838,924062 1176945,924062 "/>
     <polygon class="fil3" points="1239801,969325 1195227,969325 1185570,924062 1228678,924062 "/>
     <polygon class="fil3" points="1293287,969325 1248716,969325 1237300,924062 1280408,924062 "/>
     <polygon class="fil3" points="1346776,969325 1302205,969325 1289031,924062 1332141,924062 "/>
     <polygon class="fil3" points="1400263,969325 1355687,969325 1340761,924062 1383874,924062 "/>
     <polygon class="fil3" points="1453749,969325 1409178,969325 1392494,924062 1435604,924062 "/>
     <polygon class="fil3" points="1507236,969325 1462664,969325 1444229,924062 1487336,924062 "/>
     <polygon class="fil3" points="1560722,969325 1516151,969325 1495956,924062 1539067,924062 "/>
     <polygon class="fil3" points="1614209,969325 1569637,969325 1547689,924062 1590799,924062 "/>
     <polygon class="fil3" points="256987,1147151 206665,1147151 226847,1101888 275705,1101888 "/>
     <polygon class="fil3" points="317369,1147151 267048,1147151 285476,1101888 334331,1101888 "/>
     <polygon class="fil3" points="377752,1147151 327433,1147151 344105,1101888 392960,1101888 "/>
     <polygon class="fil3" points="438134,1147151 387815,1147151 402731,1101888 451589,1101888 "/>
     <polygon class="fil3" points="498517,1147151 448198,1147151 461360,1101888 510215,1101888 "/>
     <polygon class="fil3" points="558902,1147151 508583,1147151 519986,1101888 568844,1101888 "/>
     <polygon class="fil3" points="1341366,1147151 571481,1147151 581058,1101888 1328559,1101888 "/>
     <polygon class="fil3" points="1404266,1147151 1353948,1147151 1340776,1101888 1389631,1101888 "/>
     <polygon class="fil3" points="1464649,1147151 1414328,1147151 1399402,1101888 1448260,1101888 "/>
     <polygon class="fil3" points="1525031,1147151 1474713,1147151 1458031,1101888 1506886,1101888 "/>
     <polygon class="fil3" points="1585419,1147151 1535100,1147151 1516659,1101888 1565517,1101888 "/>
     <polygon class="fil3" points="1645796,1147151 1595478,1147151 1575286,1101888 1624141,1101888 "/>
     <polygon class="fil3" points="1706184,1147151 1655865,1147151 1633914,1101888 1682772,1101888 "/>
     <polygon class="fil3" points="418307,1026445 371890,1026445 388562,981182 433515,981182 "/>
     <polygon class="fil3" points="474011,1026445 427594,1026445 442507,981182 487463,981182 "/>
     <polygon class="fil3" points="529712,1026445 483296,1026445 496455,981182 541408,981182 "/>
     <polygon class="fil3" points="585414,1026445 538997,1026445 550401,981182 595356,981182 "/>
     <polygon class="fil3" points="641116,1026445 594696,1026445 604346,981182 649302,981182 "/>
     <polygon class="fil3" points="696817,1026445 650401,1026445 658291,981182 703247,981182 "/>
     <polygon class="fil3" points="752521,1026445 706100,1026445 712239,981182 757197,981182 "/>
     <polygon class="fil3" points="808223,1026445 761801,1026445 766187,981182 811143,981182 "/>
     <polygon class="fil3" points="863925,1026445 817505,1026445 820135,981182 865091,981182 "/>
     <polygon class="fil3" points="919626,1026445 873207,1026445 874080,981182 919036,981182 "/>
     <polygon class="fil3" points="975328,1026445 928909,1026445 928026,981182 972981,981182 "/>
     <polygon class="fil3" points="1031032,1026445 984610,1026445 981973,981182 1026929,981182 "/>
     <polygon class="fil3" points="1086731,1026445 1040314,1026445 1035919,981182 1080875,981182 "/>
     <polygon class="fil3" points="1142435,1026445 1096019,1026445 1089867,981182 1134822,981182 "/>
     <polygon class="fil3" points="1198134,1026445 1151718,1026445 1143812,981182 1188765,981182 "/>
     <polygon class="fil3" points="1253839,1026445 1207422,1026445 1197760,981182 1242716,981182 "/>
     <polygon class="fil3" points="1309538,1026445 1263121,1026445 1251705,981182 1296661,981182 "/>
     <polygon class="fil3" points="1365242,1026445 1318825,1026445 1305653,981182 1350606,981182 "/>
     <polygon class="fil3" points="1420946,1026445 1374527,1026445 1359596,981182 1404557,981182 "/>
     <polygon class="fil3" points="1476645,1026445 1430228,1026445 1413546,981182 1458502,981182 "/>
     <polygon class="fil3" points="1532349,1026445 1485932,1026445 1467492,981182 1512450,981182 "/>
     <polygon class="fil3" points="1588048,1026445 1541632,1026445 1521440,981182 1566393,981182 "/>
     <polygon class="fil3" points="1674413,1085722 1626078,1085722 1575387,981182 1620341,981182 "/>
     <polygon class="fil3" points="397306,1088954 348868,1088954 365540,1043691 412515,1043691 "/>
     <polygon class="fil3" points="455431,1088954 406995,1088954 421909,1043691 468886,1043691 "/>
     <polygon class="fil3" points="513559,1088954 465118,1088954 478280,1043691 525255,1043691 "/>
     <polygon class="fil3" points="571684,1088954 523246,1088954 534649,1043691 581626,1043691 "/>
     <polygon class="fil3" points="629809,1088954 581373,1088954 591023,1043691 637998,1043691 "/>
     <polygon class="fil3" points="687937,1088954 639496,1088954 647392,1043691 694367,1043691 "/>
     <polygon class="fil3" points="746064,1088954 697624,1088954 703763,1043691 750740,1043691 "/>
     <polygon class="fil3" points="804190,1088954 755751,1088954 760134,1043691 807109,1043691 "/>
     <polygon class="fil3" points="862317,1088954 813879,1088954 816506,1043691 863481,1043691 "/>
     <polygon class="fil3" points="920440,1088954 872004,1088954 872877,1043691 919852,1043691 "/>
     <polygon class="fil3" points="978568,1088954 930129,1088954 929246,1043691 976221,1043691 "/>
     <polygon class="fil3" points="1036695,1088954 988252,1088954 985612,1043691 1032595,1043691 "/>
     <polygon class="fil3" points="1094820,1088954 1046382,1088954 1041986,1043691 1088961,1043691 "/>
     <polygon class="fil3" points="1152946,1088954 1104507,1088954 1098358,1043691 1145335,1043691 "/>
     <polygon class="fil3" points="1211073,1088954 1162635,1088954 1154729,1043691 1201704,1043691 "/>
     <polygon class="fil3" points="1269198,1088954 1220760,1088954 1211101,1043691 1258078,1043691 "/>
     <polygon class="fil3" points="1327321,1088954 1278883,1088954 1267467,1043691 1314444,1043691 "/>
     <polygon class="fil3" points="1385451,1088954 1337013,1088954 1323841,1043691 1370816,1043691 "/>
     <polygon class="fil3" points="1443579,1088954 1395138,1088954 1380210,1043691 1427190,1043691 "/>
     <polygon class="fil3" points="1501704,1088954 1453266,1088954 1436584,1043691 1483558,1043691 "/>
     <polygon class="fil3" points="1559832,1088954 1511393,1088954 1492957,1043691 1539932,1043691 "/>
     <polygon class="fil3" points="1617954,1088954 1569516,1088954 1549324,1043691 1596299,1043691 "/>
    </g>
    <g>
     <g>
      <polygon class="fil4" points="330526,965981 285952,965981 306134,920718 349245,920718 "/>
      <polygon class="fil4" points="364927,1023102 260484,1023102 280666,977838 381817,977838 "/>
      <polygon class="fil4" points="344023,1085610 235036,1085610 255143,1040347 360841,1040347 "/>
      <polygon class="fil4" points="384013,965981 339439,965981 357867,920718 400977,920718 "/>
      <polygon class="fil4" points="437499,965981 392928,965981 409597,920718 452708,920718 "/>
      <polygon class="fil4" points="490985,965981 446414,965981 461330,920718 504440,920718 "/>
      <polygon class="fil4" points="544472,965981 499901,965981 513060,920718 556170,920718 "/>
      <polygon class="fil4" points="597961,965981 553387,965981 564793,920718 607903,920718 "/>
      <polygon class="fil4" points="651447,965981 606874,965981 616523,920718 659633,920718 "/>
      <polygon class="fil4" points="704934,965981 660360,965981 668256,920718 711364,920718 "/>
      <polygon class="fil4" points="758420,965981 713847,965981 719986,920718 763096,920718 "/>
      <polygon class="fil4" points="811907,965981 767333,965981 771719,920718 814829,920718 "/>
      <polygon class="fil4" points="865393,965981 820822,965981 823449,920718 866559,920718 "/>
      <polygon class="fil4" points="918882,965981 874311,965981 875182,920718 918292,920718 "/>
      <polygon class="fil4" points="972366,965981 927795,965981 926912,920718 970022,920718 "/>
      <polygon class="fil4" points="1025855,965981 981279,965981 978642,920718 1021755,920718 "/>
      <polygon class="fil4" points="1079342,965981 1034770,965981 1030375,920718 1073485,920718 "/>
      <polygon class="fil4" points="1132828,965981 1088257,965981 1082107,920718 1125218,920718 "/>
      <polygon class="fil4" points="1186314,965981 1141743,965981 1133838,920718 1176945,920718 "/>
      <polygon class="fil4" points="1239801,965981 1195227,965981 1185570,920718 1228678,920718 "/>
      <polygon class="fil4" points="1293287,965981 1248716,965981 1237300,920718 1280408,920718 "/>
      <polygon class="fil4" points="1346776,965981 1302205,965981 1289031,920718 1332141,920718 "/>
      <polygon class="fil4" points="1400263,965981 1355687,965981 1340761,920718 1383874,920718 "/>
      <polygon class="fil4" points="1453749,965981 1409178,965981 1392494,920718 1435604,920718 "/>
      <polygon class="fil4" points="1507236,965981 1462664,965981 1444229,920718 1487336,920718 "/>
      <polygon class="fil4" points="1560722,965981 1516151,965981 1495956,920718 1539067,920718 "/>
      <polygon class="fil4" points="1614209,965981 1569637,965981 1547689,920718 1590799,920718 "/>
      <polygon class="fil4" points="256987,1143810 206665,1143810 226847,1098544 275705,1098544 "/>
      <polygon class="fil4" points="317369,1143810 267048,1143810 285476,1098544 334331,1098544 "/>
      <polygon class="fil4" points="377752,1143810 327433,1143810 344105,1098544 392960,1098544 "/>
      <polygon class="fil4" points="438134,1143810 387815,1143810 402731,1098544 451589,1098544 "/>
      <polygon class="fil4" points="498517,1143810 448198,1143810 461360,1098544 510215,1098544 "/>
      <polygon class="fil4" points="558902,1143810 508583,1143810 519986,1098544 568844,1098544 "/>
      <polygon class="fil4" points="1341366,1143810 571481,1143810 581058,1098544 1328559,1098544 "/>
      <polygon class="fil4" points="1404266,1143810 1353948,1143810 1340776,1098544 1389631,1098544 "/>
      <polygon class="fil4" points="1464649,1143810 1414328,1143810 1399402,1098544 1448260,1098544 "/>
      <polygon class="fil4" points="1525031,1143810 1474713,1143810 1458031,1098544 1506886,1098544 "/>
      <polygon class="fil4" points="1585419,1143810 1535100,1143810 1516659,1098544 1565517,1098544 "/>
      <polygon class="fil4" points="1645796,1143810 1595478,1143810 1575286,1098544 1624141,1098544 "/>
      <polygon class="fil4" points="1706184,1143810 1655865,1143810 1633914,1098544 1682772,1098544 "/>
      <polygon class="fil4" points="418307,1023102 371890,1023102 388562,977838 433515,977838 "/>
      <polygon class="fil4" points="474011,1023102 427594,1023102 442507,977838 487463,977838 "/>
      <polygon class="fil4" points="529712,1023102 483296,1023102 496455,977838 541408,977838 "/>
      <polygon class="fil4" points="585414,1023102 538997,1023102 550401,977838 595356,977838 "/>
      <polygon class="fil4" points="641116,1023102 594696,1023102 604346,977838 649302,977838 "/>
      <polygon class="fil4" points="696817,1023102 650401,1023102 658291,977838 703247,977838 "/>
      <polygon class="fil4" points="752521,1023102 706100,1023102 712239,977838 757197,977838 "/>
      <polygon class="fil4" points="808223,1023102 761801,1023102 766187,977838 811143,977838 "/>
      <polygon class="fil4" points="863925,1023102 817505,1023102 820135,977838 865091,977838 "/>
      <polygon class="fil4" points="919626,1023102 873207,1023102 874080,977838 919036,977838 "/>
      <polygon class="fil4" points="975328,1023102 928909,1023102 928026,977838 972981,977838 "/>
      <polygon class="fil4" points="1031032,1023102 984610,1023102 981973,977838 1026929,977838 "/>
      <polygon class="fil4" points="1086731,1023102 1040314,1023102 1035919,977838 1080875,977838 "/>
      <polygon class="fil4" points="1142435,1023102 1096019,1023102 1089867,977838 1134822,977838 "/>
      <polygon class="fil4" points="1198134,1023102 1151718,1023102 1143812,977838 1188765,977838 "/>
      <polygon class="fil4" points="1253839,1023102 1207422,1023102 1197760,977838 1242716,977838 "/>
      <polygon class="fil4" points="1309538,1023102 1263121,1023102 1251705,977838 1296661,977838 "/>
      <polygon class="fil4" points="1365242,1023102 1318825,1023102 1305653,977838 1350606,977838 "/>
      <polygon class="fil4" points="1420946,1023102 1374527,1023102 1359596,977838 1404557,977838 "/>
      <polygon class="fil4" points="1476645,1023102 1430228,1023102 1413546,977838 1458502,977838 "/>
      <polygon class="fil4" points="1532349,1023102 1485932,1023102 1467492,977838 1512450,977838 "/>
      <polygon class="fil4" points="1588048,1023102 1541632,1023102 1521440,977838 1566393,977838 "/>
      <polygon class="fil4" points="1674413,1082378 1626078,1082378 1575387,977838 1620341,977838 "/>
      <polygon class="fil4" points="397306,1085610 348868,1085610 365540,1040347 412515,1040347 "/>
      <polygon class="fil4" points="455431,1085610 406995,1085610 421909,1040347 468886,1040347 "/>
      <polygon class="fil4" points="513559,1085610 465118,1085610 478280,1040347 525255,1040347 "/>
      <polygon class="fil4" points="571684,1085610 523246,1085610 534649,1040347 581626,1040347 "/>
      <polygon class="fil4" points="629809,1085610 581373,1085610 591023,1040347 637998,1040347 "/>
      <polygon class="fil4" points="687937,1085610 639496,1085610 647392,1040347 694367,1040347 "/>
      <polygon class="fil4" points="746064,1085610 697624,1085610 703763,1040347 750740,1040347 "/>
      <polygon class="fil4" points="804190,1085610 755751,1085610 760134,1040347 807109,1040347 "/>
      <polygon class="fil4" points="862317,1085610 813879,1085610 816506,1040347 863481,1040347 "/>
      <polygon class="fil4" points="920440,1085610 872004,1085610 872877,1040347 919852,1040347 "/>
      <polygon class="fil4" points="978568,1085610 930129,1085610 929246,1040347 976221,1040347 "/>
      <polygon class="fil4" points="1036695,1085610 988252,1085610 985612,1040347 1032595,1040347 "/>
      <polygon class="fil4" points="1094820,1085610 1046382,1085610 1041986,1040347 1088961,1040347 "/>
      <polygon class="fil4" points="1152946,1085610 1104507,1085610 1098358,1040347 1145335,1040347 "/>
      <polygon class="fil4" points="1211073,1085610 1162635,1085610 1154729,1040347 1201704,1040347 "/>
      <polygon class="fil4" points="1269198,1085610 1220760,1085610 1211101,1040347 1258078,1040347 "/>
      <polygon class="fil4" points="1327321,1085610 1278883,1085610 1267467,1040347 1314444,1040347 "/>
      <polygon class="fil4" points="1385451,1085610 1337013,1085610 1323841,1040347 1370816,1040347 "/>
      <polygon class="fil4" points="1443579,1085610 1395138,1085610 1380210,1040347 1427190,1040347 "/>
      <polygon class="fil4" points="1501704,1085610 1453266,1085610 1436584,1040347 1483558,1040347 "/>
      <polygon class="fil4" points="1559832,1085610 1511393,1085610 1492957,1040347 1539932,1040347 "/>
      <polygon class="fil4" points="1617954,1085610 1569516,1085610 1549324,1040347 1596299,1040347 "/>
     </g>
    </g>
   </g>
   <g>
    <path class="fil4" d="M1252809 474055c-223,0 -444,25 -665,53l-24897 -157220c4365,-1585 7268,-5678 7268,-10314 0,-6085 -4947,-11037 -11029,-11037 -2555,0 -5036,913 -7035,2575l-110498 -110488c1313,-1868 2005,-4028 2005,-6273 0,-6082 -4949,-11029 -11034,-11029 -5011,0 -9315,3317 -10622,8119l-157587 -24960c-312,-5789 -5162,-10433 -10996,-10433 -6085,0 -11036,4946 -11036,11029 0,1759 429,3460 1280,5060l-138829 70737c-2099,-2317 -5038,-3637 -8119,-3637 -6085,0 -11034,4949 -11034,11034 0,3708 1838,7097 4937,9151l-69898 137201c-1357,-570 -2771,-858 -4207,-858 -6085,0 -11037,4949 -11037,11033 0,6083 4952,11029 11037,11029 240,0 471,-25 704,-54l23801 150276c-5164,970 -8999,5527 -8999,10798 0,6083 4949,11029 11033,11029 1687,0 3344,-407 4932,-1213l113837 113829c-1137,1784 -1734,3818 -1734,5911 0,6083 4948,11034 11033,11034 4364,0 8266,-2538 10047,-6497l157455 24938c-17,149 -30,300 -30,454 0,6085 4947,11033 11029,11033 6082,0 11034,-4948 11034,-11033 0,-1645 -395,-3270 -1171,-4840l141145 -71920c2099,2307 5033,3624 8109,3624 6080,0 11029,-4953 11029,-11038 0,-3751 -1970,-7268 -5167,-9290l69630 -136648c1387,595 2826,898 4279,898 6087,0 11041,-4946 11041,-11029 0,-6082 -4954,-11034 -11041,-11034zm-90626 168971l0 0 -40399 6229c-325,-1169 -873,-2263 -1629,-3270l42279 -39027c1756,1543 3979,2389 6301,2389l2182 21023c-5196,1002 -8920,5467 -8920,10788 0,588 57,1178 186,1868zm-193044 64396l0 0c489,-524 918,-1094 1282,-1704l21968 10460 -23250 -8756zm-280078 -306308l0 0 20819 15352 0 93776c-1821,422 -3473,1340 -4805,2669 -3889,3892 -3889,10233 3,14137 1399,1394 3153,2322 5097,2707l-2488 25078c-111,-12 -221,-19 -335,-19 -24,0 -49,0 -74,0l-23806 -150304c2158,-544 4115,-1732 5589,-3396zm82933 -164813l0 0 24243 -4354c332,1159 883,2253 1640,3257l-34964 32201c-1749,-1553 -3972,-2401 -6306,-2401 -5269,0 -9555,4281 -9555,9545 0,4584 3336,8523 7836,9349l-1208 15365 -35053 48250c-3969,-2666 -9193,-2193 -12599,1208 -3863,3865 -3892,10133 -122,14006l-18753 22089c-132,-92 -263,-181 -399,-268l69898 -137181c1416,622 2882,940 4363,940 6085,0 11036,-4951 11036,-11036 0,-300 -20,-618 -57,-970zm-36192 192223l0 0c-1173,524 -2247,1308 -3145,2295l-20802 -15348 0 -49778c1116,137 2267,82 3378,-163l20569 62994zm79774 -201332l0 0 10014 -3249c980,2627 3088,4700 5747,5638l442 1230 -16003 -1587c-2,-700 -69,-1379 -200,-2032zm54950 7462l0 0 -26684 -12244c129,-625 191,-1213 193,-1784l50741 11572c-1216,1287 -2054,2887 -2411,4619l-21839 -2163zm280924 22338l0 0 -11949 7915 -22437 -30883c672,-769 1223,-1635 1640,-2585l32684 21569c-258,630 -387,1270 -387,1915 0,704 151,1399 449,2069zm-306740 318014l0 0 -54630 473c-459,-4874 -4532,-8627 -9466,-8627 -345,0 -709,25 -1109,77l-3495 -68611c47,5 92,5 142,5 1555,0 3038,-489 4321,-1421l65644 71026c-1134,1345 -1754,3029 -1754,4795 0,792 116,1556 347,2283zm148818 -375490l0 0 14975 -2880 65617 21314 -23437 16657c-1352,-1131 -3031,-1749 -4775,-1749 -417,0 -838,37 -1255,111 -1811,-2376 -4619,-3787 -7583,-3787 -1221,0 -2421,238 -3572,702l-40719 -26622c521,-1052 784,-2146 784,-3265 0,-161 -15,-322 -35,-481zm190115 107127l0 0 -11031 3845 -6971 -9605 16243 -776c-49,384 -74,736 -74,1076 0,1952 647,3865 1833,5460zm12480 227438l0 0 -119175 43777c-1062,-2044 -3049,-3492 -5336,-3897l4148 -82990c2572,-201 4819,-1672 6022,-3947l114361 43621c-162,613 -239,1193 -239,1756 0,544 70,1087 219,1680zm-258612 -261921l0 0 -69749 34920c-1396,-2087 -3674,-3317 -6181,-3317 -519,0 -1047,65 -1605,198l-25421 -70892 35797 3542 66311 30432c-99,493 -149,952 -149,1394 0,1310 342,2587 997,3723zm-61486 -34988l0 0 16116 1600c13,3041 1457,5752 3694,7491l-19810 -9091zm34726 -1335l0 0 32739 7464c-15,132 -25,266 -25,404 0,2970 2009,5550 4847,6316l-2652 11160c-605,-149 -1148,-221 -1677,-221 -2924,0 -5519,1672 -6744,4304l-37438 -17180c608,124 1238,186 1881,186 5261,0 9543,-4279 9543,-9541 0,-960 -159,-1932 -474,-2892zm286027 125749l0 0 -86131 -24779c62,-404 94,-789 94,-1163 0,-492 -62,-993 -186,-1546l24721 -8625c1442,784 2965,1181 4532,1181 3848,0 7264,-2277 8767,-5822l23243 -8102 28122 38717c-203,157 -406,323 -595,506l-2 5c-2513,2513 -3476,6207 -2565,9628zm-406393 84315l0 0c387,764 995,1409 1749,1865l-14147 35872c-622,-171 -1225,-256 -1835,-256 -296,0 -576,23 -844,58l-9734 -40231 24811 2692zm3344 -106333l0 0 82112 60856c-632,1121 -965,2377 -965,3659 0,747 120,1483 365,2242l-76630 35158c-734,-1285 -2047,-2153 -3523,-2324l-5405 -97411c1548,-283 2957,-1042 4046,-2180zm156428 -89314l0 0c3034,-64 5639,-2265 6254,-5231l57689 994c19,189 44,372 76,554l-62974 20018c-521,-2052 -1898,-3790 -3788,-4778l2743 -11557zm-71431 220778l0 0 -44926 19668c-1347,-2262 -3758,-3649 -6395,-3649 -1141,0 -2240,263 -3279,787l-26604 -40451c322,-273 615,-598 861,-963l80351 21450c-132,555 -196,1081 -196,1590 0,501 62,1007 188,1568zm-79537 -27771l0 0 76838 -35254c1271,2049 3431,3364 5805,3528l2860 50532 5 77c-2317,411 -4314,1890 -5360,3971l-80223 -21412c70,-318 105,-620 105,-916 0,-176 -10,-349 -30,-526zm275608 -138010l0 0 -129635 39258c-474,-925 -1137,-1746 -1950,-2413l74308 -90567c2627,1672 6204,1469 8660,-521l50289 48340c-1136,1349 -1756,3031 -1756,4787 0,377 27,752 84,1116zm-185833 102265l0 0 43599 16022 62394 22953c-228,633 -370,1295 -422,1982l-101637 18205c-1064,-2642 -3537,-4452 -6355,-4653l-2855 -50627c2262,-414 4224,-1858 5276,-3882zm147091 -10113l0 0 -31144 44797c-950,-417 -1942,-628 -2949,-628 -938,0 -1858,181 -2748,541l-56771 -87937c880,-556 1637,-1287 2220,-2153l88507 37519 695 295c-201,677 -305,1357 -305,2024 0,2124 903,4118 2495,5542zm-95301 -42431l0 0 56830 88034c-682,501 -1275,1116 -1764,1833l-106234 -39079c144,-595 214,-1149 214,-1677 0,-1679 -578,-3307 -1637,-4631l45161 -46221c1933,1870 4674,2627 7430,1741zm128211 124496l0 0 -13442 -6502 -46278 -22387c129,-558 189,-1052 189,-1538 0,-2324 -1079,-4500 -2905,-5911l31039 -44663c1442,764 3024,1037 4609,779l29075 77972c-925,578 -1704,1345 -2287,2250zm-127358 -138357l0 0c-873,-412 -1781,-648 -2709,-700l6053 -64599c3668,-474 6489,-3627 6499,-7355l63280 -20115c342,744 798,1414 1361,2002l-74484 90767zm57138 114640l0 0c1032,501 2111,757 3217,757 2865,0 5437,-1615 6690,-4158l59485 28773c-266,774 -400,1577 -400,2391 0,972 196,1935 588,2868l-61518 35207 -62352 35663c-435,-576 -953,-1089 -1548,-1528l55838 -99973zm76456 20299l0 0c-553,0 -1116,74 -1711,223l-29011 -77791c1633,-861 2890,-2307 3528,-4056l95433 20165c-20,161 -32,325 -32,493 0,1385 392,2734 1138,3927l-64810 58609c-1317,-1014 -2910,-1570 -4535,-1570zm-31863 -91278l0 0c-3490,-1139 -7030,379 -8749,3358l-89063 -37764c288,-814 434,-1652 434,-2496 0,-590 -94,-1136 -206,-1600l129569 -39245c623,1473 1684,2696 3044,3505l-35029 74242zm-175501 -69504l0 0 63456 30737c-182,655 -268,1268 -268,1865 0,1387 384,2732 1113,3917l-45303 46367c-1309,-997 -2887,-1543 -4494,-1543 -246,0 -482,20 -702,50l-17528 -78431c1540,-548 2840,-1580 3726,-2962zm-88116 169052l0 0 14152 -35919c732,119 1367,55 2002,-141l25406 38620 1297 1975c-1277,1086 -2136,2555 -2463,4209l-36514 -2607c-137,-2560 -1618,-4897 -3880,-6137zm113752 -14856l0 0c0,-328 -22,-660 -69,-992l101240 -18136c303,1739 1186,3277 2535,4408l-55895 100079c-1810,-754 -3800,-754 -5618,15l-44978 -79574c1751,-1419 2785,-3555 2785,-5800zm250376 -56811l0 0 -95406 -20172c25,-203 42,-409 42,-620 0,-1533 -468,-2994 -1364,-4254l51281 -46303c2139,1843 5195,2364 7879,1156l39999 66748c-1111,876 -1957,2074 -2431,3445zm-200771 -136826l0 0 -6055 64743c-2148,427 -3992,1779 -5056,3701l-63307 -30665c266,-781 397,-1578 397,-2371 0,-861 -146,-1702 -434,-2506l70057 -35073c1183,1211 2721,1967 4398,2171zm-194801 165509l0 0 15338 1658 9892 40904c-265,105 -536,231 -831,390l-28122 -38908c1630,-973 2929,-2386 3723,-4044zm347533 -105692l0 0c0,1530 471,2996 1364,4264l-51278 46307c-268,-225 -561,-434 -883,-635l35048 -74298c2024,622 4048,342 5780,-635l12618 19323c-1689,1432 -2649,3473 -2649,5674zm-17959 -37554l0 0 -50391 -48431c982,-1310 1501,-2835 1501,-4443 0,-288 -20,-585 -65,-895l380 -95c1791,2541 4681,4044 7794,4044 1823,0 3582,-514 5107,-1489 2139,1266 4830,1367 7102,189l28812 50954c-82,54 -163,111 -240,166zm-50326 -59361l0 0c0,953 151,1903 456,2836 -1297,-2332 -3751,-3820 -6489,-3820 -1355,0 -2669,367 -3833,1064l-26279 -33565c139,-141 270,-283 389,-422l39901 26086c-2575,1779 -4145,4711 -4145,7821zm-37591 -32322l0 0 26274 33565c-1121,1136 -1843,2600 -2071,4195l-57595 -1000c-99,-1210 -538,-2356 -1287,-3356l26919 -33461c2335,1454 5378,1481 7760,57zm-234054 168348l0 0c0,-1751 -613,-3428 -1736,-4770l29640 -29673c1196,925 2580,1461 4056,1560l5400 97435c-290,87 -575,201 -846,343l-39324 -59061c1768,-1414 2810,-3562 2810,-5834zm34004 69032l0 0c0,28 0,52 0,77l-24801 -2689 -14350 -59340c248,-85 496,-181 742,-298l39476 59284c-692,831 -1067,1870 -1067,2966zm-40959 -4361l0 0c193,-778 290,-1503 290,-2202 0,-4381 -2999,-8199 -7196,-9248l6658 -45757c79,-5 158,-12 238,-22l14211 58772 -14201 -1543zm34515 52879l0 0 36506 2610c206,3936 3473,7077 7459,7077 420,0 859,-42 1330,-132l20001 64084c-427,201 -838,444 -1243,737l-65646 -71022c806,-963 1349,-2109 1593,-3354zm51437 2210l0 0c0,-682 -107,-1376 -327,-2113l44769 -19609c717,1446 1868,2609 3309,3339l-29377 89286c-496,-107 -968,-159 -1429,-159 -422,0 -851,42 -1322,132l-20004 -64086c2674,-1216 4381,-3833 4381,-6790zm49510 -17780l0 0c578,136 1109,205 1617,205 1062,0 2104,-238 3101,-712l44931 79516c-1895,1404 -3011,3611 -3011,5990 0,3 0,5 0,8l-71975 9133c-545,-2153 -2014,-3934 -4028,-4889l29365 -89251zm61566 85163l0 0c5,-54 7,-107 7,-164 0,-965 -201,-1927 -595,-2865l123871 -70870c1131,1506 2795,2520 4673,2843l-4143 83000c-3155,233 -5794,2399 -6640,5445l-117173 -17389zm203249 -243244l0 0c97,-543 147,-1052 147,-1540 0,-5264 -4282,-9548 -9541,-9548 -5266,0 -9547,4284 -9547,9548 0,2708 1138,5231 3152,7044l-23446 8171c-1253,-2535 -3833,-4150 -6693,-4150 -1111,0 -2225,268 -3252,779l-12703 -19433c1402,-1337 2233,-3142 2322,-5053l73649 -3477 7392 10163 -21480 7496zm-195257 -80165l0 0c-1138,-863 -2513,-1332 -3924,-1332 -2749,0 -5212,1758 -6144,4333l-30341 -6916 67051 -29593c52,62 106,124 161,184l-26803 33324zm-92364 80215l0 0c253,0 493,-20 724,-50l17520 78429c-1089,392 -2064,1029 -2860,1863l-82117 -60857c637,-1118 972,-2376 972,-3663 0,-432 -47,-869 -144,-1350l59140 -18751c1198,2637 3860,4379 6765,4379zm113534 308875l0 0c-846,0 -1680,144 -2486,427l-30013 -60078c1501,-1007 2590,-2495 3061,-4187l117184 17372c-3,57 -5,114 -5,173 0,965 193,1913 575,2823l-82331 46504c-1414,-1908 -3619,-3034 -5985,-3034zm172763 -219306l0 0 -40000 -66748c978,-766 1739,-1771 2235,-2944l87553 25192c493,923 1044,1680 1677,2315 821,821 1803,1488 2927,1989 210,787 523,1508 935,2148l-47236 39410c-1391,-1308 -3185,-2022 -5092,-2022 -1012,0 -2022,221 -2999,660zm-58421 -105656l0 0c-134,-662 -357,-1297 -667,-1895l50168 -33223 23027 31700 -72528 3418zm-96284 -104926l0 0c-992,-3059 -3837,-5158 -7077,-5158 -2664,0 -5137,1457 -6454,3754l-14385 -10598c523,-875 905,-1793 1138,-2738l38454 12495 -11676 2245zm-138915 114868l0 0 -59140 18753c-1220,-2661 -3830,-4358 -6769,-4358 -1003,0 -1997,216 -2962,645l-22383 -37814 8611 -11852 82752 31520c-166,638 -246,1214 -246,1782 0,424 45,860 137,1324zm-72582 18597l0 0 -350 839c-303,860 -446,1657 -446,2431 0,1637 563,3244 1595,4571l-29691 29735c-756,-553 -1590,-950 -2483,-1188l5294 -67569 6219 -8560 21963 37109c-868,685 -1588,1580 -2101,2632zm-33324 36127l0 0c-1444,13 -2848,447 -4103,1280l-695 559c-449,387 -856,838 -1208,1344l-20068 -10835c1555,-3721 732,-8042 -2111,-10895l33220 -45720 -5035 64267zm-28870 145919l0 0 50069 -18878c952,1816 2629,3171 4599,3716l3686 69256c-4001,1218 -6762,4899 -6762,9091 0,3557 1935,6740 5078,8404l-4088 14760c-720,-161 -1362,-238 -1990,-238 -384,0 -747,37 -1146,97l-51557 -70968c725,-431 1328,-890 1836,-1394 3793,-3805 3890,-9927 275,-13846zm218431 55964l0 0c1037,124 2094,-39 3061,-384l30010 60080c-2101,1401 -3341,3683 -3341,6194 0,1409 402,2775 1171,3981l-50842 41927c-762,-722 -1687,-1278 -2714,-1632l22655 -110166zm139841 12567l0 0c17,-149 30,-298 30,-447 0,-528 -70,-1056 -219,-1672l117360 -43127 -42989 59172 -32156 -6025 0 0 -42026 -7901zm72979 15588l0 0 -33441 46032c-1548,-920 -3302,-1386 -5068,-1386 -1409,0 -2825,297 -4147,898l-32221 -56575c700,-777 1226,-1709 1548,-2731l73329 13762zm46057 -68417l0 0 -114360 -43621c164,-638 243,-1208 243,-1769 0,-1516 -476,-2979 -1377,-4257l64714 -58514c1912,1647 4567,2252 7047,1471l42026 93932 2411 5398c276,1317 839,2575 1675,3741l340 756c-1154,702 -2099,1697 -2719,2863zm4760 -178588l0 0 -27795 -38260 11250 -3925c1684,1471 3812,2278 6028,2278 508,0 1036,-50 1597,-152l11326 39114c-868,223 -1674,538 -2406,945zm-116957 -53246l0 0c-1516,-530 -3279,-535 -4845,8l-28921 -51165c1620,-1424 2540,-3438 2540,-5591 0,-1543 -501,-3066 -1424,-4336l24372 -17317 23362 7590c-357,3039 685,6090 2838,8236 841,848 1838,1528 2965,2024l-20887 60551zm-268995 -65887l0 0 16913 1680 25713 71706c-1364,692 -2480,1789 -3207,3146l-82271 -31343 27998 -38538c3890,2294 8928,1679 12145,-1541 1404,-1404 2334,-3162 2709,-5110zm-59705 65046l0 0 947 -12144c201,-13 400,-38 600,-65l3287 5554 -4834 6655zm3492 -12566l0 0c3577,-1087 6152,-4138 6641,-7861l3686 1409 -7804 10723 -2523 -4271zm-38027 77709l0 0 20075 10840c-62,164 -116,333 -171,514l-198 856 -20 119c-45,337 -92,684 -92,1054 0,962 184,1903 566,2820l406 807c1037,1855 2766,3160 4793,3636l-6648 45688c-729,-87 -1486,12 -2394,218l-20566 -63002c1146,-491 2168,-1188 3046,-2069 429,-422 818,-898 1203,-1481zm16267 85137l0 0c745,178 1405,262 2047,262 1005,0 2037,-178 3068,-533l28339 39184c-690,637 -1263,1406 -1685,2274l-315 844c-272,816 -404,1570 -404,2307 0,555 74,1118 236,1741l-51076 19247c-555,-390 -1094,-700 -1629,-943l21419 -64383zm102551 212445l0 0 43524 17016 -46097 -14975c992,-479 1875,-1176 2573,-2041zm1676 -4691l0 0c0,-2932 -1768,-5621 -4442,-6819l13836 -67281c184,22 377,39 576,39 918,0 1818,-173 2681,-513l54035 100615c-930,657 -1689,1521 -2230,2528l-65148 -25493c459,-1000 692,-2034 692,-3076zm17436 -81540l0 0c0,0 0,-5 0,-5l71980 -9136c615,2412 2451,4389 4827,5202l-22660 110161c-1084,-134 -2210,59 -3265,478l-54032 -100617c1980,-1404 3150,-3644 3150,-6083zm271258 -335807l0 0 -11237 -7424c64,-308 116,-611 154,-911l11083 8335zm-42810 62278l0 0c-437,-494 -930,-921 -1476,-1278l20956 -60821c2937,702 6003,62 8384,-1747l22259 30643 -50123 33203zm12388 -74867l0 0 -21812 -7082 10277 -7298c1419,876 3235,908 4669,127l9031 10530c-984,1049 -1711,2299 -2165,3723zm-49071 -27105l0 0c3373,0 6467,-1799 8181,-4721l27232 12458c-82,347 -122,674 -122,994 0,968 303,1905 863,2697l-11093 7881 -63617 -20669 29368 -5655c1126,4093 4916,7015 9188,7015zm-217233 33790l0 0 -325 -908c338,38 665,55 993,55 3877,0 7350,-2374 8806,-5961l21558 9890 -31032 -3076zm-62982 44641l0 0 -4745 -1808c-137,-1814 -779,-3520 -1871,-4976l34853 -32089 -28237 38873zm181100 425297l0 0 -14198 -5351 14189 4614c-5,241 -3,484 9,737zm18057 -60474l0 0c1396,1324 3197,2049 5120,2049 3289,0 6154,-2141 7111,-5264l120029 15265c25,467 79,926 163,1367l-61952 20128 -120339 10780c-183,-868 -511,-1677 -977,-2406l50845 -41919zm12559 -5051l0 0c15,-121 25,-243 25,-369 0,-955 -194,-1901 -578,-2821l82328 -46501c1409,1900 3617,3024 5991,3024 1468,0 2877,-437 4107,-1265l32047 56279c-541,372 -970,725 -1357,1109 -1560,1561 -2545,3614 -2808,5830l-119755 -15286zm178568 -29933l0 0 -42183 38940 33932 -46702 6388 1188c-38,286 -67,578 -67,883 0,2054 664,4012 1930,5691zm36452 -88316l0 0 -42832 -95734c1106,-672 2004,-1600 2629,-2711l25825 10518c544,4770 4629,8463 9434,8463 2166,0 4286,-769 6008,-2175l7660 3120 0 70911c-2334,223 -4485,1225 -6100,2850 -1302,1302 -2205,2952 -2624,4758zm4604 -89004l0 0c0,-5264 -4284,-9548 -9548,-9548 -4966,0 -9002,3726 -9476,8600l-25088 -10212c191,-658 282,-1290 282,-1928 0,-1431 -411,-2810 -1198,-4018l47236 -39414c558,523 1210,965 1912,1297l0 63702 -6234 -2538c1367,-1699 2114,-3783 2114,-5941zm-19845 -129933l0 0 -17997 846 -23734 -32675 11880 -7868c984,1044 2336,1635 3775,1635 811,0 1618,-196 2349,-571l26161 34862c-1114,1040 -1948,2330 -2434,3771zm-403631 314610l0 0c607,-1312 915,-2651 915,-3991 0,-3800 -2213,-7171 -5673,-8707l4048 -14620c901,273 1764,404 2622,404 5018,0 9101,-3820 9493,-8784l55459 -402c908,1419 2260,2476 3865,3024l-13805 67130c-427,-77 -833,-117 -1238,-117 -3277,0 -6216,2223 -7149,5433l-218 992c-52,330 -104,672 -104,1052 0,590 89,1193 295,1977l285 900c97,231 204,454 323,675l-11111 -3607c437,-3103 -600,-6241 -2818,-8468 -3289,-3287 -8404,-3848 -12326,-1409l-22863 -31482zm429566 -173388l0 0 6645 2704c-647,1320 -972,2704 -972,4118 0,3795 2208,7166 5660,8699l-11333 51073 0 -66594zm0 -2009l0 0 0 -63893c540,100 1056,142 1540,95l10905 63523c-1945,590 -3642,1771 -4852,3371l-7593 -3096zm14233 -796l0 0 -10865 -63320c3146,-947 5304,-3822 5304,-7139 0,-484 -52,-977 -156,-1471l-33 -156 -1374 -1238c1846,-3838 1106,-8365 -1898,-11374 -801,-798 -1758,-1458 -2855,-1962l10458 -32701c469,104 946,181 1419,225l0 119136zm-118703 -217310l0 0 -6155 -7181 8094 6087c-679,288 -1329,653 -1939,1094zm-140042 -31692l0 0c124,-121 236,-248 342,-377l14785 10900c-169,635 -251,1233 -251,1820 0,1156 278,2273 826,3332l-69139 30509 -560 -129c-1762,-2838 -4763,-4527 -8077,-4527 -1838,0 -3614,523 -5152,1513l-52723 -12024c-45,-191 -97,-387 -161,-595l103817 -33736c507,1260 1233,2374 2166,3312 3890,3892 10228,3894 14127,2zm-251901 230263l0 0 19599 14470c-868,1461 -1322,3125 -1322,4837 0,3780 2188,7136 5616,8682l-21413 64398c-786,-178 -1550,-270 -2284,-270 -67,0 -132,0 -196,2l0 -92119zm242954 275581l0 0c-1308,1303 -2213,2925 -2640,4718l-32009 -10393c89,-415 141,-799 158,-1174l112217 -10058 -61511 19993c-511,-1183 -1213,-2220 -2086,-3086 -1885,-1887 -4396,-2927 -7065,-2927 0,0 0,0 0,0 -2669,0 -5177,1040 -7064,2927zm94445 -20271l0 0 53730 -17453c233,558 514,1088 841,1592l-10401 7623c-1826,-2017 -4366,-3165 -7040,-3165 -5018,0 -9193,3966 -9513,8930l-27617 2473zm110352 -76124l0 0 -5529 -1035 43177 -59427c503,727 1131,1359 1848,1868l-27502 52218c-973,-315 -1933,-473 -2861,-473 -4251,0 -7945,2793 -9133,6849zm42966 -57290l0 0c253,38 519,65 797,65 1458,0 2899,-464 4167,-1342l119 -79 55 -132c893,-2116 1815,-4423 2904,-7261l52 -134 -29 -139c-122,-577 -335,-1158 -633,-1738 1650,-457 3136,-1315 4326,-2506 3007,-3011 3748,-7526 1908,-11356l29144 -22010c447,412 921,781 1409,1104l-69627 136660c-70,-27 -139,-54 -209,-82l25617 -91050zm39213 -54724l0 0c0,2389 802,4723 2265,6628l-28812 21762c-298,-401 -598,-751 -908,-1064 -1329,-1332 -3043,-2240 -4986,-2644l12036 -54218c769,186 1446,273 2106,273 1744,0 3443,-477 4939,-1382l16994 22482c-2316,2093 -3634,5043 -3634,8163zm-33019 -135763l0 0c-739,-173 -1500,-262 -2277,-262 -188,0 -379,5 -570,17l-11401 -39394c3453,-1409 5740,-4771 5740,-8504 0,-5087 -4138,-9225 -9225,-9225 -1672,0 -3300,451 -4738,1310l-24643 -32881 52557 40315c-1151,1791 -1757,3810 -1757,5872 0,4400 2697,8416 6755,10135l-10441 32617zm3530 -52581l0 0 -51390 -39406c392,-749 598,-1578 598,-2416 0,-3143 -2749,-5649 -6008,-5195l-50585 -60375 107385 107392zm-59613 -45650l0 0 -33250 -25002c-290,-2210 -1250,-4184 -2788,-5727 -2228,-2230 -5408,-3267 -8546,-2801l-12840 -9652c296,-628 444,-1285 444,-1960 0,-1892 -1141,-3569 -2879,-4294l1791 -9555c845,191 1590,283 2309,283 2250,0 4410,-692 6276,-2007l50333 60065c-302,186 -585,402 -850,650zm-61784 -49815l0 0c-1079,27 -2106,429 -2935,1148l-3557 -2701 2897 3408c-7,10 -12,20 -20,28l-27204 -12443c342,-1000 513,-2022 513,-3046 0,-581 -67,-1181 -203,-1818l25731 -2476c682,3656 3163,6715 6601,8136l-1823 9764zm-5001 -19855l0 0 -26094 2508c-1508,-3540 -4901,-5807 -8751,-5807 -5264,0 -9548,4284 -9548,9548 0,243 22,474 55,704l-32712 6299 -42212 -13721c109,-2798 -928,-5492 -2878,-7439 -3897,-3892 -10237,-3892 -14134,3 -121,124 -236,253 -347,382l-21383 -15757c362,-895 603,-1796 719,-2689l157357 24927c-40,311 -75,631 -75,968 0,25 0,50 3,74zm-138990 1032l0 0 -103974 33773c-1635,-3147 -4904,-5159 -8446,-5159 -5262,0 -9543,4284 -9543,9548 0,459 37,937 109,1426l-10049 3269c-511,-1200 -1218,-2259 -2111,-3150 -1888,-1890 -4398,-2932 -7070,-2932 -2671,0 -5182,1042 -7069,2932 -2069,2071 -3094,4907 -2856,7841l-24277 4361c-283,-1054 -700,-2029 -1243,-2910l138630 -70639c2092,2696 5316,4293 8710,4293 3770,0 7273,-1974 9270,-5186l21129 15573c-1230,2086 -1662,4576 -1210,6960zm-239496 181535l0 0c747,506 1575,915 2468,1215l0 48816 -19666 -14519c1067,-1746 1627,-3709 1627,-5706 0,-2912 -1131,-5628 -3197,-7704l18768 -22102zm4716 165969l0 0c1180,0 2361,-211 3462,-613l51269 70555c-1917,690 -3549,1960 -4678,3649l-45144 -32443c888,-1630 1356,-3441 1356,-5262 0,-5236 -3656,-9694 -8761,-10768l2496 -25118zm3817 42787l0 0 45288 32546c-469,1160 -707,2356 -707,3564 0,5261 4284,9543 9548,9543 2957,0 5725,-1372 7536,-3704l22397 30824c-86,67 -173,139 -250,219 -1890,1892 -2930,4405 -2930,7072 0,2669 1042,5179 2930,7064 3058,3047 7767,3756 11599,1799l16546 25738c-201,184 -380,360 -546,536l-113326 -113321c707,-543 1350,-1173 1915,-1880zm97949 87126l0 0c1039,-1044 1815,-2307 2314,-3758l14794 4792c717,372 1479,623 2186,727l72336 23494c-94,451 -136,848 -136,1250 0,179 7,365 25,556l-59066 7317c-583,-5578 -5288,-9877 -10927,-9877 -2111,0 -4165,622 -5968,1806l-16436 -25563c302,-228 597,-466 878,-744zm32498 36360l0 0 59430 -7367c675,1898 2089,3448 3934,4291l886 206c726,162 1453,325 2185,472l97 7c2426,-10 4658,-1201 6045,-3205l33344 12545c456,1751 1292,3244 2496,4447 3383,3376 8637,3880 12584,1233l35936 13537c-52,171 -102,344 -147,523l-157100 -24878c154,-605 255,-1205 310,-1811zm125213 2230l0 0 69729 -22657 35626 -3188c166,1265 566,2466 1171,3523l-56662 41177c-2049,-1949 -4713,-3016 -7548,-3016 -3895,0 -7477,2071 -9461,5440l-33200 -15799c615,-1746 734,-3659 345,-5480zm107704 -20745l0 0c1816,2034 4369,3193 7075,3193 5259,0 9540,-4284 9540,-9546 0,-1694 -454,-3346 -1314,-4804l10423 -7646c27,30 55,60 84,90 1888,1890 4396,2932 7068,2932 0,0 2,0 2,0 2672,-3 5177,-1042 7060,-2932 2066,-2059 3096,-4882 2865,-7807l40565 -6261c263,720 603,1412 1012,2062l-140880 71783 56500 -41064zm98971 -77918l0 0c0,-3455 -1933,-6675 -4966,-8339l27222 -51693 -25476 90556c-675,-136 -1352,-203 -2022,-203 -54,0 -109,2 -161,7l-2183 -21015c4423,-923 7586,-4768 7586,-9313zm54741 -153518l0 0c0,-3627 -2048,-6919 -5263,-8531l389 -690 3 -478c0,-236 -3,-472 -8,-710 -5,-230 -10,-461 -10,-692l0 -1850 -2143 3783c-501,-139 -1010,-236 -1518,-291l0 -119284c300,-25 590,-62 868,-106l24856 156939c-1099,275 -2173,739 -3198,1384l-17034 -22531c1950,-1816 3058,-4321 3058,-6943z"/>
    <path class="fil4" d="M863307 669975c0,21521 -17446,38967 -38968,38967 -21521,0 -38967,-17446 -38967,-38967 0,-21522 17446,-38970 38967,-38970 21522,0 38968,17448 38968,38970z"/>
    <path class="fil5" d="M833545 649991l-18413 0c-2436,0 -4404,1940 -4404,4336l0 31293c0,2399 1968,4338 4404,4338l18413 0c2433,0 4405,-1939 4405,-4338l0 -31293c0,-2396 -1972,-4336 -4405,-4336zm-9206 36046l0 0c-1359,0 -2458,-1082 -2458,-2424 0,-1337 1099,-2418 2458,-2418 1357,0 2459,1081 2459,2418 0,1342 -1102,2424 -2459,2424zm9809 -7241l0 0 -19622 0 0 -24833 19622 0 0 24833z"/>
    <path class="fil4" d="M982579 565835c0,21521 -17446,38970 -38968,38970 -21521,0 -38970,-17449 -38970,-38970 0,-21522 17449,-38968 38970,-38968 21522,0 38968,17446 38968,38968z"/>
    <g>
     <path class="fil5" d="M934031 576050c40,-37 79,-67 122,-99 27,-23 54,-43 84,-62 2458,-2573 6001,-4138 9888,-4093l0 -8c52,0 106,5 158,3 55,2 105,-3 159,-3l0 8c3887,-45 7427,1520 9888,4093 27,19 54,39 82,62 42,32 81,62 124,99 836,729 1024,1813 419,2421l-1843 1863c-603,608 -1769,511 -2605,-216 -20,-20 -40,-40 -62,-60l-5 5c-20,-24 -42,-47 -64,-71 -70,-85 -142,-172 -219,-249 -1396,-1520 -3455,-2445 -5715,-2398l0 17c-42,-5 -82,-15 -124,-17 -12,0 -22,0 -35,0 -12,0 -22,0 -32,0 -45,2 -84,12 -126,17l0 -17c-2263,-47 -4322,878 -5718,2398 -75,77 -146,164 -218,249 -20,24 -43,47 -62,71l-5 -5c-25,20 -43,40 -62,60 -836,727 -2005,824 -2608,216l-1840 -1863c-605,-608 -417,-1692 419,-2421z"/>
     <path class="fil5" d="M916545 555248c55,-60 112,-119 174,-174 77,-69 161,-127 246,-184 7139,-6434 16816,-10242 27318,-9959 10501,-283 20180,3525 27317,9959 86,57 171,115 245,184 62,55 122,114 176,174 668,731 700,1788 33,2460l-2206 2223c-645,647 -1719,714 -2540,198l-5 5c-15,-12 -32,-27 -47,-39 -74,-52 -149,-104 -221,-169 -101,-84 -186,-179 -263,-275 -5851,-5227 -13757,-8313 -22330,-8070l0 3c-52,-3 -104,0 -159,-3 -52,3 -106,0 -158,3l0 -3c-8573,-243 -16481,2843 -22331,8070 -77,96 -163,191 -263,275 -72,65 -146,117 -220,169 -18,12 -35,27 -50,39l-5 -5c-819,516 -1895,449 -2540,-198l-2203 -2223c-667,-672 -635,-1729 32,-2460z"/>
     <path class="fil5" d="M926093 565882c82,-67 169,-132 261,-191 4571,-4371 10882,-7028 17771,-6995l0 -3c52,0 106,3 158,3 55,0 107,-3 159,-3l0 3c6889,-33 13197,2624 17771,6995 92,59 179,124 263,191 32,32 65,64 99,97 742,729 836,1803 194,2450l-2057 2077c-625,632 -1731,640 -2555,47 -59,-45 -119,-89 -176,-137 -149,-131 -275,-277 -377,-431 -3435,-3242 -8168,-5182 -13321,-5105 -5154,-77 -9885,1863 -13320,5105 -102,154 -231,300 -380,431 -54,48 -114,92 -176,137 -821,593 -1927,585 -2553,-47l-2056 -2077c-642,-647 -548,-1721 194,-2450 34,-33 66,-65 101,-97z"/>
     <path class="fil5" d="M944283 583670c2516,0 4557,2009 4557,4488 0,2478 -2041,4487 -4557,4487 -2515,0 -4554,-2009 -4554,-4487 0,-2479 2039,-4488 4554,-4488z"/>
    </g>
    <path class="fil4" d="M743383 544574c0,21521 -17446,38967 -38968,38967 -21521,0 -38970,-17446 -38970,-38967 0,-21522 17449,-38968 38970,-38968 21522,0 38968,17446 38968,38968z"/>
    <path class="fil5" d="M685131 555491c0,0 295,739 1704,201l3853 -1025c0,0 1116,-335 2304,702 0,0 1655,1109 1533,2027l-1074 5358c0,0 -347,900 700,1488l4311 1613c0,0 1198,114 1518,-856l1878 -3376c0,0 620,-1476 2632,-1377 0,0 2031,-179 2743,896l2461 4035c0,0 444,1027 1766,417l3820 -1605c0,0 1069,-694 745,-1637l-1194 -4078c0,0 -530,-1101 583,-2322 0,0 1189,-1930 2833,-1543l4572 1072c0,0 945,409 1771,-908l1471 -3612c0,0 454,-1297 -831,-1860l-3783 -2161c0,0 -1054,-474 -995,-2359 0,0 -287,-2121 1067,-2848l3711 -2235c0,0 1218,-538 700,-1803l-1578 -3517c0,0 -514,-1375 -2019,-933l-4312 1354c0,0 -1488,-20 -2408,-1009 0,0 -1536,-1459 -1064,-2707l994 -4237c0,0 256,-1240 -694,-1691l-4463 -1665c0,0 -960,-59 -1258,670l-2505 4418c0,0 -1171,962 -2788,642 0,0 -1682,-156 -2074,-555 0,0 -2540,-4220 -2662,-4438 0,0 -471,-960 -1453,-576l-4086 1690c0,0 -821,506 -615,1230l1451 5378c0,0 -307,1315 -1252,2034 0,0 -1665,1213 -2469,1067l-4457 -1067c0,0 -1293,-456 -1801,648l-1670 4048c0,0 -320,836 564,1354l4380 2473c0,0 1394,630 985,3039 0,0 84,1769 -1689,2731 -1774,960 -3299,1928 -3299,1928 0,0 -978,461 -556,1500 422,1037 1999,3987 1999,3987zm11555 -7673l0 0c-1843,-4251 164,-9173 4480,-10986 4316,-1819 9309,161 11153,4415 1840,4252 -167,9171 -4483,10987 -4319,1816 -9312,-164 -11150,-4416z"/>
    <path class="fil4" d="M836001 473946c0,21522 -17446,38968 -38968,38968 -21521,0 -38967,-17446 -38967,-38968 0,-21521 17446,-38967 38967,-38967 21522,0 38968,17446 38968,38967z"/>
    <path class="fil5" d="M819091 453896l-40040 0c-1930,0 -3500,1543 -3500,3445l0 26808c0,1900 1570,3443 3500,3443l15685 0 0 3255 -14015 0c-1054,0 -1915,860 -1915,1912 0,1054 861,1915 1915,1915l37228 0c1052,0 1915,-861 1915,-1915 0,-1052 -863,-1912 -1915,-1912l-12762 0 0 -3255 13904 0c1929,0 3495,-1543 3495,-3443l0 -26808c0,-1902 -1566,-3445 -3495,-3445zm-722 25795l0 0c0,1677 -1372,3047 -3046,3047l-32509 0c-1676,0 -3046,-1370 -3046,-3047l0 -17882c0,-1677 1370,-3046 3046,-3046l32509 0c1674,0 3046,1369 3046,3046l0 17882z"/>
    <path class="fil4" d="M1244296 364513c0,21524 -17446,38970 -38968,38970 -21521,0 -38970,-17446 -38970,-38970 0,-21522 17449,-38968 38970,-38968 21522,0 38968,17446 38968,38968z"/>
    <g>
     <path class="fil5" d="M1204083 384598l0 -16188c0,-2114 -1739,-3830 -3882,-3830 -2146,0 -3885,1716 -3885,3830l0 16188 7767 0z"/>
     <path class="fil5" d="M1214343 384598l0 -26473c0,-2113 -1737,-3827 -3885,-3827 -2146,0 -3885,1714 -3885,3827l0 26473 7770 0z"/>
     <path class="fil5" d="M1224602 384598l0 -36336c0,-2116 -1736,-3832 -3879,-3832 -2146,0 -3890,1716 -3890,3832l0 36336 7769 0z"/>
     <path class="fil5" d="M1193823 384598l0 -6256c0,-2114 -1739,-3828 -3882,-3828 -2146,0 -3889,1714 -3889,3828l0 6256 7771 0z"/>
    </g>
    <path class="fil4" d="M1116399 485893c0,21521 -17446,38967 -38968,38967 -21521,0 -38970,-17446 -38970,-38967 0,-21522 17449,-38968 38970,-38968 21522,0 38968,17446 38968,38968z"/>
    <path class="fil5" d="M1093416 482695c0,-7062 -5727,-12787 -12787,-12787 -4790,0 -8967,2634 -11153,6531 -531,-87 -1079,-136 -1634,-136 -4329,0 -7995,2865 -9184,6812 -3936,1205 -6801,4857 -6801,9170 0,5299 4274,9593 9619,9593l31908 0c5314,0 9622,-4309 9622,-9593 0,-5281 -4259,-9575 -9590,-9590zm-15985 15985l0 0 -9589 -12787 6392 0 0 -9590 6395 0 0 9590 6392 0 -9590 12787z"/>
    <path class="fil4" d="M1135780 662417c0,21521 -17446,38967 -38968,38967 -21521,0 -38970,-17446 -38970,-38967 0,-21522 17449,-38968 38970,-38968 21522,0 38968,17446 38968,38968z"/>
    <path class="fil5" d="M1109186 669841c-1702,0 -3265,578 -4515,1540l-12917 -7749c65,-397 107,-801 107,-1215 0,-417 -42,-819 -107,-1216l12917 -7749c1250,962 2813,1540 4515,1540 4100,0 7424,-3324 7424,-7424 0,-4101 -3324,-7425 -7424,-7425 -4101,0 -7425,3324 -7425,7425 0,414 42,818 109,1215l-12919 7750c-1250,-963 -2813,-1541 -4514,-1541 -4098,0 -7425,3324 -7425,7425 0,4097 3327,7424 7425,7424 1701,0 3264,-578 4514,-1541l12919 7750c-67,397 -109,801 -109,1215 0,4101 3324,7425 7425,7425 4100,0 7424,-3324 7424,-7425 0,-4100 -3324,-7424 -7424,-7424z"/>
    <path class="fil4" d="M976943 350398c0,21522 -17446,38970 -38968,38970 -21521,0 -38970,-17448 -38970,-38970 0,-21521 17449,-38967 38970,-38967 21522,0 38968,17446 38968,38967z"/>
    <g>
     <path class="fil5" d="M941265 330717c-650,6338 -2846,11121 -4193,16761 -5100,-2133 -11916,-3063 -17957,-1195 1221,-5371 2950,-10228 4193,-15566 4445,-3641 13087,-2334 17957,0z"/>
     <path class="fil5" d="M944254 333706c4574,2677 12097,2957 17964,1206 -1781,5199 -2860,11100 -4792,16161 -4924,2607 -14343,2413 -17955,-1198 1501,-5485 3002,-10960 4783,-16169z"/>
     <path class="fil5" d="M935874 350473c-930,6050 -3321,10639 -4187,16758 -5276,-2426 -12006,-4050 -17957,-1198 754,-6028 2763,-10795 4187,-16158 4612,-2860 13797,-2015 17957,598z"/>
     <path class="fil5" d="M938873 352864c4572,3230 12217,3418 17960,1195 -1697,5294 -3054,10920 -4785,16166 -4634,3148 -13698,2667 -17965,-600 1181,-6003 2736,-11624 4790,-16761z"/>
    </g>
    <path class="fil4" d="M1242855 523950c0,21522 -17446,38968 -38968,38968 -21522,0 -38968,-17446 -38968,-38968 0,-21522 17446,-38970 38968,-38970 21522,0 38968,17448 38968,38970z"/>
    <path class="fil5" d="M1203887 500657c-12864,0 -23293,10429 -23293,23293 0,12862 10429,23293 23293,23293 12862,0 23293,-10431 23293,-23293 0,-12864 -10431,-23293 -23293,-23293zm0 40761l0 0c-9632,0 -17471,-7833 -17471,-17468 0,-9632 7839,-17471 17471,-17471 9632,0 17468,7839 17468,17471 0,9635 -7836,17468 -17468,17468zm14559 -17468l0 0c0,1610 -1305,2912 -2913,2912l-11646 0c-1607,0 -2912,-1302 -2912,-2912l0 -11646c0,-1610 1305,-2913 2912,-2913 1607,0 2912,1303 2912,2913l0 8734 8734 0c1608,0 2913,1302 2913,2912z"/>
    <path class="fil4" d="M1071572 251941c0,21522 -17446,38968 -38967,38968 -21524,0 -38970,-17446 -38970,-38968 0,-21522 17446,-38970 38970,-38970 21521,0 38967,17448 38967,38970z"/>
    <path class="fil5" d="M1045730 238528c-2558,0 -4632,2077 -4632,4639 0,2553 2074,4629 4632,4629 2560,0 4641,-2076 4641,-4629 0,-2557 -2089,-4639 -4641,-4639zm-26250 0l0 0c-2558,0 -4641,2077 -4641,4639 0,2553 2083,4629 4641,4629 2550,0 4631,-2076 4631,-4629 0,-2557 -2081,-4639 -4631,-4639zm13120 -9265l0 0c-3778,0 -6854,3074 -6854,6854 0,3781 3073,6859 6854,6859 3780,0 6854,-3078 6854,-6859 5,-3780 -3074,-6854 -6854,-6854zm20537 41074l0 0 -8095 0 0 -14792c0,-2034 -533,-3926 -1406,-5621 665,-198 1359,-337 2086,-337 4086,0 7415,3321 7415,7409l0 13341zm-32982 -14792l0 0 0 14792 -8085 0 0 -13341c0,-4085 3324,-7409 7412,-7409 730,0 1419,139 2079,337 -868,1695 -1406,3587 -1406,5621zm1696 19071l0 0 21495 0 0 -19071c0,-5926 -4825,-10748 -10746,-10748 -5931,0 -10749,4822 -10749,10748l0 19071z"/>
    <path class="fil4" d="M792580 263528c0,21521 -17446,38970 -38967,38970 -21522,0 -38968,-17449 -38968,-38970 0,-21522 17446,-38968 38968,-38968 21521,0 38967,17446 38967,38968z"/>
    <g>
     <path class="fil5" d="M776467 256867l0 -1587c0,-2987 -2459,-5415 -5480,-5415l-38953 0c-3021,0 -5482,2428 -5482,5415l0 16496c0,2986 2461,5417 5482,5417l38953 0c3021,0 5480,-2431 5480,-5417l0 -2136c2421,-573 4207,-2726 4207,-5246l0 -2283c0,-2522 -1786,-4673 -4207,-5244zm-6934 17144l0 0 -36239 0c-2135,124 -3316,-881 -3195,-3374l0 -13889c40,-2304 846,-3418 3195,-3376l36239 0c2459,-42 3213,1124 3193,3376l0 13889c181,2545 -1054,3287 -3193,3374z"/>
     <polygon class="fil5" points="740501,272426 745903,272426 745903,254960 740501,254960 "/>
     <polygon class="fil5" points="754012,254960 748607,254960 748607,272426 754012,272426 "/>
     <path class="fil5" d="M737799 254960l-2748 0c-2141,-35 -2870,905 -2905,2858l0 11753c-117,2108 962,2956 2905,2855l2748 0 0 -17466z"/>
    </g>
    <path class="fil4" d="M971106 170211c0,21521 -17446,38967 -38968,38967 -21521,0 -38970,-17446 -38970,-38967 0,-21522 17449,-38970 38970,-38970 21522,0 38968,17448 38968,38970z"/>
    <path class="fil5" d="M952375 184856l10 -26198c-5,-803 -660,-1456 -1461,-1456l-18478 0c-571,-15 -1015,-1064 -1015,-1466l0 -166c0,-853 -697,-1558 -1555,-1558l-9833 0c-856,0 -1553,702 -1553,1558l0 166c0,410 -449,1474 -1032,1474l15 0c-794,10 -1439,657 -1439,1456l5 7583 -3143 0c0,0 -1391,-74 -900,1583l3317 17024c0,858 597,1550 1453,1550l34892 0c856,0 717,-1550 717,-1550zm-1791 -16414l0 0 -17 17099 -3299 -18329c-278,-1005 -1417,-938 -1417,-938l-28016 0 0 -5817 32749 0 0 7985 0 0z"/>
   </g>
  </g>
 </g>
</svg>
