<?xml version="1.0" encoding="UTF-8"?>
<!DOCTYPE svg PUBLIC "-//W3C//DTD SVG 1.1//EN" "http://www.w3.org/Graphics/SVG/1.1/DTD/svg11.dtd">
<!-- Creator: CorelDRAW X7 -->
<svg xmlns="http://www.w3.org/2000/svg" xml:space="preserve" width="5263px" height="1137px" version="1.1" style="shape-rendering:geometricPrecision; text-rendering:geometricPrecision; image-rendering:optimizeQuality; fill-rule:evenodd; clip-rule:evenodd"
viewBox="0 0 8967450 1938319"
 xmlns:xlink="http://www.w3.org/1999/xlink">
 <defs>
  <style type="text/css">
   <![CDATA[
    .str0 {stroke:#B23336;stroke-width:4792.07}
    .fil1 {fill:#011A85}
    .fil0 {fill:#9E0001}
   ]]>
  </style>
 </defs>
 <g id="Layer_x0020_1">
  <metadata id="CorelCorpID_0Corel-Layer"/>
  <g id="_623285428672">
   <path class="fil0 str0" d="M1267371 1779357c19172,-11993 59348,-176477 66668,-200262l358455 -1212402c15974,-52415 51053,-151078 57781,-200351l-344281 -42 -377694 559973 -58788 -554616 -331342 -5611 -474837 1613036 326567 275c15352,-8565 7769,-26 15467,-22535 52145,-152419 233350,-818075 259973,-867663l71775 493278c15883,-15157 32711,-42247 44529,-58819 15548,-21813 30320,-40712 45077,-61392 29706,-41629 58028,-78832 90154,-122802 30453,-41694 156449,-221705 183407,-244446l-260410 884381 327491 0 8 -2z"/>
   <path class="fil0 str0" d="M5936817 166247l-322266 1109 -183918 610217 -11919 -611167 -285252 -302 -473936 1613229 315164 26c12792,-58392 178349,-611205 192481,-629745l28151 625889c29487,10065 222973,3856 268769,3579l472722 -1612835 4 0z"/>
   <path class="fil0 str0" d="M4062089 166304l-330900 -320 -473950 1613373 332039 -251 202855 -680855 167193 640 -198376 680321 323399 145c15221,-3963 13925,-18856 22497,-47530l222873 -756956c56110,-202802 122381,-403425 178041,-604781 14535,-52606 52686,-155552 57235,-203809l-329783 558c-53210,153672 -116230,397363 -169458,570856 -29181,95123 9945,74324 -190131,73531l186464 -644922 2 0z"/>
   <path class="fil0 str0" d="M2194830 540188c-11031,111123 -41007,245730 -60801,358240l-46397 267836c-17957,103683 15686,80870 -178937,78060l286133 -704136 2 0zm339913 -373888l-474288 -228 -706388 1613146 339315 139c20680,-11460 26876,-48285 35963,-71305 19704,-49911 77052,-185828 84982,-219345l221522 127 -46925 290523 328894 -64 216923 -1612995 2 2z"/>
   <path class="fil0 str0" d="M3160154 728753c28172,1244 174098,-37290 211553,-46216 127381,-30359 101690,2119 137716,-117681 16937,-56317 111888,-366254 115644,-398345 -144505,-2232 -290648,-213 -435338,-213 -137809,0 -294647,-24033 -360607,74863 -40637,60927 -81958,242590 -108694,327938 -67370,215114 -130587,452548 -197521,670471 -63937,208193 -214230,536964 150281,539805 141456,1107 290491,3573 430465,-811l117632 -304977 -329777 -489c-35837,98 -71209,4534 -86807,-18366 -17653,-29748 56454,-250021 69971,-294604 28723,-94739 54543,-188880 83681,-283831 29628,-96558 56487,-190987 85046,-287881 40295,-136740 17725,-185516 203314,-160722l-86557 301059 -2 0z"/>
   <path class="fil0 str0" d="M8806019 166750l-549410 1107c-86078,8139 -131086,53152 -157949,118935 -20555,50329 -171848,576781 -189527,641078 -74443,270731 221874,172004 331770,198055 5724,29805 -67449,271661 -83538,311265 -19863,48913 -87185,35889 -159079,35881 -66449,0 -132897,0 -198205,341l-89707 305879c179780,743 370338,5643 549021,-38 88330,-2812 141790,-39277 163117,-114442l124671 -423792c19120,-67612 45775,-142210 60763,-210565 52411,-239000 -183155,-198528 -333859,-198528l91659 -320509c23196,-72662 76102,-54429 154401,-54429 65654,0 135683,2318 201305,-447l84569 -289795 -2 4z"/>
   <path class="fil0 str0" d="M7172575 166300c-92190,0 -184387,0 -276585,0 -192611,0 -369521,-40656 -430904,121737 -28221,74651 -165746,555826 -189383,641123 -72162,260433 202491,177695 332040,195632 3939,22592 -70742,285675 -84182,313310 -23423,48158 -100199,34975 -160075,34969 -65718,0 -131922,-787 -196344,610l-89777 304141 547226 1459c84178,-2238 140481,-33390 164073,-113211l124858 -423726c36744,-133796 138905,-341777 -15182,-398050 -62073,-22666 -183823,-9339 -257234,-13088 20479,-95485 61516,-222251 91317,-318348 10331,-33321 17309,-49484 52095,-54641l303674 -1064 84379 -290855 4 2z"/>
   <polygon class="fil0 str0" points="8041888,166300 7263558,166128 7178581,456945 7407324,457915 7015886,1779369 7347913,1778854 7730534,456992 7957766,457185 "/>
   <path class="fil0 str0" d="M5910852 1779357c19233,-11043 59789,-177167 66839,-200150 20737,-67543 40543,-132984 59423,-201615 74631,-271244 163017,-535339 237366,-806253 19641,-71561 112461,-364568 116712,-405039l-341436 -113 -473898 1613122 334996 50 -2 -2z"/>
   <polygon class="fil0 str0" points="5020612,166304 4678646,165969 4204823,1779357 4547729,1779088 "/>
  </g>
  <g id="_623285433760">
   <path class="fil1" d="M7881135 1299315l-186375 0c829,-37268 23411,-73199 26623,-111828l16264 26336c4569,7509 10856,16101 17713,24886 40969,52481 142683,44632 216299,44632 -13955,12130 -18031,9294 -40826,12422 -11035,1515 -31101,3554 -49698,3554l0 -2zm-1613500 0c6348,-23775 2000,-15974 69222,-15974 -12691,17327 -2705,8099 -30654,11941 -13372,1837 -20672,4033 -38568,4033zm-3088557 0l-133129 0c781,-34877 101368,-342272 117153,-410031 164048,0 141236,-19957 109978,88677 -7235,25113 -13114,42774 -19474,65730l-74530 255624 2 0zm3929916 -591085c-78951,-52868 -62842,-47925 -207677,-47925 3655,-43875 34277,-42957 95813,-42635 46148,245 92344,38 138489,38 -4969,21340 -18566,73731 -26623,90524l-2 -2zm-4791176 1071063l-328894 64 46925 -290523 -221522 -127c-7930,33519 -65278,169434 -84982,219345 -9089,23020 -15283,59845 -35963,71305l-339315 -139 706388 -1613146 474288 228 -216923 1612995 -2 -2zm5639948 -1322108l-227232 -193 -382621 1321862 -332027 515 391438 -1321454 -228743 -970 84977 -290817 778328 172 -84122 290885 2 0zm-2046914 1322172l-334996 -50 473898 -1613122 341436 113c-4251,40473 -97069,333480 -116712,405039 -74349,270914 -162733,535009 -237366,806253 -18880,68631 -38684,134074 -59423,201615 -7050,22983 -47606,189107 -66839,200150l2 2zm1177346 -1322202l-303674 1064c-34786,5157 -41764,21320 -52095,54641 -29801,96095 -70838,222861 -91317,318348 73411,3749 195161,-9578 257234,13088 154085,56273 51926,264254 15182,398050l-124858 423726c-23592,79821 -79897,110973 -164073,113211l-547226 -1459 89777 -304141c64422,-1397 130626,-610 196344,-610 59876,8 136652,13191 160075,-34969 13440,-27635 88121,-290718 84182,-313310 -129549,-17937 -404202,64801 -332040,-195632 23639,-85299 161162,-566474 189383,-641123 61385,-162393 238293,-121737 430904,-121737 92196,0 184395,0 276585,0l-84379 290855 -4 -2zm-1624105 1321925c-45796,275 -239282,6484 -268769,-3579l-28151 -625889c-14132,18540 -179689,571353 -192481,629745l-315164 -26 473936 -1613229 285252 302 11919 611167 183918 -610217 322266 -1109 -472722 1612835 -4 0zm-916364 8l-342906 269 473823 -1613388 341966 335 -472881 1612784 -2 0zm-672104 -967862c200074,793 160948,21590 190131,-73531 53228,-173493 116250,-417186 169458,-570856l329783 -558c-4549,48259 -42700,151203 -57235,203809 -55662,201356 -121933,401979 -178041,604781l-222873 756956c-8572,28674 -7278,43567 -22497,47530l-323399 -145 198376 -680321 -167193 -640 -202855 680855 -332039 251 473950 -1613373 330900 320 -186464 644922 -2 0zm4845825 -354681c-65624,2765 -135651,447 -201305,447 -78297,0 -131205,-18233 -154401,54429l-91659 320509c150702,0 386268,-40470 333859,198528 -14986,68355 -41643,142953 -60763,210565l-124671 423792c-21327,75165 -74787,111630 -163117,114442 -178683,5681 -369241,781 -549021,38l89707 -305879c65310,-341 131758,-341 198205,-341 71894,8 139218,13032 159079,-35881 16089,-39604 89260,-281460 83538,-311265 -109896,-26051 -406213,72676 -331770,-198055 17679,-64297 168972,-590749 189527,-641078 26863,-65783 71869,-110796 157949,-118935l549410 -1107 -84569 289795 2 -4zm-5561296 272208l86557 -301059c-185589,-24794 -163017,23982 -203314,160722 -28559,96896 -55418,191325 -85046,287881 -29138,94951 -54959,189092 -83681,283831 -13517,44583 -87626,264856 -69971,294604 15600,22900 50970,18464 86807,18366l329777 489 -117632 304977c-139974,4384 -289009,1918 -430465,811 -364513,-2841 -214220,-331612 -150281,-539805 66934,-217923 130151,-455357 197521,-670471 26738,-85348 68059,-267011 108694,-327938 65960,-98894 222800,-74863 360607,-74863 144690,0 290831,-2019 435338,213 -3754,32089 -98705,342026 -115644,398345 -36026,119800 -10335,87322 -137716,117681 -37453,8924 -183381,47460 -211553,46216l2 0zm-1892783 1050604l-327491 0 260410 -884381c-26957,22741 -152954,202752 -183407,244446 -32128,43970 -60449,81173 -90154,122802 -14754,20680 -29529,39581 -45077,61392 -11818,16574 -28647,43662 -44529,58819l-71775 -493278c-26623,49588 -207828,715244 -259973,867663 -7698,22509 -113,13970 -15467,22535l-326567 -275 474838 -1613036 331341 5611 58789 554616 377694 -559973 344280 42c-6728,49273 -41806,147936 -57781,200351l-358455 1212402c-7320,23787 -47498,188269 -66668,200262l-8 2zm-1267371 -165867l0 324827 665639 0c769,-34507 109342,-364224 111828,-394053l10648 0c-2499,30018 -15978,42505 -15978,79875l0 314180 6061908 -3637c10439,-1302 2451,-16655 8699,3637l665630 0 26631 -90526 0 90526 925729 -837c33106,-6880 99104,-49964 118757,-110218 45160,-138445 103592,-348769 145256,-493752 15781,-54915 51000,-149056 51000,-209924l0 -330153c0,-49561 -39359,-95099 -72579,-113794 -43204,-24323 -107400,-19336 -172370,-19336 4667,-56126 89147,-42599 149099,-42599 63901,0 127800,0 191703,0 30504,-45556 67725,-223742 88757,-268026 7365,-15509 1371,7606 6225,-15068l868 -334612 -6182432 0c-27628,0 -61214,16751 -79876,26623l0 -26623 -1459073 0c-15320,0 -34541,38500 -50058,61770l-45796 66032c-2765,-33283 -8917,-97532 -15974,-127802l-665631 0c-20842,89461 -87782,293240 -117173,399364 -37485,135349 -79996,266911 -118248,403601l-207188 703401c-8334,28642 -25999,73204 -25999,107129l-2 -5z"/>
   <path class="fil1" d="M1908695 1244326c194623,2812 160980,25623 178937,-78060l46397 -267836c19794,-112510 49768,-247117 60801,-358240l-286133 704136 -2 0z"/>
  </g>
 </g>
</svg>
