<?xml version="1.0" encoding="utf-8"?>
<!-- Generator: Adobe Illustrator 19.0.0, SVG Export Plug-In . SVG Version: 6.00 Build 0)  -->
<svg version="1.1" id="Capa_1" xmlns="http://www.w3.org/2000/svg" xmlns:xlink="http://www.w3.org/1999/xlink" x="0px" y="0px"
	 viewBox="-380 181.5 198.5 198.5" style="enable-background:new -380 181.5 198.5 198.5;" xml:space="preserve">
<style type="text/css">
	.st0{fill:#757575;}
	.st1{enable-background:new    ;}
	.st2{fill:#884032;}
	.st3{fill:#333333;}
	.st4{fill:#A64835;}
</style>
<path class="st0" d="M-196.4,336.6h-160.7c-0.9,0-1.7-0.7-1.7-1.7v-29.4c0-0.9,0.7-1.7,1.7-1.7h30.6l23.8-45.6
	c2.9-5.6,8.6-9.1,14.9-9.1h22.1c6.3,0,12,3.5,14.9,9.1l0,0l23.8,45.6h30.6c0.9,0,1.7,0.7,1.7,1.7v29.4
	C-194.7,335.8-195.5,336.6-196.4,336.6z M-355.5,333.3H-198v-26.1h-157.4v26.1H-355.5z M-243.1,303.8h12.4l-23-44
	c-2.3-4.5-6.9-7.3-12-7.3h-22.1c-5.1,0-9.7,2.8-12,7.3l-23,44h12.4l11.9-24.2c0.3-0.7,1.1-1.1,1.9-0.9c0.7,0.2,1.3,0.8,1.3,1.6v23.4
	h37.2v-23.3c0-0.8,0.5-1.4,1.3-1.6c0.7-0.2,1.5,0.2,1.9,0.9L-243.1,303.8z M-254.8,303.8h8.1l-8.1-16.3V303.8z M-306.7,303.8h8.1
	v-16.3L-306.7,303.8z M-212.4,329.6c-5.2,0-9.4-4.2-9.4-9.4c0-5.2,4.2-9.4,9.4-9.4s9.4,4.2,9.4,9.4S-207.3,329.6-212.4,329.6z
	 M-212.4,314.1c-3.4,0-6.1,2.7-6.1,6.1s2.7,6.1,6.1,6.1c3.4,0,6.1-2.7,6.1-6.1C-206.3,316.8-209.1,314.1-212.4,314.1z M-238.2,329.6
	c-5.2,0-9.4-4.2-9.4-9.4c0-5.2,4.2-9.4,9.4-9.4s9.4,4.2,9.4,9.4S-233,329.6-238.2,329.6z M-238.2,314.1c-3.4,0-6.1,2.7-6.1,6.1
	s2.7,6.1,6.1,6.1c3.4,0,6.1-2.7,6.1-6.1C-232.1,316.8-234.8,314.1-238.2,314.1z M-263.9,329.6c-5.2,0-9.4-4.2-9.4-9.4
	c0-5.2,4.2-9.4,9.4-9.4s9.4,4.2,9.4,9.4S-258.7,329.6-263.9,329.6z M-263.9,314.1c-3.4,0-6.1,2.7-6.1,6.1s2.7,6.1,6.1,6.1
	s6.1-2.7,6.1-6.1C-257.8,316.8-260.5,314.1-263.9,314.1z M-289.6,329.6c-5.2,0-9.4-4.2-9.4-9.4c0-5.2,4.2-9.4,9.4-9.4
	c5.2,0,9.4,4.2,9.4,9.4S-284.4,329.6-289.6,329.6z M-289.6,314.1c-3.4,0-6.1,2.7-6.1,6.1s2.7,6.1,6.1,6.1s6.1-2.7,6.1-6.1
	C-283.5,316.8-286.3,314.1-289.6,314.1z M-315.3,329.6c-5.2,0-9.4-4.2-9.4-9.4c0-5.2,4.2-9.4,9.4-9.4c5.2,0,9.4,4.2,9.4,9.4
	S-310.2,329.6-315.3,329.6z M-315.3,314.1c-3.4,0-6.1,2.7-6.1,6.1s2.7,6.1,6.1,6.1s6.1-2.7,6.1-6.1
	C-309.2,316.8-312,314.1-315.3,314.1z M-341.1,329.6c-5.2,0-9.4-4.2-9.4-9.4c0-5.2,4.2-9.4,9.4-9.4c5.2,0,9.4,4.2,9.4,9.4
	S-335.9,329.6-341.1,329.6z M-341.1,314.1c-3.4,0-6.1,2.7-6.1,6.1s2.7,6.1,6.1,6.1s6.1-2.7,6.1-6.1
	C-335,316.8-337.7,314.1-341.1,314.1z M-276.8,247.2c-8.2,0-15.2-4.9-18.4-11.9c-0.6,0.5-1.4,0.7-2.2,0.7h-2.7
	c-2.1,0-3.7-1.7-3.7-3.7v-12.4c0-2.1,1.7-3.7,3.7-3.7h0.2c1.6-4,7.8-16.5,23.1-16.5c15.4,0,21.6,12.5,23.1,16.5h0.2
	c2.1,0,3.7,1.7,3.7,3.7v12.4c0,2.1-1.7,3.7-3.7,3.7h-2.7c-0.8,0-1.6-0.3-2.2-0.7C-261.5,242.3-268.6,247.2-276.8,247.2z
	 M-276.8,210.1c-9.3,0-16.9,7.6-16.9,16.9c0,9.3,7.6,16.9,16.9,16.9s16.9-7.6,16.9-16.9S-267.4,210.1-276.8,210.1z M-256.5,227v5.3
	c0,0.2,0.2,0.4,0.4,0.4h2.7c0.2,0,0.4-0.2,0.4-0.4v-12.4c0-0.2-0.2-0.4-0.4-0.4h-1.3c0,0,0,0-0.1,0h-1.3c-0.2,0-0.4,0.2-0.4,0.4
	C-256.5,219.9-256.5,227-256.5,227z M-300.1,219.5c-0.2,0-0.4,0.2-0.4,0.4v12.4c0,0.2,0.2,0.4,0.4,0.4h2.7c0.2,0,0.4-0.2,0.4-0.4
	v-12.4c0-0.2-0.2-0.4-0.4-0.4h-1.3c0,0,0,0-0.1,0H-300.1z M-296.4,216.4c0.7,0.2,1.3,0.6,1.8,1.1c3.4-6.4,10.1-10.7,17.8-10.7
	s14.4,4.3,17.8,10.7c0.5-0.5,1.1-0.9,1.8-1.1c-1.8-4.2-7.3-13.3-19.6-13.3C-289,203-294.5,212.2-296.4,216.4z"/>
<g class="st1">
	<path class="st2" d="M-298.5,361.8h-3.1l4.6-15.8h3.1L-298.5,361.8z M-292.4,346.2c0.1-0.5-0.1-0.6-0.5-0.6h-5.3l1.7-2.7h6
		c1.4,0,2,0.9,1.6,2.2l-4.9,16.7h-3.1L-292.4,346.2z"/>
	<path class="st2" d="M-291.1,365.1h-2.8l4.9-16.7h2.8L-291.1,365.1z"/>
	<path class="st2" d="M-279.3,348.5l-0.7,2.4h-2.9c-0.3,0-0.4,0.1-0.5,0.4l-2.3,7.8c-0.1,0.4,0.1,0.5,0.4,0.5h0.9l1-3.4h-0.6
		l0.7-2.4h3.2l-2.2,7.5l-3.1,1.6l0.3-1h-1.7c-1.2,0-2.3-0.7-1.8-2.5l2.8-9.6c0.3-1,0.9-1.2,1.8-1.2H-279.3z"/>
	<path class="st2" d="M-274.6,361.8h-2.8l1.7-5.6h-1.4l-2.7,9h-2.8l4.9-16.7h2.8l-1.6,5.3h1.4l1.6-5.3h2.8L-274.6,361.8z"/>
	<path class="st2" d="M-263.4,348.5l-0.7,2.4h-1.9l-4.1,14.3h-2.8l4.2-14.3h-1.9l0.7-2.4H-263.4z"/>
	<path class="st2" d="M-260.2,350.9c-0.2,0-0.4,0.1-0.5,0.4l-0.8,2.7h1.5c1,0,1.6,0.6,1.2,1.9l-1.5,5.2c-0.1,0.5-0.8,0.8-1.3,0.8
		h-4.5l0.8-2.5h2.3c0.5,0,0.6-0.1,0.7-0.5l0.6-2.3c0-0.1,0-0.2-0.1-0.2h-1.5c-1.2,0-1.4-0.6-1.2-1.6l1.5-5.2c0.3-0.9,1-1.1,1.6-1.1
		h4.3l-0.7,2.4H-260.2z"/>
</g>
<circle class="st3" cx="-341.1" cy="320.2" r="4.9"/>
<circle class="st4" cx="-315.3" cy="320.2" r="4.9"/>
<circle class="st3" cx="-289.6" cy="320.2" r="4.9"/>
<circle class="st4" cx="-263.9" cy="320.2" r="4.9"/>
<circle class="st3" cx="-238.2" cy="320.2" r="4.9"/>
<circle class="st4" cx="-212.4" cy="320.2" r="4.9"/>
<circle class="st3" cx="-276.8" cy="227" r="16.9"/>
<rect x="-300.1" y="219.5" class="st4" width="3.2" height="12.8"/>
<rect x="-256.1" y="219.5" class="st4" width="3.2" height="12.8"/>
</svg>
