<?xml version="1.0" encoding="UTF-8"?>
<!DOCTYPE svg PUBLIC "-//W3C//DTD SVG 1.1//EN" "http://www.w3.org/Graphics/SVG/1.1/DTD/svg11.dtd">
<!-- Creator: CorelDRAW X7 -->
<svg xmlns="http://www.w3.org/2000/svg" xml:space="preserve" width="1348px" height="363px" version="1.1" style="shape-rendering:geometricPrecision; text-rendering:geometricPrecision; image-rendering:optimizeQuality; fill-rule:evenodd; clip-rule:evenodd"
viewBox="0 0 1275727 343816"
 xmlns:xlink="http://www.w3.org/1999/xlink">
 <defs>
  <style type="text/css">
   <![CDATA[
    .fil0 {fill:#B23437}
    .fil5 {fill:#CCA4A4}
    .fil3 {fill:#D8BBBA}
    .fil4 {fill:#D8BCBB}
    .fil2 {fill:#FDFDFD}
    .fil1 {fill:#FEFEFE}
   ]]>
  </style>
 </defs>
 <g id="Layer_x0020_1">
  <metadata id="CorelCorpID_0Corel-Layer"/>
  <g id="_532217586160">
   <path class="fil0" d="M447455 205030l1867 -3542 141 4015 4724 109593 46375 0c2689,-1485 2814,-4956 3847,-8422 847,-2847 1767,-5652 2637,-8767l68651 -233205c3135,-10484 8596,-26062 10496,-36684l-57466 371 -32679 108962 -2110 -109319 -49204 0c-2873,678 -2594,3074 -4178,8505l-18492 62892c-13418,44795 -30146,99770 -42346,144037 -6574,23852 -14925,47733 -20945,71617l55967 -18 32715 -110035z"/>
   <path class="fil0" d="M117225 205051l1855 -3556 146 3995 4728 109606 46369 0c2989,-767 11018,-32572 11820,-35480 3316,-12019 7020,-24140 10519,-35833l52800 -179079c3127,-10455 8618,-26119 10492,-36686l-57464 371 -32678 108962 -1639 -109319 -49677 0c-2868,679 -2591,3075 -4176,8507l-39493 134559c-7084,24467 -14606,47886 -21346,72369 -6568,23858 -14898,47716 -20941,71614l55967 -16 32718 -110014z"/>
   <path class="fil0" d="M325928 74617c3838,-1206 12099,-713 16648,-580 13299,390 5767,12072 -1160,35577l-39293 133867c-7153,23671 -2760,24497 -27773,24072 -13942,-237 -5686,-13971 823,-35876l43405 -146842c1955,-6472 1638,-8423 7350,-10218zm89118 -18789c1392,-9559 -3056,-19011 -8225,-22645 -7327,-5151 -15636,-5156 -26432,-5151 -108522,49 -103187,-9177 -123473,64225 -8955,32399 -19184,64239 -28420,96478 -4650,16232 -9265,32191 -14172,48274 -9780,32042 -31843,78160 22235,78094 20818,-26 41637,32 62455,0 47281,-73 48253,-26244 59489,-65432 2726,-9508 55290,-185241 56543,-193843z"/>
   <path class="fil0" d="M1247081 28039l-57655 -7c-3990,2851 -8025,22701 -9708,28509l-17280 58415c-722,2595 -6421,27416 -9916,28240l-28258 -328 33201 -114848 -59112 374 -84233 286712 59161 -244 35714 -120926 30087 284 -35351 120840 59135 -9 84215 -287012z"/>
   <path class="fil0" d="M997551 127236l2130 605 41235 -9565c9490,-2229 8490,-1440 12053,-3092 158,-73 543,-76 654,-384 113,-311 443,-254 928,-323l25266 -86445c-20792,0 -99453,-1083 -116573,278 -13661,1088 -20038,5754 -25387,13471 -6441,9294 -31284,99254 -36687,117563 -5874,19910 -33109,106724 -33245,120736 -239,24537 17945,34830 42356,35022 25544,198 51210,36 76621,-66l20914 -54271c-13263,-89 -26547,-18 -39811,-18 -10314,0 -29041,2644 -34767,-3444 -2552,-4937 24394,-91681 27942,-103267 5242,-17118 9789,-33919 15064,-51199 9586,-31407 2846,-29788 36200,-28620l-14893 53019z"/>
   <path class="fil0" d="M723603 315058l111086 38 19523 -54251 -54283 -98c114,-5470 16417,-55620 19089,-66797l50578 0c2943,-822 15603,-48098 15844,-50777l-50856 0 18134 -63520 53066 -38 15213 -51512 -113169 -71 -84225 287026z"/>
   <path class="fil0" d="M774971 79617c3222,-2104 15204,-45446 16323,-51585l-137441 0c-2831,932 -15260,45913 -16418,51571l40785 282 -69639 235198 57573 13c2675,-1362 2500,-3325 3516,-6914l49287 -170191c5474,-19205 11037,-39781 16982,-58374l39032 0z"/>
  </g>
  <path class="fil1" d="M999231 230881l-23656 0c721,-3095 1865,-5949 2640,-8714 1010,-3611 1601,-5927 2698,-9604l16425 -54542 23657 0c-1962,4088 -18054,65848 -21764,72860zm-584185 -175053c-1253,8602 -53817,184335 -56543,193843 -11236,39188 -12208,65359 -59489,65432 -20818,32 -41637,-26 -62455,0 -54078,66 -32015,-46052 -22235,-78094 4907,-16083 9522,-32042 14172,-48274 9236,-32239 19465,-64079 28420,-96478 20286,-73402 14951,-64176 123473,-64225 10796,-5 19105,0 26432,5151 5169,3634 9617,13086 8225,22645zm584635 72013l-1411 769c-3806,563 1585,268 -1846,46l1127 -1420 14893 -53019c-33354,-1168 -26614,-2787 -36200,28620 -5275,17280 -9822,34081 -15064,51199 -3548,11586 -30494,98330 -27942,103267 5726,6088 24453,3444 34767,3444 13264,0 26548,-71 39811,18l-20914 54271c-25411,102 -51077,264 -76621,66 -24411,-192 -42595,-10485 -42356,-35022 136,-14012 27371,-100826 33245,-120736 5403,-18309 30246,-108269 36687,-117563 5349,-7717 11726,-12383 25387,-13471 17120,-1361 95781,-278 116573,-278l-25266 86445c-485,69 -815,12 -928,323 -111,308 -496,311 -654,384 -3563,1652 -2563,863 -12053,3092l-41235 9565zm-224710 -48224l-39032 0c-5945,18593 -11508,39169 -16982,58374l-49287 170191c-1016,3589 -841,5552 -3516,6914l-57573 -13 69639 -235198 -40785 -282c1158,-5658 13587,-50639 16418,-51571l137441 0c-1119,6139 -13101,49481 -16323,51585zm-325508 125886l-2008 -473 -32715 110035 -55967 18c6020,-23884 14371,-47765 20945,-71617 12200,-44267 28928,-99242 42346,-144037l18492 -62892c1584,-5431 1305,-7827 4178,-8505l49204 0 2110 109319 32679 -108962 57466 -371c-1900,10622 -7361,26200 -10496,36684l-68651 233205c-870,3115 -1790,5920 -2637,8767 -1033,3466 -1158,6937 -3847,8422l-46375 0 -4724 -109593zm-330237 -13l-2001 -439 -32718 110014 -55967 16c6043,-23898 14373,-47756 20941,-71614 6740,-24483 14262,-47902 21346,-72369l39493 -134559c1585,-5432 1308,-7828 4176,-8507l49677 0 1639 109319 32678 -108962 57464 -371c-1874,10567 -7365,26231 -10492,36686l-52800 179079c-3499,11693 -7203,23814 -10519,35833 -802,2908 -8831,34713 -11820,35480l-46369 0 -4728 -109606zm688602 -177458l113169 71 -15213 51512 -53066 38 -18134 63520 50856 0c-241,2679 -12901,49955 -15844,50777l-50578 0c-2672,11177 -18975,61327 -19089,66797l54283 98 -19523 54251 -111086 -38 84225 -287026zm355038 287019l-59135 9 35351 -120840 -30087 -284 -35714 120926 -59161 244 84233 -286712 59112 -374 -33201 114848 28258 328c3495,-824 9194,-25645 9916,-28240l17280 -58415c1683,-5808 5718,-25658 9708,-28509l57655 7 -84215 287012zm-1162866 -30234l0 58666 530841 0 9351 -31336c15393,-52920 32829,-108601 47220,-160954l9663 -31971c1119,-4038 7212,-28878 10412,-31223l0 20818 22709 0c-110,4961 -23304,80893 -25349,88198 -4224,15093 -8608,28710 -13036,43739 -2183,7407 -12712,39433 -12712,44063l0 58666c4342,0 278136,1014 283582,-501l1928 -747c2746,-347 996,-1607 2148,1248l324561 0 72744 -248030c4147,-13390 5996,-21787 10851,-34568 1343,-3538 620,-53513 620,-60885l-651014 0c-3265,0 -2633,2312 -4615,8632 -937,2994 -2701,8190 -2955,11239l-1892 -19871 -531787 0c-3464,14865 -16167,54186 -20815,70970 -3217,11619 -7185,23338 -10415,35005 -9384,33883 -21676,71695 -31429,106721 -2746,9861 -20611,67461 -20611,72121z"/>
  <path class="fil2" d="M325928 74617c-5712,1795 -5395,3746 -7350,10218l-43405 146842c-6509,21905 -14765,35639 -823,35876 25013,425 20620,-401 27773,-24072l39293 -133867c6927,-23505 14459,-35187 1160,-35577 -4549,-133 -12810,-626 -16648,580z"/>
  <polygon class="fil3" points="447455,205030 449463,205503 449322,201488 "/>
  <polygon class="fil4" points="117225,205051 119226,205490 119080,201495 "/>
  <path class="fil5" d="M999681 127841l-2130 -605 -1127 1420c3431,222 -1960,517 1846,-46l1411 -769z"/>
 </g>
</svg>
