<?xml version="1.0" encoding="UTF-8"?>
<!DOCTYPE svg PUBLIC "-//W3C//DTD SVG 1.1//EN" "http://www.w3.org/Graphics/SVG/1.1/DTD/svg11.dtd">
<!-- Creator: CorelDRAW X7 -->
<svg xmlns="http://www.w3.org/2000/svg" xml:space="preserve" width="5159px" height="1136px" version="1.1" style="shape-rendering:geometricPrecision; text-rendering:geometricPrecision; image-rendering:optimizeQuality; fill-rule:evenodd; clip-rule:evenodd"
viewBox="0 0 5315854 1170306"
 xmlns:xlink="http://www.w3.org/1999/xlink">
 <defs>
  <style type="text/css">
   <![CDATA[
    .fil1 {fill:#CC4359}
    .fil3 {fill:#E48842}
    .fil4 {fill:#E7943D}
    .fil2 {fill:#EB9B39}
    .fil0 {fill:#FFD326}
   ]]>
  </style>
 </defs>
 <g id="Layer_x0020_1">
  <metadata id="CorelCorpID_0Corel-Layer"/>
  <g id="_623400356240">
   <g>
    <path class="fil0" d="M2491364 697366l6350 -10298 666 16280 15664 372192 162718 -137 286843 -979850 -191375 0c-8440,2856 -53264,166725 -59241,186718 -18497,61835 -36386,124955 -56302,187269l-6838 -373982 -173546 288 -286954 979687 190563 -91 111451 -378075 1 -1z"/>
    <path class="fil0" d="M4403210 253041c55526,-2160 103507,-9607 94270,36028 -4084,20160 -54773,192050 -61424,202918 -19070,31164 -59883,22472 -110040,22095l77194 -261041zm136288 362600l-8518 -6081 15036 -1620c43181,-121 63591,-35393 73393,-71048l65991 -223941c9446,-32035 25711,-78313 31119,-110284 21069,-124566 -118464,-107115 -183067,-107115 -44029,0 -262848,-2728 -287429,1159l-286901 978828 197616 0c9021,-4728 8504,-11485 11971,-23533l85340 -291308c6520,-21280 22277,-86759 31477,-102157 26925,-1634 62425,-3053 85045,3819 9191,26083 -11078,75708 -19973,104750 -27582,90065 -68322,222978 -90174,308368l202853 61c15946,-69003 79229,-270845 103253,-353231 10275,-35230 17896,-94338 -27032,-106667z"/>
    <path class="fil0" d="M464705 514234c3636,-30218 28206,-100434 38177,-133679 6720,-22406 12550,-44228 19550,-67323 4043,-13332 10527,-60470 25133,-60470 84006,0 100225,-6815 82191,55222 -64588,222217 -37648,208580 -165052,206248l1 2zm213278 100202l-8823 -4076 15557 -2540c45076,-1625 61888,-35367 72894,-72156 11424,-38201 21414,-74419 32869,-112048l64089 -222173c18665,-122487 -113360,-105891 -178415,-105891 -95518,0 -191039,0 -286559,0 -9488,4894 -5080,-237 -9739,14017l-13032 44893c-5594,20333 -12522,42243 -18094,62344 -11321,40843 -24079,81697 -35759,121958l-144727 492847c-24041,78724 -51133,164372 -71145,243882l202416 -88 123248 -417366c28597,0 71170,-5853 87774,9830 9932,17056 -99096,346762 -111284,407669l196407 0c10436,-5469 15836,-38052 21205,-55989l87314 -295983c14265,-47053 13383,-91201 -26197,-109131l1 1z"/>
    <path class="fil0" d="M2078938 254440c12063,-3525 41318,-2319 55823,-1768 44399,1684 18398,46376 -4065,120182l-134980 460734c-8514,28285 -12044,70383 -38014,77708 -9982,2818 -45505,2246 -58097,1836 -19979,-649 -27491,-7686 -22578,-27441 16353,-65759 61147,-210140 81394,-276265l81321 -276127c14766,-48353 12329,-71007 39196,-78860l0 1zm301051 -57907c6183,-32640 -6663,-64896 -23442,-80176 -21702,-19767 -50266,-20858 -86603,-20809 -70832,98 -141673,4 -212505,4 -77583,0 -128112,3939 -161292,55582 -17737,27601 -41292,120802 -52377,160071 -31237,110645 -63709,221267 -97225,331051 -16820,55093 -31427,109368 -48168,164308 -29389,96468 -110484,268328 66041,269020 70818,278 141700,-95 212525,-34 168368,149 170104,-80333 209767,-218400l193278 -660618 1 1z"/>
    <path class="fil0" d="M1751563 271667c11786,-5841 14413,-29617 17760,-41220l39184 -133743c-23201,-3365 -306535,-2898 -333935,-15 -52099,5477 -79070,31377 -94886,72499 -14435,37538 -26536,89268 -38238,129092 -25529,86869 -52183,172396 -76051,258873 -15508,56199 -9370,98176 40676,114003 35602,11256 139794,-2122 158159,8470 2867,4179 3673,-4804 2441,11126l-10230 35033c-9712,32930 -31389,119083 -40382,139752 -14587,33527 -58002,24434 -99172,24434 -34793,0 -84173,-2849 -117764,585l-54449 184984c108820,0 229147,4875 336533,-213 56522,-2677 81826,-26300 95281,-71771l75290 -256424c12318,-40368 27381,-86489 36640,-127374 31751,-140193 -97456,-120091 -202385,-120091 6031,-31708 19596,-67679 28149,-99380 39355,-145882 30952,-128618 115026,-128618 40786,0 81568,0 122354,0l-1 -2z"/>
    <path class="fil0" d="M5222165 95883c-54499,-2069 -112254,-331 -167110,-331 -262319,0 -232935,-17304 -300321,203184 -25875,84664 -52096,173401 -75753,258919 -52359,189270 196590,84470 201035,128385l-9780 40390c-50545,178077 -27560,163539 -137160,163539 -39591,0 -79187,0 -118782,0l-55936 185570c109469,0 227401,4217 335813,-171 49715,-2017 82873,-23362 96058,-71179 11762,-42672 25008,-84231 37249,-126983 16557,-57823 64463,-210805 74536,-256881 30823,-140965 -98071,-120661 -202317,-120661 7321,-32766 18301,-66208 28063,-98841 42325,-141505 20603,-129157 120858,-129157 40966,0 81956,136 122183,-263l51366 -175523 -2 3z"/>
    <path class="fil0" d="M4181505 95609l-378946 -57c-8894,2589 -17382,44014 -22068,59525l-198217 674506c-17429,58359 -59708,194362 -71909,245956l372690 0c12436,-6263 15698,-30158 20722,-43687 9663,-26035 48254,-127910 49407,-141881l-184718 -221 66261 -227770 176853 294 50282 -173636 -174095 -597 63176 -216339 179154 -878 51408 -175214 0 -1z"/>
    <path class="fil0" d="M1281473 271667c7374,-3765 4141,-1034 8173,-9005l48908 -167061 -379059 -48c-13766,9271 -17209,43596 -21935,59629l-54035 184242c-72545,243019 -141965,496005 -215696,736075l377698 -871c11907,-36417 62718,-158497 63687,-184656l-182927 0c6549,-34611 37326,-129656 50601,-173853l12953 -44942c3996,-8097 932,-5419 8291,-9233l170505 345 50301 -173642 -174142 -700 63212 -216278 173465 0 0 -2z"/>
    <path class="fil0" d="M3739372 95552l-439096 0c-10767,7335 -13329,28889 -17106,41964 -11283,39048 -32058,100171 -39124,134108l202713 1240 -407689 802675 403224 -186 68669 -185314 -168122 -716 396531 -793771z"/>
    <path class="fil0" d="M3238596 95598l-202344 -46c-10367,2628 -16546,39412 -22574,59103 -6457,21099 -11648,40330 -18326,62242l-216216 736816c-10976,39360 -26400,82425 -35162,121773l207979 -286 286643 -979603 0 1z"/>
   </g>
   <g>
    <path class="fil1" d="M4668682 785749l0 -9659 41858 0c-9306,6469 -26452,8377 -41858,9659zm-3583617 0c970,-11629 4012,-15341 6443,-25758 33236,0 81625,-6476 108674,4020 30447,11811 63721,12078 100610,12078 -9572,8320 -4781,4867 -18938,6822 -10283,1419 -14041,2605 -26030,2943l-170758 -105 -1 0zm602099 -389591l-41858 0c5111,-21935 21871,-25757 48301,-25757 -958,11511 -3967,15424 -6443,25757zm2858852 211782c-784,731 -2719,2849 -3175,3404 -372,453 -1281,1597 -1657,2062 -396,490 -1108,1506 -1685,2236 44928,12329 37306,71437 27032,106667 -24023,82386 -87307,284228 -103252,353231l-202854 -60c21852,-85391 62592,-218304 90174,-308369 8896,-29041 29165,-78666 19973,-104750 -22619,-6872 -58119,-5453 -85044,-3819 -9199,15398 -24958,80877 -31477,102157l-85341 291309c-3468,12047 -2951,18805 -11971,23532l-197616 0 286901 -978828c24582,-3886 243399,-1159 287430,-1159 64602,0 204135,-17452 183066,107116 -5408,31971 -21672,78248 -31119,110283l-65991 223941c-9800,35656 -30210,70928 -73393,71049l-1 -2zm-3861299 -120l-6734 6616c39580,17930 40462,62078 26198,109132l-87314 295982c-5370,17937 -10770,50520 -21205,55989l-196408 0c12187,-60907 121216,-390614 111284,-407669 -16604,-15682 -59177,-9830 -87774,-9830l-123248 417367 -202415 87c20011,-79511 47102,-165159 71145,-243882l144726 -492846c11679,-40262 24437,-81116 35759,-121959 5571,-20102 12500,-42011 18094,-62344l13032 -44893c4659,-14252 251,-9123 9740,-14017 95521,0 191041,0 286558,0 65055,0 197081,-16595 178415,105891l-64089 222173c-11455,37629 -21444,73848 -32869,112048 -11005,36789 -27818,70532 -72894,72156l-1 -1zm1695272 -411287l-193278 660619c-39663,138067 -41398,218548 -209767,218399 -70825,-60 -141707,312 -212524,34 -176526,-691 -95429,-172551 -66042,-269020 16740,-54940 31347,-109215 48169,-164307 33514,-109786 65987,-220407 97224,-331052 11085,-39269 34641,-132469 52377,-160070 33180,-51644 83709,-55583 161292,-55583 70832,0 141673,95 212505,-4 36336,-49 64900,1042 86603,20809 16779,15280 29625,47537 23442,80176l-1 -1zm118392 506814c-5663,-8762 -1069,-1362 -7017,-5982l-111451 378074 -190562 92 286954 -979687 173545 -289 6838 373982c19915,-62313 37805,-125434 56302,-187268 5977,-19992 50803,-183863 59241,-186719l191376 0 -286844 979850 -162718 138 -15664 -372192 0 1zm1631718 -432523l-179154 878 -63177 216339 174095 597 -50282 173636 -176853 -294 -66261 227770 184718 221c-1153,13971 -39744,115847 -49407,141881 -5024,13531 -8287,37424 -20722,43687l-372690 0c12200,-51594 54481,-187597 71909,-245956l198218 -674506c4685,-15512 13173,-56936 22067,-59525l378946 57 -51407 175213 0 2zm-787258 618499l168122 716 -68669 185314 -403224 186 407689 -802675 -202713 -1240c7066,-33936 27841,-95060 39124,-134108 3777,-13075 6339,-34629 17106,-41964l439096 0 -396531 793771zm-390886 185878l-207980 286c8762,-39348 24187,-82413 35162,-121773l216217 -736816c6678,-21912 11868,-41143 18325,-62242 6028,-19691 12207,-56476 22574,-59103l202344 46 -286642 979603 0 -1zm-1200392 -803534c-40787,0 -81568,0 -122354,0 -84074,0 -75670,-17266 -115026,128618 -8553,31701 -22118,67672 -28149,99380 104929,0 234136,-20103 202385,120090 -9259,40885 -24323,87007 -36640,127375l-75290 256423c-13454,45472 -38759,69095 -95281,71772 -107386,5088 -227713,213 -336533,213l54449 -184984c33590,-3435 82972,-586 117764,-586 41170,0 84583,9093 99172,-24433 8994,-20668 30670,-106823 40382,-139753l10229 -35032c1233,-15930 426,-6948 -2441,-11127 -18364,-10591 -122556,2788 -158158,-8470 -50046,-15827 -56184,-57803 -40676,-114002 23868,-86478 50521,-172005 76051,-258874 11701,-39823 23801,-91554 38238,-129092 15816,-41121 42787,-67022 94886,-72498 27400,-2883 310733,-3350 333935,15l-39185 133743c-3346,11602 -5974,35378 -17759,41220l1 2zm3419236 -262c-40227,400 -81218,263 -122183,263 -100255,0 -78533,-12348 -120859,129157 -9762,32633 -20741,66075 -28062,98841 104245,0 233139,-20303 202317,120661 -10074,46076 -57978,199059 -74536,256882 -12242,42752 -25488,84311 -37249,126982 -13184,47818 -46343,69163 -96058,71179 -108412,4388 -226344,172 -335813,172l55935 -185570c39597,0 79192,0 118783,0 109600,0 86614,14538 137159,-163540l9781 -40390c-4446,-43915 -253394,60884 -201036,-128385 23658,-85519 49879,-174256 75754,-258918 67387,-220488 38002,-203185 300320,-203185 54857,0 112612,-1738 167110,331l-51366 175523 3 -3zm-3889326 262l-173465 0 -63212 216278 174142 699 -50301 173643 -170505 -346c-7359,3814 -4293,1137 -8291,9233l-12953 44942c-13276,44198 -44052,139243 -50601,173853l182927 0c-970,26161 -51780,148241 -63687,184656l-377698 872c73729,-240069 143151,-493056 215696,-736075l54035 -184242c4726,-16033 8169,-50358 21935,-59630l379059 49 -48908 167060c-4032,7971 -799,5240 -8173,9006l0 2zm-1281473 700829l0 196404c125552,0 1582155,3529 1598945,-1410 12367,-3644 5270,-8245 21346,-3028 29720,9648 107674,4438 144148,4438l3210123 4c14827,27 29781,2366 42007,-3073l4153 -2285c32811,-16958 49517,-27796 61356,-64212l81331 -276066c7130,-24781 13766,-45841 20437,-69716 6169,-22083 16098,-46946 16098,-74053l0 -202846c0,-32496 -23095,-55241 -46053,-66638 -33979,-16872 -54279,-13857 -102054,-13857 8248,-30895 51229,-25757 90151,-25757 39709,0 79424,0 119133,0 11811,-22323 41764,-140760 49296,-156770 312,-662 836,-1411 1148,-2069 315,-662 832,-1415 1129,-2092l3160 -209341 -531262 0c-14846,0 -20148,2217 -29465,2765 -11785,689 -15942,-2681 -31583,-2894l-495975 129c-1314740,0 -2629484,0 -3944228,0 -12345,52977 -53369,178363 -70848,241468 -54126,195445 -122008,407787 -179176,606446 -7450,25890 -33317,103317 -33317,124453z"/>
    <path class="fil1" d="M2078938 254440c-26867,7853 -24430,30507 -39196,78860l-81321 276127c-20246,66124 -65041,210505 -81394,276265 -4913,19756 2599,26792 22578,27442 12592,410 48115,980 58097,-1837 25970,-7324 29500,-49423 38014,-77708l134980 -460734c22465,-73806 48464,-118498 4065,-120182 -14504,-551 -43760,-1757 -55823,1768l0 -1z"/>
    <path class="fil1" d="M464705 514234c127404,2331 100465,15968 165052,-206249 18034,-62036 1815,-55222 -82191,-55222 -14606,0 -21090,47137 -25133,60470 -7001,23095 -12830,44917 -19550,67323 -9971,33245 -34541,103462 -38177,133679l-1 -1z"/>
    <path class="fil1" d="M4326016 514082c50157,376 90968,9069 110040,-22095 6652,-10868 57340,-182758 61424,-202918 9238,-45635 -38743,-38188 -94270,-36028l-77194 261041z"/>
   </g>
   <path class="fil2" d="M4539498 615641c578,-730 1290,-1745 1684,-2237 376,-463 1285,-1608 1658,-2061 456,-555 2392,-2674 3175,-3404l-15037 1620 8519 6081 1 1z"/>
   <path class="fil3" d="M2491364 697366c5947,4621 1353,-2781 7017,5982l-666 -16280 -6350 10298 -1 0z"/>
   <polygon class="fil4" points="677983,614436 684717,607820 669160,610360 "/>
  </g>
 </g>
</svg>
