<?xml version="1.0" encoding="utf-8"?>
<!-- Generator: Adobe Illustrator 19.0.0, SVG Export Plug-In . SVG Version: 6.00 Build 0)  -->
<svg version="1.1" id="Layer_1" xmlns="http://www.w3.org/2000/svg" xmlns:xlink="http://www.w3.org/1999/xlink" x="0px" y="0px"
	 viewBox="0 0 1080 1920" style="enable-background:new 0 0 1080 1920;" xml:space="preserve">
<style type="text/css">
	.st0{fill:#FFD426;}
	.st1{fill:#CC3E35;}
	.st2{fill:#FFDC51;}
	.st3{fill:#FFE26C;}
	.st4{fill:#FFEB9C;}
</style>
<g id="XMLID_557_">
	<path id="XMLID_562_" class="st0" d="M158.8,629c4-14.9,10.9-28.7,17-42.8c32.2-75.4,64.6-150.8,97-226.2
		c7.7-17.9,15.5-35.7,23-53.7c4.1-10,10.7-17.7,19.2-24c6.8-5.1,14.3-8.9,22.1-12.3c1.8-0.8,3.5-1.6,5.3-2.5
		c9.6-6,20.6-7.6,31.5-9.1c7-0.9,14.1-0.9,21.2-0.9c97.3,0.1,194.6,0,291.9,0.1c31.5,0,54.9,14,68.9,42.4
		c29.6,59.8,58.1,120.1,87.4,180.1c18.4,37.8,36.5,75.7,54.9,113.5c7.8,16.1,9.5,33,5.3,50.5c-2.8,3.7-2.5,8.2-3.5,12.4
		c-7.6,33.1-16.8,65.8-25.4,98.6c-12.7,48.7-25.5,97.3-38.4,145.9c-23.7,90.1-47.3,180.3-71.1,270.5c-9.1,34.6-17.4,69.4-27.7,103.7
		c-8.5,28.2-27.3,46.5-56.2,53.6c-12.9,3.2-26.3,2.8-39.5,2.8c-53.2-0.2-106.5-0.2-159.7,0c-7.3,0-14.6-2.3-21.7,1
		c-8.2-0.6-16.4-0.5-24.5-2.4c-27.9-6.4-46.5-23.3-56.1-50c-21.1-59-42-118-63.1-177c-28-78.4-55.9-156.8-83.9-235.2
		c-18.9-53.1-37.8-106.2-56.7-159.3c-4.9-13.7-9.7-27.4-14.7-41c-3.1-8.4-4.4-16.7-3.2-25.5C158.6,638,157.2,633.4,158.8,629z"/>
	<path id="XMLID_561_" class="st1" d="M158.8,629c0,1.3,0,2.6-0.1,3.9c-1,10.3,0.8,20.2,4.3,30c9.7,26.9,19.3,53.9,28.9,80.8
		C226.9,842,262,940.4,297,1038.8c28.4,79.8,56.9,159.6,85.3,239.4c3.4,9.5,7.8,18.3,14.5,25.9c14.2,16,32.1,23.8,53.3,24.6
		c3,0.1,6.1,0.2,9.1,0.3c7.9,2.9,16.3,2.4,24.5,2.4c57.4,0,114.8,0.4,172.2-0.2c17.8-0.2,34.8-3.1,50.1-13.2
		c15.1-10,25.1-23.7,30.6-40.9c12-37.6,21.6-75.8,31.4-114c12.5-48.9,26.2-97.5,38.5-146.5c12-48.1,25.5-95.9,37.6-144
		c9.6-38,20.3-75.8,29.9-113.8c8.8-34.7,19.6-69,25.8-104.3c0.7-3.7,2.4-7.4,0.6-11.3c1.2-7.5,2-15,1.4-22.6
		c-0.7-8.8-2.9-17.1-6.7-25c-10.8-22.2-21.6-44.4-32.4-66.7c-16.7-34.5-33.3-69.1-50-103.6c-14.5-30.1-29.1-60.1-43.6-90.1
		c-5.6-11.5-11.1-23-16.7-34.5c-10.2-20.9-27.1-33.3-49.5-38.5c-6.4-1.5-12.9-1.6-19.4-1.6c-89.8,0-179.5,0-269.3,0
		c-10,0-19.9,0.1-29.9,0c-12.9-0.2-25.5,1.8-37.7,5.7c-1.4,0.5-2.9,0.7-4.4,1.1c1.7-3,4.6-4.4,7.7-5.6c8-3,16.2-4.7,24.6-6
		c11.3-1.8,22.7-2.9,34.3-2.9c88.2,0.1,176.5,0,264.7,0.1c17.2,0,34.1,2.2,50.6,7.4c4.8,1.5,9.2,3.6,13.5,6.3
		c7.6,5,14.9,10.5,22,16.1c4.4,3.5,7.9,8,11,12.7c12.5,19.3,23.6,39.4,33.4,60.2c3.2,6.9,6.2,13.8,9.4,20.7c1.9,4.1,3.7,8.3,6,12.3
		c4.5,7.7,8.4,15.7,11.9,23.8c3.9,8.9,8.2,17.7,12.5,26.5c5.6,11.5,11.4,22.9,17.1,34.3c4.1,8.1,8.2,16.3,11.3,24.8
		c0.8,2.2,2,4.3,3,6.5c5.7,11.4,11.4,22.9,17.2,34.3c4.5,8.9,9,17.8,12.5,27.2c1.6,4.2,3.8,8.2,5.7,12.4c4,9.1,7,18.7,10.2,28.1
		c3,8.7,4.4,17.6,4.3,26.8c-0.1,4.6-0.1,9.1,0,13.7c0.2,8.7-1.1,17.3-3.2,25.7c-4.7,18.9-9.4,37.9-14.2,56.8
		c-5.4,21.4-10.9,42.9-16.4,64.2c-1.9,7.1-4.2,14.1-6.2,21.2c-2.6,9.4-5,18.9-7.4,28.3c-4.9,19.1-10.1,38.1-14.6,57.3
		c-3.8,16.3-9.3,32.1-13.3,48.3c-1.6,6.3-3.3,12.6-4.9,18.9c-2.8,10.9-5.7,21.8-8.5,32.7c-3.3,13.2-6.4,26.5-9.7,39.8
		c-0.7,2.7-1.4,5.5-2.3,8.1c-5.4,15.8-9.1,32.1-13.1,48.3c-5,19.8-10.1,39.5-15.3,59.2c-1.9,7.3-3.5,14.8-5.8,22
		c-5.9,17.7-9.5,36-14.3,54c-4,15.1-8,30.2-12.7,45c-2.8,9.1-7,17.7-11.5,26.1c-4.6,8.5-10.8,15.7-16.4,23.4
		c-1.7,2.3-3.7,4.3-6.1,5.8c-8.1,5.1-15.9,10.6-24.9,13.9c-10,3.7-20.3,6.2-30.9,7.5c-17.4,2.1-34.9,2.6-52.5,2.6
		c-42.1-0.2-84.1-0.1-126.2,0c-4.6,0-9.1,0-13.6-0.9c-1.5-0.3-3-0.4-4.5-0.4c-16.2-0.2-31.8-3.7-47-8.9c-8.7-3-16.3-8-23.4-13.9
		c-13.6-11.3-23.3-25.4-30.1-41.7c-2.1-5-4-10.1-6.6-14.9c-5.5-10.4-8.6-21.8-12.7-32.7c-5.2-14-10.3-28.1-14.7-42.4
		c-3.3-10.6-7.9-20.6-11.8-31c-0.8-2-1.5-4.1-2.2-6.1c-6.6-20.7-14.2-40.9-21-61.5c-2.8-8.5-6.8-16.4-9.6-24.8
		c-1.8-5.1-3.6-10.2-5.1-15.4c-1.2-4.2-2.9-8.1-4.4-12.2c-5.2-15-10.3-29.9-15.4-44.9c-1.1-3.1-2.2-6.2-3.5-9.1
		c-3.2-6.7-5.3-13.7-7.7-20.7c-7.2-20.9-14-42-21.9-62.6c-10.1-26.3-18.9-53.1-28.2-79.7c-3.7-10.6-8-21.1-12-31.6
		c-0.6-1.6-1.3-3.2-1.8-4.9c-5.8-16.8-11.5-33.6-17.3-50.4c-2.3-6.6-4.6-13.1-7.2-19.5c-6.9-17.1-12.3-34.7-15.7-52.9
		c-0.9-4.9-1.5-9.9-2-14.8c-0.2-1.9,0.1-3.9,0.4-5.8c0.9-6,2.2-11.9,2-18.1C157.4,632.6,157.8,630.7,158.8,629z"/>
	<path id="XMLID_560_" class="st2" d="M541.9,1089.6c-3.5,0-6.9-0.1-10.4,0c-11.7,0.5-22.8-2-33.9-5.2c-11.3-3.2-22.2-7.2-32.7-12.7
		c-4.6-2.4-9.5-4.2-13.9-7c-6.2-4.1-12-8.5-17-14c-2.5-2.7-5.2-5.3-8.2-7.4c-1.2-0.9-2.4-1.9-3.4-3c-5.3-6-10.8-11.8-14.8-18.8
		c-4.7-8.1-9.5-16-15-23.6c-4.5-6.2-6.6-13.6-9.9-20.4c-6.8-14.3-11.6-29.4-17.4-44.1c-3.3-8.3-6.5-16.5-9.9-24.7
		c-4.2-10.2-7-20.9-10.8-31.3c-3.2-8.8-5.9-17.7-8.9-26.5c-2.7-7.8-5.5-15.5-8.2-23.3c-5.5-16.2-9.6-32.9-12.6-49.8
		c-1.7-9.8-3-19.7-3.6-29.7c-0.7-11.6-1.1-23.4,0.6-35c0.7-4.9,0.6-9.9,1.4-14.9c2.1-14.4,5.6-28.5,9.8-42.4
		c3.5-11.7,9.2-22.4,13.6-33.7c1.6-4,3.5-7.9,5.3-11.9c4.9-10.9,11.2-21,17.1-31.4c0.3-0.6,0.6-1.2,1.1-1.6
		c7-7.7,12.5-16.6,19.8-24.1c1.2-1.2,2.2-2.7,3.3-4c3.3-4,7-7.7,11.3-10.7c5.5-3.8,10.8-8,16.4-11.7c11.8-7.8,24.1-14.5,37.4-19.4
		c8.6-3.1,17.6-4.7,26.4-6.8c11.2-2.6,22.6-3.5,34.1-4.3c8.7-0.7,17.3-1,25.9-1.1c3.3,0,6.5,0.1,9.7,0.7c1.7,0.3,3.4,0.5,5.2,0.5
		c23.4,0.8,45.9,5.6,67.8,13.8c6.1,2.3,11.9,5,17.4,8.6c6.3,4.2,12.9,8,19.4,12c4.4,2.7,8.6,5.8,12.3,9.6c4.5,4.6,9.3,9,13.2,14.3
		c1.7,2.2,3.8,4.1,5.9,6.1c6.4,6,11.3,13.2,15.7,20.6c5.2,8.7,10.2,17.6,15.3,26.4c7.9,13.3,14.2,27.3,18.8,42
		c1.6,5.2,3.5,10.3,5.1,15.4c4.9,15.6,7.9,31.6,9.7,47.7c1.2,10.5,2.7,21.1,1.6,31.7c-1,9.9-1.5,19.8-3,29.7
		c-3.8,26.4-9.5,52.5-16,78.3c-1.4,5.5-2.8,10.9-4.1,16.4c-3.6,15.7-8.3,31-13,46.3c-4.2,13.9-8,27.9-12,41.9
		c-3.5,12.1-8.4,23.7-13.2,35.3c-0.3,0.8-0.7,1.6-1.2,2.3c-5.8,8.4-9.8,17.8-15.2,26.5c-5.8,9.4-12.1,18.5-21.2,25.2
		c-1.2,0.9-2.3,2-3.3,3.1c-8.6,10.1-19.4,17.1-31.4,22.5c-7.9,3.5-15.7,7.4-24,10c-9.7,3.1-19.6,5.6-29.7,7.1
		c-2.3,0.3-4.7,0.4-7.1,0.4C552.3,1089.6,547.1,1089.5,541.9,1089.6C541.9,1089.5,541.9,1089.5,541.9,1089.6z"/>
	<path id="XMLID_559_" class="st3" d="M347.2,735.8c0-26.1,3.6-49,11.1-71.1c3.7-10.9,7.7-21.7,12.8-32c5.6-11.4,11.2-23,19-33.3
		c2.5-3.3,5.4-6.3,7.7-9.6c6.2-8.7,13.9-16,21.7-23.1c1.7-1.6,3.7-3,5.7-4.3c5.6-3.7,11.3-7.2,16.9-10.9c3.6-2.4,7.4-4.5,11.5-6
		c11.3-4.3,22.7-8.7,34.8-10.6c12-1.8,24-3.9,36.2-3.5c4.1,0.2,8.2,0,12.4,0c23.3,0.2,45.7,4.6,67,14c16.7,7.4,31.8,17.4,45,30.4
		c9.8,9.7,18,20.5,25.7,31.8c3.2,4.6,5.6,9.8,8.3,14.7c0.8,1.5,1.6,3.1,2.6,4.5c5,6.9,8.2,14.7,11.1,22.7c1.6,4.5,3.2,9,5,13.4
		c5.3,13.1,8.5,26.9,10.7,40.8c1,6.4,2.1,12.8,2,19.4c0,2.1,0.4,4.3,0.7,6.5c0.8,6.3,0.8,12.5,0,18.8c-0.3,2.4-0.7,4.7-0.7,7.1
		c0.2,7.9-1,15.6-2.3,23.3c-1.2,7.3-2.1,14.6-3.7,21.8c-2.8,12.9-5.8,25.8-9,38.6c-3.8,15.3-7.4,30.8-12,45.9
		c-5.1,17-9.5,34.3-14.8,51.2c-3.5,11.1-7.3,22.2-12.2,32.9c-0.6,1.4-1.1,2.8-1.9,4.1c-6.6,10.4-11.7,21.8-19.5,31.4
		c-6.7,8.3-13.7,16-22.3,22.6c-16,12.3-34.1,19.5-53.6,23.6c-2.7,0.6-5.6,0.6-8.4,0.9c-0.9,0.1-1.8-0.1-2.6,0.1
		c-7.3,1.3-14.6,0.6-22,0.1c-9.8-0.7-19.3-2.9-28.5-5.9c-4.7-1.5-9.4-3.4-13.9-5.5c-18-8-32.5-20.5-45-35.6
		c-13-15.7-22.9-33.1-30.9-51.7c-2.1-5-4.4-9.9-6.6-14.9c-1.5-3.6-3.2-7.1-4.4-10.8c-2.8-8.9-6.5-17.5-10-26.1
		c-2-4.8-3.6-9.7-5.1-14.7c-2.3-7.4-5.1-14.8-7.8-22.1c-5.1-13.8-9.8-27.8-14-41.9c-0.8-2.7-1.6-5.4-2.6-8.1
		c-6.2-17.4-9.8-35.5-12.3-53.8C347.8,751.7,346.6,742.4,347.2,735.8z"/>
	<path id="XMLID_558_" class="st4" d="M615.4,1008.9c-0.5,0.9-0.9,1.7-1.4,2.6c-0.4,0.4-0.8,0.9-1.3,1.4l0,0
		c-0.4,0.4-0.8,0.8-1.2,1.2c-0.9,0.9-1.8,1.8-2.8,2.8c-0.4,0.4-0.8,0.8-1.2,1.2l0,0c-0.4,0.4-0.9,0.8-1.3,1.3c-3,1.4-5.8,3.2-9.1,4
		c-0.7,0.7-1.9,0.4-2.6,1.2c-0.4,0-0.9,0.1-1.3,0.1c-4.4,2.3-9.3,3-14.2,3c-25.1,0.3-50.2,0.2-75.3,0c-6.4-0.1-12.7-1.5-18.5-4.5
		l0,0c-0.4-0.4-0.8-0.8-1.3-1.2c-0.5,0-0.9-0.1-1.4-0.1c-0.4-0.4-0.8-0.8-1.2-1.1c-0.4-0.1-0.9-0.1-1.3-0.2
		c-0.4-0.4-0.9-0.8-1.3-1.2c-0.9-0.5-1.7-0.9-2.6-1.4c-0.5-0.4-1-0.8-1.4-1.3l0,0c-0.5-0.4-0.9-0.9-1.3-1.3l0,0
		c-0.5-0.4-0.9-0.9-1.3-1.3l0,0c-0.5-0.4-0.9-0.9-1.3-1.3l0,0c-3.9-3.4-7-7.5-8.7-12.3c-5.3-15.6-12.5-30.4-20-45.1
		c-13.5-26.3-23.7-53.9-33.5-81.7c-12.6-35.5-25.5-71-32.6-108.2c-1.5-7.9-3.4-15.7-6-23.2c-3.6-10.4-3.7-20.6,1-30.9
		c7.3-16,9.9-33.7,16.7-49.9c6.2-14.6,12.5-29.1,21.1-42.4c5.5-8.6,9.7-17.9,13.5-27.4c3.4-8.5,8.6-15.5,16.5-20.4
		c0.7-0.6,1.4-1.1,2.2-1.6c0.5-0.3,1-0.5,1.5-0.8c0.5-0.3,1-0.5,1.5-0.8c0.5-0.2,1-0.5,1.5-0.7c0.7-0.5,1.3-1.1,2.1-1.4
		c0.9-0.3,1.7-0.6,2.5-1.1c0.6-0.2,1.3-0.4,2-0.5c0.7-0.1,1.4-0.3,2.2-0.4c17.2-2.3,34.5-2.6,51.7-4.6c32.2-3.7,63.9,2.6,95.8,3.9
		c1,0,2.1,0,3.1,0.2c0.9,0.2,1.8,0.5,2.6,0.9c0.8,0.2,1.6,0.4,2.3,0.8c0.7,0.3,1.3,0.8,2,1.2c0.5,0.2,0.9,0.3,1.4,0.6
		c0.6,0.4,1.2,0.8,1.9,1.1c0.9,0.5,1.6,1.1,2.4,1.7c0.6,0.5,1.3,0.8,2,1.2c1.4,1.3,3,2.4,4.4,3.7c0.4,0.4,0.8,0.9,1.2,1.3
		c0.4,0.5,0.8,1,1.2,1.5c8.9,16.9,18,33.6,28.3,49.6c10.7,16.7,18.1,35,25,53.5c3,8.1,5.8,16.3,9.7,24.1c4.2,8.4,5.8,17.1,3.5,26.5
		c-5.7,22.3-6.5,45.5-11.6,67.9c-13.2,57.2-26.7,114.4-49.6,168.8c-4.7,11.2-7.7,23.2-11.4,34.8c-0.5,2.1-2,3.6-3.5,5l0,0
		C616.2,1008,615.8,1008.4,615.4,1008.9z"/>
</g>
</svg>
