<?xml version="1.0" encoding="UTF-8"?>
<!DOCTYPE svg PUBLIC "-//W3C//DTD SVG 1.1//EN" "http://www.w3.org/Graphics/SVG/1.1/DTD/svg11.dtd">
<!-- Creator: CorelDRAW X7 -->
<svg xmlns="http://www.w3.org/2000/svg" xml:space="preserve" width="3760px" height="5056px" version="1.1" style="shape-rendering:geometricPrecision; text-rendering:geometricPrecision; image-rendering:optimizeQuality; fill-rule:evenodd; clip-rule:evenodd"
viewBox="0 0 24495414 32939989"
 xmlns:xlink="http://www.w3.org/1999/xlink">
 <defs>
  <style type="text/css">
   <![CDATA[
    .fil1 {fill:#161316}
    .fil0 {fill:#202121}
    .fil29 {fill:#320E0E}
    .fil12 {fill:#3A2D25}
    .fil13 {fill:#43332B}
    .fil6 {fill:#4D1A1A}
    .fil10 {fill:#513930}
    .fil7 {fill:#531D1D}
    .fil3 {fill:#5B473B}
    .fil22 {fill:#5E493D}
    .fil16 {fill:#612222}
    .fil20 {fill:#654F42}
    .fil23 {fill:#65574B}
    .fil2 {fill:#685044}
    .fil15 {fill:#695245}
    .fil14 {fill:#6A5345}
    .fil28 {fill:#6B5A4C}
    .fil9 {fill:#722929}
    .fil24 {fill:#746253}
    .fil11 {fill:#795F50}
    .fil17 {fill:#842E2E}
    .fil30 {fill:#862E2E}
    .fil33 {fill:#8A705E}
    .fil32 {fill:#A38A74}
    .fil26 {fill:#A68D77}
    .fil31 {fill:#AC5050}
    .fil21 {fill:#B1967E}
    .fil18 {fill:#B2967F}
    .fil5 {fill:#B2977F}
    .fil25 {fill:#C25A5A}
    .fil4 {fill:#CDAE92}
    .fil19 {fill:#CEAE92}
    .fil8 {fill:#DBC1AB}
    .fil27 {fill:#EB0303}
   ]]>
  </style>
 </defs>
 <g id="Layer_x0020_1">
  <metadata id="CorelCorpID_0Corel-Layer"/>
  <g id="_494061633984">
   <g>
    <path class="fil0" d="M12834104 25434417c107373,76161 273206,220355 349436,330413 160570,231821 330113,229513 573315,621804 233629,376854 445904,809214 674962,1197842l748368 1328947 542149 -82378c-250058,-415823 -496231,-829284 -747421,-1246884 -604720,-1005307 -1204430,-2002610 -1811850,-3020428 -310721,-520664 -539510,-805367 -851554,-1265915l-1450410 -2050998c-29035,-34167 -29427,-44448 -55837,-80808l-958111 -1132625c-68658,-72874 -83363,-54383 -153552,-143717l-566397 -628121c-53767,-71428 -76638,-97107 -140416,-173799l724058 -1282106c-155476,-31527 -1865771,-773408 -2191313,-900527 -158985,-62078 -266512,-84571 -335169,-180708 -72875,-102055 -108265,-210059 -171498,-316947 -249497,-421725 -489751,-875255 -722850,-1313749l-712838 -1334803 243487 -48558c244056,-108726 653923,-144533 945275,-253821 455831,-170982 2547821,-870654 2673262,-966184l-30912 -1325915 7142869 -2562727c423595,-185880 2795579,-947230 2948076,-1079312l-419924 -2331021c239777,-108873 483472,-224749 730661,-335608l0 -839272 -373561 -734455 -158454 0c34814,30420 68019,58046 99131,82132 94868,73436 76376,43548 157176,145010 -382248,84456 -790830,146904 -1181105,225580 -904267,182294 -2216146,721396 -3127723,1059974l-11247572 4147974c-43602,15483 -105842,50558 -146011,78915l-74206 1321760 -256723 -250997c-74875,-87250 -169489,-225904 -259547,-274307 103941,297693 720719,1586909 757903,1712035 349128,540671 636278,1220451 974517,1785355 340986,569483 621849,1195403 955533,1786833 331698,587890 625566,1221875 954763,1813882 142510,256284 112290,201902 394107,311313 287535,111628 1319075,501141 1452534,583720l-1078481 1853251c-63617,103009 37507,27510 -102032,88280l-1194872 518079 1323345 0 -17876 -16353c123233,-62609 341849,-80924 497886,-109727 626020,-115591 396708,-107096 625605,111228 272313,259731 115937,235614 347635,277577l783643 135806c265242,43694 256315,95553 378686,248358l146649 179109c45826,53482 31612,26795 76522,85956l774663 935410c39076,53128 30419,41808 71989,90927 36122,42655 24918,12421 57561,79247 72705,73782 824197,1437843 899557,1569825 154591,270759 303849,533738 451122,797680 142363,255153 321194,527920 437962,781419 -129119,-72298 -236730,-194545 -321863,-299663l-322710 -275661c-59985,-57545 -46164,-62909 -96068,-120047 -32051,-36699 -61024,-56768 -100986,-89104 -326727,-264387 -151936,-130781 -318470,-305749 -31635,-33236 -65871,-56999 -103017,-87273 -332029,-270651 -261016,-263009 -405942,-381286 -331867,-270852 -257385,-260132 -421448,-392968 -69781,-56499 -164187,-123956 -223033,-185126 -51597,-53636 -44394,-67249 -95253,-120770l-326950 -271460c-92151,-88973 -23771,-67834 -197323,-208996 -211928,-172375 -331167,-329644 -416623,-373522l-365050 -340840 855371 1245422c14652,-43509 29873,-81101 45918,-110674 90789,25926 240817,187258 317054,255823 254845,229204 187681,208550 288928,307766 178569,174991 481556,393376 626074,569144 276600,336400 648860,595000 760672,732415 249351,306443 232714,220563 444527,449698zm10832542 -70312c-276069,-106680 -537040,-217492 -562119,-251544 -89604,-88457 -231759,-560117 -311767,-786652l-1964456 -5537390 232575 -293384c77930,-110473 120962,-180177 204518,-284287 86680,-108004 129612,-186065 219116,-296800l1261613 -1724524c73159,-103887 127111,-170174 207943,-280586l118846 -160847 -405181 -487182 -6890555 9271196c-29127,67034 -65680,394476 -79585,491807 -33513,234622 -139639,817009 -123871,1025121l726005 2694278 6930917 -1053101 340171 0 95830 -2326105zm-843898 -22082068l-81724 0 16884 136169 64840 -136169zm-4193791 -667821l-24017 0 24017 24702 0 -24702zm-12916729 17935456l-88434 46926 88434 0 0 -46926zm10427399 4836650c-106903,-421934 -127257,-229143 193999,-705328l1963163 -2760304c68988,-104625 138708,-202971 212952,-302995 190205,-256253 658056,-976995 837918,-1143452 40670,-37638 9835,-17707 59108,-53744l581079 766467c209005,296369 150867,226334 769399,232506 123464,220647 636102,1898907 710700,2221456 92097,398178 544581,2175299 569413,2387251l-858379 -1336112c-82702,-143686 -175145,-282717 -272760,-433014l-1089501 -1750873 -2421118 1904471c-52389,44140 -55945,42078 -107765,82278l-1148208 891393zm3658961 -5430465c55268,-78169 55222,-90320 144241,-161571 69188,66911 371937,879927 394761,944352l-409913 -577447c-54052,-74945 -76715,-123341 -129089,-205334zm-9970137 410567c-237515,-45533 -336962,-26802 -524311,-142955 -113929,-70635 -302495,-151844 -386943,-244288 724066,67950 651823,59677 911254,387243zm10903846 -168942c-425742,-964898 -462395,-830785 -109935,-1157381l1758930 4981490 -1648995 -3824109zm-20216081 12631648l35014 110859 36675 -3332 -71689 -107527zm-97707 -374607l-58654 -117299 58654 182478 0 -65179zm32536 -23412554c15559,-42009 30496,-85388 44555,-130174l-44555 22278 0 107896zm7693821 2729168c-165988,-51243 -214076,-64009 -303841,74352 -159070,245165 35729,844459 401317,439217 64764,36099 71605,71828 155645,103963 -4086,-213390 -146264,-825659 -107880,-1001520l233591 -73828 65479 417408 307981 -95814 -49450 -439494 253353 -75976 155660 1130948 -263795 66233 -68188 -438755 -305634 95383c9627,88211 17853,158993 32197,245434 9050,54544 32528,176715 7311,233960l-199093 73052 -80801 -91975c-108111,217831 -442241,342672 -653954,167958 -173760,-143402 -232759,-408482 -199593,-700265l-237908 70197 121363 903905 -258454 81301 -132167 -883690 -254907 92329 120932 901004 -264872 79546 -148766 -1009516 -36776 1055357c-24132,54767 -281117,120816 -332275,131566l-209489 -680118 -33429 751577c-68911,60839 -235306,113529 -325665,123848l-317392 -1066822 257946 -85949c88211,144318 141594,611399 216823,798418l47010 -902905 228520 -66487 264903 783635 -9542 -875094 1288339 -442557c22517,43548 9665,33760 23686,71421l26118 62616c1555,-4155 5741,14775 10112,21316 136422,-325888 379747,-394730 676032,-264810 -38646,143555 -70351,73828 -100447,219631zm261032 -1642123c2594,-3047 11282,-5748 13167,-14444 1885,-8703 8688,-9734 13305,-14344l190028 142794c45033,-83709 446866,-2674055 454646,-2908254l902720 -304987c83340,122940 207427,428674 269374,576000l711653 1566348c14306,31158 21447,45217 40416,75198 23086,36484 25433,36160 43255,56845l-337246 -2540002c580464,-133860 1487363,-694547 2052444,-338778 239023,150489 407904,509121 396500,907730 -12243,427774 -250236,693146 -435400,867952l321340 385281c53198,75237 32575,48003 99462,117561l312722 366112c77661,85779 8949,62124 105010,106857l-429937 -3247255 746760 -242210 355176 2588530 1107739 -365173 91181 643212c-52759,48926 -2483026,903035 -2654278,927068 -143363,-158300 -250866,-326781 -369874,-475839 -70743,-88612 -113544,-145741 -175561,-231675 -58630,-81239 -127280,-169443 -187450,-208596l-295768 99631 150304 1131409 -1355196 464642 -266003 -684320 -836949 289343 -67072 821789c-205534,19030 -561834,197831 -783443,250959 -202217,48480 -70912,31235 -343603,170297 -126749,64633 -221663,93290 -362502,124010 -913624,199269 -1253141,-577332 -1330710,-647583 58615,385927 85264,520464 -114683,860242 -101631,172721 -299655,357278 -532422,473061 -598571,297747 -1390333,100624 -1530341,-129950 18015,-52721 321694,-514062 377470,-589822 206334,96661 453838,236923 746059,151382 281294,-82355 471337,-399571 153852,-533361 -204241,-86072 -558555,-110251 -783358,-190297 -587467,-209166 -741742,-821835 -575039,-1241821 82847,-208720 259670,-444281 427912,-550892 676979,-428997 999827,-200631 1474527,-48580l-307442 622134c-237085,-53751 -419802,-215083 -703004,-54960 -96746,54699 -165849,142202 -165234,258647 2317,442688 981189,101894 1432596,734393 -109127,-442456 -189528,-637678 -118369,-1125953 73382,-503472 348173,-941997 728921,-1192910 507959,-334745 1164915,-313483 1386355,38985l-370452 546512c-120547,-60500 -261948,-166111 -453784,-104071 -453122,146534 -586436,802812 -482626,1257535 76068,333222 193352,644258 488020,728952 155168,44602 390283,8919 514939,-81770l259893 -283564zm6664329 -4879643c286804,-30042 3654082,-1305292 4135923,-1403976l94098 671076 -776502 255999c64125,443442 122948,882921 185411,1328224 30643,218501 59639,444796 90989,665605 16230,114329 32113,220563 47419,335254 6710,50289 17845,114437 21369,163286l-12997 130189 -727344 246542 -356231 -2598210 -1854629 629884 81917 559448c134237,9611 757002,-245242 955594,-300471l99816 684690c-112166,10365 -377154,110658 -497031,153228 -76877,27296 -421726,138485 -461426,181871l90204 653839 1156204 -388536 95298 666282 -1917945 657856 -450137 -3292080z"/>
    <path class="fil0" d="M11541979 7137828l120954 887091c256115,-86356 766091,-210766 739619,-638040 -35445,-572169 -480356,-322572 -860573,-249051z"/>
    <path class="fil0" d="M9509581 9199676l553508 -185649c-32859,-139685 -409337,-1162437 -463388,-1211771l-90120 1397420z"/>
    <g>
     <path class="fil1" d="M1808565 11333359c34659,-34128 39500,-94067 170997,-109989 361917,-43817 880073,350798 1162298,557871 108342,79492 89181,120470 154398,95645 -148758,-160139 -74344,-153075 -304510,-325365 72428,-84202 53743,-50166 195906,-110658l-19877 -46057c-315368,78577 -424026,14006 -657417,-121562 -129727,-75345 -444819,-268682 -593346,-290790 -111512,65941 -220885,188057 -83978,302317 -236069,66611 -186173,-201755 -256485,-337854 -44163,128857 -59700,163017 -40739,302717 67927,49750 152683,100786 272753,83725z"/>
     <path class="fil1" d="M1954021 12582960c280594,81324 471799,69766 748483,-67280 98469,-48765 55168,-23493 123795,-93559 3847,-3917 9195,-9919 13020,-13859l276284 -407197 9519 -69012c-471937,570268 -1033824,529283 -1171101,650907z"/>
    </g>
    <g>
     <path class="fil2" d="M9289372 16034233l-1559052 -1294550 -369051 -443495c-5679,-6172 -22532,-24979 -28511,-31066 -38169,-38861 -5718,-15091 -51205,-47857l495324 910769c57114,96284 10004,44602 132836,110366 321556,172175 1141159,699603 1379659,795833z"/>
     <path class="fil2" d="M3317120 8361088c-40323,-408705 -193060,-923789 -276084,-1343537 -124464,-629299 -173052,-469106 -508236,-900096 -30327,-39008 -75999,-79723 -87134,-99346l871454 2342979z"/>
    </g>
    <g>
     <path class="fil3" d="M3298290 9497084c-90659,-312737 -283126,-734270 -407020,-1049523l-850223 -2136823c-68911,-179016 -124371,-381372 -247896,-482442l-416100 -335799c137476,325426 320763,656324 471991,986221 147473,321718 318231,709715 480463,1012109 343234,639780 651438,1362976 968785,2006257z"/>
     <path class="fil3" d="M9607535 18921086c72166,-53706 433276,-1152025 496362,-1327047 -25810,-34860 -10774,-11735 -35876,-35629 -27857,-26518 -29942,-23663 -34098,-31697 -105648,18938 -83686,92682 -160193,312329l-257600 721157c-77322,213422 -106772,187050 -8595,360887z"/>
    </g>
    <g>
     <path class="fil4" d="M3187654 11440863c-142163,60492 -123478,26456 -195906,110658 230166,172290 155752,165226 304510,325365l59431 68573c-140224,-24625 -144802,4694 -240086,55606l-276284 407197c-3825,3940 -9173,9942 -13020,13859 -68627,70066 -25326,44794 -123795,93559 -276684,137046 -467889,148604 -748483,67280l-19246 -92474 -68134 88126c72821,142056 159439,177277 89827,328798 -232221,505442 -211151,689760 -89573,1204568 53282,225595 200447,590221 141894,806167l-165234 567274c-60169,134276 -10004,39269 -66495,71374l-59192 22871c-3201,-5926 -14398,3101 -20385,7087 140085,21116 362726,86480 468405,162786 -186542,7195 -347520,2070 -499194,-76314 -65987,-8911 -48165,-22347 -48165,46241 126949,36453 516824,129527 599556,245603 6403,-5309 13852,-12505 18323,-16929 4394,-4348 12635,-11436 17845,-16822l80793 -130666c9342,-48527 -5210,-170013 -10350,-222264l-298770 -150897c29473,-190536 85010,-370852 128735,-558155 79384,-340033 -68273,-1459522 -113460,-1836045 104695,-71481 299324,-112744 429698,-153452 160739,-50188 532938,-118169 634908,-231559 261948,-291252 31228,-86849 393907,-423103l-212198 3088493 1426439 822566 310860 3848234 -362364 301009c-104841,84102 -295746,202802 -342980,312599l-1030947 -368336 412261 -1903732 -149381 -27464c-61193,-310644 10557,-294207 -272329,-410491 -418779,-172136 -1032363,-449798 -1414889,-585643 -9665,-268820 -55591,-609152 -51735,-865998 3055,-203872 290012,-302933 368020,-480902l-685336 279085c47011,58230 81870,69527 109304,179231 23332,93275 23371,191367 26010,284819 6164,218115 13659,369143 -45741,576878 26087,114660 -9942,26687 67365,95460l268574 220617c104825,71189 327050,121570 460702,166118 292621,97538 652800,222563 954948,305934l-14637 30651 -154367 752438c99384,-58800 208281,-111512 293498,-166934 -35798,91359 -111782,151682 -142370,242933l-453823 841481 -1331 581641c54867,24148 81893,47419 134945,64172 165833,-40455 1116903,343602 1367408,354861 111089,4994 672023,-381310 838033,-481541 122971,-74245 200301,-63387 236338,-187489 15183,-226334 -98407,-870908 -132328,-1136072 -49211,-384696 -102509,-745182 -151920,-1131879 -94276,-737817 -224049,-1520460 -294561,-2249651 -120393,-4178 -1108423,-487859 -1125430,-502480l-33267 152044c-2201,6602 -8434,27449 -10134,23594 -1716,-3848 -6572,15883 -10758,23363 -27065,-252529 -35722,-491599 -51105,-748845 -63779,-1066469 40239,-1208378 94491,-2143218 -14275,-105957 -415177,-807960 -499094,-961089l-38231 19231z"/>
     <path class="fil4" d="M6921852 18479506c38469,102255 93290,265842 116946,370852l-1271795 527890 -291359 -2871424c86018,150051 170251,539594 236807,739734 265365,797995 -5240,611907 930547,1023444 236168,103863 231582,83886 278854,209504zm-1653266 -2504135c-23724,242333 37099,759311 58769,1021682 28334,343087 63194,678025 82448,1021397 36222,646020 86103,1346554 150805,1992621 66041,23163 33790,38007 133905,-21532 36676,-21816 55453,-41339 98785,-66779 300525,-176408 1257681,-759142 1416227,-889916 -8364,-212413 778,-444272 -12481,-653962 -8250,-130435 -5341,-132351 -113344,-195168l-636902 -341232c-340209,-165503 -281625,-158724 -328989,-320679 -98816,-337900 -186211,-676255 -291683,-1011047 -266988,-847475 -105241,-394191 -576078,-735447 23840,105841 41417,105464 18538,200062z"/>
    </g>
    <g>
     <path class="fil5" d="M5268586 15975371c22879,-94598 5302,-94221 -18538,-200062 470837,341256 309090,-112028 576078,735447 105472,334792 192867,673147 291683,1011047 47364,161955 -11220,155176 328989,320679l636902 341232c108003,62817 105094,64733 113344,195168 13259,209690 4117,441549 12481,653962 -158546,130774 -1115702,713508 -1416227,889916 -43332,25440 -62109,44963 -98785,66779 -100115,59539 -67864,44695 -133905,21532 2331,102647 11812,192790 21116,298531 4040,45903 3686,115153 7195,150366 20307,203579 -11436,63356 44617,123825l1916683 -831046c139539,-60770 38415,14729 102032,-88280l1078481 -1853251c-133459,-82579 -1164999,-472092 -1452534,-583720 -281817,-109411 -251597,-55029 -394107,-311313 -329197,-592007 -623065,-1225992 -954763,-1813882 -333684,-591430 -614547,-1217350 -955533,-1786833 -338239,-564904 -625389,-1244684 -974517,-1785355 14205,109812 745151,1706424 860888,1952666 245611,522580 240463,547405 291259,1151840 16530,196731 63918,1252918 117161,1340752z"/>
     <path class="fil5" d="M2998212 20410034c107765,125764 52643,50858 264510,209204l706536 514600c60201,45148 86064,73682 146688,112013l1405577 -608752 -81532 -541234c-36037,124102 -113367,113244 -236338,187489 -166010,100231 -726944,486535 -838033,481541 -250505,-11259 -1201575,-395316 -1367408,-354861z"/>
    </g>
    <g>
     <path class="fil6" d="M8484359 28756916c-38938,-52466 -664927,-452722 -783735,-470067 61747,-94844 191782,-189912 281002,-257485l1123529 -858426c46679,-38107 88919,-72712 134860,-109465 72766,-58207 80546,-57953 141593,-102709l1529356 -1185392c407443,-321456 298193,-219077 969646,-267596 315169,-22778 641642,-43694 953494,-71359 -211813,-229135 -195176,-143255 -444527,-449698 -111812,-137415 -484072,-396015 -760672,-732415 -144518,-175768 -447505,-394153 -626074,-569144 -101247,-99216 -34083,-78562 -288928,-307766 -76237,-68565 -226265,-229897 -317054,-255823 -135268,249274 -212252,1062906 -378124,1272772 -77030,97446 -164472,203879 -251890,318362l-2221594 2800981c-41971,55345 -75984,94768 -122887,148597 -69127,79323 -76214,96845 -132597,165887l-498740 635916 1693342 294830z"/>
     <path class="fil6" d="M9860610 22325663c15152,-43987 -29750,-68465 143163,-81578 51436,-3902 162002,7534 220317,9981l1197565 34298c-32643,-66826 -21439,-36592 -57561,-79247 -41570,-49119 -32913,-37799 -71989,-90927l-774663 -935410c-44910,-59161 -30696,-32474 -76522,-85956l-146649 -179109c-122371,-152805 -113444,-204664 -378686,-248358l-783643 -135806c-231698,-41963 -75322,-17846 -347635,-277577 -228897,-218324 415,-226819 -625605,-111228 -156037,28803 -374653,47118 -497886,109727l133983 122548c81493,65079 64571,50712 132328,138423 115176,149088 307943,239293 413277,374137 66872,85611 53913,74445 132120,138724 312745,257053 258570,260970 556193,503288 117030,95290 154737,175098 271483,270828l560410 523242z"/>
    </g>
    <g>
     <path class="fil7" d="M16139627 25386322l1148208 -891393c51820,-40200 55376,-38138 107765,-82278l2421118 -1904471 1089501 1750873c97615,150297 190058,289328 272760,433014l858379 1336112c-24832,-211952 -477316,-1989073 -569413,-2387251 -74598,-322549 -587236,-2000809 -710700,-2221456 -618532,-6172 -560394,63863 -769399,-232506l-581079 -766467c-49273,36037 -18438,16106 -59108,53744 -179862,166457 -647713,887199 -837918,1143452 -74244,100024 -143964,198370 -212952,302995l-1963163 2760304c-321256,476185 -300902,283394 -193999,705328z"/>
     <path class="fil7" d="M22381292 24021591l-1758930 -4981490c-352460,326596 -315807,192483 109935,1157381l1648995 3824109z"/>
    </g>
    <g>
     <path class="fil8" d="M2218085 15965067l-37614 -9557c-78008,177969 -364965,277030 -368020,480902 -3856,256846 42070,597178 51735,865998 382526,135845 996110,413507 1414889,585643 282886,116284 211136,99847 272329,410491l149381 27464 -412261 1903732 1030947 368336c47234,-109797 238139,-228497 342980,-312599l362364 -301009 -310860 -3848234 -1426439 -822566 212198 -3088493c-362679,336254 -131959,131851 -393907,423103 -101970,113390 -474169,181371 -634908,231559 -130374,40708 -325003,81971 -429698,153452 45187,376523 192844,1496012 113460,1836045 -43725,187303 -99262,367619 -128735,558155l298770 150897c5140,52251 19692,173737 10350,222264l-80793 130666c-5210,5386 -13451,12474 -17845,16822 -4471,4424 -11920,11620 -18323,16929z"/>
     <path class="fil8" d="M467459 9893184c453945,27095 1060550,-34236 1425131,-280455 -21447,-51182 -765213,-1661638 -888554,-1784055 -35744,330359 -174537,833316 -258015,1179528 -69358,287634 -386751,594854 -408682,675585 -19031,70043 71289,169058 130120,209397z"/>
     <path class="fil8" d="M5767003 19378248l1271795 -527890c-23656,-105010 -78477,-268597 -116946,-370852 -47272,-125618 -42686,-105641 -278854,-209504 -935787,-411537 -665182,-225449 -930547,-1023444 -66556,-200140 -150789,-589683 -236807,-739734l291359 2871424z"/>
    </g>
    <g>
     <path class="fil9" d="M8484359 28756916l7292397 1215904 -1344939 -2388344c-229058,-388628 -441333,-820988 -674962,-1197842 -243202,-392291 -412745,-389983 -573315,-621804 -76230,-110058 -242063,-254252 -349436,-330413 -311852,27665 -638325,48581 -953494,71359 -671453,48519 -562203,-53860 -969646,267596l-1529356 1185392c-61047,44756 -68827,44502 -141593,102709 -45941,36753 -88181,71358 -134860,109465l-1123529 858426c-89220,67573 -219255,162641 -281002,257485 118808,17345 744797,417601 783735,470067z"/>
     <path class="fil9" d="M8847708 11195421l49450 439494 -307981 95814 -65479 -417408 -233591 73828c-38384,175861 103794,788130 107880,1001520 -84040,-32135 -90881,-67864 -155645,-103963 -365588,405242 -560387,-194052 -401317,-439217 89765,-138361 137853,-125595 303841,-74352 30096,-145803 61801,-76076 100447,-219631 -296285,-129920 -539610,-61078 -676032,264810 -4371,-6541 -8557,-25471 -10112,-21316l-18446 -42124c-2216,-5702 -5402,-14405 -7672,-20492 -14021,-37661 -1169,-27873 -23686,-71421l-1288339 442557 9542 875094 -264903 -783635 -228520 66487 -47010 902905c-75229,-187019 -128612,-654100 -216823,-798418l-257946 85949 317392 1066822c90359,-10319 256754,-63009 325665,-123848l33429 -751577 209489 680118c51158,-10750 308143,-76799 332275,-131566l36776 -1055357 148766 1009516 264872 -79546 -120932 -901004 254907 -92329 132167 883690 258454 -81301 -121363 -903905 237908 -70197c-33166,291783 25833,556863 199593,700265 211713,174714 545843,49873 653954,-167958l80801 91975 199093 -73052c25217,-57245 1739,-179416 -7311,-233960 -14344,-86441 -22570,-157223 -32197,-245434l305634 -95383 68188 438755 263795 -66233 -155660 -1130948 -253353 75976z"/>
     <path class="fil9" d="M9860610 22325663c85456,43878 204695,201147 416623,373522 173552,141162 105172,120023 197323,208996l326950 271460c50859,53521 43656,67134 95253,120770 58846,61170 153252,128627 223033,185126 164063,132836 89581,122116 421448,392968 144926,118277 73913,110635 405942,381286 37146,30274 71382,54037 103017,87273 166534,174968 -8257,41362 318470,305749 39962,32336 68935,52405 100986,89104 49904,57138 36083,62502 96068,120047l322710 275661c85133,105118 192744,227365 321863,299663 -116768,-253499 -295599,-526266 -437962,-781419 -147273,-263942 -296531,-526921 -451122,-797680 -75360,-131982 -826852,-1496043 -899557,-1569825l-1197565 -34298c-58315,-2447 -168881,-13883 -220317,-9981 -172913,13113 -128011,37591 -143163,81578z"/>
    </g>
    <g>
     <path class="fil10" d="M9599701 7802256c54051,49334 430529,1072086 463388,1211771l-553508 185649 90120 -1397420zm1942278 -664428c380217,-73521 825128,-323118 860573,249051 26472,427274 -483504,551684 -739619,638040l-120954 -887091zm1587378 -1208200l429937 3247255c-96061,-44733 -27349,-21078 -105010,-106857l-312722 -366112c-66887,-69558 -46264,-42324 -99462,-117561l-321340 -385281c185164,-174806 423157,-440178 435400,-867952 11404,-398609 -157477,-757241 -396500,-907730 -565081,-355769 -1471980,204918 -2052444,338778l337246 2540002c-17822,-20685 -20169,-20361 -43255,-56845 -18969,-29981 -26110,-44040 -40416,-75198l-711653 -1566348c-61947,-147326 -186034,-453060 -269374,-576000l-902720 304987c-7780,234199 -409613,2824545 -454646,2908254l-190028 -142794c-4617,4610 -11420,5641 -13305,14344 -1885,8696 -10573,11397 -13167,14444l-259893 283564c-124656,90689 -359771,126372 -514939,81770 -294668,-84694 -411952,-395730 -488020,-728952 -103810,-454723 29504,-1111001 482626,-1257535 191836,-62040 333237,43571 453784,104071l370452 -546512c-221440,-352468 -878396,-373730 -1386355,-38985 -380748,250913 -655539,689438 -728921,1192910 -71159,488275 9242,683497 118369,1125953 -451407,-632499 -1430279,-291705 -1432596,-734393 -615,-116445 68488,-203948 165234,-258647 283202,-160123 465919,1209 703004,54960l307442 -622134c-474700,-152051 -797548,-380417 -1474527,48580 -168242,106611 -345065,342172 -427912,550892 -166703,419986 -12428,1032655 575039,1241821 224803,80046 579117,104225 783358,190297 317485,133790 127442,451006 -153852,533361 -292221,85541 -539725,-54721 -746059,-151382 -55776,75760 -359455,537101 -377470,589822 140008,230574 931770,427697 1530341,129950 232767,-115783 430791,-300340 532422,-473061 199947,-339778 173298,-474315 114683,-860242 77569,70251 417086,846852 1330710,647583 140839,-30720 235753,-59377 362502,-124010 272691,-139062 141386,-121817 343603,-170297 221609,-53128 577909,-231929 783443,-250959l67072 -821789 836949 -289343 266003 684320 1355196 -464642 -150304 -1131409 295768 -99631c60170,39153 128820,127357 187450,208596 62017,85934 104818,143063 175561,231675 119008,149058 226511,317539 369874,475839 171252,-24033 2601519,-878142 2654278,-927068l-91181 -643212 -1107739 365173 -355176 -2588530 -746760 242210z"/>
     <path class="fil10" d="M15070227 5249371l450137 3292080 1917945 -657856 -95298 -666282 -1156204 388536 -90204 -653839c39700,-43386 384549,-154575 461426,-181871 119877,-42570 384865,-142863 497031,-153228l-99816 -684690c-198592,55229 -821357,310082 -955594,300471l-81917 -559448 1854629 -629884 356231 2598210 727344 -246542 12997 -130189c-3524,-48849 -14659,-112997 -21369,-163286 -15306,-114691 -31189,-220925 -47419,-335254 -31350,-220809 -60346,-447104 -90989,-665605 -62463,-445303 -121286,-884782 -185411,-1328224l776502 -255999 -94098 -671076c-481841,98684 -3849119,1373934 -4135923,1403976z"/>
    </g>
    <g>
     <path class="fil11" d="M3317120 8361088l-871454 -2342979c11135,19623 56807,60338 87134,99346 335184,430990 383772,270797 508236,900096 83024,419748 235761,934832 276084,1343537zm-1585039 -2929038l820534 1807287c110436,245903 749569,1720507 830354,1793336l201494 -168812c90804,-67596 103555,-115153 195145,-184364 431229,-325842 1772242,-1181975 2299832,-1528125l1149470 -777671 2071813 -1755714c47218,-42970 63840,-44763 110204,-80977l833886 -712616c62494,-48665 50497,-33182 118554,-102624 -33290,-59408 -138654,-123240 -227827,-183102l-742958 -506189c-320979,-232968 -675394,-456539 -997057,-685674 -312914,-222895 -188820,-187065 -614931,-116661l-3891336 722765c-69804,34775 -513184,552492 -605081,670700 -54252,69788 -35545,34705 -95114,93913 -50774,50458 -52074,69550 -94283,123756l-1362699 1590772z"/>
     <path class="fil11" d="M9289372 16034233c-238500,-96230 -1058103,-623658 -1379659,-795833 -122832,-65764 -75722,-14082 -132836,-110366l-495324 -910769c45487,32766 13036,8996 51205,47857 5979,6087 22832,24894 28511,31066l369051 443495 1559052 1294550zm712993 1403591c-146111,-15436 -2016330,-1081458 -2291460,-1240413 -347181,-200585 -236615,-57245 -453422,-414453 -52198,-86010 -119824,-176030 -173014,-261094l-881289 -1375534 467636 -168589 886237 1641546c30673,32420 454361,251790 542996,299062l2212144 1148924c-67657,363372 -217292,804712 -313560,1173871 -142094,544920 -123656,342226 205064,1055988 309859,672823 645682,1367854 983190,1986849 266065,400163 578956,807614 830092,1222537l621942 924505c72851,110766 151328,205342 214929,294776l-2466928 -4935241c27449,28234 48342,46495 81663,79223l81277 91243c85410,-124371 383211,-1065753 471768,-1332479 67557,-203495 -81131,-190667 -323656,-508821 -101324,-132921 -103794,-77369 -285319,-311914 -96045,-124110 -90866,-56622 -285011,-312160 -109888,-144648 -100554,-68988 -285026,-312321 -82047,-108234 -72790,-75768 -169412,-151705l597309 -3025045 -4300556 1033771c20454,91859 620326,908730 746860,1115672l765967 1108939c152297,137230 1748664,843712 2176261,1080073l233029 126742c125341,18092 29050,49642 110289,-33952z"/>
     <path class="fil11" d="M4050967 12424576c931,-291198 -95491,-663404 -210151,-907807 -292283,-622988 -2555663,-5407941 -2629630,-5484886 -55283,82271 -147796,301694 -191990,403265 -117561,270181 -113244,189235 30350,434099 137669,234768 302418,539587 426428,795163 125964,259616 288496,540733 425365,796086 140901,262879 282618,541388 430437,790908 144263,243502 301032,538086 429636,792639l1289555 2380533z"/>
    </g>
    <g>
     <path class="fil12" d="M16551157 8601705c152774,-7834 1219451,339286 1467555,406674 440425,119623 361317,54859 464434,491329 229312,970685 535400,2017446 767868,3008300l144356 561526c54713,191790 22462,155753 -22501,207950 -51605,-91651 -308097,-415561 -406658,-489736 -66234,-49851 -31843,-8127 -95437,-66419l-208789 -253690c-70174,-80755 -92321,-69689 -159185,-138039 -111459,-113921 -171436,-219454 -297400,-327373 44871,282702 180439,710930 251128,996918l906406 3516121c16,126264 -1003536,1766409 -1143067,2015222l-805867 1392956c-43679,75091 -83171,131167 -122456,203002l-928868 1596152c-354792,637771 -808476,1355211 -1163191,1985448 -41278,73336 -213175,363542 -223972,414815 -14713,69881 501834,1734590 567729,1951867l30481 -25695c-15768,-208112 90358,-790499 123871,-1025121 13905,-97331 50458,-424773 79585,-491807l6908370 -9295167c10681,-223648 -563635,-2239670 -663912,-2622973 -226842,-867091 -465850,-1730550 -683420,-2603859 -23894,-95898 -893078,-3508994 -956202,-3572673 -66965,-67542 -32051,95922 -75422,-82655l-204310 -1626355c-347820,146233 -689191,311390 -1022974,462949l419924 2331021c-152497,132082 -2524481,893432 -2948076,1079312z"/>
     <path class="fil12" d="M15225434 4794733c911577,-338578 2223456,-877680 3127723,-1059974 390275,-78676 798857,-141124 1181105,-225580 -80800,-101462 -62308,-71574 -157176,-145010 -316823,-245234 -849207,-855756 -1114403,-1083929l-410975 -349466c-1162298,-1032379 -3264269,-1781139 -4852763,-1883733 55953,62771 2432099,1053179 2799296,1193480 182494,69727 134752,39230 218008,220093 136230,295969 832693,1661561 871115,1844278 -82286,48558 -158808,90035 -214676,161371 -139485,178107 -117568,87949 -217122,190020 -94068,96445 3840,48896 -196877,182386 -135468,90097 -87865,116561 -207581,198716 -269227,184748 -27518,73336 -309220,261578 -161278,107765 -66764,105472 -205541,200809 -219416,150736 -89112,73383 -197223,182402 -52821,53274 -57253,40677 -113690,112559z"/>
    </g>
    <g>
     <path class="fil13" d="M5820663 13710352c615408,52498 1839407,-400448 2473630,-574046 401141,-109796 791793,-241509 1187039,-357824 572684,-168542 635123,-97145 741195,-813585 166581,90781 183841,147119 340887,268081 74883,57676 72574,81293 155345,142563l2050035 1771289 -734416 4243195 -316100 -168781c149727,488898 373699,1019104 551514,1509495 179501,495031 356501,997957 542327,1491849l1369432 3735914c175291,462941 101832,227373 182502,335091 15906,21239 120031,296554 151859,361041 214060,433761 1944409,3988127 2048242,4068012l-990431 -3673613 -30481 25695c-65895,-217277 -582442,-1881986 -567729,-1951867 10797,-51273 182694,-341479 223972,-414815 354715,-630237 808399,-1347677 1163191,-1985448l928868 -1596152c39285,-71835 78777,-127911 122456,-203002l805867 -1392956c139531,-248813 1143083,-1888958 1143067,-2015222l-906406 -3516121c-70689,-285988 -206257,-714216 -251128,-996918 125964,107919 185941,213452 297400,327373 66864,68350 89011,57284 159185,138039l208789 253690c63594,58292 29203,16568 95437,66419 98561,74175 355053,398085 406658,489736 44963,-52197 77214,-16160 22501,-207950l-144356 -561526c-232468,-990854 -538556,-2037615 -767868,-3008300 -103117,-436470 -24009,-371706 -464434,-491329 -248104,-67388 -1314781,-414508 -1467555,-406674l-7142869 2562727 30912 1325915c-125441,95530 -2217431,795202 -2673262,966184 -291352,109288 -701219,145095 -945275,253821z"/>
     <path class="fil13" d="M4869901 1826895c1618752,-322433 2877618,-652677 4409875,124240 743789,377139 1865525,1213603 1751443,2172468 -40662,341756 -458217,742412 -717056,937133l-1341437 966338c-1355373,877441 -2712793,1651149 -4135792,2434446 -171636,94483 -767406,369420 -859072,481187l11247572 -4147974c56437,-71882 60869,-59285 113690,-112559 108111,-109019 -22193,-31666 197223,-182402 138777,-95337 44263,-93044 205541,-200809 281702,-188242 39993,-76830 309220,-261578 119716,-82155 72113,-108619 207581,-198716 200717,-133490 102809,-85941 196877,-182386 99554,-102071 77637,-11913 217122,-190020 55868,-71336 132390,-112813 214676,-161371 -38422,-182717 -734885,-1548309 -871115,-1844278 -83256,-180863 -35514,-150366 -218008,-220093 -367197,-140301 -2743343,-1130709 -2799296,-1193480 -1158458,-46826 -1245176,-83494 -2385904,16661 -1344300,118030 -2767145,505096 -4023603,972755 -307596,114490 -591483,238377 -886767,362772 -113014,47610 -671246,302263 -784290,386350 -32613,24255 -26849,20146 -48480,41316z"/>
    </g>
    <path class="fil14" d="M11015836 19517063c138861,186450 285980,270413 407273,542480l1727457 3990121 -1320052 -2496671c-211605,-426035 -443572,-861365 -660834,-1268208 -129681,-242856 -633046,-1101913 -637709,-1301360 101855,65518 91358,58438 147811,137892l221301 266281c69050,74152 57292,52328 114753,129465zm171051 1766918c-42140,122240 77299,323 -66795,83402 -56145,-152791 -709299,-1125276 -835656,-1341199l-119947 -206241c-48341,-83117 -49188,-68219 -98345,-142186l-258247 -470106c-115068,-196954 -65718,-187596 -200362,-286565 -98177,-173837 -68727,-147465 8595,-360887l257600 -721157c76507,-219647 54545,-293391 160193,-312329 -9727,-138462 -8919,-66857 -31558,-88889 -81239,83594 15052,52044 -110289,33952l-233029 -126742c-427597,-236361 -2023964,-942843 -2176261,-1080073l-765967 -1108939c-126534,-206942 -726406,-1023813 -746860,-1115672l4300556 -1033771 -597309 3025045c96622,75937 87365,43471 169412,151705 184472,243333 175138,167673 285026,312321 194145,255538 188966,188050 285011,312160 181525,234545 183995,178993 285319,311914 242525,318154 391213,305326 323656,508821 -88557,266726 -386358,1208108 -471768,1332479l-81277 -91243c-33321,-32728 -54214,-50989 -81663,-79223l2466928 4935241c-63601,-89434 -142078,-184010 -214929,-294776l-621942 -924505c-251136,-414923 -564027,-822374 -830092,-1222537zm-5366224 -7573629l-243487 48558 712838 1334803c233099,438494 473353,892024 722850,1313749 63233,106888 98623,214892 171498,316947 68657,96137 176184,118630 335169,180708 325542,127119 2035837,869000 2191313,900527l-724058 1282106c63778,76692 86649,102371 140416,173799l566397 628121c70189,89334 84894,70843 153552,143717l958111 1132625c26410,36360 26802,46641 55837,80808l1450410 2050998c312044,460548 540833,745251 851554,1265915 607420,1017818 1207130,2015121 1811850,3020428 304111,505581 600864,1005090 906068,1510071 113652,188058 850600,1451718 919549,1507602l-236376 -879188c-103833,-79885 -1834182,-3634251 -2048242,-4068012 -31828,-64487 -135953,-339802 -151859,-361041 -80670,-107718 -7211,127850 -182502,-335091l-1369432 -3735914c-185826,-493892 -362826,-996818 -542327,-1491849 -177815,-490391 -401787,-1020597 -551514,-1509495l316100 168781 734416 -4243195 -2050035 -1771289c-82771,-61270 -80462,-84887 -155345,-142563 -157046,-120962 -174306,-177300 -340887,-268081 -106072,716440 -168511,645043 -741195,813585 -395246,116315 -785898,248028 -1187039,357824 -634223,173598 -1858222,626544 -2473630,574046z"/>
    <path class="fil15" d="M2761412 10044043c-128604,-254553 -285373,-549137 -429636,-792639 -147819,-249520 -289536,-528029 -430437,-790908 -136869,-255353 -299401,-536470 -425365,-796086 -124010,-255576 -288759,-560395 -426428,-795163 -143594,-244864 -147911,-163918 -30350,-434099 44194,-101571 136707,-320994 191990,-403265 73967,76945 2337347,4861898 2629630,5484886 114660,244403 211082,616609 210151,907807l-1289555 -2380533zm536878 -546959c-317347,-643281 -625551,-1366477 -968785,-2006257 -162232,-302394 -332990,-690391 -480463,-1012109 -151228,-329897 -334515,-660795 -471991,-986221l416100 335799c123525,101070 178985,303426 247896,482442l850223 2136823c123894,315253 316361,736786 407020,1049523zm-203510 -5655806c42209,-54206 43509,-73298 94283,-123756 59569,-59208 40862,-24125 95114,-93913 91897,-118208 535277,-635925 605081,-670700l3891336 -722765c426111,-70404 302017,-106234 614931,116661 321663,229135 676078,452706 997057,685674l742958 506189c89173,59862 194537,123694 227827,183102 -68057,69442 -56060,53959 -118554,102624l-833886 712616c-46364,36214 -62986,38007 -110204,80977l-2071813 1755714 -1149470 777671c-527590,346150 -1868603,1202283 -2299832,1528125 -91590,69211 -104341,116768 -195145,184364l-201494 168812c-80785,-72829 -719918,-1547433 -830354,-1793336l-820534 -1807287 1362699 -1590772zm1775121 -2014383c-299132,83171 -1279513,750753 -1597960,1023544l-350144 301632c-57607,68504 -55791,64410 -123809,120116 -283357,232083 -808607,872701 -856279,908892 -102440,77753 -1054356,584504 -1156958,608883l-426796 2251060c64663,19715 351667,203309 392098,288419 104479,1655 88257,24348 210205,118015 99977,76784 85372,47842 150574,148343l648590 1170470c137562,261263 294130,520949 434277,787345 116391,221232 345542,580187 416631,791961l168735 270552c-27980,20331 -45164,58922 -46926,61031 137561,46557 94221,19400 167196,152613 74698,136361 299085,483965 268442,565035l19877 46057 38231 -19231c83917,153129 484819,855132 499094,961089 43678,30827 916179,1478013 951431,1773928l184772 1421614c70512,729191 200285,1511834 294561,2249651 49411,386697 102709,747183 151920,1131879 33921,265164 147511,909738 132328,1136072l81532 541234 157661 1166738c6880,-211328 -18491,-408744 -28418,-614054l-35114 -448028c-10896,-128750 -12897,-117215 17884,-157962 -56053,-60469 -24310,79754 -44617,-123825 -3509,-35213 -3155,-104463 -7195,-150366 -9304,-105741 -18785,-195884 -21116,-298531 -64702,-646067 -114583,-1346601 -150805,-1992621 -19254,-343372 -54114,-678310 -82448,-1021397 -21670,-262371 -82493,-779349 -58769,-1021682 -53243,-87834 -100631,-1144021 -117161,-1340752 -50796,-604435 -45648,-629260 -291259,-1151840 -115737,-246242 -846683,-1842854 -860888,-1952666 -37184,-125126 -653962,-1414342 -757903,-1712035 90058,48403 184672,187057 259547,274307l256723 250997 74206 -1321760c40169,-28357 102409,-63432 146011,-78915 91666,-111767 687436,-386704 859072,-481187 1422999,-783297 2780419,-1557005 4135792,-2434446l1341437 -966338c258839,-194721 676394,-595377 717056,-937133 114082,-958865 -1007654,-1795329 -1751443,-2172468 -1532257,-776917 -2791123,-446673 -4409875,-124240z"/>
    <path class="fil16" d="M23104527 25112561c8065,-381502 -63925,-986545 -100362,-1383260 -39962,-434969 -63986,-889369 -99485,-1330518 -20646,-256607 -273106,-3256150 -247219,-3360660l894117 -1283083c56776,-80585 94652,-138138 157599,-222533l373669 -522072c231020,-320194 -107911,-728429 -160624,-1220428 16953,18553 61693,59777 90735,94329 41185,48996 40647,54206 86003,105233l172059 207742c342741,431153 145864,191736 202540,578648 40062,-150520 11882,-369436 16422,-539378 11374,-425951 -14552,-310960 -347604,-778765 -87080,-122324 -163726,-231967 -253484,-343679l-725528 -984729c-77876,-107627 -167619,-263541 -256907,-337239 42085,244125 454384,1422922 450306,1523715 -2563,63394 -136723,232352 -183549,296454l-219146 296600c-80832,110412 -134784,176699 -207943,280586l-1261613 1724524c-89504,110735 -132436,188796 -219116,296800 -83556,104110 -126588,173814 -204518,284287l-232575 293384 1964456 5537390c80008,226535 222163,698195 311767,786652z"/>
    <path class="fil17" d="M23104527 25112561c51012,69258 1077811,456055 1222891,479856l146141 -8816458c-56676,-386912 140201,-147495 -202540,-578648l-172059 -207742c-45356,-51027 -44818,-56237 -86003,-105233 -29042,-34552 -73782,-75776 -90735,-94329 52713,491999 391644,900234 160624,1220428l-373669 522072c-62947,84395 -100823,141948 -157599,222533l-894117 1283083c-25887,104510 226573,3104053 247219,3360660 35499,441149 59523,895549 99485,1330518 36437,396715 108427,1001758 100362,1383260z"/>
    <path class="fil18" d="M1075587 15439694l-89681 -97623c-5864,-7395 -13105,-16737 -18907,-25625 137053,35375 247773,60908 390159,118669 129620,52590 203272,140232 340325,151636 5987,-3986 17184,-13013 20385,-7087l59192 -22871c56491,-32105 6326,62902 66495,-71374l165234 -567274c58553,-215946 -88612,-580572 -141894,-806167 -121578,-514808 -142648,-699126 89573,-1204568 69612,-151521 -17006,-186742 -89827,-328798 -169235,-257200 -45818,-580102 -116261,-787583 -88042,-259347 -588013,-178900 -331205,-1054948 -178170,42616 -284526,108842 -454338,47934 -129066,-46303 -258370,-112790 -390344,-155707 94829,201463 201986,360371 306142,564181 82139,160724 230405,378955 291436,524135 53636,127580 -111420,443834 -164910,597332 -262233,752554 -655417,1737229 -879211,2434469 -53383,166319 70981,445366 160224,600434 438216,-3694 198192,-139355 787413,90835z"/>
    <path class="fil19" d="M467459 9893184c-58831,-40339 -149151,-139354 -130120,-209397 21931,-80731 339324,-387951 408682,-675585 83478,-346212 222271,-849169 258015,-1179528 123341,122417 867107,1732873 888554,1784055 -364581,246219 -971186,307550 -1425131,280455zm-348520 5673228c133336,-20962 281178,-69881 404518,-95752 232999,-48873 163649,-92082 402418,-6003 136938,49366 596940,189151 692654,254807 0,-68588 -17822,-55152 48165,-46241 -201332,-96499 -362402,-190782 -591107,-233529 -589221,-230190 -349197,-94529 -787413,-90835 -89243,-155068 -213607,-434115 -160224,-600434 223794,-697240 616978,-1681915 879211,-2434469 53490,-153498 218546,-469752 164910,-597332 -61031,-145180 -209297,-363411 -291436,-524135 -104156,-203810 -211313,-362718 -306142,-564181 131974,42917 261278,109404 390344,155707 169812,60908 276168,-5318 454338,-47934 -256808,876048 243163,795601 331205,1054948 70443,207481 -52974,530383 116261,787583l68134 -88126c65056,-154653 -41108,-281356 102486,-358532 -44117,-122801 -99300,-196376 -122140,-342233 -20177,-128834 955,-277277 -20823,-402125l-85733 -54237c-120070,17061 -204826,-33975 -272753,-83725 -18961,-139700 -3424,-173860 40739,-302717 70312,136099 20416,404465 256485,337854 -136907,-114260 -27534,-236376 83978,-302317 148527,22108 463619,215445 593346,290790 233391,135568 342049,200139 657417,121562 30643,-81070 -193744,-428674 -268442,-565035 -72975,-133213 -29635,-106056 -167196,-152613l-881204 -370752 -802635 377755c-190844,-103871 -413345,-238293 -593754,-365596 162709,-111651 1329017,-334730 1598206,-364680 108373,71543 190366,136807 297146,203417l260432 188273c-71089,-211774 -300240,-570729 -416631,-791961 -140147,-266396 -296715,-526082 -434277,-787345l-648590 -1170470c-65202,-100501 -50597,-71559 -150574,-148343 -121948,-93667 -105726,-116360 -210205,-118015 -12420,343395 -115114,844790 -166126,1197381 -115768,800142 -596778,1254280 -519410,1470526l663597 1401244c230035,515439 309189,395562 94683,1029985 -90905,268859 -824628,2441165 -822789,2558125 2216,141401 91858,413469 118931,579710z"/>
    <path class="fil20" d="M10002365 17437824c22639,22032 21831,-49573 31558,88889 4156,8034 6241,5179 34098,31697 25102,23894 10066,769 35876,35629 -63086,175022 -424196,1273341 -496362,1327047 134644,98969 85294,89611 200362,286565l258247 470106c49157,73967 50004,59069 98345,142186l119947 206241c126357,215923 779511,1188408 835656,1341199 144094,-83079 24655,38838 66795,-83402 -337508,-618995 -673331,-1314026 -983190,-1986849 -328720,-713762 -347158,-511068 -205064,-1055988 96268,-369159 245903,-810499 313560,-1173871l-2212144 -1148924c-88635,-47272 -512323,-266642 -542996,-299062l-886237 -1641546 -467636 168589 881289 1375534c53190,85064 120816,175084 173014,261094 216807,357208 106241,213868 453422,414453 275130,158955 2145349,1224977 2291460,1240413z"/>
    <path class="fil21" d="M4861182 15578263l-184772 -1421614c-35252,-295915 -907753,-1743101 -951431,-1773928 -54252,934840 -158270,1076749 -94491,2143218 15383,257246 24040,496316 51105,748845 4186,-7480 9042,-27211 10758,-23363 1700,3855 7933,-16992 10134,-23594l33267 -152044c17007,14621 1005037,498302 1125430,502480z"/>
    <path class="fil22" d="M13150566 24049664l-1727457 -3990121c-121293,-272067 -268412,-356030 -407273,-542480 -57461,-77137 -45703,-55313 -114753,-129465l-221301 -266281c-56453,-79454 -45956,-72374 -147811,-137892 4663,199447 508028,1058504 637709,1301360 217262,406843 449229,842173 660834,1268208l1320052 2496671z"/>
    <path class="fil23" d="M2732139 10677158c1762,-2109 18946,-40700 46926,-61031l-168735 -270552 -260432 -188273c-106780,-66610 -188773,-131874 -297146,-203417 -269189,29950 -1435497,253029 -1598206,364680 180409,127303 402910,261725 593754,365596l802635 -377755 881204 370752z"/>
    <path class="fil24" d="M118939 15566412c56822,114183 71597,82186 307042,179447 120016,49573 237800,106788 359701,156361 245311,99769 483496,238870 709453,332375l685336 -279085 37614 9557c-82732,-116076 -472607,-209150 -599556,-245603 -95714,-65656 -555716,-205441 -692654,-254807 -238769,-86079 -169419,-42870 -402418,6003 -123340,25871 -271182,74790 -404518,95752z"/>
    <path class="fil25" d="M1968734 17883551l735417 199278c-69004,152505 -136214,143379 -300694,239608l-93551 58739c-3225,80223 -3710,162878 -5341,244133 -739,37161 -3978,102271 -1485,136730 7718,106688 -10335,42155 26095,123002 178138,-133367 65094,-133429 469413,-409559l374276 -276762c73021,-56907 79023,-45441 148796,-104417l14637 -30651c-302148,-83371 -662327,-208396 -954948,-305934 -133652,-44548 -355877,-94929 -460702,-166118l-268574 -220617c-77307,-68773 -41278,19200 -67365,-95460l-115868 394515c160101,65579 345257,202932 499894,213513z"/>
    <path class="fil26" d="M2329175 18885041l520987 158677 14436 720503 453823 -841481c-84395,56868 -249113,126888 -385466,97399 52975,-50781 59031,-45133 129720,-90373l104618 -83025 154367 -752438c-69773,58976 -75775,47510 -148796,104417l-374276 276762c-404319,276130 -291275,276192 -469413,409559z"/>
    <path class="fil27" d="M2037261 12131954c49035,60370 96161,125765 178377,181132 200101,-52443 543150,-286019 646829,-392829l-119693 -156769 182786 2516c-258239,-109889 -721342,-382248 -1031262,-378408 21778,124848 646,273291 20823,402125 22840,145857 78023,219432 122140,342233z"/>
    <path class="fil28" d="M1808565 11333359l85733 54237c309920,-3840 773023,268519 1031262,378408l-182786 -2516 119693 156769c-103679,106810 -446728,340386 -646829,392829 -82216,-55367 -129342,-120762 -178377,-181132 -143594,77176 -37430,203879 -102486,358532l19246 92474c137277,-121624 699164,-80639 1171101,-650907l-9519 69012c95284,-50912 99862,-80231 240086,-55606l-59431 -68573c-65217,24825 -46056,-16153 -154398,-95645 -282225,-207073 -800381,-601688 -1162298,-557871 -131497,15922 -136338,75861 -170997,109989z"/>
    <path class="fil29" d="M9828451 20366424c-259431,-327566 -187188,-319293 -911254,-387243 84448,92444 273014,173653 386943,244288 187349,116153 286796,97422 524311,142955z"/>
    <path class="fil30" d="M19798588 19955857c52374,81993 75037,130389 129089,205334l409913 577447c-22824,-64425 -325573,-877441 -394761,-944352 -89019,71251 -88973,83402 -144241,161571z"/>
    <path class="fil31" d="M2309906 18381176l93551 -58739c164480,-96229 231690,-87103 300694,-239608l-735417 -199278c72752,82440 370444,219401 469229,244557 -37384,63509 1147,8311 -42378,51597 -102117,101555 -81070,53505 -85679,201471z"/>
    <path class="fil32" d="M1075587 15439694c228705,42747 389775,137030 591107,233529 151674,78384 312652,83509 499194,76314 -105679,-76306 -328320,-141670 -468405,-162786 -137053,-11404 -210705,-99046 -340325,-151636 -142386,-57761 -253106,-83294 -390159,-118669 5802,8888 13043,18230 18907,25625l89681 97623z"/>
    <path class="fil33" d="M3167293 18846741l-104618 83025c-70689,45240 -76745,39592 -129720,90373 136353,29489 301071,-40531 385466,-97399 30588,-91251 106572,-151574 142370,-242933 -85217,55422 -194114,108134 -293498,166934z"/>
   </g>
   <g>
    <path class="fil0" d="M12834104 25434417c107373,76161 273206,220355 349436,330413 160570,231821 330113,229513 573315,621804 233629,376854 445904,809214 674962,1197842l748368 1328947 542149 -82378c-250058,-415823 -496231,-829284 -747421,-1246884 -604720,-1005307 -1204430,-2002610 -1811850,-3020428 -310721,-520664 -539510,-805367 -851554,-1265915l-1450410 -2050998c-29035,-34167 -29427,-44448 -55837,-80808l-958111 -1132625c-68658,-72874 -83363,-54383 -153552,-143717l-566397 -628121c-53767,-71428 -76638,-97107 -140416,-173799l724058 -1282106c-155476,-31527 -1865771,-773408 -2191313,-900527 -158985,-62078 -266512,-84571 -335169,-180708 -72875,-102055 -108265,-210059 -171498,-316947 -249497,-421725 -489751,-875255 -722850,-1313749l-712838 -1334803 243487 -48558c244056,-108726 653923,-144533 945275,-253821 455831,-170982 2547821,-870654 2673262,-966184l-30912 -1325915 7142869 -2562727c423595,-185880 2795579,-947230 2948076,-1079312l-419924 -2331021c239777,-108873 483472,-224749 730661,-335608l0 -839272 -373561 -734455 -158454 0c34814,30420 68019,58046 99131,82132 94868,73436 76376,43548 157176,145010 -382248,84456 -790830,146904 -1181105,225580 -904267,182294 -2216146,721396 -3127723,1059974l-11247572 4147974c-43602,15483 -105842,50558 -146011,78915l-74206 1321760 -256723 -250997c-74875,-87250 -169489,-225904 -259547,-274307 103941,297693 720719,1586909 757903,1712035 349128,540671 636278,1220451 974517,1785355 340986,569483 621849,1195403 955533,1786833 331698,587890 625566,1221875 954763,1813882 142510,256284 112290,201902 394107,311313 287535,111628 1319075,501141 1452534,583720l-1078481 1853251c-63617,103009 37507,27510 -102032,88280l-1194872 518079 1323345 0 -17876 -16353c123233,-62609 341849,-80924 497886,-109727 626020,-115591 396708,-107096 625605,111228 272313,259731 115937,235614 347635,277577l783643 135806c265242,43694 256315,95553 378686,248358l146649 179109c45826,53482 31612,26795 76522,85956l774663 935410c39076,53128 30419,41808 71989,90927 36122,42655 24918,12421 57561,79247 72705,73782 824197,1437843 899557,1569825 154591,270759 303849,533738 451122,797680 142363,255153 321194,527920 437962,781419 -129119,-72298 -236730,-194545 -321863,-299663l-322710 -275661c-59985,-57545 -46164,-62909 -96068,-120047 -32051,-36699 -61024,-56768 -100986,-89104 -326727,-264387 -151936,-130781 -318470,-305749 -31635,-33236 -65871,-56999 -103017,-87273 -332029,-270651 -261016,-263009 -405942,-381286 -331867,-270852 -257385,-260132 -421448,-392968 -69781,-56499 -164187,-123956 -223033,-185126 -51597,-53636 -44394,-67249 -95253,-120770l-326950 -271460c-92151,-88973 -23771,-67834 -197323,-208996 -211928,-172375 -331167,-329644 -416623,-373522l-365050 -340840 855371 1245422c14652,-43509 29873,-81101 45918,-110674 90789,25926 240817,187258 317054,255823 254845,229204 187681,208550 288928,307766 178569,174991 481556,393376 626074,569144 276600,336400 648860,595000 760672,732415 249351,306443 232714,220563 444527,449698zm10832542 -70312c-276069,-106680 -537040,-217492 -562119,-251544 -89604,-88457 -231759,-560117 -311767,-786652l-1964456 -5537390 232575 -293384c77930,-110473 120962,-180177 204518,-284287 86680,-108004 129612,-186065 219116,-296800l1261613 -1724524c73159,-103887 127111,-170174 207943,-280586l118846 -160847 -405181 -487182 -6890555 9271196c-29127,67034 -65680,394476 -79585,491807 -33513,234622 -139639,817009 -123871,1025121l726005 2694278 6930917 -1053101 340171 0 95830 -2326105zm-843898 -22082068l-81724 0 16884 136169 64840 -136169zm-4193791 -667821l-24017 0 24017 24702 0 -24702zm-12916729 17935456l-88434 46926 88434 0 0 -46926zm10427399 4836650c-106903,-421934 -127257,-229143 193999,-705328l1963163 -2760304c68988,-104625 138708,-202971 212952,-302995 190205,-256253 658056,-976995 837918,-1143452 40670,-37638 9835,-17707 59108,-53744l581079 766467c209005,296369 150867,226334 769399,232506 123464,220647 636102,1898907 710700,2221456 92097,398178 544581,2175299 569413,2387251l-858379 -1336112c-82702,-143686 -175145,-282717 -272760,-433014l-1089501 -1750873 -2421118 1904471c-52389,44140 -55945,42078 -107765,82278l-1148208 891393zm3658961 -5430465c55268,-78169 55222,-90320 144241,-161571 69188,66911 371937,879927 394761,944352l-409913 -577447c-54052,-74945 -76715,-123341 -129089,-205334zm-9970137 410567c-237515,-45533 -336962,-26802 -524311,-142955 -113929,-70635 -302495,-151844 -386943,-244288 724066,67950 651823,59677 911254,387243zm10903846 -168942c-425742,-964898 -462395,-830785 -109935,-1157381l1758930 4981490 -1648995 -3824109zm-20216081 12631648l35014 110859 36675 -3332 -71689 -107527zm-97707 -374607l-58654 -117299 58654 182478 0 -65179zm32536 -23412554c15559,-42009 30496,-85388 44555,-130174l-44555 22278 0 107896zm7693821 2729168c-165988,-51243 -214076,-64009 -303841,74352 -159070,245165 35729,844459 401317,439217 64764,36099 71605,71828 155645,103963 -4086,-213390 -146264,-825659 -107880,-1001520l233591 -73828 65479 417408 307981 -95814 -49450 -439494 253353 -75976 155660 1130948 -263795 66233 -68188 -438755 -305634 95383c9627,88211 17853,158993 32197,245434 9050,54544 32528,176715 7311,233960l-199093 73052 -80801 -91975c-108111,217831 -442241,342672 -653954,167958 -173760,-143402 -232759,-408482 -199593,-700265l-237908 70197 121363 903905 -258454 81301 -132167 -883690 -254907 92329 120932 901004 -264872 79546 -148766 -1009516 -36776 1055357c-24132,54767 -281117,120816 -332275,131566l-209489 -680118 -33429 751577c-68911,60839 -235306,113529 -325665,123848l-317392 -1066822 257946 -85949c88211,144318 141594,611399 216823,798418l47010 -902905 228520 -66487 264903 783635 -9542 -875094 1288339 -442557c22517,43548 9665,33760 23686,71421l26118 62616c1555,-4155 5741,14775 10112,21316 136422,-325888 379747,-394730 676032,-264810 -38646,143555 -70351,73828 -100447,219631zm261032 -1642123c2594,-3047 11282,-5748 13167,-14444 1885,-8703 8688,-9734 13305,-14344l190028 142794c45033,-83709 446866,-2674055 454646,-2908254l902720 -304987c83340,122940 207427,428674 269374,576000l711653 1566348c14306,31158 21447,45217 40416,75198 23086,36484 25433,36160 43255,56845l-337246 -2540002c580464,-133860 1487363,-694547 2052444,-338778 239023,150489 407904,509121 396500,907730 -12243,427774 -250236,693146 -435400,867952l321340 385281c53198,75237 32575,48003 99462,117561l312722 366112c77661,85779 8949,62124 105010,106857l-429937 -3247255 746760 -242210 355176 2588530 1107739 -365173 91181 643212c-52759,48926 -2483026,903035 -2654278,927068 -143363,-158300 -250866,-326781 -369874,-475839 -70743,-88612 -113544,-145741 -175561,-231675 -58630,-81239 -127280,-169443 -187450,-208596l-295768 99631 150304 1131409 -1355196 464642 -266003 -684320 -836949 289343 -67072 821789c-205534,19030 -561834,197831 -783443,250959 -202217,48480 -70912,31235 -343603,170297 -126749,64633 -221663,93290 -362502,124010 -913624,199269 -1253141,-577332 -1330710,-647583 58615,385927 85264,520464 -114683,860242 -101631,172721 -299655,357278 -532422,473061 -598571,297747 -1390333,100624 -1530341,-129950 18015,-52721 321694,-514062 377470,-589822 206334,96661 453838,236923 746059,151382 281294,-82355 471337,-399571 153852,-533361 -204241,-86072 -558555,-110251 -783358,-190297 -587467,-209166 -741742,-821835 -575039,-1241821 82847,-208720 259670,-444281 427912,-550892 676979,-428997 999827,-200631 1474527,-48580l-307442 622134c-237085,-53751 -419802,-215083 -703004,-54960 -96746,54699 -165849,142202 -165234,258647 2317,442688 981189,101894 1432596,734393 -109127,-442456 -189528,-637678 -118369,-1125953 73382,-503472 348173,-941997 728921,-1192910 507959,-334745 1164915,-313483 1386355,38985l-370452 546512c-120547,-60500 -261948,-166111 -453784,-104071 -453122,146534 -586436,802812 -482626,1257535 76068,333222 193352,644258 488020,728952 155168,44602 390283,8919 514939,-81770l259893 -283564zm6664329 -4879643c286804,-30042 3654082,-1305292 4135923,-1403976l94098 671076 -776502 255999c64125,443442 122948,882921 185411,1328224 30643,218501 59639,444796 90989,665605 16230,114329 32113,220563 47419,335254 6710,50289 17845,114437 21369,163286l-12997 130189 -727344 246542 -356231 -2598210 -1854629 629884 81917 559448c134237,9611 757002,-245242 955594,-300471l99816 684690c-112166,10365 -377154,110658 -497031,153228 -76877,27296 -421726,138485 -461426,181871l90204 653839 1156204 -388536 95298 666282 -1917945 657856 -450137 -3292080z"/>
    <path class="fil0" d="M11541979 7137828l120954 887091c256115,-86356 766091,-210766 739619,-638040 -35445,-572169 -480356,-322572 -860573,-249051z"/>
    <path class="fil0" d="M9509581 9199676l553508 -185649c-32859,-139685 -409337,-1162437 -463388,-1211771l-90120 1397420z"/>
    <g>
     <path class="fil1" d="M1808565 11333359c34659,-34128 39500,-94067 170997,-109989 361917,-43817 880073,350798 1162298,557871 108342,79492 89181,120470 154398,95645 -148758,-160139 -74344,-153075 -304510,-325365 72428,-84202 53743,-50166 195906,-110658l-19877 -46057c-315368,78577 -424026,14006 -657417,-121562 -129727,-75345 -444819,-268682 -593346,-290790 -111512,65941 -220885,188057 -83978,302317 -236069,66611 -186173,-201755 -256485,-337854 -44163,128857 -59700,163017 -40739,302717 67927,49750 152683,100786 272753,83725z"/>
     <path class="fil1" d="M1954021 12582960c280594,81324 471799,69766 748483,-67280 98469,-48765 55168,-23493 123795,-93559 3847,-3917 9195,-9919 13020,-13859l276284 -407197 9519 -69012c-471937,570268 -1033824,529283 -1171101,650907z"/>
    </g>
    <g>
     <path class="fil2" d="M9289372 16034233l-1559052 -1294550 -369051 -443495c-5679,-6172 -22532,-24979 -28511,-31066 -38169,-38861 -5718,-15091 -51205,-47857l495324 910769c57114,96284 10004,44602 132836,110366 321556,172175 1141159,699603 1379659,795833z"/>
     <path class="fil2" d="M3317120 8361088c-40323,-408705 -193060,-923789 -276084,-1343537 -124464,-629299 -173052,-469106 -508236,-900096 -30327,-39008 -75999,-79723 -87134,-99346l871454 2342979z"/>
    </g>
    <g>
     <path class="fil3" d="M3298290 9497084c-90659,-312737 -283126,-734270 -407020,-1049523l-850223 -2136823c-68911,-179016 -124371,-381372 -247896,-482442l-416100 -335799c137476,325426 320763,656324 471991,986221 147473,321718 318231,709715 480463,1012109 343234,639780 651438,1362976 968785,2006257z"/>
     <path class="fil3" d="M9607535 18921086c72166,-53706 433276,-1152025 496362,-1327047 -25810,-34860 -10774,-11735 -35876,-35629 -27857,-26518 -29942,-23663 -34098,-31697 -105648,18938 -83686,92682 -160193,312329l-257600 721157c-77322,213422 -106772,187050 -8595,360887z"/>
    </g>
    <g>
     <path class="fil4" d="M3187654 11440863c-142163,60492 -123478,26456 -195906,110658 230166,172290 155752,165226 304510,325365l59431 68573c-140224,-24625 -144802,4694 -240086,55606l-276284 407197c-3825,3940 -9173,9942 -13020,13859 -68627,70066 -25326,44794 -123795,93559 -276684,137046 -467889,148604 -748483,67280l-19246 -92474 -68134 88126c72821,142056 159439,177277 89827,328798 -232221,505442 -211151,689760 -89573,1204568 53282,225595 200447,590221 141894,806167l-165234 567274c-60169,134276 -10004,39269 -66495,71374l-59192 22871c-3201,-5926 -14398,3101 -20385,7087 140085,21116 362726,86480 468405,162786 -186542,7195 -347520,2070 -499194,-76314 -65987,-8911 -48165,-22347 -48165,46241 126949,36453 516824,129527 599556,245603 6403,-5309 13852,-12505 18323,-16929 4394,-4348 12635,-11436 17845,-16822l80793 -130666c9342,-48527 -5210,-170013 -10350,-222264l-298770 -150897c29473,-190536 85010,-370852 128735,-558155 79384,-340033 -68273,-1459522 -113460,-1836045 104695,-71481 299324,-112744 429698,-153452 160739,-50188 532938,-118169 634908,-231559 261948,-291252 31228,-86849 393907,-423103l-212198 3088493 1426439 822566 310860 3848234 -362364 301009c-104841,84102 -295746,202802 -342980,312599l-1030947 -368336 412261 -1903732 -149381 -27464c-61193,-310644 10557,-294207 -272329,-410491 -418779,-172136 -1032363,-449798 -1414889,-585643 -9665,-268820 -55591,-609152 -51735,-865998 3055,-203872 290012,-302933 368020,-480902l-685336 279085c47011,58230 81870,69527 109304,179231 23332,93275 23371,191367 26010,284819 6164,218115 13659,369143 -45741,576878 26087,114660 -9942,26687 67365,95460l268574 220617c104825,71189 327050,121570 460702,166118 292621,97538 652800,222563 954948,305934l-14637 30651 -154367 752438c99384,-58800 208281,-111512 293498,-166934 -35798,91359 -111782,151682 -142370,242933l-453823 841481 -1331 581641c54867,24148 81893,47419 134945,64172 165833,-40455 1116903,343602 1367408,354861 111089,4994 672023,-381310 838033,-481541 122971,-74245 200301,-63387 236338,-187489 15183,-226334 -98407,-870908 -132328,-1136072 -49211,-384696 -102509,-745182 -151920,-1131879 -94276,-737817 -224049,-1520460 -294561,-2249651 -120393,-4178 -1108423,-487859 -1125430,-502480l-33267 152044c-2201,6602 -8434,27449 -10134,23594 -1716,-3848 -6572,15883 -10758,23363 -27065,-252529 -35722,-491599 -51105,-748845 -63779,-1066469 40239,-1208378 94491,-2143218 -14275,-105957 -415177,-807960 -499094,-961089l-38231 19231z"/>
     <path class="fil4" d="M6921852 18479506c38469,102255 93290,265842 116946,370852l-1271795 527890 -291359 -2871424c86018,150051 170251,539594 236807,739734 265365,797995 -5240,611907 930547,1023444 236168,103863 231582,83886 278854,209504zm-1653266 -2504135c-23724,242333 37099,759311 58769,1021682 28334,343087 63194,678025 82448,1021397 36222,646020 86103,1346554 150805,1992621 66041,23163 33790,38007 133905,-21532 36676,-21816 55453,-41339 98785,-66779 300525,-176408 1257681,-759142 1416227,-889916 -8364,-212413 778,-444272 -12481,-653962 -8250,-130435 -5341,-132351 -113344,-195168l-636902 -341232c-340209,-165503 -281625,-158724 -328989,-320679 -98816,-337900 -186211,-676255 -291683,-1011047 -266988,-847475 -105241,-394191 -576078,-735447 23840,105841 41417,105464 18538,200062z"/>
    </g>
    <g>
     <path class="fil5" d="M5268586 15975371c22879,-94598 5302,-94221 -18538,-200062 470837,341256 309090,-112028 576078,735447 105472,334792 192867,673147 291683,1011047 47364,161955 -11220,155176 328989,320679l636902 341232c108003,62817 105094,64733 113344,195168 13259,209690 4117,441549 12481,653962 -158546,130774 -1115702,713508 -1416227,889916 -43332,25440 -62109,44963 -98785,66779 -100115,59539 -67864,44695 -133905,21532 2331,102647 11812,192790 21116,298531 4040,45903 3686,115153 7195,150366 20307,203579 -11436,63356 44617,123825l1916683 -831046c139539,-60770 38415,14729 102032,-88280l1078481 -1853251c-133459,-82579 -1164999,-472092 -1452534,-583720 -281817,-109411 -251597,-55029 -394107,-311313 -329197,-592007 -623065,-1225992 -954763,-1813882 -333684,-591430 -614547,-1217350 -955533,-1786833 -338239,-564904 -625389,-1244684 -974517,-1785355 14205,109812 745151,1706424 860888,1952666 245611,522580 240463,547405 291259,1151840 16530,196731 63918,1252918 117161,1340752z"/>
     <path class="fil5" d="M2998212 20410034c107765,125764 52643,50858 264510,209204l706536 514600c60201,45148 86064,73682 146688,112013l1405577 -608752 -81532 -541234c-36037,124102 -113367,113244 -236338,187489 -166010,100231 -726944,486535 -838033,481541 -250505,-11259 -1201575,-395316 -1367408,-354861z"/>
    </g>
    <g>
     <path class="fil6" d="M8484359 28756916c-38938,-52466 -664927,-452722 -783735,-470067 61747,-94844 191782,-189912 281002,-257485l1123529 -858426c46679,-38107 88919,-72712 134860,-109465 72766,-58207 80546,-57953 141593,-102709l1529356 -1185392c407443,-321456 298193,-219077 969646,-267596 315169,-22778 641642,-43694 953494,-71359 -211813,-229135 -195176,-143255 -444527,-449698 -111812,-137415 -484072,-396015 -760672,-732415 -144518,-175768 -447505,-394153 -626074,-569144 -101247,-99216 -34083,-78562 -288928,-307766 -76237,-68565 -226265,-229897 -317054,-255823 -135268,249274 -212252,1062906 -378124,1272772 -77030,97446 -164472,203879 -251890,318362l-2221594 2800981c-41971,55345 -75984,94768 -122887,148597 -69127,79323 -76214,96845 -132597,165887l-498740 635916 1693342 294830z"/>
     <path class="fil6" d="M9860610 22325663c15152,-43987 -29750,-68465 143163,-81578 51436,-3902 162002,7534 220317,9981l1197565 34298c-32643,-66826 -21439,-36592 -57561,-79247 -41570,-49119 -32913,-37799 -71989,-90927l-774663 -935410c-44910,-59161 -30696,-32474 -76522,-85956l-146649 -179109c-122371,-152805 -113444,-204664 -378686,-248358l-783643 -135806c-231698,-41963 -75322,-17846 -347635,-277577 -228897,-218324 415,-226819 -625605,-111228 -156037,28803 -374653,47118 -497886,109727l133983 122548c81493,65079 64571,50712 132328,138423 115176,149088 307943,239293 413277,374137 66872,85611 53913,74445 132120,138724 312745,257053 258570,260970 556193,503288 117030,95290 154737,175098 271483,270828l560410 523242z"/>
    </g>
    <g>
     <path class="fil7" d="M16139627 25386322l1148208 -891393c51820,-40200 55376,-38138 107765,-82278l2421118 -1904471 1089501 1750873c97615,150297 190058,289328 272760,433014l858379 1336112c-24832,-211952 -477316,-1989073 -569413,-2387251 -74598,-322549 -587236,-2000809 -710700,-2221456 -618532,-6172 -560394,63863 -769399,-232506l-581079 -766467c-49273,36037 -18438,16106 -59108,53744 -179862,166457 -647713,887199 -837918,1143452 -74244,100024 -143964,198370 -212952,302995l-1963163 2760304c-321256,476185 -300902,283394 -193999,705328z"/>
     <path class="fil7" d="M22381292 24021591l-1758930 -4981490c-352460,326596 -315807,192483 109935,1157381l1648995 3824109z"/>
    </g>
    <g>
     <path class="fil8" d="M2218085 15965067l-37614 -9557c-78008,177969 -364965,277030 -368020,480902 -3856,256846 42070,597178 51735,865998 382526,135845 996110,413507 1414889,585643 282886,116284 211136,99847 272329,410491l149381 27464 -412261 1903732 1030947 368336c47234,-109797 238139,-228497 342980,-312599l362364 -301009 -310860 -3848234 -1426439 -822566 212198 -3088493c-362679,336254 -131959,131851 -393907,423103 -101970,113390 -474169,181371 -634908,231559 -130374,40708 -325003,81971 -429698,153452 45187,376523 192844,1496012 113460,1836045 -43725,187303 -99262,367619 -128735,558155l298770 150897c5140,52251 19692,173737 10350,222264l-80793 130666c-5210,5386 -13451,12474 -17845,16822 -4471,4424 -11920,11620 -18323,16929z"/>
     <path class="fil8" d="M467459 9893184c453945,27095 1060550,-34236 1425131,-280455 -21447,-51182 -765213,-1661638 -888554,-1784055 -35744,330359 -174537,833316 -258015,1179528 -69358,287634 -386751,594854 -408682,675585 -19031,70043 71289,169058 130120,209397z"/>
     <path class="fil8" d="M5767003 19378248l1271795 -527890c-23656,-105010 -78477,-268597 -116946,-370852 -47272,-125618 -42686,-105641 -278854,-209504 -935787,-411537 -665182,-225449 -930547,-1023444 -66556,-200140 -150789,-589683 -236807,-739734l291359 2871424z"/>
    </g>
    <g>
     <path class="fil9" d="M8484359 28756916l7292397 1215904 -1344939 -2388344c-229058,-388628 -441333,-820988 -674962,-1197842 -243202,-392291 -412745,-389983 -573315,-621804 -76230,-110058 -242063,-254252 -349436,-330413 -311852,27665 -638325,48581 -953494,71359 -671453,48519 -562203,-53860 -969646,267596l-1529356 1185392c-61047,44756 -68827,44502 -141593,102709 -45941,36753 -88181,71358 -134860,109465l-1123529 858426c-89220,67573 -219255,162641 -281002,257485 118808,17345 744797,417601 783735,470067z"/>
     <path class="fil9" d="M8847708 11195421l49450 439494 -307981 95814 -65479 -417408 -233591 73828c-38384,175861 103794,788130 107880,1001520 -84040,-32135 -90881,-67864 -155645,-103963 -365588,405242 -560387,-194052 -401317,-439217 89765,-138361 137853,-125595 303841,-74352 30096,-145803 61801,-76076 100447,-219631 -296285,-129920 -539610,-61078 -676032,264810 -4371,-6541 -8557,-25471 -10112,-21316l-18446 -42124c-2216,-5702 -5402,-14405 -7672,-20492 -14021,-37661 -1169,-27873 -23686,-71421l-1288339 442557 9542 875094 -264903 -783635 -228520 66487 -47010 902905c-75229,-187019 -128612,-654100 -216823,-798418l-257946 85949 317392 1066822c90359,-10319 256754,-63009 325665,-123848l33429 -751577 209489 680118c51158,-10750 308143,-76799 332275,-131566l36776 -1055357 148766 1009516 264872 -79546 -120932 -901004 254907 -92329 132167 883690 258454 -81301 -121363 -903905 237908 -70197c-33166,291783 25833,556863 199593,700265 211713,174714 545843,49873 653954,-167958l80801 91975 199093 -73052c25217,-57245 1739,-179416 -7311,-233960 -14344,-86441 -22570,-157223 -32197,-245434l305634 -95383 68188 438755 263795 -66233 -155660 -1130948 -253353 75976z"/>
     <path class="fil9" d="M9860610 22325663c85456,43878 204695,201147 416623,373522 173552,141162 105172,120023 197323,208996l326950 271460c50859,53521 43656,67134 95253,120770 58846,61170 153252,128627 223033,185126 164063,132836 89581,122116 421448,392968 144926,118277 73913,110635 405942,381286 37146,30274 71382,54037 103017,87273 166534,174968 -8257,41362 318470,305749 39962,32336 68935,52405 100986,89104 49904,57138 36083,62502 96068,120047l322710 275661c85133,105118 192744,227365 321863,299663 -116768,-253499 -295599,-526266 -437962,-781419 -147273,-263942 -296531,-526921 -451122,-797680 -75360,-131982 -826852,-1496043 -899557,-1569825l-1197565 -34298c-58315,-2447 -168881,-13883 -220317,-9981 -172913,13113 -128011,37591 -143163,81578z"/>
    </g>
    <g>
     <path class="fil10" d="M9599701 7802256c54051,49334 430529,1072086 463388,1211771l-553508 185649 90120 -1397420zm1942278 -664428c380217,-73521 825128,-323118 860573,249051 26472,427274 -483504,551684 -739619,638040l-120954 -887091zm1587378 -1208200l429937 3247255c-96061,-44733 -27349,-21078 -105010,-106857l-312722 -366112c-66887,-69558 -46264,-42324 -99462,-117561l-321340 -385281c185164,-174806 423157,-440178 435400,-867952 11404,-398609 -157477,-757241 -396500,-907730 -565081,-355769 -1471980,204918 -2052444,338778l337246 2540002c-17822,-20685 -20169,-20361 -43255,-56845 -18969,-29981 -26110,-44040 -40416,-75198l-711653 -1566348c-61947,-147326 -186034,-453060 -269374,-576000l-902720 304987c-7780,234199 -409613,2824545 -454646,2908254l-190028 -142794c-4617,4610 -11420,5641 -13305,14344 -1885,8696 -10573,11397 -13167,14444l-259893 283564c-124656,90689 -359771,126372 -514939,81770 -294668,-84694 -411952,-395730 -488020,-728952 -103810,-454723 29504,-1111001 482626,-1257535 191836,-62040 333237,43571 453784,104071l370452 -546512c-221440,-352468 -878396,-373730 -1386355,-38985 -380748,250913 -655539,689438 -728921,1192910 -71159,488275 9242,683497 118369,1125953 -451407,-632499 -1430279,-291705 -1432596,-734393 -615,-116445 68488,-203948 165234,-258647 283202,-160123 465919,1209 703004,54960l307442 -622134c-474700,-152051 -797548,-380417 -1474527,48580 -168242,106611 -345065,342172 -427912,550892 -166703,419986 -12428,1032655 575039,1241821 224803,80046 579117,104225 783358,190297 317485,133790 127442,451006 -153852,533361 -292221,85541 -539725,-54721 -746059,-151382 -55776,75760 -359455,537101 -377470,589822 140008,230574 931770,427697 1530341,129950 232767,-115783 430791,-300340 532422,-473061 199947,-339778 173298,-474315 114683,-860242 77569,70251 417086,846852 1330710,647583 140839,-30720 235753,-59377 362502,-124010 272691,-139062 141386,-121817 343603,-170297 221609,-53128 577909,-231929 783443,-250959l67072 -821789 836949 -289343 266003 684320 1355196 -464642 -150304 -1131409 295768 -99631c60170,39153 128820,127357 187450,208596 62017,85934 104818,143063 175561,231675 119008,149058 226511,317539 369874,475839 171252,-24033 2601519,-878142 2654278,-927068l-91181 -643212 -1107739 365173 -355176 -2588530 -746760 242210z"/>
     <path class="fil10" d="M15070227 5249371l450137 3292080 1917945 -657856 -95298 -666282 -1156204 388536 -90204 -653839c39700,-43386 384549,-154575 461426,-181871 119877,-42570 384865,-142863 497031,-153228l-99816 -684690c-198592,55229 -821357,310082 -955594,300471l-81917 -559448 1854629 -629884 356231 2598210 727344 -246542 12997 -130189c-3524,-48849 -14659,-112997 -21369,-163286 -15306,-114691 -31189,-220925 -47419,-335254 -31350,-220809 -60346,-447104 -90989,-665605 -62463,-445303 -121286,-884782 -185411,-1328224l776502 -255999 -94098 -671076c-481841,98684 -3849119,1373934 -4135923,1403976z"/>
    </g>
    <g>
     <path class="fil11" d="M3317120 8361088l-871454 -2342979c11135,19623 56807,60338 87134,99346 335184,430990 383772,270797 508236,900096 83024,419748 235761,934832 276084,1343537zm-1585039 -2929038l820534 1807287c110436,245903 749569,1720507 830354,1793336l201494 -168812c90804,-67596 103555,-115153 195145,-184364 431229,-325842 1772242,-1181975 2299832,-1528125l1149470 -777671 2071813 -1755714c47218,-42970 63840,-44763 110204,-80977l833886 -712616c62494,-48665 50497,-33182 118554,-102624 -33290,-59408 -138654,-123240 -227827,-183102l-742958 -506189c-320979,-232968 -675394,-456539 -997057,-685674 -312914,-222895 -188820,-187065 -614931,-116661l-3891336 722765c-69804,34775 -513184,552492 -605081,670700 -54252,69788 -35545,34705 -95114,93913 -50774,50458 -52074,69550 -94283,123756l-1362699 1590772z"/>
     <path class="fil11" d="M9289372 16034233c-238500,-96230 -1058103,-623658 -1379659,-795833 -122832,-65764 -75722,-14082 -132836,-110366l-495324 -910769c45487,32766 13036,8996 51205,47857 5979,6087 22832,24894 28511,31066l369051 443495 1559052 1294550zm712993 1403591c-146111,-15436 -2016330,-1081458 -2291460,-1240413 -347181,-200585 -236615,-57245 -453422,-414453 -52198,-86010 -119824,-176030 -173014,-261094l-881289 -1375534 467636 -168589 886237 1641546c30673,32420 454361,251790 542996,299062l2212144 1148924c-67657,363372 -217292,804712 -313560,1173871 -142094,544920 -123656,342226 205064,1055988 309859,672823 645682,1367854 983190,1986849 266065,400163 578956,807614 830092,1222537l621942 924505c72851,110766 151328,205342 214929,294776l-2466928 -4935241c27449,28234 48342,46495 81663,79223l81277 91243c85410,-124371 383211,-1065753 471768,-1332479 67557,-203495 -81131,-190667 -323656,-508821 -101324,-132921 -103794,-77369 -285319,-311914 -96045,-124110 -90866,-56622 -285011,-312160 -109888,-144648 -100554,-68988 -285026,-312321 -82047,-108234 -72790,-75768 -169412,-151705l597309 -3025045 -4300556 1033771c20454,91859 620326,908730 746860,1115672l765967 1108939c152297,137230 1748664,843712 2176261,1080073l233029 126742c125341,18092 29050,49642 110289,-33952z"/>
     <path class="fil11" d="M4050967 12424576c931,-291198 -95491,-663404 -210151,-907807 -292283,-622988 -2555663,-5407941 -2629630,-5484886 -55283,82271 -147796,301694 -191990,403265 -117561,270181 -113244,189235 30350,434099 137669,234768 302418,539587 426428,795163 125964,259616 288496,540733 425365,796086 140901,262879 282618,541388 430437,790908 144263,243502 301032,538086 429636,792639l1289555 2380533z"/>
    </g>
    <g>
     <path class="fil12" d="M16551157 8601705c152774,-7834 1219451,339286 1467555,406674 440425,119623 361317,54859 464434,491329 229312,970685 535400,2017446 767868,3008300l144356 561526c54713,191790 22462,155753 -22501,207950 -51605,-91651 -308097,-415561 -406658,-489736 -66234,-49851 -31843,-8127 -95437,-66419l-208789 -253690c-70174,-80755 -92321,-69689 -159185,-138039 -111459,-113921 -171436,-219454 -297400,-327373 44871,282702 180439,710930 251128,996918l906406 3516121c16,126264 -1003536,1766409 -1143067,2015222l-805867 1392956c-43679,75091 -83171,131167 -122456,203002l-928868 1596152c-354792,637771 -808476,1355211 -1163191,1985448 -41278,73336 -213175,363542 -223972,414815 -14713,69881 501834,1734590 567729,1951867l30481 -25695c-15768,-208112 90358,-790499 123871,-1025121 13905,-97331 50458,-424773 79585,-491807l6908370 -9295167c10681,-223648 -563635,-2239670 -663912,-2622973 -226842,-867091 -465850,-1730550 -683420,-2603859 -23894,-95898 -893078,-3508994 -956202,-3572673 -66965,-67542 -32051,95922 -75422,-82655l-204310 -1626355c-347820,146233 -689191,311390 -1022974,462949l419924 2331021c-152497,132082 -2524481,893432 -2948076,1079312z"/>
     <path class="fil12" d="M15225434 4794733c911577,-338578 2223456,-877680 3127723,-1059974 390275,-78676 798857,-141124 1181105,-225580 -80800,-101462 -62308,-71574 -157176,-145010 -316823,-245234 -849207,-855756 -1114403,-1083929l-410975 -349466c-1162298,-1032379 -3264269,-1781139 -4852763,-1883733 55953,62771 2432099,1053179 2799296,1193480 182494,69727 134752,39230 218008,220093 136230,295969 832693,1661561 871115,1844278 -82286,48558 -158808,90035 -214676,161371 -139485,178107 -117568,87949 -217122,190020 -94068,96445 3840,48896 -196877,182386 -135468,90097 -87865,116561 -207581,198716 -269227,184748 -27518,73336 -309220,261578 -161278,107765 -66764,105472 -205541,200809 -219416,150736 -89112,73383 -197223,182402 -52821,53274 -57253,40677 -113690,112559z"/>
    </g>
    <g>
     <path class="fil13" d="M5820663 13710352c615408,52498 1839407,-400448 2473630,-574046 401141,-109796 791793,-241509 1187039,-357824 572684,-168542 635123,-97145 741195,-813585 166581,90781 183841,147119 340887,268081 74883,57676 72574,81293 155345,142563l2050035 1771289 -734416 4243195 -316100 -168781c149727,488898 373699,1019104 551514,1509495 179501,495031 356501,997957 542327,1491849l1369432 3735914c175291,462941 101832,227373 182502,335091 15906,21239 120031,296554 151859,361041 214060,433761 1944409,3988127 2048242,4068012l-990431 -3673613 -30481 25695c-65895,-217277 -582442,-1881986 -567729,-1951867 10797,-51273 182694,-341479 223972,-414815 354715,-630237 808399,-1347677 1163191,-1985448l928868 -1596152c39285,-71835 78777,-127911 122456,-203002l805867 -1392956c139531,-248813 1143083,-1888958 1143067,-2015222l-906406 -3516121c-70689,-285988 -206257,-714216 -251128,-996918 125964,107919 185941,213452 297400,327373 66864,68350 89011,57284 159185,138039l208789 253690c63594,58292 29203,16568 95437,66419 98561,74175 355053,398085 406658,489736 44963,-52197 77214,-16160 22501,-207950l-144356 -561526c-232468,-990854 -538556,-2037615 -767868,-3008300 -103117,-436470 -24009,-371706 -464434,-491329 -248104,-67388 -1314781,-414508 -1467555,-406674l-7142869 2562727 30912 1325915c-125441,95530 -2217431,795202 -2673262,966184 -291352,109288 -701219,145095 -945275,253821z"/>
     <path class="fil13" d="M4869901 1826895c1618752,-322433 2877618,-652677 4409875,124240 743789,377139 1865525,1213603 1751443,2172468 -40662,341756 -458217,742412 -717056,937133l-1341437 966338c-1355373,877441 -2712793,1651149 -4135792,2434446 -171636,94483 -767406,369420 -859072,481187l11247572 -4147974c56437,-71882 60869,-59285 113690,-112559 108111,-109019 -22193,-31666 197223,-182402 138777,-95337 44263,-93044 205541,-200809 281702,-188242 39993,-76830 309220,-261578 119716,-82155 72113,-108619 207581,-198716 200717,-133490 102809,-85941 196877,-182386 99554,-102071 77637,-11913 217122,-190020 55868,-71336 132390,-112813 214676,-161371 -38422,-182717 -734885,-1548309 -871115,-1844278 -83256,-180863 -35514,-150366 -218008,-220093 -367197,-140301 -2743343,-1130709 -2799296,-1193480 -1158458,-46826 -1245176,-83494 -2385904,16661 -1344300,118030 -2767145,505096 -4023603,972755 -307596,114490 -591483,238377 -886767,362772 -113014,47610 -671246,302263 -784290,386350 -32613,24255 -26849,20146 -48480,41316z"/>
    </g>
    <path class="fil14" d="M11015836 19517063c138861,186450 285980,270413 407273,542480l1727457 3990121 -1320052 -2496671c-211605,-426035 -443572,-861365 -660834,-1268208 -129681,-242856 -633046,-1101913 -637709,-1301360 101855,65518 91358,58438 147811,137892l221301 266281c69050,74152 57292,52328 114753,129465zm171051 1766918c-42140,122240 77299,323 -66795,83402 -56145,-152791 -709299,-1125276 -835656,-1341199l-119947 -206241c-48341,-83117 -49188,-68219 -98345,-142186l-258247 -470106c-115068,-196954 -65718,-187596 -200362,-286565 -98177,-173837 -68727,-147465 8595,-360887l257600 -721157c76507,-219647 54545,-293391 160193,-312329 -9727,-138462 -8919,-66857 -31558,-88889 -81239,83594 15052,52044 -110289,33952l-233029 -126742c-427597,-236361 -2023964,-942843 -2176261,-1080073l-765967 -1108939c-126534,-206942 -726406,-1023813 -746860,-1115672l4300556 -1033771 -597309 3025045c96622,75937 87365,43471 169412,151705 184472,243333 175138,167673 285026,312321 194145,255538 188966,188050 285011,312160 181525,234545 183995,178993 285319,311914 242525,318154 391213,305326 323656,508821 -88557,266726 -386358,1208108 -471768,1332479l-81277 -91243c-33321,-32728 -54214,-50989 -81663,-79223l2466928 4935241c-63601,-89434 -142078,-184010 -214929,-294776l-621942 -924505c-251136,-414923 -564027,-822374 -830092,-1222537zm-5366224 -7573629l-243487 48558 712838 1334803c233099,438494 473353,892024 722850,1313749 63233,106888 98623,214892 171498,316947 68657,96137 176184,118630 335169,180708 325542,127119 2035837,869000 2191313,900527l-724058 1282106c63778,76692 86649,102371 140416,173799l566397 628121c70189,89334 84894,70843 153552,143717l958111 1132625c26410,36360 26802,46641 55837,80808l1450410 2050998c312044,460548 540833,745251 851554,1265915 607420,1017818 1207130,2015121 1811850,3020428 304111,505581 600864,1005090 906068,1510071 113652,188058 850600,1451718 919549,1507602l-236376 -879188c-103833,-79885 -1834182,-3634251 -2048242,-4068012 -31828,-64487 -135953,-339802 -151859,-361041 -80670,-107718 -7211,127850 -182502,-335091l-1369432 -3735914c-185826,-493892 -362826,-996818 -542327,-1491849 -177815,-490391 -401787,-1020597 -551514,-1509495l316100 168781 734416 -4243195 -2050035 -1771289c-82771,-61270 -80462,-84887 -155345,-142563 -157046,-120962 -174306,-177300 -340887,-268081 -106072,716440 -168511,645043 -741195,813585 -395246,116315 -785898,248028 -1187039,357824 -634223,173598 -1858222,626544 -2473630,574046z"/>
    <path class="fil15" d="M2761412 10044043c-128604,-254553 -285373,-549137 -429636,-792639 -147819,-249520 -289536,-528029 -430437,-790908 -136869,-255353 -299401,-536470 -425365,-796086 -124010,-255576 -288759,-560395 -426428,-795163 -143594,-244864 -147911,-163918 -30350,-434099 44194,-101571 136707,-320994 191990,-403265 73967,76945 2337347,4861898 2629630,5484886 114660,244403 211082,616609 210151,907807l-1289555 -2380533zm536878 -546959c-317347,-643281 -625551,-1366477 -968785,-2006257 -162232,-302394 -332990,-690391 -480463,-1012109 -151228,-329897 -334515,-660795 -471991,-986221l416100 335799c123525,101070 178985,303426 247896,482442l850223 2136823c123894,315253 316361,736786 407020,1049523zm-203510 -5655806c42209,-54206 43509,-73298 94283,-123756 59569,-59208 40862,-24125 95114,-93913 91897,-118208 535277,-635925 605081,-670700l3891336 -722765c426111,-70404 302017,-106234 614931,116661 321663,229135 676078,452706 997057,685674l742958 506189c89173,59862 194537,123694 227827,183102 -68057,69442 -56060,53959 -118554,102624l-833886 712616c-46364,36214 -62986,38007 -110204,80977l-2071813 1755714 -1149470 777671c-527590,346150 -1868603,1202283 -2299832,1528125 -91590,69211 -104341,116768 -195145,184364l-201494 168812c-80785,-72829 -719918,-1547433 -830354,-1793336l-820534 -1807287 1362699 -1590772zm1775121 -2014383c-299132,83171 -1279513,750753 -1597960,1023544l-350144 301632c-57607,68504 -55791,64410 -123809,120116 -283357,232083 -808607,872701 -856279,908892 -102440,77753 -1054356,584504 -1156958,608883l-426796 2251060c64663,19715 351667,203309 392098,288419 104479,1655 88257,24348 210205,118015 99977,76784 85372,47842 150574,148343l648590 1170470c137562,261263 294130,520949 434277,787345 116391,221232 345542,580187 416631,791961l168735 270552c-27980,20331 -45164,58922 -46926,61031 137561,46557 94221,19400 167196,152613 74698,136361 299085,483965 268442,565035l19877 46057 38231 -19231c83917,153129 484819,855132 499094,961089 43678,30827 916179,1478013 951431,1773928l184772 1421614c70512,729191 200285,1511834 294561,2249651 49411,386697 102709,747183 151920,1131879 33921,265164 147511,909738 132328,1136072l81532 541234 157661 1166738c6880,-211328 -18491,-408744 -28418,-614054l-35114 -448028c-10896,-128750 -12897,-117215 17884,-157962 -56053,-60469 -24310,79754 -44617,-123825 -3509,-35213 -3155,-104463 -7195,-150366 -9304,-105741 -18785,-195884 -21116,-298531 -64702,-646067 -114583,-1346601 -150805,-1992621 -19254,-343372 -54114,-678310 -82448,-1021397 -21670,-262371 -82493,-779349 -58769,-1021682 -53243,-87834 -100631,-1144021 -117161,-1340752 -50796,-604435 -45648,-629260 -291259,-1151840 -115737,-246242 -846683,-1842854 -860888,-1952666 -37184,-125126 -653962,-1414342 -757903,-1712035 90058,48403 184672,187057 259547,274307l256723 250997 74206 -1321760c40169,-28357 102409,-63432 146011,-78915 91666,-111767 687436,-386704 859072,-481187 1422999,-783297 2780419,-1557005 4135792,-2434446l1341437 -966338c258839,-194721 676394,-595377 717056,-937133 114082,-958865 -1007654,-1795329 -1751443,-2172468 -1532257,-776917 -2791123,-446673 -4409875,-124240z"/>
    <path class="fil16" d="M23104527 25112561c8065,-381502 -63925,-986545 -100362,-1383260 -39962,-434969 -63986,-889369 -99485,-1330518 -20646,-256607 -273106,-3256150 -247219,-3360660l894117 -1283083c56776,-80585 94652,-138138 157599,-222533l373669 -522072c231020,-320194 -107911,-728429 -160624,-1220428 16953,18553 61693,59777 90735,94329 41185,48996 40647,54206 86003,105233l172059 207742c342741,431153 145864,191736 202540,578648 40062,-150520 11882,-369436 16422,-539378 11374,-425951 -14552,-310960 -347604,-778765 -87080,-122324 -163726,-231967 -253484,-343679l-725528 -984729c-77876,-107627 -167619,-263541 -256907,-337239 42085,244125 454384,1422922 450306,1523715 -2563,63394 -136723,232352 -183549,296454l-219146 296600c-80832,110412 -134784,176699 -207943,280586l-1261613 1724524c-89504,110735 -132436,188796 -219116,296800 -83556,104110 -126588,173814 -204518,284287l-232575 293384 1964456 5537390c80008,226535 222163,698195 311767,786652z"/>
    <path class="fil17" d="M23104527 25112561c51012,69258 1077811,456055 1222891,479856l146141 -8816458c-56676,-386912 140201,-147495 -202540,-578648l-172059 -207742c-45356,-51027 -44818,-56237 -86003,-105233 -29042,-34552 -73782,-75776 -90735,-94329 52713,491999 391644,900234 160624,1220428l-373669 522072c-62947,84395 -100823,141948 -157599,222533l-894117 1283083c-25887,104510 226573,3104053 247219,3360660 35499,441149 59523,895549 99485,1330518 36437,396715 108427,1001758 100362,1383260z"/>
    <path class="fil18" d="M1075587 15439694l-89681 -97623c-5864,-7395 -13105,-16737 -18907,-25625 137053,35375 247773,60908 390159,118669 129620,52590 203272,140232 340325,151636 5987,-3986 17184,-13013 20385,-7087l59192 -22871c56491,-32105 6326,62902 66495,-71374l165234 -567274c58553,-215946 -88612,-580572 -141894,-806167 -121578,-514808 -142648,-699126 89573,-1204568 69612,-151521 -17006,-186742 -89827,-328798 -169235,-257200 -45818,-580102 -116261,-787583 -88042,-259347 -588013,-178900 -331205,-1054948 -178170,42616 -284526,108842 -454338,47934 -129066,-46303 -258370,-112790 -390344,-155707 94829,201463 201986,360371 306142,564181 82139,160724 230405,378955 291436,524135 53636,127580 -111420,443834 -164910,597332 -262233,752554 -655417,1737229 -879211,2434469 -53383,166319 70981,445366 160224,600434 438216,-3694 198192,-139355 787413,90835z"/>
    <path class="fil19" d="M467459 9893184c-58831,-40339 -149151,-139354 -130120,-209397 21931,-80731 339324,-387951 408682,-675585 83478,-346212 222271,-849169 258015,-1179528 123341,122417 867107,1732873 888554,1784055 -364581,246219 -971186,307550 -1425131,280455zm-348520 5673228c133336,-20962 281178,-69881 404518,-95752 232999,-48873 163649,-92082 402418,-6003 136938,49366 596940,189151 692654,254807 0,-68588 -17822,-55152 48165,-46241 -201332,-96499 -362402,-190782 -591107,-233529 -589221,-230190 -349197,-94529 -787413,-90835 -89243,-155068 -213607,-434115 -160224,-600434 223794,-697240 616978,-1681915 879211,-2434469 53490,-153498 218546,-469752 164910,-597332 -61031,-145180 -209297,-363411 -291436,-524135 -104156,-203810 -211313,-362718 -306142,-564181 131974,42917 261278,109404 390344,155707 169812,60908 276168,-5318 454338,-47934 -256808,876048 243163,795601 331205,1054948 70443,207481 -52974,530383 116261,787583l68134 -88126c65056,-154653 -41108,-281356 102486,-358532 -44117,-122801 -99300,-196376 -122140,-342233 -20177,-128834 955,-277277 -20823,-402125l-85733 -54237c-120070,17061 -204826,-33975 -272753,-83725 -18961,-139700 -3424,-173860 40739,-302717 70312,136099 20416,404465 256485,337854 -136907,-114260 -27534,-236376 83978,-302317 148527,22108 463619,215445 593346,290790 233391,135568 342049,200139 657417,121562 30643,-81070 -193744,-428674 -268442,-565035 -72975,-133213 -29635,-106056 -167196,-152613l-881204 -370752 -802635 377755c-190844,-103871 -413345,-238293 -593754,-365596 162709,-111651 1329017,-334730 1598206,-364680 108373,71543 190366,136807 297146,203417l260432 188273c-71089,-211774 -300240,-570729 -416631,-791961 -140147,-266396 -296715,-526082 -434277,-787345l-648590 -1170470c-65202,-100501 -50597,-71559 -150574,-148343 -121948,-93667 -105726,-116360 -210205,-118015 -12420,343395 -115114,844790 -166126,1197381 -115768,800142 -596778,1254280 -519410,1470526l663597 1401244c230035,515439 309189,395562 94683,1029985 -90905,268859 -824628,2441165 -822789,2558125 2216,141401 91858,413469 118931,579710z"/>
    <path class="fil20" d="M10002365 17437824c22639,22032 21831,-49573 31558,88889 4156,8034 6241,5179 34098,31697 25102,23894 10066,769 35876,35629 -63086,175022 -424196,1273341 -496362,1327047 134644,98969 85294,89611 200362,286565l258247 470106c49157,73967 50004,59069 98345,142186l119947 206241c126357,215923 779511,1188408 835656,1341199 144094,-83079 24655,38838 66795,-83402 -337508,-618995 -673331,-1314026 -983190,-1986849 -328720,-713762 -347158,-511068 -205064,-1055988 96268,-369159 245903,-810499 313560,-1173871l-2212144 -1148924c-88635,-47272 -512323,-266642 -542996,-299062l-886237 -1641546 -467636 168589 881289 1375534c53190,85064 120816,175084 173014,261094 216807,357208 106241,213868 453422,414453 275130,158955 2145349,1224977 2291460,1240413z"/>
    <path class="fil21" d="M4861182 15578263l-184772 -1421614c-35252,-295915 -907753,-1743101 -951431,-1773928 -54252,934840 -158270,1076749 -94491,2143218 15383,257246 24040,496316 51105,748845 4186,-7480 9042,-27211 10758,-23363 1700,3855 7933,-16992 10134,-23594l33267 -152044c17007,14621 1005037,498302 1125430,502480z"/>
    <path class="fil22" d="M13150566 24049664l-1727457 -3990121c-121293,-272067 -268412,-356030 -407273,-542480 -57461,-77137 -45703,-55313 -114753,-129465l-221301 -266281c-56453,-79454 -45956,-72374 -147811,-137892 4663,199447 508028,1058504 637709,1301360 217262,406843 449229,842173 660834,1268208l1320052 2496671z"/>
    <path class="fil23" d="M2732139 10677158c1762,-2109 18946,-40700 46926,-61031l-168735 -270552 -260432 -188273c-106780,-66610 -188773,-131874 -297146,-203417 -269189,29950 -1435497,253029 -1598206,364680 180409,127303 402910,261725 593754,365596l802635 -377755 881204 370752z"/>
    <path class="fil24" d="M118939 15566412c56822,114183 71597,82186 307042,179447 120016,49573 237800,106788 359701,156361 245311,99769 483496,238870 709453,332375l685336 -279085 37614 9557c-82732,-116076 -472607,-209150 -599556,-245603 -95714,-65656 -555716,-205441 -692654,-254807 -238769,-86079 -169419,-42870 -402418,6003 -123340,25871 -271182,74790 -404518,95752z"/>
    <path class="fil25" d="M1968734 17883551l735417 199278c-69004,152505 -136214,143379 -300694,239608l-93551 58739c-3225,80223 -3710,162878 -5341,244133 -739,37161 -3978,102271 -1485,136730 7718,106688 -10335,42155 26095,123002 178138,-133367 65094,-133429 469413,-409559l374276 -276762c73021,-56907 79023,-45441 148796,-104417l14637 -30651c-302148,-83371 -662327,-208396 -954948,-305934 -133652,-44548 -355877,-94929 -460702,-166118l-268574 -220617c-77307,-68773 -41278,19200 -67365,-95460l-115868 394515c160101,65579 345257,202932 499894,213513z"/>
    <path class="fil26" d="M2329175 18885041l520987 158677 14436 720503 453823 -841481c-84395,56868 -249113,126888 -385466,97399 52975,-50781 59031,-45133 129720,-90373l104618 -83025 154367 -752438c-69773,58976 -75775,47510 -148796,104417l-374276 276762c-404319,276130 -291275,276192 -469413,409559z"/>
    <path class="fil27" d="M2037261 12131954c49035,60370 96161,125765 178377,181132 200101,-52443 543150,-286019 646829,-392829l-119693 -156769 182786 2516c-258239,-109889 -721342,-382248 -1031262,-378408 21778,124848 646,273291 20823,402125 22840,145857 78023,219432 122140,342233z"/>
    <path class="fil28" d="M1808565 11333359l85733 54237c309920,-3840 773023,268519 1031262,378408l-182786 -2516 119693 156769c-103679,106810 -446728,340386 -646829,392829 -82216,-55367 -129342,-120762 -178377,-181132 -143594,77176 -37430,203879 -102486,358532l19246 92474c137277,-121624 699164,-80639 1171101,-650907l-9519 69012c95284,-50912 99862,-80231 240086,-55606l-59431 -68573c-65217,24825 -46056,-16153 -154398,-95645 -282225,-207073 -800381,-601688 -1162298,-557871 -131497,15922 -136338,75861 -170997,109989z"/>
    <path class="fil29" d="M9828451 20366424c-259431,-327566 -187188,-319293 -911254,-387243 84448,92444 273014,173653 386943,244288 187349,116153 286796,97422 524311,142955z"/>
    <path class="fil30" d="M19798588 19955857c52374,81993 75037,130389 129089,205334l409913 577447c-22824,-64425 -325573,-877441 -394761,-944352 -89019,71251 -88973,83402 -144241,161571z"/>
    <path class="fil31" d="M2309906 18381176l93551 -58739c164480,-96229 231690,-87103 300694,-239608l-735417 -199278c72752,82440 370444,219401 469229,244557 -37384,63509 1147,8311 -42378,51597 -102117,101555 -81070,53505 -85679,201471z"/>
    <path class="fil32" d="M1075587 15439694c228705,42747 389775,137030 591107,233529 151674,78384 312652,83509 499194,76314 -105679,-76306 -328320,-141670 -468405,-162786 -137053,-11404 -210705,-99046 -340325,-151636 -142386,-57761 -253106,-83294 -390159,-118669 5802,8888 13043,18230 18907,25625l89681 97623z"/>
    <path class="fil33" d="M3167293 18846741l-104618 83025c-70689,45240 -76745,39592 -129720,90373 136353,29489 301071,-40531 385466,-97399 30588,-91251 106572,-151574 142370,-242933 -85217,55422 -194114,108134 -293498,166934z"/>
   </g>
  </g>
 </g>
</svg>
