<?xml version="1.0" encoding="UTF-8"?>
<!DOCTYPE svg PUBLIC "-//W3C//DTD SVG 1.1//EN" "http://www.w3.org/Graphics/SVG/1.1/DTD/svg11.dtd">
<!-- Creator: CorelDRAW X7 -->
<svg xmlns="http://www.w3.org/2000/svg" xml:space="preserve" width="813px" height="786px" version="1.1" style="shape-rendering:geometricPrecision; text-rendering:geometricPrecision; image-rendering:optimizeQuality; fill-rule:evenodd; clip-rule:evenodd"
viewBox="0 0 4465692 4317845"
 xmlns:xlink="http://www.w3.org/1999/xlink">
 <defs>
  <style type="text/css">
   <![CDATA[
    .fil0 {fill:#019815;fill-rule:nonzero}
    .fil2 {fill:#6E0093;fill-rule:nonzero}
    .fil1 {fill:white;fill-rule:nonzero}
   ]]>
  </style>
 </defs>
 <g id="Layer_x0020_1">
  <metadata id="CorelCorpID_0Corel-Layer"/>
  <g id="_575962308704">
   <polygon class="fil0" points="663773,4063871 663773,1512439 1629809,1512439 1629809,4063871 "/>
   <g>
    <polygon class="fil1" points="765577,1913942 888069,1913942 888069,1791444 765577,1791444 "/>
    <polygon class="fil1" points="979941,1913942 1102426,1913942 1102426,1791444 979941,1791444 "/>
    <polygon class="fil1" points="1209605,1913942 1316790,1913942 1316790,1791444 1209605,1791444 "/>
    <polygon class="fil1" points="765577,2097680 888069,2097680 888069,1975188 765577,1975188 "/>
    <polygon class="fil1" points="979941,2097680 1102426,2097680 1102426,1975188 979941,1975188 "/>
    <polygon class="fil1" points="1209605,2097680 1316790,2097680 1316790,1975188 1209605,1975188 "/>
    <polygon class="fil1" points="765577,2281417 888069,2281417 888069,2158926 765577,2158926 "/>
    <polygon class="fil1" points="1209605,2281417 1316790,2281417 1316790,2158926 1209605,2158926 "/>
    <polygon class="fil1" points="765577,2465155 888069,2465155 888069,2342657 765577,2342657 "/>
    <polygon class="fil1" points="979941,2465155 1102426,2465155 1102426,2342657 979941,2342657 "/>
    <polygon class="fil1" points="1209605,2465155 1316790,2465155 1316790,2342657 1209605,2342657 "/>
    <polygon class="fil1" points="765577,2648893 888069,2648893 888069,2541707 765577,2541707 "/>
    <polygon class="fil1" points="1209605,2648893 1316790,2648893 1316790,2541707 1209605,2541707 "/>
    <polygon class="fil1" points="765577,2832630 888069,2832630 888069,2725452 765577,2725452 "/>
    <polygon class="fil1" points="979941,2832630 1102426,2832630 1102426,2725452 979941,2725452 "/>
    <polygon class="fil1" points="1209605,2832630 1316790,2832630 1316790,2725452 1209605,2725452 "/>
    <polygon class="fil1" points="979941,3016368 1102426,3016368 1102426,2909189 979941,2909189 "/>
    <polygon class="fil1" points="765577,3200106 888069,3200106 888069,3092920 765577,3092920 "/>
    <polygon class="fil1" points="979941,3200106 1102426,3200106 1102426,3092920 979941,3092920 "/>
    <polygon class="fil1" points="1209605,3200106 1316790,3200106 1316790,3092920 1209605,3092920 "/>
    <polygon class="fil1" points="979941,3383843 1102426,3383843 1102426,3276665 979941,3276665 "/>
    <polygon class="fil1" points="1209605,3383843 1316790,3383843 1316790,3276665 1209605,3276665 "/>
    <polygon class="fil1" points="765577,3582887 888069,3582887 888069,3460396 765577,3460396 "/>
    <polygon class="fil1" points="1209605,3582887 1316790,3582887 1316790,3460396 1209605,3460396 "/>
    <polygon class="fil1" points="765577,3766625 888069,3766625 888069,3644140 765577,3644140 "/>
    <polygon class="fil1" points="979941,3766625 1102426,3766625 1102426,3644140 979941,3644140 "/>
   </g>
   <path class="fil2" d="M2587640 2220171l0 -755521 0 -622514 -168424 0 0 -367482 -275604 0 0 -474654 -214363 0 0 474654 -275604 0 0 367482 -168431 0 0 622514 0 755521 -137805 0 0 1837377 1393343 0 0 -1837377 -153112 0zm-505273 -1209611l0 0 0 505280 -122499 0 0 -505280 122499 0zm229663 505280l0 0 -122485 0 0 -505280 122485 0 0 505280zm0 183738l0 0 0 505280 -122485 0 0 -505280 122485 0zm-352162 0l0 0 122499 0 0 505280 -122499 0 0 -505280zm-122491 -183738l0 0 -122486 0 0 -505280 122486 0 0 505280zm-122486 183738l0 0 122486 0 0 505280 -122486 0 0 -505280zm-229677 1469901l0 0 0 -479483 0 -148289 122499 0 0 627772 -122499 0zm244990 0l0 0 0 -627772 107173 0 0 627772 -107173 0zm229664 0l0 0 0 -627772 122499 0 0 627772 -122499 0zm229677 0l0 0 0 -627772 122485 0 0 627772 -122485 0zm260290 0l0 0 0 -627772 122499 0 0 627772 -122499 0z"/>
   <polygon class="fil1" points="1607713,2541707 1485214,2541707 1485214,2689996 1485214,3169479 1607713,3169479 "/>
   <polygon class="fil1" points="1837377,2541707 1730204,2541707 1730204,3169479 1837377,3169479 "/>
   <polygon class="fil1" points="2082367,2541707 1959868,2541707 1959868,3169479 2082367,3169479 "/>
   <polygon class="fil1" points="2312030,2541707 2189545,2541707 2189545,3169479 2312030,3169479 "/>
   <polygon class="fil1" points="2572334,2541707 2449835,2541707 2449835,3169479 2572334,3169479 "/>
   <polygon class="fil1" points="1837377,1699578 1714891,1699578 1714891,2204858 1837377,2204858 "/>
   <polygon class="fil1" points="2082367,1699578 1959868,1699578 1959868,2204858 2082367,2204858 "/>
   <polygon class="fil1" points="2189545,2204858 2312030,2204858 2312030,1699578 2189545,1699578 "/>
   <polygon class="fil1" points="1714891,1515840 1837377,1515840 1837377,1010560 1714891,1010560 "/>
   <polygon class="fil1" points="1959868,1515840 2082367,1515840 2082367,1010560 1959868,1010560 "/>
   <polygon class="fil1" points="2189545,1515840 2312030,1515840 2312030,1010560 2189545,1010560 "/>
   <path class="fil0" d="M3844145 4063871c0,0 0,-1113812 0,-1993682 0,-879864 -1194512,-1460917 -1194512,-1460917l0 3454599 1194512 0z"/>
   <polygon class="fil1" points="2955116,3261351 2817311,3261351 2817311,2771384 2955116,2771384 "/>
   <polygon class="fil1" points="3184792,3261351 3046988,3261351 3046988,2771384 3184792,2771384 "/>
   <polygon class="fil1" points="3628820,3261351 3521642,3261351 3521642,2771384 3628820,2771384 "/>
   <polygon class="fil1" points="2955116,2602960 2817311,2602960 2817311,2097680 2955116,2097680 "/>
   <polygon class="fil1" points="3399150,2602960 3291971,2602960 3291971,2097680 3399150,2097680 "/>
   <polygon class="fil1" points="3628820,2602960 3521642,2602960 3521642,2097680 3628820,2097680 "/>
   <polygon class="fil1" points="2955116,1929249 2817311,1929249 2817311,1423975 2955116,1423975 "/>
   <polygon class="fil1" points="3184792,1929249 3046988,1929249 3046988,1423975 3184792,1423975 "/>
   <polygon class="fil2" points="977435,4063871 977435,2008021 714,2008021 714,4063871 "/>
   <g>
    <polygon class="fil1" points="597146,2342657 489967,2342657 489967,2235478 597146,2235478 "/>
   </g>
   <g>
    <polygon class="fil1" points="398101,2342657 275610,2342657 275610,2235478 398101,2235478 "/>
   </g>
   <g>
    <polygon class="fil1" points="597146,2541707 489967,2541707 489967,2419216 597146,2419216 "/>
   </g>
   <g>
    <polygon class="fil1" points="398101,2541707 275610,2541707 275610,2419216 398101,2419216 "/>
   </g>
   <g>
    <polygon class="fil1" points="597146,2725452 489967,2725452 489967,2602960 597146,2602960 "/>
   </g>
   <g>
    <polygon class="fil1" points="398101,2725452 275610,2725452 275610,2602960 398101,2602960 "/>
   </g>
   <g>
    <polygon class="fil1" points="597146,2909189 489967,2909189 489967,2786697 597146,2786697 "/>
   </g>
   <g>
    <polygon class="fil1" points="398101,2909189 275610,2909189 275610,2786697 398101,2786697 "/>
   </g>
   <g>
    <polygon class="fil1" points="597146,3092920 489967,3092920 489967,2970429 597146,2970429 "/>
   </g>
   <g>
    <polygon class="fil1" points="398101,3092920 275610,3092920 275610,2970429 398101,2970429 "/>
   </g>
   <g>
    <polygon class="fil1" points="597146,3276665 489967,3276665 489967,3154173 597146,3154173 "/>
   </g>
   <g>
    <polygon class="fil1" points="398101,3276665 275610,3276665 275610,3154173 398101,3154173 "/>
   </g>
   <g>
    <polygon class="fil1" points="597146,3460396 489967,3460396 489967,3337910 597146,3337910 "/>
   </g>
   <g>
    <polygon class="fil1" points="398101,3460396 275610,3460396 275610,3337910 398101,3337910 "/>
   </g>
   <g>
    <polygon class="fil1" points="597146,3644140 489967,3644140 489967,3521642 597146,3521642 "/>
   </g>
   <g>
    <polygon class="fil1" points="398101,3644140 275610,3644140 275610,3521642 398101,3521642 "/>
   </g>
   <g>
    <polygon class="fil1" points="597146,3827871 489967,3827871 489967,3705386 597146,3705386 "/>
   </g>
   <g>
    <polygon class="fil1" points="398101,3827871 275610,3827871 275610,3705386 398101,3705386 "/>
   </g>
   <polygon class="fil0" points="4455643,4317845 0,4317845 0,4195353 4455643,4195353 "/>
   <g>
    <polygon class="fil1" points="3628820,3261351 3521642,3261351 3521642,2771384 3628820,2771384 "/>
    <polygon class="fil1" points="3628820,2602960 3521642,2602960 3521642,2097680 3628820,2097680 "/>
    <polygon class="fil2" points="4465692,4063871 4465692,2200652 3534079,2200652 3534079,4063871 "/>
    <polygon class="fil1" points="3948136,2330050 3637597,2330050 3637597,2407681 3948136,2407681 "/>
    <polygon class="fil1" points="4071050,2330050 4071050,2407681 4362174,2407681 4362174,2330050 "/>
    <polygon class="fil1" points="3948136,2537066 3637597,2537066 3637597,2614703 3948136,2614703 "/>
    <polygon class="fil1" points="4071050,2537066 4071050,2614703 4362174,2614703 4362174,2537066 "/>
    <polygon class="fil1" points="3948136,2744095 3637597,2744095 3637597,2821731 3948136,2821731 "/>
    <polygon class="fil1" points="4071050,2744095 4071050,2821731 4362174,2821731 4362174,2744095 "/>
    <polygon class="fil1" points="3948136,2951110 3637597,2951110 3637597,3028747 3948136,3028747 "/>
    <polygon class="fil1" points="4071050,2951110 4071050,3028747 4362174,3028747 4362174,2951110 "/>
    <polygon class="fil1" points="4071050,3158145 4071050,3235782 4362174,3235782 4362174,3158145 "/>
    <polygon class="fil1" points="3948136,3158145 3637597,3158145 3637597,3235782 3948136,3235782 "/>
    <polygon class="fil1" points="3948136,3365168 3637597,3365168 3637597,3442798 3948136,3442798 "/>
    <polygon class="fil1" points="4071050,3365168 4071050,3442798 4362174,3442798 4362174,3365168 "/>
    <polygon class="fil1" points="3948136,3572183 3637597,3572183 3637597,3649820 3948136,3649820 "/>
    <polygon class="fil1" points="4071050,3572183 4071050,3649820 4362174,3649820 4362174,3572183 "/>
   </g>
  </g>
 </g>
</svg>
