<?xml version="1.0" encoding="utf-8"?>
<!-- Generator: Adobe Illustrator 19.0.0, SVG Export Plug-In . SVG Version: 6.00 Build 0)  -->
<svg version="1.1" id="Layer_1" xmlns="http://www.w3.org/2000/svg" xmlns:xlink="http://www.w3.org/1999/xlink" x="0px" y="0px"
	 viewBox="0 0 1080 1920" style="enable-background:new 0 0 1080 1920;" xml:space="preserve">
<style type="text/css">
	.st0{fill:#153816;}
	.st1{fill:#333132;}
	.st2{fill:#E4E4E4;}
</style>
<g id="XMLID_176_">
	<path id="XMLID_175_" class="st0" d="M917.7,871.6c-12.5-1.9-17.8-11.3-25.3-17.6c-5.5-4.6-10.6-12.9-18.2-10.3
		c-9,3.1-5.4,13.1-4.4,19.4c5.8,38.3-17.4,56.6-49.7,73.2c-3.5-26.1-1.4-50.5-3.9-74.5c-4.8-46.8-37.5-79.1-57-118.1
		c-7.5-15-14.1-4.2-18.6,4.4c-15.9,30.6-43.2,42.9-79.6,50.1c10.1-32.2,36.1-58.3,19.1-94.6c-45.3,50.9-106.5,59.5-167,69.8
		c-6.7,1.2-15,6.9-20-1.3c-3.9-6.4,4.4-11.2,6.4-17.1c2.4-6.8,5.9-13.3,9-20c-8.5-6.7-14.6-0.6-20.3,2.6
		c-55.2,30.7-115.3,47.8-175.7,64c-8.8,2.4-20.2,8-26.2,1.1c-7.4-8.6,4.1-16.3,9-23c12.7-17.7,9.3-26-12.7-26.7
		c-12.8-0.4-25.7-2.5-38.5-2.3c-33,0.7-41.1,9.2-44.1,42.7c-1,10.9-1.3,23.4-6.8,31.9c-20,30.5-34.9,62.2-37.4,99.3
		c-0.8,12.4-9.7,12.1-17.3,4.4c-7.9-8-13-18.2-13.8-29.5c-7.4-103.4-21.6-206.8-1.6-310.4c10.7-55.3,33.6-100,81-135.1
		c67.3-49.9,138.1-86.9,222.4-95.1c16.4-1.6,32-4.8,18.4,20.4c-2.7,5.1-7,12.6-1.5,17.9c5.4,5.3,12.1-0.3,18.1-1.6
		c96-20.6,193-23.6,290.7-16.9c16.8,1.2,14.5,7.9,9.2,19.3c-18.8,40.7-18.6,41.3,25.1,47.2c39.2,5.3,73.9,21.2,106.9,42
		c13.3,8.4,16.3,15.1-0.7,24.6c-30.5,16.9-29.6,17.5-5.8,42.8c35.2,37.4,58.9,81.7,77.3,129.3c6.7,17.4,1.9,22.1-15.5,16.3
		c-6.1-2-12.5-3-18.9-3.8c-27.2-3.4-33,3.2-23.8,29.7C922.5,773.6,932.1,821.3,917.7,871.6z"/>
	<path id="XMLID_174_" class="st1" d="M732.3,1169.4c18.6,16.2,16.4,40.2,18.8,60.5c4.5,37.1,4.6,74.7-8.2,111.5
		c-13.9,40.1-58,75.2-100.6,76.5c-8.2-16.8-1.7-32.7,13.5-35.6c35.1-6.6,41.7-38.3,52.7-60.9c12.3-25.4,8.7-57.5-4.6-85.4
		c-2.3-4.8-3.7-11.2-11-9.8c-5.4,1.1-5.3,6.8-6.8,11c-3.8,10.6-3.4,21.7-3.8,32.7c-2.3,60.8-48.9,98.5-108.3,105.9
		c-64.5,8.1-127.7-5.2-191.5-3.3c-10.2,0.3-20.1-3-28.4-9.2c-34.4-25.8-57.6-58.1-59.1-102.9c0-0.9,0.2-1.9,0.1-2.7
		c-1.5-11.2,3.5-30.4-9.1-30.7c-16.4-0.4-16.1,19.4-16.5,32.6c-1.1,33.7-4.4,67.6,17,98.2c6.8,9.6,13.6,22.1,10.8,36
		c-1.5,3.1-3.8,3.7-6.8,2.1c-13.5-0.8-21.1-10.7-27.7-20.1c-38.6-55.4-50.1-116-31.8-181.4c2.4-8.5,3.9-18.3,14.9-21
		c12.2-7,26.7-6.6,37.4-1.8c24.7,11,52.2,8.4,76.6,19.2c22.3,9.9,47,5.4,70.1,7.6c43.1,4.1,87.2,2,131-0.3
		C619.5,1194.8,673.4,1167.4,732.3,1169.4z"/>
	<path id="XMLID_173_" class="st2" d="M295.3,1395.3c-41.7-47.7-52.1-119.4-28.4-178.2c4.4-10.8,12.3-16.2,23.8-13.5
		c11.4,2.6,13.7,10.3,15.1,22.1c2.7,22.1-3.1,45.7,7.3,66.3c13.8,27.4,28.2,56.7,58.7,67.9c17,6.2,37.4-2.8,56.7-0.2
		c43.6,5.8,87.4,5.4,131.5,5.4c31.8,0,58.9-11.3,80.5-26.6c18.9-13.4,30.7-42.8,28.9-68.9c-1.1-15.8,3.8-30.4,2.4-46
		c-1.5-15.6,14.3-17.1,25.2-20c12.1-3.2,16.7,6.5,17.1,16.1c0.7,15.8,9.3,28.9,12.2,44.3c9.2,49.1-19.6,84.8-38.7,123.8
		c-9.8,20-20.9,2.1-31.2-2.2c-4.7,10.7-9.4,21.4-14.1,32.2c-27,17.6-57.6,13-85.5,8c-48.2-8.7-95-13.4-143.8-2.4
		c-23.3,5.2-49.3,5.9-73.3-3.8C325.5,1410.3,308.6,1406,295.3,1395.3z"/>
	<path id="XMLID_172_" class="st2" d="M732.3,1169.4c-6.9,9.9-17.3,15.8-28.3,13.5c-12.6-2.5-21.1,1-29.2,9.4
		c-1.8,1.9-5.2,4.6-6.9,4c-29-10-53,16.5-81.8,10.4c-22.6-4.8-43.8,9.1-67.4,7.1c-48.7-4.2-98.5-0.5-146.1-9.1
		c-26.5-4.8-55.8-2.7-81.2-19.9c-11.6-7.8-32.1,0.3-45.6-11.8c9.7-43.9,45.4-55.1,87.1-41.6c36.1,11.8,76.2,22.4,116.3,11.4
		c26.8,3,53.5,3.8,80.2-0.5c26.7,11.2,52.1,1.7,77.6-5.3c18-4.2,36.2-7.6,52.5-17C695.3,1120.1,724.5,1139.9,732.3,1169.4z"/>
</g>
</svg>
