<?xml version="1.0" encoding="utf-8"?>
<!-- Generator: Adobe Illustrator 19.0.0, SVG Export Plug-In . SVG Version: 6.00 Build 0)  -->
<svg version="1.1" id="Layer_1" xmlns="http://www.w3.org/2000/svg" xmlns:xlink="http://www.w3.org/1999/xlink" x="0px" y="0px"
	 viewBox="-162 206.9 287 379.2" style="enable-background:new -162 206.9 287 379.2;" xml:space="preserve">
<style type="text/css">
	.st0{fill:#2E392D;}
	.st1{fill:#6BE2F8;}
	.st2{fill:#CD445A;}
	.st3{fill:#732430;}
	.st4{fill:#D45D71;}
	.st5{fill:#2C392C;}
	.st6{fill:#9D2B3D;}
	.st7{fill:#D96F82;}
	.st8{fill:#EDD4BB;}
	.st9{fill:#F0C23D;}
	.st10{fill:#CC425A;}
	.st11{fill:#9B2B3C;}
	.st12{fill:#505342;}
	.st13{fill:#1D291A;}
	.st14{fill:#B98C2A;}
	.st15{fill:#892B39;}
	.st16{fill:#CC435A;}
	.st17{fill:#EFD5BC;}
	.st18{fill:#67202B;}
	.st19{fill:#742430;}
	.st20{fill:#FFD325;}
	.st21{fill:#26050A;}
	.st22{fill:#FFDA26;}
	.st23{fill:#FFEA9B;}
	.st24{fill:#822735;}
	.st25{fill:#1B2C2D;}
	.st26{fill:#697388;}
	.st27{fill:#716D5A;}
	.st28{fill:#9B8535;}
	.st29{fill:#68252D;}
	.st30{fill:#7A7564;}
	.st31{fill:#A79A85;}
	.st32{fill:#8D7630;}
</style>
<g id="Layer_x0020_1">
	<g id="_494055730960">
		<g>
			<path class="st0" d="M-13.8,537.1l3.3-3.9c2.1-2.1,1.1-1.5,2.8-3.1l14-15.8c0.4-0.5,0.5-0.8,0.9-1.2l1.8-2c0.6-0.8,0.4-0.4,1.1-1
				c0.8-0.8,0.9-1.4,1.7-2.2c2.2-2.1,4.7-5.5,6.4-7.3l4.8-5.4c1.2-1.1,0.9-1,1.8-2.1c0.8-1,0.5-0.2,2-2.2c0.8-1,1.1-0.9,1.9-2
				c1-1.4,0.6-1.2,2.2-2.1c0.5-1.1,0.9-1.5,1.4-2l2.8-10.1c-0.7,0.3-1.6,0.9-3,2.8c-1.3,1.8-3.9,3.7-5.7,5.3
				c-0.9,0.8-0.9,1.2-1.6,1.9l-5.8,5.2c-3.3,3.9-4.1,3.4-7.3,7.3c-0.9,1.1-4.6,3.8-5.8,5.2c-0.8,1-0.2,0.7-1.7,1.9
				c-0.7,0.6-1.2,1-1.9,1.7l-2.9,2.5c-0.5,0.5-0.5,0.7-0.9,1.2c-1,1.2-4.3,3.7-5.7,5.1c-0.8,0.8-0.9,1.3-1.8,2.1
				c-1.3,1.2-2.5,2.2-3.8,3.3c-2.2,1.9-2.2,2.9-3.6,3.6L-13.8,537.1z M-16.6,523.7c2.5-6.6,6.1-13.3,8.8-19.9
				c4.1-10,9.2-20.6,13.2-30.6c1.2-3,1-2.3,4.3-2.9c2.1-0.4,4.2-0.7,6.3-1.1c4.1-0.7,8.3-1.5,12.4-2.2c11.9-2.1,7.5-1.4,9.7-3.4
				l1.6-5.7c0.1-0.3,0.2-0.6,0.3-0.9c-5.6,0-11.1-0.1-16.8,0.5c-2.6,0.3-20.6,1.5-21.3,2c-1,0.6-1.6,3-3.1,3.2
				c0.4,0.3,3.3,1.5,4,1.6c1.9,0.5,32.2-4.3,34.9-4.7l-3.5,2.3c-3.7,2.2-8.6,2.3-14.1,3.2c-3.2,0.5-6.5,1-9.8,1.5
				c-5.8,0.9-4.9-0.4-7.2,4.5c-1.9,4.1-13.3,30.8-14.2,31.8l7.7-33l-12.5-11c-1.8-1.8-2.4-1.7-2.8-2.8l0.1-0.2
				c-0.6-0.9-1.2-1.2-2-1.8c-0.3-0.2-0.9-0.7-1-0.8c-0.7-0.6-0.6-0.1-0.5-0.8l-15.2,2.1c-1.5-2.2-4.4-10.6-5.6-13.6
				c-2-5-1.4-5.2-3.6-5.9c-2.3-0.7-4.6-1.6-6.9-2.3c-4.7-1.6-9.4-3.2-14.1-4.7c-1.8-0.6-1.8-1-2.7-2.1l-6.2-7.7
				c0.6-1.9,3.9-5.9,4.7-8.1c-0.3-0.2-0.7-0.5-1.2-0.8c-1-0.6-0.7-0.1-1.2-0.8c-0.9,0.5-5.5,7.4-6.3,8.7l-9.1,13.3
				c-1,1.6-2.1,2.8-3.1,4.4l-6.1,8.7c0.7-2.4,2.1-5.4,3.1-7.8l24.9-61.9c2.2-5.4,2.3-4.3,1.1-7.7l-11.8-31.7
				c-1.9-4.9-4.5-10.6-5.9-15.4c-0.1-0.2-0.2-0.2-0.4-0.6c-0.2-0.3-0.1-0.3-0.1-0.6c0.7,0.5,0.5,0.1,0.7,1.2l24.7,47.8
				c1.4-0.6,1.9-2.6,2.5-4c0.7-1.7-0.3-3.2-1-5c-2.5-7.4-9.2-23.9-10.5-28.6l13.2-3.4c1.5,4.1,4.5,17.9,5.9,19.2l6.6,6.2
				c1.2,1.6,3.2,2.6,4.4,4c2.8,3.1,1.3,1.3,4.3,4c0.9,0.8,1,1.3,2,2.2c1.8,1.5,3,2.3,4.3,4.3c1.2-0.7,2.1-2.5,2.5-3.6
				c0.5-1.2-0.5-2.5-1.1-3.8c-1.6-3.2-11.8-21.8-11.8-22.4c3.8,0.1,10.3,0.7,13.9,1.8l24.5,7.4c4,1.3,8.5,2.3,12.5,3.8l0.6-0.8
				c-1.5-0.6-2.7-1.6-4.1-2.4c-1.2-0.7-2.9-1.7-3.9-2.5L2.5,326l15.9,6.2l-0.7,6.4l9.4,7.9c0.7,0.6,0.7,0.6,1.3,1.1l8.1,6.8
				c0.7,0.7,2.2,1.2,2.2,2.5c1.4,2.1,1.6,7.6,2.6,10.3c-0.3,1.9-3.3,8.2-4.3,10.4l-8.8,19.9c-1.3,3-3.5,7.1-4.4,10.1
				c1.6,0.3,3.3,0.1,4.8-0.1L41,381.6l4.8,4.1c0.8,0.6,4.6,3.6,4.7,4.1c0.1,0.8-5.2,23.8-6.3,28.5c-0.6,2.5-1.1,3.3-0.3,5.7l2.6,7.8
				c1.1,3,0.9,2.1,0.3,2.4c1,0.6,10.7,10.7,11.3,11.6l-8.2-4.4c0,0.8,0,0.5,0.3,1.4c0.4,1.3,0.5,0.5,0.2,1.3c0.7,0.7,3.1,2.2,5,3.3
				c3.5,0.5,6.6,2.1,8.9,4.8c0.8-0.7,1.9-1.8,3.5-2.6c0.6-0.9,2.8-1.3,4-1.9c0.9-0.4,1.7-0.8,2.5-1.3c-0.1-0.2-0.2-0.4-0.2-0.6
				c-3.2,0.2-3.8,1.2-8.2,0.5l-0.3-1.4c-0.3,1-1.2,1.4-0.9,2.4c-0.8,0.6,0.3,0.2-1.2,0.5c-0.4,0.1-1.2,0.1-1.6,0.2
				c-0.2-2.7,0-1.9-2.8-4.9c-3.6-4-4-3.8-7.4-7.6c-1.3-1.4-2.3-2.4-3.6-4c1.1-4.3,8.7-46.8,8.5-48.2l-15-10.9
				c0.4-7.7,4.5-13,0.6-15.9l-6.1-5.5c-2.1-1.6-1-0.8-2.2-2c-0.7-0.7-1.5-1-2.2-1.7l-12.5-11.1l1.4-3.9l37.8,14.4
				c1.1-2.1,2.6-4.5,3.7-6.6c1.2-2.2,2.5-4.4,3.7-6.5c5.9-10.5,12.8-21.9,18.5-32.5c1.2-2.1,2.6-4.4,3.6-6.5
				c0.8,0.9,3.5,12.1,4.1,14.4c0.5,1.9,2.1,5.2,1.4,6.9c-1.3,3-3.2,2.1-4.3,4.8c0.1,0.4-0.7,0.1,0.6,0.6c5,0,11.1,0,16-2
				c1.2-0.5,2.8-1.8,3.8-1.8c1.4,5.4-0.6,9.2-6.2,10.7l0.4,3.2c8.8-3.1,9-6.3,10.2-16c-0.3-0.5-0.5-0.7-1.5-0.9
				c-2.3-0.6-4.2-0.5-6,0.5c-0.4-4.2,0-9.4-0.2-13.6c-0.6-13.7-2-24.1-10.2-35.5c-2.2-3.1-4.9-5.6-7.8-8.1
				c-3.4-2.9-9.4-7.1-13.3-9.4c-1.4-0.8-2.8-1.7-4.3-2.6c-0.5-0.3-4-2.1-4.2-2.6c0-0.1-0.1-0.1-0.2-0.2c4.1-0.9-0.7-2.5,9.6,2.3
				c11.8,5.4,9.5,4.2,21.5,6c3.3,0.5,2.4,0.5,4.8,2c0.9,0.6,3.4,2,4,2.7c-1,1.8-2.4,3.7-3.6,5.5c-0.9,1.3-3.3,4.5-3.7,5.5
				c0.5,0.4,0.7,0.4,1,0.7c0.5,0.5,0.2,0.2,0.7,0.8l6.6,5.9c0.9,0.8,0.6,0.6,1.4,1.5c0.9,1.1,2.4,1.8,3.4,2.9c2,2.1-0.2,0.4,3.3,2.9
				l3.6,2.6c1.5,1.3-0.4,3.3,1.7,10c0.1-0.7,0.2-1.5,0.4-2.2c0-0.5,0.1-1.1,0.2-1.6l0-0.2c0.2-7.1,1.9-3.9-4.3-10.7l-5.8-5.8
				c-0.5-0.5-0.9-0.6-1.4-1c-0.7-0.5-0.6-0.6-1.2-1.1l-3.8-3c-0.8-0.6-1.9-1.2-2.6-1.9c1.2-3.1,6.2-10,6.6-11
				c-2.4-2.7-8.7-5.9-11.3-7.4l-5.8-1.1c-0.5-0.1-1-0.2-1.5-0.4c0.3,0.3,0.5,0.6,0.7,1c-8.5-1.8-18.3-8.7-25-13.9
				c-4.2-3.3-9.6-6.4-14.6-8.6c-7.1-3.2-14.5-6.3-22.2-8.8c-4-1.3-13.7-4.6-19.8-6.3l-26.5-3.1c-0.1,0-0.2,0-0.3,0l-3.2,1.3
				c-4.1,1.4-6.1,2.5-10,4.3c-4.6,2.2-8.7,4.3-12.3,6.8c-3.3,2.3-4,2.8-6.7,5.5c-1.7,1.7-2.1,1.8-3.6,3.6c-1.4,1.8-2.3,4-3.4,6.1
				c-1.2,2.1-2.1,4.2-3.2,6.4c-4.6,9.4-7.6,17.1-10.8,27.7c-1.6,5.5-8.9,26.5-9.3,29l13.4,5.1c0.9-0.6,0.8-1,1.7-1.7
				c0.6-0.5,1.3-0.9,1.9-1.4c0.8-0.8,0.6-0.9,1.6-1.7c0.7-0.5,1.3-0.9,1.9-1.4c2.3-2.4,4.6-4.2,7-6.4c-1.3,4.2-3.5,8.9-5.1,13.1
				c-0.7,1.7-0.4,1.8-1.9,2.6l-8.5,4.9c-1.4,0.4-20.5-6.3-26.1-7.8l-0.2,11.6c1.1,2.4,2.5,5.1,3.4,7.3l12.4,32.3
				c1.3,3.6,2.7,7.2,4.1,10.8c1.6,4,1.2,2.8-2.1,10.4l-36,83.7c-1.5,3.5-2.9,7-4.5,10.5c-1.1,2.4-4.1,8.9-4.5,10.5
				c0.4-2.1,34.2-96.9,36.3-102.5c3.8-10.2,3.9-7.9,0.1-21.4c-2.6-9.3-5.7-23.3-8.1-33.5l-1.2-4.7l0,1.2c0,0.5,0,1-0.1,1.5
				c0.7,1.8,1,3.9,0.8,5.9l-2.5,31.6c1.2-8.2,2.2-14.6,2.4-15c0.7,3.5,6.9,25.6,6.6,27l-9,24.9c-0.6,1.6-2.7,7.7-4.3,12
				c-0.1,0.4-0.3,0.7-0.4,1c-0.7,1.8-1.2,3.1-1.5,3.4c0-0.2,0-0.5,0-0.7c-0.2,0.3-0.4,0.5-0.6,0.8c-0.5,1.2-1.1,2.3-1.9,3.3
				l-19.7,25.3c-3.4,7.9-8.2,18.2-10.7,23.9c-1.2,2.7-1.7,2.5-1,5.5l2.7,12.5c0.1,1.3-1.8,2.6-3.3,4.2c-2.6,2.6-5,5-7.6,7.6
				c-1.1,1.1-4.6,4.7-8,8.2l1.7,6.8c3.1-1.9,7.1-4.7,8.5-5.6c1-0.7,1.9-1.2,2.9-1.8c3.9-2.4,26.6-17.1,27-17.8l9.2-30.4
				c0.6-1.9,0.6-2.5,1.6-3.4l6.4-5.8c1.9-2.4,4.3-4.2,6.6-6.3l4.9-4.9c1.8-1.6,3.5-3.2,5-5.1l26.6,14.1c1.7,1.1,8.5,12.2,10.5,14.9
				c1,1.3,2.1,1,3.9,1.1c3.2,0.3,6.4,0.6,9.6,0.9c3.8,0.3,3.4,0,5.1,2.4l12.2,15.7c0.1,0.5-0.8,3.2-1,4c-2.7,8.8-5.6,17.8-8.2,26.6
				L-16.6,523.7z M-153.6,497.5l0.6-1c-0.3,0.1-0.5,0.2-0.8,0.3L-153.6,497.5z M-150,511.9c0.4-0.3,0.8-0.5,1.3-0.8
				c0.5-0.4,0.9-0.7,1.4-1c-1,0.1-2,0.3-3,0.4L-150,511.9z M-161.9,457.1L-161.9,457.1L-161.9,457.1L-161.9,457.1z M-17.9,207
				l-0.1,0L-17.9,207L-17.9,207z M105.8,249.6c0.2,0.1,0.3,0.1,0.5,0.2l-0.1-0.2C106.1,249.6,106,249.6,105.8,249.6z M113.2,255.4
				c-1.6,2.8-4.5,8-4.8,9.8c1.3,0.8,1.9,1.9,3.1,2.9c2.9,2.4,6.6,7.9,8.2,9.2c0,0,0.1,0,0.2-0.1l0.6-0.2c-0.7-1.6-2.9-4.4-4.1-6
				c-1.4-1.9-2.9-3.8-4.6-5.3c0.1-1.5,2.1-6.2,3.4-8.9L113.2,255.4z M119.9,260.1c0.2,0.3,0.4,0.6,0.6,0.9c0-0.2,0-0.4,0-0.6
				C120.3,260.3,120.1,260.2,119.9,260.1z M81.1,238.3c-0.1,0-0.3,0-0.4-0.1l0.5,0.4C81.2,238.5,81.1,238.4,81.1,238.3z M24,212.5
				l-0.2,0l0.3,0.1L24,212.5z M124.3,279.9c0,0.2,0,0.4,0,0.6c0,0.4-0.1,0.6-0.2,1c-0.4,0.9,0.3,0-0.4,0.6c0.2,0.6-0.4,0.7,0.1,0.6
				c-0.1,0.1-0.1,0.3-0.2,0.4c0-0.1-0.1-0.3-0.1-0.4l0.3,0l0.2-0.4c0.1-0.4,0.2-0.7,0.3-1.1c0.1-0.4,0.1-0.8,0.2-1.2L124.3,279.9z
				 M124.2,327c-0.1,0.6-0.2,1.1-0.3,1.8l0.5-0.5c0.2-0.3,0.4-0.6,0.6-1C124.7,327.2,124.5,327.1,124.2,327z M-128.8,485.3
				c-0.3-3.1,0-7.1,0.1-10.2c0.1-3.2-0.4-7,1-9.8c2.6-4.8,4.8-9.7,7.2-14.3c3.2-6.3,11.6-23.5,14.4-28.2L-128.8,485.3z M-75.4,312
				c7.5-0.3,3.8,5.4,17.4-2.9c4.2-2.5,2.9-2,8.1-0.2l26,9.1c5.6,2.1,12,4.5,17.7,6.2c0.2-1,1.9-4.8,2.5-5.5l1.3,19.9
				c-4.5-1-15.6-7-18.1-6.1c-2.4,0.8-2.4,1.6-4.5,0.3c-3.4-2-10.5-4.8-14.6-3.3c-2.6,1-5.3,3.6-6.1,6.4c-1,3.6,1,6.8,2.6,9.2
				c1.3,2,9.7,13.5,10.6,13.8c-0.9-0.2-4-2.8-4.3-3.1l-5.6-6c-0.4-0.5-0.4-0.6-0.9-1.2c-5.8-7.3-11.9-22.4-7.8-30.6l40.5,14.7
				l0.5-4.4c-0.6-0.5-38.5-15.1-41.2-14.4c-2.8,0.7-9.3,7.3-13.6,8.7c-2.7,0.9-7.2,1.1-10.1,0.2L-75.4,312z M53.2,310.3l-0.3-0.4
				l-15.9,26.3l-6.9-2.5l24.2-40.1l7.7,2.7l-4.5,30.7c1.3-1.3,3.1-4.9,4.2-6.7c1.4-2.3,2.6-4.4,4-6.7l8.2-13.3l6.9,2.3
				c-0.4,1.4-11,18.6-12,20.3c-1.6,2.7-11.2,19-12.2,20l-7.7-2.7L53.2,310.3z M23.8,284.6c3.8-0.9,14,3.2,17.9,4.6
				c3,1.1,5.3,2.9,4,7c-0.8,2.5-10.8,18.6-12.5,21.5c-1.5,2.5-2.8,4.6-4.3,7.1c-4.4,7.4-9.5,5.4-15.6,3.3
				c-6.7-2.3-14.1-3.2-12.4-9.6c0.6-2.4,10.8-18.7,12.5-21.5c1.4-2.4,2.9-4.7,4.2-7.1c1.5-2.6,1-1.6,2.5-3.2
				c0.6-0.7,0.7-0.8,1.7-1.3C22.4,285,23,284.8,23.8,284.6z M75.1,299.4c1.8-3.4,4.3-6.7,6-10.1l6,2c-0.3,0.9-0.3,0.7-0.9,1.6
				l-4-1.4l-1.5,2.6l3.1,0.8l-0.9,1.7l-3.4-1.1c-0.2,1.3-0.9,1.9-1.5,3.3c1.4,0.2,3.2,0.7,4.2,1.4l-1,1.3l-5.5-1.8
				C75.2,299.6,75.3,299.6,75.1,299.4z M9.2,278.1l7.6,2.5l-24.3,40.3l-7.4-2.7L9.2,278.1z M-39.7,301.6c1.6,1.4,7,2.9,9.7,3.8
				c6.1,1.9,6.1,3.4,8.9-1.1c1.4-2.3,1.6-2.3,0.2-5c-1.5-2.9-5.8-11.4-6.5-13.5c-1.2-3.8,1.4-7.1,2.9-9.6c1.7-2.8,3.3-5.4,7.4-6
				c3.1-0.5,17.3,4.6,20.7,6.1c-0.4,1.1-3.2,5.8-4,6.8l-0.4-0.3c-2-1.3-6.7-2.6-9.3-3.5c-4.9-1.7-5.8-3-8.4,2.3
				c-0.9,1.9,0.3,3.2,1.2,4.9c1.6,3.1,6.1,11.4,6.2,13.8c0.2,3.2-4.2,10.2-5.5,11.5c-1.7,1.6-3,3.3-6.7,3.2
				c-2.1,0-18.8-5.6-20.4-6.6C-42.5,306.1-41,303.7-39.7,301.6z M-55.5,304.4c1.1-2.7,4.2-7.3,5.9-10.1c2-3.3,4-6.7,6-10.1
				c4-6.7,7.8-13.4,12-20c1.3,0.1,6.8,1.9,7.7,2.6l-24.2,40.1L-55.5,304.4z M-77.2,296.9c0.3-2.2,10.4-34.6,12.3-41.2
				c0.1-0.5,0.2-0.9,0.4-1.4l0.6-1.4l7.8,2.6c-0.2,1.8-8.2,25.9-9.6,30.1c-0.6,2-1.4,3.1-0.7,4.1c0.5-0.9,1.1-1.6,1.8-2.4
				c0.8-1,1.3-1,2.1-2c0.7-0.8,1.2-1.5,1.9-2.3c0.8-0.9,1.2-0.9,2-1.9c0.7-0.8,1.2-1.5,1.9-2.3c0.8-0.9,1.2-0.9,2-1.9
				c0.7-0.8,1.2-1.5,1.9-2.3c0.8-0.9,1.2-0.9,2-1.9c2.3-2.8,2.9-3,3.9-4.2c2.4-3,0.9-1.3,3-3.2l2.7-3.3c1-1.1,1.1-0.9,2.6-0.4
				l4.7,1.6c0.2,0.1,0.5,0.2,0.6,0.3c0.4,0.2,0.4,0.2,0.6,0.4c-1.6,1.6-2.8,3.1-4.3,4.7c-1,1.1-2,1.6-4.5,4.4
				c-1.3,1.4-2.9,3.5-4.3,4.7c-0.6,0.5-0.8,0.5-1.4,1c-0.4,0.3-0.7,0.7-1,1.1c-1.7,1.9-4.8,5.6-6.6,6.9c-1.3,0.9-4.9,5.2-6.5,7
				c-0.4,0.4-0.7,0.9-1.2,1.2c-3.6,2.9-3.5,3.9-5.4,5.3L-77.2,296.9z M79.6,287.7c-0.2,0.9-0.1-0.8,0.1,0.3c0,0.2,0,0.3,0,0.5
				c-0.2,1.4-0.3,1.1-1.5,2.9l-4.5,7.7l-1.9-0.8c0.5-1.4,2-3.1,2.6-4.7l-2.9-0.9l-2.9,4.6l-1.8-0.7l4.9-7.9l-0.4-0.7
				c0.1-0.2,0.2-0.2,0.3-0.3l-2.6-0.8c-1,1.4-4.6,7.3-5,8.6l-2-0.7c0.6-2.3,4.1-6.3,5-8.8l-2.3-0.6l1.1-1.8l0.6,0.3l0.8-0.6
				c0.1,0,0.3,0,0.4,0c-1.3-1.1-4.1-1.4-5.9-2.3c0-2.6,1.3-6.2,0.2-8.3c-1.1-2.1-2.4-4.3-3.6-6.3c-2-3.2-0.9-3.6-5.1-4.7
				c-4.1-1.1-21.1-6.4-22.7-6.2l-20.7,8.5c-9.3,3.9-6.3,3.8-14.1,0.8c-5.1-2-16.7-5.2-22.2-6.8c-0.6-0.2-14.7-3.7-15.1-4.5l-1.9-12
				c5.5-2.4,14.7-7.2,20.5-9.9c5.1-2.4,3.8-2.5,7.8-1.9c11,1.8,23.5,2.9,33.9,6.4c16.3,5.5,26.9,11.6,41,19.6
				c4.2,2.4,8.7,5,12.6,7.6l-0.2,15.8c0.2,0.7,11.1,8.1,13.1,10.1L79.6,287.7z M103.2,319c-0.9-0.9-5.2-12.4-6.1-14.7
				c-2.1-5.2-4.2-9.3-6.5-14.1c-4.6-9.4-9.2-18.4-13.6-27.5c-4.4-8.9-1.8-5.2-10.3-10.2c-4.4-2.6-8.9-4.7-13.3-7.3l-26.6-14.7
				c9.4,1.1,23.6,6.2,31.2,10.5c2.2,1.3,4.7,2.5,6.6,3.8c1.2,0.8,2.2,1.4,3.2,2.2c4.4,3.3,14.5,10.2,17.9,13.2
				c0.8,0.7,0.8,0.6,1.5,1.2c0.7,0.5,0.6,0.6,1.2,1.2c0.5,0.5,1,0.7,1.6,1.1c0.9,0.7,0.5,0.7,1.2,1.5c1.1,1.4,0.8,0,2.5,2.5
				c3.6,5,4.9,6.1,6.5,14.2c1,5.6,1.7,12.7,2.2,18.5C102.4,303.1,104.2,317.3,103.2,319z M-57.1,253c-1-5-1.4-3.1,1-7.6
				c1.3-2.4,2.3-4.6,3.5-6.9c4.9-9.3,3-8.1,9-11.9c4.2-2.7,8.3-5.5,12.6-8.3c2.6-1.7,13.2-2.8,17.2-3.4c3-0.5,6-0.9,9-1.4
				c4.2-0.6,4.3-0.1,8.1,1.2l31.2,10.5c2.6,0.8,5.2,1.8,7.8,2.7c2.5,0.8,5.4,1.5,7.6,2.7l-34.1-4.6c-0.4,0.8-0.7,1-1.1,1.8
				c-7.3-0.9-14.7-2.1-22-3.1c-3.4-0.5-7.6-1.4-11-1.6c-1.7-0.1-3,1-4.4,1.7l-20.7,10.7c-2.1,1.1-1.5,0.6-1.9,1.4
				c-0.6,1.3-1.3,6.5-1.3,7.8c0.1,2.5,0.3,9.8,1.1,11.5c0.6,0.6,43.1,12.2,47.9,13.6c6.9,2.1,4.6,1.3,15-2.8c2.5-1,4.9-2.1,7.4-3.1
				c2.3-0.9,4.7-2.6,7.2-2c5.4,1.3,11,2.9,16.3,4c2.2,0.5,1.9,0.5,2.9,2.1c1.4,2.1,5.7,7.7,5.3,9.1c-1.5,4.6-1.2,2.8,0.5,7.4
				c0.4,1,1.3,2.8,1.4,3.6c0.4,1.5-0.5,1.2-1.5,3c-4.5-1.4-9.8-3.6-14.3-5.4C32.2,281.8,9.4,275-1.5,271.6c-10-3-19.8-6.2-29.7-9.4
				c-9.8-3.1-20-6-29.6-9.4L-57.1,253z"/>
			<g>
				<path class="st1" d="M92.1,340.9c1.2-2-1.2-5.9-6.3-2.2c-0.8,0.6-1.1,1.3-1.2,2.8C84.6,345.8,87.5,348.5,92.1,340.9z"/>
				<path class="st1" d="M77.2,335.8l0.4,0.2c5.6,0.1,12.9-2.8,16.5,1.9l-0.2-1.1C90.9,331.9,82.6,335.1,77.2,335.8z"/>
			</g>
			<g>
				<path class="st2" d="M71.6,288.9l-4.9,7.9l1.8,0.7l2.9-4.6l2.9,0.9c-0.6,1.6-2.1,3.2-2.6,4.7l1.9,0.8l4.5-7.7
					c1.1-1.9,1.3-1.5,1.5-2.9l-1.8-0.3c-1,1.2-1.6,3-2.7,4l-2.7-0.9l2.3-4.2l-1.7-0.6C72.4,287.3,72.1,287.7,71.6,288.9z"/>
				<path class="st2" d="M75.1,299.4c0.2,0.2,0.1,0.2,0.6,0.4l5.5,1.8l1-1.3c-1-0.8-2.8-1.2-4.2-1.4c0.6-1.4,1.3-2,1.5-3.3l3.4,1.1
					l0.9-1.7l-3.1-0.8l1.5-2.6l4,1.4c0.6-0.9,0.6-0.7,0.9-1.6l-6-2C79.3,292.7,76.9,296,75.1,299.4z"/>
				<path class="st2" d="M71.5,287.9c0.1-1.5,0.4-0.7,0.5-1.8l-5.8-1.9l-0.6-0.3l-1.1,1.8l2.3,0.6c-0.9,2.5-4.3,6.5-5,8.8l2,0.7
					c0.4-1.4,4-7.2,5-8.6L71.5,287.9z"/>
			</g>
			<g>
				<path class="st3" d="M76.9,444.7c0,1.4-0.4,0.3,2.3-0.3c0.9-0.2,2.1-0.4,3-0.5c1.2-0.2,4.6-0.9,5.7-0.9c0-0.7,0-1.4,0-2.1
					c0-1.8,0.2-1.9,0.7-2.4l-0.9-11.6c2.3-0.7,3.2-0.2,4.5-0.9c-2.4-0.9-15.1-1.1-19.1-1.6l1.1,1.6c0.6,0.5,0.6,0.4,1.2,0.9
					c0.7,0.6,1.1,1.4,1.9,2.3c2.1,2.4,2.8,3.8,0.3,4.6c0.7,1.1,9.7,5,2.9,9.3C79.5,443.5,77.6,444.1,76.9,444.7z"/>
				<path class="st3" d="M96.1,345.2c-0.1,1.7-2.3,4.3-3.1,4.9c-0.9,0.7-3.8,3-5.2,2.8c-1.2,2.7-6.9,2-8,4.3
					c0.3,0.1,0.4,0.1,0.8,0.3c0.7,0.5,0.3,0.1,0.9,0.8c1,0.4,2.6,1.7,3.8,2.2l0.1,1.9l0.2-1.9c4.1-0.6,10.7-5.1,12.4-7.2
					c2.1-2.6,1.4-2.4,2.4-4c0.3-1.2,0.2-2,0.7-3l-3.3,0.9l-0.6-2.5C96.6,345.3,97,345,96.1,345.2z"/>
				<path class="st3" d="M72.4,414.8l10.8-0.4c2.7,0.4,5.9-0.8,8.5-0.1c-0.4-0.5-0.2,0-0.2-0.8l6.4-2.2c-1.4-1-1.1-0.4-1.1-0.4
					l-13.7-0.2c-2.4,0-4.9-0.4-6.7,0.7C73.4,413.3,73.9,413.8,72.4,414.8z"/>
				<path class="st3" d="M100.7,383.9c0.7,1.5,2,2.9,2.5,4.5c3.2,0,4.5,0.4,8-0.1c1.5-0.2,6.3-0.7,7.4-1.2c-1.7,0-6.8-1.5-8.9-1.9
					C106.5,384.5,103.9,383.5,100.7,383.9z"/>
			</g>
			<g>
				<path class="st4" d="M72.4,414.8c1.6-1,1-1.5,4.1-3.4c1.8-1.1,4.3-0.7,6.7-0.7l13.7,0.2c0,0-0.4-0.6,1.1,0.4l6.3-2l-3.6-9.8
					l-0.2-1c-5.1,2.2-10.5,4.4-16.1,6.3c-9.2,3.1-8.4,0.8-12.5,10.1L72.4,414.8z"/>
				<path class="st4" d="M95.2,425.8l2-4.4c-0.5-1.1-1.8-2.7-2.6-3.8c-2.3-3.3-0.7-1.4-3-3.4c-2.6-0.6-5.8,0.5-8.5,0.1
					c0.6,0.8,1.7,0.9,3.2,1.7c1.1,0.6,2.2,0.9,3.3,1.5c2.7,1.4,3.5,0.9,4.5,2.7c1,1.7,1.5,1.6-0.3,4.5c-0.5,0.8,0,0.3-0.6,0.7
					L95.2,425.8z"/>
			</g>
			<g>
				<path class="st5" d="M79.2,358.9l4.6,2.9l-0.1,12.5c-1.8,1.2-5.4,2.7-7.4,3.7l-11.1,5.3c-2.3,1.1-2,0.6-2.4,3.2
					c-1.4,8.6-3.8,19-5.5,28c-0.6,3.3-3.6,17-3.6,19c3.7,3,2.6,3.1,4.6,4.7c1.5,1.2,1.8,2.2,2.9,3.3c0.8,0.8,1,0.6,1.7,1.5
					c1,1.2,2.2,2.2,1.9,4.4c-0.2-1,0.6-1.4,0.9-2.4c-0.4-2.5-1-2.4-2.3-3.7c-3.4-3.2-3.4-3.7-5.6-5.8c-0.9-0.9-2.1-1.8-2.8-2.8
					c0.4-3.1,2.4-9.2,3.3-12.4c1.3-4.5,2.5-8.2,5.1-10.7L80.1,395c-3,1.4-7.2,4-10.1,5.8l-9.6,6.6l3-18c0.4-2.9-0.1-3.3,2.3-4.5
					c2.8-1.3,17.7-7.7,18.9-8.6l0.6-10.9l0-2.9l-0.1-1.9c-1.2-0.5-2.7-1.9-3.8-2.2c-0.2,0-1,0-1.2,0.1
					C78.7,358.7,79.8,358.4,79.2,358.9z"/>
				<path class="st5" d="M66.2,284.2l5.8,1.9c-0.1,1.1-0.4,0.3-0.5,1.8c-0.1,0.1-0.2,0.1-0.3,0.3l0.4,0.7c0.5-1.2,0.7-1.5,1.4-2.4
					l1.7,0.6l-2.3,4.2l2.7,0.9c1.1-1,1.7-2.8,2.7-4l1.8,0.3l0-0.3c0,0,0-0.1,0-0.1c-0.1-1.1-0.3,0.6-0.1-0.3
					c-1-0.6-11.3-4.1-12.2-4.1c-0.1,0-0.3,0-0.4,0L66.2,284.2z"/>
			</g>
			<g>
				<path class="st6" d="M-1.2,462.6l-17.4-6.6l-0.1,0.2c0.4,1.1,1,1,2.8,2.8l12.5,11l-7.7,33c0.9-1,12.3-27.8,14.2-31.8
					c2.2-4.9,1.4-3.6,7.2-4.5c3.3-0.5,6.6-1,9.8-1.5c5.5-0.9,10.4-1,14.1-3.2l3.5-2.3c-2.7,0.4-33,5.2-34.9,4.7
					C2.1,464-0.7,462.9-1.2,462.6z"/>
				<path class="st6" d="M-106.1,422.9c-2.8,4.7-11.2,21.9-14.4,28.2c-2.4,4.6-4.6,9.4-7.2,14.3c-1.5,2.7-0.9,6.5-1,9.8
					c-0.1,3.1-0.4,7.1-0.1,10.2L-106.1,422.9z"/>
			</g>
			<g>
				<path class="st7" d="M30.4,340.6c1.7,1.8,2.9,2.5,4.5,4.1l10.6,8.8c1.1,0.8,2.5,2.4,3.6,3L45.8,372l11.5,7.3
					c2.2,1.4,1.3,1.9,2.6,3.9c0.9-0.2,0.2,0,1.3-0.5l8.6-4.8c2.5-1.2,8.2-4.7,9.9-5.3c0.8-13.1,4.2-8.6-7.1-16.4l-9.4-6.3
					c-2.6,1.6-0.7,2.7-7.7-0.8l-23.9-11L30.4,340.6z"/>
				<path class="st7" d="M100.3,349.4c-1,1.7-0.4,1.4-2.4,4c-1.7,2.1-8.3,6.6-12.4,7.2l-0.2,1.9l0,2.9l-0.1,2l5.6-5
					c1.6-1.9,3.1-1.1,8.2-0.3l1.7,21.7c3.2-0.4,5.8,0.6,8.9,1.3c2.1,0.4,7.2,1.9,8.9,1.9c0.5-0.7,3.5-6.5,3.6-7.2
					c0.4-1.6-2.1-5.9-2.9-7.7c-2.1-5.1-4.2-10.1-6.4-15.1c-3.5-8.1-3.7-6.5-1.8-16.8c0.4-2,2.9-2.7,6.2-4.6c1-0.6,2.3-1.3,3.5-1.9
					c2.7-1.3,1.4-0.9,2.6-2.6l-0.3-0.5c-0.9-2.1,0.4,1.6-0.2-0.5c-0.1-0.3,0-0.6,0-0.8l-0.1,1.6l-1.5-3.3c-0.5,0.5-1.2,2.8-1.5,3.6
					c-0.7,1.8,0,0.9-2.8,2.6c-2.3,1.4-4.5,2.6-6.7,4c-5.5,3.3-4.7,2.2-5.7,5c-0.7,1.9-2.1,4.6-3.6,5.9c-0.1,0.1-0.3,0.2-0.3,0.3
					L100.3,349.4z"/>
				<path class="st7" d="M87,377.4l-2.4,1.2c-0.8,0.5-1.7,0.8-2.6,1.2c-3.5,1.6-12.8,6.5-15.3,7.1l-2.3,15L85,384.1
					c0.9-1.1,1.9-1.8,3-2.6l-0.2-11L87,377.4z"/>
				<path class="st7" d="M49.8,428.8c1.3-2,2.8-6.4,3.9-8.9c2.8-6.3,3.8-13.6,5.2-20.5c0.6-2.9,2-8.1,2.1-10.9l-2.9-2.3
					C57.7,387.1,50,425.9,49.8,428.8z"/>
				<path class="st7" d="M103.9,334.6c0.7,1.3,1.2,1.2,3.1,3.2l10.6-6.5l-0.7-0.9c-0.7-1-1-1.5-2.1-2.3L103.9,334.6z"/>
			</g>
			<g>
				<path class="st8" d="M10.4,348c0.8,1.2,13.8,8.4,16,10.5l2.2,1.1l-0.5,2.9l-1.5,0.9c-3.2,1.3-27.3,12.6-28.1,13.6
					c0.5,4.8,1.8,10.7,2.7,15.7c0.9,5.3,1.8,10.5,2.7,15.8c0.3,1.8,0.6,6.5,1.8,7.5l11.8,6.7c1.8,1.1,4,2.4,5.9,3.3
					c-0.4-0.6-1.2-1.6-1.8-2.1c-3-2.2-2-2.2-5.4-5.3c-6.4-5.9-5.3-4.4-5.3-8.8l0-28.5l12.4-9.1c1.9-1.4,10.8-8.2,12.4-8.6l3.1-6.7
					c0-1.2-1.4-1.8-2.2-2.5l-8.1-6.8c-0.6-0.5-0.7-0.4-1.3-1.1l-9.4-7.9l0.7-6.4L2.5,326l-0.1,17.2c1,0.7,2.7,1.8,3.9,2.5
					C7.7,346.4,8.9,347.4,10.4,348z"/>
				<path class="st8" d="M-74.2,408.4c0.1-0.7,0-0.2,0.3-0.9c0,0,0.5-0.9,0.6-0.9l10.7-15.5c0.8-1.2,1.6-2.4,2.4-3.6l4.9-6.9
					c-0.3-1.5-6-12-7.2-14l-24.7-47.8l-0.2,0c1.4,4.8,4.1,10.5,5.9,15.4l11.8,31.7c1.3,3.4,1.1,2.3-1.1,7.7l-24.9,61.9
					c-1,2.4-2.4,5.5-3.1,7.8l6.1-8.7c1-1.6,2-2.8,3.1-4.4l9.1-13.3C-79.6,415.8-75.1,408.9-74.2,408.4z"/>
				<path class="st8" d="M52.8,309.9l0.5-0.6l-0.2,0.9l-4.2,30l7.7,2.7c1-1,10.5-17.3,12.2-20c1-1.7,11.6-18.9,12-20.3l-6.9-2.3
					l-8.2,13.3c-1.4,2.3-2.7,4.4-4,6.7c-1.1,1.8-2.9,5.4-4.2,6.7l4.5-30.7l-7.7-2.7l-24.2,40.1l6.9,2.5L52.8,309.9z"/>
				<path class="st8" d="M26.2,292.1c1.8-0.2,3.8,0.9,5.5,1.5c1.2,0.4,4.5,1.1,4.8,2.3c0.3,1.2-8.9,15.8-10.2,17.9
					c-0.9,1.5-1.8,2.9-2.7,4.5c-3.4,5.6-2.1,4.7-11.1,1.7c-3.6-1.2-3.2-0.9,2.6-10.5C17,306.2,24,293.8,26.2,292.1z M23.8,284.6
					c-0.8,0.2-1.4,0.4-2.1,0.8c-1,0.6-1,0.6-1.7,1.3c-1.5,1.6-1,0.6-2.5,3.2c-1.4,2.4-2.8,4.7-4.2,7.1c-1.7,2.8-11.9,19.1-12.5,21.5
					c-1.6,6.4,5.8,7.2,12.4,9.6c6.1,2.1,11.2,4.1,15.6-3.3c1.5-2.5,2.8-4.6,4.3-7.1c1.7-2.9,11.8-19,12.5-21.5c1.3-4.1-1-5.8-4-7
					C37.8,287.8,27.6,283.7,23.8,284.6z"/>
				<path class="st8" d="M103.2,319c1-1.7-0.8-15.9-1-18.8c-0.5-5.8-1.1-12.9-2.2-18.5c-1.5-8.1-2.9-9.1-6.5-14.2
					c-1.8-2.5-1.4-1.2-2.5-2.5c-0.7-0.8-0.3-0.7-1.2-1.5c-0.5-0.5-1-0.7-1.6-1.1c-0.6-0.5-0.5-0.6-1.2-1.2c-0.7-0.5-0.7-0.4-1.5-1.2
					c-3.4-3-13.5-9.9-17.9-13.2c-1.1-0.8-2-1.3-3.2-2.2c-1.9-1.3-4.4-2.6-6.6-3.8c-7.6-4.3-21.7-9.4-31.2-10.5l26.6,14.7
					c4.4,2.6,8.9,4.7,13.3,7.3c8.6,5.1,6,1.3,10.3,10.2c4.5,9.2,9,18.1,13.6,27.5c2.3,4.8,4.4,8.9,6.5,14.1
					C98,306.6,102.3,318.1,103.2,319z"/>
				<path class="st8" d="M46.5,455.4c1.5,0.4,6.8,3,8.4,3.8c2.1,1.1,6.2,3.1,8.2,3.8c-1.7-1.4-3.9-2.8-6.2-4.2
					c-2.3-1.2-4.2-2.5-6.4-3.9c-9.8-6.1-21.1-12.7-30.7-18.8c-4.1-2.6-8-4.9-12.2-7.5c-2.1-1.3-4.1-2.6-6.3-3.8
					c-4.3-2.5-3.7-2-4.4-5.4c-3.1-15.9-7.3-32.6-10.5-48.8c1.5-0.5,13.9-6.4,14.6-7.2c-5.4,1.5-22.9,3.4-26.3,4.9
					c1.1,4.6,3.2,10.5,4.7,15.1l13.2,41.4c0.5,1.5,0.4,2.7,1.7,3.4c4.1,2.4,8.7,4.5,12.9,6.8l19.4,10.4c2.3,1.2,4.1,2.3,6.7,3.5
					C34.9,449.7,46.1,455,46.5,455.4z"/>
				<path class="st8" d="M-77.2,296.9l9.4,3.3c1.8-1.5,1.8-2.4,5.4-5.3c0.4-0.4,0.8-0.8,1.2-1.2c1.6-1.7,5.2-6,6.5-7
					c1.8-1.3,4.8-4.9,6.6-6.9c0.3-0.4,0.6-0.8,1-1.1c0.6-0.5,0.8-0.5,1.4-1c1.4-1.2,3-3.3,4.3-4.7c2.5-2.8,3.5-3.4,4.5-4.4
					c1.5-1.6,2.8-3.1,4.3-4.7c-0.2-0.1-0.2-0.2-0.6-0.4c-0.2-0.1-0.5-0.2-0.6-0.3l-4.7-1.6c-1.5-0.5-1.6-0.7-2.6,0.4l-2.7,3.3
					c-2.1,1.9-0.7,0.3-3,3.2c-0.9,1.2-1.5,1.4-3.9,4.2c-0.8,0.9-1.2,1-2,1.9c-0.7,0.8-1.2,1.5-1.9,2.3c-0.8,0.9-1.2,1-2,1.9
					c-0.7,0.8-1.2,1.5-1.9,2.3c-0.8,0.9-1.2,1-2,1.9c-0.7,0.8-1.2,1.5-1.9,2.3c-0.8,1-1.3,1-2.1,2c-0.7,0.8-1.3,1.5-1.8,2.4
					c-0.6-1,0.1-2.1,0.7-4.1c1.4-4.1,9.4-28.3,9.6-30.1l-7.8-2.6l-0.6,1.4c-0.2,0.5-0.2,0.9-0.4,1.4
					C-66.8,262.3-76.9,294.7-77.2,296.9z"/>
				<path class="st8" d="M-39.7,301.6c-1.4,2.1-2.9,4.4-4.1,6.7c1.6,1.1,18.3,6.6,20.4,6.6c3.7,0.1,5-1.6,6.7-3.2
					c1.3-1.3,5.7-8.3,5.5-11.5c-0.1-2.4-4.7-10.7-6.2-13.8c-0.8-1.7-2-3-1.2-4.9c2.5-5.4,3.5-4,8.4-2.3c2.6,0.9,7.3,2.3,9.3,3.5
					l0.4,0.3c0.8-1,3.6-5.8,4-6.8c-3.5-1.5-17.6-6.6-20.7-6.1c-4.1,0.6-5.7,3.2-7.4,6c-1.5,2.5-4.1,5.8-2.9,9.6
					c0.7,2.1,5,10.6,6.5,13.5c1.4,2.7,1.2,2.7-0.2,5c-2.7,4.5-2.8,3-8.9,1.1C-32.7,304.6-38.1,303-39.7,301.6z"/>
				<path class="st8" d="M-102.3,411.5c0.8-1,5.3-14,6.2-16.4l9-24.9c0.2-1.4-6-23.5-6.6-27c-0.6,1-6.4,43.2-7.3,50.3
					C-101.7,398.5-102.5,406.6-102.3,411.5z"/>
				<path class="st8" d="M-55.5,304.4l7.4,2.5l24.2-40.1c-0.9-0.7-6.4-2.5-7.7-2.6c-4.2,6.6-8,13.3-12,20c-2,3.4-4,6.7-6,10.1
					C-51.2,297.1-54.4,301.7-55.5,304.4z"/>
				<polygon class="st8" points="-15,318.1 -7.5,320.9 16.8,280.6 9.2,278.1 				"/>
			</g>
			<g>
				<path class="st9" d="M30.9,486.9c-6.8,12.2-16.5,27.5-24,40l-4.8,8c-0.7,1.5,5.1,16.3,6,18.9c0.2,0.7,0.4,1.7,0.7,2.3
					c0.5,1.2,0.5,0.9,1.9,1.4c8.7,3.1,22.3,9.4,32,13c6.1,2.3,12.2,5,18.2,7.4l18.1,7.7l2.3,0.6l0.1-0.4c-2.4-1-4.8-2.7-7.3-4.1
					c-2.4-1.3-4.6-2.7-7-4L24.9,553c-0.6-8.6-0.9-20.8-1.3-30.1c-0.2-3.7,4.3-10.6,5.9-15.2c0.7-1.9,1.4-6.4,1.8-8.6
					c0.5-2.8,1.2-5.9,1.8-8.6c0.3-1.2,1.9-7.3,1.2-8.3C32.6,485.2,31.9,484.5,30.9,486.9z"/>
				<path class="st9" d="M-121.3,432.5l-0.5-0.3l-22.3,26.5c-3.5,3.7-2.3,2.3-1.8,7.8c0.4,4.1,1.5,9.5,1.5,13.4
					c0,1.5-11,20.9-13,24.3c-0.7,1.3-2.2,3.6-2.6,4.9c1.6-0.7,13.4-13,15.6-15.2c2.6-2.6,5-5,7.6-7.6c1.5-1.5,3.4-2.9,3.3-4.2
					l-2.7-12.5c-0.7-3.1-0.2-2.9,1-5.5C-131.8,456.2-124,439.3-121.3,432.5z"/>
				<path class="st9" d="M123.5,282.7l-3.7-5.4c-1.6-1.2-5.3-6.8-8.2-9.2c-1.2-1-1.8-2.1-3.1-2.9c0.3-2.1,4.2-8.7,5.4-10.9
					c-3-3.7-11-6.2-16.9-6.5c1.7,1.2,9.4,4.8,12.1,7.9c-0.4,1-5.4,7.9-6.6,11c0.7,0.7,1.8,1.3,2.6,1.9l3.8,3
					c0.6,0.5,0.6,0.6,1.2,1.1c0.5,0.4,0.9,0.6,1.4,1l5.8,5.8c6.5,7.1,4.3,3.2,4.2,11.9C122.5,289.8,124.2,284.6,123.5,282.7z"/>
			</g>
			<g>
				<path class="st10" d="M87.7,370.5l0.2,11c-1.1,0.8-2.1,1.5-3,2.6l-20.7,17.8l2.3-15c2.5-0.6,11.8-5.5,15.3-7.1
					c0.9-0.4,1.8-0.8,2.6-1.2l2.4-1.2L87.7,370.5z M85.3,365.4l-0.6,10.9c-1.2,0.9-16.1,7.3-18.9,8.6c-2.4,1.1-1.9,1.6-2.3,4.5
					l-3,18l9.6-6.6c2.8-1.8,7.1-4.5,10.1-5.8l-16.7,14.7c-2.6,2.5-3.8,6.2-5.1,10.7c-0.9,3.2-3,9.3-3.3,12.4
					c0.7,0.9,1.9,1.9,2.8,2.8c2.2,2,2.1,2.5,5.6,5.8c1.3,1.3,2,1.2,2.3,3.7l0.3,1.4c4.6,0.7,5-0.4,8.7-0.6c0.6-0.8,1.2-0.9,2.3-1.1
					c0.7-0.6,2.6-1.1,3.6-1.7c6.8-4.3-2.2-8.1-2.9-9.3c2.5-0.8,1.8-2.2-0.3-4.6c-0.8-0.9-1.2-1.7-1.9-2.3c-0.6-0.5-0.6-0.4-1.2-0.9
					l-1.1-1.6c3.9,0.5,16.7,0.7,19.1,1.6l3,0l-1.9-0.4c0.5-0.3,0,0.2,0.6-0.7c1.8-2.9,1.3-2.7,0.3-4.5c-1-1.7-1.8-1.3-4.5-2.7
					c-1.1-0.6-2.2-0.9-3.3-1.5c-1.5-0.8-2.6-0.9-3.2-1.7l-10.8,0.4l-0.4,0c4.1-9.2,3.3-6.9,12.5-10.1c5.5-1.9,11-4.1,16.1-6.3l0.2,1
					c0-1.5,1.9-9.8,2.5-11.1c-0.5-1.6-1.9-3-2.5-4.5L99,362.1c-5.1-0.8-6.6-1.6-8.2,0.3l-5.6,5L85.3,365.4z"/>
				<path class="st10" d="M49.8,428.8c0.2-3,7.9-41.8,8.3-42.6l2.9,2.3c-0.2,2.8-1.6,8-2.1,10.9c-1.4,6.9-2.4,14.2-5.2,20.5
					C52.6,422.5,51.1,426.8,49.8,428.8z M59.9,383.3c-1.3-2-0.5-2.6-2.6-3.9L45.8,372l3.4-15.7c-1.1-0.5-2.5-2.1-3.6-3L35,344.6
					c-1.7-1.6-2.8-2.2-4.5-4.1l1.2-2.4l23.9,11c7,3.5,5.1,2.4,7.7,0.8l9.4,6.3c11.3,7.8,7.9,3.4,7.1,16.4c-1.7,0.6-7.3,4-9.9,5.3
					l-8.6,4.8C60.2,383.3,60.8,383,59.9,383.3z M64.7,447.4c0.3-2.2-1-3.2-1.9-4.4c-0.8-0.9-0.9-0.8-1.7-1.5
					c-1.1-1.1-1.4-2.1-2.9-3.3c-2-1.6-0.9-1.7-4.6-4.7c0-2,3-15.7,3.6-19c1.6-8.9,4-19.4,5.5-28c0.4-2.6,0.1-2.1,2.4-3.2l11.1-5.3
					c2.1-1,5.6-2.5,7.4-3.7l0.1-12.5l-4.6-2.9c-1.8-1.5-4-2.9-5.7-4.1l-5.3-4.2c-5.8-5.9-3.9-7.5-0.7-12.2l4.8-4.7
					c1.4-1,1-1.3,1-1.5c0.1-2.2,8.8-4.6,10.3-5c1.1-0.3,2.6-0.8,3.8-1c2.2-0.3,2,0.3,3.1,0.3c1.1,0,0.4,0.1,0.9-0.2
					c-1.2-1.2-7.2-9.8-7.5-10.2c0.6,0.7,1.8,1.6,2.6,2.2c2.3,1.9,1.1,1.7,2.7,2.5c1.1-2.7,3.1-1.8,4.3-4.8c0.7-1.7-0.8-5-1.4-6.9
					c-0.6-2.3-3.4-13.5-4.1-14.4c-1,2.1-2.5,4.3-3.6,6.5c-5.7,10.6-12.6,22-18.5,32.5c-1.2,2.1-2.4,4.3-3.7,6.5
					c-1.1,2.1-2.7,4.5-3.7,6.6l-37.8-14.4l-1.4,3.9l12.5,11.1c0.7,0.7,1.5,1,2.2,1.7c1.2,1.2,0,0.5,2.2,2l6.1,5.5
					c3.9,2.9-0.1,8.2-0.6,15.9l15,10.9c0.3,1.4-7.4,43.9-8.5,48.2c1.3,1.6,2.4,2.6,3.6,4c3.4,3.7,3.7,3.5,7.4,7.6
					c2.7,3,2.6,2.2,2.8,4.9c0.4,0,1.3-0.1,1.6-0.2C65,447.6,64,448,64.7,447.4z"/>
			</g>
			<g>
				<path class="st11" d="M-94.9,302.8c4,0.9,25.5,8.5,27,8.1l8.5-4.9c1.5-0.8,1.2-0.9,1.9-2.6c1.6-4.2,3.8-8.8,5.1-13.1
					c-2.4,2.1-4.7,4-7,6.4c-0.5,0.6-1.2,0.9-1.9,1.4c-1,0.8-0.8,0.9-1.6,1.7c-0.6,0.6-1.2,0.9-1.9,1.4c-0.9,0.8-0.8,1.1-1.7,1.7
					l-13.4-5.1c0.5-2.5,7.8-23.5,9.3-29c3.1-10.7,6.2-18.4,10.8-27.7c1.1-2.2,2-4.3,3.2-6.4c1.2-2.1,2-4.3,3.4-6.1
					c1.5-1.8,1.9-2,3.6-3.6c2.7-2.7,3.4-3.2,6.7-5.5c3.6-2.5,7.7-4.6,12.3-6.8c3.8-1.8,5.9-2.9,10-4.3l3.7-1.5
					c-2.8,0.3-5.7,1.5-8.6,2.1c-2.8,0.6-5.8,1.5-8.5,2.3c-7.8,2.4-21,7.9-27.5,13.1l-3.2,2.5c-2,2-4.9,4.1-6.9,6.5
					c-2.3,2.7-4.9,5.2-7.8,8.7c-3.8,4.6-9.8,14.6-11.6,20.9C-94.4,274-94.4,290.9-94.9,302.8z"/>
				<path class="st11" d="M-71.7,410.1c-0.8,2.2-4,6.2-4.7,8.1l6.2,7.7c0.8,1.1,0.9,1.6,2.7,2.1c4.7,1.5,9.4,3.1,14.1,4.7
					c2.3,0.8,4.6,1.6,6.9,2.3c2.2,0.7,1.6,1,3.6,5.9c1.2,3,4.1,11.4,5.6,13.6l15.2-2.1c1.2-0.6,2-10.2,2-10.2c0-0.3-12-21-13.9-23.6
					c-0.8-1.1-2.8-1.4-4.3-2l-13.8-5c-7-2.5-3.7-1.1-9.7-9.1c-1-1.3-1.6-2.7-2.6-3.7C-65.7,399.9-70.7,409.6-71.7,410.1z"/>
				<path class="st11" d="M23.4,425.9c1.2,1,4.9,2.9,6.6,3.9c2.2,1.2,4.3,2.5,6.6,3.8c2,1.1,12.3,6.8,13.3,7.7l8.2,4.4
					c-0.6-0.9-10.3-11-11.3-11.6c-1.7-0.9-12.9-13.5-16.3-16.8c-0.7-0.7-1.1-0.7-1.9-1.4c-1.9-1.8-4.2-4.3-5.9-6.2l1-2.3
					c0.9-2.9,3.1-7.1,4.4-10.1l8.8-19.9c1-2.1,4.1-8.4,4.3-10.4c-1.1-0.1-2.1-1.1-3-1.7c-0.5-0.4-0.8-0.7-1.4-1
					c-0.9-0.7-0.1-0.3-1.3-0.8c-1.6,0.4-10.5,7.2-12.4,8.6l-12.4,9.1l0,28.5c0,4.4-1.1,2.9,5.3,8.8c3.4,3.1,2.5,3,5.4,5.3
					C22.3,424.3,23.1,425.4,23.4,425.9z"/>
				<path class="st11" d="M-39.5,394.4c1.5,1.2,4.9,2.6,6.8,3.6c4,2.1,2.9,1.6,4.5,5.9c4.1,10.8,8.6,24.6,12.7,34.7
					c1.4,3.5-0.7,7.4-1.2,13.9c1.1,0.4,2.5,0.8,3.7,1.2c1.9,0.6,1.8,0.8,3.4-0.1L10.2,442c-0.1-0.1-0.2-0.2-0.2-0.1l-8.9-4
					c-1.8-0.8-8.4-3.1-9-4.4l-12.9-40.3c-2-6.8-4.7-13.7-6.4-20.5c-2,1.1-3.4,3-4.4,4c-0.6,0.6-1.6,1.3-2.3,1.9
					c-1.6,1.3-1.1,1.3-2.2,2.3c-1.5,1.3-3.8,2-3.7,5C-39.8,388.6-39.7,391.7-39.5,394.4z"/>
				<path class="st11" d="M-16.8,524.2c1.7-0.7,1.6-1.7,3.9-3.7c1.3-1.2,2.5-2.1,3.8-3.3c0.9-0.8,0.9-1.3,1.8-2.1
					c1.4-1.4,4.7-3.9,5.7-5.1c0.4-0.5,0.4-0.7,0.9-1.2l2.9-2.5c0.7-0.6,1.2-1,1.9-1.7c1.4-1.2,0.9-0.9,1.7-1.9
					c1.2-1.4,4.9-4.1,5.8-5.2c3.2-3.9,4-3.4,7.3-7.3l5.8-5.2c0.8-0.8,0.7-1.1,1.6-1.9c1.8-1.7,4.4-3.5,5.7-5.3
					c3.9-5.3,3.9-0.2,5.7-8.9c0.4-2,0.9-4,1.2-5.9c-4.1,2.9,2.5,1.8-10.6,4.1c-4.2,0.7-8.3,1.5-12.4,2.2c-2.1,0.4-4.2,0.7-6.3,1.1
					c-3.3,0.6-3.1-0.1-4.3,2.9c-4.1,10-9.1,20.7-13.2,30.6C-10.6,510.5-14.2,517.4-16.8,524.2z"/>
				<path class="st11" d="M114,315.2c1.5-0.1,1.1,0.4,2.4,2.3c1.3,1.8,4.5,8.3,4.9,10.2l1.5,3.3l0.1-1.6
					c-0.4-11.2-1.3-19.6-2.4-30.3l0-3.4c0.3-1.2,0.1-0.4,0.5-0.8c-2.3-7.1-0.3-9.2-1.9-10.5l-3.6-2.6c-3.5-2.5-1.3-0.8-3.3-2.9
					c-1-1-2.5-1.8-3.4-2.9c-0.8-1-0.5-0.8-1.4-1.5l-6.6-5.9c-0.5-0.6-0.2-0.3-0.7-0.8c-0.3-0.3-0.5-0.3-1-0.7
					c0.4-1.1,2.8-4.2,3.7-5.5c1.2-1.8,2.6-3.7,3.6-5.5c-0.6-0.8-3.1-2.2-4-2.7c-2.5-1.5-1.6-1.5-4.8-2c-12-1.8-9.7-0.6-21.5-6
					c-10.3-4.8-5.6-3.2-9.6-2.3c0.1,0.1,0.1,0.1,0.2,0.2c0.1,0.5,3.7,2.3,4.2,2.6c1.5,0.9,2.9,1.8,4.3,2.6c3.9,2.3,9.9,6.5,13.3,9.4
					c2.9,2.4,5.5,5,7.8,8.1c8.3,11.4,9.7,21.7,10.2,35.5c0.2,4.3-0.2,9.5,0.2,13.6c1.8-1,3.7-1.2,6-0.5
					C113.4,314.6,113.6,314.7,114,315.2z"/>
				<path class="st11" d="M-90.9,321.9c-1.3-3.3-3.9-7.9-4.6-10.5c-0.5,0.7,0,2.1,0.2,2.8l2.1,8.4c2.5,10.2,5.5,24.2,8.1,33.5
					c3.8,13.4,3.7,11.1-0.1,21.4c-2.1,5.6-35.9,100.4-36.3,102.5c0.4-1.6,3.5-8.1,4.5-10.5c1.5-3.4,2.9-7,4.5-10.5l36-83.7
					c3.2-7.6,3.7-6.4,2.1-10.4c-1.4-3.6-2.8-7.2-4.1-10.8L-90.9,321.9z"/>
				<path class="st11" d="M1.1,363.4c-0.7,0.7-13.1,6.7-14.6,7.2c3.2,16.2,7.4,32.9,10.5,48.8c0.7,3.4,0.1,3,4.4,5.4
					c2.2,1.3,4.2,2.5,6.3,3.8c4.2,2.6,8.1,4.9,12.2,7.5c9.5,6.1,20.9,12.7,30.7,18.8c2.2,1.4,4.2,2.7,6.4,3.9c-1.4-2-8.4-6-9.4-7.4
					c-1.4-0.6-9.8-7-12.1-8.6L19.3,431c-3.8-3-10.1-7.1-14-10.2c-0.5-0.4-0.8-0.5-1.2-0.9c-1.3-0.9-0.7-0.2-1.5-4.5
					c-0.9-4.5-1.8-8.9-2.7-13.4l-3.7-28.8c2.2-0.4,12.1-5.6,15-6.9l14.8-6.9l-0.6-0.2L1.1,363.4z"/>
				<path class="st11" d="M-62.9,396.7c0.3,0.4,0.8,0.8,1.2,1.4c0.5,0.6,0.8,0.9,1.2,1.5c0.5,0.6,0.8,0.9,1.2,1.5
					c1.2,1.7,4.5,6.3,6.5,7c5.4,1.9,10.8,3.7,16.2,5.6c5.3,1.9,3.7,0.2,6.1,4.6c1.9,3.5,10.8,20.2,11.8,21.1L-30.4,407
					c-1.4-3.8-0.7-3-3.9-5c-2.5-1.6-9-5.3-10.8-6.8l2.3-13.9c-1-0.4-0.9-0.4-1.7-1c-0.6-0.5-0.9-0.6-1.5-1.2l-9.2-7.3
					c0.4,1.8,6.7,8.9,5.9,10.1l-5.5,5.8c-0.4,0.6-0.7,1-1.2,1.5c-0.7,0.8-0.9,0.7-1.6,1.4c-0.9,0.9-1.6,2.2-2.6,3.1
					C-61.1,394.5-62.1,394.9-62.9,396.7z"/>
				<path class="st11" d="M48.7,449l2,1.6c0.8,0.7,1.1,1,1.9,1.7l13.9,11.5c1,0.6,1.4,0.3,2.7-0.1c1.9-0.6,3.8-1.2,5.8-1.7
					c2-0.6,10.8-2.9,11.3-3.5l2-7.8c-0.3-1.2-1,0.3-1.5,0.7c-0.9,0.6-7.5,1.1-8.9,1.3c-4,0.4-8.3,0.7-12.2,1.4
					c0.3-0.9,0.7-1.6,1.1-2.4c0.3-0.5,0.5-0.7,0.8-1.1c0.3-0.5,0.1,0.2,0.3-0.5c0.1-0.3,0-0.4,0-0.5c-1.9,1.1-3.1,2.5-4,3l-6.7-4.1
					c-1.6-1-5.7-3.3-6.7-4.3c-2.8-1.5-5.5-3.4-8.2-5c-2.6-1.5-5.4-3.3-7.8-4.9c-0.7-0.2-0.8,0.1-1.2-0.9l-12.7-7.4
					c2.3,2.2,4.6,3.7,7,5.8l18.7,15.3c0.4,0.4,0.5,0.3,0.9,0.6C47.9,448.3,47.9,448.5,48.7,449z"/>
			</g>
			<g>
				<path class="st12" d="M67.4,283.7c0.9,0,11.2,3.4,12.2,4.1l5.6,1.8c-2-2-12.9-9.5-13.1-10.1l0.2-15.8c-3.9-2.6-8.4-5.2-12.6-7.6
					c-14.1-8-24.7-14-41-19.6c-10.4-3.5-22.9-4.6-33.9-6.4c-4-0.7-2.6-0.6-7.8,1.9c-5.8,2.8-15.1,7.6-20.5,9.9l1.9,12
					c0.4,0.8,14.5,4.3,15.1,4.5c5.5,1.6,17.1,4.8,22.2,6.8c7.8,3,4.8,3.2,14.1-0.8l20.7-8.5c1.5-0.2,18.6,5.1,22.7,6.2
					c4.2,1.1,3.2,1.5,5.1,4.7c1.2,2,2.5,4.2,3.6,6.3c1.1,2.1-0.2,5.7-0.2,8.3C63.4,282.2,66.1,282.5,67.4,283.7z"/>
				<path class="st12" d="M-75.4,312l0.5,11.1c2.8,0.9,7.3,0.7,10.1-0.2c4.4-1.4,10.9-8.1,13.6-8.7c2.7-0.7,40.5,13.9,41.2,14.4
					l-0.5,4.4l-40.5-14.7c-4.1,8.2,2,23.3,7.8,30.6c0.4,0.6,0.5,0.7,0.9,1.2l5.6,6c0.3,0.3,3.4,2.9,4.3,3.1
					c-0.8-0.4-9.3-11.9-10.6-13.8c-1.6-2.5-3.7-5.6-2.6-9.2c0.8-2.8,3.5-5.5,6.1-6.4c4-1.5,11.1,1.3,14.6,3.3
					c2.2,1.3,2.2,0.5,4.5-0.3c2.5-0.9,13.6,5.1,18.1,6.1l-1.3-19.9c-0.6,0.7-2.3,4.4-2.5,5.5c-5.7-1.7-12.1-4.1-17.7-6.2l-26-9.1
					c-5.2-1.9-3.9-2.4-8.1,0.2C-71.6,317.4-67.9,311.8-75.4,312z"/>
			</g>
			<g>
				<path class="st13" d="M-21.4,511.6c3.1-10.2,6.4-20.6,9.6-31c0.2-0.8,1.2-3.4,1-4L-22.9,461c-1.8-2.4-1.3-2.1-5.1-2.4
					c-3.2-0.2-6.4-0.6-9.6-0.9c-1.8-0.2-3,0.2-3.9-1.1c-1.9-2.6-8.8-13.7-10.5-14.9l-26.6-14.1c-1.5,1.9-3.2,3.5-5,5.1l-4.9,4.9
					c-2.3,2-4.7,3.9-6.6,6.3l-6.4,5.8c-1.1,1-1,1.6-1.6,3.4l-9.2,30.4c-0.4,0.7-23.1,15.4-27,17.8c-1,0.6-1.9,1.2-2.9,1.8
					c-2.1,1.4-10.4,7-12.1,7.7l2.5-0.1c0.8-0.1,1.5-0.2,2.3-0.3l14.6-2.1c4.3-0.6,56.2-19.9,58.2-19.6l13.3,8.8
					c2.2,1.5,4.4,3,6.6,4.5c3.6,2.5,2.5,2.8,7.2,1.3l25.3-7.9L-21.4,511.6z"/>
				<path class="st13" d="M-39.5,394.4c-0.2-2.7-0.2-5.8-0.3-8.5c-0.1-3,2.2-3.8,3.7-5c1.1-0.9,0.6-1,2.2-2.3
					c0.8-0.6,1.7-1.2,2.3-1.9c1-1,2.4-2.9,4.4-4c1.7,6.8,4.5,13.7,6.4,20.5l12.9,40.3c0.7,1.2,7.2,3.6,9,4.4l8.9,4
					c0-0.1,0.1,0.1,0.2,0.1l-19.8,11.7c-1.6,0.9-1.6,0.6-3.4,0.1c-1.2-0.4-2.6-0.8-3.7-1.2c0.5-6.5,2.7-10.4,1.2-13.9
					c-4.1-10.2-8.6-24-12.7-34.7c-1.6-4.3-0.5-3.8-4.5-5.9C-34.6,397-38.1,395.6-39.5,394.4z M-62.9,396.7c0.8-1.8,1.9-2.2,2.7-3
					c0.9-0.9,1.6-2.2,2.6-3.1c0.7-0.7,0.9-0.6,1.6-1.4c0.5-0.5,0.8-1,1.2-1.5l5.5-5.8c0.9-1.2-5.5-8.3-5.9-10.1l9.2,7.3
					c0.6,0.5,0.9,0.6,1.5,1.2c0.8,0.6,0.7,0.6,1.7,1l-2.3,13.9c1.8,1.6,8.3,5.2,10.8,6.8c3.2,2,2.5,1.2,3.9,5l11.6,32.3
					c-1-0.9-9.9-17.7-11.8-21.1c-2.4-4.4-0.8-2.7-6.1-4.6c-5.4-1.9-10.8-3.7-16.2-5.6c-1.9-0.7-5.3-5.3-6.5-7
					c-0.4-0.6-0.7-0.9-1.2-1.5c-0.4-0.5-0.8-0.9-1.2-1.5C-62.2,397.5-62.6,397.1-62.9,396.7z M-62.5,366.6c1.2,2,6.9,12.6,7.2,14
					l-4.9,6.9c-0.8,1.1-1.6,2.4-2.4,3.6l-10.7,15.5c0,0.1-0.5,0.9-0.6,0.9c-0.3,0.6-0.2,0.1-0.3,0.9c0.6,0.8,0.2,0.2,1.2,0.8
					c0.5,0.3,0.9,0.6,1.2,0.8c1-0.5,6-10.1,7.2-11.1c1,1,1.7,2.4,2.6,3.7c6,8,2.7,6.6,9.7,9.1l13.8,5c1.5,0.6,3.5,0.9,4.3,2
					c1.9,2.6,13.9,23.3,13.9,23.6c0,0-0.8,9.6-2,10.2c-0.1,0.7-0.2,0.2,0.5,0.8c0.1,0.1,0.8,0.6,1,0.8c0.9,0.6,1.5,0.9,2,1.8
					l17.4,6.6c1.5-0.2,2-2.5,3.1-3.2c0.7-0.5,18.8-1.8,21.3-2c7.6-0.8,14.7-0.4,22.4-0.5c0.3-0.4,0.7-1,0.9-1.5
					c-0.4-0.5-11.6-5.7-13.2-6.5c-2.6-1.2-4.3-2.3-6.7-3.5L7.2,435.1c-4.1-2.3-8.7-4.4-12.9-6.8c-1.3-0.7-1.2-1.9-1.7-3.4
					l-13.2-41.4c-1.5-4.6-3.6-10.5-4.7-15.1c3.4-1.5,20.9-3.4,26.3-4.9l24.3-4.1l1.1-0.8c-2.3-2.1-15.3-9.3-16-10.5l-0.6,0.8
					c-3.9-1.4-8.4-2.5-12.5-3.8l-24.5-7.4c-3.6-1.2-10-1.8-13.9-1.8c0,0.7,10.1,19.2,11.8,22.4c0.7,1.3,1.7,2.5,1.1,3.8
					c-0.5,1.1-1.4,2.9-2.5,3.6c-1.3-2-2.5-2.8-4.3-4.3c-1-0.8-1.1-1.4-2-2.2c-3-2.7-1.6-0.9-4.3-4c-1.2-1.3-3.2-2.4-4.4-4l-6.6-6.2
					c-1.3-1.3-4.4-15.1-5.9-19.2l-13.2,3.4c1.4,4.7,8.1,21.2,10.5,28.6c0.6,1.8,1.7,3.3,1,5C-60.5,364-61.1,366-62.5,366.6z"/>
				<path class="st13" d="M-57.1,253l-3.8-0.1c9.6,3.3,19.8,6.3,29.6,9.4c10,3.1,19.8,6.3,29.7,9.4c11,3.3,33.8,10.2,44.2,14.2
					c4.5,1.8,9.8,4,14.3,5.4c1-1.8,1.9-1.5,1.5-3c-0.2-0.8-1.1-2.7-1.4-3.6c-1.8-4.6-2-2.8-0.5-7.4c0.4-1.4-3.9-7-5.3-9.1
					c-1-1.6-0.7-1.7-2.9-2.1c-5.4-1.1-11-2.7-16.3-4c-2.6-0.6-4.9,1.1-7.2,2c-2.5,1-4.9,2.1-7.4,3.1c-10.4,4.1-8.1,4.9-15,2.8
					c-4.8-1.4-47.3-13-47.9-13.6c-0.8-1.7-0.9-9.1-1.1-11.5c-0.1-1.3,0.7-6.5,1.3-7.8c0.4-0.8-0.2-0.3,1.9-1.4l20.7-10.7
					c1.4-0.7,2.7-1.9,4.4-1.7c3.3,0.2,7.6,1.1,11,1.6c7.3,1.1,14.7,2.2,22,3.1c0.4-0.9,0.7-1,1.1-1.8l34.1,4.6
					c-2.1-1.2-5.1-1.8-7.6-2.7c-2.6-0.9-5.2-1.8-7.8-2.7L3.2,214.7c-3.8-1.3-4-1.8-8.1-1.2c-3,0.5-6,0.9-9,1.4
					c-4,0.6-14.6,1.7-17.2,3.4c-4.3,2.8-8.4,5.6-12.6,8.3c-6,3.8-4,2.6-9,11.9c-1.2,2.3-2.2,4.5-3.5,6.9
					C-58.5,249.8-58.1,247.9-57.1,253z"/>
				<path class="st13" d="M23.7,407.4l-1,2.3c1.8,1.9,4,4.5,5.9,6.2c0.7,0.7,1.1,0.7,1.9,1.4c3.4,3.3,14.5,15.9,16.3,16.8
					c0.7-0.3,0.8,0.6-0.3-2.4l-2.6-7.8c-0.9-2.4-0.3-3.2,0.3-5.7c1-4.7,6.4-27.7,6.3-28.5c-0.1-0.6-3.9-3.5-4.7-4.1l-4.8-4.1
					l-12.4,25.8C27,407.6,25.3,407.7,23.7,407.4z"/>
				<path class="st13" d="M47.6,451.5l1.2-2.4c-0.8-0.6-0.9-0.8-1.6-1.4c-0.4-0.3-0.5-0.3-0.9-0.6l-18.7-15.3
					c-2.4-2.1-4.7-3.7-7-5.8l12.7,7.4c1,0.5,0.7,0.2,1.2,0.9c2.3,1.6,5.1,3.4,7.8,4.9c2.7,1.6,5.4,3.4,8.2,5
					c0.3-0.8,0.2-0.1-0.2-1.3c-0.3-0.8-0.3-0.5-0.3-1.4c-0.9-1-11.3-6.6-13.3-7.7c-2.3-1.3-4.4-2.6-6.6-3.8c-1.7-1-5.4-2.9-6.6-3.9
					c-1.9-0.9-4.1-2.2-5.9-3.3l-11.8-6.7c-1.1-1-1.5-5.7-1.8-7.5c-0.9-5.3-1.8-10.5-2.7-15.8c-0.9-4.9-2.2-10.8-2.7-15.7
					c0.8-1,24.9-12.3,28.1-13.6l-0.4-0.4c0,0-0.3-0.2-0.4-0.3l0-3.1l-14.8,6.9c-2.9,1.3-12.8,6.5-15,6.9l3.7,28.8
					c0.8,4.5,1.8,8.9,2.7,13.4c0.8,4.3,0.2,3.6,1.5,4.5c0.4,0.3,0.7,0.5,1.2,0.9c3.9,3.1,10.2,7.2,14,10.2l16.2,11.8
					C37.8,444.5,46.1,450.9,47.6,451.5z"/>
			</g>
			<path class="st0" d="M26.2,292.1c-2.3,1.7-9.2,14.1-11.1,17.3c-5.8,9.7-6.2,9.3-2.6,10.5c9,3,7.8,3.9,11.1-1.7
				c0.9-1.6,1.8-2.9,2.7-4.5c1.2-2.1,10.5-16.7,10.2-17.9c-0.3-1.2-3.6-1.9-4.8-2.3C30,293,28,292,26.2,292.1z"/>
			<path class="st0" d="M25.3,359.3l0.6,0.2l0,3.1c0.1,0,0.3,0.2,0.4,0.3l0.4,0.4l1.5-0.9l0.5-2.9l-2.2-1.1L25.3,359.3z"/>
			<path class="st14" d="M79.1,585.5L61,577.9c-6.1-2.4-12.1-5.1-18.2-7.4c-9.7-3.7-23.3-9.9-32-13c-1.4-0.5-1.4-0.2-1.9-1.4
				c-0.3-0.6-0.5-1.6-0.7-2.3c-0.8-2.6-6.6-17.5-6-18.9l4.8-8c7.5-12.5,17.1-27.8,24-40c-1.6,0.9-1.2,0.7-2.2,2.1
				c-0.8,1.1-1.1,1-1.9,2c-1.5,2-1.2,1.2-2,2.2c-0.9,1.1-0.6,1-1.8,2.1l-4.8,5.4c-1.7,1.8-4.3,5.2-6.4,7.3c-0.8,0.7-0.9,1.4-1.7,2.2
				c-0.7,0.7-0.4,0.2-1.1,1l-1.8,2c-0.4,0.4-0.5,0.7-0.9,1.2l-14,15.8c-1.7,1.6-0.7,1.1-2.8,3.1l-5.5,6.4c-2.9,3.7-3.3,1.3-2.8,8.2
				c1.3,17.5-1.1,14.4,7.3,16.3C18.6,571.1,49.1,579,79.1,585.5z"/>
			<path class="st15" d="M79.2,358.9c0.6-0.5-0.4-0.1,1-0.5c0.2,0,1-0.1,1.2-0.1c-0.5-0.7-0.2-0.3-0.9-0.8c-0.3-0.2-0.5-0.2-0.8-0.3
				c1.2-2.3,6.8-1.6,8-4.3c-0.4-1.2-0.4-2.6-1.1-3.3c-2.2-2.2-4.9-1.5-4.5-4.6c0.2-1.6,0.4-3,0.6-4.6c-0.2,0-9.5-2.6-9.4-4.3
				c0-0.8,1.8-1.5,3.4-2.6c2-1.4,1.7-1.5,4.7-1.6c2.9-0.1,9.6-0.6,12.2-0.2c0.3,1,1,4.2,0.4,5.1l0.2,1.1c1,0.9,0.7,2.1,1.1,3.5
				c0.3,1.3,0.7,2.5,1,3.8c0.9-0.2,0.5,0.1,0.9-0.4c-0.3-3.1-1.3-7.1-1.9-10.2c-0.3-1.4-0.5-3.5-1.2-4.8c-0.7-1.3-1.8-2.4-2.5-3.7
				c-0.5,0.3,0.2,0.3-0.9,0.2c-1.1,0-0.9-0.7-3.1-0.3c-1.2,0.2-2.6,0.7-3.8,1c-1.6,0.5-10.2,2.8-10.3,5c0,0.2,0.3,0.4-1,1.5
				l-4.8,4.7c-3.1,4.7-5.1,6.3,0.7,12.2l5.3,4.2C75.2,356,77.4,357.4,79.2,358.9z"/>
			<path class="st16" d="M114.8,328.1c1.1,0.7,1.4,1.3,2.1,2.3l0.7,0.9l-10.6,6.5c-2-2-2.5-1.9-3.1-3.2L114.8,328.1z M89.7,321.2
				c0.7,0.8,1.4,1.1,2.2,2c0.6,0.7,0.2,0.5,0.9,1.1c3.5,3.4,2.9,0.7,4,6.4c0.7,3.9,1.5,10.5,2.6,14.1l3.5,0.1
				c-0.7,0.9-0.9,0.9-1.9,1.4c-0.5,1-0.5,1.9-0.7,3l0.4-0.3c0,0,0.3-0.2,0.3-0.3c1.6-1.4,2.9-4,3.6-5.9c1-2.8,0.2-1.8,5.7-5
				c2.3-1.4,4.4-2.6,6.7-4c2.8-1.7,2.1-0.8,2.8-2.6c0.3-0.9,1-3.1,1.5-3.6c-0.4-1.9-3.6-8.4-4.9-10.2c-1.3-1.8-1-2.3-2.4-2.3
				c-1.2,9.7-1.4,12.9-10.2,16l-0.4-3.2c5.6-1.5,7.6-5.3,6.2-10.7c-1,0-2.6,1.3-3.8,1.8C100.9,321.2,94.7,321.3,89.7,321.2z"/>
			<path class="st17" d="M5.4,208.9l-0.1,0.3c4.2,0.7,18.8,5.6,23.8,7.2c7.7,2.5,15.1,5.6,22.2,8.8c5,2.2,10.5,5.3,14.6,8.6
				c6.6,5.3,16.5,12.2,25,13.9c-0.6-1.3-2.1-2.2-3.8-4c-0.9-1-0.6-1.1-1.9-2l-6.5-5.1c-1.7-1.2-2.8-2-4.6-3.2
				c-5.8-3.9-13.1-7.7-20.3-10.7C42.1,217.9,17.9,209.5,5.4,208.9z"/>
			<path class="st18" d="M92.1,340.9c-4.6,7.7-7.5,4.9-7.5,0.6c0-1.4,0.4-2.2,1.2-2.8C90.9,335,93.4,338.8,92.1,340.9z M87.8,352.9
				c1.5,0.2,4.3-2.1,5.2-2.8c0.8-0.7,3-3.2,3.1-4.9c-0.2-1.3-0.7-2.5-1-3.8c-0.3-1.4-0.1-2.6-1.1-3.5c-3.6-4.7-10.9-1.8-16.5-1.9
				c-0.9,0.5-0.9,0.4-2,0.5c0.2-0.2,0.2-0.3,0.6-0.5c0.5-0.2,0.3-0.1,1-0.2c5.4-0.7,13.7-3.9,16.7,1c0.7-0.9-0.1-4.1-0.4-5.1
				c-2.5-0.4-9.3,0-12.2,0.2c-3,0.1-2.7,0.2-4.7,1.6c-1.6,1.1-3.3,1.8-3.4,2.6c-0.1,1.7,9.2,4.3,9.4,4.3c-0.2,1.6-0.4,3-0.6,4.6
				c-0.3,3.1,2.3,2.4,4.5,4.6C87.4,350.3,87.4,351.7,87.8,352.9z"/>
			<path class="st19" d="M76.9,444.7c-1,0.2-1.6,0.3-2.3,1.1l1-0.1c-1.3,0.7-2.5,1.3-3.9,2c-1.2,0.5-3.4,1-4,1.9
				c0,0.1,0.1,0.2,0,0.5c-0.2,0.7,0.1,0-0.3,0.5c-0.2,0.4-0.5,0.6-0.8,1.1c-0.4,0.8-0.8,1.5-1.1,2.4c3.9-0.6,8.2-0.9,12.2-1.4
				c1.4-0.2,8.1-0.7,8.9-1.3c0.6-0.4,1.2-1.8,1.5-0.7c0.2-0.5,0.2-0.7,0.5-1.2c0.6-0.9,0.2,0,0.9-1.2l-1-9.8
				c-0.6,0.5-0.7,0.6-0.7,2.4c0,0.7,0,1.4,0,2.1c-1.1,0-4.5,0.7-5.7,0.9c-0.9,0.2-2.2,0.3-3,0.5C76.5,445,76.9,446,76.9,444.7z"/>
			<path class="st20" d="M120.5,277c0.8,0.6,2.9,4,3.2,5c0.7-0.6,0.1,0.3,0.4-0.6c0.1-0.4,0.2-0.6,0.2-1c0.1-0.6,0.1-1.6,0.1-2.3
				c-0.7-1.2-1.3-7.6-1.6-9.4c-0.5-3.5-1.4-2.5-6.1-5.3c-0.2-0.9,0-2.3,0.1-3.2c0.1-1.1,0.2-2.7,0.5-3.3l-1.6-1.6
				c-1,1.9-3.9,8.4-4,10.3c1.7,1.5,3.2,3.4,4.6,5.3C117.5,272.6,119.8,275.4,120.5,277z"/>
			<path class="st21" d="M91.4,326.1c0.7,1.4,1.9,2.4,2.5,3.7c0.7,1.3,0.9,3.4,1.2,4.8c0.6,3.1,1.6,7.1,1.9,10.2l0.6,2.5l3.3-0.9
				c1-0.5,1.2-0.5,1.9-1.4l-3.5-0.1c-1.1-3.5-1.9-10.1-2.6-14.1c-1.1-5.8-0.5-3.1-4-6.4c-0.7-0.7-0.3-0.4-0.9-1.1
				c-0.7-0.9-1.5-1.1-2.2-2c-1.3-0.4-0.5-0.1-0.6-0.6c-1.6-0.8-0.3-0.6-2.7-2.5c-0.8-0.6-1.9-1.6-2.6-2.2
				C84.2,316.3,90.2,324.9,91.4,326.1z"/>
			<path class="st22" d="M123,329.3c0,0.3,0,0.6,0,0.8c0.6,2-0.7-1.6,0.2,0.5l0.3,0.5c0.7-4.2,1-4.3,0.8-8.8
				c-0.2-3.1-0.5-6.4-0.7-9.5c-0.6-6.3-1.5-11.8-2.4-18c-0.4,0.4-0.1-0.3-0.5,0.8l0,3.4C121.6,309.7,122.6,318.1,123,329.3z"/>
			<path class="st23" d="M124.4,278.2c0.1-4.2-0.4-8.4-1.7-12.3c-0.5-1.6-1.3-3.4-2.2-4.7c-0.5-0.9-0.8-1.3-1.4-2.1
				c-0.3-0.4-0.4-0.7-0.7-1c-0.3-0.4-0.6-0.6-1-0.9c-0.3,0.6-0.4,2.2-0.5,3.3c-0.1,0.9-0.3,2.2-0.1,3.2c4.7,2.7,5.6,1.7,6.1,5.3
				C123.1,270.6,123.7,277,124.4,278.2z"/>
			<path class="st24" d="M35.6,363.6c1.2,0.5,0.4,0.1,1.3,0.8c0.5,0.4,0.9,0.7,1.4,1c0.8,0.6,1.8,1.6,3,1.7c-1-2.7-1.2-8.2-2.6-10.3
				L35.6,363.6z"/>
			<path class="st25" d="M119.7,277.3l3.7,5.4l0.5-0.1c-0.9,0.2-0.1,0.1-0.3-0.6c-0.3-1-2.4-4.4-3.2-5l-0.6,0.2
				C119.9,277.2,119.8,277.3,119.7,277.3C119.8,277.3,119.8,277.3,119.7,277.3z"/>
			<path class="st26" d="M77.6,336l-0.4-0.2c-0.7,0.1-0.5,0-1,0.2c-0.5,0.2-0.4,0.3-0.6,0.5C76.7,336.4,76.7,336.5,77.6,336z"/>
			<path class="st27" d="M-87.4,318.9l0.2,0c-0.3-1.1,0-0.7-0.7-1.2c0,0.3,0,0.3,0.1,0.6C-87.6,318.7-87.5,318.7-87.4,318.9z"/>
			<path class="st28" d="M-121.9,432.2l0.5,0.3c0.1-0.1,0.3-0.4,0.4-0.9C-121.9,431.9-121.2,431.5-121.9,432.2z"/>
			<path class="st29" d="M34.5,434.2c-0.4-0.7-0.2-0.4-1.2-0.9C33.7,434.2,33.7,434,34.5,434.2z"/>
			<polygon class="st30" points="52.8,309.9 53.2,310.3 53.3,309.3 			"/>
			<path class="st31" d="M5.3,209.3l0.1-0.3L5.3,209.3z"/>
			<path class="st32" d="M81.5,585.8l-0.1,0.4L81.5,585.8z"/>
		</g>
		<g>
			<path class="st0" d="M-13.8,537.1l3.3-3.9c2.1-2.1,1.1-1.5,2.8-3.1l14-15.8c0.4-0.5,0.5-0.8,0.9-1.2l1.8-2c0.6-0.8,0.4-0.4,1.1-1
				c0.8-0.8,0.9-1.4,1.7-2.2c2.2-2.1,4.7-5.5,6.4-7.3l4.8-5.4c1.2-1.1,0.9-1,1.8-2.1c0.8-1,0.5-0.2,2-2.2c0.8-1,1.1-0.9,1.9-2
				c1-1.4,0.6-1.2,2.2-2.1c0.5-1.1,0.9-1.5,1.4-2l2.8-10.1c-0.7,0.3-1.6,0.9-3,2.8c-1.3,1.8-3.9,3.7-5.7,5.3
				c-0.9,0.8-0.9,1.2-1.6,1.9l-5.8,5.2c-3.3,3.9-4.1,3.4-7.3,7.3c-0.9,1.1-4.6,3.8-5.8,5.2c-0.8,1-0.2,0.7-1.7,1.9
				c-0.7,0.6-1.2,1-1.9,1.7l-2.9,2.5c-0.5,0.5-0.5,0.7-0.9,1.2c-1,1.2-4.3,3.7-5.7,5.1c-0.8,0.8-0.9,1.3-1.8,2.1
				c-1.3,1.2-2.5,2.2-3.8,3.3c-2.2,1.9-2.2,2.9-3.6,3.6L-13.8,537.1z M-16.6,523.7c2.5-6.6,6.1-13.3,8.8-19.9
				c4.1-10,9.2-20.6,13.2-30.6c1.2-3,1-2.3,4.3-2.9c2.1-0.4,4.2-0.7,6.3-1.1c4.1-0.7,8.3-1.5,12.4-2.2c11.9-2.1,7.5-1.4,9.7-3.4
				l1.6-5.7c0.1-0.3,0.2-0.6,0.3-0.9c-5.6,0-11.1-0.1-16.8,0.5c-2.6,0.3-20.6,1.5-21.3,2c-1,0.6-1.6,3-3.1,3.2
				c0.4,0.3,3.3,1.5,4,1.6c1.9,0.5,32.2-4.3,34.9-4.7l-3.5,2.3c-3.7,2.2-8.6,2.3-14.1,3.2c-3.2,0.5-6.5,1-9.8,1.5
				c-5.8,0.9-4.9-0.4-7.2,4.5c-1.9,4.1-13.3,30.8-14.2,31.8l7.7-33l-12.5-11c-1.8-1.8-2.4-1.7-2.8-2.8l0.1-0.2
				c-0.6-0.9-1.2-1.2-2-1.8c-0.3-0.2-0.9-0.7-1-0.8c-0.7-0.6-0.6-0.1-0.5-0.8l-15.2,2.1c-1.5-2.2-4.4-10.6-5.6-13.6
				c-2-5-1.4-5.2-3.6-5.9c-2.3-0.7-4.6-1.6-6.9-2.3c-4.7-1.6-9.4-3.2-14.1-4.7c-1.8-0.6-1.8-1-2.7-2.1l-6.2-7.7
				c0.6-1.9,3.9-5.9,4.7-8.1c-0.3-0.2-0.7-0.5-1.2-0.8c-1-0.6-0.7-0.1-1.2-0.8c-0.9,0.5-5.5,7.4-6.3,8.7l-9.1,13.3
				c-1,1.6-2.1,2.8-3.1,4.4l-6.1,8.7c0.7-2.4,2.1-5.4,3.1-7.8l24.9-61.9c2.2-5.4,2.3-4.3,1.1-7.7l-11.8-31.7
				c-1.9-4.9-4.5-10.6-5.9-15.4c-0.1-0.2-0.2-0.2-0.4-0.6c-0.2-0.3-0.1-0.3-0.1-0.6c0.7,0.5,0.5,0.1,0.7,1.2l24.7,47.8
				c1.4-0.6,1.9-2.6,2.5-4c0.7-1.7-0.3-3.2-1-5c-2.5-7.4-9.2-23.9-10.5-28.6l13.2-3.4c1.5,4.1,4.5,17.9,5.9,19.2l6.6,6.2
				c1.2,1.6,3.2,2.6,4.4,4c2.8,3.1,1.3,1.3,4.3,4c0.9,0.8,1,1.3,2,2.2c1.8,1.5,3,2.3,4.3,4.3c1.2-0.7,2.1-2.5,2.5-3.6
				c0.5-1.2-0.5-2.5-1.1-3.8c-1.6-3.2-11.8-21.8-11.8-22.4c3.8,0.1,10.3,0.7,13.9,1.8l24.5,7.4c4,1.3,8.5,2.3,12.5,3.8l0.6-0.8
				c-1.5-0.6-2.7-1.6-4.1-2.4c-1.2-0.7-2.9-1.7-3.9-2.5L2.5,326l15.9,6.2l-0.7,6.4l9.4,7.9c0.7,0.6,0.7,0.6,1.3,1.1l8.1,6.8
				c0.7,0.7,2.2,1.2,2.2,2.5c1.4,2.1,1.6,7.6,2.6,10.3c-0.3,1.9-3.3,8.2-4.3,10.4l-8.8,19.9c-1.3,3-3.5,7.1-4.4,10.1
				c1.6,0.3,3.3,0.1,4.8-0.1L41,381.6l4.8,4.1c0.8,0.6,4.6,3.6,4.7,4.1c0.1,0.8-5.2,23.8-6.3,28.5c-0.6,2.5-1.1,3.3-0.3,5.7l2.6,7.8
				c1.1,3,0.9,2.1,0.3,2.4c1,0.6,10.7,10.7,11.3,11.6l-8.2-4.4c0,0.8,0,0.5,0.3,1.4c0.4,1.3,0.5,0.5,0.2,1.3c0.7,0.7,3.1,2.2,5,3.3
				c3.5,0.5,6.6,2.1,8.9,4.8c0.8-0.7,1.9-1.8,3.5-2.6c0.6-0.9,2.8-1.3,4-1.9c0.9-0.4,1.7-0.8,2.5-1.3c-0.1-0.2-0.2-0.4-0.2-0.6
				c-3.2,0.2-3.8,1.2-8.2,0.5l-0.3-1.4c-0.3,1-1.2,1.4-0.9,2.4c-0.8,0.6,0.3,0.2-1.2,0.5c-0.4,0.1-1.2,0.1-1.6,0.2
				c-0.2-2.7,0-1.9-2.8-4.9c-3.6-4-4-3.8-7.4-7.6c-1.3-1.4-2.3-2.4-3.6-4c1.1-4.3,8.7-46.8,8.5-48.2l-15-10.9
				c0.4-7.7,4.5-13,0.6-15.9l-6.1-5.5c-2.1-1.6-1-0.8-2.2-2c-0.7-0.7-1.5-1-2.2-1.7l-12.5-11.1l1.4-3.9l37.8,14.4
				c1.1-2.1,2.6-4.5,3.7-6.6c1.2-2.2,2.5-4.4,3.7-6.5c5.9-10.5,12.8-21.9,18.5-32.5c1.2-2.1,2.6-4.4,3.6-6.5
				c0.8,0.9,3.5,12.1,4.1,14.4c0.5,1.9,2.1,5.2,1.4,6.9c-1.3,3-3.2,2.1-4.3,4.8c0.1,0.4-0.7,0.1,0.6,0.6c5,0,11.1,0,16-2
				c1.2-0.5,2.8-1.8,3.8-1.8c1.4,5.4-0.6,9.2-6.2,10.7l0.4,3.2c8.8-3.1,9-6.3,10.2-16c-0.3-0.5-0.5-0.7-1.5-0.9
				c-2.3-0.6-4.2-0.5-6,0.5c-0.4-4.2,0-9.4-0.2-13.6c-0.6-13.7-2-24.1-10.2-35.5c-2.2-3.1-4.9-5.6-7.8-8.1
				c-3.4-2.9-9.4-7.1-13.3-9.4c-1.4-0.8-2.8-1.7-4.3-2.6c-0.5-0.3-4-2.1-4.2-2.6c0-0.1-0.1-0.1-0.2-0.2c4.1-0.9-0.7-2.5,9.6,2.3
				c11.8,5.4,9.5,4.2,21.5,6c3.3,0.5,2.4,0.5,4.8,2c0.9,0.6,3.4,2,4,2.7c-1,1.8-2.4,3.7-3.6,5.5c-0.9,1.3-3.3,4.5-3.7,5.5
				c0.5,0.4,0.7,0.4,1,0.7c0.5,0.5,0.2,0.2,0.7,0.8l6.6,5.9c0.9,0.8,0.6,0.6,1.4,1.5c0.9,1.1,2.4,1.8,3.4,2.9c2,2.1-0.2,0.4,3.3,2.9
				l3.6,2.6c1.5,1.3-0.4,3.3,1.7,10c0.1-0.7,0.2-1.5,0.4-2.2c0-0.5,0.1-1.1,0.2-1.6l0-0.2c0.2-7.1,1.9-3.9-4.3-10.7l-5.8-5.8
				c-0.5-0.5-0.9-0.6-1.4-1c-0.7-0.5-0.6-0.6-1.2-1.1l-3.8-3c-0.8-0.6-1.9-1.2-2.6-1.9c1.2-3.1,6.2-10,6.6-11
				c-2.4-2.7-8.7-5.9-11.3-7.4l-5.8-1.1c-0.5-0.1-1-0.2-1.5-0.4c0.3,0.3,0.5,0.6,0.7,1c-8.5-1.8-18.3-8.7-25-13.9
				c-4.2-3.3-9.6-6.4-14.6-8.6c-7.1-3.2-14.5-6.3-22.2-8.8c-4-1.3-13.7-4.6-19.8-6.3l-26.5-3.1c-0.1,0-0.2,0-0.3,0l-3.2,1.3
				c-4.1,1.4-6.1,2.5-10,4.3c-4.6,2.2-8.7,4.3-12.3,6.8c-3.3,2.3-4,2.8-6.7,5.5c-1.7,1.7-2.1,1.8-3.6,3.6c-1.4,1.8-2.3,4-3.4,6.1
				c-1.2,2.1-2.1,4.2-3.2,6.4c-4.6,9.4-7.6,17.1-10.8,27.7c-1.6,5.5-8.9,26.5-9.3,29l13.4,5.1c0.9-0.6,0.8-1,1.7-1.7
				c0.6-0.5,1.3-0.9,1.9-1.4c0.8-0.8,0.6-0.9,1.6-1.7c0.7-0.5,1.3-0.9,1.9-1.4c2.3-2.4,4.6-4.2,7-6.4c-1.3,4.2-3.5,8.9-5.1,13.1
				c-0.7,1.7-0.4,1.8-1.9,2.6l-8.5,4.9c-1.4,0.4-20.5-6.3-26.1-7.8l-0.2,11.6c1.1,2.4,2.5,5.1,3.4,7.3l12.4,32.3
				c1.3,3.6,2.7,7.2,4.1,10.8c1.6,4,1.2,2.8-2.1,10.4l-36,83.7c-1.5,3.5-2.9,7-4.5,10.5c-1.1,2.4-4.1,8.9-4.5,10.5
				c0.4-2.1,34.2-96.9,36.3-102.5c3.8-10.2,3.9-7.9,0.1-21.4c-2.6-9.3-5.7-23.3-8.1-33.5l-1.2-4.7l0,1.2c0,0.5,0,1-0.1,1.5
				c0.7,1.8,1,3.9,0.8,5.9l-2.5,31.6c1.2-8.2,2.2-14.6,2.4-15c0.7,3.5,6.9,25.6,6.6,27l-9,24.9c-0.6,1.6-2.7,7.7-4.3,12
				c-0.1,0.4-0.3,0.7-0.4,1c-0.7,1.8-1.2,3.1-1.5,3.4c0-0.2,0-0.5,0-0.7c-0.2,0.3-0.4,0.5-0.6,0.8c-0.5,1.2-1.1,2.3-1.9,3.3
				l-19.7,25.3c-3.4,7.9-8.2,18.2-10.7,23.9c-1.2,2.7-1.7,2.5-1,5.5l2.7,12.5c0.1,1.3-1.8,2.6-3.3,4.2c-2.6,2.6-5,5-7.6,7.6
				c-1.1,1.1-4.6,4.7-8,8.2l1.7,6.8c3.1-1.9,7.1-4.7,8.5-5.6c1-0.7,1.9-1.2,2.9-1.8c3.9-2.4,26.6-17.1,27-17.8l9.2-30.4
				c0.6-1.9,0.6-2.5,1.6-3.4l6.4-5.8c1.9-2.4,4.3-4.2,6.6-6.3l4.9-4.9c1.8-1.6,3.5-3.2,5-5.1l26.6,14.1c1.7,1.1,8.5,12.2,10.5,14.9
				c1,1.3,2.1,1,3.9,1.1c3.2,0.3,6.4,0.6,9.6,0.9c3.8,0.3,3.4,0,5.1,2.4l12.2,15.7c0.1,0.5-0.8,3.2-1,4c-2.7,8.8-5.6,17.8-8.2,26.6
				L-16.6,523.7z M-153.6,497.5l0.6-1c-0.3,0.1-0.5,0.2-0.8,0.3L-153.6,497.5z M-150,511.9c0.4-0.3,0.8-0.5,1.3-0.8
				c0.5-0.4,0.9-0.7,1.4-1c-1,0.1-2,0.3-3,0.4L-150,511.9z M-161.9,457.1L-161.9,457.1L-161.9,457.1L-161.9,457.1z M-17.9,207
				l-0.1,0L-17.9,207L-17.9,207z M105.8,249.6c0.2,0.1,0.3,0.1,0.5,0.2l-0.1-0.2C106.1,249.6,106,249.6,105.8,249.6z M113.2,255.4
				c-1.6,2.8-4.5,8-4.8,9.8c1.3,0.8,1.9,1.9,3.1,2.9c2.9,2.4,6.6,7.9,8.2,9.2c0,0,0.1,0,0.2-0.1l0.6-0.2c-0.7-1.6-2.9-4.4-4.1-6
				c-1.4-1.9-2.9-3.8-4.6-5.3c0.1-1.5,2.1-6.2,3.4-8.9L113.2,255.4z M119.9,260.1c0.2,0.3,0.4,0.6,0.6,0.9c0-0.2,0-0.4,0-0.6
				C120.3,260.3,120.1,260.2,119.9,260.1z M81.1,238.3c-0.1,0-0.3,0-0.4-0.1l0.5,0.4C81.2,238.5,81.1,238.4,81.1,238.3z M24,212.5
				l-0.2,0l0.3,0.1L24,212.5z M124.3,279.9c0,0.2,0,0.4,0,0.6c0,0.4-0.1,0.6-0.2,1c-0.4,0.9,0.3,0-0.4,0.6c0.2,0.6-0.4,0.7,0.1,0.6
				c-0.1,0.1-0.1,0.3-0.2,0.4c0-0.1-0.1-0.3-0.1-0.4l0.3,0l0.2-0.4c0.1-0.4,0.2-0.7,0.3-1.1c0.1-0.4,0.1-0.8,0.2-1.2L124.3,279.9z
				 M124.2,327c-0.1,0.6-0.2,1.1-0.3,1.8l0.5-0.5c0.2-0.3,0.4-0.6,0.6-1C124.7,327.2,124.5,327.1,124.2,327z M-128.8,485.3
				c-0.3-3.1,0-7.1,0.1-10.2c0.1-3.2-0.4-7,1-9.8c2.6-4.8,4.8-9.7,7.2-14.3c3.2-6.3,11.6-23.5,14.4-28.2L-128.8,485.3z M-75.4,312
				c7.5-0.3,3.8,5.4,17.4-2.9c4.2-2.5,2.9-2,8.1-0.2l26,9.1c5.6,2.1,12,4.5,17.7,6.2c0.2-1,1.9-4.8,2.5-5.5l1.3,19.9
				c-4.5-1-15.6-7-18.1-6.1c-2.4,0.8-2.4,1.6-4.5,0.3c-3.4-2-10.5-4.8-14.6-3.3c-2.6,1-5.3,3.6-6.1,6.4c-1,3.6,1,6.8,2.6,9.2
				c1.3,2,9.7,13.5,10.6,13.8c-0.9-0.2-4-2.8-4.3-3.1l-5.6-6c-0.4-0.5-0.4-0.6-0.9-1.2c-5.8-7.3-11.9-22.4-7.8-30.6l40.5,14.7
				l0.5-4.4c-0.6-0.5-38.5-15.1-41.2-14.4c-2.8,0.7-9.3,7.3-13.6,8.7c-2.7,0.9-7.2,1.1-10.1,0.2L-75.4,312z M53.2,310.3l-0.3-0.4
				l-15.9,26.3l-6.9-2.5l24.2-40.1l7.7,2.7l-4.5,30.7c1.3-1.3,3.1-4.9,4.2-6.7c1.4-2.3,2.6-4.4,4-6.7l8.2-13.3l6.9,2.3
				c-0.4,1.4-11,18.6-12,20.3c-1.6,2.7-11.2,19-12.2,20l-7.7-2.7L53.2,310.3z M23.8,284.6c3.8-0.9,14,3.2,17.9,4.6
				c3,1.1,5.3,2.9,4,7c-0.8,2.5-10.8,18.6-12.5,21.5c-1.5,2.5-2.8,4.6-4.3,7.1c-4.4,7.4-9.5,5.4-15.6,3.3
				c-6.7-2.3-14.1-3.2-12.4-9.6c0.6-2.4,10.8-18.7,12.5-21.5c1.4-2.4,2.9-4.7,4.2-7.1c1.5-2.6,1-1.6,2.5-3.2
				c0.6-0.7,0.7-0.8,1.7-1.3C22.4,285,23,284.8,23.8,284.6z M75.1,299.4c1.8-3.4,4.3-6.7,6-10.1l6,2c-0.3,0.9-0.3,0.7-0.9,1.6
				l-4-1.4l-1.5,2.6l3.1,0.8l-0.9,1.7l-3.4-1.1c-0.2,1.3-0.9,1.9-1.5,3.3c1.4,0.2,3.2,0.7,4.2,1.4l-1,1.3l-5.5-1.8
				C75.2,299.6,75.3,299.6,75.1,299.4z M9.2,278.1l7.6,2.5l-24.3,40.3l-7.4-2.7L9.2,278.1z M-39.7,301.6c1.6,1.4,7,2.9,9.7,3.8
				c6.1,1.9,6.1,3.4,8.9-1.1c1.4-2.3,1.6-2.3,0.2-5c-1.5-2.9-5.8-11.4-6.5-13.5c-1.2-3.8,1.4-7.1,2.9-9.6c1.7-2.8,3.3-5.4,7.4-6
				c3.1-0.5,17.3,4.6,20.7,6.1c-0.4,1.1-3.2,5.8-4,6.8l-0.4-0.3c-2-1.3-6.7-2.6-9.3-3.5c-4.9-1.7-5.8-3-8.4,2.3
				c-0.9,1.9,0.3,3.2,1.2,4.9c1.6,3.1,6.1,11.4,6.2,13.8c0.2,3.2-4.2,10.2-5.5,11.5c-1.7,1.6-3,3.3-6.7,3.2
				c-2.1,0-18.8-5.6-20.4-6.6C-42.5,306.1-41,303.7-39.7,301.6z M-55.5,304.4c1.1-2.7,4.2-7.3,5.9-10.1c2-3.3,4-6.7,6-10.1
				c4-6.7,7.8-13.4,12-20c1.3,0.1,6.8,1.9,7.7,2.6l-24.2,40.1L-55.5,304.4z M-77.2,296.9c0.3-2.2,10.4-34.6,12.3-41.2
				c0.1-0.5,0.2-0.9,0.4-1.4l0.6-1.4l7.8,2.6c-0.2,1.8-8.2,25.9-9.6,30.1c-0.6,2-1.4,3.1-0.7,4.1c0.5-0.9,1.1-1.6,1.8-2.4
				c0.8-1,1.3-1,2.1-2c0.7-0.8,1.2-1.5,1.9-2.3c0.8-0.9,1.2-0.9,2-1.9c0.7-0.8,1.2-1.5,1.9-2.3c0.8-0.9,1.2-0.9,2-1.9
				c0.7-0.8,1.2-1.5,1.9-2.3c0.8-0.9,1.2-0.9,2-1.9c2.3-2.8,2.9-3,3.9-4.2c2.4-3,0.9-1.3,3-3.2l2.7-3.3c1-1.1,1.1-0.9,2.6-0.4
				l4.7,1.6c0.2,0.1,0.5,0.2,0.6,0.3c0.4,0.2,0.4,0.2,0.6,0.4c-1.6,1.6-2.8,3.1-4.3,4.7c-1,1.1-2,1.6-4.5,4.4
				c-1.3,1.4-2.9,3.5-4.3,4.7c-0.6,0.5-0.8,0.5-1.4,1c-0.4,0.3-0.7,0.7-1,1.1c-1.7,1.9-4.8,5.6-6.6,6.9c-1.3,0.9-4.9,5.2-6.5,7
				c-0.4,0.4-0.7,0.9-1.2,1.2c-3.6,2.9-3.5,3.9-5.4,5.3L-77.2,296.9z M79.6,287.7c-0.2,0.9-0.1-0.8,0.1,0.3c0,0.2,0,0.3,0,0.5
				c-0.2,1.4-0.3,1.1-1.5,2.9l-4.5,7.7l-1.9-0.8c0.5-1.4,2-3.1,2.6-4.7l-2.9-0.9l-2.9,4.6l-1.8-0.7l4.9-7.9l-0.4-0.7
				c0.1-0.2,0.2-0.2,0.3-0.3l-2.6-0.8c-1,1.4-4.6,7.3-5,8.6l-2-0.7c0.6-2.3,4.1-6.3,5-8.8l-2.3-0.6l1.1-1.8l0.6,0.3l0.8-0.6
				c0.1,0,0.3,0,0.4,0c-1.3-1.1-4.1-1.4-5.9-2.3c0-2.6,1.3-6.2,0.2-8.3c-1.1-2.1-2.4-4.3-3.6-6.3c-2-3.2-0.9-3.6-5.1-4.7
				c-4.1-1.1-21.1-6.4-22.7-6.2l-20.7,8.5c-9.3,3.9-6.3,3.8-14.1,0.8c-5.1-2-16.7-5.2-22.2-6.8c-0.6-0.2-14.7-3.7-15.1-4.5l-1.9-12
				c5.5-2.4,14.7-7.2,20.5-9.9c5.1-2.4,3.8-2.5,7.8-1.9c11,1.8,23.5,2.9,33.9,6.4c16.3,5.5,26.9,11.6,41,19.6
				c4.2,2.4,8.7,5,12.6,7.6l-0.2,15.8c0.2,0.7,11.1,8.1,13.1,10.1L79.6,287.7z M103.2,319c-0.9-0.9-5.2-12.4-6.1-14.7
				c-2.1-5.2-4.2-9.3-6.5-14.1c-4.6-9.4-9.2-18.4-13.6-27.5c-4.4-8.9-1.8-5.2-10.3-10.2c-4.4-2.6-8.9-4.7-13.3-7.3l-26.6-14.7
				c9.4,1.1,23.6,6.2,31.2,10.5c2.2,1.3,4.7,2.5,6.6,3.8c1.2,0.8,2.2,1.4,3.2,2.2c4.4,3.3,14.5,10.2,17.9,13.2
				c0.8,0.7,0.8,0.6,1.5,1.2c0.7,0.5,0.6,0.6,1.2,1.2c0.5,0.5,1,0.7,1.6,1.1c0.9,0.7,0.5,0.7,1.2,1.5c1.1,1.4,0.8,0,2.5,2.5
				c3.6,5,4.9,6.1,6.5,14.2c1,5.6,1.7,12.7,2.2,18.5C102.4,303.1,104.2,317.3,103.2,319z M-57.1,253c-1-5-1.4-3.1,1-7.6
				c1.3-2.4,2.3-4.6,3.5-6.9c4.9-9.3,3-8.1,9-11.9c4.2-2.7,8.3-5.5,12.6-8.3c2.6-1.7,13.2-2.8,17.2-3.4c3-0.5,6-0.9,9-1.4
				c4.2-0.6,4.3-0.1,8.1,1.2l31.2,10.5c2.6,0.8,5.2,1.8,7.8,2.7c2.5,0.8,5.4,1.5,7.6,2.7l-34.1-4.6c-0.4,0.8-0.7,1-1.1,1.8
				c-7.3-0.9-14.7-2.1-22-3.1c-3.4-0.5-7.6-1.4-11-1.6c-1.7-0.1-3,1-4.4,1.7l-20.7,10.7c-2.1,1.1-1.5,0.6-1.9,1.4
				c-0.6,1.3-1.3,6.5-1.3,7.8c0.1,2.5,0.3,9.8,1.1,11.5c0.6,0.6,43.1,12.2,47.9,13.6c6.9,2.1,4.6,1.3,15-2.8c2.5-1,4.9-2.1,7.4-3.1
				c2.3-0.9,4.7-2.6,7.2-2c5.4,1.3,11,2.9,16.3,4c2.2,0.5,1.9,0.5,2.9,2.1c1.4,2.1,5.7,7.7,5.3,9.1c-1.5,4.6-1.2,2.8,0.5,7.4
				c0.4,1,1.3,2.8,1.4,3.6c0.4,1.5-0.5,1.2-1.5,3c-4.5-1.4-9.8-3.6-14.3-5.4C32.2,281.8,9.4,275-1.5,271.6c-10-3-19.8-6.2-29.7-9.4
				c-9.8-3.1-20-6-29.6-9.4L-57.1,253z"/>
			<g>
				<path class="st1" d="M92.1,340.9c1.2-2-1.2-5.9-6.3-2.2c-0.8,0.6-1.1,1.3-1.2,2.8C84.6,345.8,87.5,348.5,92.1,340.9z"/>
				<path class="st1" d="M77.2,335.8l0.4,0.2c5.6,0.1,12.9-2.8,16.5,1.9l-0.2-1.1C90.9,331.9,82.6,335.1,77.2,335.8z"/>
			</g>
			<g>
				<path class="st2" d="M71.6,288.9l-4.9,7.9l1.8,0.7l2.9-4.6l2.9,0.9c-0.6,1.6-2.1,3.2-2.6,4.7l1.9,0.8l4.5-7.7
					c1.1-1.9,1.3-1.5,1.5-2.9l-1.8-0.3c-1,1.2-1.6,3-2.7,4l-2.7-0.9l2.3-4.2l-1.7-0.6C72.4,287.3,72.1,287.7,71.6,288.9z"/>
				<path class="st2" d="M75.1,299.4c0.2,0.2,0.1,0.2,0.6,0.4l5.5,1.8l1-1.3c-1-0.8-2.8-1.2-4.2-1.4c0.6-1.4,1.3-2,1.5-3.3l3.4,1.1
					l0.9-1.7l-3.1-0.8l1.5-2.6l4,1.4c0.6-0.9,0.6-0.7,0.9-1.6l-6-2C79.3,292.7,76.9,296,75.1,299.4z"/>
				<path class="st2" d="M71.5,287.9c0.1-1.5,0.4-0.7,0.5-1.8l-5.8-1.9l-0.6-0.3l-1.1,1.8l2.3,0.6c-0.9,2.5-4.3,6.5-5,8.8l2,0.7
					c0.4-1.4,4-7.2,5-8.6L71.5,287.9z"/>
			</g>
			<g>
				<path class="st3" d="M76.9,444.7c0,1.4-0.4,0.3,2.3-0.3c0.9-0.2,2.1-0.4,3-0.5c1.2-0.2,4.6-0.9,5.7-0.9c0-0.7,0-1.4,0-2.1
					c0-1.8,0.2-1.9,0.7-2.4l-0.9-11.6c2.3-0.7,3.2-0.2,4.5-0.9c-2.4-0.9-15.1-1.1-19.1-1.6l1.1,1.6c0.6,0.5,0.6,0.4,1.2,0.9
					c0.7,0.6,1.1,1.4,1.9,2.3c2.1,2.4,2.8,3.8,0.3,4.6c0.7,1.1,9.7,5,2.9,9.3C79.5,443.5,77.6,444.1,76.9,444.7z"/>
				<path class="st3" d="M96.1,345.2c-0.1,1.7-2.3,4.3-3.1,4.9c-0.9,0.7-3.8,3-5.2,2.8c-1.2,2.7-6.9,2-8,4.3
					c0.3,0.1,0.4,0.1,0.8,0.3c0.7,0.5,0.3,0.1,0.9,0.8c1,0.4,2.6,1.7,3.8,2.2l0.1,1.9l0.2-1.9c4.1-0.6,10.7-5.1,12.4-7.2
					c2.1-2.6,1.4-2.4,2.4-4c0.3-1.2,0.2-2,0.7-3l-3.3,0.9l-0.6-2.5C96.6,345.3,97,345,96.1,345.2z"/>
				<path class="st3" d="M72.4,414.8l10.8-0.4c2.7,0.4,5.9-0.8,8.5-0.1c-0.4-0.5-0.2,0-0.2-0.8l6.4-2.2c-1.4-1-1.1-0.4-1.1-0.4
					l-13.7-0.2c-2.4,0-4.9-0.4-6.7,0.7C73.4,413.3,73.9,413.8,72.4,414.8z"/>
				<path class="st3" d="M100.7,383.9c0.7,1.5,2,2.9,2.5,4.5c3.2,0,4.5,0.4,8-0.1c1.5-0.2,6.3-0.7,7.4-1.2c-1.7,0-6.8-1.5-8.9-1.9
					C106.5,384.5,103.9,383.5,100.7,383.9z"/>
			</g>
			<g>
				<path class="st4" d="M72.4,414.8c1.6-1,1-1.5,4.1-3.4c1.8-1.1,4.3-0.7,6.7-0.7l13.7,0.2c0,0-0.4-0.6,1.1,0.4l6.3-2l-3.6-9.8
					l-0.2-1c-5.1,2.2-10.5,4.4-16.1,6.3c-9.2,3.1-8.4,0.8-12.5,10.1L72.4,414.8z"/>
				<path class="st4" d="M95.2,425.8l2-4.4c-0.5-1.1-1.8-2.7-2.6-3.8c-2.3-3.3-0.7-1.4-3-3.4c-2.6-0.6-5.8,0.5-8.5,0.1
					c0.6,0.8,1.7,0.9,3.2,1.7c1.1,0.6,2.2,0.9,3.3,1.5c2.7,1.4,3.5,0.9,4.5,2.7c1,1.7,1.5,1.6-0.3,4.5c-0.5,0.8,0,0.3-0.6,0.7
					L95.2,425.8z"/>
			</g>
			<g>
				<path class="st5" d="M79.2,358.9l4.6,2.9l-0.1,12.5c-1.8,1.2-5.4,2.7-7.4,3.7l-11.1,5.3c-2.3,1.1-2,0.6-2.4,3.2
					c-1.4,8.6-3.8,19-5.5,28c-0.6,3.3-3.6,17-3.6,19c3.7,3,2.6,3.1,4.6,4.7c1.5,1.2,1.8,2.2,2.9,3.3c0.8,0.8,1,0.6,1.7,1.5
					c1,1.2,2.2,2.2,1.9,4.4c-0.2-1,0.6-1.4,0.9-2.4c-0.4-2.5-1-2.4-2.3-3.7c-3.4-3.2-3.4-3.7-5.6-5.8c-0.9-0.9-2.1-1.8-2.8-2.8
					c0.4-3.1,2.4-9.2,3.3-12.4c1.3-4.5,2.5-8.2,5.1-10.7L80.1,395c-3,1.4-7.2,4-10.1,5.8l-9.6,6.6l3-18c0.4-2.9-0.1-3.3,2.3-4.5
					c2.8-1.3,17.7-7.7,18.9-8.6l0.6-10.9l0-2.9l-0.1-1.9c-1.2-0.5-2.7-1.9-3.8-2.2c-0.2,0-1,0-1.2,0.1
					C78.7,358.7,79.8,358.4,79.2,358.9z"/>
				<path class="st5" d="M66.2,284.2l5.8,1.9c-0.1,1.1-0.4,0.3-0.5,1.8c-0.1,0.1-0.2,0.1-0.3,0.3l0.4,0.7c0.5-1.2,0.7-1.5,1.4-2.4
					l1.7,0.6l-2.3,4.2l2.7,0.9c1.1-1,1.7-2.8,2.7-4l1.8,0.3l0-0.3c0,0,0-0.1,0-0.1c-0.1-1.1-0.3,0.6-0.1-0.3
					c-1-0.6-11.3-4.1-12.2-4.1c-0.1,0-0.3,0-0.4,0L66.2,284.2z"/>
			</g>
			<g>
				<path class="st6" d="M-1.2,462.6l-17.4-6.6l-0.1,0.2c0.4,1.1,1,1,2.8,2.8l12.5,11l-7.7,33c0.9-1,12.3-27.8,14.2-31.8
					c2.2-4.9,1.4-3.6,7.2-4.5c3.3-0.5,6.6-1,9.8-1.5c5.5-0.9,10.4-1,14.1-3.2l3.5-2.3c-2.7,0.4-33,5.2-34.9,4.7
					C2.1,464-0.7,462.9-1.2,462.6z"/>
				<path class="st6" d="M-106.1,422.9c-2.8,4.7-11.2,21.9-14.4,28.2c-2.4,4.6-4.6,9.4-7.2,14.3c-1.5,2.7-0.9,6.5-1,9.8
					c-0.1,3.1-0.4,7.1-0.1,10.2L-106.1,422.9z"/>
			</g>
			<g>
				<path class="st7" d="M30.4,340.6c1.7,1.8,2.9,2.5,4.5,4.1l10.6,8.8c1.1,0.8,2.5,2.4,3.6,3L45.8,372l11.5,7.3
					c2.2,1.4,1.3,1.9,2.6,3.9c0.9-0.2,0.2,0,1.3-0.5l8.6-4.8c2.5-1.2,8.2-4.7,9.9-5.3c0.8-13.1,4.2-8.6-7.1-16.4l-9.4-6.3
					c-2.6,1.6-0.7,2.7-7.7-0.8l-23.9-11L30.4,340.6z"/>
				<path class="st7" d="M100.3,349.4c-1,1.7-0.4,1.4-2.4,4c-1.7,2.1-8.3,6.6-12.4,7.2l-0.2,1.9l0,2.9l-0.1,2l5.6-5
					c1.6-1.9,3.1-1.1,8.2-0.3l1.7,21.7c3.2-0.4,5.8,0.6,8.9,1.3c2.1,0.4,7.2,1.9,8.9,1.9c0.5-0.7,3.5-6.5,3.6-7.2
					c0.4-1.6-2.1-5.9-2.9-7.7c-2.1-5.1-4.2-10.1-6.4-15.1c-3.5-8.1-3.7-6.5-1.8-16.8c0.4-2,2.9-2.7,6.2-4.6c1-0.6,2.3-1.3,3.5-1.9
					c2.7-1.3,1.4-0.9,2.6-2.6l-0.3-0.5c-0.9-2.1,0.4,1.6-0.2-0.5c-0.1-0.3,0-0.6,0-0.8l-0.1,1.6l-1.5-3.3c-0.5,0.5-1.2,2.8-1.5,3.6
					c-0.7,1.8,0,0.9-2.8,2.6c-2.3,1.4-4.5,2.6-6.7,4c-5.5,3.3-4.7,2.2-5.7,5c-0.7,1.9-2.1,4.6-3.6,5.9c-0.1,0.1-0.3,0.2-0.3,0.3
					L100.3,349.4z"/>
				<path class="st7" d="M87,377.4l-2.4,1.2c-0.8,0.5-1.7,0.8-2.6,1.2c-3.5,1.6-12.8,6.5-15.3,7.1l-2.3,15L85,384.1
					c0.9-1.1,1.9-1.8,3-2.6l-0.2-11L87,377.4z"/>
				<path class="st7" d="M49.8,428.8c1.3-2,2.8-6.4,3.9-8.9c2.8-6.3,3.8-13.6,5.2-20.5c0.6-2.9,2-8.1,2.1-10.9l-2.9-2.3
					C57.7,387.1,50,425.9,49.8,428.8z"/>
				<path class="st7" d="M103.9,334.6c0.7,1.3,1.2,1.2,3.1,3.2l10.6-6.5l-0.7-0.9c-0.7-1-1-1.5-2.1-2.3L103.9,334.6z"/>
			</g>
			<g>
				<path class="st8" d="M10.4,348c0.8,1.2,13.8,8.4,16,10.5l2.2,1.1l-0.5,2.9l-1.5,0.9c-3.2,1.3-27.3,12.6-28.1,13.6
					c0.5,4.8,1.8,10.7,2.7,15.7c0.9,5.3,1.8,10.5,2.7,15.8c0.3,1.8,0.6,6.5,1.8,7.5l11.8,6.7c1.8,1.1,4,2.4,5.9,3.3
					c-0.4-0.6-1.2-1.6-1.8-2.1c-3-2.2-2-2.2-5.4-5.3c-6.4-5.9-5.3-4.4-5.3-8.8l0-28.5l12.4-9.1c1.9-1.4,10.8-8.2,12.4-8.6l3.1-6.7
					c0-1.2-1.4-1.8-2.2-2.5l-8.1-6.8c-0.6-0.5-0.7-0.4-1.3-1.1l-9.4-7.9l0.7-6.4L2.5,326l-0.1,17.2c1,0.7,2.7,1.8,3.9,2.5
					C7.7,346.4,8.9,347.4,10.4,348z"/>
				<path class="st8" d="M-74.2,408.4c0.1-0.7,0-0.2,0.3-0.9c0,0,0.5-0.9,0.6-0.9l10.7-15.5c0.8-1.2,1.6-2.4,2.4-3.6l4.9-6.9
					c-0.3-1.5-6-12-7.2-14l-24.7-47.8l-0.2,0c1.4,4.8,4.1,10.5,5.9,15.4l11.8,31.7c1.3,3.4,1.1,2.3-1.1,7.7l-24.9,61.9
					c-1,2.4-2.4,5.5-3.1,7.8l6.1-8.7c1-1.6,2-2.8,3.1-4.4l9.1-13.3C-79.6,415.8-75.1,408.9-74.2,408.4z"/>
				<path class="st8" d="M52.8,309.9l0.5-0.6l-0.2,0.9l-4.2,30l7.7,2.7c1-1,10.5-17.3,12.2-20c1-1.7,11.6-18.9,12-20.3l-6.9-2.3
					l-8.2,13.3c-1.4,2.3-2.7,4.4-4,6.7c-1.1,1.8-2.9,5.4-4.2,6.7l4.5-30.7l-7.7-2.7l-24.2,40.1l6.9,2.5L52.8,309.9z"/>
				<path class="st8" d="M26.2,292.1c1.8-0.2,3.8,0.9,5.5,1.5c1.2,0.4,4.5,1.1,4.8,2.3c0.3,1.2-8.9,15.8-10.2,17.9
					c-0.9,1.5-1.8,2.9-2.7,4.5c-3.4,5.6-2.1,4.7-11.1,1.7c-3.6-1.2-3.2-0.9,2.6-10.5C17,306.2,24,293.8,26.2,292.1z M23.8,284.6
					c-0.8,0.2-1.4,0.4-2.1,0.8c-1,0.6-1,0.6-1.7,1.3c-1.5,1.6-1,0.6-2.5,3.2c-1.4,2.4-2.8,4.7-4.2,7.1c-1.7,2.8-11.9,19.1-12.5,21.5
					c-1.6,6.4,5.8,7.2,12.4,9.6c6.1,2.1,11.2,4.1,15.6-3.3c1.5-2.5,2.8-4.6,4.3-7.1c1.7-2.9,11.8-19,12.5-21.5c1.3-4.1-1-5.8-4-7
					C37.8,287.8,27.6,283.7,23.8,284.6z"/>
				<path class="st8" d="M103.2,319c1-1.7-0.8-15.9-1-18.8c-0.5-5.8-1.1-12.9-2.2-18.5c-1.5-8.1-2.9-9.1-6.5-14.2
					c-1.8-2.5-1.4-1.2-2.5-2.5c-0.7-0.8-0.3-0.7-1.2-1.5c-0.5-0.5-1-0.7-1.6-1.1c-0.6-0.5-0.5-0.6-1.2-1.2c-0.7-0.5-0.7-0.4-1.5-1.2
					c-3.4-3-13.5-9.9-17.9-13.2c-1.1-0.8-2-1.3-3.2-2.2c-1.9-1.3-4.4-2.6-6.6-3.8c-7.6-4.3-21.7-9.4-31.2-10.5l26.6,14.7
					c4.4,2.6,8.9,4.7,13.3,7.3c8.6,5.1,6,1.3,10.3,10.2c4.5,9.2,9,18.1,13.6,27.5c2.3,4.8,4.4,8.9,6.5,14.1
					C98,306.6,102.3,318.1,103.2,319z"/>
				<path class="st8" d="M46.5,455.4c1.5,0.4,6.8,3,8.4,3.8c2.1,1.1,6.2,3.1,8.2,3.8c-1.7-1.4-3.9-2.8-6.2-4.2
					c-2.3-1.2-4.2-2.5-6.4-3.9c-9.8-6.1-21.1-12.7-30.7-18.8c-4.1-2.6-8-4.9-12.2-7.5c-2.1-1.3-4.1-2.6-6.3-3.8
					c-4.3-2.5-3.7-2-4.4-5.4c-3.1-15.9-7.3-32.6-10.5-48.8c1.5-0.5,13.9-6.4,14.6-7.2c-5.4,1.5-22.9,3.4-26.3,4.9
					c1.1,4.6,3.2,10.5,4.7,15.1l13.2,41.4c0.5,1.5,0.4,2.7,1.7,3.4c4.1,2.4,8.7,4.5,12.9,6.8l19.4,10.4c2.3,1.2,4.1,2.3,6.7,3.5
					C34.9,449.7,46.1,455,46.5,455.4z"/>
				<path class="st8" d="M-77.2,296.9l9.4,3.3c1.8-1.5,1.8-2.4,5.4-5.3c0.4-0.4,0.8-0.8,1.2-1.2c1.6-1.7,5.2-6,6.5-7
					c1.8-1.3,4.8-4.9,6.6-6.9c0.3-0.4,0.6-0.8,1-1.1c0.6-0.5,0.8-0.5,1.4-1c1.4-1.2,3-3.3,4.3-4.7c2.5-2.8,3.5-3.4,4.5-4.4
					c1.5-1.6,2.8-3.1,4.3-4.7c-0.2-0.1-0.2-0.2-0.6-0.4c-0.2-0.1-0.5-0.2-0.6-0.3l-4.7-1.6c-1.5-0.5-1.6-0.7-2.6,0.4l-2.7,3.3
					c-2.1,1.9-0.7,0.3-3,3.2c-0.9,1.2-1.5,1.4-3.9,4.2c-0.8,0.9-1.2,1-2,1.9c-0.7,0.8-1.2,1.5-1.9,2.3c-0.8,0.9-1.2,1-2,1.9
					c-0.7,0.8-1.2,1.5-1.9,2.3c-0.8,0.9-1.2,1-2,1.9c-0.7,0.8-1.2,1.5-1.9,2.3c-0.8,1-1.3,1-2.1,2c-0.7,0.8-1.3,1.5-1.8,2.4
					c-0.6-1,0.1-2.1,0.7-4.1c1.4-4.1,9.4-28.3,9.6-30.1l-7.8-2.6l-0.6,1.4c-0.2,0.5-0.2,0.9-0.4,1.4
					C-66.8,262.3-76.9,294.7-77.2,296.9z"/>
				<path class="st8" d="M-39.7,301.6c-1.4,2.1-2.9,4.4-4.1,6.7c1.6,1.1,18.3,6.6,20.4,6.6c3.7,0.1,5-1.6,6.7-3.2
					c1.3-1.3,5.7-8.3,5.5-11.5c-0.1-2.4-4.7-10.7-6.2-13.8c-0.8-1.7-2-3-1.2-4.9c2.5-5.4,3.5-4,8.4-2.3c2.6,0.9,7.3,2.3,9.3,3.5
					l0.4,0.3c0.8-1,3.6-5.8,4-6.8c-3.5-1.5-17.6-6.6-20.7-6.1c-4.1,0.6-5.7,3.2-7.4,6c-1.5,2.5-4.1,5.8-2.9,9.6
					c0.7,2.1,5,10.6,6.5,13.5c1.4,2.7,1.2,2.7-0.2,5c-2.7,4.5-2.8,3-8.9,1.1C-32.7,304.6-38.1,303-39.7,301.6z"/>
				<path class="st8" d="M-102.3,411.5c0.8-1,5.3-14,6.2-16.4l9-24.9c0.2-1.4-6-23.5-6.6-27c-0.6,1-6.4,43.2-7.3,50.3
					C-101.7,398.5-102.5,406.6-102.3,411.5z"/>
				<path class="st8" d="M-55.5,304.4l7.4,2.5l24.2-40.1c-0.9-0.7-6.4-2.5-7.7-2.6c-4.2,6.6-8,13.3-12,20c-2,3.4-4,6.7-6,10.1
					C-51.2,297.1-54.4,301.7-55.5,304.4z"/>
				<polygon class="st8" points="-15,318.1 -7.5,320.9 16.8,280.6 9.2,278.1 				"/>
			</g>
			<g>
				<path class="st9" d="M30.9,486.9c-6.8,12.2-16.5,27.5-24,40l-4.8,8c-0.7,1.5,5.1,16.3,6,18.9c0.2,0.7,0.4,1.7,0.7,2.3
					c0.5,1.2,0.5,0.9,1.9,1.4c8.7,3.1,22.3,9.4,32,13c6.1,2.3,12.2,5,18.2,7.4l18.1,7.7l2.3,0.6l0.1-0.4c-2.4-1-4.8-2.7-7.3-4.1
					c-2.4-1.3-4.6-2.7-7-4L24.9,553c-0.6-8.6-0.9-20.8-1.3-30.1c-0.2-3.7,4.3-10.6,5.9-15.2c0.7-1.9,1.4-6.4,1.8-8.6
					c0.5-2.8,1.2-5.9,1.8-8.6c0.3-1.2,1.9-7.3,1.2-8.3C32.6,485.2,31.9,484.5,30.9,486.9z"/>
				<path class="st9" d="M-121.3,432.5l-0.5-0.3l-22.3,26.5c-3.5,3.7-2.3,2.3-1.8,7.8c0.4,4.1,1.5,9.5,1.5,13.4
					c0,1.5-11,20.9-13,24.3c-0.7,1.3-2.2,3.6-2.6,4.9c1.6-0.7,13.4-13,15.6-15.2c2.6-2.6,5-5,7.6-7.6c1.5-1.5,3.4-2.9,3.3-4.2
					l-2.7-12.5c-0.7-3.1-0.2-2.9,1-5.5C-131.8,456.2-124,439.3-121.3,432.5z"/>
				<path class="st9" d="M123.5,282.7l-3.7-5.4c-1.6-1.2-5.3-6.8-8.2-9.2c-1.2-1-1.8-2.1-3.1-2.9c0.3-2.1,4.2-8.7,5.4-10.9
					c-3-3.7-11-6.2-16.9-6.5c1.7,1.2,9.4,4.8,12.1,7.9c-0.4,1-5.4,7.9-6.6,11c0.7,0.7,1.8,1.3,2.6,1.9l3.8,3
					c0.6,0.5,0.6,0.6,1.2,1.1c0.5,0.4,0.9,0.6,1.4,1l5.8,5.8c6.5,7.1,4.3,3.2,4.2,11.9C122.5,289.8,124.2,284.6,123.5,282.7z"/>
			</g>
			<g>
				<path class="st10" d="M87.7,370.5l0.2,11c-1.1,0.8-2.1,1.5-3,2.6l-20.7,17.8l2.3-15c2.5-0.6,11.8-5.5,15.3-7.1
					c0.9-0.4,1.8-0.8,2.6-1.2l2.4-1.2L87.7,370.5z M85.3,365.4l-0.6,10.9c-1.2,0.9-16.1,7.3-18.9,8.6c-2.4,1.1-1.9,1.6-2.3,4.5
					l-3,18l9.6-6.6c2.8-1.8,7.1-4.5,10.1-5.8l-16.7,14.7c-2.6,2.5-3.8,6.2-5.1,10.7c-0.9,3.2-3,9.3-3.3,12.4
					c0.7,0.9,1.9,1.9,2.8,2.8c2.2,2,2.1,2.5,5.6,5.8c1.3,1.3,2,1.2,2.3,3.7l0.3,1.4c4.6,0.7,5-0.4,8.7-0.6c0.6-0.8,1.2-0.9,2.3-1.1
					c0.7-0.6,2.6-1.1,3.6-1.7c6.8-4.3-2.2-8.1-2.9-9.3c2.5-0.8,1.8-2.2-0.3-4.6c-0.8-0.9-1.2-1.7-1.9-2.3c-0.6-0.5-0.6-0.4-1.2-0.9
					l-1.1-1.6c3.9,0.5,16.7,0.7,19.1,1.6l3,0l-1.9-0.4c0.5-0.3,0,0.2,0.6-0.7c1.8-2.9,1.3-2.7,0.3-4.5c-1-1.7-1.8-1.3-4.5-2.7
					c-1.1-0.6-2.2-0.9-3.3-1.5c-1.5-0.8-2.6-0.9-3.2-1.7l-10.8,0.4l-0.4,0c4.1-9.2,3.3-6.9,12.5-10.1c5.5-1.9,11-4.1,16.1-6.3l0.2,1
					c0-1.5,1.9-9.8,2.5-11.1c-0.5-1.6-1.9-3-2.5-4.5L99,362.1c-5.1-0.8-6.6-1.6-8.2,0.3l-5.6,5L85.3,365.4z"/>
				<path class="st10" d="M49.8,428.8c0.2-3,7.9-41.8,8.3-42.6l2.9,2.3c-0.2,2.8-1.6,8-2.1,10.9c-1.4,6.9-2.4,14.2-5.2,20.5
					C52.6,422.5,51.1,426.8,49.8,428.8z M59.9,383.3c-1.3-2-0.5-2.6-2.6-3.9L45.8,372l3.4-15.7c-1.1-0.5-2.5-2.1-3.6-3L35,344.6
					c-1.7-1.6-2.8-2.2-4.5-4.1l1.2-2.4l23.9,11c7,3.5,5.1,2.4,7.7,0.8l9.4,6.3c11.3,7.8,7.9,3.4,7.1,16.4c-1.7,0.6-7.3,4-9.9,5.3
					l-8.6,4.8C60.2,383.3,60.8,383,59.9,383.3z M64.7,447.4c0.3-2.2-1-3.2-1.9-4.4c-0.8-0.9-0.9-0.8-1.7-1.5
					c-1.1-1.1-1.4-2.1-2.9-3.3c-2-1.6-0.9-1.7-4.6-4.7c0-2,3-15.7,3.6-19c1.6-8.9,4-19.4,5.5-28c0.4-2.6,0.1-2.1,2.4-3.2l11.1-5.3
					c2.1-1,5.6-2.5,7.4-3.7l0.1-12.5l-4.6-2.9c-1.8-1.5-4-2.9-5.7-4.1l-5.3-4.2c-5.8-5.9-3.9-7.5-0.7-12.2l4.8-4.7
					c1.4-1,1-1.3,1-1.5c0.1-2.2,8.8-4.6,10.3-5c1.1-0.3,2.6-0.8,3.8-1c2.2-0.3,2,0.3,3.1,0.3c1.1,0,0.4,0.1,0.9-0.2
					c-1.2-1.2-7.2-9.8-7.5-10.2c0.6,0.7,1.8,1.6,2.6,2.2c2.3,1.9,1.1,1.7,2.7,2.5c1.1-2.7,3.1-1.8,4.3-4.8c0.7-1.7-0.8-5-1.4-6.9
					c-0.6-2.3-3.4-13.5-4.1-14.4c-1,2.1-2.5,4.3-3.6,6.5c-5.7,10.6-12.6,22-18.5,32.5c-1.2,2.1-2.4,4.3-3.7,6.5
					c-1.1,2.1-2.7,4.5-3.7,6.6l-37.8-14.4l-1.4,3.9l12.5,11.1c0.7,0.7,1.5,1,2.2,1.7c1.2,1.2,0,0.5,2.2,2l6.1,5.5
					c3.9,2.9-0.1,8.2-0.6,15.9l15,10.9c0.3,1.4-7.4,43.9-8.5,48.2c1.3,1.6,2.4,2.6,3.6,4c3.4,3.7,3.7,3.5,7.4,7.6
					c2.7,3,2.6,2.2,2.8,4.9c0.4,0,1.3-0.1,1.6-0.2C65,447.6,64,448,64.7,447.4z"/>
			</g>
			<g>
				<path class="st11" d="M-94.9,302.8c4,0.9,25.5,8.5,27,8.1l8.5-4.9c1.5-0.8,1.2-0.9,1.9-2.6c1.6-4.2,3.8-8.8,5.1-13.1
					c-2.4,2.1-4.7,4-7,6.4c-0.5,0.6-1.2,0.9-1.9,1.4c-1,0.8-0.8,0.9-1.6,1.7c-0.6,0.6-1.2,0.9-1.9,1.4c-0.9,0.8-0.8,1.1-1.7,1.7
					l-13.4-5.1c0.5-2.5,7.8-23.5,9.3-29c3.1-10.7,6.2-18.4,10.8-27.7c1.1-2.2,2-4.3,3.2-6.4c1.2-2.1,2-4.3,3.4-6.1
					c1.5-1.8,1.9-2,3.6-3.6c2.7-2.7,3.4-3.2,6.7-5.5c3.6-2.5,7.7-4.6,12.3-6.8c3.8-1.8,5.9-2.9,10-4.3l3.7-1.5
					c-2.8,0.3-5.7,1.5-8.6,2.1c-2.8,0.6-5.8,1.5-8.5,2.3c-7.8,2.4-21,7.9-27.5,13.1l-3.2,2.5c-2,2-4.9,4.1-6.9,6.5
					c-2.3,2.7-4.9,5.2-7.8,8.7c-3.8,4.6-9.8,14.6-11.6,20.9C-94.4,274-94.4,290.9-94.9,302.8z"/>
				<path class="st11" d="M-71.7,410.1c-0.8,2.2-4,6.2-4.7,8.1l6.2,7.7c0.8,1.1,0.9,1.6,2.7,2.1c4.7,1.5,9.4,3.1,14.1,4.7
					c2.3,0.8,4.6,1.6,6.9,2.3c2.2,0.7,1.6,1,3.6,5.9c1.2,3,4.1,11.4,5.6,13.6l15.2-2.1c1.2-0.6,2-10.2,2-10.2c0-0.3-12-21-13.9-23.6
					c-0.8-1.1-2.8-1.4-4.3-2l-13.8-5c-7-2.5-3.7-1.1-9.7-9.1c-1-1.3-1.6-2.7-2.6-3.7C-65.7,399.9-70.7,409.6-71.7,410.1z"/>
				<path class="st11" d="M23.4,425.9c1.2,1,4.9,2.9,6.6,3.9c2.2,1.2,4.3,2.5,6.6,3.8c2,1.1,12.3,6.8,13.3,7.7l8.2,4.4
					c-0.6-0.9-10.3-11-11.3-11.6c-1.7-0.9-12.9-13.5-16.3-16.8c-0.7-0.7-1.1-0.7-1.9-1.4c-1.9-1.8-4.2-4.3-5.9-6.2l1-2.3
					c0.9-2.9,3.1-7.1,4.4-10.1l8.8-19.9c1-2.1,4.1-8.4,4.3-10.4c-1.1-0.1-2.1-1.1-3-1.7c-0.5-0.4-0.8-0.7-1.4-1
					c-0.9-0.7-0.1-0.3-1.3-0.8c-1.6,0.4-10.5,7.2-12.4,8.6l-12.4,9.1l0,28.5c0,4.4-1.1,2.9,5.3,8.8c3.4,3.1,2.5,3,5.4,5.3
					C22.3,424.3,23.1,425.4,23.4,425.9z"/>
				<path class="st11" d="M-39.5,394.4c1.5,1.2,4.9,2.6,6.8,3.6c4,2.1,2.9,1.6,4.5,5.9c4.1,10.8,8.6,24.6,12.7,34.7
					c1.4,3.5-0.7,7.4-1.2,13.9c1.1,0.4,2.5,0.8,3.7,1.2c1.9,0.6,1.8,0.8,3.4-0.1L10.2,442c-0.1-0.1-0.2-0.2-0.2-0.1l-8.9-4
					c-1.8-0.8-8.4-3.1-9-4.4l-12.9-40.3c-2-6.8-4.7-13.7-6.4-20.5c-2,1.1-3.4,3-4.4,4c-0.6,0.6-1.6,1.3-2.3,1.9
					c-1.6,1.3-1.1,1.3-2.2,2.3c-1.5,1.3-3.8,2-3.7,5C-39.8,388.6-39.7,391.7-39.5,394.4z"/>
				<path class="st11" d="M-16.8,524.2c1.7-0.7,1.6-1.7,3.9-3.7c1.3-1.2,2.5-2.1,3.8-3.3c0.9-0.8,0.9-1.3,1.8-2.1
					c1.4-1.4,4.7-3.9,5.7-5.1c0.4-0.5,0.4-0.7,0.9-1.2l2.9-2.5c0.7-0.6,1.2-1,1.9-1.7c1.4-1.2,0.9-0.9,1.7-1.9
					c1.2-1.4,4.9-4.1,5.8-5.2c3.2-3.9,4-3.4,7.3-7.3l5.8-5.2c0.8-0.8,0.7-1.1,1.6-1.9c1.8-1.7,4.4-3.5,5.7-5.3
					c3.9-5.3,3.9-0.2,5.7-8.9c0.4-2,0.9-4,1.2-5.9c-4.1,2.9,2.5,1.8-10.6,4.1c-4.2,0.7-8.3,1.5-12.4,2.2c-2.1,0.4-4.2,0.7-6.3,1.1
					c-3.3,0.6-3.1-0.1-4.3,2.9c-4.1,10-9.1,20.7-13.2,30.6C-10.6,510.5-14.2,517.4-16.8,524.2z"/>
				<path class="st11" d="M114,315.2c1.5-0.1,1.1,0.4,2.4,2.3c1.3,1.8,4.5,8.3,4.9,10.2l1.5,3.3l0.1-1.6
					c-0.4-11.2-1.3-19.6-2.4-30.3l0-3.4c0.3-1.2,0.1-0.4,0.5-0.8c-2.3-7.1-0.3-9.2-1.9-10.5l-3.6-2.6c-3.5-2.5-1.3-0.8-3.3-2.9
					c-1-1-2.5-1.8-3.4-2.9c-0.8-1-0.5-0.8-1.4-1.5l-6.6-5.9c-0.5-0.6-0.2-0.3-0.7-0.8c-0.3-0.3-0.5-0.3-1-0.7
					c0.4-1.1,2.8-4.2,3.7-5.5c1.2-1.8,2.6-3.7,3.6-5.5c-0.6-0.8-3.1-2.2-4-2.7c-2.5-1.5-1.6-1.5-4.8-2c-12-1.8-9.7-0.6-21.5-6
					c-10.3-4.8-5.6-3.2-9.6-2.3c0.1,0.1,0.1,0.1,0.2,0.2c0.1,0.5,3.7,2.3,4.2,2.6c1.5,0.9,2.9,1.8,4.3,2.6c3.9,2.3,9.9,6.5,13.3,9.4
					c2.9,2.4,5.5,5,7.8,8.1c8.3,11.4,9.7,21.7,10.2,35.5c0.2,4.3-0.2,9.5,0.2,13.6c1.8-1,3.7-1.2,6-0.5
					C113.4,314.6,113.6,314.7,114,315.2z"/>
				<path class="st11" d="M-90.9,321.9c-1.3-3.3-3.9-7.9-4.6-10.5c-0.5,0.7,0,2.1,0.2,2.8l2.1,8.4c2.5,10.2,5.5,24.2,8.1,33.5
					c3.8,13.4,3.7,11.1-0.1,21.4c-2.1,5.6-35.9,100.4-36.3,102.5c0.4-1.6,3.5-8.1,4.5-10.5c1.5-3.4,2.9-7,4.5-10.5l36-83.7
					c3.2-7.6,3.7-6.4,2.1-10.4c-1.4-3.6-2.8-7.2-4.1-10.8L-90.9,321.9z"/>
				<path class="st11" d="M1.1,363.4c-0.7,0.7-13.1,6.7-14.6,7.2c3.2,16.2,7.4,32.9,10.5,48.8c0.7,3.4,0.1,3,4.4,5.4
					c2.2,1.3,4.2,2.5,6.3,3.8c4.2,2.6,8.1,4.9,12.2,7.5c9.5,6.1,20.9,12.7,30.7,18.8c2.2,1.4,4.2,2.7,6.4,3.9c-1.4-2-8.4-6-9.4-7.4
					c-1.4-0.6-9.8-7-12.1-8.6L19.3,431c-3.8-3-10.1-7.1-14-10.2c-0.5-0.4-0.8-0.5-1.2-0.9c-1.3-0.9-0.7-0.2-1.5-4.5
					c-0.9-4.5-1.8-8.9-2.7-13.4l-3.7-28.8c2.2-0.4,12.1-5.6,15-6.9l14.8-6.9l-0.6-0.2L1.1,363.4z"/>
				<path class="st11" d="M-62.9,396.7c0.3,0.4,0.8,0.8,1.2,1.4c0.5,0.6,0.8,0.9,1.2,1.5c0.5,0.6,0.8,0.9,1.2,1.5
					c1.2,1.7,4.5,6.3,6.5,7c5.4,1.9,10.8,3.7,16.2,5.6c5.3,1.9,3.7,0.2,6.1,4.6c1.9,3.5,10.8,20.2,11.8,21.1L-30.4,407
					c-1.4-3.8-0.7-3-3.9-5c-2.5-1.6-9-5.3-10.8-6.8l2.3-13.9c-1-0.4-0.9-0.4-1.7-1c-0.6-0.5-0.9-0.6-1.5-1.2l-9.2-7.3
					c0.4,1.8,6.7,8.9,5.9,10.1l-5.5,5.8c-0.4,0.6-0.7,1-1.2,1.5c-0.7,0.8-0.9,0.7-1.6,1.4c-0.9,0.9-1.6,2.2-2.6,3.1
					C-61.1,394.5-62.1,394.9-62.9,396.7z"/>
				<path class="st11" d="M48.7,449l2,1.6c0.8,0.7,1.1,1,1.9,1.7l13.9,11.5c1,0.6,1.4,0.3,2.7-0.1c1.9-0.6,3.8-1.2,5.8-1.7
					c2-0.6,10.8-2.9,11.3-3.5l2-7.8c-0.3-1.2-1,0.3-1.5,0.7c-0.9,0.6-7.5,1.1-8.9,1.3c-4,0.4-8.3,0.7-12.2,1.4
					c0.3-0.9,0.7-1.6,1.1-2.4c0.3-0.5,0.5-0.7,0.8-1.1c0.3-0.5,0.1,0.2,0.3-0.5c0.1-0.3,0-0.4,0-0.5c-1.9,1.1-3.1,2.5-4,3l-6.7-4.1
					c-1.6-1-5.7-3.3-6.7-4.3c-2.8-1.5-5.5-3.4-8.2-5c-2.6-1.5-5.4-3.3-7.8-4.9c-0.7-0.2-0.8,0.1-1.2-0.9l-12.7-7.4
					c2.3,2.2,4.6,3.7,7,5.8l18.7,15.3c0.4,0.4,0.5,0.3,0.9,0.6C47.9,448.3,47.9,448.5,48.7,449z"/>
			</g>
			<g>
				<path class="st12" d="M67.4,283.7c0.9,0,11.2,3.4,12.2,4.1l5.6,1.8c-2-2-12.9-9.5-13.1-10.1l0.2-15.8c-3.9-2.6-8.4-5.2-12.6-7.6
					c-14.1-8-24.7-14-41-19.6c-10.4-3.5-22.9-4.6-33.9-6.4c-4-0.7-2.6-0.6-7.8,1.9c-5.8,2.8-15.1,7.6-20.5,9.9l1.9,12
					c0.4,0.8,14.5,4.3,15.1,4.5c5.5,1.6,17.1,4.8,22.2,6.8c7.8,3,4.8,3.2,14.1-0.8l20.7-8.5c1.5-0.2,18.6,5.1,22.7,6.2
					c4.2,1.1,3.2,1.5,5.1,4.7c1.2,2,2.5,4.2,3.6,6.3c1.1,2.1-0.2,5.7-0.2,8.3C63.4,282.2,66.1,282.5,67.4,283.7z"/>
				<path class="st12" d="M-75.4,312l0.5,11.1c2.8,0.9,7.3,0.7,10.1-0.2c4.4-1.4,10.9-8.1,13.6-8.7c2.7-0.7,40.5,13.9,41.2,14.4
					l-0.5,4.4l-40.5-14.7c-4.1,8.2,2,23.3,7.8,30.6c0.4,0.6,0.5,0.7,0.9,1.2l5.6,6c0.3,0.3,3.4,2.9,4.3,3.1
					c-0.8-0.4-9.3-11.9-10.6-13.8c-1.6-2.5-3.7-5.6-2.6-9.2c0.8-2.8,3.5-5.5,6.1-6.4c4-1.5,11.1,1.3,14.6,3.3
					c2.2,1.3,2.2,0.5,4.5-0.3c2.5-0.9,13.6,5.1,18.1,6.1l-1.3-19.9c-0.6,0.7-2.3,4.4-2.5,5.5c-5.7-1.7-12.1-4.1-17.7-6.2l-26-9.1
					c-5.2-1.9-3.9-2.4-8.1,0.2C-71.6,317.4-67.9,311.8-75.4,312z"/>
			</g>
			<g>
				<path class="st13" d="M-21.4,511.6c3.1-10.2,6.4-20.6,9.6-31c0.2-0.8,1.2-3.4,1-4L-22.9,461c-1.8-2.4-1.3-2.1-5.1-2.4
					c-3.2-0.2-6.4-0.6-9.6-0.9c-1.8-0.2-3,0.2-3.9-1.1c-1.9-2.6-8.8-13.7-10.5-14.9l-26.6-14.1c-1.5,1.9-3.2,3.5-5,5.1l-4.9,4.9
					c-2.3,2-4.7,3.9-6.6,6.3l-6.4,5.8c-1.1,1-1,1.6-1.6,3.4l-9.2,30.4c-0.4,0.7-23.1,15.4-27,17.8c-1,0.6-1.9,1.2-2.9,1.8
					c-2.1,1.4-10.4,7-12.1,7.7l2.5-0.1c0.8-0.1,1.5-0.2,2.3-0.3l14.6-2.1c4.3-0.6,56.2-19.9,58.2-19.6l13.3,8.8
					c2.2,1.5,4.4,3,6.6,4.5c3.6,2.5,2.5,2.8,7.2,1.3l25.3-7.9L-21.4,511.6z"/>
				<path class="st13" d="M-39.5,394.4c-0.2-2.7-0.2-5.8-0.3-8.5c-0.1-3,2.2-3.8,3.7-5c1.1-0.9,0.6-1,2.2-2.3
					c0.8-0.6,1.7-1.2,2.3-1.9c1-1,2.4-2.9,4.4-4c1.7,6.8,4.5,13.7,6.4,20.5l12.9,40.3c0.7,1.2,7.2,3.6,9,4.4l8.9,4
					c0-0.1,0.1,0.1,0.2,0.1l-19.8,11.7c-1.6,0.9-1.6,0.6-3.4,0.1c-1.2-0.4-2.6-0.8-3.7-1.2c0.5-6.5,2.7-10.4,1.2-13.9
					c-4.1-10.2-8.6-24-12.7-34.7c-1.6-4.3-0.5-3.8-4.5-5.9C-34.6,397-38.1,395.6-39.5,394.4z M-62.9,396.7c0.8-1.8,1.9-2.2,2.7-3
					c0.9-0.9,1.6-2.2,2.6-3.1c0.7-0.7,0.9-0.6,1.6-1.4c0.5-0.5,0.8-1,1.2-1.5l5.5-5.8c0.9-1.2-5.5-8.3-5.9-10.1l9.2,7.3
					c0.6,0.5,0.9,0.6,1.5,1.2c0.8,0.6,0.7,0.6,1.7,1l-2.3,13.9c1.8,1.6,8.3,5.2,10.8,6.8c3.2,2,2.5,1.2,3.9,5l11.6,32.3
					c-1-0.9-9.9-17.7-11.8-21.1c-2.4-4.4-0.8-2.7-6.1-4.6c-5.4-1.9-10.8-3.7-16.2-5.6c-1.9-0.7-5.3-5.3-6.5-7
					c-0.4-0.6-0.7-0.9-1.2-1.5c-0.4-0.5-0.8-0.9-1.2-1.5C-62.2,397.5-62.6,397.1-62.9,396.7z M-62.5,366.6c1.2,2,6.9,12.6,7.2,14
					l-4.9,6.9c-0.8,1.1-1.6,2.4-2.4,3.6l-10.7,15.5c0,0.1-0.5,0.9-0.6,0.9c-0.3,0.6-0.2,0.1-0.3,0.9c0.6,0.8,0.2,0.2,1.2,0.8
					c0.5,0.3,0.9,0.6,1.2,0.8c1-0.5,6-10.1,7.2-11.1c1,1,1.7,2.4,2.6,3.7c6,8,2.7,6.6,9.7,9.1l13.8,5c1.5,0.6,3.5,0.9,4.3,2
					c1.9,2.6,13.9,23.3,13.9,23.6c0,0-0.8,9.6-2,10.2c-0.1,0.7-0.2,0.2,0.5,0.8c0.1,0.1,0.8,0.6,1,0.8c0.9,0.6,1.5,0.9,2,1.8
					l17.4,6.6c1.5-0.2,2-2.5,3.1-3.2c0.7-0.5,18.8-1.8,21.3-2c7.6-0.8,14.7-0.4,22.4-0.5c0.3-0.4,0.7-1,0.9-1.5
					c-0.4-0.5-11.6-5.7-13.2-6.5c-2.6-1.2-4.3-2.3-6.7-3.5L7.2,435.1c-4.1-2.3-8.7-4.4-12.9-6.8c-1.3-0.7-1.2-1.9-1.7-3.4
					l-13.2-41.4c-1.5-4.6-3.6-10.5-4.7-15.1c3.4-1.5,20.9-3.4,26.3-4.9l24.3-4.1l1.1-0.8c-2.3-2.1-15.3-9.3-16-10.5l-0.6,0.8
					c-3.9-1.4-8.4-2.5-12.5-3.8l-24.5-7.4c-3.6-1.2-10-1.8-13.9-1.8c0,0.7,10.1,19.2,11.8,22.4c0.7,1.3,1.7,2.5,1.1,3.8
					c-0.5,1.1-1.4,2.9-2.5,3.6c-1.3-2-2.5-2.8-4.3-4.3c-1-0.8-1.1-1.4-2-2.2c-3-2.7-1.6-0.9-4.3-4c-1.2-1.3-3.2-2.4-4.4-4l-6.6-6.2
					c-1.3-1.3-4.4-15.1-5.9-19.2l-13.2,3.4c1.4,4.7,8.1,21.2,10.5,28.6c0.6,1.8,1.7,3.3,1,5C-60.5,364-61.1,366-62.5,366.6z"/>
				<path class="st13" d="M-57.1,253l-3.8-0.1c9.6,3.3,19.8,6.3,29.6,9.4c10,3.1,19.8,6.3,29.7,9.4c11,3.3,33.8,10.2,44.2,14.2
					c4.5,1.8,9.8,4,14.3,5.4c1-1.8,1.9-1.5,1.5-3c-0.2-0.8-1.1-2.7-1.4-3.6c-1.8-4.6-2-2.8-0.5-7.4c0.4-1.4-3.9-7-5.3-9.1
					c-1-1.6-0.7-1.7-2.9-2.1c-5.4-1.1-11-2.7-16.3-4c-2.6-0.6-4.9,1.1-7.2,2c-2.5,1-4.9,2.1-7.4,3.1c-10.4,4.1-8.1,4.9-15,2.8
					c-4.8-1.4-47.3-13-47.9-13.6c-0.8-1.7-0.9-9.1-1.1-11.5c-0.1-1.3,0.7-6.5,1.3-7.8c0.4-0.8-0.2-0.3,1.9-1.4l20.7-10.7
					c1.4-0.7,2.7-1.9,4.4-1.7c3.3,0.2,7.6,1.1,11,1.6c7.3,1.1,14.7,2.2,22,3.1c0.4-0.9,0.7-1,1.1-1.8l34.1,4.6
					c-2.1-1.2-5.1-1.8-7.6-2.7c-2.6-0.9-5.2-1.8-7.8-2.7L3.2,214.7c-3.8-1.3-4-1.8-8.1-1.2c-3,0.5-6,0.9-9,1.4
					c-4,0.6-14.6,1.7-17.2,3.4c-4.3,2.8-8.4,5.6-12.6,8.3c-6,3.8-4,2.6-9,11.9c-1.2,2.3-2.2,4.5-3.5,6.9
					C-58.5,249.8-58.1,247.9-57.1,253z"/>
				<path class="st13" d="M23.7,407.4l-1,2.3c1.8,1.9,4,4.5,5.9,6.2c0.7,0.7,1.1,0.7,1.9,1.4c3.4,3.3,14.5,15.9,16.3,16.8
					c0.7-0.3,0.8,0.6-0.3-2.4l-2.6-7.8c-0.9-2.4-0.3-3.2,0.3-5.7c1-4.7,6.4-27.7,6.3-28.5c-0.1-0.6-3.9-3.5-4.7-4.1l-4.8-4.1
					l-12.4,25.8C27,407.6,25.3,407.7,23.7,407.4z"/>
				<path class="st13" d="M47.6,451.5l1.2-2.4c-0.8-0.6-0.9-0.8-1.6-1.4c-0.4-0.3-0.5-0.3-0.9-0.6l-18.7-15.3
					c-2.4-2.1-4.7-3.7-7-5.8l12.7,7.4c1,0.5,0.7,0.2,1.2,0.9c2.3,1.6,5.1,3.4,7.8,4.9c2.7,1.6,5.4,3.4,8.2,5
					c0.3-0.8,0.2-0.1-0.2-1.3c-0.3-0.8-0.3-0.5-0.3-1.4c-0.9-1-11.3-6.6-13.3-7.7c-2.3-1.3-4.4-2.6-6.6-3.8c-1.7-1-5.4-2.9-6.6-3.9
					c-1.9-0.9-4.1-2.2-5.9-3.3l-11.8-6.7c-1.1-1-1.5-5.7-1.8-7.5c-0.9-5.3-1.8-10.5-2.7-15.8c-0.9-4.9-2.2-10.8-2.7-15.7
					c0.8-1,24.9-12.3,28.1-13.6l-0.4-0.4c0,0-0.3-0.2-0.4-0.3l0-3.1l-14.8,6.9c-2.9,1.3-12.8,6.5-15,6.9l3.7,28.8
					c0.8,4.5,1.8,8.9,2.7,13.4c0.8,4.3,0.2,3.6,1.5,4.5c0.4,0.3,0.7,0.5,1.2,0.9c3.9,3.1,10.2,7.2,14,10.2l16.2,11.8
					C37.8,444.5,46.1,450.9,47.6,451.5z"/>
			</g>
			<path class="st0" d="M26.2,292.1c-2.3,1.7-9.2,14.1-11.1,17.3c-5.8,9.7-6.2,9.3-2.6,10.5c9,3,7.8,3.9,11.1-1.7
				c0.9-1.6,1.8-2.9,2.7-4.5c1.2-2.1,10.5-16.7,10.2-17.9c-0.3-1.2-3.6-1.9-4.8-2.3C30,293,28,292,26.2,292.1z"/>
			<path class="st0" d="M25.3,359.3l0.6,0.2l0,3.1c0.1,0,0.3,0.2,0.4,0.3l0.4,0.4l1.5-0.9l0.5-2.9l-2.2-1.1L25.3,359.3z"/>
			<path class="st14" d="M79.1,585.5L61,577.9c-6.1-2.4-12.1-5.1-18.2-7.4c-9.7-3.7-23.3-9.9-32-13c-1.4-0.5-1.4-0.2-1.9-1.4
				c-0.3-0.6-0.5-1.6-0.7-2.3c-0.8-2.6-6.6-17.5-6-18.9l4.8-8c7.5-12.5,17.1-27.8,24-40c-1.6,0.9-1.2,0.7-2.2,2.1
				c-0.8,1.1-1.1,1-1.9,2c-1.5,2-1.2,1.2-2,2.2c-0.9,1.1-0.6,1-1.8,2.1l-4.8,5.4c-1.7,1.8-4.3,5.2-6.4,7.3c-0.8,0.7-0.9,1.4-1.7,2.2
				c-0.7,0.7-0.4,0.2-1.1,1l-1.8,2c-0.4,0.4-0.5,0.7-0.9,1.2l-14,15.8c-1.7,1.6-0.7,1.1-2.8,3.1l-5.5,6.4c-2.9,3.7-3.3,1.3-2.8,8.2
				c1.3,17.5-1.1,14.4,7.3,16.3C18.6,571.1,49.1,579,79.1,585.5z"/>
			<path class="st15" d="M79.2,358.9c0.6-0.5-0.4-0.1,1-0.5c0.2,0,1-0.1,1.2-0.1c-0.5-0.7-0.2-0.3-0.9-0.8c-0.3-0.2-0.5-0.2-0.8-0.3
				c1.2-2.3,6.8-1.6,8-4.3c-0.4-1.2-0.4-2.6-1.1-3.3c-2.2-2.2-4.9-1.5-4.5-4.6c0.2-1.6,0.4-3,0.6-4.6c-0.2,0-9.5-2.6-9.4-4.3
				c0-0.8,1.8-1.5,3.4-2.6c2-1.4,1.7-1.5,4.7-1.6c2.9-0.1,9.6-0.6,12.2-0.2c0.3,1,1,4.2,0.4,5.1l0.2,1.1c1,0.9,0.7,2.1,1.1,3.5
				c0.3,1.3,0.7,2.5,1,3.8c0.9-0.2,0.5,0.1,0.9-0.4c-0.3-3.1-1.3-7.1-1.9-10.2c-0.3-1.4-0.5-3.5-1.2-4.8c-0.7-1.3-1.8-2.4-2.5-3.7
				c-0.5,0.3,0.2,0.3-0.9,0.2c-1.1,0-0.9-0.7-3.1-0.3c-1.2,0.2-2.6,0.7-3.8,1c-1.6,0.5-10.2,2.8-10.3,5c0,0.2,0.3,0.4-1,1.5
				l-4.8,4.7c-3.1,4.7-5.1,6.3,0.7,12.2l5.3,4.2C75.2,356,77.4,357.4,79.2,358.9z"/>
			<path class="st16" d="M114.8,328.1c1.1,0.7,1.4,1.3,2.1,2.3l0.7,0.9l-10.6,6.5c-2-2-2.5-1.9-3.1-3.2L114.8,328.1z M89.7,321.2
				c0.7,0.8,1.4,1.1,2.2,2c0.6,0.7,0.2,0.5,0.9,1.1c3.5,3.4,2.9,0.7,4,6.4c0.7,3.9,1.5,10.5,2.6,14.1l3.5,0.1
				c-0.7,0.9-0.9,0.9-1.9,1.4c-0.5,1-0.5,1.9-0.7,3l0.4-0.3c0,0,0.3-0.2,0.3-0.3c1.6-1.4,2.9-4,3.6-5.9c1-2.8,0.2-1.8,5.7-5
				c2.3-1.4,4.4-2.6,6.7-4c2.8-1.7,2.1-0.8,2.8-2.6c0.3-0.9,1-3.1,1.5-3.6c-0.4-1.9-3.6-8.4-4.9-10.2c-1.3-1.8-1-2.3-2.4-2.3
				c-1.2,9.7-1.4,12.9-10.2,16l-0.4-3.2c5.6-1.5,7.6-5.3,6.2-10.7c-1,0-2.6,1.3-3.8,1.8C100.9,321.2,94.7,321.3,89.7,321.2z"/>
			<path class="st17" d="M5.4,208.9l-0.1,0.3c4.2,0.7,18.8,5.6,23.8,7.2c7.7,2.5,15.1,5.6,22.2,8.8c5,2.2,10.5,5.3,14.6,8.6
				c6.6,5.3,16.5,12.2,25,13.9c-0.6-1.3-2.1-2.2-3.8-4c-0.9-1-0.6-1.1-1.9-2l-6.5-5.1c-1.7-1.2-2.8-2-4.6-3.2
				c-5.8-3.9-13.1-7.7-20.3-10.7C42.1,217.9,17.9,209.5,5.4,208.9z"/>
			<path class="st18" d="M92.1,340.9c-4.6,7.7-7.5,4.9-7.5,0.6c0-1.4,0.4-2.2,1.2-2.8C90.9,335,93.4,338.8,92.1,340.9z M87.8,352.9
				c1.5,0.2,4.3-2.1,5.2-2.8c0.8-0.7,3-3.2,3.1-4.9c-0.2-1.3-0.7-2.5-1-3.8c-0.3-1.4-0.1-2.6-1.1-3.5c-3.6-4.7-10.9-1.8-16.5-1.9
				c-0.9,0.5-0.9,0.4-2,0.5c0.2-0.2,0.2-0.3,0.6-0.5c0.5-0.2,0.3-0.1,1-0.2c5.4-0.7,13.7-3.9,16.7,1c0.7-0.9-0.1-4.1-0.4-5.1
				c-2.5-0.4-9.3,0-12.2,0.2c-3,0.1-2.7,0.2-4.7,1.6c-1.6,1.1-3.3,1.8-3.4,2.6c-0.1,1.7,9.2,4.3,9.4,4.3c-0.2,1.6-0.4,3-0.6,4.6
				c-0.3,3.1,2.3,2.4,4.5,4.6C87.4,350.3,87.4,351.7,87.8,352.9z"/>
			<path class="st19" d="M76.9,444.7c-1,0.2-1.6,0.3-2.3,1.1l1-0.1c-1.3,0.7-2.5,1.3-3.9,2c-1.2,0.5-3.4,1-4,1.9
				c0,0.1,0.1,0.2,0,0.5c-0.2,0.7,0.1,0-0.3,0.5c-0.2,0.4-0.5,0.6-0.8,1.1c-0.4,0.8-0.8,1.5-1.1,2.4c3.9-0.6,8.2-0.9,12.2-1.4
				c1.4-0.2,8.1-0.7,8.9-1.3c0.6-0.4,1.2-1.8,1.5-0.7c0.2-0.5,0.2-0.7,0.5-1.2c0.6-0.9,0.2,0,0.9-1.2l-1-9.8
				c-0.6,0.5-0.7,0.6-0.7,2.4c0,0.7,0,1.4,0,2.1c-1.1,0-4.5,0.7-5.7,0.9c-0.9,0.2-2.2,0.3-3,0.5C76.5,445,76.9,446,76.9,444.7z"/>
			<path class="st20" d="M120.5,277c0.8,0.6,2.9,4,3.2,5c0.7-0.6,0.1,0.3,0.4-0.6c0.1-0.4,0.2-0.6,0.2-1c0.1-0.6,0.1-1.6,0.1-2.3
				c-0.7-1.2-1.3-7.6-1.6-9.4c-0.5-3.5-1.4-2.5-6.1-5.3c-0.2-0.9,0-2.3,0.1-3.2c0.1-1.1,0.2-2.7,0.5-3.3l-1.6-1.6
				c-1,1.9-3.9,8.4-4,10.3c1.7,1.5,3.2,3.4,4.6,5.3C117.5,272.6,119.8,275.4,120.5,277z"/>
			<path class="st21" d="M91.4,326.1c0.7,1.4,1.9,2.4,2.5,3.7c0.7,1.3,0.9,3.4,1.2,4.8c0.6,3.1,1.6,7.1,1.9,10.2l0.6,2.5l3.3-0.9
				c1-0.5,1.2-0.5,1.9-1.4l-3.5-0.1c-1.1-3.5-1.9-10.1-2.6-14.1c-1.1-5.8-0.5-3.1-4-6.4c-0.7-0.7-0.3-0.4-0.9-1.1
				c-0.7-0.9-1.5-1.1-2.2-2c-1.3-0.4-0.5-0.1-0.6-0.6c-1.6-0.8-0.3-0.6-2.7-2.5c-0.8-0.6-1.9-1.6-2.6-2.2
				C84.2,316.3,90.2,324.9,91.4,326.1z"/>
			<path class="st22" d="M123,329.3c0,0.3,0,0.6,0,0.8c0.6,2-0.7-1.6,0.2,0.5l0.3,0.5c0.7-4.2,1-4.3,0.8-8.8
				c-0.2-3.1-0.5-6.4-0.7-9.5c-0.6-6.3-1.5-11.8-2.4-18c-0.4,0.4-0.1-0.3-0.5,0.8l0,3.4C121.6,309.7,122.6,318.1,123,329.3z"/>
			<path class="st23" d="M124.4,278.2c0.1-4.2-0.4-8.4-1.7-12.3c-0.5-1.6-1.3-3.4-2.2-4.7c-0.5-0.9-0.8-1.3-1.4-2.1
				c-0.3-0.4-0.4-0.7-0.7-1c-0.3-0.4-0.6-0.6-1-0.9c-0.3,0.6-0.4,2.2-0.5,3.3c-0.1,0.9-0.3,2.2-0.1,3.2c4.7,2.7,5.6,1.7,6.1,5.3
				C123.1,270.6,123.7,277,124.4,278.2z"/>
			<path class="st24" d="M35.6,363.6c1.2,0.5,0.4,0.1,1.3,0.8c0.5,0.4,0.9,0.7,1.4,1c0.8,0.6,1.8,1.6,3,1.7c-1-2.7-1.2-8.2-2.6-10.3
				L35.6,363.6z"/>
			<path class="st25" d="M119.7,277.3l3.7,5.4l0.5-0.1c-0.9,0.2-0.1,0.1-0.3-0.6c-0.3-1-2.4-4.4-3.2-5l-0.6,0.2
				C119.9,277.2,119.8,277.3,119.7,277.3C119.8,277.3,119.8,277.3,119.7,277.3z"/>
			<path class="st26" d="M77.6,336l-0.4-0.2c-0.7,0.1-0.5,0-1,0.2c-0.5,0.2-0.4,0.3-0.6,0.5C76.7,336.4,76.7,336.5,77.6,336z"/>
			<path class="st27" d="M-87.4,318.9l0.2,0c-0.3-1.1,0-0.7-0.7-1.2c0,0.3,0,0.3,0.1,0.6C-87.6,318.7-87.5,318.7-87.4,318.9z"/>
			<path class="st28" d="M-121.9,432.2l0.5,0.3c0.1-0.1,0.3-0.4,0.4-0.9C-121.9,431.9-121.2,431.5-121.9,432.2z"/>
			<path class="st29" d="M34.5,434.2c-0.4-0.7-0.2-0.4-1.2-0.9C33.7,434.2,33.7,434,34.5,434.2z"/>
			<polygon class="st30" points="52.8,309.9 53.2,310.3 53.3,309.3 			"/>
			<path class="st31" d="M5.3,209.3l0.1-0.3L5.3,209.3z"/>
			<path class="st32" d="M81.5,585.8l-0.1,0.4L81.5,585.8z"/>
		</g>
	</g>
</g>
</svg>
